<svg width="16" height="16" viewBox="0 0 16 16" fill="none" xmlns="http://www.w3.org/2000/svg">
<mask id="mask0_107_1307" style="mask-type:alpha" maskUnits="userSpaceOnUse" x="0" y="0" width="16" height="16">
<rect width="16" height="16" fill="#DCDCDC"/>
</mask>
<g mask="url(#mask0_107_1307)">
<path fill-rule="evenodd" clip-rule="evenodd" d="M1.33325 11.9997V13.333C1.33325 14.0694 1.93021 14.6663 2.66659 14.6663H3.99992V13.333H2.66659L2.66659 11.9997H1.33325ZM3.99992 1.33301H2.66659C1.93021 1.33301 1.33325 1.92996 1.33325 2.66634V3.99967H2.66659V2.66634L3.99992 2.66634V1.33301ZM1.33325 9.33301H2.66659V6.66634H1.33325V9.33301ZM6.66659 1.33301V2.66634H9.33325V1.33301H6.66659ZM11.9999 1.33301V2.66634H13.3333V3.99967H14.6666V2.66634C14.6666 1.92996 14.0696 1.33301 13.3333 1.33301H11.9999ZM14.6666 6.66634H13.3333V9.33301H14.6666V6.66634ZM14.6666 11.9997H13.3333V13.333H11.9999V14.6663H13.3333C14.0696 14.6663 14.6666 14.0694 14.6666 13.333V11.9997ZM9.33325 14.6663V13.333H6.66659V14.6663H9.33325Z" fill="#E5E5E5"/>
<path d="M8.66693 7.33415V2.66748H7.3336V7.33415H2.66693V8.66748H7.3336V13.3341H8.66693V8.66748H13.3336V7.33415H8.66693Z" fill="black"/>
</g>
</svg>
