<svg width="16" height="16" viewBox="0 0 16 16" fill="none" xmlns="http://www.w3.org/2000/svg">
<mask id="mask0_102_1016" style="mask-type:alpha" maskUnits="userSpaceOnUse" x="0" y="0" width="16" height="16">
<rect width="16" height="16" fill="#DCDCDC"/>
</mask>
<g mask="url(#mask0_102_1016)">
<path d="M7.60396 8.00784C7.60396 7.66379 7.32505 7.38487 6.98098 7.38487C6.63692 7.38487 6.35801 7.66379 6.35801 8.00784C6.35801 9.54027 7.57166 10.8112 9.1037 10.8112C9.11284 10.8112 9.12193 10.811 9.13097 10.8106C9.14103 10.8111 9.15115 10.8114 9.16132 10.8114H12.3781C13.9102 10.8114 15.1238 9.54042 15.1238 8.00798C15.1238 6.47559 13.9103 5.20459 12.3781 5.20459L9.692 5.20459C9.34794 5.20459 9.06903 5.48351 9.06903 5.82757C9.06903 6.17163 9.34794 6.45054 9.692 6.45054H12.3781C13.1908 6.45054 13.8779 7.13199 13.8779 8.008C13.8779 8.884 13.1908 9.56543 12.3781 9.56543H9.16132C9.15218 9.56543 9.14308 9.56562 9.13404 9.56601C9.12398 9.56553 9.11387 9.56529 9.1037 9.56529C8.29107 9.56529 7.60396 8.88386 7.60396 8.00784Z" fill="black"/>
<path d="M8.39586 7.99201C8.39586 8.33606 8.67482 8.61498 9.01887 8.61498C9.36292 8.61498 9.64181 8.33606 9.64181 7.99201C9.64181 6.45958 8.42815 5.18862 6.89615 5.18862C6.88701 5.18862 6.87791 5.18881 6.86887 5.1892C6.85881 5.18872 6.8487 5.18848 6.83852 5.18848L3.62171 5.18848C2.08964 5.18848 0.875977 6.45943 0.875977 7.99187C0.876005 9.52426 2.08962 10.7953 3.62171 10.7953H6.30784C6.65191 10.7953 6.93082 10.5163 6.93082 10.1723C6.93082 9.82822 6.65191 9.54931 6.30784 9.54931H3.62171C2.80904 9.54931 2.12195 8.86787 2.12193 7.99186C2.12193 7.11586 2.80903 6.43443 3.62171 6.43443H6.83852C6.84766 6.43443 6.85676 6.43423 6.86581 6.43384C6.87586 6.43432 6.88598 6.43457 6.89615 6.43457C7.7088 6.43457 8.39586 7.11599 8.39586 7.99201Z" fill="#E5E5E5"/>
</g>
</svg>
