<svg width="16" height="16" viewBox="0 0 16 16" fill="none" xmlns="http://www.w3.org/2000/svg">
<mask id="mask0_107_1297" style="mask-type:alpha" maskUnits="userSpaceOnUse" x="0" y="0" width="16" height="16">
<rect width="16" height="16" fill="#DCDCDC"/>
</mask>
<g mask="url(#mask0_107_1297)">
<path d="M1.33325 3.99992L1.33325 2.66659C1.33325 1.93021 1.93021 1.33325 2.66659 1.33325L3.99992 1.33325L3.99992 2.66659L2.66659 2.66659L2.66659 3.99992L1.33325 3.99992Z" fill="#E5E5E5"/>
<path d="M9.33325 1.33325L9.33325 2.66658L6.66659 2.66659L6.66659 1.33325L9.33325 1.33325Z" fill="#E5E5E5"/>
<path d="M1.33325 6.66659L2.66659 6.66659L2.66659 7.33325L5.33325 7.33325L5.33325 8.66659L2.66659 8.66659L2.66659 9.33325L1.33325 9.33325L1.33325 6.66659Z" fill="#E5E5E5"/>
<path d="M1.33325 11.9999L2.66659 11.9999L2.66659 13.3333L3.99992 13.3333L3.99992 14.6666L2.66659 14.6666C1.93021 14.6666 1.33325 14.0696 1.33325 13.3333L1.33325 11.9999Z" fill="#E5E5E5"/>
<path d="M6.66659 14.6666L6.66659 13.3333L7.33325 13.3333L7.33325 10.6666L8.66659 10.6666L8.66659 13.3333L9.33325 13.3333L9.33325 14.6666L6.66659 14.6666Z" fill="#E5E5E5"/>
<path d="M13.3333 7.33325L10.6666 7.33325L10.6666 8.66659L13.3333 8.66658L13.3333 7.33325Z" fill="#E5E5E5"/>
<path d="M7.33325 5.33325L7.33325 2.66659L8.66659 2.66659L8.66659 5.33325L7.33325 5.33325Z" fill="#E5E5E5"/>
<path d="M13.3333 1.33325L12 1.33325L12 2.66659L13.3333 2.66659L13.3333 13.3333L12 13.3333L12 14.6666L13.3333 14.6666C14.0697 14.6666 14.6667 14.0696 14.6667 13.3333L14.6667 2.66659C14.6667 1.93021 14.0697 1.33325 13.3333 1.33325Z" fill="black"/>
</g>
</svg>
