<svg width="16" height="16" viewBox="0 0 16 16" fill="none" xmlns="http://www.w3.org/2000/svg">
<path d="M4.96372 2.59116C5.19803 2.35684 5.19803 1.97695 4.96372 1.74263C4.7294 1.50832 4.3495 1.50832 4.11519 1.74263L2.53945 3.31837L1.96372 2.74263C1.7294 2.50832 1.3495 2.50832 1.11519 2.74263C0.880874 2.97695 0.880874 3.35684 1.11519 3.59116L2.11519 4.59116C2.3495 4.82547 2.7294 4.82547 2.96372 4.59116L4.96372 2.59116Z" fill="black"/>
<path d="M14.4605 2.56689H6.8981C6.56672 2.56689 6.2981 2.83552 6.2981 3.16689C6.2981 3.49827 6.56672 3.76689 6.8981 3.76689H14.4605C14.7918 3.76689 15.0605 3.49827 15.0605 3.16689C15.0605 2.83552 14.7918 2.56689 14.4605 2.56689Z" fill="black"/>
<path d="M6.8981 7.2334C6.56672 7.2334 6.2981 7.50203 6.2981 7.8334C6.2981 8.16477 6.56672 8.4334 6.8981 8.4334H14.4605C14.7918 8.4334 15.0605 8.16477 15.0605 7.8334C15.0605 7.50203 14.7918 7.2334 14.4605 7.2334H6.8981Z" fill="black"/>
<path d="M6.2981 12.4999C6.2981 12.1685 6.56672 11.8999 6.8981 11.8999H14.4605C14.7918 11.8999 15.0605 12.1685 15.0605 12.4999C15.0605 12.8313 14.7918 13.0999 14.4605 13.0999H6.8981C6.56672 13.0999 6.2981 12.8313 6.2981 12.4999Z" fill="black"/>
<path fill-rule="evenodd" clip-rule="evenodd" d="M2.87279 5.8999C1.80504 5.8999 0.939453 6.76549 0.939453 7.83324C0.939453 8.90099 1.80504 9.76657 2.87279 9.76657C3.94054 9.76657 4.80612 8.90099 4.80612 7.83324C4.80612 6.76549 3.94054 5.8999 2.87279 5.8999ZM2.13945 7.83324C2.13945 7.42823 2.46778 7.0999 2.87279 7.0999C3.2778 7.0999 3.60612 7.42823 3.60612 7.83324C3.60612 8.23824 3.2778 8.56657 2.87279 8.56657C2.46778 8.56657 2.13945 8.23824 2.13945 7.83324Z" fill="black"/>
<path fill-rule="evenodd" clip-rule="evenodd" d="M0.939453 12.5002C0.939453 11.4325 1.80504 10.5669 2.87279 10.5669C3.94054 10.5669 4.80612 11.4325 4.80612 12.5002C4.80612 13.568 3.94054 14.4336 2.87279 14.4336C1.80504 14.4336 0.939453 13.568 0.939453 12.5002ZM2.87279 11.7669C2.46778 11.7669 2.13945 12.0952 2.13945 12.5002C2.13945 12.9052 2.46778 13.2336 2.87279 13.2336C3.2778 13.2336 3.60612 12.9052 3.60612 12.5002C3.60612 12.0952 3.2778 11.7669 2.87279 11.7669Z" fill="black"/>
</svg>
