<svg width="20" height="20" viewBox="0 0 20 20" fill="none" xmlns="http://www.w3.org/2000/svg">
<circle cx="9.99999" cy="10" r="7.03704" fill="black"/>
<path fill-rule="evenodd" clip-rule="evenodd" d="M6.87359 6.87332C6.6146 7.13231 6.6146 7.55221 6.87359 7.8112L9.062 9.99961L6.87356 12.188C6.61457 12.447 6.61457 12.8669 6.87356 13.1259C7.13255 13.3849 7.55245 13.3849 7.81144 13.1259L9.99987 10.9375L12.1882 13.1258C12.4472 13.3848 12.8671 13.3848 13.1261 13.1258C13.3851 12.8669 13.3851 12.447 13.1261 12.188L10.9378 9.99961L13.1261 7.81127C13.3851 7.55228 13.3851 7.13238 13.1261 6.87339C12.8671 6.61441 12.4472 6.61441 12.1882 6.87339L9.99987 9.06173L7.81147 6.87332C7.55248 6.61433 7.13257 6.61433 6.87359 6.87332Z" fill="#E5E5E5"/>
</svg>
