<svg width="21" height="21" viewBox="0 0 21 21" fill="none" xmlns="http://www.w3.org/2000/svg">
<mask id="mask0_331_1004" style="mask-type:alpha" maskUnits="userSpaceOnUse" x="0" y="0" width="21" height="21">
<rect x="0.148224" y="0.260742" width="20" height="20" fill="#DCDCDC"/>
</mask>
<g mask="url(#mask0_331_1004)">
<path d="M8.51186 7.8062C8.96373 7.8062 9.33004 8.17251 9.33004 8.62438V13.9426C9.33004 14.3944 8.96373 14.7607 8.51186 14.7607C8.05999 14.7607 7.69368 14.3944 7.69368 13.9426V8.62438C7.69368 8.17251 8.05999 7.8062 8.51186 7.8062Z" fill="#409F11"/>
<path d="M12.6028 8.62438C12.6028 8.17251 12.2365 7.8062 11.7846 7.8062C11.3327 7.8062 10.9664 8.17251 10.9664 8.62438V13.9426C10.9664 14.3944 11.3327 14.7607 11.7846 14.7607C12.2365 14.7607 12.6028 14.3944 12.6028 13.9426V8.62438Z" fill="#409F11"/>
<path fill-rule="evenodd" clip-rule="evenodd" d="M8.221 1.26074C7.9222 1.26074 7.64716 1.42362 7.50354 1.68564L6.39095 3.71529H1.96641C1.51454 3.71529 1.14822 4.0816 1.14822 4.53347C1.14822 4.98534 1.51454 5.35165 1.96641 5.35165H3.19368V18.4426C3.19368 18.8944 3.55999 19.2607 4.01186 19.2607H16.2846C16.7365 19.2607 17.1028 18.8944 17.1028 18.4426V5.35165H18.33C18.7819 5.35165 19.1482 4.98534 19.1482 4.53347C19.1482 4.0816 18.7819 3.71529 18.33 3.71529H13.9102L12.8233 1.69176C12.6807 1.42633 12.4038 1.26074 12.1025 1.26074H8.221ZM12.0527 3.71529L11.6132 2.89711H8.70554L8.25704 3.71529H12.0527ZM4.83004 5.35165V17.6244H15.4664V5.35165H4.83004Z" fill="#409F11"/>
</g>
</svg>
