<svg width="21" height="21" viewBox="0 0 21 21" fill="none" xmlns="http://www.w3.org/2000/svg">
<mask id="mask0_331_1001" style="mask-type:alpha" maskUnits="userSpaceOnUse" x="0" y="0" width="21" height="21">
<rect x="0.148468" y="0.260742" width="20" height="20" fill="#DCDCDC"/>
</mask>
<g mask="url(#mask0_331_1001)">
<path fill-rule="evenodd" clip-rule="evenodd" d="M11.9544 8.45493C11.6349 8.13541 11.1168 8.13541 10.7973 8.45493L6.7064 12.5458C6.55296 12.6993 6.46676 12.9074 6.46676 13.1244V14.7607C6.46676 15.2126 6.83307 15.5789 7.28494 15.5789H8.92131C9.1383 15.5789 9.34641 15.4927 9.49985 15.3393L13.5908 11.2484C13.9103 10.9289 13.9103 10.4108 13.5908 10.0913L11.9544 8.45493ZM8.10312 13.9426V13.4633L11.3759 10.1906L11.8551 10.6698L8.5824 13.9426H8.10312Z" fill="#409F11"/>
<path fill-rule="evenodd" clip-rule="evenodd" d="M17.5122 6.16983C17.5122 5.92196 17.402 5.69983 17.2279 5.54979L13.2232 1.54509C13.0731 1.37097 12.851 1.26074 12.6031 1.26074H4.42131C3.51757 1.26074 2.78494 1.99337 2.78494 2.89711V17.6244C2.78494 18.5281 3.51758 19.2607 4.42131 19.2607H15.8759C16.7796 19.2607 17.5122 18.5281 17.5122 17.6244V6.16983ZM13.4213 5.35165V4.05739L14.7156 5.35165H13.4213ZM11.7849 2.89711H4.42131V17.6244H15.8759V6.98801H12.6031C12.1513 6.98801 11.7849 6.6217 11.7849 6.16983V2.89711Z" fill="#409F11"/>
</g>
</svg>
