<svg width="16" height="16" viewBox="0 0 16 16" fill="none" xmlns="http://www.w3.org/2000/svg">
<path d="M12.4208 1.53335C12.4208 1.20198 12.1522 0.93335 11.8208 0.93335C11.4895 0.93335 11.2208 1.20198 11.2208 1.53335V13.0181L9.97861 11.7758C9.7443 11.5415 9.3644 11.5415 9.13008 11.7758C8.89577 12.0101 8.89577 12.39 9.13008 12.6244L11.3967 14.891C11.6311 15.1253 12.011 15.1253 12.2453 14.891L14.5119 12.6244C14.7463 12.39 14.7463 12.0101 14.5119 11.7758C14.2776 11.5415 13.8977 11.5415 13.6634 11.7758L12.4208 13.0184V1.53335Z" fill="black"/>
<path fill-rule="evenodd" clip-rule="evenodd" d="M1.98967 10.2798C1.6583 10.2798 1.38967 10.0112 1.38967 9.67983C1.38967 9.34846 1.6583 9.07983 1.98967 9.07983H6.50138C6.74406 9.07983 6.96284 9.22602 7.05571 9.45022C7.14858 9.67443 7.09725 9.9325 6.92565 10.1041L3.43819 13.5916H6.50138C6.83276 13.5916 7.10138 13.8602 7.10138 14.1916C7.10138 14.5229 6.83276 14.7916 6.50138 14.7916H1.98967C1.74699 14.7916 1.52821 14.6454 1.43534 14.4212C1.34247 14.197 1.3938 13.9389 1.5654 13.7673L5.05286 10.2798H1.98967Z" fill="black"/>
<path fill-rule="evenodd" clip-rule="evenodd" d="M5.1846 1.86439C4.8641 0.989866 3.62725 0.989866 3.30674 1.86439L1.34882 7.20672C1.23479 7.51786 1.39458 7.86252 1.70571 7.97655C2.01684 8.09058 2.3615 7.93079 2.47553 7.61966L3.06159 6.02055L3.06338 6.02056H5.42975L6.01581 7.61966C6.12984 7.93079 6.4745 8.09058 6.78563 7.97655C7.09677 7.86252 7.25655 7.51786 7.14252 7.20672L5.1846 1.86439ZM4.98996 4.82056L4.24567 2.78971L3.50138 4.82056H4.98996Z" fill="black"/>
</svg>
