<svg width="25" height="25" viewBox="0 0 25 25" fill="none" xmlns="http://www.w3.org/2000/svg">
<mask id="mask0_17_209" style="mask-type:alpha" maskUnits="userSpaceOnUse" x="0" y="0" width="25" height="25">
<rect x="0.0559082" y="0.862305" width="24" height="24" fill="#DCDCDC"/>
</mask>
<g mask="url(#mask0_17_209)">
<path d="M8.7105 10.9506C8.7105 10.4227 9.13844 9.99479 9.66634 9.99479H11.578C12.1059 9.99479 12.5339 10.4227 12.5339 10.9506C12.5339 11.4785 12.1059 11.9065 11.578 11.9065H9.66634C9.13844 11.9065 8.7105 11.4785 8.7105 10.9506Z" fill="#35322B"/>
<path d="M9.66634 13.8181C9.13844 13.8181 8.7105 14.2461 8.7105 14.774C8.7105 15.3019 9.13844 15.7298 9.66634 15.7298H15.4014C15.9293 15.7298 16.3572 15.3019 16.3572 14.774C16.3572 14.2461 15.9293 13.8181 15.4014 13.8181H9.66634Z" fill="#35322B"/>
<path fill-rule="evenodd" clip-rule="evenodd" d="M21.1364 9.03896C21.1364 8.73932 20.9985 8.47188 20.7828 8.29663L15.7155 2.76876C15.5437 2.51492 15.2531 2.34808 14.9234 2.34808H6.79882C6.27092 2.34808 5.84298 2.77603 5.84298 3.30392V19.5532C5.84298 20.0811 6.27092 20.509 6.79882 20.509H20.1806C20.7085 20.509 21.1364 20.0811 21.1364 19.5532V9.03896ZM15.8793 8.08312V5.77647L17.9937 8.08312H15.8793ZM7.75466 4.25976V18.5973H19.2247V9.99479H14.9234C14.3956 9.99479 13.9676 9.56685 13.9676 9.03896V4.25976H7.75466Z" fill="#35322B"/>
<path d="M4.88714 10.9506C4.88714 10.4227 4.4592 9.99479 3.9313 9.99479C3.40341 9.99479 2.97546 10.4227 2.97546 10.9506V22.4207C2.97546 22.9486 3.40341 23.3765 3.9313 23.3765H13.9676C14.4955 23.3765 14.9234 22.9486 14.9234 22.4207C14.9234 21.8928 14.4955 21.4649 13.9676 21.4649H4.88714V10.9506Z" fill="#35322B"/>
</g>
</svg>
