<svg width="25" height="25" viewBox="0 0 25 25" fill="none" xmlns="http://www.w3.org/2000/svg">
<mask id="mask0_17_212" style="mask-type:alpha" maskUnits="userSpaceOnUse" x="0" y="0" width="25" height="25">
<rect x="0.692383" y="0.862305" width="24" height="24" fill="#DCDCDC"/>
</mask>
<g mask="url(#mask0_17_212)">
<path d="M8.86904 3.78183C8.86904 3.25393 9.29698 2.82599 9.82488 2.82599H15.5599C16.0878 2.82599 16.5157 3.25393 16.5157 3.78183C16.5157 4.30972 16.0878 4.73767 15.5599 4.73767H9.82488C9.29698 4.73767 8.86904 4.30972 8.86904 3.78183Z" fill="#35322B"/>
<path d="M4.08984 6.64934C4.08984 6.12145 4.51779 5.69351 5.04568 5.69351H20.3391C20.867 5.69351 21.2949 6.12145 21.2949 6.64934C21.2949 7.17724 20.867 7.60518 20.3391 7.60518H5.04568C4.51779 7.60518 4.08984 7.17724 4.08984 6.64934Z" fill="#35322B"/>
<path d="M10.1048 12.6643C10.4781 12.2911 11.0833 12.2911 11.4566 12.6643L12.6924 13.9001L13.9282 12.6643C14.3015 12.2911 14.9067 12.2911 15.28 12.6643C15.6532 13.0376 15.6532 13.6428 15.28 14.0161L14.0442 15.2519L15.28 16.4877C15.6532 16.861 15.6532 17.4662 15.28 17.8395C14.9067 18.2127 14.3015 18.2127 13.9282 17.8395L12.6924 16.6037L11.4566 17.8395C11.0833 18.2127 10.4781 18.2127 10.1048 17.8395C9.73156 17.4662 9.73156 16.861 10.1048 16.4877L11.3406 15.2519L10.1048 14.0161C9.73156 13.6428 9.73156 13.0376 10.1048 12.6643Z" fill="#35322B"/>
<path fill-rule="evenodd" clip-rule="evenodd" d="M6.95736 8.56102C6.42947 8.56102 6.00152 8.98897 6.00152 9.51686V20.509C6.00152 21.8288 7.07136 22.8986 8.39112 22.8986H16.9937C18.3134 22.8986 19.3833 21.8288 19.3833 20.509V9.51686C19.3833 8.98897 18.9553 8.56102 18.4274 8.56102H6.95736ZM7.9132 20.509V10.4727H17.4716V20.509C17.4716 20.773 17.2576 20.9869 16.9937 20.9869H8.39112C8.12715 20.9869 7.9132 20.773 7.9132 20.509Z" fill="#35322B"/>
</g>
</svg>
