<svg width="25" height="25" viewBox="0 0 25 25" fill="none" xmlns="http://www.w3.org/2000/svg">
<mask id="mask0_17_221" style="mask-type:alpha" maskUnits="userSpaceOnUse" x="0" y="0" width="25" height="25">
<rect x="0.874146" y="0.862305" width="24" height="24" fill="#DCDCDC"/>
</mask>
<g mask="url(#mask0_17_221)">
<path fill-rule="evenodd" clip-rule="evenodd" d="M5.69061 2.34808C4.63482 2.34808 3.77893 3.20397 3.77893 4.25976V21.4649C3.77893 22.5207 4.63483 23.3765 5.69061 23.3765H11.4256C11.9535 23.3765 12.3815 22.9486 12.3815 22.4207C12.3815 21.8928 11.9535 21.4649 11.4256 21.4649H5.69061V4.25976H14.2932V8.08312C14.2932 8.61101 14.7211 9.03896 15.249 9.03896H19.0724V12.3844C19.0724 12.9123 19.5003 13.3402 20.0282 13.3402C20.5561 13.3402 20.984 12.9123 20.984 12.3844V8.08312C20.984 7.83592 20.8902 7.61064 20.7362 7.44096L16.4374 2.6645C16.2561 2.46309 15.9979 2.34808 15.7269 2.34808H5.69061ZM16.2048 7.12728V5.26378L17.882 7.12728H16.2048Z" fill="#35322B"/>
<path d="M19.6361 15.9675C19.3128 15.6441 18.7886 15.6441 18.4653 15.9674C18.142 16.2908 18.142 16.8149 18.4653 17.1383L19.1357 17.8086H12.2555C11.7982 17.8086 11.4276 18.1793 11.4276 18.6365C11.4276 19.0938 11.7982 19.4644 12.2555 19.4644H19.1431L18.4652 20.1423C18.1419 20.4656 18.1419 20.9898 18.4652 21.3131C18.7885 21.6364 19.3127 21.6364 19.636 21.3131L21.6607 19.2884C21.6835 19.27 21.7056 19.2502 21.7268 19.229C21.8878 19.068 21.9686 18.8572 21.9693 18.6462L21.9693 18.6365C21.9693 18.375 21.8481 18.1418 21.6588 17.9901L19.6361 15.9675Z" fill="#35322B"/>
</g>
</svg>
