<svg width="25" height="25" viewBox="0 0 25 25" fill="none" xmlns="http://www.w3.org/2000/svg">
<mask id="mask0_17_224" style="mask-type:alpha" maskUnits="userSpaceOnUse" x="0" y="0" width="25" height="25">
<rect x="0.146973" y="0.862305" width="24" height="24" fill="#DCDCDC"/>
</mask>
<g mask="url(#mask0_17_224)">
<path d="M6.9334 7.1274H5.73465C7.31063 5.36638 9.59994 4.25976 12.147 4.25976C16.898 4.25976 20.7495 8.11125 20.7495 12.8623C20.7495 17.6134 16.898 21.4649 12.147 21.4649C7.39592 21.4649 3.54443 17.6134 3.54443 12.8623C3.54443 12.3344 3.11649 11.9065 2.58859 11.9065C2.0607 11.9065 1.63275 12.3344 1.63275 12.8623C1.63275 18.6692 6.34013 23.3765 12.147 23.3765C17.9538 23.3765 22.6612 18.6692 22.6612 12.8623C22.6612 7.05546 17.9538 2.34808 12.147 2.34808C9.08752 2.34808 6.334 3.65513 4.41346 5.73909V4.60747C4.41346 4.07957 3.98551 3.65163 3.45762 3.65163C2.92972 3.65163 2.50178 4.07957 2.50178 4.60747V8.08324C2.50178 8.61113 2.92972 9.03907 3.45762 9.03907H6.9334C7.4613 9.03907 7.88924 8.61113 7.88924 8.08324C7.88924 7.55534 7.4613 7.1274 6.9334 7.1274Z" fill="#35322B"/>
<path d="M13.1053 7.12737C13.1053 6.59948 12.6774 6.17149 12.1495 6.17144C11.6216 6.17139 11.1936 6.59929 11.1936 7.12718L11.193 12.8664C11.193 13.12 11.2937 13.3631 11.473 13.5424L15.5254 17.5949C15.8987 17.9681 16.5039 17.9681 16.8772 17.5949C17.2505 17.2216 17.2505 16.6164 16.8772 16.2431L13.1047 12.4706L13.1053 7.12737Z" fill="#35322B"/>
</g>
</svg>
