<svg width="29" height="29" viewBox="0 0 29 29" fill="none" xmlns="http://www.w3.org/2000/svg">
<mask id="mask0_17_161" style="mask-type:alpha" maskUnits="userSpaceOnUse" x="0" y="0" width="29" height="29">
<rect x="0.521973" y="0.862305" width="28" height="28" fill="#DCDCDC"/>
</mask>
<g mask="url(#mask0_17_161)">
<path fill-rule="evenodd" clip-rule="evenodd" d="M1.52197 4.9318C1.52197 4.25224 2.07286 3.70135 2.75242 3.70135H26.2914C26.9709 3.70135 27.5218 4.25224 27.5218 4.9318C27.5218 5.61136 26.9709 6.16225 26.2914 6.16225H2.75242C2.07286 6.16225 1.52197 5.61136 1.52197 4.9318Z" fill="#35322B"/>
<path fill-rule="evenodd" clip-rule="evenodd" d="M13.2916 11.5521C13.2916 10.8726 13.8425 10.3217 14.522 10.3217H26.2915C26.9711 10.3217 27.522 10.8726 27.522 11.5521C27.522 12.2317 26.9711 12.7826 26.2915 12.7826H14.522C13.8425 12.7826 13.2916 12.2317 13.2916 11.5521Z" fill="#35322B"/>
<path fill-rule="evenodd" clip-rule="evenodd" d="M13.2916 18.1725C13.2916 17.4929 13.8425 16.942 14.522 16.942H26.2915C26.9711 16.942 27.522 17.4929 27.522 18.1725C27.522 18.852 26.9711 19.4029 26.2915 19.4029H14.522C13.8425 19.4029 13.2916 18.852 13.2916 18.1725Z" fill="#35322B"/>
<path fill-rule="evenodd" clip-rule="evenodd" d="M1.52197 24.7928C1.52197 24.1132 2.07286 23.5624 2.75242 23.5624H26.2914C26.9709 23.5624 27.5218 24.1132 27.5218 24.7928C27.5218 25.4724 26.9709 26.0232 26.2914 26.0232H2.75242C2.07286 26.0232 1.52197 25.4724 1.52197 24.7928Z" fill="#35322B"/>
<path fill-rule="evenodd" clip-rule="evenodd" d="M9.23364 10.1081C9.62487 10.325 9.86761 10.737 9.86761 11.1843V18.5403C9.86761 18.9876 9.62487 19.3996 9.23364 19.6165C8.84242 19.8333 8.36434 19.8207 7.98503 19.5837L2.10028 15.9057C1.74052 15.6809 1.52197 15.2865 1.52197 14.8623C1.52197 14.438 1.74052 14.0437 2.10028 13.8189L7.98503 10.1409C8.36434 9.90384 8.84242 9.89129 9.23364 10.1081ZM5.07402 14.8623L7.40672 16.3202V13.4044L5.07402 14.8623Z" fill="#35322B"/>
</g>
</svg>
