<svg width="25" height="25" viewBox="0 0 25 25" fill="none" xmlns="http://www.w3.org/2000/svg">
<mask id="mask0_17_203" style="mask-type:alpha" maskUnits="userSpaceOnUse" x="0" y="0" width="25" height="25">
<rect x="0.510498" y="0.862305" width="24" height="24" fill="#DCDCDC"/>
</mask>
<g mask="url(#mask0_17_203)">
<path d="M11.0767 3.06497C10.0209 3.06497 9.16499 3.92087 9.16499 4.97665V6.41041C9.16499 6.9383 9.59294 7.36625 10.1208 7.36625C10.6487 7.36625 11.0767 6.9383 11.0767 6.41041V4.97665H20.6351V15.4909H18.7234C18.1955 15.4909 17.7675 15.9188 17.7675 16.4467C17.7675 16.9746 18.1955 17.4026 18.7234 17.4026H20.6351C21.6909 17.4026 22.5467 16.5467 22.5467 15.4909V4.97665C22.5467 3.92087 21.6909 3.06497 20.6351 3.06497H11.0767Z" fill="#35322B"/>
<path d="M9.16499 12.6234C9.69289 12.6234 10.1208 13.0513 10.1208 13.5792V15.013H11.5546C12.0825 15.013 12.5104 15.4409 12.5104 15.9688C12.5104 16.4967 12.0825 16.9246 11.5546 16.9246H10.1208V18.3584C10.1208 18.8863 9.69289 19.3142 9.16499 19.3142C8.6371 19.3142 8.20915 18.8863 8.20915 18.3584V16.9246H6.7754C6.2475 16.9246 5.81956 16.4967 5.81956 15.9688C5.81956 15.4409 6.2475 15.013 6.7754 15.013H8.20915V13.5792C8.20915 13.0513 8.6371 12.6234 9.16499 12.6234Z" fill="#35322B"/>
<path fill-rule="evenodd" clip-rule="evenodd" d="M4.3858 9.27792C3.33001 9.27792 2.47412 10.1338 2.47412 11.1896V20.748C2.47412 21.8038 3.33001 22.6597 4.3858 22.6597H13.9442C15 22.6597 15.8559 21.8038 15.8559 20.748V11.1896C15.8559 10.1338 15 9.27792 13.9442 9.27792H4.3858ZM4.3858 20.748V11.1896H13.9442V20.748H4.3858Z" fill="#35322B"/>
</g>
</svg>
