<svg width="25" height="25" viewBox="0 0 25 25" fill="none" xmlns="http://www.w3.org/2000/svg">
<mask id="mask0_17_206" style="mask-type:alpha" maskUnits="userSpaceOnUse" x="0" y="0" width="25" height="25">
<rect x="0.60144" y="0.862305" width="24" height="24" fill="#DCDCDC"/>
</mask>
<g mask="url(#mask0_17_206)">
<path fill-rule="evenodd" clip-rule="evenodd" d="M3.99896 3.7818C2.94317 3.7818 2.08728 4.63769 2.08728 5.69348V20.9869C2.08728 21.4594 2.43219 21.8594 2.89618 21.9314C2.91453 21.9342 2.933 21.9366 2.95157 21.9383C2.98641 21.9417 3.02105 21.9431 3.05539 21.9427H20.2482C20.7039 21.9427 21.0961 21.6211 21.1855 21.1744L23.0972 11.616C23.1533 11.3352 23.0806 11.044 22.8991 10.8225C22.7175 10.6011 22.4463 10.4727 22.1599 10.4727H20.9651V8.56099C20.9651 7.50519 20.1092 6.64932 19.0534 6.64932H13.0492L10.9462 4.12573C10.7646 3.9078 10.4956 3.7818 10.2119 3.7818H3.99896ZM19.0534 10.4727V8.56099H12.6015C12.3178 8.56099 12.0488 8.43499 11.8672 8.21707L9.76422 5.69348H3.99896V12.9289L4.4138 11.2049C4.51715 10.7754 4.90136 10.4727 5.34312 10.4727H19.0534ZM4.26734 20.0311H19.4646L20.994 12.3843H6.17901L4.26734 20.0311Z" fill="#35322B"/>
</g>
</svg>
