<svg width="25" height="25" viewBox="0 0 25 25" fill="none" xmlns="http://www.w3.org/2000/svg">
<mask id="mask0_17_215" style="mask-type:alpha" maskUnits="userSpaceOnUse" x="0" y="0" width="25" height="25">
<rect x="0.783203" y="0.862305" width="24" height="24" fill="#DCDCDC"/>
</mask>
<g mask="url(#mask0_17_215)">
<path d="M10.8716 18.1194C10.8716 17.5915 11.2995 17.1636 11.8274 17.1636H13.7391C14.267 17.1636 14.6949 17.5915 14.6949 18.1194C14.6949 18.6473 14.267 19.0752 13.7391 19.0752H11.8274C11.2995 19.0752 10.8716 18.6473 10.8716 18.1194Z" fill="#35322B"/>
<path fill-rule="evenodd" clip-rule="evenodd" d="M8.00408 3.78183C8.00408 3.25393 8.43202 2.82599 8.95991 2.82599H16.6066C17.1345 2.82599 17.5625 3.25393 17.5625 3.78183V6.64934H21.3858C22.4416 6.64934 23.2975 7.50522 23.2975 8.56102V16.2077C23.2975 17.2635 22.4416 18.1194 21.3858 18.1194H17.5625V21.9428C17.5625 22.4707 17.1345 22.8986 16.6066 22.8986H8.95991C8.43202 22.8986 8.00408 22.4707 8.00408 21.9428V18.1194H4.18072C3.12494 18.1194 2.26904 17.2635 2.26904 16.2077V8.56102C2.26904 7.50521 3.12494 6.64934 4.18072 6.64934H8.00408V3.78183ZM8.00408 15.2519H7.52616C6.99826 15.2519 6.57032 14.824 6.57032 14.2961C6.57032 13.7682 6.99826 13.3402 7.52616 13.3402H18.0404C18.5683 13.3402 18.9962 13.7682 18.9962 14.2961C18.9962 14.824 18.5683 15.2519 18.0404 15.2519H17.5625V16.2077H21.3858V8.56102H19.4741V10.4727C19.4741 11.0006 19.0462 11.4285 18.5183 11.4285H7.04824C6.52034 11.4285 6.0924 11.0006 6.0924 10.4727V8.56102H4.18072V16.2077H8.00408V15.2519ZM9.91575 15.2519V20.9869H15.6508V15.2519H9.91575ZM15.6508 7.60518C15.6508 8.13308 16.0787 8.56102 16.6066 8.56102H17.5625V9.51686H8.00408V8.56102H8.95991C9.48781 8.56102 9.91575 8.13308 9.91575 7.60518V4.73767H15.6508V7.60518Z" fill="#35322B"/>
</g>
</svg>
