<svg width="25" height="25" viewBox="0 0 25 25" fill="none" xmlns="http://www.w3.org/2000/svg">
<mask id="mask0_17_218" style="mask-type:alpha" maskUnits="userSpaceOnUse" x="0" y="0" width="25" height="25">
<rect x="0.965088" y="0.862305" width="24" height="24" fill="#DCDCDC"/>
</mask>
<g mask="url(#mask0_17_218)">
<path fill-rule="evenodd" clip-rule="evenodd" d="M3.88458 4.25976C3.88458 3.20397 4.74047 2.34808 5.79626 2.34808H15.8326C16.1035 2.34808 16.3618 2.46309 16.543 2.6645L20.8419 7.44096C20.9958 7.61064 21.0897 7.83592 21.0897 8.08312V12.3844C21.0897 12.9123 20.6617 13.3402 20.1338 13.3402C19.6059 13.3402 19.178 12.9123 19.178 12.3844V9.03896H15.3546C14.8268 9.03896 14.3988 8.61101 14.3988 8.08312V4.25976H5.79626V21.4649H11.5313C12.0592 21.4649 12.4871 21.8928 12.4871 22.4207C12.4871 22.9486 12.0592 23.3765 11.5313 23.3765H5.79626C4.74048 23.3765 3.88458 22.5207 3.88458 21.4649V4.25976ZM16.3105 5.26378V7.12728H17.9876L16.3105 5.26378Z" fill="#35322B"/>
<path fill-rule="evenodd" clip-rule="evenodd" d="M19.8539 15.0539L21.7656 16.9656C22.1388 17.3389 22.1388 17.9441 21.7656 18.3174L16.9864 23.0966C16.8071 23.2758 16.564 23.3765 16.3105 23.3765H14.3988C13.8709 23.3765 13.443 22.9486 13.443 22.4207V20.509C13.443 20.2555 13.5437 20.0124 13.7229 19.8331L18.5021 15.0539C18.8754 14.6807 19.4806 14.6807 19.8539 15.0539ZM15.3546 20.9049V21.4649H15.9146L19.7379 17.6415L19.178 17.0816L15.3546 20.9049Z" fill="#35322B"/>
</g>
</svg>
