<svg width="25" height="25" viewBox="0 0 25 25" fill="none" xmlns="http://www.w3.org/2000/svg">
<mask id="mask0_17_236" style="mask-type:alpha" maskUnits="userSpaceOnUse" x="0" y="0" width="25" height="25">
<rect x="0.510498" y="0.862305" width="24" height="24" fill="#DCDCDC"/>
</mask>
<g mask="url(#mask0_17_236)">
<path d="M12.5105 3.30389C9.81018 3.30389 7.37001 4.42492 5.63288 6.22443C5.26624 6.60424 5.27691 7.20935 5.65672 7.57598C6.03652 7.94262 6.64163 7.93195 7.00827 7.55215C8.40007 6.11037 10.35 5.21557 12.5105 5.21557C16.7337 5.21557 20.1572 8.63913 20.1572 12.8623C20.1572 13.3902 20.5852 13.8181 21.1131 13.8181C21.641 13.8181 22.0689 13.3902 22.0689 12.8623V5.21557C22.0689 4.68768 21.641 4.25973 21.1131 4.25973C20.5852 4.25973 20.1572 4.68768 20.1572 5.21557V7.12633C18.4134 4.80522 15.6373 3.30389 12.5105 3.30389Z" fill="#35322B"/>
<path d="M4.86383 12.8623C4.86383 12.3344 4.43588 11.9064 3.90799 11.9064C3.38009 11.9064 2.95215 12.3344 2.95215 12.8623V20.509C2.95215 21.0369 3.38009 21.4648 3.90799 21.4648C4.43588 21.4648 4.86383 21.0369 4.86383 20.509V18.5982C6.60772 20.9193 9.3838 22.4207 12.5105 22.4207C15.0886 22.4207 17.43 21.3988 19.1484 19.7399C19.5282 19.3733 19.5389 18.7682 19.1722 18.3884C18.8056 18.0086 18.2005 17.9979 17.8207 18.3645C16.4443 19.6932 14.5737 20.509 12.5105 20.509C8.28739 20.509 4.86383 17.0854 4.86383 12.8623Z" fill="#35322B"/>
</g>
</svg>
