<svg width="25" height="25" viewBox="0 0 25 25" fill="none" xmlns="http://www.w3.org/2000/svg">
<mask id="mask0_17_227" style="mask-type:alpha" maskUnits="userSpaceOnUse" x="0" y="0" width="25" height="25">
<rect x="0.237793" y="0.862305" width="24" height="24" fill="#DCDCDC"/>
</mask>
<g mask="url(#mask0_17_227)">
<path d="M6.5028 13.8181C6.5028 13.2902 6.93074 12.8623 7.45864 12.8623H17.017C17.5449 12.8623 17.9729 13.2902 17.9729 13.8181C17.9729 14.346 17.5449 14.774 17.017 14.774H7.45864C6.93074 14.774 6.5028 14.346 6.5028 13.8181Z" fill="#35322B"/>
<path d="M7.45864 16.6856C6.93074 16.6856 6.5028 17.1136 6.5028 17.6415C6.5028 18.1694 6.93074 18.5973 7.45864 18.5973H12.2418C12.7697 18.5973 13.1976 18.1694 13.1976 17.6415C13.1976 17.1136 12.7697 16.6856 12.2418 16.6856H7.45864Z" fill="#35322B"/>
<path fill-rule="evenodd" clip-rule="evenodd" d="M17.8056 3.56269L21.4927 7.0052C21.6863 7.18597 21.7962 7.43898 21.7962 7.70386V20.0311C21.7962 21.3508 20.7264 22.4207 19.4066 22.4207H5.06904C3.74931 22.4207 2.67944 21.3508 2.67944 20.0311V5.69349C2.67944 4.37376 3.7493 3.30389 5.06904 3.30389H17.1515C17.4045 3.30389 17.6346 3.4022 17.8056 3.56269ZM5.06904 5.21557C4.80509 5.21557 4.59112 5.42955 4.59112 5.69349V20.0311C4.59112 20.295 4.80508 20.509 5.06904 20.509H19.4066C19.6706 20.509 19.8845 20.295 19.8845 20.0311V8.11912L16.7747 5.21557H13.1976V8.08309C13.1976 8.61098 12.7697 9.03893 12.2418 9.03893H7.4626C6.93471 9.03893 6.50677 8.61098 6.50677 8.08309V5.21557H5.06904ZM8.41844 5.21557V7.12725H11.286V5.21557H8.41844Z" fill="#35322B"/>
</g>
</svg>
