<svg width="25" height="25" viewBox="0 0 25 25" fill="none" xmlns="http://www.w3.org/2000/svg">
<mask id="mask0_17_233" style="mask-type:alpha" maskUnits="userSpaceOnUse" x="0" y="0" width="25" height="25">
<rect x="0.419556" y="0.862305" width="24" height="24" fill="#DCDCDC"/>
</mask>
<g mask="url(#mask0_17_233)">
<path d="M6.22174 10.5735C6.08773 10.629 5.9441 10.6576 5.79905 10.6576V10.6554C5.50641 10.6554 5.22575 10.5391 5.01882 10.3322C4.81189 10.1253 4.69564 9.84461 4.69564 9.55196C4.69564 9.25932 4.81189 8.97866 5.01882 8.77173C5.22575 8.5648 5.50641 8.44855 5.79905 8.44855C5.9441 8.44855 6.08773 8.47712 6.22174 8.53262C6.35574 8.58813 6.4775 8.66949 6.58007 8.77205C6.68263 8.87462 6.76399 8.99638 6.8195 9.13039C6.875 9.26439 6.90357 9.40802 6.90357 9.55307C6.90357 9.69811 6.875 9.84174 6.8195 9.97575C6.76399 10.1098 6.68263 10.2315 6.58007 10.3341C6.4775 10.4366 6.35574 10.518 6.22174 10.5735Z" fill="#35322B"/>
<path d="M6.57929 13.6424C6.78622 13.4355 6.90247 13.1549 6.90247 12.8622C6.90247 12.5696 6.78622 12.2889 6.57929 12.082C6.37236 11.875 6.0917 11.7588 5.79905 11.7588C5.50641 11.7588 5.22575 11.875 5.01882 12.082C4.81189 12.2889 4.69564 12.5696 4.69564 12.8622C4.69564 13.1549 4.81189 13.4355 5.01882 13.6424C5.22575 13.8494 5.50641 13.9656 5.79905 13.9656C6.0917 13.9656 6.37236 13.8494 6.57929 13.6424Z" fill="#35322B"/>
<path d="M6.57929 16.9527C6.37236 17.1596 6.0917 17.2759 5.79905 17.2759C5.50641 17.2759 5.22575 17.1596 5.01882 16.9527C4.81189 16.7458 4.69564 16.4651 4.69564 16.1725C4.69564 15.8798 4.81189 15.5992 5.01882 15.3922C5.22575 15.1853 5.50641 15.069 5.79905 15.069C6.0917 15.069 6.37236 15.1853 6.57929 15.3922C6.78622 15.5992 6.90247 15.8798 6.90247 16.1725C6.90247 16.4651 6.78622 16.7458 6.57929 16.9527Z" fill="#35322B"/>
<path d="M10.1292 9.97431C10.1845 9.84038 10.2129 9.69687 10.2127 9.55196C10.2124 9.25932 10.0959 8.97878 9.88876 8.77205C9.68162 8.56533 9.40085 8.44936 9.1082 8.44965C8.81556 8.44994 8.53501 8.56648 8.32829 8.77361C8.12157 8.98075 8.0056 9.26153 8.00589 9.55417C8.00603 9.69907 8.03472 9.84253 8.0903 9.97635C8.14589 10.1102 8.22729 10.2317 8.32985 10.3341C8.43241 10.4364 8.55414 10.5176 8.68806 10.5729C8.82199 10.6282 8.9655 10.6566 9.11041 10.6565C9.25531 10.6563 9.39876 10.6277 9.53258 10.5721C9.6664 10.5165 9.78796 10.4351 9.89032 10.3325C9.99268 10.23 10.0738 10.1082 10.1292 9.97431Z" fill="#35322B"/>
<path d="M9.53156 13.8816C9.39769 13.9371 9.25421 13.9656 9.1093 13.9656C8.81666 13.9656 8.536 13.8494 8.32907 13.6424C8.12214 13.4355 8.00589 13.1549 8.00589 12.8622C8.00589 12.5696 8.12214 12.2889 8.32907 12.082C8.536 11.875 8.81666 11.7588 9.1093 11.7588C9.25421 11.7588 9.39769 11.7873 9.53156 11.8428C9.66544 11.8982 9.78708 11.9795 9.88954 12.082C9.992 12.1844 10.0733 12.3061 10.1287 12.44C10.1842 12.5738 10.2127 12.7173 10.2127 12.8622C10.2127 13.0071 10.1842 13.1506 10.1287 13.2845C10.0733 13.4183 9.992 13.54 9.88954 13.6424C9.78708 13.7449 9.66544 13.8262 9.53156 13.8816Z" fill="#35322B"/>
<path d="M13.4394 9.97431C13.4947 9.84038 13.5231 9.69687 13.523 9.55196C13.5227 9.25932 13.4061 8.97878 13.199 8.77205C12.9919 8.56533 12.7111 8.44936 12.4185 8.44965C12.1258 8.44994 11.8453 8.56648 11.6385 8.77361C11.4318 8.98075 11.3158 9.26153 11.3161 9.55417C11.3163 9.69907 11.345 9.84253 11.4006 9.97635C11.4561 10.1102 11.5375 10.2317 11.6401 10.3341C11.7427 10.4364 11.8644 10.5176 11.9983 10.5729C12.1322 10.6282 12.2758 10.6566 12.4207 10.6565C12.5656 10.6563 12.709 10.6277 12.8428 10.5721C12.9767 10.5165 13.0982 10.4351 13.2006 10.3325C13.3029 10.23 13.3841 10.1082 13.4394 9.97431Z" fill="#35322B"/>
<path d="M12.8418 13.8816C12.7079 13.9371 12.5645 13.9656 12.4196 13.9656C12.1269 13.9656 11.8463 13.8494 11.6393 13.6424C11.4324 13.4355 11.3161 13.1549 11.3161 12.8622C11.3161 12.5696 11.4324 12.2889 11.6393 12.082C11.8463 11.875 12.1269 11.7588 12.4196 11.7588C12.5645 11.7588 12.7079 11.7873 12.8418 11.8428C12.9757 11.8982 13.0973 11.9795 13.1998 12.082C13.3022 12.1844 13.3835 12.3061 13.439 12.44C13.4944 12.5738 13.523 12.7173 13.523 12.8622C13.523 13.0071 13.4944 13.1506 13.439 13.2845C13.3835 13.4183 13.3022 13.54 13.1998 13.6424C13.0973 13.7449 12.9757 13.8262 12.8418 13.8816Z" fill="#35322B"/>
<path d="M16.7497 9.97431C16.805 9.84038 16.8334 9.69687 16.8332 9.55196C16.8329 9.25932 16.7164 8.97878 16.5093 8.77205C16.3021 8.56533 16.0213 8.44936 15.7287 8.44965C15.4361 8.44994 15.1555 8.56648 14.9488 8.77361C14.7421 8.98075 14.6261 9.26153 14.6264 9.55417C14.6265 9.69907 14.6552 9.84253 14.7108 9.97635C14.7664 10.1102 14.8478 10.2317 14.9504 10.3341C15.0529 10.4364 15.1746 10.5176 15.3086 10.5729C15.4425 10.6282 15.586 10.6566 15.7309 10.6565C15.8758 10.6563 16.0193 10.6277 16.1531 10.5721C16.2869 10.5165 16.4085 10.4351 16.5108 10.3325C16.6132 10.23 16.6943 10.1082 16.7497 9.97431Z" fill="#35322B"/>
<path d="M16.1521 13.8816C16.0182 13.9371 15.8747 13.9656 15.7298 13.9656C15.4372 13.9656 15.1565 13.8494 14.9496 13.6424C14.7426 13.4355 14.6264 13.1549 14.6264 12.8622C14.6264 12.5696 14.7426 12.2889 14.9496 12.082C15.1565 11.875 15.4372 11.7588 15.7298 11.7588C15.8747 11.7588 16.0182 11.7873 16.1521 11.8428C16.2859 11.8982 16.4076 11.9795 16.51 12.082C16.6125 12.1844 16.6938 12.3061 16.7492 12.44C16.8047 12.5738 16.8332 12.7173 16.8332 12.8622C16.8332 13.0071 16.8047 13.1506 16.7492 13.2845C16.6938 13.4183 16.6125 13.54 16.51 13.6424C16.4076 13.7449 16.2859 13.8262 16.1521 13.8816Z" fill="#35322B"/>
<path d="M20.0599 9.97431C20.1152 9.84038 20.1436 9.69687 20.1435 9.55196C20.1432 9.25932 20.0266 8.97878 19.8195 8.77205C19.6124 8.56533 19.3316 8.44936 19.039 8.44965C18.7463 8.44994 18.4658 8.56648 18.259 8.77361C18.0523 8.98075 17.9363 9.26153 17.9366 9.55417C17.9368 9.69907 17.9655 9.84253 18.0211 9.97635C18.0766 10.1102 18.158 10.2317 18.2606 10.3341C18.3632 10.4364 18.4849 10.5176 18.6188 10.5729C18.7527 10.6282 18.8963 10.6566 19.0412 10.6565C19.1861 10.6563 19.3295 10.6277 19.4633 10.5721C19.5972 10.5165 19.7187 10.4351 19.8211 10.3325C19.9234 10.23 20.0046 10.1082 20.0599 9.97431Z" fill="#35322B"/>
<path d="M19.4623 13.8816C19.3284 13.9371 19.185 13.9656 19.0401 13.9656C18.7474 13.9656 18.4668 13.8494 18.2598 13.6424C18.0529 13.4355 17.9366 13.1549 17.9366 12.8622C17.9366 12.5696 18.0529 12.2889 18.2598 12.082C18.4668 11.875 18.7474 11.7588 19.0401 11.7588C19.185 11.7588 19.3284 11.7873 19.4623 11.8428C19.5962 11.8982 19.7178 11.9795 19.8203 12.082C19.9227 12.1844 20.004 12.3061 20.0595 12.44C20.1149 12.5738 20.1435 12.7173 20.1435 12.8622C20.1435 13.0071 20.1149 13.1506 20.0595 13.2845C20.004 13.4183 19.9227 13.54 19.8203 13.6424C19.7178 13.7449 19.5962 13.8262 19.4623 13.8816Z" fill="#35322B"/>
<path d="M19.8203 16.9527C20.0272 16.7458 20.1435 16.4651 20.1435 16.1725C20.1435 15.8798 20.0272 15.5992 19.8203 15.3922C19.6134 15.1853 19.3327 15.069 19.0401 15.069C18.7474 15.069 18.4668 15.1853 18.2598 15.3922C18.0529 15.5992 17.9366 15.8798 17.9366 16.1725C17.9366 16.4651 18.0529 16.7458 18.2598 16.9527C18.4668 17.1596 18.7474 17.2759 19.0401 17.2759C19.3327 17.2759 19.6134 17.1596 19.8203 16.9527Z" fill="#35322B"/>
<path d="M8.32907 15.3922C8.536 15.1853 8.81666 15.069 9.1093 15.069H15.7298C16.0224 15.069 16.3031 15.1853 16.51 15.3922C16.717 15.5992 16.8332 15.8798 16.8332 16.1725C16.8332 16.4651 16.717 16.7458 16.51 16.9527C16.3031 17.1596 16.0224 17.2759 15.7298 17.2759H9.1093C8.81666 17.2759 8.536 17.1596 8.32907 16.9527C8.12214 16.7458 8.00589 16.4651 8.00589 16.1725C8.00589 15.8798 8.12214 15.5992 8.32907 15.3922Z" fill="#35322B"/>
<path fill-rule="evenodd" clip-rule="evenodd" d="M0.949524 7.60519C0.949524 6.0215 2.23335 4.73767 3.81704 4.73767H21.0221C22.6058 4.73767 23.8897 6.0215 23.8897 7.60519V18.1194C23.8897 19.7031 22.6058 20.9869 21.0221 20.9869H3.81704C2.23335 20.9869 0.949524 19.7031 0.949524 18.1194V7.60519ZM3.81704 6.64935H21.0221C21.55 6.64935 21.978 7.07729 21.978 7.60519V18.1194C21.978 18.6473 21.55 19.0753 21.0221 19.0753H3.81704C3.28915 19.0753 2.8612 18.6473 2.8612 18.1194V7.60519C2.8612 7.07729 3.28915 6.64935 3.81704 6.64935Z" fill="#35322B"/>
</g>
</svg>
