<svg width="16" height="16" viewBox="0 0 16 16" fill="none" xmlns="http://www.w3.org/2000/svg">
<path d="M3.4535 1.12549C2.7002 1.12549 2.08954 1.73615 2.08954 2.48945V13.5104C2.08954 14.2637 2.7002 14.8744 3.4535 14.8744H12.5465C13.2998 14.8744 13.9105 14.2637 13.9105 13.5104V5.0992L10.0091 1.12549H3.4535Z" fill="#FF6B4B"/>
<path d="M10.0075 1.12549L13.9104 5.09842H10.6742C10.306 5.09842 10.0075 4.79994 10.0075 4.43175V1.12549Z" fill="#EC4F2D"/>
<path fill-rule="evenodd" clip-rule="evenodd" d="M4.8 7.05C4.8 6.77386 5.02386 6.55 5.3 6.55H10.5C10.7761 6.55 11 6.77386 11 7.05V11.45C11 11.7261 10.7761 11.95 10.5 11.95H5.3C5.02386 11.95 4.8 11.7261 4.8 11.45V7.05ZM5.65 7.4V11.1H10.15V7.4H5.65Z" fill="white"/>
</svg>
