<svg width="16" height="16" viewBox="0 0 16 16" fill="none" xmlns="http://www.w3.org/2000/svg">
<path d="M5.77574 7.3974L6.5541 6.61846C6.78924 6.38313 6.78909 6.00174 6.55377 5.7666C6.31844 5.53145 5.93705 5.5316 5.70191 5.76692L3.91987 7.55032C3.79634 7.66063 3.71857 7.82111 3.71857 7.99976C3.71838 8.15409 3.77713 8.30912 3.89483 8.42691L5.6991 10.2326C5.93425 10.4679 6.31564 10.4681 6.55096 10.2329C6.78629 9.99778 6.78644 9.61639 6.5513 9.38106L5.77296 8.60211L10.2243 8.60211L9.44598 9.38106C9.21084 9.61638 9.21099 9.99777 9.44631 10.2329C9.68164 10.4681 10.063 10.4679 10.2982 10.2326L12.0802 8.4492C12.2037 8.33889 12.2815 8.1784 12.2815 7.99976L12.2815 7.99882C12.2816 7.84459 12.2229 7.69032 12.1052 7.57261L10.301 5.76693C10.0658 5.5316 9.68444 5.53145 9.44911 5.76659C9.21379 6.00173 9.21364 6.38312 9.44878 6.61845L10.2271 7.3974L5.77574 7.3974Z" fill="#E5E5E5"/>
<path d="M3.24683 2.29598C3.24683 1.94596 2.96308 1.66222 2.61307 1.66222C2.26305 1.66222 1.97931 1.94596 1.97931 2.29598L1.97931 13.7036C1.97931 14.0537 2.26305 14.3374 2.61307 14.3374C2.96308 14.3374 3.24683 14.0537 3.24683 13.7036L3.24683 2.29598Z" fill="black"/>
<path d="M14.0207 2.29598C14.0207 1.94596 13.737 1.66222 13.387 1.66222C13.037 1.66222 12.7532 1.94596 12.7532 2.29598L12.7532 13.7036C12.7532 14.0537 13.037 14.3374 13.387 14.3374C13.737 14.3374 14.0207 14.0537 14.0207 13.7036L14.0207 2.29598Z" fill="black"/>
</svg>
