<svg width="16" height="16" viewBox="0 0 16 16" fill="none" xmlns="http://www.w3.org/2000/svg">
<mask id="mask0_102_1171" style="mask-type:alpha" maskUnits="userSpaceOnUse" x="0" y="0" width="16" height="16">
<rect width="16" height="16" fill="#D9D9D9"/>
</mask>
<g mask="url(#mask0_102_1171)">
<path d="M1.98032 13.7028C1.98032 14.0527 2.26401 14.3364 2.61397 14.3364C2.96392 14.3364 3.24762 14.0527 3.24762 13.7028L3.24762 2.29706C3.24762 1.9471 2.96392 1.66341 2.61397 1.66341C2.26401 1.66341 1.98032 1.9471 1.98032 2.29706L1.98032 13.7028Z" fill="black"/>
<path d="M12.7524 13.7028C12.7524 14.0527 13.0361 14.3364 13.386 14.3364C13.736 14.3364 14.0197 14.0527 14.0197 13.7028L14.0197 2.29706C14.0197 1.9471 13.736 1.66341 13.386 1.66341C13.0361 1.66341 12.7524 1.9471 12.7524 2.29706L12.7524 13.7028Z" fill="black"/>
<path fill-rule="evenodd" clip-rule="evenodd" d="M7.42187 4.25588L4.25495 11.2231C4.11014 11.5417 4.25101 11.9174 4.5696 12.0622C4.88819 12.207 5.26385 12.0661 5.40866 11.7475L6.2479 9.90119H9.75222L10.5915 11.7475C10.7363 12.0661 11.1119 12.207 11.4305 12.0622C11.7491 11.9174 11.89 11.5417 11.7452 11.2231L8.57825 4.25589C8.56775 4.23244 8.55582 4.20961 8.54252 4.18755C8.49037 4.10102 8.41713 4.0262 8.32603 3.97171C8.30125 3.95688 8.27551 3.94377 8.24902 3.93246C8.16788 3.89775 8.08333 3.8813 8.00006 3.88135C7.88481 3.88142 7.77201 3.91309 7.67409 3.97171C7.58739 4.02361 7.51235 4.09664 7.4576 4.18755C7.4443 4.20961 7.43237 4.23244 7.42187 4.25588ZM9.17617 8.63388L8.00006 6.04644L6.82395 8.63388H9.17617Z" fill="#E5E5E5"/>
</g>
</svg>
