<svg width="16" height="16" viewBox="0 0 16 16" fill="none" xmlns="http://www.w3.org/2000/svg">
<path d="M11.0363 12.2367V14.0367C11.0363 14.3681 11.3049 14.6367 11.6363 14.6367C11.9676 14.6367 12.2363 14.3681 12.2363 14.0367V12.2367H14.0364C14.3677 12.2367 14.6364 11.9681 14.6364 11.6367C14.6364 11.3054 14.3677 11.0367 14.0364 11.0367H12.2363V9.23672C12.2363 8.90535 11.9676 8.63672 11.6363 8.63672C11.3049 8.63672 11.0363 8.90535 11.0363 9.23672V11.0367H9.23635C8.90498 11.0367 8.63635 11.3054 8.63635 11.6367C8.63635 11.9681 8.90498 12.2367 9.23635 12.2367H11.0363Z" fill="#E5E5E5"/>
<path fill-rule="evenodd" clip-rule="evenodd" d="M2.56365 1.36377C1.90091 1.36377 1.36365 1.90103 1.36365 2.56377V6.16377C1.36365 6.82651 1.90091 7.36377 2.56365 7.36377H6.16365C6.82639 7.36377 7.36365 6.82651 7.36365 6.16377V2.56377C7.36365 1.90103 6.82639 1.36377 6.16365 1.36377H2.56365ZM6.16365 2.56377H2.56365L2.56365 6.16377H6.16365V2.56377Z" fill="black"/>
<path fill-rule="evenodd" clip-rule="evenodd" d="M2.56365 8.63647C1.90091 8.63647 1.36365 9.17373 1.36365 9.83647V13.4365C1.36365 14.0992 1.90091 14.6365 2.56365 14.6365H6.16365C6.82639 14.6365 7.36365 14.0992 7.36365 13.4365V9.83647C7.36365 9.17373 6.82639 8.63647 6.16365 8.63647H2.56365ZM6.16365 9.83647H2.56365L2.56365 13.4365H6.16365V9.83647Z" fill="black"/>
<path fill-rule="evenodd" clip-rule="evenodd" d="M9.83635 7.36377C9.17361 7.36377 8.63635 6.82651 8.63635 6.16377V2.56377C8.63635 1.90103 9.17361 1.36377 9.83635 1.36377H13.4364C14.0991 1.36377 14.6364 1.90103 14.6364 2.56377V6.16377C14.6364 6.82651 14.0991 7.36377 13.4364 7.36377H9.83635ZM9.83635 6.16377V2.56377L13.4364 2.56377V6.16377H9.83635Z" fill="black"/>
</svg>
