<svg width="16" height="16" viewBox="0 0 16 16" fill="none" xmlns="http://www.w3.org/2000/svg">
<path d="M2.29713 1.98047C1.94717 1.98047 1.66348 2.26416 1.66348 2.61412C1.66348 2.96408 1.94717 3.24777 2.29713 3.24777H13.7028C14.0528 3.24777 14.3365 2.96408 14.3365 2.61412C14.3365 2.26416 14.0528 1.98047 13.7028 1.98047H2.29713Z" fill="black"/>
<path d="M2.29713 12.7525C1.94717 12.7525 1.66348 13.0362 1.66348 13.3862C1.66348 13.7361 1.94717 14.0198 2.29713 14.0198H13.7028C14.0528 14.0198 14.3365 13.7361 14.3365 13.3862C14.3365 13.0362 14.0528 12.7525 13.7028 12.7525H2.29713Z" fill="black"/>
<path fill-rule="evenodd" clip-rule="evenodd" d="M7.42163 4.25588L4.25471 11.2231C4.10989 11.5417 4.25077 11.9174 4.56935 12.0622C4.88794 12.207 5.2636 12.0661 5.40841 11.7475L6.24766 9.90119H9.75197L10.5912 11.7475C10.736 12.0661 11.1117 12.207 11.4303 12.0622C11.7489 11.9174 11.8897 11.5417 11.7449 11.2231L8.578 4.25589C8.5675 4.23244 8.55557 4.20961 8.54227 4.18755C8.49012 4.10102 8.41688 4.0262 8.32579 3.97171C8.301 3.95688 8.27527 3.94377 8.24878 3.93246C8.16764 3.89775 8.08309 3.8813 7.99981 3.88135C7.88457 3.88142 7.77177 3.91309 7.67384 3.97171C7.58714 4.02361 7.5121 4.09664 7.45735 4.18755C7.44406 4.20961 7.43213 4.23244 7.42163 4.25588ZM9.17592 8.63388L7.99981 6.04644L6.8237 8.63388H9.17592Z" fill="#E5E5E5"/>
</svg>
