<svg width="16" height="16" viewBox="0 0 16 16" fill="none" xmlns="http://www.w3.org/2000/svg">
<path d="M5.36831 3.22148C5.36831 1.94497 6.40313 0.910156 7.67964 0.910156C8.95615 0.910156 9.99097 1.94497 9.99097 3.22149V6.74754H8.72649V3.22149C8.72649 2.64333 8.2578 2.17464 7.67964 2.17464C7.10148 2.17464 6.63279 2.64333 6.63279 3.22148V6.74754H5.36831V3.22148Z" fill="#E5E5E5"/>
<path fill-rule="evenodd" clip-rule="evenodd" d="M5.00091 5.47314C3.33644 5.47314 1.9499 6.74914 1.81192 8.40788L1.54428 11.6254C1.38911 13.4909 2.86133 15.0906 4.73327 15.0906H13.6667C14.175 15.0906 14.5544 14.6228 14.4495 14.1255L13.0262 7.37781C12.792 6.26766 11.8125 5.47314 10.6779 5.47314H5.00091ZM10.6779 6.75314H5.00091C4.00223 6.75314 3.1703 7.51874 3.08751 8.51399L2.81988 11.7315C2.72677 12.8508 3.61011 13.8106 4.73327 13.8106H5.7695C5.26362 13.0554 5.05585 12.0527 5.31224 11.047C5.40861 10.6689 5.76242 10.4493 6.10249 10.5564C6.44256 10.6636 6.64012 11.0569 6.54374 11.4349C6.27517 12.4885 6.92898 13.6738 7.87916 13.8106H9.01412C8.50824 13.0554 8.30047 12.0527 8.55686 11.047C8.65324 10.6689 9.00704 10.4493 9.34711 10.5564C9.68719 10.6636 9.88474 11.0569 9.78837 11.4349C9.51979 12.4885 10.1736 13.6738 11.1238 13.8106H13.0749L11.7738 7.64199C11.6645 7.12392 11.2073 6.75314 10.6779 6.75314Z" fill="black"/>
</svg>
