<svg width="16" height="16" viewBox="0 0 16 16" fill="none" xmlns="http://www.w3.org/2000/svg">
<path fill-rule="evenodd" clip-rule="evenodd" d="M5.4004 2.60213C5.25792 2.60213 5.14241 2.71763 5.14241 2.86011V4.32679C5.14241 4.67752 4.85809 4.96184 4.50736 4.96184C4.15663 4.96184 3.87231 4.67752 3.87231 4.32679V2.86011C3.87231 2.01618 4.55646 1.33203 5.4004 1.33203H13.14C13.984 1.33203 14.6681 2.01618 14.6681 2.86011V10.5998C14.6681 11.4437 13.984 12.1278 13.14 12.1278H11.6568C11.3061 12.1278 11.0218 11.8435 11.0218 11.4928C11.0218 11.1421 11.3061 10.8577 11.6568 10.8577H13.14C13.2825 10.8577 13.398 10.7422 13.398 10.5998V2.86011C13.398 2.71763 13.2825 2.60213 13.14 2.60213H5.4004Z" fill="#E5E5E5"/>
<path fill-rule="evenodd" clip-rule="evenodd" d="M1.33203 5.40015C1.33203 4.55622 2.01618 3.87207 2.86011 3.87207H10.5998C11.4437 3.87207 12.1278 4.55622 12.1278 5.40015V13.1398C12.1278 13.9837 11.4437 14.6679 10.5998 14.6679H2.86011C2.01618 14.6679 1.33203 13.9837 1.33203 13.1398V5.40015ZM2.86011 5.14217C2.71763 5.14217 2.60213 5.25767 2.60213 5.40015V13.1398C2.60213 13.2823 2.71763 13.3978 2.86011 13.3978H10.5998C10.7422 13.3978 10.8577 13.2823 10.8577 13.1398V5.40015C10.8577 5.25767 10.7422 5.14217 10.5998 5.14217H2.86011Z" fill="black"/>
</svg>
