<svg width="20" height="20" viewBox="0 0 20 20" fill="none" xmlns="http://www.w3.org/2000/svg">
<path d="M17.037 10C17.037 13.8865 13.8864 17.0371 9.99999 17.0371C6.11354 17.0371 2.96295 13.8865 2.96295 10C2.96295 6.1136 6.11354 2.96301 9.99999 2.96301C13.8864 2.96301 17.037 6.1136 17.037 10Z" fill="black"/>
<path d="M13.9239 7.17477C13.6638 6.91472 13.2422 6.91472 12.9821 7.17477L8.74433 11.4126L7.01786 9.6861C6.75781 9.42606 6.33619 9.42606 6.07614 9.6861C5.81609 9.94615 5.81609 10.3678 6.07614 10.6278L8.27349 12.8252C8.53354 13.0852 8.95516 13.0852 9.21521 12.8252L9.2195 12.8209L13.9239 8.1165C14.1839 7.85645 14.1839 7.43482 13.9239 7.17477Z" fill="#E5E5E5"/>
</svg>
