<svg width="16" height="16" viewBox="0 0 16 16" fill="none" xmlns="http://www.w3.org/2000/svg">
<path fill-rule="evenodd" clip-rule="evenodd" d="M7.70985 5.44796C7.70985 5.07977 7.41137 4.7813 7.04318 4.7813H3.27282C2.90463 4.7813 2.60616 5.07977 2.60616 5.44796V10.5516C2.60616 10.9198 2.90463 11.2183 3.27282 11.2183H7.04318C7.41137 11.2183 7.70985 10.9198 7.70985 10.5516V5.44796ZM2.60616 3.50537C1.90148 3.50537 1.33023 4.07662 1.33023 4.7813V11.2183C1.33023 11.923 1.90148 12.4942 2.60616 12.4942H7.70985C8.4145 12.4942 8.98576 11.923 8.98576 11.2183V4.7813C8.98576 4.07662 8.4145 3.50537 7.70985 3.50537H2.60616Z" fill="black"/>
<path fill-rule="evenodd" clip-rule="evenodd" d="M14.621 8.2438C14.6522 8.16858 14.6695 8.0861 14.6695 7.9996C14.6695 7.9131 14.6522 7.83062 14.621 7.7554C14.5899 7.68015 14.5438 7.60966 14.4826 7.54849L12.5687 5.63461C12.3196 5.38547 11.9156 5.38547 11.6665 5.63461C11.4174 5.88375 11.4174 6.28768 11.6665 6.53682L12.4913 7.36164H10.2994C9.94711 7.36164 9.66148 7.64727 9.66148 7.9996C9.66148 8.35194 9.94711 8.63756 10.2994 8.63756H12.4913L11.6665 9.46238C11.4174 9.71152 11.4174 10.1155 11.6665 10.3646C11.9156 10.6137 12.3196 10.6137 12.5687 10.3646L14.4823 8.45101M6.99107 9.84142C6.71677 10.123 6.27205 10.123 5.99775 9.84142L5.19685 9.01927L4.39588 9.84148C4.12159 10.1231 3.67686 10.1231 3.40256 9.84148C3.12826 9.55991 3.12826 9.10339 3.40256 8.82181L4.20353 7.99959L3.40258 7.1774C3.12828 6.89583 3.12828 6.43931 3.40258 6.15773C3.67688 5.87616 4.1216 5.87616 4.3959 6.15773L5.19685 6.97993L5.99773 6.15779C6.27203 5.87622 6.71676 5.87622 6.99106 6.15779C7.26535 6.43937 7.26535 6.89589 6.99105 7.17746L6.19017 7.99959L6.99107 8.82175C7.26537 9.10332 7.26537 9.55984 6.99107 9.84142Z" fill="#E5E5E5"/>
</svg>