<svg width="16" height="16" viewBox="0 0 16 16" fill="none" xmlns="http://www.w3.org/2000/svg">
<path fill-rule="evenodd" clip-rule="evenodd" d="M7.69148 5.44796C7.69148 5.07977 7.393 4.7813 7.02481 4.7813H3.25445C2.88626 4.7813 2.58779 5.07977 2.58779 5.44796V10.5516C2.58779 10.9198 2.88626 11.2183 3.25445 11.2183H7.02481C7.393 11.2183 7.69148 10.9198 7.69148 10.5516V5.44796ZM2.58779 3.50537C1.88311 3.50537 1.31186 4.07662 1.31186 4.7813V11.2183C1.31186 11.923 1.88311 12.4942 2.58779 12.4942H7.69148C8.39613 12.4942 8.96739 11.923 8.96739 11.2183V4.7813C8.96739 4.07662 8.39613 3.50537 7.69148 3.50537H2.58779Z" fill="black"/>
<path fill-rule="evenodd" clip-rule="evenodd" d="M11.8919 10.4557C11.9671 10.4869 12.0496 10.5041 12.1361 10.5041C12.2226 10.5041 12.3051 10.4869 12.3803 10.4557C12.4555 10.4246 12.526 10.3784 12.5872 10.3172L14.5011 8.40335C14.7502 8.15421 14.7502 7.75028 14.5011 7.50114C14.2519 7.252 13.848 7.252 13.5989 7.50114L12.774 8.32595V6.13406C12.774 5.78172 12.4884 5.49609 12.1361 5.49609C11.7837 5.49609 11.4981 5.78172 11.4981 6.13406V8.32595L10.6733 7.50114C10.4241 7.252 10.0202 7.252 9.77106 7.50114C9.52192 7.75028 9.52192 8.15421 9.77106 8.40335L11.6847 10.3169M6.97288 9.84189C6.69858 10.1235 6.25386 10.1235 5.97956 9.84189L5.17866 9.01974L4.37769 9.84195C4.1034 10.1235 3.65867 10.1235 3.38437 9.84195C3.11008 9.56038 3.11008 9.10385 3.38437 8.82228L4.18534 8.00007L3.38439 7.17787C3.11009 6.8963 3.11009 6.43977 3.38439 6.1582C3.65869 5.87663 4.10341 5.87663 4.37771 6.1582L5.17866 6.9804L5.97954 6.15826C6.25384 5.87669 6.69857 5.87669 6.97287 6.15826C7.24716 6.43984 7.24716 6.89636 6.97286 7.17793L6.17198 8.00007L6.97288 8.82222C7.24718 9.10379 7.24718 9.56031 6.97288 9.84189Z" fill="#E5E5E5"/>
</svg>
