<svg width="16" height="16" viewBox="0 0 16 16" fill="none" xmlns="http://www.w3.org/2000/svg">
<mask id="mask0_252_31" style="mask-type:alpha" maskUnits="userSpaceOnUse" x="0" y="0" width="16" height="16">
<rect x="16" y="16" width="16" height="16" transform="rotate(180 16 16)" fill="#DCDCDC"/>
</mask>
<g mask="url(#mask0_252_31)">
<path fill-rule="evenodd" clip-rule="evenodd" d="M8.29012 10.552C8.29012 10.9202 8.5886 11.2187 8.95679 11.2187L12.7271 11.2187C13.0953 11.2187 13.3938 10.9202 13.3938 10.552L13.3938 5.44836C13.3938 5.08016 13.0953 4.7817 12.7271 4.7817L8.95678 4.7817C8.5886 4.7817 8.29012 5.08016 8.29012 5.44836L8.29012 10.552ZM13.3938 12.4946C14.0985 12.4946 14.6697 11.9234 14.6697 11.2187L14.6697 4.7817C14.6697 4.07703 14.0985 3.50576 13.3938 3.50576L8.29012 3.50576C7.58547 3.50576 7.0142 4.07703 7.0142 4.7817L7.0142 11.2187C7.0142 11.9234 7.58547 12.4946 8.29012 12.4946L13.3938 12.4946Z" fill="black"/>
<path fill-rule="evenodd" clip-rule="evenodd" d="M1.37899 7.7562C1.34779 7.83142 1.33053 7.9139 1.33053 8.0004C1.33053 8.0869 1.34779 8.16938 1.37899 8.2446C1.41013 8.31985 1.45626 8.39034 1.51739 8.45151L3.43133 10.3654C3.68046 10.6145 4.08439 10.6145 4.33353 10.3654C4.58266 10.1163 4.58266 9.71232 4.33353 9.46318L3.50873 8.63836L5.70059 8.63836C6.05293 8.63836 6.33855 8.35273 6.33855 8.0004C6.33855 7.64806 6.05293 7.36244 5.70059 7.36244L3.50873 7.36244L4.33353 6.53762C4.58266 6.28848 4.58266 5.88455 4.33353 5.63541C4.08439 5.38627 3.68046 5.38627 3.43133 5.63541L1.51773 7.54899M9.00896 6.15858C9.28326 5.87701 9.72798 5.87701 10.0023 6.15858L10.8032 6.98073L11.6042 6.15852C11.8784 5.87695 12.3232 5.87695 12.5975 6.15852C12.8718 6.44009 12.8718 6.89661 12.5975 7.17819L11.7965 8.00041L12.5975 8.8226C12.8718 9.10417 12.8718 9.56069 12.5975 9.84227C12.3232 10.1238 11.8784 10.1238 11.6041 9.84227L10.8032 9.02007L10.0023 9.84221C9.728 10.1238 9.28327 10.1238 9.00897 9.84221C8.73468 9.56063 8.73468 9.10411 9.00898 8.82254L9.80987 8.00041L9.00896 7.17825C8.73466 6.89668 8.73466 6.44016 9.00896 6.15858Z" fill="#E5E5E5"/>
</g>
</svg>
