<svg width="16" height="16" viewBox="0 0 16 16" fill="none" xmlns="http://www.w3.org/2000/svg">
<path d="M3.99992 1.33301H2.66659C1.93021 1.33301 1.33325 1.92996 1.33325 2.66634V3.99967H2.66659V2.66634L3.99992 2.66634V1.33301Z" fill="#E5E5E5"/>
<path d="M1.33325 9.33301H2.66659V6.66634H1.33325V9.33301Z" fill="#E5E5E5"/>
<path d="M6.66659 1.33301V2.66634H7.33325V5.33301H8.66659V2.66634H9.33325V1.33301H6.66659Z" fill="#E5E5E5"/>
<path d="M11.9999 1.33301V2.66634H13.3333V3.99967H14.6666V2.66634C14.6666 1.92996 14.0696 1.33301 13.3333 1.33301H11.9999Z" fill="#E5E5E5"/>
<path d="M14.6666 6.66634H13.3333V7.33301H10.6666V8.66634H13.3333V9.33301H14.6666V6.66634Z" fill="#E5E5E5"/>
<path d="M7.33325 13.333V10.6663H8.66659V13.333H7.33325Z" fill="#E5E5E5"/>
<path d="M5.33325 7.33301H2.66659V8.66634H5.33325V7.33301Z" fill="#E5E5E5"/>
<path d="M1.33325 13.3333V12H2.66659L2.66659 13.3333H13.3333V12H14.6666V13.3333C14.6666 14.0697 14.0696 14.6667 13.3333 14.6667H2.66659C1.93021 14.6667 1.33325 14.0697 1.33325 13.3333Z" fill="black"/>
</svg>
