<svg width="16" height="16" viewBox="0 0 16 16" fill="none" xmlns="http://www.w3.org/2000/svg">
<path fill-rule="evenodd" clip-rule="evenodd" d="M8.01519 4.9156C7.65059 4.9156 7.29055 4.96431 6.93757 5.05194C6.6062 5.1342 6.2709 4.93226 6.18864 4.60089C6.10638 4.26953 6.30831 3.93422 6.63968 3.85196C7.0796 3.74275 7.53991 3.6792 8.01519 3.6792C9.93752 3.6792 11.6225 4.71575 12.781 5.67605C13.3691 6.16346 13.8434 6.64946 14.171 7.01358C14.3351 7.19604 14.4633 7.34895 14.5515 7.45755C14.5956 7.51187 14.6298 7.5552 14.6535 7.58568C14.6653 7.60092 14.6745 7.61296 14.6811 7.62157L14.6889 7.63188L14.6913 7.63506L14.6921 7.63614C14.6921 7.63614 14.6927 7.63689 14.1972 8.0066C14.6927 8.37631 14.6925 8.37646 14.6925 8.37646L14.6921 8.37705L14.6913 8.37814L14.6889 8.38131L14.6811 8.39163C14.6745 8.40023 14.6653 8.41227 14.6535 8.42752C14.6298 8.458 14.5956 8.50132 14.5515 8.55565C14.4633 8.66425 14.3351 8.81715 14.171 8.99961C13.8434 9.36373 13.3691 9.84973 12.781 10.3371C12.5182 10.555 12.1284 10.5186 11.9106 10.2557C11.6927 9.99285 11.7291 9.60313 11.992 9.38524C12.5227 8.94536 12.9537 8.50406 13.2518 8.1727C13.3051 8.11347 13.354 8.05788 13.3984 8.0066C13.354 7.95531 13.3051 7.89972 13.2518 7.84049C12.9537 7.50913 12.5227 7.06783 11.992 6.62795C10.9131 5.73365 9.50709 4.9156 8.01519 4.9156ZM14.1972 8.0066L14.6925 8.37646C14.8562 8.15715 14.8563 7.8562 14.6927 7.63689L14.1972 8.0066ZM4.11981 5.75748C4.3377 6.02035 4.30123 6.41007 4.03837 6.62795C3.50769 7.06783 3.07669 7.50913 2.7786 7.84049C2.72531 7.89972 2.67639 7.95531 2.63203 8.0066C2.67639 8.05788 2.72531 8.11347 2.7786 8.17271C3.07669 8.50406 3.50769 8.94536 4.03837 9.38524C5.11729 10.2795 6.5233 11.0976 8.01519 11.0976C8.38283 11.0976 8.74582 11.0481 9.10157 10.9591C9.43279 10.8762 9.76846 11.0776 9.85131 11.4088C9.93417 11.74 9.73283 12.0757 9.40162 12.1585C8.95841 12.2694 8.49443 12.334 8.01519 12.334C6.09287 12.334 4.40788 11.2974 3.24935 10.3371C2.66132 9.84973 2.18698 9.36373 1.85941 8.99961C1.69527 8.81715 1.56704 8.66425 1.47887 8.55565C1.43476 8.50132 1.4006 8.458 1.37692 8.42752C1.36508 8.41227 1.35585 8.40023 1.3493 8.39162L1.34149 8.38131L1.3391 8.37813L1.33829 8.37705C1.33829 8.37705 1.33773 8.37631 1.8332 8.0066C1.33773 7.63689 1.33785 7.63673 1.33785 7.63673L1.3391 7.63506L1.34149 7.63188L1.3493 7.62157C1.35585 7.61296 1.36508 7.60092 1.37692 7.58568C1.4006 7.5552 1.43476 7.51187 1.47887 7.45755C1.56704 7.34895 1.69527 7.19604 1.85941 7.01358C2.18698 6.64946 2.66132 6.16346 3.24935 5.67605C3.51221 5.45816 3.90193 5.49462 4.11981 5.75748ZM1.8332 8.0066L1.33785 7.63673C1.1742 7.85604 1.17464 8.15774 1.33829 8.37705L1.8332 8.0066Z" fill="black"/>
<path fill-rule="evenodd" clip-rule="evenodd" d="M3.8775 2.99454C3.63608 2.75312 3.24466 2.75312 3.00323 2.99454C2.76181 3.23596 2.76181 3.62739 3.00323 3.86881L6.11167 6.97725C5.94588 7.28339 5.85153 7.63423 5.85153 8.00647C5.85153 9.20144 6.82025 10.1702 8.01523 10.1702C8.38756 10.1702 8.73834 10.0758 9.04444 9.91001L12.1095 12.9751C12.3509 13.2165 12.7424 13.2165 12.9838 12.9751C13.2252 12.7337 13.2252 12.3422 12.9838 12.1008L3.8775 2.99454ZM8.0668 8.93237L7.08932 7.9549C7.0884 7.97197 7.08793 7.98916 7.08793 8.00647C7.08793 8.5186 7.5031 8.93377 8.01523 8.93377C8.03254 8.93377 8.04973 8.9333 8.0668 8.93237Z" fill="#E5E5E5"/>
</svg>
