<svg width="16" height="16" viewBox="0 0 16 16" fill="none" xmlns="http://www.w3.org/2000/svg">
<path d="M2.53337 14C2.35658 14 2.18704 13.9297 2.06203 13.8047C1.93703 13.6797 1.86681 13.5101 1.86681 13.3333C1.86681 13.1565 1.93703 12.987 2.06203 12.862C2.18704 12.7369 2.35658 12.6667 2.53337 12.6667L13.4667 12.6667C13.6435 12.6667 13.813 12.7369 13.938 12.862C14.063 12.987 14.1333 13.1565 14.1333 13.3333C14.1333 13.5101 14.063 13.6797 13.938 13.8047C13.813 13.9297 13.6435 14 13.4667 14L2.53337 14ZM2.53337 3.33333C2.35658 3.33331 2.18703 3.26306 2.06203 3.13804C1.93703 3.01301 1.86681 2.84346 1.86681 2.66667C1.86681 2.48987 1.93703 2.32032 2.06203 2.1953C2.18703 2.07028 2.35658 2.00003 2.53337 2L13.4667 2C13.6435 2.00003 13.813 2.07028 13.938 2.1953C14.063 2.32032 14.1333 2.48987 14.1333 2.66667C14.1333 2.84346 14.063 3.01301 13.938 3.13803C13.813 3.26306 13.6435 3.33331 13.4667 3.33333L2.53337 3.33333Z" fill="black"/>
<path d="M11.0573 7.33327L10.1953 6.47127C10.0703 6.34627 10.0001 6.17672 10.0001 5.99994C10.0001 5.82315 10.0703 5.65361 10.1953 5.52861C10.3203 5.4036 10.4899 5.33337 10.6667 5.33337C10.8434 5.33337 11.013 5.4036 11.138 5.52861L13.138 7.5286C13.2 7.59046 13.2491 7.66393 13.2827 7.74481C13.3162 7.82569 13.3335 7.91238 13.3335 7.99994C13.3335 8.08749 13.3162 8.17419 13.2827 8.25507C13.2491 8.33594 13.2 8.40941 13.138 8.47127L11.138 10.4713C11.0761 10.5332 11.0026 10.5823 10.9217 10.6158C10.8409 10.6493 10.7542 10.6665 10.6667 10.6665C10.5791 10.6665 10.4925 10.6493 10.4116 10.6158C10.3307 10.5823 10.2572 10.5332 10.1953 10.4713C10.1334 10.4094 10.0843 10.3359 10.0508 10.255C10.0173 10.1742 10.0001 10.0875 10.0001 9.99994C10.0001 9.9124 10.0173 9.82573 10.0508 9.74486C10.0843 9.66398 10.1334 9.5905 10.1953 9.52861L11.0573 8.6666L3.33333 8.66661C3.15652 8.66661 2.98695 8.59637 2.86193 8.47134C2.7369 8.34632 2.66666 8.17675 2.66666 7.99994C2.66666 7.82313 2.7369 7.65356 2.86193 7.52853C2.98695 7.40351 3.15652 7.33327 3.33333 7.33327L11.0573 7.33327Z" fill="#E5E5E5"/>
</svg>
