<svg width="16" height="16" viewBox="0 0 16 16" fill="none" xmlns="http://www.w3.org/2000/svg">
<path fill-rule="evenodd" clip-rule="evenodd" d="M1.63636 1.99658C1.28491 1.99658 1 2.28149 1 2.63295V10.2693C1 10.6208 1.28491 10.9057 1.63636 10.9057H2.96368L4.05003 11.992C4.29854 12.2405 4.70146 12.2405 4.94997 11.992L6.03632 10.9057H6.72727V12.4128C6.72727 12.7643 7.01218 13.0492 7.36364 13.0492H10.6001L11.3682 13.8173C11.6167 14.0658 12.0196 14.0658 12.2682 13.8173L13.0363 13.0492H14.3636C14.7151 13.0492 15 12.7643 15 12.4128V7.32192C15 6.97047 14.7151 6.68556 14.3636 6.68556H12.4545V2.63295C12.4545 2.28149 12.1696 1.99658 11.8182 1.99658H1.63636ZM12.4545 7.95829V10.2693C12.4545 10.6208 12.1696 10.9057 11.8182 10.9057H8V11.7765H10.8636C11.0324 11.7765 11.1942 11.8435 11.3136 11.9628L11.8182 12.4674L12.3228 11.9628C12.4421 11.8435 12.604 11.7765 12.7727 11.7765H13.7273V7.95829H12.4545ZM11.1818 3.26931H2.27273V9.63295H3.22727C3.39604 9.63295 3.5579 9.70001 3.67725 9.81936L4.5 10.6421L5.32275 9.81936C5.4421 9.70001 5.60396 9.63295 5.77273 9.63295H11.1818V3.26931Z" fill="black"/>
<path fill-rule="evenodd" clip-rule="evenodd" d="M5.13617 4.54199C4.78472 4.54199 4.49981 4.8269 4.49981 5.17836C4.49981 5.52981 4.78472 5.81472 5.13617 5.81472H8.95435C9.3058 5.81472 9.59072 5.52981 9.59072 5.17836C9.59072 4.8269 9.3058 4.54199 8.95435 4.54199H5.13617ZM4.49981 7.72381C4.49981 7.37236 4.78472 7.08744 5.13617 7.08744H7.04526C7.39671 7.08744 7.68162 7.37236 7.68162 7.72381C7.68162 8.07526 7.39671 8.36018 7.04526 8.36018H5.13617C4.78472 8.36018 4.49981 8.07526 4.49981 7.72381Z" fill="#E5E5E5"/>
</svg>
