<svg width="16" height="16" viewBox="0 0 16 16" fill="none" xmlns="http://www.w3.org/2000/svg">
<path fill-rule="evenodd" clip-rule="evenodd" d="M7.56614 5.44796C7.56614 5.07977 7.26766 4.7813 6.89948 4.7813H3.12912C2.76092 4.7813 2.46245 5.07977 2.46245 5.44796V10.5516C2.46245 10.9198 2.76092 11.2183 3.12912 11.2183H6.89948C7.26766 11.2183 7.56614 10.9198 7.56614 10.5516V5.44796ZM2.46245 3.50537C1.75777 3.50537 1.18652 4.07662 1.18652 4.7813V11.2183C1.18652 11.923 1.75777 12.4942 2.46245 12.4942H7.56614C8.27079 12.4942 8.84206 11.923 8.84206 11.2183V4.7813C8.84206 4.07662 8.27079 3.50537 7.56614 3.50537H2.46245Z" fill="black"/>
<path fill-rule="evenodd" clip-rule="evenodd" d="M14.7651 8.2438C14.7963 8.16858 14.8135 8.0861 14.8135 7.9996C14.8135 7.9131 14.7963 7.83062 14.7651 7.7554C14.7339 7.68015 14.6878 7.60966 14.6266 7.54849L12.7127 5.63461C12.4636 5.38547 12.0597 5.38547 11.8105 5.63461C11.5614 5.88375 11.5614 6.28768 11.8105 6.53682L12.6353 7.36164H10.4434C10.0911 7.36164 9.80548 7.64727 9.80548 7.9996C9.80548 8.35194 10.0911 8.63756 10.4434 8.63756H12.6353L11.8105 9.46238C11.5614 9.71152 11.5614 10.1155 11.8105 10.3646C12.0597 10.6137 12.4636 10.6137 12.7127 10.3646L14.6263 8.45101" fill="#E5E5E5"/>
</svg>
