<svg width="16" height="16" viewBox="0 0 16 16" fill="none" xmlns="http://www.w3.org/2000/svg">
<path d="M14.6664 3.99967L14.6664 2.66634C14.6664 1.92996 14.0694 1.33301 13.333 1.33301L11.9997 1.33301L11.9997 2.66634L13.333 2.66634L13.333 3.99967L14.6664 3.99967Z" fill="#E5E5E5"/>
<path d="M6.66638 1.33301L6.66638 2.66634L9.33305 2.66634L9.33305 1.33301L6.66638 1.33301Z" fill="#E5E5E5"/>
<path d="M14.6664 6.66634L13.333 6.66634L13.333 7.33301L10.6664 7.33301L10.6664 8.66634L13.333 8.66634L13.333 9.33301L14.6664 9.33301L14.6664 6.66634Z" fill="#E5E5E5"/>
<path d="M14.6664 11.9997L13.333 11.9997L13.333 13.333L11.9997 13.333L11.9997 14.6663L13.333 14.6663C14.0694 14.6663 14.6664 14.0694 14.6664 13.333L14.6664 11.9997Z" fill="#E5E5E5"/>
<path d="M9.33305 14.6663L9.33305 13.333L8.66638 13.333L8.66638 10.6663L7.33305 10.6663L7.33305 13.333L6.66638 13.333L6.66638 14.6663L9.33305 14.6663Z" fill="#E5E5E5"/>
<path d="M2.66638 7.33301L5.33305 7.33301L5.33305 8.66634L2.66638 8.66634L2.66638 7.33301Z" fill="#E5E5E5"/>
<path d="M8.66638 5.33301L8.66638 2.66634L7.33305 2.66634L7.33305 5.33301L8.66638 5.33301Z" fill="#E5E5E5"/>
<path d="M2.66667 1.33301L4 1.33301L4 2.66634L2.66667 2.66634L2.66667 13.333L4 13.333L4 14.6663L2.66667 14.6663C1.93029 14.6663 1.33333 14.0694 1.33333 13.333L1.33333 2.66634C1.33333 1.92996 1.93029 1.33301 2.66667 1.33301Z" fill="black"/>
</svg>
