<svg width="16" height="16" viewBox="0 0 16 16" fill="none" xmlns="http://www.w3.org/2000/svg">
<path d="M7.74692 9.12463C7.74692 9.46018 8.01893 9.73219 8.35448 9.73219H11.4933C11.8288 9.73219 12.1009 9.46018 12.1009 9.12463C12.1009 8.78909 11.8288 8.51707 11.4933 8.51707H8.35448C8.01893 8.51707 7.74692 8.78909 7.74692 9.12463Z" fill="#E5E5E5"/>
<path d="M10.8636 10.8523C10.8636 11.1879 10.5915 11.4599 10.256 11.4599H8.35448C8.01893 11.4599 7.74692 11.1879 7.74692 10.8523C7.74692 10.5168 8.01893 10.2447 8.35448 10.2447H10.256C10.5915 10.2447 10.8636 10.5168 10.8636 10.8523Z" fill="#E5E5E5"/>
<path fill-rule="evenodd" clip-rule="evenodd" d="M5.4791 1.98268C5.47913 1.71529 5.87912 1.49854 6.37252 1.49854C6.86593 1.49854 7.26592 1.71529 7.26595 1.98268H7.62187C8.22277 1.98268 8.72459 2.39534 8.84412 2.9452H9.39563C10.0856 2.9452 10.6449 3.48923 10.6449 4.16032V6.00569H12.1261C13.161 6.00569 14 6.82174 14 7.82838V11.334C14 11.8174 13.8025 12.281 13.4511 12.6228L12.0693 13.9647C11.7179 14.3065 11.2412 14.4985 10.7442 14.4985H7.91116C7.05024 14.4985 6.32492 14.0431 6.10535 13.2737H3.34925C2.6593 13.2737 2.09998 12.7297 2.09998 12.0586V4.16032C2.09998 3.48923 2.6593 2.9452 3.34925 2.9452H3.90107C4.0206 2.39534 4.52241 1.98268 5.12332 1.98268H5.4791ZM3.97249 4.16032H3.24925L3.24925 12.0586H6.03725V7.82838C6.03725 6.82174 6.87623 6.00569 7.91116 6.00569H9.49563V4.16032H8.7727C8.58289 4.59611 8.13909 4.90183 7.62187 4.90183H5.12332C4.6061 4.90183 4.1623 4.59611 3.97249 4.16032ZM5.12332 2.89403H7.62187C7.79436 2.89403 7.93419 3.03003 7.93419 3.19781V3.68671C7.93419 3.85448 7.79436 3.99049 7.62187 3.99049H5.12332C4.95083 3.99049 4.811 3.85448 4.811 3.68671V3.19781C4.811 3.03003 4.95083 2.89403 5.12332 2.89403ZM7.91116 7.11157C7.56618 7.11157 7.28652 7.38359 7.28652 7.71913V12.7851C7.28652 13.1206 7.56618 13.3927 7.91116 13.3927H10.7442C10.8401 13.3927 10.9337 13.3712 11.0182 13.3311C11.1373 13.2746 11.1859 13.1423 11.1859 13.0134V12.0066C11.1859 11.8724 11.2978 11.7636 11.4358 11.7636H12.4709C12.6034 11.7636 12.7394 11.7163 12.7975 11.6004C12.8388 11.5182 12.8608 11.4272 12.8608 11.334V7.71913C12.8608 7.38359 12.5811 7.11157 12.2362 7.11157H7.91116Z" fill="black"/>
</svg>
