<svg width="16" height="16" viewBox="0 0 16 16" fill="none" xmlns="http://www.w3.org/2000/svg">
<path d="M2.53331 14C2.35652 14 2.18697 13.9297 2.06197 13.8047C1.93697 13.6797 1.86675 13.5101 1.86675 13.3333C1.86675 13.1565 1.93697 12.987 2.06197 12.862C2.18697 12.7369 2.35652 12.6667 2.53331 12.6667L13.4666 12.6667C13.6434 12.6667 13.813 12.7369 13.938 12.862C14.063 12.987 14.1332 13.1565 14.1332 13.3333C14.1332 13.5101 14.063 13.6797 13.938 13.8047C13.813 13.9297 13.6434 14 13.4666 14L2.53331 14ZM2.53331 3.33333C2.35652 3.33331 2.18697 3.26306 2.06197 3.13804C1.93697 3.01301 1.86675 2.84346 1.86675 2.66667C1.86675 2.48987 1.93697 2.32032 2.06197 2.1953C2.18697 2.07028 2.35652 2.00003 2.53331 2L13.4666 2C13.6434 2.00003 13.813 2.07028 13.938 2.1953C14.063 2.32032 14.1332 2.48987 14.1332 2.66667C14.1332 2.84346 14.063 3.01301 13.938 3.13803C13.813 3.26306 13.6434 3.33331 13.4666 3.33333L2.53331 3.33333Z" fill="black"/>
<path d="M10.8142 10.8141C10.5588 11.0695 10.1447 11.0695 9.88929 10.8141L7.97868 8.90354L6.14021 10.742C5.89652 10.9857 5.50142 10.9857 5.25774 10.742C5.01405 10.4983 5.01405 10.1032 5.25774 9.85955L7.09621 8.02107L5.18561 6.11047C4.93021 5.85507 4.93021 5.44098 5.18561 5.18557C5.44101 4.93017 5.8551 4.93017 6.11051 5.18557L8.02111 7.09618L9.85959 5.2577C10.1033 5.01401 10.4984 5.01401 10.7421 5.2577C10.9857 5.50139 10.9857 5.89648 10.7421 6.14017L8.90358 7.97865L10.8142 9.88925C11.0696 10.1447 11.0696 10.5587 10.8142 10.8141Z" fill="#E5E5E5"/>
</svg>
