<svg width="16" height="16" viewBox="0 0 16 16" fill="none" xmlns="http://www.w3.org/2000/svg">
<path fill-rule="evenodd" clip-rule="evenodd" d="M2.56781 13.3332C2.56781 14.0695 3.16476 14.6665 3.90114 14.6665L6.56781 14.6665C7.30419 14.6665 7.90114 14.0695 7.90114 13.3332L7.90114 2.6665C7.90114 1.9301 7.30419 1.33317 6.56781 1.33317L3.90114 1.33317C3.16476 1.33317 2.56781 1.9301 2.56781 2.6665L2.56781 13.3332ZM3.90114 2.6665L3.90114 13.3332L6.56781 13.3332L6.56781 2.6665L3.90114 2.6665Z" fill="black"/>
<path fill-rule="evenodd" clip-rule="evenodd" d="M13.4323 8.00022C13.4323 8.36841 13.1338 8.66689 12.7656 8.66689L11.6906 8.66689L11.6906 9.74202C11.6906 10.1102 11.3921 10.4087 11.0239 10.4087C10.6557 10.4087 10.3573 10.1102 10.3573 9.74202L10.3573 8.66689L9.28215 8.66689C8.91396 8.66689 8.61548 8.36841 8.61548 8.00022C8.61548 7.63203 8.91396 7.33356 9.28214 7.33356L10.3573 7.33356L10.3573 6.25852C10.3573 5.89033 10.6557 5.59186 11.0239 5.59186C11.3921 5.59186 11.6906 5.89033 11.6906 6.25852L11.6906 7.33356L12.7656 7.33356C13.1338 7.33356 13.4323 7.63203 13.4323 8.00022Z" fill="#E5E5E5"/>
</svg>
