<svg width="16" height="16" viewBox="0 0 16 16" fill="none" xmlns="http://www.w3.org/2000/svg">
<path d="M4.0001 14.667H2.66677C1.93039 14.667 1.33344 14.07 1.33344 13.3337V12.0003H2.66677V13.3337L4.0001 13.3337V14.667Z" fill="#E5E5E5"/>
<path d="M1.33344 6.66699H2.66677V9.33366H1.33344V6.66699Z" fill="#E5E5E5"/>
<path d="M6.66677 14.667V13.3337H7.33344V10.667H8.66677V13.3337H9.33344V14.667H6.66677Z" fill="#E5E5E5"/>
<path d="M12.0001 14.667V13.3337H13.3334V12.0003H14.6668V13.3337C14.6668 14.07 14.0698 14.667 13.3334 14.667H12.0001Z" fill="#E5E5E5"/>
<path d="M14.6668 9.33366H13.3334V8.66699H10.6668V7.33366H13.3334V6.66699H14.6668V9.33366Z" fill="#E5E5E5"/>
<path d="M7.33344 2.66699V5.33366H8.66677V2.66699H7.33344Z" fill="#E5E5E5"/>
<path d="M5.33344 8.66699H2.66677V7.33366H5.33344V8.66699Z" fill="#E5E5E5"/>
<path d="M1.33344 2.66789V4.00122H2.66677L2.66677 2.66789H13.3334V4.00122H14.6668V2.66789C14.6668 1.93151 14.0698 1.33455 13.3334 1.33455H2.66677C1.93039 1.33455 1.33344 1.93151 1.33344 2.66789Z" fill="black"/>
</svg>
