<svg width="16" height="16" viewBox="0 0 16 16" fill="none" xmlns="http://www.w3.org/2000/svg">
<path d="M2.66699 1.33325L4.00033 1.33325L4.00033 2.66658L2.66699 2.66659L2.66699 3.99992L1.33366 3.99992L1.33366 2.66659C1.33366 1.93021 1.93061 1.33325 2.66699 1.33325Z" fill="#E5E5E5"/>
<path d="M14.667 2.66659L14.667 3.99992L13.3337 3.99992L13.3337 2.66659L12.0003 2.66659L12.0003 1.33325L13.3337 1.33325C14.07 1.33325 14.667 1.93021 14.667 2.66659Z" fill="#E5E5E5"/>
<path d="M6.66699 2.66658L6.66699 1.33325L9.33366 1.33325L9.33366 2.66659L6.66699 2.66658Z" fill="#E5E5E5"/>
<path d="M13.3337 6.66659L14.667 6.66659L14.667 9.33325L13.3337 9.33325L13.3337 8.66496L12.0145 8.66496L12.0145 7.33496L13.3337 7.33496L13.3337 6.66659Z" fill="#E5E5E5"/>
<path d="M13.3337 11.9999L14.667 11.9999L14.667 13.3333C14.667 14.0696 14.07 14.6666 13.3337 14.6666L12.0003 14.6666L12.0003 13.3333L13.3337 13.3333L13.3337 11.9999Z" fill="#E5E5E5"/>
<path d="M9.33366 13.3333L9.33366 14.6666L6.66699 14.6666L6.66699 13.3333L9.33366 13.3333Z" fill="#E5E5E5"/>
<path d="M4.00032 13.3333L4.00032 14.6666L2.66699 14.6666C1.93061 14.6666 1.33366 14.0696 1.33366 13.3333L1.33366 11.9999L2.66699 11.9999L2.66699 13.3333L4.00032 13.3333Z" fill="#E5E5E5"/>
<path d="M2.66699 9.33325L1.33366 9.33325L1.33366 6.66658L2.66699 6.66658L2.66699 7.33496L3.98624 7.33496L3.98624 8.66496L2.66699 8.66496L2.66699 9.33325Z" fill="#E5E5E5"/>
<path d="M9.33841 7.33496L6.66232 7.33496L6.66232 8.66496L9.33841 8.66496L9.33841 7.33496Z" fill="#E5E5E5"/>
<path d="M8.66577 8.66675L8.66577 7.33342L8.66569 2.66675L7.33236 2.66675L7.33236 7.33341L7.33244 8.66675L7.33236 13.3334L8.66569 13.3334L8.66577 8.66675Z" fill="black"/>
</svg>
