<svg width="20" height="20" viewBox="0 0 20 20" fill="none" xmlns="http://www.w3.org/2000/svg">
<circle cx="9.99999" cy="10" r="7.03704" fill="black"/>
<path d="M9.16817 6.67735C9.16646 6.61745 9.1656 6.5875 9.16653 6.56236C9.18103 6.16817 9.49136 5.84883 9.88497 5.82306C9.91008 5.82141 9.94004 5.82141 9.99996 5.82141V5.82141C10.0599 5.82141 10.0899 5.82141 10.115 5.82306C10.5086 5.84883 10.8189 6.16817 10.8334 6.56236C10.8343 6.5875 10.8335 6.61745 10.8318 6.67735L10.7043 11.131C10.6934 11.5121 10.3812 11.8154 9.99995 11.8154V11.8154C9.61866 11.8154 9.30655 11.5121 9.29564 11.131L9.16817 6.67735Z" fill="#E5E5E5"/>
<rect x="9.31488" y="12.8086" width="1.37006" height="1.37006" rx="0.685032" fill="#E5E5E5"/>
</svg>
