<svg width="16" height="16" viewBox="0 0 16 16" fill="none" xmlns="http://www.w3.org/2000/svg">
<g clip-path="url(#clip0_6378_5507)">
<path d="M6.66439 3.33464C6.66439 2.59826 7.26134 2.0013 7.99772 2.0013C8.7341 2.0013 9.33105 2.59826 9.33105 3.33464V4.0032C9.33105 4.37139 9.62953 4.66987 9.99772 4.66987C10.3659 4.66987 10.6644 4.37139 10.6644 4.0032V3.33464C10.6644 1.86187 9.47048 0.667969 7.99772 0.667969C6.52497 0.667969 5.33105 1.86187 5.33105 3.33464V7.98037C5.33105 8.34856 5.62953 8.64704 5.99772 8.64704C6.36591 8.64704 6.66439 8.34856 6.66439 7.98037V3.33464Z" fill="#E5E5E5"/>
<path d="M10.6644 8.00339C10.6644 7.6352 10.3659 7.33672 9.99772 7.33672C9.62953 7.33672 9.33105 7.6352 9.33105 8.00339V12.6689C9.33105 13.4053 8.7341 14.0022 7.99772 14.0022C7.26134 14.0022 6.66439 13.4053 6.66439 12.6689V11.9922C6.66439 11.624 6.36591 11.3256 5.99772 11.3256C5.62953 11.3256 5.33105 11.624 5.33105 11.9922V12.6689C5.33105 14.1416 6.52496 15.3356 7.99772 15.3356C9.47048 15.3356 10.6644 14.1416 10.6644 12.6689V8.00339Z" fill="#E5E5E5"/>
<path d="M2.00228 7.9987C2.00228 7.26066 2.59853 6.66536 3.33033 6.66536H3.99848C4.36667 6.66536 4.66515 6.36689 4.66515 5.9987C4.66515 5.63051 4.36667 5.33203 3.99848 5.33203H3.33033C1.85882 5.33203 0.668945 6.52761 0.668945 7.9987C0.668945 9.46979 1.85882 10.6654 3.33033 10.6654H8.00228C8.37047 10.6654 8.66894 10.3669 8.66894 9.9987C8.66894 9.63051 8.37047 9.33203 8.00228 9.33203H3.33033C2.59853 9.33203 2.00228 8.73674 2.00228 7.9987Z" fill="black"/>
<path d="M7.99811 5.33203C7.62992 5.33203 7.33145 5.63051 7.33145 5.9987C7.33145 6.36689 7.62992 6.66536 7.99811 6.66536H12.661C13.4007 6.66536 13.9981 7.26349 13.9981 7.9987C13.9981 8.7339 13.4007 9.33203 12.661 9.33203H12.0202C11.652 9.33203 11.3535 9.63051 11.3535 9.9987C11.3535 10.3669 11.652 10.6654 12.0202 10.6654H12.661C14.1347 10.6654 15.3314 9.47262 15.3314 7.9987C15.3314 6.52477 14.1347 5.33203 12.661 5.33203H7.99811Z" fill="black"/>
</g>
<defs>
<clipPath id="clip0_6378_5507">
<rect width="16" height="16" fill="white"/>
</clipPath>
</defs>
</svg>
