<svg width="16" height="16" viewBox="0 0 16 16" fill="none" xmlns="http://www.w3.org/2000/svg">
<path d="M2.00228 7.99992C2.00228 7.26188 2.59853 6.66659 3.33033 6.66659H3.99848C4.36667 6.66659 4.66515 6.36811 4.66515 5.99992C4.66515 5.63173 4.36667 5.33325 3.99848 5.33325H3.33033C1.85882 5.33325 0.668945 6.52883 0.668945 7.99992C0.668945 9.47101 1.85882 10.6666 3.33033 10.6666H8.00228C8.37047 10.6666 8.66894 10.3681 8.66894 9.99992C8.66894 9.63173 8.37047 9.33325 8.00228 9.33325H3.33033C2.59853 9.33325 2.00228 8.73796 2.00228 7.99992Z" fill="black"/>
<path d="M7.99811 5.33325C7.62992 5.33325 7.33145 5.63173 7.33145 5.99992C7.33145 6.36811 7.62992 6.66659 7.99811 6.66659H12.661C13.4007 6.66659 13.9981 7.26471 13.9981 7.99992C13.9981 8.73512 13.4007 9.33325 12.661 9.33325H12.0202C11.652 9.33325 11.3535 9.63173 11.3535 9.99992C11.3535 10.3681 11.652 10.6666 12.0202 10.6666H12.661C14.1347 10.6666 15.3314 9.47385 15.3314 7.99992C15.3314 6.52599 14.1347 5.33325 12.661 5.33325H7.99811Z" fill="black"/>
<path d="M8.00033 2.00203C8.73837 2.00203 9.33366 2.59828 9.33366 3.33008L9.33366 3.99823C9.33366 4.36642 9.63214 4.6649 10.0003 4.6649C10.3685 4.6649 10.667 4.36642 10.667 3.99823L10.667 3.33008C10.667 1.85858 9.47142 0.668701 8.00033 0.668701C6.52923 0.668701 5.33366 1.85858 5.33366 3.33008L5.33366 8.00203C5.33366 8.37022 5.63214 8.6687 6.00033 8.6687C6.36852 8.6687 6.66699 8.37022 6.66699 8.00203L6.66699 3.33008C6.66699 2.59828 7.26228 2.00203 8.00033 2.00203Z" fill="#E5E5E5"/>
<path d="M10.667 7.99787C10.667 7.62968 10.3685 7.3312 10.0003 7.3312C9.63214 7.3312 9.33366 7.62968 9.33366 7.99787L9.33366 12.6608C9.33366 13.4004 8.73553 13.9979 8.00033 13.9979C7.26512 13.9979 6.66699 13.4004 6.66699 12.6608L6.66699 12.02C6.66699 11.6518 6.36852 11.3533 6.00033 11.3533C5.63214 11.3533 5.33366 11.6518 5.33366 12.02L5.33366 12.6608C5.33366 14.1345 6.5264 15.3312 8.00033 15.3312C9.47425 15.3312 10.667 14.1345 10.667 12.6608L10.667 7.99787Z" fill="#E5E5E5"/>
</svg>
