<svg width="16" height="16" viewBox="0 0 16 16" fill="none" xmlns="http://www.w3.org/2000/svg">
<path fill-rule="evenodd" clip-rule="evenodd" d="M1.11621 7.99844C1.11621 4.19803 4.19705 1.11719 7.99746 1.11719C11.7979 1.11719 14.8787 4.19803 14.8787 7.99844C14.8787 11.7988 11.7979 14.8797 7.99746 14.8797C4.19705 14.8797 1.11621 11.7988 1.11621 7.99844ZM2.61217 6.65958C2.50592 7.08835 2.44954 7.53681 2.44954 7.99844C2.44954 10.2362 3.77442 12.1645 5.68256 13.0418L7.43345 11.416C6.60043 11.2795 5.86741 10.8459 5.34683 10.2275C5.3129 10.198 5.28146 10.1647 5.25317 10.1275L2.61217 6.65958ZM3.19326 5.22189L4.64461 7.12769C5.03078 5.63648 6.3855 4.53521 7.99746 4.53521H12.3319C11.3153 3.26445 9.75143 2.45052 7.99746 2.45052C5.94502 2.45052 4.15289 3.56504 3.19326 5.22189ZM13.1218 5.86854H10.7285C11.1873 6.45599 11.4607 7.19529 11.4607 7.99844C11.4607 9.09298 10.9529 10.0689 10.1601 10.7036L7.16542 13.4844C7.43683 13.5252 7.71467 13.5464 7.99746 13.5464C11.0615 13.5464 13.5454 11.0625 13.5454 7.99844C13.5454 7.2438 13.3947 6.52436 13.1218 5.86854ZM9.37444 9.62343C9.83504 9.23275 10.1274 8.64973 10.1274 7.99844C10.1274 6.82212 9.17378 5.86854 7.99746 5.86854C6.82114 5.86854 5.86757 6.82212 5.86757 7.99844C5.86757 9.17476 6.82114 10.1283 7.99746 10.1283C8.48513 10.1283 8.93451 9.96445 9.29353 9.68874L9.29755 9.68501C9.32201 9.6623 9.34772 9.64178 9.37444 9.62343Z" fill="black"/>
<path fill-rule="evenodd" clip-rule="evenodd" d="M7.99546 5.86458C6.81914 5.86458 5.86556 6.81816 5.86556 7.99448C5.86556 9.1708 6.81914 10.1244 7.99546 10.1244C9.17178 10.1244 10.1254 9.1708 10.1254 7.99448C10.1254 6.81816 9.17178 5.86458 7.99546 5.86458ZM4.53223 7.99448C4.53223 6.08178 6.08276 4.53125 7.99546 4.53125C9.90816 4.53125 11.4587 6.08178 11.4587 7.99448C11.4587 9.90718 9.90816 11.4577 7.99546 11.4577C6.08276 11.4577 4.53223 9.90718 4.53223 7.99448Z" fill="#E5E5E5"/>
</svg>
