<svg width="16" height="16" viewBox="0 0 16 16" fill="none" xmlns="http://www.w3.org/2000/svg">
<path fill-rule="evenodd" clip-rule="evenodd" d="M8.65339 6.69212C8.65339 6.33145 8.361 6.03906 8.00033 6.03906C7.63965 6.03906 7.34727 6.33145 7.34727 6.69212V8.10675C6.58626 8.37567 6.04102 9.10141 6.04102 9.9545C6.04102 11.0365 6.91817 11.9137 8.0002 11.9137C9.08223 11.9137 9.95938 11.0365 9.95938 9.9545C9.95938 9.1015 9.41426 8.37583 8.65339 8.10684V6.69212ZM7.95614 9.3029C7.97075 9.30387 7.98548 9.30437 8.00033 9.30437C8.01513 9.30437 8.02982 9.30388 8.04438 9.30291C8.38445 9.32562 8.65326 9.60867 8.65326 9.9545C8.65326 10.3152 8.36087 10.6076 8.0002 10.6076C7.63952 10.6076 7.34714 10.3152 7.34714 9.9545C7.34714 9.60863 7.61601 9.32555 7.95614 9.3029Z" fill="#E5E5E5"/>
<path d="M8.65378 4.08119C8.65378 3.72051 8.36139 3.42812 8.00072 3.42812C7.64004 3.42812 7.34766 3.72051 7.34766 4.08119V4.73425C7.34766 5.09492 7.64004 5.38731 8.00072 5.38731C8.36139 5.38731 8.65378 5.09492 8.65378 4.73425V4.08119Z" fill="black"/>
<path d="M2.44766 9.30619C2.44766 8.94551 2.74004 8.65312 3.10072 8.65312H3.75377C4.11444 8.65312 4.40683 8.94551 4.40683 9.30619C4.40683 9.66686 4.11444 9.95925 3.75377 9.95925H3.10072C2.74004 9.95925 2.44766 9.66686 2.44766 9.30619Z" fill="black"/>
<path d="M4.86875 5.5819C4.61372 5.32687 4.20022 5.32687 3.94518 5.5819C3.69015 5.83694 3.69015 6.25043 3.94518 6.50547L4.40696 6.96725C4.662 7.22229 5.0755 7.22229 5.33053 6.96725C5.58557 6.71221 5.58557 6.29872 5.33053 6.04368L4.86875 5.5819Z" fill="black"/>
<path d="M11.5914 9.30619C11.5914 8.94551 11.8838 8.65312 12.2445 8.65312H12.8975C13.2582 8.65312 13.5506 8.94551 13.5506 9.30619C13.5506 9.66686 13.2582 9.95925 12.8975 9.95925H12.2445C11.8838 9.95925 11.5914 9.66686 11.5914 9.30619Z" fill="black"/>
<path d="M12.1868 6.50545C12.4418 6.25041 12.4418 5.83691 12.1868 5.58189C11.9317 5.32686 11.5182 5.32687 11.2632 5.58192L10.8014 6.04373C10.5464 6.29878 10.5464 6.71227 10.8015 6.9673C11.0565 7.22233 11.47 7.22231 11.725 6.96727L12.1868 6.50545Z" fill="black"/>
<path fill-rule="evenodd" clip-rule="evenodd" d="M8.00007 1.79688C4.03263 1.79688 0.816406 5.01311 0.816406 8.98055C0.816406 10.817 1.41577 12.6867 2.62204 13.9947C2.74568 14.1288 2.91975 14.205 3.10212 14.205H12.898C13.0804 14.205 13.2545 14.1288 13.3781 13.9947C14.5844 12.6867 15.1837 10.817 15.1837 8.98055C15.1837 5.01311 11.9675 1.79688 8.00007 1.79688ZM2.12253 8.98055C2.12253 5.73446 4.75399 3.103 8.00007 3.103C11.2462 3.103 13.8776 5.73446 13.8776 8.98055C13.8776 10.4545 13.4249 11.8858 12.6002 12.8989H3.4C2.57523 11.8858 2.12253 10.4545 2.12253 8.98055Z" fill="black"/>
</svg>
