<svg width="16" height="16" viewBox="0 0 16 16" fill="none" xmlns="http://www.w3.org/2000/svg">
<path fill-rule="evenodd" clip-rule="evenodd" d="M11.6385 4.05475H8.62946V2.71875H11.6385C12.8911 2.71875 13.9065 3.73417 13.9065 4.98675V6.42046C13.9065 7.67304 12.8911 8.68846 11.6385 8.68846H4.36468C3.84995 8.68846 3.43268 9.10573 3.43268 9.62046V11.0149C3.43268 11.5296 3.84995 11.9469 4.36468 11.9469H7.28641V13.2829H4.36468C3.1121 13.2829 2.09668 12.2675 2.09668 11.0149V9.62046C2.09668 8.36788 3.1121 7.35246 4.36468 7.35246H11.6385C12.1532 7.35246 12.5705 6.93519 12.5705 6.42046V4.98675C12.5705 4.47202 12.1532 4.05475 11.6385 4.05475Z" fill="black"/>
<path fill-rule="evenodd" clip-rule="evenodd" d="M1.10938 2.68203C1.10938 1.79837 1.82572 1.08203 2.70938 1.08203H7.14641C8.03007 1.08203 8.74642 1.79838 8.74642 2.68203V4.09376C8.74642 4.97741 8.03007 5.69376 7.14642 5.69376H2.70938C1.82572 5.69376 1.10938 4.97741 1.10938 4.09376V2.68203ZM2.70938 2.41803H7.14641C7.29222 2.41803 7.41041 2.53623 7.41041 2.68203V4.09376C7.41041 4.23956 7.29222 4.35776 7.14642 4.35776H2.70938C2.56357 4.35776 2.44537 4.23956 2.44537 4.09376V2.68203C2.44537 2.53623 2.56357 2.41803 2.70938 2.41803Z" fill="#E5E5E5"/>
<path fill-rule="evenodd" clip-rule="evenodd" d="M7.25313 11.907C7.25313 11.0234 7.96947 10.307 8.85313 10.307H13.2902C14.1738 10.307 14.8902 11.0234 14.8902 11.907V13.3188C14.8902 14.2024 14.1738 14.9188 13.2902 14.9188H8.85313C7.96947 14.9188 7.25313 14.2024 7.25313 13.3188V11.907ZM8.85313 11.643H13.2902C13.436 11.643 13.5542 11.7612 13.5542 11.907V13.3188C13.5542 13.4646 13.436 13.5828 13.2902 13.5828H8.85313C8.70732 13.5828 8.58913 13.4646 8.58913 13.3188V11.907C8.58913 11.7612 8.70732 11.643 8.85313 11.643Z" fill="#E5E5E5"/>
</svg>
