<svg width="16" height="16" viewBox="0 0 16 16" fill="none" xmlns="http://www.w3.org/2000/svg">
<path d="M9.62337 5.00016C9.62337 4.63197 9.3249 4.3335 8.95671 4.3335C8.58852 4.3335 8.29004 4.63197 8.29004 5.00016V6.00016C8.29004 6.36835 8.58852 6.66683 8.95671 6.66683C9.3249 6.66683 9.62337 6.36835 9.62337 6.00016V5.00016Z" fill="black"/>
<path d="M12.2911 4.3335C12.6593 4.3335 12.9577 4.63197 12.9577 5.00016V6.00016C12.9577 6.36835 12.6593 6.66683 12.2911 6.66683C11.9229 6.66683 11.6244 6.36835 11.6244 6.00016V5.00016C11.6244 4.63197 11.9229 4.3335 12.2911 4.3335Z" fill="black"/>
<path fill-rule="evenodd" clip-rule="evenodd" d="M6.62441 2.80016C6.62441 1.99015 7.28106 1.3335 8.09108 1.3335H13.1572C13.9672 1.3335 14.6239 1.99015 14.6239 2.80016V13.2002C14.6239 14.0102 13.9672 14.6668 13.1572 14.6668H8.09108C7.28106 14.6668 6.62441 14.0102 6.62441 13.2002V2.80016ZM8.09108 2.66683H9.95723V13.3335H8.09108C8.01744 13.3335 7.95775 13.2738 7.95775 13.2002V2.80016C7.95775 2.72652 8.01744 2.66683 8.09108 2.66683ZM11.2911 2.66683V13.3335H13.1572C13.2309 13.3335 13.2906 13.2738 13.2906 13.2002V2.80016C13.2906 2.72652 13.2309 2.66683 13.1572 2.66683H11.2911Z" fill="black"/>
<path fill-rule="evenodd" clip-rule="evenodd" d="M4.17569 1.43873C3.36592 1.33751 2.62925 1.91674 2.53659 2.72754L1.3856 12.7987C1.29384 13.6016 1.86883 14.3275 2.67141 14.4219L3.90435 14.567C4.71876 14.6628 5.45351 14.0722 5.53511 13.2563L6.54311 3.17625C6.62231 2.38429 6.05541 1.6737 5.26564 1.57497L4.17569 1.43873ZM3.8613 2.87893C3.86972 2.80522 3.93669 2.75257 4.01031 2.76177L5.10026 2.89801C5.17206 2.90699 5.22359 2.97159 5.21639 3.04358L4.20839 13.1236C4.20098 13.1978 4.13418 13.2515 4.06014 13.2427L2.8272 13.0977C2.75424 13.0891 2.70196 13.0231 2.71031 12.9501L3.8613 2.87893Z" fill="black"/>
</svg>
