<svg width="16" height="16" viewBox="0 0 16 16" fill="none" xmlns="http://www.w3.org/2000/svg">
<path fill-rule="evenodd" clip-rule="evenodd" d="M0.790039 4.36956C0.790039 3.11698 1.80546 2.10156 3.05804 2.10156H12.9402C14.1928 2.10156 15.2082 3.11698 15.2082 4.36956V11.6306C15.2082 12.8831 14.1928 13.8986 12.9402 13.8986H3.05804C1.80546 13.8986 0.790039 12.8831 0.790039 11.6306V4.36956ZM3.05804 3.43756C2.54331 3.43756 2.12604 3.85483 2.12604 4.36956V11.6306C2.12604 12.1453 2.54331 12.5626 3.05804 12.5626H12.9402C13.4549 12.5626 13.8722 12.1453 13.8722 11.6306V4.36956C13.8722 3.85483 13.4549 3.43756 12.9402 3.43756H3.05804Z" fill="black"/>
<path d="M3.74707 6.80394C3.74707 5.99318 4.40432 5.33594 5.21507 5.33594H6.7218C7.09073 5.33594 7.3898 5.63501 7.3898 6.00394C7.3898 6.37286 7.09073 6.67194 6.7218 6.67194H5.21507C5.14217 6.67194 5.08307 6.73104 5.08307 6.80394V7.33006H6.7218C7.09073 7.33006 7.3898 7.62913 7.3898 7.99806C7.3898 8.36699 7.09073 8.66606 6.7218 8.66606H5.08307V9.19218C5.08307 9.26508 5.14217 9.32418 5.21507 9.32418H6.7218C7.09073 9.32418 7.3898 9.62326 7.3898 9.99218C7.3898 10.3611 7.09073 10.6602 6.7218 10.6602H5.21507C4.40432 10.6602 3.74707 10.0029 3.74707 9.19218V6.80394Z" fill="#E5E5E5"/>
<path d="M8.29967 5.55869C8.59392 5.33615 9.01286 5.39428 9.23539 5.68853L10.1439 6.88986L11.0525 5.68853C11.275 5.39428 11.694 5.33615 11.9882 5.55869C12.2825 5.78123 12.3406 6.20017 12.1181 6.49442L10.9815 7.99727L12.1146 9.49558C12.3372 9.78983 12.279 10.2088 11.9848 10.4313C11.6905 10.6538 11.2716 10.5957 11.0491 10.3015L10.1439 9.10469L9.23884 10.3015C9.0163 10.5957 8.59736 10.6538 8.30311 10.4313C8.00886 10.2088 7.95072 9.78983 8.17326 9.49558L9.30642 7.99727L8.16982 6.49442C7.94728 6.20017 8.00542 5.78123 8.29967 5.55869Z" fill="#E5E5E5"/>
</svg>
