<svg width="16" height="16" viewBox="0 0 16 16" fill="none" xmlns="http://www.w3.org/2000/svg">
<path fill-rule="evenodd" clip-rule="evenodd" d="M1.18164 3.43854C1.18164 2.1867 2.19646 1.17188 3.44831 1.17188H6.08791C7.33975 1.17188 8.35458 2.1867 8.35458 3.43854V7.00019C8.35458 8.25203 7.33975 9.26685 6.08791 9.26685H3.44831C2.19646 9.26685 1.18164 8.25203 1.18164 7.00019V3.43854ZM3.44831 2.50521C2.93284 2.50521 2.51497 2.92308 2.51497 3.43854V7.00019C2.51497 7.51565 2.93284 7.93352 3.44831 7.93352H6.08791C6.60337 7.93352 7.02124 7.51565 7.02124 7.00019V3.43854C7.02124 2.92308 6.60337 2.50521 6.08791 2.50521H3.44831Z" fill="black"/>
<path fill-rule="evenodd" clip-rule="evenodd" d="M1.18301 12.4399C1.18301 11.3078 2.10071 10.3901 3.23274 10.3901H12.7605C13.8925 10.3901 14.8102 11.3078 14.8102 12.4399C14.8102 13.5719 13.8925 14.4896 12.7605 14.4896H3.23274C2.10071 14.4896 1.18301 13.5719 1.18301 12.4399ZM3.23274 11.7235C2.83709 11.7235 2.51634 12.0442 2.51634 12.4399C2.51634 12.8355 2.83709 13.1563 3.23274 13.1563H12.7605C13.1562 13.1563 13.4769 12.8355 13.4769 12.4399C13.4769 12.0442 13.1562 11.7235 12.7605 11.7235H3.23274Z" fill="black"/>
<path fill-rule="evenodd" clip-rule="evenodd" d="M9.4834 3.06793C9.4834 2.02077 10.3323 1.17188 11.3795 1.17188H12.9162C13.9634 1.17188 14.8122 2.02077 14.8122 3.06793C14.8122 4.11509 13.9634 4.96399 12.9162 4.96399H11.3795C10.3323 4.96399 9.4834 4.11509 9.4834 3.06793ZM11.3795 2.50521C11.0687 2.50521 10.8167 2.75715 10.8167 3.06793C10.8167 3.37872 11.0687 3.63065 11.3795 3.63065H12.9162C13.227 3.63065 13.4789 3.37872 13.4789 3.06793C13.4789 2.75715 13.227 2.50521 12.9162 2.50521H11.3795Z" fill="#E5E5E5"/>
<path fill-rule="evenodd" clip-rule="evenodd" d="M9.4834 7.37418C9.4834 6.32702 10.3323 5.47813 11.3795 5.47813H12.9162C13.9634 5.47813 14.8122 6.32702 14.8122 7.37418C14.8122 8.42134 13.9634 9.27024 12.9162 9.27024H11.3795C10.3323 9.27024 9.4834 8.42134 9.4834 7.37418ZM11.3795 6.81146C11.0687 6.81146 10.8167 7.0634 10.8167 7.37418C10.8167 7.68496 11.0687 7.93691 11.3795 7.93691H12.9162C13.227 7.93691 13.4789 7.68497 13.4789 7.37418C13.4789 7.0634 13.227 6.81146 12.9162 6.81146H11.3795Z" fill="#E5E5E5"/>
</svg>
