<svg width="16" height="16" viewBox="0 0 16 16" fill="none" xmlns="http://www.w3.org/2000/svg">
<path fill-rule="evenodd" clip-rule="evenodd" d="M8 6C8.23924 6 8.46013 6.12819 8.57883 6.33591L9.91216 8.66924C10.0293 8.8742 10.0293 9.1258 9.91216 9.33076L8.57883 11.6641C8.46013 11.8718 8.23924 12 8 12C7.76076 12 7.53987 11.8718 7.42117 11.6641L6.08784 9.33076C5.97072 9.1258 5.97072 8.8742 6.08784 8.66924L7.42117 6.33591C7.53987 6.12819 7.76076 6 8 6ZM7.4345 9L8 9.98962L8.5655 9L8 8.01038L7.4345 9Z" fill="#E5E5E5"/>
<path d="M6.33561 0.667969C5.96742 0.667969 5.66895 0.966446 5.66895 1.33464C5.66895 1.70283 5.96742 2.0013 6.33561 2.0013H9.66894C10.0371 2.0013 10.3356 1.70283 10.3356 1.33464C10.3356 0.966446 10.0371 0.667969 9.66894 0.667969H6.33561Z" fill="black"/>
<path fill-rule="evenodd" clip-rule="evenodd" d="M1.66895 9.0013C1.66895 5.50351 4.50449 2.66797 8.00228 2.66797C11.5001 2.66797 14.3356 5.50351 14.3356 9.0013C14.3356 12.4991 11.5001 15.3346 8.00228 15.3346C4.50449 15.3346 1.66895 12.4991 1.66895 9.0013ZM3.04708 8.3291C3.34586 6.10558 5.10614 4.34516 7.3296 4.04617V4.6666C7.3296 5.03479 7.62807 5.33327 7.99626 5.33327C8.36445 5.33327 8.66293 5.03479 8.66293 4.6666V4.04456C10.8921 4.33881 12.6582 6.10157 12.9575 8.3291H12.3338C11.9656 8.3291 11.6671 8.62758 11.6671 8.99577C11.6671 9.36396 11.9656 9.66244 12.3338 9.66244H12.959C12.664 11.8952 10.8957 13.6633 8.66293 13.958V13.3333C8.66293 12.9651 8.36445 12.6666 7.99626 12.6666C7.62807 12.6666 7.3296 12.9651 7.3296 13.3333V13.9564C5.10246 13.6569 3.34003 11.8912 3.0456 9.66244H3.6671C4.03529 9.66244 4.33376 9.36396 4.33376 8.99577C4.33376 8.62758 4.03529 8.3291 3.6671 8.3291H3.04708Z" fill="black"/>
</svg>
