<svg width="16" height="16" viewBox="0 0 16 16" fill="none" xmlns="http://www.w3.org/2000/svg">
<path fill-rule="evenodd" clip-rule="evenodd" d="M7.62836 1.21982C7.85848 1.08818 8.14108 1.08818 8.3712 1.21982L13.1757 3.96828C13.6778 4.25552 13.6778 4.97959 13.1757 5.26682L8.3712 8.01528C8.14108 8.14692 7.85847 8.14692 7.62836 8.01528L2.82385 5.26682C2.32174 4.97959 2.32174 4.25552 2.82385 3.96828L7.62836 1.21982ZM7.99978 2.54651L4.37943 4.61755L7.99978 6.6886L11.6201 4.61755L7.99978 2.54651Z" fill="#E5E5E5"/>
<path d="M3.80182 7.44534C3.80182 7.07642 3.50275 6.77734 3.13382 6.77734C2.76489 6.77734 2.46582 7.07642 2.46582 7.44534V7.99852C2.46582 8.28607 2.62014 8.5515 2.87003 8.69376L7.60365 11.3886C7.84903 11.5283 8.14986 11.5283 8.39524 11.3886L13.1289 8.69376C13.3788 8.5515 13.5331 8.28607 13.5331 7.99852V7.44534C13.5331 7.07642 13.234 6.77734 12.8651 6.77734C12.4961 6.77734 12.1971 7.07642 12.1971 7.44534V7.6869L8.0786 10.0315C8.02953 10.0595 7.96936 10.0595 7.92029 10.0315L3.80182 7.68689V7.44534Z" fill="black"/>
<path d="M3.80182 10.8328C3.80182 10.4639 3.50275 10.1648 3.13382 10.1648C2.76489 10.1648 2.46582 10.4639 2.46582 10.8328V11.386C2.46582 11.6736 2.62014 11.939 2.87003 12.0813L7.60365 14.7761C7.84903 14.9158 8.14986 14.9158 8.39524 14.7761L13.1289 12.0813C13.3788 11.939 13.5331 11.6736 13.5331 11.386V10.8328C13.5331 10.4639 13.234 10.1648 12.8651 10.1648C12.4961 10.1648 12.1971 10.4639 12.1971 10.8328V11.0744L8.0786 13.419C8.02953 13.447 7.96936 13.447 7.92029 13.419L3.80182 11.0744V10.8328Z" fill="black"/>
</svg>
