<svg width="16" height="16" viewBox="0 0 16 16" fill="none" xmlns="http://www.w3.org/2000/svg">
<path fill-rule="evenodd" clip-rule="evenodd" d="M3.92938 0.664063C2.67709 0.66373 1.66181 1.67898 1.66211 2.93127L1.66404 11.0667C1.66431 12.2342 2.5473 13.1954 3.68188 13.3193C3.80585 14.454 4.76732 15.337 5.93503 15.337H12.0684C13.3202 15.337 14.335 14.3222 14.335 13.0703V4.93698C14.335 3.76937 13.4522 2.80796 12.3176 2.68386C12.1939 1.54915 11.2326 0.666001 10.065 0.665691L3.92938 0.664063ZM10.9605 2.67031C10.8472 2.28249 10.4891 1.99914 10.0647 1.99902L3.92902 1.9974C3.41338 1.99726 2.99532 2.4153 2.99544 2.93095L2.99737 11.0663C2.99747 11.4906 3.28068 11.8487 3.66836 11.9621V4.93698C3.66836 3.68514 4.68318 2.67031 5.93503 2.67031H10.9605ZM5.00169 4.93698C5.00169 4.42151 5.41956 4.00365 5.93503 4.00365H12.0684C12.5838 4.00365 13.0017 4.42151 13.0017 4.93698V13.0703C13.0017 13.5858 12.5838 14.0036 12.0684 14.0036H5.93503C5.41956 14.0036 5.00169 13.5858 5.00169 13.0703V4.93698Z" fill="black"/>
<path d="M6.99772 6.66797C6.62953 6.66797 6.33105 6.96645 6.33105 7.33464C6.33105 7.70283 6.62953 8.0013 6.99772 8.0013H10.9977C11.3659 8.0013 11.6644 7.70283 11.6644 7.33464C11.6644 6.96645 11.3659 6.66797 10.9977 6.66797H6.99772Z" fill="#E5E5E5"/>
<path d="M6.99772 9.33047C6.62953 9.33047 6.33105 9.62895 6.33105 9.99714C6.33105 10.3653 6.62953 10.6638 6.99772 10.6638H10.9977C11.3659 10.6638 11.6644 10.3653 11.6644 9.99714C11.6644 9.62895 11.3659 9.33047 10.9977 9.33047H6.99772Z" fill="#E5E5E5"/>
</svg>
