<svg width="16" height="16" viewBox="0 0 16 16" fill="none" xmlns="http://www.w3.org/2000/svg">
<path fill-rule="evenodd" clip-rule="evenodd" d="M1.17972 4.73857C2.24801 2.68918 4.46928 1.51064 6.76524 1.77508C8.88628 2.01938 10.6653 3.44849 11.3769 5.4298L11.6582 5.4298C13.2111 5.42878 14.7632 6.24955 15.2767 7.87028C15.769 9.42424 15.1973 11.118 13.8639 12.0557C13.5627 12.2675 13.1468 12.195 12.9351 11.8938C12.7233 11.5926 12.7957 11.1768 13.0969 10.965C13.9546 10.3619 14.3223 9.2725 14.0056 8.27299C13.7102 7.34043 12.7846 6.76227 11.6592 6.76313L10.885 6.76313C10.5807 6.76313 10.3149 6.55698 10.2393 6.26216C9.80215 4.5586 8.35989 3.3009 6.61268 3.09966C4.86543 2.89842 3.17504 3.79529 2.36206 5.35489C1.54909 6.9145 1.78188 8.81388 2.94743 10.131C3.19143 10.4067 3.16571 10.8281 2.88998 11.0721C2.61425 11.3161 2.19292 11.2903 1.94892 11.0146C0.417334 9.28385 0.111433 6.78797 1.17972 4.73857Z" fill="black"/>
<path fill-rule="evenodd" clip-rule="evenodd" d="M5.71283 10.2266H10.2357C11.193 10.2266 11.9691 11.0026 11.9691 11.9599V12.5286C11.9691 13.4859 11.193 14.262 10.2357 14.262H5.71283C4.75553 14.262 3.97949 13.4859 3.97949 12.5286V11.9599C3.97949 11.0026 4.75553 10.2266 5.71283 10.2266ZM5.71283 11.5599H10.2357C10.4567 11.5599 10.6357 11.739 10.6357 11.9599V12.5286C10.6357 12.7496 10.4567 12.9286 10.2357 12.9286H5.71283C5.49191 12.9286 5.31283 12.7496 5.31283 12.5286V11.9599C5.31283 11.739 5.49191 11.5599 5.71283 11.5599Z" fill="#E5E5E5"/>
<path fill-rule="evenodd" clip-rule="evenodd" d="M6.6416 8.74089C6.6416 8.3727 6.94008 8.07422 7.30827 8.07422H11.3083C11.6765 8.07422 11.9749 8.3727 11.9749 8.74089C11.9749 9.10908 11.6765 9.40755 11.3083 9.40755H7.30827C6.94008 9.40755 6.6416 9.10908 6.6416 8.74089Z" fill="black"/>
<path fill-rule="evenodd" clip-rule="evenodd" d="M3.97363 8.74089C3.97363 8.3727 4.27211 8.07422 4.6403 8.07422H5.30697C5.67516 8.07422 5.97363 8.3727 5.97363 8.74089C5.97363 9.10908 5.67516 9.40755 5.30697 9.40755H4.6403C4.27211 9.40755 3.97363 9.10908 3.97363 8.74089Z" fill="black"/>
</svg>
