<svg width="16" height="16" viewBox="0 0 16 16" fill="none" xmlns="http://www.w3.org/2000/svg">
<path fill-rule="evenodd" clip-rule="evenodd" d="M3.59772 0.667969C2.34588 0.667969 1.33105 1.68279 1.33105 2.93463V10.4013C1.33105 11.6531 2.34588 12.668 3.59772 12.668H6.40978L6.66961 14.7466C6.71235 15.0885 7.00691 15.3374 7.34398 15.3305H12.4019C13.6537 15.3305 14.6686 14.3156 14.6686 13.0638V5.59713C14.6686 4.34529 13.6537 3.33047 12.4019 3.33047H10.481C10.0436 3.33047 9.63791 3.45347 9.29423 3.66523L9.16777 2.65349C9.02598 1.51918 8.06174 0.667969 6.9186 0.667969H3.59772ZM8.2219 12.6381C8.10171 12.6577 7.97814 12.668 7.85194 12.668H7.75349L7.80877 13.1102L8.2219 12.6381ZM7.07295 11.3346H7.85194C8.41333 11.3346 8.8477 10.8426 8.77806 10.2855L7.84473 2.81887C7.78635 2.3518 7.38931 2.0013 6.9186 2.0013H3.59772C3.08225 2.0013 2.66439 2.41917 2.66439 2.93463V10.4013C2.66439 10.9168 3.08226 11.3346 3.59772 11.3346H6.92399C6.97453 11.329 7.02441 11.3292 7.07295 11.3346ZM9.92427 8.66797L9.75735 7.33255H10.9977C11.3659 7.33255 11.6644 7.03408 11.6644 6.66589C11.6644 6.2977 11.3659 5.99922 10.9977 5.99922H9.59068L9.55489 5.7129C9.48526 5.15584 9.91962 4.6638 10.481 4.6638H12.4019C12.9174 4.6638 13.3352 5.08167 13.3352 5.59713V13.0638C13.3352 13.5793 12.9174 13.9971 12.4019 13.9971H8.80441L9.69776 12.9762C10.1236 12.4895 10.3213 11.8441 10.2411 11.2024L10.0909 10.0013H11.0019C11.3701 10.0013 11.6686 9.70283 11.6686 9.33464C11.6686 8.96645 11.3701 8.66797 11.0019 8.66797H9.92427Z" fill="black"/>
<path d="M3.33105 3.9987C3.33105 3.63051 3.62953 3.33203 3.99772 3.33203H6.33105C6.69924 3.33203 6.99772 3.63051 6.99772 3.9987C6.99772 4.36689 6.69924 4.66536 6.33105 4.66536H3.99772C3.62953 4.66536 3.33105 4.36689 3.33105 3.9987Z" fill="#E5E5E5"/>
<path d="M3.33105 6.66745C3.33105 6.29926 3.62953 6.00078 3.99772 6.00078H6.66439C7.03258 6.00078 7.33105 6.29926 7.33105 6.66745C7.33105 7.03564 7.03258 7.33411 6.66439 7.33411H3.99772C3.62953 7.33411 3.33105 7.03564 3.33105 6.66745Z" fill="#E5E5E5"/>
<path d="M3.99772 8.66953C3.62953 8.66953 3.33105 8.96801 3.33105 9.3362C3.33105 9.70439 3.62953 10.0029 3.99772 10.0029H6.99772C7.36591 10.0029 7.66439 9.70439 7.66439 9.3362C7.66439 8.96801 7.36591 8.66953 6.99772 8.66953H3.99772Z" fill="#E5E5E5"/>
</svg>
