<svg width="16" height="16" viewBox="0 0 16 16" fill="none" xmlns="http://www.w3.org/2000/svg">
<path fill-rule="evenodd" clip-rule="evenodd" d="M3.66686 2.33203C2.7464 2.33203 2.0002 3.0782 2.0002 3.9987V10.332H1.33561C0.967422 10.332 0.668945 10.6305 0.668945 10.9987V11.6654C0.668945 13.1381 1.86285 14.332 3.33561 14.332H12.6689C14.1417 14.332 15.3356 13.1381 15.3356 11.6654V10.9987C15.3356 10.6305 15.0371 10.332 14.6689 10.332H14.0002V7.33203C14.0002 6.96384 13.7017 6.66536 13.3335 6.66536C12.9653 6.66536 12.6669 6.96384 12.6669 7.33203V10.332H3.33353V3.9987C3.33353 3.81459 3.48276 3.66536 3.66686 3.66536H7.33353C7.70172 3.66536 8.0002 3.36689 8.0002 2.9987C8.0002 2.63051 7.70172 2.33203 7.33353 2.33203H3.66686ZM2.00228 11.6654C2.00228 12.4017 2.59923 12.9987 3.33561 12.9987H12.6689C13.4053 12.9987 14.0023 12.4017 14.0023 11.6654H2.00228Z" fill="black"/>
<path d="M11.4714 2.80604C11.7318 2.54569 11.7318 2.12358 11.4714 1.86323C11.2111 1.60288 10.7889 1.60288 10.5286 1.86323L9.19526 3.19656C8.93491 3.45691 8.93491 3.87902 9.19526 4.13937L10.5286 5.47271C10.7889 5.73306 11.2111 5.73306 11.4714 5.47271C11.7318 5.21236 11.7318 4.79025 11.4714 4.5299L10.6095 3.66797L11.4714 2.80604Z" fill="#E5E5E5"/>
<path d="M13.4693 1.86323C13.209 1.60288 12.7869 1.60288 12.5265 1.86323C12.2662 2.12358 12.2662 2.54569 12.5265 2.80604L13.3884 3.66797L12.5265 4.5299C12.2662 4.79025 12.2662 5.21236 12.5265 5.47271C12.7869 5.73306 13.209 5.73306 13.4693 5.47271L14.8027 4.13937C15.063 3.87902 15.063 3.45691 14.8027 3.19656L13.4693 1.86323Z" fill="#E5E5E5"/>
</svg>
