<svg width="16" height="16" viewBox="0 0 16 16" fill="none" xmlns="http://www.w3.org/2000/svg">
<path d="M3.59281 8.01172C2.41649 8.01172 1.46289 8.96532 1.46289 10.1416C1.46289 11.318 2.41649 12.2716 3.59281 12.2716H6.88383C7.25276 12.2716 7.55183 11.9725 7.55183 11.6036C7.55183 11.2346 7.25276 10.9356 6.88383 10.9356H3.59281C3.15434 10.9356 2.79889 10.5801 2.79889 10.1416C2.79889 9.70317 3.15434 9.34772 3.59281 9.34772H5.63611C6.00503 9.34772 6.30411 9.04864 6.30411 8.67972C6.30411 8.31079 6.00503 8.01172 5.63611 8.01172H3.59281Z" fill="black"/>
<path d="M12.408 10.918C13.5843 10.918 14.5379 11.8716 14.5379 13.0479C14.5379 14.2242 13.5843 15.1778 12.408 15.1778H6.23695C5.86802 15.1778 5.56895 14.8787 5.56895 14.5098C5.56895 14.1409 5.86802 13.8418 6.23695 13.8418H12.408C12.8464 13.8418 13.2019 13.4864 13.2019 13.0479C13.2019 12.6094 12.8464 12.254 12.408 12.254H9.11461C8.74568 12.254 8.44661 11.9549 8.44661 11.586C8.44661 11.217 8.74568 10.918 9.11461 10.918H12.408Z" fill="black"/>
<path fill-rule="evenodd" clip-rule="evenodd" d="M10.911 5.05976C10.911 5.91385 10.2117 6.60623 9.34907 6.60623C8.48642 6.60623 7.78711 5.91385 7.78711 5.05976C7.78711 4.20566 8.48642 3.51328 9.34907 3.51328C10.2117 3.51328 10.911 4.20566 10.911 5.05976ZM9.71102 5.05976C9.71102 5.23987 9.56027 5.40623 9.34907 5.40623C9.13786 5.40623 8.98711 5.23987 8.98711 5.05976C8.98711 4.87965 9.13786 4.71328 9.34907 4.71328C9.56027 4.71328 9.71102 4.87965 9.71102 5.05976Z" fill="#E5E5E5"/>
<path fill-rule="evenodd" clip-rule="evenodd" d="M10.0025 9.8056L12.0764 7.72566L12.0978 7.70337L12.1382 7.65865C13.4558 6.17411 13.3782 3.91841 11.9588 2.53548C11.282 1.87271 10.371 1.49703 9.41918 1.48843C8.46733 1.47983 7.54957 1.83886 6.86073 2.48931L6.81741 2.53073L6.77483 2.57289C5.38003 3.97068 5.32588 6.22699 6.66198 7.69106L6.68401 7.71421L8.75424 9.80362C9.09778 10.1503 9.65788 10.1512 10.0025 9.8056ZM11.024 3.48998L11.0264 3.4924C11.931 4.37366 11.9851 5.81464 11.1423 6.76806L11.1205 6.79221L9.38038 8.5374L7.64256 6.78348L7.64048 6.7813C6.79535 5.84559 6.83201 4.40967 7.71799 3.51913L7.74916 3.48827L7.78071 3.4581C8.2169 3.04757 8.79995 2.81889 9.40711 2.82438C10.0154 2.82987 10.5952 3.07007 11.024 3.48998Z" fill="#E5E5E5"/>
</svg>
