<svg width="16" height="16" viewBox="0 0 16 16" fill="none" xmlns="http://www.w3.org/2000/svg">
<path fill-rule="evenodd" clip-rule="evenodd" d="M4.39749 1.33203C2.70308 1.33203 1.32949 2.70562 1.32949 4.40003V9.66329C0.96322 9.66554 0.666992 9.96315 0.666992 10.3299C0.666992 10.6967 0.96322 10.9944 1.32949 10.9966V11.6C1.32949 13.2944 2.70308 14.668 4.39749 14.668H11.5975C13.2919 14.668 14.6655 13.2944 14.6655 11.6V10.9966H14.667C15.0352 10.9966 15.3337 10.6981 15.3337 10.3299C15.3337 9.96176 15.0352 9.66328 14.667 9.66328H14.6655V4.40003C14.6655 2.70562 13.2919 1.33203 11.5975 1.33203H4.39749ZM13.3295 9.66328V4.40003C13.3295 3.44347 12.554 2.66803 11.5975 2.66803H4.39749C3.44094 2.66803 2.66549 3.44347 2.66549 4.40003V9.66328H5.00033C5.25284 9.66328 5.48368 9.80595 5.59661 10.0318L6.07902 10.9966H9.92164L10.404 10.0318C10.517 9.80595 10.7478 9.66328 11.0003 9.66328H13.3295ZM2.66549 10.9966V11.6C2.66549 12.5566 3.44093 13.332 4.39749 13.332H11.5975C12.554 13.332 13.3295 12.5566 13.3295 11.6V10.9966H11.4123L10.9299 11.9614C10.817 12.1873 10.5862 12.3299 10.3337 12.3299H5.66699C5.41448 12.3299 5.18364 12.1873 5.07071 11.9614L4.5883 10.9966H2.66549Z" fill="black"/>
<path d="M5.66471 4.33203C5.29652 4.33203 4.99805 4.63051 4.99805 4.9987C4.99805 5.36689 5.29652 5.66536 5.66471 5.66536H10.3314C10.6996 5.66536 10.998 5.36689 10.998 4.9987C10.998 4.63051 10.6996 4.33203 10.3314 4.33203H5.66471Z" fill="#E5E5E5"/>
<path d="M5.67096 7.00078C5.30277 7.00078 5.0043 7.29926 5.0043 7.66745C5.0043 8.03564 5.30277 8.33411 5.67096 8.33411H10.3376C10.7058 8.33411 11.0043 8.03564 11.0043 7.66745C11.0043 7.29926 10.7058 7.00078 10.3376 7.00078H5.67096Z" fill="#E5E5E5"/>
</svg>
