<svg width="16" height="16" viewBox="0 0 16 16" fill="none" xmlns="http://www.w3.org/2000/svg">
<path fill-rule="evenodd" clip-rule="evenodd" d="M6.4455 1.47416C7.40519 0.909654 8.59546 0.909655 9.55515 1.47416L12.8218 3.39567C13.7585 3.94666 14.3337 4.95223 14.3337 6.03896V9.96031C14.3337 11.047 13.7585 12.0526 12.8219 12.6036L9.55521 14.5252C8.59549 15.0897 7.40516 15.0897 6.44544 14.5252L3.17877 12.6036C2.24211 12.0526 1.66699 11.047 1.66699 9.96031V6.03896C1.66699 4.95223 2.24213 3.94665 3.17883 3.39567L6.4455 1.47416ZM8.87914 2.62342C8.33671 2.30435 7.66395 2.30435 7.12151 2.62342L3.85484 4.54493C3.32541 4.85635 3.00033 5.42472 3.00033 6.03896V9.96031C3.00033 10.5745 3.32539 11.1429 3.85481 11.4543L7.12148 13.3759C7.66393 13.695 8.33672 13.695 8.87917 13.3759L12.1458 11.4543C12.6753 11.1429 13.0003 10.5745 13.0003 9.96031V6.03896C13.0003 5.42472 12.6752 4.85635 12.1458 4.54493L8.87914 2.62342Z" fill="black"/>
<path d="M11.0189 6.89611C11.3311 6.70093 11.4259 6.28961 11.2307 5.97741C11.0356 5.66521 10.6242 5.57035 10.312 5.76553L7.99834 7.212L5.68743 5.7657C5.37532 5.57037 4.96397 5.66503 4.76863 5.97714C4.5733 6.28924 4.66796 6.7006 4.98007 6.89593L7.33574 8.37025V10.9995C7.33574 11.3677 7.63422 11.6661 8.00241 11.6661C8.3706 11.6661 8.66908 11.3677 8.66908 10.9995V8.36513L11.0189 6.89611Z" fill="#E5E5E5"/>
</svg>
