<svg width="16" height="16" viewBox="0 0 16 16" fill="none" xmlns="http://www.w3.org/2000/svg">
<path d="M10.7925 7.1827C10.5253 6.92948 10.1033 6.94088 9.85008 7.20817C9.59686 7.47546 9.60827 7.89741 9.87555 8.15063L10.7448 8.97413L9.9424 9.89552C9.7006 10.1732 9.72967 10.5943 10.0073 10.8361C10.285 11.0779 10.7061 11.0488 10.9479 10.7712L12.1701 9.36765C12.4048 9.09819 12.3853 8.69162 12.1259 8.44587L10.7925 7.1827Z" fill="black"/>
<path d="M3.85008 5.20817C4.10331 4.94088 4.52526 4.92948 4.79255 5.1827L6.12588 6.44587C6.38528 6.69162 6.4048 7.09819 6.17014 7.36765L4.9479 8.77115C4.7061 9.04882 4.28499 9.07789 4.00733 8.83609C3.72967 8.59428 3.7006 8.17318 3.9424 7.89552L4.74479 6.97413L3.87555 6.15064C3.60827 5.89741 3.59686 5.47546 3.85008 5.20817Z" fill="black"/>
<path fill-rule="evenodd" clip-rule="evenodd" d="M2.79967 1C1.98966 1 1.33301 1.65665 1.33301 2.46667V11.5333C1.33301 12.3434 1.98966 13 2.79967 13H7.33301V13.5333C7.33301 14.3434 7.98966 15 8.79967 15H13.1997C14.0097 15 14.6663 14.3434 14.6663 13.5333V4.46667C14.6663 3.65665 14.0097 3 13.1997 3H8.66634V2.46667C8.66634 1.65665 8.00969 1 7.19967 1H2.79967ZM8.66634 4.33333V13.5333C8.66634 13.607 8.72604 13.6667 8.79967 13.6667H13.1997C13.2733 13.6667 13.333 13.607 13.333 13.5333V4.46667C13.333 4.39303 13.2733 4.33333 13.1997 4.33333H8.66634ZM7.33301 2.46667C7.33301 2.39303 7.27331 2.33333 7.19967 2.33333H2.79967C2.72604 2.33333 2.66634 2.39303 2.66634 2.46667V11.5333C2.66634 11.607 2.72604 11.6667 2.79967 11.6667H7.33301V2.46667Z" fill="black"/>
</svg>
