<svg width="25" height="25" viewBox="0 0 25 25" fill="none" xmlns="http://www.w3.org/2000/svg">
<mask id="mask0_193_1101" style="mask-type:alpha" maskUnits="userSpaceOnUse" x="0" y="0" width="25" height="25">
<rect x="0.328613" y="0.862305" width="24" height="24" fill="black"/>
</mask>
<g mask="url(#mask0_193_1101)">
<path d="M13.5234 8.8C13.5234 9.45986 12.9885 9.99479 12.3286 9.99479C11.6687 9.99479 11.1338 9.45986 11.1338 8.8C11.1338 8.14013 11.6687 7.6052 12.3286 7.6052C12.9885 7.6052 13.5234 8.14013 13.5234 8.8Z" fill="black"/>
<path d="M13.2845 12.3844C13.2845 11.8565 12.8565 11.4286 12.3286 11.4286C11.8007 11.4286 11.3728 11.8565 11.3728 12.3844V18.1194C11.3728 18.6473 11.8007 19.0753 12.3286 19.0753C12.8565 19.0753 13.2845 18.6473 13.2845 18.1194V12.3844Z" fill="black"/>
<path fill-rule="evenodd" clip-rule="evenodd" d="M1.81439 12.8623C1.81439 7.05546 6.52177 2.34808 12.3286 2.34808C18.1355 2.34808 22.8428 7.05546 22.8428 12.8623C22.8428 18.6692 18.1355 23.3765 12.3286 23.3765C6.52177 23.3765 1.81439 18.6692 1.81439 12.8623ZM12.3286 4.25976C7.57756 4.25976 3.72607 8.11125 3.72607 12.8623C3.72607 17.6134 7.57756 21.4649 12.3286 21.4649C17.0797 21.4649 20.9312 17.6134 20.9312 12.8623C20.9312 8.11125 17.0797 4.25976 12.3286 4.25976Z" fill="black"/>
</g>
</svg>
