<svg width="16" height="16" viewBox="0 0 16 16" fill="none" xmlns="http://www.w3.org/2000/svg">
<mask id="mask0_102_1011" style="mask-type:alpha" maskUnits="userSpaceOnUse" x="0" y="0" width="16" height="16">
<rect width="16" height="16" fill="#D9D9D9"/>
</mask>
<g mask="url(#mask0_102_1011)">
<path fill-rule="evenodd" clip-rule="evenodd" d="M11.4016 8.67934L11.2302 8.65386L11.0588 8.67934C11.1706 8.6453 11.2899 8.6453 11.4016 8.67934ZM11.2302 14.532L10.9238 14.4463L10.9221 14.4452L10.9192 14.4435L10.9113 14.4385C10.905 14.4345 10.8967 14.4293 10.8867 14.4227C10.8666 14.4097 10.8393 14.3915 10.8058 14.3682C10.7388 14.3215 10.6468 14.254 10.538 14.1656C10.321 13.9893 10.0341 13.7268 9.74696 13.3768C9.17202 12.676 8.58484 11.6079 8.58484 10.1823C8.58484 10.0011 8.65796 9.86432 8.71213 9.7859C8.76784 9.70525 8.83244 9.64406 8.8835 9.60127C8.98563 9.51568 9.1073 9.44311 9.21755 9.38431C9.4436 9.26375 9.72834 9.14555 9.99219 9.04503C10.2605 8.94282 10.5267 8.85161 10.7244 8.78632C10.8237 8.75355 10.9065 8.72704 10.9649 8.70863C10.994 8.69942 11.0171 8.69222 11.0331 8.68726L11.0517 8.68154L11.0588 8.67934L11.2302 8.65386C11.2378 8.65386 11.4016 8.67934 11.4016 8.67934L11.4088 8.68154L11.4273 8.68726C11.4433 8.69222 11.4664 8.69942 11.4956 8.70863C11.5539 8.72704 11.6368 8.75355 11.736 8.78632C11.9338 8.85161 12.1999 8.94282 12.4683 9.04503C12.7321 9.14555 13.0168 9.26375 13.2429 9.38431C13.3531 9.44311 13.4748 9.51568 13.5769 9.60127C13.628 9.64406 13.6926 9.70525 13.7483 9.7859C13.8025 9.86432 13.8756 10.0011 13.8756 10.1823C13.8756 11.6079 13.2884 12.676 12.7135 13.3768C12.4264 13.7268 12.1394 13.9893 11.9225 14.1656C11.8137 14.254 11.7216 14.3215 11.6546 14.3682C11.6211 14.3915 11.5938 14.4097 11.5738 14.4227C11.5637 14.4293 11.5555 14.4345 11.5492 14.4385L11.5412 14.4435L11.5383 14.4452L11.5372 14.4459L11.2302 14.532ZM11.2302 14.532L10.9238 14.4463C11.1117 14.5608 11.3493 14.5605 11.5372 14.4459L11.2302 14.532ZM11.2302 13.2125C11.0678 13.0762 10.8618 12.8821 10.656 12.6312C10.2365 12.1198 9.82743 11.3863 9.76796 10.4233L9.77083 10.4217C9.93056 10.3365 10.1602 10.2392 10.4107 10.1437C10.6568 10.05 10.905 9.96485 11.093 9.90277C11.1438 9.88601 11.19 9.871 11.2302 9.85805C11.2705 9.871 11.3166 9.88601 11.3674 9.90277C11.5554 9.96485 11.8036 10.05 12.0497 10.1437C12.3002 10.2392 12.5299 10.3365 12.6896 10.4217L12.6925 10.4233C12.633 11.3863 12.224 12.1198 11.8045 12.6312C11.5986 12.8821 11.3927 13.0762 11.2302 13.2125Z" fill="#E5E5E5"/>
<path fill-rule="evenodd" clip-rule="evenodd" d="M4.17573 1.59961C3.52639 1.59961 3 2.126 3 2.77533V13.3569C3 14.0062 3.5264 14.5326 4.17573 14.5326H7.7029C8.02757 14.5326 8.29077 14.1694 8.29077 13.8447C8.29077 13.5201 8.02757 13.1569 7.7029 13.1569H4.37573V2.97534H9.46649V5.12679C9.46649 5.45145 9.72969 5.71465 10.0544 5.71465H12.2058V7.77217C12.2058 8.09684 12.569 8.36003 12.8937 8.36003C13.2183 8.36003 13.5815 8.09684 13.5815 7.77217V5.12679C13.5815 4.97476 13.5238 4.8362 13.4291 4.73184L10.7852 1.79421C10.6738 1.67034 10.5149 1.59961 10.3483 1.59961H4.17573ZM10.6422 3.39283V4.53892H11.6737L10.6422 3.39283Z" fill="black"/>
</g>
</svg>
