<svg width="17" height="17" viewBox="0 0 17 17" fill="none" xmlns="http://www.w3.org/2000/svg">
<mask id="mask0_102_1011" style="mask-type:alpha" maskUnits="userSpaceOnUse" x="0" y="0" width="17" height="17">
<rect x="0.25" y="0.64502" width="16" height="16" fill="#D9D9D9"/>
</mask>
<g mask="url(#mask0_102_1011)">
<path fill-rule="evenodd" clip-rule="evenodd" d="M11.6516 9.32412L11.4802 9.29863L11.3088 9.32412C11.4206 9.29007 11.5399 9.29007 11.6516 9.32412ZM11.4802 15.1768L11.1738 15.091L11.1721 15.09L11.1692 15.0882L11.1613 15.0832C11.155 15.0793 11.1467 15.074 11.1367 15.0675C11.1166 15.0545 11.0893 15.0363 11.0558 15.0129C10.9888 14.9663 10.8968 14.8988 10.788 14.8104C10.571 14.6341 10.2841 14.3716 9.99696 14.0216C9.42202 13.3207 8.83484 12.2527 8.83484 10.827C8.83484 10.6459 8.90796 10.5091 8.96213 10.4307C9.01784 10.35 9.08244 10.2888 9.1335 10.246C9.23563 10.1605 9.3573 10.0879 9.46755 10.0291C9.6936 9.90852 9.97834 9.79032 10.2422 9.68981C10.5105 9.58759 10.7767 9.49638 10.9744 9.4311C11.0737 9.39833 11.1565 9.37182 11.2149 9.3534C11.244 9.34419 11.2671 9.33699 11.2831 9.33204L11.3017 9.32631L11.3088 9.32412L11.4802 9.29863C11.4878 9.29863 11.6516 9.32412 11.6516 9.32412L11.6588 9.32631L11.6773 9.33204C11.6933 9.33699 11.7164 9.34419 11.7456 9.3534C11.8039 9.37182 11.8868 9.39833 11.986 9.4311C12.1838 9.49638 12.4499 9.58759 12.7183 9.68981C12.9821 9.79032 13.2668 9.90852 13.4929 10.0291C13.6031 10.0879 13.7248 10.1605 13.8269 10.246C13.878 10.2888 13.9426 10.35 13.9983 10.4307C14.0525 10.5091 14.1256 10.6459 14.1256 10.827C14.1256 12.2527 13.5384 13.3207 12.9635 14.0216C12.6764 14.3716 12.3894 14.6341 12.1725 14.8104C12.0637 14.8988 11.9716 14.9663 11.9046 15.0129C11.8711 15.0363 11.8438 15.0545 11.8238 15.0675C11.8137 15.074 11.8055 15.0793 11.7992 15.0832L11.7912 15.0882L11.7883 15.09L11.7872 15.0907L11.4802 15.1768ZM11.4802 15.1768L11.1738 15.091C11.3617 15.2056 11.5993 15.2053 11.7872 15.0907L11.4802 15.1768ZM11.4802 13.8573C11.3178 13.721 11.1118 13.5269 10.906 13.2759C10.4865 12.7645 10.0774 12.0311 10.018 11.068L10.0208 11.0665C10.1806 10.9813 10.4102 10.884 10.6607 10.7885C10.9068 10.6948 11.155 10.6096 11.343 10.5475C11.3938 10.5308 11.44 10.5158 11.4802 10.5028C11.5205 10.5158 11.5666 10.5308 11.6174 10.5475C11.8054 10.6096 12.0536 10.6948 12.2997 10.7885C12.5502 10.884 12.7799 10.9813 12.9396 11.0665L12.9425 11.068C12.883 12.0311 12.474 12.7645 12.0545 13.2759C11.8486 13.5269 11.6427 13.721 11.4802 13.8573Z" fill="#E5E5E5"/>
<path fill-rule="evenodd" clip-rule="evenodd" d="M4.42573 2.24463C3.77639 2.24463 3.25 2.77102 3.25 3.42035V14.0019C3.25 14.6512 3.7764 15.1776 4.42573 15.1776H7.9529C8.27757 15.1776 8.54077 14.8144 8.54077 14.4897C8.54077 14.1651 8.27757 13.8019 7.9529 13.8019H4.62573V3.62035H9.71649V5.77181C9.71649 6.09647 9.97969 6.35967 10.3044 6.35967H12.4558V8.41719C12.4558 8.74186 12.819 9.00505 13.1437 9.00505C13.4683 9.00505 13.8315 8.74186 13.8315 8.41719V5.77181C13.8315 5.61978 13.7738 5.48122 13.6791 5.37686L11.0352 2.43923C10.9238 2.31536 10.7649 2.24463 10.5983 2.24463H4.42573ZM10.8922 4.03785V5.18394H11.9237L10.8922 4.03785Z" fill="black"/>
</g>
</svg>
