<svg width="17" height="17" viewBox="0 0 17 17" fill="none" xmlns="http://www.w3.org/2000/svg">
<mask id="mask0_107_1312" style="mask-type:alpha" maskUnits="userSpaceOnUse" x="0" y="0" width="17" height="17">
<rect x="0.554199" y="0.64502" width="16" height="16" fill="#D9D9D9"/>
</mask>
<g mask="url(#mask0_107_1312)">
<path d="M9.15655 6.42075L9.9355 7.1991C10.1708 7.43425 10.5522 7.4341 10.7874 7.19877C11.0225 6.96345 11.0224 6.58206 10.787 6.34691L9.00363 4.56487C8.89332 4.44134 8.73284 4.36357 8.5542 4.36357C8.39987 4.36338 8.24484 4.42214 8.12705 4.53983L6.32137 6.34411C6.08604 6.57925 6.08589 6.96064 6.32103 7.19597C6.55618 7.4313 6.93757 7.43145 7.17289 7.1963L7.95184 6.41796L7.95184 10.8693L7.1729 10.091C6.93757 9.85584 6.55618 9.85599 6.32104 10.0913C6.08589 10.3266 6.08604 10.708 6.32136 10.9432L8.10476 12.7252C8.21507 12.8487 8.37555 12.9265 8.5542 12.9265L8.55513 12.9265C8.70937 12.9266 8.86363 12.8679 8.98135 12.7503L10.787 10.946C11.0224 10.7108 11.0225 10.3294 10.7874 10.0941C10.5522 9.85879 10.1708 9.85864 9.9355 10.0938L9.15655 10.8721L9.15655 6.42075Z" fill="#E5E5E5"/>
<path d="M14.2582 3.89179C14.6082 3.89179 14.892 3.60804 14.892 3.25803C14.892 2.90801 14.6082 2.62427 14.2582 2.62427L2.85056 2.62427C2.50054 2.62427 2.2168 2.90801 2.2168 3.25803C2.2168 3.60804 2.50054 3.89179 2.85056 3.89179L14.2582 3.89179Z" fill="black"/>
<path d="M14.2582 14.6657C14.6082 14.6657 14.892 14.3819 14.892 14.0319C14.892 13.6819 14.6082 13.3982 14.2582 13.3982L2.85056 13.3982C2.50054 13.3982 2.2168 13.6819 2.2168 14.0319C2.2168 14.3819 2.50054 14.6657 2.85056 14.6657L14.2582 14.6657Z" fill="black"/>
</g>
</svg>
