<svg width="17" height="17" viewBox="0 0 17 17" fill="none" xmlns="http://www.w3.org/2000/svg">
<mask id="mask0_102_1166" style="mask-type:alpha" maskUnits="userSpaceOnUse" x="0" y="0" width="17" height="17">
<rect x="0.20752" y="0.64502" width="16" height="16" fill="#D9D9D9"/>
</mask>
<g mask="url(#mask0_102_1166)">
<path d="M5.98325 8.04266L6.7616 7.26372C6.99674 7.02839 6.9966 6.647 6.76127 6.41186C6.52595 6.17672 6.14456 6.17686 5.90941 6.41219L4.12737 8.19559C4.00384 8.3059 3.92607 8.46638 3.92607 8.64502C3.92588 8.79935 3.98463 8.95438 4.10233 9.07217L5.90661 10.8779C6.14175 11.1132 6.52314 11.1133 6.75847 10.8782C6.9938 10.643 6.99395 10.2617 6.7588 10.0263L5.98046 9.24738L10.4318 9.24738L9.65349 10.0263C9.41834 10.2616 9.41849 10.643 9.65381 10.8782C9.88914 11.1133 10.2705 11.1132 10.5057 10.8779L12.2877 9.09446C12.4112 8.98415 12.489 8.82367 12.489 8.64502L12.489 8.64409C12.4891 8.48985 12.4304 8.33558 12.3128 8.21787L10.5085 6.41219C10.2733 6.17686 9.89195 6.17671 9.65662 6.41186C9.42129 6.647 9.42114 7.02839 9.65629 7.26372L10.4346 8.04266L5.98325 8.04266Z" fill="#E5E5E5"/>
<path d="M3.45429 2.94124C3.45429 2.59123 3.17054 2.30748 2.82053 2.30748C2.47051 2.30748 2.18677 2.59123 2.18677 2.94124L2.18677 14.3489C2.18677 14.6989 2.47051 14.9827 2.82053 14.9827C3.17054 14.9827 3.45429 14.6989 3.45429 14.3489L3.45429 2.94124Z" fill="black"/>
<path d="M14.2282 2.94124C14.2282 2.59123 13.9444 2.30748 13.5944 2.30748C13.2444 2.30748 12.9607 2.59123 12.9607 2.94124L12.9607 14.3489C12.9607 14.6989 13.2444 14.9827 13.5944 14.9827C13.9444 14.9827 14.2282 14.6989 14.2282 14.3489L14.2282 2.94124Z" fill="black"/>
</g>
</svg>
