<svg width="16" height="16" viewBox="0 0 16 16" fill="none" xmlns="http://www.w3.org/2000/svg">
<mask id="mask0_102_1083" style="mask-type:alpha" maskUnits="userSpaceOnUse" x="0" y="0" width="16" height="16">
<rect width="16" height="16" fill="#DCDCDC"/>
</mask>
<g mask="url(#mask0_102_1083)">
<path fill-rule="evenodd" clip-rule="evenodd" d="M6.8894 13.1351C6.8894 13.493 7.17957 13.7832 7.53752 13.7832H14.0187C14.3766 13.7832 14.6668 13.493 14.6668 13.1351C14.6668 12.7771 14.3766 12.487 14.0187 12.487H7.53752C7.17957 12.487 6.8894 12.7771 6.8894 13.1351ZM6.8894 9.89452C6.8894 10.2525 7.17957 10.5426 7.53752 10.5426H12.7224C13.0804 10.5426 13.3705 10.2525 13.3705 9.89452C13.3705 9.53658 13.0804 9.2464 12.7224 9.2464H7.53752C7.17957 9.2464 6.8894 9.53658 6.8894 9.89452ZM6.8894 6.65394C6.8894 7.01187 7.17957 7.30206 7.53752 7.30206H11.4262C11.7841 7.30206 12.0743 7.01187 12.0743 6.65394C12.0743 6.296 11.7841 6.0058 11.4262 6.0058H7.53752C7.17957 6.0058 6.8894 6.296 6.8894 6.65394ZM6.8894 3.4134C6.8894 3.77134 7.17957 4.06147 7.53752 4.06147H10.13C10.4879 4.06147 10.7781 3.77134 10.7781 3.4134C10.7781 3.0554 10.4879 2.76527 10.13 2.76527H7.53752C7.17957 2.76527 6.8894 3.0554 6.8894 3.4134Z" fill="black"/>
<path fill-rule="evenodd" clip-rule="evenodd" d="M5.26901 13.5086C5.26901 13.8666 4.97884 14.1567 4.6209 14.1567C4.26295 14.1567 3.97278 13.8666 3.97278 13.5086V4.00841L2.43973 5.54141C2.18662 5.79454 1.77626 5.79454 1.52316 5.54141C1.27005 5.28834 1.27005 4.87794 1.52316 4.62487L4.11561 2.0324C4.24812 1.89987 4.42374 1.83674 4.59733 1.84301C4.60515 1.84274 4.613 1.84254 4.6209 1.84254C4.97884 1.84254 5.26901 2.13274 5.26901 2.49067V13.5086Z" fill="#E5E5E5"/>
</g>
</svg>
