<svg width="17" height="17" viewBox="0 0 17 17" fill="none" xmlns="http://www.w3.org/2000/svg">
<mask id="mask0_102_1083" style="mask-type:alpha" maskUnits="userSpaceOnUse" x="0" y="0" width="17" height="17">
<rect x="0.147217" y="0.716797" width="16" height="16" fill="#DCDCDC"/>
</mask>
<g mask="url(#mask0_102_1083)">
<path fill-rule="evenodd" clip-rule="evenodd" d="M7.03662 13.8519C7.03662 14.2098 7.32679 14.5 7.68474 14.5H14.1659C14.5238 14.5 14.814 14.2098 14.814 13.8519C14.814 13.4939 14.5238 13.2038 14.1659 13.2038H7.68474C7.32679 13.2038 7.03662 13.4939 7.03662 13.8519ZM7.03662 10.6113C7.03662 10.9693 7.32679 11.2594 7.68474 11.2594H12.8696C13.2276 11.2594 13.5178 10.9693 13.5178 10.6113C13.5178 10.2534 13.2276 9.9632 12.8696 9.9632H7.68474C7.32679 9.9632 7.03662 10.2534 7.03662 10.6113ZM7.03662 7.37073C7.03662 7.72867 7.32679 8.01886 7.68474 8.01886H11.5734C11.9314 8.01886 12.2215 7.72867 12.2215 7.37073C12.2215 7.0128 11.9314 6.7226 11.5734 6.7226H7.68474C7.32679 6.7226 7.03662 7.0128 7.03662 7.37073ZM7.03662 4.1302C7.03662 4.48813 7.32679 4.77827 7.68474 4.77827H10.2772C10.6351 4.77827 10.9253 4.48813 10.9253 4.1302C10.9253 3.7722 10.6351 3.48207 10.2772 3.48207H7.68474C7.32679 3.48207 7.03662 3.7722 7.03662 4.1302Z" fill="black"/>
<path fill-rule="evenodd" clip-rule="evenodd" d="M5.41627 14.2257C5.41627 14.5836 5.1261 14.8738 4.76816 14.8738C4.41021 14.8738 4.12004 14.5836 4.12004 14.2257V4.72545L2.58699 6.25845C2.33388 6.51158 1.92352 6.51158 1.67042 6.25845C1.41731 6.00538 1.41731 5.59498 1.67042 5.34191L4.26288 2.74945C4.39538 2.61691 4.571 2.55378 4.74459 2.56005C4.75241 2.55978 4.76026 2.55958 4.76816 2.55958C5.1261 2.55958 5.41627 2.84978 5.41627 3.20771V14.2257Z" fill="#E5E5E5"/>
</g>
</svg>
