<svg width="17" height="17" viewBox="0 0 17 17" fill="none" xmlns="http://www.w3.org/2000/svg">
<mask id="mask0_107_1317" style="mask-type:alpha" maskUnits="userSpaceOnUse" x="0" y="0" width="17" height="17">
<rect x="0.80127" y="0.64502" width="16" height="16" fill="#D9D9D9"/>
</mask>
<g mask="url(#mask0_107_1317)">
<path d="M3.09849 2.62524C2.74854 2.62524 2.46484 2.90894 2.46484 3.2589C2.46484 3.60885 2.74854 3.89255 3.09849 3.89255H14.5042C14.8542 3.89255 15.1379 3.60885 15.1379 3.2589C15.1379 2.90894 14.8542 2.62524 14.5042 2.62524H3.09849Z" fill="black"/>
<path d="M3.09849 13.3973C2.74854 13.3973 2.46484 13.681 2.46484 14.031C2.46484 14.3809 2.74854 14.6646 3.09849 14.6646H14.5042C14.8542 14.6646 15.1379 14.3809 15.1379 14.031C15.1379 13.681 14.8542 13.3973 14.5042 13.3973H3.09849Z" fill="black"/>
<path fill-rule="evenodd" clip-rule="evenodd" d="M8.2229 4.9009L5.05597 11.8681C4.91116 12.1867 5.05203 12.5624 5.37062 12.7072C5.68921 12.852 6.06487 12.7111 6.20968 12.3925L7.04893 10.5462H10.5532L11.3925 12.3925C11.5373 12.7111 11.913 12.852 12.2315 12.7072C12.5501 12.5624 12.691 12.1867 12.5462 11.8681L9.37927 4.90091C9.36877 4.87746 9.35684 4.85463 9.34354 4.83257C9.29139 4.74604 9.21815 4.67122 9.12706 4.61673C9.10227 4.6019 9.07654 4.58879 9.05005 4.57748C8.96891 4.54277 8.88436 4.52632 8.80108 4.52637C8.68584 4.52644 8.57303 4.55811 8.47511 4.61673C8.38841 4.66863 8.31337 4.74166 8.25862 4.83257C8.24533 4.85463 8.2334 4.87746 8.2229 4.9009ZM9.97719 9.2789L8.80108 6.69146L7.62497 9.2789H9.97719Z" fill="#E5E5E5"/>
</g>
</svg>
