<svg width="17" height="17" viewBox="0 0 17 17" fill="none" xmlns="http://www.w3.org/2000/svg">
<mask id="mask0_102_1171" style="mask-type:alpha" maskUnits="userSpaceOnUse" x="0" y="0" width="17" height="17">
<rect x="0.201538" y="0.64502" width="16" height="16" fill="#D9D9D9"/>
</mask>
<g mask="url(#mask0_102_1171)">
<path d="M2.18176 14.348C2.18176 14.698 2.46546 14.9817 2.81541 14.9817C3.16537 14.9817 3.44906 14.698 3.44906 14.348L3.44906 2.94232C3.44906 2.59237 3.16537 2.30867 2.81541 2.30867C2.46546 2.30867 2.18176 2.59237 2.18176 2.94232L2.18176 14.348Z" fill="black"/>
<path d="M12.9538 14.348C12.9538 14.698 13.2375 14.9817 13.5875 14.9817C13.9374 14.9817 14.2211 14.698 14.2211 14.348L14.2211 2.94232C14.2211 2.59237 13.9374 2.30867 13.5875 2.30867C13.2375 2.30867 12.9538 2.59237 12.9538 2.94232L12.9538 14.348Z" fill="black"/>
<path fill-rule="evenodd" clip-rule="evenodd" d="M7.62341 4.9009L4.45649 11.8681C4.31167 12.1867 4.45255 12.5624 4.77114 12.7072C5.08972 12.852 5.46538 12.7111 5.6102 12.3925L6.44944 10.5462H9.95375L10.793 12.3925C10.9378 12.7111 11.3135 12.852 11.6321 12.7072C11.9506 12.5624 12.0915 12.1867 11.9467 11.8681L8.77979 4.90091C8.76928 4.87746 8.75736 4.85463 8.74406 4.83257C8.69191 4.74604 8.61867 4.67122 8.52757 4.61673C8.50279 4.6019 8.47705 4.58879 8.45056 4.57748C8.36942 4.54277 8.28487 4.52632 8.2016 4.52637C8.08635 4.52644 7.97355 4.55811 7.87562 4.61673C7.78892 4.66863 7.71389 4.74166 7.65914 4.83257C7.64584 4.85463 7.63391 4.87746 7.62341 4.9009ZM9.37771 9.2789L8.2016 6.69146L7.02549 9.2789H9.37771Z" fill="#E5E5E5"/>
</g>
</svg>
