<svg width="17" height="17" viewBox="0 0 17 17" fill="none" xmlns="http://www.w3.org/2000/svg">
<path d="M11.5261 12.834V14.634C11.5261 14.9654 11.7948 15.234 12.1261 15.234V15.234C12.4575 15.234 12.7261 14.9654 12.7261 14.634V12.834H14.5262C14.8576 12.834 15.1262 12.5654 15.1262 12.234V12.234C15.1262 11.9027 14.8576 11.634 14.5262 11.634H12.7261V9.83401C12.7261 9.50264 12.4575 9.23401 12.1261 9.23401V9.23401C11.7948 9.23401 11.5261 9.50264 11.5261 9.83401V11.634H9.72622C9.39485 11.634 9.12622 11.9027 9.12622 12.234V12.234C9.12622 12.5654 9.39485 12.834 9.72622 12.834H11.5261Z" fill="#E5E5E5"/>
<path fill-rule="evenodd" clip-rule="evenodd" d="M3.05352 1.9613C2.39077 1.9613 1.85352 2.49856 1.85352 3.1613V6.7613C1.85352 7.42405 2.39077 7.9613 3.05352 7.9613H6.65352C7.31626 7.9613 7.85352 7.42405 7.85352 6.7613V3.1613C7.85352 2.49856 7.31626 1.9613 6.65352 1.9613H3.05352ZM6.65352 3.1613H3.05352L3.05352 6.7613H6.65352V3.1613Z" fill="black"/>
<path fill-rule="evenodd" clip-rule="evenodd" d="M3.05352 9.23401C2.39077 9.23401 1.85352 9.77127 1.85352 10.434V14.034C1.85352 14.6968 2.39077 15.234 3.05352 15.234H6.65352C7.31626 15.234 7.85352 14.6968 7.85352 14.034V10.434C7.85352 9.77127 7.31626 9.23401 6.65352 9.23401H3.05352ZM6.65352 10.434H3.05352L3.05352 14.034H6.65352V10.434Z" fill="black"/>
<path fill-rule="evenodd" clip-rule="evenodd" d="M10.3262 7.9613C9.66348 7.9613 9.12622 7.42405 9.12622 6.7613V3.1613C9.12622 2.49856 9.66348 1.9613 10.3262 1.9613H13.9262C14.589 1.9613 15.1262 2.49856 15.1262 3.1613V6.7613C15.1262 7.42405 14.589 7.9613 13.9262 7.9613H10.3262ZM10.3262 6.7613V3.1613L13.9262 3.1613V6.7613H10.3262Z" fill="black"/>
</svg>
