<svg width="17" height="17" viewBox="0 0 17 17" fill="none" xmlns="http://www.w3.org/2000/svg">
<path fill-rule="evenodd" clip-rule="evenodd" d="M2.9031 7.62048C2.57173 7.62048 2.3031 7.88911 2.3031 8.22048V14.2205C2.3031 14.5519 2.57173 14.8205 2.9031 14.8205H5.55988C5.5632 14.8205 5.56652 14.8206 5.56985 14.8206C5.57318 14.8206 5.5765 14.8205 5.57981 14.8205H13.5698C13.9011 14.8205 14.1698 14.5519 14.1698 14.2205V8.22048C14.1698 7.88911 13.9011 7.62048 13.5698 7.62048H2.9031ZM6.16985 13.6205H12.9698V8.82048H3.5031V13.6205H4.96985V10.8872C4.96985 10.5559 5.23848 10.2872 5.56985 10.2872C5.90122 10.2872 6.16985 10.5559 6.16985 10.8872V13.6205Z" fill="black"/>
<path fill-rule="evenodd" clip-rule="evenodd" d="M5.63644 2.22048C5.63644 1.88911 5.90507 1.62048 6.23644 1.62048H10.2364C10.5678 1.62048 10.8364 1.88911 10.8364 2.22048V3.95382H14.6031C14.9345 3.95382 15.2031 4.22245 15.2031 4.55382V8.22048C15.2031 8.55185 14.9345 8.82048 14.6031 8.82048H1.86978C1.5384 8.82048 1.26978 8.55185 1.26978 8.22048V4.55382C1.26978 4.22245 1.5384 3.95382 1.86978 3.95382H5.63644V2.22048ZM6.83644 2.82048V4.55382C6.83644 4.88519 6.56781 5.15382 6.23644 5.15382H2.46978V7.62048H14.0031V5.15382H10.2364C9.90507 5.15382 9.63644 4.88519 9.63644 4.55382V2.82048H6.83644Z" fill="#E5E5E5"/>
</svg>
