<svg width="17" height="17" viewBox="0 0 17 17" fill="none" xmlns="http://www.w3.org/2000/svg">
<mask id="mask0_102_1161" style="mask-type:alpha" maskUnits="userSpaceOnUse" x="0" y="0" width="17" height="17">
<rect x="0.195557" y="0.64502" width="16" height="16" fill="#D9D9D9"/>
</mask>
<g mask="url(#mask0_102_1161)">
<path d="M5.56384 3.86626C5.56384 2.58975 6.59866 1.55493 7.87517 1.55493C9.15169 1.55493 10.1865 2.58975 10.1865 3.86626V7.39231H8.92202V3.86626C8.92202 3.2881 8.45333 2.81941 7.87517 2.81941C7.29701 2.81941 6.82833 3.2881 6.82833 3.86626V7.39231H5.56384V3.86626Z" fill="#E5E5E5"/>
<path fill-rule="evenodd" clip-rule="evenodd" d="M5.19637 6.11768C3.5319 6.11768 2.14536 7.39367 2.00739 9.05241L1.73975 12.2699C1.58457 14.1354 3.0568 15.7352 4.92874 15.7352H13.8622C14.3704 15.7352 14.7499 15.2674 14.645 14.77L13.2217 8.02234C12.9875 6.91219 12.0079 6.11768 10.8733 6.11768H5.19637ZM10.8733 7.39768H5.19637C4.19769 7.39768 3.36577 8.16327 3.28298 9.15852L3.01534 12.376C2.92224 13.4953 3.80557 14.4552 4.92874 14.4552H5.96496C5.45908 13.6999 5.25131 12.6973 5.50771 11.6915C5.60408 11.3134 5.95789 11.0938 6.29796 11.201C6.63803 11.3081 6.83558 11.7014 6.73921 12.0795C6.47064 13.133 7.12445 14.3184 8.07462 14.4552H9.20958C8.70371 13.6999 8.49593 12.6973 8.75233 11.6915C8.8487 11.3134 9.20251 11.0938 9.54258 11.201C9.88265 11.3081 10.0802 11.7014 9.98383 12.0795C9.71526 13.133 10.3691 14.3184 11.3192 14.4552H13.2704L11.9692 8.28652C11.8599 7.76845 11.4028 7.39768 10.8733 7.39768Z" fill="black"/>
</g>
</svg>
