<svg width="17" height="17" viewBox="0 0 17 17" fill="none" xmlns="http://www.w3.org/2000/svg">
<mask id="mask0_102_1141" style="mask-type:alpha" maskUnits="userSpaceOnUse" x="0" y="0" width="17" height="17">
<rect x="0.695374" y="0.716797" width="16" height="16" fill="#DCDCDC"/>
</mask>
<g mask="url(#mask0_102_1141)">
<path fill-rule="evenodd" clip-rule="evenodd" d="M6.09571 3.31892C5.95323 3.31892 5.83772 3.43443 5.83772 3.57691V5.04359C5.83772 5.39431 5.5534 5.67863 5.20267 5.67863C4.85195 5.67863 4.56763 5.39431 4.56763 5.04359V3.57691C4.56763 2.73297 5.25177 2.04883 6.09571 2.04883H13.8354C14.6793 2.04883 15.3634 2.73297 15.3634 3.57691V11.3166C15.3634 12.1605 14.6793 12.8446 13.8354 12.8446H12.3521C12.0014 12.8446 11.7171 12.5603 11.7171 12.2096C11.7171 11.8589 12.0014 11.5745 12.3521 11.5745H13.8354C13.9778 11.5745 14.0933 11.459 14.0933 11.3166V3.57691C14.0933 3.43443 13.9778 3.31892 13.8354 3.31892H6.09571Z" fill="#E5E5E5"/>
<path fill-rule="evenodd" clip-rule="evenodd" d="M2.0274 6.11719C2.0274 5.27326 2.71155 4.58911 3.55549 4.58911H11.2951C12.1391 4.58911 12.8232 5.27326 12.8232 6.11719V13.8568C12.8232 14.7008 12.1391 15.3849 11.2951 15.3849H3.55549C2.71155 15.3849 2.0274 14.7008 2.0274 13.8568V6.11719ZM3.55549 5.85921C3.41301 5.85921 3.2975 5.97471 3.2975 6.11719V13.8568C3.2975 13.9993 3.41301 14.1148 3.55549 14.1148H11.2951C11.4376 14.1148 11.5531 13.9993 11.5531 13.8568V6.11719C11.5531 5.97471 11.4376 5.85921 11.2951 5.85921H3.55549Z" fill="black"/>
</g>
</svg>
