<svg width="17" height="17" viewBox="0 0 17 17" fill="none" xmlns="http://www.w3.org/2000/svg">
<mask id="mask0_202_61" style="mask-type:alpha" maskUnits="userSpaceOnUse" x="0" y="0" width="17" height="17">
<path d="M16.5542 0.866821H0.554199V16.8668H16.5542V0.866821Z" fill="#D9D9D9"/>
</mask>
<g mask="url(#mask0_202_61)">
<path fill-rule="evenodd" clip-rule="evenodd" d="M2.1543 4.06631C2.1543 3.18265 2.87064 2.46631 3.7543 2.46631H13.3543C14.238 2.46631 14.9543 3.18265 14.9543 4.06631V13.6363C14.9543 14.52 14.238 15.2363 13.3543 15.2363H3.7543C2.87064 15.2363 2.1543 14.52 2.1543 13.6363V4.06631ZM3.7543 3.74631H13.3543C13.531 3.74631 13.6743 3.88958 13.6743 4.06631V5.70004H3.4343V4.06631C3.4343 3.88958 3.57757 3.74631 3.7543 3.74631ZM3.4343 6.98004V13.6363C3.4343 13.813 3.57757 13.9563 3.7543 13.9563H13.3543C13.531 13.9563 13.6743 13.813 13.6743 13.6363V6.98004H3.4343Z" fill="black"/>
<path d="M11.2187 10.2478C10.9932 10.4733 10.6276 10.4733 10.4021 10.2478L10.1699 10.0155L10.1699 12.516C10.1699 12.8349 9.91136 13.0935 9.59245 13.0935C9.27355 13.0935 9.01502 12.8349 9.01502 12.516V8.62155L9.01509 8.6126C9.0161 8.54593 9.02841 8.482 9.05019 8.42265C9.07816 8.34622 9.12281 8.27453 9.18415 8.21319C9.40965 7.98769 9.77526 7.98769 10.0008 8.21319L11.2187 9.43117C11.4442 9.65667 11.4442 10.0223 11.2187 10.2478Z" fill="#E5E5E5"/>
<path d="M7.51611 8.04407C7.83502 8.04407 8.09354 8.30259 8.09354 8.6215V12.516C8.09354 12.6024 8.07457 12.6843 8.04056 12.7579C8.02039 12.8016 7.99448 12.8433 7.96281 12.8819C7.93636 12.9142 7.90648 12.9435 7.87374 12.9694C7.84511 12.992 7.81484 13.0115 7.78337 13.028C7.70346 13.0698 7.61254 13.0934 7.51611 13.0934C7.41967 13.0934 7.32876 13.0698 7.24885 13.028C7.21738 13.0115 7.1871 12.992 7.15848 12.9694C7.1392 12.9541 7.12091 12.9377 7.10373 12.9202L5.88983 11.7063C5.66433 11.4808 5.66433 11.1152 5.88983 10.8897C6.11533 10.6642 6.48094 10.6642 6.70644 10.8897L6.93867 11.1219V8.6215C6.93867 8.30259 7.1972 8.04407 7.51611 8.04407Z" fill="#E5E5E5"/>
</g>
</svg>
