<svg width="16" height="16" viewBox="0 0 16 16" fill="none" xmlns="http://www.w3.org/2000/svg">
<mask id="mask0_202_61" style="mask-type:alpha" maskUnits="userSpaceOnUse" x="0" y="0" width="16" height="16">
<path d="M16 0H0V16H16V0Z" fill="#D9D9D9"/>
</mask>
<g mask="url(#mask0_202_61)">
<path fill-rule="evenodd" clip-rule="evenodd" d="M1.60001 3.19961C1.60001 2.31595 2.31635 1.59961 3.20001 1.59961H12.8C13.6837 1.59961 14.4 2.31595 14.4 3.19961V12.7696C14.4 13.6533 13.6837 14.3696 12.8 14.3696H3.20001C2.31635 14.3696 1.60001 13.6533 1.60001 12.7696V3.19961ZM3.20001 2.87961H12.8C12.9767 2.87961 13.12 3.02288 13.12 3.19961V4.83334H2.88001V3.19961C2.88001 3.02288 3.02327 2.87961 3.20001 2.87961ZM2.88001 6.11334V12.7696C2.88001 12.9463 3.02328 13.0896 3.20001 13.0896H12.8C12.9767 13.0896 13.12 12.9463 13.12 12.7696V6.11334H2.88001Z" fill="black"/>
<path d="M10.6644 9.38096C10.4388 9.60646 10.0732 9.60646 9.84774 9.38096L9.61551 9.14873L9.61551 11.6492C9.61551 11.9681 9.35698 12.2266 9.03807 12.2266C8.71916 12.2266 8.46064 11.9681 8.46064 11.6492V7.75473L8.46071 7.74578C8.46172 7.67911 8.47403 7.61518 8.49581 7.55582C8.52378 7.4794 8.56843 7.4077 8.62976 7.34637C8.85527 7.12087 9.22088 7.12087 9.44638 7.34637L10.6644 8.56434C10.8899 8.78985 10.8899 9.15546 10.6644 9.38096Z" fill="#E5E5E5"/>
<path d="M6.96173 7.17725C7.28063 7.17725 7.53916 7.43577 7.53916 7.75468V11.6492C7.53916 11.7356 7.52018 11.8175 7.48617 11.8911C7.46601 11.9348 7.4401 11.9765 7.40843 12.0151C7.38198 12.0473 7.3521 12.0767 7.31936 12.1025C7.29073 12.1252 7.26046 12.1447 7.22899 12.1611C7.14907 12.2029 7.05816 12.2266 6.96173 12.2266C6.86529 12.2266 6.77438 12.2029 6.69447 12.1611C6.663 12.1447 6.63272 12.1252 6.60409 12.1025C6.58481 12.0873 6.56653 12.0709 6.54935 12.0533L5.33545 10.8394C5.10995 10.6139 5.10995 10.2483 5.33545 10.0228C5.56095 9.79733 5.92656 9.79733 6.15206 10.0228L6.38429 10.2551V7.75468C6.38429 7.43577 6.64282 7.17725 6.96173 7.17725Z" fill="#E5E5E5"/>
</g>
</svg>
