<svg width="16" height="16" viewBox="0 0 16 16" fill="none" xmlns="http://www.w3.org/2000/svg">
<mask id="mask0_102_1006" style="mask-type:alpha" maskUnits="userSpaceOnUse" x="0" y="0" width="16" height="16">
<path d="M16 0H0V16H16V0Z" fill="#D9D9D9"/>
</mask>
<g mask="url(#mask0_102_1006)">
<path fill-rule="evenodd" clip-rule="evenodd" d="M1.6001 3.9999C1.6001 3.11625 2.31644 2.3999 3.2001 2.3999H12.8001C13.6838 2.3999 14.4001 3.11625 14.4001 3.9999V11.9999C14.4001 12.8836 13.6838 13.5999 12.8001 13.5999H3.2001C2.31644 13.5999 1.6001 12.8836 1.6001 11.9999V3.9999ZM3.2001 3.6799H12.8001C12.9768 3.6799 13.1201 3.82317 13.1201 3.9999V5.03779H2.8801V3.9999C2.8801 3.82317 3.02337 3.6799 3.2001 3.6799ZM2.8801 6.31779V11.9999C2.8801 12.1766 3.02337 12.3199 3.2001 12.3199H12.8001C12.9768 12.3199 13.1201 12.1766 13.1201 11.9999V6.31779H2.8801Z" fill="black"/>
<path d="M10.6645 9.00059C10.439 9.22609 10.0734 9.22609 9.84792 9.00059L9.61569 8.76836L9.61569 11.2688C9.61569 11.5877 9.35716 11.8463 9.03826 11.8463C8.71935 11.8463 8.46082 11.5877 8.46082 11.2688V7.37436L8.46089 7.36541C8.4619 7.29874 8.47421 7.23481 8.49599 7.17545C8.52396 7.09903 8.56861 7.02733 8.62995 6.966C8.85545 6.7405 9.22106 6.7405 9.44656 6.966L10.6645 8.18397C10.89 8.40948 10.89 8.77509 10.6645 9.00059Z" fill="#E5E5E5"/>
<path d="M6.96191 6.79688C7.28082 6.79688 7.53934 7.0554 7.53934 7.37431V11.2688C7.53934 11.3552 7.52037 11.4371 7.48636 11.5107C7.46619 11.5544 7.44028 11.5962 7.40861 11.6347C7.38216 11.667 7.35228 11.6963 7.31954 11.7222C7.29092 11.7448 7.26064 11.7643 7.22917 11.7808C7.14926 11.8226 7.05834 11.8462 6.96191 11.8462C6.86548 11.8462 6.77456 11.8226 6.69465 11.7808C6.66318 11.7643 6.6329 11.7448 6.60428 11.7222C6.585 11.7069 6.56671 11.6905 6.54953 11.673L5.33563 10.4591C5.11013 10.2336 5.11013 9.86796 5.33563 9.64246C5.56113 9.41696 5.92674 9.41696 6.15225 9.64246L6.38448 9.87469V7.37431C6.38448 7.0554 6.643 6.79688 6.96191 6.79688Z" fill="#E5E5E5"/>
</g>
</svg>
