<svg width="17" height="17" viewBox="0 0 17 17" fill="none" xmlns="http://www.w3.org/2000/svg">
<mask id="mask0_252_36" style="mask-type:alpha" maskUnits="userSpaceOnUse" x="0" y="0" width="17" height="17">
<rect width="16" height="16" transform="matrix(1 0 0 -1 0.230225 16.2206)" fill="#DCDCDC"/>
</mask>
<g mask="url(#mask0_252_36)">
<path fill-rule="evenodd" clip-rule="evenodd" d="M7.92198 10.7725C7.92198 11.1407 7.6235 11.4392 7.25531 11.4392H3.48495C3.11676 11.4392 2.81829 11.1407 2.81829 10.7725V5.66882C2.81829 5.30062 3.11676 5.00215 3.48495 5.00215H7.25531C7.6235 5.00215 7.92198 5.30062 7.92198 5.66882V10.7725ZM2.81829 12.7151C2.11361 12.7151 1.54236 12.1438 1.54236 11.4392V5.00215C1.54236 4.29749 2.11361 3.72622 2.81829 3.72622H7.92198C8.62663 3.72622 9.19789 4.29749 9.19789 5.00215V11.4392C9.19789 12.1438 8.62663 12.7151 7.92198 12.7151H2.81829Z" fill="black"/>
<path fill-rule="evenodd" clip-rule="evenodd" d="M12.1223 5.76489C12.1975 5.7337 12.28 5.71649 12.3665 5.71649C12.453 5.71649 12.5355 5.7337 12.6107 5.76489C12.6859 5.79603 12.7564 5.84217 12.8176 5.90334L14.7315 7.81723C14.9806 8.06637 14.9806 8.4703 14.7315 8.71944C14.4823 8.96858 14.0784 8.96858 13.8293 8.71944L13.0044 7.89463V10.0865C13.0044 10.4389 12.7188 10.7245 12.3665 10.7245C12.0141 10.7245 11.7285 10.4389 11.7285 10.0865V7.89463L10.9037 8.71944C10.6545 8.96858 10.2506 8.96858 10.0015 8.71944C9.75232 8.4703 9.75232 8.06637 10.0015 7.81723L11.9151 5.90363M7.20329 6.37869C6.92899 6.09711 6.48426 6.09712 6.20997 6.37869L5.40906 7.20084L4.6081 6.37863C4.3338 6.09705 3.88908 6.09705 3.61478 6.37863C3.34048 6.6602 3.34048 7.11673 3.61478 7.3983L4.41574 8.22051L3.6148 9.04271C3.3405 9.32428 3.3405 9.78081 3.6148 10.0624C3.8891 10.344 4.33382 10.344 4.60812 10.0624L5.40906 9.24018L6.20995 10.0623C6.48425 10.3439 6.92898 10.3439 7.20328 10.0623C7.47757 9.78074 7.47757 9.32422 7.20327 9.04265L6.40238 8.22051L7.20329 7.39836C7.47759 7.11679 7.47759 6.66027 7.20329 6.37869Z" fill="#E5E5E5"/>
</g>
</svg>
