<svg width="16" height="16" viewBox="0 0 16 16" fill="none" xmlns="http://www.w3.org/2000/svg">
<mask id="mask0_102_1098" style="mask-type:alpha" maskUnits="userSpaceOnUse" x="0" y="0" width="16" height="16">
<rect width="16" height="16" fill="#DCDCDC"/>
</mask>
<g mask="url(#mask0_102_1098)">
<path fill-rule="evenodd" clip-rule="evenodd" d="M11.9503 1.33317C12.6866 1.33317 13.2836 1.9301 13.2836 2.6665V13.3332C13.2836 14.0695 12.6866 14.6665 11.9503 14.6665H9.28359C8.54721 14.6665 7.95026 14.0696 7.95026 13.3332L7.95026 2.6665C7.95026 1.9301 8.54721 1.33317 9.28359 1.33317H11.9503ZM11.9503 2.6665V13.3332H9.28359V2.6665H11.9503Z" fill="black"/>
<path fill-rule="evenodd" clip-rule="evenodd" d="M3.8542 6.29716C3.59385 6.03681 3.17174 6.03681 2.91139 6.29716C2.65104 6.55751 2.65104 6.97962 2.91139 7.23997L3.67157 8.00014L2.9114 8.76031C2.65105 9.02066 2.65105 9.44277 2.9114 9.70312C3.17175 9.96347 3.59387 9.96347 3.85421 9.70312L4.61437 8.94296L5.37459 9.70318C5.63494 9.96352 6.05705 9.96353 6.31741 9.70318C6.57775 9.44283 6.57775 9.02072 6.31741 8.76036L5.55718 8.00014L6.31742 7.23991C6.57777 6.97956 6.57777 6.55745 6.31742 6.2971C6.05707 6.03675 5.63496 6.03675 5.37461 6.2971L4.61437 7.05734L3.8542 6.29716Z" fill="#E5E5E5"/>
</g>
</svg>
