<svg width="16" height="16" viewBox="0 0 16 16" fill="none" xmlns="http://www.w3.org/2000/svg">
<mask id="mask0_252_36" style="mask-type:alpha" maskUnits="userSpaceOnUse" x="0" y="0" width="16" height="16">
<rect width="16" height="16" transform="matrix(1 0 0 -1 0 16)" fill="#DCDCDC"/>
</mask>
<g mask="url(#mask0_252_36)">
<path fill-rule="evenodd" clip-rule="evenodd" d="M7.69172 10.552C7.69172 10.9202 7.39324 11.2187 7.02506 11.2187H3.2547C2.8865 11.2187 2.58803 10.9202 2.58803 10.552V5.44836C2.58803 5.08016 2.8865 4.7817 3.2547 4.7817H7.02506C7.39324 4.7817 7.69172 5.08016 7.69172 5.44836V10.552ZM2.58803 12.4946C1.88335 12.4946 1.3121 11.9234 1.3121 11.2187V4.7817C1.3121 4.07703 1.88335 3.50576 2.58803 3.50576H7.69172C8.39637 3.50576 8.96764 4.07703 8.96764 4.7817V11.2187C8.96764 11.9234 8.39637 12.4946 7.69172 12.4946H2.58803Z" fill="black"/>
<path fill-rule="evenodd" clip-rule="evenodd" d="M11.892 5.54431C11.9672 5.51312 12.0497 5.49591 12.1362 5.49591C12.2227 5.49591 12.3052 5.51312 12.3804 5.54431C12.4557 5.57545 12.5261 5.62159 12.5873 5.68276L14.5012 7.59665C14.7503 7.84579 14.7503 8.24972 14.5012 8.49886C14.2521 8.748 13.8481 8.748 13.599 8.49886L12.7741 7.67405V9.86594C12.7741 10.2183 12.4885 10.5039 12.1362 10.5039C11.7839 10.5039 11.4983 10.2183 11.4983 9.86594V7.67405L10.6734 8.49886C10.4243 8.748 10.0203 8.748 9.77121 8.49886C9.52207 8.24972 9.52207 7.84579 9.77121 7.59665L11.6848 5.68305M6.97304 6.15811C6.69874 5.87653 6.25401 5.87654 5.97972 6.15811L5.17881 6.98026L4.37784 6.15805C4.10355 5.87647 3.65882 5.87647 3.38453 6.15805C3.11023 6.43962 3.11023 6.89615 3.38453 7.17772L4.18549 7.99993L3.38454 8.82213C3.11024 9.1037 3.11024 9.56023 3.38454 9.8418C3.65884 10.1234 4.10356 10.1234 4.37786 9.8418L5.17881 9.0196L5.9797 9.84174C6.254 10.1233 6.69872 10.1233 6.97302 9.84174C7.24732 9.56016 7.24732 9.10364 6.97302 8.82207L6.17213 7.99993L6.97304 7.17778C7.24734 6.89621 7.24734 6.43969 6.97304 6.15811Z" fill="#E5E5E5"/>
</g>
</svg>
