<svg width="17" height="17" viewBox="0 0 17 17" fill="none" xmlns="http://www.w3.org/2000/svg">
<mask id="mask0_252_31" style="mask-type:alpha" maskUnits="userSpaceOnUse" x="0" y="0" width="17" height="17">
<rect x="16.3132" y="16.2206" width="16" height="16" transform="rotate(180 16.3132 16.2206)" fill="#DCDCDC"/>
</mask>
<g mask="url(#mask0_252_31)">
<path fill-rule="evenodd" clip-rule="evenodd" d="M8.60329 10.7725C8.60329 11.1407 8.90177 11.4392 9.26996 11.4392L13.0403 11.4392C13.4085 11.4392 13.707 11.1407 13.707 10.7725L13.707 5.66882C13.707 5.30062 13.4085 5.00215 13.0403 5.00215L9.26996 5.00215C8.90177 5.00215 8.60329 5.30062 8.60329 5.66882L8.60329 10.7725ZM13.707 12.7151C14.4117 12.7151 14.9829 12.1438 14.9829 11.4392L14.9829 5.00215C14.9829 4.29749 14.4117 3.72622 13.707 3.72622L8.60329 3.72622C7.89864 3.72622 7.32738 4.29749 7.32738 5.00216L7.32738 11.4392C7.32738 12.1438 7.89864 12.7151 8.60329 12.7151L13.707 12.7151Z" fill="black"/>
<path fill-rule="evenodd" clip-rule="evenodd" d="M1.69213 7.97654C1.66093 8.05176 1.64367 8.13424 1.64367 8.22074C1.64367 8.30724 1.66093 8.38972 1.69213 8.46494C1.72327 8.54018 1.7694 8.61068 1.83053 8.67184L3.74447 10.5857C3.9936 10.8349 4.39753 10.8349 4.64667 10.5857C4.8958 10.3366 4.8958 9.93266 4.64667 9.68352L3.82187 8.8587L6.01373 8.8587C6.36607 8.8587 6.65169 8.57307 6.65169 8.22074C6.65169 7.8684 6.36607 7.58278 6.01373 7.58278L3.82187 7.58278L4.64667 6.75796C4.8958 6.50882 4.8958 6.10488 4.64667 5.85574C4.39753 5.6066 3.9936 5.6066 3.74447 5.85574L1.83087 7.76933M9.3221 6.37892C9.5964 6.09734 10.0411 6.09734 10.3154 6.37892L11.1163 7.20107L11.9173 6.37886C12.1916 6.09728 12.6363 6.09728 12.9106 6.37886C13.1849 6.66043 13.1849 7.11695 12.9106 7.39853L12.1096 8.22074L12.9106 9.04294C13.1849 9.32451 13.1849 9.78103 12.9106 10.0626C12.6363 10.3442 12.1916 10.3442 11.9173 10.0626L11.1163 9.24041L10.3154 10.0625C10.0411 10.3441 9.59641 10.3441 9.32211 10.0625C9.04782 9.78097 9.04782 9.32445 9.32212 9.04288L10.123 8.22074L9.3221 7.39859C9.0478 7.11702 9.0478 6.6605 9.3221 6.37892Z" fill="#E5E5E5"/>
</g>
</svg>
