<svg width="17" height="17" viewBox="0 0 17 17" fill="none" xmlns="http://www.w3.org/2000/svg">
<mask id="mask0_102_1103" style="mask-type:alpha" maskUnits="userSpaceOnUse" x="0" y="0" width="17" height="17">
<rect x="0.479248" y="0.716797" width="16" height="16" fill="#DCDCDC"/>
</mask>
<g mask="url(#mask0_102_1103)">
<path fill-rule="evenodd" clip-rule="evenodd" d="M15.146 12.667C15.146 13.4034 14.549 14.0003 13.8126 14.0003H3.14596C2.40958 14.0003 1.81262 13.4034 1.81262 12.667V10.0003C1.81262 9.26395 2.40957 8.66699 3.14596 8.66699L13.8126 8.66699C14.549 8.66699 15.146 9.26395 15.146 10.0003V12.667ZM13.8126 12.667H3.14596V10.0003H13.8126V12.667Z" fill="black"/>
<path fill-rule="evenodd" clip-rule="evenodd" d="M10.0807 4.57118C10.341 4.31083 10.341 3.88872 10.0807 3.62837C9.8203 3.36802 9.39819 3.36802 9.13784 3.62837L8.37766 4.38855L7.6175 3.62838C7.35715 3.36803 6.93504 3.36803 6.67469 3.62838C6.41434 3.88873 6.41434 4.31085 6.67469 4.57119L7.43485 5.33135L6.67463 6.09157C6.41428 6.35193 6.41428 6.77403 6.67463 7.03439C6.93498 7.29473 7.35709 7.29473 7.61744 7.03439L8.37766 6.27417L9.1379 7.0344C9.39824 7.29475 9.82036 7.29475 10.0807 7.0344C10.3411 6.77405 10.3411 6.35194 10.0807 6.09159L9.32047 5.33135L10.0807 4.57118Z" fill="#E5E5E5"/>
</g>
</svg>
