<svg width="17" height="17" viewBox="0 0 17 17" fill="none" xmlns="http://www.w3.org/2000/svg">
<mask id="mask0_102_1093" style="mask-type:alpha" maskUnits="userSpaceOnUse" x="0" y="0" width="17" height="17">
<rect x="0.230225" y="0.716797" width="16" height="16" fill="#DCDCDC"/>
</mask>
<g mask="url(#mask0_102_1093)">
<path fill-rule="evenodd" clip-rule="evenodd" d="M7.92173 6.16476C7.92173 5.79657 7.62325 5.49809 7.25507 5.49809H3.48471C3.11651 5.49809 2.81804 5.79657 2.81804 6.16476V11.2684C2.81804 11.6366 3.11651 11.9351 3.48471 11.9351H7.25507C7.62325 11.9351 7.92173 11.6366 7.92173 11.2684V6.16476ZM2.81804 4.22217C2.11336 4.22217 1.54211 4.79342 1.54211 5.49809V11.9351C1.54211 12.6398 2.11336 13.211 2.81804 13.211H7.92173C8.62638 13.211 9.19765 12.6398 9.19765 11.9351V5.49809C9.19765 4.79342 8.62638 4.22217 7.92173 4.22217H2.81804Z" fill="black"/>
<path fill-rule="evenodd" clip-rule="evenodd" d="M12.1221 11.1725C12.1973 11.2037 12.2799 11.2209 12.3663 11.2209C12.4529 11.2209 12.5353 11.2037 12.6105 11.1725C12.6858 11.1414 12.7563 11.0952 12.8175 11.034L14.7313 9.12015C14.9805 8.87101 14.9805 8.46708 14.7313 8.21794C14.4822 7.9688 14.0783 7.9688 13.8291 8.21794L13.0043 9.04275V6.85085C13.0043 6.49852 12.7187 6.21289 12.3663 6.21289C12.014 6.21289 11.7284 6.49852 11.7284 6.85085V9.04275L10.9035 8.21794C10.6544 7.9688 10.2505 7.9688 10.0013 8.21794C9.7522 8.46708 9.7522 8.87101 10.0013 9.12015L11.9149 11.0337M7.20317 10.5587C6.92887 10.8403 6.48414 10.8403 6.20985 10.5587L5.40894 9.73654L4.60798 10.5588C4.33368 10.8403 3.88896 10.8403 3.61466 10.5588C3.34036 10.2772 3.34036 9.82065 3.61466 9.53908L4.41562 8.71686L3.61468 7.89467C3.34038 7.6131 3.34038 7.15657 3.61468 6.875C3.88897 6.59342 4.3337 6.59343 4.608 6.875L5.40894 7.6972L6.20983 6.87506C6.48413 6.59349 6.92886 6.59349 7.20316 6.87506C7.47745 7.15664 7.47745 7.61316 7.20315 7.89473L6.40226 8.71686L7.20317 9.53902C7.47747 9.82059 7.47747 10.2771 7.20317 10.5587Z" fill="#E5E5E5"/>
</g>
</svg>
