<svg width="16" height="16" viewBox="0 0 16 16" fill="none" xmlns="http://www.w3.org/2000/svg">
<mask id="mask0_102_1103" style="mask-type:alpha" maskUnits="userSpaceOnUse" x="0" y="0" width="16" height="16">
<rect width="16" height="16" fill="#DCDCDC"/>
</mask>
<g mask="url(#mask0_102_1103)">
<path fill-rule="evenodd" clip-rule="evenodd" d="M14.6666 11.9502C14.6666 12.6866 14.0697 13.2835 13.3333 13.2835H2.66665C1.93027 13.2835 1.33331 12.6866 1.33331 11.9502V9.28353C1.33331 8.54715 1.93027 7.9502 2.66665 7.9502L13.3333 7.9502C14.0697 7.9502 14.6666 8.54715 14.6666 9.28353V11.9502ZM13.3333 11.9502H2.66665V9.28353H13.3333V11.9502Z" fill="black"/>
<path fill-rule="evenodd" clip-rule="evenodd" d="M9.60134 3.85438C9.86169 3.59403 9.86169 3.17192 9.60134 2.91157C9.34099 2.65122 8.91888 2.65122 8.65853 2.91157L7.89835 3.67175L7.13819 2.91159C6.87784 2.65124 6.45573 2.65124 6.19538 2.91159C5.93503 3.17194 5.93503 3.59405 6.19538 3.8544L6.95554 4.61456L6.19532 5.37478C5.93497 5.63513 5.93497 6.05724 6.19532 6.31759C6.45567 6.57794 6.87778 6.57794 7.13813 6.31759L7.89835 5.55737L8.65859 6.3176C8.91893 6.57796 9.34105 6.57796 9.60139 6.3176C9.86175 6.05726 9.86175 5.63514 9.60139 5.3748L8.84116 4.61456L9.60134 3.85438Z" fill="#E5E5E5"/>
</g>
</svg>
