<svg width="17" height="17" viewBox="0 0 17 17" fill="none" xmlns="http://www.w3.org/2000/svg">
<mask id="mask0_102_1098" style="mask-type:alpha" maskUnits="userSpaceOnUse" x="0" y="0" width="17" height="17">
<rect x="0.39624" y="0.716797" width="16" height="16" fill="#DCDCDC"/>
</mask>
<g mask="url(#mask0_102_1098)">
<path fill-rule="evenodd" clip-rule="evenodd" d="M12.3466 2.04997C13.0829 2.04997 13.6799 2.6469 13.6799 3.3833V14.05C13.6799 14.7863 13.0829 15.3833 12.3466 15.3833H9.67989C8.94351 15.3833 8.34656 14.7863 8.34656 14.05L8.34656 3.3833C8.34656 2.6469 8.94351 2.04997 9.67989 2.04997H12.3466ZM12.3466 3.3833V14.05H9.67989V3.3833H12.3466Z" fill="black"/>
<path fill-rule="evenodd" clip-rule="evenodd" d="M4.2505 7.01395C3.99015 6.75361 3.56804 6.75361 3.30769 7.01395C3.04734 7.27431 3.04734 7.69641 3.30769 7.95677L4.06787 8.71694L3.3077 9.47711C3.04736 9.73745 3.04735 10.1596 3.3077 10.4199C3.56805 10.6803 3.99017 10.6803 4.25051 10.4199L5.01067 9.65975L5.77089 10.42C6.03125 10.6803 6.45335 10.6803 6.71371 10.42C6.97405 10.1596 6.97405 9.73751 6.71371 9.47716L5.95349 8.71694L6.71372 7.95671C6.97407 7.69636 6.97407 7.27425 6.71372 7.0139C6.45337 6.75355 6.03126 6.75355 5.77091 7.0139L5.01067 7.77413L4.2505 7.01395Z" fill="#E5E5E5"/>
</g>
</svg>
