<svg width="17" height="17" viewBox="0 0 17 17" fill="none" xmlns="http://www.w3.org/2000/svg">
<mask id="mask0_102_1088" style="mask-type:alpha" maskUnits="userSpaceOnUse" x="0" y="0" width="17" height="17">
<rect x="0.313232" y="0.716797" width="16" height="16" fill="#DCDCDC"/>
</mask>
<g mask="url(#mask0_102_1088)">
<path fill-rule="evenodd" clip-rule="evenodd" d="M8.02305 6.16476C8.02305 5.79657 7.72457 5.49809 7.35639 5.49809H3.58603C3.21783 5.49809 2.91936 5.79657 2.91936 6.16476V11.2684C2.91936 11.6366 3.21783 11.9351 3.58603 11.9351H7.35639C7.72457 11.9351 8.02305 11.6366 8.02305 11.2684V6.16476ZM2.91936 4.22217C2.21468 4.22217 1.64343 4.79342 1.64343 5.49809V11.9351C1.64343 12.6398 2.21468 13.211 2.91936 13.211H8.02305C8.7277 13.211 9.29897 12.6398 9.29897 11.9351V5.49809C9.29897 4.79342 8.7277 4.22217 8.02305 4.22217H2.91936Z" fill="black"/>
<path fill-rule="evenodd" clip-rule="evenodd" d="M14.9342 8.9606C14.9654 8.88538 14.9827 8.8029 14.9827 8.7164C14.9827 8.6299 14.9654 8.54742 14.9342 8.4722C14.9031 8.39695 14.8569 8.32646 14.7958 8.26529L12.8819 6.35141C12.6327 6.10227 12.2288 6.10227 11.9797 6.35141C11.7305 6.60054 11.7305 7.00448 11.9797 7.25362L12.8045 8.07844H10.6126C10.2603 8.07844 9.97465 8.36406 9.97465 8.7164C9.97465 9.06874 10.2603 9.35436 10.6126 9.35436H12.8045L11.9797 10.1792C11.7305 10.4283 11.7305 10.8323 11.9797 11.0814C12.2288 11.3305 12.6327 11.3305 12.8819 11.0814L14.7955 9.1678M7.30424 10.5582C7.02994 10.8398 6.58522 10.8398 6.31092 10.5582L5.51002 9.73606L4.70905 10.5583C4.43476 10.8399 3.99003 10.8399 3.71573 10.5583C3.44144 10.2767 3.44144 9.82018 3.71573 9.5386L4.5167 8.71639L3.71575 7.8942C3.44145 7.61262 3.44145 7.1561 3.71575 6.87452C3.99005 6.59295 4.43477 6.59295 4.70907 6.87452L5.51002 7.69672L6.3109 6.87459C6.5852 6.59301 7.02993 6.59301 7.30423 6.87459C7.57852 7.15616 7.57852 7.61268 7.30422 7.89426L6.50334 8.71639L7.30424 9.53854C7.57854 9.82012 7.57854 10.2766 7.30424 10.5582Z" fill="#E5E5E5"/>
</g>
</svg>
