<svg width="17" height="17" viewBox="0 0 17 17" fill="none" xmlns="http://www.w3.org/2000/svg">
<mask id="mask0_102_1078" style="mask-type:alpha" maskUnits="userSpaceOnUse" x="0" y="0" width="17" height="17">
<rect x="0.064209" y="0.716797" width="16" height="16" fill="#DCDCDC"/>
</mask>
<g mask="url(#mask0_102_1078)">
<path fill-rule="evenodd" clip-rule="evenodd" d="M6.92017 13.5374C6.92017 13.8954 7.21034 14.1855 7.56828 14.1855H14.0494C14.4074 14.1855 14.6976 13.8954 14.6976 13.5374C14.6976 13.1795 14.4074 12.8893 14.0494 12.8893H7.56828C7.21034 12.8893 6.92017 13.1795 6.92017 13.5374ZM6.92017 10.2969C6.92017 10.6548 7.21034 10.945 7.56828 10.945H12.7532C13.1111 10.945 13.4013 10.6548 13.4013 10.2969C13.4013 9.93892 13.1111 9.64875 12.7532 9.64875H7.56828C7.21034 9.64875 6.92017 9.93892 6.92017 10.2969ZM6.92017 7.05628C6.92017 7.41421 7.21034 7.70441 7.56828 7.70441H11.457C11.8149 7.70441 12.1051 7.41421 12.1051 7.05628C12.1051 6.69835 11.8149 6.40815 11.457 6.40815H7.56828C7.21034 6.40815 6.92017 6.69835 6.92017 7.05628ZM6.92017 3.81575C6.92017 4.17368 7.21034 4.46381 7.56828 4.46381H10.1607C10.5187 4.46381 10.8089 4.17368 10.8089 3.81575C10.8089 3.45775 10.5187 3.16761 10.1607 3.16761H7.56828C7.21034 3.16761 6.92017 3.45775 6.92017 3.81575Z" fill="black"/>
<path fill-rule="evenodd" clip-rule="evenodd" d="M5.36647 3.20768C5.36647 2.84974 5.07629 2.55957 4.71835 2.55957C4.36041 2.55957 4.07024 2.84974 4.07024 3.20768V12.7079L2.53719 11.1749C2.28408 10.9218 1.87372 10.9218 1.62061 11.1749C1.36751 11.428 1.36751 11.8384 1.62061 12.0914L4.21307 14.6839C4.34558 14.8164 4.5212 14.8796 4.69479 14.8733C4.70261 14.8736 4.71046 14.8738 4.71835 14.8738C5.07629 14.8738 5.36647 14.5836 5.36647 14.2256V3.20768Z" fill="#E5E5E5"/>
</g>
</svg>
