<svg width="17" height="17" viewBox="0 0 17 17" fill="none" xmlns="http://www.w3.org/2000/svg">
<mask id="mask0_102_986" style="mask-type:alpha" maskUnits="userSpaceOnUse" x="0" y="0" width="17" height="17">
<rect x="0.225586" y="0.64502" width="16" height="16" fill="#D9D9D9"/>
</mask>
<g mask="url(#mask0_102_986)">
<path fill-rule="evenodd" clip-rule="evenodd" d="M2.43153 3.54567C2.11346 3.54567 1.85561 3.27246 1.85561 2.93544C1.85561 2.59841 2.11346 2.3252 2.43153 2.3252H7.03888C7.27182 2.3252 7.48182 2.47388 7.57096 2.70191C7.66011 2.92994 7.61083 3.19241 7.44612 3.36694L3.82192 7.20711H7.03888C7.35696 7.20711 7.6148 7.48033 7.6148 7.81735C7.6148 8.15438 7.35696 8.42759 7.03888 8.42759H2.43153C2.19859 8.42759 1.98859 8.27891 1.89945 8.05088C1.81031 7.82285 1.85958 7.56038 2.02429 7.38585L5.64849 3.54567H2.43153Z" fill="#E5E5E5"/>
<path d="M11.4884 2.3252C11.8317 2.3252 12.1099 2.59841 12.1099 2.93544V12.8814L13.5349 11.4822C13.7776 11.2439 14.1711 11.2439 14.4138 11.4822C14.6565 11.7205 14.6565 12.1069 14.4138 12.3452L11.9279 14.7862C11.6852 15.0245 11.2917 15.0245 11.049 14.7862L8.5631 12.3452C8.3204 12.1069 8.3204 11.7205 8.5631 11.4822C8.8058 11.2439 9.19929 11.2439 9.44199 11.4822L10.867 12.8814V2.93544C10.867 2.59841 11.1452 2.3252 11.4884 2.3252Z" fill="black"/>
<path fill-rule="evenodd" clip-rule="evenodd" d="M5.05727 8.86272C5.29267 8.8659 5.50602 8.99942 5.60837 9.2076L8.00853 14.0895C8.15775 14.393 8.02814 14.7578 7.71905 14.9044C7.40995 15.0509 7.03841 14.9236 6.88919 14.6201L6.23365 13.2867C6.22446 13.2871 6.21521 13.2873 6.20592 13.2873H3.73907L3.02908 14.6352C2.87139 14.9345 2.49641 15.0517 2.19155 14.8968C1.88669 14.742 1.76738 14.3738 1.92507 14.0745L4.4967 9.19254C4.60485 8.98722 4.82188 8.85953 5.05727 8.86272ZM5.02953 10.8376L5.6339 12.0669H4.38197L5.02953 10.8376Z" fill="black"/>
</g>
</svg>
