<svg width="17" height="17" viewBox="0 0 17 17" fill="none" xmlns="http://www.w3.org/2000/svg">
<mask id="mask0_102_1021" style="mask-type:alpha" maskUnits="userSpaceOnUse" x="0" y="0" width="17" height="17">
<rect x="0.219482" y="0.64502" width="16" height="16" fill="#D9D9D9"/>
</mask>
<g mask="url(#mask0_102_1021)">
<path d="M11.4824 2.3252C11.8256 2.3252 12.1038 2.59841 12.1038 2.93544V12.8816L13.5288 11.4823C13.7715 11.244 14.165 11.244 14.4077 11.4823C14.6504 11.7206 14.6504 12.107 14.4077 12.3453L11.9218 14.7863C11.6791 15.0247 11.2856 15.0247 11.0429 14.7863L8.55701 12.3453C8.31431 12.107 8.31431 11.7206 8.55701 11.4823C8.79971 11.244 9.1932 11.244 9.4359 11.4823L10.8609 12.8816V2.93544C10.8609 2.59841 11.1391 2.3252 11.4824 2.3252Z" fill="black"/>
<path d="M1.84951 9.47298C1.84951 9.81001 2.12775 10.0832 2.47098 10.0832H5.9424L2.03153 13.9234C1.85379 14.098 1.80062 14.3604 1.89681 14.5885C1.993 14.8165 2.21962 14.9652 2.47098 14.9652H7.44277C7.786 14.9652 8.06424 14.692 8.06424 14.3549C8.06424 14.0179 7.786 13.7447 7.44277 13.7447H3.97135L7.88222 9.90449C8.05996 9.72996 8.11313 9.46748 8.01694 9.23945C7.92074 9.01141 7.69413 8.86273 7.44277 8.86273H2.47098C2.12775 8.86273 1.84951 9.13595 1.84951 9.47298Z" fill="black"/>
<path fill-rule="evenodd" clip-rule="evenodd" d="M5.60227 2.67014C5.49992 2.46196 5.28657 2.32844 5.05117 2.32525C4.81577 2.32206 4.59875 2.44976 4.49059 2.65508L1.91896 7.53705C1.76128 7.83641 1.88058 8.20461 2.18545 8.35945C2.49031 8.51429 2.86528 8.39713 3.02297 8.09778L3.72692 6.7614H6.19981C6.21096 6.7614 6.22205 6.76111 6.23306 6.76054L6.88309 8.08272C7.03231 8.38623 7.40385 8.5135 7.71294 8.36697C8.02204 8.22045 8.15165 7.85563 8.00243 7.55211L5.60227 2.67014ZM5.63344 5.54091L5.02342 4.30013L4.36983 5.54091H5.63344Z" fill="#E5E5E5"/>
</g>
</svg>
