<svg width="17" height="17" viewBox="0 0 17 17" fill="none" xmlns="http://www.w3.org/2000/svg">
<mask id="mask0_102_1151" style="mask-type:alpha" maskUnits="userSpaceOnUse" x="0" y="0" width="17" height="17">
<rect x="0.183594" y="0.64502" width="16" height="16" fill="#D9D9D9"/>
</mask>
<g mask="url(#mask0_102_1151)">
<path fill-rule="evenodd" clip-rule="evenodd" d="M8.19879 5.56037C7.83419 5.56037 7.47414 5.60909 7.12116 5.69671C6.7898 5.77897 6.45449 5.57703 6.37223 5.24567C6.28997 4.9143 6.49191 4.579 6.82327 4.49674C7.2632 4.38753 7.7235 4.32397 8.19879 4.32397C10.1211 4.32397 11.8061 5.36053 12.9646 6.32082C13.5527 6.80824 14.027 7.29424 14.3546 7.65836C14.5187 7.84082 14.6469 7.99372 14.7351 8.10232C14.7792 8.15665 14.8134 8.19997 14.8371 8.23045C14.8489 8.2457 14.8581 8.25774 14.8647 8.26635L14.8725 8.27666L14.8749 8.27984L14.8757 8.28092C14.8757 8.28092 14.8762 8.28166 14.3808 8.65137C14.8762 9.02109 14.8761 9.02124 14.8761 9.02124L14.8757 9.02183L14.8749 9.02291L14.8725 9.02609L14.8647 9.0364C14.8581 9.04501 14.8489 9.05705 14.8371 9.07229C14.8134 9.10277 14.7792 9.1461 14.7351 9.20042C14.6469 9.30902 14.5187 9.46193 14.3546 9.64439C14.027 10.0085 13.5527 10.4945 12.9646 10.9819C12.7018 11.1998 12.312 11.1633 12.0942 10.9005C11.8763 10.6376 11.9127 10.2479 12.1756 10.03C12.7063 9.59013 13.1373 9.14883 13.4354 8.81748C13.4887 8.75824 13.5376 8.70265 13.5819 8.65137C13.5376 8.60009 13.4887 8.5445 13.4354 8.48526C13.1373 8.15391 12.7063 7.71261 12.1756 7.27273C11.0967 6.37842 9.69068 5.56037 8.19879 5.56037ZM14.3808 8.65137L14.8761 9.02124C15.0398 8.80193 15.0399 8.50097 14.8762 8.28166L14.3808 8.65137ZM4.30341 6.40226C4.52129 6.66512 4.48483 7.05484 4.22197 7.27272C3.69128 7.71261 3.26029 8.15391 2.9622 8.48526C2.90891 8.5445 2.85999 8.60009 2.81563 8.65137C2.85999 8.70266 2.90891 8.75824 2.9622 8.81748C3.26028 9.14884 3.69128 9.59014 4.22197 10.03C5.30088 10.9243 6.70689 11.7424 8.19879 11.7424C8.56643 11.7424 8.92941 11.6929 9.28516 11.6039C9.61638 11.521 9.95205 11.7223 10.0349 12.0536C10.1178 12.3848 9.91643 12.7204 9.58521 12.8033C9.142 12.9142 8.67802 12.9788 8.19879 12.9788C6.27646 12.9788 4.59147 11.9422 3.43294 10.9819C2.84491 10.4945 2.37057 10.0085 2.04301 9.64439C1.87887 9.46193 1.75064 9.30902 1.66246 9.20042C1.61835 9.14609 1.5842 9.10277 1.56052 9.07229C1.54867 9.05705 1.53945 9.04501 1.53289 9.0364L1.52508 9.02608L1.52269 9.02291L1.52188 9.02183C1.52188 9.02183 1.52133 9.02108 2.01679 8.65137C1.52133 8.28166 1.52144 8.28151 1.52144 8.28151L1.52269 8.27983L1.52508 8.27666L1.53289 8.26635C1.53945 8.25774 1.54867 8.2457 1.56052 8.23045C1.5842 8.19997 1.61835 8.15665 1.66246 8.10232C1.75064 7.99372 1.87887 7.84082 2.04301 7.65836C2.37057 7.29424 2.84491 6.80824 3.43294 6.32082C3.6958 6.10294 4.08552 6.1394 4.30341 6.40226ZM2.01679 8.65137L1.52144 8.28151C1.35779 8.50082 1.35823 8.80252 1.52188 9.02183L2.01679 8.65137Z" fill="black"/>
<path fill-rule="evenodd" clip-rule="evenodd" d="M4.06119 3.63932C3.81977 3.3979 3.42835 3.3979 3.18693 3.63932C2.9455 3.88074 2.9455 4.27216 3.18693 4.51358L6.29536 7.62202C6.12957 7.92817 6.03522 8.279 6.03522 8.65125C6.03522 9.84622 7.00395 10.8149 8.19892 10.8149C8.57125 10.8149 8.92203 10.7206 9.22813 10.5548L12.2932 13.6199C12.5346 13.8613 12.926 13.8613 13.1675 13.6199C13.4089 13.3784 13.4089 12.987 13.1675 12.7456L4.06119 3.63932ZM8.25049 9.57715L7.27302 8.59968C7.27209 8.61674 7.27162 8.63394 7.27162 8.65125C7.27162 9.16337 7.68679 9.57855 8.19892 9.57855C8.21623 9.57855 8.23342 9.57808 8.25049 9.57715Z" fill="#E5E5E5"/>
</g>
</svg>
