<svg width="16" height="16" viewBox="0 0 16 16" fill="none" xmlns="http://www.w3.org/2000/svg">
<path d="M7.39469 14.3896C6.32271 14.3896 5.26794 14.1201 4.32735 13.6058C3.38676 13.0916 2.59052 12.3492 2.01184 11.4468C1.43316 10.5445 1.0906 9.5111 1.01565 8.44174C0.940703 7.37239 1.13577 6.30134 1.58293 5.32708C2.03008 4.35281 2.71497 3.50658 3.57464 2.86618C4.43431 2.22578 5.44116 1.81176 6.50266 1.66218C7.56415 1.51259 8.64621 1.63225 9.64938 2.01014C10.6525 2.38803 11.5446 3.01204 12.2436 3.82479C12.2935 3.88282 12.3316 3.95012 12.3555 4.02285C12.3794 4.09558 12.3888 4.17231 12.3831 4.24866C12.3774 4.32501 12.3567 4.39949 12.3222 4.46784C12.2877 4.53619 12.2401 4.59708 12.182 4.64703C12.124 4.69697 12.0567 4.735 11.984 4.75894C11.9112 4.78287 11.8345 4.79225 11.7582 4.78653C11.6818 4.78082 11.6073 4.76012 11.539 4.72562C11.4706 4.69112 11.4097 4.64349 11.3598 4.58546C10.6521 3.76263 9.70595 3.1804 8.65249 2.91952C7.59903 2.65865 6.4905 2.73205 5.48064 3.12955C4.47077 3.52706 3.60963 4.22896 3.01664 5.13792C2.42366 6.04687 2.12821 7.11783 2.17129 8.20226C2.21436 9.28668 2.59382 10.3308 3.25704 11.1899C3.92025 12.0489 4.83436 12.6803 5.87257 12.9965C6.91078 13.3126 8.02164 13.2979 9.05109 12.9543C10.0805 12.6107 10.9776 11.9552 11.6177 11.0788C11.6619 11.0146 11.7185 10.9598 11.7842 10.9178C11.8499 10.8758 11.9234 10.8475 12.0003 10.8344C12.0771 10.8213 12.1558 10.8238 12.2317 10.8416C12.3076 10.8595 12.3792 10.8925 12.4421 10.9385C12.5051 10.9845 12.5582 11.0427 12.5982 11.1096C12.6383 11.1765 12.6645 11.2508 12.6753 11.328C12.6862 11.4052 12.6814 11.4838 12.6613 11.5592C12.6412 11.6345 12.6062 11.7051 12.5584 11.7666C11.9634 12.5779 11.1861 13.2379 10.2891 13.6935C9.39218 14.1492 8.40072 14.3876 7.39469 14.3896Z" fill="black"/>
<path d="M8.04244 11.2118C7.95514 11.2118 7.8689 11.1927 7.78979 11.1558C7.71068 11.1189 7.64062 11.0651 7.58453 10.9982L6.1794 9.3234C6.08938 9.2152 6.04044 9.0787 6.04121 8.93795L6.05764 5.37397C6.05764 5.21548 6.1206 5.06348 6.23268 4.9514C6.34475 4.83933 6.49675 4.77637 6.65525 4.77637C6.81374 4.77637 6.96575 4.83933 7.07782 4.9514C7.18989 5.06348 7.25285 5.21548 7.25285 5.37397L7.23642 8.7258L8.5011 10.231C8.57441 10.3182 8.62129 10.4244 8.63623 10.5373C8.65118 10.6502 8.63355 10.765 8.58544 10.8682C8.53733 10.9714 8.46073 11.0587 8.36466 11.1199C8.2686 11.181 8.15706 11.2134 8.04319 11.2133L8.04244 11.2118ZM13.6995 7.41779H9.66046C9.50198 7.41776 9.35 7.35479 9.23795 7.24272C9.1259 7.13065 9.06295 6.97866 9.06295 6.82018C9.06295 6.6617 9.1259 6.50971 9.23795 6.39764C9.35 6.28557 9.50198 6.2226 9.66046 6.22257H13.6995C13.858 6.2226 14.01 6.28557 14.122 6.39764C14.2341 6.50971 14.297 6.6617 14.297 6.82018C14.297 6.97866 14.2341 7.13065 14.122 7.24272C14.01 7.35479 13.858 7.41776 13.6995 7.41779ZM12.3908 10.0921H9.80164C9.64315 10.0921 9.49115 10.0291 9.37907 9.91704C9.267 9.80497 9.20404 9.65296 9.20404 9.49447C9.20404 9.33597 9.267 9.18397 9.37907 9.0719C9.49115 8.95982 9.64315 8.89686 9.80164 8.89686H12.3908C12.5493 8.89686 12.7013 8.95982 12.8133 9.0719C12.9254 9.18397 12.9884 9.33597 12.9884 9.49447C12.9884 9.65296 12.9254 9.80497 12.8133 9.91704C12.7013 10.0291 12.5493 10.0921 12.3908 10.0921Z" fill="#E5E5E5"/>
</svg>
