<svg width="17" height="17" viewBox="0 0 17 17" fill="none" xmlns="http://www.w3.org/2000/svg">
<path d="M7.63248 15.0347C6.5605 15.0346 5.50574 14.7651 4.56514 14.2509C3.62455 13.7366 2.82832 12.9942 2.24963 12.0918C1.67095 11.1895 1.32839 10.1561 1.25344 9.08676C1.1785 8.01741 1.37356 6.94636 1.82072 5.9721C2.26787 4.99783 2.95276 4.1516 3.81243 3.5112C4.6721 2.8708 5.67896 2.45678 6.74045 2.3072C7.80194 2.15761 8.88401 2.27727 9.88717 2.65516C10.8903 3.03305 11.7824 3.65705 12.4814 4.46981C12.5313 4.52784 12.5694 4.59514 12.5933 4.66787C12.6172 4.7406 12.6266 4.81733 12.6209 4.89368C12.6152 4.97003 12.5945 5.04451 12.56 5.11286C12.5255 5.18121 12.4779 5.2421 12.4198 5.29205C12.3618 5.34199 12.2945 5.38002 12.2218 5.40396C12.149 5.42789 12.0723 5.43727 11.9959 5.43155C11.9196 5.42584 11.8451 5.40514 11.7768 5.37064C11.7084 5.33614 11.6475 5.28851 11.5976 5.23048C10.8899 4.40765 9.94375 3.82542 8.89029 3.56454C7.83683 3.30367 6.72829 3.37707 5.71843 3.77457C4.70857 4.17208 3.84742 4.87398 3.25444 5.78294C2.66145 6.69189 2.366 7.76285 2.40908 8.84728C2.45215 9.9317 2.83161 10.9758 3.49483 11.8349C4.15805 12.694 5.07215 13.3253 6.11036 13.6415C7.14857 13.9577 8.25944 13.9429 9.28888 13.5993C10.3183 13.2557 11.2153 12.6002 11.8555 11.7239C11.8997 11.6596 11.9563 11.6048 12.022 11.5629C12.0877 11.5209 12.1612 11.4925 12.238 11.4794C12.3149 11.4663 12.3936 11.4688 12.4695 11.4867C12.5454 11.5045 12.617 11.5375 12.6799 11.5835C12.7429 11.6295 12.7959 11.6877 12.836 11.7546C12.8761 11.8215 12.9023 11.8958 12.9131 11.973C12.9239 12.0502 12.9192 12.1289 12.8991 12.2042C12.879 12.2795 12.844 12.3501 12.7961 12.4117C12.2012 13.2229 11.4239 13.8829 10.5269 14.3386C9.62997 14.7942 8.63851 15.0326 7.63248 15.0347Z" fill="black"/>
<path d="M8.28017 11.8569C8.19287 11.8569 8.10664 11.8377 8.02752 11.8008C7.94841 11.7639 7.87835 11.7101 7.82226 11.6432L6.41714 9.96842C6.32712 9.86022 6.27817 9.72372 6.27894 9.58297L6.29537 6.01899C6.29537 5.8605 6.35834 5.70849 6.47041 5.59642C6.58248 5.48435 6.73448 5.42139 6.89298 5.42139C7.05147 5.42139 7.20348 5.48435 7.31555 5.59642C7.42762 5.70849 7.49059 5.8605 7.49059 6.01899L7.47415 9.37082L8.73884 10.876C8.81214 10.9632 8.85903 11.0694 8.87397 11.1823C8.88891 11.2952 8.87128 11.41 8.82317 11.5132C8.77506 11.6165 8.69846 11.7038 8.6024 11.7649C8.50633 11.826 8.39479 11.8585 8.28092 11.8584L8.28017 11.8569ZM13.9373 8.06281H9.89819C9.73971 8.06278 9.58774 7.99981 9.47568 7.88774C9.36363 7.77567 9.30068 7.62368 9.30068 7.4652C9.30068 7.30672 9.36363 7.15473 9.47568 7.04266C9.58774 6.93059 9.73971 6.86762 9.89819 6.86759H13.9373C14.0957 6.86762 14.2477 6.93059 14.3598 7.04266C14.4718 7.15473 14.5348 7.30672 14.5348 7.4652C14.5348 7.62368 14.4718 7.77567 14.3598 7.88774C14.2477 7.99981 14.0957 8.06278 13.9373 8.06281ZM12.6285 10.7371H10.0394C9.88088 10.7371 9.72888 10.6741 9.61681 10.5621C9.50473 10.45 9.44177 10.298 9.44177 10.1395C9.44177 9.98099 9.50473 9.82899 9.61681 9.71692C9.72888 9.60484 9.88088 9.54188 10.0394 9.54188H12.6285C12.787 9.54188 12.939 9.60484 13.0511 9.71692C13.1632 9.82899 13.2261 9.98099 13.2261 10.1395C13.2261 10.298 13.1632 10.45 13.0511 10.5621C12.939 10.6741 12.787 10.7371 12.6285 10.7371Z" fill="#E5E5E5"/>
</svg>
