<svg width="17" height="17" viewBox="0 0 17 17" fill="none" xmlns="http://www.w3.org/2000/svg">
<mask id="mask0_102_1128" style="mask-type:alpha" maskUnits="userSpaceOnUse" x="0" y="0" width="17" height="17">
<rect x="0.80835" y="0.716797" width="16" height="16" fill="#DCDCDC"/>
</mask>
<g mask="url(#mask0_102_1128)">
<path fill-rule="evenodd" clip-rule="evenodd" d="M14.1416 14.1255C14.878 14.1255 15.475 13.5285 15.475 12.7922L15.475 10.1255C15.475 9.38911 14.878 8.79215 14.1416 8.79215L3.47498 8.79216C2.73858 8.79216 2.14164 9.38911 2.14164 10.1255L2.14164 12.7922C2.14164 13.5285 2.73858 14.1255 3.47498 14.1255L14.1416 14.1255ZM3.47498 12.7922L14.1416 12.7922L14.1416 10.1255L3.47498 10.1255L3.47498 12.7922Z" fill="black"/>
<path fill-rule="evenodd" clip-rule="evenodd" d="M8.54997 3.30817C8.91815 3.30817 9.21663 3.60664 9.21663 3.97483L9.21663 5.04989L10.2918 5.04989C10.66 5.04989 10.9584 5.34836 10.9584 5.71655C10.9584 6.08474 10.66 6.38322 10.2918 6.38322L9.21663 6.38322L9.21663 7.45833C9.21663 7.82652 8.91816 8.125 8.54997 8.125C8.18178 8.125 7.8833 7.82652 7.8833 7.45833L7.8833 6.38322L6.80827 6.38322C6.44007 6.38322 6.1416 6.08474 6.1416 5.71655C6.1416 5.34836 6.44007 5.04989 6.80827 5.04989L7.8833 5.04989L7.8833 3.97483C7.8833 3.60664 8.18177 3.30817 8.54997 3.30817Z" fill="#E5E5E5"/>
</g>
</svg>
