<svg width="17" height="17" viewBox="0 0 17 17" fill="none" xmlns="http://www.w3.org/2000/svg">
<mask id="mask0_102_1026" style="mask-type:alpha" maskUnits="userSpaceOnUse" x="0" y="0" width="17" height="17">
<rect x="0.0782471" y="0.866821" width="16" height="16" fill="#DCDCDC"/>
</mask>
<g mask="url(#mask0_102_1026)">
<path fill-rule="evenodd" clip-rule="evenodd" d="M1.71461 2.86328C1.36316 2.86328 1.07825 3.14819 1.07825 3.49964V11.136C1.07825 11.4875 1.36316 11.7724 1.71461 11.7724H3.04193L4.12827 12.8587C4.37679 13.1072 4.77971 13.1072 5.02822 12.8587L6.11456 11.7724H6.80552V13.2795C6.80552 13.631 7.09043 13.9159 7.44188 13.9159H10.6783L11.4464 14.684C11.6949 14.9325 12.0979 14.9325 12.3464 14.684L13.1145 13.9159H14.4419C14.7933 13.9159 15.0782 13.631 15.0782 13.2795V8.18862C15.0782 7.83717 14.7933 7.55226 14.4419 7.55226H12.5328V3.49964C12.5328 3.14819 12.2479 2.86328 11.8964 2.86328H1.71461ZM12.5328 8.82499V11.136C12.5328 11.4875 12.2479 11.7724 11.8964 11.7724H8.07825V12.6432H10.9419C11.1106 12.6432 11.2725 12.7102 11.3918 12.8295L11.8964 13.3341L12.401 12.8295C12.5203 12.7102 12.6822 12.6432 12.851 12.6432H13.8055V8.82499H12.5328ZM11.2601 4.13601H2.35097V10.4997H3.30552C3.47429 10.4997 3.63615 10.5667 3.7555 10.6861L4.57825 11.5088L5.401 10.6861C5.52034 10.5667 5.6822 10.4997 5.85097 10.4997H11.2601V4.13601Z" fill="black"/>
<path fill-rule="evenodd" clip-rule="evenodd" d="M5.21437 5.40845C4.86291 5.40845 4.578 5.69336 4.578 6.04481C4.578 6.39627 4.86291 6.68117 5.21437 6.68117H9.03255C9.384 6.68117 9.66891 6.39627 9.66891 6.04481C9.66891 5.69336 9.384 5.40845 9.03255 5.40845H5.21437ZM4.578 8.59026C4.578 8.23881 4.86291 7.9539 5.21437 7.9539H7.12346C7.47491 7.9539 7.75982 8.23881 7.75982 8.59026C7.75982 8.94172 7.47491 9.22663 7.12346 9.22663H5.21437C4.86291 9.22663 4.578 8.94172 4.578 8.59026Z" fill="#E5E5E5"/>
</g>
</svg>
