<svg width="17" height="17" viewBox="0 0 17 17" fill="none" xmlns="http://www.w3.org/2000/svg">
<mask id="mask0_233_16" style="mask-type:alpha" maskUnits="userSpaceOnUse" x="0" y="0" width="17" height="17">
<rect x="0.54834" y="0.529785" width="16" height="16" fill="#D9D9D9"/>
</mask>
<g mask="url(#mask0_233_16)">
<path d="M3.08174 14.5298C2.90495 14.5298 2.73541 14.4595 2.6104 14.3345C2.4854 14.2095 2.41518 14.0399 2.41518 13.8631C2.41518 13.6863 2.4854 13.5168 2.6104 13.3918C2.73541 13.2667 2.90495 13.1965 3.08174 13.1965L14.0151 13.1965C14.1919 13.1965 14.3614 13.2667 14.4864 13.3918C14.6114 13.5168 14.6816 13.6863 14.6816 13.8631C14.6816 14.0399 14.6114 14.2095 14.4864 14.3345C14.3614 14.4595 14.1919 14.5298 14.0151 14.5298L3.08174 14.5298ZM3.08174 3.86312C2.90495 3.86309 2.7354 3.79284 2.6104 3.66782C2.4854 3.5428 2.41518 3.37325 2.41518 3.19645C2.41518 3.01966 2.4854 2.85011 2.6104 2.72508C2.7354 2.60006 2.90495 2.52981 3.08174 2.52979L14.0151 2.52979C14.1919 2.52981 14.3614 2.60006 14.4864 2.72508C14.6114 2.8501 14.6816 3.01966 14.6816 3.19645C14.6816 3.37325 14.6114 3.5428 14.4864 3.66782C14.3614 3.79284 14.1919 3.86309 14.0151 3.86312L3.08174 3.86312Z" fill="black"/>
<path d="M11.6057 7.86306L10.7437 7.00106C10.6187 6.87605 10.5485 6.70651 10.5485 6.52972C10.5485 6.35294 10.6187 6.1834 10.7437 6.05839C10.8687 5.93338 11.0383 5.86316 11.215 5.86316C11.3918 5.86316 11.5614 5.93338 11.6864 6.05839L13.6864 8.05839C13.7483 8.12025 13.7975 8.19372 13.831 8.27459C13.8646 8.35547 13.8818 8.44217 13.8818 8.52972C13.8818 8.61728 13.8646 8.70398 13.831 8.78485C13.7975 8.86573 13.7483 8.9392 13.6864 9.00106L11.6864 11.0011C11.6245 11.063 11.551 11.1121 11.4701 11.1455C11.3892 11.179 11.3026 11.1963 11.215 11.1963C11.1275 11.1963 11.0408 11.179 10.96 11.1456C10.8791 11.1121 10.8056 11.063 10.7437 11.0011C10.6818 10.9392 10.6327 10.8657 10.5992 10.7848C10.5657 10.7039 10.5485 10.6173 10.5485 10.5297C10.5485 10.4422 10.5657 10.3555 10.5992 10.2746C10.6327 10.1938 10.6818 10.1203 10.7437 10.0584L11.6057 9.19639L3.8817 9.19639C3.70489 9.19639 3.53532 9.12615 3.4103 9.00113C3.28527 8.8761 3.21503 8.70654 3.21503 8.52972C3.21503 8.35291 3.28527 8.18334 3.4103 8.05832C3.53532 7.9333 3.70489 7.86306 3.8817 7.86306L11.6057 7.86306Z" fill="#E5E5E5"/>
</g>
</svg>
