<svg width="17" height="17" viewBox="0 0 17 17" fill="none" xmlns="http://www.w3.org/2000/svg">
<mask id="mask0_102_1108" style="mask-type:alpha" maskUnits="userSpaceOnUse" x="0" y="0" width="17" height="17">
<rect x="0.781494" y="0.716797" width="16" height="16" fill="#DCDCDC"/>
</mask>
<g mask="url(#mask0_102_1108)">
<path fill-rule="evenodd" clip-rule="evenodd" d="M8.34764 6.16476C8.34764 5.79657 8.04916 5.49809 7.68097 5.49809H3.91061C3.54242 5.49809 3.24394 5.79657 3.24394 6.16476V11.2684C3.24394 11.6366 3.54242 11.9351 3.91061 11.9351H7.68097C8.04916 11.9351 8.34764 11.6366 8.34764 11.2684V6.16476ZM3.24394 4.22217C2.53927 4.22217 1.96802 4.79342 1.96802 5.49809V11.9351C1.96802 12.6398 2.53927 13.211 3.24394 13.211H8.34764C9.05228 13.211 9.62355 12.6398 9.62355 11.9351V5.49809C9.62355 4.79342 9.05228 4.22217 8.34764 4.22217H3.24394Z" fill="black"/>
<path fill-rule="evenodd" clip-rule="evenodd" d="M15.5466 8.9606C15.5778 8.88538 15.595 8.8029 15.595 8.7164C15.595 8.6299 15.5778 8.54742 15.5466 8.4722C15.5155 8.39695 15.4693 8.32646 15.4082 8.26529L13.4943 6.35141C13.2452 6.10227 12.8412 6.10227 12.5921 6.35141C12.3429 6.60054 12.3429 7.00448 12.5921 7.25362L13.4169 8.07844H11.225C10.8727 8.07844 10.587 8.36406 10.587 8.7164C10.587 9.06874 10.8727 9.35436 11.225 9.35436H13.4169L12.5921 10.1792C12.3429 10.4283 12.3429 10.8323 12.5921 11.0814C12.8412 11.3305 13.2452 11.3305 13.4943 11.0814L15.4079 9.1678" fill="#E5E5E5"/>
</g>
</svg>
