<svg width="16" height="16" viewBox="0 0 16 16" fill="none" xmlns="http://www.w3.org/2000/svg">
<mask id="mask0_102_1128" style="mask-type:alpha" maskUnits="userSpaceOnUse" x="0" y="0" width="16" height="16">
<rect width="16" height="16" fill="#DCDCDC"/>
</mask>
<g mask="url(#mask0_102_1128)">
<path fill-rule="evenodd" clip-rule="evenodd" d="M13.3333 13.4087C14.0697 13.4087 14.6666 12.8117 14.6666 12.0754L14.6666 9.40869C14.6666 8.67231 14.0697 8.07536 13.3333 8.07536L2.66663 8.07536C1.93023 8.07536 1.33329 8.67231 1.33329 9.40869L1.33329 12.0754C1.33329 12.8117 1.93023 13.4087 2.66663 13.4087L13.3333 13.4087ZM2.66663 12.0754L13.3333 12.0754L13.3333 9.40869L2.66663 9.40869L2.66663 12.0754Z" fill="black"/>
<path fill-rule="evenodd" clip-rule="evenodd" d="M7.74168 2.59137C8.10987 2.59137 8.40835 2.88984 8.40835 3.25804L8.40835 4.33309L9.48348 4.33309C9.85167 4.33309 10.1501 4.63156 10.1501 4.99976C10.1501 5.36794 9.85167 5.66642 9.48348 5.66642L8.40835 5.66642L8.40835 6.74154C8.40835 7.10973 8.10987 7.4082 7.74168 7.4082C7.37349 7.4082 7.07501 7.10973 7.07501 6.74154L7.07501 5.66642L5.99998 5.66642C5.63179 5.66642 5.33331 5.36794 5.33331 4.99976C5.33331 4.63156 5.63179 4.33309 5.99998 4.33309L7.07501 4.33309L7.07501 3.25804C7.07501 2.88984 7.37349 2.59137 7.74168 2.59137Z" fill="#E5E5E5"/>
</g>
</svg>
