<svg width="17" height="17" viewBox="0 0 17 17" fill="none" xmlns="http://www.w3.org/2000/svg">
<mask id="mask0_102_1113" style="mask-type:alpha" maskUnits="userSpaceOnUse" x="0" y="0" width="17" height="17">
<rect x="0.641602" y="0.716797" width="16" height="16" fill="#DCDCDC"/>
</mask>
<g mask="url(#mask0_102_1113)">
<path fill-rule="evenodd" clip-rule="evenodd" d="M8.30259 6.16476C8.30259 5.79657 8.00411 5.49809 7.63593 5.49809H3.86557C3.49737 5.49809 3.1989 5.79657 3.1989 6.16476V11.2684C3.1989 11.6366 3.49737 11.9351 3.86557 11.9351H7.63593C8.00411 11.9351 8.30259 11.6366 8.30259 11.2684V6.16476ZM3.1989 4.22217C2.49422 4.22217 1.92297 4.79342 1.92297 5.49809V11.9351C1.92297 12.6398 2.49422 13.211 3.1989 13.211H8.30259C9.00724 13.211 9.57851 12.6398 9.57851 11.9351V5.49809C9.57851 4.79342 9.00724 4.22217 8.30259 4.22217H3.1989Z" fill="black"/>
<path fill-rule="evenodd" clip-rule="evenodd" d="M12.5641 11.1818C12.6393 11.213 12.7218 11.2302 12.8083 11.2302C12.8948 11.2302 12.9773 11.213 13.0525 11.1818C13.1278 11.1506 13.1983 11.1045 13.2594 11.0433L15.1733 9.12943C15.4224 8.88029 15.4224 8.47635 15.1733 8.22721C14.9242 7.97807 14.5202 7.97807 14.2711 8.22721L13.4463 9.05203V6.86013C13.4463 6.50779 13.1607 6.22217 12.8083 6.22217C12.456 6.22217 12.1704 6.50779 12.1704 6.86013V9.05203L11.3455 8.22721C11.0964 7.97807 10.6925 7.97807 10.4433 8.22721C10.1942 8.47635 10.1942 8.88029 10.4433 9.12943L12.3569 11.043" fill="#E5E5E5"/>
</g>
</svg>
