<svg width="17" height="17" viewBox="0 0 17 17" fill="none" xmlns="http://www.w3.org/2000/svg">
<mask id="mask0_102_1133" style="mask-type:alpha" maskUnits="userSpaceOnUse" x="0" y="0" width="17" height="17">
<rect x="16.3083" y="16.7168" width="16" height="16" transform="rotate(180 16.3083 16.7168)" fill="#DCDCDC"/>
</mask>
<g mask="url(#mask0_102_1133)">
<path fill-rule="evenodd" clip-rule="evenodd" d="M2.97506 3.30811C2.23868 3.30811 1.64172 3.90506 1.64172 4.64144L1.64172 7.30811C1.64172 8.04449 2.23868 8.64144 2.97506 8.64144L13.6417 8.64144C14.3781 8.64144 14.9751 8.04448 14.9751 7.3081L14.9751 4.64144C14.9751 3.90506 14.3781 3.3081 13.6417 3.3081L2.97506 3.30811ZM13.6417 4.64144L2.97506 4.64144L2.97506 7.30811L13.6417 7.3081L13.6417 4.64144Z" fill="black"/>
<path fill-rule="evenodd" clip-rule="evenodd" d="M8.56667 14.1254C8.19848 14.1254 7.9 13.827 7.9 13.4588L7.9 12.3837L6.82487 12.3837C6.45668 12.3837 6.1582 12.0852 6.1582 11.717C6.1582 11.3489 6.45668 11.0504 6.82487 11.0504L7.9 11.0504L7.9 9.97526C7.9 9.60707 8.19848 9.30859 8.56667 9.30859C8.93486 9.30859 9.23334 9.60707 9.23334 9.97526L9.23334 11.0504L10.3084 11.0504C10.6766 11.0504 10.975 11.3489 10.975 11.717C10.975 12.0852 10.6766 12.3837 10.3084 12.3837L9.23334 12.3837L9.23334 13.4588C9.23334 13.827 8.93486 14.1254 8.56667 14.1254Z" fill="#E5E5E5"/>
</g>
</svg>
