<svg width="17" height="17" viewBox="0 0 17 17" fill="none" xmlns="http://www.w3.org/2000/svg">
<mask id="mask0_102_1016" style="mask-type:alpha" maskUnits="userSpaceOnUse" x="0" y="0" width="17" height="17">
<rect x="0.0922852" y="0.716797" width="16" height="16" fill="#DCDCDC"/>
</mask>
<g mask="url(#mask0_102_1016)">
<path d="M7.69627 8.72488C7.69627 8.38083 7.41735 8.10191 7.07329 8.10191C6.72923 8.10191 6.45032 8.38083 6.45032 8.72488C6.45032 10.2573 7.66397 11.5283 9.19601 11.5283C9.20515 11.5283 9.21424 11.5281 9.22328 11.5277C9.23334 11.5282 9.24346 11.5284 9.25363 11.5284H12.4704C14.0025 11.5284 15.2162 10.2575 15.2162 8.72502C15.2162 7.19263 14.0026 5.92163 12.4704 5.92163L9.78431 5.92163C9.44025 5.92163 9.16134 6.20055 9.16134 6.54461C9.16134 6.88867 9.44025 7.16759 9.78431 7.16759H12.4704C13.2831 7.16759 13.9702 7.84903 13.9702 8.72504C13.9702 9.60104 13.2831 10.2825 12.4704 10.2825H9.25363C9.24449 10.2825 9.23539 10.2827 9.22634 10.283C9.21629 10.2826 9.20618 10.2823 9.19601 10.2823C8.38338 10.2823 7.69627 9.6009 7.69627 8.72488Z" fill="black"/>
<path d="M8.48815 8.70905C8.48815 9.05311 8.76711 9.33202 9.11116 9.33202C9.45521 9.33202 9.7341 9.05311 9.7341 8.70905C9.7341 7.17662 8.52044 5.90566 6.98844 5.90566C6.9793 5.90566 6.9702 5.90585 6.96115 5.90624C6.9511 5.90576 6.94099 5.90552 6.93081 5.90552L3.71399 5.90552C2.18192 5.90552 0.968262 7.17647 0.968262 8.70891C0.96829 10.2413 2.18191 11.5123 3.71399 11.5123H6.40013C6.74419 11.5123 7.0231 11.2334 7.0231 10.8893C7.0231 10.5453 6.74419 10.2663 6.40013 10.2664H3.71399C2.90132 10.2664 2.21423 9.58491 2.21422 8.7089C2.21422 7.8329 2.90131 7.15147 3.71399 7.15147H6.93081C6.93995 7.15147 6.94905 7.15127 6.95809 7.15088C6.96815 7.15136 6.97827 7.15161 6.98844 7.15161C7.80108 7.15161 8.48815 7.83303 8.48815 8.70905Z" fill="#E5E5E5"/>
</g>
</svg>
