<svg width="17" height="17" viewBox="0 0 17 17" fill="none" xmlns="http://www.w3.org/2000/svg">
<mask id="mask0_102_1118" style="mask-type:alpha" maskUnits="userSpaceOnUse" x="0" y="0" width="17" height="17">
<rect x="0.724854" y="0.716797" width="16" height="16" fill="#DCDCDC"/>
</mask>
<g mask="url(#mask0_102_1118)">
<path fill-rule="evenodd" clip-rule="evenodd" d="M14.1571 3.38363C14.1571 2.64725 13.5602 2.05029 12.8238 2.05029H10.1571C9.42072 2.05029 8.82377 2.64725 8.82377 3.38363V14.0503C8.82377 14.7867 9.42072 15.3836 10.1571 15.3836H12.8238C13.5602 15.3836 14.1571 14.7867 14.1571 14.0503V3.38363ZM12.8238 14.0503V3.38363H10.1571V14.0503H12.8238Z" fill="black"/>
<path fill-rule="evenodd" clip-rule="evenodd" d="M3.29254 8.71657C3.29254 8.34839 3.59101 8.04991 3.95921 8.04991H5.03426V6.97477C5.03426 6.60658 5.33273 6.30811 5.70093 6.30811C6.06911 6.30811 6.36759 6.60658 6.36759 6.97477V8.04991H7.44271C7.8109 8.04991 8.10938 8.34839 8.10938 8.71657C8.10938 9.08477 7.8109 9.38324 7.44271 9.38324H6.36759V10.4583C6.36759 10.8265 6.06911 11.1249 5.70093 11.1249C5.33273 11.1249 5.03426 10.8265 5.03426 10.4583V9.38324H3.95921C3.59101 9.38324 3.29254 9.08477 3.29254 8.71657Z" fill="#E5E5E5"/>
</g>
</svg>
