<svg width="16" height="16" viewBox="0 0 16 16" fill="none" xmlns="http://www.w3.org/2000/svg">
<mask id="mask0_102_1118" style="mask-type:alpha" maskUnits="userSpaceOnUse" x="0" y="0" width="16" height="16">
<rect width="16" height="16" fill="#DCDCDC"/>
</mask>
<g mask="url(#mask0_102_1118)">
<path fill-rule="evenodd" clip-rule="evenodd" d="M13.4322 2.66683C13.4322 1.93045 12.8352 1.3335 12.0989 1.3335H9.43219C8.69581 1.3335 8.09886 1.93045 8.09886 2.66683V13.3335C8.09886 14.0699 8.69581 14.6668 9.43219 14.6668H12.0989C12.8352 14.6668 13.4322 14.0699 13.4322 13.3335V2.66683ZM12.0989 13.3335V2.66683H9.43219V13.3335H12.0989Z" fill="black"/>
<path fill-rule="evenodd" clip-rule="evenodd" d="M2.56769 7.99978C2.56769 7.63159 2.86616 7.33311 3.23435 7.33311H4.30941V6.25798C4.30941 5.88979 4.60788 5.59131 4.97607 5.59131C5.34426 5.59131 5.64274 5.88979 5.64274 6.25798V7.33311H6.71785C7.08604 7.33311 7.38452 7.63159 7.38452 7.99978C7.38452 8.36797 7.08604 8.66644 6.71785 8.66644H5.64274V9.74148C5.64274 10.1097 5.34426 10.4081 4.97607 10.4081C4.60788 10.4081 4.30941 10.1097 4.30941 9.74148V8.66644H3.23435C2.86616 8.66644 2.56769 8.36797 2.56769 7.99978Z" fill="#E5E5E5"/>
</g>
</svg>
