<svg width="17" height="17" viewBox="0 0 17 17" fill="none" xmlns="http://www.w3.org/2000/svg">
<mask id="mask0_102_1156" style="mask-type:alpha" maskUnits="userSpaceOnUse" x="0" y="0" width="17" height="17">
<rect x="0.189575" y="0.64502" width="16" height="16" fill="#D9D9D9"/>
</mask>
<g mask="url(#mask0_102_1156)">
<path fill-rule="evenodd" clip-rule="evenodd" d="M5.1084 3.29541C3.85565 3.29541 2.84009 4.31097 2.84009 5.56372C2.84009 6.81648 3.85565 7.83204 5.1084 7.83204C6.36116 7.83204 7.37671 6.81648 7.37671 5.56372C7.37671 4.31097 6.36116 3.29541 5.1084 3.29541ZM4.13627 5.56372C4.13627 5.02683 4.57151 4.59159 5.1084 4.59159C5.6453 4.59159 6.08053 5.02683 6.08053 5.56372C6.08053 6.10062 5.6453 6.53586 5.1084 6.53586C4.57151 6.53586 4.13627 6.10062 4.13627 5.56372Z" fill="#E5E5E5"/>
<path fill-rule="evenodd" clip-rule="evenodd" d="M11.2708 9.45801C10.0181 9.45801 9.00249 10.4736 9.00249 11.7263C9.00249 12.9791 10.0181 13.9946 11.2708 13.9946C12.5236 13.9946 13.5391 12.9791 13.5391 11.7263C13.5391 10.4736 12.5236 9.45801 11.2708 9.45801ZM10.2987 11.7263C10.2987 11.1894 10.7339 10.7542 11.2708 10.7542C11.8077 10.7542 12.2429 11.1894 12.2429 11.7263C12.2429 12.2632 11.8077 12.6985 11.2708 12.6985C10.7339 12.6985 10.2987 12.2632 10.2987 11.7263Z" fill="#E5E5E5"/>
<path fill-rule="evenodd" clip-rule="evenodd" d="M13.3493 3.48523C13.6024 3.73833 13.6024 4.14867 13.3493 4.40177L3.94645 13.8046C3.69335 14.0577 3.283 14.0577 3.02991 13.8046C2.77681 13.5515 2.77681 13.1412 3.02991 12.8881L12.4328 3.48523C12.6859 3.23214 13.0962 3.23214 13.3493 3.48523Z" fill="black"/>
</g>
</svg>
