<svg width="16" height="16" viewBox="0 0 16 16" fill="none" xmlns="http://www.w3.org/2000/svg">
<mask id="mask0_102_1156" style="mask-type:alpha" maskUnits="userSpaceOnUse" x="0" y="0" width="16" height="16">
<rect width="16" height="16" fill="#D9D9D9"/>
</mask>
<g mask="url(#mask0_102_1156)">
<path fill-rule="evenodd" clip-rule="evenodd" d="M4.91876 2.65039C3.66601 2.65039 2.65045 3.66595 2.65045 4.9187C2.65045 6.17146 3.66601 7.18702 4.91876 7.18702C6.17152 7.18702 7.18708 6.17146 7.18708 4.9187C7.18708 3.66595 6.17152 2.65039 4.91876 2.65039ZM3.94663 4.9187C3.94663 4.38181 4.38187 3.94657 4.91876 3.94657C5.45566 3.94657 5.8909 4.38181 5.8909 4.9187C5.8909 5.4556 5.45566 5.89084 4.91876 5.89084C4.38187 5.89084 3.94663 5.4556 3.94663 4.9187Z" fill="#E5E5E5"/>
<path fill-rule="evenodd" clip-rule="evenodd" d="M11.0812 8.81299C9.82842 8.81299 8.81286 9.82855 8.81286 11.0813C8.81286 12.3341 9.82842 13.3496 11.0812 13.3496C12.3339 13.3496 13.3495 12.3341 13.3495 11.0813C13.3495 9.82855 12.3339 8.81299 11.0812 8.81299ZM10.109 11.0813C10.109 10.5444 10.5443 10.1092 11.0812 10.1092C11.6181 10.1092 12.0533 10.5444 12.0533 11.0813C12.0533 11.6182 11.6181 12.0534 11.0812 12.0534C10.5443 12.0534 10.109 11.6182 10.109 11.0813Z" fill="#E5E5E5"/>
<path fill-rule="evenodd" clip-rule="evenodd" d="M13.1597 2.84021C13.4128 3.09331 13.4128 3.50365 13.1597 3.75675L3.7568 13.1596C3.5037 13.4127 3.09336 13.4127 2.84026 13.1596C2.58717 12.9065 2.58717 12.4962 2.84026 12.2431L12.2431 2.84021C12.4962 2.58712 12.9066 2.58712 13.1597 2.84021Z" fill="black"/>
</g>
</svg>
