<svg width="17" height="17" viewBox="0 0 17 17" fill="none" xmlns="http://www.w3.org/2000/svg">
<mask id="mask0_102_1053" style="mask-type:alpha" maskUnits="userSpaceOnUse" x="0" y="0" width="17" height="17">
<rect x="0.032959" y="0.64502" width="16" height="16" fill="#DCDCDC"/>
</mask>
<g mask="url(#mask0_102_1053)">
<path fill-rule="evenodd" clip-rule="evenodd" d="M8.03289 1.97827C7.21467 1.97827 6.55141 2.64156 6.55141 3.45975H3.88474C3.39381 3.45975 2.99585 3.85773 2.99585 4.34864V14.4227C2.99585 14.9136 3.39381 15.3116 3.88474 15.3116H12.181C12.672 15.3116 13.0699 14.9136 13.0699 14.4227V4.34864C13.0699 3.85773 12.672 3.45975 12.181 3.45975H9.51437C9.51437 2.64156 8.85111 1.97827 8.03289 1.97827ZM7.73659 3.45975C7.73659 3.29611 7.86924 3.16346 8.03289 3.16346C8.19653 3.16346 8.32918 3.29611 8.32918 3.45975V4.03768C8.32918 4.37336 8.60138 4.64494 8.93644 4.64494H9.51437V5.23753H6.55141V4.64494H7.12933C7.4644 4.64494 7.73659 4.37336 7.73659 4.03768V3.45975ZM10.6996 4.64494V5.53383C10.6996 6.02475 10.3016 6.42272 9.81066 6.42272H6.25511C5.76418 6.42272 5.36622 6.02475 5.36622 5.53383V4.64494H4.18103V14.1264H11.8847V4.64494H10.6996Z" fill="black"/>
<path fill-rule="evenodd" clip-rule="evenodd" d="M6.5874 9.39683C6.5874 8.59842 7.23465 7.95117 8.03306 7.95117C8.83148 7.95117 9.47873 8.59842 9.47873 9.39683C9.47873 9.76763 9.33884 10.1058 9.10987 10.3614L9.27795 11.7067C9.29428 11.8375 9.25368 11.969 9.16646 12.0678C9.07924 12.1666 8.9538 12.2232 8.82201 12.2232H7.24412C7.11233 12.2232 6.98688 12.1666 6.89966 12.0678C6.81243 11.969 6.77184 11.8375 6.78819 11.7067L6.95635 10.3615C6.72734 10.1059 6.5874 9.76768 6.5874 9.39683ZM8.03306 8.87013C7.74218 8.87013 7.50636 9.10595 7.50636 9.39683C7.50636 9.56885 7.58835 9.72161 7.71731 9.81848C7.84906 9.91744 7.91772 10.0794 7.89729 10.2429L7.76461 11.3042H8.30155L8.16894 10.2427C8.14851 10.0793 8.21717 9.91737 8.34888 9.81842C8.47781 9.72156 8.55977 9.56884 8.55977 9.39683C8.55977 9.10595 8.32395 8.87013 8.03306 8.87013Z" fill="#E5E5E5"/>
</g>
</svg>
