<svg width="16" height="16" viewBox="0 0 16 16" fill="none" xmlns="http://www.w3.org/2000/svg">
<mask id="mask0_102_1053" style="mask-type:alpha" maskUnits="userSpaceOnUse" x="0" y="0" width="16" height="16">
<rect width="16" height="16" fill="#DCDCDC"/>
</mask>
<g mask="url(#mask0_102_1053)">
<path fill-rule="evenodd" clip-rule="evenodd" d="M7.99993 1.3335C7.18171 1.3335 6.51845 1.99679 6.51845 2.81498H3.85178C3.36085 2.81498 2.96289 3.21296 2.96289 3.70387V13.7779C2.96289 14.2689 3.36086 14.6668 3.85178 14.6668H12.1481C12.639 14.6668 13.037 14.2689 13.037 13.7779V3.70387C13.037 3.21296 12.639 2.81498 12.1481 2.81498H9.48141C9.48141 1.99679 8.81815 1.3335 7.99993 1.3335ZM7.70363 2.81498C7.70363 2.65133 7.83628 2.51868 7.99993 2.51868C8.16357 2.51868 8.29622 2.65133 8.29622 2.81498V3.3929C8.29622 3.72859 8.56842 4.00016 8.90348 4.00016H9.48141V4.59276H6.51845V4.00016H7.09637C7.43144 4.00016 7.70363 3.72859 7.70363 3.3929V2.81498ZM10.6666 4.00016V4.88905C10.6666 5.37998 10.2686 5.77794 9.77771 5.77794H6.22215C5.73123 5.77794 5.33326 5.37998 5.33326 4.88905V4.00016H4.14808V13.4816H11.8518V4.00016H10.6666Z" fill="black"/>
<path fill-rule="evenodd" clip-rule="evenodd" d="M6.55444 8.75181C6.55444 7.9534 7.20169 7.30615 8.00011 7.30615C8.79852 7.30615 9.44577 7.9534 9.44577 8.75181C9.44577 9.12261 9.30588 9.46082 9.07691 9.71637L9.24499 11.0617C9.26132 11.1925 9.22073 11.324 9.1335 11.4227C9.04628 11.5215 8.92084 11.5781 8.78905 11.5781H7.21116C7.07937 11.5781 6.95392 11.5215 6.8667 11.4227C6.77948 11.3239 6.73888 11.1924 6.75523 11.0617L6.92339 9.71646C6.69438 9.4609 6.55444 9.12266 6.55444 8.75181ZM8.00011 8.22511C7.70922 8.22511 7.4734 8.46093 7.4734 8.75181C7.4734 8.92383 7.55539 9.07659 7.68436 9.17346C7.8161 9.27242 7.88477 9.43434 7.86433 9.59783L7.73165 10.6592H8.26859L8.13598 9.59772C8.11555 9.43425 8.18421 9.27236 8.31593 9.1734C8.44485 9.07654 8.52681 8.92383 8.52681 8.75181C8.52681 8.46093 8.29099 8.22511 8.00011 8.22511Z" fill="#E5E5E5"/>
</g>
</svg>
