<svg width="16" height="16" viewBox="0 0 16 16" fill="none" xmlns="http://www.w3.org/2000/svg">
<mask id="mask0_102_1031" style="mask-type:alpha" maskUnits="userSpaceOnUse" x="0" y="0" width="16" height="16">
<rect width="16" height="16" fill="#DCDCDC"/>
</mask>
<g mask="url(#mask0_102_1031)">
<path fill-rule="evenodd" clip-rule="evenodd" d="M7.99993 1.3335C7.18171 1.3335 6.51845 1.99679 6.51845 2.81498H3.85178C3.36085 2.81498 2.96289 3.21296 2.96289 3.70387V13.7779C2.96289 14.2689 3.36086 14.6668 3.85178 14.6668H12.1481C12.639 14.6668 13.037 14.2689 13.037 13.7779V3.70387C13.037 3.21296 12.639 2.81498 12.1481 2.81498H9.48141C9.48141 1.99679 8.81815 1.3335 7.99993 1.3335ZM7.70363 2.81498C7.70363 2.65133 7.83628 2.51868 7.99993 2.51868C8.16357 2.51868 8.29622 2.65133 8.29622 2.81498V3.3929C8.29622 3.72859 8.56842 4.00016 8.90348 4.00016H9.48141V4.59276H6.51845V4.00016H7.09637C7.43144 4.00016 7.70363 3.72859 7.70363 3.3929V2.81498ZM10.6666 4.00016V4.88905C10.6666 5.37998 10.2686 5.77794 9.77771 5.77794H6.22215C5.73123 5.77794 5.33326 5.37998 5.33326 4.88905V4.00016H4.14808V13.4816H11.8518V4.00016H10.6666Z" fill="black"/>
<path d="M7.03409 11.5734C6.79845 11.5734 6.60742 11.3824 6.60742 11.1468Lnan nanL6.60742 11.1468C6.60742 10.9111 6.79845 10.7201 7.03409 10.7201H7.43102C7.49326 10.7201 7.54372 10.6696 7.54372 10.6074V8.30365C7.54372 8.25383 7.50333 8.21344 7.45351 8.21344H7.08808C6.89135 8.21344 6.73187 8.05396 6.73187 7.85722Lnan nanL6.73187 7.85722C6.73187 7.6858 6.85451 7.54075 7.02067 7.49862C7.27525 7.43407 7.47971 7.35457 7.67393 7.25013C7.77254 7.1971 7.88152 7.16455 7.99349 7.16455Lnan nanL7.99349 7.16455C8.32765 7.16455 8.59853 7.43544 8.59853 7.76959V10.6245C8.59853 10.6773 8.64133 10.7201 8.69412 10.7201H8.96594C9.20158 10.7201 9.39261 10.9111 9.39261 11.1468Lnan nanL9.39261 11.1468C9.39261 11.3824 9.20158 11.5734 8.96594 11.5734H7.03409Z" fill="#E5E5E5"/>
</g>
</svg>
