<svg width="17" height="17" viewBox="0 0 17 17" fill="none" xmlns="http://www.w3.org/2000/svg">
<mask id="mask0_102_1036" style="mask-type:alpha" maskUnits="userSpaceOnUse" x="0" y="0" width="17" height="17">
<rect x="0.032959" y="0.64502" width="16" height="16" fill="#DCDCDC"/>
</mask>
<g mask="url(#mask0_102_1036)">
<path fill-rule="evenodd" clip-rule="evenodd" d="M8.03289 1.97827C7.21467 1.97827 6.55141 2.64156 6.55141 3.45975H3.88474C3.39381 3.45975 2.99585 3.85773 2.99585 4.34864V14.4227C2.99585 14.9136 3.39381 15.3116 3.88474 15.3116H12.181C12.672 15.3116 13.0699 14.9136 13.0699 14.4227V4.34864C13.0699 3.85773 12.672 3.45975 12.181 3.45975H9.51437C9.51437 2.64156 8.85111 1.97827 8.03289 1.97827ZM7.73659 3.45975C7.73659 3.29611 7.86924 3.16346 8.03289 3.16346C8.19653 3.16346 8.32918 3.29611 8.32918 3.45975V4.03768C8.32918 4.37336 8.60138 4.64494 8.93644 4.64494H9.51437V5.23753H6.55141V4.64494H7.12933C7.4644 4.64494 7.73659 4.37336 7.73659 4.03768V3.45975ZM10.6996 4.64494V5.53383C10.6996 6.02475 10.3016 6.42272 9.81066 6.42272H6.25511C5.76418 6.42272 5.36622 6.02475 5.36622 5.53383V4.64494H4.18103V14.1264H11.8847V4.64494H10.6996Z" fill="black"/>
<path d="M5.20194 12.2185C4.96629 12.2185 4.77527 12.0274 4.77527 11.7918Lnan nanLnan nanL4.77527 11.7918C4.77527 11.5562 4.96629 11.3651 5.20194 11.3651H5.59886C5.66111 11.3651 5.71156 11.3147 5.71156 11.2524V8.94866C5.71156 8.89885 5.67118 8.85846 5.62136 8.85846H5.25593C5.0592 8.85846 4.89971 8.69898 4.89971 8.50224Lnan nanLnan nanL4.89971 8.50224C4.89971 8.33082 5.02236 8.18577 5.18852 8.14364C5.4431 8.07909 5.64756 7.99959 5.84177 7.89515C5.94039 7.84212 6.04937 7.80957 6.16134 7.80957Lnan nanLnan nanL6.16134 7.80957C6.49549 7.80957 6.76638 8.08046 6.76638 8.41461V11.2695C6.76638 11.3223 6.80917 11.3651 6.86196 11.3651H7.13379C7.36943 11.3651 7.56045 11.5562 7.56045 11.7918Lnan nanLnan nanL7.56045 11.7918C7.56045 12.0274 7.36943 12.2185 7.13379 12.2185H5.20194Z" fill="#E5E5E5"/>
<path fill-rule="evenodd" clip-rule="evenodd" d="M11.1538 8.77072C11.3361 8.95296 11.3361 9.24844 11.1538 9.43068L9.32683 11.2577C9.23931 11.3452 9.12061 11.3944 8.99685 11.3944C8.87308 11.3944 8.75438 11.3452 8.66686 11.2577L7.72799 10.3188C7.54575 10.1366 7.54575 9.84109 7.72799 9.65884C7.91024 9.4766 8.20571 9.4766 8.38796 9.65884L8.99685 10.2677L10.4939 8.77072C10.6761 8.58847 10.9716 8.58847 11.1538 8.77072Z" fill="#E5E5E5"/>
</g>
</svg>
