<svg width="17" height="17" viewBox="0 0 17 17" fill="none" xmlns="http://www.w3.org/2000/svg">
<mask id="mask0_102_1068" style="mask-type:alpha" maskUnits="userSpaceOnUse" x="0" y="0" width="17" height="17">
<rect x="0.032959" y="0.64502" width="16" height="16" fill="#DCDCDC"/>
</mask>
<g mask="url(#mask0_102_1068)">
<path fill-rule="evenodd" clip-rule="evenodd" d="M8.03289 1.97827C7.21467 1.97827 6.55141 2.64156 6.55141 3.45975H3.88474C3.39381 3.45975 2.99585 3.85773 2.99585 4.34864V14.4227C2.99585 14.9136 3.39381 15.3116 3.88474 15.3116H12.181C12.672 15.3116 13.0699 14.9136 13.0699 14.4227V4.34864C13.0699 3.85773 12.672 3.45975 12.181 3.45975H9.51437C9.51437 2.64156 8.85111 1.97827 8.03289 1.97827ZM7.73659 3.45975C7.73659 3.29611 7.86924 3.16346 8.03289 3.16346C8.19653 3.16346 8.32918 3.29611 8.32918 3.45975V4.03768C8.32918 4.37336 8.60138 4.64494 8.93644 4.64494H9.51437V5.23753H6.55141V4.64494H7.12933C7.4644 4.64494 7.73659 4.37336 7.73659 4.03768V3.45975ZM10.6996 4.64494V5.53383C10.6996 6.02475 10.3016 6.42272 9.81066 6.42272H6.25511C5.76418 6.42272 5.36622 6.02475 5.36622 5.53383V4.64494H4.18103V14.1264H11.8847V4.64494H10.6996Z" fill="black"/>
<path fill-rule="evenodd" clip-rule="evenodd" d="M6.48091 8.68135V9.21468H7.01424V8.68135H6.48091ZM5.68091 8.41468C5.68091 8.12013 5.91969 7.88135 6.21424 7.88135H7.28091C7.57546 7.88135 7.81424 8.12013 7.81424 8.41468V9.48135C7.81424 9.7759 7.57546 10.0147 7.28091 10.0147H6.21424C5.91969 10.0147 5.68091 9.7759 5.68091 9.48135V8.41468Z" fill="#E5E5E5"/>
<path fill-rule="evenodd" clip-rule="evenodd" d="M6.48091 11.225V11.7584H7.01424V11.225H6.48091ZM5.68091 10.9584C5.68091 10.6638 5.91969 10.425 6.21424 10.425H7.28091C7.57546 10.425 7.81424 10.6638 7.81424 10.9584V12.025C7.81424 12.3196 7.57546 12.5584 7.28091 12.5584H6.21424C5.91969 12.5584 5.68091 12.3196 5.68091 12.025V10.9584Z" fill="#E5E5E5"/>
<path fill-rule="evenodd" clip-rule="evenodd" d="M9.05159 8.68135V9.21468H9.58492V8.68135H9.05159ZM8.25159 8.41468C8.25159 8.12013 8.49037 7.88135 8.78492 7.88135H9.85159C10.1461 7.88135 10.3849 8.12013 10.3849 8.41468V9.48135C10.3849 9.7759 10.1461 10.0147 9.85159 10.0147H8.78492C8.49037 10.0147 8.25159 9.7759 8.25159 9.48135V8.41468Z" fill="#E5E5E5"/>
<path fill-rule="evenodd" clip-rule="evenodd" d="M9.05159 11.225V11.7584H9.58492V11.225H9.05159ZM8.25159 10.9584C8.25159 10.6638 8.49037 10.425 8.78492 10.425H9.85159C10.1461 10.425 10.3849 10.6638 10.3849 10.9584V12.025C10.3849 12.3196 10.1461 12.5584 9.85159 12.5584H8.78492C8.49037 12.5584 8.25159 12.3196 8.25159 12.025V10.9584Z" fill="#E5E5E5"/>
<path fill-rule="evenodd" clip-rule="evenodd" d="M7.6573 9.84419V10.5955H8.40857V9.84419H7.6573ZM6.8573 9.59932C6.8573 9.29273 7.10584 9.04419 7.41243 9.04419H8.65344C8.96003 9.04419 9.20857 9.29273 9.20857 9.59932V10.8403C9.20857 11.1469 8.96003 11.3955 8.65344 11.3955H7.41243C7.10584 11.3955 6.8573 11.1469 6.8573 10.8403V9.59932Z" fill="black"/>
</g>
</svg>
