<svg width="17" height="17" viewBox="0 0 17 17" fill="none" xmlns="http://www.w3.org/2000/svg">
<mask id="mask0_102_1063" style="mask-type:alpha" maskUnits="userSpaceOnUse" x="0" y="0" width="17" height="17">
<rect x="0.032959" y="0.64502" width="16" height="16" fill="#DCDCDC"/>
</mask>
<g mask="url(#mask0_102_1063)">
<path fill-rule="evenodd" clip-rule="evenodd" d="M8.03289 1.97827C7.21467 1.97827 6.55141 2.64156 6.55141 3.45975H3.88474C3.39381 3.45975 2.99585 3.85773 2.99585 4.34864V14.4227C2.99585 14.9136 3.39381 15.3116 3.88474 15.3116H12.181C12.672 15.3116 13.0699 14.9136 13.0699 14.4227V4.34864C13.0699 3.85773 12.672 3.45975 12.181 3.45975H9.51437C9.51437 2.64156 8.85111 1.97827 8.03289 1.97827ZM7.73659 3.45975C7.73659 3.29611 7.86924 3.16346 8.03289 3.16346C8.19653 3.16346 8.32918 3.29611 8.32918 3.45975V4.03768C8.32918 4.37336 8.60138 4.64494 8.93644 4.64494H9.51437V5.23753H6.55141V4.64494H7.12933C7.4644 4.64494 7.73659 4.37336 7.73659 4.03768V3.45975ZM10.6996 4.64494V5.53383C10.6996 6.02475 10.3016 6.42272 9.81066 6.42272H6.25511C5.76418 6.42272 5.36622 6.02475 5.36622 5.53383V4.64494H4.18103V14.1264H11.8847V4.64494H10.6996Z" fill="black"/>
<path fill-rule="evenodd" clip-rule="evenodd" d="M7.66633 8.82637V11.5597H8.39967V8.82637H7.66633ZM7.36633 7.52637C6.81405 7.52637 6.36633 7.97408 6.36633 8.52637V11.8597C6.36633 12.412 6.81405 12.8597 7.36633 12.8597H8.69967C9.25195 12.8597 9.69967 12.412 9.69967 11.8597V8.52637C9.69967 7.97408 9.25195 7.52637 8.69967 7.52637H7.36633Z" fill="#E5E5E5"/>
</g>
</svg>
