<svg width="17" height="17" viewBox="0 0 17 17" fill="none" xmlns="http://www.w3.org/2000/svg">
<mask id="mask0_102_1048" style="mask-type:alpha" maskUnits="userSpaceOnUse" x="0" y="0" width="17" height="17">
<rect x="0.03302" y="0.64502" width="16" height="16" fill="#DCDCDC"/>
</mask>
<g mask="url(#mask0_102_1048)">
<path fill-rule="evenodd" clip-rule="evenodd" d="M8.03295 1.97827C7.21473 1.97827 6.55147 2.64156 6.55147 3.45975H3.8848C3.39387 3.45975 2.99591 3.85773 2.99591 4.34864V14.4227C2.99591 14.9136 3.39388 15.3116 3.8848 15.3116H12.1811C12.672 15.3116 13.07 14.9136 13.07 14.4227V4.34864C13.07 3.85773 12.672 3.45975 12.1811 3.45975H9.51443C9.51443 2.64156 8.85117 1.97827 8.03295 1.97827ZM7.73665 3.45975C7.73665 3.29611 7.8693 3.16346 8.03295 3.16346C8.19659 3.16346 8.32924 3.29611 8.32924 3.45975V4.03768C8.32924 4.37336 8.60144 4.64494 8.9365 4.64494H9.51443V5.23753H6.55147V4.64494H7.12939C7.46446 4.64494 7.73665 4.37336 7.73665 4.03768V3.45975ZM10.6996 4.64494V5.53383C10.6996 6.02475 10.3016 6.42272 9.81073 6.42272H6.25517C5.76425 6.42272 5.36628 6.02475 5.36628 5.53383V4.64494H4.1811V14.1264H11.8848V4.64494H10.6996Z" fill="black"/>
<path d="M9.14636 8.4269C9.32085 8.55757 9.32212 8.80907 9.17972 8.97413Lnan nanLnan nanL9.17972 8.97413C9.02342 9.15529 8.75545 9.15729 8.53994 9.05334C8.4166 8.99385 8.28956 8.9637 8.14664 8.9637C7.82425 8.9637 7.65393 9.07927 7.65393 9.38341C7.65393 9.99778 9.47878 9.96737 9.47878 11.2752C9.47878 11.9443 9.11989 12.4674 8.39604 12.6256V12.9936C8.39604 13.1901 8.23672 13.3494 8.04019 13.3494Lnan nanLnan nanL8.04019 13.3494C7.84366 13.3494 7.68434 13.1901 7.68434 12.9936V12.6621C7.38999 12.6269 7.05121 12.522 6.75967 12.3518C6.56855 12.2402 6.53812 11.9905 6.65873 11.8049Lnan nanLnan nanL6.65873 11.8049C6.80189 11.5847 7.09839 11.5418 7.33433 11.6572C7.5292 11.7526 7.71408 11.7983 7.90333 11.7983C8.28046 11.7983 8.4447 11.6523 8.4447 11.3543C8.4447 10.6912 6.62593 10.673 6.62593 9.43208C6.62593 8.73863 7.02132 8.25809 7.68434 8.12427V7.76234C7.68434 7.56581 7.84366 7.40649 8.04019 7.40649Lnan nanLnan nanL8.04019 7.40649C8.23672 7.40649 8.39604 7.56581 8.39604 7.76234V8.1121C8.69426 8.15704 8.93761 8.27057 9.14636 8.4269Z" fill="#E5E5E5"/>
</g>
</svg>
