<svg width="16" height="16" viewBox="0 0 16 16" fill="none" xmlns="http://www.w3.org/2000/svg">
<path fill-rule="evenodd" clip-rule="evenodd" d="M12.2857 8.6375H9.71429C9.38291 8.6375 9.11429 8.91173 9.11429 9.25V12.75C9.11429 13.0883 9.38291 13.3625 9.71429 13.3625H12.2857C12.6171 13.3625 12.8857 13.0883 12.8857 12.75V9.25C12.8857 8.91173 12.6171 8.6375 12.2857 8.6375ZM9.71429 7.5C8.76751 7.5 8 8.2835 8 9.25V12.75C8 13.7165 8.76751 14.5 9.71429 14.5H12.2857C13.2325 14.5 14 13.7165 14 12.75V9.25C14 8.2835 13.2325 7.5 12.2857 7.5H9.71429Z" fill="#E5E5E5"/>
<path fill-rule="evenodd" clip-rule="evenodd" d="M3.93185 4.67088C3.93185 4.33994 4.20013 4.07167 4.53106 4.07167H9.98238C10.3133 4.07167 10.5816 4.33994 10.5816 4.67088C10.5816 5.00181 10.3133 5.27008 9.98238 5.27008H4.53106C4.20013 5.27008 3.93185 5.00181 3.93185 4.67088Z" fill="black"/>
<path fill-rule="evenodd" clip-rule="evenodd" d="M3.93185 7.16412C3.93185 6.83319 4.20013 6.56491 4.53106 6.56491H6.17481C6.50574 6.56491 6.77402 6.83319 6.77402 7.16412C6.77402 7.49505 6.50574 7.76332 6.17481 7.76332H4.53106C4.20013 7.76332 3.93185 7.49505 3.93185 7.16412Z" fill="black"/>
<path fill-rule="evenodd" clip-rule="evenodd" d="M3.93185 9.72264C3.93185 9.39171 4.20013 9.12344 4.53106 9.12344H5.90673C6.23767 9.12344 6.50594 9.39171 6.50594 9.72264C6.50594 10.0536 6.23767 10.3218 5.90673 10.3218H4.53106C4.20013 10.3218 3.93185 10.0536 3.93185 9.72264Z" fill="black"/>
<path d="M3.49801 2.79851H11.0154C11.1809 2.79851 11.315 2.93264 11.315 3.09811V5.85837C11.315 6.1893 11.5833 6.45757 11.9142 6.45757Lnan nanL11.9142 6.45757C12.2451 6.45757 12.5134 6.1893 12.5134 5.85837V3.09811C12.5134 2.27078 11.8427 1.6001 11.0154 1.6001H3.49801C2.67068 1.6001 2 2.27078 2 3.09811V11.2302C2 12.0575 2.67068 12.7282 3.49801 12.7282H6.30883C6.63976 12.7282 6.90804 12.4599 6.90804 12.129Lnan nanL6.90804 12.129C6.90804 11.7981 6.63976 11.5298 6.30883 11.5298H3.49801C3.33255 11.5298 3.19841 11.3957 3.19841 11.2302V3.09811C3.19841 2.93264 3.33255 2.79851 3.49801 2.79851Z" fill="black"/>
</svg>
