<svg width="16" height="16" viewBox="0 0 16 16" fill="none" xmlns="http://www.w3.org/2000/svg">
<mask id="mask0_102_1058" style="mask-type:alpha" maskUnits="userSpaceOnUse" x="0" y="0" width="16" height="16">
<rect width="16" height="16" fill="#DCDCDC"/>
</mask>
<g mask="url(#mask0_102_1058)">
<path fill-rule="evenodd" clip-rule="evenodd" d="M7.99993 1.3335C7.18171 1.3335 6.51845 1.99679 6.51845 2.81498H3.85178C3.36085 2.81498 2.96289 3.21296 2.96289 3.70387V13.7779C2.96289 14.2689 3.36086 14.6668 3.85178 14.6668H12.1481C12.639 14.6668 13.037 14.2689 13.037 13.7779V3.70387C13.037 3.21296 12.639 2.81498 12.1481 2.81498H9.48141C9.48141 1.99679 8.81815 1.3335 7.99993 1.3335ZM7.70363 2.81498C7.70363 2.65133 7.83628 2.51868 7.99993 2.51868C8.16357 2.51868 8.29622 2.65133 8.29622 2.81498V3.3929C8.29622 3.72859 8.56842 4.00016 8.90348 4.00016H9.48141V4.59276H6.51845V4.00016H7.09637C7.43144 4.00016 7.70363 3.72859 7.70363 3.3929V2.81498ZM10.6666 4.00016V4.88905C10.6666 5.37998 10.2686 5.77794 9.77771 5.77794H6.22215C5.73123 5.77794 5.33326 5.37998 5.33326 4.88905V4.00016H4.14808V13.4816H11.8518V4.00016H10.6666Z" fill="black"/>
<path d="M8.9223 7.34794C8.75535 7.19617 8.49698 7.20848 8.34521 7.37543C8.19343 7.54238 8.20574 7.80075 8.37269 7.95252L8.9781 8.5029H5.87289C5.64726 8.5029 5.46436 8.68581 5.46436 8.91143C5.46436 9.13706 5.64726 9.31997 5.87289 9.31997H10.0296C10.0426 9.32013 10.0557 9.31967 10.0687 9.31859C10.1212 9.3143 10.1709 9.30007 10.216 9.27778C10.2436 9.26412 10.27 9.24716 10.2945 9.22694C10.3855 9.15201 10.4435 9.0385 10.4435 8.91143C10.4435 8.78847 10.3891 8.67819 10.3032 8.60329L8.9223 7.34794Z" fill="#E5E5E5"/>
<path d="M5.79671 9.80315C5.84809 9.77985 5.90514 9.76688 5.96522 9.76688C5.96519 9.76688 5.96525 9.76688 5.96522 9.76688H10.1273C10.3529 9.76688 10.5358 9.94979 10.5358 10.1754C10.5358 10.401 10.3529 10.5839 10.1273 10.5839H7.02193L7.62739 11.1344C7.79434 11.2861 7.80664 11.5445 7.65487 11.7115C7.5031 11.8784 7.24472 11.8907 7.07777 11.7389L5.6916 10.4788C5.68966 10.477 5.68774 10.4753 5.68583 10.4735C5.6449 10.4351 5.61359 10.3903 5.59206 10.342C5.56933 10.2911 5.55669 10.2347 5.55669 10.1754C5.55669 10.0837 5.58689 9.99909 5.63789 9.93092C5.67898 9.87601 5.73356 9.83178 5.79671 9.80315Z" fill="#E5E5E5"/>
</g>
</svg>
