<svg width="16" height="16" viewBox="0 0 16 16" fill="none" xmlns="http://www.w3.org/2000/svg">
<mask id="mask0_102_1068" style="mask-type:alpha" maskUnits="userSpaceOnUse" x="0" y="0" width="16" height="16">
<rect width="16" height="16" fill="#DCDCDC"/>
</mask>
<g mask="url(#mask0_102_1068)">
<path fill-rule="evenodd" clip-rule="evenodd" d="M7.99993 1.3335C7.18171 1.3335 6.51845 1.99679 6.51845 2.81498H3.85178C3.36085 2.81498 2.96289 3.21296 2.96289 3.70387V13.7779C2.96289 14.2689 3.36086 14.6668 3.85178 14.6668H12.1481C12.639 14.6668 13.037 14.2689 13.037 13.7779V3.70387C13.037 3.21296 12.639 2.81498 12.1481 2.81498H9.48141C9.48141 1.99679 8.81815 1.3335 7.99993 1.3335ZM7.70363 2.81498C7.70363 2.65133 7.83628 2.51868 7.99993 2.51868C8.16357 2.51868 8.29622 2.65133 8.29622 2.81498V3.3929C8.29622 3.72859 8.56842 4.00016 8.90348 4.00016H9.48141V4.59276H6.51845V4.00016H7.09637C7.43144 4.00016 7.70363 3.72859 7.70363 3.3929V2.81498ZM10.6666 4.00016V4.88905C10.6666 5.37998 10.2686 5.77794 9.77771 5.77794H6.22215C5.73123 5.77794 5.33326 5.37998 5.33326 4.88905V4.00016H4.14808V13.4816H11.8518V4.00016H10.6666Z" fill="black"/>
<path fill-rule="evenodd" clip-rule="evenodd" d="M6.44795 8.03682V8.57015H6.98128V8.03682H6.44795ZM5.64795 7.77015C5.64795 7.4756 5.88673 7.23682 6.18128 7.23682H7.24795C7.5425 7.23682 7.78128 7.4756 7.78128 7.77015V8.83682C7.78128 9.13137 7.5425 9.37015 7.24795 9.37015H6.18128C5.88673 9.37015 5.64795 9.13137 5.64795 8.83682V7.77015Z" fill="#E5E5E5"/>
<path fill-rule="evenodd" clip-rule="evenodd" d="M6.44795 10.5808V11.1141H6.98128V10.5808H6.44795ZM5.64795 10.3141C5.64795 10.0195 5.88673 9.78076 6.18128 9.78076H7.24795C7.5425 9.78076 7.78128 10.0195 7.78128 10.3141V11.3808C7.78128 11.6753 7.5425 11.9141 7.24795 11.9141H6.18128C5.88673 11.9141 5.64795 11.6753 5.64795 11.3808V10.3141Z" fill="#E5E5E5"/>
<path fill-rule="evenodd" clip-rule="evenodd" d="M9.01857 8.03682V8.57015H9.5519V8.03682H9.01857ZM8.21857 7.77015C8.21857 7.4756 8.45735 7.23682 8.7519 7.23682H9.81857C10.1131 7.23682 10.3519 7.4756 10.3519 7.77015V8.83682C10.3519 9.13137 10.1131 9.37015 9.81857 9.37015H8.7519C8.45735 9.37015 8.21857 9.13137 8.21857 8.83682V7.77015Z" fill="#E5E5E5"/>
<path fill-rule="evenodd" clip-rule="evenodd" d="M9.01863 10.5808V11.1141H9.55196V10.5808H9.01863ZM8.21863 10.3141C8.21863 10.0195 8.45741 9.78076 8.75196 9.78076H9.81863C10.1132 9.78076 10.352 10.0195 10.352 10.3141V11.3808C10.352 11.6753 10.1132 11.9141 9.81863 11.9141H8.75196C8.45741 11.9141 8.21863 11.6753 8.21863 11.3808V10.3141Z" fill="#E5E5E5"/>
<path fill-rule="evenodd" clip-rule="evenodd" d="M7.62434 9.1999V9.95117H8.37561V9.1999H7.62434ZM6.82434 8.95503C6.82434 8.64844 7.07288 8.3999 7.37947 8.3999H8.62048C8.92707 8.3999 9.17561 8.64844 9.17561 8.95503V10.196C9.17561 10.5026 8.92707 10.7512 8.62048 10.7512H7.37947C7.07288 10.7512 6.82434 10.5026 6.82434 10.196V8.95503Z" fill="black"/>
</g>
</svg>
