<svg width="16" height="16" viewBox="0 0 16 16" fill="none" xmlns="http://www.w3.org/2000/svg">
<mask id="mask0_102_1048" style="mask-type:alpha" maskUnits="userSpaceOnUse" x="0" y="0" width="16" height="16">
<rect width="16" height="16" fill="#DCDCDC"/>
</mask>
<g mask="url(#mask0_102_1048)">
<path fill-rule="evenodd" clip-rule="evenodd" d="M7.99993 1.3335C7.18171 1.3335 6.51845 1.99679 6.51845 2.81498H3.85178C3.36085 2.81498 2.96289 3.21296 2.96289 3.70387V13.7779C2.96289 14.2689 3.36086 14.6668 3.85178 14.6668H12.1481C12.639 14.6668 13.037 14.2689 13.037 13.7779V3.70387C13.037 3.21296 12.639 2.81498 12.1481 2.81498H9.48141C9.48141 1.99679 8.81815 1.3335 7.99993 1.3335ZM7.70363 2.81498C7.70363 2.65133 7.83628 2.51868 7.99993 2.51868C8.16357 2.51868 8.29622 2.65133 8.29622 2.81498V3.3929C8.29622 3.72859 8.56842 4.00016 8.90348 4.00016H9.48141V4.59276H6.51845V4.00016H7.09637C7.43144 4.00016 7.70363 3.72859 7.70363 3.3929V2.81498ZM10.6666 4.00016V4.88905C10.6666 5.37998 10.2686 5.77794 9.77771 5.77794H6.22215C5.73123 5.77794 5.33326 5.37998 5.33326 4.88905V4.00016H4.14808V13.4816H11.8518V4.00016H10.6666Z" fill="black"/>
<path d="M9.11334 7.78212C9.28783 7.9128 9.2891 8.1643 9.1467 8.32935Lnan nanL9.1467 8.32935C8.9904 8.51052 8.72243 8.51252 8.50692 8.40857C8.38358 8.34907 8.25654 8.31892 8.11362 8.31892C7.79123 8.31892 7.62091 8.4345 7.62091 8.73864C7.62091 9.35301 9.44576 9.32259 9.44576 10.6304C9.44576 11.2995 9.08687 11.8226 8.36302 11.9808V12.3488C8.36302 12.5453 8.2037 12.7046 8.00717 12.7046Lnan nanL8.00717 12.7046C7.81064 12.7046 7.65132 12.5453 7.65132 12.3488V12.0173C7.35697 11.9821 7.01819 11.8772 6.72665 11.707C6.53553 11.5954 6.5051 11.3457 6.62571 11.1602Lnan nanL6.62571 11.1602C6.76887 10.9399 7.06537 10.897 7.30131 11.0124C7.49618 11.1078 7.68106 11.1535 7.87031 11.1535C8.24744 11.1535 8.41168 11.0075 8.41168 10.7095C8.41168 10.0464 6.59291 10.0282 6.59291 8.7873C6.59291 8.09386 6.9883 7.61332 7.65132 7.47949V7.11756C7.65132 6.92104 7.81064 6.76172 8.00717 6.76172Lnan nanL8.00717 6.76172C8.2037 6.76172 8.36302 6.92104 8.36302 7.11756V7.46733C8.66124 7.51227 8.90459 7.6258 9.11334 7.78212Z" fill="#E5E5E5"/>
</g>
</svg>
