<svg width="17" height="17" viewBox="0 0 17 17" fill="none" xmlns="http://www.w3.org/2000/svg">
<mask id="mask0_102_1031" style="mask-type:alpha" maskUnits="userSpaceOnUse" x="0" y="0" width="17" height="17">
<rect x="0.03302" y="0.64502" width="16" height="16" fill="#DCDCDC"/>
</mask>
<g mask="url(#mask0_102_1031)">
<path fill-rule="evenodd" clip-rule="evenodd" d="M8.03295 1.97827C7.21473 1.97827 6.55147 2.64156 6.55147 3.45975H3.8848C3.39387 3.45975 2.99591 3.85773 2.99591 4.34864V14.4227C2.99591 14.9136 3.39388 15.3116 3.8848 15.3116H12.1811C12.672 15.3116 13.07 14.9136 13.07 14.4227V4.34864C13.07 3.85773 12.672 3.45975 12.1811 3.45975H9.51443C9.51443 2.64156 8.85117 1.97827 8.03295 1.97827ZM7.73665 3.45975C7.73665 3.29611 7.8693 3.16346 8.03295 3.16346C8.19659 3.16346 8.32924 3.29611 8.32924 3.45975V4.03768C8.32924 4.37336 8.60144 4.64494 8.9365 4.64494H9.51443V5.23753H6.55147V4.64494H7.12939C7.46446 4.64494 7.73665 4.37336 7.73665 4.03768V3.45975ZM10.6996 4.64494V5.53383C10.6996 6.02475 10.3016 6.42272 9.81073 6.42272H6.25517C5.76425 6.42272 5.36628 6.02475 5.36628 5.53383V4.64494H4.1811V14.1264H11.8848V4.64494H10.6996Z" fill="black"/>
<path d="M7.06711 12.2185C6.83147 12.2185 6.64044 12.0274 6.64044 11.7918Lnan nanLnan nanL6.64044 11.7918C6.64044 11.5562 6.83147 11.3651 7.06711 11.3651H7.46404C7.52628 11.3651 7.57674 11.3147 7.57674 11.2524V8.94866C7.57674 8.89885 7.53635 8.85846 7.48653 8.85846H7.1211C6.92437 8.85846 6.76489 8.69898 6.76489 8.50224Lnan nanLnan nanL6.76489 8.50224C6.76489 8.33082 6.88753 8.18577 7.05369 8.14364C7.30827 8.07909 7.51273 7.99959 7.70695 7.89515C7.80556 7.84212 7.91454 7.80957 8.02651 7.80957Lnan nanLnan nanL8.02651 7.80957C8.36067 7.80957 8.63155 8.08046 8.63155 8.41461V11.2695C8.63155 11.3223 8.67435 11.3651 8.72714 11.3651H8.99896C9.2346 11.3651 9.42563 11.5562 9.42563 11.7918Lnan nanLnan nanL9.42563 11.7918C9.42563 12.0274 9.2346 12.2185 8.99896 12.2185H7.06711Z" fill="#E5E5E5"/>
</g>
</svg>
