<svg width="17" height="17" viewBox="0 0 17 17" fill="none" xmlns="http://www.w3.org/2000/svg">
<mask id="mask0_102_1058" style="mask-type:alpha" maskUnits="userSpaceOnUse" x="0" y="0" width="17" height="17">
<rect x="0.0412598" y="0.64502" width="16" height="16" fill="#DCDCDC"/>
</mask>
<g mask="url(#mask0_102_1058)">
<path fill-rule="evenodd" clip-rule="evenodd" d="M8.04119 1.97827C7.22297 1.97827 6.55971 2.64156 6.55971 3.45975H3.89304C3.40211 3.45975 3.00415 3.85773 3.00415 4.34864V14.4227C3.00415 14.9136 3.40212 15.3116 3.89304 15.3116H12.1893C12.6803 15.3116 13.0782 14.9136 13.0782 14.4227V4.34864C13.0782 3.85773 12.6803 3.45975 12.1893 3.45975H9.52267C9.52267 2.64156 8.85941 1.97827 8.04119 1.97827ZM7.74489 3.45975C7.74489 3.29611 7.87754 3.16346 8.04119 3.16346C8.20483 3.16346 8.33748 3.29611 8.33748 3.45975V4.03768C8.33748 4.37336 8.60968 4.64494 8.94474 4.64494H9.52267V5.23753H6.55971V4.64494H7.13763C7.4727 4.64494 7.74489 4.37336 7.74489 4.03768V3.45975ZM10.7079 4.64494V5.53383C10.7079 6.02475 10.3099 6.42272 9.81897 6.42272H6.26341C5.77249 6.42272 5.37452 6.02475 5.37452 5.53383V4.64494H4.18934V14.1264H11.893V4.64494H10.7079Z" fill="black"/>
<path d="M8.96356 7.99248C8.79661 7.8407 8.53824 7.85301 8.38647 8.01996C8.23469 8.18691 8.247 8.44528 8.41395 8.59705L9.01936 9.14743H5.91415C5.68852 9.14743 5.50562 9.33034 5.50562 9.55597C5.50562 9.78159 5.68852 9.9645 5.91415 9.9645H10.0709C10.0839 9.96466 10.0969 9.9642 10.1099 9.96313C10.1625 9.95883 10.2122 9.9446 10.2572 9.92231C10.2849 9.90865 10.3112 9.8917 10.3358 9.87147C10.4267 9.79655 10.4847 9.68303 10.4847 9.55597C10.4847 9.433 10.4304 9.32272 10.3444 9.24782L8.96356 7.99248Z" fill="#E5E5E5"/>
<path d="M5.83797 10.4477C5.88935 10.4244 5.9464 10.4114 6.00648 10.4114C6.00645 10.4114 6.00651 10.4114 6.00648 10.4114H10.1685C10.3942 10.4114 10.5771 10.5943 10.5771 10.8199C10.5771 11.0456 10.3942 11.2285 10.1685 11.2285H7.06319L7.66865 11.7789C7.8356 11.9307 7.8479 12.189 7.69613 12.356C7.54436 12.5229 7.28598 12.5352 7.11903 12.3835L5.73286 11.1233C5.73092 11.1216 5.729 11.1198 5.72709 11.118C5.68616 11.0797 5.65485 11.0348 5.63332 10.9865C5.61059 10.9356 5.59795 10.8793 5.59795 10.8199C5.59795 10.7283 5.62815 10.6436 5.67915 10.5755C5.72024 10.5205 5.77481 10.4763 5.83797 10.4477Z" fill="#E5E5E5"/>
</g>
</svg>
