<svg width="17" height="17" viewBox="0 0 17 17" fill="none" xmlns="http://www.w3.org/2000/svg">
<mask id="mask0_102_1138" style="mask-type:alpha" maskUnits="userSpaceOnUse" x="0" y="0" width="17" height="17">
<rect x="0.612061" y="0.716797" width="16" height="16" fill="#DCDCDC"/>
</mask>
<g mask="url(#mask0_102_1138)">
<path d="M8.35898 9.84143C8.35898 10.177 8.63099 10.449 8.96654 10.449H12.1054C12.4409 10.449 12.7129 10.177 12.7129 9.84143V9.84143C12.7129 9.50589 12.4409 9.23387 12.1054 9.23387H8.96654C8.63099 9.23387 8.35898 9.50589 8.35898 9.84143V9.84143Z" fill="#E5E5E5"/>
<path d="M11.4756 11.5691C11.4756 11.9047 11.2036 12.1767 10.8681 12.1767H8.96654C8.63099 12.1767 8.35898 11.9047 8.35898 11.5691V11.5691C8.35898 11.2336 8.631 10.9615 8.96654 10.9615H10.8681C11.2036 10.9615 11.4756 11.2336 11.4756 11.5691V11.5691Z" fill="#E5E5E5"/>
<path fill-rule="evenodd" clip-rule="evenodd" d="M6.09116 2.69948C6.09119 2.43209 6.49118 2.21533 6.98459 2.21533C7.47799 2.21533 7.87798 2.43209 7.87801 2.69948H8.23393C8.83483 2.69948 9.33665 3.11214 9.45618 3.662H10.0077C10.6976 3.662 11.257 4.20602 11.257 4.87712V6.72249H12.7381C13.7731 6.72249 14.612 7.53853 14.612 8.54517V12.0508C14.612 12.5342 14.4146 12.9978 14.0632 13.3396L12.6814 14.6815C12.3299 15.0233 11.8533 15.2153 11.3563 15.2153H8.52322C7.6623 15.2153 6.93698 14.7599 6.71741 13.9905H3.96131C3.27136 13.9905 2.71204 13.4465 2.71204 12.7754V4.87712C2.71204 4.20602 3.27136 3.662 3.96131 3.662H4.51313C4.63266 3.11214 5.13448 2.69948 5.73538 2.69948H6.09116ZM4.58455 4.87712H3.86131L3.86131 12.7754H6.64931V8.54517C6.64931 7.53853 7.48829 6.72249 8.52322 6.72249H10.1077V4.87712H9.38476C9.19495 5.3129 8.75115 5.61862 8.23393 5.61862H5.73538C5.21816 5.61862 4.77436 5.3129 4.58455 4.87712ZM5.73538 3.61082H8.23393C8.40642 3.61082 8.54625 3.74683 8.54625 3.9146V4.4035C8.54625 4.57128 8.40642 4.70728 8.23393 4.70728H5.73538C5.56289 4.70728 5.42306 4.57128 5.42306 4.4035V3.9146C5.42306 3.74683 5.56289 3.61082 5.73538 3.61082ZM8.52322 7.82837C8.17824 7.82837 7.89858 8.10038 7.89858 8.43593V13.5019C7.89858 13.8374 8.17825 14.1095 8.52322 14.1095H11.3563C11.4521 14.1095 11.5457 14.088 11.6303 14.0479C11.7494 13.9914 11.798 13.8591 11.798 13.7302V12.7234C11.798 12.5892 11.9099 12.4804 12.0478 12.4804H13.0829C13.2154 12.4804 13.3514 12.4331 13.4096 12.3172C13.4508 12.235 13.4729 12.144 13.4729 12.0508V8.43593C13.4729 8.10038 13.1932 7.82837 12.8482 7.82837H8.52322Z" fill="black"/>
</g>
</svg>
