<svg width="16" height="16" viewBox="0 0 16 16" fill="none" xmlns="http://www.w3.org/2000/svg">
<mask id="mask0_102_1036" style="mask-type:alpha" maskUnits="userSpaceOnUse" x="0" y="0" width="16" height="16">
<rect width="16" height="16" fill="#DCDCDC"/>
</mask>
<g mask="url(#mask0_102_1036)">
<path fill-rule="evenodd" clip-rule="evenodd" d="M7.99993 1.3335C7.18171 1.3335 6.51845 1.99679 6.51845 2.81498H3.85178C3.36085 2.81498 2.96289 3.21296 2.96289 3.70387V13.7779C2.96289 14.2689 3.36086 14.6668 3.85178 14.6668H12.1481C12.639 14.6668 13.037 14.2689 13.037 13.7779V3.70387C13.037 3.21296 12.639 2.81498 12.1481 2.81498H9.48141C9.48141 1.99679 8.81815 1.3335 7.99993 1.3335ZM7.70363 2.81498C7.70363 2.65133 7.83628 2.51868 7.99993 2.51868C8.16357 2.51868 8.29622 2.65133 8.29622 2.81498V3.3929C8.29622 3.72859 8.56842 4.00016 8.90348 4.00016H9.48141V4.59276H6.51845V4.00016H7.09637C7.43144 4.00016 7.70363 3.72859 7.70363 3.3929V2.81498ZM10.6666 4.00016V4.88905C10.6666 5.37998 10.2686 5.77794 9.77771 5.77794H6.22215C5.73123 5.77794 5.33326 5.37998 5.33326 4.88905V4.00016H4.14808V13.4816H11.8518V4.00016H10.6666Z" fill="black"/>
<path d="M5.16898 11.5734C4.93334 11.5734 4.74231 11.3824 4.74231 11.1468Lnan nanL4.74231 11.1468C4.74231 10.9111 4.93333 10.7201 5.16898 10.7201H5.5659C5.62815 10.7201 5.67861 10.6696 5.67861 10.6074V8.30365C5.67861 8.25383 5.63822 8.21344 5.5884 8.21344H5.22297C5.02624 8.21344 4.86675 8.05396 4.86675 7.85722Lnan nanL4.86675 7.85722C4.86675 7.6858 4.9894 7.54075 5.15556 7.49862C5.41014 7.43407 5.6146 7.35457 5.80881 7.25013C5.90743 7.1971 6.01641 7.16455 6.12838 7.16455Lnan nanL6.12838 7.16455C6.46253 7.16455 6.73342 7.43544 6.73342 7.76959V10.6245C6.73342 10.6773 6.77621 10.7201 6.829 10.7201H7.10083C7.33647 10.7201 7.5275 10.9111 7.5275 11.1468Lnan nanL7.5275 11.1468C7.5275 11.3824 7.33647 11.5734 7.10083 11.5734H5.16898Z" fill="#E5E5E5"/>
<path fill-rule="evenodd" clip-rule="evenodd" d="M11.1209 8.12545C11.3031 8.3077 11.3031 8.60317 11.1209 8.78542L9.29387 10.6124C9.20635 10.6999 9.08766 10.7491 8.96389 10.7491C8.84012 10.7491 8.72142 10.6999 8.6339 10.6124L7.69503 9.67355C7.51279 9.4913 7.51279 9.19582 7.69503 9.01358C7.87728 8.83133 8.17275 8.83133 8.355 9.01358L8.96389 9.62247L10.4609 8.12545C10.6431 7.94321 10.9386 7.94321 11.1209 8.12545Z" fill="#E5E5E5"/>
</g>
</svg>
