<svg width="17" height="17" viewBox="0 0 17 17" fill="none" xmlns="http://www.w3.org/2000/svg">
<path fill-rule="evenodd" clip-rule="evenodd" d="M12.9984 9.14922H10.427C10.0956 9.14922 9.82699 9.42344 9.82699 9.76172V13.2617C9.82699 13.6 10.0956 13.8742 10.427 13.8742H12.9984C13.3298 13.8742 13.5984 13.6 13.5984 13.2617V9.76172C13.5984 9.42344 13.3298 9.14922 12.9984 9.14922ZM10.427 8.01172C9.48022 8.01172 8.71271 8.79522 8.71271 9.76172V13.2617C8.71271 14.2282 9.48022 15.0117 10.427 15.0117H12.9984C13.9452 15.0117 14.7127 14.2282 14.7127 13.2617V9.76172C14.7127 8.79522 13.9452 8.01172 12.9984 8.01172H10.427Z" fill="#E5E5E5"/>
<path fill-rule="evenodd" clip-rule="evenodd" d="M4.64456 5.18259C4.64456 4.85166 4.91283 4.58339 5.24377 4.58339H10.6951C11.026 4.58339 11.2943 4.85166 11.2943 5.18259C11.2943 5.51353 11.026 5.7818 10.6951 5.7818H5.24377C4.91283 5.7818 4.64456 5.51353 4.64456 5.18259Z" fill="black"/>
<path fill-rule="evenodd" clip-rule="evenodd" d="M4.64456 7.67584C4.64456 7.3449 4.91283 7.07663 5.24377 7.07663H6.88752C7.21845 7.07663 7.48672 7.3449 7.48672 7.67584C7.48672 8.00677 7.21845 8.27504 6.88752 8.27504H5.24377C4.91283 8.27504 4.64456 8.00677 4.64456 7.67584Z" fill="black"/>
<path fill-rule="evenodd" clip-rule="evenodd" d="M4.64456 10.2344C4.64456 9.90343 4.91283 9.63516 5.24377 9.63516H6.61944C6.95037 9.63516 7.21865 9.90343 7.21865 10.2344C7.21865 10.5653 6.95037 10.8336 6.61944 10.8336H5.24377C4.91283 10.8336 4.64456 10.5653 4.64456 10.2344Z" fill="black"/>
<path d="M4.21072 3.31023H11.7281C11.8936 3.31023 12.0277 3.44436 12.0277 3.60983V6.37009C12.0277 6.70102 12.296 6.96929 12.6269 6.96929Lnan nanC-nan -nan -nan -nan -nan -nanC-nan -nan -nan -nan -nan -nanCnan nan nan nan nan nanLnan nanCnan nan nan nan -nan -nanC-nan -nan -nan -nan -nan -nanC-nan -nan -nan -nan nan nanL12.6269 6.96929C12.9579 6.96929 13.2261 6.70102 13.2261 6.37009V3.60983C13.2261 2.7825 12.5554 2.11182 11.7281 2.11182H4.21072C3.38339 2.11182 2.71271 2.7825 2.71271 3.60983V11.7419C2.71271 12.5692 3.38339 13.2399 4.21072 13.2399H7.02154C7.35247 13.2399 7.62074 12.9717 7.62074 12.6407Lnan nanC-nan -nan -nan -nan -nan -nanC-nan -nan -nan -nan -nan -nanCnan nan nan nan nan nanLnan nanCnan nan nan nan -nan -nanC-nan -nan -nan -nan -nan -nanC-nan -nan -nan -nan nan nanL7.62074 12.6407C7.62074 12.3098 7.35247 12.0415 7.02154 12.0415H4.21072C4.04525 12.0415 3.91112 11.9074 3.91112 11.7419V3.60983C3.91112 3.44436 4.04525 3.31023 4.21072 3.31023Z" fill="black"/>
</svg>
