<svg width="17" height="17" viewBox="0 0 17 17" fill="none" xmlns="http://www.w3.org/2000/svg">
<mask id="mask0_102_1043" style="mask-type:alpha" maskUnits="userSpaceOnUse" x="0" y="0" width="17" height="17">
<rect x="0.03302" y="0.64502" width="16" height="16" fill="#DCDCDC"/>
</mask>
<g mask="url(#mask0_102_1043)">
<path fill-rule="evenodd" clip-rule="evenodd" d="M8.03307 1.97827C7.21485 1.97827 6.55159 2.64156 6.55159 3.45975H3.88492C3.39399 3.45975 2.99603 3.85773 2.99603 4.34864V14.4227C2.99603 14.9136 3.394 15.3116 3.88492 15.3116H12.1812C12.6721 15.3116 13.0701 14.9136 13.0701 14.4227V4.34864C13.0701 3.85773 12.6721 3.45975 12.1812 3.45975H9.51455C9.51455 2.64156 8.85129 1.97827 8.03307 1.97827ZM7.73677 3.45975C7.73677 3.29611 7.86942 3.16346 8.03307 3.16346C8.19672 3.16346 8.32937 3.29611 8.32937 3.45975V4.03768C8.32937 4.37336 8.60156 4.64494 8.93663 4.64494H9.51455V5.23753H6.55159V4.64494H7.12951C7.46458 4.64494 7.73677 4.37336 7.73677 4.03768V3.45975ZM10.6997 4.64494V5.53383C10.6997 6.02475 10.3018 6.42272 9.81085 6.42272H6.25529C5.76437 6.42272 5.3664 6.02475 5.3664 5.53383V4.64494H4.18122V14.1264H11.8849V4.64494H10.6997Z" fill="black"/>
<path d="M6.03329 8.21997C5.70192 8.21997 5.43329 8.4886 5.43329 8.81997C5.43329 9.15134 5.70192 9.41997 6.03329 9.41997H10.0333C10.3647 9.41997 10.6333 9.15134 10.6333 8.81997C10.6333 8.4886 10.3647 8.21997 10.0333 8.21997H6.03329Z" fill="#E5E5E5"/>
<path d="M6.69996 10.3202C6.36858 10.3202 6.09996 10.5889 6.09996 10.9202C6.09996 11.2516 6.36858 11.5202 6.69996 11.5202H9.36662C9.69799 11.5202 9.96662 11.2516 9.96662 10.9202C9.96662 10.5889 9.69799 10.3202 9.36662 10.3202H6.69996Z" fill="#E5E5E5"/>
</g>
</svg>
