<svg width="17" height="17" viewBox="0 0 17 17" fill="none" xmlns="http://www.w3.org/2000/svg">
<mask id="mask0_102_981" style="mask-type:alpha" maskUnits="userSpaceOnUse" x="0" y="0" width="17" height="17">
<rect x="0.243896" y="0.64502" width="16" height="16" fill="#DCDCDC"/>
</mask>
<g mask="url(#mask0_102_981)">
<path fill-rule="evenodd" clip-rule="evenodd" d="M8.71777 2.16772C7.1472 2.16772 5.87401 3.44092 5.87401 5.01148C5.87401 6.58205 7.1472 7.85524 8.71777 7.85524C10.2883 7.85524 11.5615 6.58205 11.5615 5.01148C11.5615 3.44092 10.2883 2.16772 8.71777 2.16772ZM7.1379 5.01148C7.1379 4.13895 7.84523 3.43162 8.71777 3.43162C9.59031 3.43162 10.2976 4.13895 10.2976 5.01148C10.2976 5.88402 9.59031 6.59135 8.71777 6.59135C7.84523 6.59135 7.1379 5.88402 7.1379 5.01148Z" fill="black"/>
<path d="M3.03025 14.4907C3.03025 12.1155 5.22168 10.0671 8.08582 10.0671C8.43484 10.0671 8.71777 9.78412 8.71777 9.43511C8.71777 9.0861 8.43484 8.80316 8.08582 8.80316C4.66772 8.80316 1.76636 11.2816 1.76636 14.4907C1.76636 14.8397 2.04929 15.1226 2.3983 15.1226C2.74732 15.1226 3.03025 14.8397 3.03025 14.4907Z" fill="black"/>
<path fill-rule="evenodd" clip-rule="evenodd" d="M11.8775 8.80347C11.0049 8.80347 10.2976 9.51078 10.2976 10.3833V10.6993H9.66564C9.31662 10.6993 9.03369 10.9822 9.03369 11.3313V14.491C9.03369 14.84 9.31662 15.1229 9.66564 15.1229H14.0893C14.4383 15.1229 14.7212 14.84 14.7212 14.491V11.3313C14.7212 10.9822 14.4383 10.6993 14.0893 10.6993H13.4573V10.3833C13.4573 9.51078 12.75 8.80347 11.8775 8.80347ZM12.1934 10.6993V10.3833C12.1934 10.2088 12.052 10.0674 11.8775 10.0674C11.7029 10.0674 11.5615 10.2088 11.5615 10.3833V10.6993H12.1934ZM10.2976 11.9632V13.859H13.4573V11.9632H10.2976Z" fill="#E5E5E5"/>
</g>
</svg>
