<svg width="17" height="17" viewBox="0 0 17 17" fill="none" xmlns="http://www.w3.org/2000/svg">
<mask id="mask0_233_11" style="mask-type:alpha" maskUnits="userSpaceOnUse" x="0" y="0" width="17" height="17">
<rect x="0.45752" y="0.529785" width="16" height="16" fill="#D9D9D9"/>
</mask>
<g mask="url(#mask0_233_11)">
<path d="M2.9908 14.5298C2.81401 14.5298 2.64446 14.4595 2.51946 14.3345C2.39446 14.2095 2.32424 14.0399 2.32424 13.8631C2.32424 13.6863 2.39446 13.5168 2.51946 13.3918C2.64446 13.2667 2.81401 13.1965 2.9908 13.1965L13.9241 13.1965C14.1009 13.1965 14.2705 13.2667 14.3955 13.3918C14.5205 13.5168 14.5907 13.6863 14.5907 13.8631C14.5907 14.0399 14.5205 14.2095 14.3955 14.3345C14.2705 14.4595 14.1009 14.5298 13.9241 14.5298L2.9908 14.5298ZM2.9908 3.86312C2.81401 3.86309 2.64446 3.79284 2.51946 3.66782C2.39446 3.5428 2.32423 3.37325 2.32423 3.19645C2.32423 3.01966 2.39446 2.85011 2.51946 2.72508C2.64446 2.60006 2.81401 2.52981 2.9908 2.52979L13.9241 2.52979C14.1009 2.52981 14.2705 2.60006 14.3955 2.72508C14.5205 2.8501 14.5907 3.01966 14.5907 3.19645C14.5907 3.37325 14.5205 3.5428 14.3955 3.66782C14.2705 3.79284 14.1009 3.86309 13.9241 3.86312L2.9908 3.86312Z" fill="black"/>
<path d="M11.2717 11.3442C11.0163 11.5996 10.6022 11.5996 10.3468 11.3442L8.43623 9.43357L6.59776 11.272C6.35407 11.5157 5.95897 11.5157 5.71529 11.272C5.4716 11.0284 5.4716 10.6333 5.71529 10.3896L7.55376 8.5511L5.64316 6.6405C5.38776 6.3851 5.38776 5.97101 5.64316 5.7156C5.89856 5.4602 6.31265 5.4602 6.56806 5.7156L8.47866 7.62621L10.3171 5.78773C10.5608 5.54404 10.9559 5.54404 11.1996 5.78773C11.4433 6.03142 11.4433 6.42651 11.1996 6.6702L9.36113 8.50868L11.2717 10.4193C11.5271 10.6747 11.5271 11.0888 11.2717 11.3442Z" fill="#E5E5E5"/>
</g>
</svg>
