<svg width="17" height="17" viewBox="0 0 17 17" fill="none" xmlns="http://www.w3.org/2000/svg">
<mask id="mask0_102_1123" style="mask-type:alpha" maskUnits="userSpaceOnUse" x="0" y="0" width="17" height="17">
<rect x="16.2249" y="16.7168" width="16" height="16" transform="rotate(180 16.2249 16.7168)" fill="#DCDCDC"/>
</mask>
<g mask="url(#mask0_102_1123)">
<path fill-rule="evenodd" clip-rule="evenodd" d="M2.7926 14.05C2.7926 14.7863 3.38956 15.3833 4.12594 15.3833L6.7926 15.3833C7.52898 15.3833 8.12594 14.7863 8.12594 14.05L8.12593 3.3833C8.12593 2.6469 7.52898 2.04997 6.7926 2.04997L4.12593 2.04997C3.38956 2.04997 2.7926 2.6469 2.7926 3.3833L2.7926 14.05ZM4.12593 3.3833L4.12594 14.05L6.7926 14.05L6.7926 3.3833L4.12593 3.3833Z" fill="black"/>
<path fill-rule="evenodd" clip-rule="evenodd" d="M13.6572 8.71702C13.6572 9.08521 13.3587 9.38369 12.9905 9.38369L11.9154 9.38369L11.9154 10.4588C11.9154 10.827 11.617 11.1255 11.2488 11.1255C10.8806 11.1255 10.5821 10.827 10.5821 10.4588L10.5821 9.38369L9.507 9.38369C9.13881 9.38369 8.84033 9.08521 8.84033 8.71702C8.84033 8.34883 9.13881 8.05035 9.507 8.05035L10.5821 8.05035L10.5821 6.97532C10.5821 6.60713 10.8806 6.30865 11.2488 6.30865C11.617 6.30865 11.9154 6.60713 11.9154 6.97532L11.9154 8.05035L12.9905 8.05035C13.3587 8.05035 13.6572 8.34883 13.6572 8.71702Z" fill="#E5E5E5"/>
</g>
</svg>
