<svg width="17" height="17" viewBox="0 0 17 17" fill="none" xmlns="http://www.w3.org/2000/svg">
<mask id="mask0_102_991" style="mask-type:alpha" maskUnits="userSpaceOnUse" x="0" y="0" width="17" height="17">
<rect x="0.213501" y="0.64502" width="16" height="16" fill="#D9D9D9"/>
</mask>
<g mask="url(#mask0_102_991)">
<path fill-rule="evenodd" clip-rule="evenodd" d="M1.54821 2.76442C1.65785 2.5511 1.87757 2.41699 2.11742 2.41699H14.3095C14.5682 2.41699 14.8014 2.57269 14.9006 2.81159C14.9998 3.05048 14.9454 3.32559 14.7628 3.50879L9.49051 8.99545V14.2114C9.49051 14.4326 9.37624 14.6382 9.18832 14.755C9.00041 14.8717 8.7655 14.8832 8.56713 14.7852L6.12871 13.5811C5.91033 13.4732 5.77209 13.2508 5.77209 13.0072V8.93642L1.597 3.4295C1.4574 3.23446 1.43856 2.97774 1.54821 2.76442ZM3.36257 3.69699L6.93251 8.35847C7.01028 8.46711 7.05209 8.59737 7.05209 8.73097V12.6095L8.21051 13.1815V8.73097C8.21051 8.5616 8.27765 8.39914 8.39721 8.27917L12.768 3.69699H3.36257Z" fill="black"/>
<path d="M10.1193 9.85903C10.1193 9.52766 10.4058 9.25903 10.7593 9.25903H13.9593C14.3127 9.25903 14.5993 9.52766 14.5993 9.85903C14.5993 10.1904 14.3127 10.459 13.9593 10.459H10.7593C10.4058 10.459 10.1193 10.1904 10.1193 9.85903Z" fill="#E5E5E5"/>
<path d="M10.1193 11.7058C10.1193 11.3744 10.4058 11.1058 10.7593 11.1058H13.9593C14.3127 11.1058 14.5993 11.3744 14.5993 11.7058C14.5993 12.0372 14.3127 12.3058 13.9593 12.3058H10.7593C10.4058 12.3058 10.1193 12.0372 10.1193 11.7058Z" fill="#E5E5E5"/>
<path d="M10.7593 12.9522C10.4058 12.9522 10.1193 13.2208 10.1193 13.5522C10.1193 13.8836 10.4058 14.1522 10.7593 14.1522H13.9593C14.3127 14.1522 14.5993 13.8836 14.5993 13.5522C14.5993 13.2208 14.3127 12.9522 13.9593 12.9522H10.7593Z" fill="#E5E5E5"/>
</g>
</svg>
