<svg width="17" height="17" viewBox="0 0 17 17" fill="none" xmlns="http://www.w3.org/2000/svg">
<mask id="mask0_102_1146" style="mask-type:alpha" maskUnits="userSpaceOnUse" x="0" y="0" width="17" height="17">
<rect x="0.141907" y="0.716797" width="16" height="16" fill="#DCDCDC"/>
</mask>
<g mask="url(#mask0_102_1146)">
<path fill-rule="evenodd" clip-rule="evenodd" d="M12.2201 3.14362C12.4042 2.8247 12.295 2.41689 11.976 2.23276C11.6571 2.04862 11.2493 2.1579 11.0652 2.47682L5.73616 11.7069C5.3159 11.0918 4.60897 10.688 3.80774 10.688C2.51882 10.688 1.47394 11.7329 1.47394 13.0218C1.47394 14.3107 2.51882 15.3556 3.80774 15.3556C4.695 15.3556 5.46663 14.8604 5.86138 14.1314L6.54913 12.966L12.2201 3.14362ZM4.69517 13.4836L4.6929 13.4874C4.68557 13.4999 4.67869 13.5124 4.67226 13.5251C4.49886 13.8223 4.17661 14.022 3.80774 14.022C3.25535 14.022 2.80754 13.5742 2.80754 13.0218C2.80754 12.4694 3.25535 12.0216 3.80774 12.0216C4.36012 12.0216 4.80794 12.4694 4.80794 13.0218C4.80794 13.1884 4.76721 13.3455 4.69517 13.4836Z" fill="#E5E5E5"/>
<path fill-rule="evenodd" clip-rule="evenodd" d="M5.21734 2.41139C5.03321 2.09247 4.6254 1.98319 4.30647 2.16733C3.98755 2.35146 3.87828 2.75927 4.06241 3.07819L9.72825 12.8917L10.3937 14.0764C10.7789 14.8354 11.5668 15.3555 12.4762 15.3555C13.7651 15.3555 14.81 14.3106 14.81 13.0217C14.81 11.7328 13.7651 10.6879 12.4762 10.6879C11.6874 10.6879 10.9901 11.0792 10.5676 11.6783L5.21734 2.41139ZM11.6193 13.5378C11.6131 13.525 11.6065 13.5123 11.5994 13.4997L11.5755 13.4572C11.5118 13.3255 11.476 13.1778 11.476 13.0217C11.476 12.4693 11.9238 12.0215 12.4762 12.0215C13.0286 12.0215 13.4764 12.4693 13.4764 13.0217C13.4764 13.5741 13.0286 14.0219 12.4762 14.0219C12.1126 14.0219 11.7944 13.8279 11.6193 13.5378Z" fill="black"/>
</g>
</svg>
