<svg width="17" height="17" viewBox="0 0 17 17" fill="none" xmlns="http://www.w3.org/2000/svg">
<mask id="mask0_202_71" style="mask-type:alpha" maskUnits="userSpaceOnUse" x="0" y="0" width="17" height="17">
<rect x="0.183594" y="0.866821" width="16" height="16" fill="#D9D9D9"/>
</mask>
<g mask="url(#mask0_202_71)">
<path d="M4.75492 2.10678C4.88034 1.96056 5.06646 1.86792 5.27422 1.86792L5.27564 1.86792C5.45114 1.86756 5.62675 1.93433 5.76065 2.06823L8.83819 5.14577C9.10527 5.41285 9.10527 5.84587 8.83819 6.11294C8.57111 6.38002 8.13809 6.38002 7.87101 6.11294L5.95812 4.20005V11.4425C5.95812 11.8202 5.65193 12.1264 5.27422 12.1264C4.89652 12.1264 4.59033 11.8202 4.59033 11.4425V4.20573L2.68311 6.11294C2.41603 6.38002 1.98301 6.38002 1.71593 6.11294C1.44886 5.84587 1.44886 5.41285 1.71593 5.14577L4.75492 2.10678Z" fill="#E5E5E5"/>
<path d="M11.7711 6.29132C11.7711 5.91361 11.4649 5.60742 11.0872 5.60742C10.7095 5.60742 10.4033 5.91361 10.4033 6.29132V13.5281L8.4961 11.6209C8.22902 11.3538 7.796 11.3538 7.52892 11.6209C7.26184 11.8879 7.26184 12.321 7.52892 12.588L10.5679 15.627C10.6933 15.7732 10.8795 15.8659 11.0872 15.8659L11.0886 15.8659C11.2641 15.8663 11.4397 15.7995 11.5736 15.6656L14.6512 12.588C14.9183 12.321 14.9183 11.8879 14.6512 11.6209C14.3841 11.3538 13.9511 11.3538 13.684 11.6209L11.7711 13.5337V6.29132Z" fill="black"/>
</g>
</svg>
