<svg width="16" height="16" viewBox="0 0 16 16" fill="none" xmlns="http://www.w3.org/2000/svg">
<g clip-path="url(#clip0_2042_154)">
<path d="M0 2C0 0.895431 0.895431 0 2 0H14C15.1046 0 16 0.895431 16 2V14C16 15.1046 15.1046 16 14 16H2C0.895431 16 0 15.1046 0 14V2Z" fill="#E5E5E5"/>
<path d="M3.80078 7.5C3.52464 7.5 3.30078 7.72386 3.30078 8C3.30078 8.27614 3.52464 8.5 3.80078 8.5H12.1997C12.4758 8.5 12.6997 8.27614 12.6997 8C12.6997 7.72386 12.4758 7.5 12.1997 7.5H3.80078Z" fill="black"/>
<path fill-rule="evenodd" clip-rule="evenodd" d="M0 2C0 0.895431 0.895431 0 2 0H14C15.1046 0 16 0.895431 16 2V14C16 15.1046 15.1046 16 14 16H2C0.895431 16 0 15.1046 0 14V2ZM2 1H14C14.5523 1 15 1.44772 15 2V14C15 14.5523 14.5523 15 14 15H2C1.44772 15 1 14.5523 1 14V2C1 1.44772 1.44772 1 2 1Z" fill="black"/>
</g>
<defs>
<clipPath id="clip0_2042_154">
<rect width="16" height="16" fill="white"/>
</clipPath>
</defs>
</svg>
