<svg width="16" height="16" viewBox="0 0 16 16" fill="none" xmlns="http://www.w3.org/2000/svg">
<path d="M5.88525 1.65002H10.1187V14.35H5.88525V1.65002Z" fill="#E5E5E5"/>
<path fill-rule="evenodd" clip-rule="evenodd" d="M0.986816 3.64998C0.986816 2.17814 2.17998 0.984985 3.65182 0.984985H12.3518C13.8237 0.984985 15.0168 2.17815 15.0168 3.64999V5.86412C15.017 5.87052 15.0171 5.87694 15.0171 5.88338C15.0171 5.88983 15.017 5.89625 15.0168 5.90265V10.0975L15.0171 10.1168L15.0168 10.136V12.35C15.0168 13.8218 13.8237 15.015 12.3518 15.015H3.65181C2.17998 15.015 0.986816 13.8218 0.986816 12.35V3.64998ZM13.6868 5.21838V3.64999C13.6868 2.91268 13.0891 2.31499 12.3518 2.31499H10.7836V5.21838H13.6868ZM10.7836 6.54838H13.6868V9.45178H10.7836V6.54838ZM9.45361 5.21838V2.31499H6.55021V5.21838L9.45361 5.21838ZM6.55021 6.54838L9.45361 6.54838V9.45178L6.55021 9.45178V6.54838ZM5.22021 5.21838V2.31499H3.65182C2.91452 2.31499 2.31682 2.91268 2.31682 3.64998V5.21838H5.22021ZM2.31682 6.54838H5.22021V9.45178H2.31682V6.54838ZM9.45361 10.7818H6.55021V13.685H9.45361V10.7818ZM5.22021 10.7818H2.31682V12.35C2.31682 13.0873 2.91452 13.685 3.65181 13.685H5.22021V10.7818ZM13.6868 10.7818H10.7836V13.685H12.3518C13.0891 13.685 13.6868 13.0873 13.6868 12.35V10.7818Z" fill="black"/>
</svg>
