<svg width="16" height="16" viewBox="0 0 16 16" fill="none" xmlns="http://www.w3.org/2000/svg">
<g clip-path="url(#clip0_2042_160)">
<path fill-rule="evenodd" clip-rule="evenodd" d="M3.6499 1.65002C2.54533 1.65002 1.6499 2.54545 1.6499 3.65002V6H5.3998C5.73118 6 5.9998 5.73137 5.9998 5.4V1.65002H3.6499ZM9.9998 1.65002V5.4C9.9998 5.73137 10.2684 6 10.5998 6H14.3499V3.65002C14.3499 2.54545 13.4545 1.65002 12.3499 1.65002H9.9998ZM14.3499 10H10.5998C10.2684 10 9.9998 10.2686 9.9998 10.6V14.35H12.3499C13.4545 14.35 14.3499 13.4546 14.3499 12.35V10ZM5.9998 14.35V10.6C5.9998 10.2686 5.73118 10 5.3998 10H1.6499V12.35C1.6499 13.4546 2.54533 14.35 3.6499 14.35H5.9998Z" fill="#E5E5E5"/>
<path fill-rule="evenodd" clip-rule="evenodd" d="M3.64986 0.984985C2.17803 0.984985 0.984863 2.17814 0.984863 3.64998V12.35C0.984863 13.8218 2.17802 15.015 3.64986 15.015H12.3499C13.8217 15.015 15.0149 13.8218 15.0149 12.35V3.64999C15.0149 2.17815 13.8217 0.984985 12.3499 0.984985H3.64986ZM5.33477 2.31499H3.64986C2.91256 2.31499 2.31486 2.91268 2.31486 3.64998V5.33496H5.33477V2.31499ZM2.31486 6.66496V9.33496H5.39977C6.09841 9.33496 6.66477 9.90132 6.66477 10.6V13.685H9.33477V10.6C9.33477 9.90132 9.90112 9.33496 10.5998 9.33496H13.6849V6.66496H10.5998C9.90113 6.66496 9.33477 6.0986 9.33477 5.39996V2.31499H6.66477V5.39996C6.66477 6.0986 6.09841 6.66496 5.39977 6.66496H2.31486ZM10.6648 2.31499V5.33496H13.6849V3.64999C13.6849 2.91268 13.0872 2.31499 12.3499 2.31499H10.6648ZM13.6849 10.665H10.6648V13.685H12.3499C13.0872 13.685 13.6849 13.0873 13.6849 12.35V10.665ZM5.33477 13.685V10.665H2.31486V12.35C2.31486 13.0873 2.91256 13.685 3.64986 13.685H5.33477Z" fill="black"/>
</g>
<defs>
<clipPath id="clip0_2042_160">
<rect width="16" height="16" fill="white"/>
</clipPath>
</defs>
</svg>
