<svg width="17" height="16" viewBox="0 0 17 16" fill="none" xmlns="http://www.w3.org/2000/svg">
<path d="M9.64199 11.7196V13.6053H10.1218C10.489 13.6053 10.7868 13.9031 10.7868 14.2703C10.7868 14.6376 10.489 14.9353 10.1218 14.9353H7.85178C7.48451 14.9353 7.18678 14.6376 7.18678 14.2703C7.18678 13.9031 7.48451 13.6053 7.85178 13.6053H8.31199V11.7196C8.31199 11.3523 8.60972 11.0546 8.97699 11.0546C9.34426 11.0546 9.64199 11.3523 9.64199 11.7196Z" fill="#E5E5E5"/>
<path d="M8.31199 4.25957C8.31199 4.62684 8.60972 4.92457 8.97699 4.92457C9.34426 4.92457 9.64199 4.62684 9.64199 4.25957V2.39533H10.1218C10.489 2.39533 10.7868 2.0976 10.7868 1.73033C10.7868 1.36306 10.489 1.06533 10.1218 1.06533H9.00891C8.99833 1.06483 8.98769 1.06458 8.97699 1.06458C8.96629 1.06458 8.95565 1.06483 8.94508 1.06533H7.85178C7.48451 1.06533 7.18678 1.36306 7.18678 1.73033C7.18678 2.0976 7.48451 2.39533 7.85178 2.39533H8.31199V4.25957Z" fill="#E5E5E5"/>
<path d="M14.5918 9.13533V8.66555H12.7068C12.3395 8.66555 12.0418 8.36782 12.0418 8.00055C12.0418 7.63328 12.3395 7.33555 12.7068 7.33555H14.5918V6.86533C14.5918 6.49806 14.8895 6.20033 15.2568 6.20033C15.624 6.20033 15.9218 6.49806 15.9218 6.86533V9.13533C15.9218 9.5026 15.624 9.80033 15.2568 9.80033C14.8895 9.80033 14.5918 9.5026 14.5918 9.13533Z" fill="#E5E5E5"/>
<path d="M5.24676 8.66555C5.61403 8.66555 5.91176 8.36782 5.91176 8.00055C5.91176 7.63328 5.61403 7.33555 5.24676 7.33555H3.38178V6.86533C3.38178 6.49806 3.08405 6.20033 2.71678 6.20033C2.34951 6.20033 2.05178 6.49806 2.05178 6.86533V7.99534L2.05176 8.00055L2.05178 8.00577V9.13533C2.05178 9.5026 2.34951 9.80033 2.71678 9.80033C3.08405 9.80033 3.38178 9.5026 3.38178 9.13533V8.66555H5.24676Z" fill="#E5E5E5"/>
<path d="M14.5815 4.0705C14.5815 4.43777 14.8793 4.7355 15.2465 4.7355C15.6138 4.7355 15.9115 4.43777 15.9115 4.0705V3.7405C15.9115 2.26866 14.7184 1.0755 13.2465 1.0755H12.9165C12.5493 1.0755 12.2515 1.37323 12.2515 1.7405C12.2515 2.10777 12.5493 2.4055 12.9165 2.4055H13.2465C13.9838 2.4055 14.5815 3.0032 14.5815 3.7405V4.0705Z" fill="#E5E5E5"/>
<path d="M2.06152 4.0705C2.06152 4.43777 2.35925 4.7355 2.72652 4.7355C3.09379 4.7355 3.39152 4.43777 3.39152 4.0705V3.7405C3.39152 3.0032 3.98922 2.4055 4.72652 2.4055H5.05652C5.42379 2.4055 5.72152 2.10777 5.72152 1.7405C5.72152 1.37323 5.42379 1.0755 5.05652 1.0755H4.72652C3.25468 1.0755 2.06152 2.26866 2.06152 3.7405V4.0705Z" fill="#E5E5E5"/>
<path fill-rule="evenodd" clip-rule="evenodd" d="M13.2466 13.5955C13.9839 13.5955 14.5816 12.9978 14.5816 12.2605V11.9305C14.5816 11.5633 14.8794 11.2655 15.2466 11.2655C15.6139 11.2655 15.9116 11.5633 15.9116 11.9305V12.2605C15.9116 13.7324 14.7185 14.9255 13.2466 14.9255L4.72662 14.9255C3.25478 14.9255 2.06162 13.7324 2.06162 12.2605V11.9305C2.06162 11.5633 2.35935 11.2655 2.72662 11.2655C3.09389 11.2655 3.39162 11.5633 3.39162 11.9305V12.2605C3.39162 12.9978 3.98932 13.5955 4.72662 13.5955L13.2466 13.5955Z" fill="black"/>
</svg>
