<svg width="16" height="16" viewBox="0 0 16 16" fill="none" xmlns="http://www.w3.org/2000/svg">
<g clip-path="url(#clip0_2042_157)">
<path d="M0 2C0 0.895431 0.895431 0 2 0H14C15.1046 0 16 0.895431 16 2V14C16 15.1046 15.1046 16 14 16H2C0.895431 16 0 15.1046 0 14V2Z" fill="#E5E5E5"/>
<path d="M8.00007 3.30054C8.27622 3.30054 8.50007 3.5244 8.50007 3.80054L8.50004 7.5H12.1997C12.4758 7.5 12.6997 7.72386 12.6997 8C12.6997 8.27614 12.4758 8.5 12.1997 8.5H8.50003L8.5 12.1995C8.5 12.4756 8.27614 12.6995 8 12.6995C7.72385 12.6995 7.5 12.4756 7.5 12.1995L7.50003 8.5H3.80078C3.52464 8.5 3.30078 8.27614 3.30078 8C3.30078 7.72386 3.52464 7.5 3.80078 7.5H7.50004L7.50007 3.80053C7.50007 3.52439 7.72393 3.30053 8.00007 3.30054Z" fill="black"/>
<path fill-rule="evenodd" clip-rule="evenodd" d="M2 0C0.895431 0 0 0.895431 0 2V14C0 15.1046 0.895431 16 2 16H14C15.1046 16 16 15.1046 16 14V2C16 0.895431 15.1046 0 14 0H2ZM14 1H2C1.44772 1 1 1.44772 1 2V14C1 14.5523 1.44772 15 2 15H14C14.5523 15 15 14.5523 15 14V2C15 1.44772 14.5523 1 14 1Z" fill="black"/>
</g>
<defs>
<clipPath id="clip0_2042_157">
<rect width="16" height="16" fill="white"/>
</clipPath>
</defs>
</svg>
