<svg width="17" height="16" viewBox="0 0 17 16" fill="none" xmlns="http://www.w3.org/2000/svg">
<path d="M1.98682 13.4992C1.98682 12.5603 2.74793 11.7992 3.68682 11.7992H14.2868C15.2257 11.7992 15.9868 12.5603 15.9868 13.4992V13.4992C15.9868 14.4381 15.2257 15.1992 14.2868 15.1992H3.68682C2.74793 15.1992 1.98682 14.4381 1.98682 13.4992V13.4992Z" fill="black"/>
<path fill-rule="evenodd" clip-rule="evenodd" d="M14.2868 12.4992H3.68682C3.13453 12.4992 2.68682 12.9469 2.68682 13.4992C2.68682 14.0515 3.13453 14.4992 3.68682 14.4992H14.2868C14.8391 14.4992 15.2868 14.0515 15.2868 13.4992C15.2868 12.9469 14.8391 12.4992 14.2868 12.4992ZM3.68682 11.7992C2.74793 11.7992 1.98682 12.5603 1.98682 13.4992C1.98682 14.4381 2.74793 15.1992 3.68682 15.1992H14.2868C15.2257 15.1992 15.9868 14.4381 15.9868 13.4992C15.9868 12.5603 15.2257 11.7992 14.2868 11.7992H3.68682Z" fill="#E5E5E5"/>
<path fill-rule="evenodd" clip-rule="evenodd" d="M10.3625 1.68158C9.89295 0.400416 8.08097 0.400404 7.61143 1.68158L4.6614 9.73095C4.53502 10.0758 4.71211 10.4578 5.05695 10.5842C5.40179 10.7106 5.78379 10.5335 5.91017 10.1886L7.04273 7.09836C7.06527 7.10067 7.08814 7.10185 7.11129 7.10185H10.9325L12.0637 10.1886C12.1901 10.5335 12.5721 10.7106 12.917 10.5842C13.2618 10.4578 13.4389 10.0758 13.3125 9.73095L10.3625 1.68158ZM10.445 5.77185L9.11371 2.13925C9.09906 2.09927 9.08044 2.0821 9.06557 2.07231C9.04703 2.0601 9.01973 2.0507 8.98696 2.0507C8.95418 2.0507 8.92689 2.0601 8.90835 2.07231C8.89348 2.0821 8.87486 2.09926 8.8602 2.13925L7.52888 5.77185H10.445Z" fill="black"/>
</svg>
