<svg width="16" height="16" viewBox="0 0 16 16" fill="none" xmlns="http://www.w3.org/2000/svg">
<path d="M12.3499 1.65002H3.6499C2.54533 1.65002 1.6499 2.54545 1.6499 3.65002V12.35C1.6499 13.4546 2.54533 14.35 3.6499 14.35H12.3499C13.4545 14.35 14.3499 13.4546 14.3499 12.35V3.65002C14.3499 2.54545 13.4545 1.65002 12.3499 1.65002Z" stroke="black" stroke-width="1.33"/>
<path d="M12.167 5.83957C12.454 6.00519 12.5524 6.37212 12.3868 6.65913C12.2123 6.9616 11.9923 7.27792 11.6694 7.56196L12.509 8.40157C12.7433 8.63589 12.7433 9.01578 12.509 9.2501C12.2747 9.48441 11.8948 9.48441 11.6605 9.2501L10.6361 8.22567C10.3702 8.34988 10.0855 8.45488 9.78656 8.53892L10.0934 9.68417C10.1792 10.0043 9.98924 10.3333 9.66916 10.419C9.34908 10.5048 9.02008 10.3148 8.93431 9.99475L8.60156 8.75286C8.40348 8.77016 8.20221 8.779 7.99874 8.779C7.79375 8.779 7.59099 8.77002 7.39147 8.75247L7.05861 9.99477C6.97285 10.3148 6.64385 10.5048 6.32377 10.419C6.00369 10.3333 5.81374 10.0043 5.8995 9.68419L6.20668 8.53772C5.90996 8.45408 5.62737 8.34977 5.36327 8.22653L4.3397 9.25012C4.10538 9.48443 3.72548 9.48444 3.49117 9.25012C3.25685 9.01581 3.25685 8.63591 3.49116 8.40159L4.32952 7.56324C4.00223 7.27553 3.79738 6.96375 3.619 6.67312C3.44566 6.39071 3.53408 6.02124 3.81649 5.8479C4.09891 5.67455 4.46837 5.76297 4.64172 6.04539C4.8084 6.31695 4.93872 6.50321 5.13015 6.66926C5.73689 7.19558 6.77246 7.579 7.99874 7.579C9.22501 7.579 10.2606 7.19559 10.8673 6.66927C11.0629 6.49964 11.2087 6.29982 11.3474 6.05938C11.5131 5.77236 11.88 5.67395 12.167 5.83957Z" fill="#E5E5E5"/>
</svg>
