<svg width="17" height="16" viewBox="0 0 17 16" fill="none" xmlns="http://www.w3.org/2000/svg">
<path fill-rule="evenodd" clip-rule="evenodd" d="M2.07178 7.99935C2.07178 7.63208 2.36951 7.33435 2.73678 7.33435H15.2568C15.624 7.33435 15.9218 7.63208 15.9218 7.99935C15.9218 8.36662 15.624 8.66435 15.2568 8.66435H2.73678C2.36951 8.66435 2.07178 8.36662 2.07178 7.99935Z" fill="black"/>
<path d="M7.18676 1.72958C7.18676 1.36231 7.48449 1.06458 7.85176 1.06458H10.1218C10.489 1.06458 10.7868 1.36231 10.7868 1.72958C10.7868 2.09684 10.489 2.39458 10.1218 2.39458H9.66203V4.28033C9.66203 4.6476 9.3643 4.94533 8.99703 4.94533C8.62976 4.94533 8.33203 4.6476 8.33203 4.28033V2.39458H7.85176C7.48449 2.39458 7.18676 2.09684 7.18676 1.72958Z" fill="#E5E5E5"/>
<path d="M2.71676 6.19957C3.08403 6.19957 3.38176 6.4973 3.38176 6.86457V9.13457C3.38176 9.50184 3.08403 9.79957 2.71676 9.79957C2.34949 9.79957 2.05176 9.50184 2.05176 9.13457V6.86457C2.05176 6.4973 2.34949 6.19957 2.71676 6.19957Z" fill="#E5E5E5"/>
<path d="M15.2568 6.19957C15.624 6.19957 15.9218 6.4973 15.9218 6.86457V9.13457C15.9218 9.50184 15.624 9.79957 15.2568 9.79957C14.8895 9.79957 14.5918 9.50184 14.5918 9.13457V6.86457C14.5918 6.4973 14.8895 6.19957 15.2568 6.19957Z" fill="#E5E5E5"/>
<path d="M7.18676 14.2696C7.18676 13.9023 7.48449 13.6046 7.85176 13.6046H8.33203V11.7403C8.33203 11.3731 8.62976 11.0753 8.99703 11.0753C9.3643 11.0753 9.66203 11.3731 9.66203 11.7403V13.6046H10.1218C10.489 13.6046 10.7868 13.9023 10.7868 14.2696C10.7868 14.6368 10.489 14.9346 10.1218 14.9346H9.02895C9.01837 14.9351 9.00773 14.9353 8.99703 14.9353C8.98633 14.9353 8.97569 14.9351 8.96511 14.9346H7.85176C7.48449 14.9346 7.18676 14.6368 7.18676 14.2696Z" fill="#E5E5E5"/>
<path d="M4.72701 2.40434C3.98971 2.40434 3.39201 3.00204 3.39201 3.73934V4.06934C3.39201 4.43661 3.09428 4.73434 2.72701 4.73434C2.35974 4.73434 2.06201 4.43661 2.06201 4.06934V3.73934C2.06201 2.2675 3.25517 1.07434 4.72701 1.07434H5.05701C5.42428 1.07434 5.72201 1.37207 5.72201 1.73934C5.72201 2.10661 5.42428 2.40434 5.05701 2.40434H4.72701Z" fill="#E5E5E5"/>
<path d="M12.252 1.73934C12.252 1.37207 12.5497 1.07434 12.917 1.07434H13.247C14.7189 1.07434 15.912 2.2675 15.912 3.73934V4.06934C15.912 4.43661 15.6143 4.73434 15.247 4.73434C14.8797 4.73434 14.582 4.43661 14.582 4.06934V3.73934C14.582 3.00204 13.9843 2.40434 13.247 2.40434H12.917C12.5497 2.40434 12.252 2.10661 12.252 1.73934Z" fill="#E5E5E5"/>
<path d="M2.72701 11.2643C3.09428 11.2643 3.39201 11.5621 3.39201 11.9293V12.2593C3.39201 12.9966 3.98971 13.5943 4.72701 13.5943H5.05701C5.42428 13.5943 5.72201 13.8921 5.72201 14.2593C5.72201 14.6266 5.42428 14.9243 5.05701 14.9243H4.72701C3.25517 14.9243 2.06201 13.7312 2.06201 12.2593V11.9293C2.06201 11.5621 2.35974 11.2643 2.72701 11.2643Z" fill="#E5E5E5"/>
<path d="M15.247 11.2643C15.6143 11.2643 15.912 11.5621 15.912 11.9293V12.2593C15.912 13.7312 14.7189 14.9243 13.247 14.9243H12.917C12.5497 14.9243 12.252 14.6266 12.252 14.2593C12.252 13.8921 12.5497 13.5943 12.917 13.5943H13.247C13.9843 13.5943 14.582 12.9966 14.582 12.2593V11.9293C14.582 11.5621 14.8797 11.2643 15.247 11.2643Z" fill="#E5E5E5"/>
</svg>
