<svg width="17" height="16" viewBox="0 0 17 16" fill="none" xmlns="http://www.w3.org/2000/svg">
<path d="M9.65227 1.73995C9.65227 1.37268 9.35454 1.07495 8.98727 1.07495C8.62 1.07495 8.32227 1.37268 8.32227 1.73995V7.32397H2.72701C2.35974 7.32397 2.06201 7.62171 2.06201 7.98897C2.06201 8.35624 2.35974 8.65397 2.72701 8.65397H8.32227V14.26C8.32227 14.6272 8.62 14.925 8.98727 14.925C9.35454 14.925 9.65227 14.6272 9.65227 14.26V8.65397H15.247C15.6143 8.65397 15.912 8.35624 15.912 7.98897C15.912 7.62171 15.6143 7.32397 15.247 7.32397H9.65227V1.73995Z" fill="black"/>
<path d="M7.85176 1.06494C7.48449 1.06494 7.18676 1.36267 7.18676 1.72994C7.18676 2.09721 7.48449 2.39494 7.85176 2.39494H10.1218C10.489 2.39494 10.7868 2.09721 10.7868 1.72994C10.7868 1.36267 10.489 1.06494 10.1218 1.06494H7.85176Z" fill="#E5E5E5"/>
<path d="M3.38176 6.86494C3.38176 6.49767 3.08403 6.19994 2.71676 6.19994C2.34949 6.19994 2.05176 6.49767 2.05176 6.86494V9.13494C2.05176 9.50221 2.34949 9.79994 2.71676 9.79994C3.08403 9.79994 3.38176 9.50221 3.38176 9.13494V6.86494Z" fill="#E5E5E5"/>
<path d="M15.9218 6.86494C15.9218 6.49767 15.624 6.19994 15.2568 6.19994C14.8895 6.19994 14.5918 6.49767 14.5918 6.86494V9.13494C14.5918 9.50221 14.8895 9.79994 15.2568 9.79994C15.624 9.79994 15.9218 9.50221 15.9218 9.13494V6.86494Z" fill="#E5E5E5"/>
<path d="M7.85176 13.6049C7.48449 13.6049 7.18676 13.9027 7.18676 14.2699C7.18676 14.6372 7.48449 14.9349 7.85176 14.9349H10.1218C10.489 14.9349 10.7868 14.6372 10.7868 14.2699C10.7868 13.9027 10.489 13.6049 10.1218 13.6049H7.85176Z" fill="#E5E5E5"/>
<path d="M3.39201 3.73971C3.39201 3.00241 3.98971 2.40471 4.72701 2.40471H5.05701C5.42428 2.40471 5.72201 2.10698 5.72201 1.73971C5.72201 1.37244 5.42428 1.07471 5.05701 1.07471H4.72701C3.25517 1.07471 2.06201 2.26787 2.06201 3.73971V4.06971C2.06201 4.43698 2.35974 4.73471 2.72701 4.73471C3.09428 4.73471 3.39201 4.43698 3.39201 4.06971V3.73971Z" fill="#E5E5E5"/>
<path d="M12.917 1.07471C12.5497 1.07471 12.252 1.37244 12.252 1.73971C12.252 2.10698 12.5497 2.40471 12.917 2.40471H13.247C13.9843 2.40471 14.582 3.00241 14.582 3.73971V4.06971C14.582 4.43698 14.8797 4.73471 15.247 4.73471C15.6143 4.73471 15.912 4.43698 15.912 4.06971V3.73971C15.912 2.26787 14.7189 1.07471 13.247 1.07471H12.917Z" fill="#E5E5E5"/>
<path d="M3.39201 11.9297C3.39201 11.5624 3.09428 11.2647 2.72701 11.2647C2.35974 11.2647 2.06201 11.5624 2.06201 11.9297V12.2597C2.06201 13.7315 3.25517 14.9247 4.72701 14.9247H5.05701C5.42428 14.9247 5.72201 14.627 5.72201 14.2597C5.72201 13.8924 5.42428 13.5947 5.05701 13.5947H4.72701C3.98971 13.5947 3.39201 12.997 3.39201 12.2597V11.9297Z" fill="#E5E5E5"/>
<path d="M15.912 11.9297C15.912 11.5624 15.6143 11.2647 15.247 11.2647C14.8797 11.2647 14.582 11.5624 14.582 11.9297V12.2597C14.582 12.997 13.9843 13.5947 13.247 13.5947H12.917C12.5497 13.5947 12.252 13.8924 12.252 14.2597C12.252 14.627 12.5497 14.9247 12.917 14.9247H13.247C14.7189 14.9247 15.912 13.7315 15.912 12.2597V11.9297Z" fill="#E5E5E5"/>
</svg>
