<svg width="17" height="16" viewBox="0 0 17 16" fill="none" xmlns="http://www.w3.org/2000/svg">
<path d="M9.65129 11.7199V13.605H10.1213C10.4885 13.605 10.7863 13.9027 10.7863 14.27C10.7863 14.6372 10.4885 14.935 10.1213 14.935H7.85127C7.484 14.935 7.18627 14.6372 7.18627 14.27C7.18627 13.9027 7.484 13.605 7.85127 13.605H8.32129V11.7199C8.32129 11.3527 8.61902 11.0549 8.98629 11.0549C9.35356 11.0549 9.65129 11.3527 9.65129 11.7199Z" fill="#E5E5E5"/>
<path d="M8.32129 4.25994C8.32129 4.62721 8.61902 4.92494 8.98629 4.92494C9.35356 4.92494 9.65129 4.62721 9.65129 4.25994V2.39496H10.1213C10.4885 2.39496 10.7863 2.09723 10.7863 1.72996C10.7863 1.36269 10.4885 1.06496 10.1213 1.06496H8.9915L8.98629 1.06494L8.98107 1.06496H7.85127C7.484 1.06496 7.18627 1.36269 7.18627 1.72996C7.18627 2.09723 7.484 2.39496 7.85127 2.39496H8.32129V4.25994Z" fill="#E5E5E5"/>
<path d="M3.38127 6.86497V7.32518H5.26727C5.63454 7.32518 5.93227 7.62291 5.93227 7.99018C5.93227 8.35745 5.63454 8.65518 5.26727 8.65518H3.38127V9.13496C3.38127 9.50223 3.08354 9.79996 2.71627 9.79996C2.349 9.79996 2.05127 9.50223 2.05127 9.13496V6.86497C2.05127 6.4977 2.349 6.19997 2.71627 6.19997C3.08354 6.19997 3.38127 6.4977 3.38127 6.86497Z" fill="#E5E5E5"/>
<path d="M12.7273 7.32518C12.36 7.32518 12.0623 7.62291 12.0623 7.99018C12.0623 8.35745 12.36 8.65518 12.7273 8.65518H14.5913V9.13496C14.5913 9.50223 14.889 9.79996 15.2563 9.79996C15.6235 9.79996 15.9213 9.50223 15.9213 9.13496V8.0269C15.9219 8.01474 15.9223 8.0025 15.9223 7.99018C15.9223 7.97786 15.9219 7.96561 15.9213 7.95346V6.86497C15.9213 6.4977 15.6235 6.19997 15.2563 6.19997C14.889 6.19997 14.5913 6.4977 14.5913 6.86497V7.32518H12.7273Z" fill="#E5E5E5"/>
<path d="M12.9165 13.5947C12.5492 13.5947 12.2515 13.8924 12.2515 14.2597C12.2515 14.627 12.5492 14.9247 12.9165 14.9247H13.2465C14.7183 14.9247 15.9115 13.7315 15.9115 12.2597V11.9297C15.9115 11.5624 15.6137 11.2647 15.2465 11.2647C14.8792 11.2647 14.5815 11.5624 14.5815 11.9297V12.2597C14.5815 12.997 13.9838 13.5947 13.2465 13.5947H12.9165Z" fill="#E5E5E5"/>
<path d="M12.9165 1.07471C12.5492 1.07471 12.2515 1.37244 12.2515 1.73971C12.2515 2.10698 12.5492 2.40471 12.9165 2.40471H13.2465C13.9838 2.40471 14.5815 3.00241 14.5815 3.73971V4.0697C14.5815 4.43697 14.8792 4.7347 15.2465 4.7347C15.6137 4.7347 15.9115 4.43697 15.9115 4.0697V3.73971C15.9115 2.26787 14.7183 1.07471 13.2465 1.07471H12.9165Z" fill="#E5E5E5"/>
<path fill-rule="evenodd" clip-rule="evenodd" d="M3.39104 12.2597C3.39104 12.997 3.98873 13.5947 4.72603 13.5947H5.05604C5.42331 13.5947 5.72104 13.8924 5.72104 14.2597C5.72104 14.627 5.42331 14.9247 5.05604 14.9247H4.72603C3.2542 14.9247 2.06104 13.7315 2.06104 12.2597L2.06104 3.73968C2.06104 2.26784 3.2542 1.07468 4.72603 1.07468H5.05604C5.42331 1.07468 5.72104 1.37241 5.72104 1.73968C5.72104 2.10695 5.42331 2.40468 5.05604 2.40468H4.72603C3.98873 2.40468 3.39104 3.00238 3.39104 3.73968L3.39104 12.2597Z" fill="black"/>
</svg>
