<svg width="18" height="18" viewBox="0 0 18 18" fill="none" xmlns="http://www.w3.org/2000/svg">
<path fill-rule="evenodd" clip-rule="evenodd" d="M0.321777 2.99996C0.321777 1.52812 1.51494 0.334961 2.98678 0.334961H14.9868C16.4586 0.334961 17.6518 1.52812 17.6518 2.99996V15C17.6518 16.4718 16.4586 17.665 14.9868 17.665H2.98678C1.51494 17.665 0.321777 16.4718 0.321777 15V2.99996ZM2.98678 1.66496C2.24948 1.66496 1.65178 2.26266 1.65178 2.99996V15C1.65178 15.7373 2.24948 16.335 2.98678 16.335H14.9868C15.7241 16.335 16.3218 15.7373 16.3218 15V2.99996C16.3218 2.26266 15.7241 1.66496 14.9868 1.66496H2.98678Z" fill="black"/>
<path fill-rule="evenodd" clip-rule="evenodd" d="M1.09181 1.10521C1.35151 0.845515 1.77256 0.845515 2.03226 1.10521L16.8815 15.9545C17.1412 16.2142 17.1412 16.6352 16.8815 16.8949C16.6218 17.1546 16.2007 17.1546 15.9411 16.8949L1.09181 2.04567C0.832109 1.78597 0.832109 1.36491 1.09181 1.10521Z" fill="#E5E5E5"/>
</svg>
