<svg width="17" height="16" viewBox="0 0 17 16" fill="none" xmlns="http://www.w3.org/2000/svg">
<path fill-rule="evenodd" clip-rule="evenodd" d="M4.72652 2.40507C3.98922 2.40507 3.39152 3.00277 3.39152 3.74007V12.2601C3.39152 12.9974 3.98922 13.5951 4.72652 13.5951H13.2465C13.9838 13.5951 14.5815 12.9974 14.5815 12.2601V3.74007C14.5815 3.00277 13.9838 2.40507 13.2465 2.40507H4.72652ZM2.06152 3.74007C2.06152 2.26823 3.25468 1.07507 4.72652 1.07507H13.2465C14.7184 1.07507 15.9115 2.26823 15.9115 3.74007V12.2601C15.9115 13.7319 14.7184 14.9251 13.2465 14.9251H4.72652C3.25468 14.9251 2.06152 13.7319 2.06152 12.2601V3.74007Z" fill="black"/>
<path d="M9.65178 1.73995C9.65178 1.37268 9.35405 1.07495 8.98678 1.07495C8.61951 1.07495 8.32178 1.37268 8.32178 1.73995V4.26995C8.32178 4.63722 8.61951 4.93495 8.98678 4.93495C9.35405 4.93495 9.65178 4.63722 9.65178 4.26995V1.73995Z" fill="#E5E5E5"/>
<path d="M9.65178 11.73C9.65178 11.3627 9.35405 11.065 8.98678 11.065C8.61951 11.065 8.32178 11.3627 8.32178 11.73V14.26C8.32178 14.6272 8.61951 14.925 8.98678 14.925C9.35405 14.925 9.65178 14.6272 9.65178 14.26V11.73Z" fill="#E5E5E5"/>
<path d="M2.72701 7.32397C2.35974 7.32397 2.06201 7.62171 2.06201 7.98897C2.06201 8.35624 2.35974 8.65397 2.72701 8.65397H5.25701C5.62428 8.65397 5.92201 8.35624 5.92201 7.98897C5.92201 7.62171 5.62428 7.32397 5.25701 7.32397H2.72701Z" fill="#E5E5E5"/>
<path d="M12.717 7.32397C12.3497 7.32397 12.052 7.62171 12.052 7.98897C12.052 8.35624 12.3497 8.65397 12.717 8.65397H15.247C15.6143 8.65397 15.912 8.35624 15.912 7.98897C15.912 7.62171 15.6143 7.32397 15.247 7.32397H12.717Z" fill="#E5E5E5"/>
</svg>
