<svg width="17" height="16" viewBox="0 0 17 16" fill="none" xmlns="http://www.w3.org/2000/svg">
<path fill-rule="evenodd" clip-rule="evenodd" d="M7.9669 1.32052C8.77334 0.514089 10.0808 0.514091 10.8873 1.32052L12.9684 3.40162C13.7748 4.20805 13.7748 5.51554 12.9683 6.32197L9.41047 9.87985C8.60404 10.6863 7.29655 10.6863 6.49012 9.87985L4.40902 7.79875C3.60259 6.99232 3.60259 5.68483 4.40902 4.8784L7.9669 1.32052ZM9.9468 2.26098C9.65977 1.97394 9.19439 1.97394 8.90735 2.26097L5.376 5.79233L10.7598 6.64966L12.0279 5.38152C12.3149 5.09448 12.3149 4.62911 12.0279 4.34207L9.9468 2.26098Z" fill="black"/>
<path d="M13.6069 10.3995C14.1099 10.3995 14.5177 9.99175 14.5177 9.48875C14.5177 9.1773 14.1685 8.59965 13.9025 8.20486C13.759 7.99176 13.4548 7.99177 13.3112 8.20487C13.0453 8.59966 12.6961 9.1773 12.6961 9.48875C12.6961 9.99175 13.1039 10.3995 13.6069 10.3995Z" fill="black"/>
<path d="M1.98682 13.4992C1.98682 12.5603 2.74793 11.7992 3.68682 11.7992H14.2868C15.2257 11.7992 15.9868 12.5603 15.9868 13.4992V13.4992C15.9868 14.4381 15.2257 15.1992 14.2868 15.1992H3.68682C2.74793 15.1992 1.98682 14.4381 1.98682 13.4992V13.4992Z" fill="black"/>
<path fill-rule="evenodd" clip-rule="evenodd" d="M14.2868 12.4992H3.68682C3.13453 12.4992 2.68682 12.9469 2.68682 13.4992C2.68682 14.0515 3.13453 14.4992 3.68682 14.4992H14.2868C14.8391 14.4992 15.2868 14.0515 15.2868 13.4992C15.2868 12.9469 14.8391 12.4992 14.2868 12.4992ZM3.68682 11.7992C2.74793 11.7992 1.98682 12.5603 1.98682 13.4992C1.98682 14.4381 2.74793 15.1992 3.68682 15.1992H14.2868C15.2257 15.1992 15.9868 14.4381 15.9868 13.4992C15.9868 12.5603 15.2257 11.7992 14.2868 11.7992H3.68682Z" fill="#E5E5E5"/>
</svg>
