<svg width="17" height="16" viewBox="0 0 17 16" fill="none" xmlns="http://www.w3.org/2000/svg">
<path d="M15.2573 6.19994C15.6245 6.19994 15.9223 6.49767 15.9223 6.86494V9.13494C15.9223 9.50221 15.6245 9.79994 15.2573 9.79994C14.89 9.79994 14.5923 9.50221 14.5923 9.13494V8.67473H12.7063C12.339 8.67473 12.0413 8.377 12.0413 8.00973C12.0413 7.64246 12.339 7.34473 12.7063 7.34473H14.5923V6.86494C14.5923 6.49767 14.89 6.19994 15.2573 6.19994Z" fill="#E5E5E5"/>
<path d="M10.7873 1.72994C10.7873 2.09721 10.4895 2.39494 10.1223 2.39494H9.65225V4.27996C9.65225 4.64723 9.35452 4.94496 8.98725 4.94496C8.61998 4.94496 8.32225 4.64723 8.32225 4.27996V2.39494H7.85227C7.485 2.39494 7.18727 2.09721 7.18727 1.72994C7.18727 1.36267 7.485 1.06494 7.85227 1.06494H10.1223C10.4895 1.06494 10.7873 1.36267 10.7873 1.72994Z" fill="#E5E5E5"/>
<path d="M10.7873 14.2699C10.7873 14.6372 10.4895 14.9349 10.1223 14.9349H8.99246L8.98725 14.935L8.98203 14.9349H7.85227C7.485 14.9349 7.18727 14.6372 7.18727 14.2699C7.18727 13.9027 7.485 13.6049 7.85227 13.6049H8.32225V11.74C8.32225 11.3727 8.61998 11.075 8.98725 11.075C9.35452 11.075 9.65225 11.3727 9.65225 11.74V13.6049H10.1223C10.4895 13.6049 10.7873 13.9027 10.7873 14.2699Z" fill="#E5E5E5"/>
<path d="M2.71727 6.19994C3.08454 6.19994 3.38227 6.49767 3.38227 6.86494V7.34473H5.24627C5.61354 7.34473 5.91127 7.64246 5.91127 8.00973C5.91127 8.377 5.61354 8.67473 5.24627 8.67473H3.38227V9.13494C3.38227 9.50221 3.08454 9.79994 2.71727 9.79994C2.35 9.79994 2.05227 9.50221 2.05227 9.13494V8.04645C2.0516 8.03429 2.05127 8.02205 2.05127 8.00973C2.05127 7.99741 2.0516 7.98516 2.05227 7.97301V6.86494C2.05227 6.49767 2.35 6.19994 2.71727 6.19994Z" fill="#E5E5E5"/>
<path d="M5.05707 2.4052C5.42434 2.4052 5.72207 2.10746 5.72207 1.7402C5.72207 1.37293 5.42434 1.0752 5.05707 1.0752H4.72707C3.25523 1.0752 2.06207 2.26836 2.06207 3.74019V4.0702C2.06207 4.43747 2.3598 4.7352 2.72707 4.7352C3.09434 4.7352 3.39207 4.43747 3.39207 4.0702V3.74019C3.39207 3.00289 3.98977 2.4052 4.72707 2.4052H5.05707Z" fill="#E5E5E5"/>
<path d="M5.05707 14.9252C5.42434 14.9252 5.72207 14.6275 5.72207 14.2602C5.72207 13.8929 5.42434 13.5952 5.05707 13.5952H4.72707C3.98977 13.5952 3.39207 12.9975 3.39207 12.2602V11.9302C3.39207 11.5629 3.09434 11.2652 2.72707 11.2652C2.3598 11.2652 2.06207 11.5629 2.06207 11.9302V12.2602C2.06207 13.732 3.25523 14.9252 4.72707 14.9252H5.05707Z" fill="#E5E5E5"/>
<path fill-rule="evenodd" clip-rule="evenodd" d="M14.5826 3.74019C14.5826 3.00289 13.9849 2.4052 13.2476 2.4052H12.9176C12.5503 2.4052 12.2526 2.10746 12.2526 1.7402C12.2526 1.37293 12.5503 1.0752 12.9176 1.0752H13.2476C14.7194 1.0752 15.9126 2.26836 15.9126 3.74019V12.2602C15.9126 13.732 14.7194 14.9252 13.2476 14.9252H12.9176C12.5503 14.9252 12.2526 14.6275 12.2526 14.2602C12.2526 13.8929 12.5503 13.5952 12.9176 13.5952H13.2476C13.9849 13.5952 14.5826 12.9975 14.5826 12.2602V3.74019Z" fill="black"/>
</svg>
