<svg width="17" height="16" viewBox="0 0 17 16" fill="none" xmlns="http://www.w3.org/2000/svg">
<path d="M7.18676 1.72958C7.18676 1.36231 7.48449 1.06458 7.85176 1.06458H10.1218C10.489 1.06458 10.7868 1.36231 10.7868 1.72958C10.7868 2.09684 10.489 2.39458 10.1218 2.39458H9.66154V4.28033C9.66154 4.6476 9.36381 4.94533 8.99654 4.94533C8.62927 4.94533 8.33154 4.6476 8.33154 4.28033V2.39458H7.85176C7.48449 2.39458 7.18676 2.09684 7.18676 1.72958Z" fill="#E5E5E5"/>
<path d="M2.71676 6.19957C3.08403 6.19957 3.38176 6.4973 3.38176 6.86457V7.33435H5.26678C5.63405 7.33435 5.93178 7.63208 5.93178 7.99935C5.93178 8.36662 5.63405 8.66435 5.26678 8.66435H3.38176V9.13457C3.38176 9.50184 3.08403 9.79957 2.71676 9.79957C2.34949 9.79957 2.05176 9.50184 2.05176 9.13457V6.86457C2.05176 6.4973 2.34949 6.19957 2.71676 6.19957Z" fill="#E5E5E5"/>
<path d="M15.2568 6.19957C15.624 6.19957 15.9218 6.4973 15.9218 6.86457V7.99413L15.9218 7.99935L15.9218 8.00457V9.13457C15.9218 9.50184 15.624 9.79957 15.2568 9.79957C14.8895 9.79957 14.5918 9.50184 14.5918 9.13457V8.66435H12.7268C12.3595 8.66435 12.0618 8.36662 12.0618 7.99935C12.0618 7.63208 12.3595 7.33435 12.7268 7.33435H14.5918V6.86457C14.5918 6.4973 14.8895 6.19957 15.2568 6.19957Z" fill="#E5E5E5"/>
<path d="M7.18676 14.2696C7.18676 13.9023 7.48449 13.6046 7.85176 13.6046H8.33154V11.7403C8.33154 11.3731 8.62927 11.0753 8.99654 11.0753C9.36381 11.0753 9.66154 11.3731 9.66154 11.7403V13.6046H10.1218C10.489 13.6046 10.7868 13.9023 10.7868 14.2696C10.7868 14.6368 10.489 14.9346 10.1218 14.9346H9.02846C9.01788 14.9351 9.00724 14.9353 8.99654 14.9353C8.98584 14.9353 8.9752 14.9351 8.96463 14.9346H7.85176C7.48449 14.9346 7.18676 14.6368 7.18676 14.2696Z" fill="#E5E5E5"/>
<path d="M3.39201 11.9294C3.39201 11.5621 3.09428 11.2644 2.72701 11.2644C2.35974 11.2644 2.06201 11.5621 2.06201 11.9294V12.2594C2.06201 13.7312 3.25517 14.9244 4.72701 14.9244H5.05701C5.42428 14.9244 5.72201 14.6267 5.72201 14.2594C5.72201 13.8921 5.42428 13.5944 5.05701 13.5944H4.72701C3.98971 13.5944 3.39201 12.9967 3.39201 12.2594V11.9294Z" fill="#E5E5E5"/>
<path d="M15.912 11.9294C15.912 11.5621 15.6143 11.2644 15.247 11.2644C14.8797 11.2644 14.582 11.5621 14.582 11.9294V12.2594C14.582 12.9967 13.9843 13.5944 13.247 13.5944H12.917C12.5497 13.5944 12.252 13.8921 12.252 14.2594C12.252 14.6267 12.5497 14.9244 12.917 14.9244H13.247C14.7189 14.9244 15.912 13.7312 15.912 12.2594V11.9294Z" fill="#E5E5E5"/>
<path fill-rule="evenodd" clip-rule="evenodd" d="M4.72701 2.40434C3.98971 2.40434 3.39201 3.00204 3.39201 3.73934V4.06934C3.39201 4.43661 3.09428 4.73434 2.72701 4.73434C2.35974 4.73434 2.06201 4.43661 2.06201 4.06934V3.73934C2.06201 2.2675 3.25517 1.07434 4.72701 1.07434H13.247C14.7189 1.07434 15.912 2.2675 15.912 3.73934V4.06934C15.912 4.43661 15.6143 4.73434 15.247 4.73434C14.8797 4.73434 14.582 4.43661 14.582 4.06934V3.73934C14.582 3.00204 13.9843 2.40434 13.247 2.40434H4.72701Z" fill="black"/>
</svg>
