<svg width="17" height="16" viewBox="0 0 17 16" fill="none" xmlns="http://www.w3.org/2000/svg">
<path fill-rule="evenodd" clip-rule="evenodd" d="M8.98629 14.9149C8.61902 14.9149 8.32129 14.6172 8.32129 14.2499V1.72992C8.32129 1.36265 8.61902 1.06492 8.98629 1.06492C9.35356 1.06492 9.65129 1.36265 9.65129 1.72992V14.2499C9.65129 14.6172 9.35356 14.9149 8.98629 14.9149Z" fill="black"/>
<path d="M2.71627 9.79994C2.349 9.79994 2.05127 9.50221 2.05127 9.13494V6.86495C2.05127 6.49768 2.349 6.19995 2.71627 6.19995C3.08354 6.19995 3.38127 6.49768 3.38127 6.86495V7.32516H5.26727C5.63454 7.32516 5.93227 7.62289 5.93227 7.99016C5.93227 8.35743 5.63454 8.65516 5.26727 8.65516H3.38127V9.13494C3.38127 9.50221 3.08354 9.79994 2.71627 9.79994Z" fill="#E5E5E5"/>
<path d="M7.18627 14.2699C7.18627 13.9027 7.484 13.6049 7.85127 13.6049H10.1213C10.4885 13.6049 10.7863 13.9027 10.7863 14.2699C10.7863 14.6372 10.4885 14.9349 10.1213 14.9349H7.85127C7.484 14.9349 7.18627 14.6372 7.18627 14.2699Z" fill="#E5E5E5"/>
<path d="M7.18627 1.72994C7.18627 1.36267 7.484 1.06494 7.85127 1.06494H10.1213C10.4885 1.06494 10.7863 1.36267 10.7863 1.72994C10.7863 2.09721 10.4885 2.39494 10.1213 2.39494H7.85127C7.484 2.39494 7.18627 2.09721 7.18627 1.72994Z" fill="#E5E5E5"/>
<path d="M15.2563 9.79994C14.889 9.79994 14.5913 9.50221 14.5913 9.13494V8.65516H12.7273C12.36 8.65516 12.0623 8.35743 12.0623 7.99016C12.0623 7.62289 12.36 7.32516 12.7273 7.32516H14.5913V6.86495C14.5913 6.49768 14.889 6.19995 15.2563 6.19995C15.6235 6.19995 15.9213 6.49768 15.9213 6.86495V7.95344C15.9219 7.96559 15.9223 7.97784 15.9223 7.99016C15.9223 8.00248 15.9219 8.01472 15.9213 8.02688V9.13494C15.9213 9.50221 15.6235 9.79994 15.2563 9.79994Z" fill="#E5E5E5"/>
<path d="M3.39104 12.2597C3.39104 12.997 3.98873 13.5947 4.72603 13.5947H5.05604C5.42331 13.5947 5.72104 13.8924 5.72104 14.2597C5.72104 14.627 5.42331 14.9247 5.05604 14.9247H4.72603C3.2542 14.9247 2.06104 13.7315 2.06104 12.2597V11.9297C2.06104 11.5624 2.35877 11.2647 2.72604 11.2647C3.0933 11.2647 3.39104 11.5624 3.39104 11.9297V12.2597Z" fill="#E5E5E5"/>
<path d="M2.72604 4.73468C2.35877 4.73468 2.06104 4.43695 2.06104 4.06968V3.73969C2.06104 2.26785 3.2542 1.07469 4.72603 1.07469H5.05604C5.42331 1.07469 5.72104 1.37242 5.72104 1.73969C5.72104 2.10696 5.42331 2.40469 5.05604 2.40469H4.72603C3.98873 2.40469 3.39104 3.00239 3.39104 3.73969V4.06968C3.39104 4.43695 3.0933 4.73468 2.72604 4.73468Z" fill="#E5E5E5"/>
<path d="M12.251 14.2597C12.251 13.8924 12.5488 13.5947 12.916 13.5947H13.246C13.9833 13.5947 14.581 12.997 14.581 12.2597V11.9297C14.581 11.5624 14.8788 11.2647 15.246 11.2647C15.6133 11.2647 15.911 11.5624 15.911 11.9297V12.2597C15.911 13.7315 14.7179 14.9247 13.246 14.9247H12.916C12.5488 14.9247 12.251 14.627 12.251 14.2597Z" fill="#E5E5E5"/>
<path d="M12.251 1.73969C12.251 1.37242 12.5488 1.07469 12.916 1.07469H13.246C14.7179 1.07469 15.911 2.26785 15.911 3.73969V4.06968C15.911 4.43695 15.6133 4.73468 15.246 4.73468C14.8788 4.73468 14.581 4.43695 14.581 4.06968V3.73969C14.581 3.00239 13.9833 2.40469 13.246 2.40469H12.916C12.5488 2.40469 12.251 2.10696 12.251 1.73969Z" fill="#E5E5E5"/>
</svg>
