<svg width="17" height="17" viewBox="0 0 17 17" fill="none" xmlns="http://www.w3.org/2000/svg">
<mask id="mask0_331_1071" style="mask-type:alpha" maskUnits="userSpaceOnUse" x="0" y="0" width="17" height="17">
<rect x="0.52417" y="0.426758" width="16" height="16" fill="#DCDCDC"/>
</mask>
<g mask="url(#mask0_331_1071)">
<path fill-rule="evenodd" clip-rule="evenodd" d="M8.52417 12.9268C11.0095 12.9268 13.0242 10.912 13.0242 8.42676C13.0242 5.94148 11.0095 3.92676 8.52417 3.92676C6.03889 3.92676 4.02417 5.94148 4.02417 8.42676C4.02417 10.912 6.03889 12.9268 8.52417 12.9268ZM8.52417 15.4268C12.3902 15.4268 15.5242 12.2928 15.5242 8.42676C15.5242 4.56076 12.3902 1.42676 8.52417 1.42676C4.65818 1.42676 1.52417 4.56076 1.52417 8.42676C1.52417 12.2928 4.65818 15.4268 8.52417 15.4268Z" fill="#CCE6FF"/>
<path fill-rule="evenodd" clip-rule="evenodd" d="M7.31722 2.68115C7.31722 1.9908 7.87687 1.43115 8.56722 1.43115C12.4308 1.43115 15.5628 4.5632 15.5628 8.42677C15.5628 12.2903 12.4308 15.4224 8.56722 15.4224C6.789 15.4224 5.16309 14.7573 3.9294 13.6642C3.4127 13.2063 3.36497 12.4163 3.8228 11.8996C4.28063 11.3829 5.07065 11.3352 5.58735 11.793C6.38144 12.4966 7.4231 12.9224 8.56722 12.9224C11.0501 12.9224 13.0628 10.9096 13.0628 8.42677C13.0628 5.94391 11.0501 3.93115 8.56722 3.93115C7.87687 3.93115 7.31722 3.37151 7.31722 2.68115Z" fill="#188FFF"/>
</g>
</svg>
