<svg width="17" height="17" viewBox="0 0 17 17" fill="none" xmlns="http://www.w3.org/2000/svg">
<mask id="mask0_331_1051" style="mask-type:alpha" maskUnits="userSpaceOnUse" x="0" y="0" width="17" height="17">
<rect x="0.530762" y="0.426758" width="16" height="16" fill="#DCDCDC"/>
</mask>
<g mask="url(#mask0_331_1051)">
<path fill-rule="evenodd" clip-rule="evenodd" d="M8.53076 1.42676C4.66514 1.42676 1.53076 4.56113 1.53076 8.42676C1.53076 12.2924 4.66514 15.4268 8.53076 15.4268C12.3964 15.4268 15.5308 12.2924 15.5308 8.42676C15.5308 4.56113 12.3964 1.42676 8.53076 1.42676ZM11.1151 11.0861L10.0839 11.0814L8.53076 9.22988L6.9792 11.0799L5.94639 11.0846C5.87764 11.0846 5.82139 11.0299 5.82139 10.9596C5.82139 10.9299 5.83232 10.9018 5.85107 10.8783L7.88389 8.45645L5.85107 6.03613C5.83232 6.0127 5.82139 5.98457 5.82139 5.95488C5.82139 5.88613 5.87764 5.82988 5.94639 5.82988L6.9792 5.83457L8.53076 7.68613L10.0823 5.83613L11.1136 5.83145C11.1823 5.83145 11.2386 5.88613 11.2386 5.95645C11.2386 5.98613 11.2276 6.01426 11.2089 6.03769L9.1792 8.45801L11.2104 10.8799C11.2292 10.9033 11.2401 10.9314 11.2401 10.9611C11.2401 11.0299 11.1839 11.0861 11.1151 11.0861Z" fill="#FF4D4F"/>
</g>
</svg>
