<svg width="17" height="17" viewBox="0 0 17 17" fill="none" xmlns="http://www.w3.org/2000/svg">
<path fill-rule="evenodd" clip-rule="evenodd" d="M8.33759 13.0755C10.639 13.0755 12.5047 11.2047 12.5047 8.89697C12.5047 6.58921 10.639 4.7184 8.33759 4.7184C6.03618 4.7184 4.17051 6.58921 4.17051 8.89697C4.17051 11.2047 6.03618 13.0755 8.33759 13.0755ZM8.33759 15.397C11.9176 15.397 14.8197 12.4868 14.8197 8.89697C14.8197 5.30712 11.9176 2.39697 8.33759 2.39697C4.75761 2.39697 1.85547 5.30712 1.85547 8.89697C1.85547 12.4868 4.75761 15.397 8.33759 15.397Z" fill="#CCE6FF"/>
<path fill-rule="evenodd" clip-rule="evenodd" d="M7.21994 3.56159C7.21994 2.92055 7.73818 2.40088 8.37746 2.40088C11.9552 2.40088 14.8555 5.30921 14.8555 8.89681C14.8555 12.4844 11.9552 15.3927 8.37746 15.3927C6.7308 15.3927 5.22518 14.7751 4.08276 13.7601C3.60428 13.335 3.56009 12.6014 3.98405 12.1216C4.40801 11.6418 5.13958 11.5975 5.61805 12.0226C6.35339 12.676 7.31798 13.0713 8.37746 13.0713C10.6766 13.0713 12.5405 11.2023 12.5405 8.89681C12.5405 6.5913 10.6766 4.72231 8.37746 4.72231C7.73818 4.72231 7.21994 4.20264 7.21994 3.56159Z" fill="#188FFF"/>
</svg>
