<svg width="17" height="17" viewBox="0 0 17 17" fill="none" xmlns="http://www.w3.org/2000/svg">
<mask id="mask0_331_1046" style="mask-type:alpha" maskUnits="userSpaceOnUse" x="0" y="0" width="17" height="17">
<rect x="0.537354" y="0.426758" width="16" height="16" fill="#DCDCDC"/>
</mask>
<g mask="url(#mask0_331_1046)">
<path fill-rule="evenodd" clip-rule="evenodd" d="M8.53735 1.42676C4.67173 1.42676 1.53735 4.56113 1.53735 8.42676C1.53735 12.2924 4.67173 15.4268 8.53735 15.4268C12.403 15.4268 15.5374 12.2924 15.5374 8.42676C15.5374 4.56113 12.403 1.42676 8.53735 1.42676ZM11.5608 6.14082L8.27017 10.7033C8.07173 10.9799 7.66079 10.9799 7.46235 10.7033L5.51392 8.00332C5.45454 7.92051 5.51392 7.80488 5.61548 7.80488H6.34829C6.50767 7.80488 6.65923 7.88145 6.75298 8.0127L7.86548 9.55645L10.3217 6.1502C10.4155 6.02051 10.5655 5.94238 10.7264 5.94238H11.4592C11.5608 5.94238 11.6202 6.05801 11.5608 6.14082Z" fill="#52C41A"/>
</g>
</svg>
