<svg width="17" height="17" viewBox="0 0 17 17" fill="none" xmlns="http://www.w3.org/2000/svg">
<mask id="mask0_531_146" style="mask-type:alpha" maskUnits="userSpaceOnUse" x="0" y="0" width="17" height="17">
<rect x="0.517151" y="0.431152" width="16" height="16" fill="#35322B"/>
</mask>
<g mask="url(#mask0_531_146)">
<path fill-rule="evenodd" clip-rule="evenodd" d="M1.51715 8.43115C1.51715 4.56553 4.65153 1.43115 8.51715 1.43115C12.3828 1.43115 15.5172 4.56553 15.5172 8.43115C15.5172 12.2968 12.3828 15.4312 8.51715 15.4312C4.65153 15.4312 1.51715 12.2968 1.51715 8.43115ZM7.88519 5.56381L8.1514 9.86756H8.88348L9.16079 5.56381L9.18297 4.25494H7.85192L7.88519 5.56381ZM7.63007 11.731C7.63007 12.2746 8.02939 12.6073 8.51744 12.6073C9.0055 12.6073 9.40481 12.2746 9.40481 11.731C9.40481 11.2097 9.0055 10.8659 8.51744 10.8659C8.02939 10.8659 7.63007 11.2097 7.63007 11.731Z" fill="#FE4B4B"/>
</g>
</svg>
