<svg width="16" height="16" viewBox="0 0 16 16" fill="none" xmlns="http://www.w3.org/2000/svg">
<path d="M6.61651 13.9033C7.30836 13.663 7.91514 13.2474 8.38632 12.7116C8.19213 12.5014 8.06833 12.224 8.05449 11.9157C8.02335 11.2223 8.56022 10.635 9.25363 10.6038C9.29557 10.602 9.33713 10.6022 9.3782 10.6043C9.42167 10.3295 9.43826 10.0462 9.42529 9.75742C9.40565 9.31995 9.31958 8.90117 9.17727 8.51037C9.17141 8.51072 9.16554 8.51103 9.15965 8.51129C8.46625 8.54243 7.87888 8.00556 7.84774 7.31215C7.8388 7.11309 7.87668 6.92278 7.95162 6.75184C7.44742 6.32356 6.84157 6.01329 6.17813 5.86132C5.98876 6.27766 5.5781 6.57538 5.08985 6.5973C4.6016 6.61923 4.1659 6.35952 3.93998 5.96184C3.29283 6.17266 2.71723 6.53598 2.25345 7.00774C2.34341 7.17127 2.39819 7.35742 2.40713 7.55648C2.43827 8.24989 1.9014 8.83725 1.20799 8.86839C1.20211 8.86866 1.19623 8.86888 1.19037 8.86906C1.08366 9.27104 1.03547 9.69585 1.05512 10.1333C1.06809 10.4221 1.11001 10.7028 1.17794 10.9726C1.21865 10.9668 1.26001 10.9628 1.30196 10.9609C1.99537 10.9298 2.58273 11.4667 2.61387 12.1601C2.62772 12.4684 2.52929 12.7557 2.35472 12.9825C2.87203 13.4739 3.51362 13.8335 4.22423 14.0107C4.36333 13.4972 4.8212 13.1093 5.38117 13.0842C5.94113 13.059 6.43193 13.4043 6.61651 13.9033Z" fill="#E5E5E5"/>
<path fill-rule="evenodd" clip-rule="evenodd" d="M5.15128 7.97976C6.23833 7.93095 7.15913 8.7726 7.20795 9.85965C7.25676 10.9467 6.41512 11.8675 5.32807 11.9163C4.24102 11.9651 3.32022 11.1235 3.2714 10.0364C3.22258 8.94938 4.06423 8.02858 5.15128 7.97976ZM6.20096 9.90487C6.17712 9.37396 5.72741 8.96291 5.1965 8.98675C4.6656 9.01059 4.25454 9.4603 4.27839 9.99121C4.30223 10.5221 4.75194 10.9332 5.28284 10.9093C5.81375 10.8855 6.2248 10.4358 6.20096 9.90487Z" fill="black"/>
<path fill-rule="evenodd" clip-rule="evenodd" d="M5.71935 5.65476C5.81849 5.43681 6.05727 5.31869 6.29066 5.37215C7.03474 5.54259 7.71352 5.89041 8.27791 6.36983C8.44761 6.51397 8.50261 6.75239 8.41321 6.95631C8.36861 7.05805 8.34585 7.17151 8.35124 7.29164C8.36989 7.70698 8.72171 8.02856 9.13705 8.0099L9.14748 8.00936C9.36992 7.99619 9.5746 8.13065 9.65085 8.34002C9.81049 8.7784 9.90682 9.24768 9.92879 9.73691C9.94329 10.0598 9.92476 10.377 9.87602 10.6852C9.83569 10.9401 9.60924 11.1234 9.35147 11.1097C9.32669 11.1084 9.3016 11.1083 9.27624 11.1094C8.86091 11.1281 8.53933 11.4799 8.55798 11.8952C8.56629 12.0803 8.64006 12.2457 8.75656 12.3718C8.93171 12.5614 8.93527 12.8527 8.76479 13.0466C8.23742 13.6462 7.55775 14.1121 6.78185 14.3815C6.52262 14.4715 6.23901 14.3376 6.14381 14.0803C6.03307 13.7809 5.73842 13.5748 5.40378 13.5898C5.06915 13.6048 4.79415 13.8365 4.7107 14.1446C4.63895 14.4095 4.36848 14.5683 4.10223 14.5019C3.3053 14.303 2.58661 13.9 2.00762 13.35C1.82045 13.1723 1.79788 12.8818 1.95533 12.6772C2.06004 12.5412 2.1187 12.3699 2.11039 12.1848C2.09173 11.7695 1.73991 11.4479 1.32458 11.4665C1.29922 11.4677 1.27425 11.47 1.24968 11.4736C0.994177 11.5103 0.752214 11.3481 0.689194 11.0978C0.613026 10.7952 0.566131 10.4809 0.551631 10.158C0.52966 9.66879 0.583545 9.19277 0.703238 8.74186C0.760408 8.52648 0.952225 8.37421 1.17495 8.3674L1.18538 8.367C1.60072 8.34835 1.92229 7.99653 1.90364 7.5812C1.89825 7.46106 1.86541 7.3501 1.81186 7.25276C1.70455 7.05768 1.73796 6.8153 1.89405 6.65652C2.41319 6.12844 3.05807 5.72118 3.78387 5.48473C4.01153 5.41056 4.25994 5.50681 4.37821 5.71499C4.51422 5.9544 4.77551 6.10902 5.06724 6.09592C5.35897 6.08282 5.60535 5.9054 5.71935 5.65476ZM7.34426 7.33687C7.33818 7.20153 7.34762 7.06876 7.37105 6.94042C7.07685 6.73159 6.75134 6.5652 6.40379 6.4495C6.09821 6.82794 5.63764 7.07932 5.11246 7.1029C4.58728 7.12649 4.10604 6.91741 3.76777 6.56788C3.43198 6.71427 3.1227 6.90916 2.8484 7.14353C2.88324 7.26925 2.90455 7.40064 2.91063 7.53598C2.9484 8.37706 2.38966 9.10678 1.60854 9.31583C1.56402 9.57345 1.54637 9.84011 1.55862 10.1128C1.56409 10.2347 1.57541 10.3549 1.59227 10.4731C2.42168 10.5833 3.07852 11.2745 3.11737 12.1396C3.12893 12.3971 3.08438 12.6445 2.99464 12.8697C3.28297 13.0916 3.60442 13.2713 3.94947 13.4005C4.24677 12.9313 4.76079 12.6096 5.35856 12.5828C5.95633 12.5559 6.49711 12.8302 6.83527 13.2709C7.16735 13.1113 7.4714 12.9035 7.73868 12.6567C7.62912 12.4404 7.56256 12.1979 7.551 11.9405C7.51215 11.0753 8.10438 10.328 8.92058 10.144C8.92678 10.0248 8.92728 9.90408 8.9218 9.78214C8.90956 9.50943 8.86807 9.24543 8.80064 8.99284C8.00392 8.85465 7.38203 8.17795 7.34426 7.33687Z" fill="black"/>
<path d="M11.863 7.86422C12.3667 7.86821 12.8558 7.73895 13.2847 7.50055C13.2074 7.31952 13.1912 7.11125 13.2534 6.9083C13.3932 6.45185 13.8766 6.19519 14.3331 6.33503C14.3607 6.34349 14.3875 6.35322 14.4137 6.36411C14.5052 6.19606 14.5814 6.01636 14.6396 5.82624C14.7278 5.53827 14.7687 5.24708 14.7667 4.96103C14.7628 4.9599 14.7589 4.95875 14.7551 4.95756C14.2986 4.81772 14.042 4.33432 14.1818 3.87787C14.2219 3.74683 14.2904 3.63227 14.3784 3.53881C14.1506 3.14496 13.8296 2.80413 13.4348 2.55256C13.2161 2.77861 12.8813 2.87673 12.5599 2.77827C12.2385 2.6798 12.0161 2.41098 11.9615 2.10118C11.4936 2.08843 11.0368 2.191 10.6274 2.38963C10.648 2.51635 10.6405 2.64959 10.6004 2.78063C10.4605 3.23708 9.97714 3.49375 9.52068 3.3539C9.51681 3.35272 9.51295 3.35151 9.50911 3.35027C9.34721 3.58609 9.21795 3.85021 9.12973 4.13819C9.07148 4.3283 9.03388 4.5198 9.01562 4.71032C9.04334 4.71592 9.07105 4.72291 9.09867 4.73138C9.55512 4.87122 9.81179 5.35461 9.67194 5.81107C9.60977 6.01401 9.47968 6.17746 9.31424 6.28413C9.53601 6.72188 9.86873 7.10291 10.2882 7.38176C10.4969 7.08115 10.883 6.93549 11.2516 7.04842C11.6203 7.16135 11.8586 7.49833 11.863 7.86422Z" fill="#E5E5E5"/>
<path fill-rule="evenodd" clip-rule="evenodd" d="M12.269 3.7308C12.9611 3.94281 13.3502 4.67569 13.1382 5.36772C12.9262 6.05975 12.1933 6.44888 11.5012 6.23686C10.8092 6.02484 10.4201 5.29197 10.6321 4.59994C10.8441 3.90791 11.577 3.51878 12.269 3.7308ZM12.1744 5.07244C12.2233 4.9127 12.1335 4.74352 11.9738 4.69458C11.814 4.64564 11.6448 4.73546 11.5959 4.89521C11.5469 5.05496 11.6368 5.22413 11.7965 5.27308C11.9563 5.32202 12.1254 5.23219 12.1744 5.07244Z" fill="black"/>
<path fill-rule="evenodd" clip-rule="evenodd" d="M13.7064 2.12906C13.5045 2.00039 13.2399 2.03154 13.0734 2.20359C12.9812 2.29884 12.8416 2.33875 12.7082 2.29791C12.5749 2.25707 12.4816 2.14577 12.4586 2.01524C12.417 1.77944 12.2153 1.60542 11.976 1.5989C11.4253 1.5839 10.8885 1.70462 10.4081 1.93773C10.2078 2.03493 10.095 2.25205 10.1307 2.47183C10.1391 2.52397 10.1362 2.57903 10.1192 2.63453C10.0609 2.82484 9.85935 2.93185 9.66904 2.87355L9.66433 2.87207C9.45223 2.80376 9.22044 2.88284 9.09432 3.06655C8.90377 3.34411 8.75196 3.65456 8.64855 3.99208C8.58031 4.21483 8.53611 4.43969 8.51463 4.66377C8.49001 4.92073 8.66351 5.15475 8.91653 5.20587C8.92827 5.20824 8.94001 5.21121 8.95175 5.2148C9.14206 5.27311 9.24907 5.47465 9.19077 5.66497C9.16472 5.74998 9.11105 5.81746 9.04185 5.86207C8.82489 6.00196 8.7487 6.28316 8.86536 6.51344C9.12558 7.02709 9.51635 7.47492 10.0099 7.80302C10.2385 7.95493 10.5465 7.8961 10.703 7.67066C10.7903 7.54489 10.9518 7.48499 11.1047 7.53185C11.2577 7.57871 11.3579 7.7188 11.3598 7.87187C11.3631 8.14626 11.5853 8.36757 11.8597 8.36974C12.4524 8.37444 13.027 8.22235 13.5303 7.94262C13.7559 7.81721 13.8503 7.54158 13.7489 7.30417C13.7166 7.22845 13.7099 7.14249 13.736 7.05748C13.7943 6.86716 13.9958 6.76015 14.1861 6.81846C14.1979 6.82205 14.2093 6.82617 14.2203 6.83079C14.4585 6.93017 14.7334 6.8335 14.8569 6.60685C14.9646 6.40919 15.054 6.19816 15.1222 5.97542C15.2256 5.63789 15.2738 5.29569 15.2714 4.95901C15.2698 4.73618 15.1221 4.54084 14.9082 4.47862L14.9034 4.4772C14.7131 4.4189 14.6061 4.21735 14.6644 4.02704C14.6814 3.97155 14.7098 3.92431 14.7461 3.88585C14.8987 3.72375 14.9269 3.4807 14.8154 3.28797C14.548 2.82576 14.1709 2.42508 13.7064 2.12906ZM13.775 3.54085C13.7459 3.60175 13.7209 3.66549 13.7006 3.73177C13.5196 4.32249 13.7582 4.94172 14.246 5.26901C14.2293 5.40581 14.2004 5.54326 14.1584 5.68014C14.1465 5.71894 14.1338 5.75719 14.1201 5.79488C13.5194 5.77715 12.9568 6.15975 12.7722 6.7622C12.7263 6.91205 12.7074 7.06402 12.7128 7.21261C12.5651 7.26758 12.4117 7.30804 12.2549 7.33285C12.1012 6.97822 11.7991 6.69034 11.4 6.56806C11.0009 6.44579 10.5894 6.51502 10.2634 6.72274C10.1474 6.61431 10.043 6.49487 9.95143 6.3666C10.0391 6.24653 10.1086 6.11009 10.1546 5.96024C10.3391 5.35779 10.0874 4.72569 9.57979 4.40385C9.58961 4.365 9.60045 4.32616 9.61234 4.28736C9.65427 4.15048 9.7073 4.02041 9.77007 3.89771C10.3576 3.89988 10.902 3.52053 11.083 2.9298C11.1033 2.86352 11.1183 2.79675 11.1283 2.72996C11.2868 2.67653 11.4513 2.63964 11.6192 2.62063C11.7851 2.91755 12.0614 3.15397 12.413 3.26169C12.7646 3.36941 13.1259 3.32834 13.4296 3.17526C13.558 3.28506 13.6736 3.40778 13.775 3.54085Z" fill="black"/>
</svg>
