<svg width="16" height="16" viewBox="0 0 16 16" fill="none" xmlns="http://www.w3.org/2000/svg">
<rect width="16" height="16" rx="8" fill="black"/>
<path d="M7.22523 9.33854V9.25237C7.22744 8.85243 7.265 8.53425 7.33792 8.29782C7.41305 8.0614 7.51911 7.87137 7.6561 7.72775C7.7931 7.58191 7.95992 7.44823 8.15658 7.3267C8.29136 7.24274 8.41178 7.15104 8.51784 7.05161C8.62611 6.94997 8.71118 6.83728 8.77305 6.71354C8.83492 6.58759 8.86586 6.44729 8.86586 6.29261C8.86586 6.11806 8.82498 5.9667 8.74322 5.83854C8.66147 5.71039 8.55099 5.61095 8.41178 5.54025C8.27479 5.46954 8.12122 5.43419 7.95108 5.43419C7.7942 5.43419 7.64505 5.46843 7.50364 5.53693C7.36444 5.60322 7.24843 5.70486 7.15563 5.84186C7.06504 5.97664 7.01421 6.14789 7.00317 6.35559H5.82324C5.83429 5.93576 5.93593 5.58444 6.12817 5.30161C6.32261 5.01878 6.57892 4.80666 6.89711 4.66525C7.2175 4.52383 7.57103 4.45312 7.95771 4.45312C8.37974 4.45312 8.75096 4.52715 9.07135 4.67519C9.39395 4.82323 9.64474 5.03425 9.82372 5.30824C10.0049 5.58002 10.0955 5.90262 10.0955 6.27604C10.0955 6.52794 10.0546 6.75331 9.97286 6.95218C9.89332 7.15104 9.77952 7.32781 9.63148 7.48248C9.48344 7.63715 9.30777 7.77525 9.10449 7.89678C8.92551 8.00726 8.77858 8.12216 8.66368 8.24148C8.55099 8.3608 8.46702 8.5011 8.41178 8.66241C8.35875 8.8215 8.33113 9.01815 8.32892 9.25237V9.33854H7.22523ZM7.80194 11.4067C7.60307 11.4067 7.43183 11.336 7.2882 11.1946C7.14458 11.0532 7.07277 10.8808 7.07277 10.6776C7.07277 10.4787 7.14458 10.3086 7.2882 10.1671C7.43183 10.0257 7.60307 9.95502 7.80194 9.95502C7.99859 9.95502 8.16873 10.0257 8.31235 10.1671C8.45819 10.3086 8.5311 10.4787 8.5311 10.6776C8.5311 10.8123 8.49685 10.935 8.42836 11.0455C8.36207 11.1559 8.27368 11.2443 8.1632 11.3106C8.05493 11.3747 7.93451 11.4067 7.80194 11.4067Z" fill="#E5E5E5"/>
</svg>
