<svg width="17" height="17" viewBox="0 0 17 17" fill="none" xmlns="http://www.w3.org/2000/svg">
<mask id="mask0_102_784" style="mask-type:alpha" maskUnits="userSpaceOnUse" x="0" y="0" width="17" height="17">
<rect x="0.709106" y="0.727051" width="16" height="16" fill="#DCDCDC"/>
</mask>
<g mask="url(#mask0_102_784)">
<path fill-rule="evenodd" clip-rule="evenodd" d="M2.04236 3.33039C2.04236 2.62907 2.61089 2.06055 3.3122 2.06055H14.1058C14.8072 2.06055 15.3757 2.62907 15.3757 3.33039V14.124C15.3757 14.8254 14.8072 15.3939 14.1058 15.3939H3.3122C2.61089 15.3939 2.04236 14.8254 2.04236 14.124V3.33039ZM11.2487 14.124H14.1058V11.2669H11.2487V14.124ZM9.97887 11.2669V14.124H7.12172V11.2669H9.97887ZM11.2487 9.99705H14.1058V7.45737H11.2487V9.99705ZM9.97887 7.45737V9.99705H7.12172V7.45737H9.97887ZM11.2487 6.18753H14.1058V3.33039H11.2487V6.18753ZM9.97887 3.33039V6.18753H7.12172V3.33039H9.97887ZM3.3122 3.33039H5.85188V6.18753H3.3122V3.33039ZM3.3122 7.45737H5.85188V9.99705H3.3122V7.45737ZM3.3122 11.2669H5.85188V14.124H3.3122V11.2669Z" fill="black"/>
</g>
</svg>
