<svg width="17" height="17" viewBox="0 0 17 17" fill="none" xmlns="http://www.w3.org/2000/svg">
<mask id="mask0_102_787" style="mask-type:alpha" maskUnits="userSpaceOnUse" x="0" y="0" width="17" height="17">
<rect x="0.709106" y="0.727051" width="16" height="16" fill="#DCDCDC"/>
</mask>
<g mask="url(#mask0_102_787)">
<path d="M5.67872 7.42831C5.344 7.42831 5.07266 7.70661 5.07266 8.04991C5.07266 8.39321 5.344 8.67151 5.67872 8.67151H11.7393C12.074 8.67151 12.3454 8.39321 12.3454 8.04991C12.3454 7.70661 12.074 7.42831 11.7393 7.42831H5.67872Z" fill="black"/>
<path fill-rule="evenodd" clip-rule="evenodd" d="M2.64842 2.46631C2.3137 2.46631 2.04236 2.74461 2.04236 3.08791V12.7119C2.04236 13.0552 2.3137 13.3335 2.64842 13.3335H4.76963V14.2659C4.76963 14.4814 4.87839 14.6814 5.05707 14.7947C5.23574 14.9079 5.45886 14.9182 5.64673 14.8219L8.54907 13.3335H14.7696C15.1044 13.3335 15.3757 13.0552 15.3757 12.7119V3.08791C15.3757 2.74461 15.1044 2.46631 14.7696 2.46631H2.64842ZM3.25448 12.0903V3.70951H8.70903H14.1636V12.0903H8.406C8.31191 12.0903 8.21911 12.1128 8.13496 12.1559L5.98175 13.2601V12.7119C5.98175 12.3686 5.71041 12.0903 5.37569 12.0903H3.25448Z" fill="black"/>
</g>
</svg>
