<svg width="17" height="17" viewBox="0 0 17 17" fill="none" xmlns="http://www.w3.org/2000/svg">
<mask id="mask0_102_341" style="mask-type:alpha" maskUnits="userSpaceOnUse" x="0" y="0" width="17" height="17">
<rect x="0.961304" y="0.808105" width="16" height="16" fill="#DCDCDC"/>
</mask>
<g mask="url(#mask0_102_341)">
<path d="M12.3219 4.54979C12.5699 4.30184 12.9719 4.30184 13.2198 4.54979C13.4678 4.79774 13.4678 5.19975 13.2198 5.4477L5.60078 13.0667C5.35283 13.3147 4.95082 13.3147 4.70286 13.0667C4.45491 12.8188 4.45491 12.4168 4.70286 12.1688L12.3219 4.54979Z" fill="black"/>
<path d="M5.78674 5.63366H5.15182C4.80116 5.63366 4.5169 5.91793 4.5169 6.26859C4.5169 6.61924 4.80116 6.90351 5.15182 6.90351H5.78674V7.53843C5.78674 7.88908 6.07101 8.17335 6.42166 8.17335C6.77232 8.17335 7.05658 7.88908 7.05658 7.53843V6.90351H7.6915C8.04216 6.90351 8.32642 6.61924 8.32642 6.26859C8.32642 5.91793 8.04216 5.63366 7.6915 5.63366H7.05658V4.99874C7.05658 4.64809 6.77232 4.36382 6.42166 4.36382C6.07101 4.36382 5.78674 4.64809 5.78674 4.99874V5.63366Z" fill="black"/>
<path d="M9.2788 11.6654C9.2788 11.3148 9.56307 11.0305 9.91373 11.0305H12.4534C12.8041 11.0305 13.0883 11.3148 13.0883 11.6654C13.0883 12.0161 12.8041 12.3003 12.4534 12.3003H9.91373C9.56307 12.3003 9.2788 12.0161 9.2788 11.6654Z" fill="black"/>
<path fill-rule="evenodd" clip-rule="evenodd" d="M2.29468 3.7289C2.29468 2.85226 3.00534 2.1416 3.88198 2.1416H14.0407C14.9174 2.1416 15.628 2.85227 15.628 3.7289V13.8876C15.628 14.7643 14.9174 15.4749 14.0407 15.4749H3.88198C3.00535 15.4749 2.29468 14.7643 2.29468 13.8876V3.7289ZM3.88198 3.41144C3.70665 3.41144 3.56452 3.55358 3.56452 3.7289V13.8876C3.56452 14.063 3.70665 14.2051 3.88198 14.2051H14.0407C14.2161 14.2051 14.3582 14.063 14.3582 13.8876V3.7289C14.3582 3.55357 14.216 3.41144 14.0407 3.41144H3.88198Z" fill="black"/>
</g>
</svg>
