<svg width="17" height="17" viewBox="0 0 17 17" fill="none" xmlns="http://www.w3.org/2000/svg">
<mask id="mask0_102_345" style="mask-type:alpha" maskUnits="userSpaceOnUse" x="0" y="0" width="17" height="17">
<rect x="0.961243" y="0.808105" width="16" height="16" fill="#DCDCDC"/>
</mask>
<g mask="url(#mask0_102_345)">
<path fill-rule="evenodd" clip-rule="evenodd" d="M3.96128 2.1416C3.04081 2.1416 2.29462 2.8878 2.29462 3.80827V13.8083C2.29462 14.7224 3.03059 15.4647 3.94232 15.4748C3.95376 15.4752 3.96523 15.4752 3.97672 15.4749H13.9613C14.8818 15.4749 15.628 14.7288 15.628 13.8083V12.6416C15.628 12.2734 15.3295 11.9749 14.9613 11.9749C14.5931 11.9749 14.2946 12.2734 14.2946 12.6416V13.8083C14.2946 13.9924 14.1454 14.1416 13.9613 14.1416H6.2176C6.57646 13.8241 6.91244 13.4718 7.21229 13.095C8.02872 12.069 8.62795 10.7961 8.62795 9.47494V3.47493H13.9613C14.1454 3.47493 14.2946 3.62417 14.2946 3.80827V5.47493C14.2946 5.84312 14.5931 6.1416 14.9613 6.1416C15.3295 6.1416 15.628 5.84312 15.628 5.47493V3.80827C15.628 2.8878 14.8818 2.1416 13.9613 2.1416H3.96128ZM7.29462 3.47493H3.96128C3.77719 3.47493 3.62795 3.62417 3.62795 3.80827V13.8083C3.62795 13.9565 3.7247 14.0821 3.85849 14.1255C4.66969 13.7518 5.5153 13.0862 6.16898 12.2647C6.86632 11.3884 7.29462 10.4001 7.29462 9.47494V3.47493Z" fill="black"/>
<path d="M13.4327 6.6702C13.1723 6.40985 12.7502 6.40985 12.4899 6.6702C12.2295 6.93055 12.2295 7.35266 12.4899 7.61301L13.3518 8.47494H10.9613C10.5931 8.47494 10.2946 8.77341 10.2946 9.1416C10.2946 9.50979 10.5931 9.80827 10.9613 9.80827H13.3518L12.4899 10.6702C12.2295 10.9305 12.2295 11.3527 12.4899 11.613C12.7502 11.8734 13.1723 11.8734 13.4327 11.613L15.4327 9.61301C15.5547 9.49097 15.6196 9.33339 15.6272 9.17358C15.6277 9.16293 15.628 9.15227 15.628 9.1416L13.4327 6.6702Z" fill="black"/>
<path d="M13.4327 6.6702L15.4327 8.6702C15.5613 8.79881 15.6264 8.96689 15.6279 9.13545L13.4327 6.6702Z" fill="black"/>
</g>
</svg>
