<svg width="25" height="25" viewBox="0 0 25 25" fill="none" xmlns="http://www.w3.org/2000/svg">
<mask id="mask0_17_271" style="mask-type:alpha" maskUnits="userSpaceOnUse" x="0" y="0" width="25" height="25">
<rect x="0.112915" y="0.773987" width="24" height="24" fill="#DCDCDC"/>
</mask>
<g mask="url(#mask0_17_271)">
<path fill-rule="evenodd" clip-rule="evenodd" d="M4.61292 2.77386C3.23221 2.77386 2.11292 3.89315 2.11292 5.27386V20.2739C2.11292 21.6451 3.21688 22.7585 4.58447 22.7737C4.60163 22.7742 4.61883 22.7743 4.63607 22.7739H19.6129C20.9937 22.7739 22.1129 21.6546 22.1129 20.2739V18.5239C22.1129 17.9716 21.6652 17.5239 21.1129 17.5239C20.5606 17.5239 20.1129 17.9716 20.1129 18.5239V20.2739C20.1129 20.55 19.8891 20.7739 19.6129 20.7739H7.99739C8.53569 20.2976 9.03964 19.7691 9.48943 19.2039C10.7141 17.6649 11.6129 15.7556 11.6129 13.7739V4.77386H19.6129C19.8891 4.77386 20.1129 4.99771 20.1129 5.27386V7.77386C20.1129 8.32615 20.5606 8.77386 21.1129 8.77386C21.6652 8.77386 22.1129 8.32615 22.1129 7.77386V5.27386C22.1129 3.89317 20.9937 2.77386 19.6129 2.77386H4.61292ZM9.61292 4.77386H4.61292C4.33677 4.77386 4.11292 4.99772 4.11292 5.27386V20.2739C4.11292 20.4962 4.25803 20.6847 4.45873 20.7496C5.67553 20.1892 6.94394 19.1907 7.92445 17.9586C8.97046 16.6441 9.61292 15.1617 9.61292 13.7739V4.77386Z" fill="#35322B"/>
<path d="M18.82 9.56676C18.4295 9.17623 17.7963 9.17623 17.4058 9.56676C17.0153 9.95728 17.0153 10.5904 17.4058 10.981L18.6987 12.2739H15.1129C14.5606 12.2739 14.1129 12.7216 14.1129 13.2739C14.1129 13.8261 14.5606 14.2739 15.1129 14.2739H18.6987L17.4058 15.5668C17.0153 15.9573 17.0153 16.5904 17.4058 16.981C17.7963 17.3715 18.4295 17.3715 18.82 16.981L21.82 13.981C22.0031 13.7979 22.1003 13.5615 22.1118 13.3218C22.1125 13.3059 22.1129 13.2899 22.1129 13.2739L18.82 9.56676Z" fill="#35322B"/>
<path d="M18.82 9.56676L21.82 12.5668C22.0129 12.7597 22.1106 13.0118 22.1129 13.2646L18.82 9.56676Z" fill="#35322B"/>
</g>
</svg>
