<svg width="17" height="17" viewBox="0 0 17 17" fill="none" xmlns="http://www.w3.org/2000/svg">
<mask id="mask0_102_333" style="mask-type:alpha" maskUnits="userSpaceOnUse" x="0" y="0" width="17" height="17">
<rect x="0.261597" y="0.808105" width="16" height="16" fill="#DCDCDC"/>
</mask>
<g mask="url(#mask0_102_333)">
<path fill-rule="evenodd" clip-rule="evenodd" d="M3.47602 2.30762C2.80531 2.30762 2.2616 2.81561 2.2616 3.44225V14.173C2.2616 14.7996 2.80532 15.3076 3.47602 15.3076H7.30448C7.62279 15.3076 7.88083 15.0665 7.88083 14.7691C7.88083 14.4717 7.62279 14.2307 7.30448 14.2307H3.47602C3.44192 14.2307 3.41429 14.2048 3.41429 14.173V3.44225C3.41429 3.4104 3.44193 3.38457 3.47602 3.38457H9.28048V5.82686C9.28048 6.12425 9.53852 6.36534 9.85683 6.36534H12.4708V8.50954C12.4708 8.80693 12.7289 9.04802 13.0472 9.04802C13.3655 9.04802 13.6235 8.80693 13.6235 8.50954V5.83341C13.6235 5.83123 13.6236 5.82904 13.6236 5.82686C13.6236 5.68623 13.5659 5.55819 13.4714 5.46228L10.6042 2.48587C10.4949 2.37241 10.3392 2.30762 10.1758 2.30762H3.47602ZM10.4332 3.9182V5.28838H11.7531L10.4332 3.9182Z" fill="black"/>
<path fill-rule="evenodd" clip-rule="evenodd" d="M9.21871 11.2499C8.9004 11.2499 8.64236 11.491 8.64236 11.7884V14.173C8.64236 14.4704 8.9004 14.7115 9.21871 14.7115H13.6852C14.0036 14.7115 14.2616 14.4704 14.2616 14.173V11.7884C14.2616 11.491 14.0036 11.2499 13.6852 11.2499H12.9855V10.8942C12.9855 10.1029 12.2989 9.46146 11.452 9.46146C10.6051 9.46146 9.91853 10.1029 9.91853 10.8942V11.2499H9.21871ZM12.4091 12.3269L12.405 12.3269H10.499L10.4949 12.3269L10.4908 12.3269H9.79506V13.6345H13.1089V12.3269H12.4132L12.4091 12.3269ZM11.8328 10.8942V11.2499H11.0712V10.8942C11.0712 10.6977 11.2417 10.5384 11.452 10.5384C11.6623 10.5384 11.8328 10.6977 11.8328 10.8942Z" fill="black"/>
</g>
</svg>
