<svg width="17" height="17" viewBox="0 0 17 17" fill="none" xmlns="http://www.w3.org/2000/svg">
<mask id="mask0_102_337" style="mask-type:alpha" maskUnits="userSpaceOnUse" x="0" y="0" width="17" height="17">
<rect x="0.961304" y="0.808105" width="16" height="16" fill="#DCDCDC"/>
</mask>
<g mask="url(#mask0_102_337)">
<path d="M7.20373 5.7807C7.20373 5.44598 7.47507 5.17464 7.80979 5.17464H9.62797C9.96269 5.17464 10.234 5.44598 10.234 5.7807C10.234 6.11542 9.96269 6.38676 9.62797 6.38676H7.80979C7.47507 6.38676 7.20373 6.11542 7.20373 5.7807Z" fill="black"/>
<path d="M7.20373 12.1443C6.86901 12.1443 6.59767 12.4157 6.59767 12.7504C6.59767 13.0851 6.86901 13.3565 7.20373 13.3565H10.234C10.5687 13.3565 10.8401 13.0851 10.8401 12.7504C10.8401 12.4157 10.5687 12.1443 10.234 12.1443H7.20373Z" fill="black"/>
<path fill-rule="evenodd" clip-rule="evenodd" d="M3.56736 1.84131C3.23265 1.84131 2.9613 2.11265 2.9613 2.44737C2.9613 2.78209 3.23265 3.05343 3.56736 3.05343H4.28716C4.68487 4.87045 5.20222 6.30643 5.86225 7.32185C6.17765 7.80709 6.53474 8.20815 6.93409 8.50695C6.53471 8.80545 6.17762 9.20638 5.86225 9.69156C5.20214 10.7071 4.68477 12.144 4.28708 13.9625H3.56736C3.23265 13.9625 2.9613 14.2339 2.9613 14.5686C2.9613 14.9033 3.23265 15.1746 3.56736 15.1746H13.8704C14.2051 15.1746 14.4765 14.9033 14.4765 14.5686C14.4765 14.2339 14.2051 13.9625 13.8704 13.9625H13.1506C12.7529 12.1455 12.2355 10.7095 11.5755 9.6941C11.2601 9.20886 10.903 8.8078 10.5037 8.509C10.903 8.21049 11.2601 7.80957 11.5755 7.32439C12.2356 6.30884 12.753 4.87197 13.1507 3.05343H13.8704C14.2051 3.05343 14.4765 2.78209 14.4765 2.44737C14.4765 2.11265 14.2051 1.84131 13.8704 1.84131H3.56736ZM11.9084 3.05343H5.52949C5.90203 4.66961 6.35831 5.86089 6.87855 6.66126C7.46394 7.56186 8.07993 7.90132 8.71944 7.90191C9.35838 7.90251 9.97393 7.56424 10.5592 6.6638C11.0795 5.86337 11.5358 4.67128 11.9084 3.05343ZM8.71831 9.11403L8.71717 9.11403C8.07864 9.11384 7.46348 9.45225 6.87855 10.3522C6.35827 11.1526 5.90193 12.3447 5.52935 13.9625H11.9083C11.5357 12.3463 11.0795 11.1551 10.5592 10.3547C9.97382 9.45409 9.35783 9.11463 8.71831 9.11403Z" fill="black"/>
</g>
</svg>
