<svg width="16" height="16" viewBox="0 0 16 16" fill="none" xmlns="http://www.w3.org/2000/svg">
<mask id="mask0_102_337" style="mask-type:alpha" maskUnits="userSpaceOnUse" x="0" y="0" width="16" height="16">
<rect width="16" height="16" fill="#DCDCDC"/>
</mask>
<g mask="url(#mask0_102_337)">
<path d="M6.24242 4.97272C6.24242 4.638 6.51377 4.36666 6.84848 4.36666H8.66667C9.00138 4.36666 9.27273 4.638 9.27273 4.97272C9.27273 5.30744 9.00138 5.57878 8.66667 5.57878H6.84848C6.51377 5.57878 6.24242 5.30744 6.24242 4.97272Z" fill="black"/>
<path d="M6.24242 11.3364C5.90771 11.3364 5.63636 11.6077 5.63636 11.9424C5.63636 12.2771 5.90771 12.5485 6.24242 12.5485H9.27273C9.60745 12.5485 9.87879 12.2771 9.87879 11.9424C9.87879 11.6077 9.60745 11.3364 9.27273 11.3364H6.24242Z" fill="black"/>
<path fill-rule="evenodd" clip-rule="evenodd" d="M2.60606 1.03333C2.27134 1.03333 2 1.30467 2 1.63939C2 1.9741 2.27134 2.24545 2.60606 2.24545H3.32586C3.72356 4.06247 4.24092 5.49845 4.90095 6.51387C5.21635 6.9991 5.57344 7.40017 5.97279 7.69896C5.57341 7.99747 5.21631 8.3984 4.90095 8.88358C4.24084 9.89913 3.72347 11.336 3.32577 13.1545H2.60606C2.27134 13.1545 2 13.4259 2 13.7606C2 14.0953 2.27134 14.3667 2.60606 14.3667H12.9091C13.2438 14.3667 13.5152 14.0953 13.5152 13.7606C13.5152 13.4259 13.2438 13.1545 12.9091 13.1545H12.1893C11.7916 11.3375 11.2742 9.90154 10.6142 8.88611C10.2988 8.40088 9.94171 7.99982 9.54237 7.70102C9.94175 7.40251 10.2988 7.00158 10.6142 6.5164C11.2743 5.50085 11.7917 4.06399 12.1894 2.24545H12.9091C13.2438 2.24545 13.5152 1.9741 13.5152 1.63939C13.5152 1.30467 13.2438 1.03333 12.9091 1.03333H2.60606ZM10.9471 2.24545H4.56818C4.94072 3.86162 5.397 5.05291 5.91724 5.85328C6.50263 6.75388 7.11862 7.09333 7.75814 7.09393C8.39708 7.09453 9.01262 6.75625 9.59791 5.85581C10.1182 5.05539 10.5745 3.86329 10.9471 2.24545ZM7.75701 8.30605L7.75586 8.30605C7.11733 8.30586 6.50218 8.64427 5.91724 9.54417C5.39697 10.3446 4.94063 11.5367 4.56804 13.1545H10.947C10.5744 11.5384 10.1181 10.3471 9.59791 9.5467C9.01252 8.6461 8.39653 8.30665 7.75701 8.30605Z" fill="black"/>
</g>
</svg>
