<svg width="16" height="16" viewBox="0 0 16 16" fill="none" xmlns="http://www.w3.org/2000/svg">
<mask id="mask0_102_329" style="mask-type:alpha" maskUnits="userSpaceOnUse" x="0" y="0" width="16" height="16">
<rect width="16" height="16" fill="#DCDCDC"/>
</mask>
<g mask="url(#mask0_102_329)">
<path d="M2.1598 6.7158C2.1598 5.61778 3.04992 4.72767 4.14793 4.72767H9.284C10.382 4.72767 11.2721 5.61778 11.2721 6.7158C11.2721 7.81383 10.382 8.70394 9.284 8.70394H6.07396C5.75369 8.70394 5.49406 8.96357 5.49406 9.28384C5.49406 9.60411 5.75369 9.86374 6.07396 9.86374H9.284C11.0226 9.86374 12.4319 8.45437 12.4319 6.7158C12.4319 4.97724 11.0226 3.56787 9.284 3.56787H4.14793C2.40938 3.56787 1 4.97724 1 6.7158C1 7.51376 1.29765 8.24362 1.78714 8.79818C1.99908 9.03829 2.36554 9.06113 2.60566 8.84919C2.84577 8.63726 2.86861 8.27079 2.65667 8.03068C2.34704 7.67989 2.1598 7.22042 2.1598 6.7158Z" fill="black"/>
<path d="M6.716 6.1359C4.97743 6.1359 3.56806 7.54527 3.56806 9.28383C3.56806 11.0224 4.97743 12.4318 6.716 12.4318H11.8521C13.5906 12.4318 15 11.0224 15 9.28383C15 8.48587 14.7023 7.75602 14.2129 7.20146C14.0009 6.96135 13.6345 6.9385 13.3943 7.15044C13.1542 7.36237 13.1314 7.72883 13.3433 7.96895C13.653 8.31975 13.8402 8.77922 13.8402 9.28383C13.8402 10.3819 12.9501 11.272 11.8521 11.272H6.716C5.61797 11.272 4.72786 10.3819 4.72786 9.28383C4.72786 8.18581 5.61797 7.2957 6.716 7.2957H9.92604C10.2463 7.2957 10.5059 7.03607 10.5059 6.7158C10.5059 6.39553 10.2463 6.1359 9.92604 6.1359H6.716Z" fill="black"/>
</g>
</svg>
