<svg width="16" height="16" viewBox="0 0 16 16" fill="none" xmlns="http://www.w3.org/2000/svg">
<path d="M9.8816 1.97978C11.0177 0.843607 12.862 0.884962 14.0004 2.02342C15.1389 3.16188 15.1803 5.00612 14.0441 6.14228L11.399 8.78737C11.1608 9.02559 10.7746 9.02559 10.5363 8.78737C10.2981 8.54915 10.2981 8.16292 10.5363 7.9247L13.1814 5.2796C13.8195 4.64155 13.8217 3.57006 13.1378 2.8861C12.4538 2.20211 11.3823 2.20438 10.7443 2.84245L7.6976 5.88911L7.69317 5.89349C7.05959 6.53211 7.05894 7.60014 7.74132 8.28252C7.97954 8.52074 7.97954 8.90697 7.74132 9.14519C7.5031 9.38341 7.11687 9.38341 6.87865 9.14519C5.74016 8.00671 5.69884 6.16251 6.83497 5.02633L6.84021 5.02116L9.8816 1.97978Z" fill="black"/>
<path d="M4.61426 7.2364C4.85248 6.99818 5.23871 6.99818 5.47693 7.2364C5.71515 7.47462 5.71515 7.86085 5.47693 8.09907L2.83183 10.7442C2.19375 11.3823 2.1915 12.4537 2.87547 13.1377C3.55945 13.8217 4.6309 13.8194 5.26899 13.1813L8.31566 10.1347C8.32262 10.1277 8.32971 10.121 8.33691 10.1144C8.34408 10.1064 8.3515 10.0986 8.35916 10.091C8.99721 9.45291 8.99949 8.38145 8.3155 7.69746C8.07728 7.45924 8.07728 7.07301 8.3155 6.83479C8.55372 6.59657 8.93995 6.59657 9.17817 6.83479C10.3166 7.97327 10.358 9.81748 9.22183 10.9536C9.21487 10.9606 9.20779 10.9673 9.20058 10.9739C9.19341 10.9819 9.18599 10.9897 9.17833 10.9973L6.13166 14.044C4.99548 15.1802 3.15127 15.1389 2.01279 14.0004C0.874362 12.8619 0.83297 11.0177 1.96916 9.8815L4.61426 7.2364Z" fill="black"/>
</svg>
