<svg width="25" height="25" viewBox="0 0 25 25" fill="none" xmlns="http://www.w3.org/2000/svg">
<mask id="mask0_17_259" style="mask-type:alpha" maskUnits="userSpaceOnUse" x="0" y="0" width="25" height="25">
<rect x="0.521973" y="0.773987" width="24" height="24" fill="#DCDCDC"/>
</mask>
<g mask="url(#mask0_17_259)">
<path d="M3.76167 10.848C3.76167 9.20093 5.09685 7.86576 6.74387 7.86576H14.448C16.095 7.86576 17.4302 9.20093 17.4302 10.848C17.4302 12.495 16.095 13.8302 14.448 13.8302H9.63291C9.15251 13.8302 8.76306 14.2196 8.76306 14.7C8.76306 15.1804 9.15251 15.5699 9.63291 15.5699H14.448C17.0558 15.5699 19.1699 13.4558 19.1699 10.848C19.1699 8.24012 17.0558 6.12607 14.448 6.12607H6.74387C4.13604 6.12607 2.02197 8.24012 2.02197 10.848C2.02197 12.0449 2.46845 13.1397 3.20269 13.9715C3.5206 14.3317 4.07029 14.366 4.43046 14.0481C4.79063 13.7301 4.82489 13.1805 4.50698 12.8203C4.04253 12.2941 3.76167 11.6049 3.76167 10.848Z" fill="#35322B"/>
<path d="M10.596 9.97811C7.98812 9.97811 5.87407 12.0922 5.87407 14.7C5.87407 17.3079 7.98812 19.4219 10.596 19.4219H18.3001C20.9079 19.4219 23.022 17.3079 23.022 14.7C23.022 13.5031 22.5755 12.4083 21.8413 11.5765C21.5234 11.2163 20.9737 11.182 20.6135 11.4999C20.2533 11.8178 20.2191 12.3675 20.537 12.7277C21.0014 13.2539 21.2823 13.9431 21.2823 14.7C21.2823 16.347 19.9471 17.6822 18.3001 17.6822H10.596C8.94893 17.6822 7.61376 16.347 7.61376 14.7C7.61376 13.053 8.94893 11.7178 10.596 11.7178H15.411C15.8914 11.7178 16.2809 11.3284 16.2809 10.848C16.2809 10.3676 15.8914 9.97811 15.411 9.97811H10.596Z" fill="#35322B"/>
</g>
</svg>
