<svg width="17" height="17" viewBox="0 0 17 17" fill="none" xmlns="http://www.w3.org/2000/svg">
<mask id="mask0_102_329" style="mask-type:alpha" maskUnits="userSpaceOnUse" x="0" y="0" width="17" height="17">
<rect x="0.0618896" y="0.808105" width="16" height="16" fill="#DCDCDC"/>
</mask>
<g mask="url(#mask0_102_329)">
<path d="M2.22169 7.52391C2.22169 6.42589 3.1118 5.53577 4.20982 5.53577H9.34589C10.4439 5.53577 11.334 6.42589 11.334 7.52391C11.334 8.62193 10.4439 9.51205 9.34589 9.51205H6.13585C5.81558 9.51205 5.55595 9.77168 5.55595 10.0919C5.55595 10.4122 5.81558 10.6718 6.13585 10.6718H9.34589C11.0845 10.6718 12.4938 9.26247 12.4938 7.52391C12.4938 5.78535 11.0845 4.37598 9.34589 4.37598H4.20982C2.47127 4.37598 1.06189 5.78535 1.06189 7.52391C1.06189 8.32186 1.35954 9.05172 1.84903 9.60629C2.06097 9.8464 2.42743 9.86924 2.66755 9.6573C2.90766 9.44536 2.9305 9.0789 2.71856 8.83879C2.40893 8.48799 2.22169 8.02853 2.22169 7.52391Z" fill="black"/>
<path d="M6.77789 6.944C5.03932 6.944 3.62995 8.35337 3.62995 10.0919C3.62995 11.8305 5.03932 13.2399 6.77789 13.2399H11.914C13.6525 13.2399 15.0619 11.8305 15.0619 10.0919C15.0619 9.29398 14.7642 8.56412 14.2747 8.00957C14.0628 7.76945 13.6964 7.74661 13.4562 7.95854C13.2161 8.17048 13.1933 8.53694 13.4052 8.77706C13.7148 9.12786 13.9021 9.58733 13.9021 10.0919C13.9021 11.19 13.012 12.0801 11.914 12.0801H6.77789C5.67986 12.0801 4.78975 11.19 4.78975 10.0919C4.78975 8.99391 5.67986 8.1038 6.77789 8.1038H9.98793C10.3082 8.1038 10.5678 7.84417 10.5678 7.5239C10.5678 7.20363 10.3082 6.944 9.98793 6.944H6.77789Z" fill="black"/>
</g>
</svg>
