<svg width="16" height="16" viewBox="0 0 16 16" fill="none" xmlns="http://www.w3.org/2000/svg">
<path fill-rule="evenodd" clip-rule="evenodd" d="M5.9564 2.91332C4.91407 1.87102 3.22413 1.87101 2.18182 2.91333L2.18182 2.91333C1.13953 3.95567 1.13952 5.6456 2.18182 6.68791L8.27777 12.7838C9.72408 14.2302 12.069 14.2302 13.5154 12.7839L13.0911 12.3596L13.5154 12.7839C14.9617 11.3375 14.9617 8.99257 13.5154 7.54626L8.39476 2.42566C8.16044 2.19134 7.78054 2.19134 7.54623 2.42566C7.31191 2.65997 7.31191 3.03987 7.54623 3.27419L12.6668 8.39479L13.0911 7.97052L12.6668 8.39479C13.6445 9.37247 13.6445 10.9576 12.6668 11.9353L13.0399 12.3084L12.6668 11.9353C11.6891 12.913 10.104 12.913 9.1263 11.9353L3.03035 5.83938C2.45668 5.26571 2.45667 4.33556 3.03036 3.76184C3.60403 3.18818 4.53416 3.18817 5.10788 3.76185C5.10788 3.76186 5.10788 3.76186 5.10789 3.76186L11.2038 9.8578L11.601 9.46061L11.2038 9.8578C11.3735 10.0275 11.3735 10.3026 11.2038 10.4723L11.2038 10.4723C11.0341 10.642 10.759 10.642 10.5893 10.4723L5.46874 5.35171C5.23442 5.1174 4.85452 5.1174 4.62021 5.35171C4.38589 5.58602 4.38589 5.96592 4.62021 6.20024L9.74078 11.3208C10.3791 11.9591 11.414 11.9591 12.0523 11.3208C12.0523 11.3208 12.0523 11.3208 12.0523 11.3208M12.0523 11.3208C12.6907 10.6825 12.6906 9.64757 12.0523 9.00927L5.95641 2.91333L5.9564 2.91332" fill="black"/>
</svg>
