<svg width="25" height="25" viewBox="0 0 25 25" fill="none" xmlns="http://www.w3.org/2000/svg">
<mask id="mask0_17_262" style="mask-type:alpha" maskUnits="userSpaceOnUse" x="0" y="0" width="25" height="25">
<rect x="0.521973" y="0.773987" width="24" height="24" fill="#DCDCDC"/>
</mask>
<g mask="url(#mask0_17_262)">
<path fill-rule="evenodd" clip-rule="evenodd" d="M5.64329 2.77399C4.67923 2.77399 3.89771 3.55551 3.89771 4.51957V21.0284C3.89771 21.9925 4.67924 22.774 5.64329 22.774H11.1462C11.6038 22.774 11.9747 22.4031 11.9747 21.9456C11.9747 21.488 11.6038 21.1171 11.1462 21.1171H5.64329C5.59428 21.1171 5.55456 21.0774 5.55456 21.0284V4.51957C5.55456 4.47057 5.59429 4.43084 5.64329 4.43084H13.9865V8.1882C13.9865 8.64573 14.3574 9.01663 14.8149 9.01663H18.5722V12.3154C18.5722 12.7729 18.9431 13.1438 19.4006 13.1438C19.8582 13.1438 20.2291 12.7729 20.2291 12.3154V8.19828C20.2291 8.19492 20.2291 8.19157 20.2291 8.1882C20.2291 7.97185 20.1462 7.77487 20.0104 7.62732L15.8892 3.04823C15.7321 2.87366 15.5083 2.77399 15.2734 2.77399H5.64329ZM15.6434 5.2518V7.35977H17.5405L15.6434 5.2518Z" fill="#35322B"/>
<path fill-rule="evenodd" clip-rule="evenodd" d="M13.8977 16.5313C13.4402 16.5313 13.0693 16.9022 13.0693 17.3598V21.0284C13.0693 21.4859 13.4402 21.8568 13.8977 21.8568H20.3178C20.7753 21.8568 21.1462 21.4859 21.1462 21.0284V17.3598C21.1462 16.9022 20.7753 16.5313 20.3178 16.5313H19.3119V15.9841C19.3119 14.7667 18.3251 13.7799 17.1078 13.7799C15.8904 13.7799 14.9036 14.7667 14.9036 15.9841V16.5313H13.8977ZM18.4835 18.1882L18.4776 18.1882H15.7379L15.732 18.1882L15.7261 18.1882H14.7261V20.2H19.4894V18.1882H18.4894L18.4835 18.1882ZM17.6551 15.9841V16.5313H16.5605V15.9841C16.5605 15.6818 16.8055 15.4367 17.1078 15.4367C17.4101 15.4367 17.6551 15.6818 17.6551 15.9841Z" fill="#35322B"/>
</g>
</svg>
