<svg width="25" height="25" viewBox="0 0 25 25" fill="none" xmlns="http://www.w3.org/2000/svg">
<mask id="mask0_17_265" style="mask-type:alpha" maskUnits="userSpaceOnUse" x="0" y="0" width="25" height="25">
<rect x="0.279541" y="0.773987" width="24" height="24" fill="#DCDCDC"/>
</mask>
<g mask="url(#mask0_17_265)">
<path d="M10.0068 8.68308C10.0068 8.181 10.4138 7.77399 10.9159 7.77399H13.6432C14.1453 7.77399 14.5523 8.181 14.5523 8.68308C14.5523 9.18515 14.1453 9.59217 13.6432 9.59217H10.9159C10.4138 9.59217 10.0068 9.18515 10.0068 8.68308Z" fill="#35322B"/>
<path d="M10.0068 18.2285C9.50475 18.2285 9.09773 18.6355 9.09773 19.1376C9.09773 19.6397 9.50475 20.0467 10.0068 20.0467H14.5523C15.0544 20.0467 15.4614 19.6397 15.4614 19.1376C15.4614 18.6355 15.0544 18.2285 14.5523 18.2285H10.0068Z" fill="#35322B"/>
<path fill-rule="evenodd" clip-rule="evenodd" d="M4.55228 2.77399C4.0502 2.77399 3.64319 3.181 3.64319 3.68308C3.64319 4.18515 4.0502 4.59217 4.55228 4.59217H5.63197C6.22853 7.3177 7.00457 9.47167 7.99461 10.9948C8.46771 11.7227 9.00334 12.3242 9.60237 12.7724C9.0033 13.2202 8.46766 13.8216 7.99461 14.5494C7.00445 16.0727 6.22839 18.228 5.63185 20.9558H4.55228C4.0502 20.9558 3.64319 21.3628 3.64319 21.8649C3.64319 22.367 4.0502 22.774 4.55228 22.774H20.0068C20.5089 22.774 20.9159 22.367 20.9159 21.8649C20.9159 21.3628 20.5089 20.9558 20.0068 20.9558H18.9271C18.3306 18.2303 17.5545 16.0763 16.5645 14.5532C16.0914 13.8253 15.5558 13.2237 14.9567 12.7755C15.5558 12.3278 16.0914 11.7264 16.5645 10.9986C17.5547 9.47528 18.3307 7.31998 18.9273 4.59217H20.0068C20.5089 4.59217 20.9159 4.18515 20.9159 3.68308C20.9159 3.181 20.5089 2.77399 20.0068 2.77399H4.55228ZM17.0638 4.59217H7.49546C8.05427 7.01643 8.73869 8.80336 9.51905 10.0039C10.3971 11.3548 11.3211 11.864 12.2804 11.8649C13.2388 11.8658 14.1621 11.3584 15.0401 10.0077C15.8205 8.80709 16.505 7.01894 17.0638 4.59217ZM12.2787 13.6831L12.277 13.6831C11.3192 13.6828 10.3965 14.1904 9.51905 15.5403C8.73864 16.7409 8.05413 18.529 7.49526 20.9558H17.0636C16.5048 18.5315 15.8204 16.7446 15.0401 15.5441C14.162 14.1932 13.238 13.684 12.2787 13.6831Z" fill="#35322B"/>
</g>
</svg>
