<svg width="16" height="16" viewBox="0 0 16 16" fill="none" xmlns="http://www.w3.org/2000/svg">
<path fill-rule="evenodd" clip-rule="evenodd" d="M8 5.7334C6.74817 5.7334 5.73334 6.74823 5.73334 8.00006C5.73334 9.2519 6.74817 10.2667 8 10.2667C9.25184 10.2667 10.2667 9.2519 10.2667 8.00006C10.2667 6.74823 9.25184 5.7334 8 5.7334ZM6.93334 8.00006C6.93334 7.41097 7.41091 6.9334 8 6.9334C8.5891 6.9334 9.06667 7.41097 9.06667 8.00006C9.06667 8.58916 8.5891 9.06673 8 9.06673C7.41091 9.06673 6.93334 8.58916 6.93334 8.00006Z" fill="black"/>
<path fill-rule="evenodd" clip-rule="evenodd" d="M5.44389 1.10999C4.52255 1.10999 3.67002 1.59758 3.20288 2.39171L0.679295 6.68171C0.200652 7.49539 0.200652 8.50458 0.679295 9.31826L3.20287 13.6083C3.67002 14.4024 4.52255 14.89 5.44389 14.89H10.5561C11.4775 14.89 12.33 14.4024 12.7972 13.6082L15.3206 9.31821C15.7992 8.50456 15.7992 7.49542 15.3206 6.68176L12.7972 2.39176C12.33 1.59761 11.4775 1.10999 10.5561 1.10999H5.44389ZM4.23719 3.00015C4.48873 2.57254 4.94779 2.30999 5.44389 2.30999H10.5561C11.0523 2.30999 11.5113 2.57255 11.7629 3.00017L14.2863 7.29017C14.544 7.72829 14.544 8.27168 14.2863 8.7098L11.7629 12.9998C11.5113 13.4274 11.0523 13.69 10.5561 13.69H5.44389C4.94779 13.69 4.48873 13.4274 4.23719 12.9998L1.71361 8.70982C1.45588 8.27169 1.45588 7.72828 1.71361 7.29015L4.23719 3.00015Z" fill="black"/>
</svg>
