<svg width="25" height="25" viewBox="0 0 25 25" fill="none" xmlns="http://www.w3.org/2000/svg">
<mask id="mask0_17_268" style="mask-type:alpha" maskUnits="userSpaceOnUse" x="0" y="0" width="25" height="25">
<rect x="0.521973" y="0.773987" width="24" height="24" fill="#DCDCDC"/>
</mask>
<g mask="url(#mask0_17_268)">
<path d="M17.5628 6.38627C17.9348 6.01434 18.5378 6.01434 18.9097 6.38627C19.2816 6.75819 19.2816 7.36121 18.9097 7.73314L7.48112 19.1617C7.10919 19.5336 6.50618 19.5336 6.13425 19.1617C5.76232 18.7898 5.76232 18.1868 6.13425 17.8148L17.5628 6.38627Z" fill="#35322B"/>
<path d="M7.76007 8.01208H6.80769C6.2817 8.01208 5.85531 8.43848 5.85531 8.96446C5.85531 9.49045 6.2817 9.91684 6.80769 9.91684H7.76007V10.8692C7.76007 11.3952 8.18646 11.8216 8.71245 11.8216C9.23843 11.8216 9.66483 11.3952 9.66483 10.8692V9.91684H10.6172C11.1432 9.91684 11.5696 9.49045 11.5696 8.96446C11.5696 8.43848 11.1432 8.01208 10.6172 8.01208H9.66483V7.0597C9.66483 6.53372 9.23843 6.10732 8.71245 6.10732C8.18646 6.10732 7.76007 6.53372 7.76007 7.0597V8.01208Z" fill="#35322B"/>
<path d="M12.9982 17.0597C12.9982 16.5337 13.4246 16.1073 13.9505 16.1073H17.7601C18.2861 16.1073 18.7124 16.5337 18.7124 17.0597C18.7124 17.5857 18.2861 18.0121 17.7601 18.0121H13.9505C13.4246 18.0121 12.9982 17.5857 12.9982 17.0597Z" fill="#35322B"/>
<path fill-rule="evenodd" clip-rule="evenodd" d="M2.52197 5.15494C2.52197 3.83998 3.58796 2.77399 4.90293 2.77399H20.141C21.456 2.77399 22.522 3.83999 22.522 5.15494V20.393C22.522 21.708 21.456 22.774 20.141 22.774H4.90293C3.58797 22.774 2.52197 21.708 2.52197 20.393V5.15494ZM4.90293 4.67875C4.63993 4.67875 4.42673 4.89195 4.42673 5.15494V20.393C4.42673 20.656 4.63992 20.8692 4.90293 20.8692H20.141C20.404 20.8692 20.6172 20.656 20.6172 20.393V5.15494C20.6172 4.89194 20.404 4.67875 20.141 4.67875H4.90293Z" fill="#35322B"/>
</g>
</svg>
