<svg width="16" height="16" viewBox="0 0 16 16" fill="none" xmlns="http://www.w3.org/2000/svg">
<path fill-rule="evenodd" clip-rule="evenodd" d="M9.56665 3.30559C9.56665 1.97703 10.6437 0.900024 11.9722 0.900024C13.3008 0.900024 14.3778 1.97703 14.3778 3.30559C14.3778 4.63413 13.3008 5.71115 11.9722 5.71115C11.266 5.71115 10.6309 5.40684 10.1908 4.9222L6.31986 7.26747C6.39362 7.49845 6.43344 7.7446 6.43344 8.00004C6.43344 8.23219 6.40055 8.45665 6.33919 8.66903L10.2718 10.9928C10.7071 10.5578 11.3082 10.2888 11.9722 10.2888C13.3008 10.2888 14.3778 11.3658 14.3778 12.6944C14.3778 14.0229 13.3008 15.0999 11.9722 15.0999C10.6437 15.0999 9.56665 14.0229 9.56665 12.6944C9.56665 12.4623 9.59951 12.238 9.66082 12.0257L5.72811 9.70179C5.29284 10.1367 4.69176 10.4056 4.02788 10.4056C2.69933 10.4056 1.62231 9.32859 1.62231 8.00004C1.62231 6.6715 2.69933 5.59448 4.02788 5.59448C4.66781 5.59448 5.24938 5.84436 5.68034 6.25187L9.63052 3.8586C9.58875 3.68104 9.56665 3.49589 9.56665 3.30559ZM11.9722 2.10002C11.3064 2.10002 10.7667 2.63978 10.7667 3.30559C10.7667 3.97139 11.3064 4.51115 11.9722 4.51115C12.638 4.51115 13.1778 3.97139 13.1778 3.30559C13.1778 2.63978 12.638 2.10002 11.9722 2.10002ZM4.02788 6.79448C3.36207 6.79448 2.82231 7.33424 2.82231 8.00004C2.82231 8.66585 3.36207 9.20561 4.02788 9.20561C4.69368 9.20561 5.23344 8.66585 5.23344 8.00004C5.23344 7.33424 4.69368 6.79448 4.02788 6.79448ZM10.7667 12.6944C10.7667 12.0286 11.3064 11.4888 11.9722 11.4888C12.638 11.4888 13.1778 12.0286 13.1778 12.6944C13.1778 13.3602 12.638 13.8999 11.9722 13.8999C11.3064 13.8999 10.7667 13.3602 10.7667 12.6944Z" fill="black"/>
</svg>
