<svg width="29" height="29" viewBox="0 0 29 29" fill="none" xmlns="http://www.w3.org/2000/svg">
<mask id="mask0_17_707" style="mask-type:alpha" maskUnits="userSpaceOnUse" x="0" y="0" width="29" height="29">
<rect x="0.529663" y="0.773987" width="28" height="28" fill="#DCDCDC"/>
</mask>
<g mask="url(#mask0_17_707)">
<path fill-rule="evenodd" clip-rule="evenodd" d="M16.7791 6.87049C16.7791 4.41939 18.7661 2.43237 21.2172 2.43237C23.6683 2.43237 25.6553 4.41939 25.6553 6.87049C25.6553 9.32158 23.6683 11.3086 21.2172 11.3086C20.0303 11.3086 18.9522 10.8427 18.1559 10.0838L12.1542 13.72C12.2365 14.0578 12.2802 14.4108 12.2802 14.774C12.2802 15.0964 12.2458 15.4107 12.1805 15.7136L18.3021 19.3309C19.0818 18.6511 20.1014 18.2394 21.2172 18.2394C23.6683 18.2394 25.6553 20.2264 25.6553 22.6775C25.6553 25.1286 23.6683 27.1156 21.2172 27.1156C18.7661 27.1156 16.7791 25.1286 16.7791 22.6775C16.7791 22.3552 16.8134 22.041 16.8787 21.7382L10.7569 18.1208C9.97715 18.8005 8.95767 19.2121 7.84205 19.2121C5.39096 19.2121 3.40393 17.2251 3.40393 14.774C3.40393 12.3229 5.39096 10.3359 7.84205 10.3359C8.91538 10.3359 9.89972 10.7169 10.6672 11.3511L16.8406 7.61084C16.8001 7.37008 16.7791 7.12274 16.7791 6.87049ZM21.2172 5.229C20.3106 5.229 19.5757 5.96392 19.5757 6.87049C19.5757 7.77705 20.3106 8.51199 21.2172 8.51199C22.1238 8.51199 22.8587 7.77705 22.8587 6.87049C22.8587 5.96392 22.1238 5.229 21.2172 5.229ZM7.84205 13.1325C6.93549 13.1325 6.20055 13.8674 6.20055 14.774C6.20055 15.6805 6.93549 16.4155 7.84205 16.4155C8.74861 16.4155 9.48354 15.6805 9.48354 14.774C9.48354 13.8674 8.74861 13.1325 7.84205 13.1325ZM19.5757 22.6775C19.5757 21.7709 20.3106 21.036 21.2172 21.036C22.1238 21.036 22.8587 21.7709 22.8587 22.6775C22.8587 23.584 22.1238 24.319 21.2172 24.319C20.3106 24.319 19.5757 23.584 19.5757 22.6775Z" fill="#35322B"/>
</g>
</svg>
