<svg width="17" height="17" viewBox="0 0 17 17" fill="none" xmlns="http://www.w3.org/2000/svg">
<mask id="mask0_106_1259" style="mask-type:alpha" maskUnits="userSpaceOnUse" x="0" y="0" width="17" height="17">
<rect x="0.953613" y="0.808105" width="16" height="16" fill="#DCDCDC"/>
</mask>
<g mask="url(#mask0_106_1259)">
<path fill-rule="evenodd" clip-rule="evenodd" d="M10.3312 4.44968C10.3312 3.17375 11.3655 2.1394 12.6414 2.1394C13.9174 2.1394 14.9517 3.17375 14.9517 4.44968C14.9517 5.7256 13.9174 6.75995 12.6414 6.75995C11.3655 6.75995 10.3312 5.7256 10.3312 4.44968ZM12.6414 3.40731C12.0658 3.40731 11.5991 3.874 11.5991 4.44968C11.5991 5.02535 12.0658 5.49204 12.6414 5.49204C13.2171 5.49204 13.6838 5.02535 13.6838 4.44968C13.6838 3.874 13.2171 3.40731 12.6414 3.40731Z" fill="black"/>
<path fill-rule="evenodd" clip-rule="evenodd" d="M2.95544 8.80832C2.95544 7.5324 3.9898 6.49805 5.26572 6.49805C6.54164 6.49805 7.57599 7.5324 7.57599 8.80832C7.57599 10.0842 6.54164 11.1186 5.26572 11.1186C3.9898 11.1186 2.95544 10.0842 2.95544 8.80832ZM5.26572 7.76595C4.69004 7.76595 4.22335 8.23264 4.22335 8.80832C4.22335 9.38399 4.69004 9.85068 5.26572 9.85068C5.84139 9.85068 6.30808 9.38399 6.30808 8.80832C6.30808 8.23264 5.84139 7.76595 5.26572 7.76595Z" fill="black"/>
<path fill-rule="evenodd" clip-rule="evenodd" d="M11.5076 4.98426C11.689 5.28371 11.5934 5.67353 11.2939 5.85496L7.0491 8.42673C6.74964 8.60816 6.35982 8.51248 6.17839 8.21303C5.99697 7.91358 6.09264 7.52376 6.39209 7.34233L10.6369 4.77055C10.9364 4.58913 11.3262 4.68481 11.5076 4.98426Z" fill="black"/>
<path fill-rule="evenodd" clip-rule="evenodd" d="M6.17445 9.34474C6.35257 9.04331 6.74132 8.94335 7.04275 9.12147L11.5153 11.7644C11.8167 11.9425 11.9167 12.3312 11.7386 12.6327C11.5605 12.9341 11.1717 13.034 10.8703 12.8559L6.39772 10.213C6.09629 10.0349 5.99633 9.64617 6.17445 9.34474Z" fill="black"/>
<path fill-rule="evenodd" clip-rule="evenodd" d="M12.6414 12.1241C12.0658 12.1241 11.5991 12.5908 11.5991 13.1665C11.5991 13.7421 12.0658 14.2088 12.6414 14.2088C13.2171 14.2088 13.6838 13.7421 13.6838 13.1665C13.6838 12.5908 13.2171 12.1241 12.6414 12.1241ZM10.3312 13.1665C10.3312 11.8906 11.3655 10.8562 12.6414 10.8562C13.9174 10.8562 14.9517 11.8906 14.9517 13.1665C14.9517 14.4424 13.9174 15.4767 12.6414 15.4767C11.3655 15.4767 10.3312 14.4424 10.3312 13.1665Z" fill="black"/>
</g>
</svg>
