<svg width="16" height="16" viewBox="0 0 16 16" fill="none" xmlns="http://www.w3.org/2000/svg">
<mask id="mask0_106_1259" style="mask-type:alpha" maskUnits="userSpaceOnUse" x="0" y="0" width="16" height="16">
<rect width="16" height="16" fill="#DCDCDC"/>
</mask>
<g mask="url(#mask0_106_1259)">
<path fill-rule="evenodd" clip-rule="evenodd" d="M9.37756 3.64157C9.37756 2.36564 10.4119 1.3313 11.6878 1.3313C12.9638 1.3313 13.9981 2.36564 13.9981 3.64157C13.9981 4.91749 12.9638 5.95184 11.6878 5.95184C10.4119 5.95184 9.37756 4.91749 9.37756 3.64157ZM11.6878 2.59921C11.1122 2.59921 10.6455 3.06589 10.6455 3.64157C10.6455 4.21725 11.1122 4.68394 11.6878 4.68394C12.2635 4.68394 12.7302 4.21725 12.7302 3.64157C12.7302 3.06589 12.2635 2.59921 11.6878 2.59921Z" fill="black"/>
<path fill-rule="evenodd" clip-rule="evenodd" d="M2.00183 8.00009C2.00183 6.72417 3.03618 5.68982 4.3121 5.68982C5.58802 5.68982 6.62238 6.72417 6.62238 8.00009C6.62238 9.27601 5.58802 10.3104 4.3121 10.3104C3.03618 10.3104 2.00183 9.27601 2.00183 8.00009ZM4.3121 6.95773C3.73643 6.95773 3.26974 7.42442 3.26974 8.00009C3.26974 8.57577 3.73643 9.04246 4.3121 9.04246C4.88778 9.04246 5.35447 8.57577 5.35447 8.00009C5.35447 7.42442 4.88778 6.95773 4.3121 6.95773Z" fill="black"/>
<path fill-rule="evenodd" clip-rule="evenodd" d="M10.554 4.17603C10.7354 4.47548 10.6397 4.86531 10.3403 5.04673L6.09548 7.61851C5.79603 7.79993 5.4062 7.70426 5.22478 7.40481C5.04335 7.10536 5.13903 6.71553 5.43848 6.5341L9.68329 3.96233C9.98274 3.7809 10.3726 3.87658 10.554 4.17603Z" fill="black"/>
<path fill-rule="evenodd" clip-rule="evenodd" d="M5.22083 8.53676C5.39895 8.23533 5.7877 8.13537 6.08913 8.31349L10.5617 10.9564C10.8631 11.1345 10.9631 11.5232 10.785 11.8247C10.6068 12.1261 10.2181 12.2261 9.91666 12.0479L5.44411 9.40506C5.14268 9.22694 5.04272 8.83819 5.22083 8.53676Z" fill="black"/>
<path fill-rule="evenodd" clip-rule="evenodd" d="M11.6878 11.3161C11.1122 11.3161 10.6455 11.7828 10.6455 12.3585C10.6455 12.9342 11.1122 13.4009 11.6878 13.4009C12.2635 13.4009 12.7302 12.9342 12.7302 12.3585C12.7302 11.7828 12.2635 11.3161 11.6878 11.3161ZM9.37756 12.3585C9.37756 11.0826 10.4119 10.0482 11.6878 10.0482C12.9638 10.0482 13.9981 11.0826 13.9981 12.3585C13.9981 13.6344 12.9638 14.6688 11.6878 14.6688C10.4119 14.6688 9.37756 13.6344 9.37756 12.3585Z" fill="black"/>
</g>
</svg>
