<svg width="16" height="16" viewBox="0 0 16 16" fill="none" xmlns="http://www.w3.org/2000/svg">
<path d="M4.29332 2.55614C4.4731 1.81473 5.52755 1.81473 5.70733 2.55614L6.20201 4.59617C6.26619 4.86087 6.47287 5.06755 6.73757 5.13173L8.7776 5.62641C9.51901 5.80619 9.51901 6.86064 8.77761 7.04042L6.73757 7.5351C6.47287 7.59928 6.26619 7.80596 6.20201 8.07066L5.70733 10.1107C5.52755 10.8521 4.4731 10.8521 4.29332 10.1107L3.79864 8.07066C3.73446 7.80596 3.52778 7.59928 3.26308 7.5351L1.22305 7.04042C0.481641 6.86064 0.48164 5.80619 1.22305 5.62641L3.26308 5.13173C3.52778 5.06755 3.73446 4.86087 3.79864 4.59617L4.29332 2.55614Z" fill="black"/>
<path d="M10.2319 9.6756C10.3425 9.21935 10.9914 9.21935 11.1021 9.6756L11.4065 10.931C11.446 11.0939 11.5732 11.2211 11.7361 11.2606L12.9915 11.565C13.4477 11.6756 13.4477 12.3245 12.9915 12.4352L11.7361 12.7396C11.5732 12.7791 11.446 12.9063 11.4065 13.0692L11.1021 14.3246C10.9914 14.7808 10.3425 14.7808 10.2319 14.3246L9.9275 13.0692C9.888 12.9063 9.76081 12.7791 9.59792 12.7396L8.34251 12.4352C7.88626 12.3245 7.88626 11.6756 8.34251 11.565L9.59792 11.2606C9.76081 11.2211 9.888 11.0939 9.9275 10.931L10.2319 9.6756Z" fill="black"/>
<path d="M12.3815 2.47464C12.4541 2.17523 12.8799 2.17523 12.9525 2.47464L13.1523 3.2985C13.1782 3.4054 13.2617 3.48887 13.3686 3.51479L14.1924 3.71456C14.4918 3.78716 14.4918 4.213 14.1924 4.2856L13.3686 4.48538C13.2617 4.5113 13.1782 4.59476 13.1523 4.70166L12.9525 5.52552C12.8799 5.82493 12.4541 5.82494 12.3815 5.52552L12.1817 4.70166C12.1558 4.59476 12.0723 4.5113 11.9654 4.48538L11.1416 4.2856C10.8421 4.213 10.8421 3.78716 11.1416 3.71456L11.9654 3.51479C12.0723 3.48887 12.1558 3.4054 12.1817 3.2985L12.3815 2.47464Z" fill="black"/>
<path fill-rule="evenodd" clip-rule="evenodd" d="M12.667 2.62081L12.5039 3.29322C12.4388 3.562 12.2289 3.77186 11.9601 3.83703L11.2877 4.00008L11.9601 4.16313C12.2289 4.22831 12.4388 4.43816 12.5039 4.70694L12.667 5.37935L12.83 4.70694C12.8952 4.43816 13.1051 4.22831 13.3738 4.16313L14.0463 4.00008L13.3738 3.83703C13.1051 3.77186 12.8952 3.562 12.83 3.29322L12.667 2.62081ZM12.9933 2.25672C12.9103 1.91453 12.4237 1.91453 12.3407 2.25672L12.1124 3.19827C12.0827 3.32045 11.9874 3.41583 11.8652 3.44546L10.9236 3.67377C10.5814 3.75675 10.5814 4.24342 10.9236 4.32639L11.8652 4.5547C11.9874 4.58433 12.0827 4.67972 12.1124 4.80189L12.3407 5.74344C12.4237 6.08563 12.9103 6.08563 12.9933 5.74344L13.2216 4.80189C13.2512 4.67972 13.3466 4.58433 13.4688 4.5547L14.4104 4.32639C14.7525 4.24342 14.7525 3.75675 14.4104 3.67377L13.4688 3.44546C13.3466 3.41583 13.2512 3.32045 13.2216 3.19827L12.9933 2.25672Z" fill="black"/>
<path d="M4.66699 15.3334C4.2988 15.3334 4.00033 15.0349 4.00033 14.6667C4.00033 14.2986 4.2988 14.0001 4.66699 14.0001C5.03518 14.0001 5.33366 14.2986 5.33366 14.6667C5.33366 15.0349 5.03518 15.3334 4.66699 15.3334Z" fill="black"/>
<path d="M1.33366 12.6667C0.965469 12.6667 0.666992 12.3683 0.666992 12.0001C0.666992 11.6319 0.965469 11.3334 1.33366 11.3334C1.70185 11.3334 2.00033 11.6319 2.00033 12.0001C2.00033 12.3683 1.70185 12.6667 1.33366 12.6667Z" fill="black"/>
<path d="M8.66699 2.00008C8.2988 2.00008 8.00033 1.7016 8.00033 1.33341C8.00033 0.965225 8.2988 0.666748 8.66699 0.666748C9.03518 0.666748 9.33366 0.965225 9.33366 1.33341C9.33366 1.7016 9.03518 2.00008 8.66699 2.00008Z" fill="black"/>
<path d="M14.667 9.33342C14.2988 9.33342 14.0003 9.03494 14.0003 8.66675C14.0003 8.29856 14.2988 8.00008 14.667 8.00008C15.0352 8.00008 15.3337 8.29856 15.3337 8.66675C15.3337 9.03494 15.0352 9.33342 14.667 9.33342Z" fill="black"/>
</svg>
