<svg width="16" height="16" viewBox="0 0 16 16" fill="none" xmlns="http://www.w3.org/2000/svg">
<path fill-rule="evenodd" clip-rule="evenodd" d="M1.44238 4.42119C1.44238 3.43444 2.2423 2.63452 3.22905 2.63452H5.51969C7.25782 2.63452 8.66683 4.04353 8.66683 5.78166V13.3532C8.66683 13.7214 8.36835 14.0199 8.00016 14.0199C7.63197 14.0199 7.3335 13.7214 7.3335 13.3532C7.3335 13.1847 7.29954 13.1246 7.29192 13.1126C7.28741 13.1056 7.2733 13.0834 7.20453 13.0555C7.01256 12.9776 6.69086 12.9596 6.13981 12.9596H3.22905C2.2423 12.9596 1.44238 12.1596 1.44238 11.1729V4.42119ZM7.3335 11.7091V5.78166C7.3335 4.77991 6.52144 3.96785 5.51969 3.96785H3.22905C2.97868 3.96785 2.77572 4.17082 2.77572 4.42119V11.1729C2.77572 11.4233 2.97868 11.6262 3.22905 11.6262H6.151C6.50859 11.6262 6.93883 11.6262 7.3335 11.7091Z" fill="black"/>
<path fill-rule="evenodd" clip-rule="evenodd" d="M7.33301 5.78166C7.33301 4.04353 8.74202 2.63452 10.4801 2.63452H12.7708C13.7575 2.63452 14.5575 3.43444 14.5575 4.42119V11.1729C14.5575 12.1596 13.7575 12.9596 12.7708 12.9596H9.86003C9.30898 12.9596 8.98727 12.9776 8.79531 13.0555C8.72654 13.0834 8.71259 13.1053 8.70807 13.1124C8.70046 13.1243 8.66634 13.1847 8.66634 13.3532C8.66634 13.7214 8.36786 14.0199 7.99967 14.0199C7.63148 14.0199 7.33301 13.7214 7.33301 13.3532V5.78166ZM8.66634 11.7091C9.06101 11.6262 9.49125 11.6262 9.84884 11.6262H12.7708C13.0212 11.6262 13.2241 11.4233 13.2241 11.1729V4.42119C13.2241 4.17082 13.0212 3.96785 12.7708 3.96785H10.4801C9.4784 3.96785 8.66634 4.77991 8.66634 5.78166V11.7091Z" fill="black"/>
</svg>
