<svg width="16" height="16" viewBox="0 0 16 16" fill="none" xmlns="http://www.w3.org/2000/svg">
<path d="M13.7398 12.7934C14.1575 12.2333 14.4443 11.5866 14.5787 10.901C14.7132 10.2153 14.692 9.50824 14.5166 8.83189C14.3413 8.15553 14.0164 7.52718 13.5657 6.9932C13.1151 6.45922 12.5503 6.03324 11.9131 5.7467C11.7743 4.9481 11.4553 4.19165 10.9803 3.53482C10.5053 2.87798 9.88689 2.33805 9.17198 1.95606C8.45706 1.57406 7.66448 1.36004 6.85445 1.33026C6.04443 1.30048 5.23827 1.45573 4.49724 1.78421C3.75621 2.11269 3.0998 2.60575 2.57788 3.22594C2.05596 3.84612 1.68228 4.57711 1.48521 5.36337C1.28815 6.14962 1.27289 6.97045 1.4406 7.76348C1.60831 8.55651 1.95458 9.30088 2.45308 9.94004L1.52642 10.86C1.43391 10.9538 1.37125 11.0728 1.34633 11.2022C1.32142 11.3315 1.33536 11.4653 1.38642 11.5867C1.43643 11.7084 1.52136 11.8127 1.63051 11.8862C1.73966 11.9598 1.86813 11.9994 1.99975 12H5.79308C6.17085 12.7964 6.76644 13.4696 7.51091 13.9415C8.25539 14.4134 9.1183 14.6649 9.99975 14.6667H13.9997C14.1314 14.666 14.2598 14.6264 14.369 14.5529C14.4781 14.4793 14.5631 14.3751 14.6131 14.2534C14.6641 14.132 14.6781 13.9982 14.6532 13.8688C14.6283 13.7395 14.5656 13.6205 14.4731 13.5267L13.7398 12.7934ZM5.33308 10C5.334 10.2233 5.35183 10.4461 5.38642 10.6667H3.60642L3.83975 10.44C3.90224 10.3781 3.95183 10.3043 3.98568 10.2231C4.01952 10.1418 4.03695 10.0547 4.03695 9.9667C4.03695 9.87869 4.01952 9.79156 3.98568 9.71032C3.95183 9.62908 3.90224 9.55534 3.83975 9.49337C3.46612 9.12384 3.16992 8.68353 2.96845 8.19818C2.76699 7.71284 2.66431 7.1922 2.66642 6.6667C2.66642 5.60584 3.08784 4.58842 3.83799 3.83828C4.58814 3.08813 5.60555 2.6667 6.66642 2.6667C7.49421 2.66173 8.30274 2.91629 8.97837 3.39461C9.654 3.87293 10.1627 4.55095 10.4331 5.33337C10.2864 5.33337 10.1464 5.33337 9.99975 5.33337C8.76207 5.33337 7.57509 5.82503 6.69992 6.7002C5.82475 7.57537 5.33308 8.76236 5.33308 10ZM12.3598 13.3334L12.3931 13.3667H9.99975C9.22864 13.3653 8.48186 13.0966 7.88663 12.6064C7.2914 12.1162 6.88453 11.4348 6.73535 10.6783C6.58616 9.92172 6.70389 9.13686 7.06847 8.45738C7.43305 7.7779 8.02193 7.24584 8.73479 6.95184C9.44765 6.65783 10.2404 6.62007 10.978 6.84499C11.7155 7.06991 12.3523 7.54359 12.7798 8.18534C13.2074 8.82709 13.3991 9.59721 13.3225 10.3645C13.2459 11.1318 12.9057 11.8488 12.3598 12.3934C12.2341 12.5165 12.1623 12.6842 12.1597 12.86C12.1601 12.9482 12.178 13.0355 12.2123 13.1167C12.2466 13.198 12.2968 13.2716 12.3598 13.3334V13.3334Z" fill="black"/>
</svg>
