<svg width="16" height="16" viewBox="0 0 16 16" fill="none" xmlns="http://www.w3.org/2000/svg">
<path d="M5.33324 7.33325C5.20139 7.33325 5.0725 7.37235 4.96286 7.44561C4.85323 7.51886 4.76778 7.62298 4.71732 7.7448C4.66687 7.86661 4.65366 8.00066 4.67939 8.12998C4.70511 8.2593 4.7686 8.37809 4.86184 8.47132C4.95507 8.56456 5.07386 8.62805 5.20318 8.65378C5.3325 8.6795 5.46655 8.6663 5.58837 8.61584C5.71018 8.56538 5.8143 8.47993 5.88756 8.3703C5.96081 8.26067 5.99991 8.13177 5.99991 7.99992C5.99991 7.82311 5.92967 7.65354 5.80465 7.52851C5.67962 7.40349 5.51005 7.33325 5.33324 7.33325ZM7.99991 7.33325C7.86806 7.33325 7.73916 7.37235 7.62953 7.44561C7.5199 7.51886 7.43445 7.62298 7.38399 7.7448C7.33353 7.86661 7.32033 8.00066 7.34605 8.12998C7.37178 8.2593 7.43527 8.37809 7.52851 8.47132C7.62174 8.56456 7.74053 8.62805 7.86985 8.65378C7.99917 8.6795 8.13322 8.6663 8.25503 8.61584C8.37685 8.56538 8.48097 8.47993 8.55422 8.3703C8.62748 8.26067 8.66658 8.13177 8.66658 7.99992C8.66658 7.82311 8.59634 7.65354 8.47131 7.52851C8.34629 7.40349 8.17672 7.33325 7.99991 7.33325ZM10.6666 7.33325C10.5347 7.33325 10.4058 7.37235 10.2962 7.44561C10.1866 7.51886 10.1011 7.62298 10.0507 7.7448C10.0002 7.86661 9.987 8.00066 10.0127 8.12998C10.0384 8.2593 10.1019 8.37809 10.1952 8.47132C10.2884 8.56456 10.4072 8.62805 10.5365 8.65378C10.6658 8.6795 10.7999 8.6663 10.9217 8.61584C11.0435 8.56538 11.1476 8.47993 11.2209 8.3703C11.2941 8.26067 11.3332 8.13177 11.3332 7.99992C11.3332 7.82311 11.263 7.65354 11.138 7.52851C11.013 7.40349 10.8434 7.33325 10.6666 7.33325ZM7.99991 1.33325C7.12443 1.33325 6.25752 1.50569 5.44869 1.84072C4.63985 2.17575 3.90492 2.66682 3.28587 3.28587C2.03562 4.53612 1.33324 6.23181 1.33324 7.99992C1.32742 9.53934 1.86044 11.0323 2.83991 12.2199L1.50658 13.5533C1.41407 13.647 1.35141 13.766 1.32649 13.8954C1.30158 14.0247 1.31552 14.1585 1.36658 14.2799C1.42195 14.3999 1.51171 14.5007 1.62448 14.5695C1.73724 14.6384 1.86791 14.6721 1.99991 14.6666H7.99991C9.76802 14.6666 11.4637 13.9642 12.714 12.714C13.9642 11.4637 14.6666 9.76803 14.6666 7.99992C14.6666 6.23181 13.9642 4.53612 12.714 3.28587C11.4637 2.03563 9.76802 1.33325 7.99991 1.33325ZM7.99991 13.3333H3.60658L4.22658 12.7133C4.28957 12.6515 4.33968 12.5779 4.37401 12.4966C4.40834 12.4154 4.42621 12.3281 4.42658 12.2399C4.42407 12.0641 4.35219 11.8963 4.22658 11.7733C3.35363 10.9013 2.81003 9.75361 2.68837 8.52578C2.56672 7.29795 2.87454 6.06592 3.5594 5.0396C4.24425 4.01328 5.26377 3.25616 6.44425 2.89723C7.62474 2.53831 8.89315 2.59979 10.0334 3.07119C11.1736 3.5426 12.1151 4.39477 12.6975 5.48251C13.2799 6.57026 13.4672 7.82628 13.2273 9.03659C12.9875 10.2469 12.3354 11.3366 11.3823 12.1201C10.4291 12.9035 9.23375 13.3323 7.99991 13.3333Z" fill="black"/>
</svg>
