<svg width="16" height="16" viewBox="0 0 16 16" fill="none" xmlns="http://www.w3.org/2000/svg">
<path d="M6.57662 6.8479C6.20935 6.8479 5.91162 7.14563 5.91162 7.5129C5.91162 7.88017 6.20935 8.1779 6.57662 8.1779H8.48589C8.85316 8.1779 9.15089 7.88017 9.15089 7.5129C9.15089 7.14563 8.85316 6.8479 8.48589 6.8479H6.57662Z" fill="black"/>
<path d="M6.57662 9.34521C6.20935 9.34521 5.91162 9.64295 5.91162 10.0102C5.91162 10.3775 6.20935 10.6752 6.57662 10.6752H10.8194C11.1867 10.6752 11.4844 10.3775 11.4844 10.0102C11.4844 9.64295 11.1867 9.34521 10.8194 9.34521H6.57662Z" fill="black"/>
<path fill-rule="evenodd" clip-rule="evenodd" d="M5.11031 0.705566C4.19076 0.705566 3.44531 1.45101 3.44531 2.37057V11.6405C3.44531 12.5601 4.19076 13.3055 5.11031 13.3055H13.0102C13.9298 13.3055 14.6752 12.5601 14.6752 11.6405V5.66641C14.6752 5.60973 14.6681 5.55461 14.6547 5.50194C14.6301 5.38012 14.5711 5.26375 14.4777 5.16851L10.297 0.904978C10.1643 0.769628 9.98782 0.703034 9.81226 0.70564L9.80275 0.705566H5.11031ZM4.77531 2.37057C4.77531 2.18555 4.9253 2.03557 5.11031 2.03557H9.13775V4.66641C9.13775 5.58597 9.8832 6.33141 10.8028 6.33141H13.3452V11.6405C13.3452 11.8256 13.1952 11.9755 13.0102 11.9755H5.11031C4.9253 11.9755 4.77531 11.8256 4.77531 11.6405V2.37057ZM10.4678 4.66641V2.97871L12.4511 5.00141H10.8028C10.6177 5.00141 10.4678 4.85143 10.4678 4.66641Z" fill="black"/>
<path d="M1.98873 6.00903C1.62146 6.00903 1.32373 6.30676 1.32373 6.67403V12.6293C1.32373 14.1011 2.51689 15.2943 3.98873 15.2943H9.41365C9.78092 15.2943 10.0787 14.9966 10.0787 14.6293C10.0787 14.262 9.78092 13.9643 9.41365 13.9643H3.98873C3.25143 13.9643 2.65373 13.3666 2.65373 12.6293V6.67403C2.65373 6.30676 2.356 6.00903 1.98873 6.00903Z" fill="black"/>
</svg>
