<svg width="16" height="16" viewBox="0 0 16 16" fill="none" xmlns="http://www.w3.org/2000/svg">
<path fill-rule="evenodd" clip-rule="evenodd" d="M10.0149 1.25062C9.60332 1.12319 9.23322 1.31978 9.05005 1.5964C8.87343 1.86315 8.83678 2.24551 9.04957 2.56793C9.53885 3.30931 9.82369 4.19665 9.82369 5.15255C9.82369 7.74781 7.71944 9.85206 5.12418 9.85206C4.24532 9.85206 3.4249 9.61151 2.72268 9.19306C2.39072 8.99524 2.01035 9.04952 1.75201 9.23827C1.48411 9.43401 1.3047 9.81291 1.45116 10.2183C2.41384 12.8829 4.9653 14.789 7.96447 14.789C11.7885 14.789 14.8881 11.6894 14.8881 7.86537C14.8881 4.75456 12.837 2.12445 10.0149 1.25062ZM11.1537 5.15255C11.1537 4.40338 11.0167 3.68544 10.7665 3.0229C12.436 3.99106 13.5581 5.79777 13.5581 7.86537C13.5581 10.9548 11.0539 13.459 7.96447 13.459C5.98865 13.459 4.25149 12.4347 3.25617 10.8869C3.84468 11.0785 4.47267 11.1821 5.12418 11.1821C8.45398 11.1821 11.1537 8.48235 11.1537 5.15255Z" fill="black"/>
<path d="M5.79131 1.74367C5.71233 1.53023 5.41044 1.53023 5.33146 1.74367L5.12308 2.30679C4.94719 2.78213 4.57241 3.15691 4.09706 3.33281L3.53394 3.54118C3.3205 3.62016 3.3205 3.92205 3.53394 4.00103L4.09706 4.2094C4.57241 4.3853 4.94719 4.76008 5.12308 5.23542L5.33146 5.79854C5.41044 6.01198 5.71233 6.01198 5.79131 5.79854L5.99968 5.23542C6.17557 4.76008 6.55035 4.3853 7.0257 4.2094L7.58882 4.00103C7.80226 3.92205 7.80226 3.62016 7.58882 3.54118L7.0257 3.33281C6.55035 3.15691 6.17557 2.78213 5.99968 2.30679L5.79131 1.74367Z" fill="black"/>
<path d="M2.7247 5.58466C2.66611 5.42633 2.44216 5.42633 2.38357 5.58466L2.24841 5.94995C2.13662 6.25204 1.89844 6.49023 1.59634 6.60201L1.23106 6.73718C1.07272 6.79577 1.07272 7.01972 1.23106 7.07831L1.59634 7.21347C1.89844 7.32526 2.13662 7.56344 2.24841 7.86554L2.38357 8.23082C2.44216 8.38916 2.66611 8.38916 2.7247 8.23082L2.85987 7.86554C2.97165 7.56344 3.20984 7.32526 3.51193 7.21347L3.87722 7.07831C4.03555 7.01972 4.03555 6.79577 3.87722 6.73718L3.51193 6.60201C3.20984 6.49023 2.97165 6.25204 2.85987 5.94995L2.7247 5.58466Z" fill="black"/>
</svg>
