<svg width="16" height="16" viewBox="0 0 16 16" fill="none" xmlns="http://www.w3.org/2000/svg">
<path d="M14.4738 3.14663L12.8538 1.52663C12.7288 1.40246 12.5599 1.33276 12.3838 1.33276C12.2076 1.33276 12.0387 1.40246 11.9138 1.52663L8.19375 5.24663C8.13196 5.30892 8.08308 5.3828 8.0499 5.46402C8.01673 5.54525 7.99991 5.63222 8.00042 5.71996V7.33329C8.00042 7.5101 8.07066 7.67967 8.19568 7.8047C8.32071 7.92972 8.49027 7.99996 8.66709 7.99996H10.2804C10.3682 8.00047 10.4551 7.98365 10.5364 7.95047C10.6176 7.9173 10.6915 7.86841 10.7538 7.80663L14.4738 4.08663C14.5979 3.96172 14.6676 3.79275 14.6676 3.61663C14.6676 3.4405 14.5979 3.27153 14.4738 3.14663V3.14663ZM10.0004 6.66663H9.33375V5.99996L12.3871 2.94663L13.0538 3.61329L10.0004 6.66663ZM12.6671 7.99996C12.4903 7.99996 12.3207 8.0702 12.1957 8.19522C12.0707 8.32025 12.0004 8.48981 12.0004 8.66663C12.0004 9.9043 11.5088 11.0913 10.6336 11.9665C9.75841 12.8416 8.57143 13.3333 7.33375 13.3333H3.60709L4.03375 12.9133C4.09624 12.8513 4.14583 12.7776 4.17968 12.6963C4.21353 12.6151 4.23095 12.528 4.23095 12.44C4.23095 12.352 4.21353 12.2648 4.17968 12.1836C4.14583 12.1023 4.09624 12.0286 4.03375 11.9666C3.38104 11.314 2.93653 10.4824 2.75644 9.57714C2.57634 8.67185 2.66876 7.73349 3.022 6.88072C3.37523 6.02796 3.97342 5.2991 4.74091 4.78633C5.50841 4.27355 6.41072 3.99989 7.33375 3.99996C7.51056 3.99996 7.68013 3.92972 7.80516 3.8047C7.93018 3.67967 8.00042 3.5101 8.00042 3.33329C8.00042 3.15648 7.93018 2.98691 7.80516 2.86189C7.68013 2.73686 7.51056 2.66663 7.33375 2.66663V2.66663C6.2054 2.67033 5.10095 2.99215 4.14721 3.59512C3.19347 4.19809 2.42908 5.05778 1.9418 6.0755C1.45452 7.09322 1.26409 8.22773 1.39238 9.34877C1.52067 10.4698 1.96248 11.532 2.66709 12.4133L1.52709 13.5266C1.43458 13.6204 1.37192 13.7394 1.347 13.8688C1.32208 13.9981 1.33603 14.1319 1.38709 14.2533C1.4371 14.375 1.52203 14.4793 1.63118 14.5528C1.74032 14.6264 1.8688 14.666 2.00042 14.6666H7.33375C8.12168 14.6666 8.9019 14.5114 9.62985 14.2099C10.3578 13.9084 11.0192 13.4664 11.5764 12.9093C12.1335 12.3521 12.5755 11.6907 12.877 10.9627C13.1786 10.2348 13.3338 9.45456 13.3338 8.66663C13.3338 8.48981 13.2635 8.32025 13.1385 8.19522C13.0135 8.0702 12.8439 7.99996 12.6671 7.99996Z" fill="black"/>
</svg>
