<svg width="16" height="16" viewBox="0 0 16 16" fill="none" xmlns="http://www.w3.org/2000/svg">
<path d="M14 5.95992C13.9931 5.89868 13.9796 5.83834 13.96 5.77992V5.71992C13.9279 5.65137 13.8852 5.58836 13.8333 5.53325V5.53325L9.83333 1.53325C9.77822 1.4814 9.71521 1.43864 9.64667 1.40659C9.62677 1.40376 9.60657 1.40376 9.58667 1.40659C9.51894 1.36775 9.44415 1.34281 9.36667 1.33325H6.66667C6.13623 1.33325 5.62753 1.54397 5.25245 1.91904C4.87738 2.29411 4.66667 2.80282 4.66667 3.33325V3.99992H4C3.46957 3.99992 2.96086 4.21063 2.58579 4.58571C2.21071 4.96078 2 5.46949 2 5.99992V12.6666C2 13.197 2.21071 13.7057 2.58579 14.0808C2.96086 14.4559 3.46957 14.6666 4 14.6666H9.33333C9.86377 14.6666 10.3725 14.4559 10.7475 14.0808C11.1226 13.7057 11.3333 13.197 11.3333 12.6666V11.9999H12C12.5304 11.9999 13.0391 11.7892 13.4142 11.4141C13.7893 11.0391 14 10.5304 14 9.99992V5.99992C14 5.99992 14 5.99992 14 5.95992ZM10 3.60659L11.7267 5.33325H10.6667C10.4899 5.33325 10.3203 5.26301 10.1953 5.13799C10.0702 5.01297 10 4.8434 10 4.66659V3.60659ZM10 12.6666C10 12.8434 9.92976 13.013 9.80474 13.138C9.67971 13.263 9.51014 13.3333 9.33333 13.3333H4C3.82319 13.3333 3.65362 13.263 3.5286 13.138C3.40357 13.013 3.33333 12.8434 3.33333 12.6666V5.99992C3.33333 5.82311 3.40357 5.65354 3.5286 5.52851C3.65362 5.40349 3.82319 5.33325 4 5.33325H4.66667V9.99992C4.66667 10.5304 4.87738 11.0391 5.25245 11.4141C5.62753 11.7892 6.13623 11.9999 6.66667 11.9999H10V12.6666ZM12.6667 9.99992C12.6667 10.1767 12.5964 10.3463 12.4714 10.4713C12.3464 10.5963 12.1768 10.6666 12 10.6666H6.66667C6.48986 10.6666 6.32029 10.5963 6.19526 10.4713C6.07024 10.3463 6 10.1767 6 9.99992V3.33325C6 3.15644 6.07024 2.98687 6.19526 2.86185C6.32029 2.73682 6.48986 2.66659 6.66667 2.66659H8.66667V4.66659C8.66667 5.19702 8.87738 5.70573 9.25245 6.0808C9.62753 6.45587 10.1362 6.66659 10.6667 6.66659H12.6667V9.99992Z" fill="black"/>
</svg>
