<svg width="16" height="16" viewBox="0 0 16 16" fill="none" xmlns="http://www.w3.org/2000/svg">
<path d="M12.6058 7.45047C13.106 6.54495 13.3791 5.55988 13.4676 4.67738C13.3726 4.8237 13.2674 4.97356 13.151 5.12506C12.2094 6.35069 10.5555 7.6534 7.72523 8.08397L7.15003 8.17148V7.58966V5.94864C7.15003 5.88286 7.13272 5.82029 7.10251 5.76824C7.07241 5.71639 7.03196 5.6789 6.98912 5.65609L7.22411 5.21475L6.98911 5.65608C6.94663 5.63347 6.90157 5.62498 6.85813 5.62915L6.81071 5.13533L6.85813 5.62915C6.81458 5.63333 6.76979 5.65055 6.72927 5.68291L2.62024 8.96495L2.62023 8.96496C2.58613 8.9922 2.55579 9.02971 2.53394 9.07625L2.08134 8.86374L2.53394 9.07625C2.51205 9.12287 2.5 9.17585 2.5 9.23069C2.5 9.28552 2.51205 9.33851 2.53394 9.38513C2.55579 9.43167 2.58613 9.46917 2.62023 9.49641L2.62024 9.49642L6.72927 12.7785C6.72928 12.7785 6.72928 12.7785 6.72929 12.7785C6.7698 12.8108 6.81458 12.828 6.85813 12.8322C6.90157 12.8364 6.94664 12.8279 6.98912 12.8053C7.03196 12.7825 7.07241 12.745 7.10251 12.6931C7.13272 12.6411 7.15003 12.5785 7.15003 12.5127V10.8717V10.3717H7.65003C10.1337 10.3717 11.7146 9.06391 12.6058 7.45047Z" fill="black" stroke="black"/>
</svg>
