<svg width="16" height="16" viewBox="0 0 16 16" fill="none" xmlns="http://www.w3.org/2000/svg">
<path fill-rule="evenodd" clip-rule="evenodd" d="M9.33301 3.66659C9.33301 2.37792 10.3777 1.33325 11.6663 1.33325C12.955 1.33325 13.9997 2.37792 13.9997 3.66659C13.9997 4.95524 12.955 5.99992 11.6663 5.99992C11.0151 5.99992 10.4262 5.73313 10.0029 5.30288L6.58211 7.37542C6.63722 7.57424 6.66667 7.78372 6.66667 8.00008C6.66667 8.19456 6.64287 8.38348 6.59804 8.56409L10.0804 10.6218C10.4966 10.2359 11.0539 10 11.6663 10C12.955 10 13.9997 11.0447 13.9997 12.3333C13.9997 13.622 12.955 14.6667 11.6663 14.6667C10.3777 14.6667 9.33301 13.622 9.33301 12.3333C9.33301 12.1389 9.35679 11.95 9.4016 11.7695L5.91919 9.71167C5.50293 10.0975 4.94568 10.3334 4.33333 10.3334C3.04468 10.3334 2 9.28874 2 8.00008C2 6.71142 3.04468 5.66675 4.33333 5.66675C4.92307 5.66675 5.46172 5.88554 5.87252 6.24638L9.37758 4.12279C9.34834 3.97525 9.33301 3.82271 9.33301 3.66659ZM11.6663 2.66659C11.1141 2.66659 10.6663 3.1143 10.6663 3.66659C10.6663 4.21886 11.1141 4.66659 11.6663 4.66659C12.2186 4.66659 12.6663 4.21886 12.6663 3.66659C12.6663 3.1143 12.2186 2.66659 11.6663 2.66659ZM4.33333 7.00008C3.78106 7.00008 3.33333 7.4478 3.33333 8.00008C3.33333 8.55236 3.78106 9.00008 4.33333 9.00008C4.88561 9.00008 5.33333 8.55236 5.33333 8.00008C5.33333 7.4478 4.88561 7.00008 4.33333 7.00008ZM10.6663 12.3333C10.6663 11.7811 11.1141 11.3333 11.6663 11.3333C12.2186 11.3333 12.6663 11.7811 12.6663 12.3333C12.6663 12.8856 12.2186 13.3333 11.6663 13.3333C11.1141 13.3333 10.6663 12.8856 10.6663 12.3333Z" fill="black"/>
</svg>
