<svg width="16" height="16" viewBox="0 0 16 16" fill="none" xmlns="http://www.w3.org/2000/svg">
<path fill-rule="evenodd" clip-rule="evenodd" d="M7.99961 5.0001C6.34275 5.0001 4.99961 6.34324 4.99961 8.0001C4.99961 9.65695 6.34275 11.0001 7.99961 11.0001C9.65647 11.0001 10.9996 9.65695 10.9996 8.0001C10.9996 6.34324 9.65647 5.0001 7.99961 5.0001ZM6.33294 8.0001C6.33294 7.07962 7.07913 6.33343 7.99961 6.33343C8.92009 6.33343 9.66628 7.07962 9.66628 8.0001C9.66628 8.92057 8.92009 9.66676 7.99961 9.66676C7.07913 9.66676 6.33294 8.92057 6.33294 8.0001Z" fill="black"/>
<path fill-rule="evenodd" clip-rule="evenodd" d="M6.81057 1.2715C6.66664 0.989379 6.34409 0.847463 6.03886 0.931956C4.88954 1.25011 3.85439 1.84055 3.00692 2.62856C2.79124 2.82911 2.7327 3.14742 2.86293 3.41157C2.95008 3.58834 2.99935 3.78752 2.99935 4.00011C2.99935 4.73649 2.4024 5.33345 1.66602 5.33345L1.64746 5.33331C1.35275 5.32911 1.09025 5.51893 1.00192 5.80013C0.783507 6.49546 0.666016 7.2347 0.666016 8.00011C0.666016 8.50531 0.717195 8.9992 0.814867 9.47674C0.883288 9.81126 1.1934 10.04 1.53321 10.0066C1.57687 10.0023 1.62117 10.0001 1.66602 10.0001C2.4024 10.0001 2.99935 10.5971 2.99935 11.3334C2.99935 11.6614 2.88181 11.9602 2.68578 12.1925C2.46558 12.4535 2.47817 12.8387 2.71495 13.0847C3.5803 13.9839 4.67389 14.6633 5.90372 15.0295C6.25161 15.133 6.61843 14.9393 6.72896 14.5935C6.90103 14.0552 7.4057 13.6668 7.99935 13.6668C8.59299 13.6668 9.09766 14.0552 9.26974 14.5935C9.38027 14.9393 9.74709 15.133 10.095 15.0295C11.3248 14.6633 12.4184 13.9839 13.2837 13.0847C13.5205 12.8387 13.5331 12.4535 13.3129 12.1925C13.1169 11.9602 12.9993 11.6614 12.9993 11.3334C12.9993 10.5971 13.5963 10.0001 14.3327 10.0001C14.3775 10.0001 14.4218 10.0023 14.4655 10.0066C14.8053 10.04 15.1154 9.81126 15.1838 9.47674C15.2815 8.9992 15.3327 8.50531 15.3327 8.00011C15.3327 7.23469 15.2152 6.49546 14.9968 5.80014C14.9085 5.51893 14.6459 5.3291 14.3512 5.33331L14.3327 5.33345C13.5963 5.33345 12.9993 4.73649 12.9993 4.00011C12.9993 3.78752 13.0486 3.58834 13.1358 3.41157C13.266 3.14742 13.2075 2.82911 12.9918 2.62856C12.1443 1.84055 11.1092 1.25011 9.95984 0.931956C9.65461 0.847463 9.33206 0.989379 9.18813 1.2715C8.96678 1.70537 8.5169 2.00012 7.99935 2.00012C7.4818 2.00012 7.03191 1.70537 6.81057 1.2715ZM4.33268 4.00011C4.33268 3.7654 4.30221 3.53723 4.2449 3.31963C4.75006 2.91383 5.32192 2.58839 5.94113 2.36226C6.4297 2.9547 7.16994 3.33346 7.99935 3.33346C8.82876 3.33346 9.56899 2.9547 10.0576 2.36226C10.6768 2.58839 11.2486 2.91383 11.7538 3.31964C11.6965 3.53723 11.666 3.7654 11.666 4.00011C11.666 5.30466 12.6028 6.39043 13.8403 6.62142C13.9443 7.06359 13.9993 7.52506 13.9993 8.00011C13.9993 8.23454 13.9859 8.4656 13.9599 8.69263C12.6636 8.87397 11.666 9.98721 11.666 11.3334C11.666 11.7596 11.7664 12.1631 11.9445 12.5208C11.4445 12.9576 10.8717 13.3125 10.2471 13.5651C9.77362 12.8248 8.94442 12.3334 7.99935 12.3334C7.05428 12.3334 6.22508 12.8248 5.75156 13.5651C5.12697 13.3125 4.55422 12.9576 4.05421 12.5208C4.23235 12.1631 4.33268 11.7596 4.33268 11.3334C4.33268 9.98721 3.33509 8.87397 2.03882 8.69263C2.01276 8.46561 1.99935 8.23454 1.99935 8.00011C1.99935 7.52506 2.05443 7.06358 2.15835 6.62142C3.39591 6.39043 4.33268 5.30467 4.33268 4.00011Z" fill="black"/>
</svg>
