<svg width="16" height="16" viewBox="0 0 16 16" fill="none" xmlns="http://www.w3.org/2000/svg">
<path d="M1.39611 7.39118C1.36224 7.00165 1.66929 6.66675 2.06027 6.66675H3.33312C3.70132 6.66675 3.99978 6.96522 3.99978 7.33342V13.6667C3.99978 14.0349 3.70132 14.3334 3.33312 14.3334H2.61099C2.26519 14.3334 1.97679 14.069 1.94683 13.7245L1.39611 7.39118Z" stroke="black" stroke-width="1.33" stroke-linecap="round" stroke-linejoin="round"/>
<path d="M5.99978 7.12492C5.99978 6.84635 6.17292 6.59702 6.42488 6.47825C6.97438 6.21922 7.91075 5.69802 8.33312 4.99358C8.87748 4.08572 8.98015 2.4454 8.99685 2.06967C8.99918 2.01708 8.99768 1.96442 9.00492 1.91227C9.09515 1.26157 10.3512 2.02172 10.8331 2.82545C11.0947 3.26165 11.1282 3.83475 11.1007 4.28218C11.0713 4.76092 10.9309 5.22338 10.7932 5.68285L10.4998 6.66158H14.1188C14.5609 6.66158 14.8805 7.08401 14.7603 7.50945L12.9702 13.8479C12.8891 14.1351 12.6271 14.3334 12.3287 14.3334H6.66645C6.29825 14.3334 5.99978 14.0349 5.99978 13.6667V7.12492Z" stroke="black" stroke-width="1.33" stroke-linecap="round" stroke-linejoin="round"/>
</svg>
