<svg width="16" height="16" viewBox="0 0 16 16" fill="none" xmlns="http://www.w3.org/2000/svg">
<g clip-path="url(#clip0_1893_19)">
<path d="M4.54488 0.879639C2.52076 0.879639 0.879883 2.52052 0.879883 4.54464V11.4555C0.879883 13.4796 2.52076 15.1205 4.54488 15.1205H7.03174C7.39901 15.1205 7.69674 14.8227 7.69674 14.4555C7.69674 14.0882 7.39901 13.7905 7.03174 13.7905H4.54488C3.2553 13.7905 2.20988 12.745 2.20988 11.4555V4.54464C2.20988 3.25506 3.2553 2.20964 4.54488 2.20964H11.4557C12.7453 2.20964 13.7907 3.25505 13.7907 4.54464V7.03149C13.7907 7.39876 14.0884 7.69649 14.4557 7.69649C14.823 7.69649 15.1207 7.39876 15.1207 7.03149V4.54464C15.1207 2.52051 13.4798 0.879639 11.4557 0.879639H4.54488Z" fill="black"/>
<path d="M11.5271 7.93213C11.8943 7.93213 12.1921 8.22986 12.1921 8.59713V10.8615H14.4558C14.8231 10.8615 15.1208 11.1592 15.1208 11.5265C15.1208 11.8937 14.8231 12.1915 14.4558 12.1915H12.1921V14.4554C12.1921 14.8227 11.8943 15.1204 11.5271 15.1204C11.1598 15.1204 10.8621 14.8227 10.8621 14.4554V12.1915H8.59759C8.23032 12.1915 7.93259 11.8937 7.93259 11.5265C7.93259 11.1592 8.23032 10.8615 8.59759 10.8615H10.8621V8.59713C10.8621 8.22986 11.1598 7.93213 11.5271 7.93213Z" fill="black"/>
</g>
<defs>
<clipPath id="clip0_1893_19">
<rect width="16" height="16" fill="white"/>
</clipPath>
</defs>
</svg>
