<svg width="16" height="16" viewBox="0 0 16 16" fill="none" xmlns="http://www.w3.org/2000/svg">
<g clip-path="url(#clip0_1389_26)">
<path d="M8.00143 0.50293C7.63416 0.50293 7.33643 0.80066 7.33643 1.16793V2.50126C7.33643 2.86853 7.63416 3.16626 8.00143 3.16626C8.3687 3.16626 8.66643 2.86853 8.66643 2.50126V1.16793C8.66643 0.80066 8.3687 0.50293 8.00143 0.50293Z" fill="black"/>
<path d="M13.4564 2.57917C13.196 2.32022 12.7749 2.32142 12.516 2.58186L11.6959 3.40667C11.4369 3.66712 11.4381 4.08817 11.6986 4.34712C11.959 4.60608 12.3801 4.60487 12.639 4.34443L13.4591 3.51962C13.7181 3.25918 13.7169 2.83813 13.4564 2.57917Z" fill="black"/>
<path d="M3.8193 2.58051C3.5596 2.32082 3.13855 2.32082 2.87885 2.58052C2.61916 2.84022 2.61916 3.26128 2.87886 3.52097L3.56313 4.20523C3.82283 4.46492 4.24388 4.46492 4.50358 4.20522C4.76328 3.94552 4.76327 3.52446 4.50357 3.26477L3.8193 2.58051Z" fill="black"/>
<path d="M8.0732 6.76855C8.0732 6.21627 7.60795 5.75155 7.1004 5.96929C6.23632 6.34 5.60986 7.18446 5.60986 8.16689C5.60986 9.14932 6.23632 9.99378 7.1004 10.3645C7.60795 10.5822 8.0732 10.1175 8.0732 9.56522V6.76855Z" fill="black"/>
<path fill-rule="evenodd" clip-rule="evenodd" d="M8.00794 3.83496C5.61563 3.83496 3.67627 5.77432 3.67627 8.16663C3.67627 10.5589 5.61563 12.4983 8.00794 12.4983C10.4002 12.4983 12.3396 10.5589 12.3396 8.16663C12.3396 5.77432 10.4002 3.83496 8.00794 3.83496ZM5.00627 8.16663C5.00627 6.50886 6.35017 5.16496 8.00794 5.16496C9.6657 5.16496 11.0096 6.50886 11.0096 8.16663C11.0096 9.82439 9.6657 11.1683 8.00794 11.1683C6.35017 11.1683 5.00627 9.82439 5.00627 8.16663Z" fill="black"/>
<path d="M13.3335 7.16699C12.9662 7.16699 12.6685 7.46472 12.6685 7.83199C12.6685 8.19926 12.9662 8.49699 13.3335 8.49699H14.6668C15.0341 8.49699 15.3318 8.19926 15.3318 7.83199C15.3318 7.46472 15.0341 7.16699 14.6668 7.16699H13.3335Z" fill="black"/>
<path d="M1.33346 7.50293C0.966188 7.50293 0.668457 7.80066 0.668457 8.16793C0.668457 8.5352 0.966188 8.83293 1.33346 8.83293H2.66679C3.03406 8.83293 3.33179 8.5352 3.33179 8.16793C3.33179 7.80066 3.03406 7.50293 2.66679 7.50293H1.33346Z" fill="black"/>
<path d="M12.9814 11.6899C12.7217 11.4302 12.3007 11.4302 12.041 11.6899C11.7813 11.9496 11.7813 12.3706 12.041 12.6303L12.8634 13.4528C13.1231 13.7125 13.5442 13.7125 13.8039 13.4528C14.0636 13.1931 14.0636 12.7721 13.8039 12.5124L12.9814 11.6899Z" fill="black"/>
<path d="M4.15846 11.8253C3.89803 11.5663 3.47697 11.5675 3.21802 11.828L2.53572 12.5142C2.27676 12.7746 2.27796 13.1956 2.5384 13.4546C2.79884 13.7136 3.21989 13.7124 3.47885 13.4519L4.16115 12.7657C4.4201 12.5053 4.4189 12.0842 4.15846 11.8253Z" fill="black"/>
<path d="M8.00143 13.167C7.63416 13.167 7.33643 13.4647 7.33643 13.832V14.832C7.33643 15.1993 7.63416 15.497 8.00143 15.497C8.3687 15.497 8.66643 15.1993 8.66643 14.832V13.832C8.66643 13.4647 8.3687 13.167 8.00143 13.167Z" fill="black"/>
</g>
<defs>
<clipPath id="clip0_1389_26">
<rect width="16" height="16" fill="white"/>
</clipPath>
</defs>
</svg>
