<svg width="16" height="16" viewBox="0 0 16 16" fill="none" xmlns="http://www.w3.org/2000/svg">
<path d="M11.3936 1.87996C10.7805 1.37569 10.0625 1.01465 9.29206 0.823194C8.52162 0.631737 7.71815 0.61469 6.94029 0.773297C5.90454 0.982512 4.95428 1.49468 4.21008 2.24482C3.46587 2.99496 2.96127 3.94925 2.76029 4.98663C2.61352 5.76445 2.64019 6.56506 2.83839 7.33139C3.0366 8.09771 3.40146 8.81086 3.90695 9.41996C4.37608 9.94934 4.64498 10.6263 4.66695 11.3333V13.3333C4.66695 13.8637 4.87767 14.3724 5.25274 14.7475C5.62781 15.1226 6.13652 15.3333 6.66695 15.3333H9.33362C9.86405 15.3333 10.3728 15.1226 10.7478 14.7475C11.1229 14.3724 11.3336 13.8637 11.3336 13.3333V11.46C11.356 10.6794 11.6428 9.92958 12.147 9.3333C13.0304 8.24048 13.4468 6.84318 13.3057 5.44505C13.1647 4.04692 12.4775 2.76096 11.3936 1.86663V1.87996ZM10.0003 13.3333C10.0003 13.5101 9.93005 13.6797 9.80502 13.8047C9.68 13.9297 9.51043 14 9.33362 14H6.66695C6.49014 14 6.32057 13.9297 6.19555 13.8047C6.07052 13.6797 6.00029 13.5101 6.00029 13.3333V12.6666H10.0003V13.3333ZM11.1136 8.50663C10.4433 9.3017 10.0522 10.2947 10.0003 11.3333H8.66695V9.3333C8.66695 9.15649 8.59672 8.98692 8.47169 8.86189C8.34667 8.73687 8.1771 8.66663 8.00029 8.66663C7.82348 8.66663 7.65391 8.73687 7.52888 8.86189C7.40386 8.98692 7.33362 9.15649 7.33362 9.3333V11.3333H6.00029C5.9827 10.312 5.60492 9.32981 4.93362 8.55996C4.49071 8.0293 4.19288 7.39291 4.06916 6.71286C3.94544 6.03281 4.00005 5.33231 4.22768 4.67965C4.4553 4.02699 4.84817 3.44446 5.36797 2.98885C5.88777 2.53324 6.51676 2.2201 7.19362 2.07996C7.77532 1.96019 8.37639 1.97146 8.9532 2.11294C9.53 2.25443 10.0681 2.52258 10.5283 2.89793C10.9886 3.27328 11.3595 3.74642 11.6141 4.28298C11.8687 4.81954 12.0006 5.40606 12.0003 5.99996C12.0052 6.91321 11.6917 7.79961 11.1136 8.50663V8.50663Z" fill="black"/>
</svg>
