<svg width="16" height="16" viewBox="0 0 16 16" fill="none" xmlns="http://www.w3.org/2000/svg">
<path fill-rule="evenodd" clip-rule="evenodd" d="M5.66602 5.99984C5.66602 4.71118 6.71069 3.6665 7.99935 3.6665C9.28801 3.6665 10.3327 4.71118 10.3327 5.99984C10.3327 7.28849 9.28801 8.33317 7.99935 8.33317C6.71069 8.33317 5.66602 7.28849 5.66602 5.99984ZM7.99935 4.99984C7.44707 4.99984 6.99935 5.44756 6.99935 5.99984C6.99935 6.55211 7.44707 6.99984 7.99935 6.99984C8.55163 6.99984 8.99935 6.55211 8.99935 5.99984C8.99935 5.44756 8.55163 4.99984 7.99935 4.99984Z" fill="black"/>
<path fill-rule="evenodd" clip-rule="evenodd" d="M0.666016 7.99984C0.666016 3.94975 3.94926 0.666504 7.99935 0.666504C12.0494 0.666504 15.3327 3.94975 15.3327 7.99984C15.3327 10.0378 14.5014 11.8816 13.1594 13.2106C13.137 13.236 13.1127 13.2598 13.0867 13.2816C11.7681 14.552 9.97495 15.3332 7.99935 15.3332C6.04206 15.3332 4.26387 14.5664 2.9488 13.3168C2.89668 13.2789 2.85039 13.2336 2.81133 13.1827C1.48577 11.8559 0.666016 10.0236 0.666016 7.99984ZM4.04434 12.5119C5.10032 13.4383 6.48425 13.9998 7.99935 13.9998C9.51488 13.9998 10.8992 13.4379 11.9553 12.5111C11.7259 11.2721 10.6389 10.3332 9.33319 10.3332H6.66652C5.36049 10.3332 4.27338 11.2724 4.04434 12.5119ZM12.9779 11.3497C12.3494 9.9637 10.954 8.9999 9.33319 8.9999H6.66652C5.04533 8.9999 3.64968 9.96413 3.02142 11.3506C2.37608 10.3937 1.99935 9.24079 1.99935 7.99984C1.99935 4.68613 4.68564 1.99984 7.99935 1.99984C11.3131 1.99984 13.9993 4.68613 13.9993 7.99984C13.9993 9.24039 13.6229 10.393 12.9779 11.3497Z" fill="black"/>
</svg>
