<svg width="16" height="16" viewBox="0 0 16 16" fill="none" xmlns="http://www.w3.org/2000/svg">
<path d="M12.6663 3.66676H8.47967L8.26634 3.0001C8.12804 2.60892 7.87151 2.27043 7.53227 2.03154C7.19304 1.79264 6.78791 1.66516 6.37301 1.66676H3.33301C2.80257 1.66676 2.29387 1.87748 1.91879 2.25255C1.54372 2.62762 1.33301 3.13633 1.33301 3.66676V12.3334C1.33301 12.8639 1.54372 13.3726 1.91879 13.7476C2.29387 14.1227 2.80257 14.3334 3.33301 14.3334H12.6663C13.1968 14.3334 13.7055 14.1227 14.0806 13.7476C14.4556 13.3726 14.6663 12.8639 14.6663 12.3334V5.66676C14.6663 5.13633 14.4556 4.62762 14.0806 4.25255C13.7055 3.87748 13.1968 3.66676 12.6663 3.66676ZM13.333 12.3334C13.333 12.5102 13.2628 12.6798 13.1377 12.8048C13.0127 12.9299 12.8432 13.0001 12.6663 13.0001H3.33301C3.1562 13.0001 2.98663 12.9299 2.8616 12.8048C2.73658 12.6798 2.66634 12.5102 2.66634 12.3334V3.66676C2.66634 3.48995 2.73658 3.32038 2.8616 3.19536C2.98663 3.07033 3.1562 3.0001 3.33301 3.0001H6.37301C6.51277 2.99974 6.64911 3.04331 6.76276 3.12466C6.87641 3.20601 6.96162 3.32102 7.00634 3.45343L7.36634 4.54676C7.41106 4.67918 7.49627 4.79419 7.60992 4.87554C7.72357 4.95688 7.85991 5.00046 7.99967 5.0001H12.6663C12.8432 5.0001 13.0127 5.07033 13.1377 5.19536C13.2628 5.32038 13.333 5.48995 13.333 5.66676V12.3334Z" fill="black"/>
<path d="M10.142 9.80785C10.2027 9.74445 10.2503 9.66968 10.282 9.58785C10.3487 9.42554 10.3487 9.24349 10.282 9.08118C10.2503 8.99935 10.2027 8.92458 10.142 8.86118L8.80869 7.52785C8.68315 7.40231 8.51289 7.33179 8.33536 7.33179C8.15782 7.33179 7.98756 7.40231 7.86202 7.52785C7.73649 7.65338 7.66596 7.82365 7.66596 8.00118C7.66596 8.17872 7.73649 8.34898 7.86202 8.47451L8.06202 8.66785H6.33536C6.15854 8.66785 5.98897 8.73809 5.86395 8.86311C5.73893 8.98813 5.66869 9.1577 5.66869 9.33452C5.66869 9.51133 5.73893 9.6809 5.86395 9.80592C5.98897 9.93094 6.15854 10.0012 6.33536 10.0012H8.06202L7.86202 10.1945C7.79954 10.2565 7.74994 10.3302 7.71609 10.4115C7.68225 10.4927 7.66482 10.5798 7.66482 10.6678C7.66482 10.7559 7.68225 10.843 7.71609 10.9242C7.74994 11.0055 7.79954 11.0792 7.86202 11.1412C7.924 11.2037 7.99773 11.2533 8.07897 11.2871C8.16021 11.321 8.24735 11.3384 8.33536 11.3384C8.42336 11.3384 8.5105 11.321 8.59174 11.2871C8.67298 11.2533 8.74671 11.2037 8.80869 11.1412L10.142 9.80785Z" fill="black"/>
</svg>
