<svg width="16" height="16" viewBox="0 0 16 16" fill="none" xmlns="http://www.w3.org/2000/svg">
<path d="M7.99991 1.33325C7.12443 1.33325 6.25752 1.50569 5.44869 1.84072C4.63985 2.17575 3.90492 2.66682 3.28587 3.28587C2.03562 4.53612 1.33324 6.23181 1.33324 7.99992C1.32742 9.53934 1.86044 11.0323 2.83991 12.2199L1.50658 13.5533C1.41407 13.647 1.35141 13.766 1.32649 13.8954C1.30158 14.0247 1.31552 14.1585 1.36658 14.2799C1.42195 14.3999 1.51171 14.5007 1.62448 14.5695C1.73724 14.6384 1.86791 14.6721 1.99991 14.6666H7.99991C9.76802 14.6666 11.4637 13.9642 12.714 12.714C13.9642 11.4637 14.6666 9.76803 14.6666 7.99992C14.6666 6.23181 13.9642 4.53612 12.714 3.28587C11.4637 2.03563 9.76802 1.33325 7.99991 1.33325ZM7.99991 13.3333H3.60658L4.22658 12.7133C4.35074 12.5883 4.42044 12.4194 4.42044 12.2433C4.42044 12.0671 4.35074 11.8982 4.22658 11.7733C3.35363 10.9013 2.81003 9.75361 2.68837 8.52578C2.56672 7.29795 2.87454 6.06592 3.5594 5.0396C4.24425 4.01328 5.26377 3.25616 6.44425 2.89723C7.62474 2.53831 8.89315 2.59979 10.0334 3.07119C11.1736 3.5426 12.1151 4.39477 12.6975 5.48251C13.2799 6.57026 13.4672 7.82628 13.2273 9.03659C12.9875 10.2469 12.3354 11.3366 11.3823 12.1201C10.4291 12.9035 9.23375 13.3323 7.99991 13.3333ZM9.99991 7.33325H8.66658V5.99992C8.66658 5.82311 8.59634 5.65354 8.47131 5.52851C8.34629 5.40349 8.17672 5.33325 7.99991 5.33325C7.8231 5.33325 7.65353 5.40349 7.52851 5.52851C7.40348 5.65354 7.33324 5.82311 7.33324 5.99992V7.33325H5.99991C5.8231 7.33325 5.65353 7.40349 5.52851 7.52851C5.40348 7.65354 5.33324 7.82311 5.33324 7.99992C5.33324 8.17673 5.40348 8.3463 5.52851 8.47132C5.65353 8.59635 5.8231 8.66659 5.99991 8.66659H7.33324V9.99992C7.33324 10.1767 7.40348 10.3463 7.52851 10.4713C7.65353 10.5963 7.8231 10.6666 7.99991 10.6666C8.17672 10.6666 8.34629 10.5963 8.47131 10.4713C8.59634 10.3463 8.66658 10.1767 8.66658 9.99992V8.66659H9.99991C10.1767 8.66659 10.3463 8.59635 10.4713 8.47132C10.5963 8.3463 10.6666 8.17673 10.6666 7.99992C10.6666 7.82311 10.5963 7.65354 10.4713 7.52851C10.3463 7.40349 10.1767 7.33325 9.99991 7.33325Z" fill="black"/>
</svg>
