<svg width="16" height="16" viewBox="0 0 16 16" fill="none" xmlns="http://www.w3.org/2000/svg">
<path d="M14.4721 1.52876C14.7324 1.78911 14.7324 2.21122 14.4721 2.47157L10.6101 6.3335H13.0007C13.3688 6.3335 13.6673 6.63197 13.6673 7.00016C13.6673 7.36835 13.3688 7.66683 13.0007 7.66683H9.00101L8.99865 7.66683C8.8287 7.66632 8.65891 7.60123 8.52925 7.47157C8.46533 7.40765 8.4171 7.33398 8.38457 7.25535C8.35197 7.17675 8.33398 7.09056 8.33398 7.00016V3.00016C8.33398 2.63197 8.63246 2.3335 9.00065 2.3335C9.36884 2.3335 9.66732 2.63197 9.66732 3.00016V5.39069L13.5292 1.52876C13.7896 1.26841 14.2117 1.26841 14.4721 1.52876Z" fill="black"/>
<path d="M7.00065 8.3335H3.00065C2.63246 8.3335 2.33398 8.63197 2.33398 9.00016C2.33398 9.36835 2.63246 9.66683 3.00065 9.66683H5.39118L1.52925 13.5288C1.2689 13.7891 1.2689 14.2112 1.52925 14.4716C1.7896 14.7319 2.21171 14.7319 2.47206 14.4716L6.33398 10.6096V13.0002C6.33398 13.3684 6.63246 13.6668 7.00065 13.6668C7.36884 13.6668 7.66732 13.3684 7.66732 13.0002V9.00052C7.66732 8.99985 7.66732 8.99883 7.66731 8.99816C7.66705 8.9085 7.64909 8.823 7.61673 8.74497C7.5842 8.66634 7.53597 8.59268 7.47206 8.52876C7.40814 8.46484 7.33447 8.41662 7.25584 8.38408C7.17724 8.35149 7.09104 8.3335 7.00065 8.3335Z" fill="black"/>
</svg>
