<svg width="16" height="16" viewBox="0 0 16 16" fill="none" xmlns="http://www.w3.org/2000/svg">
<path d="M4.6748 7.36035C5.02827 7.36035 5.31543 7.64654 5.31543 8C5.31541 8.35344 5.02825 8.63965 4.6748 8.63965H3.47559C3.12214 8.63965 2.83498 8.35344 2.83496 8C2.83496 7.64654 3.12212 7.36035 3.47559 7.36035H4.6748Z" fill="black"/>
<path d="M4.6748 4.67188C5.02827 4.67188 5.31543 4.95904 5.31543 5.3125C5.3153 5.66585 5.02819 5.95215 4.6748 5.95215H3.47559C3.1222 5.95215 2.83509 5.66585 2.83496 5.3125C2.83496 4.95904 3.12212 4.67188 3.47559 4.67188H4.6748Z" fill="black"/>
<path d="M9.02148 5.49512C9.28118 5.23542 9.70319 5.23542 9.96289 5.49512L11.4316 6.96387C12.0033 7.53597 12.0035 8.46415 11.4316 9.03613L9.96289 10.5049C9.70325 10.7643 9.28113 10.7643 9.02148 10.5049C8.76227 10.2453 8.76224 9.82405 9.02148 9.56445L10.4912 8.0957C10.5438 8.04297 10.5429 7.95697 10.4902 7.9043L9.02148 6.43555C8.76197 6.17599 8.76225 5.75484 9.02148 5.49512Z" fill="black"/>
<path fill-rule="evenodd" clip-rule="evenodd" d="M9.70898 0.959961C10.5812 0.959956 11.2753 0.960145 11.835 1.00586C12.4081 1.05269 12.8972 1.15088 13.3447 1.37891C14.0671 1.74704 14.6543 2.33423 15.0225 3.05664C15.2505 3.50416 15.3487 3.99322 15.3955 4.56641C15.4412 5.12597 15.4414 5.81947 15.4414 6.69141V9.30762C15.4414 10.1798 15.4412 10.8739 15.3955 11.4336C15.3487 12.0068 15.2505 12.4958 15.0225 12.9434C14.6543 13.6657 14.0671 14.253 13.3447 14.6211C12.8972 14.8491 12.4081 14.9473 11.835 14.9941C11.2753 15.0399 10.5812 15.04 9.70898 15.04H6.29004C5.41813 15.04 4.72459 15.0398 4.16504 14.9941C3.59185 14.9473 3.10279 14.8491 2.65527 14.6211C1.93287 14.253 1.34568 13.6658 0.977539 12.9434C0.749517 12.4958 0.651323 12.0068 0.604492 11.4336C0.558778 10.8739 0.558589 10.1798 0.558594 9.30762V6.69238C0.558589 5.82019 0.558784 5.12609 0.604492 4.56641C0.651323 3.99322 0.749517 3.50416 0.977539 3.05664C1.34567 2.33423 1.93286 1.74704 2.65527 1.37891C3.10279 1.15088 3.59185 1.05269 4.16504 1.00586C4.72472 0.960152 5.41882 0.959956 6.29102 0.959961H9.70898ZM6.24805 2.24023C5.37851 2.24029 4.75695 2.24135 4.26855 2.28125C3.77485 2.32161 3.47325 2.39787 3.23633 2.51855C2.75463 2.76399 2.36262 3.156 2.11719 3.6377C1.9965 3.87461 1.92025 4.17621 1.87988 4.66992C1.83891 5.17138 1.83887 5.81321 1.83887 6.71973V9.28027C1.83887 10.1868 1.83891 10.8286 1.87988 11.3301C1.92025 11.8238 1.99649 12.1254 2.11719 12.3623C2.36258 12.8439 2.75474 13.235 3.23633 13.4805C3.47327 13.6012 3.77475 13.6784 4.26855 13.7188C4.75695 13.7587 5.37851 13.7597 6.24805 13.7598V2.24023ZM7.52832 13.7598H9.68164C10.5881 13.7598 11.23 13.7597 11.7314 13.7188C12.2252 13.6784 12.5267 13.6012 12.7637 13.4805C13.2451 13.2351 13.6364 12.8438 13.8818 12.3623C14.0026 12.1254 14.0797 11.8238 14.1201 11.3301C14.1611 10.8286 14.1611 10.1868 14.1611 9.28027V6.71973C14.1611 5.81321 14.1611 5.17138 14.1201 4.66992C14.0797 4.17612 14.0026 3.87463 13.8818 3.6377C13.6364 3.15611 13.2453 2.76395 12.7637 2.51855C12.5268 2.39786 12.2251 2.32162 11.7314 2.28125C11.23 2.24028 10.5881 2.24023 9.68164 2.24023H7.52832V13.7598Z" fill="black"/>
</svg>
