<svg width="16" height="16" viewBox="0 0 16 16" fill="none" xmlns="http://www.w3.org/2000/svg">
<g clip-path="url(#clip0_1851_35)">
<path d="M10.0059 13.6354L14.3277 2.39871C14.3702 2.28834 14.3797 2.168 14.3552 2.0523C14.3307 1.93659 14.2731 1.83049 14.1895 1.74686C14.1059 1.66322 13.9997 1.60565 13.884 1.58113C13.7683 1.5566 13.648 1.56617 13.5376 1.60868L2.30094 5.93049C2.19403 5.97162 2.10083 6.04198 2.03198 6.13353C1.96312 6.22508 1.92138 6.33413 1.91151 6.44826C1.90164 6.56239 1.92405 6.67699 1.97617 6.779C2.02829 6.88101 2.10803 6.96632 2.2063 7.0252L5.85649 9.21549L9.86756 5.20442C9.98218 5.0898 10.1376 5.02541 10.2997 5.02541C10.4618 5.02541 10.6173 5.0898 10.7319 5.20442C10.8465 5.31904 10.9109 5.4745 10.9109 5.6366C10.9109 5.7987 10.8465 5.95416 10.7319 6.06878L6.72085 10.0798L8.91157 13.7305C8.97053 13.8286 9.05585 13.9082 9.15783 13.9602C9.25982 14.0122 9.37436 14.0345 9.4884 14.0246C9.60245 14.0147 9.71142 13.973 9.80291 13.9042C9.89439 13.8353 9.96471 13.7422 10.0059 13.6354Z" fill="black"/>
</g>
<defs>
<clipPath id="clip0_1851_35">
<rect width="16" height="16" fill="white" transform="matrix(0 1 -1 0 16 0)"/>
</clipPath>
</defs>
</svg>
