<svg width="16" height="16" viewBox="0 0 16 16" fill="none" xmlns="http://www.w3.org/2000/svg">
<path fill-rule="evenodd" clip-rule="evenodd" d="M6.33366 2.00008C5.59728 2.00008 5.00033 2.59704 5.00033 3.33341C5.00033 4.06979 4.40337 4.66675 3.66699 4.66675H2.13366C2.06002 4.66675 2.00033 4.72644 2.00033 4.80008L2.00033 7.20008C2.00033 7.27372 2.06002 7.33341 2.13366 7.33341H2.66699C4.13975 7.33341 5.33366 8.52732 5.33366 10.0001C5.33366 11.4728 4.13975 12.6667 2.66699 12.6667H2.13366C2.06002 12.6667 2.00033 12.7264 2.00033 12.8001V13.8667C2.00033 13.9404 2.06002 14.0001 2.13366 14.0001H10.5337C10.6073 14.0001 10.667 13.9404 10.667 13.8667V12.8001C10.667 11.9901 11.3236 11.3334 12.1337 11.3334H12.667C13.4034 11.3334 14.0003 10.7365 14.0003 10.0001C14.0003 9.2637 13.4034 8.66675 12.667 8.66675H12.1337C11.3236 8.66675 10.667 8.0101 10.667 7.20008V4.80008C10.667 4.72644 10.6073 4.66675 10.5337 4.66675H9.00033C8.26395 4.66675 7.66699 4.06979 7.66699 3.33341C7.66699 2.59704 7.07004 2.00008 6.33366 2.00008ZM3.66699 3.33341C3.66699 1.86065 4.8609 0.666748 6.33366 0.666748C7.80641 0.666748 9.00033 1.86065 9.00033 3.33341H10.5337C11.3437 3.33341 12.0003 3.99006 12.0003 4.80008V7.20008C12.0003 7.27372 12.06 7.33341 12.1337 7.33341H12.667C14.1397 7.33341 15.3337 8.52732 15.3337 10.0001C15.3337 11.4728 14.1397 12.6667 12.667 12.6667H12.1337C12.06 12.6667 12.0003 12.7264 12.0003 12.8001V13.8667C12.0003 14.6768 11.3437 15.3334 10.5337 15.3334H2.13366C1.32364 15.3334 0.666992 14.6768 0.666992 13.8667V12.8001C0.666992 11.9901 1.32364 11.3334 2.13366 11.3334H2.66699C3.40337 11.3334 4.00033 10.7365 4.00033 10.0001C4.00033 9.2637 3.40337 8.66675 2.66699 8.66675H2.13366C1.32364 8.66675 0.666992 8.0101 0.666992 7.20008L0.666992 4.80008C0.666992 3.99006 1.32364 3.33341 2.13366 3.33341H3.66699Z" fill="black"/>
</svg>
