<svg width="16" height="16" viewBox="0 0 16 16" fill="none" xmlns="http://www.w3.org/2000/svg">
<path d="M8.66699 9.33325H6.00033C5.82351 9.33325 5.65395 9.40349 5.52892 9.52851C5.4039 9.65354 5.33366 9.82311 5.33366 9.99992C5.33366 10.1767 5.4039 10.3463 5.52892 10.4713C5.65395 10.5963 5.82351 10.6666 6.00033 10.6666H8.66699C8.8438 10.6666 9.01337 10.5963 9.1384 10.4713C9.26342 10.3463 9.33366 10.1767 9.33366 9.99992C9.33366 9.82311 9.26342 9.65354 9.1384 9.52851C9.01337 9.40349 8.8438 9.33325 8.66699 9.33325ZM11.3337 2.66659H10.547C10.4094 2.27755 10.1549 1.94058 9.81837 1.70188C9.48179 1.46317 9.07962 1.33441 8.66699 1.33325H7.33366C6.92103 1.33441 6.51886 1.46317 6.18228 1.70188C5.84571 1.94058 5.5912 2.27755 5.45366 2.66659H4.66699C4.13656 2.66659 3.62785 2.8773 3.25278 3.25237C2.87771 3.62744 2.66699 4.13615 2.66699 4.66659V12.6666C2.66699 13.197 2.87771 13.7057 3.25278 14.0808C3.62785 14.4559 4.13656 14.6666 4.66699 14.6666H11.3337C11.8641 14.6666 12.3728 14.4559 12.7479 14.0808C13.1229 13.7057 13.3337 13.197 13.3337 12.6666V4.66659C13.3337 4.13615 13.1229 3.62744 12.7479 3.25237C12.3728 2.8773 11.8641 2.66659 11.3337 2.66659V2.66659ZM6.66699 3.33325C6.66699 3.15644 6.73723 2.98687 6.86225 2.86185C6.98728 2.73682 7.15685 2.66659 7.33366 2.66659H8.66699C8.8438 2.66659 9.01337 2.73682 9.1384 2.86185C9.26342 2.98687 9.33366 3.15644 9.33366 3.33325V3.99992H6.66699V3.33325ZM12.0003 12.6666C12.0003 12.8434 11.9301 13.013 11.8051 13.138C11.68 13.263 11.5105 13.3333 11.3337 13.3333H4.66699C4.49018 13.3333 4.32061 13.263 4.19559 13.138C4.07056 13.013 4.00033 12.8434 4.00033 12.6666V4.66659C4.00033 4.48977 4.07056 4.32021 4.19559 4.19518C4.32061 4.07016 4.49018 3.99992 4.66699 3.99992H5.33366V4.66659C5.33366 4.8434 5.4039 5.01297 5.52892 5.13799C5.65395 5.26301 5.82351 5.33325 6.00033 5.33325H10.0003C10.1771 5.33325 10.3467 5.26301 10.4717 5.13799C10.5968 5.01297 10.667 4.8434 10.667 4.66659V3.99992H11.3337C11.5105 3.99992 11.68 4.07016 11.8051 4.19518C11.9301 4.32021 12.0003 4.48977 12.0003 4.66659V12.6666ZM10.0003 6.66659H6.00033C5.82351 6.66659 5.65395 6.73682 5.52892 6.86185C5.4039 6.98687 5.33366 7.15644 5.33366 7.33325C5.33366 7.51006 5.4039 7.67963 5.52892 7.80466C5.65395 7.92968 5.82351 7.99992 6.00033 7.99992H10.0003C10.1771 7.99992 10.3467 7.92968 10.4717 7.80466C10.5968 7.67963 10.667 7.51006 10.667 7.33325C10.667 7.15644 10.5968 6.98687 10.4717 6.86185C10.3467 6.73682 10.1771 6.66659 10.0003 6.66659Z" fill="black"/>
</svg>
