<svg width="16" height="16" viewBox="0 0 16 16" fill="none" xmlns="http://www.w3.org/2000/svg">
<path fill-rule="evenodd" clip-rule="evenodd" d="M7.99967 2.66659C5.05416 2.66659 2.66634 5.05441 2.66634 7.99992C2.66634 10.9454 5.05416 13.3333 7.99967 13.3333C9.47263 13.3333 10.805 12.737 11.7709 11.7712C12.0312 11.5108 12.4534 11.5108 12.7137 11.7711C12.9741 12.0315 12.9741 12.4536 12.7137 12.7139C11.508 13.9197 9.84045 14.6666 7.99967 14.6666C4.31778 14.6666 1.33301 11.6818 1.33301 7.99992C1.33301 4.31803 4.31778 1.33325 7.99967 1.33325C9.84045 1.33325 11.508 2.08017 12.7137 3.28588C13.0033 3.57544 13.4531 4.06452 13.8221 4.47131C14.0084 4.67679 14.1773 4.86476 14.2995 5.00134C14.3607 5.06965 14.4102 5.12517 14.4445 5.16367L14.4979 5.22362C14.7424 5.49893 14.7176 5.9206 14.4423 6.16508C14.167 6.40955 13.7457 6.38456 13.5012 6.10925L13.4491 6.05076C13.4154 6.0129 13.3665 5.95812 13.3061 5.89061C13.1852 5.75555 13.0183 5.56983 12.8344 5.36706C12.4629 4.95737 12.034 4.4918 11.7709 4.22869C10.8051 3.26282 9.47263 2.66659 7.99967 2.66659Z" fill="black"/>
<path fill-rule="evenodd" clip-rule="evenodd" d="M13.9997 2C14.3679 2 14.6663 2.29848 14.6663 2.66667V5.66667C14.6663 6.03486 14.3679 6.33333 13.9997 6.33333H10.9997C10.6315 6.33333 10.333 6.03486 10.333 5.66667C10.333 5.29848 10.6315 5 10.9997 5H13.333V2.66667C13.333 2.29848 13.6315 2 13.9997 2Z" fill="black"/>
</svg>
