<svg width="16" height="16" viewBox="0 0 16 16" fill="none" xmlns="http://www.w3.org/2000/svg">
<path fill-rule="evenodd" clip-rule="evenodd" d="M10.0444 4.35174H4.34935V10.0468C4.34935 10.9334 5.06808 11.6521 5.95468 11.6521H11.6497V5.95707C11.6497 5.07047 10.931 4.35174 10.0444 4.35174ZM5.66335 7.27823V5.66574H7.34252V7.27823H5.66335ZM8.65652 7.27823V5.66574H10.0444C10.2053 5.66574 10.3357 5.79617 10.3357 5.95707V7.27823H8.65652ZM5.66335 10.0468V8.59223H7.34252V10.3381H5.95468C5.79378 10.3381 5.66335 10.2077 5.66335 10.0468ZM8.65652 10.3381V8.59223H10.3357V10.3381H8.65652Z" fill="black"/>
<path fill-rule="evenodd" clip-rule="evenodd" d="M2.21581 0.874023C1.74821 0.874023 1.36914 1.25309 1.36914 1.72069V11.6241C1.36914 13.5582 2.93704 15.1261 4.87114 15.1261H13.7832C14.2508 15.1261 14.6299 14.747 14.6299 14.2794V4.37602C14.6299 2.44192 13.062 0.874023 11.1279 0.874023H2.21581ZM2.68314 11.6241V2.18802H11.1279C12.3363 2.18802 13.3159 3.16762 13.3159 4.37602V13.8121H4.87114C3.66274 13.8121 2.68314 12.8325 2.68314 11.6241Z" fill="black"/>
</svg>
