<svg width="16" height="16" viewBox="0 0 16 16" fill="none" xmlns="http://www.w3.org/2000/svg">
<path fill-rule="evenodd" clip-rule="evenodd" d="M1.90113 0.513672C1.42341 0.513672 1.03613 0.900945 1.03613 1.37867V11.8216C1.03613 13.8458 2.67701 15.4866 4.70113 15.4866H14.0988C14.5765 15.4866 14.9638 15.0994 14.9638 14.6216V4.17867C14.9638 2.15455 13.3229 0.513672 11.2988 0.513672H1.90113ZM2.36613 11.8216V1.84367H11.2988C12.5884 1.84367 13.6338 2.88909 13.6338 4.17867V14.1566H4.70113C3.41155 14.1566 2.36613 13.1112 2.36613 11.8216ZM10.1562 4.18086H4.17871V10.1584C4.17871 11.0779 4.92416 11.8234 5.84371 11.8234H11.8212V5.84586C11.8212 4.92631 11.0758 4.18086 10.1562 4.18086ZM5.50871 7.2668V5.51086H7.33496V7.2668H5.50871ZM8.66496 7.2668V5.51086H10.1562C10.3412 5.51086 10.4912 5.66084 10.4912 5.84586V7.2668H8.66496ZM5.50871 10.1584V8.5968H7.33496V10.4934H5.84371C5.6587 10.4934 5.50871 10.3434 5.50871 10.1584ZM8.66496 10.4934V8.5968H10.4912V10.4934H8.66496Z" fill="black"/>
</svg>
