<svg width="16" height="16" viewBox="0 0 16 16" fill="none" xmlns="http://www.w3.org/2000/svg">
<path d="M3.47516 4.67227C3.12169 4.67227 2.83516 4.9588 2.83516 5.31227C2.83516 5.66573 3.12169 5.95227 3.47516 5.95227H4.67516C5.02862 5.95227 5.31516 5.66573 5.31516 5.31227C5.31516 4.9588 5.02862 4.67227 4.67516 4.67227H3.47516Z" fill="black"/>
<path d="M3.47516 7.35996C3.12169 7.35996 2.83516 7.6465 2.83516 7.99996C2.83516 8.35342 3.12169 8.63996 3.47516 8.63996H4.67516C5.02862 8.63996 5.31516 8.35342 5.31516 7.99996C5.31516 7.6465 5.02862 7.35996 4.67516 7.35996H3.47516Z" fill="black"/>
<path fill-rule="evenodd" clip-rule="evenodd" d="M6.29059 0.959961H9.70933C10.5817 0.959956 11.2755 0.959952 11.8352 1.00568C12.4084 1.05252 12.8971 1.15047 13.3447 1.3785C14.0672 1.74665 14.6546 2.3341 15.0228 3.05664C15.2508 3.50416 15.3488 3.99291 15.3956 4.56609C15.4413 5.1258 15.4413 5.81954 15.4413 6.69184V9.30803C15.4413 10.1803 15.4413 10.8741 15.3956 11.4338C15.3488 12.007 15.2508 12.4958 15.0228 12.9433C14.6546 13.6658 14.0672 14.2533 13.3447 14.6214C12.8971 14.8494 12.4084 14.9474 11.8352 14.9942C11.2755 15.04 10.5817 15.04 9.70945 15.04H6.29052C5.41823 15.04 4.72443 15.04 4.16472 14.9942C3.59154 14.9474 3.10279 14.8494 2.65527 14.6214C1.93273 14.2533 1.34528 13.6658 0.977129 12.9433C0.749107 12.4958 0.651148 12.007 0.604317 11.4338C0.558585 10.8741 0.558589 10.1803 0.558594 9.30797V6.69196C0.558589 5.81961 0.558585 5.12583 0.604317 4.56609C0.651148 3.99291 0.749107 3.50416 0.977129 3.05664C1.34528 2.3341 1.93273 1.74665 2.65527 1.3785C3.10279 1.15047 3.59154 1.05252 4.16472 1.00568C4.72446 0.959952 5.41824 0.959956 6.29059 0.959961ZM4.26896 2.28143C3.77493 2.3218 3.47338 2.39823 3.23638 2.51898C2.75468 2.76442 2.36305 3.15605 2.11762 3.63775C1.99686 3.87474 1.92043 4.1763 1.88007 4.67032C1.83909 5.17182 1.83859 5.81332 1.83859 6.71996V9.27996C1.83859 10.1866 1.83909 10.8281 1.88007 11.3296C1.92043 11.8236 1.99686 12.1252 2.11762 12.3622C2.36305 12.8439 2.75468 13.2355 3.23638 13.4809C3.47338 13.6017 3.77493 13.6781 4.26896 13.7185C4.75742 13.7584 5.3787 13.7599 6.24844 13.76V2.23996C5.3787 2.24001 4.75742 2.24152 4.26896 2.28143ZM7.52844 2.23996V13.76H9.68133C10.588 13.76 11.2295 13.7595 11.731 13.7185C12.225 13.6781 12.5265 13.6017 12.7635 13.4809C13.2452 13.2355 13.6369 12.8439 13.8823 12.3622C14.0031 12.1252 14.0795 11.8236 14.1199 11.3296C14.1608 10.8281 14.1613 10.1866 14.1613 9.27996V6.71996C14.1613 5.81332 14.1608 5.17182 14.1199 4.67032C14.0795 4.1763 14.0031 3.87474 13.8823 3.63775C13.6369 3.15605 13.2452 2.76442 12.7635 2.51898C12.5265 2.39823 12.225 2.3218 11.731 2.28143C11.2295 2.24046 10.588 2.23996 9.68133 2.23996H7.52844Z" fill="black"/>
</svg>
