<svg width="16" height="16" viewBox="0 0 16 16" fill="none" xmlns="http://www.w3.org/2000/svg">
<path d="M13.9997 1.33325H1.99967C1.59967 1.33325 1.33301 1.59992 1.33301 1.99992V13.9999C1.33301 14.3999 1.59967 14.6666 1.99967 14.6666H13.9997C14.3997 14.6666 14.6663 14.3999 14.6663 13.9999V1.99992C14.6663 1.59992 14.3997 1.33325 13.9997 1.33325ZM6.66634 13.3333V10.6666H9.33301V13.3333H6.66634ZM6.66634 9.33325V6.66659H9.33301V9.33325H6.66634ZM2.66634 6.66659H5.33301V9.33325H2.66634V6.66659ZM6.66634 5.33325V2.66659H9.33301V5.33325H6.66634ZM10.6663 6.66659H13.333V9.33325H10.6663V6.66659ZM13.333 5.33325H10.6663V2.66659H13.333V5.33325ZM5.33301 2.66659V5.33325H2.66634V2.66659H5.33301ZM2.66634 10.6666H5.33301V13.3333H2.66634V10.6666ZM10.6663 13.3333V10.6666H13.333V13.3333H10.6663Z" fill="black"/>
</svg>
