<svg width="16" height="16" viewBox="0 0 16 16" fill="none" xmlns="http://www.w3.org/2000/svg">
<path fill-rule="evenodd" clip-rule="evenodd" d="M1.7643 4.13354C1.7643 2.82523 2.82488 1.76465 4.13319 1.76465H11.8665C13.1748 1.76465 14.2354 2.82524 14.2354 4.13354V11.8669C14.2354 13.1752 13.1748 14.2358 11.8665 14.2358H4.13318C2.82488 14.2358 1.7643 13.1752 1.7643 11.8669V6.1462C1.76388 6.13711 1.76367 6.12797 1.76367 6.11878C1.76367 6.10959 1.76388 6.10045 1.7643 6.09136V4.13354ZM2.94652 6.70989V11.8669C2.94652 12.5222 3.47781 13.0535 4.13318 13.0535H5.52732V6.70989H2.94652ZM5.52732 5.52767H2.94652V4.13354C2.94652 3.47816 3.47781 2.94687 4.13319 2.94687H5.52732V5.52767ZM6.70954 6.70989V13.0535H11.8665C12.5219 13.0535 13.0532 12.5222 13.0532 11.8669V6.70989L6.70954 6.70989ZM13.0532 5.52767L6.70954 5.52767V2.94687H11.8665C12.5219 2.94687 13.0532 3.47816 13.0532 4.13354V5.52767Z" fill="black"/>
</svg>
