<svg width="16" height="16" viewBox="0 0 16 16" fill="none" xmlns="http://www.w3.org/2000/svg">
<path d="M2.66695 1.33496C2.29968 1.33496 2.00195 1.63269 2.00195 1.99996V3.64439C2.00195 4.01166 2.29968 4.30939 2.66695 4.30939C3.03422 4.30939 3.33195 4.01166 3.33195 3.64439V2.66496H7.33521V13.335H5.3337C4.96643 13.335 4.6687 13.6327 4.6687 14C4.6687 14.3672 4.96643 14.665 5.3337 14.665H10.667C11.0343 14.665 11.332 14.3672 11.332 14C11.332 13.6327 11.0343 13.335 10.667 13.335H8.66521V2.66496H12.6686V3.64439C12.6686 4.01166 12.9664 4.30939 13.3336 4.30939C13.7009 4.30939 13.9986 4.01166 13.9986 3.64439V1.99996C13.9986 1.63269 13.7009 1.33496 13.3336 1.33496H2.66695Z" fill="black"/>
</svg>
