<svg width="16" height="16" viewBox="0 0 16 16" fill="none" xmlns="http://www.w3.org/2000/svg">
<path d="M13.3333 4.14027H10.6667V2.73676C10.6667 2.36453 10.5262 2.00754 10.2761 1.74433C10.0261 1.48112 9.68696 1.33325 9.33333 1.33325H6.66667C6.31304 1.33325 5.97391 1.48112 5.72386 1.74433C5.47381 2.00754 5.33333 2.36453 5.33333 2.73676V4.14027H2.66667C2.48986 4.14027 2.32029 4.2142 2.19526 4.34581C2.07024 4.47741 2 4.65591 2 4.84202C2 5.02814 2.07024 5.20663 2.19526 5.33824C2.32029 5.46984 2.48986 5.54378 2.66667 5.54378H3.33333V13.2631C3.33333 13.6353 3.47381 13.9923 3.72386 14.2555C3.97391 14.5187 4.31304 14.6666 4.66667 14.6666H11.3333C11.687 14.6666 12.0261 14.5187 12.2761 14.2555C12.5262 13.9923 12.6667 13.6353 12.6667 13.2631V5.54378H13.3333C13.5101 5.54378 13.6797 5.46984 13.8047 5.33824C13.9298 5.20663 14 5.02814 14 4.84202C14 4.65591 13.9298 4.47741 13.8047 4.34581C13.6797 4.2142 13.5101 4.14027 13.3333 4.14027ZM6.66667 2.73676H9.33333V4.14027H6.66667V2.73676ZM11.3333 13.2631H4.66667V5.54378H11.3333V13.2631Z" fill="black"/>
<path d="M6.66667 6.24553C6.48986 6.24553 6.32029 6.31947 6.19526 6.45107C6.07024 6.58268 6 6.76117 6 6.94729V11.8596C6 12.0457 6.07024 12.2242 6.19526 12.3558C6.32029 12.4874 6.48986 12.5613 6.66667 12.5613C6.84348 12.5613 7.01305 12.4874 7.13807 12.3558C7.2631 12.2242 7.33333 12.0457 7.33333 11.8596V6.94729C7.33333 6.76117 7.2631 6.58268 7.13807 6.45107C7.01305 6.31947 6.84348 6.24553 6.66667 6.24553Z" fill="black"/>
<path d="M9.33333 6.24553C9.15652 6.24553 8.98695 6.31947 8.86193 6.45107C8.7369 6.58268 8.66667 6.76117 8.66667 6.94729V11.8596C8.66667 12.0457 8.7369 12.2242 8.86193 12.3558C8.98695 12.4874 9.15652 12.5613 9.33333 12.5613C9.51014 12.5613 9.67971 12.4874 9.80474 12.3558C9.92976 12.2242 10 12.0457 10 11.8596V6.94729C10 6.76117 9.92976 6.58268 9.80474 6.45107C9.67971 6.31947 9.51014 6.24553 9.33333 6.24553Z" fill="black"/>
</svg>
