<svg width="16" height="16" viewBox="0 0 16 16" fill="none" xmlns="http://www.w3.org/2000/svg">
<path d="M8.11257 1.88273L8.11301 1.88318L10.7757 4.61399C10.8064 4.64772 10.8252 4.69471 10.8248 4.74576C10.8244 4.79789 10.8039 4.84531 10.7716 4.87847C10.7396 4.91121 10.6991 4.92743 10.6595 4.92778C10.6207 4.92813 10.581 4.91332 10.549 4.88269L9.02433 3.319L8.16634 2.43904V3.66806V9.53859C8.16634 9.59134 8.14579 9.63946 8.11309 9.673C8.0808 9.70612 8.03974 9.72232 7.99967 9.72232C7.95961 9.72232 7.91855 9.70612 7.88626 9.673C7.85356 9.63946 7.83301 9.59134 7.83301 9.53859V3.66806V2.43904L6.97502 3.319L5.44635 4.8868L5.4461 4.88705C5.41376 4.92026 5.37261 4.93654 5.33245 4.93657C5.29229 4.9366 5.25113 4.92038 5.21875 4.88723C5.18596 4.85365 5.16534 4.80545 5.1653 4.75259C5.16527 4.69982 5.18577 4.65164 5.21844 4.61801C5.21849 4.61796 5.21853 4.61791 5.21858 4.61786L7.885 1.88318L7.88544 1.88273C7.90152 1.86619 7.91994 1.85377 7.93929 1.84553C7.95861 1.83731 7.97887 1.83325 7.99901 1.83325C8.01915 1.83325 8.0394 1.83731 8.05872 1.84553C8.07808 1.85377 8.09649 1.86619 8.11257 1.88273ZM10.4949 9.69672H13.333C13.5499 9.69672 13.7605 9.78496 13.9178 9.9463C14.0756 10.1081 14.1663 10.3301 14.1663 10.5642V13.2991C14.1663 13.5332 14.0756 13.7552 13.9178 13.917C13.7605 14.0783 13.5499 14.1666 13.333 14.1666H2.66634C2.44946 14.1666 2.23884 14.0783 2.08153 13.917C1.9238 13.7552 1.83301 13.5332 1.83301 13.2991V10.5642C1.83301 10.3301 1.9238 10.1081 2.08153 9.9463C2.23884 9.78496 2.44946 9.69672 2.66634 9.69672H5.50448C5.54191 10.312 5.79683 10.8964 6.22747 11.3381C6.69528 11.8178 7.3325 12.0898 7.99967 12.0898C8.66685 12.0898 9.30407 11.8178 9.77188 11.3381C10.2025 10.8964 10.4574 10.312 10.4949 9.69672ZM10.8281 13.5387C11.0751 13.708 11.3668 13.7991 11.6663 13.7991C12.0683 13.7991 12.4512 13.6352 12.7314 13.3478C13.0113 13.0608 13.1663 12.6741 13.1663 12.2735C13.1663 11.9746 13.08 11.6813 12.9167 11.4308C12.7534 11.1801 12.52 10.9828 12.2445 10.8658C11.9689 10.7487 11.6648 10.7178 11.3713 10.7777C11.0779 10.8376 10.8102 10.985 10.6012 11.1993C10.3925 11.4134 10.2516 11.6847 10.1947 11.9782C10.1378 12.2717 10.1669 12.576 10.2788 12.8532C10.3908 13.1305 10.5813 13.3696 10.8281 13.5387Z" fill="black" stroke="black"/>
</svg>
