<svg width="16" height="16" viewBox="0 0 16 16" fill="none" xmlns="http://www.w3.org/2000/svg">
<path d="M8.47366 7.52658C8.41026 7.46589 8.33549 7.41831 8.25366 7.38658C8.09135 7.31991 7.9093 7.31991 7.74699 7.38658C7.66516 7.41831 7.59039 7.46589 7.52699 7.52658L6.19366 8.85992C6.06812 8.98545 5.9976 9.15572 5.9976 9.33325C5.9976 9.51079 6.06812 9.68105 6.19366 9.80658C6.31919 9.93212 6.48946 10.0026 6.66699 10.0026C6.84453 10.0026 7.01479 9.93212 7.14033 9.80658L7.33366 9.60658V11.3333C7.33366 11.5101 7.4039 11.6796 7.52892 11.8047C7.65395 11.9297 7.82351 11.9999 8.00033 11.9999C8.17714 11.9999 8.34671 11.9297 8.47173 11.8047C8.59675 11.6796 8.66699 11.5101 8.66699 11.3333V9.60658L8.86033 9.80658C8.9223 9.86907 8.99604 9.91867 9.07727 9.95251C9.15851 9.98636 9.24565 10.0038 9.33366 10.0038C9.42167 10.0038 9.5088 9.98636 9.59004 9.95251C9.67128 9.91867 9.74502 9.86907 9.80699 9.80658C9.86948 9.74461 9.91907 9.67088 9.95292 9.58964C9.98677 9.5084 10.0042 9.42126 10.0042 9.33325C10.0042 9.24524 9.98677 9.15811 9.95292 9.07687C9.91907 8.99563 9.86948 8.92189 9.80699 8.85992L8.47366 7.52658ZM13.3337 5.95992C13.3267 5.89867 13.3133 5.83834 13.2937 5.77992V5.71992C13.2616 5.65137 13.2188 5.58836 13.167 5.53325V5.53325L9.16699 1.53325C9.11188 1.4814 9.04887 1.43864 8.98033 1.40659H8.91366C8.84883 1.37192 8.77917 1.3472 8.70699 1.33325H4.66699C4.13656 1.33325 3.62785 1.54397 3.25278 1.91904C2.87771 2.29411 2.66699 2.80282 2.66699 3.33325V12.6666C2.66699 13.197 2.87771 13.7057 3.25278 14.0808C3.62785 14.4559 4.13656 14.6666 4.66699 14.6666H11.3337C11.8641 14.6666 12.3728 14.4559 12.7479 14.0808C13.1229 13.7057 13.3337 13.197 13.3337 12.6666V5.99992C13.3337 5.99992 13.3337 5.99992 13.3337 5.95992ZM9.33366 3.60659L11.0603 5.33325H10.0003C9.82351 5.33325 9.65395 5.26301 9.52892 5.13799C9.4039 5.01297 9.33366 4.8434 9.33366 4.66659V3.60659ZM12.0003 12.6666C12.0003 12.8434 11.9301 13.013 11.8051 13.138C11.68 13.263 11.5105 13.3333 11.3337 13.3333H4.66699C4.49018 13.3333 4.32061 13.263 4.19559 13.138C4.07056 13.013 4.00033 12.8434 4.00033 12.6666V3.33325C4.00033 3.15644 4.07056 2.98687 4.19559 2.86185C4.32061 2.73682 4.49018 2.66659 4.66699 2.66659H8.00033V4.66659C8.00033 5.19702 8.21104 5.70573 8.58611 6.0808C8.96118 6.45587 9.46989 6.66658 10.0003 6.66658H12.0003V12.6666Z" fill="black"/>
</svg>
