<svg width="25" height="24" viewBox="0 0 25 24" fill="none" xmlns="http://www.w3.org/2000/svg">
<mask id="mask0_17_64" style="mask-type:alpha" maskUnits="userSpaceOnUse" x="0" y="-1" width="25" height="25">
<rect x="0.531616" y="-0.00860596" width="24" height="24" fill="#DCDCDC"/>
</mask>
<g mask="url(#mask0_17_64)">
<path fill-rule="evenodd" clip-rule="evenodd" d="M10.8655 19.694C10.8655 20.2309 11.3008 20.6661 11.8377 20.6661H21.5594C22.0963 20.6661 22.5316 20.2309 22.5316 19.694C22.5316 19.157 22.0963 18.7218 21.5594 18.7218H11.8377C11.3008 18.7218 10.8655 19.157 10.8655 19.694ZM10.8655 14.8331C10.8655 15.37 11.3008 15.8053 11.8377 15.8053H19.6151C20.152 15.8053 20.5872 15.37 20.5872 14.8331C20.5872 14.2962 20.152 13.8609 19.6151 13.8609H11.8377C11.3008 13.8609 10.8655 14.2962 10.8655 14.8331ZM10.8655 9.97224C10.8655 10.5091 11.3008 10.9444 11.8377 10.9444H17.6707C18.2076 10.9444 18.6429 10.5091 18.6429 9.97224C18.6429 9.43534 18.2076 9.00004 17.6707 9.00004H11.8377C11.3008 9.00004 10.8655 9.43534 10.8655 9.97224ZM10.8655 5.11144C10.8655 5.64834 11.3008 6.08354 11.8377 6.08354H15.7264C16.2633 6.08354 16.6986 5.64834 16.6986 5.11144C16.6986 4.57444 16.2633 4.13924 15.7264 4.13924H11.8377C11.3008 4.13924 10.8655 4.57444 10.8655 5.11144Z" fill="#35322B"/>
<path fill-rule="evenodd" clip-rule="evenodd" d="M8.43514 20.2548C8.43514 20.7917 7.99988 21.2269 7.46297 21.2269C6.92605 21.2269 6.4908 20.7917 6.4908 20.2548V6.00443L4.19122 8.30393C3.81156 8.68363 3.19602 8.68363 2.81636 8.30393C2.4367 7.92433 2.4367 7.30873 2.81636 6.92913L6.70505 3.04043C6.90381 2.84163 7.16724 2.74693 7.42762 2.75633C7.43935 2.75593 7.45113 2.75563 7.46297 2.75563C7.99988 2.75563 8.43514 3.19093 8.43514 3.72783V20.2548Z" fill="#409F11"/>
</g>
</svg>
