<svg width="25" height="25" viewBox="0 0 25 25" fill="none" xmlns="http://www.w3.org/2000/svg">
<mask id="mask0_17_89" style="mask-type:alpha" maskUnits="userSpaceOnUse" x="0" y="0" width="25" height="25">
<rect x="0.166138" y="0.100037" width="24" height="24" fill="#DCDCDC"/>
</mask>
<g mask="url(#mask0_17_89)">
<path fill-rule="evenodd" clip-rule="evenodd" d="M11.5154 8.27229C11.5154 7.72 11.0676 7.27229 10.5154 7.27229H4.85981C4.30752 7.27229 3.85981 7.72 3.85981 8.27229V15.9278C3.85981 16.4801 4.30752 16.9278 4.85981 16.9278H10.5154C11.0676 16.9278 11.5154 16.4801 11.5154 15.9278V8.27229ZM3.85981 5.3584C2.8028 5.3584 1.94592 6.21527 1.94592 7.27229V16.9278C1.94592 17.9848 2.8028 18.8417 3.85981 18.8417H11.5154C12.5723 18.8417 13.4292 17.9848 13.4292 16.9278V7.27229C13.4292 6.21527 12.5723 5.3584 11.5154 5.3584H3.85981Z" fill="#35322B"/>
<path fill-rule="evenodd" clip-rule="evenodd" d="M22.3138 12.4663C22.3606 12.3535 22.3864 12.2297 22.3864 12.1C22.3864 11.9702 22.3606 11.8465 22.3138 11.7337C22.2671 11.6208 22.1979 11.5151 22.1061 11.4233L19.2353 8.5525C18.8616 8.17879 18.2557 8.17879 17.882 8.5525C17.5082 8.92621 17.5082 9.53211 17.882 9.90582L19.1192 11.143H15.8313C15.3028 11.143 14.8744 11.5715 14.8744 12.1C14.8744 12.6285 15.3028 13.0569 15.8313 13.0569H19.1192L17.882 14.2942C17.5082 14.6679 17.5082 15.2738 17.882 15.6475C18.2557 16.0212 18.8616 16.0212 19.2353 15.6475L22.1057 12.7771" fill="#409F11"/>
</g>
</svg>
