<svg width="25" height="25" viewBox="0 0 25 25" fill="none" xmlns="http://www.w3.org/2000/svg">
<mask id="mask0_17_94" style="mask-type:alpha" maskUnits="userSpaceOnUse" x="0" y="0" width="25" height="25">
<rect x="0.0296631" y="0.100037" width="24" height="24" fill="#DCDCDC"/>
</mask>
<g mask="url(#mask0_17_94)">
<path fill-rule="evenodd" clip-rule="evenodd" d="M11.5212 8.27229C11.5212 7.72 11.0735 7.27229 10.5212 7.27229H4.86567C4.31338 7.27229 3.86567 7.72 3.86567 8.27229V15.9278C3.86567 16.4801 4.31338 16.9278 4.86567 16.9278H10.5212C11.0735 16.9278 11.5212 16.4801 11.5212 15.9278V8.27229ZM3.86567 5.3584C2.80866 5.3584 1.95178 6.21527 1.95178 7.27229V16.9278C1.95178 17.9848 2.80866 18.8417 3.86567 18.8417H11.5212C12.5782 18.8417 13.4351 17.9848 13.4351 16.9278V7.27229C13.4351 6.21527 12.5782 5.3584 11.5212 5.3584H3.86567Z" fill="#35322B"/>
<path fill-rule="evenodd" clip-rule="evenodd" d="M17.9134 15.7978C18.0262 15.8446 18.1499 15.8704 18.2797 15.8704C18.4094 15.8704 18.5331 15.8446 18.646 15.7978C18.7588 15.7511 18.8646 15.6819 18.9563 15.5901L21.8272 12.7193C22.2009 12.3456 22.2009 11.7397 21.8272 11.366C21.4535 10.9923 20.8476 10.9923 20.4738 11.366L19.2366 12.6032V9.31534C19.2366 8.78684 18.8082 8.3584 18.2797 8.3584C17.7512 8.3584 17.3227 8.78684 17.3227 9.31534V12.6032L16.0855 11.366C15.7118 10.9923 15.1059 10.9923 14.7322 11.366C14.3585 11.7397 14.3585 12.3456 14.7322 12.7193L17.6026 15.5897" fill="#409F11"/>
</g>
</svg>
