<svg width="25" height="25" viewBox="0 0 25 25" fill="none" xmlns="http://www.w3.org/2000/svg">
<mask id="mask0_17_400" style="mask-type:alpha" maskUnits="userSpaceOnUse" x="0" y="0" width="25" height="25">
<rect x="0.362915" y="0.100098" width="24" height="24" fill="#DCDCDC"/>
</mask>
<g mask="url(#mask0_17_400)">
<path fill-rule="evenodd" clip-rule="evenodd" d="M8.46411 4.00486C8.25042 4.00486 8.0772 4.17808 8.0772 4.39176V5.90962H16.2617C17.5274 5.90962 18.5534 6.93564 18.5534 8.20129V16.3858H20.0712C20.2849 16.3858 20.4582 16.2126 20.4582 15.9989V4.39176C20.4582 4.17808 20.2849 4.00486 20.0712 4.00486H8.46411ZM18.5534 18.2906H20.0712C21.3369 18.2906 22.3629 17.2646 22.3629 15.9989V4.39176C22.3629 3.12611 21.3369 2.1001 20.0712 2.1001H8.46411C7.19845 2.1001 6.17244 3.12611 6.17244 4.39176V5.90962H4.65458C3.38893 5.90962 2.36292 6.93564 2.36292 8.20129V19.8084C2.36292 21.0741 3.38893 22.1001 4.65458 22.1001H16.2617C17.5274 22.1001 18.5534 21.0741 18.5534 19.8084V18.2906ZM4.65458 7.81438C4.4409 7.81438 4.26768 7.98761 4.26768 8.20129V19.8084C4.26768 20.0221 4.4409 20.1953 4.65458 20.1953H16.2617C16.4754 20.1953 16.6486 20.0221 16.6486 19.8084V8.20129C16.6486 7.98761 16.4754 7.81438 16.2617 7.81438H4.65458Z" fill="#409F11"/>
</g>
</svg>
