<svg width="25" height="25" viewBox="0 0 25 25" fill="none" xmlns="http://www.w3.org/2000/svg">
<mask id="mask0_17_74" style="mask-type:alpha" maskUnits="userSpaceOnUse" x="0" y="0" width="25" height="25">
<rect x="0.614624" y="0.100037" width="24" height="24" fill="#DCDCDC"/>
</mask>
<g mask="url(#mask0_17_74)">
<path fill-rule="evenodd" clip-rule="evenodd" d="M12.1519 8.27211C12.1519 7.71982 11.7042 7.27211 11.1519 7.27211H5.49641C4.94412 7.27211 4.49641 7.71982 4.49641 8.27211V15.9276C4.49641 16.4799 4.94412 16.9276 5.49641 16.9276H11.1519C11.7042 16.9276 12.1519 16.4799 12.1519 15.9276V8.27211ZM4.49641 5.35822C3.4394 5.35822 2.58252 6.21509 2.58252 7.27211V16.9276C2.58252 17.9846 3.4394 18.8415 4.49641 18.8415H12.1519C13.2089 18.8415 14.0658 17.9846 14.0658 16.9276V7.27211C14.0658 6.21509 13.2089 5.35822 12.1519 5.35822H4.49641Z" fill="#35322B"/>
<path fill-rule="evenodd" clip-rule="evenodd" d="M18.4524 15.7834C18.5652 15.8302 18.689 15.8561 18.8187 15.8561C18.9485 15.8561 19.0722 15.8302 19.185 15.7834C19.2979 15.7367 19.4036 15.6675 19.4954 15.5758L22.3662 12.7049C22.7399 12.3312 22.7399 11.7253 22.3662 11.3516C21.9925 10.9779 21.3866 10.9779 21.0129 11.3516L19.7756 12.5888V9.301C19.7756 8.77249 19.3472 8.34406 18.8187 8.34406C18.2902 8.34406 17.8618 8.77249 17.8618 9.301V12.5888L16.6245 11.3516C16.2508 10.9779 15.6449 10.9779 15.2712 11.3516C14.8975 11.7253 14.8975 12.3312 15.2712 12.7049L18.1416 15.5753M11.0739 14.8627C10.6625 15.2851 9.99538 15.2851 9.58394 14.8627L8.38258 13.6295L7.18113 14.8628C6.76969 15.2852 6.1026 15.2852 5.69115 14.8628C5.27971 14.4405 5.27971 13.7557 5.69115 13.3333L6.8926 12.1L5.69118 10.8667C5.27973 10.4444 5.27973 9.75958 5.69118 9.33722C6.10262 8.91486 6.76971 8.91486 7.18116 9.33722L8.38258 10.5705L9.58391 9.33731C9.99536 8.91495 10.6624 8.91495 11.0739 9.33731C11.4853 9.75968 11.4853 10.4445 11.0739 10.8668L9.87256 12.1L11.0739 13.3332C11.4854 13.7556 11.4854 14.4404 11.0739 14.8627Z" fill="#409F11"/>
</g>
</svg>
