<svg width="25" height="25" viewBox="0 0 25 25" fill="none" xmlns="http://www.w3.org/2000/svg">
<mask id="mask0_17_79" style="mask-type:alpha" maskUnits="userSpaceOnUse" x="0" y="0" width="25" height="25">
<rect x="0.78064" y="0.100037" width="24" height="24" fill="#DCDCDC"/>
</mask>
<g mask="url(#mask0_17_79)">
<path fill-rule="evenodd" clip-rule="evenodd" d="M18.7061 2.10004C19.8107 2.10004 20.7061 2.99544 20.7061 4.10004V20.1C20.7061 21.2046 19.8107 22.1 18.7061 22.1H14.7061C13.6015 22.1 12.7061 21.2046 12.7061 20.1L12.7061 4.10004C12.7061 2.99544 13.6015 2.10004 14.7061 2.10004H18.7061ZM18.7061 4.10004V20.1H14.7061V4.10004H18.7061Z" fill="#35322B"/>
<path fill-rule="evenodd" clip-rule="evenodd" d="M6.56209 9.54553C6.17156 9.15501 5.5384 9.15501 5.14787 9.54553C4.75735 9.93606 4.75735 10.5692 5.14787 10.9597L6.28814 12.1L5.1479 13.2403C4.75737 13.6308 4.75737 14.2639 5.1479 14.6545C5.53842 15.045 6.17159 15.045 6.56211 14.6545L7.70235 13.5142L8.84268 14.6546C9.23321 15.0451 9.86637 15.0451 10.2569 14.6546C10.6474 14.264 10.6474 13.6309 10.2569 13.2403L9.11657 12.1L10.2569 10.9597C10.6474 10.5691 10.6474 9.93597 10.2569 9.54545C9.8664 9.15492 9.23323 9.15492 8.84271 9.54545L7.70235 10.6858L6.56209 9.54553Z" fill="#409F11"/>
</g>
</svg>
