<svg width="25" height="25" viewBox="0 0 25 25" fill="none" xmlns="http://www.w3.org/2000/svg">
<mask id="mask0_17_69" style="mask-type:alpha" maskUnits="userSpaceOnUse" x="0" y="0" width="25" height="25">
<rect x="0.697632" y="0.100037" width="24" height="24" fill="#DCDCDC"/>
</mask>
<g mask="url(#mask0_17_69)">
<path fill-rule="evenodd" clip-rule="evenodd" d="M12.2624 8.27211C12.2624 7.71982 11.8147 7.27211 11.2624 7.27211H5.60688C5.05459 7.27211 4.60688 7.71982 4.60688 8.27211V15.9276C4.60688 16.4799 5.05459 16.9276 5.60688 16.9276H11.2624C11.8147 16.9276 12.2624 16.4799 12.2624 15.9276V8.27211ZM4.60688 5.35822C3.54987 5.35822 2.69299 6.21509 2.69299 7.27211V16.9276C2.69299 17.9846 3.54987 18.8415 4.60688 18.8415H12.2624C13.3194 18.8415 14.1763 17.9846 14.1763 16.9276V7.27211C14.1763 6.21509 13.3194 5.35822 12.2624 5.35822H4.60688Z" fill="#35322B"/>
<path fill-rule="evenodd" clip-rule="evenodd" d="M22.6293 12.4661C22.6761 12.3533 22.702 12.2296 22.702 12.0998C22.702 11.9701 22.6761 11.8463 22.6293 11.7335C22.5826 11.6206 22.5134 11.5149 22.4217 11.4231L19.5508 8.55232C19.1771 8.17861 18.5712 8.17861 18.1975 8.55232C17.8238 8.92602 17.8238 9.53192 18.1975 9.90563L19.4347 11.1429H16.1469C15.6184 11.1429 15.19 11.5713 15.19 12.0998C15.19 12.6283 15.6184 13.0567 16.1469 13.0567H19.4347L18.1975 14.294C17.8238 14.6677 17.8238 15.2736 18.1975 15.6473C18.5712 16.021 19.1771 16.021 19.5508 15.6473L22.4212 12.7769M11.1844 14.8625C10.7729 15.2849 10.1059 15.2849 9.69441 14.8625L8.49305 13.6293L7.2916 14.8626C6.88016 15.285 6.21307 15.285 5.80163 14.8626C5.39018 14.4403 5.39018 13.7555 5.80163 13.3331L7.00307 12.0998L5.80165 10.8665C5.3902 10.4441 5.3902 9.75936 5.80165 9.33699C6.2131 8.91464 6.88018 8.91464 7.29163 9.33699L8.49305 10.5703L9.69438 9.33709C10.1058 8.91473 10.7729 8.91473 11.1844 9.33709C11.5958 9.75945 11.5958 10.4442 11.1844 10.8666L9.98303 12.0998L11.1844 13.333C11.5958 13.7554 11.5958 14.4402 11.1844 14.8625Z" fill="#409F11"/>
</g>
</svg>
