<svg width="25" height="25" viewBox="0 0 25 25" fill="none" xmlns="http://www.w3.org/2000/svg">
<mask id="mask0_17_84" style="mask-type:alpha" maskUnits="userSpaceOnUse" x="0" y="0" width="25" height="25">
<rect x="0.863647" y="0.100037" width="24" height="24" fill="#DCDCDC"/>
</mask>
<g mask="url(#mask0_17_84)">
<path fill-rule="evenodd" clip-rule="evenodd" d="M22.8636 18.0256C22.8636 19.1301 21.9682 20.0256 20.8636 20.0256H4.86365C3.75908 20.0256 2.86365 19.1301 2.86365 18.0256V14.0256C2.86365 12.921 3.75908 12.0256 4.86365 12.0256L20.8636 12.0256C21.9682 12.0256 22.8636 12.921 22.8636 14.0256V18.0256ZM20.8636 18.0256H4.86365V14.0256H20.8636V18.0256Z" fill="#35322B"/>
<path fill-rule="evenodd" clip-rule="evenodd" d="M15.2656 5.88161C15.6561 5.49108 15.6561 4.85792 15.2656 4.46739C14.875 4.07687 14.2419 4.07687 13.8513 4.46739L12.7111 5.60766L11.5708 4.46742C11.1803 4.07689 10.5472 4.07689 10.1566 4.46742C9.7661 4.85794 9.7661 5.49111 10.1566 5.88163L11.2969 7.02187L10.1565 8.1622C9.76602 8.55273 9.76602 9.18589 10.1565 9.57642C10.5471 9.96694 11.1802 9.96694 11.5708 9.57642L12.7111 8.43609L13.8514 9.57644C14.242 9.96697 14.8751 9.96697 15.2656 9.57644C15.6562 9.18592 15.6562 8.55275 15.2656 8.16223L14.1253 7.02187L15.2656 5.88161Z" fill="#409F11"/>
</g>
</svg>
