<svg width="25" height="25" viewBox="0 0 25 25" fill="none" xmlns="http://www.w3.org/2000/svg">
<mask id="mask0_17_59" style="mask-type:alpha" maskUnits="userSpaceOnUse" x="0" y="0" width="25" height="25">
<rect x="0.448608" y="0.100037" width="24" height="24" fill="#DCDCDC"/>
</mask>
<g mask="url(#mask0_17_59)">
<path fill-rule="evenodd" clip-rule="evenodd" d="M10.7325 19.3314C10.7325 19.8683 11.1677 20.3036 11.7047 20.3036H21.4264C21.9633 20.3036 22.3986 19.8683 22.3986 19.3314C22.3986 18.7945 21.9633 18.3592 21.4264 18.3592H11.7047C11.1677 18.3592 10.7325 18.7945 10.7325 19.3314ZM10.7325 14.4706C10.7325 15.0075 11.1677 15.4427 11.7047 15.4427H19.482C20.0189 15.4427 20.4542 15.0075 20.4542 14.4706C20.4542 13.9336 20.0189 13.4984 19.482 13.4984H11.7047C11.1677 13.4984 10.7325 13.9336 10.7325 14.4706ZM10.7325 9.60969C10.7325 10.1466 11.1677 10.5819 11.7047 10.5819H17.5377C18.0746 10.5819 18.5099 10.1466 18.5099 9.60969C18.5099 9.07279 18.0746 8.63749 17.5377 8.63749H11.7047C11.1677 8.63749 10.7325 9.07279 10.7325 9.60969ZM10.7325 4.74889C10.7325 5.28579 11.1677 5.72099 11.7047 5.72099H15.5933C16.1303 5.72099 16.5655 5.28579 16.5655 4.74889C16.5655 4.21189 16.1303 3.77669 15.5933 3.77669H11.7047C11.1677 3.77669 10.7325 4.21189 10.7325 4.74889Z" fill="#35322B"/>
<path fill-rule="evenodd" clip-rule="evenodd" d="M8.40206 3.83655C8.40206 3.29964 7.9668 2.86438 7.42989 2.86438C6.89297 2.86438 6.45772 3.29964 6.45772 3.83655V18.0869L4.15814 15.7874C3.77848 15.4077 3.16293 15.4077 2.78328 15.7874C2.40362 16.167 2.40362 16.7826 2.78328 17.1622L6.67197 21.0509C6.87073 21.2497 7.13416 21.3444 7.39454 21.335C7.40627 21.3354 7.41805 21.3357 7.42989 21.3357C7.9668 21.3357 8.40206 20.9004 8.40206 20.3635V3.83655Z" fill="#409F11"/>
</g>
</svg>
