<svg width="25" height="25" viewBox="0 0 25 25" fill="none" xmlns="http://www.w3.org/2000/svg">
<mask id="mask0_17_104" style="mask-type:alpha" maskUnits="userSpaceOnUse" x="0" y="0" width="25" height="25">
<rect x="0.196289" y="0.100037" width="24" height="24" fill="#DCDCDC"/>
</mask>
<g mask="url(#mask0_17_104)">
<path fill-rule="evenodd" clip-rule="evenodd" d="M20.1963 20.2128C21.3009 20.2128 22.1963 19.3173 22.1963 18.2128L22.1963 14.2128C22.1963 13.1082 21.3009 12.2128 20.1963 12.2128L4.19629 12.2128C3.09169 12.2128 2.19629 13.1082 2.19629 14.2128L2.19629 18.2128C2.19629 19.3173 3.09169 20.2128 4.19629 20.2128L20.1963 20.2128ZM4.19629 18.2128L20.1963 18.2128L20.1963 14.2128L4.19629 14.2128L4.19629 18.2128Z" fill="#35322B"/>
<path fill-rule="evenodd" clip-rule="evenodd" d="M11.8088 3.98752C12.3611 3.98752 12.8088 4.43523 12.8088 4.98752L12.8088 6.6001L14.4215 6.6001C14.9738 6.6001 15.4215 7.04781 15.4215 7.6001C15.4215 8.15238 14.9738 8.6001 14.4215 8.6001L12.8088 8.6001L12.8088 10.2128C12.8088 10.7651 12.3611 11.2128 11.8088 11.2128C11.2565 11.2128 10.8088 10.7651 10.8088 10.2128L10.8088 8.6001L9.19626 8.6001C8.64397 8.6001 8.19626 8.15238 8.19626 7.6001C8.19626 7.04781 8.64397 6.6001 9.19626 6.6001L10.8088 6.6001L10.8088 4.98752C10.8088 4.43523 11.2565 3.98752 11.8088 3.98752Z" fill="#409F11"/>
</g>
</svg>
