<svg width="25" height="25" viewBox="0 0 25 25" fill="none" xmlns="http://www.w3.org/2000/svg">
<mask id="mask0_17_54" style="mask-type:alpha" maskUnits="userSpaceOnUse" x="0" y="0" width="25" height="25">
<rect x="0.365601" y="0.100037" width="24" height="24" fill="#DCDCDC"/>
</mask>
<g mask="url(#mask0_17_54)">
<path fill-rule="evenodd" clip-rule="evenodd" d="M3.27469 3.92429C2.77261 3.92429 2.3656 4.3313 2.3656 4.83338V15.7425C2.3656 16.2446 2.77261 16.6516 3.27469 16.6516H5.17086L6.72278 18.2035C7.0778 18.5585 7.6534 18.5585 8.00842 18.2035L9.56034 16.6516H10.5474V19.3788C10.5474 19.8809 10.9544 20.2879 11.4565 20.2879H16.08L17.1773 21.3853C17.5323 21.7403 18.1079 21.7403 18.463 21.3853L19.5603 20.2879H21.4565C21.9586 20.2879 22.3656 19.8809 22.3656 19.3788V12.1061C22.3656 11.604 21.9586 11.197 21.4565 11.197H18.7292V4.83338C18.7292 4.3313 18.3222 3.92429 17.8201 3.92429H3.27469ZM18.7292 13.0152V15.7425C18.7292 16.2446 18.3222 16.6516 17.8201 16.6516H12.3656V18.4698H16.4565C16.6976 18.4698 16.9288 18.5655 17.0993 18.736L17.8201 19.4568L18.541 18.736C18.7114 18.5655 18.9427 18.4698 19.1838 18.4698H20.5474V13.0152H18.7292ZM16.9111 5.74247H4.18378V14.8334H5.54742C5.78852 14.8334 6.01975 14.9292 6.19024 15.0997L7.3656 16.275L8.54096 15.0997C8.71145 14.9292 8.94268 14.8334 9.18378 14.8334H16.9111V5.74247Z" fill="#35322B"/>
<path fill-rule="evenodd" clip-rule="evenodd" d="M8.27469 7.56076C7.77261 7.56076 7.3656 7.96777 7.3656 8.46985C7.3656 8.97193 7.77261 9.37894 8.27469 9.37894H13.7292C14.2313 9.37894 14.6383 8.97193 14.6383 8.46985C14.6383 7.96777 14.2313 7.56076 13.7292 7.56076H8.27469ZM7.3656 12.1062C7.3656 11.6041 7.77261 11.1971 8.27469 11.1971H11.002C11.504 11.1971 11.9111 11.6041 11.9111 12.1062C11.9111 12.6083 11.504 13.0153 11.002 13.0153H8.27469C7.77261 13.0153 7.3656 12.6083 7.3656 12.1062Z" fill="#409F11"/>
</g>
</svg>
