<svg width="25" height="25" viewBox="0 0 25 25" fill="none" xmlns="http://www.w3.org/2000/svg">
<mask id="mask0_17_49" style="mask-type:alpha" maskUnits="userSpaceOnUse" x="0" y="0" width="25" height="25">
<rect x="0.282593" y="0.100037" width="24" height="24" fill="#DCDCDC"/>
</mask>
<g mask="url(#mask0_17_49)">
<path d="M11.9573 12.1108C11.9573 11.643 11.5781 11.2638 11.1102 11.2638C10.6424 11.2638 10.2632 11.643 10.2632 12.1108C10.2632 14.1945 11.9134 15.9226 13.9965 15.9226C14.0089 15.9226 14.0213 15.9223 14.0336 15.9218C14.0472 15.9224 14.061 15.9228 14.0748 15.9228H19.5493C21.6324 15.9228 23.2826 14.1947 23.2826 12.111C23.2826 10.0274 21.6325 8.29929 19.5493 8.29929L14.7964 8.29929C14.3286 8.29929 13.9493 8.67852 13.9493 9.14634C13.9493 9.61416 14.3286 9.9934 14.7964 9.9934H19.5493C20.6543 9.9934 21.5885 10.9199 21.5885 12.111C21.5885 13.3021 20.6543 14.2287 19.5493 14.2287H14.0748C14.0624 14.2287 14.05 14.2289 14.0377 14.2295C14.024 14.2288 14.0103 14.2285 13.9965 14.2285C12.8915 14.2285 11.9573 13.3019 11.9573 12.1108Z" fill="#35322B"/>
<path d="M12.6079 12.0892C12.6079 12.5571 12.9872 12.9363 13.455 12.9363C13.9228 12.9363 14.302 12.5571 14.302 12.0892C14.302 10.0056 12.6518 8.2775 10.5688 8.2775C10.5563 8.2775 10.544 8.27777 10.5317 8.2783C10.518 8.27764 10.5042 8.27731 10.4904 8.27731L5.01593 8.27731C2.93279 8.27731 1.28259 10.0054 1.28259 12.0891C1.28263 14.1726 2.93277 15.9008 5.01593 15.9008H9.76883C10.2367 15.9008 10.6159 15.5216 10.6159 15.0537C10.6159 14.5859 10.2367 14.2067 9.76883 14.2067H5.01593C3.91095 14.2067 2.97672 13.2801 2.9767 12.089C2.9767 10.898 3.91094 9.97142 5.01593 9.97142H10.4904C10.5028 9.97142 10.5152 9.97115 10.5275 9.97062C10.5412 9.97127 10.5549 9.97161 10.5688 9.97161C11.6737 9.97161 12.6079 10.8981 12.6079 12.0892Z" fill="#409F11"/>
</g>
</svg>
