<svg width="25" height="25" viewBox="0 0 25 25" fill="none" xmlns="http://www.w3.org/2000/svg">
<mask id="mask0_17_99" style="mask-type:alpha" maskUnits="userSpaceOnUse" x="0" y="0" width="25" height="25">
<rect x="0.112915" y="0.100037" width="24" height="24" fill="#DCDCDC"/>
</mask>
<g mask="url(#mask0_17_99)">
<path fill-rule="evenodd" clip-rule="evenodd" d="M20.2612 4.10022C20.2612 2.99565 19.3658 2.10022 18.2612 2.10022H14.2612C13.1567 2.10022 12.2612 2.99565 12.2612 4.10022V20.1002C12.2612 21.2048 13.1567 22.1002 14.2612 22.1002H18.2612C19.3658 22.1002 20.2612 21.2048 20.2612 20.1002V4.10022ZM18.2612 20.1002V4.10022H14.2612V20.1002H18.2612Z" fill="#35322B"/>
<path fill-rule="evenodd" clip-rule="evenodd" d="M3.96445 12.1001C3.96445 11.5478 4.41216 11.1001 4.96445 11.1001H6.57703V9.48743C6.57703 8.93514 7.02474 8.48743 7.57703 8.48743C8.12931 8.48743 8.57703 8.93514 8.57703 9.48743V11.1001H10.1897C10.742 11.1001 11.1897 11.5478 11.1897 12.1001C11.1897 12.6524 10.742 13.1001 10.1897 13.1001H8.57703V14.7127C8.57703 15.265 8.12931 15.7127 7.57703 15.7127C7.02474 15.7127 6.57703 15.265 6.57703 14.7127V13.1001H4.96445C4.41216 13.1001 3.96445 12.6524 3.96445 12.1001Z" fill="#409F11"/>
</g>
</svg>
