<svg width="25" height="25" viewBox="0 0 25 25" fill="none" xmlns="http://www.w3.org/2000/svg">
<mask id="mask0_17_141" style="mask-type:alpha" maskUnits="userSpaceOnUse" x="0" y="0" width="25" height="25">
<rect x="0.521973" y="0.928345" width="24" height="24" fill="#DCDCDC"/>
</mask>
<g mask="url(#mask0_17_141)">
<path fill-rule="evenodd" clip-rule="evenodd" d="M12.5219 2.92834C11.2945 2.92834 10.2996 3.92328 10.2996 5.15057H6.29964C5.56324 5.15057 4.96631 5.74753 4.96631 6.4839V21.595C4.96631 22.3314 5.56326 22.9283 6.29964 22.9283H18.7441C19.4805 22.9283 20.0774 22.3314 20.0774 21.595V6.4839C20.0774 5.74753 19.4805 5.15057 18.7441 5.15057H14.7441C14.7441 3.92328 13.7492 2.92834 12.5219 2.92834ZM12.0774 5.15057C12.0774 4.9051 12.2764 4.70612 12.5219 4.70612C12.7673 4.70612 12.9663 4.9051 12.9663 5.15057V6.01746C12.9663 6.52098 13.3746 6.92834 13.8772 6.92834H14.7441V7.81723H10.2996V6.92834H11.1665C11.6691 6.92834 12.0774 6.52098 12.0774 6.01746V5.15057ZM16.5219 6.92834V8.26168C16.5219 8.99806 15.9249 9.59501 15.1885 9.59501H9.8552C9.11881 9.59501 8.52186 8.99806 8.52186 8.26168V6.92834H6.74409V21.1506H18.2996V6.92834H16.5219Z" fill="#35322B"/>
<path d="M13.9054 11.95C13.655 11.7224 13.2674 11.7408 13.0398 11.9912C12.8121 12.2417 12.8306 12.6292 13.081 12.8569L13.9891 13.6825H9.3313C8.99286 13.6825 8.71851 13.9568 8.71851 14.2953C8.71851 14.6337 8.99286 14.9081 9.3313 14.9081H15.5664C15.5859 14.9083 15.6055 14.9076 15.625 14.906C15.7038 14.8996 15.7784 14.8782 15.8459 14.8448C15.8874 14.8243 15.9269 14.7988 15.9637 14.7685C16.1002 14.6561 16.1872 14.4858 16.1872 14.2953C16.1872 14.1108 16.1057 13.9454 15.9767 13.833L13.9054 11.95Z" fill="#409F11"/>
<path d="M9.21704 15.6328C9.2941 15.5979 9.37968 15.5784 9.4698 15.5784C9.46976 15.5784 9.46984 15.5784 9.4698 15.5784H15.7129C16.0513 15.5784 16.3257 15.8528 16.3257 16.1912C16.3257 16.5297 16.0513 16.804 15.7129 16.804H11.0549L11.9631 17.6296C12.2135 17.8573 12.2319 18.2449 12.0043 18.4953C11.7766 18.7457 11.3891 18.7642 11.1386 18.5365L9.05938 16.6463C9.05646 16.6437 9.05358 16.641 9.05072 16.6383C8.98932 16.5808 8.94236 16.5135 8.91006 16.441C8.87596 16.3647 8.857 16.2802 8.857 16.1912C8.857 16.0537 8.90231 15.9267 8.97881 15.8245C9.04044 15.7421 9.12231 15.6758 9.21704 15.6328Z" fill="#409F11"/>
</g>
</svg>
