<svg width="25" height="25" viewBox="0 0 25 25" fill="none" xmlns="http://www.w3.org/2000/svg">
<mask id="mask0_17_136" style="mask-type:alpha" maskUnits="userSpaceOnUse" x="0" y="0" width="25" height="25">
<rect x="0.521973" y="0.928345" width="24" height="24" fill="#DCDCDC"/>
</mask>
<g mask="url(#mask0_17_136)">
<path fill-rule="evenodd" clip-rule="evenodd" d="M12.5219 2.92834C11.2945 2.92834 10.2996 3.92328 10.2996 5.15057H6.29964C5.56324 5.15057 4.96631 5.74753 4.96631 6.4839V21.595C4.96631 22.3314 5.56326 22.9283 6.29964 22.9283H18.7441C19.4805 22.9283 20.0774 22.3314 20.0774 21.595V6.4839C20.0774 5.74753 19.4805 5.15057 18.7441 5.15057H14.7441C14.7441 3.92328 13.7492 2.92834 12.5219 2.92834ZM12.0774 5.15057C12.0774 4.9051 12.2764 4.70612 12.5219 4.70612C12.7673 4.70612 12.9663 4.9051 12.9663 5.15057V6.01746C12.9663 6.52098 13.3746 6.92834 13.8772 6.92834H14.7441V7.81723H10.2996V6.92834H11.1665C11.6691 6.92834 12.0774 6.52098 12.0774 6.01746V5.15057ZM16.5219 6.92834V8.26168C16.5219 8.99806 15.9249 9.59501 15.1885 9.59501H9.8552C9.11881 9.59501 8.52186 8.99806 8.52186 8.26168V6.92834H6.74409V21.1506H18.2996V6.92834H16.5219Z" fill="#35322B"/>
<path fill-rule="evenodd" clip-rule="evenodd" d="M10.3536 14.0562C10.3536 12.8586 11.3245 11.8877 12.5221 11.8877C13.7198 11.8877 14.6906 12.8586 14.6906 14.0562C14.6906 14.6124 14.4808 15.1197 14.1373 15.503L14.3895 17.521C14.414 17.7172 14.3531 17.9144 14.2222 18.0626C14.0914 18.2108 13.9032 18.2957 13.7056 18.2957H11.3387C11.141 18.2957 10.9528 18.2108 10.822 18.0626C10.6912 17.9144 10.6303 17.7171 10.6548 17.521L10.9071 15.5032C10.5635 15.1198 10.3536 14.6125 10.3536 14.0562ZM12.5221 13.2661C12.0858 13.2661 11.7321 13.6199 11.7321 14.0562C11.7321 14.3142 11.8551 14.5434 12.0485 14.6887C12.2461 14.8371 12.3491 15.08 12.3185 15.3252L12.1195 16.9172H12.9249L12.7259 15.3251C12.6953 15.0799 12.7983 14.837 12.9959 14.6886C13.1892 14.5433 13.3122 14.3142 13.3122 14.0562C13.3122 13.6199 12.9585 13.2661 12.5221 13.2661Z" fill="#409F11"/>
</g>
</svg>
