<svg width="25" height="25" viewBox="0 0 25 25" fill="none" xmlns="http://www.w3.org/2000/svg">
<mask id="mask0_17_119" style="mask-type:alpha" maskUnits="userSpaceOnUse" x="0" y="0" width="25" height="25">
<rect x="0.521973" y="0.928345" width="24" height="24" fill="#DCDCDC"/>
</mask>
<g mask="url(#mask0_17_119)">
<path fill-rule="evenodd" clip-rule="evenodd" d="M12.5219 2.92834C11.2945 2.92834 10.2996 3.92328 10.2996 5.15057H6.29964C5.56324 5.15057 4.96631 5.74753 4.96631 6.4839V21.595C4.96631 22.3314 5.56326 22.9283 6.29964 22.9283H18.7441C19.4805 22.9283 20.0774 22.3314 20.0774 21.595V6.4839C20.0774 5.74753 19.4805 5.15057 18.7441 5.15057H14.7441C14.7441 3.92328 13.7492 2.92834 12.5219 2.92834ZM12.0774 5.15057C12.0774 4.9051 12.2764 4.70612 12.5219 4.70612C12.7673 4.70612 12.9663 4.9051 12.9663 5.15057V6.01746C12.9663 6.52098 13.3746 6.92834 13.8772 6.92834H14.7441V7.81723H10.2996V6.92834H11.1665C11.6691 6.92834 12.0774 6.52098 12.0774 6.01746V5.15057ZM16.5219 6.92834V8.26168C16.5219 8.99806 15.9249 9.59501 15.1885 9.59501H9.8552C9.11881 9.59501 8.52186 8.99806 8.52186 8.26168V6.92834H6.74409V21.1506H18.2996V6.92834H16.5219Z" fill="#35322B"/>
<path d="M8.2755 18.2886C7.92204 18.2886 7.6355 18.0021 7.6355 17.6486Lnan nanLnan nanL7.6355 17.6486C7.6355 17.2952 7.92204 17.0086 8.2755 17.0086H8.87089C8.96425 17.0086 9.03994 16.9329 9.03994 16.8396V13.3839C9.03994 13.3092 8.97936 13.2486 8.90463 13.2486H8.35649C8.06139 13.2486 7.82216 13.0094 7.82216 12.7143Lnan nanLnan nanL7.82216 12.7143C7.82216 12.4572 8.00613 12.2396 8.25537 12.1764C8.63724 12.0796 8.94393 11.9603 9.23525 11.8037C9.38318 11.7241 9.54665 11.6753 9.7146 11.6753Lnan nanLnan nanL9.7146 11.6753C10.2158 11.6753 10.6222 12.0816 10.6222 12.5829V16.8653C10.6222 16.9444 10.6864 17.0086 10.7655 17.0086H11.1733C11.5267 17.0086 11.8133 17.2952 11.8133 17.6486Lnan nanLnan nanL11.8133 17.6486C11.8133 18.0021 11.5267 18.2886 11.1733 18.2886H8.2755Z" fill="#409F11"/>
<path fill-rule="evenodd" clip-rule="evenodd" d="M17.2033 13.1168C17.4766 13.3901 17.4766 13.8334 17.2033 14.1067L14.4628 16.8472C14.3315 16.9785 14.1535 17.0522 13.9678 17.0522C13.7822 17.0522 13.6041 16.9785 13.4728 16.8472L12.0645 15.4389C11.7912 15.1655 11.7912 14.7223 12.0645 14.449C12.3379 14.1756 12.7811 14.1756 13.0545 14.449L13.9678 15.3623L16.2133 13.1168C16.4867 12.8434 16.9299 12.8434 17.2033 13.1168Z" fill="#409F11"/>
</g>
</svg>
