<svg width="25" height="25" viewBox="0 0 25 25" fill="none" xmlns="http://www.w3.org/2000/svg">
<mask id="mask0_17_151" style="mask-type:alpha" maskUnits="userSpaceOnUse" x="0" y="0" width="25" height="25">
<rect x="0.521973" y="0.928345" width="24" height="24" fill="#DCDCDC"/>
</mask>
<g mask="url(#mask0_17_151)">
<path fill-rule="evenodd" clip-rule="evenodd" d="M12.5219 2.92834C11.2945 2.92834 10.2996 3.92328 10.2996 5.15057H6.29964C5.56324 5.15057 4.96631 5.74753 4.96631 6.4839V21.595C4.96631 22.3314 5.56326 22.9283 6.29964 22.9283H18.7441C19.4805 22.9283 20.0774 22.3314 20.0774 21.595V6.4839C20.0774 5.74753 19.4805 5.15057 18.7441 5.15057H14.7441C14.7441 3.92328 13.7492 2.92834 12.5219 2.92834ZM12.0774 5.15057C12.0774 4.9051 12.2764 4.70612 12.5219 4.70612C12.7673 4.70612 12.9663 4.9051 12.9663 5.15057V6.01746C12.9663 6.52098 13.3746 6.92834 13.8772 6.92834H14.7441V7.81723H10.2996V6.92834H11.1665C11.6691 6.92834 12.0774 6.52098 12.0774 6.01746V5.15057ZM16.5219 6.92834V8.26168C16.5219 8.99806 15.9249 9.59501 15.1885 9.59501H9.8552C9.11881 9.59501 8.52186 8.99806 8.52186 8.26168V6.92834H6.74409V21.1506H18.2996V6.92834H16.5219Z" fill="#35322B"/>
<path fill-rule="evenodd" clip-rule="evenodd" d="M10.1939 12.9834V13.7834H10.9939V12.9834H10.1939ZM8.9939 12.5834C8.9939 12.1416 9.35207 11.7834 9.7939 11.7834H11.3939C11.8357 11.7834 12.1939 12.1416 12.1939 12.5834V14.1834C12.1939 14.6253 11.8357 14.9834 11.3939 14.9834H9.7939C9.35207 14.9834 8.9939 14.6253 8.9939 14.1834V12.5834Z" fill="#409F11"/>
<path fill-rule="evenodd" clip-rule="evenodd" d="M10.1939 16.7994V17.5994H10.9939V16.7994H10.1939ZM8.9939 16.3994C8.9939 15.9575 9.35207 15.5994 9.7939 15.5994H11.3939C11.8357 15.5994 12.1939 15.9575 12.1939 16.3994V17.9994C12.1939 18.4412 11.8357 18.7994 11.3939 18.7994H9.7939C9.35207 18.7994 8.9939 18.4412 8.9939 17.9994V16.3994Z" fill="#409F11"/>
<path fill-rule="evenodd" clip-rule="evenodd" d="M14.0499 12.9834V13.7834H14.8499V12.9834H14.0499ZM12.8499 12.5834C12.8499 12.1416 13.208 11.7834 13.6499 11.7834H15.2499C15.6917 11.7834 16.0499 12.1416 16.0499 12.5834V14.1834C16.0499 14.6253 15.6917 14.9834 15.2499 14.9834H13.6499C13.208 14.9834 12.8499 14.6253 12.8499 14.1834V12.5834Z" fill="#409F11"/>
<path fill-rule="evenodd" clip-rule="evenodd" d="M14.0499 16.7994V17.5994H14.8499V16.7994H14.0499ZM12.8499 16.3994C12.8499 15.9575 13.208 15.5994 13.6499 15.5994H15.2499C15.6917 15.5994 16.0499 15.9575 16.0499 16.3994V17.9994C16.0499 18.4412 15.6917 18.7994 15.2499 18.7994H13.6499C13.208 18.7994 12.8499 18.4412 12.8499 17.9994V16.3994Z" fill="#409F11"/>
<path fill-rule="evenodd" clip-rule="evenodd" d="M11.9585 14.728V15.8549H13.0854V14.728H11.9585ZM10.7585 14.3606C10.7585 13.9008 11.1314 13.528 11.5912 13.528H13.4528C13.9126 13.528 14.2854 13.9008 14.2854 14.3606V16.2222C14.2854 16.6821 13.9126 17.0549 13.4528 17.0549H11.5912C11.1314 17.0549 10.7585 16.6821 10.7585 16.2222V14.3606Z" fill="#35322B"/>
</g>
</svg>
