<svg width="25" height="25" viewBox="0 0 25 25" fill="none" xmlns="http://www.w3.org/2000/svg">
<mask id="mask0_17_109" style="mask-type:alpha" maskUnits="userSpaceOnUse" x="0" y="0" width="25" height="25">
<rect x="0.279541" y="0.100037" width="24" height="24" fill="#DCDCDC"/>
</mask>
<g mask="url(#mask0_17_109)">
<path fill-rule="evenodd" clip-rule="evenodd" d="M8.15551 2.10846C8.15556 1.66835 8.79591 1.31158 9.58582 1.31158C10.3757 1.31158 11.0161 1.66835 11.0161 2.10846H11.5859C12.5479 2.10846 13.3513 2.78766 13.5427 3.69268H14.5857C15.6903 3.69268 16.5857 4.58811 16.5857 5.69268V8.55023H18.9731C20.6299 8.55023 21.9731 9.89337 21.9731 11.5502V17.5C21.9731 18.2957 21.657 19.0587 21.0944 19.6213L18.706 22.0098C18.1433 22.5724 17.3803 22.8885 16.5846 22.8885H12.0491C10.6708 22.8885 9.50961 21.959 9.15809 20.6927H4.58569C3.48112 20.6927 2.58569 19.7973 2.58569 18.6927V5.69268C2.58569 4.58811 3.48112 3.69268 4.58569 3.69268H5.62921C5.82056 2.78766 6.62393 2.10846 7.58593 2.10846H8.15551ZM5.74355 5.69268H4.58569V18.6927H9.04907V11.5502C9.04907 9.89337 10.3922 8.55023 12.0491 8.55023H14.5857V5.69268H13.4283C13.1245 6.40996 12.414 6.91315 11.5859 6.91315H7.58593C6.75791 6.91315 6.04741 6.40996 5.74355 5.69268ZM7.58593 3.60846H11.5859C11.8621 3.60846 12.0859 3.83231 12.0859 4.10845V4.91315C12.0859 5.18929 11.8621 5.41315 11.5859 5.41315H7.58593C7.30979 5.41315 7.08593 5.18929 7.08593 4.91315V4.10846C7.08593 3.83231 7.30979 3.60846 7.58593 3.60846ZM12.0491 10.5502C11.4968 10.5502 11.0491 10.9979 11.0491 11.5502V19.8885C11.0491 20.4407 11.4968 20.8885 12.0491 20.8885H16.5846C16.7381 20.8885 16.8879 20.8532 17.0232 20.7872C17.2139 20.6941 17.2917 20.4764 17.2917 20.2642V18.6071C17.2917 18.3862 17.4708 18.2071 17.6917 18.2071H19.3488C19.561 18.2071 19.7787 18.1293 19.8718 17.9386C19.9378 17.8033 19.9731 17.6535 19.9731 17.5V11.5502C19.9731 10.9979 19.5254 10.5502 18.9731 10.5502H12.0491Z" fill="#35322B"/>
<path fill-rule="evenodd" clip-rule="evenodd" d="M13.0973 14.9112C14.4196 14.9112 16.7219 14.9112 18.0442 14.9112C18.5964 14.9112 19.0559 14.456 19.0559 13.9037C19.0559 13.3664 18.5964 12.9112 18.0442 12.9112C16.7219 12.9112 14.4196 12.9112 13.0973 12.9112C12.545 12.9112 12.0856 13.3664 12.0856 13.9187C12.0856 14.456 12.545 14.9112 13.0973 14.9112ZM16.0903 17.7548C15.2159 17.7548 13.9448 17.7548 13.0704 17.7548C12.5181 17.7548 12.0856 17.2996 12.0856 16.7473C12.0856 16.21 12.5181 15.7548 13.0704 15.7548C13.9448 15.7548 15.2159 15.7548 16.0903 15.7548C16.6426 15.7548 17.0751 16.21 17.0751 16.7623C17.0751 17.2996 16.6426 17.7548 16.0903 17.7548Z" fill="#409F11"/>
</g>
</svg>
