<svg width="25" height="25" viewBox="0 0 25 25" fill="none" xmlns="http://www.w3.org/2000/svg">
<mask id="mask0_17_126" style="mask-type:alpha" maskUnits="userSpaceOnUse" x="0" y="0" width="25" height="25">
<rect x="0.521973" y="0.928345" width="24" height="24" fill="#DCDCDC"/>
</mask>
<g mask="url(#mask0_17_126)">
<path fill-rule="evenodd" clip-rule="evenodd" d="M12.5221 2.92834C11.2948 2.92834 10.2999 3.92328 10.2999 5.15057H6.29989C5.56349 5.15057 4.96655 5.74753 4.96655 6.4839V21.595C4.96655 22.3314 5.5635 22.9283 6.29989 22.9283H18.7443C19.4807 22.9283 20.0777 22.3314 20.0777 21.595V6.4839C20.0777 5.74753 19.4807 5.15057 18.7443 5.15057H14.7443C14.7443 3.92328 13.7494 2.92834 12.5221 2.92834ZM12.0777 5.15057C12.0777 4.9051 12.2766 4.70612 12.5221 4.70612C12.7676 4.70612 12.9666 4.9051 12.9666 5.15057V6.01746C12.9666 6.52098 13.3748 6.92834 13.8774 6.92834H14.7443V7.81723H10.2999V6.92834H11.1668C11.6694 6.92834 12.0777 6.52098 12.0777 6.01746V5.15057ZM16.5221 6.92834V8.26168C16.5221 8.99806 15.9252 9.59501 15.1888 9.59501H9.85544C9.11905 9.59501 8.52211 8.99806 8.52211 8.26168V6.92834H6.74433V21.1506H18.2999V6.92834H16.5221Z" fill="#35322B"/>
<path d="M9.52231 12.2913C9.02526 12.2913 8.62231 12.6942 8.62231 13.1913C8.62231 13.6883 9.02526 14.0913 9.52231 14.0913H15.5223C16.0194 14.0913 16.4223 13.6883 16.4223 13.1913C16.4223 12.6942 16.0194 12.2913 15.5223 12.2913H9.52231Z" fill="#409F11"/>
<path d="M10.5223 15.4417C10.0253 15.4417 9.62231 15.8446 9.62231 16.3417C9.62231 16.8387 10.0253 17.2417 10.5223 17.2417H14.5223C15.0194 17.2417 15.4223 16.8387 15.4223 16.3417C15.4223 15.8446 15.0194 15.4417 14.5223 15.4417H10.5223Z" fill="#409F11"/>
</g>
</svg>
