<svg width="25" height="25" viewBox="0 0 25 25" fill="none" xmlns="http://www.w3.org/2000/svg">
<mask id="mask0_17_131" style="mask-type:alpha" maskUnits="userSpaceOnUse" x="0" y="0" width="25" height="25">
<rect x="0.521973" y="0.928345" width="24" height="24" fill="#DCDCDC"/>
</mask>
<g mask="url(#mask0_17_131)">
<path fill-rule="evenodd" clip-rule="evenodd" d="M12.5219 2.92834C11.2945 2.92834 10.2996 3.92328 10.2996 5.15057H6.29964C5.56324 5.15057 4.96631 5.74753 4.96631 6.4839V21.595C4.96631 22.3314 5.56326 22.9283 6.29964 22.9283H18.7441C19.4805 22.9283 20.0774 22.3314 20.0774 21.595V6.4839C20.0774 5.74753 19.4805 5.15057 18.7441 5.15057H14.7441C14.7441 3.92328 13.7492 2.92834 12.5219 2.92834ZM12.0774 5.15057C12.0774 4.9051 12.2764 4.70612 12.5219 4.70612C12.7673 4.70612 12.9663 4.9051 12.9663 5.15057V6.01746C12.9663 6.52098 13.3746 6.92834 13.8772 6.92834H14.7441V7.81723H10.2996V6.92834H11.1665C11.6691 6.92834 12.0774 6.52098 12.0774 6.01746V5.15057ZM16.5219 6.92834V8.26168C16.5219 8.99806 15.9249 9.59501 15.1885 9.59501H9.8552C9.11881 9.59501 8.52186 8.99806 8.52186 8.26168V6.92834H6.74409V21.1506H18.2996V6.92834H16.5219Z" fill="#35322B"/>
<path d="M14.1919 12.6017C14.4537 12.7977 14.4556 13.1749 14.242 13.4225Lnan nanLnan nanL14.242 13.4225C14.0075 13.6942 13.6056 13.6972 13.2823 13.5413C13.0973 13.4521 12.9067 13.4069 12.6923 13.4069C12.2088 13.4069 11.9533 13.5802 11.9533 14.0364C11.9533 14.958 14.6906 14.9124 14.6906 16.8741C14.6906 17.8777 14.1522 18.6624 13.0664 18.8997V19.4517C13.0664 19.7465 12.8275 19.9854 12.5327 19.9854Lnan nanLnan nanL12.5327 19.9854C12.2379 19.9854 11.9989 19.7465 11.9989 19.4517V18.9544C11.5574 18.9017 11.0492 18.7442 10.6119 18.489C10.3252 18.3216 10.2796 17.947 10.4605 17.6687Lnan nanLnan nanL10.4605 17.6687C10.6752 17.3383 11.12 17.2739 11.4739 17.4471C11.7662 17.5902 12.0435 17.6588 12.3274 17.6588C12.8931 17.6588 13.1394 17.4398 13.1394 16.9927C13.1394 15.9981 10.4113 15.9708 10.4113 14.1094C10.4113 13.0693 11.0044 12.3484 11.9989 12.1477V11.6048C11.9989 11.31 12.2379 11.071 12.5327 11.071Lnan nanLnan nanL12.5327 11.071C12.8275 11.071 13.0664 11.31 13.0664 11.6048V12.1295C13.5138 12.1969 13.8788 12.3672 14.1919 12.6017Z" fill="#409F11"/>
</g>
</svg>
