<svg width="25" height="25" viewBox="0 0 25 25" fill="none" xmlns="http://www.w3.org/2000/svg">
<mask id="mask0_17_114" style="mask-type:alpha" maskUnits="userSpaceOnUse" x="0" y="0" width="25" height="25">
<rect x="0.521973" y="0.928345" width="24" height="24" fill="#DCDCDC"/>
</mask>
<g mask="url(#mask0_17_114)">
<path fill-rule="evenodd" clip-rule="evenodd" d="M12.5219 2.92834C11.2945 2.92834 10.2996 3.92328 10.2996 5.15057H6.29964C5.56324 5.15057 4.96631 5.74753 4.96631 6.4839V21.595C4.96631 22.3314 5.56326 22.9283 6.29964 22.9283H18.7441C19.4805 22.9283 20.0774 22.3314 20.0774 21.595V6.4839C20.0774 5.74753 19.4805 5.15057 18.7441 5.15057H14.7441C14.7441 3.92328 13.7492 2.92834 12.5219 2.92834ZM12.0774 5.15057C12.0774 4.9051 12.2764 4.70612 12.5219 4.70612C12.7673 4.70612 12.9663 4.9051 12.9663 5.15057V6.01746C12.9663 6.52098 13.3746 6.92834 13.8772 6.92834H14.7441V7.81723H10.2996V6.92834H11.1665C11.6691 6.92834 12.0774 6.52098 12.0774 6.01746V5.15057ZM16.5219 6.92834V8.26168C16.5219 8.99806 15.9249 9.59501 15.1885 9.59501H9.8552C9.11881 9.59501 8.52186 8.99806 8.52186 8.26168V6.92834H6.74409V21.1506H18.2996V6.92834H16.5219Z" fill="#35322B"/>
<path d="M11.0731 18.2886C10.7196 18.2886 10.4331 18.0021 10.4331 17.6486Lnan nanLnan nanL10.4331 17.6486C10.4331 17.2952 10.7196 17.0086 11.0731 17.0086H11.6685C11.7619 17.0086 11.8375 16.933 11.8375 16.8396V13.384C11.8375 13.3092 11.777 13.2486 11.7022 13.2486H11.1541C10.859 13.2486 10.6198 13.0094 10.6198 12.7143Lnan nanLnan nanL10.6198 12.7143C10.6198 12.4572 10.8037 12.2396 11.053 12.1764C11.4348 12.0796 11.7415 11.9603 12.0329 11.8037C12.1808 11.7241 12.3443 11.6753 12.5122 11.6753Lnan nanLnan nanL12.5122 11.6753C13.0134 11.6753 13.4198 12.0816 13.4198 12.5829V16.8653C13.4198 16.9445 13.484 17.0086 13.5631 17.0086H13.9709C14.3243 17.0086 14.6109 17.2952 14.6109 17.6486Lnan nanLnan nanL14.6109 17.6486C14.6109 18.0021 14.3243 18.2886 13.9709 18.2886H11.0731Z" fill="#409F11"/>
</g>
</svg>
