<svg width="25" height="25" viewBox="0 0 25 25" fill="none" xmlns="http://www.w3.org/2000/svg">
<mask id="mask0_17_173" style="mask-type:alpha" maskUnits="userSpaceOnUse" x="0" y="0" width="25" height="25">
<rect x="0.529785" y="0.100037" width="24" height="24" fill="#DCDCDC"/>
</mask>
<g mask="url(#mask0_17_173)">
<path fill-rule="evenodd" clip-rule="evenodd" d="M8.14386 2.64397C7.86771 2.16567 7.25612 2.0018 6.77783 2.27794C6.29954 2.55408 6.13566 3.16567 6.41181 3.64397L11.4025 12.2882L8.92197 16.5846C8.29173 15.6619 7.23148 15.0563 6.02979 15.0563C4.09679 15.0563 2.52979 16.6233 2.52979 18.5563C2.52979 20.4893 4.09679 22.0563 6.02979 22.0563C7.35841 22.0563 8.51414 21.316 9.10695 20.2254L10.1413 18.4726L10.1461 18.4644L12.5572 14.2881L14.9089 18.3613L15.9047 20.1339C16.4815 21.2744 17.6644 22.0563 19.0298 22.0563C20.9628 22.0563 22.5298 20.4893 22.5298 18.5563C22.5298 16.6233 20.9628 15.0563 19.0298 15.0563C17.8469 15.0563 16.8011 15.6431 16.1676 16.5414L13.7119 12.2882L18.6461 3.74199C18.9222 3.2637 18.7583 2.65211 18.2801 2.37596C17.8018 2.09982 17.1902 2.2637 16.914 2.74199L12.5572 10.2882L8.14386 2.64397ZM17.7456 19.3319C17.7362 19.3121 17.726 19.2925 17.7151 19.2732L17.6777 19.2066C17.5829 19.0098 17.5298 18.7893 17.5298 18.5563C17.5298 17.7279 18.2014 17.0563 19.0298 17.0563C19.8582 17.0563 20.5298 17.7279 20.5298 18.5563C20.5298 19.3847 19.8582 20.0563 19.0298 20.0563C18.4852 20.0563 18.0084 19.7661 17.7456 19.3319ZM7.35753 19.2546L7.35881 19.2525C7.468 19.0444 7.52979 18.8076 7.52979 18.5563C7.52979 17.7279 6.8582 17.0563 6.02979 17.0563C5.20136 17.0563 4.52979 17.7279 4.52979 18.5563C4.52979 19.3847 5.20136 20.0563 6.02979 20.0563C6.58437 20.0563 7.06868 19.7553 7.32825 19.3078C7.33741 19.2899 7.34717 19.2722 7.35753 19.2546Z" fill="#409F11"/>
</g>
</svg>
