<svg width="16" height="16" viewBox="0 0 16 16" fill="none" xmlns="http://www.w3.org/2000/svg">
<path d="M1.9999 1.89941C1.66853 1.89941 1.3999 2.16804 1.3999 2.49941C1.3999 2.83078 1.66853 3.09941 1.9999 3.09941H13.9999C14.3313 3.09941 14.5999 2.83078 14.5999 2.49941C14.5999 2.16804 14.3313 1.89941 13.9999 1.89941H1.9999Z" fill="black"/>
<path d="M1.9999 5.56641C1.66853 5.56641 1.3999 5.83504 1.3999 6.16641C1.3999 6.49778 1.66853 6.76641 1.9999 6.76641H13.9999C14.3313 6.76641 14.5999 6.49778 14.5999 6.16641C14.5999 5.83504 14.3313 5.56641 13.9999 5.56641H1.9999Z" fill="black"/>
<path d="M1.3999 9.8334C1.3999 9.50203 1.66853 9.2334 1.9999 9.2334H13.9999C14.3313 9.2334 14.5999 9.50203 14.5999 9.8334C14.5999 10.1648 14.3313 10.4334 13.9999 10.4334H1.9999C1.66853 10.4334 1.3999 10.1648 1.3999 9.8334Z" fill="black"/>
<path d="M1.9999 12.9004C1.66853 12.9004 1.3999 13.169 1.3999 13.5004C1.3999 13.8318 1.66853 14.1004 1.9999 14.1004H13.9999C14.3313 14.1004 14.5999 13.8318 14.5999 13.5004C14.5999 13.169 14.3313 12.9004 13.9999 12.9004H1.9999Z" fill="black"/>
</svg>
