<svg width="16" height="16" viewBox="0 0 16 16" fill="none" xmlns="http://www.w3.org/2000/svg">
<path d="M12.4208 14.4667C12.4208 14.798 12.1522 15.0667 11.8208 15.0667C11.4895 15.0667 11.2208 14.798 11.2208 14.4667V2.98193L9.97861 4.22417C9.7443 4.45848 9.3644 4.45848 9.13008 4.22417C8.89577 3.98985 8.89577 3.60995 9.13008 3.37564L11.3967 1.10897C11.6311 0.874657 12.011 0.874657 12.2453 1.10897L14.5119 3.37564C14.7463 3.60995 14.7463 3.98985 14.5119 4.22417C14.2776 4.45848 13.8977 4.45848 13.6634 4.22417L12.4208 2.9816V14.4667Z" fill="black"/>
<path fill-rule="evenodd" clip-rule="evenodd" d="M1.98967 10.2798C1.6583 10.2798 1.38967 10.0112 1.38967 9.67983C1.38967 9.34846 1.6583 9.07983 1.98967 9.07983H6.50138C6.74406 9.07983 6.96284 9.22602 7.05571 9.45022C7.14858 9.67443 7.09725 9.9325 6.92565 10.1041L3.43819 13.5916H6.50138C6.83276 13.5916 7.10138 13.8602 7.10138 14.1916C7.10138 14.5229 6.83276 14.7916 6.50138 14.7916H1.98967C1.74699 14.7916 1.52821 14.6454 1.43534 14.4212C1.34247 14.197 1.3938 13.9389 1.5654 13.7673L5.05286 10.2798H1.98967Z" fill="black"/>
<path fill-rule="evenodd" clip-rule="evenodd" d="M5.1846 1.86439C4.8641 0.989866 3.62725 0.989866 3.30674 1.86439L1.34882 7.20672C1.23479 7.51786 1.39458 7.86252 1.70571 7.97655C2.01684 8.09058 2.3615 7.93079 2.47553 7.61966L3.06159 6.02055L3.06338 6.02056H5.42975L6.01581 7.61966C6.12984 7.93079 6.4745 8.09058 6.78563 7.97655C7.09677 7.86252 7.25655 7.51786 7.14252 7.20672L5.1846 1.86439ZM4.98996 4.82056L4.24567 2.78971L3.50138 4.82056H4.98996Z" fill="black"/>
</svg>
