<svg width="16" height="16" viewBox="0 0 16 16" fill="none" xmlns="http://www.w3.org/2000/svg">
<path fill-rule="evenodd" clip-rule="evenodd" d="M2.36977 4.66364C2.67525 3.75535 3.95995 3.75535 4.26543 4.66364L6.0261 9.89866C6.13173 10.2127 5.96275 10.553 5.64867 10.6586C5.33459 10.7643 4.99434 10.5953 4.8887 10.2812L3.3176 5.60982L1.7465 10.2812C1.64086 10.5953 1.30062 10.7643 0.986532 10.6586C0.672449 10.553 0.503468 10.2127 0.609102 9.89866L2.36977 4.66364Z" fill="black"/>
<path fill-rule="evenodd" clip-rule="evenodd" d="M1.6333 7.87051C1.6333 7.53914 1.90193 7.27051 2.2333 7.27051H4.52594C4.85732 7.27051 5.12594 7.53914 5.12594 7.87051C5.12594 8.20188 4.85732 8.47051 4.52594 8.47051H2.2333C1.90193 8.47051 1.6333 8.20188 1.6333 7.87051Z" fill="black"/>
<path fill-rule="evenodd" clip-rule="evenodd" d="M9.26385 10.0162C8.9281 10.853 7.74343 10.853 7.40768 10.0162L6.02978 6.58181C5.90639 6.27427 6.05568 5.92493 6.36322 5.80154C6.67076 5.67815 7.0201 5.82744 7.14349 6.13498L8.33577 9.10668L9.52805 6.13498C9.65143 5.82744 10.0008 5.67815 10.3083 5.80154C10.6159 5.92493 10.7651 6.27427 10.6418 6.58181L9.26385 10.0162Z" fill="black"/>
<path fill-rule="evenodd" clip-rule="evenodd" d="M14.8178 5.68628C15.1491 5.68628 15.4178 5.95491 15.4178 6.28628L15.4178 10.845C15.4178 11.9648 14.51 12.8726 13.3901 12.8726H12.8888C11.8122 12.8726 10.9395 11.9999 10.9395 10.9233C10.9395 10.5919 11.2081 10.3233 11.5395 10.3233C11.8708 10.3233 12.1395 10.5919 12.1395 10.9233C12.1395 11.3371 12.4749 11.6726 12.8888 11.6726H13.3901C13.8472 11.6726 14.2178 11.3021 14.2178 10.845L14.2178 6.28628C14.2178 5.95491 14.4864 5.68628 14.8178 5.68628Z" fill="black"/>
<path fill-rule="evenodd" clip-rule="evenodd" d="M10.9395 7.82632C10.9395 6.58966 11.942 5.58716 13.1786 5.58716C14.4153 5.58716 15.4178 6.58966 15.4178 7.82632C15.4178 9.06297 14.4153 10.0655 13.1786 10.0655C11.942 10.0655 10.9395 9.06297 10.9395 7.82632ZM13.1786 6.78716C12.6047 6.78716 12.1395 7.2524 12.1395 7.82632C12.1395 8.40023 12.6047 8.86547 13.1786 8.86547C13.7525 8.86547 14.2178 8.40023 14.2178 7.82632C14.2178 7.2524 13.7525 6.78716 13.1786 6.78716Z" fill="black"/>
</svg>
