<svg width="20" height="20" viewBox="0 0 20 20" fill="none" xmlns="http://www.w3.org/2000/svg">
<path d="M17.0596 10C17.0596 6.10087 13.8992 2.94043 10 2.94043C6.10087 2.94043 2.94043 6.10087 2.94043 10C2.94043 13.8992 6.10087 17.0596 10 17.0596C13.8992 17.0596 17.0596 13.8992 17.0596 10ZM18.9404 10C18.9404 14.9374 14.9374 18.9404 10 18.9404C5.06257 18.9404 1.05957 14.9374 1.05957 10C1.05957 5.06257 5.06257 1.05957 10 1.05957C14.9374 1.05957 18.9404 5.06257 18.9404 10Z" fill="black"/>
<path d="M4.29492 4.13476C4.63911 3.79057 5.1845 3.76906 5.55371 4.07031L5.625 4.13476L16.0244 14.5352L16.0889 14.6064C16.3902 14.9757 16.3686 15.52 16.0244 15.8643C15.6573 16.2313 15.0624 16.2313 14.6953 15.8643L4.29492 5.46484L4.23047 5.39355C3.92922 5.02434 3.95073 4.47895 4.29492 4.13476Z" fill="black"/>
</svg>
