<svg width="16" height="16" viewBox="0 0 16 16" fill="none" xmlns="http://www.w3.org/2000/svg">
<path fill-rule="evenodd" clip-rule="evenodd" d="M4.65791 1.30005C3.77355 1.30005 3.05664 2.01696 3.05664 2.90132V12.8588C3.05664 13.8755 3.88086 14.6998 4.89759 14.6998H9.1016C11.2233 14.6998 12.9433 12.9798 12.9433 10.8581C12.9433 9.13925 11.8145 7.68407 10.2578 7.1934C10.8806 6.56856 11.2655 5.70659 11.2655 4.75472C11.2655 2.84676 9.71883 1.30005 7.81087 1.30005H4.65791ZM4.25664 2.90132C4.25664 2.6797 4.4363 2.50005 4.65791 2.50005H7.81087C9.05609 2.50005 10.0655 3.5095 10.0655 4.75472C10.0655 5.99993 9.05609 7.00938 7.81087 7.00938H4.25664V2.90132ZM4.25664 12.8588V8.21636H9.1016C10.5606 8.21636 11.7433 9.39909 11.7433 10.8581C11.7433 12.317 10.5606 13.4998 9.1016 13.4998H4.89759C4.5436 13.4998 4.25664 13.2128 4.25664 12.8588Z" fill="black"/>
</svg>
