<svg width="17" height="16" viewBox="0 0 17 16" fill="none" xmlns="http://www.w3.org/2000/svg">
<path fill-rule="evenodd" clip-rule="evenodd" d="M14.0045 4.4334C14.8881 4.4334 15.6045 3.71705 15.6045 2.8334C15.6045 1.94974 14.8881 1.2334 14.0045 1.2334H3.70449C2.82084 1.2334 2.10449 1.94974 2.10449 2.8334C2.10449 3.71705 2.82084 4.4334 3.70449 4.4334H14.0045ZM14.4045 2.8334C14.4045 3.05431 14.2254 3.2334 14.0045 3.2334H3.70449C3.48358 3.2334 3.30449 3.05431 3.30449 2.8334C3.30449 2.61248 3.48358 2.4334 3.70449 2.4334H14.0045C14.2254 2.4334 14.4045 2.61249 14.4045 2.8334Z" fill="black"/>
<path fill-rule="evenodd" clip-rule="evenodd" d="M14.1544 8.5999C15.038 8.5999 15.7544 7.88356 15.7544 6.9999C15.7544 6.11625 15.038 5.3999 14.1544 5.3999H3.85439C2.97074 5.3999 2.25439 6.11625 2.25439 6.9999C2.25439 7.88356 2.97074 8.5999 3.85439 8.5999H14.1544ZM14.5544 6.9999C14.5544 7.22082 14.3753 7.3999 14.1544 7.3999H3.85439C3.63348 7.3999 3.45439 7.22082 3.45439 6.9999C3.45439 6.77899 3.63348 6.5999 3.85439 6.5999H14.1544C14.3753 6.5999 14.5544 6.77899 14.5544 6.9999Z" fill="black"/>
<path d="M8.57975 14.5902L6.58023 12.5907C6.34591 12.3564 6.34591 11.9765 6.58023 11.7421C6.81454 11.5078 7.19444 11.5078 7.42876 11.7421L8.40449 12.7179V10.1664C8.40449 9.83504 8.67312 9.56641 9.00449 9.56641C9.33586 9.56641 9.60449 9.83504 9.60449 10.1664V12.7179L10.5802 11.7421C10.8145 11.5078 11.1944 11.5078 11.4288 11.7421C11.6631 11.9765 11.6631 12.3564 11.4288 12.5907L9.42923 14.5902" fill="black"/>
<path d="M8.57975 14.5902C8.58121 14.5917 8.58268 14.5931 8.58416 14.5946C8.64077 14.6502 8.70566 14.6923 8.77482 14.7209C8.84557 14.7502 8.92314 14.7664 9.00449 14.7664C9.08585 14.7664 9.16342 14.7502 9.23416 14.7209C9.30332 14.6923 9.36821 14.6502 9.42482 14.5946" fill="black"/>
</svg>
