<svg width="20" height="20" viewBox="0 0 20 20" fill="none" xmlns="http://www.w3.org/2000/svg">
<path d="M4 16.802L3.99481 16.924C3.94367 17.5286 3.51757 18 3 18C2.48243 18 2.05633 17.5286 2.00519 16.924L2 16.802V3.19925C2 2.53723 2.44797 2 3 2C3.55203 2 4 2.53723 4 3.19925V16.802Z" fill="black"/>
<path d="M16.802 16L16.924 16.0052C17.5286 16.0563 18 16.4824 18 17C18 17.5176 17.5286 17.9437 16.924 17.9948L16.802 18H3.19925C2.53723 18 2 17.552 2 17C2 16.448 2.53723 16 3.19925 16H16.802Z" fill="black"/>
<path d="M18 4V11H13V4H18ZM14.7998 9.2002H16.2002V5.7998H14.7998V9.2002Z" fill="black"/>
<path d="M14.7 2H16.5V4H14.7V2Z" fill="black"/>
<path d="M7.7 4H9.5V6H7.7V4Z" fill="black"/>
<path d="M14.7 11H16.5V13H14.7V11Z" fill="black"/>
<path d="M7.7 13H9.5V15H7.7V13Z" fill="black"/>
<path d="M11 6V13H6V6H11ZM7.7998 11.2002H9.2002V7.7998H7.7998V11.2002Z" fill="black"/>
</svg>
