<svg width="16" height="16" viewBox="0 0 16 16" fill="none" xmlns="http://www.w3.org/2000/svg">
<path fill-rule="evenodd" clip-rule="evenodd" d="M2.59219 1.3667C1.70853 1.3667 0.992188 2.08304 0.992188 2.9667V4.9667C0.992188 5.85036 1.70853 6.5667 2.59219 6.5667H11.2694C12.1531 6.5667 12.8694 5.85036 12.8694 4.9667V4.79985H13.8075V8.18642C13.8075 8.38777 13.6579 8.55773 13.4581 8.58321L7.10511 9.39341C6.30618 9.4953 5.70752 10.1752 5.70752 10.9806V14.0332C5.70752 14.3646 5.97615 14.6332 6.30752 14.6332C6.63889 14.6332 6.90752 14.3646 6.90752 14.0332V10.9806C6.90752 10.7792 7.05718 10.6092 7.25692 10.5838L13.6099 9.77356C14.4089 9.67168 15.0075 8.99182 15.0075 8.18642V4.19985C15.0075 3.86848 14.7389 3.59985 14.4075 3.59985H12.8694V2.9667C12.8694 2.08304 12.1531 1.3667 11.2694 1.3667H2.59219ZM2.19219 2.9667C2.19219 2.74579 2.37127 2.5667 2.59219 2.5667H11.2694C11.4903 2.5667 11.6694 2.74579 11.6694 2.9667V4.9667C11.6694 5.18761 11.4903 5.3667 11.2694 5.3667H2.59219C2.37127 5.3667 2.19219 5.18761 2.19219 4.9667V2.9667Z" fill="black"/>
</svg>
