<svg width="16" height="16" viewBox="0 0 16 16" fill="none" xmlns="http://www.w3.org/2000/svg">
<path d="M2.59355 2.1415C2.59355 1.81013 2.32493 1.5415 1.99355 1.5415C1.66218 1.5415 1.39355 1.81013 1.39355 2.1415V11.8589C1.39355 13.2949 2.55761 14.4589 3.99355 14.4589H13.9936C14.3249 14.4589 14.5936 14.1903 14.5936 13.8589C14.5936 13.5275 14.3249 13.2589 13.9936 13.2589H3.99355C3.22036 13.2589 2.59355 12.6321 2.59355 11.8589V2.1415Z" fill="black"/>
<path fill-rule="evenodd" clip-rule="evenodd" d="M12.4466 1.83691C11.2538 1.83691 10.2868 2.80388 10.2868 3.99672C10.2868 5.18956 11.2538 6.15653 12.4466 6.15653C13.6394 6.15653 14.6065 5.18956 14.6065 3.99672C14.6065 2.80388 13.6394 1.83691 12.4466 1.83691ZM11.4868 3.99672C11.4868 3.46665 11.9165 3.03691 12.4466 3.03691C12.9767 3.03691 13.4065 3.46665 13.4065 3.99672C13.4065 4.52679 12.9767 4.95653 12.4466 4.95653C11.9165 4.95653 11.4868 4.52679 11.4868 3.99672Z" fill="black"/>
<path fill-rule="evenodd" clip-rule="evenodd" d="M5.42285 5.79336C5.42285 4.91778 6.13267 4.20801 7.00822 4.20801C7.88378 4.20801 8.59359 4.91778 8.59359 5.79336C8.59359 6.66893 7.88378 7.37871 7.00822 7.37871C6.13266 7.37871 5.42285 6.66893 5.42285 5.79336ZM7.00822 5.40801C6.79538 5.40801 6.62285 5.58055 6.62285 5.79336C6.62285 6.00616 6.79538 6.17871 7.00822 6.17871C7.22107 6.17871 7.39359 6.00616 7.39359 5.79336C7.39359 5.58055 7.22107 5.40801 7.00822 5.40801Z" fill="black"/>
<path fill-rule="evenodd" clip-rule="evenodd" d="M3.87939 10.3876C3.87939 9.36881 4.70528 8.54297 5.72402 8.54297C6.74276 8.54297 7.56865 9.36881 7.56865 10.3876C7.56865 11.4063 6.74276 12.2322 5.72402 12.2322C4.70528 12.2322 3.87939 11.4063 3.87939 10.3876ZM5.72402 9.74297C5.368 9.74297 5.07939 10.0316 5.07939 10.3876C5.07939 10.7436 5.368 11.0322 5.72402 11.0322C6.08005 11.0322 6.36865 10.7436 6.36865 10.3876C6.36865 10.0316 6.08005 9.74297 5.72402 9.74297Z" fill="black"/>
<path fill-rule="evenodd" clip-rule="evenodd" d="M8.97998 9.04309C8.97998 8.13557 9.71569 7.3999 10.6232 7.3999C11.5307 7.3999 12.2664 8.13557 12.2664 9.04309C12.2664 9.95061 11.5307 10.6863 10.6232 10.6863C9.71569 10.6863 8.97998 9.95061 8.97998 9.04309ZM10.6232 8.5999C10.3784 8.5999 10.18 8.79834 10.18 9.04309C10.18 9.28784 10.3784 9.48628 10.6232 9.48628C10.868 9.48628 11.0664 9.28784 11.0664 9.04309C11.0664 8.79834 10.868 8.5999 10.6232 8.5999Z" fill="black"/>
</svg>
