<svg width="17" height="17" viewBox="0 0 17 17" fill="none" xmlns="http://www.w3.org/2000/svg">
<path fill-rule="evenodd" clip-rule="evenodd" d="M5.83725 6.78345C6.22188 6.78345 6.53368 7.10742 6.53368 7.50706V8.41159C6.53368 8.81123 6.22188 9.13521 5.83725 9.13521C5.45263 9.13521 5.14082 8.81123 5.14082 8.41159V7.50706C5.14082 7.10742 5.45263 6.78345 5.83725 6.78345ZM8.73904 6.78345C9.12366 6.78345 9.43546 7.10742 9.43546 7.50706V8.41159C9.43546 8.81123 9.12366 9.13521 8.73904 9.13521C8.35441 9.13521 8.04261 8.81123 8.04261 8.41159V7.50706C8.04261 7.10742 8.35441 6.78345 8.73904 6.78345ZM11.6408 6.78345C12.0254 6.78345 12.3372 7.10742 12.3372 7.50706V8.41159C12.3372 8.81123 12.0254 9.13521 11.6408 9.13521C11.2562 9.13521 10.9444 8.81123 10.9444 8.41159V7.50706C10.9444 7.10742 11.2562 6.78345 11.6408 6.78345Z" fill="black"/>
<path d="M5.83725 6.78345C6.22188 6.78345 6.53368 7.10742 6.53368 7.50706V8.41159C6.53368 8.81123 6.22188 9.13521 5.83725 9.13521C5.45263 9.13521 5.14082 8.81123 5.14082 8.41159V7.50706C5.14082 7.10742 5.45263 6.78345 5.83725 6.78345Z" fill="black"/>
<path d="M8.73904 6.78345C9.12366 6.78345 9.43546 7.10742 9.43546 7.50706V8.41159C9.43546 8.81123 9.12366 9.13521 8.73904 9.13521C8.35441 9.13521 8.04261 8.81123 8.04261 8.41159V7.50706C8.04261 7.10742 8.35441 6.78345 8.73904 6.78345Z" fill="black"/>
<path d="M11.6408 6.78345C12.0254 6.78345 12.3372 7.10742 12.3372 7.50706V8.41159C12.3372 8.81123 12.0254 9.13521 11.6408 9.13521C11.2562 9.13521 10.9444 8.81123 10.9444 8.41159V7.50706C10.9444 7.10742 11.2562 6.78345 11.6408 6.78345Z" fill="black"/>
<path fill-rule="evenodd" clip-rule="evenodd" d="M1.84351 3.41861C1.84351 3.01861 2.15531 2.69434 2.53993 2.69434H14.9381C15.3228 2.69434 15.6346 3.01861 15.6346 3.41861V12.4611C15.6346 12.8612 15.3228 13.1854 14.9381 13.1854H8.82117L6.06643 14.6179C5.85054 14.7301 5.59416 14.7181 5.38884 14.5862C5.18352 14.4542 5.05855 14.2211 5.05855 13.9701V13.1854H2.53993C2.15531 13.1854 1.84351 12.8612 1.84351 12.4611L1.84351 3.41861ZM6.45141 12.7982L8.34531 12.0135C8.44201 11.9632 8.54864 11.9371 8.65676 11.9371H14.2417C14.3522 11.9371 14.4417 11.8475 14.4417 11.7371V4.14271C14.4417 4.03225 14.3522 3.94271 14.2417 3.94271H3.23636C3.12591 3.94271 3.03636 4.03225 3.03636 4.14271L3.03636 11.7371C3.03636 11.8475 3.12591 11.9371 3.23636 11.9371L5.75498 11.9371C6.1396 11.9371 6.45141 12.0611 6.45141 12.4611V12.7982Z" fill="black"/>
</svg>
