<svg width="16" height="16" viewBox="0 0 16 16" fill="none" xmlns="http://www.w3.org/2000/svg">
<path d="M9.77445 9.24306L9.77457 11.9573C9.77458 12.2887 9.50597 12.5574 9.17459 12.5574C8.84322 12.5574 8.57458 12.2888 8.57457 11.9574L8.57439 7.79509C8.57438 7.46372 8.84299 7.19508 9.17436 7.19507C9.3281 7.19493 9.48196 7.25351 9.59925 7.3708L11.3465 9.11808C11.5808 9.3524 11.5808 9.7323 11.3465 9.96661C11.1122 10.2009 10.7323 10.2009 10.498 9.96661L9.77445 9.24306Z" fill="black"/>
<path d="M6.22584 10.5094L6.22572 7.79514C6.22571 7.46377 6.49433 7.19513 6.8257 7.19512C7.15707 7.1951 7.42571 7.46372 7.42572 7.79509L7.4259 11.9574C7.42592 12.2888 7.1573 12.5574 6.82593 12.5574C6.67228 12.5575 6.51828 12.4989 6.40104 12.3817L4.65376 10.6344C4.41945 10.4001 4.41945 10.0202 4.65376 9.78588C4.88808 9.55156 5.26798 9.55156 5.50229 9.78588L6.22584 10.5094Z" fill="black"/>
<path fill-rule="evenodd" clip-rule="evenodd" d="M1.14014 3.73989C1.14014 2.30396 2.3042 1.13989 3.74014 1.13989H12.2601C13.6961 1.13989 14.8601 2.30395 14.8601 3.73989V12.2599C14.8601 13.6958 13.6961 14.8599 12.2601 14.8599H3.74014C2.3042 14.8599 1.14014 13.6958 1.14014 12.2599V3.73989ZM2.34014 5.86724V12.2599C2.34014 13.0331 2.96694 13.6599 3.74014 13.6599H12.2601C13.0333 13.6599 13.6601 13.0331 13.6601 12.2599V5.86724H2.34014ZM13.6601 4.66724H2.34014V3.73989C2.34014 2.9667 2.96694 2.33989 3.74014 2.33989H12.2601C13.0333 2.33989 13.6601 2.96669 13.6601 3.73989V4.66724Z" fill="black"/>
</svg>
