<svg width="16" height="16" viewBox="0 0 16 16" fill="none" xmlns="http://www.w3.org/2000/svg">
<path d="M8 0.866961C5.018 0.866961 2 1.78296 2 3.53363V12.3675C2 14.1182 5.018 15.0342 8 15.0342C10.982 15.0342 14 14.1182 14 12.3675V3.53363C14 1.78296 10.982 0.866961 8 0.866961ZM12.6667 12.3675C12.6667 12.7542 11.0313 13.7008 8 13.7008C4.96867 13.7008 3.33333 12.7542 3.33333 12.3675V9.86434C4.49067 10.4797 6.24933 10.7977 8 10.7977C9.75067 10.7977 11.5093 10.4797 12.6667 9.86434V12.3675ZM12.6667 8.131C12.6667 8.51767 11.0313 9.46434 8 9.46434C4.96867 9.46434 3.33333 8.51767 3.33333 8.131L3.33333 5.26696C4.49067 5.88229 6.24933 6.20029 8 6.20029C9.75067 6.20029 11.5093 5.88229 12.6667 5.26696V8.131ZM8 4.86696C4.96867 4.86696 3.33333 3.92029 3.33333 3.53363C3.33333 3.14696 4.96867 2.20029 8 2.20029C11.0313 2.20029 12.6667 3.14696 12.6667 3.53363C12.6667 3.92029 11.0313 4.86696 8 4.86696Z" fill="black"/>
</svg>
