<svg width="16" height="16" viewBox="0 0 16 16" fill="none" xmlns="http://www.w3.org/2000/svg">
<path d="M5.3313 1.4667C5.3313 1.13533 5.59993 0.866699 5.9313 0.866699H10.069C10.4004 0.866699 10.669 1.13533 10.669 1.4667C10.669 1.79807 10.4004 2.0667 10.069 2.0667H5.9313C5.59993 2.0667 5.3313 1.79807 5.3313 1.4667Z" fill="black"/>
<path d="M1.09985 3.64443C1.09985 3.31306 1.36848 3.04443 1.69985 3.04443H14.2999C14.6312 3.04443 14.8999 3.31306 14.8999 3.64443C14.8999 3.9758 14.6312 4.24443 14.2999 4.24443H1.69985C1.36848 4.24443 1.09985 3.9758 1.09985 3.64443Z" fill="black"/>
<path fill-rule="evenodd" clip-rule="evenodd" d="M4.75332 5.22217C3.86966 5.22217 3.15332 5.93851 3.15332 6.82217V13.1332C3.15332 14.2377 4.04875 15.1332 5.15332 15.1332H10.8465C11.9511 15.1332 12.8465 14.2377 12.8465 13.1331V6.82217C12.8465 5.93851 12.1302 5.22217 11.2465 5.22217H4.75332ZM4.35332 6.82217C4.35332 6.60125 4.53241 6.42217 4.75332 6.42217H11.2465C11.4674 6.42217 11.6465 6.60125 11.6465 6.82217V13.1331C11.6465 13.575 11.2884 13.9331 10.8465 13.9331H5.15332C4.71149 13.9331 4.35332 13.575 4.35332 13.1332V6.82217Z" fill="black"/>
</svg>
