<svg width="16" height="16" viewBox="0 0 16 16" fill="none" xmlns="http://www.w3.org/2000/svg">
<path fill-rule="evenodd" clip-rule="evenodd" d="M15 8C15 11.866 11.866 15 8 15C4.13401 15 1 11.866 1 8C1 4.13401 4.13401 1 8 1C11.866 1 15 4.13401 15 8ZM10.3097 5.69014C10.544 5.92445 10.544 6.30435 10.3097 6.53867L8.84843 7.9999L10.3099 9.46137C10.5442 9.69569 10.5442 10.0756 10.3099 10.3099C10.0756 10.5442 9.69569 10.5442 9.46137 10.3099L7.9999 8.84843L6.53842 10.3099C6.30411 10.5442 5.92421 10.5442 5.6899 10.3099C5.45558 10.0756 5.45558 9.69569 5.6899 9.46137L7.15137 7.9999L5.69014 6.53867C5.45583 6.30435 5.45583 5.92445 5.69014 5.69014C5.92445 5.45583 6.30435 5.45583 6.53867 5.69014L7.9999 7.15137L9.46113 5.69014C9.69544 5.45583 10.0753 5.45583 10.3097 5.69014Z" fill="black"/>
</svg>
