<svg width="16" height="16" viewBox="0 0 16 16" fill="none" xmlns="http://www.w3.org/2000/svg">
<path fill-rule="evenodd" clip-rule="evenodd" d="M1.9064 3.20024C1.57503 3.20024 1.3064 2.93161 1.3064 2.60024C1.3064 2.26887 1.57503 2.00024 1.9064 2.00024H4.57306C4.90443 2.00024 5.17306 2.26887 5.17306 2.60024C5.17306 2.93161 4.90443 3.20024 4.57306 3.20024H1.9064ZM1.3064 6.19985C1.3064 6.53122 1.57503 6.79985 1.9064 6.79985H5.9064C6.23777 6.79985 6.5064 6.53122 6.5064 6.19985C6.5064 5.86848 6.23777 5.59985 5.9064 5.59985H1.9064C1.57503 5.59985 1.3064 5.86848 1.3064 6.19985ZM1.9064 10.3997C1.57503 10.3997 1.3064 10.1311 1.3064 9.79971C1.3064 9.46834 1.57503 9.19971 1.9064 9.19971H7.23973C7.5711 9.19971 7.83973 9.46834 7.83973 9.79971C7.83973 10.1311 7.5711 10.3997 7.23973 10.3997H1.9064ZM1.9064 13.9996C1.57503 13.9996 1.3064 13.7309 1.3064 13.3996C1.3064 13.0682 1.57503 12.7996 1.9064 12.7996H8.57306C8.90443 12.7996 9.17306 13.0682 9.17306 13.3996C9.17306 13.7309 8.90443 13.9996 8.57306 13.9996H1.9064Z" fill="black"/>
<path d="M12.4267 14.2667C12.4267 14.5981 12.1581 14.8667 11.8267 14.8667C11.4953 14.8667 11.2267 14.5981 11.2267 14.2667V3.18198L9.98447 4.42422C9.75015 4.65853 9.37026 4.65853 9.13594 4.42422C8.90163 4.1899 8.90163 3.81 9.13594 3.57569L11.4026 1.30902C11.6369 1.07471 12.0168 1.07471 12.2511 1.30902L14.5178 3.57569C14.7521 3.81 14.7521 4.1899 14.5178 4.42422C14.2835 4.65853 13.9036 4.65853 13.6693 4.42422L12.4267 3.18165V14.2667Z" fill="black"/>
</svg>
