<svg width="16" height="16" viewBox="0 0 16 16" fill="none" xmlns="http://www.w3.org/2000/svg">
<path fill-rule="evenodd" clip-rule="evenodd" d="M1.9064 12.7998C1.57503 12.7998 1.3064 13.0684 1.3064 13.3998C1.3064 13.7311 1.57503 13.9998 1.9064 13.9998H4.57306C4.90443 13.9998 5.17306 13.7311 5.17306 13.3998C5.17306 13.0684 4.90443 12.7998 4.57306 12.7998H1.9064ZM1.3064 9.80015C1.3064 9.46878 1.57503 9.20015 1.9064 9.20015H5.9064C6.23777 9.20015 6.5064 9.46878 6.5064 9.80015C6.5064 10.1315 6.23777 10.4001 5.9064 10.4001H1.9064C1.57503 10.4001 1.3064 10.1315 1.3064 9.80015ZM1.9064 5.60029C1.57503 5.60029 1.3064 5.86892 1.3064 6.20029C1.3064 6.53166 1.57503 6.80029 1.9064 6.80029H7.23973C7.5711 6.80029 7.83973 6.53166 7.83973 6.20029C7.83973 5.86892 7.5711 5.60029 7.23973 5.60029H1.9064ZM1.9064 2.00044C1.57503 2.00044 1.3064 2.26907 1.3064 2.60044C1.3064 2.93181 1.57503 3.20044 1.9064 3.20044H8.57306C8.90443 3.20044 9.17306 2.93181 9.17306 2.60044C9.17306 2.26907 8.90443 2.00044 8.57306 2.00044H1.9064Z" fill="black"/>
<path d="M12.4267 1.7333C12.4267 1.40193 12.1581 1.1333 11.8267 1.1333C11.4953 1.1333 11.2267 1.40193 11.2267 1.7333V12.818L9.98447 11.5758C9.75015 11.3415 9.37026 11.3415 9.13594 11.5758C8.90163 11.8101 8.90163 12.19 9.13594 12.4243L11.4026 14.691C11.6369 14.9253 12.0168 14.9253 12.2511 14.691L14.5178 12.4243C14.7521 12.19 14.7521 11.8101 14.5178 11.5758C14.2835 11.3415 13.9036 11.3415 13.6693 11.5758L12.4267 12.8183V1.7333Z" fill="black"/>
</svg>
