<svg width="16" height="16" viewBox="0 0 16 16" fill="none" xmlns="http://www.w3.org/2000/svg">
<path fill-rule="evenodd" clip-rule="evenodd" d="M0.571533 12.0016V4.69797C0.571533 3.37249 1.64605 2.29797 2.97153 2.29797H5.00397C5.90947 2.29797 6.77882 2.65328 7.42511 3.2875C7.84704 3.70155 8.4146 3.93351 9.00576 3.93351H11.6938C12.8536 3.93351 13.7938 4.87372 13.7938 6.03351V6.83533H13.8982C15.064 6.83533 15.8384 8.04207 15.3527 9.10188L13.6724 12.7686C13.4118 13.3374 12.8435 13.702 12.2179 13.702H2.17045C1.20587 13.702 0.515561 12.8793 0.571533 12.0016ZM1.77153 4.69797C1.77153 4.03523 2.30879 3.49797 2.97153 3.49797H5.00397C5.59513 3.49797 6.16269 3.72993 6.58462 4.14399C7.23091 4.77821 8.10026 5.13351 9.00576 5.13351H11.6938C12.1909 5.13351 12.5938 5.53646 12.5938 6.03351V6.83533H4.64069C3.6604 6.83533 2.76344 7.38669 2.32081 8.26136L1.77153 9.34679V4.69797ZM1.77153 12.1373V12.0664C1.77594 12.0179 1.78952 11.9689 1.81355 11.9214L3.39152 8.80319C3.62986 8.33222 4.11284 8.03533 4.64069 8.03533H13.8982C14.1896 8.03533 14.3832 8.33701 14.2618 8.60197L12.5815 12.2687C12.5164 12.4109 12.3743 12.502 12.2179 12.502H2.17045C1.95161 12.502 1.78924 12.3326 1.77153 12.1373Z" fill="black"/>
</svg>
