<svg width="16" height="16" viewBox="0 0 16 16" fill="none" xmlns="http://www.w3.org/2000/svg">
<path fill-rule="evenodd" clip-rule="evenodd" d="M1.14014 3.73989C1.14014 2.30396 2.3042 1.13989 3.74014 1.13989H12.2601C12.3218 1.13989 12.383 1.14204 12.4436 1.14627C12.5406 1.13479 12.6397 1.14699 12.7315 1.18252C13.9424 1.4043 14.8601 2.46492 14.8601 3.73989V12.2599C14.8601 13.6905 13.7047 14.8513 12.2761 14.8598L12.2572 14.8599L3.74014 14.8599C2.3042 14.8599 1.14014 13.6958 1.14014 12.2599V3.73989ZM12.2677 13.6599L12.2601 13.6599H7.99297L7.99256 8.10687C7.99254 7.88594 8.17163 7.70684 8.39256 7.70684H13.6572V12.2599C13.6572 13.0296 13.0361 13.6542 12.2677 13.6599ZM8.39256 6.50684H9.82177L13.4929 3.07581C13.3217 2.75868 13.0317 2.51513 12.6826 2.40475L8.25499 6.51267C8.30033 6.50881 8.34621 6.50684 8.39256 6.50684ZM13.6601 4.56202L11.5792 6.50684H13.6601V4.56202ZM6.81297 7.85057C6.79953 7.93405 6.79255 8.01969 6.79256 8.10696L6.79265 9.36615L2.72441 13.2234C2.48625 12.9724 2.34014 12.6332 2.34014 12.2599V12.0005L6.81297 7.85057ZM4.00811 13.6599H6.79297L6.79277 11.0197L4.00811 13.6599ZM9.57168 2.33989H10.9882L2.34014 10.3635V8.8534L9.57168 2.33989ZM7.77864 2.33989L2.34014 7.2384V5.61425L6.28159 2.33989H7.77864ZM4.40368 2.33989L2.34014 4.05418V3.73989C2.34014 2.9667 2.96694 2.33989 3.74014 2.33989H4.40368Z" fill="black"/>
</svg>
