<svg width="17" height="16" viewBox="0 0 17 16" fill="none" xmlns="http://www.w3.org/2000/svg">
<g clip-path="url(#clip0_1293_28)">
<path fill-rule="evenodd" clip-rule="evenodd" d="M6.29541 11.1896C3.83208 10.7489 1.9624 8.59552 1.9624 6.00544C1.9624 3.09673 4.32036 0.73877 7.22907 0.73877C9.93483 0.73877 12.164 2.77918 12.4619 5.40527H13.5621C14.998 5.40527 16.1621 6.56933 16.1621 8.00527V12.6719C16.1621 14.1079 14.998 15.2719 13.5621 15.2719H8.89541C7.45947 15.2719 6.29541 14.1079 6.29541 12.6719V11.1896ZM3.1624 6.00544C3.1624 3.75947 4.98311 1.93877 7.22907 1.93877C9.27112 1.93877 10.9616 3.44388 11.2518 5.40527H8.89541C7.45947 5.40527 6.29541 6.56933 6.29541 8.00527V9.96442C4.49946 9.5425 3.1624 7.93012 3.1624 6.00544ZM7.49541 8.00527C7.49541 7.23207 8.12221 6.60527 8.89541 6.60527H13.5621C14.3353 6.60527 14.9621 7.23207 14.9621 8.00527V12.6719C14.9621 13.4451 14.3353 14.0719 13.5621 14.0719H8.89541C8.12221 14.0719 7.49541 13.4451 7.49541 12.6719V8.00527Z" fill="black"/>
</g>
<defs>
<clipPath id="clip0_1293_28">
<rect width="16" height="16" fill="white" transform="translate(0.895508 0.00537109)"/>
</clipPath>
</defs>
</svg>
