<svg width="16" height="16" viewBox="0 0 16 16" fill="none" xmlns="http://www.w3.org/2000/svg">
<path fill-rule="evenodd" clip-rule="evenodd" d="M3.33333 3.33333V6H6V3.33333H3.33333ZM2 3.238C2 2.55427 2.55427 2 3.238 2H6.09533C6.77906 2 7.33333 2.55427 7.33333 3.238V6.09533C7.33333 6.77906 6.77906 7.33333 6.09533 7.33333H3.238C2.55427 7.33333 2 6.77906 2 6.09533V3.238ZM10 3.33333V6H12.6667V3.33333H10ZM8.66667 3.238C8.66667 2.55427 9.22094 2 9.90467 2H12.762C13.4457 2 14 2.55427 14 3.238V6.09533C14 6.77906 13.4457 7.33333 12.762 7.33333H9.90467C9.22094 7.33333 8.66667 6.77906 8.66667 6.09533V3.238ZM3.33333 10V12.6667H6V10H3.33333ZM2 9.90467C2 9.22094 2.55427 8.66667 3.238 8.66667H6.09533C6.77906 8.66667 7.33333 9.22094 7.33333 9.90467V12.762C7.33333 13.4457 6.77906 14 6.09533 14H3.238C2.55427 14 2 13.4457 2 12.762V9.90467ZM10 10V12.6667H12.6667V10H10ZM8.66667 9.90467C8.66667 9.22094 9.22094 8.66667 9.90467 8.66667H12.762C13.4457 8.66667 14 9.22094 14 9.90467V12.762C14 13.4457 13.4457 14 12.762 14H9.90467C9.22094 14 8.66667 13.4457 8.66667 12.762V9.90467Z" fill="black"/>
</svg>
