<svg width="16" height="16" viewBox="0 0 16 16" fill="none" xmlns="http://www.w3.org/2000/svg">
<path d="M2.5999 2.66689C2.5999 2.33552 2.33127 2.06689 1.9999 2.06689C1.66853 2.06689 1.3999 2.33552 1.3999 2.66689V13.3336C1.3999 13.6649 1.66853 13.9336 1.9999 13.9336C2.33127 13.9336 2.5999 13.6649 2.5999 13.3336V8.5999H7.3999V13.3336C7.3999 13.6649 7.66853 13.9336 7.9999 13.9336C8.33127 13.9336 8.5999 13.6649 8.5999 13.3336V2.66689C8.5999 2.33552 8.33127 2.06689 7.9999 2.06689C7.66853 2.06689 7.3999 2.33552 7.3999 2.66689V7.3999H2.5999V2.66689Z" fill="black"/>
<path d="M11.2667 8.33356C11.2667 7.67245 11.8201 7.26689 12.3333 7.26689C12.8465 7.26689 13.4 7.67244 13.4 8.33356C13.4 8.62807 13.2712 8.94814 12.9954 9.32391C12.7183 9.70153 12.3394 10.0744 11.9174 10.4803L11.8355 10.559C11.4524 10.9268 11.0365 11.3263 10.7149 11.7373C10.3718 12.1759 10.0667 12.7122 10.0667 13.3336C10.0667 13.6649 10.3353 13.9336 10.6667 13.9336H14C14.3314 13.9336 14.6 13.6649 14.6 13.3336C14.6 13.0022 14.3314 12.7336 14 12.7336H11.4782C11.5286 12.6531 11.5889 12.5676 11.6601 12.4767C11.9269 12.1355 12.2843 11.792 12.6877 11.4043L12.7492 11.3452C13.1606 10.9496 13.615 10.5079 13.9629 10.0338C14.3122 9.55787 14.6 8.98906 14.6 8.33356C14.6 6.88362 13.3757 6.06689 12.3333 6.06689C11.291 6.06689 10.0667 6.88361 10.0667 8.33356C10.0667 8.66493 10.3353 8.93356 10.6667 8.93356C10.998 8.93356 11.2667 8.66493 11.2667 8.33356Z" fill="black"/>
</svg>
