<svg width="16" height="16" viewBox="0 0 16 16" fill="none" xmlns="http://www.w3.org/2000/svg">
<path d="M2.4334 2.66689C2.4334 2.33552 2.16477 2.06689 1.8334 2.06689C1.50203 2.06689 1.2334 2.33552 1.2334 2.66689V13.3336C1.2334 13.6649 1.50203 13.9336 1.8334 13.9336C2.16477 13.9336 2.4334 13.6649 2.4334 13.3336V8.5999H7.2334V13.3336C7.2334 13.6649 7.50203 13.9336 7.8334 13.9336C8.16477 13.9336 8.4334 13.6649 8.4334 13.3336V2.66689C8.4334 2.33552 8.16477 2.06689 7.8334 2.06689C7.50203 2.06689 7.2334 2.33552 7.2334 2.66689V7.3999H2.4334V2.66689Z" fill="black"/>
<path fill-rule="evenodd" clip-rule="evenodd" d="M13.7591 6.66645C13.7591 6.40387 13.5884 6.1718 13.3377 6.09364C13.087 6.01549 12.8147 6.10941 12.6654 6.32546L9.67321 10.6577C9.60398 10.7579 9.56689 10.8769 9.56689 10.9987V11.6731C9.56689 12.0045 9.83552 12.2731 10.1669 12.2731H12.5591V13.3331C12.5591 13.6645 12.8278 13.9331 13.1591 13.9331C13.4905 13.9331 13.7591 13.6645 13.7591 13.3331V12.2731H14.1669C14.4983 12.2731 14.7669 12.0045 14.7669 11.6731C14.7669 11.3417 14.4983 11.0731 14.1669 11.0731H13.7591V6.66645ZM12.5591 8.59091V11.0731H10.8447L12.5591 8.59091Z" fill="black"/>
</svg>
