<svg width="20" height="20" viewBox="0 0 20 20" fill="none" xmlns="http://www.w3.org/2000/svg">
<path d="M9.93793 2.79677C11.3594 1.65977 12.9862 1.36194 14.1528 1.94521C14.751 2.24442 15.2123 2.78447 15.3266 3.49892C15.4382 4.19755 15.1946 4.90729 14.7202 5.53993C14.5789 5.72827 14.522 5.8579 14.5004 5.93251C14.4901 5.96839 14.488 5.99108 14.4877 6.00185C14.4875 6.01184 14.4881 6.01698 14.4887 6.01942C14.4912 6.02851 14.5278 6.13335 14.7954 6.3036C15.0526 6.46733 15.3971 6.61116 15.7905 6.75771C16.1321 6.88498 16.5953 7.04147 16.9028 7.19521C17.5102 7.49898 18.1898 7.99193 18.6176 8.84755C19.0445 9.70134 19.159 10.7931 18.8823 12.1767C18.7701 12.7376 18.732 13.242 18.7123 13.7099C18.6941 14.1439 18.6912 14.6502 18.645 15.0595C18.5958 15.4945 18.4859 15.9851 18.1635 16.4237C17.8337 16.8724 17.3602 17.1615 16.7846 17.3534C16.1153 17.5765 15.3331 17.5303 14.6371 17.4306C13.9209 17.3279 13.1355 17.1409 12.4272 16.9823C11.6924 16.8178 11.0346 16.6817 10.4789 16.6395C9.89292 16.5951 9.61189 16.674 9.49945 16.7489C8.58259 17.3602 7.7238 17.5577 6.7768 17.3856C5.93404 17.2324 5.05307 16.7826 4.09711 16.3046C3.39193 15.9519 2.95891 15.4344 2.71625 14.8104C2.49416 14.2394 2.44441 13.6059 2.41352 13.0497C2.34845 11.8783 2.34573 10.7042 1.69477 9.40224C1.25215 8.51663 1.53182 7.47818 1.89789 6.78017C2.09599 6.40253 2.35773 6.04448 2.66449 5.75575C2.96389 5.47405 3.35811 5.21019 3.82367 5.11708C5.05798 4.87022 5.50357 4.7809 5.80024 4.73524C6.0719 4.69345 6.30087 4.68072 6.88813 4.60731C7.88715 4.48244 8.05401 4.39758 8.22602 4.27431C8.35794 4.1797 8.49508 4.05192 8.78363 3.78798C9.05678 3.53813 9.41666 3.21378 9.93793 2.79677ZM13.3471 3.55458C13.0134 3.38809 12.1399 3.34064 11.062 4.20302C10.5839 4.58551 10.2564 4.88016 9.99848 5.1161C9.75606 5.33784 9.51682 5.56406 9.27387 5.73817C8.69604 6.15213 8.11243 6.26836 7.11176 6.39345C6.36616 6.48665 6.34434 6.47306 6.07465 6.51454C5.82966 6.55223 5.4412 6.62971 4.17621 6.88271C4.15095 6.88789 4.04916 6.92397 3.89789 7.0663C3.75375 7.20198 3.60828 7.39378 3.49164 7.6161C3.2279 8.11898 3.24796 8.48323 3.30512 8.59755C4.15407 10.2955 4.15145 11.8716 4.21137 12.9501C4.24297 13.5189 4.28795 13.8854 4.39399 14.1581C4.47939 14.3777 4.60828 14.548 4.90277 14.6952C5.94633 15.217 6.566 15.5173 7.09809 15.6142C7.52594 15.6919 7.91745 15.6395 8.50043 15.2509C9.13808 14.8258 9.94083 14.7935 10.6147 14.8446C11.3189 14.898 12.0979 15.0646 12.8207 15.2265C13.5704 15.3943 14.2645 15.5583 14.892 15.6483C15.5399 15.7412 15.9669 15.7291 16.2153 15.6464C16.5572 15.5324 16.668 15.419 16.7133 15.3573C16.766 15.2856 16.8229 15.158 16.8569 14.8573C16.8937 14.5306 16.8904 14.1821 16.9135 13.6337C16.9352 13.1191 16.9799 12.512 17.1176 11.8231C17.3408 10.707 17.2053 10.0484 17.0073 9.65224C16.8101 9.25817 16.4895 9.00077 16.0971 8.80458C15.9046 8.70842 15.6173 8.61461 15.1625 8.44521C14.7593 8.29497 14.2596 8.09577 13.8295 7.82216C13.4114 7.5561 12.9155 7.1294 12.7455 6.46571C12.5665 5.76593 12.8148 5.07976 13.2797 4.45985C13.5547 4.09319 13.5624 3.86578 13.5493 3.7831C13.5386 3.71641 13.4987 3.6304 13.3471 3.55458Z" fill="black"/>
<path d="M7.5 9C8 9.5 8.5 9.16667 9 10C9.5 10.8333 9.5 12 9.5 12.5C9.5 13 8.5 13 8 13.5C7.5 14 7 13.5 6.5 13L6 12.5C5.55 12.05 5.5 11 5.5 10C5.5 9 7 8.5 7.5 9Z" fill="black"/>
<path d="M11.5 6.5C12.0605 7.94953 12 8.16666 12.5 8.99999C13 9.83332 15.5 10 15.5 10.5C15.5 11 16 13 15 14C14 15 13 13.5 12 13.5C11 13.5 10.45 9.95001 9.99999 9.50001C9.54999 9.05001 9.5 8.99999 9.5 7.99999C9.5 6.99999 10.9395 5.05046 11.5 6.5Z" fill="black"/>
</svg>
