<svg width="16" height="16" viewBox="0 0 16 16" fill="none" xmlns="http://www.w3.org/2000/svg">
<path fill-rule="evenodd" clip-rule="evenodd" d="M0.811013 7.27739C0.533711 7.51821 0.50413 7.93822 0.744942 8.21552C0.985753 8.49283 1.40577 8.52241 1.68307 8.28159L1.89249 8.09973V13.0201C1.89249 13.9397 2.63793 14.6851 3.55749 14.6851H5.32136C6.24091 14.6851 6.98636 13.9397 6.98636 13.0201V9.84218C6.98636 9.65717 7.13634 9.50718 7.32136 9.50718H8.67823C8.86325 9.50718 9.01323 9.65716 9.01323 9.84218V13.0201C9.01323 13.9397 9.75868 14.6851 10.6782 14.6851H12.4421C13.3617 14.6851 14.1071 13.9397 14.1071 13.0201V8.09963L14.3165 8.28148C14.5938 8.52229 15.0138 8.49271 15.2546 8.21541C15.4954 7.93811 15.4659 7.51809 15.1886 7.27728L8.567 1.52707C8.24167 1.24456 7.75801 1.24455 7.43267 1.52708L0.811013 7.27739ZM12.7771 6.94465L7.99984 2.79605L3.22249 6.94475V13.0201C3.22249 13.2051 3.37247 13.3551 3.55749 13.3551H5.32136C5.50637 13.3551 5.65636 13.2051 5.65636 13.0201V9.84218C5.65636 8.92263 6.4018 8.17718 7.32136 8.17718H8.67823C9.59779 8.17718 10.3432 8.92263 10.3432 9.84218V13.0201C10.3432 13.2051 10.4932 13.3551 10.6782 13.3551H12.4421C12.6271 13.3551 12.7771 13.2051 12.7771 13.0201V6.94465Z" fill="black"/>
</svg>
