<svg width="17" height="17" viewBox="0 0 17 17" fill="none" xmlns="http://www.w3.org/2000/svg">
<mask id="mask0_436_43" style="mask-type:alpha" maskUnits="userSpaceOnUse" x="0" y="0" width="17" height="17">
<rect x="0.332397" y="0.717773" width="16" height="16" fill="#D9D9D9"/>
</mask>
<g mask="url(#mask0_436_43)">
<path d="M2.33875 3.57255L2.23657 3.79614L2.72883 4.0211L7.58275 14.6428L8.67419 14.144L5.10931 6.34311L13.5649 14.7987L14.4134 13.9502L5.96172 5.49847L13.7573 9.0609L14.2561 7.96947L3.63438 3.11555L3.40942 2.62329L3.18782 2.72456L3.09973 2.63647L2.93861 2.7976L2.73534 2.70471L2.60444 2.99116L2.31799 3.12206L2.41088 3.32533L2.2512 3.485L2.33875 3.57255Z" fill="black"/>
<path fill-rule="evenodd" clip-rule="evenodd" d="M1.6759 12.8102L1.6759 14.1743C1.6759 14.8371 2.21316 15.3743 2.8759 15.3743L4.24003 15.3743L4.24003 14.0443L3.0059 14.0443L3.0059 12.8102L1.6759 12.8102ZM4.24003 2.06128L2.8759 2.06128C2.21316 2.06128 1.6759 2.59854 1.6759 3.26128L1.6759 4.62541L3.0059 4.62541L3.0059 3.39128L4.24003 3.39128L4.24003 2.06128ZM1.6759 10.0819L3.0059 10.0819L3.0059 7.35367L1.6759 7.35367L1.6759 10.0819ZM6.96829 2.06128L6.96829 3.39128L9.69655 3.39128L9.69655 2.06128L6.96829 2.06128ZM12.4248 2.06128L12.4248 3.39128L13.6589 3.39128L13.6589 4.62541L14.9889 4.62541L14.9889 3.26128C14.9889 2.59854 14.4517 2.06128 13.7889 2.06128L12.4248 2.06128ZM14.9889 7.35367L13.6589 7.35367L13.6589 10.0819L14.9889 10.0819L14.9889 7.35367ZM14.9889 12.8102L13.6589 12.8102L13.6589 14.0443L12.4248 14.0443L12.4248 15.3743L13.7889 15.3743C14.4517 15.3743 14.9889 14.8371 14.9889 14.1743L14.9889 12.8102ZM9.69655 15.3743L9.69655 14.0443L6.96829 14.0443L6.96829 15.3743L9.69655 15.3743Z" fill="#E5E5E5"/>
</g>
</svg>
