<svg width="16" height="16" viewBox="0 0 16 16" fill="none" xmlns="http://www.w3.org/2000/svg">
<path fill-rule="evenodd" clip-rule="evenodd" d="M8.6707 7.03525C9.0573 7.03525 9.3707 6.72185 9.3707 6.33525C9.3707 5.94866 9.0573 5.63525 8.6707 5.63525C8.28411 5.63525 7.9707 5.94866 7.9707 6.33525C7.9707 6.72185 8.28411 7.03525 8.6707 7.03525Z" fill="black"/>
<path fill-rule="evenodd" clip-rule="evenodd" d="M8.671 12.2842C8.33963 12.2842 8.071 12.0156 8.071 11.6842L8.071 8.20615C8.071 7.87478 8.33962 7.60615 8.671 7.60615C9.00237 7.60615 9.271 7.87478 9.271 8.20615L9.271 11.6842C9.271 12.0156 9.00237 12.2842 8.671 12.2842Z" fill="black"/>
<path fill-rule="evenodd" clip-rule="evenodd" d="M13.5105 9.62735C13.5105 9.09992 13.0091 8.71683 12.5002 8.8555L12.1671 8.94628C11.7319 9.06486 11.43 9.46007 11.43 9.9111V11.6842C11.43 12.0156 11.1614 12.2842 10.83 12.2842C10.4986 12.2842 10.23 12.0156 10.23 11.6842V9.9111C10.23 8.91884 10.8942 8.04938 11.8516 7.7885L12.1847 7.69771C13.4569 7.35104 14.7105 8.30878 14.7105 9.62735V11.6842C14.7105 12.0156 14.4419 12.2842 14.1105 12.2842C13.7792 12.2842 13.5105 12.0156 13.5105 11.6842V9.62735Z" fill="black"/>
<path fill-rule="evenodd" clip-rule="evenodd" d="M10.8377 7.66644C11.169 7.66642 11.4377 7.93503 11.4377 8.2664L11.438 11.6841C11.438 12.0155 11.1694 12.2841 10.838 12.2842C10.5066 12.2842 10.238 12.0156 10.238 11.6842L10.2377 8.26649C10.2377 7.93512 10.5063 7.66647 10.8377 7.66644Z" fill="black"/>
<path fill-rule="evenodd" clip-rule="evenodd" d="M5.91043 8.23408V11.684C5.91043 12.0154 6.17906 12.284 6.51043 12.284C6.84181 12.284 7.11043 12.0154 7.11043 11.684V5.62174C7.11043 4.70597 5.82111 4.50856 5.54709 5.38237L4.19976 9.67881L2.85241 5.38235C2.58604 4.53293 1.28906 4.67865 1.28906 5.61997V11.684C1.28906 12.0154 1.55769 12.284 1.88906 12.284C2.22043 12.284 2.48906 12.0154 2.48906 11.684V8.23404L3.43641 11.255C3.67082 12.0025 4.7287 12.0025 4.9631 11.255L5.91043 8.23408Z" fill="black"/>
</svg>
