<svg width="16" height="16" viewBox="0 0 16 16" fill="none" xmlns="http://www.w3.org/2000/svg">
<path fill-rule="evenodd" clip-rule="evenodd" d="M1.25 13.036C1.25 12.1523 1.96634 11.436 2.85 11.436H13.15C14.0337 11.436 14.75 12.1523 14.75 13.036C14.75 13.9196 14.0337 14.636 13.15 14.636H2.85C1.96635 14.636 1.25 13.9196 1.25 13.036ZM2.85 12.636C2.62909 12.636 2.45 12.8151 2.45 13.036C2.45 13.2569 2.62909 13.436 2.85 13.436H13.15C13.3709 13.436 13.55 13.2569 13.55 13.036C13.55 12.8151 13.3709 12.636 13.15 12.636H2.85Z" fill="black"/>
<path d="M5.57564 4.38825C5.80995 4.62256 6.18985 4.62256 6.42417 4.38825L7.3999 3.41251V9.63049C7.3999 9.96186 7.66853 10.2305 7.9999 10.2305C8.33127 10.2305 8.5999 9.96186 8.5999 9.63049V3.41251L9.57564 4.38825C9.80995 4.62256 10.1899 4.62256 10.4242 4.38825C10.6585 4.15393 10.6585 3.77403 10.4242 3.53972L8.4324 1.54796C8.32324 1.43445 8.16982 1.36382 7.9999 1.36382C7.82998 1.36382 7.67655 1.43446 7.56739 1.54797L5.57564 3.53972C5.34132 3.77403 5.34132 4.15393 5.57564 4.38825Z" fill="black"/>
</svg>
