<svg width="16" height="17" viewBox="0 0 16 17" fill="none" xmlns="http://www.w3.org/2000/svg">
<path d="M2.5999 2.88223C2.5999 2.55086 2.33127 2.28223 1.9999 2.28223C1.66853 2.28223 1.3999 2.55086 1.3999 2.88223V12.5996C1.3999 14.0356 2.56396 15.1996 3.9999 15.1996H13.9999C14.3313 15.1996 14.5999 14.931 14.5999 14.5996C14.5999 14.2683 14.3313 13.9996 13.9999 13.9996H3.9999C3.2267 13.9996 2.5999 13.3728 2.5999 12.5996V2.88223Z" fill="black"/>
<path d="M5.19874 8.12481C5.19874 8.46503 4.92295 8.74083 4.58272 8.74083C4.2425 8.74083 3.96671 8.46503 3.96671 8.12481C3.96671 7.78458 4.2425 7.50879 4.58272 7.50879C4.92295 7.50879 5.19874 7.78458 5.19874 8.12481Z" fill="black"/>
<path d="M12.2923 9.34608C12.7459 9.34608 13.1136 8.97834 13.1136 8.52473C13.1136 8.07111 12.7459 7.70337 12.2923 7.70337C11.8387 7.70337 11.4709 8.07111 11.4709 8.52473C11.4709 8.97834 11.8387 9.34608 12.2923 9.34608Z" fill="black"/>
<path d="M9.62856 3.6871C9.62856 4.25412 9.16889 4.71379 8.60186 4.71379C8.03484 4.71379 7.57516 4.25412 7.57516 3.6871C7.57516 3.12007 8.03484 2.6604 8.60186 2.6604C9.16889 2.6604 9.62856 3.12007 9.62856 3.6871Z" fill="black"/>
<path d="M9.43728 12.9515C9.7775 12.9515 10.0533 12.6757 10.0533 12.3355C10.0533 11.9953 9.7775 11.7195 9.43728 11.7195C9.09705 11.7195 8.82126 11.9953 8.82126 12.3355C8.82126 12.6757 9.09705 12.9515 9.43728 12.9515Z" fill="black"/>
<path d="M14.0492 5.286C14.3429 5.13259 14.4567 4.77012 14.3032 4.4764C14.1498 4.18268 13.7874 4.06894 13.4936 4.22235L8.41786 6.87348C8.28294 6.94395 8.17985 7.06307 8.12946 7.2067L6.68157 11.3341L4.68624 9.71803C4.42874 9.50947 4.05092 9.54914 3.84236 9.80665C3.63379 10.0642 3.67347 10.442 3.93097 10.6505L6.58816 12.8027C6.73982 12.9255 6.94173 12.9669 7.12949 12.9137C7.31724 12.8604 7.46737 12.7192 7.53197 12.5351L9.18339 7.82746L14.0492 5.286Z" fill="black"/>
</svg>
