<svg width="16" height="16" viewBox="0 0 16 16" fill="none" xmlns="http://www.w3.org/2000/svg">
<path d="M7.1349 1.3999C6.80353 1.3999 6.5349 1.66853 6.5349 1.9999C6.5349 2.33127 6.80353 2.5999 7.1349 2.5999H7.67993V4.55065C7.67993 4.88203 7.94856 5.15065 8.27993 5.15065C8.6113 5.15065 8.87993 4.88203 8.87993 4.55065V2.5999H9.4049C9.73627 2.5999 10.0049 2.33127 10.0049 1.9999C10.0049 1.66853 9.73627 1.3999 9.4049 1.3999H7.1349Z" fill="black"/>
<path d="M2.5999 7.1349C2.5999 6.80353 2.33127 6.5349 1.9999 6.5349C1.66853 6.5349 1.3999 6.80353 1.3999 7.1349V9.4049C1.3999 9.73627 1.66853 10.0049 1.9999 10.0049C2.33127 10.0049 2.5999 9.73627 2.5999 9.4049V8.86968H4.54992C4.88129 8.86968 5.14992 8.60105 5.14992 8.26968C5.14992 7.93831 4.88129 7.66968 4.54992 7.66968H2.5999V7.1349Z" fill="black"/>
<path d="M15.1399 7.1349C15.1399 6.80353 14.8713 6.5349 14.5399 6.5349C14.2085 6.5349 13.9399 6.80353 13.9399 7.1349V7.66968H12.0099C11.6786 7.66968 11.4099 7.93831 11.4099 8.26968C11.4099 8.60105 11.6786 8.86968 12.0099 8.86968H13.9399V9.4049C13.9399 9.73627 14.2085 10.0049 14.5399 10.0049C14.8713 10.0049 15.1399 9.73627 15.1399 9.4049V8.27463L15.1399 8.26968L15.1399 8.26472V7.1349Z" fill="black"/>
<path d="M7.1349 13.9399C6.80353 13.9399 6.5349 14.2085 6.5349 14.5399C6.5349 14.8713 6.80353 15.1399 7.1349 15.1399H8.24962C8.25966 15.1404 8.26977 15.1407 8.27993 15.1407C8.2901 15.1407 8.3002 15.1404 8.31024 15.1399H9.4049C9.73627 15.1399 10.0049 14.8713 10.0049 14.5399C10.0049 14.2085 9.73627 13.9399 9.4049 13.9399H8.87993V12.0107C8.87993 11.6793 8.6113 11.4107 8.27993 11.4107C7.94856 11.4107 7.67993 11.6793 7.67993 12.0107V13.9399H7.1349Z" fill="black"/>
<path d="M2.60991 4.00967C2.60991 3.23647 3.23671 2.60967 4.00991 2.60967H4.33991C4.67128 2.60967 4.93991 2.34104 4.93991 2.00967C4.93991 1.6783 4.67128 1.40967 4.33991 1.40967H4.00991C2.57397 1.40967 1.40991 2.57373 1.40991 4.00967V4.33967C1.40991 4.67104 1.67854 4.93967 2.00991 4.93967C2.34128 4.93967 2.60991 4.67104 2.60991 4.33967V4.00967Z" fill="black"/>
<path d="M12.1999 1.40967C11.8685 1.40967 11.5999 1.6783 11.5999 2.00967C11.5999 2.34104 11.8685 2.60967 12.1999 2.60967H12.5299C13.3031 2.60967 13.9299 3.23647 13.9299 4.00967V4.33967C13.9299 4.67104 14.1985 4.93967 14.5299 4.93967C14.8613 4.93967 15.1299 4.67104 15.1299 4.33967V4.00967C15.1299 2.57373 13.9659 1.40967 12.5299 1.40967H12.1999Z" fill="black"/>
<path d="M2.60991 12.1997C2.60991 11.8683 2.34128 11.5997 2.00991 11.5997C1.67854 11.5997 1.40991 11.8683 1.40991 12.1997V12.5297C1.40991 13.9656 2.57397 15.1297 4.00991 15.1297H4.33991C4.67128 15.1297 4.93991 14.861 4.93991 14.5297C4.93991 14.1983 4.67128 13.9297 4.33991 13.9297H4.00991C3.23671 13.9297 2.60991 13.3029 2.60991 12.5297V12.1997Z" fill="black"/>
<path d="M15.1299 12.1997C15.1299 11.8683 14.8613 11.5997 14.5299 11.5997C14.1985 11.5997 13.9299 11.8683 13.9299 12.1997V12.5297C13.9299 13.3029 13.3031 13.9297 12.5299 13.9297H12.1999C11.8685 13.9297 11.5999 14.1983 11.5999 14.5297C11.5999 14.861 11.8685 15.1297 12.1999 15.1297H12.5299C13.9659 15.1297 15.1299 13.9656 15.1299 12.5297V12.1997Z" fill="black"/>
</svg>
