<svg width="16" height="16" viewBox="0 0 16 16" fill="none" xmlns="http://www.w3.org/2000/svg">
<path fill-rule="evenodd" clip-rule="evenodd" d="M6.671 2.24246C7.1197 1.01814 8.85129 1.01814 9.3 2.24246L11.8919 9.31458C12.0059 9.62571 11.8461 9.97038 11.535 10.0844C11.2238 10.1984 10.8792 10.0386 10.7652 9.72751L9.74324 6.93913H6.29183C6.2706 6.93913 6.24962 6.93802 6.22895 6.93587L5.20584 9.72751C5.09181 10.0386 4.74715 10.1984 4.43601 10.0844C4.12488 9.97038 3.96509 9.62571 4.07912 9.31458L6.671 2.24246ZM8.17328 2.6554L9.30345 5.73913H6.66755L7.79771 2.6554C7.86181 2.48049 8.10918 2.48049 8.17328 2.6554Z" fill="black"/>
<path d="M1.9999 11.4246C1.66853 11.4246 1.3999 11.6933 1.3999 12.0246C1.3999 12.356 1.66853 12.6246 1.9999 12.6246H13.1675L12.1436 13.7558C11.9212 14.0015 11.9401 14.3809 12.1858 14.6033C12.4314 14.8257 12.8109 14.8068 13.0332 14.5611L14.3597 13.0957C14.9416 12.4528 14.4854 11.4246 13.6183 11.4246H1.9999Z" fill="black"/>
</svg>
