<svg width="16" height="16" viewBox="0 0 16 16" fill="none" xmlns="http://www.w3.org/2000/svg">
<path d="M5.65252 5.41446C5.86681 5.53124 6.00016 5.75579 6.00016 5.99984V9.99984C6.00016 10.368 5.70168 10.6665 5.3335 10.6665C4.96531 10.6665 4.66683 10.368 4.66683 9.99984V7.22312L4.36151 7.42005C4.05209 7.61961 3.63948 7.53056 3.43992 7.22115C3.24035 6.91173 3.3294 6.49912 3.63882 6.29956L4.97215 5.43959C5.17724 5.30731 5.43822 5.29767 5.65252 5.41446Z" fill="black"/>
<path d="M12.3335 5.99984C12.3335 5.75579 12.2001 5.53124 11.9858 5.41446C11.7716 5.29767 11.5106 5.30731 11.3055 5.43959L9.97215 6.29956C9.66274 6.49912 9.57368 6.91173 9.77325 7.22115C9.97281 7.53056 10.3854 7.61961 10.6948 7.42005L11.0002 7.22312V9.99984C11.0002 10.368 11.2986 10.6665 11.6668 10.6665C12.035 10.6665 12.3335 10.368 12.3335 9.99984V5.99984Z" fill="black"/>
<path d="M8.00008 5.99984C8.36827 5.99984 8.66675 6.29831 8.66675 6.6665V6.99984C8.66675 7.36803 8.36827 7.6665 8.00008 7.6665C7.63189 7.6665 7.33341 7.36803 7.33341 6.99984V6.6665C7.33341 6.29831 7.63189 5.99984 8.00008 5.99984Z" fill="black"/>
<path d="M8.66675 8.99984C8.66675 8.63165 8.36827 8.33317 8.00008 8.33317C7.63189 8.33317 7.33341 8.63165 7.33341 8.99984V9.33317C7.33341 9.70136 7.63189 9.99984 8.00008 9.99984C8.36827 9.99984 8.66675 9.70136 8.66675 9.33317V8.99984Z" fill="black"/>
<path fill-rule="evenodd" clip-rule="evenodd" d="M0.666748 2.99984C0.666748 2.26346 1.2637 1.6665 2.00008 1.6665H14.0001C14.7365 1.6665 15.3334 2.26346 15.3334 2.99984V12.9998C15.3334 13.7362 14.7365 14.3332 14.0001 14.3332H2.00008C1.26371 14.3332 0.666748 13.7362 0.666748 12.9998V2.99984ZM14.0001 2.99984H2.00008V12.9998H14.0001V2.99984Z" fill="black"/>
</svg>
