<svg width="16" height="16" viewBox="0 0 16 16" fill="none" xmlns="http://www.w3.org/2000/svg">
<path d="M12.666 2.70571C11.7769 1.76476 10.3295 1.76476 9.4404 2.70571L3.37843 9.12427C3.31779 9.18848 3.27756 9.26409 3.24979 9.3439C3.24809 9.3493 3.24299 9.3529 3.24129 9.3583L2.02912 13.2097C1.96112 13.4251 2.01439 13.6633 2.16626 13.8236C2.27393 13.9382 2.41901 14 2.56692 14C2.62699 14 2.68762 13.9898 2.74599 13.9688L6.3825 12.6846C6.3876 12.6828 6.391 12.678 6.39553 12.6762C6.47147 12.6474 6.54287 12.6042 6.60351 12.54L12.666 6.12202C13.5558 5.18048 13.5558 3.64725 12.666 2.70571ZM8.62832 5.26209L9.04031 5.69836C9.03918 5.69956 9.03748 5.70016 9.03634 5.70136L4.99182 9.9836L4.58096 9.54853L8.62832 5.26209ZM3.46287 12.4512L4.02673 10.6593L5.15446 11.8535L3.46287 12.4512ZM6.20342 11.2672L5.79256 10.8321L9.83709 6.54988C9.83822 6.54868 9.83879 6.54688 9.83992 6.54568L10.2513 6.98135L6.20342 11.2672ZM11.8647 5.27349L11.0532 6.13282L9.42963 4.41356L10.2411 3.55423C10.6888 3.08016 11.417 3.08076 11.8642 3.55423C12.3124 4.0283 12.3124 4.79942 11.8647 5.27349Z" fill="black"/>
</svg>
