<svg width="16" height="16" viewBox="0 0 16 16" fill="none" xmlns="http://www.w3.org/2000/svg">
<path fill-rule="evenodd" clip-rule="evenodd" d="M3.35928 2.57764C3.61338 1.77872 4.36128 1.19995 5.24437 1.19995C6.12746 1.19995 6.87537 1.77872 7.12947 2.57764H11.7885C13.4928 2.57764 14.7999 3.8461 14.7997 5.5888C14.7995 7.33129 13.4929 8.59984 11.7885 8.59984H6.63121L6.6224 8.5999H4.21143C3.16019 8.5999 2.4001 9.34071 2.4002 10.4109C2.40029 11.4814 3.16029 12.2221 4.21143 12.2221H8.87045C9.12449 11.4231 9.87245 10.8442 10.7556 10.8442C11.6388 10.8442 12.3868 11.4231 12.6408 12.2222H14.1999C14.5312 12.2222 14.7999 12.4908 14.7999 12.8222C14.7999 13.1535 14.5312 13.4222 14.1999 13.4222H12.6407C12.3866 14.221 11.6387 14.7998 10.7556 14.7998C9.87252 14.7998 9.12461 14.221 8.87051 13.4221H4.21143C2.50701 13.4221 1.20035 12.1536 1.2002 10.4111C1.20004 8.66836 2.50712 7.3999 4.21143 7.3999H6.61326L6.62208 7.39984H11.7885C12.8396 7.39984 13.5996 6.65912 13.5997 5.58868C13.5998 4.51844 12.8397 3.77764 11.7885 3.77764H7.12952C6.87548 4.57664 6.12753 5.1555 5.24437 5.1555C4.36122 5.1555 3.61327 4.57664 3.35922 3.77764H1.8002C1.46882 3.77764 1.2002 3.50901 1.2002 3.17764C1.2002 2.84627 1.46882 2.57764 1.8002 2.57764H3.35928ZM4.46671 3.16449C4.47377 2.74105 4.81924 2.39995 5.24437 2.39995C5.67026 2.39995 6.0162 2.74226 6.02207 3.16675L6.02197 3.17764L6.02207 3.1886C6.01625 3.61314 5.67029 3.95549 5.24437 3.95549C4.81921 3.95549 4.47372 3.61435 4.46671 3.19085L4.46685 3.17764L4.46671 3.16449ZM9.97788 12.8307C9.98254 13.2562 10.329 13.5998 10.7556 13.5998C11.1815 13.5998 11.5274 13.2575 11.5333 12.8331C11.5332 12.8294 11.5332 12.8258 11.5332 12.8222C11.5332 12.8185 11.5332 12.8148 11.5333 12.8111C11.5275 12.3866 11.1815 12.0442 10.7556 12.0442C10.3289 12.0442 9.98248 12.3878 9.97788 12.8134C9.97792 12.8163 9.97794 12.8192 9.97794 12.8221C9.97794 12.825 9.97792 12.8278 9.97788 12.8307Z" fill="black"/>
</svg>
