<svg width="16" height="16" viewBox="0 0 16 16" fill="none" xmlns="http://www.w3.org/2000/svg">
<g clip-path="url(#clip0_1644_119)">
<path fill-rule="evenodd" clip-rule="evenodd" d="M9.28587 1.36401L14.5119 5.18269C15.2865 5.74867 15.6051 6.75546 15.2983 7.66757L13.3158 13.5609C13.0152 14.4544 12.1817 15.0558 11.2437 15.0558H4.7565C3.81855 15.0558 2.98498 14.4544 2.6844 13.5609L0.701952 7.66757C0.395129 6.75546 0.713731 5.74867 1.48829 5.18269L6.71434 1.36401C7.48102 0.803793 8.51919 0.803794 9.28587 1.36401ZM8.58455 2.33483C8.23605 2.08019 7.76416 2.08019 7.41567 2.33483L2.18962 6.15351C1.83755 6.41077 1.69273 6.86841 1.83219 7.283L3.81464 13.1763C3.95127 13.5825 4.33016 13.8558 4.7565 13.8558H11.2437C11.6701 13.8558 12.0489 13.5825 12.1856 13.1763L14.168 7.283C14.3075 6.86841 14.1627 6.41077 13.8106 6.15351L8.58455 2.33483Z" fill="black"/>
<path fill-rule="evenodd" clip-rule="evenodd" d="M9.28601 5.04477L11.0759 6.35267C11.8505 6.91864 12.1691 7.92544 11.8623 8.83754L11.1923 10.8292C10.8917 11.7227 10.0582 12.3241 9.1202 12.3241H6.88028C5.94232 12.3241 5.10876 11.7227 4.80817 10.8292L4.13821 8.83754C3.83139 7.92544 4.14999 6.91864 4.92455 6.35267L6.71447 5.04477C7.48116 4.48455 8.51932 4.48455 9.28601 5.04477ZM8.58468 6.01559C8.23619 5.76095 7.76429 5.76095 7.4158 6.01559L5.62588 7.32349C5.27381 7.58075 5.12899 8.03838 5.26845 8.45298L5.93841 10.4446C6.07504 10.8508 6.45394 11.1241 6.88028 11.1241H9.1202C9.54655 11.1241 9.92544 10.8508 10.0621 10.4446L10.732 8.45298C10.8715 8.03838 10.7267 7.58075 10.3746 7.32349L8.58468 6.01559Z" fill="black"/>
<path d="M7.41577 7.61551C7.76427 7.36087 8.23616 7.36087 8.58465 7.61551L8.85725 7.8147C9.20932 8.07196 9.35414 8.52959 9.21467 8.94419L9.12428 9.2129C8.98765 9.61906 8.60876 9.89242 8.18242 9.89242H7.81801C7.39167 9.89242 7.01278 9.61906 6.87615 9.2129L6.78576 8.94419C6.64629 8.52959 6.79111 8.07196 7.14318 7.8147L7.41577 7.61551Z" fill="black"/>
</g>
<defs>
<clipPath id="clip0_1644_119">
<rect width="16" height="16" fill="white"/>
</clipPath>
</defs>
</svg>
