<svg width="16" height="16" viewBox="0 0 16 16" fill="none" xmlns="http://www.w3.org/2000/svg">
<path d="M11.273 2.72206C11.0214 2.50641 10.9922 2.12763 11.2079 1.87603C11.4235 1.62444 11.8023 1.59531 12.0539 1.81097L14.3833 3.80761C14.5134 3.91733 14.5962 4.08137 14.5967 4.26477L14.5967 4.2665C14.5967 4.41745 14.541 4.55538 14.4489 4.66083C14.44 4.67109 14.4307 4.68108 14.421 4.69077L12.0877 7.02411C11.8534 7.25842 11.4735 7.25843 11.2392 7.02412C11.0049 6.78981 11.0049 6.40991 11.2392 6.17559L12.5482 4.8665H6.63324C4.40569 4.8665 2.5999 6.67229 2.5999 8.89984C2.5999 11.1274 4.40569 12.9332 6.63324 12.9332H11.9972C12.3286 12.9332 12.5972 13.2018 12.5972 13.5332C12.5972 13.8645 12.3286 14.1332 11.9972 14.1332H6.63324C3.74295 14.1332 1.3999 11.7901 1.3999 8.89984C1.3999 6.00955 3.74295 3.6665 6.63324 3.6665H12.3748L11.273 2.72206Z" fill="black"/>
</svg>
