<svg width="17" height="17" viewBox="0 0 17 17" fill="none" xmlns="http://www.w3.org/2000/svg">
<path fill-rule="evenodd" clip-rule="evenodd" d="M8.6106 15.4036C12.4766 15.4036 15.6106 12.2696 15.6106 8.40356C15.6106 4.53757 12.4766 1.40356 8.6106 1.40356C4.7446 1.40356 1.6106 4.53757 1.6106 8.40356C1.6106 12.2696 4.7446 15.4036 8.6106 15.4036ZM12.3351 6.82773C12.5694 6.59342 12.5694 6.21352 12.3351 5.9792C12.1007 5.74489 11.7208 5.74489 11.4865 5.9792L7.91079 9.55494L6.33506 7.9792C6.10074 7.74489 5.72084 7.74489 5.48653 7.9792C5.25221 8.21352 5.25221 8.59342 5.48653 8.82773L7.48653 10.8277C7.72084 11.062 8.10074 11.062 8.33506 10.8277L12.3351 6.82773Z" fill="black"/>
</svg>
