<svg width="16" height="16" viewBox="0 0 16 16" fill="none" xmlns="http://www.w3.org/2000/svg">
<path d="M1.9999 1.89941C1.66853 1.89941 1.3999 2.16804 1.3999 2.49941C1.3999 2.83078 1.66853 3.09941 1.9999 3.09941H13.9999C14.3313 3.09941 14.5999 2.83078 14.5999 2.49941C14.5999 2.16804 14.3313 1.89941 13.9999 1.89941H1.9999Z" fill="black"/>
<path d="M4.66665 5.56641C4.33528 5.56641 4.06665 5.83504 4.06665 6.16641C4.06665 6.49778 4.33528 6.76641 4.66665 6.76641H14C14.3314 6.76641 14.6 6.49778 14.6 6.16641C14.6 5.83504 14.3314 5.56641 14 5.56641H4.66665Z" fill="black"/>
<path d="M1.3999 9.8334C1.3999 9.50203 1.66853 9.2334 1.9999 9.2334H13.9999C14.3313 9.2334 14.5999 9.50203 14.5999 9.8334C14.5999 10.1648 14.3313 10.4334 13.9999 10.4334H1.9999C1.66853 10.4334 1.3999 10.1648 1.3999 9.8334Z" fill="black"/>
<path d="M4.66665 12.9004C4.33528 12.9004 4.06665 13.169 4.06665 13.5004C4.06665 13.8318 4.33528 14.1004 4.66665 14.1004H14C14.3314 14.1004 14.6 13.8318 14.6 13.5004C14.6 13.169 14.3314 12.9004 14 12.9004H4.66665Z" fill="black"/>
</svg>
