<svg width="16" height="16" viewBox="0 0 16 16" fill="none" xmlns="http://www.w3.org/2000/svg">
<path d="M4.66628 8.66683C5.03447 8.66683 5.33294 8.36835 5.33294 8.00016C5.33294 7.63197 5.03447 7.3335 4.66628 7.3335C4.29809 7.3335 3.99961 7.63197 3.99961 8.00016C3.99961 8.36835 4.29809 8.66683 4.66628 8.66683Z" fill="black"/>
<path d="M5.99935 10.0002C5.99935 10.3684 5.70087 10.6668 5.33268 10.6668C4.96449 10.6668 4.66602 10.3684 4.66602 10.0002C4.66602 9.63197 4.96449 9.3335 5.33268 9.3335C5.70087 9.3335 5.99935 9.63197 5.99935 10.0002Z" fill="black"/>
<path d="M3.33268 10.6668C3.70087 10.6668 3.99935 10.3684 3.99935 10.0002C3.99935 9.63197 3.70087 9.3335 3.33268 9.3335C2.96449 9.3335 2.66602 9.63197 2.66602 10.0002C2.66602 10.3684 2.96449 10.6668 3.33268 10.6668Z" fill="black"/>
<path d="M7.33294 8.00016C7.33294 8.36835 7.03447 8.66683 6.66628 8.66683C6.29809 8.66683 5.99961 8.36835 5.99961 8.00016C5.99961 7.63197 6.29809 7.3335 6.66628 7.3335C7.03447 7.3335 7.33294 7.63197 7.33294 8.00016Z" fill="black"/>
<path d="M7.33268 10.6668C7.70087 10.6668 7.99935 10.3684 7.99935 10.0002C7.99935 9.63197 7.70087 9.3335 7.33268 9.3335C6.96449 9.3335 6.66602 9.63197 6.66602 10.0002C6.66602 10.3684 6.96449 10.6668 7.33268 10.6668Z" fill="black"/>
<path d="M9.33294 8.00016C9.33294 8.36835 9.03447 8.66683 8.66628 8.66683C8.29809 8.66683 7.99961 8.36835 7.99961 8.00016C7.99961 7.63197 8.29809 7.3335 8.66628 7.3335C9.03447 7.3335 9.33294 7.63197 9.33294 8.00016Z" fill="black"/>
<path d="M9.33268 10.6668C9.70087 10.6668 9.99935 10.3684 9.99935 10.0002C9.99935 9.63197 9.70087 9.3335 9.33268 9.3335C8.96449 9.3335 8.66602 9.63197 8.66602 10.0002C8.66602 10.3684 8.96449 10.6668 9.33268 10.6668Z" fill="black"/>
<path d="M11.3329 8.00016C11.3329 8.36835 11.0345 8.66683 10.6663 8.66683C10.2981 8.66683 9.99961 8.36835 9.99961 8.00016C9.99961 7.63197 10.2981 7.3335 10.6663 7.3335C11.0345 7.3335 11.3329 7.63197 11.3329 8.00016Z" fill="black"/>
<path d="M11.3327 10.6668C11.7009 10.6668 11.9993 10.3684 11.9993 10.0002C11.9993 9.63197 11.7009 9.3335 11.3327 9.3335C10.9645 9.3335 10.666 9.63197 10.666 10.0002C10.666 10.3684 10.9645 10.6668 11.3327 10.6668Z" fill="black"/>
<path d="M13.3329 8.00016C13.3329 8.36835 13.0345 8.66683 12.6663 8.66683C12.2981 8.66683 11.9996 8.36835 11.9996 8.00016C11.9996 7.63197 12.2981 7.3335 12.6663 7.3335C13.0345 7.3335 13.3329 7.63197 13.3329 8.00016Z" fill="black"/>
<path d="M4.99961 12.0002C4.99961 11.632 5.29809 11.3335 5.66628 11.3335H10.3329C10.7011 11.3335 10.9996 11.632 10.9996 12.0002C10.9996 12.3684 10.7011 12.6668 10.3329 12.6668H5.66628C5.29809 12.6668 4.99961 12.3684 4.99961 12.0002Z" fill="black"/>
<path fill-rule="evenodd" clip-rule="evenodd" d="M13.9999 2.00016C13.9999 1.63197 13.7014 1.3335 13.3332 1.3335C12.965 1.3335 12.6665 1.63197 12.6665 2.00016V3.37516H11.3332C10.7809 3.37516 10.3332 3.82287 10.3332 4.37516V5.3335H1.99935C1.26297 5.3335 0.666016 5.93045 0.666016 6.66683V13.3335C0.666016 14.0699 1.26297 14.6668 1.99935 14.6668H13.9993C14.7357 14.6668 15.3327 14.0699 15.3327 13.3335V6.66683C15.3327 5.93045 14.7357 5.3335 13.9993 5.3335H11.6665V4.7085H12.9999C13.5522 4.7085 13.9999 4.26079 13.9999 3.7085V2.00016ZM1.99935 6.66683V13.3335H13.9993V6.66683H1.99935Z" fill="black"/>
</svg>
