<svg width="16" height="17" viewBox="0 0 16 17" fill="none" xmlns="http://www.w3.org/2000/svg">
<path d="M12.5935 3.47302C11.6354 2.51492 10.082 2.51492 9.12388 3.47302L7.83534 4.76157C7.60102 4.99588 7.22112 4.99588 6.98681 4.76157C6.75249 4.52725 6.75249 4.14735 6.98681 3.91304L8.27535 2.62449C9.70209 1.19776 12.0153 1.19776 13.442 2.62449C14.8688 4.05123 14.8688 6.36442 13.442 7.79116L12.1535 9.0797C11.9192 9.31402 11.5393 9.31402 11.3049 9.0797C11.0706 8.84539 11.0706 8.46549 11.3049 8.23117L12.5935 6.94263C13.5516 5.98452 13.5516 4.43113 12.5935 3.47302Z" fill="black"/>
<path d="M3.40637 12.6606C2.44827 11.7025 2.44827 10.1491 3.40637 9.19102L4.69492 7.90248C4.92923 7.66816 4.92923 7.28826 4.69492 7.05395C4.4606 6.81963 4.0807 6.81963 3.84639 7.05395L2.55784 8.34249C1.13111 9.76923 1.13111 12.0824 2.55784 13.5092C3.98458 14.9359 6.29777 14.9359 7.72451 13.5092L9.01305 12.2206C9.24737 11.9863 9.24737 11.6064 9.01305 11.3721C8.77874 11.1378 8.39884 11.1378 8.16452 11.3721L6.87598 12.6606C5.91787 13.6187 4.36448 13.6187 3.40637 12.6606Z" fill="black"/>
<path d="M3.5852 2.80332C3.35088 2.569 2.97098 2.569 2.73667 2.80332C2.50235 3.03763 2.50235 3.41753 2.73667 3.65185L12.4151 13.3302C12.6494 13.5646 13.0293 13.5646 13.2636 13.3302C13.4979 13.0959 13.4979 12.716 13.2636 12.4817L3.5852 2.80332Z" fill="black"/>
</svg>
