<svg width="16" height="16" viewBox="0 0 16 16" fill="none" xmlns="http://www.w3.org/2000/svg">
<path d="M7.9999 0.733398C8.33127 0.733398 8.5999 1.00203 8.5999 1.3334V4.55137L9.57564 3.57564C9.80995 3.34132 10.1899 3.34132 10.4242 3.57564C10.6585 3.80995 10.6585 4.18985 10.4242 4.42417L8.42417 6.42417C8.18985 6.65848 7.80995 6.65848 7.57564 6.42417L5.57564 4.42417C5.34132 4.18985 5.34132 3.80995 5.57564 3.57564C5.80995 3.34132 6.18985 3.34132 6.42417 3.57564L7.3999 4.55137V1.3334C7.3999 1.00203 7.66853 0.733398 7.9999 0.733398Z" fill="black"/>
<path d="M5.57564 11.5756L7.57564 9.57564C7.80995 9.34132 8.18985 9.34132 8.42417 9.57564L10.4242 11.5756C10.6585 11.81 10.6585 12.1899 10.4242 12.4242C10.1899 12.6585 9.80995 12.6585 9.57564 12.4242L8.5999 11.4484V14.6665C8.5999 14.9979 8.33127 15.2665 7.9999 15.2665C7.66853 15.2665 7.3999 14.9979 7.3999 14.6665V11.4484L6.42417 12.4242C6.18985 12.6585 5.80995 12.6585 5.57564 12.4242C5.34132 12.1899 5.34132 11.81 5.57564 11.5756Z" fill="black"/>
<path d="M1.9999 7.40015C1.66853 7.40015 1.3999 7.66878 1.3999 8.00015C1.3999 8.33152 1.66853 8.60015 1.9999 8.60015H13.9999C14.3313 8.60015 14.5999 8.33152 14.5999 8.00015C14.5999 7.66878 14.3313 7.40015 13.9999 7.40015H1.9999Z" fill="black"/>
</svg>
