<svg width="16" height="16" viewBox="0 0 16 16" fill="none" xmlns="http://www.w3.org/2000/svg">
<path d="M4.55504 2.73208C4.55504 2.40071 4.28641 2.13208 3.95504 2.13208C3.62367 2.13208 3.35504 2.40071 3.35504 2.73208V12.5172L2.21439 11.5276C1.96409 11.3104 1.58515 11.3373 1.36799 11.5876C1.15084 11.8379 1.17771 12.2169 1.42801 12.434L2.89972 13.7108C3.54718 14.2726 4.55504 13.8127 4.55504 12.9555L4.55504 2.73208Z" fill="black"/>
<path fill-rule="evenodd" clip-rule="evenodd" d="M9.00725 4.01095C9.45595 2.78663 11.1875 2.78662 11.6362 4.01095L14.743 12.488C14.8571 12.7992 14.6973 13.1438 14.3861 13.2578C14.075 13.3719 13.7303 13.2121 13.6163 12.9009L12.4148 9.62242H8.36729C8.32154 9.62242 8.27699 9.6173 8.23417 9.6076L7.02719 12.9009C6.91316 13.2121 6.5685 13.3719 6.25736 13.2578C5.94623 13.1438 5.78644 12.7992 5.90047 12.488L9.00725 4.01095ZM10.5095 4.42388L11.975 8.42242H8.66853L10.134 4.42389C10.1981 4.24898 10.4454 4.24898 10.5095 4.42388Z" fill="black"/>
</svg>
