<svg width="16" height="16" viewBox="0 0 16 16" fill="none" xmlns="http://www.w3.org/2000/svg">
<path fill-rule="evenodd" clip-rule="evenodd" d="M15 8C15 11.866 11.866 15 8 15C4.13401 15 1 11.866 1 8C1 4.13401 4.13401 1 8 1C11.866 1 15 4.13401 15 8ZM8.00008 12.3671C8.46031 12.3671 8.83342 11.994 8.83342 11.5338C8.83342 11.0735 8.46031 10.7004 8.00008 10.7004C7.53985 10.7004 7.16675 11.0735 7.16675 11.5338C7.16675 11.994 7.53985 12.3671 8.00008 12.3671ZM8.5999 4.4335C8.5999 4.10213 8.33127 3.8335 7.9999 3.8335C7.66853 3.8335 7.3999 4.10213 7.3999 4.4335V9.36683C7.3999 9.6982 7.66853 9.96683 7.9999 9.96683C8.33127 9.96683 8.5999 9.6982 8.5999 9.36683V4.4335Z" fill="black"/>
</svg>
