<svg width="16" height="16" viewBox="0 0 16 16" fill="none" xmlns="http://www.w3.org/2000/svg">
<mask id="mask0_176_82" style="mask-type:alpha" maskUnits="userSpaceOnUse" x="0" y="0" width="16" height="16">
<rect x="16" width="16" height="16" transform="rotate(90 16 0)" fill="#D9D9D9"/>
</mask>
<g mask="url(#mask0_176_82)">
<path d="M7.84425 13.276C7.84411 13.6256 7.5606 13.9089 7.211 13.9088L2.729 13.907C2.3796 13.9068 2.09639 13.6236 2.09625 13.2742L2.09454 8.78533C2.09441 8.43573 2.3777 8.15222 2.7273 8.15209C3.07689 8.15196 3.3604 8.43525 3.36054 8.78484L3.36166 11.7431L11.7467 3.35802L8.78851 3.35687C8.43891 3.35674 8.15562 3.07322 8.15575 2.72363C8.15589 2.37403 8.4394 2.09074 8.789 2.09088L13.271 2.09261C13.6204 2.09275 13.9036 2.37596 13.9037 2.72537L13.9055 7.2143C13.9056 7.56389 13.6223 7.84741 13.2727 7.84754C12.9231 7.84768 12.6396 7.56438 12.6395 7.21479L12.6383 4.2568L4.25353 12.6416L7.2115 12.6428C7.5611 12.6429 7.84439 12.9264 7.84425 13.276Z" fill="black"/>
</g>
</svg>
