<svg width="25" height="25" viewBox="0 0 25 25" fill="none" xmlns="http://www.w3.org/2000/svg">
<mask id="mask0_217_24" style="mask-type:alpha" maskUnits="userSpaceOnUse" x="0" y="0" width="25" height="25">
<rect x="0.904297" y="0.356445" width="24" height="24" fill="black"/>
</mask>
<g mask="url(#mask0_217_24)">
<path fill-rule="evenodd" clip-rule="evenodd" d="M17.7366 17.4469L18.195 17.2276C18.1512 17.1938 18.1111 17.1614 18.0731 17.1307C17.9814 17.0567 17.9022 16.9929 17.8153 16.9426C17.7725 16.9181 17.686 16.9499 17.6286 16.9754C16.9449 17.2859 16.2374 17.5272 15.5063 17.6956C14.1924 17.9988 12.8649 18.0762 11.5246 17.9123C10.3355 17.7676 9.19737 17.4471 8.10658 16.9527C8.06106 16.9317 7.98367 16.9399 7.93996 16.9663C7.86368 17.0126 7.793 17.0682 7.71555 17.1292C7.68487 17.1533 7.65304 17.1784 7.61946 17.204C8.14027 17.529 8.6884 17.7676 9.28387 18.0061C9.19259 18.1518 9.10305 18.2963 9.01426 18.4396C8.80899 18.7708 8.60768 19.0956 8.39795 19.4147C8.22084 19.6839 8.20542 19.679 7.90971 19.5846L7.89353 19.5795C6.28922 19.0669 4.81238 18.3029 3.44389 17.3232C3.34646 17.2531 3.30367 17.1739 3.30185 17.0637C3.29704 16.8293 3.28896 16.5947 3.28089 16.3602C3.26301 15.8406 3.24513 15.3211 3.2627 14.803C3.341 12.4174 3.98746 10.1785 5.10192 8.07524C5.32822 7.64872 5.58395 7.23762 5.83966 6.82654C5.94096 6.66371 6.04226 6.50087 6.14171 6.33708C6.16721 6.29611 6.21182 6.25787 6.25644 6.23784C7.43554 5.70883 8.65835 5.31823 9.93124 5.08878C10.1753 5.04507 10.1807 5.04598 10.2945 5.26724C10.412 5.49486 10.5258 5.72522 10.6287 5.96013C10.6715 6.05756 10.727 6.07394 10.8208 6.06575C10.9742 6.05235 11.1275 6.03814 11.281 6.02392C11.7322 5.98208 12.1838 5.94022 12.6363 5.91916C13.3912 5.88547 14.1451 5.9401 14.8926 6.05573C15.0455 6.07941 15.1257 6.04936 15.1876 5.8964C15.2512 5.74109 15.3276 5.59099 15.404 5.44096C15.4513 5.34825 15.4985 5.2555 15.5427 5.16162C15.5855 5.07148 15.6392 5.04143 15.7384 5.05964C17.0468 5.29637 18.3088 5.68425 19.5207 6.23237C19.5771 6.25787 19.6272 6.31523 19.6636 6.36895C21.0212 8.37206 21.9508 10.5482 22.3414 12.9464C22.5062 13.958 22.5709 14.976 22.549 15.9994C22.5445 16.2144 22.5301 16.4287 22.5157 16.6432C22.507 16.7738 22.4982 16.9045 22.4917 17.0355C22.4853 17.1694 22.4352 17.2631 22.3196 17.346C20.9046 18.3521 19.3759 19.1269 17.7161 19.6414C17.615 19.6723 17.5531 19.6669 17.4948 19.5722C17.3162 19.2805 17.1356 18.9898 16.955 18.6991L16.9545 18.6982C16.8342 18.5047 16.714 18.3111 16.5943 18.1172C16.5801 18.0938 16.5701 18.0683 16.5612 18.0455C16.5569 18.0346 16.5529 18.0243 16.5488 18.0152C16.9439 17.826 17.3348 17.639 17.7366 17.4469ZM14.3681 13.0238C14.3709 13.5483 14.5038 13.9535 14.766 14.3177C15.366 15.1526 16.5169 15.2546 17.2499 14.5371C17.9592 13.8433 18.0366 12.5968 17.4201 11.8147C16.832 11.0699 15.8049 10.9415 15.0747 11.5361C14.583 11.9367 14.3809 12.4784 14.3681 13.0238ZM11.0175 11.8402C11.2906 12.2044 11.4254 12.615 11.4226 13.1513C11.4108 13.6375 11.236 14.1401 10.8254 14.5435C10.158 15.1999 9.11815 15.1699 8.48353 14.4788C7.79883 13.7331 7.77152 12.5458 8.4198 11.7692C9.11815 10.9333 10.3637 10.967 11.0175 11.8402Z" fill="black"/>
</g>
</svg>
