<svg width="24" height="25" viewBox="0 0 24 25" fill="none" xmlns="http://www.w3.org/2000/svg">
<mask id="mask0_217_27" style="mask-type:alpha" maskUnits="userSpaceOnUse" x="0" y="0" width="24" height="25">
<rect y="0.356445" width="24" height="24" fill="black"/>
</mask>
<g mask="url(#mask0_217_27)">
<path d="M11.9986 3.35181C6.88351 3.35181 2.73779 7.49848 2.73779 12.6126C2.73779 16.8385 5.56941 20.4036 9.43818 21.5143C9.50408 21.4637 9.54992 21.3834 9.56424 21.2641C9.62918 20.7111 9.58143 20.1448 9.58143 19.5517C9.37133 19.568 9.2319 19.5813 9.09247 19.5899C7.88342 19.6577 6.84722 19.3884 6.25607 18.0925C6.05074 17.6427 5.61525 17.2988 5.28195 16.9082C5.17499 16.7831 5.05752 16.6657 4.82545 16.4183C5.17881 16.3706 5.39751 16.2913 5.59997 16.3219C6.3 16.4269 6.71543 16.9207 7.08693 17.4717C7.72106 18.4133 8.59204 18.3723 9.44104 18.124C9.5184 18.1011 9.59862 18.0103 9.63205 17.932C9.76957 17.6025 9.88894 17.2654 10.0255 16.9035C9.61963 16.8051 9.21948 16.7287 8.83365 16.6103C6.07175 15.7594 4.92191 12.1618 6.65431 9.8354C6.74885 9.70839 6.78992 9.48587 6.75649 9.3302C6.61133 8.66169 6.65431 8.01419 6.85295 7.36382C6.95132 7.04103 7.14614 6.90255 7.45174 7.01811C8.06773 7.25113 8.66652 7.52904 9.28346 7.76016C9.51553 7.84706 9.79439 7.9311 10.0236 7.8824C11.3415 7.60449 12.648 7.56724 13.9678 7.88144C14.2066 7.93874 14.5036 7.84038 14.7509 7.74965C15.3688 7.52236 15.9686 7.2454 16.5865 7.0162C16.8988 6.90064 17.0898 7.05917 17.1786 7.37624C17.36 8.0266 17.4192 8.67602 17.2578 9.34166C17.2273 9.46677 17.2215 9.65204 17.2913 9.73895C18.1279 10.7809 18.2386 11.9584 18.0505 13.2324C17.7764 15.0956 16.6142 16.3543 14.7462 16.7192C14.4921 16.7688 14.239 16.8242 13.9191 16.8901C14.431 17.6092 14.4501 18.3637 14.4291 19.1287C14.4138 19.6978 14.4224 20.2689 14.4214 20.8381C14.4205 21.1791 14.4692 21.3968 14.5876 21.5066C18.443 20.3874 21.2622 16.829 21.2622 12.6126C21.2594 7.49753 17.1136 3.35181 11.9986 3.35181Z" fill="black"/>
</g>
</svg>
