<svg width="25" height="25" viewBox="0 0 25 25" fill="none" xmlns="http://www.w3.org/2000/svg">
<mask id="mask0_217_33" style="mask-type:alpha" maskUnits="userSpaceOnUse" x="0" y="0" width="25" height="25">
<rect x="0.632812" y="0.253906" width="24" height="24" fill="#D9D9D9"/>
</mask>
<g mask="url(#mask0_217_33)">
<path d="M22.6328 5.25391C22.6328 5.53005 22.409 5.75391 22.1328 5.75391H3.13281C2.85667 5.75391 2.63281 5.53005 2.63281 5.25391C2.63281 4.97776 2.85667 4.75391 3.13281 4.75391H22.1328C22.409 4.75391 22.6328 4.97776 22.6328 5.25391Z" fill="black"/>
<path d="M22.6328 12.2539C22.6328 12.53 22.409 12.7539 22.1328 12.7539H3.13281C2.85667 12.7539 2.63281 12.53 2.63281 12.2539C2.63281 11.9778 2.85667 11.7539 3.13281 11.7539H22.1328C22.409 11.7539 22.6328 11.9778 22.6328 12.2539Z" fill="black"/>
<path d="M22.1328 19.7539C22.409 19.7539 22.6328 19.53 22.6328 19.2539C22.6328 18.9778 22.409 18.7539 22.1328 18.7539H3.13281C2.85667 18.7539 2.63281 18.9778 2.63281 19.2539C2.63281 19.53 2.85667 19.7539 3.13281 19.7539H22.1328Z" fill="black"/>
</g>
</svg>
