<svg width="17" height="17" viewBox="0 0 17 17" fill="none" xmlns="http://www.w3.org/2000/svg">
<mask id="mask0_217_40" style="mask-type:alpha" maskUnits="userSpaceOnUse" x="0" y="0" width="17" height="17">
<rect x="0.895508" y="0.09375" width="16" height="16" fill="#D9D9D9"/>
</mask>
<g mask="url(#mask0_217_40)">
<path fill-rule="evenodd" clip-rule="evenodd" d="M2.39551 7.37266C2.39551 4.18105 4.98281 1.59375 8.17441 1.59375C11.366 1.59375 13.9533 4.18105 13.9533 7.37266C13.9533 8.72342 13.4898 9.96603 12.7133 10.95L15.1964 13.4331C15.4619 13.6986 15.4619 14.1291 15.1964 14.3946C14.9309 14.6601 14.5004 14.6601 14.2349 14.3946L11.7518 11.9115C10.7678 12.6881 9.52525 13.1516 8.17441 13.1516C4.98281 13.1516 2.39551 10.5642 2.39551 7.37266ZM8.17441 2.95349C5.73378 2.95349 3.75525 4.93202 3.75525 7.37266C3.75525 9.81333 5.73378 11.7918 8.17441 11.7918C10.6151 11.7918 12.5936 9.81333 12.5936 7.37266C12.5936 4.93202 10.6151 2.95349 8.17441 2.95349Z" fill="black"/>
</g>
</svg>
