<svg width="25" height="25" viewBox="0 0 25 25" fill="none" xmlns="http://www.w3.org/2000/svg">
<mask id="mask0_217_30" style="mask-type:alpha" maskUnits="userSpaceOnUse" x="0" y="0" width="25" height="25">
<rect x="0.808594" y="0.356445" width="24" height="24" fill="black"/>
</mask>
<g mask="url(#mask0_217_30)">
<path fill-rule="evenodd" clip-rule="evenodd" d="M17.275 10.0119C17.2932 10.0828 17.3113 10.1537 17.3326 10.2236C17.3609 10.3164 17.326 10.3356 17.2435 10.3237C16.9976 10.2884 16.75 10.2923 16.5036 10.3027C14.6143 10.3836 12.9473 11.012 11.5846 12.3486C10.7342 13.1824 10.182 14.1899 9.97096 15.3685C9.82829 16.1646 9.87309 16.9547 10.1073 17.7313C10.1531 17.8835 10.1528 17.8847 9.9863 17.8828C9.0419 17.8723 8.12087 17.7245 7.22979 17.4066C7.1677 17.3847 7.12047 17.389 7.06301 17.4253C6.52292 17.7658 5.98137 18.1042 5.43982 18.4426L5.06879 18.6745C5.0424 18.6909 5.0156 18.7064 4.98567 18.7238C4.96989 18.733 4.95281 18.7429 4.93488 18.7534C4.97454 18.5769 5.01381 18.4011 5.05295 18.2258C5.16998 17.7019 5.28589 17.1831 5.4072 16.6657C5.43472 16.5483 5.4206 16.4882 5.31591 16.4132C4.16529 15.591 3.29758 14.5424 2.87322 13.18C2.28574 11.2934 2.63073 9.55116 3.80058 7.97521C4.65173 6.82873 5.78993 6.05792 7.12047 5.56368C7.89785 5.27493 8.70226 5.114 9.53126 5.06896C11.3322 4.97133 13.0077 5.36696 14.5245 6.35519C15.7944 7.18248 16.7159 8.29439 17.1999 9.74544C17.2291 9.83282 17.2521 9.92236 17.275 10.0119ZM6.39202 9.12948C6.3908 9.76955 6.91425 10.2979 7.55213 10.3003C8.19245 10.3027 8.72296 9.77977 8.72612 9.14287C8.72929 8.50158 8.20852 7.97058 7.57185 7.96596C6.92448 7.96133 6.39324 8.48527 6.39202 9.12948ZM12.5123 10.3005C11.8739 10.2981 11.3507 9.77052 11.3517 9.13021C11.3526 8.48624 11.8841 7.96182 12.531 7.9662C13.1679 7.97058 13.6884 8.50134 13.6855 9.14262C13.6826 9.77953 13.1523 10.303 12.5123 10.3005Z" fill="black"/>
<path fill-rule="evenodd" clip-rule="evenodd" d="M21.3012 12.5271C22.1456 13.266 22.7192 14.1734 22.9376 15.2802C23.1535 16.3738 22.9653 17.4098 22.4156 18.3783C21.971 19.1615 21.3509 19.7785 20.5989 20.2664C20.5214 20.3168 20.5022 20.3608 20.5251 20.4497C20.6249 20.8382 20.7217 21.2275 20.8186 21.6169C20.8591 21.7794 20.8995 21.942 20.9402 22.1045C20.9409 22.1074 20.9417 22.1103 20.9424 22.1132C20.9431 22.1155 20.9437 22.1179 20.9444 22.1202C20.9535 22.1536 20.9629 22.1878 20.9446 22.2331L20.8297 22.1551C20.6358 22.0234 20.4437 21.8929 20.2519 21.762L20.0979 21.657C19.7949 21.4505 19.4919 21.244 19.1906 21.0352C19.1415 21.0014 19.102 20.9982 19.0463 21.0165C18.2163 21.2882 17.3637 21.4148 16.4921 21.379C14.9368 21.3155 13.5228 20.8463 12.3145 19.844C11.4813 19.1528 10.8853 18.2953 10.6187 17.2333C10.291 15.9285 10.5223 14.7124 11.259 13.5991C12.0659 12.38 13.2238 11.6316 14.6013 11.2005C15.3836 10.9558 16.1885 10.8525 17.0055 10.8878C18.6168 10.9575 20.0722 11.452 21.3012 12.5271ZM13.9773 14.3769C13.9754 14.851 14.3666 15.2551 14.8307 15.2585C15.3269 15.2622 15.7278 14.8707 15.7276 14.383C15.7276 13.9056 15.3325 13.509 14.8555 13.5078C14.3778 13.5066 13.9793 13.901 13.9773 14.3769ZM18.918 15.2585C18.4544 15.2566 18.0605 14.8527 18.0617 14.3801C18.0629 13.9036 18.4598 13.508 18.9367 13.508C19.4088 13.508 19.812 13.9041 19.812 14.3677C19.8122 14.8697 19.42 15.2607 18.918 15.2585Z" fill="black"/>
</g>
</svg>
