<svg width="16" height="16" viewBox="0 0 16 16" fill="none" xmlns="http://www.w3.org/2000/svg">
<path d="M4.57129 2C4.57129 0.895431 5.216 0 6.01129 0H9.24196C9.6137 0 9.97104 0.199667 10.2392 0.557225L13.1285 4.40966C13.4114 4.78681 13.5713 5.30785 13.5713 5.85244V14C13.5713 15.1046 12.9266 16 12.1313 16H6.01129C5.216 16 4.57129 15.1046 4.57129 14V2Z" fill="white"/>
<path fill-rule="evenodd" clip-rule="evenodd" d="M4.28613 15.165H12.7861C13.4295 15.165 13.9511 14.6434 13.9511 14V5.85244C13.9511 5.53521 13.8218 5.23171 13.5929 5.01202L9.57998 1.15958C9.36302 0.951306 9.07393 0.835 8.77318 0.835H4.28613C3.64272 0.835 3.12113 1.35659 3.12113 2V14C3.12113 14.6434 3.64272 15.165 4.28613 15.165ZM4.28613 0C3.18156 0 2.28613 0.895431 2.28613 2V14C2.28613 15.1046 3.18156 16 4.28613 16H12.7861C13.8907 16 14.7861 15.1046 14.7861 14V5.85244C14.7861 5.30785 14.5641 4.78681 14.1712 4.40966L10.1582 0.557225C9.78579 0.199667 9.28948 0 8.77318 0H4.28613Z" fill="#CDD0D8"/>
<path fill-rule="evenodd" clip-rule="evenodd" d="M8.61584 0.0964355C8.84642 0.0964404 9.03334 0.283365 9.03333 0.513944L9.03324 4.82548C9.03324 5.14719 9.29403 5.408 9.61574 5.408H14.2749C14.5054 5.408 14.6924 5.59492 14.6924 5.8255C14.6924 6.05608 14.5054 6.243 14.2749 6.243H9.61574C8.83287 6.243 8.19823 5.60834 8.19824 4.82547L8.19833 0.513927C8.19834 0.283348 8.38526 0.0964307 8.61584 0.0964355Z" fill="#CDD0D8"/>
<path d="M1 9C1 8.44772 1.44772 8 2 8H10.4C10.9523 8 11.4 8.44772 11.4 9V12.2C11.4 12.7523 10.9523 13.2 10.4 13.2H2C1.44772 13.2 1 12.7523 1 12.2V9Z" fill="#2C3040"/>
<path d="M4.25416 10.1691H4.86798C4.84836 10.0028 4.80352 9.85514 4.73345 9.72621C4.66431 9.59728 4.57462 9.48844 4.46437 9.39968C4.35413 9.30999 4.22753 9.24179 4.08459 9.19507C3.94257 9.14836 3.78842 9.125 3.62212 9.125C3.36986 9.125 3.14283 9.18293 2.94102 9.29878C2.73922 9.41369 2.57946 9.58093 2.46174 9.80049C2.34402 10.02 2.28516 10.2863 2.28516 10.5993C2.28516 10.9114 2.34308 11.1772 2.45893 11.3967C2.57572 11.6163 2.73455 11.784 2.93542 11.8998C3.13722 12.0157 3.36612 12.0736 3.62212 12.0736C3.80617 12.0736 3.97107 12.046 4.11682 11.9909C4.2635 11.9349 4.38963 11.8592 4.4952 11.7639C4.60171 11.6677 4.68626 11.5588 4.74886 11.4374C4.81239 11.315 4.8521 11.1879 4.86798 11.0562L4.25416 11.0534C4.24014 11.13 4.21492 11.1982 4.17848 11.258C4.14298 11.3178 4.09813 11.3687 4.04394 11.4107C3.98976 11.4518 3.92763 11.4831 3.85755 11.5046C3.78842 11.5261 3.71321 11.5369 3.63193 11.5369C3.48711 11.5369 3.35958 11.5014 3.24934 11.4303C3.13909 11.3593 3.05314 11.2542 2.99147 11.115C2.93075 10.9758 2.90038 10.8039 2.90038 10.5993C2.90038 10.4003 2.93075 10.2312 2.99147 10.092C3.0522 9.95184 3.13769 9.84533 3.24794 9.77246C3.35818 9.69865 3.48758 9.66175 3.63613 9.66175C3.71835 9.66175 3.79449 9.67342 3.86456 9.69678C3.93557 9.72014 3.99816 9.75377 4.05235 9.79768C4.10654 9.8416 4.15092 9.89485 4.18549 9.95745C4.22006 10.0191 4.24295 10.0896 4.25416 10.1691Z" fill="white"/>
<path d="M6.78131 9.98968C6.7701 9.87663 6.72199 9.78881 6.63697 9.72621C6.55195 9.66361 6.43656 9.63232 6.29081 9.63232C6.19178 9.63232 6.10816 9.64633 6.03996 9.67436C5.97176 9.70145 5.91944 9.73929 5.883 9.78787C5.8475 9.83646 5.82975 9.89158 5.82975 9.95324C5.82788 10.0046 5.83862 10.0495 5.86198 10.0878C5.88627 10.1261 5.91944 10.1593 5.96148 10.1873C6.00352 10.2144 6.0521 10.2382 6.10723 10.2588C6.16235 10.2784 6.22121 10.2952 6.28381 10.3092L6.54167 10.3709C6.66686 10.3989 6.78178 10.4363 6.88642 10.483C6.99106 10.5297 7.08169 10.5872 7.1583 10.6554C7.23491 10.7236 7.29424 10.8039 7.33628 10.8964C7.37925 10.9889 7.40121 11.0949 7.40214 11.2145C7.40121 11.3902 7.35636 11.5425 7.26761 11.6714C7.17979 11.7994 7.05272 11.8989 6.88642 11.9699C6.72105 12.04 6.52158 12.075 6.28801 12.075C6.05631 12.075 5.8545 12.0395 5.6826 11.9685C5.51162 11.8975 5.37802 11.7924 5.28179 11.6532C5.18649 11.513 5.13651 11.3397 5.13184 11.1332H5.71903C5.72557 11.2295 5.75313 11.3098 5.80172 11.3743C5.85123 11.4378 5.9171 11.4859 5.99932 11.5186C6.08247 11.5504 6.17636 11.5663 6.281 11.5663C6.38378 11.5663 6.473 11.5513 6.54868 11.5214C6.62529 11.4915 6.68461 11.45 6.72666 11.3967C6.7687 11.3435 6.78972 11.2823 6.78972 11.2131C6.78972 11.1487 6.77057 11.0945 6.73226 11.0506C6.69489 11.0066 6.63977 10.9693 6.5669 10.9384C6.49496 10.9076 6.40667 10.8796 6.30203 10.8544L5.98951 10.7759C5.74753 10.717 5.55647 10.625 5.41633 10.4998C5.27618 10.3746 5.20658 10.206 5.20751 9.99388C5.20658 9.82011 5.25283 9.66829 5.34625 9.53842C5.44062 9.40856 5.57001 9.30719 5.73445 9.23431C5.89888 9.16144 6.08574 9.125 6.29502 9.125C6.50804 9.125 6.69396 9.16144 6.85279 9.23431C7.01255 9.30719 7.13681 9.40856 7.22557 9.53842C7.31432 9.66829 7.3601 9.81871 7.3629 9.98968H6.78131Z" fill="white"/>
<path d="M8.24977 9.16418L8.94347 11.3448H8.9701L9.66521 9.16418H10.3379L9.34849 12.0343H8.56649L7.57568 9.16418H8.24977Z" fill="white"/>
</svg>
