<svg width="120" height="120" viewBox="0 0 120 120" fill="none" xmlns="http://www.w3.org/2000/svg">
<path d="M49.6609 97.1775H48.1121C47.2488 96.9945 46.3668 97.0679 45.4942 96.9997C42.2115 96.7422 39.027 96.0577 35.9448 94.9184C31.5641 93.2982 27.5845 91.0101 24.066 87.9011C21.9196 86.0038 19.8496 84.0517 18.0475 81.8216C13.5913 76.3076 10.9403 70.0079 9.87015 63.0237C9.70161 61.9215 9.6096 60.807 9.48242 59.6975C9.48242 58.0112 9.48242 56.3249 9.48242 54.6385C9.62821 53.5322 9.70265 52.4104 9.93115 51.3206C11.8873 42.0018 16.6258 34.6858 25.2602 30.2109C27.4893 29.056 29.8539 28.2847 32.3271 27.8567C33.5988 27.6364 34.8819 27.5041 36.1723 27.4327C38.8398 27.2839 41.5043 27.2921 44.1552 27.6509C45.4177 27.8215 46.6594 28.0789 47.9198 27.5899C49.3621 27.0305 50.8282 26.5363 52.2954 26.0411C55.0156 25.1209 57.7659 24.5388 60.6475 24.7021C61.4394 24.7466 62.2325 24.7962 62.95 25.1891C63.5487 25.5158 63.5662 26.0762 62.9872 26.4123C62.3452 26.7855 61.7331 27.2001 61.1934 27.7119C59.3737 29.4365 59.1948 31.4785 60.695 33.4316C61.242 34.1429 62.0164 34.5751 62.7443 35.0642C64.9476 36.5448 67.0216 38.1908 68.9158 40.0487C70.9175 42.0132 72.8861 44.0128 74.8505 46.0145C77.0073 48.2127 79.4505 50.0003 82.2752 51.2441C83.2564 51.6763 83.5966 51.515 83.9274 50.4987C84.2417 49.534 84.5354 48.5621 84.8249 47.5892C85.074 46.7486 84.9944 46.485 84.2665 45.9618C82.8356 44.9341 81.5732 43.7616 80.4379 42.3896C77.9317 39.3581 76.9153 35.8334 76.6051 32.0193C76.4873 30.5769 76.753 29.1739 77.0456 27.7781C77.3692 26.2354 77.974 24.8014 78.7485 23.4232C79.2313 22.564 80.6271 22.6281 80.9776 23.5865C81.2433 24.3144 81.5008 25.0433 81.7158 25.7867C82.1563 27.3025 83.0599 28.4305 84.4433 29.1977C85.3635 29.7074 86.3313 30.1148 87.266 30.5924C89.2842 31.6243 90.7575 33.1349 91.4492 35.334C91.8597 36.6388 91.8721 36.6554 92.9526 35.7435C95.1755 33.8679 97.7428 33.0346 100.633 33.1349C101.427 33.1628 102.212 33.11 102.988 32.9177C104.631 32.5093 105.844 31.4516 106.994 30.2957C107.382 29.9059 107.741 29.482 108.189 29.1573C108.747 28.7531 109.197 28.7717 109.748 29.1832C110.332 29.6185 110.458 30.2388 110.504 30.914C110.587 32.1361 110.254 33.3075 110.051 34.4862C108.98 40.6763 105.474 44.9217 99.6586 47.2676C98.2318 47.8435 96.7347 48.1672 95.2096 48.3626C94.4869 48.4556 94.2967 48.6686 94.2812 49.4048C94.2729 49.8173 94.2874 50.2309 94.2998 50.6434C94.3308 51.6432 94.3039 52.641 94.1509 53.6284C93.576 57.3412 92.723 60.9879 91.4978 64.5436C90.0224 68.824 87.9814 72.8109 85.1567 76.3552C83.7444 78.1284 82.1604 79.7651 80.6664 81.4742C79.7907 82.476 79.8568 82.7087 81.1451 83.1109C83.6338 83.8874 85.9705 85.034 88.363 86.0431C89.7009 86.6076 89.7629 88.0479 89.2087 88.9422C88.7062 89.7528 87.9173 90.0982 87.0323 90.2791C84.3193 90.8333 81.5856 91.0876 78.8219 90.7816C76.9215 90.5717 75.0294 90.3029 73.2449 89.5574C72.4487 89.2245 72.062 89.2958 71.4468 89.9255C71.1573 90.2212 70.8678 90.5128 70.5339 90.7599C66.5636 93.6931 62.1591 95.6173 57.2934 96.4868C56.3556 96.6543 55.392 96.5675 54.4739 96.7422C53.1618 96.9914 51.8477 97.0441 50.5263 97.0917C50.2358 97.102 49.939 97.0576 49.6599 97.1796L49.6609 97.1775ZM21.8482 49.4627C20.4472 49.4658 19.0607 49.593 17.6991 49.9145C16.601 50.174 16.1626 50.7148 16.1306 51.8417C16.1213 52.1829 16.174 52.5272 16.203 52.8695C16.5411 56.8635 17.2751 60.7687 18.6689 64.5446C20.501 69.5054 23.0869 74.0175 26.5991 77.9774C28.821 80.4826 31.4906 82.4554 34.2967 84.2523C35.7835 85.2046 37.4078 85.7836 39.1469 86.0638C40.3307 86.254 41.5404 86.3895 42.6716 85.9594C44.3083 85.338 44.6877 84.4333 43.8358 83.1357C43.5814 82.748 43.3436 82.3468 43.1203 81.9394C42.5196 80.8476 41.9892 79.733 41.9954 78.4427C42.0016 77.0417 42.7212 76.4699 44.0891 76.7801C45.2626 77.0469 46.3244 77.5752 47.3522 78.1749C50.6587 80.1052 53.778 82.3044 56.7165 84.76C58.5186 86.2664 60.4634 87.5247 62.7929 88.0344C64.6446 88.4397 66.5222 88.6879 68.4236 88.6755C68.9737 88.6714 69.5237 88.6176 70.0624 88.4966C70.2237 88.4604 70.4532 88.4759 70.4894 88.2754C70.5246 88.0789 70.2971 88.0158 70.172 87.9093C70.0273 87.7873 69.8722 87.6788 69.7181 87.5671C66.3651 85.1332 63.4866 82.2145 60.8997 78.9907C58.4824 75.9788 56.4311 72.7116 54.2319 69.5468C52.1785 66.5908 50.0528 63.6895 47.4731 61.1595C43.1627 56.9318 38.1926 53.7183 32.5246 51.6288C29.0847 50.3612 25.5352 49.5537 21.8503 49.4606L21.8482 49.4627ZM64.6457 52.3546C64.0481 52.3277 63.2778 52.4538 62.614 52.9636C62.4517 53.0887 62.2904 53.2251 62.1632 53.3833C61.5832 54.104 61.7796 54.8877 62.6202 55.2734C63.3129 55.5918 64.0698 55.5339 64.7966 55.6549C66.5336 55.9444 67.581 57.2802 67.4218 59.0214C67.3783 59.5011 67.3132 59.9777 67.2687 60.4575C67.1633 61.6031 67.2853 62.699 68.0421 63.6306C69.6251 65.5785 72.3691 67.1098 75.5257 65.4534C76.6155 64.8817 76.9039 64.253 76.3704 63.1529C74.8185 59.9519 72.8633 57.0414 70.1741 54.6654C68.6511 53.3192 66.972 52.3442 64.6467 52.3535L64.6457 52.3546ZM63.6614 60.015C64.383 60.0284 64.9476 59.53 64.9827 58.8466C65.0168 58.188 64.3996 57.5614 63.7131 57.5583C63.0048 57.5563 62.4413 58.0453 62.4155 58.6853C62.3803 59.5507 62.8001 59.9984 63.6614 60.015Z" fill="#5671FE"/>
</svg>
