<svg width="120" height="120" viewBox="0 0 120 120" fill="none" xmlns="http://www.w3.org/2000/svg">
<path d="M43.5436 50.5709L59.9085 78.7643L76.2734 50.5709H43.5436Z" fill="#6245E8"/>
<path fill-rule="evenodd" clip-rule="evenodd" d="M26.8849 33.6442C26.3641 33.6461 25.8325 33.6442 25.3119 33.6442C24.7677 33.6442 24.2311 33.6408 23.6866 33.6442C22.4012 33.6522 21.1154 33.6807 19.8319 33.6442C18.5446 33.6075 17.5334 34.0216 16.8867 35.1494C15.97 36.7467 15.0586 38.3469 14.1473 39.9471C12.7796 42.3487 11.4119 44.7502 10.0261 47.1419C9.26199 48.4606 9.36418 49.6571 10.1131 50.9453C12.2812 54.6705 14.4377 58.4028 16.5942 62.1351C18.4352 65.3213 20.2762 68.5075 22.1244 71.6892C22.4202 72.1996 22.4111 72.58 22.1183 73.0843C21.2709 74.5406 20.4354 76.0043 19.5999 77.4681C18.7451 78.9657 17.8902 80.4634 17.0224 81.9534C16.3239 83.1529 16.3193 84.2852 17.0148 85.4817C18.8758 88.6796 20.7189 91.8882 22.562 95.0971C22.7974 95.5069 23.0328 95.9168 23.2683 96.3266C23.9531 97.517 24.9521 98.0687 26.3401 98.0641C30.5922 98.0521 34.8438 98.0497 39.0952 98.0473C42.9767 98.0451 46.8581 98.043 50.7394 98.0335C51.3846 98.0304 51.7461 98.2688 52.0618 98.8251C53.4356 101.243 54.8302 103.649 56.2246 106.055C56.6803 106.841 57.1359 107.627 57.5908 108.414C58.1689 109.413 58.9971 110.002 60.1853 110C61.759 109.997 63.3329 109.994 64.9068 109.992C68.0603 109.987 71.214 109.982 74.367 109.973C75.5948 109.969 76.5053 109.389 77.117 108.345C77.6916 107.365 78.2559 106.379 78.8201 105.392C79.0646 104.965 79.309 104.538 79.5543 104.111C80.3369 102.749 81.1198 101.387 81.9027 100.025C84.3411 95.7842 86.7796 91.543 89.2076 87.2956C89.4928 86.7974 89.8177 86.5713 90.4079 86.5682C91.8074 86.5619 93.207 86.5425 94.6068 86.523C96.6106 86.4951 98.6145 86.4673 100.618 86.4781C102.081 86.4857 103.074 85.9249 103.786 84.6657C105.325 81.9455 106.885 79.2369 108.445 76.5283C109.006 75.5547 109.567 74.5811 110.126 73.6069C110.387 73.1531 110.479 72.6671 110.498 72.1461C110.528 71.3429 110.132 70.7315 109.736 70.1193C109.624 69.9453 109.511 69.7712 109.408 69.5926L107.968 67.094C104.51 61.0918 101.053 55.0905 97.5827 49.0963C97.331 48.6623 97.3402 48.3261 97.5888 47.9044C98.1196 47.0055 98.6373 46.0985 99.1552 45.1912C99.4825 44.6179 99.8098 44.0445 100.141 43.4729C100.408 43.0101 100.671 42.5436 100.933 42.0769C101.594 40.901 102.255 39.7248 103.005 38.609C103.998 37.1313 104.158 36.2588 103.281 34.7521C102.479 33.3719 101.674 31.9929 100.87 30.6138C99.4048 28.1025 97.9398 25.5912 96.4876 23.0728C95.7844 21.8504 94.8174 21.2926 93.3791 21.2987C88.9568 21.3174 84.5349 21.3168 80.1133 21.3161C76.5545 21.3157 72.996 21.3152 69.4374 21.3247C68.7098 21.3262 68.298 21.0955 67.935 20.4537C66.7138 18.2887 65.4626 16.1399 64.2116 13.9913C63.747 13.1934 63.2824 12.3955 62.8193 11.5969C62.2245 10.57 61.3612 10.0031 60.1486 10.0031C55.8032 10.0061 51.4563 10.0061 47.1109 10C45.9593 9.99847 45.1067 10.5134 44.5393 11.4914C44.0629 12.3104 43.5975 13.1362 43.132 13.9622C42.7481 14.6434 42.3641 15.3248 41.9738 16.0024C40.8356 17.9807 39.6958 19.958 38.556 21.9354C36.4428 25.6016 34.3296 29.2678 32.226 32.9397C31.9088 33.4944 31.529 33.6564 30.8884 33.6442C29.5543 33.6167 28.2194 33.6393 26.8849 33.6442ZM73.8011 36.6255V36.6423C65.1591 36.6423 56.5155 36.6423 47.8735 36.6377C47.8042 36.6377 47.7295 36.6455 47.6536 36.6534C47.4105 36.6788 47.1549 36.7054 47.0224 36.4819C46.8874 36.2544 47.0376 36.0457 47.1807 35.8468C47.2251 35.7851 47.2688 35.7244 47.3031 35.6643C47.4953 35.33 47.6875 34.9956 47.8797 34.6612C49.6532 31.5755 51.4267 28.49 53.2225 25.4169C53.552 24.8546 53.6084 24.4237 53.2454 23.8262C52.4688 22.5481 51.7301 21.2458 50.9915 19.9436C50.6625 19.3636 50.3335 18.7837 50.0012 18.2059C49.1638 16.7496 48.325 15.2948 47.4754 13.8462C47.0895 13.1876 46.9965 13.1968 46.5892 13.8691C46.5662 13.9074 46.5446 13.9461 46.5232 13.9848C46.5077 14.0126 46.4923 14.0403 46.4764 14.0678C45.485 15.7911 44.4932 17.5141 43.5013 19.2371C40.3286 24.7485 37.1558 30.2601 33.9999 35.7805C33.6384 36.4131 33.2266 36.6622 32.4945 36.6576C29.3026 36.6357 26.1108 36.6438 22.9182 36.6519C22.0939 36.654 21.2695 36.656 20.4451 36.6576C19.6306 36.6576 19.6077 36.6989 20.0012 37.3834C22.6597 41.9907 25.3182 46.5979 27.9767 51.2035L30.814 56.1185C35.9249 64.9717 41.0355 73.8244 46.1439 82.6792C46.606 83.4815 46.5679 83.5426 45.6283 83.5441C44.758 83.5448 43.8876 83.5461 43.0172 83.5475C39.922 83.5522 36.8267 83.5569 33.7315 83.5319C33.0237 83.5258 32.6302 83.7672 32.2886 84.3724C30.9909 86.6681 29.673 88.9516 28.3549 91.2354C27.8665 92.0816 27.3781 92.9278 26.8907 93.7747C26.42 94.5927 26.6655 95.0018 27.6274 95.0018H28.0087C29.6251 95.0018 31.2415 95.0021 32.8579 95.0024C39.3252 95.0036 45.7924 95.0048 52.2586 94.9865C52.9846 94.985 53.3964 95.2142 53.7594 95.859C55.0035 98.0624 56.2706 100.253 57.5378 102.444C58.284 103.734 59.0303 105.024 59.7719 106.317C60.0373 106.779 60.2036 106.991 60.5589 106.371C64.0959 100.203 67.6436 94.0414 71.1913 87.88C71.8721 86.6976 72.553 85.5151 73.2337 84.3326C77.7423 76.5027 82.2509 68.6742 86.7641 60.8473C87.2171 60.0604 87.2766 60.0756 87.754 60.9054C88.3565 61.9526 88.9604 62.9989 89.5645 64.0452C90.9453 66.4374 92.3263 68.8297 93.6887 71.2323C94.0319 71.8374 94.4224 72.0834 95.1301 72.0773C97.6136 72.0561 100.098 72.0582 102.582 72.0604C103.86 72.0615 105.139 72.0626 106.417 72.0605C106.484 72.0605 106.557 72.0689 106.632 72.0775C106.854 72.1031 107.088 72.1299 107.201 71.9352C107.332 71.7078 107.18 71.4974 107.036 71.298C106.993 71.2374 106.95 71.1779 106.916 71.1192C102.686 63.7752 98.4521 56.4342 94.2088 49.0993C93.9663 48.6806 93.9404 48.3445 94.1982 47.9059C95.2508 46.1198 96.2839 44.3225 97.317 42.525C97.6027 42.0279 97.8883 41.5309 98.1745 41.0341C98.4006 40.6413 98.6239 40.2466 98.8472 39.852C99.326 39.006 99.8048 38.1599 100.311 37.3315C100.687 36.7172 100.485 36.5843 99.8797 36.624C99.7082 36.6354 99.5361 36.632 99.3637 36.6287C99.2815 36.6271 99.1993 36.6255 99.1171 36.6255H73.8011Z" fill="#6245E8"/>
</svg>
