<svg width="16" height="16" viewBox="0 0 16 16" fill="none" xmlns="http://www.w3.org/2000/svg">
<path d="M2.28613 2C2.28613 0.895431 3.18156 0 4.28613 0H8.77318C9.28948 0 9.78579 0.199667 10.1582 0.557225L14.1712 4.40966C14.5641 4.78681 14.7861 5.30785 14.7861 5.85244V14C14.7861 15.1046 13.8907 16 12.7861 16H4.28613C3.18156 16 2.28613 15.1046 2.28613 14V2Z" fill="white"/>
<path fill-rule="evenodd" clip-rule="evenodd" d="M4.28613 15.165H12.7861C13.4295 15.165 13.9511 14.6434 13.9511 14V5.85244C13.9511 5.53521 13.8218 5.23171 13.5929 5.01202L9.57998 1.15958C9.36302 0.951306 9.07393 0.835 8.77318 0.835H4.28613C3.64272 0.835 3.12113 1.35659 3.12113 2V14C3.12113 14.6434 3.64272 15.165 4.28613 15.165ZM4.28613 0C3.18156 0 2.28613 0.895431 2.28613 2V14C2.28613 15.1046 3.18156 16 4.28613 16H12.7861C13.8907 16 14.7861 15.1046 14.7861 14V5.85244C14.7861 5.30785 14.5641 4.78681 14.1712 4.40966L10.1582 0.557225C9.78579 0.199667 9.28948 0 8.77318 0H4.28613Z" fill="#CDD0D8"/>
<path fill-rule="evenodd" clip-rule="evenodd" d="M8.61584 0.0964355C8.84642 0.0964404 9.03334 0.283365 9.03333 0.513944L9.03324 4.82548C9.03324 5.14719 9.29403 5.408 9.61574 5.408H14.2749C14.5054 5.408 14.6924 5.59492 14.6924 5.8255C14.6924 6.05608 14.5054 6.243 14.2749 6.243H9.61574C8.83287 6.243 8.19823 5.60834 8.19824 4.82547L8.19833 0.513927C8.19834 0.283348 8.38526 0.0964307 8.61584 0.0964355Z" fill="#CDD0D8"/>
<path d="M1 9C1 8.44772 1.44772 8 2 8H10.4C10.9523 8 11.4 8.44772 11.4 9V12.2C11.4 12.7523 10.9523 13.2 10.4 13.2H2C1.44772 13.2 1 12.7523 1 12.2V9Z" fill="#2C3040"/>
<path d="M9.22754 9.9814C9.21618 9.86682 9.16741 9.7778 9.08123 9.71436C8.99506 9.65091 8.87811 9.61919 8.73038 9.61919C8.63 9.61919 8.54525 9.63339 8.47612 9.6618C8.40699 9.68926 8.35396 9.72761 8.31703 9.77686C8.28104 9.8261 8.26305 9.88197 8.26305 9.94447C8.26116 9.99655 8.27205 10.042 8.29572 10.0808C8.32034 10.1197 8.35396 10.1533 8.39657 10.1817C8.43919 10.2091 8.48843 10.2333 8.5443 10.2541C8.60017 10.274 8.65983 10.2911 8.72328 10.3053L8.98464 10.3678C9.11154 10.3962 9.22801 10.4341 9.33407 10.4814C9.44013 10.5287 9.53199 10.587 9.60964 10.6561C9.68729 10.7252 9.74743 10.8067 9.79004 10.9004C9.8336 10.9942 9.85585 11.1017 9.8568 11.2229C9.85585 11.4009 9.8104 11.5553 9.72044 11.6859C9.63142 11.8157 9.50263 11.9165 9.33407 11.9885C9.16646 12.0595 8.96428 12.095 8.72754 12.095C8.49269 12.095 8.28815 12.0591 8.1139 11.9871C7.94061 11.9151 7.80519 11.8086 7.70765 11.6675C7.61106 11.5254 7.5604 11.3498 7.55566 11.1405H8.15083C8.15746 11.238 8.1854 11.3195 8.23464 11.3848C8.28483 11.4492 8.35159 11.498 8.43493 11.5311C8.51921 11.5633 8.61438 11.5794 8.72044 11.5794C8.8246 11.5794 8.91504 11.5643 8.99174 11.534C9.06939 11.5037 9.12953 11.4615 9.17214 11.4075C9.21475 11.3536 9.23606 11.2915 9.23606 11.2215C9.23606 11.1561 9.21665 11.1012 9.17782 11.0567C9.13994 11.0122 9.08407 10.9743 9.01021 10.943C8.93729 10.9118 8.8478 10.8834 8.74174 10.8578L8.42498 10.7783C8.17972 10.7186 7.98606 10.6253 7.84402 10.4984C7.70197 10.3716 7.63142 10.2006 7.63237 9.98566C7.63142 9.80953 7.6783 9.65564 7.77299 9.52401C7.86864 9.39239 7.99979 9.28964 8.16646 9.21578C8.33313 9.14191 8.52252 9.10498 8.73464 9.10498C8.95055 9.10498 9.139 9.14191 9.29998 9.21578C9.46191 9.28964 9.58786 9.39239 9.67782 9.52401C9.76778 9.65564 9.81419 9.80811 9.81703 9.9814H9.22754Z" fill="white"/>
<path d="M5.45996 12.0539V9.14478H6.07502V11.5468H7.32218V12.0539H5.45996Z" fill="white"/>
<path d="M3.8441 10.1363L3.25746 9.14478H2.56001L3.45348 10.5993L2.54297 12.0539H3.24751L3.8441 11.061H3.86683L4.46342 12.0539H5.17081L4.26314 10.5993L5.15092 9.14478H4.45632L3.86683 10.1363H3.8441Z" fill="white"/>
</svg>
