<svg width="16" height="16" viewBox="0 0 16 16" fill="none" xmlns="http://www.w3.org/2000/svg">
<path d="M2.28613 2C2.28613 0.895431 3.17485 0 4.27113 0H8.72453C9.23696 0 9.72954 0.199667 10.0992 0.557225L14.0821 4.40966C14.472 4.78681 14.6924 5.30785 14.6924 5.85244V14C14.6924 15.1046 13.8037 16 12.7074 16H4.27113C3.17485 16 2.28613 15.1046 2.28613 14V2Z" fill="white"/>
<path fill-rule="evenodd" clip-rule="evenodd" d="M4.28613 15.165H12.7861C13.4295 15.165 13.9511 14.6434 13.9511 14V5.85244C13.9511 5.53521 13.8218 5.23171 13.5929 5.01202L9.57998 1.15958C9.36302 0.951306 9.07393 0.835 8.77318 0.835H4.28613C3.64272 0.835 3.12113 1.35659 3.12113 2V14C3.12113 14.6434 3.64272 15.165 4.28613 15.165ZM4.28613 0C3.18156 0 2.28613 0.895431 2.28613 2V14C2.28613 15.1046 3.18156 16 4.28613 16H12.7861C13.8907 16 14.7861 15.1046 14.7861 14V5.85244C14.7861 5.30785 14.5641 4.78681 14.1712 4.40966L10.1582 0.557225C9.78579 0.199667 9.28948 0 8.77318 0H4.28613Z" fill="#CDD0D8"/>
<path fill-rule="evenodd" clip-rule="evenodd" d="M8.61584 0.0964355C8.84642 0.0964404 9.03334 0.283365 9.03333 0.513944L9.03324 4.82548C9.03324 5.14719 9.29403 5.408 9.61574 5.408H14.2749C14.5054 5.408 14.6924 5.59492 14.6924 5.8255C14.6924 6.05608 14.5054 6.243 14.2749 6.243H9.61574C8.83287 6.243 8.19823 5.60834 8.19824 4.82547L8.19833 0.513927C8.19834 0.283348 8.38526 0.0964307 8.61584 0.0964355Z" fill="#CDD0D8"/>
<path d="M1 9C1 8.44772 1.44772 8 2 8H10.4C10.9523 8 11.4 8.44772 11.4 9V12.2C11.4 12.7523 10.9523 13.2 10.4 13.2H2C1.44772 13.2 1 12.7523 1 12.2V9Z" fill="#2C3040"/>
<path d="M5.73574 10.0981C5.72652 10.0051 5.68695 9.93288 5.61703 9.8814C5.54711 9.82992 5.45222 9.80418 5.33236 9.80418C5.25091 9.80418 5.18215 9.8157 5.12606 9.83875C5.06997 9.86104 5.02694 9.89215 4.99697 9.93211C4.96778 9.97206 4.95318 10.0174 4.95318 10.0681C4.95164 10.1104 4.96048 10.1472 4.97969 10.1787C4.99966 10.2103 5.02694 10.2375 5.06152 10.2606C5.09609 10.2829 5.13605 10.3025 5.18138 10.3194C5.22671 10.3355 5.27512 10.3493 5.3266 10.3608L5.53866 10.4116C5.64162 10.4346 5.73613 10.4653 5.82218 10.5038C5.90824 10.5422 5.98277 10.5894 6.04577 10.6455C6.10878 10.7016 6.15757 10.7677 6.19215 10.8438C6.22749 10.9198 6.24555 11.007 6.24631 11.1054C6.24555 11.2498 6.20866 11.3751 6.13567 11.4811C6.06345 11.5864 5.95895 11.6682 5.82218 11.7266C5.68619 11.7842 5.52214 11.813 5.33006 11.813C5.1395 11.813 4.97354 11.7838 4.83216 11.7254C4.69155 11.667 4.58168 11.5806 4.50254 11.4661C4.42417 11.3509 4.38306 11.2083 4.37922 11.0385H4.86213C4.86751 11.1177 4.89017 11.1838 4.93013 11.2368C4.97085 11.289 5.02502 11.3286 5.09263 11.3555C5.16102 11.3816 5.23824 11.3947 5.32429 11.3947C5.40881 11.3947 5.48219 11.3824 5.54443 11.3578C5.60743 11.3332 5.65622 11.299 5.6908 11.2552C5.72537 11.2114 5.74266 11.1611 5.74266 11.1042C5.74266 11.0512 5.72691 11.0066 5.69541 10.9705C5.66467 10.9344 5.61934 10.9037 5.55941 10.8783C5.50024 10.853 5.42764 10.8299 5.34158 10.8092L5.08457 10.7446C4.88556 10.6962 4.72844 10.6206 4.61318 10.5176C4.49793 10.4146 4.44069 10.2759 4.44146 10.1015C4.44069 9.95862 4.47872 9.83376 4.55556 9.72696C4.63316 9.62016 4.73958 9.53679 4.87481 9.47686C5.01004 9.41693 5.16371 9.38696 5.33582 9.38696C5.511 9.38696 5.6639 9.41693 5.79452 9.47686C5.92591 9.53679 6.0281 9.62016 6.1011 9.72696C6.17409 9.83376 6.21174 9.95746 6.21404 10.0981H5.73574Z" fill="white"/>
<path d="M7.01597 9.41938H6.51693V11.7798H8.02789V11.3683H7.01597V9.41938Z" fill="white"/>
<path d="M9.23752 10.2238L8.76153 9.41938H8.19564L8.92058 10.5996L8.18181 11.7798H8.75346L9.23752 10.9741H9.25596L9.74003 11.7798H10.314L9.57752 10.5996L10.2978 9.41938H9.73426L9.25596 10.2238H9.23752Z" fill="white"/>
<path d="M3.14361 10.2238L2.66761 9.41938H2.10172L2.82666 10.5996L2.08789 11.7798H2.65954L3.14361 10.9741H3.16205L3.64611 11.7798H4.22007L3.4836 10.5996L4.20393 9.41938H3.64035L3.16205 10.2238H3.14361Z" fill="white"/>
</svg>
