<svg width="16" height="16" viewBox="0 0 16 16" fill="none" xmlns="http://www.w3.org/2000/svg">
<path d="M8.66699 11.0026C8.66699 10.6344 8.96547 10.3359 9.33366 10.3359H10.667C11.0352 10.3359 11.3337 10.6344 11.3337 11.0026C11.3337 11.3708 11.0352 11.6693 10.667 11.6693H9.33366C8.96547 11.6693 8.66699 11.3708 8.66699 11.0026Z" fill="black"/>
<path d="M8.66699 8.0026C8.66699 7.63441 8.96547 7.33594 9.33366 7.33594H10.667C11.0352 7.33594 11.3337 7.63441 11.3337 8.0026C11.3337 8.37079 11.0352 8.66927 10.667 8.66927H9.33366C8.96547 8.66927 8.66699 8.37079 8.66699 8.0026Z" fill="black"/>
<path d="M9.33366 4.33594C8.96547 4.33594 8.66699 4.63441 8.66699 5.0026C8.66699 5.37079 8.96547 5.66927 9.33366 5.66927H10.667C11.0352 5.66927 11.3337 5.37079 11.3337 5.0026C11.3337 4.63441 11.0352 4.33594 10.667 4.33594H9.33366Z" fill="black"/>
<path fill-rule="evenodd" clip-rule="evenodd" d="M7.33363 1C6.59725 1 6.00029 1.59695 6.00029 2.33333V7H3.33363C2.59725 7 2.00029 7.59695 2.00029 8.33333V13.6664H1.33366C0.965469 13.6664 0.666992 13.9649 0.666992 14.3331C0.666992 14.7013 0.965469 14.9997 1.33366 14.9997H3.30698C3.31584 14.9999 3.32472 15 3.33363 15H6.00029C6.0092 15 6.01808 14.9999 6.02694 14.9997H7.30698C7.31584 14.9999 7.32472 15 7.33363 15H12.667C12.6759 15 12.6847 14.9999 12.6936 14.9997H14.667C15.0352 14.9997 15.3337 14.7013 15.3337 14.3331C15.3337 13.9649 15.0352 13.6664 14.667 13.6664H14.0003V2.33333C14.0003 1.59695 13.4033 1 12.667 1H7.33363ZM12.667 13.6664V2.33333H7.33363L7.33363 13.6664H12.667ZM6.00029 13.6664V8.33333H3.33363V10.996C3.33719 10.6308 3.63429 10.3359 4.00026 10.3359H5.33359C5.70178 10.3359 6.00026 10.6344 6.00026 11.0026C6.00026 11.3708 5.70178 11.6693 5.33359 11.6693H4.00026C3.63429 11.6693 3.33719 11.3744 3.33363 11.0092V13.6664H6.00029Z" fill="black"/>
</svg>
