<svg width="16" height="16" viewBox="0 0 16 16" fill="none" xmlns="http://www.w3.org/2000/svg">
<path fill-rule="evenodd" clip-rule="evenodd" d="M7.52892 2.86201C7.78927 2.60166 8.21138 2.60166 8.47173 2.86201L11.1384 5.52868C11.3987 5.78903 11.3987 6.21114 11.1384 6.47149C10.878 6.73184 10.4559 6.73184 10.1956 6.47149L8.00033 4.27622L5.80506 6.47149C5.54471 6.73184 5.1226 6.73184 4.86225 6.47149C4.6019 6.21114 4.6019 5.78903 4.86225 5.52868L7.52892 2.86201ZM4.86225 9.52868C5.1226 9.26833 5.54471 9.26833 5.80506 9.52868L8.00033 11.7239L10.1956 9.52868C10.4559 9.26833 10.878 9.26833 11.1384 9.52868C11.3987 9.78903 11.3987 10.2111 11.1384 10.4715L8.47173 13.1382C8.21138 13.3985 7.78927 13.3985 7.52892 13.1382L4.86225 10.4715C4.6019 10.2111 4.6019 9.78903 4.86225 9.52868Z" fill="black"/>
</svg>
