<svg width="16" height="16" viewBox="0 0 16 16" fill="none" xmlns="http://www.w3.org/2000/svg">
<path d="M8.01114 10.6666C7.76363 10.6665 7.52627 10.573 7.35128 10.4067L3.61794 6.85838C3.5288 6.77656 3.4577 6.67867 3.40878 6.57045C3.35987 6.46222 3.33412 6.34582 3.33304 6.22803C3.33197 6.11025 3.35558 5.99344 3.40251 5.88442C3.44944 5.7754 3.51874 5.67636 3.60637 5.59307C3.69401 5.50978 3.79822 5.44391 3.91292 5.39931C4.02762 5.35471 4.15052 5.33226 4.27445 5.33329C4.39838 5.33431 4.52085 5.35878 4.63472 5.40527C4.74859 5.45176 4.85158 5.51934 4.93768 5.60407L8.01114 8.52519L11.0846 5.60407C11.2606 5.44248 11.4964 5.35307 11.7411 5.35509C11.9858 5.35711 12.2199 5.4504 12.393 5.61487C12.566 5.77934 12.6642 6.00183 12.6663 6.23442C12.6684 6.46701 12.5744 6.69108 12.4043 6.85838L8.67101 10.4067C8.49602 10.573 8.25866 10.6665 8.01114 10.6666V10.6666Z" fill="black"/>
</svg>
