<svg width="16" height="16" viewBox="0 0 16 16" fill="none" xmlns="http://www.w3.org/2000/svg">
<path d="M4.6662 11.3337C4.4894 11.3337 4.31986 11.2634 4.19487 11.1384L1.5282 8.47175C1.40322 8.34673 1.33301 8.17719 1.33301 8.00042C1.33301 7.82364 1.40322 7.6541 1.5282 7.52908L4.19487 4.86242C4.25636 4.79874 4.32993 4.74795 4.41126 4.71302C4.4926 4.67808 4.58008 4.65969 4.6686 4.65892C4.75712 4.65815 4.8449 4.67501 4.92683 4.70853C5.00877 4.74206 5.0832 4.79156 5.1458 4.85415C5.20839 4.91675 5.25789 4.99118 5.29141 5.07311C5.32493 5.15504 5.3418 5.24283 5.34103 5.33135C5.34026 5.41987 5.32187 5.50735 5.28693 5.58869C5.25199 5.67002 5.20121 5.74358 5.13753 5.80508L2.9422 8.00042L5.13753 10.1957C5.23074 10.289 5.29421 10.4078 5.31992 10.5371C5.34563 10.6664 5.33243 10.8004 5.28198 10.9222C5.23154 11.044 5.14611 11.1481 5.0365 11.2214C4.9269 11.2946 4.79803 11.3337 4.6662 11.3337Z" fill="black"/>
<path d="M11.3329 11.3337C11.201 11.3337 11.0722 11.2946 10.9626 11.2214C10.853 11.1481 10.7675 11.044 10.7171 10.9222C10.6666 10.8004 10.6534 10.6664 10.6791 10.5371C10.7049 10.4078 10.7683 10.289 10.8615 10.1957L13.0569 8.00042L10.8615 5.80508C10.7979 5.74358 10.7471 5.67002 10.7121 5.58869C10.6772 5.50735 10.6588 5.41987 10.658 5.33135C10.6573 5.24283 10.6741 5.15504 10.7077 5.07311C10.7412 4.99118 10.7907 4.91675 10.8533 4.85415C10.9159 4.79156 10.9903 4.74206 11.0722 4.70853C11.1542 4.67501 11.2419 4.65815 11.3305 4.65892C11.419 4.65969 11.5065 4.67808 11.5878 4.71302C11.6691 4.74795 11.7427 4.79874 11.8042 4.86242L14.4709 7.52908C14.5958 7.6541 14.6661 7.82364 14.6661 8.00042C14.6661 8.17719 14.5958 8.34673 14.4709 8.47175L11.8042 11.1384C11.6792 11.2634 11.5097 11.3337 11.3329 11.3337Z" fill="black"/>
<path d="M7.33287 13.3337C7.23725 13.3339 7.14274 13.3134 7.05573 13.2738C6.96872 13.2341 6.89126 13.1762 6.82859 13.104C6.76593 13.0318 6.71953 12.947 6.69255 12.8552C6.66556 12.7635 6.65862 12.6671 6.6722 12.5724L8.00553 3.23908C8.03064 3.06404 8.12425 2.90614 8.26578 2.80012C8.40731 2.6941 8.58516 2.64864 8.7602 2.67375C8.93524 2.69886 9.09314 2.79247 9.19916 2.934C9.30518 3.07553 9.35064 3.25337 9.32553 3.42842L7.9922 12.7617C7.96944 12.9204 7.89025 13.0656 7.76916 13.1707C7.64807 13.2757 7.49318 13.3336 7.33287 13.3337Z" fill="black"/>
</svg>
