<svg width="16" height="16" viewBox="0 0 16 16" fill="none" xmlns="http://www.w3.org/2000/svg">
<path d="M6.51905 1.13989C6.12632 1.13989 5.80794 1.45827 5.80794 1.851C5.80794 2.24374 6.12632 2.56211 6.51905 2.56211H9.48086C9.8736 2.56211 10.192 2.24374 10.192 1.851C10.192 1.45827 9.8736 1.13989 9.48086 1.13989H6.51905Z" fill="black"/>
<path d="M3.67027 9.10849C3.67027 6.71745 5.60859 4.77913 7.99963 4.77913C10.3907 4.77913 12.329 6.71745 12.329 9.10849C12.329 9.50123 12.6474 9.8196 13.0401 9.8196C13.4328 9.8196 13.7512 9.50123 13.7512 9.10849C13.7512 7.76609 13.2913 6.5311 12.5205 5.55248L13.2076 4.86534C13.4854 4.58763 13.4854 4.13738 13.2076 3.85967C12.9299 3.58197 12.4797 3.58197 12.202 3.85967L11.5098 4.55187C10.5386 3.8026 9.32115 3.35691 7.99963 3.35691C6.67828 3.35691 5.46099 3.80249 4.48984 4.55159L3.79793 3.85967C3.52022 3.58197 3.06997 3.58197 2.79226 3.85967C2.51456 4.13738 2.51456 4.58763 2.79226 4.86534L3.47904 5.55212C2.70805 6.53079 2.24805 7.76592 2.24805 9.10849C2.24805 12.285 4.82312 14.8601 7.99963 14.8601C8.39237 14.8601 8.71074 14.5417 8.71074 14.149C8.71074 13.7562 8.39237 13.4379 7.99963 13.4379C5.60859 13.4379 3.67027 11.4995 3.67027 9.10849Z" fill="black"/>
<path d="M8.71107 6.92826C8.71107 6.53553 8.39269 6.21715 7.99996 6.21715C7.60722 6.21715 7.28885 6.53553 7.28885 6.92826V8.29761C7.06631 8.49435 6.926 8.78196 6.926 9.10235C6.926 9.69538 7.40675 10.1761 7.99978 10.1761C8.59282 10.1761 9.07357 9.69538 9.07357 9.10235C9.07357 8.78213 8.9334 8.49465 8.71107 8.29792V6.92826Z" fill="black"/>
<path d="M11.1644 9.67071C11.5572 9.67071 11.8756 9.98908 11.8756 10.3818V11.5466H13.04C13.4327 11.5466 13.7511 11.865 13.7511 12.2577C13.7511 12.6504 13.4327 12.9688 13.04 12.9688H11.8756V14.1336C11.8756 14.5264 11.5572 14.8447 11.1644 14.8447C10.7717 14.8447 10.4533 14.5264 10.4533 14.1336V12.9688H9.28815C8.89542 12.9688 8.57704 12.6504 8.57704 12.2577C8.57704 11.865 8.89542 11.5466 9.28815 11.5466H10.4533V10.3818C10.4533 9.98908 10.7717 9.67071 11.1644 9.67071Z" fill="black"/>
</svg>
