<svg width="16" height="16" viewBox="0 0 16 16" fill="none" xmlns="http://www.w3.org/2000/svg">
<path d="M4.4814 11.5187C4.29477 11.5187 4.11581 11.4445 3.98386 11.3125L1.16893 8.49761C1.037 8.36564 0.962891 8.18667 0.962891 8.00007C0.962891 7.81346 1.037 7.6345 1.16893 7.50253L3.98386 4.6876C4.04878 4.62039 4.12643 4.56678 4.21229 4.52989C4.29815 4.49301 4.39049 4.4736 4.48393 4.47279C4.57737 4.47198 4.67004 4.48978 4.75653 4.52517C4.84301 4.56055 4.92159 4.6128 4.98766 4.67888C5.05374 4.74495 5.10599 4.82353 5.14138 4.91001C5.17676 4.9965 5.19457 5.08917 5.19375 5.18261C5.19294 5.27605 5.17353 5.36839 5.13665 5.45425C5.09976 5.54011 5.04615 5.61776 4.97894 5.68268L2.66155 8.00007L4.97894 10.3175C5.07733 10.4159 5.14433 10.5413 5.17147 10.6777C5.19861 10.8142 5.18467 10.9557 5.13142 11.0843C5.07817 11.2129 4.98799 11.3228 4.87229 11.4001C4.75659 11.4774 4.62056 11.5187 4.4814 11.5187Z" fill="black"/>
<path d="M11.5187 11.5187C11.3796 11.5187 11.2435 11.4774 11.1278 11.4001C11.0121 11.3228 10.9219 11.2129 10.8687 11.0843C10.8154 10.9557 10.8015 10.8142 10.8287 10.6777C10.8558 10.5413 10.9228 10.4159 11.0212 10.3175L13.3386 8.00007L11.0212 5.68268C10.954 5.61776 10.9004 5.54011 10.8635 5.45425C10.8266 5.36839 10.8072 5.27605 10.8064 5.18261C10.8056 5.08917 10.8234 4.9965 10.8587 4.91001C10.8941 4.82353 10.9464 4.74495 11.0125 4.67888C11.0785 4.6128 11.1571 4.56055 11.2436 4.52517C11.3301 4.48978 11.4227 4.47198 11.5162 4.47279C11.6096 4.4736 11.702 4.49301 11.7878 4.52989C11.8737 4.56678 11.9513 4.62039 12.0163 4.6876L14.8312 7.50253C14.9631 7.6345 15.0372 7.81346 15.0372 8.00007C15.0372 8.18667 14.9631 8.36564 14.8312 8.49761L12.0163 11.3125C11.8843 11.4445 11.7053 11.5187 11.5187 11.5187Z" fill="black"/>
<path d="M7.29633 13.6299C7.1954 13.63 7.09563 13.6084 7.00378 13.5666C6.91194 13.5248 6.83017 13.4637 6.76402 13.3874C6.69787 13.3112 6.64889 13.2216 6.62041 13.1248C6.59192 13.028 6.5846 12.9262 6.59893 12.8263L8.00639 2.97401C8.0329 2.78924 8.13172 2.62256 8.28111 2.51065C8.43051 2.39873 8.61824 2.35075 8.80302 2.37725C8.98779 2.40375 9.15447 2.50257 9.26639 2.65197C9.3783 2.80136 9.42629 2.9891 9.39978 3.17387L7.99232 13.0261C7.96829 13.1936 7.8847 13.3469 7.75688 13.4578C7.62905 13.5687 7.46555 13.6298 7.29633 13.6299Z" fill="black"/>
</svg>
