<svg width="16" height="16" viewBox="0 0 16 16" fill="none" xmlns="http://www.w3.org/2000/svg">
<path d="M5.3958 8.85901H8.11556C8.29589 8.85901 8.46884 8.93183 8.59635 9.06145C8.72386 9.19107 8.7955 9.36688 8.7955 9.55019C8.7955 9.7335 8.72386 9.9093 8.59635 10.0389C8.46884 10.1685 8.29589 10.2414 8.11556 10.2414H5.3958C5.21546 10.2414 5.04252 10.1685 4.91501 10.0389C4.78749 9.9093 4.71586 9.7335 4.71586 9.55019C4.71586 9.36688 4.78749 9.19107 4.91501 9.06145C5.04252 8.93183 5.21546 8.85901 5.3958 8.85901Z" fill="black"/>
<path fill-rule="evenodd" clip-rule="evenodd" d="M10.033 1.94729H10.8353C11.3763 1.94729 11.8952 2.16575 12.2777 2.55461C12.6602 2.94347 12.8751 3.47087 12.8751 4.0208V9.47716C12.8751 9.85889 12.5707 10.1683 12.1952 10.1683C11.8197 10.1683 11.5153 9.85889 11.5153 9.47716V4.0208C11.5153 3.83749 11.4436 3.66169 11.3161 3.53207C11.1886 3.40245 11.0157 3.32963 10.8353 3.32963H10.1554V4.0208C10.1554 4.20411 10.0837 4.37992 9.95623 4.50954C9.82872 4.63916 9.65577 4.71198 9.47544 4.71198H5.3958C5.21546 4.71198 5.04252 4.63916 4.91501 4.50954C4.78749 4.37992 4.71586 4.20411 4.71586 4.0208V3.32963H4.03592C3.85558 3.32963 3.68264 3.40245 3.55512 3.53207C3.42761 3.66169 3.35597 3.83749 3.35597 4.0208V12.3149C3.35597 12.4982 3.42761 12.674 3.55512 12.8036C3.68264 12.9332 3.85558 13.0061 4.03592 13.0061H8.09027C8.46579 13.0061 8.77021 13.3155 8.77021 13.6972C8.77021 14.0789 8.46579 14.3884 8.09027 14.3884H4.03592C3.49492 14.3884 2.97608 14.1699 2.59354 13.7811C2.211 13.3922 1.99609 12.8648 1.99609 12.3149V4.0208C1.99609 3.47087 2.211 2.94347 2.59354 2.55461C2.97608 2.16575 3.49492 1.94729 4.03592 1.94729H4.83825C4.97853 1.54395 5.2381 1.1946 5.58138 0.947117C5.92465 0.699636 6.33483 0.566144 6.75568 0.564941H8.11556C8.5364 0.566144 8.94658 0.699636 9.28986 0.947117C9.63314 1.1946 9.89271 1.54395 10.033 1.94729ZM6.27489 2.14973C6.14737 2.27935 6.07574 2.45515 6.07574 2.63846V3.32963H8.7955V2.63846C8.7955 2.45515 8.72386 2.27935 8.59635 2.14973C8.46884 2.02011 8.29589 1.94729 8.11556 1.94729H6.75568C6.57535 1.94729 6.4024 2.02011 6.27489 2.14973Z" fill="black"/>
<path d="M5.3958 6.09432H9.47544C9.65577 6.09432 9.82872 6.16714 9.95623 6.29676C10.0837 6.42638 10.1554 6.60219 10.1554 6.7855C10.1554 6.96881 10.0837 7.14461 9.95623 7.27423C9.82872 7.40385 9.65577 7.47667 9.47544 7.47667H5.3958C5.21546 7.47667 5.04252 7.40385 4.91501 7.27423C4.78749 7.14461 4.71586 6.96881 4.71586 6.7855C4.71586 6.60219 4.78749 6.42638 4.91501 6.29676C5.04252 6.16714 5.21546 6.09432 5.3958 6.09432Z" fill="black"/>
<path fill-rule="evenodd" clip-rule="evenodd" d="M10.917 11.0289C10.4817 10.7776 9.9375 11.0917 9.9375 11.5944V14.7811C9.9375 15.2837 10.4817 15.5979 10.917 15.3466L13.6767 13.7532C14.112 13.5019 14.112 12.8736 13.6767 12.6222L10.917 11.0289Z" fill="black"/>
</svg>
