<svg width="16" height="16" viewBox="0 0 16 16" fill="none" xmlns="http://www.w3.org/2000/svg">
<path d="M2.58301 4H1.74967C1.51956 4 1.33301 4.17909 1.33301 4.4V5.2C1.33301 5.42091 1.51956 5.6 1.74967 5.6H2.58301C2.81313 5.6 2.99967 5.42091 2.99967 5.2V4.4C2.99967 4.17909 2.81313 4 2.58301 4Z" fill="black"/>
<path d="M2.58301 7.2H1.74967C1.51956 7.2 1.33301 7.37909 1.33301 7.6V8.4C1.33301 8.62091 1.51956 8.8 1.74967 8.8H2.58301C2.81313 8.8 2.99967 8.62091 2.99967 8.4V7.6C2.99967 7.37909 2.81313 7.2 2.58301 7.2Z" fill="black"/>
<path d="M2.58301 10.4H1.74967C1.51956 10.4 1.33301 10.5791 1.33301 10.8V11.6C1.33301 11.8209 1.51956 12 1.74967 12H2.58301C2.81313 12 2.99967 11.8209 2.99967 11.6V10.8C2.99967 10.5791 2.81313 10.4 2.58301 10.4Z" fill="black"/>
<path d="M13.833 5.6H5.49967C5.27866 5.6 5.0667 5.51571 4.91042 5.36569C4.75414 5.21566 4.66634 5.01217 4.66634 4.8C4.66634 4.58783 4.75414 4.38434 4.91042 4.23431C5.0667 4.08429 5.27866 4 5.49967 4H13.833C14.054 4 14.266 4.08429 14.4223 4.23431C14.5785 4.38434 14.6663 4.58783 14.6663 4.8C14.6663 5.01217 14.5785 5.21566 14.4223 5.36569C14.266 5.51571 14.054 5.6 13.833 5.6Z" fill="black"/>
<path d="M13.833 8.8H5.49967C5.27866 8.8 5.0667 8.71571 4.91042 8.56569C4.75414 8.41566 4.66634 8.21217 4.66634 8C4.66634 7.78783 4.75414 7.58434 4.91042 7.43431C5.0667 7.28429 5.27866 7.2 5.49967 7.2H13.833C14.054 7.2 14.266 7.28429 14.4223 7.43431C14.5785 7.58434 14.6663 7.78783 14.6663 8C14.6663 8.21217 14.5785 8.41566 14.4223 8.56569C14.266 8.71571 14.054 8.8 13.833 8.8Z" fill="black"/>
<path d="M13.833 12H5.49967C5.27866 12 5.0667 11.9157 4.91042 11.7657C4.75414 11.6157 4.66634 11.4122 4.66634 11.2C4.66634 10.9878 4.75414 10.7843 4.91042 10.6343C5.0667 10.4843 5.27866 10.4 5.49967 10.4H13.833C14.054 10.4 14.266 10.4843 14.4223 10.6343C14.5785 10.7843 14.6663 10.9878 14.6663 11.2C14.6663 11.4122 14.5785 11.6157 14.4223 11.7657C14.266 11.9157 14.054 12 13.833 12Z" fill="black"/>
</svg>
