<svg width="16" height="16" viewBox="0 0 16 16" fill="none" xmlns="http://www.w3.org/2000/svg">
<path fill-rule="evenodd" clip-rule="evenodd" d="M8.00033 2.66699C8.36852 2.66699 8.66699 2.96547 8.66699 3.33366V7.33366H12.667C13.0352 7.33366 13.3337 7.63214 13.3337 8.00033C13.3337 8.36852 13.0352 8.66699 12.667 8.66699H8.66699V12.667C8.66699 13.0352 8.36852 13.3337 8.00033 13.3337C7.63214 13.3337 7.33366 13.0352 7.33366 12.667V8.66699H3.33366C2.96547 8.66699 2.66699 8.36852 2.66699 8.00033C2.66699 7.63214 2.96547 7.33366 3.33366 7.33366H7.33366V3.33366C7.33366 2.96547 7.63214 2.66699 8.00033 2.66699Z" fill="black"/>
</svg>
