<svg width="16" height="16" viewBox="0 0 16 16" fill="none" xmlns="http://www.w3.org/2000/svg">
<g clip-path="url(#clip0_1816_5)">
<path d="M8.61279 2.20557L8.69484 2.21583C9.02303 2.2466 9.25891 2.28762 9.48454 2.34916C9.74094 2.41069 9.92554 2.49274 10.0691 2.58504C10.1819 2.65683 10.1819 2.67734 10.1819 2.73888C10.1819 3.7337 10.1819 4.73877 10.1819 5.73359C10.1819 5.89768 10.1717 6.02075 10.1614 6.12331C10.1409 6.25664 10.0999 6.2874 10.0486 6.32843C9.90503 6.42073 9.75119 6.46175 9.55633 6.46175C9.11533 6.46175 8.66407 6.46175 8.22307 6.46175H7.4026H6.57188H6.34625H6.25395H6.15139C5.9873 6.46175 5.80269 6.46175 5.58732 6.49252C4.62327 6.6361 3.85408 7.10787 3.3618 7.87706C3.0131 8.42062 2.82849 9.02572 2.81824 9.68209C2.81824 9.84618 2.81824 10.0103 2.80798 10.1744C2.76696 10.1436 2.71568 10.1026 2.65415 10.0308C2.50031 9.85644 2.39775 9.60004 2.29519 9.15904C2.27468 9.06674 2.26442 8.96418 2.24391 8.86162C2.23366 8.77958 2.2234 8.69753 2.21314 8.62574V7.36427V7.3335C2.2234 7.25145 2.23366 7.16941 2.25417 7.09762C2.32596 6.65661 2.43877 6.35919 2.59261 6.15408C2.74645 5.95922 2.87977 5.88743 3.11566 5.88743H4.32585H6.336H7.84361H7.93591C8.72561 5.88743 9.34096 5.27207 9.35122 4.48237V4.18495C9.35122 3.41577 8.75638 2.80041 7.98719 2.76965C7.99744 2.69786 7.99744 2.62606 7.99744 2.56453C7.99744 2.44146 7.97693 2.32865 7.95642 2.20557H8.61279ZM8.75638 0.872314C8.22307 0.872314 7.68977 0.872314 7.15646 0.872314C6.9616 0.892826 6.76674 0.923594 6.57188 0.944105C6.10011 1.0159 5.64885 1.12871 5.23862 1.37485C4.91043 1.57997 4.65404 1.82611 4.57199 2.20557C4.56173 2.26711 4.56173 2.32865 4.56173 2.39018C4.56173 2.90297 4.56173 3.41577 4.56173 3.93881C4.56173 4.09265 4.56173 4.10291 4.72583 4.10291C5.04376 4.10291 5.36169 4.10291 5.66937 4.10291C6.38728 4.10291 7.09493 4.10291 7.81284 4.10291C7.86412 4.10291 7.90514 4.10291 7.95642 4.10291C8.0077 4.10291 8.03847 4.13367 8.03847 4.18495C8.03847 4.27726 8.03847 4.37982 8.03847 4.47212C8.03847 4.5234 8.0077 4.55416 7.95642 4.55416C7.92565 4.55416 7.89489 4.55416 7.86412 4.55416C6.68469 4.55416 5.51553 4.55416 4.3361 4.55416C3.93613 4.55416 3.53615 4.55416 3.12591 4.55416C2.46954 4.55416 1.93624 4.82082 1.53626 5.34387C1.18756 5.78487 1.03372 6.31817 0.941418 6.87199C0.920906 7.00531 0.900395 7.13864 0.879883 7.26171C0.879883 7.75399 0.879883 8.23602 0.879883 8.7283C0.920906 8.97444 0.941418 9.22058 0.992697 9.46672C1.11577 9.98977 1.27986 10.4923 1.64907 10.9128C1.98751 11.2923 2.39775 11.5281 2.91054 11.5281C3.05412 11.5281 3.18745 11.5281 3.33103 11.5281C3.5464 11.5281 3.76178 11.5281 3.97715 11.5281C4.13099 11.5281 4.14124 11.5179 4.14124 11.364C4.14124 10.8102 4.13099 10.2667 4.14124 9.71286C4.16176 9.31288 4.26431 8.93341 4.47969 8.60523C4.77711 8.13346 5.21811 7.89757 5.76167 7.82578C5.88474 7.80527 6.01806 7.80527 6.14113 7.80527C6.20267 7.80527 6.27446 7.80527 6.336 7.80527C6.336 7.80527 6.336 7.80527 6.34625 7.80527C6.41804 7.80527 6.48983 7.80527 6.56162 7.80527C7.11544 7.80527 7.66926 7.80527 8.21282 7.80527C8.66407 7.80527 9.11533 7.80527 9.55633 7.80527C9.99734 7.80527 10.4178 7.69246 10.787 7.43606C11.1665 7.16941 11.3921 6.81045 11.4639 6.34894C11.4947 6.14382 11.5049 5.9387 11.5049 5.73359C11.5049 4.73877 11.5049 3.74395 11.5049 2.74914C11.5049 2.20558 11.2588 1.8056 10.8281 1.49792C10.5306 1.28255 10.1819 1.14922 9.82299 1.05692C9.4948 0.964617 9.15636 0.923594 8.82817 0.88257C8.80766 0.88257 8.77689 0.872314 8.75638 0.872314ZM6.0796 3.19014C5.74116 3.19014 5.4745 2.92348 5.4745 2.5953C5.4745 2.26711 5.74116 2.01071 6.06934 2.00046C6.0796 2.00046 6.0796 2.00046 6.08986 2.00046C6.38728 2.00046 6.67444 2.27737 6.67444 2.58504C6.67444 2.90297 6.39753 3.19014 6.0796 3.19014Z" fill="black"/>
<path d="M10.5925 11.4459C9.78225 11.4459 8.96179 11.4459 8.15157 11.4459C7.99774 11.4459 7.98748 11.4459 7.98748 11.61C7.98748 11.6613 7.98748 11.7126 7.98748 11.7638C7.98748 11.8869 7.99774 11.8972 8.12081 11.8972C9.15665 11.8972 10.2027 11.8972 11.2386 11.8972C11.4437 11.8972 11.4437 11.8972 11.4437 12.1125C11.4437 12.5843 11.4334 13.0458 11.4437 13.5176C11.454 13.9381 11.2694 14.256 10.9412 14.4919C10.6848 14.6765 10.3976 14.8098 10.0899 14.8919C9.49509 15.0662 8.87974 15.1278 8.26439 15.1278C8.03876 15.1278 7.82339 15.1278 7.59776 15.1278C7.12599 15.1175 6.65422 15.0662 6.19271 14.9432C5.81324 14.8508 5.46454 14.7073 5.14661 14.4816C4.73637 14.1842 4.49023 13.7945 4.49023 13.2714C4.49023 12.2151 4.49023 11.1587 4.49023 10.1024C4.49023 9.73318 4.55177 9.36397 4.74663 9.03578C4.90047 8.78964 5.09533 8.59478 5.35173 8.46145C5.74145 8.25634 6.17219 8.17429 6.6132 8.17429C7.70032 8.17429 8.78744 8.17429 9.87456 8.17429C10.3258 8.17429 10.7463 8.08199 11.1155 7.81533C11.3617 7.63073 11.5565 7.37433 11.6693 7.08717C11.7924 6.77949 11.8539 6.47182 11.8539 6.14363C11.8539 5.64109 11.8539 5.13856 11.8539 4.62577C11.8539 4.46167 11.8642 4.45142 12.018 4.45142C12.3872 4.45142 12.7565 4.45142 13.1257 4.45142C13.4744 4.45142 13.7923 4.58474 14.0589 4.80011C14.5102 5.15907 14.7563 5.64109 14.9102 6.18465C15.0538 6.67694 15.1153 7.16922 15.1153 7.68201C15.1153 7.93841 15.1256 8.20506 15.1153 8.46145C15.0948 9.09732 14.9717 9.71267 14.6846 10.287C14.4589 10.728 14.141 11.0664 13.6795 11.2716C13.4538 11.3741 13.218 11.4357 12.9718 11.4357C12.1924 11.4459 11.3924 11.4459 10.5925 11.4459ZM9.93609 13.9996C10.2745 13.9996 10.5412 13.7432 10.5412 13.415C10.5412 13.0766 10.2745 12.8099 9.94635 12.8099C9.61816 12.8099 9.34125 13.0868 9.34125 13.415C9.34125 13.7227 9.61816 13.9996 9.93609 13.9996Z" fill="black"/>
</g>
<defs>
<clipPath id="clip0_1816_5">
<rect width="16" height="16" fill="white"/>
</clipPath>
</defs>
</svg>
