<svg width="16" height="16" viewBox="0 0 16 16" fill="none" xmlns="http://www.w3.org/2000/svg">
<path d="M7.99968 1.33301C6.68113 1.33301 5.3922 1.724 4.29588 2.45654C3.19955 3.18909 2.34506 4.23028 1.84048 5.44845C1.3359 6.66662 1.20387 8.00707 1.46111 9.30027C1.71834 10.5935 2.35328 11.7814 3.28563 12.7137C4.21798 13.6461 5.40587 14.281 6.69907 14.5382C7.99228 14.7955 9.33272 14.6635 10.5509 14.1589C11.7691 13.6543 12.8103 12.7998 13.5428 11.7035C14.2753 10.6071 14.6663 9.31821 14.6663 7.99967C14.6644 6.23216 13.9614 4.53759 12.7116 3.28777C11.4618 2.03795 9.76719 1.33495 7.99968 1.33301V1.33301ZM7.99968 11.9997C7.86782 11.9997 7.73893 11.9606 7.6293 11.8873C7.51966 11.8141 7.43421 11.7099 7.38376 11.5881C7.3333 11.4663 7.3201 11.3323 7.34582 11.2029C7.37154 11.0736 7.43504 10.9548 7.52827 10.8616C7.62151 10.7684 7.7403 10.7049 7.86962 10.6791C7.99894 10.6534 8.13298 10.6666 8.2548 10.7171C8.37662 10.7675 8.48073 10.853 8.55399 10.9626C8.62724 11.0723 8.66634 11.2012 8.66634 11.333C8.66634 11.5098 8.5961 11.6794 8.47108 11.8044C8.34606 11.9294 8.17649 11.9997 7.99968 11.9997ZM8.66634 8.97701V9.33301C8.66634 9.50982 8.5961 9.67939 8.47108 9.80441C8.34606 9.92943 8.17649 9.99967 7.99968 9.99967C7.82287 9.99967 7.6533 9.92943 7.52827 9.80441C7.40325 9.67939 7.33301 9.50982 7.33301 9.33301V8.38767C7.333 8.2979 7.35113 8.20905 7.3863 8.12646C7.42147 8.04386 7.47296 7.96922 7.53768 7.90701C7.6019 7.84441 7.67829 7.79567 7.76212 7.76379C7.84594 7.73191 7.93542 7.71757 8.02501 7.72167C8.1539 7.72634 8.2824 7.70492 8.4028 7.6587C8.5232 7.61248 8.63302 7.5424 8.72567 7.45268C8.81832 7.36296 8.89188 7.25544 8.94195 7.13658C8.99201 7.01772 9.01754 6.88998 9.01701 6.76101C9.02726 6.49579 8.93174 6.23736 8.75146 6.04257C8.57117 5.84779 8.32089 5.73259 8.05568 5.72234C7.79046 5.71208 7.53203 5.80761 7.33724 5.98789C7.14246 6.16818 7.02726 6.41846 7.01701 6.68367C7.0149 6.77152 6.9952 6.85805 6.95907 6.93816C6.92294 7.01826 6.87112 7.0903 6.80667 7.15003C6.74221 7.20976 6.66644 7.25596 6.58383 7.2859C6.50121 7.31584 6.41343 7.32891 6.32568 7.32434C6.14918 7.3174 5.98265 7.2407 5.86265 7.11108C5.74265 6.98146 5.679 6.80952 5.68568 6.63301C5.7046 6.2043 5.84139 5.78912 6.08098 5.43312C6.32058 5.07712 6.65371 4.79408 7.04374 4.61514C7.43377 4.4362 7.8656 4.36828 8.29173 4.41885C8.71786 4.46942 9.12179 4.63653 9.4591 4.90179C9.79641 5.16705 10.054 5.5202 10.2037 5.92239C10.3533 6.32459 10.3891 6.76025 10.3071 7.18148C10.2252 7.6027 10.0287 7.99317 9.7392 8.30995C9.44973 8.62672 9.0785 8.85754 8.66634 8.97701Z" fill="black"/>
</svg>
