<svg width="16" height="16" viewBox="0 0 16 16" fill="none" xmlns="http://www.w3.org/2000/svg">
<path d="M13.3333 7.3335C12.9647 7.3335 12.6667 7.63216 12.6667 8.00016C12.6667 10.5735 10.5727 12.6668 8 12.6668C6.768 12.6668 5.602 12.1735 4.74067 11.3335H6.66667C7.03533 11.3335 7.33333 11.0348 7.33333 10.6668C7.33333 10.2988 7.03533 10.0002 6.66667 10.0002H3.502C3.37 9.97283 3.232 9.98883 3.10067 10.0468C3.08867 10.0515 3.076 10.0535 3.064 10.0588C3.05533 10.0635 3.046 10.0628 3.03733 10.0675C3.01933 10.0782 3.00933 10.0955 2.992 10.1068C2.80067 10.2248 2.66667 10.4262 2.66667 10.6668V14.0002C2.66667 14.3682 2.96467 14.6668 3.33333 14.6668C3.702 14.6668 4 14.3682 4 14.0002V12.4535C5.08667 13.4275 6.50333 14.0002 8 14.0002C11.3087 14.0002 14 11.3082 14 8.00016C14 7.63216 13.702 7.3335 13.3333 7.3335Z" fill="black"/>
<path d="M3.33333 8.00016C3.33333 5.42683 5.42733 3.3335 8 3.3335C9.232 3.3335 10.398 3.82683 11.2593 4.66683H9.33333C8.96467 4.66683 8.66667 4.9655 8.66667 5.3335C8.66667 5.7015 8.96467 6.00016 9.33333 6.00016H12.4967C12.6293 6.02816 12.7687 6.0115 12.9 5.95283C12.912 5.94816 12.9247 5.94616 12.9367 5.94083C12.9453 5.93616 12.9547 5.93683 12.9633 5.93216C12.9813 5.9215 12.9913 5.90416 13.0087 5.89283C13.1993 5.7755 13.3333 5.57416 13.3333 5.3335V2.00016C13.3333 1.63216 13.0353 1.3335 12.6667 1.3335C12.298 1.3335 12 1.63216 12 2.00016V3.54683C10.9133 2.57283 9.49667 2.00016 8 2.00016C4.69133 2.00016 2 4.69216 2 8.00016C2 8.36816 2.298 8.66683 2.66667 8.66683C3.03533 8.66683 3.33333 8.36816 3.33333 8.00016Z" fill="black"/>
</svg>
