<svg width="16" height="16" viewBox="0 0 16 16" fill="none" xmlns="http://www.w3.org/2000/svg">
<path fill-rule="evenodd" clip-rule="evenodd" d="M7.99971 5.01763C6.34285 5.01763 4.99971 6.36077 4.99971 8.01763C4.99971 9.67448 6.34285 11.0176 7.99971 11.0176C9.65656 11.0176 10.9997 9.67448 10.9997 8.01763C10.9997 6.36077 9.65656 5.01763 7.99971 5.01763ZM6.33304 8.01763C6.33304 7.09715 7.07923 6.35096 7.99971 6.35096C8.92018 6.35096 9.66637 7.09715 9.66637 8.01763C9.66637 8.9381 8.92018 9.68429 7.99971 9.68429C7.07923 9.68429 6.33304 8.9381 6.33304 8.01763Z" fill="black"/>
<path fill-rule="evenodd" clip-rule="evenodd" d="M6.90767 1.63698C6.76375 1.35486 6.4412 1.21294 6.13597 1.29743C5.04333 1.59989 4.05927 2.16121 3.25366 2.91029C3.03798 3.11084 2.97945 3.42915 3.10968 3.6933C3.18969 3.85561 3.23496 4.03851 3.23496 4.23388C3.23496 4.91028 2.68662 5.45862 2.01022 5.45862L1.99319 5.4585C1.69848 5.45429 1.43598 5.64411 1.34765 5.92531C1.14001 6.58636 1.02832 7.28911 1.02832 8.01668C1.02832 8.4969 1.07697 8.9664 1.16982 9.42038C1.23824 9.7549 1.54835 9.98365 1.88816 9.95026C1.92829 9.94632 1.969 9.94429 2.01022 9.94429C2.68662 9.94429 3.23496 10.4926 3.23496 11.169C3.23496 11.4703 3.12702 11.7447 2.94694 11.9581C2.72674 12.2191 2.73933 12.6042 2.97611 12.8503C3.79871 13.705 4.83832 14.351 6.00749 14.699C6.35538 14.8026 6.7222 14.6088 6.83273 14.2631C6.99081 13.7686 7.45445 13.4119 7.99966 13.4119C8.54487 13.4119 9.00851 13.7686 9.16659 14.2631C9.27712 14.6088 9.64394 14.8026 9.99183 14.699C11.161 14.351 12.2006 13.705 13.0232 12.8503C13.26 12.6042 13.2726 12.2191 13.0524 11.9581C12.8723 11.7447 12.7644 11.4703 12.7644 11.169C12.7644 10.4926 13.3127 9.94429 13.9891 9.94429C14.0303 9.94429 14.071 9.94632 14.1112 9.95026C14.451 9.98365 14.7611 9.7549 14.8295 9.42038C14.9223 8.9664 14.971 8.4969 14.971 8.01668C14.971 7.2891 14.8593 6.58635 14.6517 5.92532C14.5633 5.64411 14.3008 5.45429 14.0061 5.4585L13.9891 5.45862C13.3127 5.45862 12.7644 4.91028 12.7644 4.23388C12.7644 4.03851 12.8096 3.85561 12.8896 3.6933C13.0199 3.42915 12.9613 3.11084 12.7457 2.91029C11.94 2.16121 10.956 1.59989 9.86335 1.29743C9.55812 1.21294 9.23558 1.35486 9.09165 1.63698C8.88826 2.03564 8.47498 2.30629 7.99966 2.30629C7.52434 2.30629 7.11106 2.03564 6.90767 1.63698ZM4.56829 4.23388C4.56829 4.01695 4.54115 3.80583 4.48999 3.60398C4.95367 3.23463 5.47651 2.93708 6.04173 2.72775C6.51047 3.28467 7.21327 3.63962 7.99966 3.63962C8.78605 3.63962 9.48885 3.28467 9.95759 2.72775C10.5228 2.93708 11.0457 3.23463 11.5093 3.60398C11.4582 3.80583 11.431 4.01695 11.431 4.23388C11.431 5.47713 12.3179 6.51323 13.4936 6.74399C13.5878 7.1525 13.6377 7.57842 13.6377 8.01668C13.6377 8.22748 13.6261 8.43537 13.6037 8.6398C12.3738 8.82566 11.431 9.88725 11.431 11.169C11.431 11.5679 11.5227 11.946 11.6858 12.2829C11.2284 12.6786 10.7069 13.0016 10.1395 13.2346C9.68266 12.5387 8.89544 12.0785 7.99966 12.0785C7.10388 12.0785 6.31666 12.5387 5.85985 13.2346C5.29239 13.0016 4.77097 12.6786 4.31351 12.2829C4.47667 11.946 4.56829 11.5679 4.56829 11.169C4.56829 9.88725 3.62556 8.82566 2.39564 8.6398C2.37319 8.43537 2.36165 8.22748 2.36165 8.01668C2.36165 7.57842 2.41154 7.15249 2.50574 6.74399C3.68138 6.51323 4.56829 5.47713 4.56829 4.23388Z" fill="black"/>
</svg>
