<svg width="16" height="16" viewBox="0 0 16 16" fill="none" xmlns="http://www.w3.org/2000/svg">
<g clip-path="url(#clip0_360_19022)">
<path fill-rule="evenodd" clip-rule="evenodd" d="M8.00033 5.33366C7.29308 5.33366 6.6148 5.61461 6.11471 6.11471C5.61461 6.6148 5.33366 7.29308 5.33366 8.00033C5.33366 8.70757 5.61461 9.38585 6.11471 9.88594C6.6148 10.386 7.29308 10.667 8.00033 10.667C8.70757 10.667 9.38585 10.386 9.88594 9.88594C10.386 9.38585 10.667 8.70757 10.667 8.00033C10.667 7.29308 10.386 6.6148 9.88594 6.11471C9.38585 5.61461 8.70757 5.33366 8.00033 5.33366ZM7.05752 7.05752C7.30756 6.80747 7.6467 6.66699 8.00033 6.66699C8.35395 6.66699 8.69309 6.80747 8.94313 7.05752C9.19318 7.30756 9.33366 7.6467 9.33366 8.00033C9.33366 8.35395 9.19318 8.69309 8.94313 8.94313C8.69309 9.19318 8.35395 9.33366 8.00033 9.33366C7.6467 9.33366 7.30756 9.19318 7.05752 8.94313C6.80747 8.69309 6.66699 8.35395 6.66699 8.00033C6.66699 7.6467 6.80747 7.30756 7.05752 7.05752Z" fill="black"/>
<path fill-rule="evenodd" clip-rule="evenodd" d="M7.32099 0.666992C7.01816 0.666992 6.75337 0.871101 6.67629 1.16396L6.33845 2.44742L5.26509 2.8999L4.44345 2.16891C4.17965 1.93421 3.7786 1.94591 3.52892 2.19559L2.19559 3.52892C1.95405 3.77046 1.93415 4.15548 2.1495 4.42062L2.86959 5.30723L2.42802 6.39358L1.18209 6.68445C0.880406 6.75488 0.666992 7.02386 0.666992 7.33366V8.66699C0.666992 8.96761 0.868184 9.23104 1.1582 9.31015L2.44599 9.66147L2.89969 10.7377L2.16943 11.5566C1.93422 11.8204 1.9457 12.2218 2.19559 12.4717L3.52892 13.8051C3.77078 14.0469 4.15644 14.0665 4.42156 13.8504L5.30785 13.1279L6.36749 13.5638L6.68728 14.8302C6.76203 15.1262 7.02833 15.3337 7.33366 15.3337H8.66699C8.97219 15.3337 9.23842 15.1264 9.31329 14.8305L9.63388 13.5636L10.729 13.11C10.8392 13.2024 10.9656 13.3109 11.0914 13.4204C11.2163 13.5293 11.3325 13.6318 11.4175 13.7072C11.4599 13.7449 11.4945 13.7757 11.5184 13.7971L11.5546 13.8294C11.8183 14.066 12.2213 14.0555 12.4717 13.8051L13.8051 12.4717C14.0504 12.2264 14.0665 11.8338 13.8421 11.5691L13.1159 10.7128L13.5653 9.62741L14.8347 9.29756C15.1285 9.22121 15.3337 8.95594 15.3337 8.65232V7.33366C15.3337 7.02878 15.1268 6.76275 14.8314 6.68757L13.5698 6.36662L13.1216 5.28388L13.8428 4.43069C14.0665 4.16599 14.0501 3.774 13.8051 3.52892L12.4717 2.19559C12.2257 1.94951 11.8317 1.93411 11.5672 2.16022L10.7203 2.88411L9.59939 2.42325L9.26842 1.16417C9.19141 0.87121 8.92657 0.666992 8.62366 0.666992H7.32099ZM12.428 11.9631L11.9719 12.4192L11.9669 12.4149C11.7207 12.2005 11.4036 11.9292 11.2247 11.8013C11.0375 11.6675 10.7945 11.6397 10.5819 11.7277L8.81455 12.4597C8.62004 12.5403 8.47501 12.708 8.42336 12.9121L8.14801 14.0003H7.85291L7.57804 12.9118C7.52632 12.707 7.38062 12.5388 7.18528 12.4585L5.44794 11.7438C5.22172 11.6507 4.9627 11.689 4.77309 11.8436L4.04588 12.4364L3.5836 11.9741L4.17522 11.3107C4.34649 11.1186 4.39193 10.8452 4.29197 10.608L3.54864 8.84469C3.46911 8.65603 3.3073 8.51438 3.10978 8.46049L2.00033 8.15783V7.86261L3.06722 7.61353C3.27799 7.56433 3.45176 7.41587 3.53326 7.21536L4.25325 5.44403C4.34483 5.21874 4.30646 4.96146 4.15315 4.7727L3.56347 4.04666L4.02705 3.58308L4.6932 4.17574C4.88525 4.3466 5.15842 4.39182 5.39529 4.29197L7.15862 3.54864C7.34921 3.4683 7.49172 3.30404 7.54436 3.10403L7.83488 2.00033H8.10959L8.39423 3.08315C8.44736 3.28526 8.59219 3.45077 8.78548 3.53024L10.5901 4.27224C10.8215 4.36737 11.0867 4.32497 11.2768 4.16243L11.9649 3.57433L12.4287 4.0382L11.8412 4.73329C11.6802 4.92377 11.639 5.1882 11.7344 5.41865L12.4657 7.18532C12.5461 7.37961 12.7135 7.52456 12.9173 7.57641L14.0003 7.85195V8.13675L12.9087 8.42042C12.7063 8.473 12.5403 8.61746 12.4604 8.81063L11.7284 10.5786C11.6328 10.8094 11.6743 11.0743 11.8359 11.2648L12.428 11.9631Z" fill="black"/>
</g>
<defs>
<clipPath id="clip0_360_19022">
<rect width="16" height="16" fill="white"/>
</clipPath>
</defs>
</svg>
