<svg width="16" height="16" viewBox="0 0 16 16" fill="none" xmlns="http://www.w3.org/2000/svg">
<path d="M13.3333 4.14003H10.6667V2.73652C10.6667 2.36428 10.5262 2.00729 10.2761 1.74409C10.0261 1.48088 9.68696 1.33301 9.33333 1.33301H6.66667C6.31304 1.33301 5.97391 1.48088 5.72386 1.74409C5.47381 2.00729 5.33333 2.36428 5.33333 2.73652V4.14003H2.66667C2.48986 4.14003 2.32029 4.21396 2.19526 4.34556C2.07024 4.47717 2 4.65566 2 4.84178C2 5.0279 2.07024 5.20639 2.19526 5.33799C2.32029 5.4696 2.48986 5.54353 2.66667 5.54353H3.33333V13.2628C3.33333 13.6351 3.47381 13.9921 3.72386 14.2553C3.97391 14.5185 4.31304 14.6663 4.66667 14.6663H11.3333C11.687 14.6663 12.0261 14.5185 12.2761 14.2553C12.5262 13.9921 12.6667 13.6351 12.6667 13.2628V5.54353H13.3333C13.5101 5.54353 13.6797 5.4696 13.8047 5.33799C13.9298 5.20639 14 5.0279 14 4.84178C14 4.65566 13.9298 4.47717 13.8047 4.34556C13.6797 4.21396 13.5101 4.14003 13.3333 4.14003ZM6.66667 2.73652H9.33333V4.14003H6.66667V2.73652ZM11.3333 13.2628H4.66667V5.54353H11.3333V13.2628Z" fill="black"/>
<path d="M6.66667 6.24529C6.48986 6.24529 6.32029 6.31922 6.19526 6.45083C6.07024 6.58243 6 6.76093 6 6.94704V11.8593C6 12.0454 6.07024 12.2239 6.19526 12.3555C6.32029 12.4871 6.48986 12.5611 6.66667 12.5611C6.84348 12.5611 7.01305 12.4871 7.13807 12.3555C7.2631 12.2239 7.33333 12.0454 7.33333 11.8593V6.94704C7.33333 6.76093 7.2631 6.58243 7.13807 6.45083C7.01305 6.31922 6.84348 6.24529 6.66667 6.24529Z" fill="black"/>
<path d="M9.33333 6.24529C9.15652 6.24529 8.98695 6.31922 8.86193 6.45083C8.7369 6.58243 8.66667 6.76093 8.66667 6.94704V11.8593C8.66667 12.0454 8.7369 12.2239 8.86193 12.3555C8.98695 12.4871 9.15652 12.5611 9.33333 12.5611C9.51014 12.5611 9.67971 12.4871 9.80474 12.3555C9.92976 12.2239 10 12.0454 10 11.8593V6.94704C10 6.76093 9.92976 6.58243 9.80474 6.45083C9.67971 6.31922 9.51014 6.24529 9.33333 6.24529Z" fill="black"/>
</svg>
