<svg width="16" height="16" viewBox="0 0 16 16" fill="none" xmlns="http://www.w3.org/2000/svg">
<path d="M12.5509 5.53605L13.2082 4.88591C13.3443 4.74988 13.4207 4.56538 13.4207 4.37301C13.4207 4.18064 13.3443 3.99614 13.2082 3.86012C13.0722 3.72409 12.8877 3.64767 12.6953 3.64767C12.503 3.64767 12.3185 3.72409 12.1824 3.86012L11.5323 4.51749C10.5199 3.73432 9.27616 3.30939 7.9962 3.30939C6.71625 3.30939 5.47251 3.73432 4.46012 4.51749L3.80275 3.85289C3.66576 3.71686 3.48035 3.64083 3.2873 3.6415C3.09425 3.64218 2.90938 3.71952 2.77335 3.8565C2.63732 3.99349 2.56128 4.1789 2.56196 4.37195C2.56264 4.565 2.63997 4.74988 2.77696 4.88591L3.44156 5.54328C2.64911 6.55285 2.21913 7.79954 2.22072 9.08297C2.21836 10.0043 2.43633 10.9129 2.85644 11.7329C3.27655 12.5529 3.88663 13.2605 4.6358 13.7969C5.38497 14.3332 6.25151 14.6826 7.16315 14.816C8.0748 14.9494 9.00513 14.8628 9.87654 14.5636C10.748 14.2644 11.5352 13.7612 12.1726 13.0959C12.8101 12.4307 13.2792 11.6226 13.5409 10.7392C13.8026 9.85584 13.8493 8.92267 13.677 8.01755C13.5048 7.11244 13.1187 6.26162 12.5509 5.53605V5.53605ZM7.99982 13.4173C7.14257 13.4173 6.30457 13.1631 5.5918 12.6868C4.87902 12.2106 4.32348 11.5336 3.99543 10.7416C3.66737 9.94965 3.58154 9.07816 3.74878 8.23739C3.91602 7.39661 4.32882 6.62431 4.93499 6.01815C5.54115 5.41198 6.31346 4.99918 7.15423 4.83194C7.99501 4.66469 8.8665 4.75053 9.65849 5.07858C10.4505 5.40664 11.1274 5.96218 11.6037 6.67495C12.0799 7.38773 12.3341 8.22573 12.3341 9.08297C12.3341 10.2325 11.8775 11.335 11.0646 12.1478C10.2518 12.9606 9.14935 13.4173 7.99982 13.4173ZM6.55504 2.58149H9.44459C9.63618 2.58149 9.81992 2.50538 9.95539 2.36991C10.0909 2.23444 10.167 2.05069 10.167 1.85911C10.167 1.66752 10.0909 1.48377 9.95539 1.3483C9.81992 1.21283 9.63618 1.13672 9.44459 1.13672H6.55504C6.36345 1.13672 6.17971 1.21283 6.04424 1.3483C5.90876 1.48377 5.83266 1.66752 5.83266 1.85911C5.83266 2.05069 5.90876 2.23444 6.04424 2.36991C6.17971 2.50538 6.36345 2.58149 6.55504 2.58149V2.58149ZM8.7222 6.91581C8.7222 6.72422 8.64609 6.54048 8.51062 6.40501C8.37515 6.26953 8.19141 6.19343 7.99982 6.19343C7.80823 6.19343 7.62449 6.26953 7.48901 6.40501C7.35354 6.54048 7.27743 6.72422 7.27743 6.91581V8.28112C7.11386 8.42743 6.99857 8.61994 6.94681 8.8332C6.89505 9.04646 6.90926 9.27042 6.98757 9.47542C7.06587 9.68043 7.20458 9.85683 7.38533 9.98127C7.56608 10.1057 7.78036 10.1724 7.99982 10.1724C8.21927 10.1724 8.43355 10.1057 8.6143 9.98127C8.79506 9.85683 8.93376 9.68043 9.01207 9.47542C9.09037 9.27042 9.10459 9.04646 9.05283 8.8332C9.00107 8.61994 8.88577 8.42743 8.7222 8.28112V6.91581Z" fill="black"/>
</svg>
