<svg width="25" height="25" viewBox="0 0 25 25" fill="none" xmlns="http://www.w3.org/2000/svg">
<mask id="mask0_331_1428" style="mask-type:alpha" maskUnits="userSpaceOnUse" x="0" y="0" width="25" height="25">
<rect x="0.118896" y="0.0263672" width="24" height="24" fill="#DCDCDC"/>
</mask>
<g mask="url(#mask0_331_1428)">
<path fill-rule="evenodd" clip-rule="evenodd" d="M17.367 17.7335L19.826 15.2744C20.0135 15.0869 20.1189 14.8325 20.1189 14.5673L20.1189 7.02637C20.1189 6.47408 19.6712 6.02637 19.1189 6.02637L5.1189 6.02637C4.56661 6.02637 4.1189 6.47408 4.1189 7.02637L4.1189 17.0264C4.1189 17.5787 4.56661 18.0264 5.11889 18.0264L16.6599 18.0264C16.9251 18.0264 17.1794 17.921 17.367 17.7335ZM18.7812 19.1477C18.2186 19.7103 17.4555 20.0264 16.6599 20.0264L5.11889 20.0264C3.46204 20.0264 2.1189 18.6832 2.1189 17.0264L2.1189 7.02637C2.1189 5.36951 3.46204 4.02637 5.1189 4.02637L19.1189 4.02637C20.7758 4.02637 22.1189 5.36951 22.1189 7.02637L22.1189 14.5673C22.1189 15.3629 21.8028 16.126 21.2402 16.6886L18.7812 19.1477Z" fill="#35322B"/>
<path fill-rule="evenodd" clip-rule="evenodd" d="M18.1189 11.0264L20.1189 11.0264L20.1189 13.0264L18.1189 13.0264L18.1189 11.0264ZM10.1189 11.0264L14.1189 11.0264L14.1189 13.0264L10.1189 13.0264L10.1189 11.0264ZM4.1189 11.0264L6.1189 11.0264L6.1189 13.0264L4.1189 13.0264L4.1189 11.0264Z" fill="#409F11"/>
</g>
</svg>
