<svg width="25" height="25" viewBox="0 0 25 25" fill="none" xmlns="http://www.w3.org/2000/svg">
<mask id="mask0_331_1423" style="mask-type:alpha" maskUnits="userSpaceOnUse" x="0" y="0" width="25" height="25">
<rect x="0.623962" y="0.0263672" width="24" height="24" fill="#DCDCDC"/>
</mask>
<g mask="url(#mask0_331_1423)">
<path fill-rule="evenodd" clip-rule="evenodd" d="M18.3311 6.77829L15.872 4.31926C15.6845 4.13172 15.4301 4.02637 15.1649 4.02637H7.62396C7.07168 4.02637 6.62396 4.47408 6.62396 5.02637V19.0264C6.62396 19.5787 7.07168 20.0264 7.62396 20.0264H17.624C18.1762 20.0264 18.624 19.5787 18.624 19.0264V7.4854C18.624 7.22018 18.5186 6.96583 18.3311 6.77829ZM19.7453 5.36407C20.3079 5.92668 20.624 6.68975 20.624 7.4854V19.0264C20.624 20.6832 19.2808 22.0264 17.624 22.0264H7.62396C5.96711 22.0264 4.62396 20.6832 4.62396 19.0264V5.02637C4.62396 3.36951 5.96711 2.02637 7.62396 2.02637H15.1649C15.9605 2.02637 16.7236 2.34243 17.2862 2.90503L19.7453 5.36407Z" fill="#35322B"/>
<path fill-rule="evenodd" clip-rule="evenodd" d="M11.624 6.02637V4.02637H13.624V6.02637H11.624ZM11.624 14.0264V10.0264H13.624V14.0264H11.624ZM11.624 20.0264V18.0264H13.624V20.0264H11.624Z" fill="#409F11"/>
</g>
</svg>
