<svg width="41" height="41" viewBox="0 0 41 41" fill="none" xmlns="http://www.w3.org/2000/svg">
<mask id="mask0_73_13" style="mask-type:alpha" maskUnits="userSpaceOnUse" x="0" y="0" width="41" height="41">
<rect x="0.106506" y="0.148193" width="40" height="40" fill="#D9D9D9"/>
</mask>
<g mask="url(#mask0_73_13)">
<path fill-rule="evenodd" clip-rule="evenodd" d="M28.0504 21.7918L27.591 21.7235L27.1317 21.7918C27.4311 21.7006 27.751 21.7006 28.0504 21.7918ZM27.591 37.4791L26.7697 37.2493L26.7652 37.2466L26.7575 37.2418L26.7361 37.2284C26.7192 37.2178 26.6971 37.2037 26.6702 37.1863C26.6164 37.1513 26.5432 37.1025 26.4534 37.04C26.2739 36.9149 26.0271 36.7341 25.7356 36.4971C25.1541 36.0245 24.3849 35.3209 23.6153 34.3828C22.0743 32.5042 20.5004 29.6416 20.5004 25.8202C20.5004 25.3347 20.6964 24.968 20.8416 24.7578C20.9909 24.5416 21.1641 24.3776 21.301 24.2629C21.5747 24.0335 21.9008 23.839 22.1963 23.6814C22.8022 23.3583 23.5654 23.0414 24.2726 22.772C24.9918 22.498 25.7053 22.2536 26.2353 22.0786C26.5013 21.9907 26.7234 21.9197 26.8798 21.8703C26.958 21.8456 27.0199 21.8263 27.0628 21.8131L27.1125 21.7977L27.1317 21.7918L27.591 21.7235C27.6113 21.7235 28.0504 21.7918 28.0504 21.7918L28.0696 21.7977L28.1193 21.8131C28.1622 21.8263 28.2241 21.8456 28.3023 21.8703C28.4587 21.9197 28.6807 21.9907 28.9467 22.0786C29.4768 22.2536 30.1902 22.498 30.9094 22.772C31.6166 23.0414 32.3798 23.3583 32.9858 23.6814C33.2813 23.839 33.6074 24.0335 33.8811 24.2629C34.018 24.3776 34.1911 24.5416 34.3405 24.7578C34.4857 24.968 34.6817 25.3347 34.6817 25.8202C34.6817 29.6416 33.1078 32.5042 31.5667 34.3828C30.7972 35.3209 30.028 36.0245 29.4465 36.4971C29.1549 36.7341 28.9081 36.9149 28.7287 37.04C28.6388 37.1025 28.5656 37.1513 28.5119 37.1863C28.485 37.2037 28.4629 37.2178 28.446 37.2284L28.4246 37.2418L28.4168 37.2466L28.4137 37.2485L27.591 37.4791ZM27.591 37.4791L26.7697 37.2493C27.2734 37.5563 27.9101 37.5555 28.4137 37.2485L27.591 37.4791ZM27.591 33.9425C27.1556 33.5771 26.6036 33.0568 26.0518 32.3842C24.9274 31.0134 23.831 29.0474 23.6716 26.4662L23.6793 26.462C24.1075 26.2337 24.723 25.9728 25.3945 25.717C26.0541 25.4657 26.7193 25.2375 27.2233 25.0711C27.3595 25.0261 27.4832 24.9859 27.591 24.9512C27.6989 24.9859 27.8226 25.0261 27.9588 25.0711C28.4628 25.2375 29.128 25.4657 29.7876 25.717C30.4591 25.9728 31.0746 26.2337 31.5028 26.462L31.5105 26.4662C31.351 29.0474 30.2547 31.0134 29.1303 32.3842C28.5785 33.0568 28.0265 33.5771 27.591 33.9425Z" fill="#E5E5E5"/>
<path fill-rule="evenodd" clip-rule="evenodd" d="M8.68282 2.81543C6.94236 2.81543 5.53143 4.22635 5.53143 5.96681V34.3293C5.53143 36.0698 6.94237 37.4806 8.68282 37.4806H18.137C19.0072 37.4806 19.7127 36.7752 19.7127 35.905C19.7127 35.0347 19.0072 34.3293 18.137 34.3293H8.68282V5.96681H22.864V12.2696C22.864 13.1398 23.5695 13.8453 24.4397 13.8453H30.7425V19.3602C30.7425 20.2304 31.448 20.9359 32.3182 20.9359C33.1884 20.9359 33.8939 20.2304 33.8939 19.3602V12.2696C33.8939 11.8621 33.7392 11.4907 33.4853 11.211L26.3988 3.33704C26.1 3.00502 25.6743 2.81543 25.2276 2.81543H8.68282ZM26.0154 7.62192V10.6939H28.7802L26.0154 7.62192Z" fill="black"/>
</g>
</svg>
