<svg width="41" height="41" viewBox="0 0 41 41" fill="none" xmlns="http://www.w3.org/2000/svg">
<mask id="mask0_73_38" style="mask-type:alpha" maskUnits="userSpaceOnUse" x="0" y="0" width="41" height="41">
<rect x="0.164368" y="0.148193" width="40" height="40" fill="#D9D9D9"/>
</mask>
<g mask="url(#mask0_73_38)">
<path d="M28.3212 4.34802C29.1793 4.34802 29.8749 5.03106 29.8749 5.87364V30.7389L33.4374 27.2409C34.0441 26.6451 35.0278 26.6451 35.6346 27.2409C36.2413 27.8367 36.2413 28.8026 35.6346 29.3984L29.4199 35.5009C28.8131 36.0967 27.8294 36.0967 27.2226 35.5009L21.0079 29.3984C20.4011 28.8026 20.4011 27.8367 21.0079 27.2409C21.6146 26.6451 22.5984 26.6451 23.2051 27.2409L26.7675 30.7389V5.87364C26.7675 5.03106 27.4632 4.34802 28.3212 4.34802Z" fill="black"/>
<path d="M4.23912 22.2175C4.23912 23.0601 4.93473 23.7431 5.7928 23.7431H14.4714L4.69418 33.3436C4.24983 33.78 4.11691 34.4362 4.35739 35.0062C4.59787 35.5763 5.1644 35.948 5.7928 35.948H18.2223C19.0804 35.948 19.776 35.265 19.776 34.4224C19.776 33.5798 19.0804 32.8968 18.2223 32.8968H9.54373L19.3209 23.2962C19.7653 22.8599 19.8982 22.2037 19.6577 21.6336C19.4172 21.0636 18.8507 20.6919 18.2223 20.6919H5.7928C4.93473 20.6919 4.23912 21.3749 4.23912 22.2175Z" fill="black"/>
<path fill-rule="evenodd" clip-rule="evenodd" d="M13.6212 5.21038C13.3653 4.68994 12.832 4.35614 12.2435 4.34817C11.655 4.3402 11.1124 4.65942 10.842 5.17273L4.41295 17.3777C4.01873 18.1261 4.317 19.0466 5.07916 19.4337C5.84132 19.8207 6.77875 19.5279 7.17297 18.7795L8.93284 15.4385H15.1151C15.143 15.4385 15.1707 15.4378 15.1982 15.4364L16.8233 18.7418C17.1963 19.5006 18.1252 19.8188 18.8979 19.4525C19.6706 19.0862 19.9947 18.1741 19.6216 17.4153L13.6212 5.21038ZM13.6991 12.3873L12.1741 9.28535L10.5401 12.3873H13.6991Z" fill="#E5E5E5"/>
</g>
</svg>
