<svg width="41" height="41" viewBox="0 0 41 41" fill="none" xmlns="http://www.w3.org/2000/svg">
<mask id="mask0_73_18" style="mask-type:alpha" maskUnits="userSpaceOnUse" x="0" y="0" width="41" height="41">
<rect x="0.0349731" y="0.148193" width="40" height="40" fill="#D9D9D9"/>
</mask>
<g mask="url(#mask0_73_18)">
<path d="M19.3616 37.123C16.5161 37.1228 13.7163 36.4074 11.2196 35.0424C8.72293 33.6775 6.6094 31.7068 5.07335 29.3116C3.53729 26.9163 2.628 24.1734 2.42906 21.3349C2.23011 18.4964 2.7479 15.6534 3.93483 13.0673C5.12176 10.4812 6.93973 8.23497 9.22164 6.53509C11.5035 4.83521 14.1761 3.73623 16.9938 3.33918C19.8114 2.94212 22.6836 3.25973 25.3464 4.2628C28.0092 5.26588 30.3771 6.92224 32.2325 9.07961C32.3651 9.23365 32.466 9.4123 32.5296 9.60534C32.5931 9.79839 32.618 10.0021 32.6028 10.2047C32.5877 10.4074 32.5327 10.6051 32.4411 10.7865C32.3495 10.968 32.2231 11.1296 32.0691 11.2622C31.9151 11.3947 31.7364 11.4957 31.5434 11.5592C31.3503 11.6228 31.1466 11.6476 30.944 11.6325C30.7413 11.6173 30.5436 11.5623 30.3622 11.4708C30.1807 11.3792 30.0191 11.2528 29.8865 11.0987C28.0081 8.91462 25.4966 7.36915 22.7003 6.67668C19.904 5.9842 16.9615 6.17905 14.2809 7.23418C11.6003 8.28932 9.31452 10.1525 7.74049 12.5652C6.16646 14.9779 5.38224 17.8207 5.49657 20.6992C5.61091 23.5777 6.61815 26.3493 8.3786 28.6295C10.139 30.9098 12.5654 32.5858 15.3213 33.425C18.0771 34.2642 21.0258 34.225 23.7583 33.3129C26.4909 32.4008 28.8719 30.661 30.5712 28.3348C30.6884 28.1642 30.8387 28.0189 31.0131 27.9074C31.1875 27.796 31.3825 27.7206 31.5866 27.6859C31.7906 27.6511 31.9996 27.6577 32.2011 27.7052C32.4025 27.7526 32.5924 27.84 32.7595 27.9622C32.9266 28.0844 33.0675 28.2388 33.1738 28.4164C33.2801 28.594 33.3497 28.7912 33.3785 28.9961C33.4072 29.2011 33.3946 29.4098 33.3413 29.6098C33.2879 29.8098 33.195 29.997 33.068 30.1605C31.4887 32.3138 29.4254 34.0658 27.0446 35.2752C24.6637 36.4846 22.032 37.1176 19.3616 37.123Z" fill="black"/>
<path d="M21.0805 28.6873C20.8487 28.6873 20.6198 28.6365 20.4098 28.5385C20.1998 28.4406 20.0139 28.2978 19.865 28.1202L16.1352 23.6746C15.8963 23.3874 15.7664 23.0251 15.7684 22.6515L15.812 13.1913C15.812 12.7706 15.9791 12.3671 16.2766 12.0696C16.5741 11.7721 16.9776 11.605 17.3983 11.605C17.819 11.605 18.2225 11.7721 18.52 12.0696C18.8175 12.3671 18.9846 12.7706 18.9846 13.1913L18.941 22.0884L22.2979 26.0838C22.4925 26.3151 22.617 26.5972 22.6566 26.8968C22.6963 27.1965 22.6495 27.5012 22.5218 27.7752C22.3941 28.0492 22.1908 28.2809 21.9358 28.4432C21.6808 28.6055 21.3847 28.6916 21.0825 28.6913L21.0805 28.6873ZM36.0967 18.6164H25.3753C24.9547 18.6163 24.5513 18.4491 24.2538 18.1517C23.9564 17.8542 23.7893 17.4507 23.7893 17.0301C23.7893 16.6094 23.9564 16.206 24.2538 15.9085C24.5513 15.611 24.9547 15.4439 25.3753 15.4438H36.0967C36.5173 15.4439 36.9207 15.611 37.2182 15.9085C37.5156 16.206 37.6827 16.6094 37.6827 17.0301C37.6827 17.4507 37.5156 17.8542 37.2182 18.1517C36.9207 18.4491 36.5173 18.6163 36.0967 18.6164ZM32.6227 25.715H25.7501C25.3294 25.715 24.9259 25.5479 24.6284 25.2504C24.3309 24.9529 24.1638 24.5494 24.1638 24.1287C24.1638 23.708 24.3309 23.3045 24.6284 23.007C24.9259 22.7096 25.3294 22.5424 25.7501 22.5424H32.6227C33.0434 22.5424 33.4469 22.7096 33.7444 23.007C34.0419 23.3045 34.209 23.708 34.209 24.1287C34.209 24.5494 34.0419 24.9529 33.7444 25.2504C33.4469 25.5479 33.0434 25.715 32.6227 25.715Z" fill="#E5E5E5"/>
</g>
</svg>
