<svg width="41" height="41" viewBox="0 0 41 41" fill="none" xmlns="http://www.w3.org/2000/svg">
<mask id="mask0_73_43" style="mask-type:alpha" maskUnits="userSpaceOnUse" x="0" y="0" width="41" height="41">
<path d="M40.1644 0.148193H0.164368V40.1482H40.1644V0.148193Z" fill="#D9D9D9"/>
</mask>
<g mask="url(#mask0_73_43)">
<path fill-rule="evenodd" clip-rule="evenodd" d="M4.16437 10.1482C4.16437 7.93905 5.95523 6.14819 8.16437 6.14819H32.1644C34.3735 6.14819 36.1644 7.93905 36.1644 10.1482V30.1482C36.1644 32.3573 34.3735 34.1482 32.1644 34.1482H8.16437C5.95523 34.1482 4.16437 32.3573 4.16437 30.1482V10.1482ZM8.16437 9.34819H32.1644C32.6062 9.34819 32.9644 9.70637 32.9644 10.1482V12.7429H7.36437V10.1482C7.36437 9.70637 7.72254 9.34819 8.16437 9.34819ZM7.36437 15.9429V30.1482C7.36437 30.59 7.72254 30.9482 8.16437 30.9482H32.1644C32.6062 30.9482 32.9644 30.59 32.9644 30.1482V15.9429H7.36437Z" fill="black"/>
<path d="M26.8255 22.6497C26.2617 23.2134 25.3477 23.2134 24.7839 22.6497L24.2033 22.0691L24.2033 28.3203C24.2033 29.1175 23.557 29.7639 22.7598 29.7639C21.9625 29.7639 21.3162 29.1175 21.3162 28.3203V18.5841L21.3163 18.5617C21.3189 18.395 21.3497 18.2352 21.4041 18.0868C21.474 17.8958 21.5857 17.7165 21.739 17.5632C22.3027 16.9994 23.2168 16.9994 23.7805 17.5632L26.8255 20.6081C27.3892 21.1719 27.3892 22.0859 26.8255 22.6497Z" fill="#E5E5E5"/>
<path d="M17.5689 17.1404C18.3662 17.1404 19.0125 17.7867 19.0125 18.584V28.3201C19.0125 28.5361 18.965 28.7411 18.88 28.9251C18.8296 29.0343 18.7648 29.1386 18.6857 29.235C18.6195 29.3156 18.5448 29.3889 18.463 29.4536C18.3914 29.5102 18.3157 29.559 18.237 29.6001C18.0373 29.7046 17.81 29.7637 17.5689 29.7637C17.3278 29.7637 17.1005 29.7046 16.9007 29.6001C16.8221 29.559 16.7464 29.5102 16.6748 29.4536C16.6266 29.4155 16.5809 29.3744 16.538 29.3306L13.5032 26.2959C12.9394 25.7321 12.9394 24.8181 13.5032 24.2543C14.067 23.6906 14.981 23.6906 15.5447 24.2543L16.1253 24.8349V18.584C16.1253 17.7867 16.7716 17.1404 17.5689 17.1404Z" fill="#E5E5E5"/>
</g>
</svg>
