<svg width="41" height="41" viewBox="0 0 41 41" fill="none" xmlns="http://www.w3.org/2000/svg">
<mask id="mask0_73_33" style="mask-type:alpha" maskUnits="userSpaceOnUse" x="0" y="0" width="41" height="41">
<rect x="0.164368" y="0.148193" width="40" height="40" fill="#D9D9D9"/>
</mask>
<g mask="url(#mask0_73_33)">
<path fill-rule="evenodd" clip-rule="evenodd" d="M5.67892 7.39934C4.88374 7.39934 4.23912 6.71631 4.23912 5.87374C4.23912 5.03118 4.88374 4.34814 5.67892 4.34814H17.1973C17.7797 4.34814 18.3047 4.71984 18.5275 5.28992C18.7504 5.86 18.6272 6.51619 18.2154 6.95251L9.1549 16.5529H17.1973C17.9925 16.5529 18.6371 17.236 18.6371 18.0785C18.6371 18.9211 17.9925 19.6041 17.1973 19.6041H5.67892C5.09657 19.6041 4.57157 19.2324 4.34871 18.6624C4.12586 18.0923 4.24904 17.4361 4.66082 16.9998L13.7213 7.39934H5.67892Z" fill="#E5E5E5"/>
<path d="M28.3214 4.34814C29.1795 4.34814 29.8751 5.03118 29.8751 5.87374V30.7388L33.4375 27.2407C34.0443 26.6449 35.028 26.6449 35.6347 27.2407C36.2415 27.8365 36.2415 28.8025 35.6347 29.3983L29.42 35.5006C28.8133 36.0964 27.8295 36.0964 27.2228 35.5006L21.008 29.3983C20.4013 28.8025 20.4013 27.8365 21.008 27.2407C21.6148 26.6449 22.5985 26.6449 23.2053 27.2407L26.7677 30.7388V5.87374C26.7677 5.03118 27.4633 4.34814 28.3214 4.34814Z" fill="black"/>
<path fill-rule="evenodd" clip-rule="evenodd" d="M12.2435 20.6919C12.832 20.6999 13.3653 21.0337 13.6212 21.5541L19.6216 33.7589C19.9947 34.5177 19.6706 35.4298 18.8979 35.7961C18.1252 36.1624 17.1963 35.8442 16.8233 35.0854L15.1844 31.752C15.1614 31.753 15.1383 31.7535 15.1151 31.7535H8.94795L7.17297 35.1231C6.77875 35.8715 5.84132 36.1644 5.07916 35.7773C4.317 35.3902 4.01873 34.4697 4.41295 33.7213L10.842 21.5165C11.1124 21.0032 11.655 20.684 12.2435 20.6919ZM12.1741 25.6291L13.685 28.7023H10.5552L12.1741 25.6291Z" fill="black"/>
</g>
</svg>
