<svg width="25" height="25" viewBox="0 0 25 25" fill="none" xmlns="http://www.w3.org/2000/svg">
<mask id="mask0_17_467" style="mask-type:alpha" maskUnits="userSpaceOnUse" x="0" y="0" width="25" height="25">
<rect x="0.830566" y="0.923462" width="24" height="24" fill="#DCDCDC"/>
</mask>
<g mask="url(#mask0_17_467)">
<rect x="3.86761" y="18.9592" width="17.9259" height="3.96438" rx="1.98219" fill="#E5E5E5"/>
<path fill-rule="evenodd" clip-rule="evenodd" d="M12.47 4.63428C11.8967 3.90565 11.2101 3.38129 10.5355 3.11694C9.80278 2.82982 8.7844 2.77064 8.14355 3.59026C7.57248 4.32072 7.61851 5.39886 7.96804 6.53724C8.12595 7.05162 8.38216 7.5579 8.74686 8.04599C8.76351 8.06826 8.78101 8.08949 8.79925 8.10969C8.81261 8.12444 8.8264 8.13862 8.8405 8.15222C8.85959 8.17065 8.87942 8.18804 8.89989 8.2044L6.44752 10.6567C6.10827 10.996 6.10827 11.546 6.44752 11.8853L11.7472 17.185C12.0865 17.5242 12.6366 17.5242 12.9759 17.185L19.6946 10.4661C20.0339 10.1268 20.0339 9.57677 19.6946 9.23752L14.395 3.93784C14.0557 3.59859 13.5057 3.59859 13.1664 3.93784L12.47 4.63428ZM12.0654 7.96107C12.0809 8.05959 12.0938 8.16012 12.104 8.26262C12.1516 8.74005 12.5772 9.08849 13.0546 9.04088C13.5321 8.99329 13.8805 8.56766 13.8329 8.09023C13.7645 7.40463 13.6007 6.76826 13.3683 6.19314L13.7808 5.78074L17.8517 9.8518L16.5381 11.1654H8.39605L11.9893 7.57219C12.0189 7.69815 12.0444 7.82779 12.0654 7.96107ZM11.2291 5.87518C10.8053 5.28181 10.3056 4.89299 9.90151 4.73466C9.70861 4.65907 9.58496 4.65427 9.52971 4.66148C9.52419 4.66223 9.51963 4.66302 9.51582 4.66379L9.50913 4.66535C9.4804 4.71289 9.33023 5.05413 9.62897 6.02725C9.72293 6.33328 9.87946 6.65381 10.1216 6.98275L11.2291 5.87518Z" fill="black"/>
<path d="M18.786 17.9604C19.4284 17.9604 19.9491 17.4397 19.9491 16.7974C19.9491 16.3997 19.5032 15.6621 19.1636 15.158C18.9802 14.8859 18.5918 14.8859 18.4085 15.158C18.0689 15.6621 17.6231 16.3997 17.6231 16.7974C17.6231 17.4397 18.1438 17.9604 18.786 17.9604Z" fill="black"/>
</g>
</svg>
