<svg width="41" height="41" viewBox="0 0 41 41" fill="none" xmlns="http://www.w3.org/2000/svg">
<mask id="mask0_73_58" style="mask-type:alpha" maskUnits="userSpaceOnUse" x="0" y="0" width="41" height="41">
<rect x="0.969299" y="0.148193" width="40" height="40" fill="#DCDCDC"/>
</mask>
<g mask="url(#mask0_73_58)">
<path fill-rule="evenodd" clip-rule="evenodd" d="M5.06021 5.13928C4.18157 5.13928 3.4693 5.85156 3.4693 6.73019V25.8211C3.4693 26.6998 4.18157 27.4121 5.06021 27.4121H8.3785L11.0944 30.1279C11.7156 30.7491 12.7229 30.7491 13.3442 30.1279L16.0601 27.4121H17.7875V31.1798C17.7875 32.0585 18.4998 32.7708 19.3784 32.7708H27.4695L29.3898 34.6912C30.011 35.3125 31.0183 35.3125 31.6398 34.6912L33.56 32.7708H36.8784C37.7571 32.7708 38.4693 32.0585 38.4693 31.1798V18.4526C38.4693 17.574 37.7571 16.8617 36.8784 16.8617H32.1056V6.73019C32.1056 5.85156 31.3934 5.13928 30.5147 5.13928H5.06021ZM32.1056 20.0435V25.8211C32.1056 26.6998 31.3934 27.4121 30.5147 27.4121H20.9693V29.5891H28.1284C28.5503 29.5891 28.9549 29.7565 29.2533 30.0549L30.5147 31.3163L31.7762 30.0549C32.0744 29.7565 32.4792 29.5891 32.9011 29.5891H35.2875V20.0435H32.1056ZM28.9239 8.3211H6.65111V24.2302H9.03748C9.45941 24.2302 9.86406 24.3979 10.1624 24.6962L12.2193 26.753L14.2762 24.6962C14.5745 24.3979 14.9792 24.2302 15.4011 24.2302H28.9239V8.3211Z" fill="black"/>
<path fill-rule="evenodd" clip-rule="evenodd" d="M13.81 11.5031C12.9313 11.5031 12.2191 12.2153 12.2191 13.094C12.2191 13.9726 12.9313 14.6849 13.81 14.6849H23.3554C24.234 14.6849 24.9463 13.9726 24.9463 13.094C24.9463 12.2153 24.234 11.5031 23.3554 11.5031H13.81ZM12.2191 19.4576C12.2191 18.579 12.9313 17.8667 13.81 17.8667H18.5827C19.4613 17.8667 20.1736 18.579 20.1736 19.4576C20.1736 20.3362 19.4613 21.0485 18.5827 21.0485H13.81C12.9313 21.0485 12.2191 20.3362 12.2191 19.4576Z" fill="#E5E5E5"/>
</g>
</svg>
