<svg width="41" height="41" viewBox="0 0 41 41" fill="none" xmlns="http://www.w3.org/2000/svg">
<mask id="mask0_73_23" style="mask-type:alpha" maskUnits="userSpaceOnUse" x="0" y="0" width="41" height="41">
<rect x="0.135315" y="0.148193" width="40" height="40" fill="#DCDCDC"/>
</mask>
<g mask="url(#mask0_73_23)">
<path d="M19.1455 20.1682C19.1455 19.308 18.4482 18.6107 17.588 18.6107C16.7279 18.6107 16.0306 19.308 16.0306 20.1682C16.0306 23.9992 19.0647 27.1766 22.8948 27.1766C22.9177 27.1766 22.9404 27.1761 22.963 27.1752C22.9881 27.1764 23.0134 27.177 23.0389 27.177H31.0809C34.911 27.177 37.9452 23.9996 37.9452 20.1685C37.9452 16.3375 34.9112 13.16 31.0809 13.16L24.3656 13.16C23.5054 13.16 22.8081 13.8573 22.8081 14.7175C22.8081 15.5776 23.5054 16.2749 24.3656 16.2749H31.0809C33.1126 16.2749 34.8303 17.9785 34.8303 20.1686C34.8303 22.3586 33.1126 24.0621 31.0809 24.0621H23.0389C23.016 24.0621 22.9933 24.0626 22.9706 24.0636C22.9455 24.0624 22.9202 24.0618 22.8948 24.0618C20.8632 24.0618 19.1455 22.3582 19.1455 20.1682Z" fill="black"/>
<path d="M21.1251 20.1283C21.1251 20.9885 21.8225 21.6858 22.6826 21.6858C23.5427 21.6858 24.24 20.9885 24.24 20.1283C24.24 16.2973 21.2058 13.1199 17.3758 13.1199C17.353 13.1199 17.3302 13.1203 17.3076 13.1213C17.2825 13.1201 17.2572 13.1195 17.2317 13.1195L9.18971 13.1195C5.35953 13.1195 2.32538 16.2969 2.32538 20.128C2.32545 23.959 5.35949 27.1365 9.18971 27.1365H15.905C16.7652 27.1365 17.4625 26.4392 17.4625 25.579C17.4625 24.7189 16.7652 24.0216 15.905 24.0216H9.18971C7.15803 24.0216 5.4403 22.318 5.44026 20.128C5.44026 17.938 7.15801 16.2344 9.18971 16.2344H17.2317C17.2546 16.2344 17.2773 16.2339 17.3 16.2329C17.3251 16.2341 17.3504 16.2347 17.3758 16.2347C19.4074 16.2347 21.1251 17.9383 21.1251 20.1283Z" fill="#E5E5E5"/>
</g>
</svg>
