<svg width="41" height="41" viewBox="0 0 41 41" fill="none" xmlns="http://www.w3.org/2000/svg">
<mask id="mask0_73_28" style="mask-type:alpha" maskUnits="userSpaceOnUse" x="0" y="0" width="41" height="41">
<rect x="0.143005" y="0.148193" width="40" height="40" fill="#D9D9D9"/>
</mask>
<g mask="url(#mask0_73_28)">
<path fill-rule="evenodd" clip-rule="evenodd" d="M32.02 20.8401H22.3422C21.9004 20.8401 21.5422 21.1983 21.5422 21.6401V33.3391C21.5422 33.7809 21.9004 34.1391 22.3422 34.1391H32.02C32.4618 34.1391 32.82 33.7809 32.82 33.3391V21.6401C32.82 21.1983 32.4618 20.8401 32.02 20.8401ZM22.3422 17.6401C20.1331 17.6401 18.3422 19.431 18.3422 21.6401V33.3391C18.3422 35.5483 20.1331 37.3391 22.3422 37.3391H32.02C34.2291 37.3391 36.02 35.5483 36.02 33.3391V21.6401C36.02 19.431 34.2291 17.6401 32.02 17.6401H22.3422Z" fill="#E5E5E5"/>
<path fill-rule="evenodd" clip-rule="evenodd" d="M9.42499 11.1566C9.42499 10.273 10.1413 9.55664 11.025 9.55664H25.5811C26.4648 9.55664 27.1811 10.273 27.1811 11.1566C27.1811 12.0403 26.4648 12.7566 25.5811 12.7566H11.025C10.1413 12.7566 9.42499 12.0403 9.42499 11.1566Z" fill="black"/>
<path fill-rule="evenodd" clip-rule="evenodd" d="M9.42499 17.8141C9.42499 16.9305 10.1413 16.2141 11.025 16.2141H15.4141C16.2978 16.2141 17.0141 16.9305 17.0141 17.8141C17.0141 18.6978 16.2978 19.4141 15.4141 19.4141H11.025C10.1413 19.4141 9.42499 18.6978 9.42499 17.8141Z" fill="black"/>
<path fill-rule="evenodd" clip-rule="evenodd" d="M9.42499 24.6459C9.42499 23.7622 10.1413 23.0459 11.025 23.0459H14.6983C15.582 23.0459 16.2983 23.7622 16.2983 24.6459C16.2983 25.5296 15.582 26.2459 14.6983 26.2459H11.025C10.1413 26.2459 9.42499 25.5296 9.42499 24.6459Z" fill="black"/>
<path d="M8.26654 6.15703H28.3395C28.7814 6.15703 29.1395 6.5152 29.1395 6.95703V14.3275C29.1395 15.2111 29.8559 15.9275 30.7395 15.9275L-nan -nanCnan nan nan nan nan nanLnan nanCnan nan nan nan -nan -nanL30.7395 15.9275C31.6232 15.9275 32.3395 15.2111 32.3395 14.3275V6.95703C32.3395 4.74789 30.5487 2.95703 28.3395 2.95703H8.26654C6.0574 2.95703 4.26654 4.74789 4.26654 6.95703V28.6714C4.26654 30.8805 6.0574 32.6714 8.26654 32.6714H15.772C16.6557 32.6714 17.372 31.955 17.372 31.0714L-nan -nanCnan nan nan nan nan nanLnan nanCnan nan nan nan -nan -nanL17.372 31.0714C17.372 30.1877 16.6557 29.4714 15.772 29.4714H8.26654C7.82471 29.4714 7.46654 29.1132 7.46654 28.6714V6.95703C7.46654 6.5152 7.82471 6.15703 8.26654 6.15703Z" fill="black"/>
</g>
</svg>
