<svg width="41" height="41" viewBox="0 0 41 41" fill="none" xmlns="http://www.w3.org/2000/svg">
<mask id="mask0_73_8" style="mask-type:alpha" maskUnits="userSpaceOnUse" x="0" y="0" width="41" height="41">
<rect x="0.0349731" y="0.148193" width="40" height="40" fill="#DCDCDC"/>
</mask>
<g mask="url(#mask0_73_8)">
<path fill-rule="evenodd" clip-rule="evenodd" d="M21.2199 3.95459C17.2935 3.95459 14.1105 7.13758 14.1105 11.064C14.1105 14.9904 17.2935 18.1734 21.2199 18.1734C25.1463 18.1734 28.3293 14.9904 28.3293 11.064C28.3293 7.13758 25.1463 3.95459 21.2199 3.95459ZM17.2702 11.064C17.2702 8.88265 19.0386 7.11432 21.2199 7.11432C23.4012 7.11432 25.1696 8.88265 25.1696 11.064C25.1696 13.2453 23.4012 15.0137 21.2199 15.0137C19.0386 15.0137 17.2702 13.2453 17.2702 11.064Z" fill="black"/>
<path d="M7.0011 34.762C7.0011 28.824 12.4797 23.7029 19.64 23.7029C20.5126 23.7029 21.2199 22.9956 21.2199 22.1231C21.2199 21.2505 20.5126 20.5432 19.64 20.5432C11.0948 20.5432 3.84137 26.7393 3.84137 34.762C3.84137 35.6345 4.5487 36.3419 5.42124 36.3419C6.29377 36.3419 7.0011 35.6345 7.0011 34.762Z" fill="black"/>
<path fill-rule="evenodd" clip-rule="evenodd" d="M29.1192 20.5432C26.9378 20.5432 25.1696 22.3115 25.1696 24.4929V25.2828H23.5897C22.7172 25.2828 22.0098 25.9901 22.0098 26.8627V34.762C22.0098 35.6345 22.7172 36.3419 23.5897 36.3419H34.6488C35.5213 36.3419 36.2286 35.6345 36.2286 34.762V26.8627C36.2286 25.9901 35.5213 25.2828 34.6488 25.2828H33.0689V24.4929C33.0689 22.3115 31.3006 20.5432 29.1192 20.5432ZM29.9092 25.2828V24.4929C29.9092 24.0566 29.5555 23.7029 29.1192 23.7029C28.6829 23.7029 28.3293 24.0566 28.3293 24.4929V25.2828H29.9092ZM25.1696 28.4425V33.1821H33.0689V28.4425H25.1696Z" fill="#E5E5E5"/>
</g>
</svg>
