<svg width="41" height="41" viewBox="0 0 41 41" fill="none" xmlns="http://www.w3.org/2000/svg">
<mask id="mask0_73_48" style="mask-type:alpha" maskUnits="userSpaceOnUse" x="0" y="0" width="41" height="41">
<rect x="0.869934" y="0.148193" width="40" height="40" fill="#D9D9D9"/>
</mask>
<g mask="url(#mask0_73_48)">
<path fill-rule="evenodd" clip-rule="evenodd" d="M4.20682 5.4467C4.48094 4.9134 5.03023 4.57812 5.62985 4.57812H36.1101C36.7567 4.57812 37.3398 4.96738 37.5878 5.56461C37.8357 6.16184 37.6998 6.84961 37.2433 7.30762L24.0626 21.0243V34.0641C24.0626 34.6172 23.7769 35.1311 23.3071 35.4231C22.8373 35.715 22.2501 35.7436 21.7541 35.4987L15.6581 32.4883C15.1121 32.2187 14.7665 31.6626 14.7665 31.0537V20.8767L4.3288 7.10939C3.97979 6.6218 3.93271 5.98 4.20682 5.4467ZM8.74273 7.77813L17.6676 19.4318C17.862 19.7034 17.9665 20.0291 17.9665 20.3631V30.0593L20.8626 31.4895V20.3631C20.8626 19.9396 21.0304 19.5335 21.3293 19.2336L32.2563 7.77813H8.74273Z" fill="black"/>
<path d="M25.6348 23.1838C25.6348 22.3554 26.3512 21.6838 27.2348 21.6838H35.2348C36.1185 21.6838 36.8348 22.3554 36.8348 23.1838C36.8348 24.0123 36.1185 24.6838 35.2348 24.6838H27.2348C26.3512 24.6838 25.6348 24.0123 25.6348 23.1838Z" fill="#E5E5E5"/>
<path d="M25.6348 27.8008C25.6348 26.9724 26.3512 26.3008 27.2348 26.3008H35.2348C36.1185 26.3008 36.8348 26.9724 36.8348 27.8008C36.8348 28.6292 36.1185 29.3008 35.2348 29.3008H27.2348C26.3512 29.3008 25.6348 28.6292 25.6348 27.8008Z" fill="#E5E5E5"/>
<path d="M27.2348 30.9167C26.3512 30.9167 25.6348 31.5883 25.6348 32.4167C25.6348 33.2452 26.3512 33.9167 27.2348 33.9167H35.2348C36.1185 33.9167 36.8348 33.2452 36.8348 32.4167C36.8348 31.5883 36.1185 30.9167 35.2348 30.9167H27.2348Z" fill="#E5E5E5"/>
</g>
</svg>
