<svg width="41" height="41" viewBox="0 0 41 41" fill="none" xmlns="http://www.w3.org/2000/svg">
<mask id="mask0_73_53" style="mask-type:alpha" maskUnits="userSpaceOnUse" x="0" y="0" width="41" height="41">
<rect x="0.869934" y="0.148193" width="40" height="40" fill="#D9D9D9"/>
</mask>
<g mask="url(#mask0_73_53)">
<path d="M12.2981 3.24804C12.6117 2.88248 13.077 2.65088 13.5964 2.65088L13.5999 2.65088C14.0387 2.64998 14.4777 2.8169 14.8125 3.15165L22.5063 10.8455C23.174 11.5132 23.174 12.5957 22.5063 13.2634C21.8386 13.9311 20.7561 13.9311 20.0884 13.2634L15.3061 8.48121V26.5873C15.3061 27.5316 14.5406 28.297 13.5964 28.297C12.6521 28.297 11.8866 27.5316 11.8866 26.5873V8.4954L7.11861 13.2634C6.45091 13.9311 5.36836 13.9311 4.70066 13.2634C4.03297 12.5957 4.03297 11.5132 4.70066 10.8455L12.2981 3.24804Z" fill="#E5E5E5"/>
<path d="M29.839 13.7091C29.839 12.7649 29.0735 11.9994 28.1292 11.9994C27.185 11.9994 26.4195 12.7649 26.4195 13.7091V31.801L21.6514 27.033C20.9837 26.3653 19.9012 26.3653 19.2335 27.033C18.5658 27.7007 18.5658 28.7832 19.2335 29.4509L26.831 37.0484C27.1445 37.4139 27.6098 37.6455 28.1292 37.6455L28.1327 37.6455C28.5715 37.6465 29.0105 37.4795 29.3453 37.1448L37.0391 29.4509C37.7068 28.7832 37.7068 27.7007 37.0391 27.033C36.3714 26.3653 35.2889 26.3653 34.6212 27.033L29.839 31.8152V13.7091Z" fill="black"/>
</g>
</svg>
