<svg width="25" height="25" viewBox="0 0 25 25" fill="none" xmlns="http://www.w3.org/2000/svg">
<mask id="mask0_17_450" style="mask-type:alpha" maskUnits="userSpaceOnUse" x="0" y="0" width="25" height="25">
<rect x="0.466797" y="0.899414" width="24" height="24" fill="#DCDCDC"/>
</mask>
<g mask="url(#mask0_17_450)">
<path d="M9.27571 13.4703L8.2911 15.9424C8.21105 16.1431 8.131 16.3365 8.05095 16.5228C7.9709 16.7092 7.87483 16.8811 7.76276 17.0388C7.6667 17.1964 7.54663 17.3182 7.40254 17.4042C7.27446 17.5045 7.12236 17.5547 6.94625 17.5547C6.62605 17.5547 6.3779 17.4615 6.20179 17.2752C6.02567 17.1033 6.02567 16.7736 6.20179 16.2864L11.2449 3.1518C11.325 2.9225 11.4611 2.74336 11.6532 2.61438C11.8613 2.47107 12.1255 2.39941 12.4457 2.39941C12.7819 2.39941 13.0541 2.47107 13.2622 2.61438C13.4703 2.74336 13.6144 2.9225 13.6945 3.1518L18.7617 16.3294C18.8897 16.6733 18.8978 16.9671 18.7857 17.2107C18.6736 17.44 18.4094 17.5547 17.9932 17.5547C17.721 17.569 17.4969 17.4974 17.3208 17.3397C17.1607 17.1964 17.0406 17.0029 16.9605 16.7593L15.6397 13.4703H9.27571ZM15.2074 11.9655L12.4697 4.59209L9.732 11.9655H15.2074Z" fill="black"/>
<rect x="3.34827" y="19.3663" width="18.2371" height="4.03322" rx="2.01661" fill="#E5E5E5"/>
</g>
</svg>
