<svg width="16" height="16" viewBox="0 0 16 16" fill="none" xmlns="http://www.w3.org/2000/svg">
<path fill-rule="evenodd" clip-rule="evenodd" d="M8.79993 14.0166C8.79993 14.4585 8.44176 14.8166 7.99993 14.8166C4.23529 14.8166 1.18345 11.7648 1.18345 8.00017C1.18345 4.23554 4.23529 1.18369 7.99993 1.1837C11.7646 1.1837 14.8164 4.23554 14.8164 8.00017C14.8164 8.442 14.4582 8.80017 14.0164 8.80017C13.5746 8.80017 13.2164 8.442 13.2164 8.00017C13.2164 5.11919 10.8809 2.7837 7.99993 2.7837C5.11895 2.7837 2.78345 5.11919 2.78345 8.00017C2.78345 10.8812 5.11895 13.2166 7.99993 13.2166C8.44176 13.2166 8.79993 13.5748 8.79993 14.0166Z" fill="#0B9EFB" fill-opacity="0.2"/>
<path fill-rule="evenodd" clip-rule="evenodd" d="M7.20007 1.98384C7.20007 1.54201 7.55824 1.18384 8.00007 1.18384C11.7647 1.18384 14.8165 4.23568 14.8165 8.00032C14.8165 11.765 11.7647 14.8168 8.00007 14.8168C4.23543 14.8168 1.18359 11.765 1.18359 8.00032C1.18359 7.55849 1.54177 7.20031 1.98359 7.20031C2.42542 7.20031 2.78359 7.55849 2.78359 8.00032C2.78359 10.8813 5.11909 13.2168 8.00007 13.2168C10.8811 13.2168 13.2165 10.8813 13.2165 8.00032C13.2165 5.11933 10.8811 2.78384 8.00007 2.78384C7.55824 2.78384 7.20007 2.42567 7.20007 1.98384Z" fill="#0B9EFB"/>
</svg>
