<svg width="16" height="16" viewBox="0 0 16 16" fill="none" xmlns="http://www.w3.org/2000/svg">
<path d="M3.4535 1.12549C2.7002 1.12549 2.08954 1.73615 2.08954 2.48945V13.5104C2.08954 14.2637 2.7002 14.8744 3.4535 14.8744H12.5465C13.2998 14.8744 13.9105 14.2637 13.9105 13.5104V5.0992L10.0091 1.12549H3.4535Z" fill="#FF6B4B"/>
<path d="M10.0075 1.12549L13.9104 5.09842H10.6742C10.306 5.09842 10.0075 4.79994 10.0075 4.43175V1.12549Z" fill="#EC4F2D"/>
<path d="M7.76493 7.24535C7.76493 7.07967 7.63024 6.94371 7.46548 6.96123C7.01146 7.00953 6.57426 7.16714 6.19216 7.42245C5.72662 7.73351 5.36378 8.17564 5.14951 8.69292C4.93525 9.2102 4.87918 9.77941 4.98842 10.3285C5.09765 10.8777 5.36727 11.3821 5.76318 11.778C6.15909 12.1739 6.66351 12.4436 7.21265 12.5528C7.76179 12.662 8.33099 12.606 8.84828 12.3917C9.36556 12.1774 9.80769 11.8146 10.1188 11.349C10.3741 10.9669 10.5317 10.5297 10.58 10.0757C10.5975 9.91096 10.4615 9.77627 10.2958 9.77627L8.06493 9.77627C7.89925 9.77627 7.76493 9.64195 7.76493 9.47627L7.76493 7.24535Z" fill="white"/>
<path d="M10.4097 9.35206C10.5753 9.35206 10.7115 9.21728 10.6918 9.05277C10.6645 8.82511 10.6062 8.60178 10.5181 8.38909C10.3917 8.08379 10.2063 7.80639 9.97264 7.57272C9.73897 7.33905 9.46157 7.1537 9.15627 7.02724C8.94358 6.93914 8.72024 6.88083 8.49259 6.85356C8.32808 6.83385 8.1933 6.97001 8.1933 7.13569V9.05206C8.1933 9.21774 8.32761 9.35206 8.4933 9.35206H10.4097Z" fill="white"/>
</svg>
