<svg width="16" height="16" viewBox="0 0 16 16" fill="none" xmlns="http://www.w3.org/2000/svg">
<path d="M3.4535 1.12549C2.7002 1.12549 2.08954 1.73615 2.08954 2.48945V13.5104C2.08954 14.2637 2.7002 14.8744 3.4535 14.8744H12.5465C13.2998 14.8744 13.9105 14.2637 13.9105 13.5104V5.0992L10.0091 1.12549H3.4535Z" fill="#35BD4B"/>
<path d="M10.0075 1.12549L13.9104 5.09842H10.6742C10.306 5.09842 10.0075 4.79994 10.0075 4.43175V1.12549Z" fill="#32A846"/>
<path fill-rule="evenodd" clip-rule="evenodd" d="M7.8088 10.2949L6.3764 12.403C6.26259 12.5705 6.03455 12.614 5.86705 12.5002C5.69955 12.3864 5.65603 12.1584 5.76984 11.9909L7.3655 9.64252L5.94042 7.54519C5.82661 7.37769 5.87013 7.14964 6.03763 7.03583C6.20512 6.92202 6.43317 6.96555 6.54698 7.13304L7.8088 8.9901L9.07062 7.13304C9.18443 6.96555 9.41248 6.92202 9.57997 7.03583C9.74747 7.14964 9.79099 7.37769 9.67718 7.54519L8.2521 9.64252L9.84776 11.9909C9.96157 12.1584 9.91805 12.3864 9.75055 12.5002C9.58305 12.614 9.35501 12.5705 9.2412 12.403L7.8088 10.2949Z" fill="white"/>
</svg>
