<svg width="16" height="16" viewBox="0 0 16 16" fill="none" xmlns="http://www.w3.org/2000/svg">
<path d="M16 7.84074V8.16592C15.9329 8.46732 15.7423 8.6727 15.5024 8.85583C14.3891 9.70507 13.2824 10.5629 12.1732 11.4176C11.4526 11.9728 10.7315 12.5275 10.0114 13.0834C9.79155 13.2532 9.54428 13.3197 9.27185 13.2763C8.8153 13.2035 8.48966 12.8157 8.48795 12.3447C8.48555 11.7144 8.48744 11.084 8.48709 10.4537C8.48709 10.3277 8.48384 10.3262 8.3644 10.3363C7.79919 10.3844 7.23397 10.4316 6.66893 10.4795C6.11792 10.5262 5.56708 10.573 5.01607 10.6205C4.38275 10.6751 3.7496 10.7306 3.11645 10.7855C2.60258 10.83 2.0887 10.8766 1.57448 10.9173C1.2449 10.9433 0.916525 10.9875 0.585748 10.9926C0.34036 10.9964 0.123032 10.8379 0.0429474 10.6077C0.0242952 10.5541 0.014199 10.4977 0.000167111 10.4424C0.000167111 10.4138 0.000167111 10.3854 0.000167111 10.3568C0.0301133 10.1608 0.142028 10.0157 0.279267 9.87999C0.690471 9.47316 1.09654 9.06086 1.50432 8.65045C1.56849 8.58575 1.63043 8.51866 1.69443 8.4538C1.97764 8.16712 1.98106 7.83783 1.69717 7.55047C1.22659 7.07399 0.75498 6.59836 0.279434 6.12668C0.142366 5.99061 0.0294328 5.84633 0 5.65002C0 5.61579 0 5.58156 0 5.54733C0.00410691 5.53364 0.00923587 5.52029 0.012316 5.50643C0.0877805 5.16807 0.341896 4.98203 0.684309 5.01164C1.17269 5.05409 1.66124 5.09464 2.14962 5.13623C2.64365 5.17834 3.13785 5.22044 3.63187 5.26306C4.11734 5.30499 4.60282 5.34846 5.08846 5.39005C5.59669 5.43352 6.10509 5.47511 6.61349 5.51824C7.19838 5.56787 7.78327 5.61853 8.36834 5.66782C8.48624 5.67775 8.48709 5.67553 8.48709 5.55572C8.48726 4.92538 8.48419 4.29503 8.48846 3.66486C8.49103 3.27687 8.66386 2.98027 9.01535 2.8122C9.36426 2.64516 9.70428 2.68572 10.0126 2.92327C11.8426 4.33252 13.6702 5.74502 15.5029 7.15067C15.7425 7.33448 15.9331 7.53934 16 7.84091V7.84074Z" fill="black"/>
</svg>
