<svg width="16" height="16" viewBox="0 0 16 16" fill="none" xmlns="http://www.w3.org/2000/svg">
<path d="M0 8.15924V7.83411C0.0670795 7.53277 0.25771 7.32742 0.497622 7.14432C1.61094 6.29522 2.71757 5.43756 3.82678 4.58298C4.54737 4.02786 5.26848 3.47326 5.98856 2.91745C6.20845 2.7477 6.45572 2.68114 6.72815 2.7246C7.1847 2.79733 7.51034 3.18509 7.51205 3.65602C7.51445 4.28626 7.51256 4.91649 7.51291 5.54673C7.51291 5.67268 7.51616 5.67422 7.6356 5.66412C8.20081 5.61604 8.76603 5.56881 9.33107 5.52089C9.88208 5.47418 10.4329 5.42746 10.9839 5.37989C11.6172 5.3253 12.2504 5.26986 12.8835 5.21493C13.3974 5.17044 13.9113 5.12389 14.4255 5.08317C14.7551 5.05715 15.0835 5.01301 15.4143 5.00787C15.6596 5.00411 15.877 5.16257 15.9571 5.39273C15.9757 5.44629 15.9858 5.50275 15.9998 5.55803C15.9998 5.5866 15.9998 5.61501 15.9998 5.64359C15.9699 5.83952 15.858 5.98463 15.7207 6.12033C15.3095 6.52709 14.9035 6.93932 14.4957 7.34966C14.4315 7.41435 14.3696 7.48143 14.3056 7.54628C14.0224 7.83291 14.0189 8.16215 14.3028 8.44946C14.7734 8.92586 15.245 9.40141 15.7206 9.87302C15.8576 10.0091 15.9706 10.1533 16 10.3496C16 10.3838 16 10.418 16 10.4523C15.9959 10.466 15.9908 10.4793 15.9877 10.4932C15.9122 10.8315 15.6581 11.0175 15.3157 10.9879C14.8273 10.9454 14.3388 10.9049 13.8504 10.8633C13.3564 10.8212 12.8622 10.7791 12.3681 10.7365C11.8827 10.6946 11.3972 10.6511 10.9115 10.6095C10.4033 10.5661 9.89491 10.5245 9.38651 10.4814C8.80162 10.4317 8.21673 10.3811 7.63166 10.3318C7.51376 10.3219 7.51291 10.3241 7.51291 10.4439C7.51274 11.0741 7.51581 11.7044 7.51154 12.3344C7.50897 12.7224 7.33614 13.0189 6.98465 13.187C6.63574 13.354 6.29572 13.3134 5.98736 13.0759C4.15739 11.6669 2.32981 10.2546 0.497104 8.8492C0.257534 8.66542 0.0669084 8.46058 0 8.15907V8.15924Z" fill="black"/>
</svg>
