<svg width="16" height="16" viewBox="0 0 16 16" fill="none" xmlns="http://www.w3.org/2000/svg">
<path d="M7.60421 8.85838L7.60363 8.85059C7.60363 7.51954 7.60363 6.18878 7.60392 4.85773C7.60392 4.73567 7.5987 4.6168 7.53144 4.50837C7.13483 3.86909 6.60369 3.37564 5.93977 3.02048C5.00998 2.52327 4.00656 2.34207 2.9669 2.31423C2.51201 2.30206 2.30703 2.50674 2.30703 2.95757V8.33535C2.30703 8.54307 2.30696 8.75081 2.30689 8.95856C2.30667 9.58184 2.30645 10.2052 2.30819 10.8284C2.30906 11.1296 2.5439 11.3749 2.83005 11.3787C3.59574 11.3891 4.34925 11.472 5.08855 11.6877C5.83423 11.9055 6.52135 12.2253 7.12294 12.7239C7.24964 12.8289 7.37198 12.9367 7.49143 13.0489C7.49397 13.0513 7.49654 13.0538 7.49914 13.0563C7.52059 13.0772 7.54457 13.1006 7.5787 13.0823C7.60274 13.0691 7.60264 13.044 7.60254 13.0199C7.60251 13.0144 7.60249 13.009 7.60276 13.0037C7.60432 12.9778 7.60417 12.9518 7.60401 12.9257C7.60397 12.9179 7.60392 12.9101 7.60392 12.9022L7.60421 8.85838Z" fill="black"/>
<path d="M13.0493 11.3764C13.5134 11.3631 13.6932 11.1833 13.6932 10.7168V2.93528C13.6932 2.51634 13.4873 2.30818 13.0704 2.31427C12.3917 2.32412 11.7234 2.41168 11.0714 2.60506C10.146 2.8799 9.35217 3.35683 8.73869 4.11672C8.514 4.39533 8.38093 4.68149 8.3876 5.06187C8.40416 5.97684 8.40132 6.89212 8.39847 7.80737C8.39738 8.15772 8.3963 8.50808 8.3963 8.85841C8.39601 10.177 8.39601 11.4958 8.39601 12.8144C8.39601 12.8279 8.39597 12.8414 8.39593 12.8548C8.39578 12.9042 8.39563 12.9534 8.39746 13.0029C8.39765 13.0081 8.39755 13.0137 8.39744 13.0195C8.39691 13.0484 8.39632 13.0808 8.43283 13.0864C8.45544 13.0898 8.48704 13.069 8.50676 13.0507C8.62997 12.9353 8.75638 12.8246 8.88626 12.7164C9.32492 12.3514 9.81721 12.0818 10.3443 11.8748C11.2126 11.5338 12.1224 11.4031 13.0493 11.3764Z" fill="black"/>
<path d="M2.87529 12.1635C3.67258 12.1812 4.45189 12.2882 5.20685 12.5491C5.78756 12.7497 6.31464 13.046 6.77388 13.4574C6.78697 13.4692 6.79825 13.4831 6.81254 13.5008C6.82041 13.5105 6.82919 13.5214 6.83969 13.5337C6.72651 13.5585 6.62743 13.5315 6.53257 13.5056C6.49987 13.4967 6.46765 13.4879 6.43554 13.4815C5.76089 13.3449 5.07928 13.3064 4.39303 13.3072C3.34583 13.3084 2.31545 13.4441 1.29318 13.6624C0.932517 13.7395 0.737109 13.6319 0.577942 13.3075V4.52285C0.742038 4.1503 1.06501 4.12711 1.40712 4.14508C1.47728 4.14885 1.51323 4.18248 1.51265 4.25409C1.51249 4.28098 1.51278 4.30779 1.51306 4.3346C1.51329 4.35606 1.51352 4.37753 1.51352 4.39905C1.51352 4.92665 1.51354 5.45423 1.51356 5.9818C1.51361 7.56445 1.51367 9.14708 1.51323 10.7298C1.51323 10.9536 1.54396 11.1725 1.64167 11.3749C1.89042 11.8895 2.31371 12.151 2.87529 12.1635Z" fill="black"/>
<path d="M14.7151 4.14277C14.7223 4.1425 14.7298 4.14223 14.7375 4.14193C15.0474 4.13005 15.2854 4.23094 15.422 4.52289V13.3076C15.3086 13.621 14.9804 13.7346 14.705 13.6674C14.0573 13.5093 13.3975 13.4157 12.7341 13.3548C12.0508 13.2919 11.3654 13.291 10.6803 13.3366C10.208 13.3679 9.74067 13.4308 9.28085 13.5459C9.26077 13.5508 9.23908 13.5497 9.21278 13.5483C9.19884 13.5475 9.1836 13.5467 9.16662 13.5467C9.21609 13.4425 9.29742 13.3813 9.37466 13.3232C9.38608 13.3146 9.39757 13.306 9.4087 13.2974C10.2353 12.6593 11.1894 12.3531 12.2123 12.223C12.4021 12.1987 12.5928 12.1904 12.7835 12.1821C12.9733 12.1738 13.1632 12.1655 13.3519 12.1415C13.9051 12.0713 14.3844 11.5845 14.4606 11.0337C14.4812 10.8844 14.4861 10.7365 14.4861 10.5872C14.4864 8.52499 14.4864 6.46277 14.4864 4.40055C14.4864 4.15127 14.487 4.15125 14.7151 4.14277Z" fill="black"/>
</svg>
