<svg width="16" height="16" viewBox="0 0 16 16" fill="none" xmlns="http://www.w3.org/2000/svg">
<path d="M15.2785 6.79764C16.2788 7.8339 16.2277 9.11802 15.1955 10.1943C15.1612 10.1155 15.1288 10.0408 15.0957 9.96648C14.7319 9.14026 13.975 8.71953 13.0842 8.85236C12.8971 8.88032 12.7102 8.91401 12.5262 8.95818C12.3807 8.99345 12.3 9.13169 12.3327 9.25625C12.3708 9.40148 12.5068 9.47806 12.6635 9.4412C13.0197 9.35762 13.3769 9.28771 13.7427 9.38114C14.3172 9.52795 14.6022 9.94455 14.736 10.4816C14.8492 10.9366 14.7116 11.3726 14.5587 11.794C14.2635 12.6078 13.6705 13.0235 12.8094 13.0584C12.1748 13.0845 11.5748 12.9405 10.9907 12.7079C10.8131 12.637 10.7073 12.6571 10.619 12.7982C10.2233 13.4318 9.60684 13.5993 8.89598 13.38C8.6961 13.3183 8.50035 13.2354 8.31413 13.1394C8.16478 13.0622 8.05006 13.0772 7.92423 13.1795C7.5877 13.4537 7.2353 13.7022 6.80853 13.8204C6.34871 13.9479 6.00203 13.8366 5.72239 13.4556C5.51615 13.1741 5.39603 12.8499 5.34073 12.5102C5.26669 12.0552 5.737 11.604 6.20603 11.7044C6.52889 11.7733 6.7043 11.7082 6.85334 11.4012C7.01763 11.0625 7.29727 10.8137 7.71451 10.8359C7.85719 10.8435 7.99923 10.9036 8.13683 10.9522C8.29476 11.0081 8.44316 10.9659 8.49845 10.8343C8.55851 10.6916 8.50131 10.5639 8.34275 10.4841C7.63856 10.1311 6.90703 10.3564 6.44658 11.0787C6.38302 11.1785 6.32901 11.1985 6.21207 11.1905C5.57144 11.1467 5.03917 11.4581 4.85613 12.2481C4.84437 12.2983 4.81895 12.3625 4.77954 12.3863C4.26634 12.6939 3.73058 12.9396 3.12872 13.0285C2.21067 13.1642 1.5246 12.726 1.17823 12.0434C0.969453 11.6319 0.724754 11.2538 0.457824 10.882C0.173099 10.4851 0.00722492 10.0323 0.000233905 9.5397C-0.00771043 8.9871 0.187087 8.49328 0.527105 8.06428C0.700291 7.84597 0.900804 7.64705 1.10513 7.4567C1.2119 7.35692 1.26084 7.25555 1.26084 7.11351C1.26084 6.59744 1.32727 6.0925 1.54431 5.61775C1.87892 4.8856 2.46013 4.49823 3.25106 4.41021C3.37182 4.39686 3.49987 4.41021 3.61236 4.37367C3.70134 4.34475 3.79763 4.27452 3.84593 4.19508C4.04358 3.87127 4.26443 3.57383 4.58824 3.36314C4.97179 3.11401 5.3973 3.07302 5.83583 3.11465C5.97152 3.12768 6.06525 3.08859 6.16186 2.99961C6.57814 2.6167 7.0386 2.31322 7.60296 2.18516C8.17305 2.05583 8.705 2.15592 9.20708 2.42921C9.41903 2.54456 9.61287 2.69455 9.80894 2.83723C9.90141 2.9046 9.98467 2.93034 10.1007 2.89666C10.5379 2.76955 10.9818 2.71235 11.4216 2.87536C11.9955 3.08827 12.2927 3.55063 12.4801 4.10038C12.565 4.3492 12.612 4.38955 12.8793 4.37652C13.3184 4.35523 13.7455 4.39559 14.1303 4.63265C14.62 4.93454 14.8218 5.40706 14.899 5.95046C14.9035 5.98192 14.9022 6.01401 14.9057 6.04547C14.9496 6.43442 14.8777 6.5717 14.5183 6.72137C14.048 6.91681 13.5704 7.00928 13.0817 6.77254C12.6746 6.5752 12.4846 6.23645 12.4554 5.8011C12.4446 5.63935 12.4655 5.47506 12.4789 5.31236C12.4894 5.18176 12.3947 5.04766 12.2637 5.02192C12.1497 4.99936 12.0057 5.07944 11.9825 5.20114C11.8192 6.05119 12.0817 7.0776 13.2469 7.37058C13.8097 7.51199 14.812 7.3137 15.2788 6.79796L15.2785 6.79764ZM5.25653 5.86847C5.07381 5.90183 4.89236 5.93234 4.71219 5.96857C3.14556 6.28348 2.0629 7.57301 2.02413 9.16632C2.00824 9.81712 2.15093 10.4218 2.53829 10.9563C2.66095 11.1254 2.78584 11.1578 2.92566 11.058C3.06103 10.9611 3.0623 10.8222 2.95362 10.6564C2.85638 10.5073 2.76041 10.3526 2.69685 10.1876C2.29042 9.1355 2.6279 7.82977 3.49129 7.10238C4.13065 6.56376 4.88854 6.37722 5.69378 6.36642C5.64293 6.62127 5.5778 6.86564 5.54825 7.11414C5.47325 7.74206 5.68329 8.26893 6.16376 8.67918C6.22509 8.73129 6.34458 8.76084 6.42116 8.74082C6.64233 8.68235 6.66458 8.45006 6.47741 8.28482C6.125 7.9734 5.96993 7.58159 6.06209 7.12145C6.12024 6.83069 6.22384 6.54692 6.32679 6.26728C6.40083 6.06708 6.36142 5.94378 6.16313 5.87006C6.06494 5.83351 5.96548 5.7957 5.87491 5.74359C5.64961 5.61362 5.5654 5.45632 5.62324 5.2021C5.65947 5.04194 5.74176 4.89004 5.81676 4.74101C5.88953 4.59642 5.8746 4.45946 5.75638 4.3778C5.64199 4.29867 5.48595 4.326 5.39793 4.45819C5.10335 4.8999 4.96831 5.36162 5.25589 5.86942L5.25653 5.86847ZM8.72344 4.80584C9.15656 4.96409 9.51691 5.20909 9.77907 5.5847C10.1277 6.08392 10.2141 6.64924 10.1855 7.24189C10.1772 7.41094 10.2656 7.53678 10.4073 7.55521C10.5462 7.57332 10.6831 7.4675 10.6809 7.29463C10.6771 6.95843 10.6797 6.61587 10.6161 6.28825C10.4362 5.36353 9.87663 4.73593 9.01356 4.37589C8.91823 4.33617 8.89472 4.292 8.90076 4.19095C8.92618 3.76005 8.78286 3.37204 8.56931 3.00724C8.48955 2.87092 8.34083 2.83373 8.21531 2.90555C8.09329 2.97546 8.06119 3.11941 8.13269 3.26432C8.18639 3.37268 8.24455 3.47977 8.28808 3.59226C8.54071 4.24338 8.37801 4.71337 7.70973 4.92596C7.55942 4.97394 7.4911 5.12011 7.53686 5.25167C7.58612 5.39276 7.72341 5.45155 7.88388 5.40007C8.22422 5.29107 8.51212 5.10613 8.72344 4.8052V4.80584ZM8.9052 12.6234C9.65927 12.6177 10.1185 12.2487 10.263 11.5312C10.2713 11.4899 10.3237 11.447 10.366 11.4251C10.5945 11.3078 10.8452 11.2242 11.053 11.0784C11.4725 10.7841 11.674 10.3751 11.5999 9.84763C11.5472 9.47138 11.3791 9.14789 11.1757 8.83743C11.0626 8.66456 10.9145 8.61912 10.7794 8.71191C10.6498 8.80088 10.6501 8.93975 10.7489 9.1177C10.8659 9.32807 10.9869 9.54161 11.0626 9.7685C11.1887 10.1463 11.0788 10.4657 10.7445 10.6754C10.5382 10.8044 10.3028 10.8941 10.0705 10.9722C9.82038 11.0564 9.80672 11.052 9.77716 11.3078C9.72251 11.7851 9.55728 12.012 9.17086 12.0851C9.00785 12.1159 8.83434 12.0949 8.66592 12.0898C8.51688 12.0851 8.40694 12.1566 8.38438 12.2853C8.35864 12.4327 8.42568 12.5449 8.57662 12.5802C8.68371 12.6049 8.79525 12.6094 8.90488 12.6231L8.9052 12.6234ZM8.28966 8.819C8.32653 8.75512 8.34846 8.65884 8.40343 8.63278C8.64335 8.51934 8.89916 8.50154 9.15878 8.56573C9.43588 8.63437 9.64816 8.80279 9.84359 9.00108C9.99167 9.15107 10.2265 9.11071 10.27 8.91623C10.2888 8.83266 10.244 8.7065 10.1842 8.63786C9.65133 8.02615 8.87724 7.86027 8.13301 8.19139C8.04753 8.22953 7.98715 8.2165 7.90166 8.1825C7.71799 8.10877 7.52511 8.05348 7.33158 8.01153C7.19367 7.98166 7.06815 8.0932 7.05131 8.22825C7.0332 8.37538 7.11233 8.47453 7.26232 8.51012C7.39515 8.54126 7.53083 8.57018 7.65508 8.62388C7.81524 8.69348 7.85337 8.79485 7.78601 8.95818C7.73453 9.08338 7.65793 9.19842 7.59311 9.31822C7.52352 9.44723 7.56006 9.55909 7.66842 9.63917C7.77964 9.72115 7.91121 9.71448 7.99732 9.60803C8.17782 9.38431 8.31351 9.13582 8.28999 8.81868L8.28966 8.819Z" fill="black"/>
</svg>
