<svg width="16" height="16" viewBox="0 0 16 16" fill="none" xmlns="http://www.w3.org/2000/svg">
<path d="M8.03461 1.31396C9.54928 1.31396 11.064 1.30976 12.5786 1.3151C13.8771 1.31968 14.953 2.0692 15.338 3.22193C15.4441 3.53923 15.4858 3.86722 15.4869 4.19864C15.4911 5.70036 15.4945 7.20169 15.4869 8.7034C15.4796 10.1391 14.5974 11.267 13.2649 11.5713C12.938 11.6457 12.6073 11.6389 12.2769 11.6297C12.1112 11.6251 12.0573 11.679 12.0543 11.8462C12.0401 12.5835 12.0164 13.3208 11.9897 14.0581C11.9794 14.3449 11.8156 14.5537 11.5517 14.6442C11.2794 14.7378 11.0456 14.6652 10.8604 14.4571C10.1592 13.669 9.45915 12.8794 8.76598 12.0841C8.37834 11.6392 8.38483 11.6339 7.794 11.6335C6.31752 11.6335 4.84105 11.637 3.36457 11.6316C1.74258 11.6255 0.513962 10.3934 0.510906 8.77366C0.508233 7.24674 0.507469 5.71983 0.510906 4.19253C0.513962 2.75382 1.46989 1.61216 2.88221 1.36283C3.0999 1.32427 7.81272 1.31472 8.03461 1.31396C6.53904 1.31396 9.53019 1.31014 8.03461 1.31396Z" fill="black"/>
</svg>
