<svg width="16" height="17" viewBox="0 0 16 17" fill="none" xmlns="http://www.w3.org/2000/svg">
<path d="M6.08178 5.57109C6.33178 5.57109 6.57178 5.64109 6.77178 5.73109C6.99178 5.82109 7.17178 5.95109 7.33178 6.12109C7.43178 6.22109 7.52178 6.34109 7.60178 6.47109C7.83178 6.87109 8.32538 7.16895 8.70178 7.10109L9.01178 7.06109C9.14178 7.03109 9.26178 7.01109 9.39178 7.01109C9.46178 7.01109 9.52178 7.01109 9.59178 7.02109C9.74178 7.04109 9.85178 7.06109 9.95178 7.10109C10.1318 7.17109 10.2918 7.25109 10.4218 7.34109C10.5118 7.41109 10.6118 7.49109 10.7018 7.59109C10.7618 7.65109 10.8318 7.75109 10.9118 7.88109C11.1518 8.23109 11.5318 8.43109 11.9518 8.43109H12.0318H12.0918H12.1918C12.2918 8.41109 12.3918 8.40109 12.5218 8.39109C12.6818 8.39109 12.8518 8.42109 13.0318 8.48109C13.2418 8.55109 13.4218 8.66109 13.5918 8.80109C13.8718 9.04109 14.0518 9.33109 14.1518 9.67109C14.1918 9.81109 14.2118 9.92109 14.2018 10.0011C14.2018 10.0611 14.2018 10.1111 14.2018 10.1711V10.2311C14.1818 10.7011 14.0018 11.0911 13.6218 11.4311C13.3918 11.6411 13.1218 11.7811 12.7918 11.8511C12.6718 11.8811 12.5418 11.8911 12.4018 11.8911H10.4318H8.80178H7.99178H6.93178H5.87178H3.61178C3.45178 11.8911 3.31178 11.8811 3.19178 11.8511C2.81178 11.7611 2.50178 11.5811 2.25178 11.3011C2.03178 11.0511 1.89178 10.7811 1.83178 10.4611C1.76178 10.1011 1.80178 9.76109 1.95178 9.43109C2.04178 9.21109 2.17178 9.03109 2.32178 8.88109C2.49178 8.71109 2.68178 8.59109 2.90178 8.51109C3.02178 8.46109 3.14178 8.43109 3.27178 8.41109C3.86178 8.31109 4.29178 7.84109 4.34178 7.24109C4.38178 6.72109 4.58178 6.32109 4.96178 5.98109C5.12178 5.84109 5.31178 5.73109 5.54178 5.65109C5.70178 5.60109 5.88178 5.57109 6.08178 5.57109ZM6.08178 4.37109C5.76178 4.37109 5.45178 4.41109 5.15178 4.51109C4.78178 4.63109 4.45178 4.82109 4.16178 5.07109C3.53178 5.62109 3.19178 6.31109 3.13178 7.14109C3.13178 7.19109 3.11178 7.21109 3.06178 7.22109C2.85178 7.25109 2.65178 7.31109 2.45178 7.39109C2.09178 7.53109 1.76178 7.74109 1.48178 8.02109C1.21178 8.29109 1.00178 8.60109 0.841781 8.95109C0.611781 9.53109 0.551781 10.1111 0.661781 10.7111C0.761781 11.2511 1.00178 11.7211 1.37178 12.1311C1.79178 12.6011 2.32178 12.9011 2.93178 13.0411C3.15178 13.0911 3.38178 13.1111 3.62178 13.1111C4.37178 13.1111 5.12178 13.1111 5.87178 13.1111C6.58178 13.1111 7.29178 13.1111 7.99178 13.1111C8.80178 13.1111 9.62178 13.1111 10.4318 13.1111C11.0918 13.1111 11.7518 13.1111 12.4018 13.1111C12.6118 13.1111 12.8318 13.0911 13.0318 13.0511C13.5618 12.9411 14.0318 12.7111 14.4318 12.3411C15.0218 11.7911 15.3618 11.1211 15.3918 10.3111C15.3918 10.2311 15.3918 10.1511 15.3918 10.0611C15.3918 9.83109 15.3618 9.60109 15.2918 9.38109C15.1318 8.80109 14.8118 8.31109 14.3518 7.91109C14.0718 7.67109 13.7618 7.49109 13.4118 7.37109C13.1218 7.27109 12.8218 7.21109 12.5118 7.21109C12.4818 7.21109 12.4618 7.21109 12.4318 7.21109C12.2718 7.21109 12.0918 7.24109 11.9318 7.25109C11.9118 7.25109 11.8918 7.25109 11.8718 7.22109C11.7718 7.08109 11.6718 6.93109 11.5518 6.80109C11.4118 6.65109 11.2618 6.51109 11.0918 6.38109C10.8518 6.21109 10.6018 6.08109 10.3218 5.98109C10.1218 5.91109 9.92178 5.87109 9.71178 5.84109C9.59178 5.82109 9.47178 5.82109 9.36178 5.82109C9.14178 5.82109 8.92178 5.85109 8.70178 5.90109C8.69178 5.90109 8.68178 5.90109 8.67178 5.90109C8.64178 5.90109 8.63178 5.89109 8.61178 5.86109C8.49178 5.65109 8.34178 5.45109 8.17178 5.27109C7.90178 4.99109 7.58178 4.77109 7.22178 4.62109C6.85178 4.46109 6.48178 4.37109 6.08178 4.37109Z" fill="black"/>
</svg>
