<svg width="16" height="16" viewBox="0 0 16 16" fill="none" xmlns="http://www.w3.org/2000/svg">
<path d="M16 8.46472C15.9957 10.2717 14.751 11.5167 13.2046 11.5085C13.0032 11.5074 12.9229 11.5665 12.8562 11.7615C12.1943 13.7007 9.70461 14.3748 8.14421 13.0467C7.97505 12.9026 7.81449 12.7503 7.68834 12.5689C7.5966 12.4371 7.5518 12.4711 7.47367 12.5811C6.87338 13.428 5.81363 13.7695 4.83883 13.4115C4.09554 13.1384 3.59989 12.6116 3.40278 11.8386C3.34902 11.6275 3.25154 11.5676 3.053 11.5526C1.87929 11.4637 1.00447 10.8849 0.414567 9.88106C-0.248444 8.75215 -0.100432 7.22435 0.745715 6.22302C1.4184 5.42705 2.27924 5.03032 3.31784 5.02065C3.51997 5.01885 3.72461 5.03641 3.92101 5.09017C4.04895 5.12529 4.08873 5.07619 4.11489 4.96043C4.36934 3.84335 5.0259 3.04738 6.05877 2.56284C7.42027 1.9242 9.14661 2.33455 10.0784 3.51041C10.1598 3.61291 10.2239 3.75483 10.3304 3.80393C10.4479 3.85804 10.5676 3.72437 10.6884 3.67885C12.4126 3.02946 14.2278 4.16375 14.3844 5.99473C14.3962 6.13128 14.4428 6.2112 14.5693 6.28538C15.4972 6.8312 15.9731 7.64904 15.9996 8.46472H16Z" fill="black"/>
</svg>
