<svg width="16" height="16" viewBox="0 0 16 16" fill="none" xmlns="http://www.w3.org/2000/svg">
<path d="M5.54834 12.6555C5.00834 12.6555 4.46834 12.6555 3.91834 12.6455C2.60834 12.6255 1.57834 11.9855 0.948336 10.7955C0.658336 10.2455 0.538336 9.61554 0.608336 8.92554C0.688336 8.11554 1.02834 7.40554 1.61834 6.82554C1.98834 6.46554 2.43834 6.19554 2.94834 6.04554C3.13834 5.09554 3.66834 4.33554 4.51834 3.80554C4.99834 3.51554 5.52834 3.35554 6.11834 3.33554C6.94834 3.31554 7.69834 3.57554 8.36834 4.11554C8.56834 4.27554 8.73834 4.45554 8.89834 4.67554C9.71834 4.58554 10.4883 4.79554 11.1983 5.29554C11.4483 5.46554 11.6683 5.68554 11.8683 5.93554C12.6683 5.88554 13.3983 6.10554 14.0383 6.58554C14.7983 7.15554 15.2583 7.92554 15.3783 8.83554C15.5183 9.89554 15.2083 10.8655 14.4683 11.6255C13.9383 12.1755 13.2783 12.5155 12.5083 12.6255C12.2583 12.6655 12.0083 12.6655 11.7583 12.6655H6.76834C6.35834 12.6655 5.94834 12.6655 5.53834 12.6655L5.54834 12.6555ZM6.21834 4.66554C6.21834 4.66554 6.17834 4.66554 6.15834 4.66554C5.79834 4.66554 5.49834 4.76554 5.21834 4.93554C4.60834 5.31554 4.27834 5.84554 4.21834 6.56554C4.18834 6.92554 3.93834 7.19554 3.58834 7.26554C3.16834 7.34554 2.82834 7.51554 2.54834 7.78554C2.17834 8.14554 1.97834 8.55554 1.93834 9.05554C1.89834 9.48554 1.95834 9.85554 2.12834 10.1755C2.52834 10.9355 3.12834 11.3055 3.94834 11.3255C4.88834 11.3455 5.83834 11.3355 6.77834 11.3255H8.00834H11.7783C11.9583 11.3255 12.1483 11.3255 12.3283 11.3055C12.8083 11.2355 13.1983 11.0355 13.5283 10.6955C13.9883 10.2255 14.1583 9.66554 14.0783 9.00554C14.0083 8.44554 13.7383 8.00554 13.2583 7.65554C12.8183 7.32554 12.3183 7.20554 11.7483 7.29554C11.4183 7.34554 11.1283 7.20554 10.9583 6.93554C10.8083 6.71554 10.6383 6.52554 10.4483 6.39554C9.94834 6.04554 9.41834 5.92554 8.83834 6.04554C8.45834 6.12554 8.16834 5.99554 7.96834 5.66554C7.83834 5.45554 7.70834 5.29554 7.54834 5.16554C7.14834 4.83554 6.70834 4.67554 6.22834 4.67554L6.21834 4.66554Z" fill="black"/>
</svg>
