<svg width="16" height="16" viewBox="0 0 16 16" fill="none" xmlns="http://www.w3.org/2000/svg">
<path d="M6.08172 4.83013C6.33172 4.83013 6.57172 4.90013 6.77172 4.99013C6.99172 5.08013 7.17172 5.21013 7.33172 5.38013C7.43172 5.48013 7.52172 5.60013 7.60172 5.73013C7.83172 6.13013 8.32532 6.42798 8.70172 6.36013L9.01172 6.32013C9.14172 6.29013 9.26172 6.27013 9.39172 6.27013C9.46172 6.27013 9.52172 6.27013 9.59172 6.28013C9.74172 6.30013 9.85172 6.32013 9.95172 6.36013C10.1317 6.43013 10.2917 6.51013 10.4217 6.60013C10.5117 6.67013 10.6117 6.75013 10.7017 6.85013C10.7617 6.91013 10.8317 7.01013 10.9117 7.14013C11.1517 7.49013 11.5317 7.69013 11.9517 7.69013H12.0317H12.0917H12.1917C12.2917 7.67013 12.3917 7.66013 12.5217 7.65013C12.6817 7.65013 12.8517 7.68013 13.0317 7.74013C13.2417 7.81013 13.4217 7.92013 13.5917 8.06013C13.8717 8.30013 14.0517 8.59013 14.1517 8.93013C14.1917 9.07013 14.2117 9.18013 14.2017 9.26013C14.2017 9.32013 14.2017 9.37013 14.2017 9.43013V9.49013C14.1817 9.96013 14.0017 10.3501 13.6217 10.6901C13.3917 10.9001 13.1217 11.0401 12.7917 11.1101C12.6717 11.1401 12.5417 11.1501 12.4017 11.1501H10.4317H8.80172H7.99172H6.93172H5.87172H3.61172C3.45172 11.1501 3.31172 11.1401 3.19172 11.1101C2.81172 11.0201 2.50172 10.8401 2.25172 10.5601C2.03172 10.3101 1.89172 10.0401 1.83172 9.72013C1.76172 9.36013 1.80172 9.02013 1.95172 8.69013C2.04172 8.47013 2.17172 8.29013 2.32172 8.14013C2.49172 7.97013 2.68172 7.85013 2.90172 7.77013C3.02172 7.72013 3.14172 7.69013 3.27172 7.67013C3.86172 7.57013 4.29172 7.10013 4.34172 6.50013C4.38172 5.98013 4.58172 5.58013 4.96172 5.24013C5.12172 5.10013 5.31172 4.99013 5.54172 4.91013C5.70172 4.86013 5.88172 4.83013 6.08172 4.83013ZM6.08172 3.63013C5.76172 3.63013 5.45172 3.67013 5.15172 3.77013C4.78172 3.89013 4.45172 4.08013 4.16172 4.33013C3.53172 4.88013 3.19172 5.57013 3.13172 6.40013C3.13172 6.45013 3.11172 6.47013 3.06172 6.48013C2.85172 6.51013 2.65172 6.57013 2.45172 6.65013C2.09172 6.79013 1.76172 7.00013 1.48172 7.28013C1.21172 7.55013 1.00172 7.86013 0.84172 8.21013C0.61172 8.79013 0.55172 9.37013 0.66172 9.97013C0.76172 10.5101 1.00172 10.9801 1.37172 11.3901C1.79172 11.8601 2.32172 12.1601 2.93172 12.3001C3.15172 12.3501 3.38172 12.3701 3.62172 12.3701C4.37172 12.3701 5.12172 12.3701 5.87172 12.3701C6.58172 12.3701 7.29172 12.3701 7.99172 12.3701C8.80172 12.3701 9.62172 12.3701 10.4317 12.3701C11.0917 12.3701 11.7517 12.3701 12.4017 12.3701C12.6117 12.3701 12.8317 12.3501 13.0317 12.3101C13.5617 12.2001 14.0317 11.9701 14.4317 11.6001C15.0217 11.0501 15.3617 10.3801 15.3917 9.57013C15.3917 9.49013 15.3917 9.41013 15.3917 9.32013C15.3917 9.09013 15.3617 8.86013 15.2917 8.64013C15.1317 8.06013 14.8117 7.57013 14.3517 7.17013C14.0717 6.93013 13.7617 6.75013 13.4117 6.63013C13.1217 6.53013 12.8217 6.47013 12.5117 6.47013C12.4817 6.47013 12.4617 6.47013 12.4317 6.47013C12.2717 6.47013 12.0917 6.50013 11.9317 6.51013C11.9117 6.51013 11.8917 6.51013 11.8717 6.48013C11.7717 6.34013 11.6717 6.19013 11.5517 6.06013C11.4117 5.91013 11.2617 5.77013 11.0917 5.64013C10.8517 5.47013 10.6017 5.34013 10.3217 5.24013C10.1217 5.17013 9.92172 5.13013 9.71172 5.10013C9.59172 5.08013 9.47172 5.08013 9.36172 5.08013C9.14172 5.08013 8.92172 5.11013 8.70172 5.16013C8.69172 5.16013 8.68172 5.16013 8.67172 5.16013C8.64172 5.16013 8.63172 5.15013 8.61172 5.12013C8.49172 4.91013 8.34172 4.71013 8.17172 4.53013C7.90172 4.25013 7.58172 4.03013 7.22172 3.88013C6.85172 3.72013 6.48172 3.63013 6.08172 3.63013Z" fill="black"/>
</svg>
