<svg width="16" height="16" viewBox="0 0 16 16" fill="none" xmlns="http://www.w3.org/2000/svg">
<g clip-path="url(#clip0_763_28882)">
<path d="M5.92382 3.27026C5.57749 3.27026 5.24197 3.31356 4.91729 3.42179C4.51684 3.55166 4.15968 3.7573 3.84581 4.02787C3.16397 4.62313 2.79599 5.36992 2.73105 6.26822C2.73105 6.32234 2.7094 6.34399 2.65529 6.35481C2.428 6.38728 2.21155 6.45221 1.99509 6.5388C1.60546 6.69032 1.2483 6.9176 0.945258 7.22065C0.653038 7.51287 0.425756 7.84838 0.252589 8.22718C0.00366071 8.85491 -0.0612771 9.48264 0.0577755 10.132C0.166005 10.7165 0.425756 11.2251 0.826206 11.6689C1.28077 12.1776 1.85439 12.5023 2.51459 12.6538C2.75269 12.7079 3.00162 12.7295 3.26137 12.7295C4.07309 12.7295 4.88482 12.7295 5.69654 12.7295C6.46497 12.7295 7.2334 12.7295 7.99101 12.7295C8.86767 12.7295 9.75515 12.7295 10.6318 12.7295C11.3461 12.7295 12.0604 12.7295 12.7639 12.7295C12.9912 12.7295 13.2293 12.7079 13.4458 12.6646C14.0194 12.5455 14.5281 12.2966 14.961 11.8962C15.5995 11.3009 15.9675 10.5758 16 9.6991C16 9.61252 16 9.52594 16 9.42853C16 9.1796 15.9675 8.93067 15.8918 8.69257C15.7186 8.06484 15.3723 7.53451 14.8744 7.10159C14.5714 6.84184 14.2359 6.64703 13.8571 6.51715C13.5432 6.40892 13.2185 6.34399 12.883 6.34399C12.8505 6.34399 12.8289 6.34399 12.7964 6.34399C12.6232 6.34399 12.4284 6.37645 12.2553 6.38728C12.2336 6.38728 12.212 6.38728 12.1903 6.35481C12.0821 6.20329 11.9739 6.04094 11.844 5.90024C11.6925 5.7379 11.5301 5.58638 11.3461 5.44568C11.0864 5.26169 10.8158 5.12099 10.5128 5.01276C10.2963 4.937 10.0798 4.89371 9.85256 4.86124C9.72268 4.83959 9.59281 4.83959 9.47375 4.83959C9.23565 4.83959 8.72697 4.92618 8.72697 4.92618C8.6945 4.92618 8.68368 4.91535 8.66203 4.88289C8.53216 4.6556 8.36981 4.43914 8.18582 4.24433C7.8936 3.94129 7.54727 3.70318 7.15764 3.54084C6.75719 3.36767 6.35674 3.27026 5.92382 3.27026Z" fill="black"/>
</g>
<defs>
<clipPath id="clip0_763_28882">
<rect width="16" height="16" fill="white"/>
</clipPath>
</defs>
</svg>
