<svg width="16" height="16" viewBox="0 0 16 16" fill="none" xmlns="http://www.w3.org/2000/svg">
<path fill-rule="evenodd" clip-rule="evenodd" d="M1.99996 1.47607C1.63269 1.47607 1.33496 1.7738 1.33496 2.14107V11.8585C1.33496 13.3303 2.52812 14.5235 3.99996 14.5235H14C14.3672 14.5235 14.665 14.2258 14.665 13.8585C14.665 13.4912 14.3672 13.1935 14 13.1935H3.99996C3.26266 13.1935 2.66496 12.5958 2.66496 11.8585V2.14107C2.66496 1.7738 2.36723 1.47607 1.99996 1.47607ZM13.5137 2.35718C13.1588 2.26284 12.7946 2.47409 12.7002 2.82904C11.0014 9.22035 6.64741 10.7593 4.66073 10.677C4.29378 10.6618 3.98397 10.9469 3.96877 11.3139C3.95356 11.6808 4.2387 11.9907 4.60566 12.0059C7.24606 12.1153 12.1346 10.1343 13.9856 3.17069C14.0799 2.81575 13.8687 2.45153 13.5137 2.35718ZM8.35679 2.78247C7.75387 2.78247 7.26509 3.27124 7.26509 3.87417C7.26509 4.47709 7.75387 4.96586 8.35679 4.96586C8.95971 4.96586 9.44848 4.47709 9.44848 3.87417C9.44848 3.27124 8.95971 2.78247 8.35679 2.78247ZM7.00006 6.93481C6.62394 6.93481 6.31905 7.23971 6.31905 7.61583C6.31905 7.99196 6.62394 8.29685 7.00006 8.29685C7.37619 8.29685 7.68108 7.99196 7.68108 7.61583C7.68108 7.23971 7.37619 6.93481 7.00006 6.93481ZM13.3429 8.41724C12.8534 8.41724 12.4565 8.81408 12.4565 9.30359C12.4565 9.79311 12.8534 10.19 13.3429 10.19C13.8324 10.19 14.2293 9.79311 14.2293 9.30359C14.2293 8.81408 13.8324 8.41724 13.3429 8.41724ZM10.6161 10.9348C10.24 10.9348 9.93506 11.2397 9.93506 11.6158C9.93506 11.992 10.24 12.2968 10.6161 12.2968C10.9922 12.2968 11.2971 11.992 11.2971 11.6158C11.2971 11.2397 10.9922 10.9348 10.6161 10.9348Z" fill="black"/>
</svg>
