<svg width="16" height="16" viewBox="0 0 16 16" fill="none" xmlns="http://www.w3.org/2000/svg">
<g clip-path="url(#clip0_731_29889)">
<path d="M8.22548 13.017C8.0443 13.6402 7.78578 14.2187 7.41814 14.7533C6.66166 15.8536 5.38867 16.2727 4.14111 15.8215C3.75387 15.6816 3.47893 15.4293 3.30464 15.0625C3.28557 15.023 3.26385 14.9834 3.25273 14.9412C3.01593 14.0445 2.4528 13.5294 1.52468 13.3447C0.680266 13.1763 0.339637 12.4496 0.2713 11.5366C0.181242 10.337 0.814822 9.51054 1.7546 8.8614C2.13231 8.60069 2.55081 8.42547 3.04877 8.23812C2.45651 8.08085 1.95537 7.90088 1.50138 7.60903C0.549947 6.99789 -0.0491984 6.1862 0.00324671 5.00403C0.0186094 4.65834 0.105488 4.32691 0.252229 4.01343C0.458831 3.57328 0.843958 3.34581 1.28524 3.21124C1.98874 2.99697 2.40566 2.55312 2.59478 1.83432C2.89197 0.705975 3.87518 0.131776 5.03851 0.328101C6.16952 0.519149 6.86508 1.24851 7.40119 2.18317C7.55376 2.44916 7.66712 2.73467 7.78049 3.08246C7.93623 2.5241 8.0994 2.03592 8.37434 1.58997C8.83363 0.844247 9.42059 0.256327 10.3116 0.0710839C11.0877 -0.0904096 11.8214 0.000364524 12.4354 0.560842C12.6796 0.783555 12.7824 1.09018 12.8798 1.38942C13.0944 2.04437 13.533 2.43227 14.2047 2.57793C14.4453 2.63018 14.6858 2.69615 14.8998 2.82439C15.4237 3.13946 15.6128 3.65877 15.7092 4.2145C15.91 5.37134 15.4067 6.24003 14.5332 6.94406C14.0919 7.29977 13.5913 7.54992 12.99 7.75417C13.2454 7.83861 13.4366 7.89297 13.621 7.96474C14.5618 8.32889 15.3739 8.85718 15.7839 9.82139C16.1113 10.5914 16.0636 11.364 15.6616 12.1071C15.4814 12.4401 15.1684 12.5974 14.8389 12.7341C14.6683 12.8048 14.4951 12.8708 14.325 12.9431C13.8996 13.1225 13.6273 13.4386 13.4922 13.8761C13.4562 13.9938 13.4096 14.1094 13.3858 14.2292C13.2184 15.0847 12.6319 15.4842 11.8309 15.6336C10.6994 15.8447 9.81684 15.4014 9.09797 14.5606C8.7102 14.1073 8.43049 13.5922 8.22495 13.017H8.22548Z" fill="black"/>
</g>
<defs>
<clipPath id="clip0_731_29889">
<rect width="16" height="16" fill="white"/>
</clipPath>
</defs>
</svg>
