<svg width="16" height="16" viewBox="0 0 16 16" fill="none" xmlns="http://www.w3.org/2000/svg">
<path d="M6.97622 14.0666C5.01224 14.0666 3.04799 14.0677 1.08401 14.0658C0.620441 14.0655 0.275012 13.8668 0.0813925 13.4344C0.019378 13.2955 0.000854595 13.1462 0.000854595 12.9961C1.2769e-05 9.75563 -0.000548448 6.51488 0.000854595 3.27441C0.0011352 2.50078 0.566565 1.93984 1.34048 1.93928C2.26649 1.93844 3.1925 1.94966 4.11823 1.93367C4.64381 1.92441 5.04508 2.11887 5.36722 2.52771C5.59226 2.81337 5.84565 3.07659 6.08697 3.34934C6.14506 3.415 6.21381 3.44755 6.30781 3.44755C8.48674 3.44839 10.6657 3.45204 12.8446 3.45625C13.4894 3.45737 13.9816 3.82946 14.1466 4.44399C14.2106 4.68223 14.171 4.92804 14.1778 5.17049C14.1831 5.35821 14.1794 5.35877 14.3646 5.35906C14.5751 5.35962 14.7856 5.35793 14.996 5.35962C15.6035 5.36467 16.0778 5.91606 15.9894 6.51628C15.9279 6.93411 15.7798 7.32977 15.6678 7.73441C15.4096 8.66687 15.1405 9.59596 14.8756 10.5267C14.6262 11.4034 14.3801 12.2808 14.1256 13.156C13.967 13.701 13.4706 14.0652 12.8962 14.0658C10.9227 14.0675 8.94946 14.0663 6.97594 14.0663L6.97622 14.0666Z" fill="black"/>
</svg>
