<svg width="16" height="16" viewBox="0 0 16 16" fill="none" xmlns="http://www.w3.org/2000/svg">
<path fill-rule="evenodd" clip-rule="evenodd" d="M1 3.87476C1 4.97933 1.89543 5.87476 3 5.87476L3 7.67383C3 8.7784 3.89543 9.67383 5 9.67383H5.5V13.5252C5.5 14.4089 6.21634 15.1252 7.1 15.1252H8.9C9.78366 15.1252 10.5 14.4089 10.5 13.5252V9.67383H11C12.1046 9.67383 13 8.7784 13 7.67383V5.87476C14.1046 5.87476 15 4.97933 15 3.87476V2.87476C15 1.77019 14.1046 0.874756 13 0.874756H3C1.89543 0.874756 1 1.77019 1 2.87476V3.87476ZM13 2.07476H3C2.55817 2.07476 2.2 2.43293 2.2 2.87476V3.87476C2.2 4.31658 2.55817 4.67476 3 4.67476L13 4.67383C13.4418 4.67383 13.8 4.31658 13.8 3.87476V2.87476C13.8 2.43293 13.4418 2.07476 13 2.07476ZM4.2 7.67383V5.87476H11.8V7.67383C11.8 8.11566 11.4418 8.47383 11 8.47383H5C4.55817 8.47383 4.2 8.11566 4.2 7.67383ZM6.7 9.67437H9.3V13.5252C9.3 13.7462 9.12091 13.9252 8.9 13.9252H7.1C6.87909 13.9252 6.7 13.7462 6.7 13.5252V9.67437Z" fill="black"/>
</svg>
