<svg width="16" height="16" viewBox="0 0 16 16" fill="none" xmlns="http://www.w3.org/2000/svg">
<g clip-path="url(#clip0_731_29840)">
<path fill-rule="evenodd" clip-rule="evenodd" d="M12.6515 5.66694C12.7049 5.79005 12.8116 5.822 12.9445 5.78109H12.9453C13.156 5.71642 13.1946 5.74291 13.1841 5.95836C13.1634 6.38459 12.9792 6.7212 12.6013 6.93003C12.2245 7.13846 11.8431 7.12054 11.4675 6.91444C11.3319 6.84003 11.2821 6.76055 11.388 6.61055C11.5295 6.4103 11.5571 6.17927 11.4925 5.94044C11.4562 5.8072 11.3787 5.71525 11.231 5.732C11.081 5.74915 11.0257 5.85161 11.0374 5.99576C11.0377 5.99998 11.0381 6.00421 11.0384 6.00843C11.0416 6.04947 11.0448 6.09076 11.0452 6.13173C11.0479 6.34329 10.947 6.49484 10.7674 6.55211C10.5851 6.61017 10.4027 6.5338 10.287 6.34991C10.2743 6.32974 10.2632 6.30829 10.252 6.28698C10.2481 6.27948 10.2442 6.272 10.2403 6.26459C10.1729 6.13875 10.065 6.10914 9.9434 6.16134C9.81639 6.21589 9.78912 6.32498 9.82457 6.45432C9.92002 6.80263 10.3385 7.09093 10.7125 7.04379C10.8309 7.02899 10.9116 7.0547 10.9918 7.13067C11.3066 7.42716 11.6822 7.55534 12.1123 7.53547C12.1246 7.53493 12.1381 7.53277 12.152 7.53055C12.1987 7.52306 12.2494 7.51495 12.2701 7.56663C12.2906 7.61794 12.249 7.6475 12.2101 7.67506C12.1988 7.68308 12.1878 7.69093 12.1785 7.6991C11.921 7.92663 11.6089 8.02675 11.277 8.07818C11.2551 8.08158 11.2329 8.0833 11.2107 8.08501C11.1743 8.08782 11.138 8.09062 11.1036 8.10078C10.9918 8.1335 10.9248 8.21337 10.9353 8.33142C10.9455 8.44518 11.0113 8.527 11.1325 8.53674C11.1796 8.5407 11.2272 8.5382 11.2748 8.53569C11.3115 8.53376 11.3483 8.53183 11.3849 8.53284C11.4174 8.53381 11.4536 8.5226 11.4898 8.51138C11.5709 8.48625 11.6522 8.46106 11.6923 8.57258C11.7035 8.60376 11.7162 8.63521 11.729 8.66693C11.7955 8.83224 11.8651 9.00499 11.7504 9.18542C11.6506 9.34282 11.3915 9.3623 11.2801 9.19984C11.0351 8.84141 10.6907 8.62557 10.3127 8.44051C10.1382 8.35519 9.97729 8.24025 9.85924 8.07974C9.85421 8.0729 9.84868 8.06598 9.84305 8.05895C9.81215 8.02031 9.77836 7.97807 9.80704 7.92468C9.82896 7.88383 9.87103 7.88281 9.91218 7.88181C9.92441 7.88151 9.93656 7.88121 9.94808 7.87987C9.97486 7.87676 10.0018 7.87464 10.0288 7.87252C10.0861 7.86802 10.1433 7.86353 10.1982 7.84948C10.3326 7.81481 10.3856 7.71624 10.3646 7.58222C10.3423 7.44196 10.2461 7.37612 10.114 7.39716C9.66133 7.46885 9.23705 7.39248 8.83148 7.18483C8.69785 7.11626 8.58525 7.16924 8.47227 7.25145C7.88865 7.67611 7.1036 7.49378 6.78451 6.85328C6.60023 6.48393 6.62322 6.11342 6.83555 5.75694C6.84467 5.74171 6.85458 5.72666 6.86451 5.71159C6.89065 5.67189 6.91692 5.63201 6.92906 5.58824C6.95867 5.48227 6.94542 5.37552 6.83984 5.31396C6.73192 5.25124 6.62595 5.26916 6.54023 5.36266C6.50724 5.39823 6.4808 5.44 6.45474 5.48117C6.45311 5.48374 6.45148 5.48632 6.44985 5.48889C6.317 5.69928 6.16661 5.69304 6.04272 5.47175C5.99958 5.39418 5.99624 5.31087 5.99285 5.22622C5.99259 5.21989 5.99234 5.21356 5.99207 5.20721C5.98622 5.07436 5.92662 4.98241 5.78402 4.9715C5.6352 4.95982 5.55805 5.03929 5.52766 5.18033C5.46143 5.48812 5.68272 5.89057 6.01038 6.06122C6.02684 6.06969 6.04465 6.07651 6.06256 6.08337C6.11624 6.10393 6.1708 6.12483 6.19271 6.19173C6.24453 6.3503 6.14947 6.45004 5.95311 6.44069C5.25027 6.40679 4.61989 5.86914 4.47574 5.17994C4.45198 5.0654 4.4286 4.95085 4.43639 4.87293C4.44029 4.61619 4.47964 4.40697 4.56496 4.2075C4.65106 4.00569 4.65184 4.00452 4.82132 4.14672C4.93157 4.23906 5.043 4.28853 5.16534 4.17165C5.27092 4.07153 5.25767 3.92699 5.13456 3.79569C5.12819 3.78876 5.12128 3.78237 5.1144 3.776C5.10696 3.76912 5.09955 3.76227 5.09287 3.75478C4.88755 3.52608 4.89924 3.17194 5.11897 2.9635C5.34728 2.74727 5.7061 2.75662 5.92467 2.98571C5.95584 3.01843 5.98389 3.05467 6.00999 3.09168C6.10193 3.2222 6.22583 3.23934 6.34933 3.15908C6.47751 3.07571 6.4631 2.95026 6.3918 2.8326C6.27336 2.6378 6.10739 2.49287 5.89272 2.41728C5.7509 2.36741 5.74311 2.29261 5.81792 2.18391C5.98739 1.93768 6.21414 1.7947 6.52037 1.80093C6.6392 1.80327 6.73114 1.82431 6.66569 1.98444C6.61348 2.11106 6.62712 2.23768 6.77361 2.29222C6.92477 2.34832 7.02724 2.28287 7.10399 2.13872C7.4784 1.43666 8.24474 1.19199 8.90122 1.55432C9.04693 1.63457 9.14744 1.72067 9.04965 1.90418C9.02394 1.95288 9.02121 2.01755 9.02082 2.07482C9.01965 2.19443 9.08511 2.27157 9.19926 2.29806C9.31575 2.32534 9.40263 2.27703 9.45211 2.16833C9.46708 2.13558 9.47781 2.10059 9.48848 2.06575C9.49114 2.05707 9.4938 2.04839 9.49652 2.03976C9.58107 1.77366 9.82808 1.59367 10.079 1.61548C10.3552 1.63925 10.5668 1.84613 10.6065 2.13209C10.6121 2.1724 10.612 2.21366 10.612 2.25444C10.612 2.25899 10.612 2.26353 10.612 2.26806C10.6123 2.39196 10.6583 2.48624 10.7865 2.51507C10.9139 2.5439 11.0093 2.48351 11.0464 2.36702C11.083 2.25092 11.1508 2.24975 11.24 2.27858C11.8711 2.48274 12.2728 2.9035 12.4357 3.54829C12.4719 3.69128 12.4384 3.78984 12.2752 3.81634C12.2365 3.82255 12.1994 3.84283 12.1638 3.86228C12.1592 3.86478 12.1546 3.86727 12.1501 3.86971C12.0227 3.93789 11.9397 4.03607 12.0032 4.18529C12.0659 4.33217 12.1879 4.34892 12.3297 4.29944C12.5931 4.20711 12.8401 4.2075 13.0392 4.44165C13.2628 4.70424 13.2075 5.08644 12.918 5.27228C12.8874 5.29211 12.8543 5.3081 12.8212 5.3241C12.8016 5.33357 12.782 5.34304 12.7629 5.35331C12.6313 5.42383 12.597 5.54032 12.6515 5.66694ZM7.17217 4.24802C7.3171 4.27451 7.3993 4.19815 7.44138 4.05906V4.05945C7.57735 3.60712 7.73787 3.49141 8.24045 3.46375C8.38149 3.45635 8.47499 3.38505 8.48123 3.237C8.48707 3.09869 8.40136 3.02389 8.27552 2.99467C8.2415 2.98664 8.20564 2.9867 8.16971 2.98677C8.15338 2.9868 8.13704 2.98683 8.12085 2.9861C7.9467 2.97519 7.78501 3.02817 7.63424 3.1022C7.27347 3.27947 7.05139 3.56816 6.99373 3.96984C6.97425 4.10347 7.02256 4.22074 7.17217 4.24802ZM9.55652 5.64941C10.0981 5.53681 10.4752 5.21656 10.6782 4.69956L10.6786 4.69995C10.7296 4.57021 10.7366 4.43931 10.5882 4.36334C10.4557 4.29555 10.3221 4.36256 10.2461 4.52385C9.86977 5.32293 8.99122 5.4589 8.40876 4.80553C8.30279 4.68671 8.19604 4.60528 8.04371 4.71554C7.92566 4.80086 7.93072 4.96176 8.05345 5.11176C8.20344 5.29448 8.37954 5.44838 8.59928 5.5411C8.75824 5.60811 8.72823 5.67434 8.61252 5.75187C8.45707 5.8559 8.28565 5.90343 8.09786 5.90226C7.88943 5.9007 7.79943 5.97044 7.80605 6.12472C7.81423 6.31368 7.94709 6.35342 8.10293 6.35887C8.1245 6.35965 8.14624 6.35939 8.16793 6.35913C8.17876 6.359 8.18956 6.35887 8.20033 6.35887C8.60006 6.35926 8.91914 6.18355 9.15407 5.87538C9.26433 5.73084 9.39133 5.68369 9.55652 5.64941Z" fill="black"/>
<path fill-rule="evenodd" clip-rule="evenodd" d="M13.7171 1.98875C14.2368 2.51433 14.6696 3.08353 14.9252 3.77975L14.9244 3.77936C15.1473 4.38558 15.1862 5.01907 15.2065 5.67516C15.1718 6.61137 15.0659 7.54874 14.5278 8.37704C14.2757 8.76508 13.9711 9.11065 13.6403 9.43324C13.0988 9.96115 12.6562 10.5541 12.417 11.2819C12.2011 11.9388 12.1563 12.612 12.1933 13.2989C12.2249 13.8864 12.3441 14.454 12.4957 15.0193C12.6347 15.5391 12.2151 16.0448 11.6681 15.9968C11.2638 15.9615 10.8612 15.9061 10.4586 15.8507C10.3151 15.8309 10.1715 15.8112 10.0279 15.7923C9.55782 15.7309 9.08779 15.6688 8.61774 15.6066C7.9308 15.5159 7.24383 15.4251 6.55658 15.3365C6.09958 15.2776 5.85959 15.0634 5.75323 14.6204C5.6457 14.1712 5.51206 13.7313 5.23194 13.3507C5.12558 13.2065 5.02078 13.1469 4.82442 13.1909C4.19794 13.3312 3.56211 13.4224 2.92434 13.4995C2.09682 13.5996 1.63554 12.9743 1.72164 12.134C1.73722 11.9781 1.78281 11.827 1.84982 11.6863C1.93904 11.4989 1.89112 11.3625 1.72359 11.2542C1.69037 11.2327 1.65955 11.2066 1.62903 11.1807C1.62483 11.1772 1.62064 11.1736 1.61645 11.1701C1.40295 10.9901 1.35541 10.8455 1.46099 10.588C1.50969 10.4692 1.4836 10.4014 1.40178 10.3169C1.18672 10.0944 1.1801 9.93934 1.35775 9.6783C1.58528 9.34403 1.54152 9.05312 1.22646 8.8056C1.15516 8.74949 1.08698 8.68872 1.02269 8.62482C0.740623 8.34353 0.717249 8.05445 0.961528 7.74043C1.19412 7.44161 1.48164 7.19616 1.77735 6.96357C2.09682 6.71227 2.30059 6.39748 2.47747 6.02852C2.63681 5.69619 2.59824 5.49867 2.36643 5.23724C2.08319 4.91777 2.14436 4.53168 2.37033 4.20792C2.5904 3.89258 2.73541 3.54507 2.88041 3.1976C2.94949 3.03205 3.01857 2.8665 3.09576 2.70445C3.52549 1.8033 4.13872 1.06228 5.03831 0.595151C5.64063 0.282302 6.30023 0.161915 6.96761 0.0929553C7.665 0.0212687 8.36433 -0.00872882 9.066 0.00218C10.8893 0.0302313 12.4329 0.689435 13.7171 1.98875ZM13.0616 7.29764C13.1077 7.20062 13.1539 7.1035 13.2304 7.01967L13.2297 7.02045C13.6368 6.57513 13.7307 6.0519 13.5784 5.48036C13.5464 5.36036 13.5491 5.26023 13.5869 5.14335C13.7545 4.6283 13.5456 4.11909 13.0684 3.87637C12.964 3.82338 12.9398 3.74936 12.9262 3.64611C12.8019 2.69861 12.1205 1.96927 11.1874 1.78772C11.058 1.76278 10.9684 1.7133 10.8909 1.59993C10.5975 1.16981 10.0416 1.02878 9.58066 1.26604C9.46612 1.32526 9.39015 1.32098 9.2834 1.24812C8.60783 0.787614 7.80993 0.816835 7.16864 1.32176C7.0693 1.40007 6.98125 1.42734 6.85073 1.38955C6.18257 1.19514 5.52102 1.54656 5.29895 2.20771C5.26311 2.31524 5.20467 2.3729 5.09987 2.4216C4.73169 2.59224 4.50222 2.87237 4.49014 3.29469C4.48702 3.41118 4.44651 3.50313 4.37988 3.59702C3.89405 4.28272 3.82665 5.01946 4.19599 5.76632C4.57235 6.52682 5.21675 6.90045 6.06686 6.90045C6.21607 6.90006 6.31231 6.93551 6.3688 7.08045C6.41594 7.20161 6.4923 7.30875 6.58152 7.40459L6.58195 7.40505C6.71071 7.54316 6.81787 7.65809 7.05215 7.5355C7.3428 7.38355 7.48267 7.49966 7.47487 7.82926C7.47371 7.88419 7.47877 7.90679 7.53331 7.92783C7.74682 8.00925 7.90226 7.9477 7.98876 7.72212C8.01148 7.74784 8.0158 7.78829 8.01982 7.82588C8.02675 7.89077 8.03278 7.94713 8.13096 7.90445C8.18909 7.87911 8.25115 7.86598 8.31306 7.85287C8.413 7.83172 8.51256 7.81065 8.59459 7.73848C8.66705 7.67458 8.74653 7.66641 8.84705 7.69212C8.85726 7.6947 8.86887 7.69852 8.8813 7.7026C8.95512 7.72688 9.05761 7.76058 9.06561 7.60017C9.06795 7.55069 9.12405 7.53628 9.17353 7.53978C9.2308 7.54368 9.24795 7.58537 9.25574 7.63251C9.26309 7.67675 9.26873 7.72154 9.27438 7.76635C9.28579 7.8569 9.29721 7.94753 9.32275 8.0338C9.43145 8.40041 9.70884 8.62132 10.0201 8.81144C10.0653 8.83909 10.1107 8.86628 10.156 8.89345C10.4473 9.06802 10.7366 9.24137 10.9544 9.52558C11.1663 9.80259 11.5556 9.85206 11.8571 9.70402C12.152 9.55908 12.3145 9.23844 12.2611 8.88936C12.2405 8.75495 12.2148 8.61859 12.1672 8.49236C12.1177 8.35989 12.1376 8.28509 12.2646 8.20912C12.6192 7.9964 12.874 7.69056 13.052 7.31771C13.0552 7.31103 13.0584 7.30433 13.0616 7.29764Z" fill="black"/>
</g>
<defs>
<clipPath id="clip0_731_29840">
<rect width="16" height="16" fill="white"/>
</clipPath>
</defs>
</svg>
