<svg width="16" height="16" viewBox="0 0 16 16" fill="none" xmlns="http://www.w3.org/2000/svg">
<path d="M0.401187 6.22172V5.46194C0.418113 5.35278 0.433141 5.24304 0.452159 5.13426C0.804188 3.13163 2.66836 1.6134 4.85946 1.8962C6.22041 2.07193 7.22591 2.79824 7.88337 4.00381C7.91875 4.06885 7.95279 4.13465 7.9874 4.20027C8.01498 4.11925 8.06956 4.06163 8.10474 3.99335C8.8632 2.52685 10.4527 1.66874 12.0923 1.87585C13.4652 2.0493 14.4881 2.76591 15.1489 3.98118C15.5672 4.75009 15.6681 5.58005 15.5571 6.44043C15.48 7.03685 15.294 7.60207 15.0183 8.13249C14.6955 8.75344 14.2739 9.30783 13.7954 9.81847C13.168 10.4879 12.4721 11.0801 11.7488 11.6421C10.5767 12.5525 9.30518 13.3152 8.06823 14.1294C8.00699 14.1697 7.96001 14.1581 7.9041 14.1217C7.56462 13.9007 7.22458 13.6803 6.88301 13.4628C5.87637 12.8213 4.87696 12.1697 3.9443 11.4219C3.11016 10.7534 2.3131 10.0471 1.65373 9.19828C1.1235 8.51552 0.720128 7.76982 0.519294 6.92255C0.464522 6.69129 0.435234 6.45603 0.401001 6.22153L0.401187 6.22172Z" fill="black"/>
</svg>
