<svg width="16" height="16" viewBox="0 0 16 16" fill="none" xmlns="http://www.w3.org/2000/svg">
<g clip-path="url(#clip0_731_29854)">
<path d="M13.4271 5.22322C13.3972 4.36805 13.1719 3.56985 12.7655 2.81922C11.6211 0.705777 9.14416 -0.406041 6.80774 0.136448C4.17041 0.748631 2.20812 3.31886 2.62535 6.19612C2.81277 7.48948 3.38752 8.58411 4.35924 9.45882C5.04677 10.0776 5.44728 10.8264 5.47553 11.7595C5.48401 12.0415 5.60574 12.1675 5.88805 12.1677C6.35628 12.168 6.82441 12.1679 7.29257 12.1678C7.52667 12.1678 7.76077 12.1677 7.9949 12.1677C8.19895 12.1677 8.40298 12.1678 8.607 12.1678C9.11701 12.1679 9.62699 12.168 10.1371 12.1675C10.389 12.1673 10.5249 12.0342 10.5258 11.7846C10.5263 11.6389 10.5404 11.4948 10.5642 11.3519C10.6902 10.5977 11.0565 9.97941 11.6275 9.47672C11.8837 9.25115 12.117 9.00463 12.3212 8.72985C13.0946 7.6882 13.4725 6.52388 13.4271 5.22322Z" fill="black"/>
<path d="M10.0005 14.2739C9.94421 14.26 9.88417 14.2558 9.82578 14.2558C8.60942 14.2548 7.39329 14.2548 6.17693 14.2558C6.11854 14.2558 6.05873 14.26 6.00222 14.2739C5.79078 14.3264 5.69142 14.5065 5.75476 14.7163C5.80538 14.8837 5.88873 15.0342 5.99869 15.1694C6.34434 15.5939 6.80912 15.8124 7.32901 15.936C7.35518 15.9422 7.38208 15.9458 7.409 15.9494C7.46753 15.9572 7.52612 15.965 7.57742 16H8.51924C8.54845 15.9529 8.59463 15.9478 8.64021 15.9427C8.65633 15.9409 8.67239 15.9392 8.68758 15.9355C9.03017 15.8536 9.35133 15.7231 9.63788 15.5159C9.92114 15.3111 10.141 15.0556 10.2475 14.7159C10.3129 14.507 10.2115 14.3262 10 14.2739H10.0005Z" fill="black"/>
<path d="M8.6706 12.4358C9.22244 12.4355 9.77427 12.4352 10.3261 12.4367L10.3268 12.4365C10.5959 12.4372 10.7845 12.6383 10.7659 12.894C10.757 13.0162 10.6967 13.1111 10.5995 13.1784C10.5399 13.2196 10.551 13.2398 10.5985 13.2794C10.7297 13.3887 10.7914 13.5259 10.7393 13.6969C10.6849 13.876 10.559 13.9771 10.3767 14.0072C10.315 14.0173 10.2519 14.0213 10.1895 14.0213C8.73066 14.0223 7.27178 14.0223 5.8129 14.0213C5.74274 14.0213 5.67116 14.0178 5.60241 14.0051C5.42652 13.9723 5.29772 13.8751 5.25134 13.6983C5.2066 13.5278 5.25534 13.3797 5.39826 13.27C5.40179 13.2673 5.40525 13.2647 5.4086 13.2622C5.4448 13.2351 5.46741 13.2182 5.41051 13.1699C5.25205 13.0357 5.21179 12.8888 5.27206 12.7214C5.33422 12.5488 5.49268 12.4372 5.69094 12.4367C6.25751 12.4355 6.82408 12.4357 7.39066 12.4359C7.59661 12.4359 7.80257 12.436 8.00852 12.436C8.22921 12.436 8.44991 12.4359 8.6706 12.4358Z" fill="black"/>
</g>
<defs>
<clipPath id="clip0_731_29854">
<rect width="16" height="16" fill="white"/>
</clipPath>
</defs>
</svg>
