<svg width="16" height="16" viewBox="0 0 16 16" fill="none" xmlns="http://www.w3.org/2000/svg">
<path d="M1.99996 1.47607C1.63269 1.47607 1.33496 1.7738 1.33496 2.14107V11.8585C1.33496 13.3303 2.52812 14.5235 3.99996 14.5235H14C14.3672 14.5235 14.665 14.2258 14.665 13.8585C14.665 13.4912 14.3672 13.1935 14 13.1935H3.99996C3.26266 13.1935 2.66496 12.5958 2.66496 11.8585V2.14107C2.66496 1.7738 2.36723 1.47607 1.99996 1.47607Z" fill="black"/>
<path d="M13.5645 2.5417C13.3048 2.282 12.8837 2.282 12.624 2.5417L4.23757 10.9282C3.97787 11.1879 3.97788 11.609 4.23758 11.8687C4.49728 12.1284 4.91833 12.1284 5.17803 11.8687L13.5645 3.48215C13.8242 3.22245 13.8242 2.80139 13.5645 2.5417Z" fill="black"/>
<path d="M8.02676 2.93481C7.42383 2.93481 6.93506 3.42358 6.93506 4.02651C6.93506 4.62943 7.42383 5.11821 8.02676 5.11821C8.62968 5.11821 9.11845 4.62943 9.11845 4.02651C9.11845 3.42358 8.62968 2.93481 8.02676 2.93481Z" fill="black"/>
<path d="M4.97849 6.47534C4.60236 6.47534 4.29747 6.78023 4.29747 7.15636C4.29747 7.53249 4.60236 7.83738 4.97849 7.83738C5.35461 7.83738 5.65951 7.53249 5.65951 7.15636C5.65951 6.78023 5.35461 6.47534 4.97849 6.47534Z" fill="black"/>
<path d="M12.2729 7.2915C11.7834 7.2915 11.3866 7.68835 11.3866 8.17786C11.3866 8.66738 11.7834 9.06422 12.2729 9.06422C12.7624 9.06422 13.1593 8.66738 13.1593 8.17786C13.1593 7.68835 12.7624 7.2915 12.2729 7.2915Z" fill="black"/>
<path d="M8.61598 10.4111C8.23986 10.4111 7.93497 10.716 7.93497 11.0922C7.93497 11.4683 8.23986 11.7732 8.61598 11.7732C8.99211 11.7732 9.297 11.4683 9.297 11.0922C9.297 10.716 8.99211 10.4111 8.61598 10.4111Z" fill="black"/>
</svg>
