<svg width="16" height="17" viewBox="0 0 16 17" fill="none" xmlns="http://www.w3.org/2000/svg">
<path d="M2.5999 2.88223C2.5999 2.55086 2.33127 2.28223 1.9999 2.28223C1.66853 2.28223 1.3999 2.55086 1.3999 2.88223V12.5996C1.3999 14.0356 2.56396 15.1996 3.9999 15.1996H13.9999C14.3313 15.1996 14.5999 14.931 14.5999 14.5996C14.5999 14.2683 14.3313 13.9996 13.9999 13.9996H3.9999C3.2267 13.9996 2.5999 13.3728 2.5999 12.5996V2.88223Z" fill="black"/>
<path d="M9.23195 11.8333C9.23195 12.1735 8.95615 12.4493 8.61593 12.4493C8.2757 12.4493 7.99991 12.1735 7.99991 11.8333C7.99991 11.4931 8.2757 11.2173 8.61593 11.2173C8.95615 11.2173 9.23195 11.4931 9.23195 11.8333Z" fill="black"/>
<path d="M12.2729 9.74037C12.7265 9.74037 13.0942 9.37263 13.0942 8.91901C13.0942 8.4654 12.7265 8.09766 12.2729 8.09766C11.8192 8.09766 11.4515 8.4654 11.4515 8.91901C11.4515 9.37263 11.8192 9.74037 12.2729 9.74037Z" fill="black"/>
<path d="M9.05339 4.76766C9.05339 5.33469 8.59372 5.79436 8.0267 5.79436C7.45967 5.79436 7 5.33469 7 4.76766C7 4.20064 7.45967 3.74097 8.0267 3.74097C8.59372 3.74097 9.05339 4.20064 9.05339 4.76766Z" fill="black"/>
<path d="M4.97843 8.51353C5.31866 8.51353 5.59445 8.23774 5.59445 7.89751C5.59445 7.55729 5.31866 7.28149 4.97843 7.28149C4.6382 7.28149 4.36241 7.55729 4.36241 7.89751C4.36241 8.23774 4.6382 8.51353 4.97843 8.51353Z" fill="black"/>
<path d="M13.5185 4.17734C13.7528 3.94302 13.7528 3.56312 13.5185 3.32881C13.2841 3.0945 12.9042 3.0945 12.6699 3.32881L4.28348 11.7154C4.04916 11.9497 4.04916 12.3296 4.28348 12.5639C4.5178 12.7982 4.8977 12.7982 5.13201 12.5639L13.5185 4.17734Z" fill="black"/>
</svg>
