<svg width="16" height="17" viewBox="0 0 16 17" fill="none" xmlns="http://www.w3.org/2000/svg">
<path d="M2.5999 2.88223C2.5999 2.55086 2.33127 2.28223 1.9999 2.28223C1.66853 2.28223 1.3999 2.55086 1.3999 2.88223V12.5996C1.3999 14.0356 2.56396 15.1996 3.9999 15.1996H13.9999C14.3313 15.1996 14.5999 14.931 14.5999 14.5996C14.5999 14.2683 14.3313 13.9996 13.9999 13.9996H3.9999C3.2267 13.9996 2.5999 13.3728 2.5999 12.5996V2.88223Z" fill="black"/>
<path d="M5.38249 6.05767C5.38249 6.3979 5.1067 6.67369 4.76647 6.67369C4.42624 6.67369 4.15045 6.3979 4.15045 6.05767C4.15045 5.71744 4.42624 5.44165 4.76647 5.44165C5.1067 5.44165 5.38249 5.71744 5.38249 6.05767Z" fill="black"/>
<path d="M11.7991 9.05214C12.2527 9.05214 12.6205 8.6844 12.6205 8.23078C12.6205 7.77717 12.2527 7.40942 11.7991 7.40942C11.3455 7.40942 10.9778 7.77717 10.9778 8.23078C10.9778 8.6844 11.3455 9.05214 11.7991 9.05214Z" fill="black"/>
<path d="M9.43737 12.0721C9.43737 12.6391 8.97769 13.0988 8.41067 13.0988C7.84365 13.0988 7.38397 12.6391 7.38397 12.0721C7.38397 11.5051 7.84365 11.0454 8.41067 11.0454C8.97769 11.0454 9.43737 11.5051 9.43737 12.0721Z" fill="black"/>
<path d="M7.38399 3.78038C7.72422 3.78038 8.00001 3.50458 8.00001 3.16436C8.00001 2.82413 7.72422 2.54834 7.38399 2.54834C7.04377 2.54834 6.76797 2.82413 6.76797 3.16436C6.76797 3.50458 7.04377 3.78038 7.38399 3.78038Z" fill="black"/>
<path d="M3.9017 12.1535C3.83294 12.4777 4.03998 12.7962 4.36414 12.865C4.68829 12.9338 5.00682 12.7267 5.07558 12.4026C6.28729 6.69024 11.5327 5.58842 13.4001 5.34697C13.7288 5.30448 13.9607 5.00363 13.9182 4.67499C13.8757 4.34636 13.5749 4.11439 13.2462 4.15688C11.3272 4.40501 5.28999 5.60882 3.9017 12.1535Z" fill="black"/>
</svg>
