<svg width="16" height="16" viewBox="0 0 16 16" fill="none" xmlns="http://www.w3.org/2000/svg">
<path d="M1.99996 1.47607C1.63269 1.47607 1.33496 1.7738 1.33496 2.14107V11.8585C1.33496 13.3303 2.52812 14.5235 3.99996 14.5235H14C14.3672 14.5235 14.665 14.2258 14.665 13.8585C14.665 13.4912 14.3672 13.1935 14 13.1935H3.99996C3.26266 13.1935 2.66496 12.5958 2.66496 11.8585V2.14107C2.66496 1.7738 2.36723 1.47607 1.99996 1.47607Z" fill="black"/>
<path d="M7.38405 1.74219C7.00793 1.74219 6.70303 2.04708 6.70303 2.42321C6.70303 2.79933 7.00793 3.10422 7.38405 3.10422C7.76018 3.10422 8.06507 2.79933 8.06507 2.42321C8.06507 2.04708 7.76018 1.74219 7.38405 1.74219Z" fill="black"/>
<path d="M13.9828 3.9255C13.9357 3.56127 13.6022 3.30417 13.238 3.35126C11.3162 3.59974 5.23604 4.80902 3.83817 11.3989C3.76196 11.7582 3.99143 12.1112 4.35071 12.1874C4.70998 12.2636 5.06301 12.0342 5.13922 11.6749C6.34139 6.00758 11.5441 4.91135 13.4085 4.67029C13.7727 4.62319 14.0298 4.28974 13.9828 3.9255Z" fill="black"/>
<path d="M4.76653 4.6355C4.3904 4.6355 4.08551 4.94039 4.08551 5.31652C4.08551 5.69264 4.3904 5.99753 4.76653 5.99753C5.14265 5.99753 5.44755 5.69264 5.44755 5.31652C5.44755 4.94039 5.14265 4.6355 4.76653 4.6355Z" fill="black"/>
<path d="M11.7992 6.60327C11.3097 6.60327 10.9128 7.00012 10.9128 7.48963C10.9128 7.97914 11.3097 8.37599 11.7992 8.37599C12.2887 8.37599 12.6855 7.97914 12.6855 7.48963C12.6855 7.00012 12.2887 6.60327 11.7992 6.60327Z" fill="black"/>
<path d="M8.41073 10.2393C7.80781 10.2393 7.31903 10.728 7.31903 11.331C7.31903 11.9339 7.80781 12.4227 8.41073 12.4227C9.01365 12.4227 9.50242 11.9339 9.50242 11.331C9.50242 10.728 9.01365 10.2393 8.41073 10.2393Z" fill="black"/>
</svg>
