<svg width="16" height="16" viewBox="0 0 16 16" fill="none" xmlns="http://www.w3.org/2000/svg">
<path d="M1.99996 1.47607C1.63269 1.47607 1.33496 1.7738 1.33496 2.14107V11.8585C1.33496 13.3303 2.52812 14.5235 3.99996 14.5235H14C14.3672 14.5235 14.665 14.2258 14.665 13.8585C14.665 13.4912 14.3672 13.1935 14 13.1935H3.99996C3.26266 13.1935 2.66496 12.5958 2.66496 11.8585V2.14107C2.66496 1.7738 2.36723 1.47607 1.99996 1.47607Z" fill="black"/>
<path d="M8.60192 1.85425C7.999 1.85425 7.51022 2.34302 7.51022 2.94595C7.51022 3.54887 7.999 4.03764 8.60192 4.03764C9.20484 4.03764 9.69362 3.54887 9.69362 2.94595C9.69362 2.34302 9.20484 1.85425 8.60192 1.85425Z" fill="black"/>
<path d="M14.3609 3.70515C14.1909 3.37961 13.7891 3.25355 13.4636 3.42358L8.38782 6.07472C8.23829 6.15282 8.12403 6.28484 8.06819 6.44403L6.65083 10.4844L4.72721 8.92637C4.44181 8.69521 4.02306 8.73918 3.7919 9.02458C3.56075 9.30998 3.60472 9.72874 3.89012 9.95989L6.54731 12.1121C6.71539 12.2482 6.93919 12.2941 7.14728 12.2351C7.35537 12.1761 7.52177 12.0195 7.59337 11.8154L9.23629 7.13204L14.0793 4.60246C14.4049 4.43243 14.5309 4.03069 14.3609 3.70515Z" fill="black"/>
<path d="M4.58278 6.70264C4.20666 6.70264 3.90176 7.00753 3.90176 7.38365C3.90176 7.75978 4.20666 8.06467 4.58278 8.06467C4.95891 8.06467 5.2638 7.75978 5.2638 7.38365C5.2638 7.00753 4.95891 6.70264 4.58278 6.70264Z" fill="black"/>
<path d="M12.2923 6.89722C11.8028 6.89722 11.406 7.29406 11.406 7.78357C11.406 8.27309 11.8028 8.66993 12.2923 8.66993C12.7818 8.66993 13.1787 8.27309 13.1787 7.78357C13.1787 7.29406 12.7818 6.89722 12.2923 6.89722Z" fill="black"/>
<path d="M9.43734 10.9133C9.06121 10.9133 8.75632 11.2182 8.75632 11.5943C8.75632 11.9705 9.06121 12.2754 9.43734 12.2754C9.81346 12.2754 10.1184 11.9705 10.1184 11.5943C10.1184 11.2182 9.81346 10.9133 9.43734 10.9133Z" fill="black"/>
</svg>
