<svg width="16" height="16" viewBox="0 0 16 16" fill="none" xmlns="http://www.w3.org/2000/svg">
<path d="M14.6528 6.42301C14.6528 7.9263 14.6789 9.43002 14.644 10.9325C14.6189 12.0056 14.1154 12.8413 13.1446 13.3344C11.6993 14.0686 9.88943 13.2345 9.47658 11.6668C9.0674 10.1134 10.0555 8.59978 11.6443 8.35664C11.9395 8.31152 12.2402 8.31605 12.5335 8.38623C12.654 8.41495 12.6907 8.38105 12.6905 8.26185C12.6874 7.23749 12.6941 6.21291 12.6848 5.18855C12.6801 4.67377 12.205 4.281 11.7011 4.37342C11.0127 4.49952 10.3392 4.69234 9.65861 4.85342C8.89768 5.03351 8.13804 5.21834 7.37797 5.40253C6.85089 5.53036 6.61531 5.82877 6.61531 6.37032C6.61467 8.54277 6.61575 10.7152 6.61467 12.8879C6.61402 14.1878 5.68423 15.3028 4.404 15.543C3.01147 15.8042 1.60492 14.7984 1.37452 13.3964C1.13592 11.9452 2.09205 10.6571 3.39561 10.3738C3.74649 10.2976 4.09932 10.2914 4.45258 10.3561C4.62554 10.3879 4.63352 10.3846 4.63374 10.2009C4.63439 8.82629 4.63417 7.45169 4.63417 6.0773C4.63417 5.31529 4.63245 4.5535 4.63504 3.79149C4.63612 3.46436 4.67693 3.14457 4.85269 2.85674C5.07898 2.48599 5.40612 2.25192 5.82545 2.15022C8.16007 1.58362 10.4934 1.01163 12.8308 0.457556C13.6781 0.256742 14.4738 0.800019 14.6347 1.65229C14.6565 1.76738 14.6528 1.88786 14.653 2.00598C14.6541 3.47839 14.6537 4.95059 14.6537 6.42301H14.653H14.6528Z" fill="black"/>
</svg>
