<svg width="16" height="16" viewBox="0 0 16 16" fill="none" xmlns="http://www.w3.org/2000/svg">
<path d="M1.99996 1.47607C1.63269 1.47607 1.33496 1.7738 1.33496 2.14107V11.8585C1.33496 13.3303 2.52812 14.5235 3.99996 14.5235H14C14.3672 14.5235 14.665 14.2258 14.665 13.8585C14.665 13.4912 14.3672 13.1935 14 13.1935H3.99996C3.26266 13.1935 2.66496 12.5958 2.66496 11.8585V2.14107C2.66496 1.7738 2.36723 1.47607 1.99996 1.47607Z" fill="black"/>
<path d="M11.3536 2.02197C10.7507 2.02197 10.2619 2.51074 10.2619 3.11367C10.2619 3.71659 10.7507 4.20537 11.3536 4.20537C11.9565 4.20537 12.4453 3.71659 12.4453 3.11367C12.4453 2.51074 11.9565 2.02197 11.3536 2.02197Z" fill="black"/>
<path d="M14.017 3.12924C13.6552 3.06579 13.3105 3.30762 13.2471 3.66937C12.6345 7.16251 12.2203 8.98948 11.7875 9.94954C11.5789 10.4122 11.4016 10.5882 11.2696 10.6691C11.1366 10.7506 10.9546 10.7952 10.5951 10.7952C10.4365 10.7952 10.3156 10.7653 10.2152 10.7108C10.1144 10.6561 10.0296 10.574 9.94716 10.4625C9.75 10.196 9.60851 9.81663 9.42748 9.30948L9.41123 9.26393C9.25103 8.8147 9.05112 8.2541 8.72527 7.81298C8.35301 7.30905 7.80413 6.94086 7.00939 6.94086C5.88225 6.94086 5.22921 7.79171 4.82886 8.58885C4.51911 9.20558 4.27472 9.96491 4.05508 10.6473L4.05415 10.6502C3.98722 10.8581 3.92258 11.059 3.85892 11.2472C3.74124 11.5951 3.92788 11.9725 4.27578 12.0902C4.62369 12.2079 5.00112 12.0212 5.1188 11.6733C5.19711 11.4418 5.27126 11.2118 5.34378 10.9868C5.55795 10.3225 5.75818 9.70187 6.01738 9.18577C6.36823 8.4872 6.68408 8.27086 7.00939 8.27086C7.16747 8.27086 7.28796 8.30066 7.38806 8.3551C7.48853 8.40973 7.5731 8.49168 7.65549 8.60322C7.85247 8.86987 7.99379 9.24926 8.17489 9.75661L8.19066 9.80081C8.35101 10.2505 8.5512 10.8118 8.87789 11.2534C9.25067 11.7574 9.80007 12.1252 10.5951 12.1252C11.0373 12.1252 11.5174 12.0772 11.9646 11.8031C12.413 11.5283 12.7342 11.0856 12.9999 10.4961C13.5158 9.35195 13.9535 7.34098 14.5571 3.89911C14.6205 3.53737 14.3787 3.19268 14.017 3.12924Z" fill="black"/>
<path d="M5.13001 4.69043C4.6405 4.69043 4.24365 5.08727 4.24365 5.57679C4.24365 6.0663 4.6405 6.46314 5.13001 6.46314C5.61952 6.46314 6.01637 6.0663 6.01637 5.57679C6.01637 5.08727 5.61952 4.69043 5.13001 4.69043Z" fill="black"/>
<path d="M9.8922 6.48657C9.51607 6.48657 9.21118 6.79146 9.21118 7.16759C9.21118 7.54372 9.51607 7.84861 9.8922 7.84861C10.2683 7.84861 10.5732 7.54372 10.5732 7.16759C10.5732 6.79146 10.2683 6.48657 9.8922 6.48657Z" fill="black"/>
<path d="M6.76802 10.8787C6.3919 10.8787 6.08701 11.1836 6.08701 11.5597C6.08701 11.9358 6.3919 12.2407 6.76802 12.2407C7.14415 12.2407 7.44904 11.9358 7.44904 11.5597C7.44904 11.1836 7.14415 10.8787 6.76802 10.8787Z" fill="black"/>
</svg>
