<svg width="16" height="17" viewBox="0 0 16 17" fill="none" xmlns="http://www.w3.org/2000/svg">
<path d="M2.5999 2.88223C2.5999 2.55086 2.33127 2.28223 1.9999 2.28223C1.66853 2.28223 1.3999 2.55086 1.3999 2.88223V12.5996C1.3999 14.0356 2.56396 15.1996 3.9999 15.1996H13.9999C14.3313 15.1996 14.5999 14.931 14.5999 14.5996C14.5999 14.2683 14.3313 13.9996 13.9999 13.9996H3.9999C3.2267 13.9996 2.5999 13.3728 2.5999 12.5996V2.88223Z" fill="black"/>
<path d="M11.232 12.3274C11.232 12.6677 10.9562 12.9435 10.616 12.9435C10.2758 12.9435 10 12.6677 10 12.3274C10 11.9872 10.2758 11.7114 10.616 11.7114C10.9562 11.7114 11.232 11.9872 11.232 12.3274Z" fill="black"/>
<path d="M8.82136 8.26552C9.27497 8.26552 9.64272 7.89778 9.64272 7.44416C9.64272 6.99055 9.27497 6.6228 8.82136 6.6228C8.36774 6.6228 8 6.99055 8 7.44416C8 7.89778 8.36774 8.26552 8.82136 8.26552Z" fill="black"/>
<path d="M11.232 3.30892C11.232 3.87595 10.7724 4.33562 10.2053 4.33562C9.63832 4.33562 9.17865 3.87595 9.17865 3.30892C9.17865 2.7419 9.63832 2.28223 10.2053 2.28223C10.7724 2.28223 11.232 2.7419 11.232 3.30892Z" fill="black"/>
<path d="M5.24914 10.0448C5.58936 10.0448 5.86515 9.76899 5.86515 9.42876C5.86515 9.08854 5.58936 8.81274 5.24914 8.81274C4.90891 8.81274 4.63312 9.08854 4.63312 9.42876C4.63312 9.76899 4.90891 10.0448 5.24914 10.0448Z" fill="black"/>
<path d="M13.9297 3.86616C13.9988 3.54208 13.7921 3.22332 13.468 3.15419C13.1439 3.08506 12.8252 3.29174 12.7561 3.61582C12.2328 6.06862 11.419 7.67857 10.158 8.8476C8.88447 10.0282 7.09121 10.8196 4.48135 11.5021C4.16076 11.5859 3.96882 11.9138 4.05265 12.2343C4.13648 12.5549 4.46433 12.7469 4.78492 12.663C7.46014 11.9635 9.48303 11.1096 10.9738 9.72762C12.477 8.33407 13.3755 6.46423 13.9297 3.86616Z" fill="black"/>
</svg>
