<svg width="16" height="16" viewBox="0 0 16 16" fill="none" xmlns="http://www.w3.org/2000/svg">
<path fill-rule="evenodd" clip-rule="evenodd" d="M1.99996 1.47607C1.63269 1.47607 1.33496 1.7738 1.33496 2.14107V11.8585C1.33496 13.3303 2.52812 14.5235 3.99996 14.5235H14C14.3672 14.5235 14.665 14.2258 14.665 13.8585C14.665 13.4912 14.3672 13.1935 14 13.1935H3.99996C3.26266 13.1935 2.66496 12.5958 2.66496 11.8585V2.14107C2.66496 1.7738 2.36723 1.47607 1.99996 1.47607ZM10.2054 1.47607C9.60248 1.47607 9.11371 1.96484 9.11371 2.56777C9.11371 3.17069 9.60248 3.65947 10.2054 3.65947C10.8083 3.65947 11.2971 3.17069 11.2971 2.56777C11.2971 1.96484 10.8083 1.47607 10.2054 1.47607ZM13.4816 2.34947C13.1225 2.27285 12.7692 2.50192 12.6925 2.86111C12.171 5.30603 11.3617 6.90191 10.1138 8.05878C8.85211 9.22845 7.07129 10.0165 4.46496 10.698C4.10964 10.7909 3.89691 11.1543 3.98983 11.5096C4.08274 11.865 4.4461 12.0777 4.80143 11.9848C7.48019 11.2843 9.51551 10.427 11.018 9.03413C12.5344 7.62842 13.4374 5.7445 13.9933 3.13857C14.0699 2.77938 13.8408 2.42609 13.4816 2.34947ZM8.82142 5.81665C8.3319 5.81665 7.93506 6.21349 7.93506 6.70301C7.93506 7.19252 8.3319 7.58937 8.82142 7.58937C9.31093 7.58937 9.70777 7.19252 9.70777 6.70301C9.70777 6.21349 9.31093 5.81665 8.82142 5.81665ZM5.24919 8.00659C4.87307 8.00659 4.56818 8.31148 4.56818 8.68761C4.56818 9.06374 4.87307 9.36863 5.24919 9.36863C5.62532 9.36863 5.93021 9.06374 5.93021 8.68761C5.93021 8.31148 5.62532 8.00659 5.24919 8.00659ZM10.6161 10.9053C10.24 10.9053 9.93506 11.2102 9.93506 11.5863C9.93506 11.9624 10.24 12.2673 10.6161 12.2673C10.9922 12.2673 11.2971 11.9624 11.2971 11.5863C11.2971 11.2102 10.9922 10.9053 10.6161 10.9053Z" fill="black"/>
</svg>
