<svg width="16" height="16" viewBox="0 0 16 16" fill="none" xmlns="http://www.w3.org/2000/svg">
<g clip-path="url(#clip0_731_29896)">
<path d="M0.80957 5.41145C0.80957 3.80064 0.80957 2.99523 1.12305 2.37999C1.3988 1.8388 1.8388 1.3988 2.37999 1.12305C2.99523 0.80957 3.80064 0.80957 5.41145 0.80957H10.5886C12.1994 0.80957 13.0048 0.80957 13.62 1.12305C14.1612 1.3988 14.6012 1.8388 14.8769 2.37999C15.1904 2.99523 15.1904 3.80064 15.1904 5.41145V10.5886C15.1904 12.1994 15.1904 13.0048 14.8769 13.62C14.6012 14.1612 14.1612 14.6012 13.62 14.8769C13.0048 15.1904 12.1994 15.1904 10.5886 15.1904H5.41145C3.80064 15.1904 2.99523 15.1904 2.37999 14.8769C1.8388 14.6012 1.3988 14.1612 1.12305 13.62C0.80957 13.0048 0.80957 12.1994 0.80957 10.5886V5.41145Z" fill="black"/>
</g>
<defs>
<clipPath id="clip0_731_29896">
<rect width="16" height="16" fill="white"/>
</clipPath>
</defs>
</svg>
