<svg width="16" height="16" viewBox="0 0 16 16" fill="none" xmlns="http://www.w3.org/2000/svg">
<g clip-path="url(#clip0_731_29885)">
<path d="M6.72279 1.07856C7.27416 0.0675617 8.72584 0.0675632 9.27721 1.07856L10.7594 3.79636C10.9687 4.18003 11.3393 4.44931 11.7688 4.52975L14.8116 5.09956C15.9435 5.31153 16.3921 6.69216 15.601 7.52896L13.4742 9.77846C13.174 10.096 13.0324 10.5317 13.0887 10.9651L13.487 14.0351C13.6352 15.1771 12.4608 16.0304 11.4205 15.5365L8.62386 14.209C8.22907 14.0216 7.77094 14.0216 7.37614 14.209L4.57953 15.5365C3.53921 16.0304 2.36478 15.1771 2.51297 14.0351L2.91132 10.9651C2.96756 10.5317 2.82599 10.096 2.52575 9.77846L0.399 7.52896C-0.392136 6.69216 0.0564594 5.31153 1.18836 5.09956L4.23116 4.52975C4.66071 4.44931 5.03135 4.18003 5.24059 3.79636L6.72279 1.07856Z" fill="black"/>
</g>
<defs>
<clipPath id="clip0_731_29885">
<rect width="16" height="16" fill="white"/>
</clipPath>
</defs>
</svg>
