<svg width="16" height="16" viewBox="0 0 16 16" fill="none" xmlns="http://www.w3.org/2000/svg">
<g clip-path="url(#clip0_731_29829)">
<path d="M13.9724 5.88768C14.9578 5.98802 15.4343 6.85533 15.468 7.59676V7.5964C15.4844 7.95718 15.3987 8.30084 15.3132 8.64375C15.2859 8.75312 15.2586 8.86242 15.2347 8.97217C15.0846 9.66033 14.9296 10.3475 14.7745 11.0346C14.5669 11.9549 14.3592 12.8752 14.1635 13.798C14.016 14.4934 13.2129 15.278 12.3424 15.2564C11.3408 15.2317 10.3386 15.237 9.33621 15.2424C8.91415 15.2446 8.49207 15.2468 8.07003 15.2468V15.2461H3.70868C3.44771 15.2461 3.43849 15.2373 3.43849 14.9781C3.4399 12.2123 3.44133 9.44696 3.44345 6.68123C3.4438 6.39451 3.44652 6.3939 3.71678 6.33335C3.72293 6.33198 3.72921 6.33057 3.73563 6.32913C5.29295 5.97951 6.33435 5.06895 6.7719 3.51341C6.85485 3.21866 6.86577 2.91233 6.87671 2.60524L6.87686 2.60107C6.89742 2.02807 7.0584 1.5079 7.52468 1.12495C8.13846 0.621446 9.00364 0.616481 9.63905 1.10509C10.1145 1.47102 10.3344 1.96992 10.4248 2.54327C10.59 3.58858 10.5163 4.6158 10.1918 5.62387C10.145 5.76996 10.2002 5.84324 10.3574 5.84371C10.6392 5.84466 10.9209 5.84521 11.2025 5.84576C11.766 5.84686 12.3293 5.84796 12.8927 5.85222C12.9426 5.85261 12.9925 5.85288 13.0425 5.85315C13.353 5.85484 13.6645 5.85652 13.9724 5.88768Z" fill="black"/>
<path d="M1.15074 6.40786C1.55815 6.40006 1.96592 6.40148 2.37333 6.4068L2.37369 6.40716C2.62757 6.41035 2.81763 6.5965 2.84068 6.85003C2.84493 6.8968 2.84464 6.94404 2.84436 6.99136C2.84429 7.00322 2.84422 7.01509 2.84422 7.02696C2.84364 7.52582 2.84313 8.02467 2.84261 8.52353C2.84089 10.1865 2.83917 11.8496 2.83535 13.5126C2.83468 13.8797 2.82395 14.2469 2.81322 14.6137L2.81124 14.6813C2.80061 15.0405 2.59956 15.2405 2.24533 15.2447C1.91451 15.2486 1.58369 15.249 1.25286 15.2458C0.810699 15.2415 0.532704 14.9664 0.531641 14.5235C0.529592 13.6404 0.529947 12.7572 0.530303 11.874C0.530439 11.5344 0.530576 11.1949 0.530576 10.8554H0.534835C0.534835 10.5904 0.5348 10.3255 0.534765 10.0606C0.534643 9.13234 0.534521 8.20411 0.5359 7.27588C0.5359 7.15816 0.541927 7.03866 0.561429 6.92307C0.611779 6.6238 0.84828 6.41354 1.15074 6.40786Z" fill="black"/>
</g>
<defs>
<clipPath id="clip0_731_29829">
<rect width="16" height="16" fill="white"/>
</clipPath>
</defs>
</svg>
