<svg width="16" height="16" viewBox="0 0 16 16" fill="none" xmlns="http://www.w3.org/2000/svg">
<g clip-path="url(#clip0_731_29835)">
<path d="M7.93001 0.751469L12.2922 0.75217V0.752525C12.5532 0.752525 12.5624 0.761391 12.5624 1.02064C12.561 3.78689 12.5596 6.55278 12.5574 9.31902C12.5571 9.60579 12.5544 9.6064 12.2841 9.66696L12.2652 9.67118C10.7076 10.0209 9.66602 10.9316 9.22837 12.4874C9.1454 12.7823 9.1345 13.0887 9.12355 13.3959L9.1234 13.3999C9.10284 13.973 8.94183 14.4933 8.47545 14.8763C7.86156 15.3799 6.99624 15.3849 6.3607 14.8962C5.88513 14.5302 5.66524 14.0312 5.5748 13.4577C5.40954 12.4122 5.48331 11.3848 5.80781 10.3766C5.85462 10.2305 5.79941 10.1572 5.64219 10.1567C5.3604 10.1558 5.07866 10.1552 4.79693 10.1546C4.23337 10.1535 3.66992 10.1524 3.10647 10.1482C3.05663 10.1478 3.00674 10.1475 2.95684 10.1473C2.64624 10.1456 2.33456 10.1439 2.02656 10.1127C1.041 10.0124 0.564355 9.14489 0.530657 8.40332C0.514258 8.04248 0.599993 7.69876 0.68552 7.35579C0.712811 7.24639 0.740085 7.13707 0.764017 7.02729C0.914032 6.33936 1.06903 5.65246 1.22404 4.96554C1.43182 4.04475 1.6396 3.12393 1.8354 2.20055C1.98294 1.50508 2.78621 0.720255 3.65688 0.741893C4.65864 0.766595 6.92748 0.756794 7.93001 0.751469C8.35214 0.749226 7.5079 0.751469 7.93001 0.751469Z" fill="black"/>
<path d="M14.7488 0.753244C15.1911 0.757495 15.4691 1.0327 15.4702 1.47565L15.4698 1.4753C15.4719 2.35773 15.4715 3.24034 15.4712 4.12287C15.471 4.46331 15.4709 4.80373 15.4709 5.14413H15.4666C15.4666 5.41004 15.4667 5.67596 15.4667 5.94188C15.4668 6.86934 15.4669 7.79681 15.4656 8.72429C15.4656 8.84203 15.4595 8.96154 15.44 9.07716C15.3897 9.37648 15.1531 9.58679 14.8506 9.59246C14.4431 9.60026 14.0353 9.59884 13.6278 9.59352C13.3739 9.59033 13.1838 9.40414 13.1607 9.15057C13.1564 9.10374 13.1567 9.05646 13.157 9.00908C13.1571 8.99726 13.1572 8.98543 13.1572 8.9736C13.1577 8.46962 13.1583 7.96563 13.1588 7.46164C13.1605 5.80334 13.1622 4.14506 13.166 2.48675C13.1667 2.11911 13.1775 1.75147 13.1882 1.38413L13.1901 1.31784C13.2008 0.958586 13.4019 0.75856 13.7562 0.754309C14.087 0.750404 14.4179 0.750049 14.7488 0.753244Z" fill="black"/>
</g>
<defs>
<clipPath id="clip0_731_29835">
<rect width="16" height="16" fill="white"/>
</clipPath>
</defs>
</svg>
