<svg width="16" height="16" viewBox="0 0 16 16" fill="none" xmlns="http://www.w3.org/2000/svg">
<path fill-rule="evenodd" clip-rule="evenodd" d="M7.88919 1.6958C7.24976 1.6958 6.73139 2.21417 6.73139 2.8536C6.73139 3.49304 7.24976 4.01141 7.88919 4.01141C8.52862 4.01141 9.04699 3.49304 9.04699 2.8536C9.04699 2.21417 8.52862 1.6958 7.88919 1.6958ZM13.6076 1.86841C13.2502 1.78369 12.8918 2.00471 12.8071 2.36208C12.2181 4.84687 10.8748 7.29717 9.03351 9.07148C7.19621 10.8419 4.89773 11.9106 2.36965 11.7374C2.00324 11.7123 1.68586 11.989 1.66076 12.3554C1.63566 12.7218 1.91235 13.0392 2.27876 13.0643C5.26578 13.2689 7.91574 11.9955 9.95637 10.0292C11.993 8.06671 13.4572 5.38545 14.1012 2.66888C14.186 2.31151 13.9649 1.95313 13.6076 1.86841ZM4.63978 7.26538C4.24175 7.26538 3.9191 7.58803 3.9191 7.98606C3.9191 8.3841 4.24175 8.70675 4.63978 8.70675C5.03781 8.70675 5.36047 8.3841 5.36047 7.98606C5.36047 7.58803 5.03781 7.26538 4.63978 7.26538ZM13.4013 8.57666C12.8826 8.57666 12.4621 8.99718 12.4621 9.5159C12.4621 10.0346 12.8826 10.4551 13.4013 10.4551C13.92 10.4551 14.3405 10.0346 14.3405 9.5159C14.3405 8.99718 13.92 8.57666 13.4013 8.57666ZM8.74987 12.8633C8.35184 12.8633 8.02919 13.1859 8.02919 13.584C8.02919 13.982 8.35184 14.3046 8.74987 14.3046C9.14791 14.3046 9.47056 13.982 9.47056 13.584C9.47056 13.1859 9.14791 12.8633 8.74987 12.8633Z" fill="black"/>
</svg>
