<svg width="16" height="17" viewBox="0 0 16 17" fill="none" xmlns="http://www.w3.org/2000/svg">
<path d="M8.98193 3.59476C8.98193 4.19829 8.49266 4.68756 7.88913 4.68756C7.2856 4.68756 6.79633 4.19829 6.79633 3.59476C6.79633 2.99122 7.2856 2.50195 7.88913 2.50195C8.49266 2.50195 8.98193 2.99122 8.98193 3.59476Z" fill="black"/>
<path d="M13.4012 11.1313C13.8841 11.1313 14.2755 10.7399 14.2755 10.2571C14.2755 9.77423 13.8841 9.38281 13.4012 9.38281C12.9184 9.38281 12.527 9.77423 12.527 10.2571C12.527 10.7399 12.9184 11.1313 13.4012 11.1313Z" fill="black"/>
<path d="M8.74981 14.9808C9.11195 14.9808 9.4055 14.6872 9.4055 14.3251C9.4055 13.963 9.11195 13.6694 8.74981 13.6694C8.38768 13.6694 8.09413 13.963 8.09413 14.3251C8.09413 14.6872 8.38768 14.9808 8.74981 14.9808Z" fill="black"/>
<path d="M4.63972 9.3829C5.00185 9.3829 5.2954 9.08935 5.2954 8.72722C5.2954 8.36508 5.00185 8.07153 4.63972 8.07153C4.27759 8.07153 3.98404 8.36508 3.98404 8.72722C3.98404 9.08935 4.27759 9.3829 4.63972 9.3829Z" fill="black"/>
<path d="M14.0379 3.39504C14.1144 3.0726 13.915 2.74925 13.5925 2.67281C13.2701 2.59637 12.9467 2.79579 12.8703 3.11822C12.2786 5.61435 10.9294 8.07593 9.07855 9.85943C7.2313 11.6394 4.91564 12.7181 2.36514 12.5434C2.03455 12.5208 1.74819 12.7704 1.72555 13.101C1.7029 13.4316 1.95255 13.718 2.28315 13.7406C5.24772 13.9437 7.8805 12.6803 9.9112 10.7235C11.9383 8.77026 13.3966 6.10028 14.0379 3.39504Z" fill="black"/>
</svg>
