<svg width="16" height="16" viewBox="0 0 16 16" fill="none" xmlns="http://www.w3.org/2000/svg">
<g clip-path="url(#clip0_731_29902)">
<path d="M5.09147 3.89428C6.04594 2.30644 6.52318 1.51251 7.14624 1.24608C7.6897 1.01368 8.3103 1.01368 8.85376 1.24608C9.47682 1.51251 9.95406 2.30644 10.9085 3.89428L14.6326 10.0896C15.5871 11.6774 16.0643 12.4714 15.993 13.1228C15.9308 13.6911 15.6205 14.2073 15.1393 14.5431C14.5875 14.9282 13.633 14.9282 11.7241 14.9282H4.27592C2.36697 14.9282 1.4125 14.9282 0.86073 14.5431C0.379454 14.2073 0.0691517 13.6911 0.00696882 13.1228C-0.064322 12.4714 0.412915 11.6774 1.36739 10.0896L5.09147 3.89428Z" fill="black"/>
</g>
<defs>
<clipPath id="clip0_731_29902">
<rect width="16" height="16" fill="white"/>
</clipPath>
</defs>
</svg>
