<svg width="17" height="17" viewBox="0 0 17 17" fill="none" xmlns="http://www.w3.org/2000/svg">
<mask id="mask0_17_278" style="mask-type:alpha" maskUnits="userSpaceOnUse" x="0" y="0" width="17" height="17">
<rect x="0.921387" y="0.275513" width="16" height="16" fill="#DCDCDC"/>
</mask>
<g mask="url(#mask0_17_278)">
<path d="M8.92139 15.2755C8.23271 15.2755 7.67442 14.7172 7.67442 14.0285V9.41505H3.06092C2.43157 9.41505 1.92139 8.90486 1.92139 8.27551V8.27551C1.92139 7.64616 2.43157 7.13598 3.06092 7.13598H7.67442V2.52248C7.67442 1.8338 8.23271 1.27551 8.92139 1.27551V1.27551C9.61007 1.27551 10.1684 1.8338 10.1684 2.52248V7.13598H14.7819C15.4112 7.13598 15.9214 7.64616 15.9214 8.27551V8.27551C15.9214 8.90486 15.4112 9.41505 14.7819 9.41505H10.1684V14.0285C10.1684 14.7172 9.61007 15.2755 8.92139 15.2755V15.2755Z" fill="black"/>
</g>
</svg>
