<svg width="29" height="29" viewBox="0 0 29 29" fill="none" xmlns="http://www.w3.org/2000/svg">
<mask id="mask0_17_284" style="mask-type:alpha" maskUnits="userSpaceOnUse" x="0" y="0" width="29" height="29">
<rect x="0.529785" y="0.580566" width="28" height="28" fill="#F2F2F2"/>
</mask>
<g mask="url(#mask0_17_284)">
<path d="M15.7522 4.80279C15.7522 4.12777 15.205 3.58057 14.53 3.58057C13.855 3.58057 13.3078 4.12777 13.3078 4.80279V13.3584H4.75201C4.07699 13.3584 3.52979 13.9056 3.52979 14.5806C3.52979 15.2556 4.07699 15.8028 4.75201 15.8028H13.3078V24.3583C13.3078 25.0334 13.855 25.5806 14.53 25.5806C15.205 25.5806 15.7522 25.0334 15.7522 24.3583V15.8028H24.3076C24.9826 15.8028 25.5298 15.2556 25.5298 14.5806C25.5298 13.9056 24.9826 13.3584 24.3076 13.3584H15.7522V4.80279Z" fill="black"/>
</g>
</svg>
