<svg width="17" height="17" viewBox="0 0 17 17" fill="none" xmlns="http://www.w3.org/2000/svg">
<mask id="mask0_176_82" style="mask-type:alpha" maskUnits="userSpaceOnUse" x="0" y="0" width="17" height="17">
<rect x="16.9352" y="0.959473" width="16" height="16" transform="rotate(90 16.9352 0.959473)" fill="#D9D9D9"/>
</mask>
<g mask="url(#mask0_176_82)">
<path d="M8.77949 14.2355C8.77935 14.5851 8.49584 14.8684 8.14624 14.8682L3.66424 14.8665C3.31484 14.8663 3.03163 14.5831 3.03149 14.2337L3.02978 9.7448C3.02965 9.3952 3.31294 9.11169 3.66254 9.11156C4.01213 9.11143 4.29565 9.39472 4.29578 9.74432L4.29691 12.7025L12.682 4.31749L9.72375 4.31635C9.37415 4.31621 9.09086 4.0327 9.091 3.6831C9.09113 3.33351 9.37464 3.05021 9.72424 3.05035L14.2062 3.05209C14.5556 3.05222 14.8388 3.33544 14.839 3.68484L14.8407 8.17377C14.8408 8.52336 14.5575 8.80688 14.208 8.80701C13.8584 8.80715 13.5748 8.52386 13.5747 8.17426L13.5736 5.21627L5.18877 13.6011L8.14674 13.6022C8.49634 13.6024 8.77963 13.8859 8.77949 14.2355Z" fill="black"/>
</g>
</svg>
