<svg width="16" height="16" viewBox="0 0 16 16" fill="none" xmlns="http://www.w3.org/2000/svg">
<mask id="mask0_127_22" style="mask-type:alpha" maskUnits="userSpaceOnUse" x="0" y="0" width="16" height="16">
<rect width="16" height="16" fill="#D9D9D9"/>
</mask>
<g mask="url(#mask0_127_22)">
<path d="M8.14925 5.80766C8.14925 5.43947 7.85077 5.14099 7.48258 5.14099C7.11439 5.14099 6.81592 5.43947 6.81592 5.80766V6.81897L5.81106 6.82027C5.44287 6.82075 5.14478 7.11962 5.14526 7.48781C5.14574 7.856 5.44461 8.15409 5.8128 8.15361L6.81592 8.1523V9.15766C6.81592 9.52585 7.11439 9.82432 7.48258 9.82432C7.85077 9.82432 8.14925 9.52585 8.14925 9.15766V8.15056L9.15844 8.14925C9.52663 8.14877 9.82472 7.84991 9.82424 7.48172C9.82376 7.11353 9.5249 6.81544 9.15671 6.81592L8.14925 6.81723V5.80766Z" fill="black"/>
<path fill-rule="evenodd" clip-rule="evenodd" d="M7.48257 2.07007C4.49334 2.07007 2.07007 4.49334 2.07007 7.48257C2.07007 10.4718 4.49334 12.8951 7.48257 12.8951C8.73691 12.8951 9.89161 12.4684 10.8094 11.7522L12.7919 13.7347C13.0522 13.995 13.4743 13.995 13.7347 13.7347C13.995 13.4743 13.995 13.0522 13.7347 12.7919L11.7522 10.8094C12.4684 9.89161 12.8951 8.73691 12.8951 7.48257C12.8951 4.49334 10.4718 2.07007 7.48257 2.07007ZM3.4034 7.48257C3.4034 5.22972 5.22972 3.4034 7.48257 3.4034C9.73542 3.4034 11.5617 5.22972 11.5617 7.48257C11.5617 9.73542 9.73542 11.5617 7.48257 11.5617C5.22972 11.5617 3.4034 9.73542 3.4034 7.48257Z" fill="black"/>
</g>
</svg>
