<svg width="16" height="17" viewBox="0 0 16 17" fill="none" xmlns="http://www.w3.org/2000/svg">
<path fill-rule="evenodd" clip-rule="evenodd" d="M4 1.65381C2.61926 1.65381 1.5 2.77307 1.5 4.15381V12.1538C1.5 13.5345 2.61926 14.6538 4 14.6538H12C13.3807 14.6538 14.5 13.5345 14.5 12.1538V4.15381C14.5 2.77307 13.3807 1.65381 12 1.65381H4ZM4.12903 7.50391C3.78162 7.50391 3.5 7.79492 3.5 8.15393C3.5 8.51288 3.78162 8.80389 4.12903 8.80389H11.871C12.2184 8.80389 12.5 8.51288 12.5 8.15393C12.5 7.79492 12.2184 7.50391 11.871 7.50391H4.12903Z" fill="black"/>
</svg>
