<svg width="16" height="16" viewBox="0 0 16 16" fill="none" xmlns="http://www.w3.org/2000/svg">
<mask id="mask0_245_71" style="mask-type:alpha" maskUnits="userSpaceOnUse" x="0" y="0" width="16" height="16">
<rect width="16" height="16" fill="black"/>
</mask>
<g mask="url(#mask0_245_71)">
<path fill-rule="evenodd" clip-rule="evenodd" d="M3.35714 1.5C2.33147 1.5 1.5 2.33147 1.5 3.35714V12.6429C1.5 13.6685 2.33147 14.5 3.35714 14.5H12.6429C13.6685 14.5 14.5 13.6685 14.5 12.6429V3.35714C14.5 2.33147 13.6685 1.5 12.6429 1.5H3.35714ZM3.91429 7.44299C3.60658 7.44299 3.35714 7.69243 3.35714 8.00014C3.35714 8.30784 3.60658 8.55728 3.91429 8.55728H12.0857C12.3934 8.55728 12.6429 8.30784 12.6429 8.00014C12.6429 7.69243 12.3934 7.44299 12.0857 7.44299H3.91429Z" fill="black"/>
</g>
</svg>
