<svg width="17" height="16" viewBox="0 0 17 16" fill="none" xmlns="http://www.w3.org/2000/svg">
<mask id="mask0_245_71" style="mask-type:alpha" maskUnits="userSpaceOnUse" x="0" y="0" width="17" height="16">
<rect x="0.859741" width="16" height="16" fill="black"/>
</mask>
<g mask="url(#mask0_245_71)">
<path fill-rule="evenodd" clip-rule="evenodd" d="M4.21688 1.5C3.19121 1.5 2.35974 2.33147 2.35974 3.35714V12.6429C2.35974 13.6685 3.19121 14.5 4.21688 14.5H13.5026C14.5283 14.5 15.3597 13.6685 15.3597 12.6429V3.35714C15.3597 2.33147 14.5283 1.5 13.5026 1.5H4.21688ZM4.77403 7.44299C4.46633 7.44299 4.21688 7.69243 4.21688 8.00014C4.21688 8.30784 4.46633 8.55728 4.77403 8.55728H12.9455C13.2532 8.55728 13.5026 8.30784 13.5026 8.00014C13.5026 7.69243 13.2532 7.44299 12.9455 7.44299H4.77403Z" fill="black"/>
</g>
</svg>
