<svg width="17" height="17" viewBox="0 0 17 17" fill="none" xmlns="http://www.w3.org/2000/svg">
<mask id="mask0_17_717" style="mask-type:alpha" maskUnits="userSpaceOnUse" x="0" y="0" width="17" height="17">
<rect x="0.116577" y="0.26062" width="16" height="16" fill="black"/>
</mask>
<g mask="url(#mask0_17_717)">
<path fill-rule="evenodd" clip-rule="evenodd" d="M3.11658 1.26062C2.01201 1.26062 1.11658 2.15605 1.11658 3.26062V13.2606C1.11658 14.3652 2.01201 15.2606 3.11658 15.2606H13.1166C14.2211 15.2606 15.1166 14.3652 15.1166 13.2606V3.26062C15.1166 2.15605 14.2211 1.26062 13.1166 1.26062H3.11658ZM7.77444 11.1749L11.9864 5.33493C12.0624 5.22893 11.9864 5.08093 11.8564 5.08093H10.9184C10.7124 5.08093 10.5204 5.18093 10.4004 5.34693L7.25644 9.70693L5.83244 7.73093C5.71244 7.56293 5.51844 7.46493 5.31444 7.46493H4.37644C4.24644 7.46493 4.17044 7.61293 4.24644 7.71893L6.74044 11.1749C6.99444 11.5289 7.52044 11.5289 7.77444 11.1749Z" fill="black"/>
</g>
</svg>
