<svg width="25" height="25" viewBox="0 0 25 25" fill="none" xmlns="http://www.w3.org/2000/svg">
<mask id="mask0_17_167" style="mask-type:alpha" maskUnits="userSpaceOnUse" x="0" y="0" width="25" height="25">
<rect x="0.55835" y="0.862183" width="24" height="24" fill="#DCDCDC"/>
</mask>
<g mask="url(#mask0_17_167)">
<path d="M5.30857 4.16262C4.90818 3.76224 4.25903 3.76224 3.85864 4.16262C3.45825 4.56301 3.45825 5.21217 3.85864 5.61255L11.1084 12.8623L3.85894 20.1118C3.45855 20.5122 3.45855 21.1614 3.85894 21.5617C4.25932 21.9621 4.90848 21.9621 5.30887 21.5617L12.5583 14.3123L19.8078 21.5617C20.2082 21.9621 20.8574 21.9621 21.2578 21.5617C21.6581 21.1614 21.6581 20.5122 21.2578 20.1118L14.0083 12.8623L21.2581 5.61255C21.6584 5.21217 21.6584 4.56301 21.2581 4.16262C20.8577 3.76224 20.2085 3.76224 19.8081 4.16262L12.5583 11.4124L5.30857 4.16262Z" fill="black"/>
</g>
</svg>
