<svg width="16" height="16" viewBox="0 0 16 16" fill="none" xmlns="http://www.w3.org/2000/svg">
<path d="M3.71274 2.86421C3.47843 2.6299 3.09853 2.6299 2.86421 2.86421C2.6299 3.09853 2.6299 3.47843 2.86421 3.71274L7.15154 8.00007L2.86421 12.2874C2.6299 12.5217 2.6299 12.9016 2.86421 13.1359C3.09853 13.3702 3.47843 13.3702 3.71274 13.1359L8.00007 8.84859L12.2874 13.1359C12.5217 13.3702 12.9016 13.3702 13.1359 13.1359C13.3702 12.9016 13.3702 12.5217 13.1359 12.2874L8.84859 8.00007L13.1359 3.71274C13.3702 3.47843 13.3702 3.09853 13.1359 2.86421C12.9016 2.6299 12.5217 2.6299 12.2874 2.86421L8.00007 7.15154L3.71274 2.86421Z" fill="black"/>
</svg>
