<svg width="16" height="16" viewBox="0 0 16 16" fill="none" xmlns="http://www.w3.org/2000/svg">
<path d="M4.57061 3.65132C4.31677 3.39748 3.90521 3.39748 3.65137 3.65132C3.39753 3.90516 3.39753 4.31672 3.65137 4.57056L7.08079 7.99998L3.65123 11.4295C3.39739 11.6834 3.39739 12.0949 3.65123 12.3488C3.90507 12.6026 4.31662 12.6026 4.57047 12.3488L8.00003 8.91921L11.4295 12.3487C11.6834 12.6026 12.0949 12.6026 12.3488 12.3487C12.6026 12.0949 12.6026 11.6833 12.3488 11.4295L8.91927 7.99998L12.3486 4.57061C12.6025 4.31677 12.6025 3.90521 12.3486 3.65137C12.0948 3.39753 11.6832 3.39753 11.4294 3.65137L8.00003 7.08074L4.57061 3.65132Z" fill="black"/>
</svg>
