<svg width="17" height="17" viewBox="0 0 17 17" fill="none" xmlns="http://www.w3.org/2000/svg">
<path d="M5.48712 4.59907C5.23328 4.34523 4.82172 4.34523 4.56788 4.59907C4.31404 4.85291 4.31404 5.26447 4.56788 5.51831L7.9973 8.94773L4.56773 12.3773C4.31389 12.6311 4.31389 13.0427 4.56773 13.2965C4.82157 13.5504 5.23313 13.5504 5.48697 13.2965L8.91654 9.86697L12.3461 13.2965C12.5999 13.5503 13.0114 13.5503 13.2653 13.2965C13.5191 13.0426 13.5191 12.6311 13.2653 12.3772L9.83577 8.94773L13.2651 5.51836C13.519 5.26452 13.519 4.85296 13.2651 4.59912C13.0113 4.34528 12.5997 4.34528 12.3459 4.59912L8.91654 8.02849L5.48712 4.59907Z" fill="black"/>
</svg>
