<svg width="17" height="17" viewBox="0 0 17 17" fill="none" xmlns="http://www.w3.org/2000/svg">
<mask id="mask0_102_574" style="mask-type:alpha" maskUnits="userSpaceOnUse" x="0" y="0" width="17" height="17">
<rect x="0.918823" y="0.800293" width="16" height="16" fill="#D9D9D9"/>
</mask>
<g mask="url(#mask0_102_574)">
<path fill-rule="evenodd" clip-rule="evenodd" d="M2.70459 4.3242C2.70459 3.92456 3.01639 3.60059 3.40102 3.60059H14.5082C14.8928 3.60059 15.2046 3.92456 15.2046 4.3242V12.0694C15.2046 12.4691 14.8928 12.793 14.5082 12.793H8.87882L6.12408 14.2242C5.90819 14.3363 5.65181 14.3244 5.44649 14.1925C5.24117 14.0607 5.1162 13.8278 5.1162 13.577V12.793H3.40102C3.01639 12.793 2.70459 12.4691 2.70459 12.0694V4.3242ZM6.50905 12.4061L8.40296 11.6222C8.49966 11.572 8.60629 11.5458 8.71441 11.5458H14.0117V4.84782H3.89745V11.5458H5.81263C6.19725 11.5458 6.50905 11.6698 6.50905 12.0694V12.4061ZM6.10281 7.17094C6.48743 7.17094 6.79924 7.49491 6.79924 7.89456V8.79908C6.79924 9.19872 6.48743 9.5227 6.10281 9.5227C5.71818 9.5227 5.40638 9.19872 5.40638 8.79908V7.89456C5.40638 7.49491 5.71818 7.17094 6.10281 7.17094ZM9.00459 7.17094C9.38922 7.17094 9.70102 7.49491 9.70102 7.89456V8.79908C9.70102 9.19872 9.38922 9.5227 9.00459 9.5227C8.61997 9.5227 8.30816 9.19872 8.30816 8.79908V7.89456C8.30816 7.49491 8.61997 7.17094 9.00459 7.17094ZM11.9064 7.17094C12.291 7.17094 12.6028 7.49491 12.6028 7.89456V8.79908C12.6028 9.19872 12.291 9.5227 11.9064 9.5227C11.5217 9.5227 11.2099 9.19872 11.2099 8.79908V7.89456C11.2099 7.49491 11.5217 7.17094 11.9064 7.17094Z" fill="black"/>
</g>
</svg>
