<svg width="16" height="16" viewBox="0 0 16 16" fill="none" xmlns="http://www.w3.org/2000/svg">
<mask id="mask0_102_574" style="mask-type:alpha" maskUnits="userSpaceOnUse" x="0" y="0" width="16" height="16">
<rect width="16" height="16" fill="#D9D9D9"/>
</mask>
<g mask="url(#mask0_102_574)">
<path fill-rule="evenodd" clip-rule="evenodd" d="M1.78581 3.52367C1.78581 3.12402 2.09761 2.80005 2.48224 2.80005H13.5894C13.974 2.80005 14.2858 3.12402 14.2858 3.52367V11.2689C14.2858 11.6685 13.974 11.9925 13.5894 11.9925H7.96004L5.2053 13.4236C4.98942 13.5358 4.73303 13.5238 4.52771 13.392C4.3224 13.2601 4.19742 13.0272 4.19742 12.7764V11.9925H2.48224C2.09761 11.9925 1.78581 11.6685 1.78581 11.2689V3.52367ZM5.59028 11.6056L7.48418 10.8217C7.58088 10.7714 7.68752 10.7453 7.79563 10.7453H13.093V4.04728H2.97867V10.7453H4.89385C5.27848 10.7453 5.59028 10.8692 5.59028 11.2689V11.6056ZM5.18403 6.3704C5.56866 6.3704 5.88046 6.69438 5.88046 7.09402V7.99854C5.88046 8.39818 5.56866 8.72216 5.18403 8.72216C4.7994 8.72216 4.4876 8.39818 4.4876 7.99854V7.09402C4.4876 6.69438 4.7994 6.3704 5.18403 6.3704ZM8.08581 6.3704C8.47044 6.3704 8.78224 6.69438 8.78224 7.09402V7.99854C8.78224 8.39818 8.47044 8.72216 8.08581 8.72216C7.70119 8.72216 7.38939 8.39818 7.38939 7.99854V7.09402C7.38939 6.69438 7.70119 6.3704 8.08581 6.3704ZM10.9876 6.3704C11.3722 6.3704 11.684 6.69438 11.684 7.09402V7.99854C11.684 8.39818 11.3722 8.72216 10.9876 8.72216C10.603 8.72216 10.2912 8.39818 10.2912 7.99854V7.09402C10.2912 6.69438 10.603 6.3704 10.9876 6.3704Z" fill="black"/>
</g>
</svg>
