<svg width="16" height="16" viewBox="0 0 16 16" fill="none" xmlns="http://www.w3.org/2000/svg">
<path d="M5.51103 6.79312C5.51103 6.46174 5.24241 6.19312 4.91104 6.19312C4.57966 6.19312 4.31104 6.46174 4.31104 6.79312V7.77158C4.31104 8.10295 4.57966 8.37158 4.91104 8.37158C5.24241 8.37158 5.51103 8.10295 5.51103 7.77158V6.79312Z" fill="black"/>
<path d="M8.17275 6.19312C8.50412 6.19312 8.77275 6.46174 8.77275 6.79312V7.77158C8.77275 8.10295 8.50412 8.37158 8.17275 8.37158C7.84138 8.37158 7.57275 8.10295 7.57275 7.77158V6.79312C7.57275 6.46174 7.84138 6.19312 8.17275 6.19312Z" fill="black"/>
<path d="M12.0345 6.79312C12.0345 6.46174 11.7658 6.19312 11.4345 6.19312C11.1031 6.19312 10.8345 6.46174 10.8345 6.79312V7.77158C10.8345 8.10295 11.1031 8.37158 11.4345 8.37158C11.7658 8.37158 12.0345 8.10295 12.0345 7.77158V6.79312Z" fill="black"/>
<path fill-rule="evenodd" clip-rule="evenodd" d="M3.6498 1.69214C2.21386 1.69214 1.0498 2.8562 1.0498 4.29214V10.0768C1.0498 11.5127 2.21386 12.6768 3.64981 12.6768H4.103V13.7076C4.103 13.9167 4.21186 14.1107 4.39033 14.2197C4.5688 14.3286 4.79113 14.3368 4.97713 14.2413L8.02308 12.6768H12.3498C13.7857 12.6768 14.9498 11.5127 14.9498 10.0768V4.29214C14.9498 2.8562 13.7857 1.69214 12.3498 1.69214H3.6498ZM2.2498 4.29214C2.2498 3.51894 2.87661 2.89214 3.6498 2.89214H12.3498C13.123 2.89214 13.7498 3.51894 13.7498 4.29214V10.0768C13.7498 10.85 13.123 11.4768 12.3498 11.4768H7.878C7.78265 11.4768 7.68868 11.4995 7.60387 11.5431L5.303 12.7249V12.0768C5.303 11.7454 5.03437 11.4768 4.703 11.4768H3.64981C2.87661 11.4768 2.2498 10.85 2.2498 10.0768V4.29214Z" fill="black"/>
</svg>
