<svg width="16" height="16" viewBox="0 0 16 16" fill="none" xmlns="http://www.w3.org/2000/svg">
<mask id="mask0_102_1213" style="mask-type:alpha" maskUnits="userSpaceOnUse" x="0" y="0" width="16" height="16">
<rect width="16" height="16" fill="#DCDCDC"/>
</mask>
<g mask="url(#mask0_102_1213)">
<path fill-rule="evenodd" clip-rule="evenodd" d="M1.22297 0.954345C1.3529 0.929358 1.51542 0.914795 1.7147 0.914795H6.85715C7.0561 0.914795 7.21986 0.929297 7.35152 0.959681C7.48737 0.991031 7.5967 1.04983 7.67995 1.13863C7.76349 1.22774 7.81571 1.34646 7.84615 1.48343L7.84671 1.48597C7.87164 1.62058 7.88612 1.79252 7.88612 2.00111V7.16269C7.88612 7.36211 7.87154 7.52439 7.84667 7.6587C7.82039 7.79533 7.76169 7.91004 7.67831 7.9934C7.59462 8.0771 7.48565 8.13006 7.35692 8.16096C7.22966 8.1915 7.06561 8.20599 6.87627 8.20599H1.7147C1.52177 8.20599 1.36349 8.19641 1.23252 8.17122C1.09967 8.14567 0.98914 8.09813 0.90398 8.0134C0.818184 7.93285 0.765734 7.8172 0.735395 7.68573C0.705177 7.55478 0.68573 7.38178 0.68573 7.16269V1.9581C0.68573 1.7541 0.700286 1.58699 0.725186 1.45253C0.751461 1.31589 0.810166 1.20119 0.893537 1.11782C0.978617 1.03274 1.08895 0.98522 1.22033 0.954901L1.22297 0.954345ZM2.02733 2.07424C1.95064 2.07854 1.91191 2.09755 1.89153 2.11849C1.86949 2.1517 1.85476 2.19738 1.85473 2.25901L1.86389 3.92571H3.72054V2.07424H2.02733ZM4.8991 2.07901V3.92571H6.70756V2.20184C6.70756 2.15684 6.7041 2.12531 6.69899 2.10487C6.69675 2.09591 6.69467 2.09093 6.69349 2.08853C6.68344 2.08345 6.66389 2.07901 6.61819 2.07901H4.8991ZM1.86466 5.08037L1.87384 6.90902C1.87384 6.95115 1.87723 6.98219 1.8825 7.00371C1.8864 7.01961 1.89067 7.02788 1.8933 7.03179C1.8933 7.03179 1.89686 7.03365 1.8996 7.03479C1.90589 7.03741 1.91476 7.04025 1.92666 7.04282C1.95062 7.04799 1.98341 7.05133 2.02535 7.05133H3.72532V5.08037H1.86466ZM4.8991 5.08037V7.05133H6.55606C6.63148 7.05133 6.67174 7.04228 6.68909 7.03374C6.69039 7.03177 6.69349 7.02643 6.69691 7.01502C6.70311 6.99436 6.70756 6.96264 6.70756 6.91894V5.08037H4.8991Z" fill="black"/>
<path fill-rule="evenodd" clip-rule="evenodd" d="M8.65114 7.83368C8.78108 7.80869 8.94359 7.79413 9.14288 7.79413H14.2853C14.4843 7.79413 14.648 7.80863 14.7797 7.83902C14.9155 7.87037 15.0249 7.92916 15.1081 8.01797C15.1917 8.10707 15.2439 8.2258 15.2743 8.36277L15.2749 8.36531C15.2998 8.49991 15.3143 8.67185 15.3143 8.88045V14.042C15.3143 14.2414 15.2997 14.4037 15.2748 14.538C15.2486 14.6747 15.1899 14.7894 15.1065 14.8727C15.0228 14.9564 14.9138 15.0094 14.7851 15.0403C14.6578 15.0708 14.4938 15.0853 14.3044 15.0853H9.14288C8.94995 15.0853 8.79166 15.0757 8.6607 15.0506C8.52785 15.025 8.41732 14.9775 8.33216 14.8927C8.24636 14.8122 8.19391 14.6965 8.16358 14.5651C8.13336 14.4341 8.11391 14.2611 8.11391 14.042V8.83744C8.11391 8.63343 8.12847 8.46633 8.15337 8.33186C8.17964 8.19523 8.23835 8.08053 8.32172 7.99716C8.4068 7.91208 8.51713 7.86456 8.64851 7.83424L8.65114 7.83368ZM9.45551 8.95357C9.37882 8.95788 9.34009 8.97689 9.3197 8.99782C9.29767 9.03103 9.28294 9.07672 9.28291 9.13834L9.29206 10.805H11.1487V8.95357H9.45551ZM12.3273 8.95835V10.805H14.1357V9.08118C14.1357 9.03618 14.1323 9.00465 14.1272 8.98421C14.1249 8.97524 14.1228 8.97026 14.1217 8.96786C14.1116 8.96278 14.0921 8.95835 14.0464 8.95835H12.3273ZM9.29283 11.9597L9.30202 13.7884C9.30202 13.8305 9.30541 13.8615 9.31068 13.883C9.31457 13.8989 9.31885 13.9072 9.32148 13.9111L9.32448 13.9127L9.32778 13.9141C9.33407 13.9167 9.34293 13.9196 9.35484 13.9222C9.3788 13.9273 9.41159 13.9307 9.45353 13.9307H11.1535V11.9597H9.29283ZM12.3273 11.9597V13.9307H13.9842C14.0597 13.9307 14.0999 13.9216 14.1173 13.9131C14.1186 13.9111 14.1217 13.9058 14.1251 13.8944C14.1313 13.8737 14.1357 13.842 14.1357 13.7983V11.9597H12.3273Z" fill="black"/>
<path d="M9.46247 2.15033C9.46247 1.74649 9.78985 1.41911 10.1937 1.41911H12.3873C13.5988 1.41911 14.581 2.40124 14.581 3.61276V5.80641C14.581 6.21025 14.2536 6.53762 13.8498 6.53762C13.4459 6.53762 13.1185 6.21025 13.1185 5.80641V3.61276C13.1185 3.20893 12.7912 2.88154 12.3873 2.88154H10.1937C9.78985 2.88154 9.46247 2.55417 9.46247 2.15033Z" fill="black"/>
<path d="M2.88154 10.1937C2.88154 9.78986 2.55416 9.46248 2.15032 9.46248C1.74648 9.46248 1.4191 9.78986 1.4191 10.1937V12.3873C1.4191 13.5988 2.40123 14.581 3.61275 14.581H5.8064C6.21024 14.581 6.53761 14.2536 6.53761 13.8498C6.53761 13.4459 6.21024 13.1186 5.8064 13.1186H3.61275C3.20892 13.1186 2.88154 12.7912 2.88154 12.3873V10.1937Z" fill="black"/>
</g>
</svg>
