<svg width="17" height="17" viewBox="0 0 17 17" fill="none" xmlns="http://www.w3.org/2000/svg">
<mask id="mask0_102_1213" style="mask-type:alpha" maskUnits="userSpaceOnUse" x="0" y="0" width="17" height="17">
<rect x="0.542419" y="0.317383" width="16" height="16" fill="#DCDCDC"/>
</mask>
<g mask="url(#mask0_102_1213)">
<path fill-rule="evenodd" clip-rule="evenodd" d="M1.76539 1.27148C1.89532 1.2465 2.05784 1.23193 2.25712 1.23193H7.39957C7.59852 1.23193 7.76228 1.24644 7.89394 1.27682C8.02979 1.30817 8.13912 1.36697 8.22237 1.45577C8.30591 1.54488 8.35813 1.6636 8.38857 1.80057L8.38913 1.80311C8.41406 1.93772 8.42854 2.10966 8.42854 2.31825V7.47982C8.42854 7.67924 8.41396 7.84153 8.38908 7.97584C8.36281 8.11247 8.3041 8.22717 8.22073 8.31054C8.13704 8.39424 8.02807 8.4472 7.89934 8.4781C7.77208 8.50864 7.60803 8.52313 7.41869 8.52313H2.25712C2.06419 8.52313 1.90591 8.51354 1.77494 8.48836C1.64209 8.46281 1.53156 8.41527 1.4464 8.33054C1.3606 8.24999 1.30815 8.13434 1.27781 8.00286C1.2476 7.87192 1.22815 7.69892 1.22815 7.47982V2.27524C1.22815 2.07123 1.24271 1.90413 1.26761 1.76966C1.29388 1.63303 1.35259 1.51833 1.43596 1.43496C1.52104 1.34988 1.63137 1.30236 1.76275 1.27204L1.76539 1.27148ZM2.56975 2.39137C2.49306 2.39568 2.45433 2.41469 2.43395 2.43562C2.41191 2.46884 2.39718 2.51452 2.39715 2.57614L2.40631 4.24285H4.26296V2.39137H2.56975ZM5.44152 2.39615V4.24285H7.24998V2.51898C7.24998 2.47398 7.24652 2.44245 7.24141 2.42201C7.23917 2.41305 7.23709 2.40806 7.23591 2.40567C7.22586 2.40059 7.20631 2.39615 7.16061 2.39615H5.44152ZM2.40708 5.39751L2.41626 7.22616C2.41626 7.26829 2.41965 7.29933 2.42492 7.32085C2.42882 7.33675 2.43309 7.34502 2.43572 7.34893C2.43572 7.34893 2.43928 7.35079 2.44202 7.35193C2.44831 7.35455 2.45718 7.35739 2.46908 7.35996C2.49304 7.36512 2.52583 7.36847 2.56777 7.36847H4.26774V5.39751H2.40708ZM5.44152 5.39751V7.36847H7.09848C7.1739 7.36847 7.21416 7.35941 7.23151 7.35088C7.23281 7.34891 7.23591 7.34357 7.23933 7.33216C7.24553 7.3115 7.24998 7.27978 7.24998 7.23608V5.39751H5.44152Z" fill="black"/>
<path fill-rule="evenodd" clip-rule="evenodd" d="M9.19356 8.15082C9.3235 8.12583 9.48601 8.11127 9.6853 8.11127H14.8277C15.0267 8.11127 15.1905 8.12577 15.3221 8.15616C15.458 8.18751 15.5673 8.2463 15.6506 8.33511C15.7341 8.42421 15.7863 8.54294 15.8167 8.67991L15.8173 8.68245C15.8422 8.81705 15.8567 8.98899 15.8567 9.19759V14.3592C15.8567 14.5586 15.8421 14.7209 15.8173 14.8552C15.791 14.9918 15.7323 15.1065 15.6489 15.1899C15.5652 15.2736 15.4562 15.3265 15.3275 15.3574C15.2003 15.388 15.0362 15.4025 14.8469 15.4025H9.6853C9.49237 15.4025 9.33408 15.3929 9.20312 15.3677C9.07027 15.3421 8.95974 15.2946 8.87458 15.2099C8.78878 15.1293 8.73633 15.0137 8.70599 14.8822C8.67578 14.7513 8.65633 14.5783 8.65633 14.3592V9.15457C8.65633 8.95057 8.67088 8.78346 8.69579 8.649C8.72206 8.51237 8.78077 8.39767 8.86414 8.3143C8.94922 8.22922 9.05955 8.1817 9.19093 8.15138L9.19356 8.15082ZM9.99793 9.27071C9.92124 9.27501 9.88251 9.29403 9.86212 9.31496C9.84009 9.34817 9.82536 9.39386 9.82533 9.45548L9.83448 11.1222H11.6911V9.27071H9.99793ZM12.8697 9.27549V11.1222H14.6782V9.39831C14.6782 9.35332 14.6747 9.32178 14.6696 9.30135C14.6673 9.29238 14.6653 9.2874 14.6641 9.285C14.654 9.27992 14.6345 9.27549 14.5888 9.27549H12.8697ZM9.83525 12.2768L9.84444 14.1055C9.84444 14.1476 9.84783 14.1787 9.8531 14.2002C9.85699 14.2161 9.86127 14.2244 9.86389 14.2283L9.86689 14.2298L9.87019 14.2313C9.87648 14.2339 9.88535 14.2367 9.89726 14.2393C9.92122 14.2445 9.95401 14.2478 9.99594 14.2478H11.6959V12.2768H9.83525ZM12.8697 12.2768V14.2478H14.5267C14.6021 14.2478 14.6423 14.2387 14.6597 14.2302C14.661 14.2282 14.6641 14.2229 14.6675 14.2115C14.6737 14.1908 14.6782 14.1591 14.6782 14.1154V12.2768H12.8697Z" fill="black"/>
<path d="M10.0049 2.46747C10.0049 2.06363 10.3323 1.73625 10.7361 1.73625H12.9298C14.1413 1.73625 15.1234 2.71838 15.1234 3.9299V6.12354C15.1234 6.52738 14.796 6.85476 14.3922 6.85476C13.9883 6.85476 13.661 6.52738 13.661 6.12354V3.9299C13.661 3.52606 13.3336 3.19868 12.9298 3.19868H10.7361C10.3323 3.19868 10.0049 2.87131 10.0049 2.46747Z" fill="black"/>
<path d="M3.42396 10.5108C3.42396 10.107 3.09658 9.77962 2.69274 9.77962C2.2889 9.77962 1.96152 10.107 1.96152 10.5108V12.7045C1.96152 13.916 2.94365 14.8981 4.15517 14.8981H6.34882C6.75266 14.8981 7.08003 14.5707 7.08003 14.1669C7.08003 13.7631 6.75266 13.4357 6.34882 13.4357H4.15517C3.75134 13.4357 3.42396 13.1083 3.42396 12.7045V10.5108Z" fill="black"/>
</g>
</svg>
