<svg width="25" height="25" viewBox="0 0 25 25" fill="none" xmlns="http://www.w3.org/2000/svg">
<mask id="mask0_17_200" style="mask-type:alpha" maskUnits="userSpaceOnUse" x="0" y="0" width="25" height="25">
<rect x="0.825684" y="0.26062" width="24" height="24" fill="#DCDCDC"/>
</mask>
<g mask="url(#mask0_17_200)">
<path d="M18.3857 12.2106C18.3857 12.7242 17.9693 13.1406 17.4557 13.1406H13.8057V17.1306C13.8057 17.6663 13.3714 18.1006 12.8357 18.1006C12.3 18.1006 11.8657 17.6663 11.8657 17.1306V13.1406H8.19569C7.68206 13.1406 7.26569 12.7242 7.26569 12.2106C7.26569 11.697 7.68206 11.2806 8.19569 11.2806H11.8657V7.39059C11.8657 6.85488 12.3 6.42059 12.8357 6.42059C13.3714 6.42059 13.8057 6.85488 13.8057 7.39059V11.2806H17.4557C17.9693 11.2806 18.3857 11.697 18.3857 12.2106Z" fill="black"/>
<path fill-rule="evenodd" clip-rule="evenodd" d="M2.82568 4.26062C2.82568 3.15605 3.72111 2.26062 4.82568 2.26062H20.8257C21.9303 2.26062 22.8257 3.15605 22.8257 4.26062V20.2606C22.8257 21.3652 21.9303 22.2606 20.8257 22.2606H4.82568C3.72111 22.2606 2.82568 21.3652 2.82568 20.2606V4.26062ZM5.02568 20.0606V4.46062H20.6257V20.0606H5.02568Z" fill="black"/>
</g>
</svg>
