<svg width="16" height="16" viewBox="0 0 16 16" fill="none" xmlns="http://www.w3.org/2000/svg">
<path d="M7.99996 4.48584C8.33133 4.48584 8.59995 4.75447 8.59995 5.08584L8.59993 7.40039H10.9142C11.2456 7.40039 11.5142 7.66902 11.5142 8.00039C11.5142 8.33176 11.2456 8.60039 10.9142 8.60039H8.59992L8.5999 10.9145C8.5999 11.2458 8.33127 11.5145 7.9999 11.5145C7.66853 11.5145 7.3999 11.2458 7.3999 10.9144L7.39992 8.60039H5.0856C4.75422 8.60039 4.4856 8.33176 4.4856 8.00039C4.4856 7.66902 4.75422 7.40039 5.0856 7.40039H7.39993L7.39995 5.08583C7.39995 4.75446 7.66858 4.48584 7.99996 4.48584Z" fill="black"/>
<path fill-rule="evenodd" clip-rule="evenodd" d="M3.6498 1.05005C2.21387 1.05005 1.0498 2.21411 1.0498 3.65005V12.35C1.0498 13.786 2.21386 14.95 3.6498 14.95H12.3498C13.7857 14.95 14.9498 13.786 14.9498 12.3501V3.65005C14.9498 2.21411 13.7857 1.05005 12.3498 1.05005H3.6498ZM2.2498 3.65005C2.2498 2.87685 2.87661 2.25005 3.6498 2.25005H12.3498C13.123 2.25005 13.7498 2.87685 13.7498 3.65005V12.3501C13.7498 13.1232 13.123 13.75 12.3498 13.75H3.6498C2.87661 13.75 2.2498 13.1232 2.2498 12.35V3.65005Z" fill="black"/>
</svg>
