<svg width="17" height="17" viewBox="0 0 17 17" fill="none" xmlns="http://www.w3.org/2000/svg">
<path d="M12.6036 8.73683C12.6036 9.07925 12.326 9.35683 11.9836 9.35683H9.55023V12.0168C9.55023 12.374 9.26071 12.6635 8.90356 12.6635C8.54642 12.6635 8.25689 12.374 8.25689 12.0168V9.35683H5.81023C5.46781 9.35683 5.19023 9.07925 5.19023 8.73683C5.19023 8.39442 5.46781 8.11683 5.81023 8.11683H8.25689V5.5235C8.25689 5.16635 8.54642 4.87683 8.90356 4.87683C9.26071 4.87683 9.55023 5.16635 9.55023 5.5235V8.11683H11.9836C12.326 8.11683 12.6036 8.39442 12.6036 8.73683Z" fill="black"/>
<path fill-rule="evenodd" clip-rule="evenodd" d="M2.23022 3.43685C2.23022 2.70047 2.82718 2.10352 3.56356 2.10352H14.2302C14.9666 2.10352 15.5636 2.70047 15.5636 3.43685V14.1035C15.5636 14.8399 14.9666 15.4368 14.2302 15.4368H3.56356C2.82718 15.4368 2.23022 14.8399 2.23022 14.1035V3.43685ZM3.69689 13.9702V3.57018H14.0969V13.9702H3.69689Z" fill="black"/>
</svg>
