<svg width="16" height="16" viewBox="0 0 16 16" fill="none" xmlns="http://www.w3.org/2000/svg">
<path d="M11.7067 7.96681C11.7067 8.30923 11.4291 8.58681 11.0867 8.58681H8.65338V11.2468C8.65338 11.604 8.36385 11.8935 8.00671 11.8935C7.64957 11.8935 7.36004 11.604 7.36004 11.2468V8.58681H4.91338C4.57096 8.58681 4.29338 8.30923 4.29338 7.96681C4.29338 7.6244 4.57096 7.34681 4.91338 7.34681H7.36004V4.75348C7.36004 4.39633 7.64957 4.10681 8.00671 4.10681C8.36385 4.10681 8.65338 4.39633 8.65338 4.75348V7.34681H11.0867C11.4291 7.34681 11.7067 7.6244 11.7067 7.96681Z" fill="black"/>
<path fill-rule="evenodd" clip-rule="evenodd" d="M1.33337 2.66683C1.33337 1.93045 1.93033 1.3335 2.66671 1.3335H13.3334C14.0698 1.3335 14.6667 1.93045 14.6667 2.66683V13.3335C14.6667 14.0699 14.0698 14.6668 13.3334 14.6668H2.66671C1.93033 14.6668 1.33337 14.0699 1.33337 13.3335V2.66683ZM2.80004 13.2002V2.80016H13.2V13.2002H2.80004Z" fill="black"/>
</svg>
