<svg width="21" height="21" viewBox="0 0 21 21" fill="none" xmlns="http://www.w3.org/2000/svg">
<mask id="mask0_17_197" style="mask-type:alpha" maskUnits="userSpaceOnUse" x="0" y="0" width="21" height="21">
<rect x="0.148193" y="0.26062" width="20" height="20" fill="#DCDCDC"/>
</mask>
<g mask="url(#mask0_17_197)">
<path d="M8.51183 7.80607C8.9637 7.80607 9.33001 8.17239 9.33001 8.62426V13.9424C9.33001 14.3943 8.9637 14.7606 8.51183 14.7606C8.05996 14.7606 7.69365 14.3943 7.69365 13.9424V8.62426C7.69365 8.17239 8.05996 7.80607 8.51183 7.80607Z" fill="black"/>
<path d="M12.6027 8.62426C12.6027 8.17239 12.2364 7.80607 11.7846 7.80607C11.3327 7.80607 10.9664 8.17239 10.9664 8.62426V13.9424C10.9664 14.3943 11.3327 14.7606 11.7846 14.7606C12.2364 14.7606 12.6027 14.3943 12.6027 13.9424V8.62426Z" fill="black"/>
<path fill-rule="evenodd" clip-rule="evenodd" d="M8.22097 1.26062C7.92217 1.26062 7.64713 1.4235 7.50351 1.68552L6.39092 3.71517H1.96638C1.51451 3.71517 1.14819 4.08148 1.14819 4.53335C1.14819 4.98522 1.51451 5.35153 1.96638 5.35153H3.19365V18.4424C3.19365 18.8943 3.55996 19.2606 4.01183 19.2606H16.2846C16.7364 19.2606 17.1027 18.8943 17.1027 18.4424V5.35153H18.33C18.7819 5.35153 19.1482 4.98522 19.1482 4.53335C19.1482 4.08148 18.7819 3.71517 18.33 3.71517H13.9102L12.8232 1.69164C12.6807 1.42621 12.4038 1.26062 12.1025 1.26062H8.22097ZM12.0527 3.71517L11.6132 2.89698H8.70551L8.25701 3.71517H12.0527ZM4.83001 5.35153V17.6243H15.4664V5.35153H4.83001Z" fill="black"/>
</g>
</svg>
