<svg width="16" height="16" viewBox="0 0 16 16" fill="none" xmlns="http://www.w3.org/2000/svg">
<path d="M6.78662 6.17993C7.12169 6.17993 7.39331 6.45156 7.39331 6.78662V10.7301C7.39331 11.0652 7.12169 11.3368 6.78662 11.3368C6.45156 11.3368 6.17993 11.0652 6.17993 10.7301V6.78662C6.17993 6.45156 6.45156 6.17993 6.78662 6.17993Z" fill="black"/>
<path d="M9.82007 6.78662C9.82007 6.45156 9.54844 6.17993 9.21338 6.17993C8.87831 6.17993 8.60669 6.45156 8.60669 6.78662V10.7301C8.60669 11.0652 8.87831 11.3368 9.21338 11.3368C9.54844 11.3368 9.82007 11.0652 9.82007 10.7301V6.78662Z" fill="black"/>
<path fill-rule="evenodd" clip-rule="evenodd" d="M6.57094 1.32642C6.34938 1.32642 6.14544 1.44719 6.03894 1.64148L5.21395 3.14648H1.93311C1.59804 3.14648 1.32642 3.41811 1.32642 3.75317C1.32642 4.08824 1.59804 4.35986 1.93311 4.35986H2.84314V14.0669C2.84314 14.402 3.11476 14.6736 3.44983 14.6736H12.5502C12.8852 14.6736 13.1569 14.402 13.1569 14.0669V4.35986H14.0669C14.402 4.35986 14.6736 4.08824 14.6736 3.75317C14.6736 3.41811 14.402 3.14648 14.0669 3.14648H10.7895L9.98357 1.64602C9.87785 1.4492 9.67252 1.32642 9.44911 1.32642H6.57094ZM9.4122 3.14648L9.08632 2.53979H6.93024L6.59767 3.14648H9.4122ZM4.05652 4.35986V13.4602H11.9435V4.35986H4.05652Z" fill="black"/>
</svg>
