<svg width="17" height="17" viewBox="0 0 17 17" fill="none" xmlns="http://www.w3.org/2000/svg">
<path d="M7.54578 6.2832C7.88084 6.2832 8.15247 6.55483 8.15247 6.88989V10.8334C8.15247 11.1684 7.88084 11.4401 7.54578 11.4401C7.21071 11.4401 6.93909 11.1684 6.93909 10.8334V6.88989C6.93909 6.55483 7.21071 6.2832 7.54578 6.2832Z" fill="black"/>
<path d="M10.5792 6.88989C10.5792 6.55483 10.3076 6.2832 9.97253 6.2832C9.63747 6.2832 9.36584 6.55483 9.36584 6.88989V10.8334C9.36584 11.1684 9.63747 11.4401 9.97253 11.4401C10.3076 11.4401 10.5792 11.1684 10.5792 10.8334V6.88989Z" fill="black"/>
<path fill-rule="evenodd" clip-rule="evenodd" d="M7.3301 1.42969C7.10854 1.42969 6.9046 1.55047 6.7981 1.74475L5.9731 3.24976H2.69226C2.3572 3.24976 2.08557 3.52138 2.08557 3.85645C2.08557 4.19151 2.3572 4.46313 2.69226 4.46313H3.60229V14.1702C3.60229 14.5052 3.87392 14.7769 4.20898 14.7769H13.3093C13.6444 14.7769 13.916 14.5052 13.916 14.1702V4.46313H14.8261C15.1611 4.46313 15.4327 4.19151 15.4327 3.85645C15.4327 3.52138 15.1611 3.24976 14.8261 3.24976H11.5487L10.7427 1.74929C10.637 1.55247 10.4317 1.42969 10.2083 1.42969H7.3301ZM10.1714 3.24976L9.84547 2.64307H7.68939L7.35683 3.24976H10.1714ZM4.81567 4.46313V13.5635H12.7026V4.46313H4.81567Z" fill="black"/>
</svg>
