<svg width="21" height="21" viewBox="0 0 21 21" fill="none" xmlns="http://www.w3.org/2000/svg">
<mask id="mask0_17_194" style="mask-type:alpha" maskUnits="userSpaceOnUse" x="0" y="0" width="21" height="21">
<rect x="0.148438" y="0.26062" width="20" height="20" fill="#DCDCDC"/>
</mask>
<g mask="url(#mask0_17_194)">
<path fill-rule="evenodd" clip-rule="evenodd" d="M11.9544 8.45481C11.6348 8.13529 11.1168 8.13529 10.7973 8.45481L6.70637 12.5457C6.55293 12.6992 6.46673 12.9073 6.46673 13.1243V14.7606C6.46673 15.2125 6.83304 15.5788 7.28491 15.5788H8.92128C9.13827 15.5788 9.34638 15.4926 9.49982 15.3392L13.5907 11.2483C13.9102 10.9287 13.9102 10.4107 13.5907 10.0912L11.9544 8.45481ZM8.10309 13.9424V13.4632L11.3758 10.1904L11.8551 10.6697L8.58237 13.9424H8.10309Z" fill="black"/>
<path fill-rule="evenodd" clip-rule="evenodd" d="M17.5122 6.16971C17.5122 5.92184 17.402 5.69971 17.2278 5.54967L13.2231 1.54496C13.0731 1.37085 12.851 1.26062 12.6031 1.26062H4.42128C3.51754 1.26062 2.78491 1.99324 2.78491 2.89698V17.6243C2.78491 18.528 3.51754 19.2606 4.42128 19.2606H15.8758C16.7796 19.2606 17.5122 18.528 17.5122 17.6243V6.16971ZM13.4213 5.35153V4.05726L14.7155 5.35153H13.4213ZM11.7849 2.89698H4.42128V17.6243H15.8758V6.98789H12.6031C12.1512 6.98789 11.7849 6.62158 11.7849 6.16971V2.89698Z" fill="black"/>
</g>
</svg>
