<svg width="17" height="17" viewBox="0 0 17 17" fill="none" xmlns="http://www.w3.org/2000/svg">
<path fill-rule="evenodd" clip-rule="evenodd" d="M9.97507 6.76424C9.73376 6.52732 9.34251 6.52732 9.1012 6.76424L6.01157 9.79769C5.89569 9.91147 5.83059 10.0658 5.83059 10.2267V11.4401C5.83059 11.7751 6.10724 12.0468 6.44851 12.0468H7.68436C7.84824 12.0468 8.00542 11.9828 8.1213 11.8691L11.2109 8.83561C11.4522 8.59868 11.4522 8.21455 11.2109 7.97762L9.97507 6.76424ZM7.06644 10.8334V10.478L9.53813 8.05123L9.90011 8.40662L7.42841 10.8334H7.06644Z" fill="black"/>
<path fill-rule="evenodd" clip-rule="evenodd" d="M14.1726 5.06982C14.1726 4.88602 14.0893 4.72131 13.9578 4.61006L10.9333 1.64053C10.82 1.51142 10.6522 1.42969 10.465 1.42969H4.28578C3.60323 1.42969 3.04993 1.97294 3.04993 2.64307V13.5635C3.04993 14.2336 3.60324 14.7769 4.28578 14.7769H12.9367C13.6193 14.7769 14.1726 14.2336 14.1726 13.5635V5.06982ZM11.0829 4.46313V3.50342L12.0604 4.46313H11.0829ZM9.8471 2.64307H4.28578V13.5635H12.9367V5.67651H10.465C10.1237 5.67651 9.8471 5.40489 9.8471 5.06982V2.64307Z" fill="black"/>
</svg>
