<svg width="21" height="21" viewBox="0 0 21 21" fill="none" xmlns="http://www.w3.org/2000/svg">
<mask id="mask0_17_380" style="mask-type:alpha" maskUnits="userSpaceOnUse" x="0" y="0" width="21" height="21">
<rect x="0.194763" y="0.275513" width="20" height="20" fill="#D9D9D9"/>
</mask>
<g mask="url(#mask0_17_380)">
<path fill-rule="evenodd" clip-rule="evenodd" d="M0.86145 2.98389C0.86145 2.4316 1.30917 1.98389 1.86145 1.98389H18.5281C19.0804 1.98389 19.5281 2.4316 19.5281 2.98389V15.4839C19.5281 16.0362 19.0804 16.4839 18.5281 16.4839H10.0142L6.05866 18.4616C5.74868 18.6166 5.38054 18.6001 5.08572 18.4179C4.7909 18.2357 4.61145 17.9138 4.61145 17.5672V16.4839H1.86145C1.30917 16.4839 0.86145 16.0362 0.86145 15.4839V2.98389ZM6.61145 15.9492L9.3309 14.5895C9.46976 14.52 9.62287 14.4839 9.77812 14.4839H17.5281V3.98389H2.86145V14.4839H5.61145C6.16373 14.4839 6.61145 14.9316 6.61145 15.4839V15.9492ZM6.02812 7.60889C6.58041 7.60889 7.02812 8.0566 7.02812 8.60889V9.85889C7.02812 10.4112 6.58041 10.8589 6.02812 10.8589C5.47584 10.8589 5.02812 10.4112 5.02812 9.85889V8.60889C5.02812 8.0566 5.47584 7.60889 6.02812 7.60889ZM10.1948 7.60889C10.7471 7.60889 11.1948 8.0566 11.1948 8.60889V9.85889C11.1948 10.4112 10.7471 10.8589 10.1948 10.8589C9.6425 10.8589 9.19479 10.4112 9.19479 9.85889V8.60889C9.19479 8.0566 9.6425 7.60889 10.1948 7.60889ZM14.3615 7.60889C14.9137 7.60889 15.3615 8.0566 15.3615 8.60889V9.85889C15.3615 10.4112 14.9137 10.8589 14.3615 10.8589C13.8092 10.8589 13.3615 10.4112 13.3615 9.85889V8.60889C13.3615 8.0566 13.8092 7.60889 14.3615 7.60889Z" fill="black"/>
</g>
</svg>
