<svg width="21" height="21" viewBox="0 0 21 21" fill="none" xmlns="http://www.w3.org/2000/svg">
<mask id="mask0_17_383" style="mask-type:alpha" maskUnits="userSpaceOnUse" x="0" y="0" width="21" height="21">
<rect x="0.48053" y="0.275513" width="20" height="20" fill="#D9D9D9"/>
</mask>
<g mask="url(#mask0_17_383)">
<path fill-rule="evenodd" clip-rule="evenodd" d="M10.4805 2.94214C8.73165 2.94214 7.31387 4.35991 7.31387 6.10881V8.44214H13.6472V6.10881C13.6472 4.35991 12.2294 2.94214 10.4805 2.94214ZM15.6472 8.44214V6.10881C15.6472 3.25533 13.334 0.942139 10.4805 0.942139C7.62708 0.942139 5.31387 3.25533 5.31387 6.10881V8.44214H3.81386C2.80134 8.44214 1.98053 9.26295 1.98053 10.2755V17.7755C1.98053 18.788 2.80134 19.6088 3.81386 19.6088H17.1472C18.1597 19.6088 18.9805 18.788 18.9805 17.7755V10.2755C18.9805 9.26295 18.1597 8.44214 17.1472 8.44214H15.6472ZM3.98053 10.4421V17.6088H16.9805V10.4421H3.98053ZM10.4805 11.7755C11.0328 11.7755 11.4805 12.2232 11.4805 12.7755V15.2755C11.4805 15.8278 11.0328 16.2755 10.4805 16.2755C9.92825 16.2755 9.48053 15.8278 9.48053 15.2755V12.7755C9.48053 12.2232 9.92825 11.7755 10.4805 11.7755Z" fill="black"/>
</g>
</svg>
