<svg width="17" height="17" viewBox="0 0 17 17" fill="none" xmlns="http://www.w3.org/2000/svg">
<path d="M1.90535 4.99197C2.23194 4.82196 2.63451 4.94889 2.80452 5.27548C2.96702 5.58764 3.22397 5.8971 3.57667 6.18615C4.57587 7.00507 6.2535 7.58331 8.21318 7.58331C10.1728 7.58331 11.8505 7.00508 12.8497 6.18616C13.2024 5.8971 13.4593 5.58763 13.6218 5.27549C13.7918 4.94889 14.1944 4.82196 14.521 4.99196C14.8476 5.16197 14.9745 5.56454 14.8045 5.89113C14.5439 6.39185 14.1596 6.83646 13.6948 7.2174C13.6514 7.25301 13.6071 7.28815 13.5621 7.3228L15.0214 8.78205C15.2817 9.0424 15.2817 9.46451 15.0214 9.72486C14.761 9.98521 14.3389 9.98521 14.0785 9.72486L12.3889 8.03522C11.8643 8.28584 11.2846 8.48827 10.6659 8.63563L11.2065 10.6532C11.3018 11.0088 11.0907 11.3744 10.7351 11.4697C10.3794 11.565 10.0139 11.3539 9.91857 10.9983L9.34529 8.85869C8.97555 8.89693 8.59724 8.91664 8.21318 8.91664C7.82639 8.91664 7.44544 8.89665 7.07321 8.85788L6.49971 10.9983C6.40441 11.354 6.03886 11.565 5.68321 11.4697C5.32757 11.3744 5.11651 11.0089 5.2118 10.6532L5.75288 8.63382C5.13793 8.48682 4.5615 8.28539 4.03968 8.03629L2.35121 9.72477C2.09086 9.98512 1.66875 9.98512 1.4084 9.72477C1.14805 9.46442 1.14805 9.04231 1.4084 8.78196L2.86611 7.32424C2.82044 7.28912 2.77557 7.2535 2.73152 7.2174C2.26668 6.83645 1.88248 6.39184 1.62183 5.89114C1.45182 5.56455 1.57876 5.16198 1.90535 4.99197Z" fill="black"/>
</svg>
