<svg width="16" height="16" viewBox="0 0 16 16" fill="none" xmlns="http://www.w3.org/2000/svg">
<path d="M1.6905 4.78738C2.01709 4.61737 2.41966 4.7443 2.58967 5.07089C2.75217 5.38305 3.00913 5.69251 3.36183 5.98156C4.36103 6.80048 6.03866 7.37872 7.99833 7.37872C9.958 7.37872 11.6356 6.80049 12.6348 5.98157C12.9875 5.69251 13.2445 5.38304 13.407 5.0709C13.577 4.7443 13.9796 4.61737 14.3062 4.78737C14.6327 4.95738 14.7597 5.35995 14.5897 5.68654C14.329 6.18726 13.9448 6.63187 13.48 7.01281C13.4365 7.04842 13.3923 7.08356 13.3473 7.11821L14.8065 8.57746C15.0669 8.83781 15.0669 9.25992 14.8065 9.52027C14.5462 9.78062 14.124 9.78062 13.8637 9.52027L12.1741 7.83063C11.6495 8.08125 11.0697 8.28368 10.451 8.43104L10.9916 10.4486C11.0869 10.8042 10.8759 11.1698 10.5202 11.2651C10.1646 11.3604 9.79902 11.1493 9.70373 10.7937L9.13044 8.6541C8.7607 8.69234 8.38239 8.71205 7.99833 8.71205C7.61155 8.71205 7.2306 8.69206 6.85837 8.65329L6.28486 10.7937C6.18957 11.1494 5.82401 11.3604 5.46837 11.2651C5.11272 11.1698 4.90167 10.8043 4.99696 10.4486L5.53804 8.42923C4.92309 8.28224 4.34666 8.0808 3.82483 7.8317L2.13636 9.52018C1.87602 9.78053 1.45391 9.78053 1.19355 9.52018C0.933204 9.25983 0.933203 8.83772 1.19355 8.57737L2.65127 7.11965C2.60559 7.08453 2.56072 7.04892 2.51667 7.01281C2.05184 6.63186 1.66764 6.18725 1.40699 5.68655C1.23698 5.35996 1.36391 4.95739 1.6905 4.78738Z" fill="black"/>
</svg>
