<svg width="17" height="17" viewBox="0 0 17 17" fill="none" xmlns="http://www.w3.org/2000/svg">
<path d="M6.06409 5.53454C5.93592 5.53454 5.84083 5.41567 5.86897 5.29063L5.95442 4.9109C6.05444 4.48178 6.23806 4.11547 6.51182 3.81952C6.81082 3.49628 7.25398 3.35405 7.79738 3.35405C7.99847 3.35405 8.21359 3.37775 8.44188 3.42245C8.46089 3.42617 8.47974 3.43006 8.49846 3.4341C8.7099 3.4798 8.93698 3.38478 9.02031 3.18514L9.24767 2.6404C9.33457 2.43219 9.23178 2.19404 9.01582 2.12874C8.98358 2.11899 8.95028 2.10912 8.91591 2.09914C8.62745 2.01631 8.28392 1.97217 7.88074 1.97217C6.82015 1.97217 6.02714 2.23936 5.4746 2.7444C4.90987 3.26069 4.50889 3.99917 4.28413 4.9762L2.83703 11.1909C2.76126 11.5286 2.666 11.8917 2.54844 12.2812C2.42975 12.6734 2.2873 13.0595 2.12221 13.4373C1.95577 13.8159 1.76813 14.1762 1.55955 14.5171C1.49345 14.6251 1.42515 14.7282 1.35467 14.8263C1.26508 14.9509 1.3347 15.133 1.48655 15.1554C2.13635 15.2509 2.8179 15.0763 3.18197 14.5296C3.32661 14.3124 3.46779 14.0646 3.60509 13.7851C3.96635 13.0497 4.30522 12.0103 4.61867 10.6574L5.469 7.01534C5.49013 6.92483 5.57082 6.86081 5.66376 6.86081H7.62478C7.8097 6.86081 7.97051 6.73405 8.01371 6.55425L8.14014 6.02798C8.20057 5.77642 8.00992 5.53454 7.75121 5.53454H6.06409Z" fill="black"/>
<path d="M14.3211 5.72037L12.5124 7.96963L11.4089 5.77754C11.3422 5.63012 11.1954 5.5354 11.0336 5.5354H10.3129C10.0085 5.5354 9.80921 5.85428 9.9427 6.1279L11.4089 9.05502L8.79783 12.1493C8.56587 12.4158 8.75519 12.8315 9.10855 12.8315H9.68607C9.80672 12.8315 9.9605 12.7822 10.0388 12.6904L12.1108 10.2648L13.1176 12.561C13.1786 12.7231 13.333 12.8315 13.5061 12.8315H14.3C14.5831 12.8315 14.7417 12.6175 14.6426 12.3524L13.1728 9.28628C13.1728 9.28628 15.4009 6.45542 15.6013 6.17892C15.7966 5.90929 15.6023 5.5354 15.2693 5.5354H14.6661C14.5275 5.5354 14.4333 5.58887 14.3211 5.72037Z" fill="black"/>
</svg>
