<svg width="17" height="17" viewBox="0 0 17 17" fill="none" xmlns="http://www.w3.org/2000/svg">
<mask id="mask0_367_60" style="mask-type:alpha" maskUnits="userSpaceOnUse" x="0" y="0" width="17" height="17">
<rect x="0.0596924" y="0.782227" width="16" height="16" fill="#D9D9D9"/>
</mask>
<g mask="url(#mask0_367_60)">
<path d="M5.54303 5.67809C5.41486 5.67809 5.31977 5.55923 5.34791 5.43419L5.43336 5.05446C5.53338 4.62534 5.71701 4.25903 5.99076 3.96308C6.28977 3.63984 6.73293 3.49761 7.27633 3.49761C7.47741 3.49761 7.69254 3.52131 7.92082 3.56601C7.93983 3.56973 7.95869 3.57361 7.9774 3.57766C8.18885 3.62335 8.41593 3.52833 8.49925 3.32869L8.72661 2.78395C8.81351 2.57574 8.71072 2.3376 8.49476 2.27229C8.46253 2.26255 8.42923 2.25268 8.39485 2.24269C8.10639 2.15986 7.76287 2.11572 7.35969 2.11572C6.29909 2.11572 5.50608 2.38292 4.95354 2.88796C4.38882 3.40424 3.98783 4.14273 3.76308 5.11976L2.31598 11.3345C2.2402 11.6722 2.14495 12.0353 2.02739 12.4247C1.90869 12.8169 1.76625 13.2031 1.60116 13.5809C1.43472 13.9595 1.24707 14.3197 1.0385 14.6607C0.972389 14.7687 0.904093 14.8718 0.833608 14.9698C0.744025 15.0945 0.813644 15.2766 0.965497 15.2989C1.6153 15.3945 2.29684 15.2198 2.66091 14.6732C2.80556 14.456 2.94673 14.2082 3.08403 13.9287C3.44529 13.1932 3.78416 12.1538 4.09761 10.801L4.94794 7.15889C4.96907 7.06839 5.04977 7.00436 5.14271 7.00436H7.10372C7.28864 7.00436 7.44946 6.87761 7.49265 6.6978L7.61908 6.17153C7.67951 5.91998 7.48886 5.67809 7.23015 5.67809H5.54303Z" fill="black"/>
<path d="M13.8 5.86392L11.9914 8.11319L10.8878 5.92109C10.8211 5.77368 10.6743 5.67896 10.5125 5.67896H9.79183C9.48739 5.67896 9.28816 5.99784 9.42165 6.27145L10.8878 9.19857L8.27677 12.2928C8.04481 12.5594 8.23414 12.9751 8.58749 12.9751H9.16501C9.28566 12.9751 9.43944 12.9258 9.5177 12.834L11.5897 10.4084L12.5966 12.7046C12.6575 12.8666 12.8119 12.9751 12.9851 12.9751H13.779C14.062 12.9751 14.2207 12.7611 14.1216 12.4959L12.6517 9.42983C12.6517 9.42983 14.8799 6.59898 15.0802 6.32247C15.2756 6.05285 15.0812 5.67896 14.7482 5.67896H14.145C14.0064 5.67896 13.9122 5.73242 13.8 5.86392Z" fill="black"/>
</g>
</svg>
