<svg width="16" height="16" viewBox="0 0 16 16" fill="none" xmlns="http://www.w3.org/2000/svg">
<mask id="mask0_367_60" style="mask-type:alpha" maskUnits="userSpaceOnUse" x="0" y="0" width="16" height="16">
<rect width="16" height="16" fill="#D9D9D9"/>
</mask>
<g mask="url(#mask0_367_60)">
<path d="M5.48334 4.89587C5.35517 4.89587 5.26008 4.777 5.28822 4.65196L5.37367 4.27223C5.47369 3.84311 5.65731 3.4768 5.93107 3.18085C6.23007 2.85761 6.67323 2.71538 7.21663 2.71538C7.41772 2.71538 7.63284 2.73908 7.86113 2.78378C7.88014 2.7875 7.89899 2.79139 7.91771 2.79543C8.12915 2.84113 8.35624 2.74611 8.43956 2.54647L8.66692 2.00173C8.75382 1.79351 8.65103 1.55537 8.43507 1.49007C8.40283 1.48032 8.36953 1.47045 8.33516 1.46047C8.0467 1.37763 7.70317 1.3335 7.29999 1.3335C6.2394 1.3335 5.44639 1.60069 4.89385 2.10573C4.32912 2.62202 3.92814 3.3605 3.70338 4.33753L2.25629 10.5523C2.18051 10.8899 2.08525 11.253 1.96769 11.6425C1.849 12.0347 1.70655 12.4208 1.54146 12.7986C1.37502 13.1773 1.18738 13.5375 0.978805 13.8784C0.912697 13.9865 0.8444 14.0896 0.773916 14.1876C0.684332 14.3122 0.753952 14.4944 0.905805 14.5167C1.5556 14.6123 2.23715 14.4376 2.60122 13.8909C2.74587 13.6737 2.88704 13.426 3.02434 13.1464C3.3856 12.411 3.72447 11.3716 4.03792 10.0188L4.88825 6.37667C4.90938 6.28616 4.99007 6.22214 5.08301 6.22214H7.04403C7.22895 6.22214 7.38976 6.09538 7.43296 5.91557L7.55939 5.3893C7.61982 5.13775 7.42917 4.89587 7.17046 4.89587H5.48334Z" fill="black"/>
<path d="M13.7403 5.0817L11.9317 7.33096L10.8281 5.13886C10.7615 4.99145 10.6146 4.89673 10.4529 4.89673H9.73214C9.4277 4.89673 9.22847 5.21561 9.36195 5.48923L10.8281 8.41635L8.21708 11.5106C7.98512 11.7771 8.17444 12.1929 8.5278 12.1929H9.10532C9.22597 12.1929 9.37975 12.1436 9.45801 12.0518L11.53 9.62616L12.5369 11.9223C12.5978 12.0844 12.7522 12.1929 12.9254 12.1929H13.7193C14.0023 12.1929 14.161 11.9788 14.0619 11.7137L12.592 8.64761C12.592 8.64761 14.8202 5.81675 15.0205 5.54025C15.2159 5.27062 15.0215 4.89673 14.6886 4.89673H14.0854C13.9467 4.89673 13.8525 4.9502 13.7403 5.0817Z" fill="black"/>
</g>
</svg>
