<svg width="16" height="16" viewBox="0 0 16 16" fill="none" xmlns="http://www.w3.org/2000/svg">
<mask id="mask0_102_249" style="mask-type:alpha" maskUnits="userSpaceOnUse" x="0" y="0" width="16" height="16">
<rect width="16" height="16" fill="#D9D9D9"/>
</mask>
<g mask="url(#mask0_102_249)">
<path d="M8.74717 2.0944C8.74717 1.68671 8.41279 1.3562 8.00032 1.3562C7.58785 1.3562 7.25347 1.68671 7.25347 2.0944V7.26186H2.02541C1.61294 7.26186 1.27856 7.59237 1.27856 8.00007C1.27856 8.40777 1.61294 8.73827 2.02541 8.73827H7.25347V13.9057C7.25347 14.3134 7.58785 14.6439 8.00032 14.6439C8.41279 14.6439 8.74717 14.3134 8.74717 13.9057V8.73827H13.975C14.3874 8.73827 14.7218 8.40777 14.7218 8.00007C14.7218 7.59237 14.3874 7.26186 13.975 7.26186H8.74717V2.0944Z" fill="black"/>
</g>
</svg>
