<svg width="25" height="25" viewBox="0 0 25 25" fill="none" xmlns="http://www.w3.org/2000/svg">
<mask id="mask0_17_374" style="mask-type:alpha" maskUnits="userSpaceOnUse" x="0" y="0" width="25" height="25">
<rect x="0.30249" y="0.900146" width="24" height="24" fill="#D9D9D9"/>
</mask>
<g mask="url(#mask0_17_374)">
<path d="M13.423 4.04169C13.423 3.43014 12.9214 2.93439 12.3027 2.93439C11.684 2.93439 11.1825 3.43014 11.1825 4.04169V11.7929H3.34036C2.72165 11.7929 2.22009 12.2886 2.22009 12.9002C2.22009 13.5117 2.72165 14.0075 3.34036 14.0075H11.1825V21.7586C11.1825 22.3701 11.684 22.8659 12.3027 22.8659C12.9214 22.8659 13.423 22.3701 13.423 21.7586V14.0075H21.2647C21.8834 14.0075 22.385 13.5117 22.385 12.9002C22.385 12.2886 21.8834 11.7929 21.2647 11.7929H13.423V4.04169Z" fill="black"/>
</g>
</svg>
