<svg width="17" height="17" viewBox="0 0 17 17" fill="none" xmlns="http://www.w3.org/2000/svg">
<mask id="mask0_102_249" style="mask-type:alpha" maskUnits="userSpaceOnUse" x="0" y="0" width="17" height="17">
<rect x="0.373901" y="0.77002" width="16" height="16" fill="#D9D9D9"/>
</mask>
<g mask="url(#mask0_102_249)">
<path d="M9.12107 2.86418C9.12107 2.45648 8.78669 2.12598 8.37422 2.12598C7.96175 2.12598 7.62737 2.45648 7.62737 2.86418V8.03164H2.39931C1.98684 8.03164 1.65247 8.36214 1.65247 8.76984C1.65247 9.17754 1.98684 9.50805 2.39931 9.50805H7.62737V14.6754C7.62737 15.0831 7.96175 15.4136 8.37422 15.4136C8.78669 15.4136 9.12107 15.0831 9.12107 14.6754V9.50805H14.3489C14.7613 9.50805 15.0957 9.17754 15.0957 8.76984C15.0957 8.36214 14.7613 8.03164 14.3489 8.03164H9.12107V2.86418Z" fill="black"/>
</g>
</svg>
