<svg width="25" height="25" viewBox="0 0 25 25" fill="none" xmlns="http://www.w3.org/2000/svg">
<mask id="mask0_650_147" style="mask-type:alpha" maskUnits="userSpaceOnUse" x="0" y="0" width="25" height="25">
<rect x="0.898682" y="0.299988" width="24" height="24" fill="#D9D9D9"/>
</mask>
<g mask="url(#mask0_650_147)">
<path d="M18.7096 10.8423C18.782 10.7505 18.8539 10.659 18.9252 10.5679C18.9412 10.5476 18.9571 10.5273 18.9729 10.507C18.886 10.6182 18.7982 10.73 18.7096 10.8423Z" fill="#35322B"/>
<path d="M9.06938 7.39964C9.04124 7.52468 9.13633 7.64354 9.2645 7.64354H12.1739C12.4326 7.64354 12.6233 7.88543 12.5628 8.13698L12.2771 9.32639C12.2339 9.50619 12.0731 9.63295 11.8882 9.63295H8.70967C8.61673 9.63295 8.53604 9.69697 8.51491 9.78748L7.22137 15.3279C6.7512 17.3571 6.24289 18.9162 5.701 20.0194C5.49505 20.4387 5.28329 20.8104 5.06632 21.1361C4.52021 21.9561 3.4979 22.2181 2.5232 22.0748C2.29542 22.0413 2.19099 21.7681 2.32537 21.5812C2.43109 21.4341 2.53354 21.2795 2.6327 21.1174C2.94556 20.606 3.22703 20.0656 3.47669 19.4977C3.72432 18.931 3.93799 18.3518 4.11603 17.7635C4.29237 17.1793 4.43526 16.6347 4.54892 16.1282L4.54919 16.1269L6.71957 6.80604C7.0567 5.34049 7.65818 4.23277 8.50527 3.45834C9.33408 2.70078 10.5236 2.29999 12.1145 2.29999C12.7192 2.29999 13.2345 2.3662 13.6672 2.49044C13.7922 2.52674 13.9077 2.562 14.0139 2.59615C14.2286 2.66522 14.3312 2.90392 14.2443 3.11214L13.749 4.29866C13.6657 4.4983 13.4389 4.59374 13.2299 4.53825C13.1411 4.51468 13.0498 4.49375 12.9562 4.47542C12.6138 4.40836 12.2911 4.37282 11.9894 4.37282C11.1743 4.37282 10.5096 4.58616 10.0611 5.07102C9.65046 5.51494 9.37502 6.06441 9.22499 6.70809L9.06938 7.39964Z" fill="#35322B"/>
<path d="M20.3043 9.27366C20.6566 8.8002 20.997 8.31754 21.3256 7.82485C21.4003 7.71285 21.5257 7.64503 21.6603 7.64503H23.0303C23.3537 7.64503 23.5428 8.00834 23.3545 8.27126C22.9947 8.77386 22.6166 9.28709 22.2199 9.81067C21.5301 10.721 20.7311 11.6728 19.8181 12.6646L19.6709 12.8244L19.7712 13.0171C20.3253 14.0814 20.7944 15.0606 21.1805 15.9581C21.4347 16.549 21.6709 17.1445 21.8893 17.7441C21.9834 18.0024 21.7905 18.2732 21.5156 18.2732H19.9384C19.7702 18.2732 19.6202 18.1679 19.5616 18.0103C19.3664 17.4855 19.1707 16.9946 18.9738 16.5362C18.7223 15.9489 18.4765 15.4033 18.2393 14.9007L18.0347 14.4672L14.9106 18.1327C14.8346 18.2219 14.7233 18.2732 14.6061 18.2732H13.2334C12.8902 18.2732 12.7064 17.8695 12.9316 17.6106L17.0305 12.9004L14.7473 8.22042C14.6177 7.95471 14.8111 7.64503 15.1068 7.64503H16.6655C16.8227 7.64503 16.9652 7.73702 17.03 7.88018L18.6373 11.4335L18.9526 11.034C19.4266 10.4332 19.8777 9.84694 20.3043 9.27366Z" fill="#35322B"/>
</g>
</svg>
