<svg width="25" height="25" viewBox="0 0 25 25" fill="none" xmlns="http://www.w3.org/2000/svg">
<mask id="mask0_17_643" style="mask-type:alpha" maskUnits="userSpaceOnUse" x="0" y="0" width="25" height="25">
<rect x="0.376831" y="0.712952" width="24" height="24" fill="#DCDCDC"/>
</mask>
<g mask="url(#mask0_17_643)">
<path fill-rule="evenodd" clip-rule="evenodd" d="M17.6249 18.4201L20.0839 15.961C20.2715 15.7735 20.3768 15.5191 20.3768 15.2539L20.3768 7.71295C20.3768 7.16067 19.9291 6.71295 19.3768 6.71295L5.37683 6.71295C4.82455 6.71295 4.37683 7.16067 4.37683 7.71295L4.37683 17.713C4.37683 18.2652 4.82455 18.713 5.37683 18.713L16.9178 18.713C17.183 18.713 17.4374 18.6076 17.6249 18.4201ZM19.0391 19.8343C18.4765 20.3969 17.7135 20.713 16.9178 20.713L5.37683 20.713C3.71997 20.713 2.37683 19.3698 2.37683 17.713L2.37683 7.71295C2.37683 6.0561 3.71998 4.71295 5.37683 4.71295L19.3768 4.71295C21.0337 4.71295 22.3768 6.0561 22.3768 7.71295L22.3768 15.2539C22.3768 16.0495 22.0608 16.8126 21.4982 17.3752L19.0391 19.8343Z" fill="#35322B"/>
<path fill-rule="evenodd" clip-rule="evenodd" d="M18.3768 11.713L20.3768 11.713L20.3768 13.713L18.3768 13.713L18.3768 11.713ZM10.3768 11.713L14.3768 11.713L14.3768 13.713L10.3768 13.713L10.3768 11.713ZM4.37683 11.713L6.37683 11.713L6.37683 13.713L4.37683 13.713L4.37683 11.713Z" fill="#409F11"/>
</g>
</svg>
