<svg width="16" height="16" viewBox="0 0 16 16" fill="none" xmlns="http://www.w3.org/2000/svg">
<path fill-rule="evenodd" clip-rule="evenodd" d="M2.62402 7.72905C2.58427 7.72905 2.55205 7.76127 2.55205 7.80102V13.6782C2.55205 13.7179 2.58427 13.7502 2.62402 13.7502H13.3755C13.4152 13.7502 13.4474 13.7179 13.4474 13.6782V7.80102C13.4474 7.76127 13.4152 7.72905 13.3755 7.72905H2.62402ZM1.35205 7.80102C1.35205 7.09853 1.92153 6.52905 2.62402 6.52905H13.3755C14.0779 6.52905 14.6474 7.09853 14.6474 7.80102V13.6782C14.6474 14.3807 14.0779 14.9502 13.3755 14.9502H2.62402C1.92153 14.9502 1.35205 14.3807 1.35205 13.6782V7.80102Z" fill="black"/>
<path fill-rule="evenodd" clip-rule="evenodd" d="M8 2.25005C6.69847 2.25003 5.64336 3.30513 5.64336 4.60666V7.12895C5.64336 7.46032 5.37473 7.72895 5.04336 7.72895C4.71199 7.72895 4.44336 7.46032 4.44336 7.12895V4.60666C4.44336 2.64239 6.04451 1.05565 8.00879 1.05566M8 2.25005L8.00879 1.05566L8 2.25005ZM8.00879 1.05566L8 2.25005C9.30154 2.25003 10.3567 3.30513 10.3567 4.60666V7.12895C10.3567 7.46032 10.6253 7.72895 10.9567 7.72895C11.288 7.72895 11.5567 7.46032 11.5567 7.12895V4.60666C11.5567 2.64239 9.97306 1.05565 8.00879 1.05566Z" fill="black"/>
<path fill-rule="evenodd" clip-rule="evenodd" d="M8.00039 9.4668C8.33176 9.4668 8.60039 9.73543 8.60039 10.0668V12.0827C8.60039 12.4141 8.33176 12.6827 8.00039 12.6827C7.66902 12.6827 7.40039 12.4141 7.40039 12.0827V10.0668C7.40039 9.73543 7.66902 9.4668 8.00039 9.4668Z" fill="black"/>
</svg>
