<svg width="16" height="16" viewBox="0 0 16 16" fill="none" xmlns="http://www.w3.org/2000/svg">
<mask id="mask0_102_577" style="mask-type:alpha" maskUnits="userSpaceOnUse" x="0" y="0" width="16" height="16">
<rect width="16" height="16" fill="#D9D9D9"/>
</mask>
<g mask="url(#mask0_102_577)">
<path fill-rule="evenodd" clip-rule="evenodd" d="M8 2.94121C6.78566 2.94121 5.80123 3.91924 5.80123 5.1257V6.73533H10.1988V5.1257C10.1988 3.91924 9.21434 2.94121 8 2.94121ZM11.5875 6.73533V5.1257C11.5875 3.15726 9.98129 1.56152 8 1.56152C6.01871 1.56152 4.41253 3.15726 4.41253 5.1257V6.73533H3.371C2.66795 6.73533 2.09802 7.30156 2.09802 8.00004V13.1739C2.09802 13.8723 2.66795 14.4386 3.371 14.4386H12.629C13.332 14.4386 13.902 13.8723 13.902 13.1739V8.00004C13.902 7.30156 13.332 6.73533 12.629 6.73533H11.5875ZM3.48672 8.11502V13.0589H12.5133V8.11502H3.48672ZM8 9.03483C8.38348 9.03483 8.69435 9.34369 8.69435 9.72468V11.4493C8.69435 11.8303 8.38348 12.1391 8 12.1391C7.61652 12.1391 7.30565 11.8303 7.30565 11.4493V9.72468C7.30565 9.34369 7.61652 9.03483 8 9.03483Z" fill="black"/>
</g>
</svg>
