<svg width="17" height="17" viewBox="0 0 17 17" fill="none" xmlns="http://www.w3.org/2000/svg">
<mask id="mask0_102_577" style="mask-type:alpha" maskUnits="userSpaceOnUse" x="0" y="0" width="17" height="17">
<rect x="0.504761" y="0.800293" width="16" height="16" fill="#D9D9D9"/>
</mask>
<g mask="url(#mask0_102_577)">
<path fill-rule="evenodd" clip-rule="evenodd" d="M8.50476 3.7415C7.29042 3.7415 6.30599 4.71953 6.30599 5.926V7.53563H10.7035V5.926C10.7035 4.71953 9.7191 3.7415 8.50476 3.7415ZM12.0922 7.53563V5.926C12.0922 3.95755 10.4861 2.36182 8.50476 2.36182C6.52347 2.36182 4.91729 3.95755 4.91729 5.926V7.53563H3.87576C3.17271 7.53563 2.60278 8.10186 2.60278 8.80034V13.9741C2.60278 14.6726 3.17271 15.2389 3.87576 15.2389H13.1338C13.8368 15.2389 14.4067 14.6726 14.4067 13.9741V8.80034C14.4067 8.10186 13.8368 7.53563 13.1338 7.53563H12.0922ZM3.99148 8.91531V13.8592H13.018V8.91531H3.99148ZM8.50476 9.83513C8.88824 9.83513 9.19911 10.144 9.19911 10.525V12.2496C9.19911 12.6306 8.88824 12.9394 8.50476 12.9394C8.12128 12.9394 7.81041 12.6306 7.81041 12.2496V10.525C7.81041 10.144 8.12128 9.83513 8.50476 9.83513Z" fill="black"/>
</g>
</svg>
