<svg width="25" height="25" viewBox="0 0 25 25" fill="none" xmlns="http://www.w3.org/2000/svg">
<mask id="mask0_17_638" style="mask-type:alpha" maskUnits="userSpaceOnUse" x="0" y="0" width="25" height="25">
<rect x="0.881958" y="0.712952" width="24" height="24" fill="#DCDCDC"/>
</mask>
<g mask="url(#mask0_17_638)">
<path fill-rule="evenodd" clip-rule="evenodd" d="M18.5891 7.46488L16.13 5.00584C15.9425 4.81831 15.6881 4.71295 15.4229 4.71295H7.88196C7.32967 4.71295 6.88196 5.16067 6.88196 5.71295V19.713C6.88196 20.2652 7.32967 20.713 7.88196 20.713H17.882C18.4342 20.713 18.882 20.2652 18.882 19.713V8.17199C18.882 7.90677 18.7766 7.65241 18.5891 7.46488ZM20.0033 6.05065C20.5659 6.61327 20.882 7.37633 20.882 8.17199V19.713C20.882 21.3698 19.5388 22.713 17.882 22.713H7.88196C6.2251 22.713 4.88196 21.3698 4.88196 19.713V5.71295C4.88196 4.0561 6.2251 2.71295 7.88196 2.71295H15.4229C16.2185 2.71295 16.9816 3.02902 17.5442 3.59162L20.0033 6.05065Z" fill="#35322B"/>
<path fill-rule="evenodd" clip-rule="evenodd" d="M11.882 6.71295V4.71295H13.882V6.71295H11.882ZM11.882 14.713V10.713H13.882V14.713H11.882ZM11.882 20.713V18.713H13.882V20.713H11.882Z" fill="#409F11"/>
</g>
</svg>
