<svg width="17" height="17" viewBox="0 0 17 17" fill="none" xmlns="http://www.w3.org/2000/svg">
<path d="M3.28459 3.18012V4.26015C3.28459 4.40773 3.16496 4.52736 3.01738 4.52736C2.75841 4.52736 2.55017 4.74017 2.55017 4.99725C2.55017 5.25732 2.76082 5.47259 3.02278 5.47259H4.55643C4.81745 5.47259 5.02904 5.26099 5.02904 4.99997V4.93517C5.02904 4.70994 4.84646 4.52736 4.62123 4.52736C4.50646 4.52736 4.41342 4.43432 4.41342 4.31955V2.47989C4.41342 2.13139 4.13091 1.84888 3.78241 1.84888C3.66544 1.84888 3.55411 1.88249 3.45611 1.93512C3.37143 1.9806 3.28531 2.02063 3.19774 2.05525C3.12772 2.081 3.04906 2.10554 2.96155 2.12879C2.77664 2.17791 2.63657 2.34227 2.63657 2.54104C2.63657 2.77028 2.8224 2.95611 3.05164 2.95611H3.15566C3.21218 2.95611 3.23559 2.97573 3.25128 3.00211C3.27225 3.03738 3.28459 3.09641 3.28459 3.18012Z" fill="black"/>
<path d="M3.20701 8.77922C3.0239 8.95928 2.82054 9.15308 2.59807 9.35948C2.50243 9.44821 2.44751 9.57281 2.44751 9.70373C2.44751 9.9621 2.65696 10.1715 2.91532 10.1715H4.64278C4.91274 10.1715 5.13159 9.95269 5.13159 9.68273C5.13159 9.41277 4.91274 9.19392 4.64278 9.19392H4.45917C4.37922 9.19392 4.28216 9.19961 4.16873 9.21058C4.15975 9.21145 4.15167 9.21201 4.14442 9.21231C4.14995 9.20501 4.15586 9.19798 4.16168 9.19161C4.24919 9.09578 4.33608 8.99651 4.42234 8.89382C4.57749 8.70543 4.70635 8.51166 4.80715 8.31394C4.91399 8.11148 4.96958 7.90857 4.96958 7.70627C4.96958 7.46422 4.91564 7.24798 4.80429 7.06107C4.69392 6.8758 4.54149 6.73323 4.34873 6.63473C4.15598 6.53261 3.93627 6.48303 3.69235 6.48303C3.42896 6.48303 3.19712 6.53 3.00033 6.62823C2.89779 6.67752 2.79655 6.74189 2.69655 6.8206C2.48959 6.9835 2.5076 7.27856 2.67839 7.44935L2.6891 7.46006C2.87027 7.64123 3.12467 7.59677 3.30003 7.47051L3.30211 7.46897C3.36455 7.42151 3.45534 7.40666 3.56274 7.40666C3.66732 7.40666 3.74091 7.43724 3.79444 7.49077L3.79788 7.49405C3.84835 7.53993 3.88396 7.62084 3.88396 7.76027C3.88396 7.88759 3.83202 8.03515 3.71303 8.20514C3.59179 8.37834 3.42366 8.56967 3.20701 8.77922Z" fill="black"/>
<path d="M2.9214 14.7332C3.1415 14.8259 3.39645 14.8706 3.68383 14.8706C3.93219 14.8706 4.16382 14.8311 4.37776 14.7509L4.37921 14.7503C4.59447 14.6657 4.77112 14.5431 4.90564 14.3808L4.90639 14.3799C5.04481 14.2089 5.11227 14.0024 5.11227 13.7662C5.11227 13.5302 5.04483 13.3286 4.90319 13.1703C4.81044 13.0666 4.69956 12.9841 4.57171 12.9224C4.68529 12.8522 4.77864 12.7696 4.84941 12.6735C4.95333 12.5323 5.00427 12.3677 5.00427 12.1839C5.00427 11.8465 4.87877 11.5774 4.62375 11.3909C4.37806 11.2049 4.05412 11.1173 3.66223 11.1173C3.44058 11.1173 3.23098 11.1594 3.03444 11.2441C2.9524 11.2786 2.87168 11.3193 2.79227 11.3663C2.55772 11.5049 2.54558 11.8119 2.70332 12.0027C2.87014 12.2044 3.15197 12.2063 3.3566 12.1002C3.43523 12.0611 3.52216 12.0409 3.61903 12.0409C3.72536 12.0409 3.78644 12.0646 3.82032 12.0944C3.85174 12.122 3.87544 12.1688 3.87544 12.2541C3.87544 12.3372 3.84185 12.4026 3.76308 12.4573C3.72179 12.484 3.65044 12.5088 3.5393 12.5246C3.32312 12.5554 3.13021 12.7285 3.13021 12.967C3.13021 13.2041 3.32183 13.3826 3.54459 13.4034C3.62771 13.4112 3.69368 13.4224 3.74392 13.4361C3.85799 13.4663 3.91391 13.505 3.93694 13.5377C3.96648 13.5795 3.98344 13.6324 3.98344 13.7014C3.98344 13.7755 3.95581 13.8234 3.89699 13.8586C3.82792 13.9001 3.72724 13.9254 3.58662 13.9254C3.48091 13.9254 3.37347 13.9007 3.2635 13.8492C3.04114 13.7355 2.72835 13.7469 2.5624 13.9767L2.55507 13.9869C2.43083 14.1589 2.42461 14.4222 2.6215 14.5648C2.71195 14.6302 2.81243 14.6865 2.9214 14.7332Z" fill="black"/>
<path d="M7.08183 2.99402C6.71364 2.99402 6.41516 3.2925 6.41516 3.66069C6.41516 4.02888 6.71364 4.32735 7.08183 4.32735H14.4152C14.7834 4.32735 15.0818 4.02888 15.0818 3.66069C15.0818 3.2925 14.7834 2.99402 14.4152 2.99402H7.08183Z" fill="black"/>
<path d="M6.41516 8.32731C6.41516 7.95912 6.71364 7.66064 7.08183 7.66064H14.4152C14.7834 7.66064 15.0818 7.95912 15.0818 8.32731C15.0818 8.6955 14.7834 8.99398 14.4152 8.99398H7.08183C6.71364 8.99398 6.41516 8.6955 6.41516 8.32731Z" fill="black"/>
<path d="M7.08183 12.3273C6.71364 12.3273 6.41516 12.6257 6.41516 12.9939C6.41516 13.3621 6.71364 13.6606 7.08183 13.6606H14.4152C14.7834 13.6606 15.0818 13.3621 15.0818 12.9939C15.0818 12.6257 14.7834 12.3273 14.4152 12.3273H7.08183Z" fill="black"/>
</svg>
