<svg width="17" height="17" viewBox="0 0 17 17" fill="none" xmlns="http://www.w3.org/2000/svg">
<path d="M8.42505 12.0293C10.5549 12.0293 12.2815 10.3027 12.2815 8.17285C12.2815 6.043 10.5549 4.31641 8.42505 4.31641C6.29519 4.31641 4.5686 6.043 4.5686 8.17285C4.5686 10.3027 6.29519 12.0293 8.42505 12.0293Z" fill="black"/>
<path fill-rule="evenodd" clip-rule="evenodd" d="M8.42505 14.6729C12.0149 14.6729 14.925 11.7627 14.925 8.17285C14.925 4.583 12.0149 1.67285 8.42505 1.67285C4.8352 1.67285 1.92505 4.583 1.92505 8.17285C1.92505 11.7627 4.8352 14.6729 8.42505 14.6729ZM8.42505 13.3429C11.2804 13.3429 13.595 11.0282 13.595 8.17285C13.595 5.31754 11.2804 3.00285 8.42505 3.00285C5.56974 3.00285 3.25505 5.31754 3.25505 8.17285C3.25505 11.0282 5.56974 13.3429 8.42505 13.3429Z" fill="black"/>
</svg>
