<svg width="17" height="17" viewBox="0 0 17 17" fill="none" xmlns="http://www.w3.org/2000/svg">
<mask id="mask0_242_54" style="mask-type:alpha" maskUnits="userSpaceOnUse" x="0" y="0" width="17" height="17">
<rect x="0.664795" y="0.761719" width="16" height="16" fill="#D9D9D9"/>
</mask>
<g mask="url(#mask0_242_54)">
<path fill-rule="evenodd" clip-rule="evenodd" d="M8.66479 14.2617C11.7024 14.2617 14.1648 11.7993 14.1648 8.76172C14.1648 5.72415 11.7024 3.26172 8.66479 3.26172C5.62723 3.26172 3.16479 5.72415 3.16479 8.76172C3.16479 11.7993 5.62723 14.2617 8.66479 14.2617ZM8.66479 15.2617C12.2546 15.2617 15.1648 12.3516 15.1648 8.76172C15.1648 5.17187 12.2546 2.26172 8.66479 2.26172C5.07494 2.26172 2.16479 5.17187 2.16479 8.76172C2.16479 12.3516 5.07494 15.2617 8.66479 15.2617Z" fill="black"/>
</g>
</svg>
