<svg width="16" height="17" viewBox="0 0 16 17" fill="none" xmlns="http://www.w3.org/2000/svg">
<path d="M8 13.4802C10.6061 13.4802 12.7188 11.3676 12.7188 8.76148C12.7188 6.15538 10.6061 4.04272 8 4.04272C5.39391 4.04272 3.28125 6.15538 3.28125 8.76148C3.28125 11.3676 5.39391 13.4802 8 13.4802Z" fill="black"/>
<path fill-rule="evenodd" clip-rule="evenodd" d="M14.5 8.76147C14.5 12.3513 11.5899 15.2615 8 15.2615C4.41015 15.2615 1.5 12.3513 1.5 8.76147C1.5 5.17162 4.41015 2.26147 8 2.26147C11.5899 2.26147 14.5 5.17162 14.5 8.76147ZM13.5 8.76147C13.5 11.799 11.0376 14.2615 8 14.2615C4.96243 14.2615 2.5 11.799 2.5 8.76147C2.5 5.72391 4.96243 3.26147 8 3.26147C11.0376 3.26147 13.5 5.72391 13.5 8.76147Z" fill="black"/>
</svg>
