<svg width="17" height="17" viewBox="0 0 17 17" fill="none" xmlns="http://www.w3.org/2000/svg">
<path fill-rule="evenodd" clip-rule="evenodd" d="M3.98682 1.20459C2.8822 1.20459 1.98682 2.10002 1.98682 3.20459V13.2046C1.98682 14.3092 2.8822 15.2046 3.98682 15.2046H15.9868V1.20459H3.98682ZM8.67957 9.89343C8.81152 9.98875 8.9729 10.0364 9.16357 10.0364C9.35425 10.0364 9.51562 9.98509 9.64758 9.88243C9.77954 9.77243 9.84558 9.6111 9.84558 9.39842C9.84558 9.25909 9.85291 9.13077 9.86755 9.01343C9.88953 8.89609 9.93359 8.77876 9.99963 8.66142C10.0656 8.53676 10.1609 8.40109 10.2855 8.25443C10.3562 8.16721 10.4409 8.07173 10.5397 7.96803C10.6154 7.88866 10.6993 7.80446 10.7916 7.71542C11.1069 7.41476 11.3159 7.13609 11.4186 6.87943C11.5286 6.61543 11.5873 6.33676 11.5946 6.04343C11.6019 5.7061 11.5505 5.40909 11.4406 5.15244C11.3379 4.89577 11.1876 4.67943 10.9896 4.50343C10.799 4.32742 10.5679 4.1991 10.2966 4.11842C10.0253 4.03043 9.73193 3.9901 9.41663 3.99742C9.09387 4.00476 8.78955 4.05609 8.50354 4.15143C8.22485 4.23943 7.97925 4.36043 7.7666 4.51443C7.56128 4.66843 7.39624 4.85542 7.27161 5.07542C7.1543 5.2881 7.09558 5.52277 7.09558 5.77943C7.09558 5.96277 7.14319 6.1021 7.23853 6.19743C7.33386 6.29276 7.49158 6.3441 7.71155 6.35143C7.88757 6.35143 8.05994 6.30376 8.22864 6.20844C8.39722 6.1131 8.48157 5.97009 8.48157 5.77943C8.48157 5.58876 8.57324 5.44943 8.75659 5.36143C8.93994 5.27342 9.14893 5.22577 9.38354 5.21843C9.61829 5.21109 9.81995 5.26242 9.98853 5.37242C10.1572 5.4751 10.2416 5.67676 10.2416 5.97743C10.2416 6.1021 10.2306 6.21576 10.2086 6.31844C10.1865 6.41376 10.1499 6.51276 10.0986 6.61543C10.0472 6.71075 9.97388 6.81343 9.87854 6.92343C9.79053 7.03343 9.68054 7.15443 9.54858 7.28642C9.37256 7.45509 9.21863 7.63843 9.08655 7.83643C8.95459 8.0271 8.8446 8.22144 8.75659 8.41943C8.66858 8.61009 8.59888 8.79343 8.54761 8.96942C8.5144 9.09636 8.49377 9.20876 8.4856 9.30663C8.48291 9.33879 8.48157 9.3694 8.48157 9.39842C8.48157 9.62576 8.54761 9.79076 8.67957 9.89343ZM9.69153 12.2034C9.55225 12.3428 9.37622 12.4124 9.16357 12.4124C8.95093 12.4124 8.77124 12.3428 8.62463 12.2034C8.48523 12.0568 8.41553 11.8771 8.41553 11.6644C8.41553 11.4518 8.48523 11.2758 8.62463 11.1364C8.77124 10.9898 8.95093 10.9164 9.16357 10.9164C9.37622 10.9164 9.55225 10.9898 9.69153 11.1364C9.83826 11.2758 9.91162 11.4518 9.91162 11.6644C9.91162 11.8771 9.83826 12.0568 9.69153 12.2034Z" fill="black"/>
</svg>
