<svg width="16" height="16" viewBox="0 0 16 16" fill="none" xmlns="http://www.w3.org/2000/svg">
<path fill-rule="evenodd" clip-rule="evenodd" d="M1.4873 3.48706C1.4873 2.38251 2.38272 1.48706 3.4873 1.48706H12.5132C13.6178 1.48706 14.5132 2.38251 14.5132 3.48706V12.5129C14.5132 13.6175 13.6178 14.5129 12.5132 14.5129H3.4873C2.38272 14.5129 1.4873 13.6175 1.4873 12.5129V3.48706ZM12.2854 5.03168C12.4943 5.24054 12.4943 5.57922 12.2854 5.78815L7.05487 11.0186C6.91257 11.1609 6.68185 11.1609 6.53955 11.0186L3.71527 8.19427C3.50638 7.98535 3.50638 7.64667 3.71527 7.43781C3.92416 7.22888 4.26285 7.22888 4.47174 7.43781L6.77734 9.74347C6.78833 9.75439 6.80609 9.75439 6.81708 9.74347L11.5289 5.03168C11.7378 4.82275 12.0765 4.82275 12.2854 5.03168Z" fill="black"/>
</svg>
