<svg width="16" height="16" viewBox="0 0 16 16" fill="none" xmlns="http://www.w3.org/2000/svg">
<mask id="mask0_232_3" style="mask-type:alpha" maskUnits="userSpaceOnUse" x="0" y="0" width="16" height="17">
<rect y="0.00976562" width="16" height="16" fill="black"/>
</mask>
<g mask="url(#mask0_232_3)">
<path fill-rule="evenodd" clip-rule="evenodd" d="M3.49603 1.49683C2.39366 1.49683 1.5 2.39048 1.5 3.49286V12.5008C1.5 13.6032 2.39366 14.4968 3.49604 14.4968H12.504C13.6063 14.4968 14.5 13.6032 14.5 12.5008V3.49286C14.5 2.39048 13.6063 1.49683 12.504 1.49683H3.49603ZM7.6823 10.7029L11.5934 5.28008C11.664 5.18165 11.5934 5.04422 11.4727 5.04422H10.6017C10.4104 5.04422 10.2322 5.13708 10.1207 5.29122L7.2013 9.33979L5.87902 7.50494C5.76759 7.34894 5.58744 7.25794 5.39802 7.25794H4.52702C4.4063 7.25794 4.33573 7.39537 4.4063 7.49379L6.72216 10.7029C6.95802 11.0317 7.44644 11.0317 7.6823 10.7029Z" fill="black"/>
</g>
</svg>
