<svg width="16" height="16" viewBox="0 0 16 16" fill="none" xmlns="http://www.w3.org/2000/svg">
<path d="M12.6185 12.4423C12.5907 12.2749 12.7773 12.15 12.9343 12.2308L15.4242 13.5126C15.6102 13.6084 15.5544 13.8745 15.3439 13.8955L14.2456 14.184L13.4521 15.1286C13.3495 15.2939 13.085 15.2463 13.0534 15.0568L12.6185 12.4423Z" fill="black"/>
<path fill-rule="evenodd" clip-rule="evenodd" d="M1 3.6C1 2.16406 2.16406 1 3.6 1H12.3C13.7359 1 14.9 2.16406 14.9 3.6V5.81156C14.9003 5.81881 14.9004 5.82609 14.9004 5.8334C14.9004 5.84071 14.9003 5.84799 14.9 5.85524V10.045C14.9003 10.0522 14.9004 10.0595 14.9004 10.0668C14.9004 10.3982 14.6318 10.6668 14.3004 10.6668H11.1668C10.8907 10.6668 10.6668 10.8907 10.6668 11.1668V14.3C10.6668 14.6314 10.3982 14.9 10.0668 14.9L10.05 14.8998L3.6 14.9C2.16406 14.9 1 13.7359 1 12.3V3.6ZM13.2 5.2334C13.4761 5.2334 13.7 5.00954 13.7 4.7334V3.6C13.7 2.8268 13.0732 2.2 12.3 2.2H11.1668C10.8907 2.2 10.6668 2.42386 10.6668 2.7V4.7334C10.6668 5.00954 10.8907 5.2334 11.1668 5.2334H13.2ZM10.6668 6.9334C10.6668 6.65726 10.8907 6.4334 11.1668 6.4334H13.2C13.4761 6.4334 13.7 6.65726 13.7 6.9334V8.9668C13.7 9.24294 13.4761 9.4668 13.2 9.4668H11.1668C10.8907 9.4668 10.6668 9.24294 10.6668 8.9668V6.9334ZM8.9668 5.2334C9.24294 5.2334 9.4668 5.00954 9.4668 4.7334V2.7C9.4668 2.42386 9.24294 2.2 8.9668 2.2H6.9334C6.65726 2.2 6.4334 2.42386 6.4334 2.7V4.7334C6.4334 5.00954 6.65726 5.2334 6.9334 5.2334L8.9668 5.2334ZM6.4334 6.9334C6.4334 6.65726 6.65726 6.4334 6.9334 6.4334L8.9668 6.4334C9.24294 6.4334 9.4668 6.65726 9.4668 6.9334V8.9668C9.4668 9.24294 9.24294 9.4668 8.9668 9.4668L6.9334 9.4668C6.65726 9.4668 6.4334 9.24294 6.4334 8.9668V6.9334ZM4.7334 5.2334C5.00954 5.2334 5.2334 5.00954 5.2334 4.7334V2.7C5.2334 2.42386 5.00954 2.2 4.7334 2.2H3.6C2.8268 2.2 2.2 2.8268 2.2 3.6V4.7334C2.2 5.00954 2.42386 5.2334 2.7 5.2334H4.7334ZM2.2 6.9334C2.2 6.65726 2.42386 6.4334 2.7 6.4334H4.7334C5.00954 6.4334 5.2334 6.65725 5.2334 6.9334V8.9668C5.2334 9.24294 5.00954 9.4668 4.7334 9.4668H2.7C2.42386 9.4668 2.2 9.24294 2.2 8.9668V6.9334ZM5.2334 11.1668C5.2334 10.8907 5.00954 10.6668 4.7334 10.6668H2.7C2.42386 10.6668 2.2 10.8907 2.2 11.1668V12.3C2.2 13.0732 2.8268 13.7 3.6 13.7H4.7334C5.00954 13.7 5.2334 13.4761 5.2334 13.2V11.1668ZM9.4668 11.1668C9.4668 10.8907 9.24294 10.6668 8.9668 10.6668H6.9334C6.65726 10.6668 6.4334 10.8907 6.4334 11.1668V13.2C6.4334 13.4761 6.65726 13.7 6.9334 13.7H8.9668C9.24294 13.7 9.4668 13.4761 9.4668 13.2V11.1668Z" fill="black"/>
</svg>
