<svg width="17" height="16" viewBox="0 0 17 16" fill="none" xmlns="http://www.w3.org/2000/svg">
<mask id="mask0_17_191" style="mask-type:alpha" maskUnits="userSpaceOnUse" x="0" y="0" width="17" height="17">
<rect x="0.139282" y="0.00744629" width="16" height="16" fill="#DCDCDC"/>
</mask>
<g mask="url(#mask0_17_191)">
<path fill-rule="evenodd" clip-rule="evenodd" d="M1.21097 14.0961C1.26077 14.3289 1.35186 14.5264 1.49769 14.6704L1.50415 14.6764C1.65882 14.8152 1.85577 14.8993 2.08342 14.9375C2.30279 14.9851 2.56881 15.0074 2.87804 15.0074H13.4343C13.7444 15.0074 14.0093 14.9796 14.223 14.9185C14.4497 14.8678 14.6415 14.7705 14.784 14.6173C14.9264 14.4753 15.0173 14.286 15.0674 14.0638C15.1164 13.846 15.1393 13.5761 15.1393 13.2581V2.83997C15.1393 2.50043 15.1165 2.21455 15.0678 1.98639C15.018 1.75301 14.9277 1.55356 14.787 1.40082C14.6439 1.24547 14.4505 1.14708 14.2217 1.09613C13.9979 1.03543 13.7225 1.00745 13.4005 1.00745H2.8949C2.57507 1.00745 2.30323 1.02969 2.0834 1.07736C1.85153 1.11635 1.6524 1.20849 1.49769 1.36117C1.35186 1.5051 1.26077 1.70265 1.21097 1.93545C1.16201 2.15343 1.13928 2.42875 1.13928 2.75675V13.2581C1.13928 13.5967 1.16193 13.8778 1.21097 14.0961ZM13.3964 2.64298L13.4067 2.65821L13.4198 2.67116C13.4361 2.68729 13.4492 2.71002 13.4492 2.75675V7.08194H9.03489V2.62546H13.3829C13.3864 2.62931 13.391 2.63496 13.3964 2.64298ZM2.87804 2.62546H7.34485V7.08194H2.82933V2.75675C2.82933 2.66863 2.84726 2.63543 2.85233 2.62864C2.85402 2.62797 2.86143 2.62546 2.87804 2.62546ZM13.4005 13.3894H9.03489V8.69996H13.4492V13.2581C13.4492 13.3463 13.4313 13.3795 13.4262 13.3862C13.4246 13.3869 13.4171 13.3894 13.4005 13.3894ZM7.34485 8.69996V13.3894H2.8949C2.87222 13.3894 2.86105 13.3859 2.85712 13.3842C2.85432 13.3831 2.85358 13.3824 2.85226 13.3807C2.84739 13.3746 2.82933 13.3442 2.82933 13.2581V8.69996H7.34485Z" fill="black"/>
</g>
</svg>
