<svg width="16" height="16" viewBox="0 0 16 16" fill="none" xmlns="http://www.w3.org/2000/svg">
<path fill-rule="evenodd" clip-rule="evenodd" d="M2.49152 1.3335C1.79021 1.3335 1.22168 1.90202 1.22168 2.60334V13.397C1.22168 14.0983 1.79021 14.6668 2.49152 14.6668H9.42803C9.98031 14.6668 10.428 14.2191 10.428 13.6668V13.397V10.9234C10.428 10.7577 10.5623 10.6234 10.728 10.6234H13.2852H13.555C14.1073 10.6234 14.555 10.1757 14.555 9.62343V2.60334C14.555 1.90202 13.9865 1.3335 13.2852 1.3335H2.49152ZM8.85819 13.397C9.02387 13.397 9.15819 13.2627 9.15819 13.097V10.9234C9.15819 10.7577 9.02387 10.6234 8.85819 10.6234H6.60104C6.43536 10.6234 6.30104 10.7577 6.30104 10.9234V13.097C6.30104 13.2627 6.43536 13.397 6.60104 13.397H8.85819ZM13.2852 9.05359C13.2852 9.21927 13.1509 9.35359 12.9852 9.35359H10.728C10.5623 9.35359 10.428 9.21927 10.428 9.05359V6.96718C10.428 6.80149 10.5623 6.66718 10.728 6.66718H12.9852C13.1509 6.66718 13.2852 6.80149 13.2852 6.96718V9.05359ZM8.85819 9.35359C9.02387 9.35359 9.15819 9.21927 9.15819 9.05359V6.96718C9.15819 6.80149 9.02387 6.66718 8.85819 6.66718H6.60104C6.43536 6.66718 6.30104 6.80149 6.30104 6.96718V9.05359C6.30104 9.21927 6.43536 9.35359 6.60104 9.35359H8.85819ZM13.2852 5.09734C13.2852 5.26302 13.1509 5.39734 12.9852 5.39734H10.728C10.5623 5.39734 10.428 5.26302 10.428 5.09734V2.90334C10.428 2.73765 10.5623 2.60334 10.728 2.60334H12.9852C13.1509 2.60334 13.2852 2.73765 13.2852 2.90334V5.09734ZM8.85819 5.39734C9.02387 5.39734 9.15819 5.26302 9.15819 5.09734V2.90334C9.15819 2.73765 9.02387 2.60334 8.85819 2.60334H6.60104C6.43536 2.60334 6.30104 2.73765 6.30104 2.90334V5.09734C6.30104 5.26302 6.43536 5.39734 6.60104 5.39734H8.85819ZM5.0312 2.90334C5.0312 2.73765 4.89689 2.60334 4.7312 2.60334H2.79152C2.62584 2.60334 2.49152 2.73765 2.49152 2.90334V5.09734C2.49152 5.26302 2.62584 5.39734 2.79152 5.39734H4.7312C4.89689 5.39734 5.0312 5.26302 5.0312 5.09734V2.90334ZM5.0312 6.96718C5.0312 6.80149 4.89689 6.66718 4.7312 6.66718H2.79152C2.62584 6.66718 2.49152 6.80149 2.49152 6.96718V9.05359C2.49152 9.21927 2.62584 9.35359 2.79152 9.35359H4.7312C4.89689 9.35359 5.0312 9.21927 5.0312 9.05359V6.96718ZM5.0312 10.9234C5.0312 10.7577 4.89689 10.6234 4.7312 10.6234H2.79152C2.62584 10.6234 2.49152 10.7577 2.49152 10.9234V13.097C2.49152 13.2627 2.62584 13.397 2.79152 13.397H4.7312C4.89689 13.397 5.0312 13.2627 5.0312 13.097V10.9234Z" fill="black"/>
<path d="M12.0703 11.9137C12.0445 11.75 12.2176 11.6277 12.3633 11.7068L14.6735 12.9609C14.8412 13.052 14.7972 13.3003 14.6155 13.3333C14.6046 13.3352 14.5937 13.3371 14.5831 13.34L13.58 13.6178L12.8438 14.5421C12.7486 14.7038 12.5031 14.6572 12.4739 14.4718L12.0703 11.9137Z" fill="black"/>
</svg>
