<svg width="17" height="17" viewBox="0 0 17 17" fill="none" xmlns="http://www.w3.org/2000/svg">
<path fill-rule="evenodd" clip-rule="evenodd" d="M2.80805 1.53809C2.10674 1.53809 1.53821 2.10661 1.53821 2.80793V13.6016C1.53821 14.3029 2.10674 14.8714 2.80805 14.8714H9.74456C10.2968 14.8714 10.7446 14.4237 10.7446 13.8714V13.6016V11.128C10.7446 10.9623 10.8789 10.828 11.0446 10.828H13.6017H13.8715C14.4238 10.828 14.8715 10.3803 14.8715 9.82802V2.80793C14.8715 2.10661 14.303 1.53809 13.6017 1.53809H2.80805ZM9.17472 13.6016C9.3404 13.6016 9.47472 13.4673 9.47472 13.3016V11.128C9.47472 10.9623 9.3404 10.828 9.17472 10.828H6.91757C6.75189 10.828 6.61757 10.9623 6.61757 11.128V13.3016C6.61757 13.4673 6.75189 13.6016 6.91757 13.6016H9.17472ZM13.6017 9.25817C13.6017 9.42386 13.4674 9.55818 13.3017 9.55818H11.0446C10.8789 9.55818 10.7446 9.42386 10.7446 9.25818V7.17177C10.7446 7.00608 10.8789 6.87177 11.0446 6.87177H13.3017C13.4674 6.87177 13.6017 7.00608 13.6017 7.17177V9.25817ZM9.17472 9.55818C9.3404 9.55818 9.47472 9.42386 9.47472 9.25818V7.17177C9.47472 7.00608 9.3404 6.87177 9.17472 6.87177H6.91757C6.75189 6.87177 6.61757 7.00608 6.61757 7.17177V9.25817C6.61757 9.42386 6.75189 9.55818 6.91757 9.55818H9.17472ZM13.6017 5.30193C13.6017 5.46761 13.4674 5.60193 13.3017 5.60193H11.0446C10.8789 5.60193 10.7446 5.46761 10.7446 5.30193V3.10793C10.7446 2.94224 10.8789 2.80793 11.0446 2.80793H13.3017C13.4674 2.80793 13.6017 2.94224 13.6017 3.10793V5.30193ZM9.17472 5.60193C9.3404 5.60193 9.47472 5.46761 9.47472 5.30193V3.10793C9.47472 2.94224 9.3404 2.80793 9.17472 2.80793H6.91757C6.75189 2.80793 6.61757 2.94224 6.61757 3.10793V5.30193C6.61757 5.46761 6.75189 5.60193 6.91757 5.60193H9.17472ZM5.34773 3.10793C5.34773 2.94224 5.21342 2.80793 5.04773 2.80793H3.10805C2.94236 2.80793 2.80805 2.94224 2.80805 3.10793V5.30193C2.80805 5.46761 2.94236 5.60193 3.10805 5.60193H5.04773C5.21342 5.60193 5.34773 5.46761 5.34773 5.30193V3.10793ZM5.34773 7.17177C5.34773 7.00608 5.21342 6.87177 5.04773 6.87177H3.10805C2.94236 6.87177 2.80805 7.00608 2.80805 7.17177V9.25817C2.80805 9.42386 2.94236 9.55818 3.10805 9.55818H5.04773C5.21342 9.55818 5.34773 9.42386 5.34773 9.25818V7.17177ZM5.34773 11.128C5.34773 10.9623 5.21342 10.828 5.04773 10.828H3.10805C2.94236 10.828 2.80805 10.9623 2.80805 11.128V13.3016C2.80805 13.4673 2.94236 13.6016 3.10805 13.6016H5.04773C5.21342 13.6016 5.34773 13.4673 5.34773 13.3016V11.128Z" fill="black"/>
<path d="M12.3869 12.1183C12.361 11.9546 12.5342 11.8323 12.6798 11.9114L14.9901 13.1655C15.1577 13.2565 15.1137 13.5049 14.932 13.5378C14.9212 13.5398 14.9102 13.5417 14.8996 13.5446L13.8966 13.8224L13.1603 14.7467C13.0651 14.9084 12.8197 14.8618 12.7904 14.6764L12.3869 12.1183Z" fill="black"/>
</svg>
