<svg width="25" height="25" viewBox="0 0 25 25" fill="none" xmlns="http://www.w3.org/2000/svg">
<mask id="mask0_17_648" style="mask-type:alpha" maskUnits="userSpaceOnUse" x="0" y="0" width="25" height="25">
<rect x="0.871704" y="0.712952" width="24" height="24" fill="#DCDCDC"/>
</mask>
<g mask="url(#mask0_17_648)">
<path fill-rule="evenodd" clip-rule="evenodd" d="M2.8717 4.61771C2.8717 3.56574 3.7245 2.71295 4.77647 2.71295H20.9669C22.0189 2.71295 22.8717 3.56574 22.8717 4.61771V20.8082C22.8717 21.8602 22.0189 22.713 20.9669 22.713H4.77647C3.7245 22.713 2.8717 21.8602 2.8717 20.8082V4.61771ZM16.6812 20.8082H20.9669V16.5225H16.6812V20.8082ZM14.7765 16.5225V20.8082H10.4908V16.5225H14.7765ZM16.6812 14.6177H20.9669V10.8082H16.6812V14.6177ZM14.7765 10.8082V14.6177H10.4908V10.8082H14.7765ZM16.6812 8.90343H20.9669V4.61771H16.6812V8.90343ZM14.7765 4.61771V8.90343H10.4908V4.61771H14.7765ZM4.77647 4.61771H8.58599V8.90343H4.77647V4.61771ZM4.77647 10.8082H8.58599V14.6177H4.77647V10.8082ZM4.77647 16.5225H8.58599V20.8082H4.77647V16.5225Z" fill="#35322B"/>
</g>
</svg>
