<svg width="25" height="25" viewBox="0 0 25 25" fill="none" xmlns="http://www.w3.org/2000/svg">
<mask id="mask0_17_651" style="mask-type:alpha" maskUnits="userSpaceOnUse" x="0" y="0" width="25" height="25">
<rect x="0.774414" y="0.712952" width="24" height="24" fill="#DCDCDC"/>
</mask>
<g mask="url(#mask0_17_651)">
<path d="M8.22896 10.615C7.72688 10.615 7.31987 11.0325 7.31987 11.5474C7.31987 12.0624 7.72688 12.4798 8.22896 12.4798H17.3199C17.8219 12.4798 18.229 12.0624 18.229 11.5474C18.229 11.0325 17.8219 10.615 17.3199 10.615H8.22896Z" fill="#35322B"/>
<path fill-rule="evenodd" clip-rule="evenodd" d="M3.6835 3.62204C3.18143 3.62204 2.77441 4.03949 2.77441 4.55444V18.5405C2.77441 19.0554 3.18143 19.4729 3.6835 19.4729H6.86532V20.8715C6.86532 21.1946 7.02846 21.4947 7.29648 21.6646C7.56449 21.8345 7.89916 21.8499 8.18097 21.7054L12.5345 19.4729H21.8653C22.3674 19.4729 22.7744 19.0554 22.7744 18.5405V4.55444C22.7744 4.03949 22.3674 3.62204 21.8653 3.62204H3.6835ZM4.5926 17.6081V5.48684H20.9562V17.6081H12.3199C12.1787 17.6081 12.0395 17.6418 11.9133 17.7065L8.68351 19.3628V18.5405C8.68351 18.0255 8.27649 17.6081 7.77441 17.6081H4.5926Z" fill="#35322B"/>
</g>
</svg>
