<svg width="29" height="29" viewBox="0 0 29 29" fill="none" xmlns="http://www.w3.org/2000/svg">
<mask id="mask0_17_713" style="mask-type:alpha" maskUnits="userSpaceOnUse" x="0" y="0" width="29" height="29">
<rect x="0.903076" y="0.5" width="28" height="28" fill="#DCDCDC"/>
</mask>
<g mask="url(#mask0_17_713)">
<path fill-rule="evenodd" clip-rule="evenodd" d="M2.94547 2.26139C3.16195 2.21976 3.43272 2.1955 3.76474 2.1955H12.3325C12.664 2.1955 12.9368 2.21966 13.1562 2.27028C13.3825 2.32251 13.5647 2.42047 13.7034 2.56843C13.8426 2.71689 13.9296 2.91469 13.9803 3.1429L13.9812 3.14713C14.0227 3.37139 14.0469 3.65786 14.0469 4.0054V12.605C14.0469 12.9373 14.0226 13.2077 13.9811 13.4314C13.9374 13.6591 13.8396 13.8502 13.7007 13.9891C13.5612 14.1285 13.3797 14.2168 13.1652 14.2683C12.9532 14.3191 12.6798 14.3433 12.3644 14.3433H3.76474C3.44331 14.3433 3.17959 14.3273 2.96139 14.2853C2.74005 14.2428 2.55589 14.1636 2.41401 14.0224C2.27107 13.8882 2.18368 13.6955 2.13313 13.4765C2.08278 13.2583 2.05038 12.9701 2.05038 12.605V3.93374C2.05038 3.59385 2.07464 3.31543 2.11612 3.0914C2.1599 2.86376 2.25771 2.67266 2.39661 2.53376C2.53836 2.39201 2.72219 2.31283 2.94108 2.26232L2.94547 2.26139ZM4.28561 4.12723C4.15784 4.1344 4.09331 4.16607 4.05935 4.20095C4.02263 4.25628 3.99809 4.3324 3.99804 4.43507L4.0133 7.21195H7.10665V4.12723H4.28561ZM9.07024 4.13519V7.21195H12.0833V4.33983C12.0833 4.26486 12.0775 4.21232 12.069 4.17827C12.0653 4.16334 12.0618 4.15504 12.0598 4.15104C12.0431 4.14258 12.0105 4.13519 11.9344 4.13519H9.07024ZM4.01458 9.13572L4.02989 12.1824C4.02989 12.2526 4.03553 12.3043 4.04431 12.3402C4.0508 12.3667 4.05793 12.3804 4.0623 12.387C4.0648 12.3883 4.06824 12.3901 4.0728 12.392C4.08328 12.3963 4.09805 12.4011 4.11789 12.4053C4.15781 12.4139 4.21244 12.4195 4.28231 12.4195H7.11462V9.13572H4.01458ZM9.07024 9.13572V12.4195H11.8309C11.9565 12.4195 12.0236 12.4044 12.0525 12.3902C12.0547 12.3869 12.0598 12.378 12.0655 12.359C12.0759 12.3246 12.0833 12.2717 12.0833 12.1989V9.13572H9.07024Z" fill="black"/>
<path fill-rule="evenodd" clip-rule="evenodd" d="M16.6544 14.7226C16.8708 14.681 17.1416 14.6567 17.4736 14.6567H26.0414C26.3729 14.6567 26.6457 14.6809 26.8651 14.7315C27.0914 14.7838 27.2736 14.8817 27.4123 15.0297C27.5514 15.1781 27.6384 15.3759 27.6892 15.6041L27.6901 15.6084C27.7316 15.8326 27.7558 16.1191 27.7558 16.4666V25.0663C27.7558 25.3985 27.7315 25.6689 27.69 25.8927C27.6462 26.1203 27.5484 26.3114 27.4095 26.4503C27.2701 26.5898 27.0885 26.678 26.8741 26.7295C26.662 26.7804 26.3887 26.8045 26.0733 26.8045H17.4736C17.1522 26.8045 16.8885 26.7886 16.6703 26.7466C16.4489 26.704 16.2648 26.6248 16.1229 26.4837C15.9799 26.3494 15.8926 26.1568 15.842 25.9377C15.7917 25.7195 15.7593 25.4313 15.7593 25.0663V16.395C15.7593 16.0551 15.7835 15.7767 15.825 15.5526C15.8688 15.325 15.9666 15.1339 16.1055 14.995C16.2472 14.8532 16.4311 14.7741 16.65 14.7236L16.6544 14.7226ZM17.9945 16.5885C17.8667 16.5956 17.8022 16.6273 17.7682 16.6622C17.7315 16.7175 17.707 16.7936 17.7069 16.8963L17.7222 19.6732H20.8155V16.5885H17.9945ZM22.7791 16.5964V19.6732H25.7922V16.8011C25.7922 16.7261 25.7864 16.6736 25.7779 16.6395C25.7742 16.6246 25.7707 16.6163 25.7687 16.6123C25.752 16.6038 25.7194 16.5964 25.6433 16.5964H22.7791ZM17.7235 21.597L17.7388 24.6436C17.7388 24.7138 17.7444 24.7656 17.7532 24.8014C17.7597 24.8279 17.7668 24.8417 17.7712 24.8482L17.7762 24.8508L17.7817 24.8532C17.7922 24.8576 17.8069 24.8623 17.8268 24.8666C17.8667 24.8752 17.9213 24.8808 17.9912 24.8808H20.8235V21.597H17.7235ZM22.7791 21.597V24.8808H25.5398C25.6654 24.8808 25.7325 24.8657 25.7614 24.8515C25.7636 24.8482 25.7687 24.8393 25.7744 24.8203C25.7848 24.7858 25.7922 24.733 25.7922 24.6602V21.597H22.7791Z" fill="black"/>
<path d="M17.3397 4.75383C17.3397 4.081 17.8851 3.53556 18.5579 3.53556H22.2127C24.2312 3.53556 25.8675 5.17187 25.8675 7.19037V10.8452C25.8675 11.518 25.3221 12.0635 24.6493 12.0635C23.9764 12.0635 23.431 11.518 23.431 10.8452V7.19037C23.431 6.51755 22.8856 5.9721 22.2127 5.9721H18.5579C17.8851 5.9721 17.3397 5.42666 17.3397 4.75383Z" fill="black"/>
<path d="M6.37523 18.1548C6.37523 17.482 5.82979 16.9365 5.15696 16.9365C4.48413 16.9365 3.93869 17.482 3.93869 18.1548V21.8096C3.93869 23.8281 5.57499 25.4644 7.5935 25.4644H11.2483C11.9211 25.4644 12.4666 24.919 12.4666 24.2462C12.4666 23.5733 11.9211 23.0279 11.2483 23.0279H7.5935C6.92067 23.0279 6.37523 22.4824 6.37523 21.8096V18.1548Z" fill="black"/>
</g>
</svg>
