<svg width="16" height="16" viewBox="0 0 16 16" fill="none" xmlns="http://www.w3.org/2000/svg">
<path fill-rule="evenodd" clip-rule="evenodd" d="M1.60338 13.7426C1.64218 13.924 1.71313 14.0779 1.82672 14.19L1.83175 14.1947C1.95223 14.3028 2.10563 14.3683 2.28296 14.3981C2.45383 14.4351 2.66104 14.4525 2.9019 14.4525H13.1244C13.366 14.4525 13.5723 14.4308 13.7388 14.3832C13.9153 14.3437 14.0647 14.2679 14.1757 14.1486C14.2867 14.038 14.3575 13.8905 14.3964 13.7175C14.4346 13.5479 14.4525 13.3376 14.4525 13.09V2.975C14.4525 2.71053 14.4347 2.48785 14.3968 2.31013C14.358 2.12835 14.2877 1.97298 14.1781 1.85402C14.0666 1.73301 13.916 1.65637 13.7377 1.61668C13.5634 1.5694 13.3489 1.54761 13.0981 1.54761H2.91504C2.66591 1.54761 2.45417 1.56494 2.28294 1.60207C2.10233 1.63243 1.94723 1.7042 1.82672 1.82313C1.71313 1.93524 1.64218 2.08912 1.60339 2.27045C1.56525 2.44024 1.54755 2.65469 1.54755 2.91018V13.09C1.54755 13.3537 1.56519 13.5726 1.60338 13.7426ZM13.0949 2.82156L13.1029 2.83342L13.1131 2.84351C13.1259 2.85607 13.1361 2.87378 13.1361 2.91018V7.27917H8.69761V2.80792H13.0844C13.0871 2.81091 13.0907 2.81531 13.0949 2.82156ZM2.9019 2.80792H7.3812V7.27917H2.86396V2.91018C2.86396 2.84154 2.87793 2.81568 2.88187 2.81039C2.88187 2.81039 2.88896 2.80792 2.9019 2.80792ZM13.0981 13.1922H8.69761V8.53947H13.1361V13.09C13.1361 13.1586 13.1221 13.1845 13.1181 13.1897C13.1181 13.1897 13.111 13.1922 13.0981 13.1922ZM7.3812 8.53947V13.1922H2.91504C2.89737 13.1922 2.88867 13.1894 2.88561 13.1882C2.88343 13.1873 2.88182 13.1854 2.88182 13.1854C2.87803 13.1807 2.86396 13.157 2.86396 13.09V8.53947H7.3812Z" fill="black"/>
</svg>
