<svg width="17" height="17" viewBox="0 0 17 17" fill="none" xmlns="http://www.w3.org/2000/svg">
<path fill-rule="evenodd" clip-rule="evenodd" d="M2.1989 14.5124C2.2377 14.6938 2.30865 14.8476 2.42224 14.9597L2.42727 14.9645C2.54775 15.0726 2.70115 15.1381 2.87848 15.1678C3.04935 15.2049 3.25656 15.2223 3.49742 15.2223H13.7199C13.9615 15.2223 14.1678 15.2006 14.3343 15.153C14.5108 15.1135 14.6603 15.0377 14.7713 14.9184C14.8822 14.8078 14.953 14.6603 14.992 14.4873C15.0302 14.3176 15.048 14.1074 15.048 13.8597V3.74477C15.048 3.4803 15.0302 3.25762 14.9923 3.0799C14.9535 2.89812 14.8832 2.74276 14.7736 2.62379C14.6621 2.50278 14.5115 2.42615 14.3332 2.38646C14.1589 2.33918 13.9444 2.31738 13.6936 2.31738H3.51056C3.26143 2.31738 3.04969 2.33471 2.87846 2.37184C2.69785 2.40221 2.54275 2.47398 2.42224 2.59291C2.30865 2.70502 2.2377 2.8589 2.19891 3.04023C2.16077 3.21001 2.14307 3.42446 2.14307 3.67996V13.8597C2.14307 14.1234 2.16071 14.3424 2.1989 14.5124ZM13.6904 3.59133L13.6984 3.6032L13.7086 3.61328C13.7214 3.62585 13.7316 3.64355 13.7316 3.67996V8.04894H9.29313V3.57769H13.6799C13.6826 3.58068 13.6862 3.58509 13.6904 3.59133ZM3.49742 3.57769H7.97672V8.04894H3.45948V3.67996C3.45948 3.61131 3.47345 3.58546 3.47739 3.58017C3.47739 3.58017 3.48448 3.57769 3.49742 3.57769ZM13.6936 13.962H9.29313V9.30925H13.7316V13.8597C13.7316 13.9284 13.7176 13.9542 13.7137 13.9595C13.7137 13.9595 13.7066 13.962 13.6936 13.962ZM7.97672 9.30925V13.962H3.51056C3.49289 13.962 3.48419 13.9592 3.48113 13.9579C3.47895 13.957 3.47734 13.9552 3.47734 13.9552C3.47355 13.9505 3.45948 13.9268 3.45948 13.8597V9.30925H7.97672Z" fill="black"/>
</svg>
