<svg width="16" height="16" viewBox="0 0 16 16" fill="none" xmlns="http://www.w3.org/2000/svg">
<path d="M8.66683 9.74906C8.66683 9.38087 8.36835 9.0824 8.00016 9.0824C7.63197 9.0824 7.3335 9.38087 7.3335 9.74906V11.5238C7.3335 11.892 7.63197 12.1904 8.00016 12.1904C8.36835 12.1904 8.66683 11.892 8.66683 11.5238V9.74906Z" fill="black"/>
<path fill-rule="evenodd" clip-rule="evenodd" d="M7.94246 2.76018C6.70068 2.76018 5.69401 3.76684 5.69401 5.00862V6.73059H12.4362C13.131 6.73059 13.6943 7.29388 13.6943 7.98873V13.312C13.6943 14.0068 13.131 14.5701 12.4362 14.5701H3.56405C2.8692 14.5701 2.30591 14.0068 2.30591 13.312V7.98873C2.30591 7.29388 2.8692 6.73059 3.56405 6.73059H4.36401V5.00862C4.36401 3.0323 5.96614 1.43018 7.94246 1.43018H8.34665C10.0997 1.43018 11.5209 2.85134 11.5209 4.60442C11.5209 4.97169 11.2232 5.26942 10.8559 5.26942C10.4886 5.26942 10.1909 4.97169 10.1909 4.60442C10.1909 3.58587 9.3652 2.76018 8.34665 2.76018H7.94246ZM3.63924 8.06392V13.2368H12.361V8.06392H3.63924Z" fill="black"/>
</svg>
