<svg width="17" height="17" viewBox="0 0 17 17" fill="none" xmlns="http://www.w3.org/2000/svg">
<path d="M9.48348 9.95365C9.48348 9.58546 9.185 9.28699 8.81681 9.28699C8.44862 9.28699 8.15015 9.58546 8.15015 9.95365V11.7284C8.15015 12.0965 8.44862 12.395 8.81681 12.395C9.185 12.395 9.48348 12.0965 9.48348 11.7284V9.95365Z" fill="black"/>
<path fill-rule="evenodd" clip-rule="evenodd" d="M8.75911 2.96477C7.51733 2.96477 6.51066 3.97143 6.51066 5.21321V6.93518H13.2528C13.9477 6.93518 14.5109 7.49847 14.5109 8.19332V13.5166C14.5109 14.2114 13.9477 14.7747 13.2528 14.7747H4.3807C3.68585 14.7747 3.12256 14.2114 3.12256 13.5166V8.19332C3.12256 7.49847 3.68585 6.93518 4.3807 6.93518H5.18066V5.21321C5.18066 3.23689 6.78279 1.63477 8.75911 1.63477H9.16331C10.9164 1.63477 12.3376 3.05593 12.3376 4.80901C12.3376 5.17628 12.0398 5.47401 11.6726 5.47401C11.3053 5.47401 11.0076 5.17628 11.0076 4.80901C11.0076 3.79046 10.1819 2.96477 9.16331 2.96477H8.75911ZM4.45589 8.26851V13.4414H13.1776V8.26851H4.45589Z" fill="black"/>
</svg>
