<svg width="16" height="17" viewBox="0 0 16 17" fill="none" xmlns="http://www.w3.org/2000/svg">
<path d="M3.06604 4.95117C3.84647 4.95117 4.47913 4.31851 4.47913 3.53809C4.47913 2.75766 3.84647 2.125 3.06604 2.125C2.28561 2.125 1.65295 2.75766 1.65295 3.53809C1.65295 4.31851 2.28561 4.95117 3.06604 4.95117Z" fill="black"/>
<path d="M5.66504 3.538C5.66504 3.16981 5.96352 2.87134 6.33171 2.87134H13.665C14.0332 2.87134 14.3317 3.16981 14.3317 3.538C14.3317 3.90619 14.0332 4.20467 13.665 4.20467H6.33171C5.96352 4.20467 5.66504 3.90619 5.66504 3.538Z" fill="black"/>
<path d="M6.33171 12.2047C5.96352 12.2047 5.66504 12.5032 5.66504 12.8714C5.66504 13.2396 5.96352 13.538 6.33171 13.538H13.665C14.0332 13.538 14.3317 13.2396 14.3317 12.8714C14.3317 12.5032 14.0332 12.2047 13.665 12.2047H6.33171Z" fill="black"/>
<path d="M6.33183 7.53809C5.96364 7.53809 5.66516 7.83656 5.66516 8.20475C5.66516 8.57294 5.96364 8.87142 6.33183 8.87142H13.6652C14.0334 8.87142 14.3318 8.57294 14.3318 8.20475C14.3318 7.83656 14.0334 7.53809 13.6652 7.53809H6.33183Z" fill="black"/>
<path d="M4.47913 8.20483C4.47913 8.98526 3.84647 9.61792 3.06604 9.61792C2.28561 9.61792 1.65295 8.98526 1.65295 8.20483C1.65295 7.42441 2.28561 6.79175 3.06604 6.79175C3.84647 6.79175 4.47913 7.42441 4.47913 8.20483Z" fill="black"/>
<path d="M3.06604 14.285C3.84647 14.285 4.47913 13.6524 4.47913 12.8719C4.47913 12.0915 3.84647 11.4589 3.06604 11.4589C2.28561 11.4589 1.65295 12.0915 1.65295 12.8719C1.65295 13.6524 2.28561 14.285 3.06604 14.285Z" fill="black"/>
</svg>
