<svg width="16" height="16" viewBox="0 0 16 16" fill="none" xmlns="http://www.w3.org/2000/svg">
<path d="M3.07361 4.74658C3.85403 4.74658 4.48669 4.11392 4.48669 3.3335C4.48669 2.55307 3.85403 1.92041 3.07361 1.92041C2.29318 1.92041 1.66052 2.55307 1.66052 3.3335C1.66052 4.11392 2.29318 4.74658 3.07361 4.74658Z" fill="black"/>
<path d="M5.67261 3.33341C5.67261 2.96522 5.97108 2.66675 6.33927 2.66675H13.6726C14.0408 2.66675 14.3393 2.96522 14.3393 3.33341C14.3393 3.7016 14.0408 4.00008 13.6726 4.00008H6.33927C5.97108 4.00008 5.67261 3.7016 5.67261 3.33341Z" fill="black"/>
<path d="M6.33927 12.0001C5.97108 12.0001 5.67261 12.2986 5.67261 12.6668C5.67261 13.035 5.97108 13.3335 6.33927 13.3335H13.6726C14.0408 13.3335 14.3393 13.035 14.3393 12.6668C14.3393 12.2986 14.0408 12.0001 13.6726 12.0001H6.33927Z" fill="black"/>
<path d="M6.3394 7.3335C5.97121 7.3335 5.67273 7.63197 5.67273 8.00016C5.67273 8.36835 5.97121 8.66683 6.3394 8.66683H13.6727C14.0409 8.66683 14.3394 8.36835 14.3394 8.00016C14.3394 7.63197 14.0409 7.3335 13.6727 7.3335H6.3394Z" fill="black"/>
<path d="M4.48669 8.00024C4.48669 8.78067 3.85403 9.41333 3.07361 9.41333C2.29318 9.41333 1.66052 8.78067 1.66052 8.00024C1.66052 7.21982 2.29318 6.58716 3.07361 6.58716C3.85403 6.58716 4.48669 7.21982 4.48669 8.00024Z" fill="black"/>
<path d="M3.07361 14.0804C3.85403 14.0804 4.48669 13.4478 4.48669 12.6674C4.48669 11.8869 3.85403 11.2543 3.07361 11.2543C2.29318 11.2543 1.66052 11.8869 1.66052 12.6674C1.66052 13.4478 2.29318 14.0804 3.07361 14.0804Z" fill="black"/>
</svg>
