<svg width="17" height="16" viewBox="0 0 17 16" fill="none" xmlns="http://www.w3.org/2000/svg">
<path fill-rule="evenodd" clip-rule="evenodd" d="M12.9232 2.50977H3.92322C3.37093 2.50977 2.92322 2.95748 2.92322 3.50977V12.5098C2.92322 13.0621 3.37093 13.5098 3.92322 13.5098H12.9232C13.4755 13.5098 13.9232 13.062 13.9232 12.5098V3.50977C13.9232 2.95748 13.4755 2.50977 12.9232 2.50977ZM3.92322 1.50977C2.81865 1.50977 1.92322 2.4052 1.92322 3.50977V12.5098C1.92322 13.6143 2.81865 14.5098 3.92322 14.5098H12.9232C14.0278 14.5098 14.9232 13.6143 14.9232 12.5098V3.50977C14.9232 2.4052 14.0278 1.50977 12.9232 1.50977H3.92322Z" fill="black"/>
</svg>
