<svg width="17" height="16" viewBox="0 0 17 16" fill="none" xmlns="http://www.w3.org/2000/svg">
<path d="M8.02722 14.1504C8.02722 14.4265 8.25108 14.6504 8.52722 14.6504C8.80336 14.6504 9.02722 14.4265 9.02722 14.1504V8.48401H14.6936C14.9697 8.48401 15.1936 8.26015 15.1936 7.98401C15.1936 7.70787 14.9697 7.48401 14.6936 7.48401H9.02722V1.81763C9.02722 1.54148 8.80336 1.31763 8.52722 1.31763C8.25108 1.31763 8.02722 1.54148 8.02722 1.81763V7.48401H2.36084C2.0847 7.48401 1.86084 7.70787 1.86084 7.98401C1.86084 8.26015 2.0847 8.48401 2.36084 8.48401H8.02722V14.1504Z" fill="black"/>
</svg>
