<svg width="16" height="16" viewBox="0 0 16 16" fill="none" xmlns="http://www.w3.org/2000/svg">
<path fill-rule="evenodd" clip-rule="evenodd" d="M3.99988 3.60921C3.99988 2.32055 5.04456 1.27588 6.33321 1.27588C7.62187 1.27588 8.66654 2.32055 8.66654 3.60921V6.24136C8.66654 7.53002 7.62187 8.5747 6.33321 8.5747C5.04455 8.5747 3.99988 7.53002 3.99988 6.24136V3.60921ZM6.33321 2.60921C5.78093 2.60921 5.33321 3.05693 5.33321 3.60921V6.24136C5.33321 6.79364 5.78093 7.24136 6.33321 7.24136C6.88549 7.24136 7.33321 6.79364 7.33321 6.24136V3.60921C7.33321 3.05693 6.88549 2.60921 6.33321 2.60921Z" fill="black"/>
<path fill-rule="evenodd" clip-rule="evenodd" d="M9.99988 3.60921C9.99988 2.32055 11.0446 1.27588 12.3332 1.27588C13.6219 1.27588 14.6665 2.32055 14.6665 3.60921V6.24136C14.6665 7.53002 13.6219 8.5747 12.3332 8.5747C11.0446 8.5747 9.99988 7.53002 9.99988 6.24136V3.60921ZM12.3332 2.60921C11.7809 2.60921 11.3332 3.05693 11.3332 3.60921V6.24136C11.3332 6.79364 11.7809 7.24136 12.3332 7.24136C12.8855 7.24136 13.3332 6.79364 13.3332 6.24136V3.60921C13.3332 3.05693 12.8855 2.60921 12.3332 2.60921Z" fill="black"/>
<path d="M12.4713 9.58625C12.211 9.3259 11.7889 9.3259 11.5285 9.58625C11.2682 9.8466 11.2682 10.2687 11.5285 10.5291L12.3904 11.391H6.33329C5.9651 11.391 5.66663 11.6895 5.66663 12.0577C5.66663 12.4258 5.9651 12.7243 6.33329 12.7243H12.3904L11.5285 13.5862C11.2682 13.8466 11.2682 14.2687 11.5285 14.5291C11.7889 14.7894 12.211 14.7894 12.4713 14.5291L14.4669 12.5335C14.4851 12.5156 14.5022 12.4968 14.5183 12.477C14.5484 12.4399 14.5739 12.4003 14.5948 12.359C14.6407 12.2685 14.6666 12.1661 14.6666 12.0577C14.6666 11.9492 14.6407 11.8468 14.5948 11.7563C14.5739 11.715 14.5484 11.6754 14.5183 11.6383C14.5022 11.6185 14.4851 11.5997 14.4669 11.5818L12.4713 9.58625Z" fill="black"/>
<path d="M1.33325 7.98825C1.33325 7.62006 1.63173 7.32159 1.99992 7.32159H2.33325C2.70144 7.32159 2.99992 7.62006 2.99992 7.98825C2.99992 8.35644 2.70144 8.65492 2.33325 8.65492H1.99992C1.63173 8.65492 1.33325 8.35644 1.33325 7.98825Z" fill="black"/>
</svg>
