<svg width="17" height="17" viewBox="0 0 17 17" fill="none" xmlns="http://www.w3.org/2000/svg">
<path fill-rule="evenodd" clip-rule="evenodd" d="M4.93152 3.8348C4.93152 2.54613 5.9762 1.50146 7.26485 1.50146C8.55351 1.50146 9.59819 2.54613 9.59819 3.8348V6.46695C9.59819 7.75561 8.55351 8.80028 7.26485 8.80028C5.9762 8.80028 4.93152 7.75561 4.93152 6.46695V3.8348ZM7.26485 2.8348C6.71257 2.8348 6.26485 3.28252 6.26485 3.8348V6.46695C6.26485 7.01923 6.71257 7.46695 7.26485 7.46695C7.81713 7.46695 8.26485 7.01923 8.26485 6.46695V3.8348C8.26485 3.28252 7.81713 2.8348 7.26485 2.8348Z" fill="black"/>
<path fill-rule="evenodd" clip-rule="evenodd" d="M10.9315 3.8348C10.9315 2.54613 11.9762 1.50146 13.2649 1.50146C14.5535 1.50146 15.5982 2.54613 15.5982 3.8348V6.46695C15.5982 7.75561 14.5535 8.80028 13.2649 8.80028C11.9762 8.80028 10.9315 7.75561 10.9315 6.46695V3.8348ZM13.2649 2.8348C12.7126 2.8348 12.2649 3.28252 12.2649 3.8348V6.46695C12.2649 7.01923 12.7126 7.46695 13.2649 7.46695C13.8171 7.46695 14.2649 7.01923 14.2649 6.46695V3.8348C14.2649 3.28252 13.8171 2.8348 13.2649 2.8348Z" fill="black"/>
<path d="M13.403 9.81183C13.1426 9.55148 12.7205 9.55148 12.4602 9.81183C12.1998 10.0722 12.1998 10.4943 12.4602 10.7546L13.3221 11.6166H7.26493C6.89674 11.6166 6.59827 11.915 6.59827 12.2832C6.59827 12.6514 6.89674 12.9499 7.26493 12.9499H13.3221L12.4602 13.8118C12.1998 14.0722 12.1998 14.4943 12.4602 14.7546C12.7205 15.015 13.1426 15.015 13.403 14.7546L15.3985 12.7591C15.4167 12.7412 15.4339 12.7224 15.4499 12.7026C15.48 12.6655 15.5055 12.6259 15.5264 12.5846C15.5724 12.4941 15.5983 12.3917 15.5983 12.2832C15.5983 12.1748 15.5724 12.0724 15.5264 11.9819C15.5055 11.9406 15.48 11.901 15.4499 11.8639C15.4339 11.8441 15.4167 11.8253 15.3986 11.8074L13.403 9.81183Z" fill="black"/>
<path d="M2.26489 8.21384C2.26489 7.84565 2.56337 7.54717 2.93156 7.54717H3.26489C3.63308 7.54717 3.93156 7.84565 3.93156 8.21384C3.93156 8.58203 3.63308 8.88051 3.26489 8.88051H2.93156C2.56337 8.88051 2.26489 8.58203 2.26489 8.21384Z" fill="black"/>
</svg>
