<svg width="16" height="16" viewBox="0 0 16 16" fill="none" xmlns="http://www.w3.org/2000/svg">
<path fill-rule="evenodd" clip-rule="evenodd" d="M4.06641 3.49366C4.06641 2.27555 5.14145 1.3916 6.33307 1.3916C7.52469 1.3916 8.59974 2.27555 8.59974 3.49366V6.49777C8.59974 7.71586 7.52469 8.59982 6.33307 8.59982C5.14145 8.59982 4.06641 7.71586 4.06641 6.49777V3.49366ZM6.33307 2.5916C5.68376 2.5916 5.26641 3.05264 5.26641 3.49366V6.49777C5.26641 6.93878 5.68376 7.39982 6.33307 7.39982C6.98239 7.39982 7.39974 6.93878 7.39974 6.49777V3.49366C7.39974 3.05264 6.98239 2.5916 6.33307 2.5916Z" fill="black"/>
<path fill-rule="evenodd" clip-rule="evenodd" d="M10.0664 3.49366C10.0664 2.27555 11.1415 1.3916 12.3331 1.3916C13.5247 1.3916 14.5997 2.27555 14.5997 3.49366V6.49777C14.5997 7.71586 13.5247 8.59982 12.3331 8.59982C11.1415 8.59982 10.0664 7.71586 10.0664 6.49777V3.49366ZM12.3331 2.5916C11.6838 2.5916 11.2664 3.05264 11.2664 3.49366V6.49777C11.2664 6.93878 11.6838 7.39982 12.3331 7.39982C12.9824 7.39982 13.3997 6.93878 13.3997 6.49777V3.49366C13.3997 3.05264 12.9824 2.5916 12.3331 2.5916Z" fill="black"/>
<path d="M12.4242 9.5417C12.1899 9.30739 11.81 9.30739 11.5756 9.5417C11.3413 9.77602 11.3413 10.1559 11.5756 10.3902L12.5514 11.366H6.3334C6.00203 11.366 5.7334 11.6346 5.7334 11.966C5.7334 12.2973 6.00203 12.566 6.3334 12.566H12.5514L11.5756 13.5417C11.3413 13.776 11.3413 14.1559 11.5756 14.3902C11.81 14.6245 12.1899 14.6245 12.4242 14.3902L14.4159 12.3985C14.5294 12.2893 14.6001 12.1359 14.6001 11.966C14.6001 11.796 14.5294 11.6426 14.4159 11.5334L12.4242 9.5417Z" fill="black"/>
<path d="M1.3999 8.3002C1.3999 7.96882 1.66853 7.7002 1.9999 7.7002H2.33324C2.66461 7.7002 2.93324 7.96882 2.93324 8.3002C2.93324 8.63157 2.66461 8.9002 2.33324 8.9002H1.9999C1.66853 8.9002 1.3999 8.63157 1.3999 8.3002Z" fill="black"/>
</svg>
