<svg width="16" height="16" viewBox="0 0 16 16" fill="none" xmlns="http://www.w3.org/2000/svg">
<path d="M1.7665 2.06641C2.09787 2.06641 2.3665 2.33504 2.3665 2.66641V13.3331C2.3665 13.6644 2.09787 13.9331 1.7665 13.9331C1.43513 13.9331 1.1665 13.6644 1.1665 13.3331V2.66641C1.1665 2.33504 1.43513 2.06641 1.7665 2.06641Z" fill="black"/>
<path d="M14.2333 2.06641C14.5647 2.06641 14.8333 2.33504 14.8333 2.66641V13.3331C14.8333 13.6644 14.5647 13.9331 14.2333 13.9331C13.9019 13.9331 13.6333 13.6644 13.6333 13.3331V2.66641C13.6333 2.33504 13.9019 2.06641 14.2333 2.06641Z" fill="black"/>
<path d="M6.59083 6.75717C6.82515 6.52286 6.82515 6.14296 6.59083 5.90865C6.35652 5.67433 5.97662 5.67433 5.7423 5.90865L4.07564 7.57531C3.96312 7.68783 3.8999 7.84045 3.8999 7.99958C3.8999 8.15871 3.96312 8.31132 4.07564 8.42384L5.7423 10.0905C5.97662 10.3248 6.35652 10.3248 6.59083 10.0905C6.82515 9.85619 6.82515 9.47629 6.59083 9.24198L5.94843 8.59958H10.0514L9.40897 9.24198C9.17466 9.47629 9.17466 9.85619 9.40897 10.0905C9.64329 10.3248 10.0232 10.3248 10.2575 10.0905L11.9242 8.42384C12.1585 8.18953 12.1585 7.80963 11.9242 7.57531L10.2575 5.90865C10.0232 5.67433 9.64329 5.67433 9.40897 5.90865C9.17466 6.14296 9.17466 6.52286 9.40897 6.75717L10.0514 7.39958H5.94843L6.59083 6.75717Z" fill="black"/>
</svg>
