<svg width="16" height="16" viewBox="0 0 16 16" fill="none" xmlns="http://www.w3.org/2000/svg">
<path d="M1.3999 1.9667C1.3999 1.63533 1.66853 1.3667 1.9999 1.3667H13.9999C14.3313 1.3667 14.5999 1.63533 14.5999 1.9667C14.5999 2.29807 14.3313 2.5667 13.9999 2.5667H1.9999C1.66853 2.5667 1.3999 2.29807 1.3999 1.9667Z" fill="black"/>
<path d="M1.3999 14.0334C1.3999 13.7021 1.66853 13.4334 1.9999 13.4334H13.9999C14.3313 13.4334 14.5999 13.7021 14.5999 14.0334C14.5999 14.3648 14.3313 14.6334 13.9999 14.6334H1.9999C1.66853 14.6334 1.3999 14.3648 1.3999 14.0334Z" fill="black"/>
<path d="M6.75766 9.40931C6.52335 9.175 6.14345 9.175 5.90913 9.40931C5.67482 9.64363 5.67482 10.0235 5.90913 10.2578L7.5758 11.9245C7.68832 12.037 7.84093 12.1002 8.00006 12.1002C8.15919 12.1002 8.31181 12.037 8.42433 11.9245L10.091 10.2578C10.3253 10.0235 10.3253 9.64363 10.091 9.40931C9.85668 9.175 9.47678 9.175 9.24247 9.40931L8.60006 10.0517V5.94877L9.24247 6.59117C9.47678 6.82549 9.85668 6.82549 10.091 6.59117C10.3253 6.35686 10.3253 5.97696 10.091 5.74264L8.42433 4.07598C8.19001 3.84166 7.81012 3.84166 7.5758 4.07598L5.90913 5.74264C5.67482 5.97696 5.67482 6.35686 5.90913 6.59117C6.14345 6.82549 6.52335 6.82549 6.75766 6.59117L7.40006 5.94877V10.0517L6.75766 9.40931Z" fill="black"/>
</svg>
