<svg width="16" height="16" viewBox="0 0 16 16" fill="none" xmlns="http://www.w3.org/2000/svg">
<mask id="mask0_102_830" style="mask-type:alpha" maskUnits="userSpaceOnUse" x="0" y="0" width="16" height="16">
<rect width="15.9998" height="15.9998" fill="#DCDCDC"/>
</mask>
<g mask="url(#mask0_102_830)">
<path d="M7.99997 14.672C7.60973 14.672 7.29338 14.369 7.29338 13.9953V7.94458L6.57255 8.63489C6.29661 8.89915 5.84923 8.89915 5.57329 8.63489C5.29735 8.37064 5.29735 7.94219 5.57329 7.67794L7.49975 5.83303L7.50497 5.82807C7.63246 5.70821 7.8072 5.63428 7.99997 5.63428C8.09654 5.63428 8.18858 5.65283 8.27243 5.68641C8.35313 5.71867 8.42885 5.76589 8.49497 5.82807L8.50016 5.833L10.4267 7.67794C10.7026 7.94219 10.7026 8.37064 10.4267 8.6349C10.1507 8.89915 9.70333 8.89915 9.42739 8.6349L8.70655 7.94458V13.9953C8.70655 14.369 8.39021 14.672 7.99997 14.672Z" fill="black"/>
<path d="M1.30457 1.99672C1.30457 1.63016 1.60172 1.33301 1.96828 1.33301H14.0315C14.398 1.33301 14.6952 1.63016 14.6952 1.99672C14.6952 2.36328 14.398 2.66044 14.0315 2.66044H1.96828C1.60172 2.66044 1.30457 2.36328 1.30457 1.99672Z" fill="black"/>
</g>
</svg>
