<svg width="16" height="16" viewBox="0 0 16 16" fill="none" xmlns="http://www.w3.org/2000/svg">
<path fill-rule="evenodd" clip-rule="evenodd" d="M1.3999 13.6999C1.3999 13.3685 1.66853 13.0999 1.9999 13.0999H13.9999C14.3313 13.0999 14.5999 13.3685 14.5999 13.6999C14.5999 14.0312 14.3313 14.2999 13.9999 14.2999H1.9999C1.66853 14.2999 1.3999 14.0312 1.3999 13.6999Z" fill="black"/>
<path fill-rule="evenodd" clip-rule="evenodd" d="M7.57564 10.3914C7.80995 10.6257 8.18985 10.6257 8.42417 10.3914L10.4242 8.3914C10.6585 8.15709 10.6585 7.77719 10.4242 7.54287C10.1899 7.30856 9.80995 7.30856 9.57564 7.54287L7.9999 9.11861L6.42417 7.54287C6.18985 7.30856 5.80995 7.30856 5.57564 7.54287C5.34132 7.77719 5.34132 8.15709 5.57564 8.3914L7.57564 10.3914Z" fill="black"/>
<path fill-rule="evenodd" clip-rule="evenodd" d="M7.9999 10.5671C8.33127 10.5671 8.5999 10.2985 8.5999 9.96714V2.30047C8.5999 1.9691 8.33127 1.70047 7.9999 1.70047C7.66853 1.70047 7.3999 1.9691 7.3999 2.30047V9.96714C7.3999 10.2985 7.66853 10.5671 7.9999 10.5671Z" fill="black"/>
</svg>
