<svg width="16" height="16" viewBox="0 0 16 16" fill="none" xmlns="http://www.w3.org/2000/svg">
<path d="M1.3999 2.3002C1.3999 2.63157 1.66853 2.9002 1.9999 2.9002H13.9999C14.3313 2.9002 14.5999 2.63157 14.5999 2.3002C14.5999 1.96882 14.3313 1.7002 13.9999 1.7002H1.9999C1.66853 1.7002 1.3999 1.96882 1.3999 2.3002Z" fill="black"/>
<path d="M8.22957 5.47839C8.30034 5.50767 8.36664 5.55107 8.42417 5.6086L10.4242 7.6086C10.6585 7.84291 10.6585 8.22281 10.4242 8.45713C10.1899 8.69144 9.80995 8.69144 9.57564 8.45713L8.5999 7.48139V13.6995C8.5999 14.0309 8.33127 14.2995 7.9999 14.2995C7.66853 14.2995 7.3999 14.0309 7.3999 13.6995V7.48139L6.42417 8.45713C6.18985 8.69144 5.80995 8.69144 5.57564 8.45713C5.34132 8.22281 5.34132 7.84291 5.57564 7.6086L7.57541 5.60882C7.7522 5.43203 8.01209 5.38841 8.22957 5.47839Z" fill="black"/>
</svg>
