<svg width="16" height="16" viewBox="0 0 16 16" fill="none" xmlns="http://www.w3.org/2000/svg">
<mask id="mask0_102_827" style="mask-type:alpha" maskUnits="userSpaceOnUse" x="0" y="0" width="16" height="16">
<rect width="16" height="16" fill="#DCDCDC"/>
</mask>
<g mask="url(#mask0_102_827)">
<path d="M8.72815 2.01432C8.72815 1.64033 8.42498 1.33716 8.05099 1.33716C7.67701 1.33716 7.37383 1.64033 7.37383 2.01432V8.00664L6.68301 7.31583C6.41857 7.05138 5.98981 7.05138 5.72536 7.31583C5.46092 7.58027 5.46092 8.00903 5.72536 8.27348L7.57164 10.1197C7.57328 10.1214 7.57494 10.123 7.57661 10.1247C7.63997 10.1869 7.71254 10.2342 7.78988 10.2664C7.87023 10.3 7.95845 10.3186 8.05099 10.3186C8.23574 10.3186 8.4032 10.2446 8.52538 10.1247C8.52705 10.123 8.52872 10.1214 8.53038 10.1197L10.3766 8.27348C10.6411 8.00903 10.6411 7.58027 10.3766 7.31583C10.1122 7.05138 9.68342 7.05138 9.41897 7.31583L8.72815 8.00664V2.01432Z" fill="black"/>
<path d="M2.0106 13.3122C1.63661 13.3122 1.33344 13.6153 1.33344 13.9893C1.33344 14.3633 1.63661 14.6665 2.0106 14.6665H14.0914C14.4654 14.6665 14.7686 14.3633 14.7686 13.9893C14.7686 13.6153 14.4654 13.3122 14.0914 13.3122H2.0106Z" fill="black"/>
</g>
</svg>
