<svg width="17" height="17" viewBox="0 0 17 17" fill="none" xmlns="http://www.w3.org/2000/svg">
<mask id="mask0_102_830" style="mask-type:alpha" maskUnits="userSpaceOnUse" x="0" y="0" width="17" height="17">
<rect x="0.206909" y="0.210205" width="15.9998" height="15.9998" fill="#DCDCDC"/>
</mask>
<g mask="url(#mask0_102_830)">
<path d="M1.51147 14.2166C1.51147 13.85 1.80863 13.5528 2.17519 13.5528H14.2384C14.605 13.5528 14.9021 13.85 14.9021 14.2166C14.9021 14.5831 14.605 14.8803 14.2384 14.8803H2.17519C1.80863 14.8803 1.51147 14.5831 1.51147 14.2166Z" fill="black"/>
<path d="M8.20683 10.5777C7.81659 10.5777 7.50024 10.2748 7.50024 9.90106V3.85034L6.77941 4.54066C6.50347 4.80491 6.05608 4.80491 5.78014 4.54066C5.50421 4.2764 5.50421 3.84796 5.78014 3.5837L7.70661 1.73879L7.71183 1.73383C7.83931 1.61397 8.01405 1.54004 8.20683 1.54004C8.30339 1.54004 8.39544 1.55859 8.47928 1.59218C8.55998 1.62443 8.6357 1.67165 8.70182 1.73384L8.70701 1.73876L10.6335 3.5837C10.9094 3.84796 10.9094 4.2764 10.6335 4.54066C10.3576 4.80491 9.91018 4.80491 9.63425 4.54066L8.91341 3.85034V9.90106C8.91341 10.2748 8.59706 10.5777 8.20683 10.5777Z" fill="black"/>
</g>
</svg>
