<svg width="17" height="17" viewBox="0 0 17 17" fill="none" xmlns="http://www.w3.org/2000/svg">
<mask id="mask0_102_827" style="mask-type:alpha" maskUnits="userSpaceOnUse" x="0" y="0" width="17" height="17">
<rect x="0.867126" y="0.209961" width="16" height="16" fill="#DCDCDC"/>
</mask>
<g mask="url(#mask0_102_827)">
<path d="M9.59528 2.22428C9.59528 1.85029 9.2921 1.54712 8.91812 1.54712C8.54413 1.54712 8.24096 1.85029 8.24096 2.22428V8.2166L7.55014 7.52579C7.28569 7.26134 6.85694 7.26134 6.59249 7.52579C6.32804 7.79023 6.32804 8.21899 6.59249 8.48344L8.43876 10.3297C8.44041 10.3314 8.44207 10.333 8.44373 10.3346C8.5071 10.3969 8.57967 10.4441 8.65701 10.4764C8.73736 10.51 8.82557 10.5286 8.91812 10.5286C9.10286 10.5286 9.27033 10.4546 9.3925 10.3346C9.39418 10.333 9.39585 10.3313 9.3975 10.3297L11.2437 8.48344C11.5082 8.21899 11.5082 7.79023 11.2437 7.52579C10.9793 7.26134 10.5505 7.26134 10.2861 7.52579L9.59528 8.2166V2.22428Z" fill="black"/>
<path d="M2.87772 13.5221C2.50374 13.5221 2.20056 13.8253 2.20056 14.1993C2.20056 14.5733 2.50374 14.8765 2.87772 14.8765H14.9585C15.3325 14.8765 15.6357 14.5733 15.6357 14.1993C15.6357 13.8253 15.3325 13.5221 14.9585 13.5221H2.87772Z" fill="black"/>
</g>
</svg>
