<svg width="16" height="16" viewBox="0 0 16 16" fill="none" xmlns="http://www.w3.org/2000/svg">
<mask id="mask0_102_830" style="mask-type:alpha" maskUnits="userSpaceOnUse" x="0" y="0" width="16" height="16">
<rect width="15.9998" height="15.9998" fill="#DCDCDC"/>
</mask>
<g mask="url(#mask0_102_830)">
<path d="M1.30457 14.0064C1.30457 13.6398 1.60172 13.3426 1.96828 13.3426H14.0315C14.398 13.3426 14.6952 13.6398 14.6952 14.0064C14.6952 14.3729 14.398 14.6701 14.0315 14.6701H1.96828C1.60172 14.6701 1.30457 14.3729 1.30457 14.0064Z" fill="black"/>
<path d="M7.99992 10.3675C7.60968 10.3675 7.29333 10.0646 7.29333 9.69086V3.64013L6.5725 4.33045C6.29656 4.59471 5.84917 4.59471 5.57323 4.33045C5.2973 4.06619 5.2973 3.63775 5.57323 3.37349L7.4997 1.52859L7.50492 1.52363C7.6324 1.40376 7.80714 1.32983 7.99992 1.32983C8.09649 1.32983 8.18853 1.34839 8.27237 1.38197C8.35307 1.41422 8.42879 1.46144 8.49491 1.52363L8.5001 1.52856L10.4266 3.37349C10.7025 3.63775 10.7025 4.0662 10.4266 4.33045C10.1507 4.59471 9.70328 4.59471 9.42734 4.33045L8.7065 3.64013V9.69086C8.7065 10.0646 8.39015 10.3675 7.99992 10.3675Z" fill="black"/>
</g>
</svg>
