<svg width="16" height="16" viewBox="0 0 16 16" fill="none" xmlns="http://www.w3.org/2000/svg">
<mask id="mask0_102_771" style="mask-type:alpha" maskUnits="userSpaceOnUse" x="0" y="0" width="16" height="16">
<rect width="16" height="16" fill="#D9D9D9"/>
</mask>
<g mask="url(#mask0_102_771)">
<path fill-rule="evenodd" clip-rule="evenodd" d="M1.39575 13.3122C1.39575 14.0255 1.97405 14.6038 2.68742 14.6038H13.3124C14.0258 14.6038 14.6041 14.0255 14.6041 13.3122V2.68717C14.6041 1.97381 14.0258 1.39551 13.3124 1.39551H2.68742C1.97405 1.39551 1.39575 1.97381 1.39575 2.68717V13.3122ZM2.72909 8.66634V13.2705H7.33325V8.66634H2.72909ZM2.72909 7.33301H7.33325V2.72884H2.72909V7.33301ZM8.66659 8.66634V13.2705H13.2708V8.66634H8.66659ZM13.2708 7.33301H8.66659V2.72884H13.2708V7.33301Z" fill="black"/>
</g>
</svg>
