<svg width="25" height="25" viewBox="0 0 25 25" fill="none" xmlns="http://www.w3.org/2000/svg">
<mask id="mask0_17_676" style="mask-type:alpha" maskUnits="userSpaceOnUse" x="0" y="0" width="25" height="25">
<rect x="0.526855" y="0.537476" width="24" height="24" fill="#D9D9D9"/>
</mask>
<g mask="url(#mask0_17_676)">
<path fill-rule="evenodd" clip-rule="evenodd" d="M2.62061 20.5062C2.62061 21.5763 3.48805 22.4437 4.55811 22.4437H20.4956C21.5657 22.4437 22.4331 21.5763 22.4331 20.5062V4.56873C22.4331 3.49867 21.5657 2.63123 20.4956 2.63123H4.55811C3.48805 2.63123 2.62061 3.49867 2.62061 4.56873V20.5062ZM4.62061 13.5375V20.4437H11.5269V13.5375H4.62061ZM4.62061 11.5375H11.5269V4.63123H4.62061V11.5375ZM13.5269 13.5375V20.4437H20.4331V13.5375H13.5269ZM20.4331 11.5375H13.5269V4.63123H20.4331V11.5375Z" fill="black"/>
</g>
</svg>
