<svg width="17" height="17" viewBox="0 0 17 17" fill="none" xmlns="http://www.w3.org/2000/svg">
<mask id="mask0_102_771" style="mask-type:alpha" maskUnits="userSpaceOnUse" x="0" y="0" width="17" height="17">
<rect x="0.882446" y="0.236328" width="16" height="16" fill="#D9D9D9"/>
</mask>
<g mask="url(#mask0_102_771)">
<path fill-rule="evenodd" clip-rule="evenodd" d="M2.2782 13.5485C2.2782 14.2619 2.8565 14.8402 3.56986 14.8402H14.1949C14.9082 14.8402 15.4865 14.2619 15.4865 13.5485V2.9235C15.4865 2.21013 14.9082 1.63184 14.1949 1.63184H3.56986C2.8565 1.63184 2.2782 2.21013 2.2782 2.9235V13.5485ZM3.61153 8.90267V13.5068H8.2157V8.90267H3.61153ZM3.61153 7.56934H8.2157V2.96517H3.61153V7.56934ZM9.54903 8.90267V13.5068H14.1532V8.90267H9.54903ZM14.1532 7.56934H9.54903V2.96517H14.1532V7.56934Z" fill="black"/>
</g>
</svg>
