<svg width="16" height="16" viewBox="0 0 16 16" fill="none" xmlns="http://www.w3.org/2000/svg">
<path fill-rule="evenodd" clip-rule="evenodd" d="M8.74469 10.5333C8.74472 9.53923 9.55065 8.73336 10.5448 8.7334L12.8113 8.7335C13.8054 8.73354 14.6113 9.53942 14.6113 10.5335V12.7999C14.6113 13.794 13.8054 14.5999 12.8113 14.5999H10.5446C9.5505 14.5999 8.7446 13.794 8.74463 12.7999L8.74469 10.5333ZM10.5447 9.9334C10.2133 9.93338 9.9447 10.202 9.94469 10.5334L9.94463 12.7999C9.94462 13.1313 10.2133 13.3999 10.5446 13.3999H12.8113C13.1426 13.3999 13.4113 13.1313 13.4113 12.7999V10.5335C13.4113 10.2021 13.1426 9.93351 12.8113 9.9335L10.5447 9.9334Z" fill="black"/>
<path fill-rule="evenodd" clip-rule="evenodd" d="M8.74469 3.19985C8.74472 2.20573 9.55065 1.39986 10.5448 1.3999L12.8113 1.4C13.8054 1.40004 14.6113 2.20592 14.6113 3.2V5.46642C14.6113 6.46054 13.8054 7.26642 12.8113 7.26642H10.5446C9.5505 7.26642 8.7446 6.46051 8.74463 5.46638L8.74469 3.19985ZM10.5447 2.5999C10.2133 2.59989 9.9447 2.86851 9.94469 3.19989L9.94463 5.46641C9.94462 5.79779 10.2133 6.06642 10.5446 6.06642H12.8113C13.1426 6.06642 13.4113 5.7978 13.4113 5.46642V3.2C13.4113 2.86864 13.1426 2.60001 12.8113 2.6L10.5447 2.5999Z" fill="black"/>
<path fill-rule="evenodd" clip-rule="evenodd" d="M1.39996 3.19985C1.39999 2.20573 2.20592 1.39986 3.20004 1.3999L5.46661 1.4C6.4607 1.40004 7.26654 2.20592 7.26654 3.2V5.46642C7.26654 6.46054 6.46065 7.26642 5.46654 7.26642H3.1999C2.20577 7.26642 1.39988 6.46051 1.3999 5.46638L1.39996 3.19985ZM3.19999 2.5999C2.86862 2.59989 2.59997 2.86851 2.59996 3.19989L2.5999 5.46641C2.59989 5.79779 2.86852 6.06642 3.1999 6.06642H5.46654C5.79791 6.06642 6.06654 5.7978 6.06654 5.46642V3.2C6.06654 2.86864 5.79792 2.60001 5.46656 2.6L3.19999 2.5999Z" fill="black"/>
<path fill-rule="evenodd" clip-rule="evenodd" d="M1.39996 10.5333C1.39999 9.53923 2.20592 8.73336 3.20004 8.7334L5.46661 8.7335C6.4607 8.73354 7.26654 9.53942 7.26654 10.5335V12.7999C7.26654 13.794 6.46065 14.5999 5.46654 14.5999H3.1999C2.20577 14.5999 1.39988 13.794 1.3999 12.7999L1.39996 10.5333ZM3.19999 9.9334C2.86862 9.93338 2.59997 10.202 2.59996 10.5334L2.5999 12.7999C2.59989 13.1313 2.86852 13.3999 3.1999 13.3999H5.46654C5.79791 13.3999 6.06654 13.1313 6.06654 12.7999V10.5335C6.06654 10.2021 5.79792 9.93351 5.46656 9.9335L3.19999 9.9334Z" fill="black"/>
</svg>
