<svg width="16" height="16" viewBox="0 0 16 16" fill="none" xmlns="http://www.w3.org/2000/svg">
<path fill-rule="evenodd" clip-rule="evenodd" d="M1.39459 3.19985C1.39462 2.20573 2.20055 1.39986 3.19467 1.3999L5.46124 1.4C6.45533 1.40004 7.26117 2.20592 7.26117 3.2V5.46642C7.26117 6.46054 6.45528 7.26642 5.46117 7.26642H3.19453C2.2004 7.26642 1.3945 6.46051 1.39453 5.46638L1.39459 3.19985ZM3.19462 2.5999C2.86324 2.59989 2.5946 2.86851 2.59459 3.19989L2.59453 5.46641C2.59452 5.79779 2.86315 6.06642 3.19453 6.06642H5.46117C5.79254 6.06642 6.06117 5.7978 6.06117 5.46642V3.2C6.06117 2.86864 5.79255 2.60001 5.46119 2.6L3.19462 2.5999Z" fill="black"/>
<path fill-rule="evenodd" clip-rule="evenodd" d="M10.5394 1.3999C9.54527 1.39986 8.73935 2.20573 8.73932 3.19985L8.73926 5.46638C8.73923 6.46051 9.54513 7.26642 10.5393 7.26642H12.8059C13.8 7.26642 14.6059 6.46054 14.6059 5.46642V3.2C14.6059 2.20592 13.8001 1.40004 12.806 1.4L10.5394 1.3999ZM9.93932 3.19989C9.93933 2.86851 10.208 2.59989 10.5393 2.5999L12.8059 2.6C13.1373 2.60001 13.4059 2.86864 13.4059 3.2V5.46642C13.4059 5.7978 13.1373 6.06642 12.8059 6.06642H10.5393C10.2079 6.06642 9.93925 5.79779 9.93926 5.46641L9.93932 3.19989Z" fill="black"/>
<path fill-rule="evenodd" clip-rule="evenodd" d="M10.5394 8.7334C9.54527 8.73336 8.73935 9.53922 8.73932 10.5333L8.73926 12.7999C8.73923 13.794 9.54513 14.5999 10.5393 14.5999H12.8059C13.8 14.5999 14.6059 13.794 14.6059 12.7999V10.5335C14.6059 9.53942 13.8001 8.73354 12.806 8.7335L10.5394 8.7334ZM9.93932 10.5334C9.93933 10.202 10.208 9.93338 10.5393 9.9334L12.8059 9.9335C13.1373 9.93351 13.4059 10.2021 13.4059 10.5335V12.7999C13.4059 13.1313 13.1373 13.3999 12.8059 13.3999H10.5393C10.2079 13.3999 9.93925 13.1313 9.93926 12.7999L9.93932 10.5334Z" fill="black"/>
<path fill-rule="evenodd" clip-rule="evenodd" d="M3.19467 8.7334C2.20055 8.73336 1.39462 9.53922 1.39459 10.5333L1.39453 12.7999C1.3945 13.794 2.2004 14.5999 3.19453 14.5999H5.46117C6.45528 14.5999 7.26117 13.794 7.26117 12.7999V10.5335C7.26117 9.53942 6.45533 8.73354 5.46124 8.7335L3.19467 8.7334ZM2.59459 10.5334C2.5946 10.202 2.86324 9.93338 3.19462 9.9334L5.46119 9.9335C5.79255 9.93351 6.06117 10.2021 6.06117 10.5335V12.7999C6.06117 13.1313 5.79254 13.3999 5.46117 13.3999H3.19453C2.86315 13.3999 2.59452 13.1313 2.59453 12.7999L2.59459 10.5334Z" fill="black"/>
</svg>
