<svg width="20" height="21" viewBox="0 0 20 21" fill="none" xmlns="http://www.w3.org/2000/svg">
<path fill-rule="evenodd" clip-rule="evenodd" d="M4.5062 6.72126C4.56476 6.86262 4.69148 6.98934 4.94492 7.24278L11.3404 13.6382L7.20313 13.6382C6.84471 13.6382 6.66551 13.6382 6.52414 13.6968C6.33566 13.7749 6.18591 13.9246 6.10784 14.1131C6.04928 14.2545 6.04928 14.4337 6.04928 14.7921C6.04928 15.1505 6.04928 15.3297 6.10784 15.4711C6.18591 15.6596 6.33566 15.8093 6.52414 15.8874C6.66551 15.9459 6.84471 15.9459 7.20313 15.9459L13.9194 15.9459C13.9805 15.9465 14.0484 15.9465 14.1243 15.9465H14.1243C14.4353 15.9465 14.6114 15.9465 14.7449 15.9082C14.7659 15.9023 14.7859 15.8954 14.8052 15.8874C14.9937 15.8093 15.1434 15.6596 15.2215 15.4711C15.2801 15.3297 15.2801 15.1505 15.2801 14.7921C15.2801 14.6767 15.2801 14.5799 15.2781 14.497L15.2781 7.86957C15.2781 7.51115 15.2781 7.33194 15.2195 7.19058C15.1415 7.0021 14.9917 6.85235 14.8032 6.77428C14.6619 6.71572 14.4827 6.71572 14.1243 6.71572C13.7658 6.71572 13.5866 6.71572 13.4453 6.77428C13.2568 6.85235 13.107 7.0021 13.029 7.19058C12.9704 7.33194 12.9704 7.51115 12.9704 7.86957L12.9704 12.0047L6.5767 5.61099C6.32326 5.35755 6.19654 5.23083 6.05518 5.17228C5.8667 5.09421 5.65492 5.09421 5.46644 5.17228C5.32508 5.23083 5.19836 5.35755 4.94492 5.61099C4.69148 5.86443 4.56476 5.99115 4.5062 6.13251C4.42813 6.32099 4.42813 6.53277 4.5062 6.72126Z" fill="black"/>
</svg>
