<svg width="17" height="17" viewBox="0 0 17 17" fill="none" xmlns="http://www.w3.org/2000/svg">
<mask id="mask0_102_790" style="mask-type:alpha" maskUnits="userSpaceOnUse" x="0" y="0" width="17" height="17">
<rect x="0.635193" y="0.209961" width="16" height="16" fill="#DCDCDC"/>
</mask>
<g mask="url(#mask0_102_790)">
<path d="M5.24472 5.52752C5.24472 5.16351 5.53981 4.86842 5.90382 4.86842L9.07414 4.86842C10.7238 4.86842 12.0611 6.20575 12.0611 7.85544C12.0611 9.50512 10.7238 10.8425 9.07414 10.8425H7.90755L8.90245 11.8374C9.15984 12.0948 9.15984 12.5121 8.90245 12.7695C8.64505 13.0269 8.22774 13.0269 7.97034 12.7695L5.79891 10.598C5.54152 10.3406 5.54152 9.92331 5.79891 9.66591L7.97034 7.49445C8.22774 7.23705 8.64505 7.23705 8.90244 7.49445C9.15984 7.75185 9.15984 8.16917 8.90244 8.42656L7.80477 9.52425H9.07414C9.99579 9.52425 10.7429 8.7771 10.7429 7.85544C10.7429 6.93378 9.99579 6.18662 9.07414 6.18662H5.90382C5.53981 6.18662 5.24472 5.89153 5.24472 5.52752Z" fill="black"/>
<path d="M2.62138 1.55151C2.98538 1.55151 3.28047 1.8466 3.28047 2.21061L3.28047 14.2092C3.28047 14.5732 2.98538 14.8683 2.62138 14.8683C2.25737 14.8683 1.96228 14.5732 1.96228 14.2092L1.96228 2.21061C1.96228 1.8466 2.25737 1.55151 2.62138 1.55151Z" fill="black"/>
<path d="M14.649 1.55151C15.013 1.55151 15.3081 1.8466 15.3081 2.21061L15.3081 14.2092C15.3081 14.5732 15.013 14.8683 14.649 14.8683C14.285 14.8683 13.9899 14.5732 13.9899 14.2092L13.9899 2.21061C13.9899 1.8466 14.285 1.55151 14.649 1.55151Z" fill="black"/>
</g>
</svg>
