<svg width="16" height="16" viewBox="0 0 16 16" fill="none" xmlns="http://www.w3.org/2000/svg">
<path d="M2.3665 2.66738C2.3665 2.33601 2.09787 2.06738 1.7665 2.06738C1.43513 2.06738 1.1665 2.33601 1.1665 2.66738V13.3341C1.1665 13.6654 1.43513 13.9341 1.7665 13.9341C2.09787 13.9341 2.3665 13.6654 2.3665 13.3341V2.66738Z" fill="black"/>
<path d="M14.8333 2.66738C14.8333 2.33601 14.5647 2.06738 14.2333 2.06738C13.9019 2.06738 13.6333 2.33601 13.6333 2.66738V13.3341C13.6333 13.6654 13.9019 13.9341 14.2333 13.9341C14.5647 13.9341 14.8333 13.6654 14.8333 13.3341V2.66738Z" fill="black"/>
<path fill-rule="evenodd" clip-rule="evenodd" d="M7.06133 4.79896C7.38184 3.92444 8.61869 3.92444 8.93919 4.79896L11.3636 11.4142C11.4776 11.7253 11.3179 12.07 11.0067 12.184C10.6956 12.298 10.3509 12.1383 10.2369 11.8271L9.50488 9.82974H6.58158C6.55313 9.82974 6.52516 9.82776 6.49777 9.82393L5.76362 11.8271C5.64959 12.1383 5.30493 12.298 4.99379 12.184C4.68266 12.07 4.52288 11.7253 4.6369 11.4142L7.06133 4.79896ZM6.93543 8.62974H9.06509L8.00026 5.72428L6.93543 8.62974Z" fill="black"/>
</svg>
