<svg width="16" height="16" viewBox="0 0 16 16" fill="none" xmlns="http://www.w3.org/2000/svg">
<mask id="mask0_102_790" style="mask-type:alpha" maskUnits="userSpaceOnUse" x="0" y="0" width="16" height="16">
<rect width="16" height="16" fill="#DCDCDC"/>
</mask>
<g mask="url(#mask0_102_790)">
<path d="M4.60953 5.31756C4.60953 4.95355 4.90462 4.65846 5.26863 4.65846L8.43895 4.65846C10.0886 4.65846 11.4259 5.99579 11.4259 7.64547C11.4259 9.29516 10.0886 10.6325 8.43895 10.6325H7.27235L8.26725 11.6274C8.52465 11.8848 8.52465 12.3021 8.26725 12.5595C8.00986 12.8169 7.59254 12.8169 7.33515 12.5595L5.16372 10.3881C4.90633 10.1307 4.90633 9.71334 5.16372 9.45595L7.33515 7.28449C7.59254 7.02709 8.00986 7.02709 8.26725 7.28449C8.52464 7.54188 8.52464 7.95921 8.26725 8.2166L7.16958 9.31429H8.43895C9.3606 9.31429 10.1077 8.56714 10.1077 7.64547C10.1077 6.72381 9.3606 5.97666 8.43895 5.97666H5.26863C4.90462 5.97666 4.60953 5.68157 4.60953 5.31756Z" fill="black"/>
<path d="M1.98618 1.34155C2.35019 1.34155 2.64528 1.63664 2.64528 2.00065L2.64528 13.9992C2.64528 14.3632 2.35019 14.6583 1.98618 14.6583C1.62217 14.6583 1.32709 14.3632 1.32709 13.9992L1.32709 2.00065C1.32709 1.63664 1.62217 1.34155 1.98618 1.34155Z" fill="black"/>
<path d="M14.0138 1.34155C14.3778 1.34155 14.6729 1.63664 14.6729 2.00065L14.6729 13.9992C14.6729 14.3632 14.3778 14.6583 14.0138 14.6583C13.6498 14.6583 13.3547 14.3632 13.3547 13.9992L13.3547 2.00065C13.3547 1.63664 13.6498 1.34155 14.0138 1.34155Z" fill="black"/>
</g>
</svg>
