<svg width="16" height="16" viewBox="0 0 16 16" fill="none" xmlns="http://www.w3.org/2000/svg">
<path fill-rule="evenodd" clip-rule="evenodd" d="M3.04922 1.47803C2.16556 1.47803 1.44922 2.19437 1.44922 3.07803V5.67803C1.44922 6.56168 2.16556 7.27803 3.04922 7.27803H5.64922C6.53287 7.27803 7.24922 6.56168 7.24922 5.67803V3.07803C7.24922 2.19437 6.53288 1.47803 5.64922 1.47803H3.04922ZM2.64922 3.07803C2.64922 2.85711 2.8283 2.67803 3.04922 2.67803H5.64922C5.87013 2.67803 6.04922 2.85711 6.04922 3.07803V5.67803C6.04922 5.89894 5.87013 6.07803 5.64922 6.07803H3.04922C2.8283 6.07803 2.64922 5.89894 2.64922 5.67803V3.07803Z" fill="black"/>
<path d="M11.6505 8.7211C11.9818 8.7211 12.2505 8.98973 12.2505 9.3211V11.0216H13.951C14.2823 11.0216 14.551 11.2902 14.551 11.6216C14.551 11.953 14.2823 12.2216 13.951 12.2216H12.2505V13.9221C12.2505 14.2534 11.9818 14.5221 11.6505 14.5221C11.3191 14.5221 11.0505 14.2534 11.0505 13.9221V12.2216H9.34999C9.01862 12.2216 8.74999 11.953 8.74999 11.6216C8.74999 11.2902 9.01862 11.0216 9.34999 11.0216H11.0505V9.3211C11.0505 8.98973 11.3191 8.7211 11.6505 8.7211Z" fill="black"/>
<path fill-rule="evenodd" clip-rule="evenodd" d="M8.75049 3.07803C8.75049 2.19437 9.46683 1.47803 10.3505 1.47803H12.9505C13.8341 1.47803 14.5505 2.19437 14.5505 3.07803V5.67803C14.5505 6.56168 13.8341 7.27803 12.9505 7.27803H10.3505C9.46683 7.27803 8.75049 6.56168 8.75049 5.67803V3.07803ZM10.3505 2.67803C10.1296 2.67803 9.95049 2.85711 9.95049 3.07803V5.67803C9.95049 5.89894 10.1296 6.07803 10.3505 6.07803H12.9505C13.1714 6.07803 13.3505 5.89894 13.3505 5.67803V3.07803C13.3505 2.85711 13.1714 2.67803 12.9505 2.67803H10.3505Z" fill="black"/>
<path fill-rule="evenodd" clip-rule="evenodd" d="M3.04922 8.72168C2.16556 8.72168 1.44922 9.43802 1.44922 10.3217V12.9217C1.44922 13.8053 2.16556 14.5217 3.04922 14.5217H5.64922C6.53287 14.5217 7.24922 13.8053 7.24922 12.9217V10.3217C7.24922 9.43802 6.53288 8.72168 5.64922 8.72168H3.04922ZM2.64922 10.3217C2.64922 10.1008 2.8283 9.92168 3.04922 9.92168H5.64922C5.87013 9.92168 6.04922 10.1008 6.04922 10.3217V12.9217C6.04922 13.1426 5.87013 13.3217 5.64922 13.3217H3.04922C2.8283 13.3217 2.64922 13.1426 2.64922 12.9217V10.3217Z" fill="black"/>
</svg>
