<svg width="25" height="25" viewBox="0 0 25 25" fill="none" xmlns="http://www.w3.org/2000/svg">
<mask id="mask0_17_571" style="mask-type:alpha" maskUnits="userSpaceOnUse" x="0" y="0" width="25" height="25">
<rect x="0.756958" y="0.136261" width="24" height="24" fill="#DCDCDC"/>
</mask>
<g mask="url(#mask0_17_571)">
<path d="M4.09366 2.13626C4.7073 2.13626 5.20477 2.63372 5.20477 3.24737V21.0251C5.20477 21.6388 4.7073 22.1363 4.09366 22.1363C3.48001 22.1363 2.98254 21.6388 2.98254 21.0251V3.24737C2.98254 2.63372 3.48001 2.13626 4.09366 2.13626Z" fill="black"/>
<path d="M21.4202 2.13626C22.0339 2.13626 22.5314 2.63372 22.5314 3.24737V21.0251C22.5314 21.6388 22.0339 22.1363 21.4202 22.1363C20.8066 22.1363 20.3091 21.6388 20.3091 21.0251V3.24737C20.3091 2.63372 20.8066 2.13626 21.4202 2.13626Z" fill="black"/>
<path d="M7.01111 7.14524C7.01111 6.53159 7.50857 6.03413 8.12222 6.03413H13.4668C16.2478 6.03413 18.5023 8.2886 18.5023 11.0696C18.5023 13.8506 16.2478 16.1051 13.4668 16.1051H11.5001L13.1773 17.7823C13.6113 18.2163 13.6113 18.9198 13.1773 19.3537C12.7434 19.7876 12.0399 19.7876 11.606 19.3537L7.94537 15.6931C7.51145 15.2591 7.51145 14.5556 7.94537 14.1217L11.606 10.4611C12.0399 10.0272 12.7434 10.0272 13.1773 10.4611C13.6113 10.895 13.6113 11.5985 13.1773 12.0324L11.3269 13.8829H13.4668C15.0205 13.8829 16.2801 12.6234 16.2801 11.0696C16.2801 9.51589 15.0205 8.25635 13.4668 8.25635H8.12222C7.50857 8.25635 7.01111 7.75889 7.01111 7.14524Z" fill="black"/>
</g>
</svg>
