<svg width="17" height="16" viewBox="0 0 17 16" fill="none" xmlns="http://www.w3.org/2000/svg">
<path d="M13.0521 13.1932C12.0629 13.1932 11.2473 12.7599 11.2473 11.682C11.2473 11.195 11.4506 10.7995 11.8358 10.5153C11.8502 10.5046 11.859 10.4877 11.859 10.4698C11.859 10.4543 11.8526 10.4397 11.8415 10.4289C11.624 10.2177 11.4663 9.90405 11.4663 9.40996C11.4663 8.99482 11.6557 8.57968 11.9272 8.30468C11.9366 8.29507 11.9421 8.28219 11.9421 8.26869C11.9421 8.25515 11.9367 8.2423 11.9272 8.23268C11.6309 7.93313 11.3606 7.38005 11.3606 6.69409C11.3606 5.22519 12.229 4.50659 13.1578 4.50659C13.2983 4.50659 13.434 4.52338 13.5608 4.55506C13.7488 4.60205 13.9382 4.65454 14.132 4.65454H14.7341C15.1105 4.65454 15.4157 4.95971 15.4157 5.33615V5.74978C15.4157 5.89778 15.2957 6.01776 15.1477 6.01776C14.9579 6.01776 14.8199 6.21378 14.847 6.4016C14.8627 6.51023 14.872 6.62766 14.872 6.74692C14.872 8.15242 14.1093 8.76534 13.1578 8.76534C13.1368 8.76534 13.1151 8.76465 13.0927 8.76325C12.8238 8.74638 12.516 8.81287 12.516 9.08236C12.516 9.35712 12.6897 9.48393 13.1503 9.48393H13.8299C14.8871 9.48393 15.4836 9.93834 15.4836 11.0268C15.4836 12.2949 14.5473 13.1932 13.0521 13.1932ZM13.1578 7.6346C13.475 7.6346 13.7015 7.31757 13.7015 6.69409C13.7015 6.08116 13.475 5.76414 13.1578 5.76414C12.8482 5.76414 12.6141 6.08116 12.6141 6.69409C12.6141 7.31757 12.8482 7.6346 13.1578 7.6346ZM13.2636 12.0202C13.8148 12.0202 14.1999 11.7348 14.1999 11.3544C14.1999 10.9951 13.9734 10.9211 13.5732 10.9211H13.1654C13.1548 10.9211 13.1444 10.9211 13.1342 10.9211C12.7839 10.9194 12.3498 11.0358 12.3498 11.3861C12.3498 11.8088 12.7123 12.0202 13.2636 12.0202Z" fill="black"/>
<path d="M8.69019 10.6675C8.23567 10.6675 7.84068 10.3553 7.73571 9.91306L6.67506 5.4444C6.57938 5.0413 6.88509 4.65454 7.29939 4.65454C7.61143 4.65454 7.87824 4.87902 7.93161 5.18647L8.3199 7.42325L8.56358 8.92546C8.57389 8.98905 8.62881 9.03578 8.69323 9.03578C8.75671 9.03578 8.81111 8.99037 8.82246 8.92791L9.09586 7.42325L9.48127 5.16567C9.53167 4.87044 9.78755 4.65454 10.0871 4.65454C10.4823 4.65454 10.7748 5.02232 10.6858 5.40745L9.64601 9.90737C9.54318 10.3523 9.14689 10.6675 8.69019 10.6675Z" fill="black"/>
<path d="M3.48634 7.06119C3.46154 7.24144 3.6016 7.40208 3.78354 7.40208H4.24009C4.42308 7.40208 4.56345 7.23966 4.53692 7.0586L4.4897 6.73632L4.16506 4.66175C4.15497 4.59728 4.09943 4.54976 4.03418 4.54976C3.97004 4.54976 3.91511 4.59571 3.90378 4.65884L3.53104 6.73632L3.48634 7.06119ZM5.73882 10.6675C5.40883 10.6675 5.12622 10.4311 5.06786 10.1063L4.92516 9.31218C4.87818 9.0507 4.65065 8.86041 4.38499 8.86041H3.64169C3.37603 8.86041 3.1485 9.0507 3.10152 9.31218L2.9556 10.1242C2.8991 10.4387 2.62551 10.6675 2.30605 10.6675C1.88395 10.6675 1.57035 10.2767 1.66177 9.86458L3.05299 3.59399C3.15524 3.13313 3.56393 2.80518 4.03599 2.80518C4.50806 2.80518 4.91675 3.13313 5.019 3.59399L6.40434 9.83812C6.49878 10.2638 6.17484 10.6675 5.73882 10.6675Z" fill="black"/>
</svg>
