<svg width="16" height="16" viewBox="0 0 16 16" fill="none" xmlns="http://www.w3.org/2000/svg">
<path d="M12.5685 13.1941C11.5793 13.1941 10.7637 12.7609 10.7637 11.683C10.7637 11.196 10.967 10.8005 11.3521 10.5163C11.3666 10.5056 11.3754 10.4887 11.3754 10.4707C11.3754 10.4553 11.3689 10.4406 11.3579 10.4299C11.1403 10.2186 10.9827 9.90502 10.9827 9.41094C10.9827 8.9958 11.1721 8.58065 11.4435 8.30566C11.453 8.29605 11.4585 8.28317 11.4585 8.26966C11.4585 8.25613 11.4531 8.24328 11.4435 8.23366C11.1473 7.93411 10.877 7.38103 10.877 6.69506C10.877 5.22616 11.7454 4.50757 12.6742 4.50757C12.8147 4.50757 12.9503 4.52436 13.0772 4.55604C13.2652 4.60302 13.4545 4.65551 13.6484 4.65551H14.2505C14.6269 4.65551 14.9321 4.96068 14.9321 5.33713V5.75075C14.9321 5.89876 14.8121 6.01874 14.6641 6.01874C14.4743 6.01874 14.3363 6.21476 14.3634 6.40258C14.3791 6.51121 14.3884 6.62863 14.3884 6.7479C14.3884 8.15339 13.6257 8.76631 12.6742 8.76631C12.6532 8.76631 12.6314 8.76563 12.6091 8.76423C12.3402 8.74736 12.0324 8.81385 12.0324 9.08334C12.0324 9.3581 12.206 9.48491 12.6667 9.48491H13.3463C14.4035 9.48491 15 9.93932 15 11.0278C15 12.2959 14.0637 13.1941 12.5685 13.1941ZM12.6742 7.63558C12.9914 7.63558 13.2179 7.31855 13.2179 6.69506C13.2179 6.08214 12.9914 5.76511 12.6742 5.76511C12.3646 5.76511 12.1305 6.08214 12.1305 6.69506C12.1305 7.31855 12.3646 7.63558 12.6742 7.63558ZM12.7799 12.0211C13.3312 12.0211 13.7163 11.7358 13.7163 11.3554C13.7163 10.9961 13.4898 10.9221 13.0895 10.9221H12.6818C12.6712 10.9221 12.6608 10.9221 12.6506 10.922C12.3003 10.9203 11.8662 11.0368 11.8662 11.3871C11.8662 11.8098 12.2287 12.0211 12.7799 12.0211Z" fill="black"/>
<path d="M8.20658 10.6685C7.75206 10.6685 7.35706 10.3563 7.2521 9.91403L6.19144 5.44538C6.09577 5.04228 6.40148 4.65552 6.81578 4.65552C7.12782 4.65552 7.39463 4.88 7.448 5.18744L7.83629 7.42423L8.07997 8.92644C8.09028 8.99003 8.14519 9.03675 8.20962 9.03675C8.2731 9.03675 8.32749 8.99135 8.33884 8.92889L8.61225 7.42423L8.99765 5.16665C9.04805 4.87142 9.30394 4.65552 9.60344 4.65552C9.99872 4.65552 10.2912 5.0233 10.2022 5.40843L9.16239 9.90835C9.05957 10.3533 8.66328 10.6685 8.20658 10.6685Z" fill="black"/>
<path d="M3.0027 7.06217C2.9779 7.24241 3.11796 7.40306 3.2999 7.40306H3.75645C3.93944 7.40306 4.0798 7.24064 4.05328 7.05957L4.00606 6.7373L3.68142 4.66273C3.67133 4.59826 3.61579 4.55074 3.55053 4.55074C3.48639 4.55074 3.43147 4.59668 3.42014 4.65982L3.0474 6.7373L3.0027 7.06217ZM5.25518 10.6684C4.92519 10.6684 4.64258 10.4321 4.58422 10.1073L4.44152 9.31315C4.39454 9.05167 4.16701 8.86139 3.90134 8.86139H3.15805C2.89238 8.86139 2.66486 9.05167 2.61787 9.31315L2.47196 10.1252C2.41546 10.4396 2.14187 10.6684 1.82241 10.6684C1.4003 10.6684 1.0867 10.2776 1.17813 9.86556L2.56935 3.59496C2.6716 3.13411 3.08029 2.80615 3.55235 2.80615C4.02442 2.80615 4.43311 3.13411 4.53535 3.59496L5.9207 9.83909C6.01514 10.2648 5.6912 10.6684 5.25518 10.6684Z" fill="black"/>
</svg>
