<svg width="16" height="16" viewBox="0 0 16 16" fill="none" xmlns="http://www.w3.org/2000/svg">
<path fill-rule="evenodd" clip-rule="evenodd" d="M2.33874 9.71431C2.34798 9.71452 2.35724 9.71463 2.36653 9.71463L11.4614 9.71463C12.2346 9.71463 12.8614 9.08783 12.8614 8.31463L12.8614 7.68516C12.8614 6.91196 12.2347 6.28516 11.4615 6.28516L2.36653 6.28516C2.35724 6.28516 2.34798 6.28526 2.33874 6.28547L2.33874 5.51607C2.34797 5.51628 2.35722 5.51639 2.3665 5.51639L13.5531 5.51639C14.3263 5.51639 14.9531 4.88959 14.9531 4.11639L14.9531 3.48691C14.9531 2.71372 14.3263 2.08691 13.5531 2.08691L2.3665 2.08691C2.35722 2.08691 2.34797 2.08702 2.33875 2.08723L2.33875 1.3334C2.33875 1.00203 2.07012 0.733398 1.73874 0.733398C1.40737 0.733398 1.13875 1.00203 1.13875 1.3334L1.13874 14.6667C1.13874 14.9981 1.40737 15.2667 1.73874 15.2667C2.07012 15.2667 2.33874 14.9981 2.33874 14.6667L2.33874 13.9126C2.34547 13.9127 2.3522 13.9128 2.35895 13.9128C2.36146 13.9129 2.36398 13.9129 2.3665 13.9129L8.55312 13.9129C9.32632 13.9129 9.95312 13.2861 9.95312 12.5129L9.95312 11.8834C9.95312 11.1102 9.32633 10.4834 8.55312 10.4834L2.3665 10.4834C2.35722 10.4834 2.34797 10.4835 2.33874 10.4837L2.33874 9.71431ZM11.6614 7.68516C11.6614 7.5747 11.5719 7.48516 11.4614 7.48516L2.36653 7.48516L2.36653 8.51463L11.4614 8.51463C11.5719 8.51463 11.6614 8.42508 11.6614 8.31463L11.6614 7.68516ZM13.7531 3.48691C13.7531 3.37646 13.6636 3.28691 13.5531 3.28691L2.3665 3.28691L2.3665 4.31639L13.5531 4.31639C13.6636 4.31639 13.7531 4.22684 13.7531 4.11639L13.7531 3.48691ZM8.55312 11.6834C8.66358 11.6834 8.75312 11.7729 8.75312 11.8834L8.75312 12.5129C8.75312 12.6233 8.66358 12.7129 8.55312 12.7129L2.3665 12.7129L2.3665 11.6834L8.55312 11.6834Z" fill="black"/>
</svg>
