<svg width="16" height="16" viewBox="0 0 16 16" fill="none" xmlns="http://www.w3.org/2000/svg">
<path d="M12.8236 5.54909C13.0147 5.27837 12.9502 4.90399 12.6795 4.7129C12.4087 4.5218 12.0344 4.58635 11.8433 4.85707L7.84327 10.5237C7.65217 10.7945 7.71672 11.1688 7.98744 11.3599C8.25816 11.551 8.63253 11.4865 8.82363 11.2158L12.8236 5.54909Z" fill="black"/>
<path d="M3.66543 4.93896C3.9968 4.93896 4.26543 5.20759 4.26543 5.53896V6.8723C4.26543 7.20367 3.9968 7.4723 3.66543 7.4723C3.33406 7.4723 3.06543 7.20367 3.06543 6.8723V5.53896C3.06543 5.20759 3.33406 4.93896 3.66543 4.93896Z" fill="black"/>
<path d="M4.26543 8.80459C4.26543 8.47322 3.9968 8.20459 3.66543 8.20459C3.33406 8.20459 3.06543 8.47322 3.06543 8.80459C3.06543 9.13596 3.33406 9.40459 3.66543 9.40459C3.9968 9.40459 4.26543 9.13596 4.26543 8.80459Z" fill="black"/>
<path d="M3.66543 10.2046C3.9968 10.2046 4.26543 10.4732 4.26543 10.8046C4.26543 11.136 3.9968 11.4046 3.66543 11.4046C3.33406 11.4046 3.06543 11.136 3.06543 10.8046C3.06543 10.4732 3.33406 10.2046 3.66543 10.2046Z" fill="black"/>
<path fill-rule="evenodd" clip-rule="evenodd" d="M12.6653 1.76318C14.1014 1.76291 15.2658 2.92705 15.2658 4.36318V11.6379C15.2658 13.0738 14.1017 14.2379 12.6658 14.2379L3.3334 14.237C1.89746 14.237 0.733398 13.0729 0.733398 11.637V4.36319C0.733398 2.92712 1.89766 1.763 3.33373 1.76318H12.6653ZM12.6655 2.96318C13.4388 2.96304 14.0658 3.58988 14.0658 4.36318V11.6379C14.0658 12.4111 13.439 13.0379 12.6658 13.0379H6.60007V2.96432L12.6655 2.96318ZM1.9334 4.36319C1.9334 3.58992 2.56031 2.96309 3.33358 2.96318L5.40007 2.96344V13.037H3.3334C2.5602 13.037 1.9334 12.4102 1.9334 11.637V4.36319Z" fill="black"/>
</svg>
