<svg width="16" height="16" viewBox="0 0 16 16" fill="none" xmlns="http://www.w3.org/2000/svg">
<path fill-rule="evenodd" clip-rule="evenodd" d="M3.78796 2.10786C3.78796 1.66603 4.14614 1.30786 4.58796 1.30786H7.71771C9.60018 1.30786 11.1262 2.8339 11.1262 4.71637C11.1262 5.7364 10.6782 6.65178 9.96812 7.27643C11.2927 7.88759 12.212 9.22743 12.212 10.782C12.212 12.9131 10.4844 14.6406 8.35338 14.6406H4.58796C4.14614 14.6406 3.78796 14.2825 3.78796 13.8406V2.10786ZM4.98796 2.50786H7.71771C8.93744 2.50786 9.92622 3.49664 9.92622 4.71637C9.92622 5.90824 8.98209 6.87959 7.80091 6.92334H4.98796V2.50786ZM4.98796 8.12488V13.4406H8.35338C9.82171 13.4406 11.012 12.2503 11.012 10.782C11.012 9.31365 9.82171 8.12334 8.35338 8.12334H7.82111C7.78677 8.12436 7.7523 8.12488 7.71771 8.12488H4.98796Z" fill="black"/>
</svg>
