<svg width="17" height="17" viewBox="0 0 17 17" fill="none" xmlns="http://www.w3.org/2000/svg">
<path fill-rule="evenodd" clip-rule="evenodd" d="M3.85742 3.04829C3.85742 2.60646 4.21559 2.24829 4.65742 2.24829H7.78717C9.66964 2.24829 11.1957 3.77433 11.1957 5.6568C11.1957 6.67683 10.7476 7.59221 10.0376 8.21686C11.3622 8.82802 12.2815 10.1679 12.2815 11.7224C12.2815 13.8535 10.5539 15.5811 8.42284 15.5811H4.65742C4.21559 15.5811 3.85742 15.2229 3.85742 14.7811V3.04829ZM5.05742 3.44829H7.78717C9.0069 3.44829 9.99568 4.43707 9.99568 5.6568C9.99568 6.84867 9.05155 7.82002 7.87037 7.86377H5.05742V3.44829ZM5.05742 9.06531V14.3811H8.42284C9.89116 14.3811 11.0815 13.1907 11.0815 11.7224C11.0815 10.2541 9.89116 9.06377 8.42284 9.06377H7.89057C7.85623 9.06479 7.82176 9.06531 7.78717 9.06531H5.05742Z" fill="black"/>
</svg>
