<svg width="25" height="25" viewBox="0 0 25 25" fill="none" xmlns="http://www.w3.org/2000/svg">
<mask id="mask0_17_618" style="mask-type:alpha" maskUnits="userSpaceOnUse" x="0" y="0" width="25" height="25">
<rect x="0.081543" y="0.537476" width="24" height="24" fill="#DCDCDC"/>
</mask>
<g mask="url(#mask0_17_618)">
<rect x="2.61615" y="18.9116" width="18.9307" height="4.18661" rx="2.09331" fill="#409F11"/>
<path fill-rule="evenodd" clip-rule="evenodd" d="M11.7007 3.7836C11.0953 3.01413 10.3703 2.46038 9.65777 2.18121C8.88401 1.87799 7.80854 1.8155 7.13176 2.68106C6.52868 3.45247 6.57729 4.59105 6.94642 5.79324C7.11317 6.33646 7.38375 6.87111 7.76889 7.38656C7.78648 7.41008 7.80495 7.4325 7.82422 7.45384C7.83833 7.46941 7.85289 7.48439 7.86778 7.49875C7.88794 7.51821 7.90888 7.53657 7.9305 7.55385L5.34066 10.1436C4.98239 10.5019 4.98239 11.0828 5.34066 11.4411L10.9374 17.0378C11.2958 17.3961 11.8767 17.3961 12.2349 17.0378L19.3304 9.94232C19.6886 9.58406 19.6886 9.00315 19.3304 8.64489L13.7336 3.04812C13.3754 2.68985 12.7945 2.68985 12.4362 3.04812L11.7007 3.7836ZM11.2735 7.29688C11.2898 7.40092 11.3035 7.50709 11.3143 7.61533C11.3645 8.11953 11.814 8.48751 12.3182 8.43722C12.8224 8.38697 13.1904 7.93748 13.1401 7.43329C13.0678 6.70925 12.8948 6.03721 12.6494 5.42985L13.085 4.99433L17.3842 9.2936L15.9969 10.6809H7.39842L11.1931 6.8862C11.2243 7.01922 11.2513 7.15613 11.2735 7.29688ZM10.3903 5.09406C9.94268 4.46743 9.41497 4.05681 8.98827 3.88961C8.78456 3.80978 8.65397 3.80472 8.59562 3.81233C8.5898 3.81311 8.58499 3.81395 8.58095 3.81477L8.5739 3.81642C8.54355 3.86662 8.38497 4.22698 8.70045 5.25466C8.79968 5.57784 8.96498 5.91634 9.22066 6.26372L10.3903 5.09406Z" fill="#35322B"/>
<path d="M18.3708 17.8567C19.0492 17.8567 19.599 17.3068 19.599 16.6286C19.599 16.2086 19.1282 15.4296 18.7695 14.8973C18.5759 14.6099 18.1657 14.6099 17.9722 14.8973C17.6135 15.4296 17.1427 16.2086 17.1427 16.6286C17.1427 17.3068 17.6926 17.8567 18.3708 17.8567Z" fill="#35322B"/>
</g>
</svg>
