<svg width="16" height="16" viewBox="0 0 16 16" fill="none" xmlns="http://www.w3.org/2000/svg">
<mask id="mask0_102_653" style="mask-type:alpha" maskUnits="userSpaceOnUse" x="0" y="0" width="16" height="16">
<rect width="16" height="16" fill="#DCDCDC"/>
</mask>
<g mask="url(#mask0_102_653)">
<path fill-rule="evenodd" clip-rule="evenodd" d="M2.87956 9.13668C2.44169 8.79817 2.16158 8.27966 2.16158 7.69845C2.16158 6.67855 3.03873 5.85175 4.1027 5.85175C5.18295 5.85175 6.07351 5.01232 6.07353 3.97682L6.07354 3.17992C6.07355 2.16003 6.93607 1.33325 8.00003 1.33325C9.064 1.33325 9.92651 2.16005 9.92651 3.17995V3.97681C9.92651 5.01231 10.8171 5.85175 11.8973 5.85175C12.9613 5.85175 13.8384 6.67855 13.8384 7.69845C13.8384 8.27966 13.5583 8.79817 13.1205 9.13668L14.5873 13.8447C14.715 14.2545 14.3948 14.6666 13.9485 14.6666H2.0515C1.60527 14.6666 1.28502 14.2545 1.41271 13.8447L2.87956 9.13668ZM8.59318 3.17995V3.97681C8.59318 5.73073 10.0938 7.12986 11.8973 7.12986C12.2381 7.12986 12.5051 7.39696 12.5051 7.69845C12.5051 8.00337 12.2547 8.25223 11.9403 8.2664H4.05975C3.74531 8.25223 3.49491 8.00337 3.49491 7.69845C3.49491 7.39697 3.76196 7.12986 4.1027 7.12986C5.90617 7.12986 7.40684 5.73075 7.40686 3.97684L7.40687 3.17994C7.40687 2.86592 7.67244 2.61136 8.00003 2.61136C8.32762 2.61136 8.59318 2.86592 8.59318 3.17995ZM4.14383 9.54515L2.94637 13.3885H13.0536L11.8562 9.54515H4.14383Z" fill="black"/>
</g>
</svg>
