<svg width="17" height="17" viewBox="0 0 17 17" fill="none" xmlns="http://www.w3.org/2000/svg">
<mask id="mask0_102_653" style="mask-type:alpha" maskUnits="userSpaceOnUse" x="0" y="0" width="17" height="17">
<rect x="0.56189" y="0.0600586" width="16" height="16" fill="#DCDCDC"/>
</mask>
<g mask="url(#mask0_102_653)">
<path fill-rule="evenodd" clip-rule="evenodd" d="M3.44145 9.19698C3.00358 8.85847 2.72347 8.33997 2.72347 7.75875C2.72347 6.73885 3.60062 5.91205 4.66459 5.91205C5.74483 5.91205 6.6354 5.07262 6.63542 4.03712L6.63543 3.24022C6.63544 2.22033 7.49795 1.39355 8.56192 1.39355C9.62589 1.39355 10.4884 2.22035 10.4884 3.24025V4.03711C10.4884 5.07262 11.379 5.91205 12.4592 5.91205C13.5232 5.91205 14.4003 6.73885 14.4003 7.75875C14.4003 8.33997 14.1202 8.85847 13.6823 9.19698L15.1492 13.905C15.2769 14.3148 14.9566 14.7269 14.5104 14.7269H2.61339C2.16716 14.7269 1.84691 14.3148 1.9746 13.905L3.44145 9.19698ZM9.15507 3.24025V4.03711C9.15507 5.79103 10.6557 7.19016 12.4592 7.19016C12.8 7.19016 13.067 7.45727 13.067 7.75875C13.067 8.06367 12.8166 8.31253 12.5022 8.3267H4.62164C4.3072 8.31253 4.0568 8.06367 4.0568 7.75875C4.0568 7.45727 4.32385 7.19016 4.66459 7.19016C6.46806 7.19016 7.96873 5.79105 7.96875 4.03714L7.96876 3.24024C7.96876 2.92622 8.23433 2.67166 8.56192 2.67166C8.88951 2.67166 9.15507 2.92623 9.15507 3.24025ZM4.70572 9.60545L3.50826 13.4488H13.6155L12.4181 9.60545H4.70572Z" fill="black"/>
</g>
</svg>
