<svg width="16" height="17" viewBox="0 0 16 17" fill="none" xmlns="http://www.w3.org/2000/svg">
<path fill-rule="evenodd" clip-rule="evenodd" d="M5.46845 1.90894C5.82744 1.90894 6.11845 2.19995 6.11845 2.55894V2.85828H9.88162V2.55894C9.88162 2.19995 10.1726 1.90894 10.5316 1.90894C10.8906 1.90894 11.1816 2.19995 11.1816 2.55894V2.85828H13.3797C14.0882 2.85828 14.6625 3.43265 14.6625 4.14117V13.9512C14.6625 14.6597 14.0882 15.2341 13.3797 15.2341H2.62042C1.9119 15.2341 1.33752 14.6597 1.33752 13.9512V4.14117C1.33752 3.43265 1.9119 2.85828 2.62042 2.85828H4.81845V2.55894C4.81845 2.19995 5.10947 1.90894 5.46845 1.90894ZM9.88162 4.15828V5.09052C9.88162 5.4495 10.1726 5.74052 10.5316 5.74052C10.8906 5.74052 11.1816 5.4495 11.1816 5.09052V4.15828H13.3625V6.65565H2.63752V4.15828H4.81845V5.09052C4.81845 5.4495 5.10947 5.74052 5.46845 5.74052C5.82744 5.74052 6.11845 5.4495 6.11845 5.09052V4.15828H9.88162ZM2.63752 13.9341V7.95576H13.3625V13.9341H2.63752Z" fill="black"/>
</svg>
