<svg width="17" height="16" viewBox="0 0 17 16" fill="none" xmlns="http://www.w3.org/2000/svg">
<path d="M8.87598 11.8327C8.87598 11.5013 9.14461 11.2327 9.47598 11.2327H11.476C11.8073 11.2327 12.076 11.5013 12.076 11.8327C12.076 12.164 11.8073 12.4327 11.476 12.4327H9.47598C9.14461 12.4327 8.87598 12.164 8.87598 11.8327Z" fill="black"/>
<path d="M4.80898 11.2327C4.47761 11.2327 4.20898 11.5013 4.20898 11.8327C4.20898 12.164 4.47761 12.4327 4.80898 12.4327H6.80898C7.14036 12.4327 7.40898 12.164 7.40898 11.8327C7.40898 11.5013 7.14036 11.2327 6.80898 11.2327H4.80898Z" fill="black"/>
<path d="M8.87598 9.16592C8.87598 8.83455 9.14461 8.56592 9.47598 8.56592H11.476C11.8073 8.56592 12.076 8.83455 12.076 9.16592C12.076 9.49729 11.8073 9.76592 11.476 9.76592H9.47598C9.14461 9.76592 8.87598 9.49729 8.87598 9.16592Z" fill="black"/>
<path d="M4.80898 8.56592C4.47761 8.56592 4.20898 8.83455 4.20898 9.16592C4.20898 9.49729 4.47761 9.76592 4.80898 9.76592H6.80898C7.14036 9.76592 7.40898 9.49729 7.40898 9.16592C7.40898 8.83455 7.14036 8.56592 6.80898 8.56592H4.80898Z" fill="black"/>
<path fill-rule="evenodd" clip-rule="evenodd" d="M6.00615 1.69985C6.00615 1.36848 5.73752 1.09985 5.40615 1.09985C5.07478 1.09985 4.80615 1.36848 4.80615 1.69985V2.34009H3.64248C2.20654 2.34009 1.04248 3.50415 1.04248 4.94009V12.3C1.04248 13.7359 2.20654 14.9 3.64248 14.9H12.6425C14.0784 14.9 15.2425 13.7359 15.2425 12.3V4.94009C15.2425 3.50415 14.0784 2.34009 12.6425 2.34009H11.4798V1.69985C11.4798 1.36848 11.2112 1.09985 10.8798 1.09985C10.5484 1.09985 10.2798 1.36848 10.2798 1.69985V2.34009H6.00615V1.69985ZM14.0425 5.97021V4.94009C14.0425 4.16689 13.4157 3.54009 12.6425 3.54009H11.4798V4.09985C11.4798 4.43122 11.2112 4.69985 10.8798 4.69985C10.5484 4.69985 10.2798 4.43122 10.2798 4.09985V3.54009H6.00615V4.09985C6.00615 4.43122 5.73752 4.69985 5.40615 4.69985C5.07478 4.69985 4.80615 4.43122 4.80615 4.09985V3.54009H3.64248C2.86928 3.54009 2.24248 4.16689 2.24248 4.94009V5.97021H14.0425ZM2.24248 7.17021H14.0425V12.3C14.0425 13.0731 13.4157 13.7 12.6425 13.7H3.64248C2.86928 13.7 2.24248 13.0732 2.24248 12.3V7.17021Z" fill="black"/>
</svg>
