<svg width="16" height="16" viewBox="0 0 16 16" fill="none" xmlns="http://www.w3.org/2000/svg">
<path fill-rule="evenodd" clip-rule="evenodd" d="M1.14014 3.73989C1.14014 2.30396 2.3042 1.13989 3.74014 1.13989H12.2601C13.6961 1.13989 14.8601 2.30395 14.8601 3.73989V4.86989C14.8601 5.20126 14.5915 5.46989 14.2601 5.46989C13.9288 5.46989 13.6601 5.20126 13.6601 4.86989V3.73989C13.6601 2.96669 13.0333 2.33989 12.2601 2.33989H8.34014V3.20284C8.34014 3.20446 8.34014 3.20608 8.34014 3.2077V6.73989C8.34014 7.62355 7.62379 8.33989 6.74014 8.33989H2.70277C2.70112 8.3399 2.69947 8.3399 2.69781 8.33989H2.34014V12.2599C2.34014 13.0331 2.96694 13.6599 3.74014 13.6599H12.2601C13.0333 13.6599 13.6601 13.0331 13.6601 12.2599V11.7299C13.6601 11.3985 13.9288 11.1299 14.2601 11.1299C14.5915 11.1299 14.8601 11.3985 14.8601 11.7299V12.2599C14.8601 13.6958 13.6961 14.8599 12.2601 14.8599H3.74014C2.3042 14.8599 1.14014 13.6958 1.14014 12.2599V3.73989ZM4.26409 7.13989H6.74014C6.96105 7.13989 7.14014 6.96081 7.14014 6.73989V4.55237L4.26409 7.13989ZM7.14014 2.93819V2.33989H6.28159L2.34044 5.614L2.34056 7.13989H2.46992L7.14014 2.93819ZM2.34032 4.05403L4.40368 2.33989H3.74029C2.96705 2.33989 2.34023 2.96676 2.34029 3.74L2.34032 4.05403Z" fill="black"/>
<path d="M8.73877 9.00298C8.73877 9.55526 9.18649 10.003 9.73877 10.003H11.7792C12.1106 10.003 12.3792 9.73435 12.3792 9.40298C12.3792 9.07161 12.1106 8.80298 11.7792 8.80298H10.7874L12.2304 7.36157C12.7051 6.88734 13.4743 6.88754 13.9488 7.36202C14.4234 7.83667 14.4234 8.60624 13.9488 9.0809L13.2095 9.82016C12.9752 10.0545 12.9752 10.4344 13.2095 10.6687C13.4439 10.903 13.8238 10.903 14.0581 10.6687L14.7973 9.92943C15.7406 8.98614 15.7406 7.45678 14.7973 6.51349C13.8544 5.57056 12.3257 5.57015 11.3823 6.51259L9.93877 7.95459V6.96255C9.93877 6.63118 9.67014 6.36255 9.33877 6.36255C9.0074 6.36255 8.73877 6.63118 8.73877 6.96255V9.00298Z" fill="black"/>
</svg>
