<svg width="17" height="17" viewBox="0 0 17 17" fill="none" xmlns="http://www.w3.org/2000/svg">
<mask id="mask0_102_718" style="mask-type:alpha" maskUnits="userSpaceOnUse" x="0" y="0" width="17" height="17">
<rect x="0.882446" y="0.236328" width="15.9998" height="15.9998" fill="#DCDCDC"/>
</mask>
<g mask="url(#mask0_102_718)">
<path d="M3.54901 2.90265H6.21565V4.23597H7.54896V2.90265C7.54896 2.16628 6.95202 1.56934 6.21565 1.56934H3.54901C2.81264 1.56934 2.2157 2.16628 2.2157 2.90265V13.5692C2.2157 14.3056 2.81264 14.9025 3.54901 14.9025H6.21565C6.95202 14.9025 7.54896 14.3056 7.54896 13.5692V12.2359H6.21565V13.5692H3.54901V2.90265Z" fill="black"/>
<path d="M11.5489 2.90265H14.2155V13.5692H11.5489V12.2359H10.2156V13.5692C10.2156 14.3056 10.8125 14.9025 11.5489 14.9025H14.2155C14.9519 14.9025 15.5489 14.3056 15.5489 13.5692V2.90265C15.5489 2.16628 14.9519 1.56934 14.2155 1.56934H11.5489C10.8125 1.56934 10.2156 2.16628 10.2156 2.90265V4.23597H11.5489V2.90265Z" fill="black"/>
<path d="M7.60297 10.6137C7.34262 10.874 6.92052 10.874 6.66017 10.6137L4.7538 8.70732C4.49346 8.44697 4.49346 8.02487 4.7538 7.76452L6.66017 5.85815C6.92052 5.59781 7.34262 5.59781 7.60297 5.85815C7.86331 6.1185 7.86331 6.5406 7.60297 6.80095L6.168 8.23592L7.60297 9.67089C7.86331 9.93123 7.86331 10.3533 7.60297 10.6137Z" fill="black"/>
<path d="M11.1044 10.6137C10.844 10.874 10.4219 10.874 10.1616 10.6137C9.90124 10.3533 9.90124 9.93123 10.1616 9.67089L11.5966 8.23592L10.1616 6.80095C9.90124 6.5406 9.90124 6.1185 10.1616 5.85815C10.4219 5.59781 10.844 5.59781 11.1044 5.85815L13.0108 7.76452C13.2711 8.02487 13.2711 8.44697 13.0108 8.70732L11.1044 10.6137Z" fill="black"/>
</g>
</svg>
