<svg width="25" height="25" viewBox="0 0 25 25" fill="none" xmlns="http://www.w3.org/2000/svg">
<mask id="mask0_17_658" style="mask-type:alpha" maskUnits="userSpaceOnUse" x="0" y="0" width="25" height="25">
<rect x="0.472656" y="0.522949" width="24" height="24" fill="#D9D9D9"/>
</mask>
<g mask="url(#mask0_17_658)">
<path fill-rule="evenodd" clip-rule="evenodd" d="M0.489624 4.52295C0.489624 3.41838 1.38505 2.52295 2.48962 2.52295H18.4896C19.5942 2.52295 20.4896 3.41839 20.4896 4.52295V8.52295C20.4896 9.07523 20.0419 9.52295 19.4896 9.52295C18.9373 9.52295 18.4896 9.07523 18.4896 8.52295V4.52295H11.4897V12.5229C11.4897 13.0752 11.0419 13.5229 10.4897 13.5229H2.48962V20.5229H18.4896V18.5229C18.4896 17.9707 18.9373 17.5229 19.4896 17.5229C20.0419 17.5229 20.4896 17.9707 20.4896 18.5229V20.5229C20.4896 21.6275 19.5942 22.5229 18.4896 22.5229H2.48962C1.38506 22.5229 0.489624 21.6275 0.489624 20.5229V4.52295ZM6.71939 4.52295H8.62196L2.48962 9.97993V8.09222L6.71939 4.52295ZM3.6182 4.52295L2.48962 5.47529V4.52295H3.6182ZM3.76419 11.5229H5.69973L9.48966 8.04593V6.42802L3.76419 11.5229ZM8.65816 11.5229H9.48966V10.7601L8.65816 11.5229Z" fill="black"/>
<path d="M13.1486 16.9212C12.938 16.7105 12.8409 16.4293 12.8575 16.1536L13.0337 12.4542C13.0599 11.9026 13.5284 11.4767 14.0801 11.5029C14.6317 11.5292 15.0577 11.9977 15.0314 12.5494L14.9777 13.6779L17.2134 11.4422C18.8099 9.84566 21.4488 9.79391 23.1067 11.3274C24.8596 12.9487 24.9099 15.7665 23.2238 17.4526L22.6241 18.0523C22.2336 18.4428 21.6004 18.4428 21.2099 18.0523C20.8194 17.6617 20.8194 17.0286 21.2099 16.6381L21.8096 16.0384C22.695 15.153 22.6662 13.6443 21.7487 12.7956C20.8794 11.9917 19.4646 12.0194 18.6276 12.8564L16.2699 15.2141L17.7448 15.2141C18.2971 15.2141 18.7448 15.6618 18.7448 16.2141C18.7448 16.7664 18.2971 17.2141 17.7448 17.2141L13.8558 17.2141C13.8384 17.2141 13.821 17.2136 13.8038 17.2127C13.5654 17.2004 13.3307 17.1032 13.1486 16.9212Z" fill="black"/>
</g>
</svg>
