<svg width="16" height="16" viewBox="0 0 16 16" fill="none" xmlns="http://www.w3.org/2000/svg">
<path d="M12.5939 1.13916L10.6607 1.1392C9.55628 1.13922 8.66093 2.03448 8.66077 3.13893L8.66063 4.19191C8.66059 4.52328 8.92918 4.79194 9.26055 4.79199C9.59192 4.79204 9.86059 4.52344 9.86063 4.19207L9.86077 3.13909C9.86084 2.69731 10.219 2.33921 10.6608 2.3392L12.594 2.33916C13.0358 2.33915 13.394 2.69732 13.394 3.13916L13.394 12.8612C13.394 13.303 13.0358 13.6612 12.594 13.6612H10.6606C10.2188 13.6612 9.86063 13.303 9.86063 12.8612V11.8084C9.86063 11.4771 9.592 11.2084 9.26063 11.2084C8.92926 11.2084 8.66063 11.4771 8.66063 11.8084V12.8612C8.66063 13.9658 9.55606 14.8612 10.6606 14.8612H12.594C13.6986 14.8612 14.594 13.9658 14.594 12.8612L14.594 3.13915C14.594 2.03457 13.6985 1.13914 12.5939 1.13916Z" fill="black"/>
<path d="M5.33888 1.13919L3.40568 1.13926C2.30114 1.13931 1.40575 2.03474 1.40576 3.13928L1.40586 12.8612C1.40587 13.9658 2.3013 14.8612 3.40586 14.8612H5.33896C6.44353 14.8612 7.33896 13.9658 7.33896 12.8612V11.8084C7.33896 11.4771 7.07033 11.2084 6.73896 11.2084C6.40759 11.2084 6.13896 11.4771 6.13896 11.8084V12.8612C6.13896 13.303 5.78079 13.6612 5.33896 13.6612H3.40586C2.96403 13.6612 2.60586 13.303 2.60586 12.8612L2.60576 3.13927C2.60576 2.69745 2.96391 2.33928 3.40573 2.33926L5.33893 2.33919C5.78077 2.33917 6.13896 2.69735 6.13896 3.13919V4.192C6.13896 4.52337 6.40759 4.792 6.73896 4.792C7.07033 4.792 7.33896 4.52337 7.33896 4.192V3.13919C7.33896 2.03459 6.44348 1.13914 5.33888 1.13919Z" fill="black"/>
<path d="M9.20731 5.99993C8.973 6.23424 8.973 6.61414 9.20731 6.84845L10.0912 7.73235C10.2474 7.88856 10.2474 8.14182 10.0912 8.29803L9.20731 9.18192C8.973 9.41624 8.973 9.79614 9.20731 10.0305C9.44163 10.2648 9.82153 10.2648 10.0558 10.0305L10.9397 9.14654C11.5646 8.52171 11.5646 7.50867 10.9397 6.88384L10.0558 5.99993C9.82153 5.76561 9.44163 5.76561 9.20731 5.99993Z" fill="black"/>
<path d="M5.94379 5.99993C6.1781 5.76561 6.558 5.76561 6.79232 5.99993C7.02663 6.23424 7.02663 6.61414 6.79232 6.84845L5.90842 7.73235C5.75221 7.88856 5.75221 8.14182 5.90842 8.29803L6.79232 9.18193C7.02663 9.41624 7.02663 9.79614 6.79232 10.0305C6.558 10.2648 6.1781 10.2648 5.94379 10.0305L5.0599 9.14656C4.43506 8.52172 4.43506 7.50866 5.0599 6.88382L5.94379 5.99993Z" fill="black"/>
</svg>
