<svg width="17" height="17" viewBox="0 0 17 17" fill="none" xmlns="http://www.w3.org/2000/svg">
<mask id="mask0_102_768" style="mask-type:alpha" maskUnits="userSpaceOnUse" x="0" y="0" width="17" height="17">
<rect x="0.24884" y="0.439453" width="16" height="16" fill="#D9D9D9"/>
</mask>
<g mask="url(#mask0_102_768)">
<path fill-rule="evenodd" clip-rule="evenodd" d="M0.260559 3.10579C0.260559 2.36941 0.857513 1.77246 1.59389 1.77246H12.2606C12.997 1.77246 13.5939 2.36942 13.5939 3.10579V5.77246C13.5939 6.14065 13.2954 6.43913 12.9272 6.43913C12.559 6.43913 12.2606 6.14065 12.2606 5.77246V3.10579H7.59391V8.43913C7.59391 8.80732 7.29544 9.10579 6.92725 9.10579H1.59389V13.7725H12.2606V12.4391C12.2606 12.0709 12.559 11.7725 12.9272 11.7725C13.2954 11.7725 13.5939 12.0709 13.5939 12.4391V13.7725C13.5939 14.5089 12.9969 15.1058 12.2606 15.1058H1.59389C0.857519 15.1058 0.260559 14.5089 0.260559 13.7725V3.10579ZM4.41373 3.10579H5.68212L1.59389 6.74378V5.48531L4.41373 3.10579ZM2.34627 3.10579L1.59389 3.74069V3.10579H2.34627ZM2.4436 7.77246H3.73396L6.26058 5.45444V4.37584L2.4436 7.77246ZM5.70625 7.77246H6.26058V7.2639L5.70625 7.77246Z" fill="black"/>
<path d="M8.69988 11.3713C8.55945 11.2308 8.49476 11.0433 8.50583 10.8595L8.62325 8.39332C8.64076 8.02555 8.95309 7.7416 9.32086 7.75911C9.68864 7.77662 9.97258 8.08896 9.95507 8.45673L9.91925 9.20909L11.4097 7.71862C12.4741 6.65427 14.2333 6.61977 15.3386 7.64208C16.5072 8.72296 16.5407 10.6015 15.4167 11.7256L15.0169 12.1253C14.7565 12.3857 14.3344 12.3857 14.0741 12.1253C13.8137 11.865 13.8137 11.4429 14.0741 11.1825L14.4739 10.7827C15.0641 10.1925 15.0449 9.18668 14.4333 8.62092C13.8538 8.08493 12.9105 8.10344 12.3525 8.66143L10.7807 10.2332L11.764 10.2332C12.1322 10.2332 12.4307 10.5317 12.4307 10.8999C12.4307 11.2681 12.1322 11.5666 11.764 11.5666L9.17133 11.5665C9.15973 11.5665 9.14817 11.5662 9.13665 11.5656C8.97776 11.5574 8.82124 11.4926 8.69988 11.3713Z" fill="black"/>
</g>
</svg>
