<svg width="16" height="17" viewBox="0 0 16 17" fill="none" xmlns="http://www.w3.org/2000/svg">
<mask id="mask0_102_768" style="mask-type:alpha" maskUnits="userSpaceOnUse" x="0" y="0" width="16" height="17">
<rect width="16" height="16.545" fill="#D9D9D9"/>
</mask>
<g mask="url(#mask0_102_768)">
<path fill-rule="evenodd" clip-rule="evenodd" d="M0.0117188 2.75741C0.0117188 1.99595 0.608672 1.37866 1.34505 1.37866H12.0117C12.7481 1.37866 13.3451 1.99595 13.3451 2.75741V5.5149C13.3451 5.89563 13.0466 6.20427 12.6784 6.20427C12.3102 6.20427 12.0117 5.89563 12.0117 5.5149V2.75741H7.34507V8.27239C7.34507 8.65312 7.0466 8.96177 6.67841 8.96177H1.34505V13.7874H12.0117V12.4086C12.0117 12.0279 12.3102 11.7193 12.6784 11.7193C13.0466 11.7193 13.3451 12.0279 13.3451 12.4086V13.7874C13.3451 14.5489 12.7481 15.1661 12.0117 15.1661H1.34505C0.608679 15.1661 0.0117188 14.5489 0.0117188 13.7874V2.75741ZM4.16489 2.75741H5.43328L1.34505 6.51931V5.21797L4.16489 2.75741ZM2.09743 2.75741L1.34505 3.41393V2.75741H2.09743ZM2.19476 7.58302H3.48512L6.01174 5.18605V4.07072L2.19476 7.58302ZM5.45741 7.58302H6.01174V7.05713L5.45741 7.58302Z" fill="black"/>
<path d="M8.45104 11.3044C8.31061 11.1592 8.24592 10.9653 8.25699 10.7752L8.37441 8.22503C8.39192 7.84473 8.70425 7.55111 9.07202 7.56922C9.4398 7.58732 9.72374 7.9103 9.70623 8.29059L9.67041 9.06858L11.1609 7.52734C12.2252 6.42675 13.9845 6.39107 15.0898 7.4482C16.2584 8.56589 16.2919 10.5084 15.1678 11.6708L14.768 12.0842C14.5077 12.3534 14.0856 12.3534 13.8252 12.0842C13.5649 11.8149 13.5649 11.3785 13.8252 11.1092L14.225 10.6958C14.8153 10.0855 14.7961 9.04541 14.1844 8.46037C13.6049 7.90613 12.6617 7.92527 12.1037 8.50227L10.5319 10.1276L11.5152 10.1276C11.8834 10.1276 12.1819 10.4363 12.1819 10.817C12.1819 11.1977 11.8834 11.5064 11.5152 11.5064L8.92249 11.5063C8.91089 11.5063 8.89933 11.506 8.88781 11.5054C8.72892 11.4969 8.5724 11.4299 8.45104 11.3044Z" fill="black"/>
</g>
</svg>
