<svg width="25" height="25" viewBox="0 0 25 25" fill="none" xmlns="http://www.w3.org/2000/svg">
<mask id="mask0_17_635" style="mask-type:alpha" maskUnits="userSpaceOnUse" x="0" y="0" width="25" height="25">
<rect x="0.756714" y="0.136139" width="24" height="24" fill="#DCDCDC"/>
</mask>
<g mask="url(#mask0_17_635)">
<path d="M4.75671 4.13614H8.75671V6.13614H10.7567V4.13614C10.7567 3.03157 9.86128 2.13614 8.75671 2.13614H4.75671C3.65214 2.13614 2.75671 3.03157 2.75671 4.13614V20.1361C2.75671 21.2407 3.65214 22.1361 4.75671 22.1361H8.75671C9.86128 22.1361 10.7567 21.2407 10.7567 20.1361V18.1361H8.75671V20.1361H4.75671V4.13614Z" fill="black"/>
<path d="M16.7567 4.13614H20.7567V20.1361H16.7567V18.1361H14.7567V20.1361C14.7567 21.2407 15.6521 22.1361 16.7567 22.1361H20.7567C21.8613 22.1361 22.7567 21.2407 22.7567 20.1361V4.13614C22.7567 3.03157 21.8613 2.13614 20.7567 2.13614H16.7567C15.6521 2.13614 14.7567 3.03157 14.7567 4.13614V6.13614H16.7567V4.13614Z" fill="black"/>
<path d="M10.8377 15.7028C10.4472 16.0934 9.81403 16.0934 9.42351 15.7028L6.56392 12.8432C6.1734 12.4527 6.1734 11.8196 6.56392 11.429L9.42351 8.56945C9.81403 8.17892 10.4472 8.17892 10.8377 8.56945C11.2282 8.95997 11.2282 9.59314 10.8377 9.98366L8.68524 12.1361L10.8377 14.2886C11.2282 14.6791 11.2282 15.3123 10.8377 15.7028Z" fill="black"/>
<path d="M16.0899 15.7028C15.6994 16.0934 15.0662 16.0934 14.6757 15.7028C14.2852 15.3123 14.2852 14.6791 14.6757 14.2886L16.8282 12.1361L14.6757 9.98366C14.2852 9.59314 14.2852 8.95997 14.6757 8.56945C15.0662 8.17892 15.6994 8.17892 16.0899 8.56945L18.9495 11.429C19.34 11.8196 19.34 12.4527 18.9495 12.8432L16.0899 15.7028Z" fill="black"/>
</g>
</svg>
