<svg width="16" height="16" viewBox="0 0 16 16" fill="none" xmlns="http://www.w3.org/2000/svg">
<mask id="mask0_102_718" style="mask-type:alpha" maskUnits="userSpaceOnUse" x="0" y="0" width="16" height="16">
<rect width="15.9998" height="15.9998" fill="#DCDCDC"/>
</mask>
<g mask="url(#mask0_102_718)">
<path d="M2.66657 2.66632H5.3332V3.99964H6.66652V2.66632C6.66652 1.92995 6.06957 1.33301 5.3332 1.33301H2.66657C1.9302 1.33301 1.33325 1.92995 1.33325 2.66632V13.3329C1.33325 14.0692 1.9302 14.6662 2.66657 14.6662H5.3332C6.06957 14.6662 6.66652 14.0692 6.66652 13.3329V11.9995H5.3332V13.3329H2.66657V2.66632Z" fill="black"/>
<path d="M10.6665 2.66632H13.3331V13.3329H10.6665V11.9995H9.33315V13.3329C9.33315 14.0692 9.9301 14.6662 10.6665 14.6662H13.3331C14.0695 14.6662 14.6664 14.0692 14.6664 13.3329V2.66632C14.6664 1.92995 14.0695 1.33301 13.3331 1.33301H10.6665C9.9301 1.33301 9.33315 1.92995 9.33315 2.66632V3.99964H10.6665V2.66632Z" fill="black"/>
<path d="M6.72052 10.3774C6.46018 10.6377 6.03807 10.6377 5.77773 10.3774L3.87136 8.47099C3.61101 8.21064 3.61101 7.78854 3.87136 7.52819L5.77773 5.62183C6.03807 5.36148 6.46018 5.36148 6.72052 5.62183C6.98087 5.88217 6.98087 6.30428 6.72052 6.56462L5.28555 7.99959L6.72052 9.43456C6.98087 9.69491 6.98087 10.117 6.72052 10.3774Z" fill="black"/>
<path d="M10.2219 10.3774C9.9616 10.6377 9.53949 10.6377 9.27915 10.3774C9.0188 10.117 9.0188 9.69491 9.27915 9.43456L10.7141 7.99959L9.27915 6.56462C9.0188 6.30428 9.0188 5.88217 9.27915 5.62183C9.53949 5.36148 9.9616 5.36148 10.2219 5.62183L12.1283 7.52819C12.3887 7.78854 12.3887 8.21064 12.1283 8.47099L10.2219 10.3774Z" fill="black"/>
</g>
</svg>
