<svg width="25" height="25" viewBox="0 0 25 25" fill="none" xmlns="http://www.w3.org/2000/svg">
<mask id="mask0_17_623" style="mask-type:alpha" maskUnits="userSpaceOnUse" x="0" y="0" width="25" height="25">
<rect x="0.756592" y="0.136139" width="24" height="24" fill="#DCDCDC"/>
</mask>
<g mask="url(#mask0_17_623)">
<path d="M7.75659 14.6486C7.20431 14.6486 6.75659 15.0963 6.75659 15.6486C6.75659 16.2009 7.20431 16.6486 7.75659 16.6486H17.7566C18.3089 16.6486 18.7566 16.2009 18.7566 15.6486C18.7566 15.0963 18.3089 14.6486 17.7566 14.6486H7.75659Z" fill="black"/>
<path fill-rule="evenodd" clip-rule="evenodd" d="M4.75659 2.13614C3.65202 2.13614 2.75659 3.03157 2.75659 4.13614V20.1361C2.75659 21.2407 3.65202 22.1361 4.75659 22.1361H20.7566C21.8612 22.1361 22.7566 21.2407 22.7566 20.1361V4.13614C22.7566 3.03157 21.8612 2.13614 20.7566 2.13614H4.75659ZM14.8403 4.13614H10.6729L10.6729 7.95737H14.8403V4.13614ZM16.8403 4.13614V7.95737H20.7566V4.13614H16.8403ZM4.75659 4.13614H8.67291L8.67291 7.95737H4.75659V4.13614ZM4.75659 20.1361V9.95737H20.7566V20.1361H4.75659Z" fill="black"/>
</g>
</svg>
