<svg width="16" height="16" viewBox="0 0 16 16" fill="none" xmlns="http://www.w3.org/2000/svg">
<path fill-rule="evenodd" clip-rule="evenodd" d="M7.3999 1.60195C7.3999 1.27058 7.66853 1.00195 7.9999 1.00195C11.8649 1.00195 14.9981 4.13517 14.9981 8.0002C14.9981 8.33157 14.7295 8.6002 14.3981 8.6002H7.9999C7.66853 8.6002 7.3999 8.33157 7.3999 8.0002V1.60195ZM8.5999 2.23262V7.4002H13.7675C13.4875 4.67707 11.323 2.51257 8.5999 2.23262Z" fill="black"/>
<path fill-rule="evenodd" clip-rule="evenodd" d="M6.09006 1.84293C6.2181 2.14856 6.07414 2.50013 5.7685 2.62817C3.67253 3.50623 2.20195 5.57658 2.20195 7.989C2.20195 11.1975 4.80293 13.7984 8.01141 13.7984C10.423 13.7984 12.4928 12.3288 13.3714 10.234C13.4995 9.92841 13.8511 9.78458 14.1567 9.91274C14.4623 10.0409 14.6061 10.3925 14.478 10.6981C13.419 13.2231 10.9232 14.9984 8.01141 14.9984C4.14019 14.9984 1.00195 11.8602 1.00195 7.989C1.00195 5.07619 2.77851 2.57972 5.30483 1.52137C5.61046 1.39333 5.96202 1.53729 6.09006 1.84293Z" fill="black"/>
</svg>
