<svg width="16" height="16" viewBox="0 0 16 16" fill="none" xmlns="http://www.w3.org/2000/svg">
<path fill-rule="evenodd" clip-rule="evenodd" d="M0.399902 14.4076C0.399902 14.0762 0.668532 13.8076 0.999902 13.8076H14.9999C15.3313 13.8076 15.5999 14.0762 15.5999 14.4076C15.5999 14.739 15.3313 15.0076 14.9999 15.0076H0.999902C0.668532 15.0076 0.399902 14.739 0.399902 14.4076Z" fill="black"/>
<rect x="1.93789" y="6.4667" width="2.6" height="5.72481" rx="1.3" stroke="black" stroke-width="1.2"/>
<path d="M9.29961 5.6002V10.892C9.29961 11.61 8.71758 12.192 7.99961 12.192C7.28164 12.192 6.69961 11.61 6.69961 10.892V5.6002C6.69961 4.88222 7.28164 4.3002 7.99961 4.3002C8.71758 4.3002 9.29961 4.88223 9.29961 5.6002Z" stroke="black" stroke-width="1.2"/>
<rect x="11.4618" y="1.59219" width="2.6" height="10.5998" rx="1.3" stroke="black" stroke-width="1.2"/>
</svg>
