<svg width="17" height="16" viewBox="0 0 17 16" fill="none" xmlns="http://www.w3.org/2000/svg">
<path d="M8.24483 4.80026C8.24487 4.46889 7.97627 4.20023 7.6449 4.2002C7.31353 4.20016 7.04487 4.46876 7.04483 4.80013L7.04443 8.40306C7.04442 8.56222 7.10763 8.71486 7.22017 8.82739L9.64664 11.2539C9.88095 11.4882 10.2608 11.4882 10.4952 11.2539C10.7295 11.0195 10.7295 10.6396 10.4952 10.4053L8.24446 8.15463L8.24483 4.80026Z" fill="black"/>
<path fill-rule="evenodd" clip-rule="evenodd" d="M8.14248 0.899902C4.22126 0.899902 1.04248 4.07868 1.04248 7.9999C1.04248 11.9211 4.22126 15.0999 8.14248 15.0999C12.0637 15.0999 15.2425 11.9211 15.2425 7.9999C15.2425 4.07868 12.0637 0.899902 8.14248 0.899902ZM2.24248 7.9999C2.24248 4.74142 4.884 2.0999 8.14248 2.0999C11.401 2.0999 14.0425 4.74142 14.0425 7.9999C14.0425 11.2584 11.401 13.8999 8.14248 13.8999C4.884 13.8999 2.24248 11.2584 2.24248 7.9999Z" fill="black"/>
</svg>
