<svg width="16" height="17" viewBox="0 0 16 17" fill="none" xmlns="http://www.w3.org/2000/svg">
<path d="M8.11677 5.4998C8.1168 5.14081 7.82582 4.84977 7.46683 4.84973C7.10785 4.8497 6.8168 5.14068 6.81677 5.49967L6.81641 9.10054C6.81639 9.27295 6.88487 9.43831 7.00679 9.56022L9.54936 12.1028C9.8032 12.3566 10.2148 12.3566 10.4686 12.1028C10.7224 11.849 10.7224 11.4374 10.4686 11.1836L8.11643 8.83139L8.11677 5.4998Z" fill="black"/>
<path fill-rule="evenodd" clip-rule="evenodd" d="M8.00008 1.92432C4.32901 1.92432 1.35303 4.9003 1.35303 8.57137C1.35303 12.2424 4.32901 15.2184 8.00008 15.2184C11.6711 15.2184 14.6471 12.2424 14.6471 8.57137C14.6471 4.9003 11.6711 1.92432 8.00008 1.92432ZM2.65303 8.57137C2.65303 5.61827 5.04698 3.22432 8.00008 3.22432C10.9532 3.22432 13.3471 5.61827 13.3471 8.57137C13.3471 11.5245 10.9532 13.9184 8.00008 13.9184C5.04698 13.9184 2.65303 11.5245 2.65303 8.57137Z" fill="black"/>
</svg>
