<svg width="17" height="16" viewBox="0 0 17 16" fill="none" xmlns="http://www.w3.org/2000/svg">
<path d="M14.2678 12.0781C13.089 12.0781 12.6108 11.127 12.6108 9.70038V7.70345C12.6108 7.52817 12.4687 7.38607 12.2935 7.38607C12.1182 7.38607 11.9761 7.24397 11.9761 7.06868V6.37055C11.9761 6.15499 12.1391 5.97434 12.3535 5.95222C12.5515 5.9318 12.708 5.77537 12.7286 5.5774L12.7983 4.90733C12.8323 4.5804 13.1079 4.33203 13.4366 4.33203C13.7909 4.33203 14.0782 4.61932 14.0782 4.97371V5.36484C14.0782 5.66988 14.3255 5.91717 14.6306 5.91717C14.9356 5.91717 15.1829 6.16446 15.1829 6.46951V6.83374C15.1829 7.13878 14.9356 7.38607 14.6306 7.38607C14.3255 7.38607 14.0782 7.63336 14.0782 7.9384V9.67924C14.0782 10.345 14.3255 10.6092 14.6718 10.6092C14.9027 10.6092 15.1363 10.7134 15.1751 10.941L15.2377 11.3076C15.2921 11.6266 15.1175 11.955 14.801 12.0225C14.6457 12.0556 14.4692 12.0781 14.2678 12.0781Z" fill="black"/>
<path d="M7.7239 11.9302C7.32096 11.9302 6.99432 11.6036 6.99432 11.2006V6.55414C6.99432 6.20238 7.27948 5.91723 7.63123 5.91723H7.81127C8.02781 5.91723 8.21083 6.0777 8.23913 6.29238L8.28581 6.64643C8.28741 6.65851 8.2977 6.66753 8.30988 6.66753C8.31727 6.66753 8.32425 6.66416 8.32887 6.6584C8.71503 6.17627 9.19115 5.76929 9.82194 5.76929C10.8442 5.76929 11.2811 6.7098 11.2811 8.2104V11.1965C11.2811 11.6017 10.9526 11.9302 10.5474 11.9302C10.1422 11.9302 9.81369 11.6017 9.81369 11.1965V8.44289C9.81369 7.61862 9.64057 7.37556 9.2696 7.37556C8.61309 7.37556 8.45347 8.27371 8.45347 8.93022V11.2006C8.45347 11.6036 8.12683 11.9302 7.7239 11.9302Z" fill="black"/>
<path d="M4.20837 12.0781C2.6503 12.0781 1.3313 10.7043 1.3313 8.04129C1.3313 5.42052 2.69976 3.91992 4.25784 3.91992C4.87237 3.91992 5.3944 4.20078 5.79398 4.58023C6.00735 4.78284 6.01483 5.10992 5.85565 5.35739C5.60206 5.75163 5.05199 5.73073 4.60584 5.58693C4.5049 5.55439 4.39774 5.53677 4.28257 5.53677C3.49117 5.53677 2.83991 6.44558 2.83991 7.97788C2.83991 9.54189 3.40049 10.4507 4.26608 10.4507C4.42357 10.4507 4.57155 10.4175 4.70946 10.3589C5.14044 10.1758 5.71259 10.1535 5.96908 10.5452C6.11605 10.7697 6.11944 11.0654 5.94146 11.2662C5.46346 11.8054 4.87616 12.0781 4.20837 12.0781Z" fill="black"/>
</svg>
