<svg width="16" height="16" viewBox="0 0 16 16" fill="none" xmlns="http://www.w3.org/2000/svg">
<path d="M13.9365 12.0791C12.7577 12.0791 12.2795 11.128 12.2795 9.70135V7.70443C12.2795 7.52914 12.1374 7.38705 11.9622 7.38705C11.7869 7.38705 11.6448 7.24495 11.6448 7.06966V6.37153C11.6448 6.15597 11.8078 5.97531 12.0222 5.9532C12.2202 5.93278 12.3767 5.77635 12.3973 5.57837L12.467 4.9083C12.501 4.58138 12.7766 4.33301 13.1053 4.33301C13.4596 4.33301 13.7469 4.6203 13.7469 4.97469V5.36582C13.7469 5.67086 13.9942 5.91815 14.2993 5.91815C14.6043 5.91815 14.8516 6.16544 14.8516 6.47048V6.83471C14.8516 7.13976 14.6043 7.38705 14.2993 7.38705C13.9942 7.38705 13.7469 7.63433 13.7469 7.93938V9.68022C13.7469 10.346 13.9943 10.6102 14.3405 10.6102C14.5714 10.6102 14.805 10.7144 14.8438 10.942L14.9064 11.3086C14.9608 11.6276 14.7862 11.9559 14.4697 12.0234C14.3144 12.0566 14.1379 12.0791 13.9365 12.0791Z" fill="black"/>
<path d="M7.3926 11.9312C6.98967 11.9312 6.66302 11.6045 6.66302 11.2016V6.55511C6.66302 6.20336 6.94818 5.91821 7.29993 5.91821H7.47998C7.69651 5.91821 7.87953 6.07868 7.90783 6.29336L7.95451 6.64741C7.95611 6.65948 7.9664 6.66851 7.97858 6.66851C7.98597 6.66851 7.99295 6.66514 7.99757 6.65937C8.38373 6.17725 8.85985 5.77026 9.49064 5.77026C10.5129 5.77026 10.9498 6.71078 10.9498 8.21138V11.1975C10.9498 11.6027 10.6213 11.9312 10.2161 11.9312C9.81088 11.9312 9.48239 11.6027 9.48239 11.1975V8.44387C9.48239 7.61959 9.30927 7.37654 8.93831 7.37654C8.28179 7.37654 8.12217 8.27469 8.12217 8.9312V11.2016C8.12217 11.6045 7.79553 11.9312 7.3926 11.9312Z" fill="black"/>
<path d="M3.87708 12.0791C2.319 12.0791 1 10.7053 1 8.04226C1 5.4215 2.36847 3.9209 3.92654 3.9209C4.54107 3.9209 5.0631 4.20176 5.46268 4.5812C5.67605 4.78382 5.68353 5.1109 5.52435 5.35836C5.27076 5.7526 4.7207 5.7317 4.27454 5.5879C4.1736 5.55537 4.06644 5.53774 3.95127 5.53774C3.15987 5.53774 2.50861 6.44656 2.50861 7.97886C2.50861 9.54286 3.06919 10.4517 3.93478 10.4517C4.09227 10.4517 4.24025 10.4184 4.37816 10.3599C4.80914 10.1768 5.38129 10.1545 5.63778 10.5462C5.78475 10.7707 5.78814 11.0664 5.61016 11.2672C5.13216 11.8064 4.54486 12.0791 3.87708 12.0791Z" fill="black"/>
</svg>
