<svg width="16" height="16" viewBox="0 0 16 16" fill="none" xmlns="http://www.w3.org/2000/svg">
<path d="M5.79641 3.52041C6.06132 3.77611 6.06879 4.19816 5.81308 4.46307L2.27638 8.12716L5.7961 11.5201C6.06118 11.7756 6.06892 12.1977 5.81338 12.4628C5.55785 12.7278 5.13581 12.7356 4.87073 12.48L0.870733 8.62411C0.743383 8.50135 0.670042 8.33301 0.666856 8.15615C0.66367 7.9793 0.730901 7.80842 0.853746 7.68115L4.85375 3.53709C5.10945 3.27217 5.53149 3.26471 5.79641 3.52041Z" fill="black"/>
<path d="M10.2037 3.52041C10.4686 3.26471 10.8906 3.27217 11.1463 3.53709L15.1463 7.68115C15.2692 7.80842 15.3364 7.9793 15.3332 8.15615C15.33 8.33301 15.2567 8.50135 15.1293 8.62411L11.1293 12.48C10.8643 12.7356 10.4422 12.7278 10.1867 12.4628C9.93117 12.1977 9.93891 11.7756 10.204 11.5201L13.7237 8.12716L10.187 4.46307C9.93129 4.19816 9.93876 3.77611 10.2037 3.52041Z" fill="black"/>
<path d="M9.40012 2.07252C9.43897 1.70638 9.17366 1.37808 8.80752 1.33923C8.44139 1.30038 8.11308 1.56569 8.07423 1.93183L6.59996 13.9276C6.56111 14.2937 6.82642 14.622 7.19256 14.6609C7.55869 14.6997 7.887 14.4344 7.92585 14.0683L9.40012 2.07252Z" fill="black"/>
</svg>
