<svg width="16" height="16" viewBox="0 0 16 16" fill="none" xmlns="http://www.w3.org/2000/svg">
<path fill-rule="evenodd" clip-rule="evenodd" d="M3.58017 1.50894C4.03296 1.16934 4.57009 1.07178 4.97068 1.07178C5.30481 1.07178 5.57568 1.34265 5.57568 1.67678C5.57568 2.01091 5.30481 2.28178 4.97068 2.28178C4.73895 2.28178 4.48569 2.34229 4.30617 2.47694C4.15596 2.58959 3.99489 2.798 3.99489 3.25757V6.10299C3.99489 6.51491 3.82252 6.85888 3.62243 7.119C3.44784 7.34596 3.23353 7.53426 3.03116 7.68378C3.23353 7.83329 3.44784 8.02158 3.62243 8.24855C3.82252 8.50867 3.99489 8.85264 3.99489 9.26456V12.7423C3.99489 13.2019 4.15596 13.4103 4.30617 13.5229C4.48569 13.6576 4.73895 13.7181 4.97068 13.7181C5.30481 13.7181 5.57568 13.989 5.57568 14.3231C5.57568 14.6572 5.30481 14.9281 4.97068 14.9281C4.57009 14.9281 4.03296 14.8305 3.58017 14.4909C3.09806 14.1293 2.78489 13.5474 2.78489 12.7423V9.26456C2.78489 9.20225 2.75966 9.1115 2.66335 8.9863C2.56616 8.85995 2.42186 8.73264 2.25255 8.61413C2.08635 8.49778 1.91625 8.40388 1.78554 8.33852C1.72095 8.30623 1.66783 8.28182 1.63205 8.26598C1.6142 8.25807 1.60079 8.25236 1.59258 8.24891L1.58441 8.2455M1.58441 8.2455C1.35493 8.15353 1.2041 7.93103 1.2041 7.68377C1.2041 7.43678 1.35424 7.21463 1.58331 7.12249L1.58428 7.12209L1.59258 7.11864C1.60079 7.11519 1.6142 7.10947 1.63205 7.10157C1.66783 7.08573 1.72095 7.06132 1.78554 7.02903C1.91625 6.96367 2.08635 6.86977 2.25255 6.75342C2.42186 6.63491 2.56616 6.5076 2.66335 6.38125C2.75966 6.25605 2.78489 6.1653 2.78489 6.10299V3.25757C2.78489 2.4525 3.09806 1.87051 3.58017 1.50894" fill="black"/>
<path fill-rule="evenodd" clip-rule="evenodd" d="M10.4242 1.67701C10.4242 1.34288 10.6951 1.07201 11.0292 1.07201C11.4298 1.07201 11.967 1.16958 12.4197 1.50917C12.9019 1.87075 13.215 2.45273 13.215 3.2578V6.10322C13.215 6.16554 13.2403 6.25628 13.3366 6.38148C13.4338 6.50784 13.5781 6.63514 13.7474 6.75366C13.9136 6.87 14.0837 6.96391 14.2144 7.02926C14.279 7.06156 14.3321 7.08596 14.3679 7.10181L14.4166 7.12273M14.4166 7.12273C14.6461 7.21471 14.7958 7.43677 14.7958 7.68401C14.7958 7.93101 14.6457 8.15316 14.4166 8.24531L14.4156 8.2457L14.4073 8.24914C14.3991 8.25259 14.3857 8.25831 14.3679 8.26622C14.3321 8.28206 14.279 8.30646 14.2144 8.33876C14.0837 8.40412 13.9136 8.49802 13.7474 8.61436C13.5781 8.73288 13.4338 8.86018 13.3366 8.98654C13.2403 9.11174 13.215 9.20249 13.215 9.2648V12.7425C13.215 13.5476 12.9019 14.1296 12.4197 14.4912C11.967 14.8308 11.4298 14.9283 11.0292 14.9283C10.6951 14.9283 10.4242 14.6575 10.4242 14.3233C10.4242 13.9892 10.6951 13.7183 11.0292 13.7183C11.261 13.7183 11.5142 13.6578 11.6937 13.5232C11.844 13.4105 12.005 13.2021 12.005 12.7425V9.2648C12.005 8.85288 12.1774 8.50891 12.3775 8.24879C12.5521 8.02182 12.7664 7.83353 12.9688 7.68401C12.7664 7.53449 12.5521 7.3462 12.3775 7.11923C12.1774 6.85911 12.005 6.51514 12.005 6.10322V3.2578C12.005 2.79824 11.844 2.58983 11.6937 2.47717C11.5142 2.34253 11.261 2.28201 11.0292 2.28201C10.6951 2.28201 10.4242 2.01115 10.4242 1.67701" fill="black"/>
</svg>
