<svg width="17" height="17" viewBox="0 0 17 17" fill="none" xmlns="http://www.w3.org/2000/svg">
<path d="M6.33059 4.37857C6.5955 4.63427 6.60297 5.05631 6.34726 5.32123L2.81056 8.98531L6.33028 12.3783C6.59536 12.6338 6.6031 13.0558 6.34756 13.3209C6.09203 13.586 5.66999 13.5937 5.40491 13.3382L1.40491 9.48227C1.27756 9.35951 1.20422 9.19117 1.20104 9.01431C1.19785 8.83745 1.26508 8.66658 1.38793 8.53931L5.38793 4.39524C5.64363 4.13033 6.06567 4.12286 6.33059 4.37857Z" fill="black"/>
<path d="M10.7379 4.37857C11.0028 4.12286 11.4248 4.13033 11.6805 4.39524L15.6805 8.53931C15.8034 8.66658 15.8706 8.83745 15.8674 9.01431C15.8642 9.19117 15.7909 9.35951 15.6635 9.48227L11.6635 13.3382C11.3984 13.5937 10.9764 13.586 10.7209 13.3209C10.4653 13.0558 10.4731 12.6338 10.7382 12.3783L14.2579 8.98531L10.7212 5.32123C10.4655 5.05631 10.4729 4.63427 10.7379 4.37857Z" fill="black"/>
<path d="M9.9343 2.93067C9.97315 2.56454 9.70784 2.23623 9.3417 2.19738C8.97557 2.15853 8.64726 2.42385 8.60841 2.78998L7.13414 14.7857C7.09529 15.1519 7.3606 15.4802 7.72674 15.519C8.09287 15.5579 8.42118 15.2926 8.46003 14.9264L9.9343 2.93067Z" fill="black"/>
</svg>
