<svg width="17" height="16" viewBox="0 0 17 16" fill="none" xmlns="http://www.w3.org/2000/svg">
<path fill-rule="evenodd" clip-rule="evenodd" d="M5.02547 12.4251C5.15328 13.7417 6.26305 14.7708 7.61318 14.7708H12.6132C14.0491 14.7708 15.2132 13.6067 15.2132 12.1708V6.1708C15.2132 4.78586 14.1303 3.65383 12.7651 3.57517C12.6373 2.25858 11.5275 1.22949 10.1774 1.22949H5.17739C3.74145 1.22949 2.57739 2.39355 2.57739 3.82949V9.82949C2.57739 11.2144 3.66024 12.3465 5.02547 12.4251ZM11.5535 3.5708H7.61318C6.17724 3.5708 5.01318 4.73486 5.01318 6.1708V11.22C4.31736 11.1387 3.77739 10.5471 3.77739 9.82949V3.82949C3.77739 3.05629 4.40419 2.42949 5.17739 2.42949H10.1774C10.8622 2.42949 11.4322 2.92119 11.5535 3.5708ZM14.0132 6.1708C14.0132 5.3976 13.3864 4.7708 12.6132 4.7708H7.61318C6.83998 4.7708 6.21318 5.3976 6.21318 6.1708V12.1708C6.21318 12.944 6.83998 13.5708 7.61318 13.5708H12.6132C13.3864 13.5708 14.0132 12.944 14.0132 12.1708V6.1708Z" fill="black"/>
</svg>
