<svg width="16" height="16" viewBox="0 0 16 16" fill="none" xmlns="http://www.w3.org/2000/svg">
<path fill-rule="evenodd" clip-rule="evenodd" d="M4.1302 12.4251C4.25802 13.7417 5.36779 14.7708 6.71792 14.7708H11.7179C13.1539 14.7708 14.3179 13.6067 14.3179 12.1708V6.1708C14.3179 4.78586 13.2351 3.65383 11.8698 3.57517C11.742 2.25858 10.6323 1.22949 9.28213 1.22949H4.28213C2.84619 1.22949 1.68213 2.39355 1.68213 3.82949V9.82949C1.68213 11.2144 2.76497 12.3465 4.1302 12.4251ZM10.6583 3.5708H6.71792C5.28198 3.5708 4.11792 4.73486 4.11792 6.1708V11.22C3.4221 11.1387 2.88213 10.5471 2.88213 9.82949V3.82949C2.88213 3.05629 3.50893 2.42949 4.28213 2.42949H9.28213C9.96695 2.42949 10.5369 2.92119 10.6583 3.5708ZM13.1179 6.1708C13.1179 5.3976 12.4911 4.7708 11.7179 4.7708H6.71792C5.94472 4.7708 5.31792 5.3976 5.31792 6.1708V12.1708C5.31792 12.944 5.94472 13.5708 6.71792 13.5708H11.7179C12.4911 13.5708 13.1179 12.944 13.1179 12.1708V6.1708Z" fill="black"/>
</svg>
