<svg width="16" height="16" viewBox="0 0 16 16" fill="none" xmlns="http://www.w3.org/2000/svg">
<path fill-rule="evenodd" clip-rule="evenodd" d="M6.40039 2.9999C6.40039 2.11625 7.11673 1.3999 8.00039 1.3999C8.88405 1.3999 9.60039 2.11625 9.60039 2.9999C9.60039 3.57175 9.30039 4.07354 8.84919 4.35645L10.6018 7.86158L12.3914 6.96674C12.1875 6.69816 12.0664 6.36317 12.0664 5.9999C12.0664 5.11625 12.7828 4.3999 13.6664 4.3999C14.5501 4.3999 15.2664 5.11625 15.2664 5.9999C15.2664 6.7188 14.7923 7.32696 14.1397 7.52875L12.2437 14.1647C12.1701 14.4223 11.9346 14.5999 11.6668 14.5999H4.33342C4.06554 14.5999 3.8301 14.4223 3.75651 14.1647L1.86055 7.52888C1.20772 7.32722 0.733398 6.71895 0.733398 5.9999C0.733398 5.11625 1.44974 4.3999 2.3334 4.3999C3.21705 4.3999 3.9334 5.11625 3.9334 5.9999C3.9334 6.36311 3.81238 6.69805 3.60846 6.9666L5.39843 7.86158L7.15114 4.35617C6.70019 4.0732 6.40039 3.57156 6.40039 2.9999ZM8.00039 2.5999C7.77948 2.5999 7.60039 2.77899 7.60039 2.9999C7.60039 3.22082 7.77948 3.3999 8.00039 3.3999C8.2213 3.3999 8.40039 3.22082 8.40039 2.9999C8.40039 2.77899 8.2213 2.5999 8.00039 2.5999ZM13.6647 6.3999L13.6664 6.3999C13.8873 6.3999 14.0664 6.22082 14.0664 5.9999C14.0664 5.77899 13.8873 5.5999 13.6664 5.5999C13.4455 5.5999 13.2664 5.77899 13.2664 5.9999C13.2664 6.22026 13.4446 6.399 13.6647 6.3999ZM2.33518 6.3999L2.33172 6.3999C2.11158 6.39899 1.9334 6.22026 1.9334 5.9999C1.9334 5.77899 2.11248 5.5999 2.3334 5.5999C2.55431 5.5999 2.7334 5.77899 2.7334 5.9999C2.7334 6.22022 2.55528 6.39894 2.33518 6.3999ZM6.20341 8.9349L8.00009 5.34154L9.79677 8.9349C9.94496 9.23128 10.3054 9.35142 10.6018 9.20323L12.7151 8.14653L11.2142 13.3999H4.786L3.28504 8.14653L5.39843 9.20323C5.69482 9.35142 6.05522 9.23128 6.20341 8.9349Z" fill="black"/>
</svg>
