<svg width="17" height="16" viewBox="0 0 17 16" fill="none" xmlns="http://www.w3.org/2000/svg">
<path d="M5.22876 13.7349C6.33333 13.7349 7.22876 12.8394 7.22876 11.7349C7.22876 10.6303 6.33333 9.73486 5.22876 9.73486C4.12419 9.73486 3.22876 10.6303 3.22876 11.7349C3.22876 12.8394 4.12419 13.7349 5.22876 13.7349Z" stroke="black" stroke-width="1.2"/>
<path d="M12.5618 13.7349C13.6663 13.7349 14.5618 12.8394 14.5618 11.7349C14.5618 10.6303 13.6663 9.73486 12.5618 9.73486C11.4572 9.73486 10.5618 10.6303 10.5618 11.7349C10.5618 12.8394 11.4572 13.7349 12.5618 13.7349Z" stroke="black" stroke-width="1.2"/>
<path d="M3.82397 2.26465L11.5642 9.87167" stroke="black" stroke-width="1.2" stroke-linecap="round" stroke-linejoin="round"/>
<path d="M13.9666 2.26465L6.22633 9.87167" stroke="black" stroke-width="1.2" stroke-linecap="round" stroke-linejoin="round"/>
</svg>
