<svg width="16" height="16" viewBox="0 0 16 16" fill="none" xmlns="http://www.w3.org/2000/svg">
<path fill-rule="evenodd" clip-rule="evenodd" d="M2.50095 1.84399C2.73322 1.60765 3.11311 1.60435 3.34945 1.83662L8.00012 6.40726L12.6508 1.83662C12.8871 1.60435 13.267 1.60765 13.4993 1.84399C13.7316 2.08032 13.7283 2.46021 13.4919 2.69248L8.85611 7.24852L10.8941 9.25146C11.1382 9.17563 11.3976 9.13477 11.6667 9.13477C13.1026 9.13477 14.2667 10.2988 14.2667 11.7348C14.2667 13.1707 13.1026 14.3348 11.6667 14.3348C10.2307 14.3348 9.06665 13.1707 9.06665 11.7348C9.06665 11.0143 9.35973 10.3622 9.83319 9.89129L8.00012 8.08978L6.16708 9.89127C6.64055 10.3622 6.93364 11.0142 6.93364 11.7348C6.93364 13.1707 5.76958 14.3348 4.33364 14.3348C2.8977 14.3348 1.73364 13.1707 1.73364 11.7348C1.73364 10.2988 2.8977 9.13477 4.33364 9.13477C4.60263 9.13477 4.86208 9.17562 5.10612 9.25145L7.14413 7.24852L2.50831 2.69248C2.27197 2.46021 2.26868 2.08032 2.50095 1.84399ZM2.93364 11.7348C2.93364 10.9616 3.56044 10.3348 4.33364 10.3348C5.10684 10.3348 5.73364 10.9616 5.73364 11.7348C5.73364 12.508 5.10684 13.1348 4.33364 13.1348C3.56044 13.1348 2.93364 12.508 2.93364 11.7348ZM10.2667 11.7348C10.2667 10.9616 10.8935 10.3348 11.6667 10.3348C12.4398 10.3348 13.0667 10.9616 13.0667 11.7348C13.0667 12.508 12.4398 13.1348 11.6667 13.1348C10.8935 13.1348 10.2667 12.508 10.2667 11.7348Z" fill="black"/>
</svg>
