<svg width="16" height="16" viewBox="0 0 16 16" fill="none" xmlns="http://www.w3.org/2000/svg">
<path fill-rule="evenodd" clip-rule="evenodd" d="M9.10419 1.63214C8.94041 1.87949 8.9068 2.23355 9.10376 2.53198C9.59984 3.28365 9.88863 4.18338 9.88863 5.15241C9.88863 7.78356 7.75528 9.91691 5.12413 9.91691C4.23323 9.91691 3.40135 9.67303 2.68935 9.24875C2.38208 9.06565 2.02985 9.11558 1.7903 9.29061C1.54189 9.47211 1.37711 9.82204 1.51223 10.196C2.46591 12.8357 4.99351 14.7238 7.96441 14.7238C11.7525 14.7238 14.823 11.6533 14.823 7.86522C14.823 4.78371 12.7913 2.17821 9.99559 1.31257C9.61589 1.195 9.27403 1.37565 9.10419 1.63214ZM10.639 2.87714C12.4157 3.8318 13.623 5.7081 13.623 7.86522C13.623 10.9906 11.0898 13.5238 7.96441 13.5238C5.90003 13.5238 4.09326 12.4185 3.10485 10.7663C3.7358 10.9933 4.41585 11.1169 5.12413 11.1169C8.41802 11.1169 11.0886 8.4463 11.0886 5.15241C11.0886 4.3472 10.9287 3.5786 10.639 2.87714Z" fill="black"/>
<path d="M5.73029 1.76608C5.67225 1.60922 5.4504 1.60922 5.39236 1.76608L5.18398 2.3292C5.00151 2.82233 4.6127 3.21114 4.11956 3.39362L3.55644 3.60199C3.39959 3.66003 3.39959 3.88188 3.55644 3.93992L4.11956 4.14829C4.6127 4.33077 5.00151 4.71958 5.18398 5.21272L5.39236 5.77584C5.4504 5.93269 5.67225 5.93269 5.73029 5.77584L5.93866 5.21272C6.12114 4.71958 6.50995 4.33077 7.00308 4.14829L7.5662 3.93992C7.72305 3.88188 7.72305 3.66003 7.5662 3.60199L7.00308 3.39362C6.50995 3.21114 6.12114 2.82233 5.93866 2.3292L5.73029 1.76608Z" fill="black"/>
<path d="M2.44447 5.60707C2.48212 5.50532 2.62603 5.50532 2.66368 5.60707L2.79885 5.97235C2.91722 6.29224 3.16943 6.54445 3.48932 6.66282L3.8546 6.79799C3.95635 6.83564 3.95635 6.97955 3.8546 7.0172L3.48932 7.15237C3.16943 7.27073 2.91722 7.52295 2.79885 7.84283L2.66368 8.20812C2.62603 8.30986 2.48212 8.30986 2.44447 8.20812L2.30931 7.84283C2.19094 7.52295 1.93873 7.27073 1.61884 7.15237L1.25356 7.0172C1.15181 6.97955 1.15181 6.83564 1.25356 6.79799L1.61884 6.66282C1.93873 6.54445 2.19094 6.29224 2.30931 5.97235L2.44447 5.60707Z" fill="black"/>
</svg>
