<svg width="17" height="17" viewBox="0 0 17 17" fill="none" xmlns="http://www.w3.org/2000/svg">
<path fill-rule="evenodd" clip-rule="evenodd" d="M10.0544 6.69385C9.68617 6.69385 9.3877 6.99232 9.3877 7.36051V11.6702C9.3877 12.0384 9.68617 12.3369 10.0544 12.3369H12.5171C12.8852 12.3369 13.1837 12.0384 13.1837 11.6702V7.36051C13.1837 6.99232 12.8852 6.69385 12.5171 6.69385H10.0544ZM10.721 11.0036V8.02718H11.8504V11.0036H10.721Z" fill="black"/>
<path d="M4.46228 7.36051C4.46228 6.99232 4.76076 6.69385 5.12895 6.69385H7.59164C7.95983 6.69385 8.2583 6.99232 8.2583 7.36051V9.50717C8.25834 9.50991 8.25835 9.51267 8.25835 9.51542C8.25835 9.51818 8.25834 9.52093 8.2583 9.52368V11.6702C8.2583 12.0384 7.95983 12.3369 7.59164 12.3369H5.12895C4.76076 12.3369 4.46228 12.0384 4.46228 11.6702C4.46228 11.302 4.76076 11.0036 5.12895 11.0036H6.92497V10.1821H5.74467C5.37648 10.1821 5.078 9.88361 5.078 9.51542C5.078 9.14723 5.37648 8.84875 5.74467 8.84875H6.92497V8.02718H5.12895C4.76076 8.02718 4.46228 7.7287 4.46228 7.36051Z" fill="black"/>
<path fill-rule="evenodd" clip-rule="evenodd" d="M6.48966 1.83545C6.85785 1.83545 7.15633 2.13393 7.15633 2.50212V3.03528H10.4897V2.50212C10.4897 2.13393 10.7882 1.83545 11.1564 1.83545C11.5246 1.83545 11.8231 2.13393 11.8231 2.50212V3.03528H15.0051C15.3733 3.03528 15.6718 3.33376 15.6718 3.70195V14.501C15.6718 14.8692 15.3733 15.1677 15.0051 15.1677H2.64091C2.27272 15.1677 1.97424 14.8692 1.97424 14.501V3.70195C1.97424 3.33376 2.27272 3.03528 2.64091 3.03528H5.823V2.50212C5.823 2.13393 6.12147 1.83545 6.48966 1.83545ZM10.4897 4.36861V4.90191C10.4897 5.2701 10.7882 5.56858 11.1564 5.56858C11.5246 5.56858 11.8231 5.2701 11.8231 4.90191V4.36861H14.3384V13.8344H3.30758V4.36861H5.823V4.90191C5.823 5.2701 6.12147 5.56858 6.48966 5.56858C6.85785 5.56858 7.15633 5.2701 7.15633 4.90191V4.36861H10.4897Z" fill="black"/>
</svg>
