<svg width="16" height="16" viewBox="0 0 16 16" fill="none" xmlns="http://www.w3.org/2000/svg">
<path d="M13.0336 1.73242C13.365 1.73242 13.6336 2.00105 13.6336 2.33242L13.6336 12.2186L14.6093 11.2429C14.8436 11.0086 15.2235 11.0086 15.4579 11.2429C15.6922 11.4772 15.6922 11.8571 15.4579 12.0914L13.4579 14.0914C13.2235 14.3257 12.8436 14.3257 12.6093 14.0914L10.6093 12.0914C10.375 11.8571 10.375 11.4772 10.6093 11.2429C10.8436 11.0086 11.2235 11.0086 11.4579 11.2429L12.4336 12.2186L12.4336 2.33242C12.4336 2.00105 12.7022 1.73242 13.0336 1.73242Z" fill="black"/>
<path d="M2.96131 5.99477C3.19563 5.76046 3.57553 5.76046 3.80984 5.99477L4.96667 7.1516L6.1235 5.99477C6.35781 5.76046 6.73771 5.76046 6.97203 5.99477C7.20634 6.22909 7.20634 6.60899 6.97203 6.8433L5.8152 8.00013L6.97203 9.15696C7.20634 9.39127 7.20634 9.77117 6.97203 10.0055C6.73771 10.2398 6.35781 10.2398 6.1235 10.0055L4.96667 8.84866L3.80984 10.0055C3.57553 10.2398 3.19563 10.2398 2.96131 10.0055C2.727 9.77117 2.727 9.39127 2.96131 9.15696L4.11814 8.00013L2.96131 6.8433C2.727 6.60899 2.727 6.22909 2.96131 5.99477Z" fill="black"/>
<path fill-rule="evenodd" clip-rule="evenodd" d="M7.86664 3.3999L2.06667 3.39999C1.12778 3.4 0.366674 4.16114 0.366699 5.10003L0.366852 10.8999C0.366877 11.8388 1.12799 12.5999 2.06685 12.5999H7.86667C8.80555 12.5999 9.56667 11.8388 9.56667 10.8999V5.0999C9.56667 4.16101 8.80554 3.39989 7.86664 3.3999ZM2.06669 4.59999L7.86666 4.5999C8.14281 4.5999 8.36667 4.82376 8.36667 5.0999V10.8999C8.36667 11.176 8.14281 11.3999 7.86667 11.3999H2.06685C1.79071 11.3999 1.56686 11.176 1.56685 10.8999L1.5667 5.1C1.56669 4.82386 1.79055 4.59999 2.06669 4.59999Z" fill="black"/>
</svg>
