<svg width="16" height="16" viewBox="0 0 16 16" fill="none" xmlns="http://www.w3.org/2000/svg">
<path d="M5.99452 2.67574C6.22884 2.44142 6.60874 2.44142 6.84305 2.67574L7.99988 3.83257L9.15671 2.67574C9.39103 2.44142 9.77092 2.44142 10.0052 2.67574C10.2396 2.91005 10.2396 3.28995 10.0052 3.52426L8.84841 4.68109L10.0052 5.83792C10.2396 6.07224 10.2396 6.45214 10.0052 6.68645C9.77092 6.92077 9.39103 6.92077 9.15671 6.68645L7.99988 5.52962L6.84305 6.68645C6.60874 6.92077 6.22884 6.92077 5.99452 6.68645C5.76021 6.45214 5.76021 6.07224 5.99452 5.83792L7.15135 4.68109L5.99452 3.52426C5.76021 3.28995 5.76021 2.91005 5.99452 2.67574Z" fill="black"/>
<path fill-rule="evenodd" clip-rule="evenodd" d="M1.13924 12.4548L1.13916 10.6548C1.13912 9.71589 1.90025 8.95473 2.83916 8.95473H13.1612C14.1001 8.95473 14.8612 9.71584 14.8612 10.6547V12.4546C14.8612 13.3935 14.1001 14.1546 13.1612 14.1546L10.0963 14.1547L10.087 14.1547L10.0777 14.1547L5.91977 14.1547L5.91318 14.1547L5.9066 14.1547L2.83926 14.1547C1.9004 14.1547 1.13929 13.3937 1.13924 12.4548ZM10.687 12.9547L13.1612 12.9546C13.4373 12.9546 13.6612 12.7308 13.6612 12.4546V10.6547C13.6612 10.3786 13.4373 10.1547 13.1612 10.1547H10.687V12.9547ZM9.48701 10.1547V12.9547L6.51318 12.9547V10.1547H9.48701ZM2.83916 10.1547H5.31318V12.9547L2.83925 12.9547C2.56311 12.9547 2.33926 12.7309 2.33924 12.4547L2.33916 10.6547C2.33915 10.3786 2.56301 10.1547 2.83916 10.1547Z" fill="black"/>
</svg>
