<svg width="16" height="16" viewBox="0 0 16 16" fill="none" xmlns="http://www.w3.org/2000/svg">
<path d="M5.99502 2.96131C6.22933 2.727 6.60923 2.727 6.84354 2.96131L8.00037 4.11814L9.1572 2.96131C9.39152 2.727 9.77142 2.727 10.0057 2.96131C10.24 3.19563 10.24 3.57553 10.0057 3.80984L8.8489 4.96667L10.0057 6.1235C10.24 6.35781 10.24 6.73771 10.0057 6.97203C9.77142 7.20634 9.39152 7.20634 9.1572 6.97203L8.00037 5.8152L6.84354 6.97203C6.60923 7.20634 6.22933 7.20634 5.99502 6.97203C5.7607 6.73771 5.7607 6.35781 5.99502 6.1235L7.15185 4.96667L5.99502 3.80984C5.7607 3.57553 5.7607 3.19563 5.99502 2.96131Z" fill="black"/>
<path fill-rule="evenodd" clip-rule="evenodd" d="M3.40039 7.86664L3.40048 2.06667C3.40049 1.12778 4.16163 0.366674 5.10052 0.366699L10.9004 0.366852C11.8393 0.366877 12.6004 1.12799 12.6004 2.06685V7.86667C12.6004 8.80555 11.8393 9.56667 10.9004 9.56667H5.10039C4.1615 9.56667 3.40038 8.80554 3.40039 7.86664ZM4.60048 2.06669L4.60039 7.86666C4.60039 8.14281 4.82425 8.36667 5.10039 8.36667H10.9004C11.1765 8.36667 11.4004 8.14281 11.4004 7.86667V2.06685C11.4004 1.79071 11.1765 1.56686 10.9004 1.56685L5.10049 1.5667C4.82435 1.56669 4.60048 1.79055 4.60048 2.06669Z" fill="black"/>
<path d="M11.2434 10.6088C11.009 10.8432 11.009 11.2231 11.2434 11.4574L12.2191 12.4331L2.33291 12.4331C2.00154 12.4331 1.73291 12.7017 1.73291 13.0331C1.73291 13.3645 2.00154 13.6331 2.33291 13.6331L12.2191 13.6331L11.2434 14.6088C11.009 14.8432 11.009 15.2231 11.2434 15.4574C11.4777 15.6917 11.8576 15.6917 12.0919 15.4574L14.0919 13.4574C14.3262 13.2231 14.3262 12.8432 14.0919 12.6088L12.0919 10.6088C11.8576 10.3745 11.4777 10.3745 11.2434 10.6088Z" fill="black"/>
</svg>
