<svg width="16" height="16" viewBox="0 0 16 16" fill="none" xmlns="http://www.w3.org/2000/svg">
<path d="M4.41357 5.23252C4.41357 4.90115 4.6822 4.63252 5.01357 4.63252H10.9862C11.3176 4.63252 11.5862 4.90115 11.5862 5.23252C11.5862 5.56389 11.3176 5.83252 10.9862 5.83252H5.01357C4.6822 5.83252 4.41357 5.56389 4.41357 5.23252Z" fill="black"/>
<path d="M4.41357 7.97861C4.41357 7.64724 4.6822 7.37861 5.01357 7.37861H10.9862C11.3176 7.37861 11.5862 7.64724 11.5862 7.97861C11.5862 8.30999 11.3176 8.57861 10.9862 8.57861H5.01357C4.6822 8.57861 4.41357 8.30999 4.41357 7.97861Z" fill="black"/>
<path d="M4.41357 10.7716C4.41357 10.4402 4.6822 10.1716 5.01357 10.1716H8.17178C8.50315 10.1716 8.77178 10.4402 8.77178 10.7716C8.77178 11.103 8.50315 11.3716 8.17178 11.3716H5.01357C4.6822 11.3716 4.41357 11.103 4.41357 10.7716Z" fill="black"/>
<path fill-rule="evenodd" clip-rule="evenodd" d="M1.90107 0.578613C1.45925 0.578613 1.10107 0.936785 1.10107 1.37861V12.0216C1.10107 14.0098 2.71285 15.6216 4.70107 15.6216H14.0987C14.5406 15.6216 14.8987 15.2634 14.8987 14.8216V4.17861C14.8987 2.19039 13.287 0.578613 11.2987 0.578613H1.90107ZM2.30107 12.0216V1.77861H11.2987C12.6242 1.77861 13.6987 2.85313 13.6987 4.17861V14.4216H4.70107C3.37559 14.4216 2.30107 13.3471 2.30107 12.0216Z" fill="black"/>
</svg>
