<svg width="25" height="25" viewBox="0 0 25 25" fill="none" xmlns="http://www.w3.org/2000/svg">
<mask id="mask0_17_590" style="mask-type:alpha" maskUnits="userSpaceOnUse" x="0" y="0" width="25" height="25">
<rect x="0.774902" y="0.537476" width="24" height="24" fill="#DCDCDC"/>
</mask>
<g mask="url(#mask0_17_590)">
<path d="M6.7749 2.53748H4.7749C3.67033 2.53748 2.7749 3.43291 2.7749 4.53748V6.53748H4.7749V4.53748L6.7749 4.53748V2.53748Z" fill="#999999"/>
<path d="M2.7749 14.5375H4.7749V10.5375H2.7749V14.5375Z" fill="#999999"/>
<path d="M10.7749 2.53748V4.53748H11.7749V8.53748H13.7749V4.53748H14.7749V2.53748H10.7749Z" fill="#999999"/>
<path d="M18.7749 2.53748V4.53748H20.7749V6.53748H22.7749V4.53748C22.7749 3.43291 21.8795 2.53748 20.7749 2.53748H18.7749Z" fill="#999999"/>
<path d="M22.7749 10.5375H20.7749V11.5375H16.7749V13.5375H20.7749V14.5375H22.7749V10.5375Z" fill="#999999"/>
<path d="M11.7749 20.5375V16.5375H13.7749V20.5375H11.7749Z" fill="#999999"/>
<path d="M8.7749 11.5375H4.7749V13.5375H8.7749V11.5375Z" fill="#999999"/>
<path d="M2.7749 20.5375V18.5375H4.7749L4.7749 20.5375H20.7749V18.5375H22.7749V20.5375C22.7749 21.642 21.8795 22.5375 20.7749 22.5375H4.7749C3.67033 22.5375 2.7749 21.642 2.7749 20.5375Z" fill="black"/>
</g>
</svg>
