<svg width="16" height="16" viewBox="0 0 16 16" fill="none" xmlns="http://www.w3.org/2000/svg">
<path d="M3.74209 1.1416C2.30607 1.1416 1.14197 2.30579 1.14209 3.74181L1.14278 12.2582C1.14289 13.694 2.30692 14.858 3.74278 14.858H6.95663C7.288 14.858 7.55663 14.5893 7.55663 14.258C7.55663 13.9266 7.288 13.658 6.95663 13.658H3.74278C2.96962 13.658 2.34284 13.0312 2.34278 12.2581L2.34209 3.74171C2.34203 2.96847 2.96885 2.3416 3.74209 2.3416H12.2583C13.0315 2.3416 13.6583 2.9684 13.6583 3.7416V7.304C13.6583 7.63537 13.9269 7.904 14.2583 7.904C14.5897 7.904 14.8583 7.63537 14.8583 7.304V3.7416C14.8583 2.30566 13.6942 1.1416 12.2583 1.1416H3.74209Z" fill="black"/>
<path fill-rule="evenodd" clip-rule="evenodd" d="M9.50821 8.8017C9.31149 8.76236 9.10813 8.82393 8.96627 8.96578C8.82442 9.10764 8.76285 9.311 8.80219 9.50772L9.77574 14.3755C9.82334 14.6135 10.0096 14.7993 10.2477 14.8464C10.4857 14.8935 10.7287 14.7926 10.8633 14.5906L11.4309 13.7393L12.3737 14.6821C12.608 14.9164 12.9879 14.9164 13.2222 14.6821L14.6826 13.2218C14.9169 12.9874 14.9169 12.6075 14.6826 12.3732L13.7398 11.4304L14.5911 10.8628C14.793 10.7282 14.894 10.4852 14.8469 10.2472C14.7998 10.0091 14.6139 9.82285 14.376 9.77525L9.50821 8.8017ZM10.6684 12.7198L10.1554 10.1549L12.7202 10.6679L12.4652 10.8379C12.3156 10.9376 12.2186 11.0992 12.2009 11.278C12.1832 11.4569 12.2466 11.6343 12.3737 11.7614L13.4098 12.7975L12.798 13.4093L11.7619 12.3732C11.6348 12.2461 11.4574 12.1827 11.2785 12.2004C11.0996 12.2181 10.9381 12.3151 10.8384 12.4647L10.6684 12.7198Z" fill="black"/>
</svg>
