<svg width="16" height="16" viewBox="0 0 16 16" fill="none" xmlns="http://www.w3.org/2000/svg">
<path d="M3.74063 1.14062C2.3046 1.14062 1.14051 2.30481 1.14063 3.74083L1.14131 12.2572C1.14143 13.6931 2.30545 14.857 3.74131 14.857H6.95517C7.28654 14.857 7.55517 14.5884 7.55517 14.257C7.55517 13.9256 7.28654 13.657 6.95517 13.657H3.74131C2.96816 13.657 2.34137 13.0303 2.34131 12.2571L2.34063 3.74074C2.34056 2.9675 2.96738 2.34063 3.74063 2.34063H12.2568C13.03 2.34063 13.6568 2.96743 13.6568 3.74063V7.30303C13.6568 7.6344 13.9255 7.90303 14.2568 7.90303C14.5882 7.90303 14.8568 7.6344 14.8568 7.30303V3.74063C14.8568 2.30469 13.6928 1.14062 12.2568 1.14062H3.74063Z" fill="black"/>
<path fill-rule="evenodd" clip-rule="evenodd" d="M9.50674 8.80072C9.31003 8.76138 9.10666 8.82295 8.96481 8.96481C8.82295 9.10666 8.76138 9.31003 8.80072 9.50674L9.77428 14.3745C9.82187 14.6125 10.0081 14.7983 10.2462 14.8454C10.4843 14.8925 10.7272 14.7916 10.8619 14.5897L11.4294 13.7383L12.3722 14.6811C12.6066 14.9154 12.9865 14.9154 13.2208 14.6811L14.6811 13.2208C14.9154 12.9865 14.9154 12.6066 14.6811 12.3722L13.7383 11.4294L14.5897 10.8619C14.7916 10.7272 14.8925 10.4843 14.8454 10.2462C14.7983 10.0081 14.6125 9.82187 14.3745 9.77428L9.50674 8.80072ZM10.6669 12.7188L10.1539 10.1539L12.7188 10.6669L12.4637 10.837C12.3141 10.9367 12.2171 11.0982 12.1994 11.2771C12.1817 11.4559 12.2451 11.6333 12.3722 11.7604L13.4083 12.7965L12.7965 13.4083L11.7604 12.3722C11.6333 12.2451 11.4559 12.1817 11.2771 12.1994C11.0982 12.2171 10.9367 12.3141 10.837 12.4637L10.6669 12.7188Z" fill="black"/>
</svg>
