<svg width="16" height="16" viewBox="0 0 16 16" fill="none" xmlns="http://www.w3.org/2000/svg">
<path d="M1.08642 1.77427C1.23462 1.48043 1.59502 1.36132 1.89141 1.50824L4.01713 2.562C4.17783 2.64166 4.29407 2.78853 4.33388 2.96222L5.99918 10.2267H12.157L12.6377 8.60663H7.64639C7.31502 8.60663 7.04639 8.3403 7.04639 8.01177C7.04639 7.68323 7.31502 7.41691 7.64639 7.41691H12.9906L13.5755 5.44518H7.64596C7.31459 5.44518 7.04596 5.17885 7.04596 4.85032C7.04596 4.52179 7.31459 4.25546 7.64596 4.25546H14.3774C14.5665 4.25546 14.7445 4.34383 14.8578 4.49394C14.9711 4.64404 15.0064 4.83831 14.953 5.01817L13.1816 10.9895C13.1065 11.2426 12.8721 11.4165 12.606 11.4165H5.52024C5.2401 11.4165 4.99724 11.2243 4.93516 10.9534L3.22662 3.50028L1.35475 2.57236C1.05837 2.42544 0.938231 2.06812 1.08642 1.77427Z" fill="black"/>
<path d="M7.2863 13.4878C7.2863 14.0773 6.80433 14.5551 6.2098 14.5551C5.61526 14.5551 5.1333 14.0773 5.1333 13.4878C5.1333 12.8984 5.61526 12.4205 6.2098 12.4205C6.80433 12.4205 7.2863 12.8984 7.2863 13.4878Z" fill="black"/>
<path d="M12.5153 13.4878C12.5153 14.0773 12.0333 14.5551 11.4388 14.5551C10.8443 14.5551 10.3623 14.0773 10.3623 13.4878C10.3623 12.8984 10.8443 12.4205 11.4388 12.4205C12.0333 12.4205 12.5153 12.8984 12.5153 13.4878Z" fill="black"/>
</svg>
