<svg width="16" height="16" viewBox="0 0 16 16" fill="none" xmlns="http://www.w3.org/2000/svg">
<path fill-rule="evenodd" clip-rule="evenodd" d="M1.67277 8.67081L8.6713 1.67228C9.10087 1.2427 9.79735 1.2427 10.2269 1.67228L14.3281 5.7735C14.7577 6.20308 14.7577 6.89956 14.3281 7.32913L8.27967 13.3776H12.1874C12.5381 13.3776 12.8224 13.6619 12.8224 14.0126C12.8224 14.3633 12.5381 14.6476 12.1874 14.6476H6.62197C6.57509 14.6506 6.52805 14.6506 6.48117 14.6476C6.42522 14.647 6.371 14.6393 6.31941 14.6251C6.11953 14.5821 5.92931 14.483 5.77399 14.3277L1.67277 10.2264C1.24319 9.79687 1.24319 9.10038 1.67277 8.67081ZM9.44911 2.69051L5.45981 6.67982L9.32061 10.5406L13.3099 6.55132L9.44911 2.69051ZM8.42259 11.4386L4.56178 7.57784L2.691 9.44862L6.55181 13.3094L8.42259 11.4386Z" fill="black"/>
</svg>
