<svg width="17" height="17" viewBox="0 0 17 17" fill="none" xmlns="http://www.w3.org/2000/svg">
<mask id="mask0_102_686" style="mask-type:alpha" maskUnits="userSpaceOnUse" x="0" y="0" width="17" height="17">
<rect x="0.0618896" y="0.0600586" width="16" height="16" fill="#DCDCDC"/>
</mask>
<g mask="url(#mask0_102_686)">
<path fill-rule="evenodd" clip-rule="evenodd" d="M10.3853 1.92599C9.83783 1.3899 8.95016 1.3899 8.40267 1.92599L1.79734 8.39371C1.24985 8.9298 1.24985 9.79896 1.79734 10.3351L5.7384 14.194C5.974 14.4247 6.2726 14.5561 6.57997 14.5883V14.5894H6.59128C6.68333 14.5983 6.77611 14.5983 6.86817 14.5894H12.4627C12.8498 14.5894 13.1636 14.2821 13.1636 13.903C13.1636 13.524 12.8498 13.2167 12.4627 13.2167H8.71918L14.3264 7.72629C14.8739 7.1902 14.8739 6.32103 14.3264 5.78495L10.3853 1.92599ZM6.73653 13.2167L8.40267 11.5852L4.46161 7.72629L2.78866 9.36438L6.72291 13.2167H6.73653ZM13.3351 6.75562L9.39399 2.89666L5.5719 6.63913L9.51296 10.4981L13.3351 6.75562Z" fill="black"/>
</g>
</svg>
