<svg width="17" height="16" viewBox="0 0 17 16" fill="none" xmlns="http://www.w3.org/2000/svg">
<path d="M11.3951 12.7729C11.3951 13.0175 11.1969 13.2158 10.9523 13.2158C10.7077 13.2158 10.5094 13.0175 10.5094 12.7729V4.29581L9.59246 5.21273C9.41951 5.38569 9.13909 5.38569 8.96614 5.21273C8.79319 5.03978 8.79319 4.75937 8.96614 4.58642L10.6392 2.91334C10.8122 2.74039 11.0926 2.74039 11.2655 2.91334L12.9386 4.58642C13.1116 4.75937 13.1116 5.03978 12.9386 5.21273C12.7657 5.38569 12.4853 5.38569 12.3123 5.21273L11.3951 4.29557V12.7729Z" fill="black"/>
<path fill-rule="evenodd" clip-rule="evenodd" d="M3.69582 9.68262C3.45122 9.68262 3.25294 9.48434 3.25294 9.23975C3.25294 8.99516 3.45122 8.79688 3.69582 8.79688H7.02602C7.20515 8.79688 7.36663 8.90478 7.43518 9.07027C7.50373 9.23576 7.46584 9.42625 7.33918 9.55291L4.76501 12.1271H7.02602C7.27061 12.1271 7.46889 12.3254 7.46889 12.57C7.46889 12.8145 7.27061 13.0128 7.02602 13.0128H3.69582C3.51669 13.0128 3.3552 12.9049 3.28665 12.7394C3.21811 12.5739 3.256 12.3835 3.38266 12.2568L5.95683 9.68262H3.69582Z" fill="black"/>
<path fill-rule="evenodd" clip-rule="evenodd" d="M6.05376 3.47094C5.81719 2.82544 4.90424 2.82544 4.66767 3.47094L3.22248 7.41425C3.13831 7.6439 3.25625 7.8983 3.48591 7.98247C3.71556 8.06664 3.96997 7.9487 4.05413 7.71904L4.48672 6.53871L4.48804 6.53871H6.23471L6.66729 7.71904C6.75146 7.9487 7.00586 8.06664 7.23552 7.98247C7.46517 7.8983 7.58311 7.6439 7.49895 7.41425L6.05376 3.47094ZM5.91009 5.65296L5.36071 4.15394L4.81134 5.65296H5.91009Z" fill="black"/>
</svg>
