<svg width="17" height="16" viewBox="0 0 17 16" fill="none" xmlns="http://www.w3.org/2000/svg">
<path d="M12.0474 3.22794C12.0474 2.9834 11.8492 2.78516 11.6046 2.78516C11.3601 2.78516 11.1619 2.9834 11.1619 3.22794V11.7033L10.2451 10.7866C10.0722 10.6136 9.79186 10.6136 9.61895 10.7866C9.44603 10.9595 9.44603 11.2398 9.61895 11.4127L11.2917 13.0855C11.4646 13.2584 11.7449 13.2584 11.9179 13.0855L13.5906 11.4127C13.7635 11.2398 13.7635 10.9595 13.5906 10.7866C13.4177 10.6136 13.1373 10.6136 12.9644 10.7866L12.0474 11.7035V3.22794Z" fill="black"/>
<path fill-rule="evenodd" clip-rule="evenodd" d="M4.34953 9.68244C4.10499 9.68244 3.90675 9.4842 3.90675 9.23966C3.90675 8.99511 4.10499 8.79688 4.34953 8.79688H7.67903C7.85812 8.79688 8.01958 8.90475 8.08811 9.07021C8.15664 9.23567 8.11876 9.42611 7.99213 9.55275L5.4185 12.1264H7.67903C7.92357 12.1264 8.12181 12.3246 8.12181 12.5692C8.12181 12.8137 7.92357 13.0119 7.67903 13.0119H4.34953C4.17044 13.0119 4.00899 12.9041 3.94046 12.7386C3.87192 12.5731 3.9098 12.3827 4.03644 12.2561L6.61007 9.68244H4.34953Z" fill="black"/>
<path fill-rule="evenodd" clip-rule="evenodd" d="M6.70745 3.47206C6.47093 2.8267 5.55818 2.8267 5.32166 3.47206L3.87677 7.41453C3.79262 7.64414 3.91054 7.89849 4.14015 7.98264C4.36975 8.06679 4.6241 7.94887 4.70825 7.71926L5.14074 6.53918L5.14206 6.53918H6.88837L7.32086 7.71926C7.40501 7.94887 7.65936 8.06679 7.88896 7.98264C8.11857 7.89849 8.23649 7.64414 8.15234 7.41453L6.70745 3.47206ZM6.56382 5.65362L6.01455 4.15492L5.46529 5.65362H6.56382Z" fill="black"/>
</svg>
