<svg width="16" height="16" viewBox="0 0 16 16" fill="none" xmlns="http://www.w3.org/2000/svg">
<path d="M1.9999 1.3999C2.33127 1.3999 2.5999 1.66853 2.5999 1.9999V12.9999C2.5999 13.2208 2.77899 13.3999 2.9999 13.3999H13.9999C14.3313 13.3999 14.5999 13.6685 14.5999 13.9999C14.5999 14.3313 14.3313 14.5999 13.9999 14.5999H2.9999C2.11625 14.5999 1.3999 13.8836 1.3999 12.9999V1.9999C1.3999 1.66853 1.66853 1.3999 1.9999 1.3999Z" fill="black"/>
<path d="M4.66689 9.3999C4.99827 9.3999 5.26689 9.66853 5.26689 9.9999V11.3332C5.26689 11.6646 4.99827 11.9332 4.66689 11.9332C4.33552 11.9332 4.06689 11.6646 4.06689 11.3332V9.9999C4.06689 9.66853 4.33552 9.3999 4.66689 9.3999Z" fill="black"/>
<path d="M7.9334 7.3334C7.9334 7.00203 7.66477 6.7334 7.3334 6.7334C7.00203 6.7334 6.7334 7.00203 6.7334 7.3334V11.3334C6.7334 11.6648 7.00203 11.9334 7.3334 11.9334C7.66477 11.9334 7.9334 11.6648 7.9334 11.3334V7.3334Z" fill="black"/>
<path d="M9.9999 1.3999C10.3313 1.3999 10.5999 1.66853 10.5999 1.9999V11.3332C10.5999 11.6646 10.3313 11.9332 9.9999 11.9332C9.66853 11.9332 9.3999 11.6646 9.3999 11.3332V1.9999C9.3999 1.66853 9.66853 1.3999 9.9999 1.3999Z" fill="black"/>
<path d="M13.2669 4.66665C13.2669 4.33528 12.9983 4.06665 12.6669 4.06665C12.3355 4.06665 12.0669 4.33528 12.0669 4.66665V11.3333C12.0669 11.6647 12.3355 11.9333 12.6669 11.9333C12.9983 11.9333 13.2669 11.6647 13.2669 11.3333V4.66665Z" fill="black"/>
</svg>
