<svg width="25" height="25" viewBox="0 0 25 25" fill="none" xmlns="http://www.w3.org/2000/svg">
<mask id="mask0_17_481" style="mask-type:alpha" maskUnits="userSpaceOnUse" x="0" y="0" width="25" height="25">
<rect x="0.461792" y="0.923462" width="24" height="24" fill="#DCDCDC"/>
</mask>
<g mask="url(#mask0_17_481)">
<path fill-rule="evenodd" clip-rule="evenodd" d="M18.1393 17.4576C20.778 14.103 20.5509 9.22937 17.4579 6.13635C14.1197 2.79819 8.70746 2.79819 5.3693 6.13635C2.03113 9.47452 2.03113 14.8868 5.36929 18.2249C8.48177 21.3374 13.3974 21.5478 16.7536 18.8562L20.1331 22.2356C20.5175 22.6201 21.1408 22.6201 21.5252 22.2356C21.9096 21.8512 21.9096 21.2279 21.5252 20.8435L18.1393 17.4576ZM16.0657 7.52849C18.635 10.0978 18.635 14.2635 16.0657 16.8328C13.4964 19.4021 9.33074 19.4021 6.76143 16.8328C4.19213 14.2635 4.19213 10.0978 6.76143 7.52849C9.33074 4.95918 13.4964 4.95918 16.0657 7.52849Z" fill="black"/>
</g>
</svg>
