<svg width="16" height="16" viewBox="0 0 16 16" fill="none" xmlns="http://www.w3.org/2000/svg">
<path d="M0.733398 2.65908C0.733398 2.32771 1.00203 2.05908 1.3334 2.05908H14.6667C14.9981 2.05908 15.2667 2.32771 15.2667 2.65908C15.2667 2.99045 14.9981 3.25908 14.6667 3.25908H1.3334C1.00203 3.25908 0.733398 2.99045 0.733398 2.65908Z" fill="black"/>
<path d="M0.733398 7.99111C0.733398 7.65974 1.00203 7.39111 1.3334 7.39111H5.00007C5.33144 7.39111 5.60007 7.65974 5.60007 7.99111C5.60007 8.32248 5.33144 8.59111 5.00007 8.59111H1.3334C1.00203 8.59111 0.733398 8.32248 0.733398 7.99111Z" fill="black"/>
<path d="M1.3334 12.7231C1.00203 12.7231 0.733398 12.9918 0.733398 13.3231C0.733398 13.6545 1.00203 13.9231 1.3334 13.9231H5.00007C5.33144 13.9231 5.60007 13.6545 5.60007 13.3231C5.60007 12.9918 5.33144 12.7231 5.00007 12.7231H1.3334Z" fill="black"/>
<path fill-rule="evenodd" clip-rule="evenodd" d="M7.06641 8.82445C7.06641 6.92828 8.60357 5.39111 10.4997 5.39111C12.3959 5.39111 13.9331 6.92828 13.9331 8.82445C13.9331 9.64198 13.6473 10.3928 13.1703 10.9824L15.0925 12.9185C15.326 13.1537 15.3246 13.5336 15.0895 13.7671C14.8543 14.0005 14.4744 13.9992 14.2409 13.764L12.2625 11.7713C11.7472 12.0802 11.1442 12.2578 10.4997 12.2578C8.60357 12.2578 7.06641 10.7206 7.06641 8.82445ZM10.4997 6.59111C9.26631 6.59111 8.26641 7.59102 8.26641 8.82445C8.26641 10.0579 9.26631 11.0578 10.4997 11.0578C11.7332 11.0578 12.7331 10.0579 12.7331 8.82445C12.7331 7.59102 11.7332 6.59111 10.4997 6.59111Z" fill="black"/>
</svg>
