<svg width="16" height="16" viewBox="0 0 16 16" fill="none" xmlns="http://www.w3.org/2000/svg">
<path d="M0.733398 2.33438C0.733398 2.003 1.00203 1.73438 1.3334 1.73438H14.6667C14.9981 1.73438 15.2667 2.003 15.2667 2.33438C15.2667 2.66575 14.9981 2.93438 14.6667 2.93438H1.3334C1.00203 2.93438 0.733398 2.66575 0.733398 2.33438Z" fill="black"/>
<path d="M0.733398 7.66641C0.733398 7.33504 1.00203 7.06641 1.3334 7.06641H5.00007C5.33144 7.06641 5.60007 7.33504 5.60007 7.66641C5.60007 7.99778 5.33144 8.26641 5.00007 8.26641H1.3334C1.00203 8.26641 0.733398 7.99778 0.733398 7.66641Z" fill="black"/>
<path d="M1.3334 12.3984C1.00203 12.3984 0.733398 12.6671 0.733398 12.9984C0.733398 13.3298 1.00203 13.5984 1.3334 13.5984H5.00007C5.33144 13.5984 5.60007 13.3298 5.60007 12.9984C5.60007 12.6671 5.33144 12.3984 5.00007 12.3984H1.3334Z" fill="black"/>
<path fill-rule="evenodd" clip-rule="evenodd" d="M7.06641 8.49974C7.06641 6.60357 8.60357 5.06641 10.4997 5.06641C12.3959 5.06641 13.9331 6.60357 13.9331 8.49974C13.9331 9.31728 13.6473 10.0681 13.1703 10.6577L15.0925 12.5938C15.326 12.829 15.3246 13.2089 15.0895 13.4424C14.8543 13.6758 14.4744 13.6745 14.2409 13.4393L12.2625 11.4466C11.7472 11.7555 11.1442 11.9331 10.4997 11.9331C8.60357 11.9331 7.06641 10.3959 7.06641 8.49974ZM10.4997 6.26641C9.26631 6.26641 8.26641 7.26631 8.26641 8.49974C8.26641 9.73317 9.26631 10.7331 10.4997 10.7331C11.7332 10.7331 12.7331 9.73317 12.7331 8.49974C12.7331 7.26631 11.7332 6.26641 10.4997 6.26641Z" fill="black"/>
</svg>
