<svg width="16" height="16" viewBox="0 0 16 16" fill="none" xmlns="http://www.w3.org/2000/svg">
<path fill-rule="evenodd" clip-rule="evenodd" d="M0.541992 12.0275V4.72764C0.541992 3.40215 1.61651 2.32764 2.94199 2.32764H4.97443C5.87993 2.32764 6.74928 2.68294 7.39557 3.31716C7.8175 3.73121 8.38506 3.96318 8.97622 3.96318H11.6643C12.8241 3.96318 13.7643 4.90338 13.7643 6.06318V6.86499H13.8684C15.0342 6.86499 15.8086 8.07174 15.3229 9.13154L13.6426 12.7983C13.382 13.367 12.8137 13.7317 12.1881 13.7317H2.14067C1.17471 13.7317 0.483807 12.9066 0.541992 12.0275ZM1.74199 4.72764C1.74199 4.0649 2.27925 3.52764 2.94199 3.52764H4.97443C5.56559 3.52764 6.13315 3.7596 6.55508 4.17365C7.20137 4.80787 8.07072 5.16318 8.97622 5.16318H11.6643C12.1613 5.16318 12.5643 5.56612 12.5643 6.06318V6.86499H4.6109C3.63061 6.86499 2.73365 7.41635 2.29103 8.29102L1.74199 9.37597V4.72764Z" fill="black"/>
</svg>
