<svg width="17" height="17" viewBox="0 0 17 17" fill="none" xmlns="http://www.w3.org/2000/svg">
<mask id="mask0_102_680" style="mask-type:alpha" maskUnits="userSpaceOnUse" x="0" y="0" width="17" height="17">
<rect x="0.069397" y="0.0600586" width="16" height="16" fill="#DCDCDC"/>
</mask>
<g mask="url(#mask0_102_680)">
<path d="M14.3853 4.71405C14.7561 4.71405 14.9414 4.48869 14.9414 4.03797C14.9414 3.81988 14.8942 3.65268 14.7997 3.53637C14.7052 3.41278 14.5707 3.35099 14.3962 3.35099H12.9459V1.84617C12.9459 1.47542 12.7206 1.29004 12.2698 1.29004C12.0445 1.29004 11.8736 1.34093 11.7573 1.4427C11.641 1.53721 11.5829 1.66806 11.5829 1.83526V3.35099H10.2525C10.0199 3.35099 9.84904 3.40915 9.73999 3.52546C9.63822 3.64178 9.58733 3.81261 9.58733 4.03797C9.58733 4.25606 9.63822 4.42326 9.73999 4.53958C9.84177 4.65589 10.009 4.71405 10.2416 4.71405H11.5829V6.19706C11.5829 6.42969 11.641 6.60053 11.7573 6.70957C11.8736 6.81135 12.0445 6.86224 12.2698 6.86224C12.4879 6.86224 12.6551 6.81135 12.7714 6.70957C12.8878 6.6078 12.9459 6.4406 12.9459 6.20797V4.71405H14.3853Z" fill="black"/>
<path fill-rule="evenodd" clip-rule="evenodd" d="M3.53596 13.2577L4.30239 11.1079H9.25615L10.2843 13.968C10.3466 14.1799 10.4401 14.3481 10.5647 14.4727C10.7018 14.6098 10.8762 14.6721 11.0881 14.6597C11.4121 14.6597 11.6178 14.56 11.705 14.3606C11.7922 14.1487 11.786 13.8932 11.6863 13.5941L7.74198 2.13508C7.67967 1.93568 7.56751 1.7799 7.4055 1.66774C7.24349 1.54312 7.03163 1.48081 6.76993 1.48081C6.52068 1.48081 6.31505 1.54312 6.15304 1.66774C6.0035 1.7799 5.89757 1.93568 5.83525 2.13508L1.90964 13.5568C1.77255 13.9805 1.77255 14.2671 1.90964 14.4167C2.04672 14.5787 2.23989 14.6597 2.48913 14.6597C2.62622 14.6597 2.74461 14.616 2.84431 14.5288C2.95647 14.454 3.04994 14.3481 3.12471 14.211C3.21195 14.0739 3.28672 13.9244 3.34903 13.7624C3.41134 13.6004 3.47365 13.4321 3.53596 13.2577ZM6.78862 3.38754L8.91967 9.79938H4.65757L6.78862 3.38754Z" fill="black"/>
</g>
</svg>
