<svg width="16" height="16" viewBox="0 0 16 16" fill="none" xmlns="http://www.w3.org/2000/svg">
<mask id="mask0_102_680" style="mask-type:alpha" maskUnits="userSpaceOnUse" x="0" y="0" width="16" height="16">
<rect width="16" height="16" fill="#DCDCDC"/>
</mask>
<g mask="url(#mask0_102_680)">
<path d="M14.3159 4.65399C14.6867 4.65399 14.872 4.42863 14.872 3.97791C14.872 3.75982 14.8248 3.59262 14.7303 3.47631C14.6358 3.35272 14.5013 3.29093 14.3268 3.29093H12.8765V1.78611C12.8765 1.41536 12.6512 1.22998 12.2004 1.22998C11.9751 1.22998 11.8042 1.28087 11.6879 1.38264C11.5716 1.47715 11.5135 1.608 11.5135 1.77521V3.29093H10.1831C9.95048 3.29093 9.77964 3.34909 9.6706 3.4654C9.56882 3.58172 9.51793 3.75255 9.51793 3.97791C9.51793 4.196 9.56882 4.36321 9.6706 4.47952C9.77237 4.59584 9.93957 4.65399 10.1722 4.65399H11.5135V6.137C11.5135 6.36963 11.5716 6.54047 11.6879 6.64951C11.8042 6.75129 11.9751 6.80218 12.2004 6.80218C12.4185 6.80218 12.5857 6.75129 12.702 6.64951C12.8184 6.54774 12.8765 6.38054 12.8765 6.14791V4.65399H14.3159Z" fill="black"/>
<path fill-rule="evenodd" clip-rule="evenodd" d="M3.46657 13.1976L4.233 11.0479H9.18675L10.2149 13.908C10.2772 14.1198 10.3707 14.2881 10.4953 14.4127C10.6324 14.5498 10.8068 14.6121 11.0187 14.5996C11.3427 14.5996 11.5484 14.4999 11.6356 14.3005C11.7228 14.0887 11.7166 13.8332 11.6169 13.5341L7.67259 2.07502C7.61027 1.87562 7.49811 1.71984 7.3361 1.60768C7.17409 1.48306 6.96224 1.42075 6.70053 1.42075C6.45128 1.42075 6.24566 1.48306 6.08365 1.60768C5.9341 1.71984 5.82817 1.87562 5.76586 2.07502L1.84024 13.4967C1.70316 13.9204 1.70316 14.207 1.84024 14.3566C1.97733 14.5186 2.17049 14.5996 2.41974 14.5996C2.55682 14.5996 2.67521 14.556 2.77491 14.4688C2.88707 14.394 2.98054 14.2881 3.05531 14.151C3.14255 14.0139 3.21732 13.8643 3.27963 13.7023C3.34194 13.5403 3.40426 13.3721 3.46657 13.1976ZM6.71922 3.32748L8.85027 9.73932H4.58817L6.71922 3.32748Z" fill="black"/>
</g>
</svg>
