<svg width="17" height="17" viewBox="0 0 17 17" fill="none" xmlns="http://www.w3.org/2000/svg">
<mask id="mask0_102_683" style="mask-type:alpha" maskUnits="userSpaceOnUse" x="0" y="0" width="17" height="17">
<rect x="0.069519" y="0.0600586" width="16" height="16" fill="#DCDCDC"/>
</mask>
<g mask="url(#mask0_102_683)">
<path fill-rule="evenodd" clip-rule="evenodd" d="M3.45597 13.3346L4.23118 11.1602H9.24166L10.2816 14.053C10.3446 14.2673 10.4391 14.4375 10.5652 14.5636C10.7038 14.7022 10.8803 14.7652 11.0946 14.7526C11.4223 14.7526 11.6303 14.6518 11.7185 14.4501C11.8068 14.2358 11.8005 13.9774 11.6996 13.6749L7.71016 2.08461C7.64713 1.88293 7.53369 1.72537 7.36982 1.61193C7.20596 1.48588 6.99167 1.42285 6.72697 1.42285C6.47487 1.42285 6.26689 1.48588 6.10302 1.61193C5.95176 1.72537 5.84462 1.88293 5.78159 2.08461L1.81102 13.6371C1.67237 14.0657 1.67237 14.3556 1.81102 14.5068C1.94968 14.6707 2.14505 14.7526 2.39715 14.7526C2.53581 14.7526 2.65556 14.7085 2.7564 14.6203C2.86984 14.5446 2.96438 14.4375 3.04001 14.2988C3.12824 14.1602 3.20387 14.0089 3.2669 13.8451C3.32992 13.6812 3.39295 13.511 3.45597 13.3346ZM6.74588 3.35141L8.90133 9.83668H4.59042L6.74588 3.35141Z" fill="black"/>
<path d="M13.8752 4.0259C14.2502 4.0259 14.4377 3.79796 14.4377 3.34208C14.4377 3.12149 14.3899 2.95238 14.2943 2.83473C14.1987 2.70973 14.0627 2.64723 13.8862 2.64723H10.2465C10.0112 2.64723 9.83841 2.70605 9.72811 2.8237C9.62517 2.94135 9.5737 3.11414 9.5737 3.34208C9.5737 3.57002 9.62517 3.74281 9.72811 3.86046C9.83106 3.97075 10.0002 4.0259 10.2355 4.0259H13.8752Z" fill="black"/>
</g>
</svg>
