<svg width="16" height="16" viewBox="0 0 16 16" fill="none" xmlns="http://www.w3.org/2000/svg">
<path fill-rule="evenodd" clip-rule="evenodd" d="M4.92494 2.4224C5.37364 1.19807 7.10523 1.19807 7.55394 2.4224L11.7284 13.8128C11.8425 14.124 11.6827 14.4686 11.3716 14.5827C11.0604 14.6967 10.7158 14.5369 10.6017 14.2258L9.02773 9.93099C9.02555 9.93101 9.02338 9.93102 9.0212 9.93102H3.74372C3.6469 9.93102 3.55544 9.90809 3.47447 9.86736L1.87714 14.2258C1.76312 14.5369 1.41845 14.6967 1.10732 14.5827C0.796186 14.4686 0.636401 14.124 0.750429 13.8128L4.92494 2.4224ZM3.89093 8.73102H8.58795L6.42722 2.83533C6.36312 2.66043 6.11576 2.66042 6.05165 2.83533L3.89093 8.73102Z" fill="black"/>
<path d="M13.0504 2.47954C13.0504 2.14817 12.7818 1.87954 12.4504 1.87954C12.1191 1.87954 11.8504 2.14817 11.8504 2.47954V4.11554H10.2144C9.88305 4.11554 9.61442 4.38417 9.61442 4.71554C9.61442 5.04691 9.88305 5.31554 10.2144 5.31554H11.8504V6.95155C11.8504 7.28292 12.1191 7.55155 12.4504 7.55155C12.7818 7.55155 13.0504 7.28292 13.0504 6.95155V5.31554H14.6864C15.0178 5.31554 15.2864 5.04691 15.2864 4.71554C15.2864 4.38417 15.0178 4.11554 14.6864 4.11554H13.0504V2.47954Z" fill="black"/>
</svg>
