<svg width="16" height="16" viewBox="0 0 16 16" fill="none" xmlns="http://www.w3.org/2000/svg">
<mask id="mask0_102_683" style="mask-type:alpha" maskUnits="userSpaceOnUse" x="0" y="0" width="16" height="16">
<rect width="16" height="16" fill="#DCDCDC"/>
</mask>
<g mask="url(#mask0_102_683)">
<path fill-rule="evenodd" clip-rule="evenodd" d="M3.38645 13.2745L4.16166 11.1001H9.17214L10.2121 13.993C10.2751 14.2073 10.3696 14.3774 10.4957 14.5035C10.6343 14.6421 10.8108 14.7052 11.0251 14.6926C11.3528 14.6926 11.5608 14.5917 11.649 14.39C11.7373 14.1758 11.731 13.9174 11.6301 13.6148L7.64064 2.02456C7.57761 1.82288 7.46417 1.66531 7.3003 1.55187C7.13644 1.42582 6.92215 1.36279 6.65745 1.36279C6.40535 1.36279 6.19737 1.42582 6.0335 1.55187C5.88224 1.66531 5.7751 1.82288 5.71207 2.02456L1.7415 13.577C1.60285 14.0056 1.60285 14.2955 1.7415 14.4468C1.88016 14.6106 2.07554 14.6926 2.32764 14.6926C2.46629 14.6926 2.58604 14.6484 2.68688 14.5602C2.80032 14.4846 2.89486 14.3774 2.97049 14.2388C3.05872 14.1001 3.13435 13.9489 3.19738 13.785C3.2604 13.6211 3.32343 13.451 3.38645 13.2745ZM6.67636 3.29136L8.83181 9.77662H4.5209L6.67636 3.29136Z" fill="black"/>
<path d="M13.8056 3.96584C14.1806 3.96584 14.3681 3.7379 14.3681 3.28202C14.3681 3.06143 14.3203 2.89232 14.2248 2.77467C14.1292 2.64967 13.9931 2.58717 13.8167 2.58717H10.177C9.94168 2.58717 9.76889 2.646 9.6586 2.76364C9.55566 2.88129 9.50418 3.05408 9.50418 3.28202C9.50418 3.50996 9.55566 3.68276 9.6586 3.8004C9.76154 3.9107 9.93065 3.96584 10.1659 3.96584H13.8056Z" fill="black"/>
</g>
</svg>
