<svg width="49" height="49" viewBox="0 0 49 49" fill="none" xmlns="http://www.w3.org/2000/svg">
<mask id="mask0_73_63" style="mask-type:alpha" maskUnits="userSpaceOnUse" x="0" y="0" width="49" height="49">
<rect x="0.412781" y="0.925049" width="48" height="48" fill="#D9D9D9"/>
</mask>
<g mask="url(#mask0_73_63)">
<path fill-rule="evenodd" clip-rule="evenodd" d="M16.6785 28.9348C15.5838 28.0886 14.8836 26.7923 14.8836 25.3393C14.8836 22.7895 17.0764 20.7225 19.7364 20.7225C22.437 20.7225 24.6634 18.6239 24.6634 16.0352L24.6635 14.0429C24.6635 11.4932 26.8198 9.42627 29.4797 9.42627C32.1396 9.42627 34.2959 11.4933 34.2959 14.043V16.0352C34.2959 18.6239 36.5223 20.7225 39.2229 20.7225C41.8828 20.7225 44.0757 22.7895 44.0757 25.3393C44.0757 26.7923 43.3754 28.0886 42.2808 28.9348L45.9479 40.7048C46.2671 41.7294 45.4665 42.7596 44.3509 42.7596H14.6084C13.4928 42.7596 12.6922 41.7294 13.0114 40.7048L16.6785 28.9348ZM30.9626 14.043V16.0352C30.9626 20.42 34.7142 23.9178 39.2229 23.9178C40.0748 23.9178 40.7424 24.5855 40.7424 25.3393C40.7424 26.1016 40.1164 26.7237 39.3303 26.7591H19.629C18.8429 26.7237 18.2169 26.1016 18.2169 25.3393C18.2169 24.5856 18.8845 23.9178 19.7364 23.9178C24.245 23.9178 27.9967 20.42 27.9968 16.0352L27.9968 14.043C27.9968 13.2579 28.6607 12.6215 29.4797 12.6215C30.2987 12.6215 30.9626 13.2579 30.9626 14.043Z" fill="black"/>
<path d="M11.5063 8.69082C11.5063 7.80716 10.79 7.09082 9.90634 7.09082C9.02268 7.09082 8.30634 7.80716 8.30634 8.69082V12.5908H4.40634C3.52268 12.5908 2.80634 13.3071 2.80634 14.1908C2.80634 15.0744 3.52268 15.7908 4.40634 15.7908H8.30634V19.6908C8.30634 20.5745 9.02268 21.2908 9.90634 21.2908C10.79 21.2908 11.5063 20.5745 11.5063 19.6908V15.7908H15.4063C16.29 15.7908 17.0063 15.0744 17.0063 14.1908C17.0063 13.3071 16.29 12.5908 15.4063 12.5908H11.5063V8.69082Z" fill="black"/>
</g>
</svg>
