<svg width="17" height="17" viewBox="0 0 17 17" fill="none" xmlns="http://www.w3.org/2000/svg">
<path d="M3.83983 6.60156C2.6334 7.60156 1.88721 8.60156 1.88721 8.60156C1.88721 8.60156 4.87197 12.6016 8.55387 12.6016C9.01051 12.6016 9.45641 12.54 9.88721 12.4323M7.23114 4.76823C7.65867 4.6621 8.10101 4.60156 8.55387 4.60156C12.2358 4.60156 15.2205 8.60156 15.2205 8.60156C15.2205 8.60156 14.4743 9.60156 13.2679 10.6016" stroke="black" stroke-width="1.2" stroke-linecap="round" stroke-linejoin="round"/>
<path d="M7.32527 7.4751C7.05324 7.7717 6.88721 8.16713 6.88721 8.60133C6.88721 9.5218 7.63341 10.268 8.55387 10.268C9.00811 10.268 9.41991 10.0863 9.72054 9.79156" stroke="black" stroke-width="1.2" stroke-linecap="round" stroke-linejoin="round"/>
<path d="M13.5547 13.4023L3.55469 3.40234" stroke="black" stroke-width="1.2" stroke-linecap="round" stroke-linejoin="round"/>
</svg>
