<svg width="17" height="17" viewBox="0 0 17 17" fill="none" xmlns="http://www.w3.org/2000/svg">
<path d="M5.94023 3.0083H5.24023C4.13566 3.0083 3.24023 3.90373 3.24023 5.0083V13.0083C3.24023 14.1129 4.13566 15.0083 5.24023 15.0083H11.2402C12.3448 15.0083 13.2402 14.1129 13.2402 13.0083V5.0083C13.2402 3.90373 12.3448 3.0083 11.2402 3.0083H10.5402" stroke="black" stroke-width="1.2"/>
<path d="M6.04004 3.0083C6.04004 2.45602 6.48775 2.0083 7.04004 2.0083H9.44004C9.99232 2.0083 10.44 2.45602 10.44 3.0083V3.0083C10.44 3.56059 9.99232 4.0083 9.44004 4.0083H7.04004C6.48775 4.0083 6.04004 3.56059 6.04004 3.0083V3.0083Z" stroke="black" stroke-width="1.2"/>
<path d="M6.54883 8.00098L5.34082 9.20898M5.34082 9.20898L6.54883 10.417M5.34082 9.20898H11.1393M11.1393 9.20898L9.93125 8.00098M11.1393 9.20898L9.93125 10.417" stroke="black" stroke-width="1.2" stroke-linecap="round" stroke-linejoin="round"/>
</svg>
