<svg width="25" height="25" viewBox="0 0 25 25" fill="none" xmlns="http://www.w3.org/2000/svg">
<mask id="mask0_17_574" style="mask-type:alpha" maskUnits="userSpaceOnUse" x="0" y="0" width="25" height="25">
<rect x="0.895874" y="0.522949" width="24" height="24" fill="#939393"/>
</mask>
<g mask="url(#mask0_17_574)">
<path fill-rule="evenodd" clip-rule="evenodd" d="M18.9617 2.52296H20.8959C22.0005 2.52296 22.8959 3.4184 22.8959 4.52296V20.523C22.8959 21.6275 22.0005 22.523 20.8959 22.523H4.89587C3.79131 22.523 2.89587 21.6276 2.89587 20.523V4.52296C2.89587 3.41839 3.7913 2.52296 4.89587 2.52296H18.9524C18.9555 2.52295 18.9586 2.52295 18.9617 2.52296ZM14.2431 9.05226L19.3376 4.52296H20.8959V5.08077L16.4798 9.05226H14.2431ZM11.233 9.05226L16.3275 4.52296H14.3376L9.24307 9.05226H11.233ZM11.3275 4.52296L6.23297 9.05226H4.89587V8.47197L9.33768 4.52296H11.3275ZM19.4707 9.05226H20.8959V7.77059L19.4707 9.05226ZM4.89587 5.79584L6.32759 4.52296H4.89587V5.79584ZM4.89587 11.0523H20.8959V20.523H4.89587V11.0523Z" fill="black"/>
</g>
</svg>
