<svg width="25" height="25" viewBox="0 0 25 25" fill="none" xmlns="http://www.w3.org/2000/svg">
<mask id="mask0_17_404" style="mask-type:alpha" maskUnits="userSpaceOnUse" x="0" y="0" width="25" height="25">
<rect x="0.867676" y="0.522949" width="24" height="24" fill="#D9D9D9"/>
</mask>
<g mask="url(#mask0_17_404)">
<path fill-rule="evenodd" clip-rule="evenodd" d="M20.8677 2.52295C21.9723 2.52295 22.8677 3.41839 22.8677 4.52295V20.5229C22.8677 21.6275 21.9723 22.5229 20.8677 22.5229H4.86768C3.76312 22.5229 2.86768 21.6275 2.86768 20.5229V4.52295C2.86768 3.41838 3.76311 2.52295 4.86768 2.52295H20.8677ZM20.8677 10.0229V7.3454L17.967 10.0229H20.8677ZM15.0184 10.0229L20.6894 4.78815C20.745 4.73684 20.8048 4.69303 20.8677 4.65667V4.52295H18.7611L12.8537 10.0229H15.0184ZM11.3677 12.0229H20.8677V20.5229H11.3677V15.5635C11.3688 15.5364 11.3688 15.5092 11.3677 15.482V12.0229ZM9.36768 20.5229V17.8406L6.5222 20.5229H9.36768ZM9.36768 13.2686V15.0921L4.86768 19.3341V17.4582L9.36768 13.2686ZM15.8261 4.52295L4.86768 14.7256V12.9684L14.2527 4.52295H15.8261ZM9.3095 4.52295H11.2628L4.86768 10.2778V8.47198L9.3095 4.52295ZM6.29942 4.52295L4.86768 5.79585V4.52295H6.29942Z" fill="black"/>
</g>
</svg>
