<svg width="16" height="17" viewBox="0 0 16 17" fill="none" xmlns="http://www.w3.org/2000/svg">
<path fill-rule="evenodd" clip-rule="evenodd" d="M12.0438 1.37891H13.3332C14.0696 1.37891 14.6666 1.99621 14.6666 2.75766V13.7876C14.6666 14.5491 14.0696 15.1664 13.3332 15.1664H2.66656C1.93018 15.1664 1.33322 14.5491 1.33322 13.7876V2.75766C1.33322 1.9962 1.93018 1.37891 2.66656 1.37891H12.0376C12.0396 1.3789 12.0417 1.3789 12.0438 1.37891ZM8.89802 5.88004L12.2944 2.75766H13.3332V3.1422L10.3892 5.88004H8.89802ZM6.89129 5.88004L10.2877 2.75766H8.96106L5.56469 5.88004H6.89129ZM6.95433 2.75766L3.55795 5.88004H2.66656V5.48L5.62776 2.75766H6.95433ZM12.3831 5.88004H13.3332V4.99649L12.3831 5.88004ZM2.66656 3.63515L3.62104 2.75766H2.66656V3.63515ZM2.66656 7.25878H13.3332V13.7876H2.66656V7.25878Z" fill="black"/>
<path fill-rule="evenodd" clip-rule="evenodd" d="M12.0438 1.37891H13.3333C14.0696 1.37891 14.6666 1.99621 14.6666 2.75766V13.7876C14.6666 14.5491 14.0696 15.1664 13.3333 15.1664H2.66659C1.93021 15.1664 1.33325 14.5491 1.33325 13.7876V2.75766C1.33325 1.9962 1.93021 1.37891 2.66659 1.37891H12.0376C12.0396 1.3789 12.0417 1.3789 12.0438 1.37891ZM8.89805 5.88004L12.2944 2.75766H13.3333V3.1422L10.3892 5.88004H8.89805ZM6.89131 5.88004L10.2877 2.75766H8.96109L5.56471 5.88004H6.89131ZM6.95435 2.75766L3.55798 5.88004H2.66659V5.48L5.62779 2.75766H6.95435ZM12.3831 5.88004H13.3333V4.99649L12.3831 5.88004ZM2.66659 3.63515L3.62107 2.75766H2.66659V3.63515ZM2.66659 7.25878H13.3333V13.7876H2.66659V7.25878Z" fill="black"/>
</svg>
