<svg width="16" height="17" viewBox="0 0 16 17" fill="none" xmlns="http://www.w3.org/2000/svg">
<mask id="mask0_102_765" style="mask-type:alpha" maskUnits="userSpaceOnUse" x="0" y="0" width="16" height="17">
<rect width="16" height="16.545" fill="#CDCDCD"/>
</mask>
<g mask="url(#mask0_102_765)">
<path fill-rule="evenodd" clip-rule="evenodd" d="M13.3332 1.37891C14.0696 1.37891 14.6666 1.9962 14.6666 2.75765V13.7876C14.6666 14.5491 14.0696 15.1664 13.3332 15.1664H2.66655C1.93018 15.1664 1.33322 14.5491 1.33322 13.7876V2.75765C1.33322 1.99619 1.93017 1.37891 2.66655 1.37891H13.3332ZM5.66655 2.75765H5.62777L2.66655 5.48001V6.69813L5.66655 3.83458V2.75765ZM6.99989 4.1331V2.75765H13.3332V13.7876H6.99989V10.3604C7.00025 10.3472 7.00025 10.3341 6.99989 10.3209V7.24154C6.9999 7.23945 6.9999 7.23737 6.99989 7.23528V4.13936C6.9999 4.13727 6.9999 4.13519 6.99989 4.1331ZM5.66655 5.71092L2.66655 8.57447V9.80031L5.66655 6.93676V5.71092ZM5.66655 8.8131L2.66655 11.6767V12.9975L5.66655 10.0454V8.8131ZM5.66655 11.9487L3.79779 13.7876H5.66655V11.9487ZM3.62105 2.75765L2.66655 3.63515V2.75765H3.62105Z" fill="black"/>
</g>
</svg>
