<svg width="17" height="17" viewBox="0 0 17 17" fill="none" xmlns="http://www.w3.org/2000/svg">
<mask id="mask0_102_724" style="mask-type:alpha" maskUnits="userSpaceOnUse" x="0" y="0" width="17" height="17">
<rect x="0.248779" y="0.439453" width="16" height="16" fill="#939393"/>
</mask>
<g mask="url(#mask0_102_724)">
<path fill-rule="evenodd" clip-rule="evenodd" d="M12.2926 1.77296H13.582C14.3184 1.77296 14.9154 2.36992 14.9154 3.10629V13.773C14.9154 14.5093 14.3184 15.1063 13.582 15.1063H2.91536C2.17899 15.1063 1.58203 14.5094 1.58203 13.773V3.10629C1.58203 2.36991 2.17898 1.77296 2.91536 1.77296H12.2864C12.2884 1.77295 12.2905 1.77295 12.2926 1.77296ZM9.14683 6.12582L12.5432 3.10629H13.582V3.47816L10.638 6.12582H9.14683ZM7.14009 6.12582L10.5365 3.10629H9.20986L5.81349 6.12582H7.14009ZM7.20313 3.10629L3.80676 6.12582H2.91536V5.73896L5.87657 3.10629H7.20313ZM12.6319 6.12582H13.582V5.27138L12.6319 6.12582ZM2.91536 3.95488L3.86984 3.10629H2.91536V3.95488ZM2.91536 7.45916H13.582V13.773H2.91536V7.45916Z" fill="black"/>
</g>
</svg>
