<svg width="17" height="17" viewBox="0 0 17 17" fill="none" xmlns="http://www.w3.org/2000/svg">
<mask id="mask0_102_721" style="mask-type:alpha" maskUnits="userSpaceOnUse" x="0" y="0" width="17" height="17">
<rect x="0.24884" y="0.439453" width="16" height="16" fill="#D9D9D9"/>
</mask>
<g mask="url(#mask0_102_721)">
<path fill-rule="evenodd" clip-rule="evenodd" d="M13.5823 1.77246C14.3187 1.77246 14.9157 2.36942 14.9157 3.10579V13.7725C14.9157 14.5089 14.3187 15.1058 13.5823 15.1058H2.91567C2.1793 15.1058 1.58234 14.5089 1.58234 13.7725V3.10579C1.58234 2.36941 2.17929 1.77246 2.91567 1.77246H13.5823ZM13.5823 6.77246V4.98742L11.6486 6.77246H13.5823ZM9.68281 6.77246L13.4635 3.2826C13.5005 3.24839 13.5404 3.21918 13.5823 3.19494V3.10579H12.178L8.23971 6.77246H9.68281ZM7.249 8.10579H13.5823V13.7725H7.249V10.4662C7.24974 10.4481 7.24974 10.4299 7.249 10.4118V8.10579ZM5.91567 13.7725V11.9843L4.01869 13.7725H5.91567ZM5.91567 8.93622V10.1519L2.91567 12.9799V11.7293L5.91567 8.93622ZM10.2213 3.10579L2.91567 9.90757V8.73607L9.17238 3.10579H10.2213ZM5.87689 3.10579H7.1791L2.91567 6.94237V5.73848L5.87689 3.10579ZM3.87016 3.10579L2.91567 3.95439V3.10579H3.87016Z" fill="black"/>
</g>
</svg>
