<svg width="25" height="25" viewBox="0 0 25 25" fill="none" xmlns="http://www.w3.org/2000/svg">
<mask id="mask0_17_473" style="mask-type:alpha" maskUnits="userSpaceOnUse" x="0" y="0" width="25" height="25">
<rect x="0.763184" y="0.923462" width="24" height="24" fill="#939393"/>
</mask>
<g mask="url(#mask0_17_473)">
<path fill-rule="evenodd" clip-rule="evenodd" d="M20.7632 2.92346C21.8678 2.92346 22.7632 3.8189 22.7632 4.92346V20.9235C22.7632 22.028 21.8678 22.9235 20.7632 22.9235H4.76319C4.55822 22.9235 4.36046 22.8926 4.17428 22.8354C3.79262 23.0075 3.32798 22.9263 3.02838 22.6017C2.74795 22.2979 2.69164 21.867 2.8513 21.5124C2.79402 21.3262 2.76319 21.1284 2.76319 20.9235V4.92346C2.76319 3.81889 3.65862 2.92346 4.76319 2.92346H20.7632ZM20.7632 10.4235V7.74592L17.8625 10.4235H20.7632ZM14.9139 10.4235L20.5849 5.18866C20.6405 5.13735 20.7003 5.09354 20.7632 5.05719V4.92346H18.6566L12.7492 10.4235H14.9139ZM11.2632 12.4235H20.7632V20.9235H11.2632V12.4235ZM9.26319 20.9235V18.2074L6.32084 20.9235H9.26319ZM9.26319 13.6691V15.4856L4.76319 19.6395V17.8587L9.26319 13.6691ZM15.7216 4.92346L4.76319 15.1261V13.3689L14.1482 4.92346H15.7216ZM4.76319 10.6783L11.1583 4.92346H9.20499L4.76319 8.87247V10.6783ZM6.19491 4.92346L4.76319 6.19634V4.92346H6.19491Z" fill="black"/>
</g>
</svg>
