<svg width="17" height="17" viewBox="0 0 17 17" fill="none" xmlns="http://www.w3.org/2000/svg">
<mask id="mask0_102_765" style="mask-type:alpha" maskUnits="userSpaceOnUse" x="0" y="0" width="17" height="17">
<rect x="0.248779" y="0.439453" width="16" height="16" fill="#CDCDCD"/>
</mask>
<g mask="url(#mask0_102_765)">
<path fill-rule="evenodd" clip-rule="evenodd" d="M13.582 1.77295C14.3184 1.77295 14.9154 2.36991 14.9154 3.10628V13.7729C14.9154 14.5093 14.3184 15.1063 13.582 15.1063H2.91536C2.17899 15.1063 1.58203 14.5093 1.58203 13.7729V3.10628C1.58203 2.3699 2.17898 1.77295 2.91536 1.77295H13.582ZM5.91536 3.10628H5.87658L2.91536 5.73897V6.91697L5.91536 4.14773V3.10628ZM7.2487 4.43642V3.10628H13.582V13.7729H7.2487V10.4586C7.24906 10.4459 7.24906 10.4331 7.2487 10.4204V7.44248C7.24871 7.44046 7.24871 7.43844 7.2487 7.43642V4.44248C7.24871 4.44046 7.24871 4.43844 7.2487 4.43642ZM5.91536 5.96228L2.91536 8.73151V9.91697L5.91536 7.14774V5.96228ZM5.91536 8.96228L2.91536 11.7315V13.0089L5.91536 10.154V8.96228ZM5.91536 11.9946L4.0466 13.7729H5.91536V11.9946ZM3.86986 3.10628L2.91536 3.95488V3.10628H3.86986Z" fill="black"/>
</g>
</svg>
