<svg width="16" height="17" viewBox="0 0 16 17" fill="none" xmlns="http://www.w3.org/2000/svg">
<mask id="mask0_102_721" style="mask-type:alpha" maskUnits="userSpaceOnUse" x="0" y="0" width="16" height="17">
<rect width="16" height="16.545" fill="#D9D9D9"/>
</mask>
<g mask="url(#mask0_102_721)">
<path fill-rule="evenodd" clip-rule="evenodd" d="M13.3335 1.37866C14.0699 1.37866 14.6668 1.99595 14.6668 2.75741V13.7874C14.6668 14.5489 14.0699 15.1661 13.3335 15.1661H2.66683C1.93046 15.1661 1.3335 14.5489 1.3335 13.7874V2.75741C1.3335 1.99595 1.93045 1.37866 2.66683 1.37866H13.3335ZM13.3335 6.54896V4.70313L11.3997 6.54896H13.3335ZM9.43397 6.54896L13.2146 2.94023C13.2517 2.90486 13.2916 2.87466 13.3335 2.84959V2.75741H11.9291L7.99087 6.54896H9.43397ZM7.00016 7.92771H13.3335V13.7874H7.00016V10.3685C7.0009 10.3498 7.0009 10.331 7.00016 10.3123V7.92771ZM5.66683 13.7874V11.9383L3.76985 13.7874H5.66683ZM5.66683 8.78641V10.0435L2.66683 12.9678V11.6747L5.66683 8.78641ZM9.97243 2.75741L2.66683 9.79085V8.57945L8.92354 2.75741H9.97243ZM5.62805 2.75741H6.93026L2.66683 6.72465V5.47976L5.62805 2.75741ZM3.62132 2.75741L2.66683 3.63491V2.75741H3.62132Z" fill="black"/>
</g>
</svg>
