<svg width="25" height="25" viewBox="0 0 25 25" fill="none" xmlns="http://www.w3.org/2000/svg">
<mask id="mask0_17_655" style="mask-type:alpha" maskUnits="userSpaceOnUse" x="0" y="0" width="25" height="25">
<rect x="0.262573" y="0.522949" width="24" height="24" fill="#CDCDCD"/>
</mask>
<g mask="url(#mask0_17_655)">
<path fill-rule="evenodd" clip-rule="evenodd" d="M20.2626 2.52295C21.3672 2.52295 22.2626 3.41839 22.2626 4.52295V20.5229C22.2626 21.6275 21.3672 22.5229 20.2626 22.5229H4.26257C3.15801 22.5229 2.26257 21.6275 2.26257 20.5229V4.52295C2.26257 3.41838 3.158 2.52295 4.26257 2.52295H20.2626ZM8.76257 4.52295H8.7044L4.26257 8.47198V10.239L8.76257 6.08513V4.52295ZM10.7626 6.51816V4.52295H20.2626V20.5229H10.7626V15.5515C10.7631 15.5324 10.7631 15.5132 10.7626 15.4941V11.0272C10.7626 11.0242 10.7626 11.0212 10.7626 11.0182V6.52725C10.7626 6.52422 10.7626 6.52119 10.7626 6.51816ZM8.76257 8.80694L4.26257 12.9608V14.739L8.76257 10.5851V8.80694ZM8.76257 13.3069L4.26257 17.4608V19.3769L8.76257 15.0945V13.3069ZM8.76257 17.8554L5.95943 20.5229H8.76257V17.8554ZM5.69432 4.52295L4.26257 5.79585V4.52295H5.69432Z" fill="black"/>
</g>
</svg>
