<svg width="16" height="16" viewBox="0 0 16 16" fill="none" xmlns="http://www.w3.org/2000/svg">
<path d="M10.4004 1.99844C10.4004 1.66707 10.669 1.39844 11.0004 1.39844H14.0004C14.3318 1.39844 14.6004 1.66707 14.6004 1.99844V4.99844C14.6004 5.32981 14.3318 5.59844 14.0004 5.59844C13.669 5.59844 13.4004 5.32981 13.4004 4.99844V3.41281L11.0907 5.72253C10.8564 5.95685 10.4765 5.95685 10.2421 5.72253C10.0078 5.48822 10.0078 5.10832 10.2421 4.87401L12.5177 2.59844H11.0004C10.669 2.59844 10.4004 2.32981 10.4004 1.99844Z" fill="black"/>
<path d="M10.2763 10.2421C10.5106 10.0078 10.8905 10.0078 11.1248 10.2421L13.4004 12.5177V10.9984C13.4004 10.6671 13.669 10.3984 14.0004 10.3984C14.3318 10.3984 14.6004 10.6671 14.6004 10.9984V13.9984C14.6004 14.3298 14.3318 14.5984 14.0004 14.5984H11.0004C10.669 14.5984 10.4004 14.3298 10.4004 13.9984C10.4004 13.6671 10.669 13.3984 11.0004 13.3984H12.5841L10.2763 11.0907C10.042 10.8564 10.042 10.4765 10.2763 10.2421Z" fill="black"/>
<path d="M5.75584 11.0928C5.99133 10.8597 5.99325 10.4798 5.76012 10.2443C5.527 10.0088 5.1471 10.0069 4.91161 10.24L2.60039 12.528V10.9984C2.60039 10.6671 2.33176 10.3984 2.00039 10.3984C1.66902 10.3984 1.40039 10.6671 1.40039 10.9984V13.9984C1.40039 14.3298 1.66902 14.5984 2.00039 14.5984H5.00039C5.33176 14.5984 5.60039 14.3298 5.60039 13.9984C5.60039 13.6671 5.33176 13.3984 5.00039 13.3984H3.4268L5.75584 11.0928Z" fill="black"/>
<path d="M1.40039 1.99844C1.40039 1.91762 1.41637 1.84053 1.44534 1.77017L1.56982 1.58058L1.57399 1.57632C1.6316 1.51812 1.69818 1.47419 1.76932 1.44455C1.84044 1.41484 1.91852 1.39844 2.00041 1.39844H5.00039C5.33176 1.39844 5.60039 1.66707 5.60039 1.99844C5.60039 2.32981 5.33176 2.59844 5.00039 2.59844H3.45933L5.75584 4.87187C5.99133 5.105 5.99325 5.48489 5.76013 5.72039C5.527 5.95588 5.1471 5.9578 4.91161 5.72467L2.60039 3.43668V4.99844C2.60039 5.32981 2.33176 5.59844 2.00039 5.59844C1.66902 5.59844 1.40039 5.32981 1.40039 4.99844V1.99844Z" fill="black"/>
</svg>
