<svg width="16" height="16" viewBox="0 0 16 16" fill="none" xmlns="http://www.w3.org/2000/svg">
<path d="M10.3999 1.9999C10.3999 1.66853 10.6685 1.3999 10.9999 1.3999H13.9999C14.3313 1.3999 14.5999 1.66853 14.5999 1.9999V4.9999C14.5999 5.33127 14.3313 5.5999 13.9999 5.5999C13.6685 5.5999 13.3999 5.33127 13.3999 4.9999V3.41428L11.0902 5.724C10.8559 5.95831 10.476 5.95831 10.2417 5.724C10.0073 5.48968 10.0073 5.10979 10.2417 4.87547L12.5172 2.5999H10.9999C10.6685 2.5999 10.3999 2.33127 10.3999 1.9999Z" fill="black"/>
<path d="M10.2758 10.2436C10.5101 10.0093 10.89 10.0093 11.1244 10.2436L13.3999 12.5191V10.9999C13.3999 10.6685 13.6685 10.3999 13.9999 10.3999C14.3313 10.3999 14.5999 10.6685 14.5999 10.9999V13.9999C14.5999 14.3313 14.3313 14.5999 13.9999 14.5999H10.9999C10.6685 14.5999 10.3999 14.3313 10.3999 13.9999C10.3999 13.6685 10.6685 13.3999 10.9999 13.3999H12.5836L10.2758 11.0921C10.0415 10.8578 10.0415 10.4779 10.2758 10.2436Z" fill="black"/>
<path d="M5.75535 11.0943C5.99085 10.8611 5.99276 10.4812 5.75964 10.2458C5.52651 10.0103 5.14661 10.0083 4.91112 10.2415L2.5999 12.5295V10.9999C2.5999 10.6685 2.33127 10.3999 1.9999 10.3999C1.66853 10.3999 1.3999 10.6685 1.3999 10.9999V13.9999C1.3999 14.3313 1.66853 14.5999 1.9999 14.5999H4.9999C5.33127 14.5999 5.5999 14.3313 5.5999 13.9999C5.5999 13.6685 5.33127 13.3999 4.9999 13.3999H3.42632L5.75535 11.0943Z" fill="black"/>
<path d="M1.3999 1.9999C1.3999 1.91908 1.41588 1.842 1.44485 1.77163L1.56933 1.58204L1.5735 1.57779C1.63111 1.51959 1.69769 1.47566 1.76883 1.44601C1.83995 1.41631 1.91803 1.3999 1.99992 1.3999H4.9999C5.33127 1.3999 5.5999 1.66853 5.5999 1.9999C5.5999 2.33127 5.33127 2.5999 4.9999 2.5999H3.45884L5.75535 4.87333C5.99085 5.10646 5.99276 5.48636 5.75964 5.72185C5.52651 5.95735 5.14661 5.95927 4.91112 5.72614L2.5999 3.43815V4.9999C2.5999 5.33127 2.33127 5.5999 1.9999 5.5999C1.66853 5.5999 1.3999 5.33127 1.3999 4.9999V1.9999Z" fill="black"/>
</svg>
