<svg width="16" height="16" viewBox="0 0 16 16" fill="none" xmlns="http://www.w3.org/2000/svg">
<path fill-rule="evenodd" clip-rule="evenodd" d="M2.71141 2.48718C2.81434 2.23868 3.05682 2.07666 3.32579 2.07666H11.7978C11.9742 2.07666 12.1433 2.14672 12.268 2.27143L13.1445 3.14785C13.4042 3.40755 13.4042 3.8286 13.1445 4.0883C12.8848 4.348 12.4637 4.348 12.204 4.0883L11.5224 3.40666H4.93124L9.05451 7.52993C9.31421 7.78963 9.31421 8.21069 9.05451 8.47039L4.93124 12.5937H11.5224L12.204 11.912C12.4637 11.6523 12.8848 11.6523 13.1445 11.912C13.4042 12.1717 13.4042 12.5928 13.1445 12.8525L12.268 13.7289C12.1433 13.8536 11.9742 13.9237 11.7978 13.9237H3.32579C3.05682 13.9237 2.81434 13.7616 2.71141 13.5131C2.60848 13.2647 2.66537 12.9786 2.85556 12.7884L7.64383 8.00016L2.85556 3.21189C2.66537 3.0217 2.60848 2.73567 2.71141 2.48718Z" fill="black"/>
</svg>
