<svg width="17" height="17" viewBox="0 0 17 17" fill="none" xmlns="http://www.w3.org/2000/svg">
<path fill-rule="evenodd" clip-rule="evenodd" d="M3.57847 2.911C3.6814 2.66251 3.92388 2.50049 4.19285 2.50049H12.6649C12.8412 2.50049 13.0104 2.57055 13.1351 2.69526L14.0115 3.57168C14.2712 3.83138 14.2712 4.25243 14.0115 4.51213C13.7518 4.77183 13.3308 4.77183 13.0711 4.51213L12.3894 3.83049H5.7983L9.92158 7.95376C10.1813 8.21346 10.1813 8.63452 9.92158 8.89421L5.7983 13.0175H12.3894L13.0711 12.3358C13.3308 12.0761 13.7518 12.0761 14.0115 12.3358C14.2712 12.5955 14.2712 13.0166 14.0115 13.2763L13.1351 14.1527C13.0104 14.2774 12.8412 14.3475 12.6649 14.3475H4.19285C3.92388 14.3475 3.6814 14.1855 3.57847 13.937C3.47554 13.6885 3.53244 13.4025 3.72263 13.2123L8.5109 8.42399L3.72263 3.63571C3.53244 3.44553 3.47554 3.1595 3.57847 2.911Z" fill="black"/>
</svg>
