<svg width="17" height="16" viewBox="0 0 17 16" fill="none" xmlns="http://www.w3.org/2000/svg">
<path fill-rule="evenodd" clip-rule="evenodd" d="M6.46611 4.94092C5.80337 4.94092 5.26611 5.47818 5.26611 6.14092V7.89193C5.26611 8.55467 5.80337 9.09193 6.46611 9.09193H7.23345V9.85927C7.23345 10.522 7.77071 11.0593 8.43345 11.0593H10.1845C10.8472 11.0593 11.3845 10.522 11.3845 9.85927V8.10826C11.3845 7.44552 10.8472 6.90826 10.1845 6.90826L9.41713 6.90826V6.14092C9.41713 5.47818 8.87987 4.94092 8.21713 4.94092H6.46611ZM6.46611 6.14092L8.21713 6.14092L8.21713 6.90826C8.21713 7.571 8.75438 8.10826 9.41713 8.10826H10.1845V9.85927H8.43345V9.09193C8.43345 8.42919 7.8962 7.89193 7.23345 7.89193H6.46611V6.14092Z" fill="black"/>
<path fill-rule="evenodd" clip-rule="evenodd" d="M1.47168 3.08148C1.47168 2.01281 2.33801 1.14648 3.40668 1.14648C4.2659 1.14648 4.99432 1.7065 5.24684 2.48145H11.4034C11.656 1.7065 12.3844 1.14648 13.2436 1.14648C14.3123 1.14648 15.1786 2.01281 15.1786 3.08148C15.1786 3.94073 14.6185 4.66917 13.8436 4.92167V11.0782C14.6185 11.3307 15.1786 12.0592 15.1786 12.9184C15.1786 13.9871 14.3123 14.8534 13.2436 14.8534C12.3843 14.8534 11.6559 14.2933 11.4034 13.5184H5.24687C4.99437 14.2933 4.26593 14.8534 3.40668 14.8534C2.33801 14.8534 1.47168 13.9871 1.47168 12.9184C1.47168 12.0592 2.0317 11.3308 2.80664 11.0782V4.92165C2.0317 4.66912 1.47168 3.9407 1.47168 3.08148ZM12.6436 11.0782C12.0575 11.2692 11.5944 11.7323 11.4034 12.3184H5.24684C5.05587 11.7323 4.59271 11.2692 4.00664 11.0782V4.92167C4.59274 4.73071 5.05591 4.26754 5.24687 3.68145H11.4034C11.5944 4.26752 12.0575 4.73067 12.6436 4.92165V11.0782ZM3.40668 2.34648C3.00075 2.34648 2.67168 2.67556 2.67168 3.08148C2.67168 3.48741 3.00075 3.81648 3.40668 3.81648C3.81261 3.81648 4.14168 3.48741 4.14168 3.08148C4.14168 2.67556 3.81261 2.34648 3.40668 2.34648ZM13.2436 12.1834C12.8377 12.1834 12.5086 12.5125 12.5086 12.9184C12.5086 13.3243 12.8377 13.6534 13.2436 13.6534C13.6495 13.6534 13.9786 13.3243 13.9786 12.9184C13.9786 12.5125 13.6495 12.1834 13.2436 12.1834ZM2.67168 12.9184C2.67168 12.5125 3.00075 12.1834 3.40668 12.1834C3.81261 12.1834 4.14168 12.5125 4.14168 12.9184C4.14168 13.3243 3.81261 13.6534 3.40668 13.6534C3.00075 13.6534 2.67168 13.3243 2.67168 12.9184ZM13.2436 2.34648C12.8377 2.34648 12.5086 2.67556 12.5086 3.08148C12.5086 3.48741 12.8377 3.81648 13.2436 3.81648C13.6495 3.81648 13.9786 3.48741 13.9786 3.08148C13.9786 2.67556 13.6495 2.34648 13.2436 2.34648Z" fill="black"/>
</svg>
