<svg width="16" height="16" viewBox="0 0 16 16" fill="none" xmlns="http://www.w3.org/2000/svg">
<path d="M2.5999 2.66689C2.5999 2.33552 2.33127 2.06689 1.9999 2.06689C1.66853 2.06689 1.3999 2.33552 1.3999 2.66689V13.3336C1.3999 13.6649 1.66853 13.9336 1.9999 13.9336C2.33127 13.9336 2.5999 13.6649 2.5999 13.3336V8.5999H7.3999V13.3336C7.3999 13.6649 7.66853 13.9336 7.9999 13.9336C8.33127 13.9336 8.5999 13.6649 8.5999 13.3336V2.66689C8.5999 2.33552 8.33127 2.06689 7.9999 2.06689C7.66853 2.06689 7.3999 2.33552 7.3999 2.66689V7.3999H2.5999V2.66689Z" fill="black"/>
<path d="M10.6669 6.40332C10.3355 6.40332 10.0669 6.67195 10.0669 7.00332V9.34492C10.0669 9.67629 10.3355 9.94492 10.6669 9.94492C10.7822 9.94492 10.8899 9.91238 10.9814 9.85599C10.9901 9.85195 11.0027 9.84632 11.0192 9.83936C11.0764 9.81533 11.1692 9.78033 11.2927 9.74447C11.5397 9.67268 11.8996 9.60022 12.3336 9.60022C12.4975 9.60022 12.5978 9.63412 12.6624 9.67167C12.7263 9.70877 12.79 9.76953 12.8503 9.87834C12.983 10.1181 13.0669 10.5337 13.0669 11.1669C13.0669 11.8061 12.9802 12.1936 12.8338 12.414C12.7252 12.5775 12.5275 12.7336 12.0002 12.7336C11.6445 12.7336 11.4936 12.622 11.4192 12.5328C11.3289 12.4245 11.2669 12.2453 11.2669 12.0028C11.2669 11.6714 10.9983 11.4028 10.6669 11.4028C10.3355 11.4028 10.0669 11.6714 10.0669 12.0028C10.0669 12.4244 10.1716 12.9106 10.4979 13.3016C10.8401 13.7118 11.356 13.9336 12.0002 13.9336C12.8063 13.9336 13.4419 13.6673 13.8334 13.0779C14.1869 12.5456 14.2669 11.8497 14.2669 11.1669C14.2669 10.4781 14.1841 9.81027 13.9002 9.29724C13.7521 9.02964 13.545 8.79662 13.2651 8.63403C12.986 8.4719 12.6697 8.40022 12.3336 8.40022C11.9239 8.40022 11.5627 8.44957 11.2669 8.51389V7.60332H13.3336C13.6649 7.60332 13.9336 7.33469 13.9336 7.00332C13.9336 6.67195 13.6649 6.40332 13.3336 6.40332H10.6669Z" fill="black"/>
</svg>
