<svg width="16" height="16" viewBox="0 0 16 16" fill="none" xmlns="http://www.w3.org/2000/svg">
<path d="M1.9999 2.06689C2.33127 2.06689 2.5999 2.33552 2.5999 2.66689V7.3999H7.3999V2.66689C7.3999 2.33552 7.66853 2.06689 7.9999 2.06689C8.33127 2.06689 8.5999 2.33552 8.5999 2.66689V13.3336C8.5999 13.6649 8.33127 13.9336 7.9999 13.9336C7.66853 13.9336 7.3999 13.6649 7.3999 13.3336V8.5999H2.5999V13.3336C2.5999 13.6649 2.33127 13.9336 1.9999 13.9336C1.66853 13.9336 1.3999 13.6649 1.3999 13.3336V2.66689C1.3999 2.33552 1.66853 2.06689 1.9999 2.06689Z" fill="black"/>
<path fill-rule="evenodd" clip-rule="evenodd" d="M10.9334 9.40216C11.295 9.18911 11.7166 9.06689 12.1667 9.06689C13.5106 9.06689 14.6001 10.1563 14.6001 11.5002C14.6001 12.8441 13.5106 13.9336 12.1667 13.9336C10.8228 13.9336 9.7334 12.8441 9.7334 11.5002C9.7334 11.4628 9.73424 11.4256 9.73592 11.3886C9.73425 11.3703 9.7334 11.3519 9.7334 11.3332V8.9999C9.7334 7.61418 10.7747 6.3999 12.1667 6.3999C13.2187 6.3999 14.0795 7.10372 14.4276 8.03653C14.5435 8.34699 14.3857 8.69258 14.0752 8.80844C13.7648 8.92429 13.4192 8.76653 13.3033 8.45607C13.1058 7.92681 12.651 7.5999 12.1667 7.5999C11.5336 7.5999 10.9334 8.17649 10.9334 8.9999V9.40216ZM12.1667 10.2669C11.4856 10.2669 10.9334 10.8191 10.9334 11.5002C10.9334 12.1814 11.4856 12.7336 12.1667 12.7336C12.8479 12.7336 13.4001 12.1814 13.4001 11.5002C13.4001 10.8191 12.8479 10.2669 12.1667 10.2669Z" fill="black"/>
</svg>
