<svg width="16" height="16" viewBox="0 0 16 16" fill="none" xmlns="http://www.w3.org/2000/svg">
<path d="M5.48242 6.2793C5.48242 4.88888 6.60958 3.76172 8 3.76172C9.39042 3.76172 10.5176 4.88888 10.5176 6.2793C10.5176 7.46294 9.70073 8.45581 8.6 8.72494V9.47526C8.6 9.80663 8.33137 10.0753 8 10.0753C7.66863 10.0753 7.4 9.80663 7.4 9.47526V8.19687C7.4 7.8655 7.66863 7.59687 8 7.59687C8.72768 7.59687 9.31758 7.00697 9.31758 6.2793C9.31758 5.55162 8.72768 4.96172 8 4.96172C7.27232 4.96172 6.68242 5.55162 6.68242 6.2793C6.68242 6.61067 6.41379 6.8793 6.08242 6.8793C5.75105 6.8793 5.48242 6.61067 5.48242 6.2793Z" fill="black"/>
<path d="M8.79915 11.5568C8.79915 11.9981 8.44143 12.3558 8.00016 12.3558C7.5589 12.3558 7.20117 11.9981 7.20117 11.5568C7.20117 11.1155 7.5589 10.7578 8.00016 10.7578C8.44143 10.7578 8.79915 11.1155 8.79915 11.5568Z" fill="black"/>
<path fill-rule="evenodd" clip-rule="evenodd" d="M3.0557 3.0557C4.32035 1.79107 6.06915 1.00781 7.99974 1.00781C9.93033 1.00781 11.6791 1.79107 12.9438 3.0557C14.2084 4.32034 14.9917 6.06915 14.9917 7.99974C14.9917 9.93033 14.2084 11.6791 12.9438 12.9438C11.6791 14.2084 9.93033 14.9917 7.99974 14.9917C6.06915 14.9917 4.32035 14.2084 3.0557 12.9438C1.79107 11.6791 1.00781 9.93033 1.00781 7.99974C1.00781 6.06915 1.79108 4.32034 3.0557 3.0557ZM7.99974 2.20781C6.40019 2.20781 4.95303 2.85544 3.90422 3.90423C2.85543 4.95304 2.20781 6.40019 2.20781 7.99974C2.20781 9.59929 2.85544 11.0464 3.90423 12.0952C4.95303 13.144 6.4002 13.7917 7.99974 13.7917C9.59928 13.7917 11.0464 13.144 12.0952 12.0952C13.144 11.0464 13.7917 9.59928 13.7917 7.99974C13.7917 6.4002 13.144 4.95303 12.0952 3.90423C11.0464 2.85544 9.59929 2.20781 7.99974 2.20781Z" fill="black"/>
</svg>
