<svg width="16" height="16" viewBox="0 0 16 16" fill="none" xmlns="http://www.w3.org/2000/svg">
<path fill-rule="evenodd" clip-rule="evenodd" d="M3.42514 2.37642C3.19083 2.1421 2.81093 2.1421 2.57661 2.37642C2.3423 2.61073 2.3423 2.99063 2.57661 3.22495L6.10616 6.75449C5.87075 7.11191 5.7334 7.54042 5.7334 8.00016C5.7334 9.252 6.74823 10.2668 8.00007 10.2668C8.45992 10.2668 8.88834 10.1294 9.24572 9.89405L12.5766 13.2249C12.8109 13.4593 13.1908 13.4593 13.4251 13.2249C13.6595 12.9906 13.6595 12.6107 13.4251 12.3764L3.42514 2.37642ZM8.35734 9.00568L6.99454 7.64287C6.95491 7.75447 6.9334 7.87467 6.9334 8.00016C6.9334 8.58926 7.41097 9.06683 8.00007 9.06683C8.12551 9.06683 8.24571 9.04532 8.35734 9.00568Z" fill="black"/>
<path d="M7.99993 4.5999C7.60078 4.5999 7.2071 4.65323 6.82176 4.74889C6.50015 4.82873 6.17471 4.63274 6.09487 4.31113C6.01503 3.98952 6.21103 3.66408 6.53264 3.58424C7.00236 3.46764 7.49335 3.3999 7.99993 3.3999C10.6597 3.3999 12.9156 5.26247 14.1045 6.46122C14.9601 7.32381 14.9595 8.67664 14.1042 9.53892C13.8192 9.82627 13.4807 10.1437 13.0969 10.4618C12.8417 10.6733 12.4635 10.6379 12.252 10.3828C12.0406 10.1277 12.0759 9.74943 12.3311 9.53796C12.6804 9.24842 12.9901 8.9581 13.2522 8.69384C13.6438 8.29909 13.6438 7.70075 13.2525 7.30627C12.0938 6.13804 10.1413 4.5999 7.99993 4.5999Z" fill="black"/>
<path d="M3.74782 5.617C3.95929 5.87213 3.92391 6.25037 3.66878 6.46184C3.31948 6.75138 3.00974 7.0417 2.74762 7.30596C2.35606 7.70071 2.35605 8.29905 2.74731 8.69353C3.90602 9.86176 5.85854 11.3999 7.99993 11.3999C8.40241 11.3999 8.7993 11.3457 9.18766 11.2485C9.50912 11.1681 9.83491 11.3635 9.91533 11.685C9.99574 12.0065 9.80034 12.3323 9.47887 12.4127C9.00563 12.531 8.51072 12.5999 7.99993 12.5999C5.34021 12.5999 3.0843 10.7373 1.89532 9.53858C1.03975 8.67599 1.04034 7.32317 1.89565 6.46089C2.18068 6.17354 2.51913 5.85614 2.90299 5.53796C3.15811 5.32649 3.53636 5.36188 3.74782 5.617Z" fill="black"/>
</svg>
