<svg width="25" height="25" viewBox="0 0 25 25" fill="none" xmlns="http://www.w3.org/2000/svg">
<mask id="mask0_17_429" style="mask-type:alpha" maskUnits="userSpaceOnUse" x="0" y="0" width="25" height="25">
<rect x="0.708374" y="0.836792" width="24" height="24" fill="#DCDCDC"/>
</mask>
<g mask="url(#mask0_17_429)">
<path d="M3.35194 3.89621C2.72037 3.89621 2.20837 4.4082 2.20837 5.03977C2.20837 5.67135 2.72037 6.18334 3.35194 6.18334H22.0648C22.6964 6.18334 23.2084 5.67135 23.2084 5.03977C23.2084 4.4082 22.6964 3.89621 22.0648 3.89621H3.35194Z" fill="black"/>
<path d="M3.35194 9.09423C2.72037 9.09423 2.20837 9.60622 2.20837 10.2378C2.20837 10.8694 2.72037 11.3814 3.35194 11.3814H17.9064C18.538 11.3814 19.05 10.8694 19.05 10.2378C19.05 9.60622 18.538 9.09423 17.9064 9.09423H3.35194Z" fill="black"/>
<path d="M2.20837 15.4358C2.20837 14.8042 2.72037 14.2923 3.35194 14.2923H22.0648C22.6964 14.2923 23.2084 14.8042 23.2084 15.4358C23.2084 16.0674 22.6964 16.5794 22.0648 16.5794H3.35194C2.72037 16.5794 2.20837 16.0674 2.20837 15.4358Z" fill="black"/>
<path d="M3.35194 19.4903C2.72037 19.4903 2.20837 20.0023 2.20837 20.6338C2.20837 21.2654 2.72037 21.7774 3.35194 21.7774H17.9064C18.538 21.7774 19.05 21.2654 19.05 20.6338C19.05 20.0023 18.538 19.4903 17.9064 19.4903H3.35194Z" fill="black"/>
</g>
</svg>
