<svg width="17" height="17" viewBox="0 0 17 17" fill="none" xmlns="http://www.w3.org/2000/svg">
<mask id="mask0_102_824" style="mask-type:alpha" maskUnits="userSpaceOnUse" x="0" y="0" width="17" height="17">
<rect width="16" height="16" transform="matrix(-1 -8.74228e-08 -8.74228e-08 1 16.8824 0.32959)" fill="#D9D9D9"/>
</mask>
<g mask="url(#mask0_102_824)">
<path d="M14.8825 2.67969C15.2415 2.67969 15.5325 2.9707 15.5325 3.32969C15.5325 3.68867 15.2415 3.97969 14.8825 3.97969L2.88247 3.97969C2.52349 3.97969 2.23247 3.68867 2.23247 3.32969C2.23247 2.9707 2.52349 2.67969 2.88247 2.67969L14.8825 2.67969Z" fill="black"/>
<path d="M13.5825 6.01306C13.9415 6.01306 14.2325 6.30408 14.2325 6.66306C14.2325 7.02205 13.9415 7.31306 13.5825 7.31306L4.24913 7.31306C3.89015 7.31306 3.59913 7.02205 3.59913 6.66306C3.59913 6.30408 3.89015 6.01306 4.24913 6.01306L13.5825 6.01306Z" fill="black"/>
<path d="M15.5325 9.99631C15.5325 9.63733 15.2415 9.34631 14.8825 9.34631L2.88247 9.34631C2.52348 9.34631 2.23247 9.63733 2.23247 9.99631C2.23247 10.3553 2.52348 10.6463 2.88247 10.6463L14.8825 10.6463C15.2415 10.6463 15.5325 10.3553 15.5325 9.99631Z" fill="black"/>
<path d="M13.5825 12.6797C13.9415 12.6797 14.2325 12.9707 14.2325 13.3297C14.2325 13.6887 13.9415 13.9797 13.5825 13.9797L4.24913 13.9797C3.89015 13.9797 3.59913 13.6887 3.59913 13.3297C3.59913 12.9707 3.89015 12.6797 4.24913 12.6797L13.5825 12.6797Z" fill="black"/>
</g>
</svg>
