<svg width="16" height="16" viewBox="0 0 16 16" fill="none" xmlns="http://www.w3.org/2000/svg">
<mask id="mask0_208_115" style="mask-type:alpha" maskUnits="userSpaceOnUse" x="0" y="0" width="16" height="16">
<rect x="15.9998" width="15.9998" height="15.9998" transform="rotate(90 15.9998 0)" fill="#DCDCDC"/>
</mask>
<g mask="url(#mask0_208_115)">
<path fill-rule="evenodd" clip-rule="evenodd" d="M13.3334 1.33325C14.0698 1.33325 14.6667 1.9302 14.6667 2.66657L14.6667 5.3332C14.6667 6.06957 14.0698 6.66652 13.3334 6.66652L2.6669 6.66652C1.93053 6.66652 1.33358 6.06957 1.33358 5.3332L1.33358 2.66657C1.33358 1.9302 1.93053 1.33325 2.6669 1.33325L13.3334 1.33325ZM13.3334 2.66657L13.3334 5.3332L10.6739 5.3332L10.6739 2.66657L13.3334 2.66657ZM9.34056 2.66657L6.65977 2.66657L6.65977 5.3332L9.34056 5.3332L9.34056 2.66657ZM2.6669 2.66657L5.32645 2.66657L5.32645 5.3332L2.6669 5.3332L2.6669 2.66657Z" fill="black"/>
<path fill-rule="evenodd" clip-rule="evenodd" d="M13.3334 9.33315C14.0698 9.33315 14.6667 9.9301 14.6667 10.6665L14.6667 13.3331C14.6667 14.0695 14.0698 14.6664 13.3334 14.6664L2.6669 14.6664C1.93053 14.6664 1.33358 14.0695 1.33358 13.3331L1.33358 10.6665C1.33358 9.9301 1.93053 9.33315 2.6669 9.33315L13.3334 9.33315ZM13.3334 10.6665L13.3334 13.3331L10.6739 13.3331L10.6739 10.6665L13.3334 10.6665ZM9.34056 10.6665L6.65977 10.6665L6.65977 13.3331L9.34056 13.3331L9.34056 10.6665ZM2.6669 10.6665L5.32645 10.6665L5.32645 13.3331L2.6669 13.3331L2.6669 10.6665Z" fill="black"/>
</g>
</svg>
