<svg width="16" height="16" viewBox="0 0 16 16" fill="none" xmlns="http://www.w3.org/2000/svg">
<path d="M1.9999 1.89941C1.66853 1.89941 1.3999 2.16804 1.3999 2.49941C1.3999 2.83078 1.66853 3.09941 1.9999 3.09941H13.9999C14.3313 3.09941 14.5999 2.83078 14.5999 2.49941C14.5999 2.16804 14.3313 1.89941 13.9999 1.89941H1.9999Z" fill="black"/>
<path d="M3.33315 5.56641C3.00178 5.56641 2.73315 5.83504 2.73315 6.16641C2.73315 6.49778 3.00178 6.76641 3.33315 6.76641H12.6665C12.9979 6.76641 13.2665 6.49778 13.2665 6.16641C13.2665 5.83504 12.9979 5.56641 12.6665 5.56641H3.33315Z" fill="black"/>
<path d="M1.3999 9.8334C1.3999 9.50203 1.66853 9.2334 1.9999 9.2334H13.9999C14.3313 9.2334 14.5999 9.50203 14.5999 9.8334C14.5999 10.1648 14.3313 10.4334 13.9999 10.4334H1.9999C1.66853 10.4334 1.3999 10.1648 1.3999 9.8334Z" fill="black"/>
<path d="M3.33315 12.9004C3.00178 12.9004 2.73315 13.169 2.73315 13.5004C2.73315 13.8318 3.00178 14.1004 3.33315 14.1004H12.6665C12.9979 14.1004 13.2665 13.8318 13.2665 13.5004C13.2665 13.169 12.9979 12.9004 12.6665 12.9004H3.33315Z" fill="black"/>
</svg>
