<svg width="17" height="17" viewBox="0 0 17 17" fill="none" xmlns="http://www.w3.org/2000/svg">
<mask id="mask0_208_115" style="mask-type:alpha" maskUnits="userSpaceOnUse" x="0" y="0" width="17" height="17">
<rect x="16.8744" y="0.600098" width="15.9998" height="15.9998" transform="rotate(90 16.8744 0.600098)" fill="#DCDCDC"/>
</mask>
<g mask="url(#mask0_208_115)">
<path fill-rule="evenodd" clip-rule="evenodd" d="M14.2081 1.93335C14.9444 1.93335 15.5414 2.5303 15.5414 3.26667L15.5414 5.9333C15.5414 6.66967 14.9444 7.26661 14.2081 7.26661L3.54153 7.26661C2.80517 7.26661 2.20822 6.66967 2.20822 5.9333L2.20822 3.26667C2.20822 2.5303 2.80516 1.93335 3.54153 1.93335L14.2081 1.93335ZM14.2081 3.26667L14.2081 5.9333L11.5485 5.9333L11.5485 3.26667L14.2081 3.26667ZM10.2152 3.26667L7.5344 3.26667L7.5344 5.9333L10.2152 5.9333L10.2152 3.26667ZM3.54153 3.26667L6.20109 3.26667L6.20109 5.9333L3.54153 5.9333L3.54153 3.26667Z" fill="black"/>
<path fill-rule="evenodd" clip-rule="evenodd" d="M14.2081 9.93325C14.9444 9.93325 15.5414 10.5302 15.5414 11.2666L15.5414 13.9332C15.5414 14.6696 14.9444 15.2665 14.2081 15.2665L3.54153 15.2665C2.80516 15.2665 2.20822 14.6696 2.20822 13.9332L2.20822 11.2666C2.20822 10.5302 2.80516 9.93325 3.54153 9.93325L14.2081 9.93325ZM14.2081 11.2666L14.2081 13.9332L11.5485 13.9332L11.5485 11.2666L14.2081 11.2666ZM10.2152 11.2666L7.5344 11.2666L7.5344 13.9332L10.2152 13.9332L10.2152 11.2666ZM3.54153 11.2666L6.20109 11.2666L6.20109 13.9332L3.54153 13.9332L3.54153 11.2666Z" fill="black"/>
</g>
</svg>
