<svg width="16" height="16" viewBox="0 0 16 16" fill="none" xmlns="http://www.w3.org/2000/svg">
<path fill-rule="evenodd" clip-rule="evenodd" d="M5.91296 6.82256L5.89774 6.82237L2.83868 6.8223C1.89982 6.82228 1.13874 6.06119 1.13872 5.12234L1.13867 3.32265C1.13865 2.38375 1.89977 1.62261 2.83866 1.62261L5.90639 1.62259L5.91296 1.62256L5.91953 1.62259L10.0821 1.62258L10.0868 1.62256L10.0914 1.62258L13.1607 1.62256C14.0996 1.62256 14.8607 2.38368 14.8607 3.32256V5.12253C14.8607 6.06143 14.0996 6.82256 13.1607 6.82253L10.0975 6.82246L10.0868 6.82256L10.076 6.82246L5.92815 6.82237L5.91296 6.82256ZM10.6868 5.62248L13.1607 5.62253C13.4368 5.62254 13.6607 5.39868 13.6607 5.12253V3.32256C13.6607 3.04642 13.4368 2.82256 13.1607 2.82256L10.6868 2.82257V5.62248ZM9.48679 2.82258V5.62245L6.51296 5.62238V2.82259L9.48679 2.82258ZM5.31296 2.8226V5.62236L2.8387 5.6223C2.56257 5.62229 2.33872 5.39845 2.33872 5.12231L2.33867 3.32262C2.33867 3.04647 2.56252 2.82261 2.83867 2.82261L5.31296 2.8226Z" fill="black"/>
<path fill-rule="evenodd" clip-rule="evenodd" d="M1.1387 10.8773L1.13878 12.6773C1.13883 13.6162 1.89994 14.3772 2.8388 14.3772L5.90638 14.3772L5.91296 14.3772L5.91955 14.3772L10.0775 14.3772C10.0806 14.3772 10.0837 14.3772 10.0868 14.3772C10.0899 14.3772 10.093 14.3772 10.0961 14.3772L13.1607 14.3772C14.0996 14.3771 14.8607 13.616 14.8607 12.6772V10.8772C14.8607 9.93836 14.0996 9.17725 13.1607 9.17725H2.8387C1.89978 9.17725 1.13865 9.93841 1.1387 10.8773ZM9.48679 10.3772H6.51296V13.1772L9.48679 13.1772V10.3772ZM10.6868 13.1772V10.3772H13.1607C13.4369 10.3772 13.6607 10.6011 13.6607 10.8772V12.6772C13.6607 12.9533 13.4369 13.1771 13.1607 13.1772L10.6868 13.1772ZM5.31296 13.1772V10.3772H2.8387C2.56254 10.3772 2.33868 10.6011 2.3387 10.8773L2.33878 12.6773C2.33879 12.9534 2.56265 13.1772 2.83879 13.1772L5.31296 13.1772Z" fill="black"/>
</svg>
