<svg width="25" height="25" viewBox="0 0 25 25" fill="none" xmlns="http://www.w3.org/2000/svg">
<mask id="mask0_17_610" style="mask-type:alpha" maskUnits="userSpaceOnUse" x="0" y="0" width="25" height="25">
<rect x="0.903809" y="0.537476" width="24" height="24" fill="#DCDCDC"/>
</mask>
<g mask="url(#mask0_17_610)">
<path fill-rule="evenodd" clip-rule="evenodd" d="M2.90381 18.5375V20.5375C2.90381 21.642 3.79924 22.5375 4.90381 22.5375H6.90381V20.5375H4.90381L4.90381 18.5375H2.90381ZM6.90381 2.53748H4.90381C3.79924 2.53748 2.90381 3.43291 2.90381 4.53748V6.53748H4.90381V4.53748L6.90381 4.53748V2.53748ZM2.90381 14.5375H4.90381V10.5375H2.90381V14.5375ZM10.9038 2.53748V4.53748H14.9038V2.53748H10.9038ZM18.9038 2.53748V4.53748H20.9038V6.53748H22.9038V4.53748C22.9038 3.43291 22.0084 2.53748 20.9038 2.53748H18.9038ZM22.9038 10.5375H20.9038V14.5375H22.9038V10.5375ZM22.9038 18.5375H20.9038V20.5375H18.9038V22.5375H20.9038C22.0084 22.5375 22.9038 21.642 22.9038 20.5375V18.5375ZM14.9038 22.5375V20.5375H10.9038V22.5375H14.9038Z" fill="#999999"/>
<path d="M13.9038 11.5375V4.53748H11.9038V11.5375H4.90381V13.5375H11.9038V20.5375H13.9038V13.5375H20.9038V11.5375H13.9038Z" fill="black"/>
</g>
</svg>
