<svg width="16" height="16" viewBox="0 0 16 16" fill="none" xmlns="http://www.w3.org/2000/svg">
<path d="M13.0336 1.73242C13.365 1.73242 13.6336 2.00105 13.6336 2.33242L13.6336 12.2189L14.6093 11.2431C14.8436 11.0088 15.2235 11.0088 15.4579 11.2431C15.6922 11.4774 15.6922 11.8573 15.4579 12.0916L13.4579 14.0916C13.2235 14.326 12.8436 14.326 12.6093 14.0916L10.6093 12.0916C10.375 11.8573 10.375 11.4774 10.6093 11.2431C10.8436 11.0088 11.2235 11.0088 11.4579 11.2431L12.4336 12.2189L12.4336 2.33242C12.4336 2.00105 12.7022 1.73242 13.0336 1.73242Z" fill="black"/>
<path fill-rule="evenodd" clip-rule="evenodd" d="M7.86664 3.3999L2.06667 3.39999C1.12778 3.4 0.366674 4.16114 0.366699 5.10003L0.366774 7.93809L0.366699 7.94766L0.366774 7.95726L0.366852 10.8999C0.366877 11.8388 1.12799 12.5999 2.06685 12.5999H4.9506C4.95595 12.6 4.96132 12.6001 4.9667 12.6001C4.97208 12.6001 4.97745 12.6 4.9828 12.5999H7.86667C8.80555 12.5999 9.56667 11.8388 9.56667 10.8999V7.95358L9.5667 7.94766L9.56667 7.94174V5.0999C9.56667 4.16101 8.80554 3.39989 7.86664 3.3999ZM5.5667 11.3999H7.86667C8.14281 11.3999 8.36667 11.176 8.36667 10.8999V8.54766H5.5667V11.3999ZM5.5667 7.34766H8.36667V5.0999C8.36667 4.82376 8.14281 4.5999 7.86666 4.5999L5.5667 4.59994V7.34766ZM4.3667 4.59995V7.34766H1.56676L1.5667 5.1C1.56669 4.82386 1.79055 4.59999 2.06669 4.59999L4.3667 4.59995ZM4.3667 8.54766V11.3999H2.06685C1.79071 11.3999 1.56686 11.176 1.56685 10.8999L1.56679 8.54766H4.3667Z" fill="black"/>
</svg>
