<svg width="16" height="16" viewBox="0 0 16 16" fill="none" xmlns="http://www.w3.org/2000/svg">
<path d="M8.00006 1.84521C8.33143 1.84521 8.60006 2.11384 8.60006 2.44521V4.08122H10.2361C10.5674 4.08122 10.8361 4.34985 10.8361 4.68122C10.8361 5.01259 10.5674 5.28122 10.2361 5.28122H8.60006V6.91722C8.60006 7.24859 8.33143 7.51722 8.00006 7.51722C7.66869 7.51722 7.40006 7.24859 7.40006 6.91722V5.28122H5.76406C5.43268 5.28122 5.16406 5.01259 5.16406 4.68122C5.16406 4.34985 5.43268 4.08122 5.76406 4.08122H7.40006V2.44521C7.40006 2.11384 7.66869 1.84521 8.00006 1.84521Z" fill="black"/>
<path fill-rule="evenodd" clip-rule="evenodd" d="M2.83926 14.1549L5.90761 14.1548L5.91323 14.1549L5.91887 14.1548L10.0784 14.1548L10.0871 14.1549L10.0957 14.1548L13.1612 14.1548C14.1001 14.1548 14.8612 13.3936 14.8612 12.4548V10.6549C14.8612 9.71598 14.1001 8.95486 13.1612 8.95486H10.0904L10.0871 8.95485L10.0837 8.95486H5.91656L5.91323 8.95485L5.9099 8.95486H2.83916C1.90025 8.95486 1.13912 9.71602 1.13916 10.6549L1.13924 12.4549C1.13929 13.3938 1.9004 14.1549 2.83926 14.1549ZM9.48706 10.1549H6.51323V12.9548L9.48706 12.9548V10.1549ZM10.6871 12.9548L13.1612 12.9548C13.4373 12.9548 13.6612 12.7309 13.6612 12.4548V10.6549C13.6612 10.3787 13.4373 10.1549 13.1612 10.1549H10.6871V12.9548ZM2.83916 10.1549H5.31323V12.9548L2.83925 12.9549C2.56311 12.9549 2.33926 12.731 2.33924 12.4549L2.33916 10.6549C2.33915 10.3787 2.56301 10.1549 2.83916 10.1549Z" fill="black"/>
</svg>
