<svg width="16" height="16" viewBox="0 0 16 16" fill="none" xmlns="http://www.w3.org/2000/svg">
<path d="M8.00028 14.1549C7.66891 14.1549 7.40028 13.8862 7.40028 13.5549V11.9188H5.76428C5.43291 11.9188 5.16428 11.6502 5.16428 11.3188C5.16428 10.9875 5.43291 10.7188 5.76428 10.7188H7.40028V9.08284C7.40028 8.75147 7.66891 8.48284 8.00028 8.48284C8.33165 8.48284 8.60028 8.75147 8.60028 9.08284V10.7188H10.2363C10.5677 10.7188 10.8363 10.9875 10.8363 11.3188C10.8363 11.6502 10.5677 11.9188 10.2363 11.9188H8.60028V13.5549C8.60028 13.8862 8.33165 14.1549 8.00028 14.1549Z" fill="black"/>
<path fill-rule="evenodd" clip-rule="evenodd" d="M13.1611 1.84521L10.093 1.84524L10.0874 1.84521L10.0817 1.84524L5.92215 1.84528L5.91352 1.84521L5.90488 1.84528L2.83915 1.8453C1.90027 1.84531 1.13916 2.60642 1.13916 3.5453V5.34521C1.13916 6.28409 1.90028 7.04521 2.83916 7.04521H5.91019L5.91352 7.04521L5.91685 7.04521H10.084L10.0874 7.04521L10.0907 7.04521H13.1612C14.1001 7.04521 14.8612 6.28404 14.8612 5.34513L14.8611 3.54513C14.8611 2.60628 14.0999 1.84521 13.1611 1.84521ZM6.51352 5.84521H9.48735V3.04525L6.51352 3.04527V5.84521ZM5.31352 3.04528L2.83916 3.0453C2.56302 3.0453 2.33916 3.26916 2.33916 3.5453V5.34521C2.33916 5.62135 2.56302 5.84521 2.83916 5.84521H5.31352V3.04528ZM13.1612 5.84521H10.6874V3.04524L13.1611 3.04521C13.4372 3.04521 13.6611 3.26906 13.6611 3.54519L13.6612 5.34518C13.6612 5.62133 13.4373 5.84521 13.1612 5.84521Z" fill="black"/>
</svg>
