<svg width="17" height="17" viewBox="0 0 17 17" fill="none" xmlns="http://www.w3.org/2000/svg">
<mask id="mask0_102_665" style="mask-type:alpha" maskUnits="userSpaceOnUse" x="0" y="0" width="17" height="17">
<rect x="0.069519" y="0.0600586" width="16" height="16" fill="#DCDCDC"/>
</mask>
<g mask="url(#mask0_102_665)">
<path d="M6.90859 1.94452C6.90859 1.59492 7.192 1.31152 7.54159 1.31152H10.2618C10.6114 1.31152 10.8948 1.59492 10.8948 1.94452C10.8948 2.29411 10.6114 2.57751 10.2618 2.57751H9.52336L7.94858 13.5428H8.59764C8.94724 13.5428 9.23064 13.8262 9.23064 14.1758C9.23064 14.5254 8.94724 14.8088 8.59764 14.8088H5.87738C5.52779 14.8088 5.24438 14.5254 5.24438 14.1758C5.24438 13.8262 5.52779 13.5428 5.87738 13.5428H6.66472L8.23951 2.57751H7.54159C7.192 2.57751 6.90859 2.29411 6.90859 1.94452Z" fill="black"/>
</g>
</svg>
