<svg width="16" height="16" viewBox="0 0 16 16" fill="none" xmlns="http://www.w3.org/2000/svg">
<path d="M9.80385 1.40005H11.9997C12.3311 1.40005 12.5997 1.66868 12.5997 2.00005C12.5997 2.33143 12.3311 2.60005 11.9997 2.60005H10.1185L7.12251 13.4001H9.33324C9.66461 13.4001 9.93324 13.6687 9.93324 14.0001C9.93324 14.3314 9.66461 14.6001 9.33324 14.6001H6.34785C6.33847 14.6003 6.32905 14.6003 6.31962 14.6001H3.9999C3.66853 14.6001 3.3999 14.3314 3.3999 14.0001C3.3999 13.6687 3.66853 13.4001 3.9999 13.4001H5.87719L8.87322 2.60005H6.66641C6.33504 2.60005 6.06641 2.33143 6.06641 2.00005C6.06641 1.66868 6.33504 1.40005 6.66641 1.40005H9.52916C9.61698 1.37929 9.71064 1.3781 9.80385 1.40005Z" fill="black"/>
</svg>
