<svg width="16" height="16" viewBox="0 0 16 16" fill="none" xmlns="http://www.w3.org/2000/svg">
<mask id="mask0_102_665" style="mask-type:alpha" maskUnits="userSpaceOnUse" x="0" y="0" width="16" height="16">
<rect width="16" height="16" fill="#DCDCDC"/>
</mask>
<g mask="url(#mask0_102_665)">
<path d="M6.83907 1.88446C6.83907 1.53487 7.12248 1.25146 7.47207 1.25146H10.1923C10.5419 1.25146 10.8253 1.53487 10.8253 1.88446C10.8253 2.23405 10.5419 2.51745 10.1923 2.51745H9.45384L7.87906 13.4827H8.52812C8.87772 13.4827 9.16112 13.7661 9.16112 14.1157C9.16112 14.4653 8.87772 14.7487 8.52812 14.7487H5.80786C5.45827 14.7487 5.17487 14.4653 5.17487 14.1157C5.17487 13.7661 5.45827 13.4827 5.80786 13.4827H6.5952L8.16999 2.51745H7.47207C7.12248 2.51745 6.83907 2.23405 6.83907 1.88446Z" fill="black"/>
</g>
</svg>
