<svg width="17" height="17" viewBox="0 0 17 17" fill="none" xmlns="http://www.w3.org/2000/svg">
<path fill-rule="evenodd" clip-rule="evenodd" d="M1.53613 8.20612C1.53613 7.95197 1.68426 7.72113 1.91531 7.61523L5.91531 5.7819L5.91531 5.7819L7.24864 5.1708L7.24864 5.1708L9.9153 3.94857C10.2416 3.79899 10.6274 3.94229 10.777 4.26863C10.9266 4.59497 10.7833 4.98077 10.457 5.13035L8.16947 6.17879L8.16947 10.2335L10.457 11.2819C10.7833 11.4315 10.9266 11.8173 10.777 12.1436C10.6274 12.47 10.2416 12.6133 9.91531 12.4637L7.24864 11.2415L7.24864 11.2414L5.91531 10.6304L5.91531 10.6303L1.91531 8.79702C1.68426 8.69112 1.53613 8.46028 1.53613 8.20612ZM6.86947 9.63763L6.86947 6.77462L6.45696 6.96368L6.45695 6.96368L3.74618 8.20612L6.45695 9.44856L6.45696 9.44857L6.86947 9.63763Z" fill="black"/>
<path fill-rule="evenodd" clip-rule="evenodd" d="M12.8526 14.856C12.4937 14.856 12.2026 14.5649 12.2026 14.206L12.2026 2.20596C12.2026 1.94306 12.361 1.70604 12.6039 1.60544C12.8468 1.50483 13.1264 1.56044 13.3123 1.74634L15.3123 3.74634C15.5661 4.00018 15.5661 4.41174 15.3123 4.66558C15.0584 4.91942 14.6469 4.91942 14.393 4.66558L13.5026 3.7752L13.5026 14.206C13.5026 14.5649 13.2116 14.856 12.8526 14.856Z" fill="black"/>
</svg>
