<svg width="16" height="16" viewBox="0 0 16 16" fill="none" xmlns="http://www.w3.org/2000/svg">
<mask id="mask0_102_818" style="mask-type:alpha" maskUnits="userSpaceOnUse" x="0" y="0" width="16" height="16">
<rect width="16" height="16" fill="#D9D9D9"/>
</mask>
<g mask="url(#mask0_102_818)">
<path d="M1.99998 2.3501C1.64099 2.3501 1.34998 2.64111 1.34998 3.0001C1.34998 3.35908 1.64099 3.6501 1.99998 3.6501H14C14.359 3.6501 14.65 3.35908 14.65 3.0001C14.65 2.64111 14.359 2.3501 14 2.3501H1.99998Z" fill="black"/>
<path d="M1.99998 5.68347C1.64099 5.68347 1.34998 5.97449 1.34998 6.33347C1.34998 6.69246 1.64099 6.98347 1.99998 6.98347H11.3333C11.6923 6.98347 11.9833 6.69246 11.9833 6.33347C11.9833 5.97449 11.6923 5.68347 11.3333 5.68347H1.99998Z" fill="black"/>
<path d="M1.34998 9.66672C1.34998 9.30774 1.64099 9.01672 1.99998 9.01672H14C14.359 9.01672 14.65 9.30774 14.65 9.66672C14.65 10.0257 14.359 10.3167 14 10.3167H1.99998C1.64099 10.3167 1.34998 10.0257 1.34998 9.66672Z" fill="black"/>
<path d="M1.99998 12.3501C1.64099 12.3501 1.34998 12.6411 1.34998 13.0001C1.34998 13.3591 1.64099 13.6501 1.99998 13.6501H11.3333C11.6923 13.6501 11.9833 13.3591 11.9833 13.0001C11.9833 12.6411 11.6923 12.3501 11.3333 12.3501H1.99998Z" fill="black"/>
</g>
</svg>
