<svg width="16" height="16" viewBox="0 0 16 16" fill="none" xmlns="http://www.w3.org/2000/svg">
<mask id="mask0_102_802" style="mask-type:alpha" maskUnits="userSpaceOnUse" x="0" y="0" width="16" height="16">
<rect width="16" height="16" fill="#DCDCDC"/>
</mask>
<g mask="url(#mask0_102_802)">
<path fill-rule="evenodd" clip-rule="evenodd" d="M2.56751 1.8681C2.30914 1.77869 2.0135 1.85136 1.81075 2.05412C1.60799 2.25687 1.53532 2.55251 1.62473 2.81088L4.36865 10.7403C4.49493 11.1052 4.89961 11.2812 5.27252 11.1335C5.64543 10.9857 5.84537 10.5701 5.71909 10.2051L4.95118 7.986L7.74263 5.19455L9.96175 5.96246C10.3267 6.08874 10.7423 5.8888 10.8901 5.51589C11.0379 5.14298 10.8618 4.7383 10.4969 4.61202L2.56751 1.8681ZM6.28892 4.69149L4.44812 6.53229L3.47404 3.71741L6.28892 4.69149Z" fill="black"/>
<path d="M4.68352 13.4124C4.39713 13.6988 4.38399 14.15 4.65417 14.4202C4.92434 14.6903 5.37552 14.6772 5.66191 14.3908L12.8953 7.15741L12.8654 8.18547C12.8539 8.57901 13.1636 8.88875 13.5572 8.87729C13.9507 8.86583 14.2791 8.5375 14.2905 8.14396L14.3706 5.39558C14.379 5.10737 14.2129 4.85259 13.9499 4.75006C13.6868 4.64752 13.3785 4.71741 13.1688 4.92714L4.68352 13.4124Z" fill="black"/>
</g>
</svg>
