<svg width="17" height="17" viewBox="0 0 17 17" fill="none" xmlns="http://www.w3.org/2000/svg">
<mask id="mask0_102_802" style="mask-type:alpha" maskUnits="userSpaceOnUse" x="0" y="0" width="17" height="17">
<rect x="0.867188" y="0.556152" width="16" height="16" fill="#DCDCDC"/>
</mask>
<g mask="url(#mask0_102_802)">
<path fill-rule="evenodd" clip-rule="evenodd" d="M3.4347 2.42425C3.17633 2.33484 2.88069 2.40752 2.67794 2.61027C2.47518 2.81303 2.40251 3.10867 2.49191 3.36703L5.23584 11.2964C5.36212 11.6613 5.7668 11.8374 6.13971 11.6896C6.51262 11.5418 6.71255 11.1262 6.58627 10.7613L5.81836 8.54215L8.60982 5.7507L10.8289 6.51861C11.1939 6.64489 11.6095 6.44496 11.7573 6.07204C11.905 5.69913 11.729 5.29446 11.3641 5.16818L3.4347 2.42425ZM7.1561 5.24764L5.31531 7.08844L4.34123 4.27356L7.1561 5.24764Z" fill="black"/>
<path d="M5.55071 13.9686C5.26432 14.255 5.25118 14.7061 5.52136 14.9763C5.79153 15.2465 6.24271 15.2333 6.52909 14.947L13.7625 7.71356L13.7326 8.74162C13.7211 9.13516 14.0308 9.4449 14.4244 9.43344C14.8179 9.42198 15.1462 9.09366 15.1577 8.70011L15.2378 5.95173C15.2462 5.66352 15.0801 5.40875 14.817 5.30621C14.554 5.20367 14.2457 5.27356 14.036 5.48329L5.55071 13.9686Z" fill="black"/>
</g>
</svg>
