<svg width="25" height="25" viewBox="0 0 25 25" fill="none" xmlns="http://www.w3.org/2000/svg">
<mask id="mask0_17_595" style="mask-type:alpha" maskUnits="userSpaceOnUse" x="0" y="0" width="25" height="25">
<rect x="0.210449" y="0.537476" width="24" height="24" fill="#DCDCDC"/>
</mask>
<g mask="url(#mask0_17_595)">
<path d="M22.2104 6.53748L22.2104 4.53748C22.2104 3.43291 21.315 2.53748 20.2104 2.53748L18.2104 2.53748L18.2104 4.53748L20.2104 4.53748L20.2104 6.53748L22.2104 6.53748Z" fill="#999999"/>
<path d="M10.2104 2.53748L10.2104 4.53748L14.2104 4.53748L14.2104 2.53748L10.2104 2.53748Z" fill="#999999"/>
<path d="M22.2104 10.5375L20.2104 10.5375L20.2104 11.5375L16.2104 11.5375L16.2104 13.5375L20.2104 13.5375L20.2104 14.5375L22.2104 14.5375L22.2104 10.5375Z" fill="#999999"/>
<path d="M22.2104 18.5375L20.2104 18.5375L20.2104 20.5375L18.2104 20.5375L18.2104 22.5375L20.2104 22.5375C21.315 22.5375 22.2104 21.642 22.2104 20.5375L22.2104 18.5375Z" fill="#999999"/>
<path d="M14.2104 22.5375L14.2104 20.5375L13.2104 20.5375L13.2104 16.5375L11.2104 16.5375L11.2104 20.5375L10.2104 20.5375L10.2104 22.5375L14.2104 22.5375Z" fill="#999999"/>
<path d="M4.21045 11.5375L8.21045 11.5375L8.21045 13.5375L4.21045 13.5375L4.21045 11.5375Z" fill="#999999"/>
<path d="M13.2104 8.53748L13.2105 4.53748L11.2105 4.53748L11.2104 8.53748L13.2104 8.53748Z" fill="#999999"/>
<path d="M4.21045 2.53747L6.21045 2.53747L6.21045 4.53747L4.21045 4.53748L4.21045 20.5375L6.21045 20.5375L6.21045 22.5375L4.21045 22.5375C3.10588 22.5375 2.21045 21.642 2.21045 20.5375L2.21045 4.53748C2.21045 3.43291 3.10588 2.53747 4.21045 2.53747Z" fill="black"/>
</g>
</svg>
