<svg width="25" height="25" viewBox="0 0 25 25" fill="none" xmlns="http://www.w3.org/2000/svg">
<mask id="mask0_17_670" style="mask-type:alpha" maskUnits="userSpaceOnUse" x="0" y="0" width="25" height="25">
<rect x="0.597168" y="0.943726" width="24" height="24" fill="#DCDCDC"/>
</mask>
<g mask="url(#mask0_17_670)">
<path fill-rule="evenodd" clip-rule="evenodd" d="M4.44855 3.73665C4.06101 3.60254 3.61755 3.71155 3.31342 4.01569C3.00928 4.31982 2.90027 4.76328 3.03438 5.15083L7.15028 17.0449C7.3397 17.5923 7.94671 17.8563 8.50608 17.6347C9.06545 17.413 9.36535 16.7896 9.17593 16.2422L8.02406 12.9135L12.2112 8.72633L15.5399 9.8782C16.0873 10.0676 16.7108 9.76772 16.9324 9.20835C17.1541 8.64898 16.89 8.04197 16.3426 7.85255L4.44855 3.73665ZM10.0307 7.97174L7.26947 10.7329L5.80835 6.51062L10.0307 7.97174Z" fill="#35322B"/>
<path d="M7.62257 21.0531C7.193 21.4827 7.17329 22.1595 7.57855 22.5648C7.98381 22.97 8.66058 22.9503 9.09015 22.5207L19.9403 11.6706L19.8953 13.2127C19.8782 13.803 20.3428 14.2676 20.9331 14.2504C21.5234 14.2333 22.0159 13.7408 22.0331 13.1504L22.1532 9.02788C22.1657 8.59557 21.9167 8.2134 21.5221 8.05959C21.1275 7.90579 20.6651 8.01063 20.3505 8.32522L7.62257 21.0531Z" fill="#35322B"/>
</g>
</svg>
