<svg width="16" height="16" viewBox="0 0 16 16" fill="none" xmlns="http://www.w3.org/2000/svg">
<path fill-rule="evenodd" clip-rule="evenodd" d="M1.3732 3.94019C0.82475 2.75718 2.04917 1.53276 3.23218 2.0812L10.0657 5.24921C10.3663 5.38859 10.497 5.74529 10.3576 6.04592C10.2183 6.34656 9.86157 6.47728 9.56094 6.33791L6.86664 5.08883L4.42613 7.52934C4.41111 7.54436 4.3955 7.55841 4.37936 7.5715L5.6299 10.2689C5.76928 10.5696 5.63855 10.9263 5.33791 11.0656C5.03728 11.205 4.68058 11.0743 4.54121 10.7737L1.3732 3.94019ZM2.72746 3.1699L5.70713 4.55128L3.84327 6.41514L2.46189 3.43547C2.38354 3.26647 2.55846 3.09155 2.72746 3.1699Z" fill="black"/>
<path d="M4.56311 13.7359C4.32879 13.9702 4.32879 14.3501 4.56311 14.5844C4.79742 14.8188 5.17732 14.8188 5.41163 14.5844L13.3083 6.68776L13.3842 8.21165C13.4006 8.54261 13.6823 8.79755 14.0133 8.78108C14.3442 8.76461 14.5992 8.48295 14.5827 8.15199L14.4844 6.17786C14.4413 5.3118 13.3917 4.90732 12.7786 5.52046L4.56311 13.7359Z" fill="black"/>
</svg>
