<svg width="17" height="17" viewBox="0 0 17 17" fill="none" xmlns="http://www.w3.org/2000/svg">
<mask id="mask0_102_818" style="mask-type:alpha" maskUnits="userSpaceOnUse" x="0" y="0" width="17" height="17">
<rect x="0.867188" y="0.32959" width="16" height="16" fill="#D9D9D9"/>
</mask>
<g mask="url(#mask0_102_818)">
<path d="M2.86716 2.67969C2.50818 2.67969 2.21716 2.9707 2.21716 3.32969C2.21716 3.68867 2.50818 3.97969 2.86716 3.97969H14.8672C15.2261 3.97969 15.5172 3.68867 15.5172 3.32969C15.5172 2.9707 15.2261 2.67969 14.8672 2.67969H2.86716Z" fill="black"/>
<path d="M2.86716 6.01306C2.50818 6.01306 2.21716 6.30408 2.21716 6.66306C2.21716 7.02205 2.50818 7.31306 2.86716 7.31306H12.2005C12.5595 7.31306 12.8505 7.02205 12.8505 6.66306C12.8505 6.30408 12.5595 6.01306 12.2005 6.01306H2.86716Z" fill="black"/>
<path d="M2.21716 9.99631C2.21716 9.63733 2.50818 9.34631 2.86716 9.34631H14.8672C15.2261 9.34631 15.5172 9.63733 15.5172 9.99631C15.5172 10.3553 15.2261 10.6463 14.8672 10.6463H2.86716C2.50818 10.6463 2.21716 10.3553 2.21716 9.99631Z" fill="black"/>
<path d="M2.86716 12.6797C2.50818 12.6797 2.21716 12.9707 2.21716 13.3297C2.21716 13.6887 2.50818 13.9797 2.86716 13.9797H12.2005C12.5595 13.9797 12.8505 13.6887 12.8505 13.3297C12.8505 12.9707 12.5595 12.6797 12.2005 12.6797H2.86716Z" fill="black"/>
</g>
</svg>
