<svg width="16" height="16" viewBox="0 0 16 16" fill="none" xmlns="http://www.w3.org/2000/svg">
<path fill-rule="evenodd" clip-rule="evenodd" d="M12.4549 14.8606L10.6549 14.8607C9.71596 14.8607 8.95479 14.0996 8.95479 13.1607V2.83867C8.95479 1.89979 9.71591 1.13867 10.6548 1.13867H12.4547C13.3936 1.13867 14.1547 1.89978 14.1547 2.83866L14.1547 5.90355L14.1548 5.91284L14.1547 5.92212L14.1548 10.0801L14.1548 10.0867L14.1548 10.0932L14.1548 13.1606C14.1548 14.0995 13.3937 14.8606 12.4549 14.8606ZM12.9547 6.51284L12.9548 9.48667H10.1548V6.51284H12.9547ZM12.9547 5.31284L10.1548 5.31284V2.83867C10.1548 2.56253 10.3787 2.33867 10.6548 2.33867H12.4547C12.7308 2.33867 12.9547 2.56253 12.9547 2.83867L12.9547 5.31284ZM12.9548 10.6867H10.1548V13.1607C10.1548 13.4368 10.3787 13.6607 10.6548 13.6607L12.4548 13.6606C12.7309 13.6606 12.9548 13.4367 12.9548 13.1606L12.9548 10.6867Z" fill="black"/>
<path d="M1.84546 7.99979C1.84546 7.66842 2.11409 7.39979 2.44546 7.39979H4.08146V5.76379C4.08146 5.43242 4.35009 5.16379 4.68146 5.16379C5.01283 5.16379 5.28146 5.43242 5.28146 5.76379V7.39979H6.91747C7.24884 7.39979 7.51747 7.66842 7.51747 7.99979C7.51747 8.33116 7.24884 8.59979 6.91747 8.59979H5.28146V10.2358C5.28146 10.5672 5.01283 10.8358 4.68146 10.8358C4.35009 10.8358 4.08146 10.5672 4.08146 10.2358V8.59979H2.44546C2.11409 8.59979 1.84546 8.33116 1.84546 7.99979Z" fill="black"/>
</svg>
