<svg width="16" height="16" viewBox="0 0 16 16" fill="none" xmlns="http://www.w3.org/2000/svg">
<path fill-rule="evenodd" clip-rule="evenodd" d="M1 7.65022C1 7.39606 1.14813 7.16522 1.37917 7.05932L5.37917 5.22599L5.37918 5.22599L6.71251 4.61489L6.71251 4.61489L9.37917 3.39266C9.70551 3.24308 10.0913 3.38638 10.2409 3.71272C10.3905 4.03906 10.2472 4.42487 9.92083 4.57444L7.63333 5.62288L7.63333 9.67755L9.92083 10.726C10.2472 10.8756 10.3905 11.2614 10.2409 11.5877C10.0913 11.9141 9.70551 12.0573 9.37917 11.9078L6.71251 10.6855L6.71251 10.6855L5.37918 10.0744L5.37917 10.0744L1.37917 8.24111C1.14813 8.13521 1 7.90437 1 7.65022ZM6.33333 9.08172L6.33333 6.21871L5.92083 6.40777L5.92082 6.40778L3.21004 7.65022L5.92082 8.89266L5.92083 8.89266L6.33333 9.08172Z" fill="black"/>
<path fill-rule="evenodd" clip-rule="evenodd" d="M12.3165 14.3C11.9575 14.3 11.6665 14.009 11.6665 13.65L11.6665 1.65005C11.6665 1.38715 11.8249 1.15014 12.0678 1.04953C12.3106 0.948919 12.5902 1.00453 12.7761 1.19043L14.7761 3.19043C15.03 3.44427 15.03 3.85583 14.7761 4.10967C14.5223 4.36351 14.1107 4.36351 13.8569 4.10967L12.9665 3.21929L12.9665 13.65C12.9665 14.009 12.6755 14.3 12.3165 14.3Z" fill="black"/>
</svg>
