<svg width="16" height="16" viewBox="0 0 16 16" fill="none" xmlns="http://www.w3.org/2000/svg">
<g clip-path="url(#clip0_1389_26)">
<path d="M8.60039 1.11953C8.60039 0.78816 8.33176 0.519531 8.00039 0.519531C7.66902 0.519531 7.40039 0.78816 7.40039 1.11953V2.45286C7.40039 2.78424 7.66902 3.05286 8.00039 3.05286C8.33176 3.05286 8.60039 2.78424 8.60039 2.45286V1.11953Z" fill="black"/>
<path d="M13.412 3.42539C13.6456 3.19041 13.6445 2.81051 13.4096 2.57687C13.1746 2.34322 12.7947 2.34431 12.561 2.5793L11.7409 3.40411C11.5073 3.63909 11.5084 4.01899 11.7434 4.25263C11.9783 4.48627 12.3582 4.48519 12.5919 4.2502L13.412 3.42539Z" fill="black"/>
<path d="M8.00716 5.78516C6.71849 5.78516 5.67383 6.82982 5.67383 8.11849C5.67383 9.40716 6.71849 10.4518 8.00716 10.4518V5.78516Z" fill="black"/>
<path fill-rule="evenodd" clip-rule="evenodd" d="M8.0069 3.85156C5.6505 3.85156 3.74023 5.76183 3.74023 8.11823C3.74023 10.4746 5.6505 12.3849 8.0069 12.3849C10.3633 12.3849 12.2736 10.4746 12.2736 8.11823C12.2736 5.76183 10.3633 3.85156 8.0069 3.85156ZM4.94023 8.11823C4.94023 6.42457 6.31324 5.05156 8.0069 5.05156C9.70056 5.05156 11.0736 6.42457 11.0736 8.11823C11.0736 9.81189 9.70056 11.1849 8.0069 11.1849C6.31324 11.1849 4.94023 9.81189 4.94023 8.11823Z" fill="black"/>
<path d="M4.1116 11.823C4.34658 12.0566 4.34766 12.4365 4.11402 12.6715L3.43172 13.3577C3.19808 13.5927 2.81818 13.5938 2.5832 13.3601C2.34822 13.1265 2.34713 12.7466 2.58078 12.5116L3.26307 11.8254C3.49672 11.5904 3.87662 11.5893 4.1116 11.823Z" fill="black"/>
<path d="M8.60039 13.7836C8.60039 13.4522 8.33176 13.1836 8.00039 13.1836C7.66902 13.1836 7.40039 13.4522 7.40039 13.7836V14.7836C7.40039 15.115 7.66902 15.3836 8.00039 15.3836C8.33176 15.3836 8.60039 15.115 8.60039 14.7836V13.7836Z" fill="black"/>
<path d="M12.7324 7.78359C12.7324 7.45222 13.0011 7.18359 13.3324 7.18359H14.6658C14.9971 7.18359 15.2658 7.45222 15.2658 7.78359C15.2658 8.11496 14.9971 8.38359 14.6658 8.38359H13.3324C13.0011 8.38359 12.7324 8.11496 12.7324 7.78359Z" fill="black"/>
<path d="M12.9344 11.6875C12.7001 11.4531 12.3202 11.4531 12.0859 11.6875C11.8516 11.9218 11.8516 12.3017 12.0859 12.536L12.9084 13.3584C13.1427 13.5928 13.5226 13.5928 13.7569 13.3584C13.9912 13.1241 13.9912 12.7442 13.7569 12.5099L12.9344 11.6875Z" fill="black"/>
<path d="M1.33242 7.51953C1.00105 7.51953 0.732422 7.78816 0.732422 8.11953C0.732422 8.4509 1.00105 8.71953 1.33242 8.71953H2.66576C2.99713 8.71953 3.26576 8.4509 3.26576 8.11953C3.26576 7.78816 2.99713 7.51953 2.66576 7.51953H1.33242Z" fill="black"/>
<path d="M2.92378 2.57808C3.15809 2.34377 3.53799 2.34376 3.77231 2.57808L4.45657 3.26233C4.69089 3.49664 4.69089 3.87654 4.45658 4.11086C4.22227 4.34517 3.84237 4.34518 3.60805 4.11087L2.92379 3.42661C2.68947 3.1923 2.68947 2.8124 2.92378 2.57808Z" fill="black"/>
</g>
<defs>
<clipPath id="clip0_1389_26">
<rect width="16" height="16" fill="white"/>
</clipPath>
</defs>
</svg>
