<svg width="16" height="16" viewBox="0 0 16 16" fill="none" xmlns="http://www.w3.org/2000/svg">
<path fill-rule="evenodd" clip-rule="evenodd" d="M7.71899 1.36938C4.37604 1.36938 1.66602 4.07941 1.66602 7.42236C1.66602 10.7653 4.37604 13.4753 7.71899 13.4753C9.16744 13.4753 10.4971 12.9666 11.5389 12.118L13.6598 14.4109C13.8848 14.6542 14.2644 14.669 14.5077 14.444C14.7509 14.219 14.7657 13.8393 14.5407 13.5961L12.3906 11.2716C13.2536 10.2254 13.772 8.88442 13.772 7.42236C13.772 4.07941 11.0619 1.36938 7.71899 1.36938ZM2.86602 7.42236C2.86602 4.74215 5.03878 2.56938 7.71899 2.56938C10.3992 2.56938 12.572 4.74215 12.572 7.42236C12.572 10.1026 10.3992 12.2753 7.71899 12.2753C5.03878 12.2753 2.86602 10.1026 2.86602 7.42236Z" fill="black"/>
</svg>
