<svg width="16" height="16" viewBox="0 0 16 16" fill="none" xmlns="http://www.w3.org/2000/svg">
<mask id="mask0_102_674" style="mask-type:alpha" maskUnits="userSpaceOnUse" x="0" y="0" width="16" height="16">
<rect width="16" height="16" fill="#DCDCDC"/>
</mask>
<g mask="url(#mask0_102_674)">
<path fill-rule="evenodd" clip-rule="evenodd" d="M11.9464 11.1344C13.796 8.78305 13.6368 5.36684 11.4687 3.19877C9.12884 0.858866 5.3351 0.858866 2.9952 3.19877C0.655291 5.53868 0.655291 9.33242 2.9952 11.6723C5.17691 13.854 8.62251 14.0015 10.9751 12.1148L13.3439 14.4836C13.6134 14.7531 14.0503 14.7531 14.3198 14.4836C14.5892 14.2142 14.5892 13.7773 14.3198 13.5078L11.9464 11.1344ZM10.4929 4.1746C12.2939 5.97557 12.2939 8.89552 10.4929 10.6965C8.69195 12.4975 5.772 12.4975 3.97103 10.6965C2.17005 8.89552 2.17005 5.97557 3.97103 4.1746C5.772 2.37363 8.69195 2.37363 10.4929 4.1746Z" fill="black"/>
</g>
</svg>
