<svg width="17" height="17" viewBox="0 0 17 17" fill="none" xmlns="http://www.w3.org/2000/svg">
<mask id="mask0_102_674" style="mask-type:alpha" maskUnits="userSpaceOnUse" x="0" y="0" width="17" height="17">
<rect x="0.70874" y="0.0600586" width="16" height="16" fill="#DCDCDC"/>
</mask>
<g mask="url(#mask0_102_674)">
<path fill-rule="evenodd" clip-rule="evenodd" d="M12.6551 11.1945C14.5048 8.84311 14.3456 5.4269 12.1775 3.25883C9.83758 0.918925 6.04384 0.918925 3.70394 3.25883C1.36403 5.59874 1.36403 9.39247 3.70394 11.7324C5.88565 13.9141 9.33125 14.0616 11.6839 12.1749L14.0527 14.5437C14.3221 14.8132 14.759 14.8132 15.0285 14.5437C15.298 14.2742 15.298 13.8373 15.0285 13.5679L12.6551 11.1945ZM11.2017 4.23466C13.0026 6.03563 13.0026 8.95558 11.2017 10.7566C9.40069 12.5575 6.48074 12.5575 4.67977 10.7566C2.87879 8.95558 2.8788 6.03563 4.67977 4.23466C6.48074 2.43369 9.40069 2.43369 11.2017 4.23466Z" fill="black"/>
</g>
</svg>
