<svg width="17" height="16" viewBox="0 0 17 16" fill="none" xmlns="http://www.w3.org/2000/svg">
<path d="M12.3469 11.8562C11.9308 11.8562 11.6453 11.4371 11.7977 11.0499L12.47 9.34117C12.6248 8.94753 12.6232 8.50955 12.4654 8.11708L11.8926 6.69241C11.7292 6.28603 12.0284 5.84326 12.4664 5.84326C12.7277 5.84326 12.9608 6.00748 13.0487 6.25353L13.2345 6.77321C13.3389 7.10607 13.4502 7.44917 13.5616 7.78235C13.5648 7.79186 13.5737 7.79827 13.5837 7.79827C13.5946 7.79827 13.604 7.79077 13.6065 7.78018C13.6836 7.44768 13.7806 7.10535 13.864 6.77321L13.9952 6.28043C14.0638 6.02266 14.2972 5.84326 14.5639 5.84326C14.9748 5.84326 15.2592 6.25356 15.1151 6.63831L14.485 8.32021C14.336 8.71794 14.345 9.15763 14.5101 9.54894L15.1222 10.9996C15.2938 11.4062 14.9952 11.8562 14.5539 11.8562C14.2999 11.8562 14.0719 11.7006 13.9794 11.464L13.765 10.9157C13.6467 10.5726 13.5283 10.2192 13.4033 9.89588C13.3996 9.88635 13.3904 9.88009 13.3802 9.88009C13.3693 9.88009 13.3597 9.88723 13.3565 9.89769C13.2592 10.2202 13.162 10.5628 13.0648 10.9157L12.9133 11.4321C12.8396 11.6835 12.6089 11.8562 12.3469 11.8562Z" fill="black"/>
<path d="M8.60589 12.0042C7.86324 12.0042 7.41058 11.1799 7.41058 10.176C7.41058 9.24556 7.76849 8.62802 8.57927 8.26493C9.15457 8.0073 9.66769 7.19591 9.03734 7.19591C8.93902 7.19591 8.83936 7.21406 8.73668 7.24911C8.32638 7.38918 7.82912 7.28905 7.6842 6.88044C7.59996 6.64293 7.66457 6.37396 7.86703 6.2239C8.30584 5.89865 8.77368 5.69531 9.27781 5.69531C10.3175 5.69531 10.9046 6.56186 10.9046 8.44289V11.3045C10.9046 11.6092 10.6576 11.8562 10.3529 11.8562H10.1837C10.0084 11.8562 9.85947 11.7283 9.83303 11.555L9.78975 11.2715C9.7882 11.2614 9.77946 11.2539 9.76918 11.2539C9.76262 11.2539 9.75643 11.257 9.75249 11.2622C9.42162 11.7016 9.04868 12.0042 8.60589 12.0042ZM9.03734 10.5458C9.24498 10.5458 9.39618 10.4264 9.54464 10.2218C9.61454 10.1255 9.6456 10.0072 9.6456 9.88822C9.6456 9.4852 9.24918 9.151 8.92488 9.39028C8.69363 9.56091 8.60589 9.77991 8.60589 10.028C8.60589 10.3768 8.77564 10.5458 9.03734 10.5458Z" fill="black"/>
<path d="M2.04947 11.8562C1.73697 11.8562 1.48364 11.6029 1.48364 11.2904V4.75915C1.48364 4.33651 1.82626 3.9939 2.2489 3.9939C2.60112 3.9939 2.90785 4.23431 2.992 4.57633L3.6833 7.3861C3.78812 7.83507 3.87223 8.32531 3.96973 8.80585C3.9718 8.816 3.98073 8.82329 3.99109 8.82329C4.00134 8.82329 4.0102 8.81616 4.01238 8.80614C4.11674 8.32551 4.20078 7.83516 4.29863 7.3861L4.96488 4.58313C5.04698 4.23772 5.35555 3.9939 5.71058 3.9939C6.1339 3.9939 6.47707 4.33706 6.47707 4.76038V11.2798C6.47707 11.5981 6.21899 11.8562 5.90063 11.8562C5.58227 11.8562 5.32419 11.5981 5.32419 11.2798V9.16145C5.32419 8.38487 5.42185 7.22268 5.48554 6.4511C5.48626 6.44233 5.47932 6.43501 5.47052 6.43501C5.46353 6.43501 5.45745 6.43983 5.45587 6.44665L5.02006 8.31605L4.39568 10.8535C4.347 11.0514 4.16955 11.1904 3.96579 11.1904C3.76242 11.1904 3.5852 11.0519 3.53615 10.8545L2.90528 8.31605L2.48355 6.44672C2.48201 6.43987 2.47593 6.43501 2.46892 6.43501C2.46014 6.43501 2.45322 6.44231 2.45395 6.45105C2.51764 7.22263 2.6153 8.38485 2.6153 9.16145V11.2904C2.6153 11.6029 2.36197 11.8562 2.04947 11.8562Z" fill="black"/>
</svg>
