<svg width="16" height="16" viewBox="0 0 16 16" fill="none" xmlns="http://www.w3.org/2000/svg">
<path fill-rule="evenodd" clip-rule="evenodd" d="M4.96708 8.23432V11.6842C4.96708 12.0156 5.2357 12.2842 5.56708 12.2842C5.89845 12.2842 6.16708 12.0156 6.16708 11.6842V5.62199C6.16708 4.70621 4.87775 4.5088 4.60373 5.38261L3.2564 9.67905L1.90905 5.3826C1.64268 4.53318 0.345703 4.6789 0.345703 5.62021V11.6842C0.345703 12.0156 0.614332 12.2842 0.945703 12.2842C1.27707 12.2842 1.5457 12.0156 1.5457 11.6842V8.23428L2.49305 11.2552C2.72747 12.0027 3.78534 12.0027 4.01975 11.2552L4.96708 8.23432Z" fill="black"/>
<path fill-rule="evenodd" clip-rule="evenodd" d="M9.59409 8.3393C9.59409 7.86618 9.18572 7.49641 8.71492 7.54323L7.64429 7.64971C7.31454 7.6825 7.02065 7.44178 6.98785 7.11203C6.95506 6.78229 7.19578 6.48839 7.52553 6.4556L8.59616 6.34912C9.77317 6.23206 10.7941 7.15649 10.7941 8.3393V11.684C10.7941 12.0154 10.5255 12.284 10.1941 12.284C9.86272 12.284 9.59409 12.0154 9.59409 11.684V8.3393Z" fill="black"/>
<path fill-rule="evenodd" clip-rule="evenodd" d="M6.79541 10.2064C6.79541 9.10233 7.69047 8.20728 8.79458 8.20728C9.89869 8.20728 10.7938 9.10233 10.7938 10.2064C10.7938 11.3106 9.89869 12.2056 8.79458 12.2056C7.69047 12.2056 6.79541 11.3106 6.79541 10.2064ZM8.79458 9.40728C8.35321 9.40728 7.99541 9.76508 7.99541 10.2064C7.99541 10.6478 8.35321 11.0056 8.79458 11.0056C9.23595 11.0056 9.59375 10.6478 9.59375 10.2064C9.59375 9.76508 9.23595 9.40728 8.79458 9.40728Z" fill="black"/>
<path fill-rule="evenodd" clip-rule="evenodd" d="M15.386 6.62139C15.6666 6.79764 15.7454 7.16426 15.562 7.44024L12.5296 12.0032C12.3462 12.2791 11.9701 12.36 11.6894 12.1837C11.4088 12.0075 11.33 11.6409 11.5135 11.3649L14.5458 6.80196C14.7292 6.52598 15.1054 6.44513 15.386 6.62139Z" fill="black"/>
<path fill-rule="evenodd" clip-rule="evenodd" d="M11.6892 6.62139C11.4086 6.79764 11.3298 7.16426 11.5132 7.44024L14.5456 12.0032C14.729 12.2791 15.1051 12.36 15.3857 12.1837C15.6664 12.0075 15.7451 11.6409 15.5617 11.3649L12.5294 6.80196C12.3459 6.52598 11.9698 6.44513 11.6892 6.62139Z" fill="black"/>
</svg>
