<svg width="16" height="16" viewBox="0 0 16 16" fill="none" xmlns="http://www.w3.org/2000/svg">
<path d="M11.8633 11.8572C11.4471 11.8572 11.1617 11.4381 11.314 11.0509L11.9863 9.34214C12.1412 8.94851 12.1396 8.51053 11.9818 8.11806L11.4089 6.69339C11.2455 6.28701 11.5447 5.84424 11.9827 5.84424C12.244 5.84424 12.4771 6.00846 12.5651 6.25451L12.7509 6.77419C12.8553 7.10705 12.9666 7.45015 13.078 7.78333C13.0811 7.79284 13.09 7.79924 13.1001 7.79924C13.1109 7.79924 13.1204 7.79175 13.1228 7.78116C13.2 7.44866 13.297 7.10633 13.3803 6.77419L13.5115 6.28141C13.5801 6.02363 13.8135 5.84424 14.0803 5.84424C14.4911 5.84424 14.7756 6.25454 14.6315 6.63929L14.0014 8.32119C13.8524 8.71892 13.8614 9.1586 14.0265 9.54991L14.6386 11.0006C14.8101 11.4072 14.5116 11.8572 14.0702 11.8572C13.8163 11.8572 13.5882 11.7015 13.4957 11.465L13.2813 10.9167C13.163 10.5736 13.0447 10.2202 12.9197 9.89686C12.916 9.88732 12.9068 9.88106 12.8966 9.88106C12.8856 9.88106 12.876 9.88821 12.8729 9.89867C12.7756 10.2211 12.6784 10.5638 12.5811 10.9167L12.4297 11.4331C12.3559 11.6845 12.1253 11.8572 11.8633 11.8572Z" fill="black"/>
<path d="M8.12225 12.0051C7.3796 12.0051 6.92694 11.1809 6.92694 10.177C6.92694 9.24653 7.28484 8.629 8.09563 8.26591C8.67092 8.00828 9.18404 7.19689 8.55369 7.19689C8.45538 7.19689 8.35572 7.21504 8.25304 7.25009C7.84274 7.39015 7.34547 7.29003 7.20055 6.88142C7.11632 6.64391 7.18093 6.37494 7.38339 6.22488C7.8222 5.89963 8.29004 5.69629 8.79417 5.69629C9.83388 5.69629 10.4209 6.56283 10.4209 8.44387V11.3055C10.4209 11.6102 10.1739 11.8572 9.86923 11.8572H9.70003C9.5248 11.8572 9.37583 11.7292 9.34939 11.556L9.30611 11.2725C9.30456 11.2624 9.29582 11.2548 9.28554 11.2548C9.27898 11.2548 9.27279 11.258 9.26884 11.2632C8.93798 11.7025 8.56504 12.0051 8.12225 12.0051ZM8.55369 10.5468C8.76134 10.5468 8.91254 10.4273 9.061 10.2228C9.1309 10.1265 9.16196 10.0082 9.16196 9.8892C9.16196 9.48618 8.76554 9.15197 8.44124 9.39126C8.20998 9.56189 8.12225 9.78088 8.12225 10.029C8.12225 10.3777 8.292 10.5468 8.55369 10.5468Z" fill="black"/>
<path d="M1.56583 11.8572C1.25333 11.8572 1 11.6038 1 11.2913V4.76013C1 4.33749 1.34262 3.99487 1.76526 3.99487C2.11748 3.99487 2.42421 4.23529 2.50836 4.5773L3.19965 7.38707C3.30448 7.83605 3.38859 8.32628 3.48609 8.80682C3.48815 8.81698 3.49708 8.82427 3.50745 8.82427C3.5177 8.82427 3.52656 8.81713 3.52874 8.80712C3.63309 8.32648 3.71713 7.83614 3.81499 7.38707L4.48124 4.58411C4.56334 4.23869 4.87191 3.99487 5.22694 3.99487C5.65026 3.99487 5.99342 4.33804 5.99342 4.76135V11.2807C5.99342 11.5991 5.73534 11.8572 5.41699 11.8572C5.09863 11.8572 4.84055 11.5991 4.84055 11.2807V9.16243C4.84055 8.38585 4.9382 7.22366 5.0019 6.45208C5.00262 6.44331 4.99568 6.43599 4.98688 6.43599C4.97988 6.43599 4.97381 6.44081 4.97222 6.44762L4.53642 8.31702L3.91204 10.8545C3.86336 11.0523 3.68591 11.1914 3.48215 11.1914C3.27878 11.1914 3.10156 11.0528 3.05251 10.8555L2.42164 8.31702L1.99991 6.44769C1.99837 6.44085 1.99229 6.43599 1.98527 6.43599C1.9765 6.43599 1.96958 6.44329 1.9703 6.45203C2.034 7.22361 2.13165 8.38583 2.13165 9.16243V11.2913C2.13165 11.6038 1.87832 11.8572 1.56583 11.8572Z" fill="black"/>
</svg>
