<svg width="16" height="16" viewBox="0 0 16 16" fill="none" xmlns="http://www.w3.org/2000/svg">
<mask id="mask0_115_2341" style="mask-type:alpha" maskUnits="userSpaceOnUse" x="0" y="0" width="16" height="16">
<rect width="16" height="16" fill="#DCDCDC"/>
</mask>
<g mask="url(#mask0_115_2341)">
<path fill-rule="evenodd" clip-rule="evenodd" d="M5.79376 2.88516C5.79376 2.77895 5.71024 2.69285 5.60722 2.69285H3.26403C3.16101 2.69285 3.0775 2.77895 3.0775 2.88516L3.07751 7.12712C3.07751 7.23332 3.16103 7.31942 3.26405 7.31942H4.86645C4.93259 7.31942 4.99378 7.28331 5.02729 7.22452C5.06079 7.16573 5.06158 7.09304 5.02938 7.03348C4.89248 6.78029 4.92868 6.45457 5.13708 6.23972C5.38899 5.98001 5.79743 5.98 6.04936 6.2397L7.28561 7.51414C7.40659 7.63886 7.47456 7.80801 7.47456 7.98439C7.47456 8.16077 7.4066 8.32993 7.28562 8.45465L6.04936 9.72914C5.79745 9.98885 5.389 9.98885 5.13709 9.72914C4.92869 9.5143 4.89248 9.1886 5.02936 8.93541C5.06156 8.87585 5.06076 8.80317 5.02725 8.74438C4.99375 8.68559 4.93256 8.64948 4.86642 8.64948H3.26405C3.16103 8.64948 3.07751 8.73558 3.07751 8.84179L3.07751 13.1151C3.07751 13.2213 3.16103 13.3074 3.26405 13.3074H5.60723C5.71025 13.3074 5.79377 13.2213 5.79377 13.1151L5.79377 11.0592C5.79377 10.6919 6.08258 10.3942 6.43885 10.3942C6.79512 10.3942 7.08393 10.6919 7.08393 11.0592L7.08393 13.5438C7.08393 14.1478 6.60895 14.6375 6.02304 14.6375H2.84824C2.26233 14.6375 1.78735 14.1478 1.78735 13.5438L1.78734 2.45649C1.78734 1.85246 2.26231 1.36279 2.84822 1.36279H6.02303C6.60894 1.36279 7.08391 1.85246 7.08391 2.45649L7.08393 4.72612C7.08393 5.0934 6.79512 5.39115 6.43885 5.39115C6.08258 5.39115 5.79377 5.0934 5.79377 4.72612L5.79376 2.88516ZM10.2062 13.1151C10.2062 13.2213 10.2897 13.3074 10.3928 13.3074H12.736C12.7854 13.3074 12.8329 13.2872 12.8679 13.2511C12.9028 13.215 12.9225 13.1661 12.9225 13.1151L12.9225 8.84178C12.9225 8.73558 12.839 8.64948 12.736 8.64948H11.1336C11.0674 8.64948 11.0062 8.68559 10.9727 8.74438C10.9392 8.80317 10.9384 8.87586 10.9706 8.93542C11.1075 9.18861 11.0713 9.51433 10.8629 9.72918C10.611 9.98889 10.2026 9.9889 9.95065 9.7292L8.71439 8.45476C8.59341 8.33004 8.52544 8.16089 8.52544 7.98451C8.52544 7.80813 8.5934 7.63897 8.71438 7.51425L9.95064 6.23976C10.2026 5.98005 10.611 5.98005 10.8629 6.23976C11.0713 6.4546 11.1075 6.7803 10.9706 7.03349C10.9384 7.09305 10.9392 7.16573 10.9728 7.22452C11.0063 7.28331 11.0674 7.31942 11.1336 7.31942H12.736C12.839 7.31942 12.9225 7.23332 12.9225 7.12711L12.9225 2.88518C12.9225 2.83417 12.9028 2.78526 12.8678 2.74919C12.8329 2.71313 12.7854 2.69287 12.7359 2.69287L10.3928 2.69287C10.2897 2.69287 10.2062 2.77897 10.2062 2.88518L10.2062 4.90972C10.2062 5.277 9.91742 5.57474 9.56115 5.57474C9.20488 5.57474 8.91607 5.277 8.91607 4.90972L8.91606 2.45651C8.91606 1.85248 9.39103 1.36281 9.97694 1.36281L13.1517 1.36281C13.7377 1.36281 14.2126 1.85248 14.2126 2.45651L14.2127 13.5438C14.2127 14.1478 13.7377 14.6375 13.1518 14.6375H9.97696C9.39105 14.6375 8.91607 14.1478 8.91607 13.5438L8.91607 11.2428C8.91607 10.8755 9.20488 10.5778 9.56115 10.5778C9.91742 10.5778 10.2062 10.8755 10.2062 11.2428L10.2062 13.1151Z" fill="black"/>
</g>
</svg>
