<svg width="25" height="25" viewBox="0 0 25 25" fill="none" xmlns="http://www.w3.org/2000/svg">
<mask id="mask0_17_626" style="mask-type:alpha" maskUnits="userSpaceOnUse" x="0" y="0" width="25" height="25">
<rect x="0.756592" y="0.136139" width="24" height="24" fill="#DCDCDC"/>
</mask>
<g mask="url(#mask0_17_626)">
<path fill-rule="evenodd" clip-rule="evenodd" d="M2.75659 4.13614C2.75659 3.03157 3.65202 2.13614 4.75659 2.13614H8.75659C9.86116 2.13614 10.7566 3.03157 10.7566 4.13614V20.1361C10.7566 21.2407 9.86116 22.1361 8.75659 22.1361H4.75659C3.65202 22.1361 2.75659 21.2407 2.75659 20.1361V4.13614ZM4.75659 4.13614H8.75659V8.12552H4.75659V4.13614ZM4.75659 10.1255V14.1468H8.75659V10.1255H4.75659ZM4.75659 20.1361V16.1468H8.75659V20.1361H4.75659Z" fill="black"/>
<path fill-rule="evenodd" clip-rule="evenodd" d="M14.7566 4.13614C14.7566 3.03157 15.652 2.13614 16.7566 2.13614H20.7566C21.8612 2.13614 22.7566 3.03157 22.7566 4.13614V20.1361C22.7566 21.2407 21.8612 22.1361 20.7566 22.1361H16.7566C15.652 22.1361 14.7566 21.2407 14.7566 20.1361V4.13614ZM16.7566 4.13614H20.7566V8.12552H16.7566V4.13614ZM16.7566 10.1255V14.1468H20.7566V10.1255H16.7566ZM16.7566 20.1361V16.1468H20.7566V20.1361H16.7566Z" fill="black"/>
</g>
</svg>
