<svg width="25" height="25" viewBox="0 0 25 25" fill="none" xmlns="http://www.w3.org/2000/svg">
<mask id="mask0_17_477" style="mask-type:alpha" maskUnits="userSpaceOnUse" x="0" y="0" width="25" height="25">
<rect x="0.705261" y="0.986084" width="24" height="24" fill="#DCDCDC"/>
</mask>
<g mask="url(#mask0_17_477)">
<path fill-rule="evenodd" clip-rule="evenodd" d="M17.8668 14.6742V14.6742ZM9.15707 5.43443C9.15707 5.26362 9.02276 5.12515 8.85707 5.12515H5.08864C4.92296 5.12515 4.78864 5.26362 4.78864 5.43443V11.6073C4.78864 11.7781 4.92296 11.9166 5.08864 11.9166H7.6657C7.77208 11.9166 7.8705 11.8585 7.92437 11.7639C7.97825 11.6694 7.97953 11.5525 7.92774 11.4567C7.70757 11.0495 7.76579 10.5257 8.10094 10.1801C8.50609 9.76243 9.16296 9.76242 9.56812 10.1801L11.5563 12.2297C11.7509 12.4303 11.8602 12.7023 11.8602 12.986C11.8602 13.2697 11.7509 13.5417 11.5563 13.7423L9.56813 15.792C9.16299 16.2097 8.50611 16.2097 8.10096 15.792C7.76581 15.4465 7.70757 14.9227 7.92771 14.5155C7.97949 14.4197 7.9782 14.3028 7.92432 14.2082C7.87044 14.1137 7.77203 14.0556 7.66566 14.0556H5.08864C4.92296 14.0556 4.78864 14.1941 4.78864 14.3649V20.5377C4.78864 20.7085 4.92296 20.847 5.08864 20.847H8.85707C9.02276 20.847 9.15707 20.7085 9.15707 20.5377V17.931C9.15707 17.3403 9.62156 16.8615 10.1945 16.8615C10.7675 16.8615 11.232 17.3403 11.232 17.931V21.2271C11.232 22.1986 10.4681 22.9861 9.5258 22.9861H4.41992C3.47763 22.9861 2.71375 22.1986 2.71375 21.2271V4.74503C2.71375 3.77359 3.47762 2.98608 4.41992 2.98608H9.5258C10.4681 2.98608 11.232 3.77359 11.232 4.74503V7.74586C11.232 8.33655 10.7675 8.8154 10.1945 8.8154C9.62156 8.8154 9.15707 8.33655 9.15707 7.74586V5.43443ZM16.2534 20.5377C16.2534 20.7085 16.3877 20.847 16.5534 20.847H20.3219C20.4014 20.847 20.4777 20.8144 20.534 20.7564C20.5902 20.6984 20.6219 20.6198 20.6219 20.5377L20.6219 14.3649C20.6219 14.1941 20.4875 14.0556 20.3219 14.0556H17.7448C17.6384 14.0556 17.54 14.1137 17.4861 14.2082C17.4322 14.3028 17.431 14.4197 17.4828 14.5155C17.7029 14.9227 17.6447 15.4465 17.3096 15.792C16.9044 16.2097 16.2475 16.2097 15.8424 15.7921L13.8542 13.7425C13.6596 13.5419 13.5503 13.2698 13.5503 12.9862C13.5503 12.7025 13.6596 12.4305 13.8541 12.2299L15.8424 10.1802C16.2475 9.7625 16.9044 9.7625 17.3095 10.1802C17.6447 10.5257 17.7029 11.0495 17.4828 11.4567C17.431 11.5525 17.4323 11.6694 17.4862 11.7639C17.5401 11.8585 17.6385 11.9165 17.7448 11.9165H20.3219C20.4875 11.9165 20.6219 11.7781 20.6219 11.6073V5.43446C20.6219 5.35244 20.5902 5.27377 20.534 5.21577C20.4777 5.15777 20.4014 5.12518 20.3219 5.12518L16.5534 5.12518C16.3877 5.12518 16.2534 5.26365 16.2534 5.43446V8.04113C16.2534 8.63182 15.7889 9.11067 15.216 9.11067C14.643 9.11067 14.1785 8.63182 14.1785 8.04113V4.74505C14.1785 3.77362 14.9424 2.98611 15.8847 2.98611L20.9906 2.98611C21.9329 2.98611 22.6968 3.77362 22.6968 4.74505L22.6968 21.2271C22.6968 22.1986 21.9329 22.9861 20.9906 22.9861H15.8847C14.9424 22.9861 14.1785 22.1986 14.1785 21.2271L14.1785 18.2263C14.1785 17.6356 14.643 17.1568 15.216 17.1568C15.7889 17.1568 16.2534 17.6356 16.2534 18.2263V20.5377Z" fill="black"/>
</g>
</svg>
