<svg width="17" height="17" viewBox="0 0 17 17" fill="none" xmlns="http://www.w3.org/2000/svg">
<mask id="mask0_102_677" style="mask-type:alpha" maskUnits="userSpaceOnUse" x="0" y="0" width="17" height="17">
<rect x="0.208496" y="0.0600586" width="16" height="16" fill="#DCDCDC"/>
</mask>
<g mask="url(#mask0_102_677)">
<path fill-rule="evenodd" clip-rule="evenodd" d="M6.00227 2.94522C6.00227 2.83901 5.91875 2.75291 5.81573 2.75291H3.47254C3.36952 2.75291 3.28601 2.83901 3.28601 2.94522L3.28602 7.18717C3.28602 7.29338 3.36954 7.37948 3.47256 7.37948H5.07496C5.1411 7.37948 5.2023 7.34337 5.2358 7.28458C5.2693 7.22579 5.2701 7.1531 5.23789 7.09354C5.10099 6.84035 5.13719 6.51463 5.34559 6.29978C5.5975 6.04006 6.00594 6.04006 6.25787 6.29976L7.49412 7.5742C7.61511 7.69892 7.68307 7.86807 7.68307 8.04445C7.68308 8.22083 7.61511 8.38999 7.49413 8.51471L6.25788 9.7892C6.00596 10.0489 5.59752 10.0489 5.3456 9.7892C5.1372 9.57436 5.10099 9.24866 5.23787 8.99547C5.27007 8.93591 5.26927 8.86323 5.23577 8.80444C5.20226 8.74565 5.14107 8.70954 5.07493 8.70954H3.47256C3.36954 8.70954 3.28602 8.79564 3.28602 8.90185L3.28602 13.1752C3.28602 13.2814 3.36954 13.3675 3.47256 13.3675H5.81574C5.91876 13.3675 6.00228 13.2814 6.00228 13.1752L6.00228 11.1192C6.00228 10.752 6.29109 10.4542 6.64736 10.4542C7.00363 10.4542 7.29244 10.752 7.29244 11.1192L7.29244 13.6038C7.29244 14.2079 6.81746 14.6975 6.23155 14.6975H3.05675C2.47084 14.6975 1.99586 14.2079 1.99586 13.6038L1.99585 2.51655C1.99585 1.91252 2.47082 1.42285 3.05674 1.42285H6.23154C6.81745 1.42285 7.29242 1.91252 7.29242 2.51655L7.29244 4.78618C7.29244 5.15346 7.00363 5.45121 6.64736 5.45121C6.29109 5.45121 6.00228 5.15346 6.00228 4.78618L6.00227 2.94522ZM10.4147 13.1752C10.4147 13.2814 10.4983 13.3675 10.6013 13.3675H12.9445C12.9939 13.3675 13.0414 13.3472 13.0764 13.3111C13.1114 13.2751 13.131 13.2262 13.131 13.1752L13.131 8.90184C13.131 8.79563 13.0475 8.70954 12.9445 8.70954H11.3421C11.2759 8.70954 11.2147 8.74564 11.1812 8.80444C11.1477 8.86323 11.1469 8.93592 11.1791 8.99548C11.316 9.24867 11.2798 9.57438 11.0714 9.78924C10.8195 10.049 10.4111 10.049 10.1592 9.78926L8.9229 8.51482C8.80192 8.3901 8.73395 8.22095 8.73395 8.04457C8.73395 7.86819 8.80191 7.69903 8.92289 7.57431L10.1592 6.29982C10.4111 6.04011 10.8195 6.04011 11.0714 6.29982C11.2798 6.51466 11.316 6.84036 11.1792 7.09355C11.147 7.15311 11.1478 7.22579 11.1813 7.28458C11.2148 7.34337 11.276 7.37948 11.3421 7.37948H12.9445C13.0475 7.37948 13.131 7.29338 13.131 7.18717L13.131 2.94524C13.131 2.89423 13.1113 2.84532 13.0763 2.80925C13.0414 2.77319 12.9939 2.75293 12.9444 2.75293L10.6013 2.75293C10.4982 2.75293 10.4147 2.83903 10.4147 2.94524L10.4147 4.96977C10.4147 5.33706 10.1259 5.6348 9.76966 5.6348C9.4134 5.6348 9.12458 5.33706 9.12458 4.96977L9.12457 2.51657C9.12457 1.91253 9.59954 1.42287 10.1855 1.42287L13.3603 1.42287C13.9462 1.42287 14.4211 1.91253 14.4211 2.51657L14.4212 13.6038C14.4212 14.2079 13.9462 14.6975 13.3603 14.6975H10.1855C9.59956 14.6975 9.12458 14.2079 9.12458 13.6038L9.12458 11.3028C9.12458 10.9356 9.4134 10.6378 9.76966 10.6378C10.1259 10.6378 10.4147 10.9356 10.4147 11.3028L10.4147 13.1752Z" fill="black"/>
</g>
</svg>
