<svg width="17" height="17" viewBox="0 0 17 17" fill="none" xmlns="http://www.w3.org/2000/svg">
<mask id="mask0_102_712" style="mask-type:alpha" maskUnits="userSpaceOnUse" x="0" y="0" width="17" height="17">
<rect x="0.882446" y="0.236328" width="16.0027" height="16.0027" fill="#DCDCDC"/>
</mask>
<g mask="url(#mask0_102_712)">
<path d="M3.5495 2.9029H6.21662V4.23646H7.55018V2.9029C7.55018 2.16639 6.95313 1.56934 6.21662 1.56934H3.5495C2.813 1.56934 2.21594 2.16639 2.21594 2.9029V13.5714C2.21594 14.3079 2.813 14.9049 3.5495 14.9049H6.21662C6.95313 14.9049 7.55018 14.3079 7.55018 13.5714V12.2378H6.21662V13.5714H3.5495V2.9029Z" fill="black"/>
<path d="M9.55052 7.7915H11.2842C11.4315 7.7915 11.5509 7.67209 11.5509 7.52479V6.72466C11.5509 6.57735 11.4315 6.45794 11.2842 6.45794H6.48334C6.33603 6.45794 6.21662 6.57735 6.21662 6.72466V7.52479C6.21662 7.67209 6.33603 7.7915 6.48334 7.7915H8.21696V10.5268C8.21696 10.6741 8.33638 10.7935 8.48368 10.7935H9.28381C9.43111 10.7935 9.55052 10.6741 9.55052 10.5268V7.7915Z" fill="black"/>
<path d="M11.5509 2.9029H14.218V13.5714H11.5509V12.2378H10.2173V13.5714C10.2173 14.3079 10.8144 14.9049 11.5509 14.9049H14.218C14.9545 14.9049 15.5515 14.3079 15.5515 13.5714V2.9029C15.5515 2.16639 14.9545 1.56934 14.218 1.56934H11.5509C10.8144 1.56934 10.2173 2.16639 10.2173 2.9029V4.23646H11.5509V2.9029Z" fill="black"/>
</g>
</svg>
