<svg width="16" height="16" viewBox="0 0 16 16" fill="none" xmlns="http://www.w3.org/2000/svg">
<path d="M12.5939 1.13916L10.6607 1.1392C9.5563 1.13922 8.66094 2.03448 8.66079 3.13893L8.66064 4.19191C8.6606 4.52328 8.92919 4.79194 9.26056 4.79199C9.59193 4.79204 9.8606 4.52344 9.86064 4.19207L9.86079 3.13909C9.86085 2.69731 10.219 2.33921 10.6608 2.3392L12.594 2.33916C13.0358 2.33915 13.394 2.69732 13.394 3.13916L13.394 7.40012H10.4947L11.0464 6.84845C11.2807 6.61414 11.2807 6.23424 11.0464 5.99993C10.8121 5.76561 10.4322 5.76561 10.1979 5.99993L9.31395 6.88384C8.68914 7.50867 8.68914 8.52171 9.31396 9.14654L10.1979 10.0305C10.4322 10.2648 10.8121 10.2648 11.0464 10.0305C11.2807 9.79614 11.2807 9.41624 11.0464 9.18192L10.4646 8.60012H13.394L13.394 12.8612C13.394 13.303 13.0359 13.6612 12.594 13.6612H10.6606C10.2188 13.6612 9.86064 13.303 9.86064 12.8612V11.8084C9.86064 11.4771 9.59202 11.2084 9.26064 11.2084C8.92927 11.2084 8.66064 11.4771 8.66064 11.8084V12.8612C8.66064 13.9658 9.55607 14.8612 10.6606 14.8612H12.594C13.6986 14.8612 14.594 13.9658 14.594 12.8612L14.594 8.0066L14.594 8.00012L14.594 7.99363L14.594 3.13915C14.594 2.03457 13.6985 1.13914 12.5939 1.13916Z" fill="black"/>
<path d="M5.33889 1.13919L3.4057 1.13926C2.30115 1.13931 1.40576 2.03474 1.40578 3.13928L1.40582 7.99139L1.40576 8.00012L1.40582 8.00886L1.40587 12.8612C1.40588 13.9658 2.30131 14.8612 3.40587 14.8612H5.33897C6.44354 14.8612 7.33897 13.9658 7.33897 12.8612V11.8084C7.33897 11.4771 7.07034 11.2084 6.73897 11.2084C6.4076 11.2084 6.13897 11.4771 6.13897 11.8084V12.8612C6.13897 13.303 5.7808 13.6612 5.33897 13.6612H3.40587C2.96405 13.6612 2.60588 13.303 2.60587 12.8612L2.60583 8.60012H5.53538L4.95357 9.18193C4.71925 9.41624 4.71925 9.79614 4.95357 10.0305C5.18788 10.2648 5.56778 10.2648 5.8021 10.0305L6.68599 9.14656C7.31083 8.52172 7.31083 7.50866 6.68599 6.88382L5.8021 5.99993C5.56778 5.76561 5.18788 5.76561 4.95357 5.99993C4.71925 6.23424 4.71925 6.61414 4.95357 6.84845L5.50523 7.40012H2.60582L2.60578 3.13927C2.60577 2.69745 2.96393 2.33928 3.40574 2.33926L5.33894 2.33919C5.78078 2.33917 6.13897 2.69735 6.13897 3.13919V4.192C6.13897 4.52337 6.4076 4.792 6.73897 4.792C7.07034 4.792 7.33897 4.52337 7.33897 4.192V3.13919C7.33897 2.03459 6.44349 1.13914 5.33889 1.13919Z" fill="black"/>
</svg>
