<svg width="25" height="25" viewBox="0 0 25 25" fill="none" xmlns="http://www.w3.org/2000/svg">
<mask id="mask0_17_632" style="mask-type:alpha" maskUnits="userSpaceOnUse" x="0" y="0" width="25" height="25">
<rect x="0.756714" y="0.136139" width="24" height="24" fill="#DCDCDC"/>
</mask>
<g mask="url(#mask0_17_632)">
<path fill-rule="evenodd" clip-rule="evenodd" d="M22.7567 4.13614C22.7567 3.03157 21.8613 2.13614 20.7567 2.13614L4.75671 2.13614C3.65214 2.13614 2.75671 3.03157 2.75671 4.13614L2.75671 8.13614C2.75671 9.24071 3.65215 10.1361 4.75671 10.1361L20.7567 10.1361C21.8613 10.1361 22.7567 9.24071 22.7567 8.13614L22.7567 4.13614ZM20.7567 8.13614L20.7567 4.13614L16.7673 4.13614L16.7673 8.13614L20.7567 8.13614ZM10.7461 4.13614L14.7673 4.13614L14.7673 8.13614L10.7461 8.13614L10.7461 4.13614ZM8.74609 4.13614L4.75671 4.13614L4.75671 8.13614L8.74609 8.13614L8.74609 4.13614Z" fill="black"/>
<path fill-rule="evenodd" clip-rule="evenodd" d="M20.7567 14.1361C21.8613 14.1361 22.7567 15.0316 22.7567 16.1361L22.7567 20.1361C22.7567 21.2407 21.8613 22.1361 20.7567 22.1361L4.75671 22.1361C3.65214 22.1361 2.75671 21.2407 2.75671 20.1361L2.75671 16.1361C2.75671 15.0316 3.65214 14.1361 4.75671 14.1361L20.7567 14.1361ZM20.7567 16.1361L20.7567 20.1361L4.75671 20.1361L4.75671 16.1361L20.7567 16.1361Z" fill="black"/>
</g>
</svg>
