<svg width="17" height="16" viewBox="0 0 17 16" fill="none" xmlns="http://www.w3.org/2000/svg">
<path d="M12.0438 12.2901C11.6423 12.2901 11.3168 11.9646 11.3168 11.563V6.91165C11.3168 6.56119 11.6009 6.2771 11.9514 6.2771H12.1296C12.3461 6.2771 12.5291 6.43759 12.5573 6.65225L12.6038 7.00638C12.6054 7.01841 12.6156 7.0274 12.6278 7.0274C12.6351 7.0274 12.6421 7.02403 12.6467 7.01827C13.0315 6.53614 13.506 6.12915 14.1346 6.12915C15.1532 6.12915 15.5886 7.06967 15.5886 8.57027V11.5589C15.5886 11.9627 15.2613 12.2901 14.8575 12.2901C14.4537 12.2901 14.1264 11.9627 14.1264 11.5589V8.80275C14.1264 7.97848 13.9538 7.73543 13.5842 7.73543C12.9291 7.73543 12.7709 8.63264 12.7709 9.28775V11.563C12.7709 11.9646 12.4454 12.2901 12.0438 12.2901Z" fill="black"/>
<path d="M9.40478 12.29C9.00325 12.29 8.67775 11.9645 8.67775 11.563V7.0041C8.67775 6.60257 9.00325 6.27706 9.40478 6.27706C9.80631 6.27706 10.1318 6.60257 10.1318 7.0041V11.563C10.1318 11.9645 9.80631 12.29 9.40478 12.29ZM9.40889 5.301C8.91599 5.301 8.57095 5.04065 8.57095 4.48057C8.57095 3.90992 8.91599 3.70801 9.40889 3.70801C9.89358 3.70801 10.2386 3.90992 10.2386 4.48057C10.2386 5.04065 9.89358 5.301 9.40889 5.301Z" fill="black"/>
<path d="M2.24583 12.29C1.88286 12.29 1.58862 11.9958 1.58862 11.6328V5.33154C1.58862 4.83238 1.99327 4.42773 2.49243 4.42773C2.89594 4.42773 3.25057 4.69522 3.36144 5.0832L4.14351 7.81994C4.26503 8.26807 4.36259 8.75731 4.47557 9.23698C4.47835 9.24879 4.4889 9.25713 4.50103 9.25713C4.51301 9.25713 4.52346 9.249 4.52639 9.23738C4.6473 8.75758 4.74476 8.26819 4.85822 7.81994L5.61141 5.09177C5.71972 4.69946 6.07663 4.42773 6.48362 4.42773C6.98335 4.42773 7.38846 4.83285 7.38846 5.33257V11.6205C7.38846 11.9903 7.0887 12.29 6.71893 12.29C6.34916 12.29 6.0494 11.9903 6.0494 11.6205V9.59529C6.0494 8.81971 6.16253 7.65951 6.23652 6.88792C6.23751 6.87758 6.22936 6.86885 6.21897 6.86885C6.21101 6.86885 6.20404 6.87418 6.20197 6.88186L5.69615 8.74988L4.98542 11.2367C4.91985 11.4661 4.71016 11.6243 4.47156 11.6243C4.23348 11.6243 4.02411 11.4668 3.95809 11.2381L3.23985 8.74988L2.75038 6.88195C2.74836 6.87423 2.74138 6.86885 2.7334 6.86885C2.72305 6.86885 2.71492 6.87755 2.71591 6.88786C2.7899 7.65944 2.90303 8.81968 2.90303 9.59529V11.6328C2.90303 11.9958 2.60879 12.29 2.24583 12.29Z" fill="black"/>
</svg>
