<svg width="16" height="16" viewBox="0 0 16 16" fill="none" xmlns="http://www.w3.org/2000/svg">
<path d="M11.4552 12.291C11.0537 12.291 10.7282 11.9655 10.7282 11.564V6.91262C10.7282 6.56217 11.0123 6.27807 11.3627 6.27807H11.541C11.7575 6.27807 11.9405 6.43857 11.9687 6.65322L12.0152 7.00736C12.0168 7.01938 12.027 7.02837 12.0391 7.02837C12.0465 7.02837 12.0535 7.02501 12.0581 7.01925C12.4429 6.53712 12.9173 6.13013 13.5459 6.13013C14.5646 6.13013 15 7.07064 15 8.57124V11.5599C15 11.9637 14.6727 12.291 14.2689 12.291C13.8651 12.291 13.5377 11.9637 13.5377 11.5599V8.80373C13.5377 7.97946 13.3652 7.7364 12.9955 7.7364C12.3404 7.7364 12.1822 8.63362 12.1822 9.28872V11.564C12.1822 11.9655 11.8567 12.291 11.4552 12.291Z" fill="black"/>
<path d="M8.81616 12.291C8.41463 12.291 8.08913 11.9655 8.08913 11.564V7.00507C8.08913 6.60354 8.41463 6.27804 8.81616 6.27804C9.21769 6.27804 9.54319 6.60354 9.54319 7.00507V11.564C9.54319 11.9655 9.21769 12.291 8.81616 12.291ZM8.82027 5.30198C8.32736 5.30198 7.98233 5.04163 7.98233 4.48155C7.98233 3.9109 8.32736 3.70899 8.82027 3.70899C9.30496 3.70899 9.64999 3.9109 9.64999 4.48155C9.64999 5.04163 9.30496 5.30198 8.82027 5.30198Z" fill="black"/>
<path d="M1.6572 12.291C1.29424 12.291 1 11.9968 1 11.6338V5.33251C1 4.83336 1.40465 4.42871 1.9038 4.42871C2.30732 4.42871 2.66194 4.69619 2.77282 5.08418L3.55488 7.82091C3.67641 8.26904 3.77396 8.75828 3.88695 9.23796C3.88973 9.24977 3.90027 9.25811 3.91241 9.25811C3.92439 9.25811 3.93484 9.24998 3.93777 9.23836C4.05868 8.75856 4.15614 8.26917 4.26959 7.82091L5.02278 5.09275C5.13109 4.70044 5.488 4.42871 5.89499 4.42871C6.39472 4.42871 6.79983 4.83382 6.79983 5.33355V11.6215C6.79983 11.9913 6.50008 12.291 6.13031 12.291C5.76054 12.291 5.46078 11.9913 5.46078 11.6215V9.59627C5.46078 8.82068 5.57391 7.66049 5.6479 6.8889C5.64889 6.87856 5.64073 6.86983 5.63034 6.86983C5.62239 6.86983 5.61542 6.87516 5.61334 6.88284L5.10753 8.75086L4.39679 11.2377C4.33123 11.4671 4.12153 11.6252 3.88293 11.6252C3.64486 11.6252 3.43549 11.4678 3.36946 11.239L2.65123 8.75086L2.16176 6.88293C2.15973 6.87521 2.15276 6.86983 2.14478 6.86983C2.13442 6.86983 2.1263 6.87852 2.12729 6.88883C2.20127 7.66042 2.31441 8.82066 2.31441 9.59627V11.6338C2.31441 11.9968 2.02017 12.291 1.6572 12.291Z" fill="black"/>
</svg>
