<svg width="17" height="17" viewBox="0 0 17 17" fill="none" xmlns="http://www.w3.org/2000/svg">
<path d="M8.86658 4.09473C9.41886 4.09473 9.86658 3.64701 9.86658 3.09473C9.86658 2.54244 9.41886 2.09473 8.86658 2.09473C8.31429 2.09473 7.86658 2.54244 7.86658 3.09473C7.86658 3.64701 8.31429 4.09473 8.86658 4.09473Z" fill="black"/>
<path d="M8.86658 9.79407C9.41886 9.79407 9.86658 9.34635 9.86658 8.79407C9.86658 8.24178 9.41886 7.79407 8.86658 7.79407C8.31429 7.79407 7.86658 8.24178 7.86658 8.79407C7.86658 9.34635 8.31429 9.79407 8.86658 9.79407Z" fill="black"/>
<path d="M9.86658 14.4934C9.86658 15.0457 9.41886 15.4934 8.86658 15.4934C8.31429 15.4934 7.86658 15.0457 7.86658 14.4934C7.86658 13.9411 8.31429 13.4934 8.86658 13.4934C9.41886 13.4934 9.86658 13.9411 9.86658 14.4934Z" fill="black"/>
</svg>
