<svg width="16" height="16" viewBox="0 0 16 16" fill="none" xmlns="http://www.w3.org/2000/svg">
<path fill-rule="evenodd" clip-rule="evenodd" d="M1.25 2.96401C1.25 3.84767 1.96634 4.56401 2.85 4.56401H13.15C14.0337 4.56401 14.75 3.84767 14.75 2.96401C14.75 2.08036 14.0337 1.36401 13.15 1.36401H2.85C1.96635 1.36401 1.25 2.08036 1.25 2.96401ZM2.85 3.36401C2.62909 3.36401 2.45 3.18493 2.45 2.96401C2.45 2.7431 2.62909 2.56401 2.85 2.56401H13.15C13.3709 2.56401 13.55 2.7431 13.55 2.96401C13.55 3.18493 13.3709 3.36401 13.15 3.36401H2.85Z" fill="black"/>
<path d="M5.57564 11.6118C5.80995 11.3774 6.18985 11.3774 6.42417 11.6118L7.3999 12.5875V6.36951C7.3999 6.03814 7.66853 5.76951 7.9999 5.76951C8.33127 5.76951 8.5999 6.03814 8.5999 6.36951V12.5875L9.57564 11.6118C9.80995 11.3774 10.1899 11.3774 10.4242 11.6118C10.6585 11.8461 10.6585 12.226 10.4242 12.4603L8.4324 14.452C8.32324 14.5655 8.16982 14.6362 7.9999 14.6362C7.82998 14.6362 7.67655 14.5655 7.56739 14.452L5.57564 12.4603C5.34132 12.226 5.34132 11.8461 5.57564 11.6118Z" fill="black"/>
</svg>
