<svg width="16" height="16" viewBox="0 0 16 16" fill="none" xmlns="http://www.w3.org/2000/svg">
<path fill-rule="evenodd" clip-rule="evenodd" d="M1.06494 7.99983C1.06494 4.1698 4.1698 1.06494 7.99983 1.06494C11.8299 1.06494 14.9347 4.1698 14.9347 7.99983C14.9347 10.3837 13.7319 12.4867 11.9 13.7349H14.3346C14.4173 13.7349 14.4962 13.7517 14.5678 13.782C14.7833 13.873 14.9346 14.0862 14.9346 14.3349C14.9346 14.5812 14.7861 14.7928 14.5737 14.8852C14.5182 14.9094 14.4583 14.9254 14.3956 14.9318C14.3755 14.9338 14.3549 14.9349 14.3343 14.9349H11.6776L11.6688 14.9348L7.99983 14.9347C4.1698 14.9347 1.06494 11.8299 1.06494 7.99983ZM7.99983 2.26494C4.83253 2.26494 2.26494 4.83253 2.26494 7.99983C2.26494 11.1671 4.83253 13.7347 7.99983 13.7347C11.1671 13.7347 13.7347 11.1671 13.7347 7.99983C13.7347 4.83253 11.1671 2.26494 7.99983 2.26494ZM6.44971 5.14935C6.44971 4.29317 7.14375 3.59912 7.99994 3.59912C8.85612 3.59912 9.55017 4.29317 9.55017 5.14935C9.55017 6.00554 8.85612 6.69959 7.99994 6.69959C7.14375 6.69959 6.44971 6.00554 6.44971 5.14935ZM7.99994 4.79912C7.8065 4.79912 7.64971 4.95591 7.64971 5.14935C7.64971 5.3428 7.8065 5.49959 7.99994 5.49959C8.19338 5.49959 8.35017 5.3428 8.35017 5.14935C8.35017 4.95591 8.19338 4.79912 7.99994 4.79912ZM6.44971 10.8508C6.44971 9.99459 7.14375 9.30054 7.99994 9.30054C8.85612 9.30054 9.55017 9.99459 9.55017 10.8508C9.55017 11.707 8.85612 12.401 7.99994 12.401C7.14375 12.401 6.44971 11.707 6.44971 10.8508ZM7.99994 10.5005C7.8065 10.5005 7.64971 10.6573 7.64971 10.8508C7.64971 11.0442 7.8065 11.201 7.99994 11.201C8.19338 11.201 8.35017 11.0442 8.35017 10.8508C8.35017 10.6573 8.19338 10.5005 7.99994 10.5005ZM3.59912 7.99994C3.59912 7.14375 4.29317 6.44971 5.14935 6.44971C6.00554 6.44971 6.69959 7.14375 6.69959 7.99994C6.69959 8.85612 6.00554 9.55017 5.14935 9.55017C4.29317 9.55017 3.59912 8.85612 3.59912 7.99994ZM5.14935 7.64971C4.95591 7.64971 4.79912 7.8065 4.79912 7.99994C4.79912 8.19338 4.95591 8.35017 5.14935 8.35017C5.3428 8.35017 5.49959 8.19338 5.49959 7.99994C5.49959 7.8065 5.3428 7.64971 5.14935 7.64971ZM9.30029 7.99994C9.30029 7.14375 9.99434 6.44971 10.8505 6.44971C11.7067 6.44971 12.4008 7.14375 12.4008 7.99994C12.4008 8.85612 11.7067 9.55017 10.8505 9.55017C9.99434 9.55017 9.30029 8.85612 9.30029 7.99994ZM10.8505 7.64971C10.6571 7.64971 10.5003 7.8065 10.5003 7.99994C10.5003 8.19338 10.6571 8.35017 10.8505 8.35017C11.044 8.35017 11.2008 8.19338 11.2008 7.99994C11.2008 7.8065 11.044 7.64971 10.8505 7.64971Z" fill="black"/>
</svg>
