<svg width="17" height="16" viewBox="0 0 17 16" fill="none" xmlns="http://www.w3.org/2000/svg">
<path d="M8.38078 10.9714C8.80078 10.9714 9.01078 10.8414 9.01078 10.5814V5.57094C9.01078 5.22427 8.78078 5.05094 8.32078 5.05094H7.32078C7.18745 5.05094 7.08745 5.09761 7.02078 5.19094C6.96078 5.28427 6.93078 5.45094 6.93078 5.69094C6.93078 5.94427 6.95411 6.11094 7.00078 6.19094C7.04745 6.27094 7.13411 6.31094 7.26078 6.31094H7.75078V10.5814C7.75078 10.8414 7.96078 10.9714 8.38078 10.9714Z" fill="black"/>
<path fill-rule="evenodd" clip-rule="evenodd" d="M1.24878 1.96769C1.24878 1.5995 1.54726 1.30103 1.91545 1.30103H4.58211C4.9503 1.30103 5.24878 1.5995 5.24878 1.96769V2.63428H11.1844V1.96769C11.1844 1.5995 11.4829 1.30103 11.8511 1.30103H14.5178C14.886 1.30103 15.1844 1.5995 15.1844 1.96769V4.63436C15.1844 5.00255 14.886 5.30103 14.5178 5.30103H13.8512V10.6971H14.5178C14.886 10.6971 15.1844 10.9956 15.1844 11.3638V14.0305C15.1844 14.3987 14.886 14.6971 14.5178 14.6971H11.8511C11.4829 14.6971 11.1844 14.3987 11.1844 14.0305V13.364H5.24878V14.0305C5.24878 14.3987 4.9503 14.6971 4.58211 14.6971H1.91545C1.54726 14.6971 1.24878 14.3987 1.24878 14.0305V11.3638C1.24878 10.9956 1.54726 10.6971 1.91545 10.6971H2.58203V5.30103H1.91545C1.54726 5.30103 1.24878 5.00255 1.24878 4.63436V1.96769ZM11.1844 11.3638V12.0306H5.24878V11.3638C5.24878 10.9956 4.9503 10.6971 4.58211 10.6971H3.91536V5.30103H4.58211C4.9503 5.30103 5.24878 5.00255 5.24878 4.63436V3.96761H11.1844V4.63436C11.1844 5.00255 11.4829 5.30103 11.8511 5.30103H12.5178V10.6971H11.8511C11.4829 10.6971 11.1844 10.9956 11.1844 11.3638ZM3.91545 12.0305V12.6899L3.91541 12.6973L3.91545 12.7048V13.3638H2.58211V12.0305H3.91545ZM3.91545 3.29349L3.91541 3.30094L3.91545 3.30839V3.96769H3.25615L3.2487 3.96765L3.24125 3.96769H2.58211V2.63436H3.91545V3.29349ZM12.5178 13.3638V12.0305H13.8511V13.3638H12.5178ZM13.1845 3.96765L13.1919 3.96769H13.8511V2.63436H12.5178V3.96769H13.177L13.1845 3.96765Z" fill="black"/>
</svg>
