<svg width="25" height="25" viewBox="0 0 25 25" fill="none" xmlns="http://www.w3.org/2000/svg">
<mask id="mask0_17_582" style="mask-type:alpha" maskUnits="userSpaceOnUse" x="0" y="0" width="25" height="25">
<rect x="0.0327148" y="0.537476" width="24" height="24" fill="#DCDCDC"/>
</mask>
<g mask="url(#mask0_17_582)">
<path d="M2.03271 18.5375V20.5375C2.03271 21.642 2.92815 22.5375 4.03272 22.5375H6.03272V20.5375H4.03272L4.03271 18.5375H2.03271Z" fill="#999999"/>
<path d="M6.03271 2.53748H4.03271C2.92815 2.53748 2.03271 3.43291 2.03271 4.53748V6.53748H4.03271V4.53748L6.03271 4.53748V2.53748Z" fill="#999999"/>
<path d="M2.03271 14.5375H4.03271V10.5375H2.03271V14.5375Z" fill="#999999"/>
<path d="M10.0327 2.53748V4.53748H11.0327V8.53748H13.0327V4.53748H14.0327V2.53748H10.0327Z" fill="#999999"/>
<path d="M18.0327 2.53748V4.53748H20.0327V6.53748H22.0327V4.53748C22.0327 3.43291 21.1373 2.53748 20.0327 2.53748H18.0327Z" fill="#999999"/>
<path d="M22.0327 10.5375H20.0327V11.5375H16.0327V13.5375H20.0327V14.5375H22.0327V10.5375Z" fill="#999999"/>
<path d="M22.0327 18.5375H20.0327V20.5375H18.0327V22.5375H20.0327C21.1373 22.5375 22.0327 21.642 22.0327 20.5375V18.5375Z" fill="#999999"/>
<path d="M14.0327 22.5375V20.5375H13.0327V16.5375H11.0327V20.5375H10.0327V22.5375H14.0327Z" fill="#999999"/>
<path d="M8.03272 11.5375H4.03272V13.5375H8.03272V11.5375Z" fill="#999999"/>
</g>
</svg>
