<svg width="16" height="16" viewBox="0 0 16 16" fill="none" xmlns="http://www.w3.org/2000/svg">
<mask id="mask0_102_837" style="mask-type:alpha" maskUnits="userSpaceOnUse" x="0" y="0" width="16" height="16">
<rect width="16" height="16" fill="#DCDCDC"/>
</mask>
<g mask="url(#mask0_102_837)">
<path fill-rule="evenodd" clip-rule="evenodd" d="M8.6162 1.81215C8.5058 1.58491 8.26513 1.43921 8.00015 1.43921C7.73517 1.43921 7.4945 1.58491 7.3841 1.81215L3.99571 8.78653C3.83977 9.10751 3.98917 9.48697 4.3294 9.63409C4.66964 9.78121 5.07187 9.64026 5.22781 9.31929L6.1761 7.36743H9.8242L10.7725 9.31929C10.9284 9.64026 11.3307 9.78121 11.6709 9.63409C12.0111 9.48697 12.1605 9.10751 12.0046 8.78653L8.6162 1.81215ZM9.203 6.0888H6.7973L8.00015 3.61294L9.203 6.0888Z" fill="black"/>
<path d="M2.35535 11.5384C1.98108 11.5384 1.67767 11.8246 1.67767 12.1777C1.67767 12.5308 1.98108 12.817 2.35535 12.817H12.0086L11.3172 13.4692C11.0526 13.7189 11.0526 14.1237 11.3172 14.3734C11.5819 14.623 12.0109 14.623 12.2756 14.3734L14.1238 12.6298C14.3176 12.4469 14.3756 12.1719 14.2707 11.933C14.1658 11.6942 13.9187 11.5384 13.6446 11.5384H2.35535Z" fill="black"/>
</g>
</svg>
