<svg width="17" height="17" viewBox="0 0 17 17" fill="none" xmlns="http://www.w3.org/2000/svg">
<mask id="mask0_102_837" style="mask-type:alpha" maskUnits="userSpaceOnUse" x="0" y="0" width="17" height="17">
<rect x="0.0397949" y="0.556152" width="16" height="16" fill="#DCDCDC"/>
</mask>
<g mask="url(#mask0_102_837)">
<path fill-rule="evenodd" clip-rule="evenodd" d="M8.65606 2.36855C8.54565 2.1413 8.30498 1.99561 8.04 1.99561C7.77503 1.99561 7.53436 2.1413 7.42395 2.36855L4.03557 9.34293C3.87962 9.66391 4.02902 10.0434 4.36926 10.1905C4.70949 10.3376 5.11173 10.1967 5.26767 9.87568L6.21595 7.92383H9.86406L10.8123 9.87568C10.9683 10.1967 11.3705 10.3376 11.7108 10.1905C12.051 10.0434 12.2004 9.66391 12.0444 9.34293L8.65606 2.36855ZM9.24286 6.64519H6.83715L8.04 4.16933L9.24286 6.64519Z" fill="black"/>
<path d="M2.39521 12.0948C2.02094 12.0948 1.71753 12.381 1.71753 12.7341C1.71753 13.0872 2.02094 13.3734 2.39521 13.3734H12.0484L11.3571 14.0256C11.0924 14.2753 11.0924 14.6801 11.3571 14.9298C11.6217 15.1794 12.0508 15.1794 12.3155 14.9298L14.1637 13.1862C14.3575 13.0033 14.4155 12.7283 14.3106 12.4894C14.2057 12.2505 13.9586 12.0948 13.6845 12.0948H2.39521Z" fill="black"/>
</g>
</svg>
