<svg width="17" height="16" viewBox="0 0 17 16" fill="none" xmlns="http://www.w3.org/2000/svg">
<path d="M1.65465 3.96697V2.9942C1.65465 2.9188 1.64353 2.86563 1.62465 2.83387C1.61052 2.81011 1.58943 2.79243 1.53852 2.79243H1.44483C1.23836 2.79243 1.07099 2.62506 1.07099 2.41859C1.07099 2.23956 1.19714 2.09152 1.36369 2.04728C1.4425 2.02634 1.51336 2.00423 1.57642 1.98104C1.65529 1.94986 1.73286 1.91381 1.80913 1.87285C1.8974 1.82544 1.99768 1.79517 2.10303 1.79517C2.41692 1.79517 2.67137 2.04962 2.67137 2.36351V4.02047C2.67137 4.12385 2.75517 4.20765 2.85855 4.20765C3.0614 4.20765 3.22585 4.3721 3.22585 4.57495V4.63332C3.22585 4.86842 3.03527 5.059 2.80018 5.059H1.41884C1.1829 5.059 0.993164 4.86511 0.993164 4.63087C0.993164 4.39932 1.18072 4.20765 1.41398 4.20765C1.5469 4.20765 1.65465 4.09989 1.65465 3.96697Z" fill="black"/>
<path d="M0.949709 9.2145C1.14957 9.02907 1.33226 8.85497 1.49677 8.69321C1.6914 8.50496 1.84244 8.33306 1.95136 8.17747C2.05826 8.02476 2.10492 7.89219 2.10492 7.77781C2.10492 7.65255 2.07293 7.57986 2.02759 7.53865L2.0245 7.5357C1.97641 7.48761 1.9103 7.46013 1.81635 7.46013C1.71986 7.46013 1.6383 7.47348 1.5822 7.51611L1.58034 7.51749C1.42279 7.63092 1.19425 7.67086 1.03149 7.50811L1.02187 7.49849C0.868433 7.34505 0.852261 7.07998 1.03819 6.93364C1.12802 6.86293 1.21897 6.8051 1.31109 6.76081C1.48788 6.67257 1.69616 6.63037 1.93278 6.63037C2.15191 6.63037 2.34929 6.67491 2.52246 6.76665C2.69563 6.85514 2.83257 6.98323 2.93172 7.14966C3.03175 7.31758 3.08022 7.51184 3.08022 7.72929C3.08022 7.91104 3.03028 8.09333 2.93429 8.27521C2.84374 8.45283 2.72797 8.62691 2.58859 8.79616C2.51109 8.88842 2.43304 8.97759 2.35442 9.06369C2.34919 9.06941 2.34388 9.07573 2.33892 9.08228C2.34542 9.08201 2.35268 9.08151 2.36075 9.08073C2.46266 9.07087 2.54985 9.06576 2.62168 9.06576H2.78662C3.02915 9.06576 3.22576 9.26237 3.22576 9.5049C3.22576 9.74742 3.02915 9.94403 2.78662 9.94403H1.23472C1.00261 9.94403 0.814453 9.75587 0.814453 9.52376C0.814453 9.40615 0.86379 9.29421 0.949709 9.2145Z" fill="black"/>
<path d="M1.2579 14.674C1.45109 14.7553 1.67487 14.7946 1.92711 14.7946C2.1451 14.7946 2.34841 14.7599 2.53619 14.6895L2.53746 14.689C2.7264 14.6148 2.88145 14.5071 2.99952 14.3647L3.00018 14.3639C3.12167 14.2138 3.18089 14.0326 3.18089 13.8252C3.18089 13.6181 3.12169 13.4411 2.99737 13.3022C2.91596 13.2112 2.81864 13.1388 2.70642 13.0846C2.80611 13.023 2.88805 12.9505 2.95017 12.8661C3.04138 12.7422 3.08609 12.5977 3.08609 12.4365C3.08609 12.1403 2.97594 11.9041 2.7521 11.7404C2.53645 11.5772 2.25212 11.5002 1.90815 11.5002C1.7136 11.5002 1.52963 11.5372 1.35712 11.6115C1.28512 11.6418 1.21426 11.6776 1.14456 11.7188C0.938688 11.8404 0.928034 12.1099 1.06649 12.2774C1.21291 12.4544 1.46028 12.4561 1.63989 12.363C1.70891 12.3286 1.78521 12.3109 1.87023 12.3109C1.96356 12.3109 2.01717 12.3317 2.04691 12.3578C2.07449 12.3821 2.09529 12.4231 2.09529 12.4981C2.09529 12.5709 2.0658 12.6284 1.99667 12.6764C1.96042 12.6999 1.8978 12.7216 1.80025 12.7355C1.61051 12.7625 1.44118 12.9145 1.44118 13.1237C1.44118 13.3319 1.60937 13.4885 1.80489 13.5068C1.87785 13.5136 1.93575 13.5234 1.97985 13.5355C2.07997 13.562 2.12905 13.596 2.14927 13.6246C2.17519 13.6614 2.19008 13.7078 2.19008 13.7684C2.19008 13.8334 2.16583 13.8754 2.1142 13.9064C2.05357 13.9428 1.96521 13.965 1.84179 13.965C1.749 13.965 1.6547 13.9433 1.55817 13.8981C1.363 13.7983 1.08846 13.8083 0.942801 14.01L0.936366 14.0189C0.827321 14.1699 0.821861 14.401 0.994678 14.5262C1.07406 14.5836 1.16225 14.633 1.2579 14.674Z" fill="black"/>
<path d="M5.13037 2.827C4.799 2.827 4.53037 3.09563 4.53037 3.427C4.53037 3.75837 4.799 4.027 5.13037 4.027H15.1489C15.4803 4.027 15.7489 3.75837 15.7489 3.427C15.7489 3.09563 15.4803 2.827 15.1489 2.827H5.13037Z" fill="black"/>
<path d="M4.53037 8.28711C4.53037 7.95574 4.799 7.68711 5.13037 7.68711H15.1489C15.4803 7.68711 15.7489 7.95574 15.7489 8.28711C15.7489 8.61848 15.4803 8.88711 15.1489 8.88711H5.13037C4.799 8.88711 4.53037 8.61848 4.53037 8.28711Z" fill="black"/>
<path d="M5.13037 12.5475C4.799 12.5475 4.53037 12.8161 4.53037 13.1475C4.53037 13.4788 4.799 13.7475 5.13037 13.7475H15.1489C15.4803 13.7475 15.7489 13.4788 15.7489 13.1475C15.7489 12.8161 15.4803 12.5475 15.1489 12.5475H5.13037Z" fill="black"/>
</svg>
