<svg width="25" height="25" viewBox="0 0 25 25" fill="none" xmlns="http://www.w3.org/2000/svg">
<mask id="mask0_17_605" style="mask-type:alpha" maskUnits="userSpaceOnUse" x="0" y="0" width="25" height="25">
<rect x="0.468262" y="0.537476" width="24" height="24" fill="#DCDCDC"/>
</mask>
<g mask="url(#mask0_17_605)">
<path fill-rule="evenodd" clip-rule="evenodd" d="M20.4683 4.53748H4.46826V20.5375H20.4683V4.53748ZM4.46826 2.53748C3.36369 2.53748 2.46826 3.43291 2.46826 4.53748V20.5375C2.46826 21.642 3.36369 22.5375 4.46826 22.5375H20.4683C21.5728 22.5375 22.4683 21.642 22.4683 20.5375V4.53748C22.4683 3.43291 21.5728 2.53748 20.4683 2.53748H4.46826Z" fill="black"/>
<path d="M11.4683 4.53748V8.53748H13.4683V4.53748H11.4683Z" fill="#999999"/>
<path d="M11.4683 16.5375V20.5375H13.4683V16.5375H11.4683Z" fill="#999999"/>
<path d="M20.4683 11.5375H16.4683V13.5375H20.4683V11.5375Z" fill="#999999"/>
<path d="M8.46826 11.5375H4.46826V13.5375H8.46826V11.5375Z" fill="#999999"/>
</g>
</svg>
