<svg width="16" height="16" viewBox="0 0 16 16" fill="none" xmlns="http://www.w3.org/2000/svg">
<path d="M5.06689 3.3334C5.06689 3.00203 5.33552 2.7334 5.66689 2.7334H14.3336C14.6649 2.7334 14.9336 3.00203 14.9336 3.3334C14.9336 3.66477 14.6649 3.9334 14.3336 3.9334H5.66689C5.33552 3.9334 5.06689 3.66477 5.06689 3.3334Z" fill="black"/>
<path d="M4.33352 7.40005C4.00215 7.40005 3.73352 7.66868 3.73352 8.00005C3.73352 8.33143 4.00215 8.60005 4.33352 8.60005H5.66685C5.99822 8.60005 6.26685 8.33143 6.26685 8.00005C6.26685 7.66868 5.99822 7.40005 5.66685 7.40005H4.33352Z" fill="black"/>
<path d="M8.33352 7.40005C8.00215 7.40005 7.73352 7.66868 7.73352 8.00005C7.73352 8.33143 8.00215 8.60005 8.33352 8.60005H14.3335C14.6649 8.60005 14.9335 8.33143 14.9335 8.00005C14.9335 7.66868 14.6649 7.40005 14.3335 7.40005H8.33352Z" fill="black"/>
<path d="M5.06689 12.6667C5.06689 12.3354 5.33552 12.0667 5.66689 12.0667H14.3336C14.6649 12.0667 14.9336 12.3354 14.9336 12.6667C14.9336 12.9981 14.6649 13.2667 14.3336 13.2667H5.66689C5.33552 13.2667 5.06689 12.9981 5.06689 12.6667Z" fill="black"/>
<path d="M1.66689 12.0667C1.33552 12.0667 1.06689 12.3354 1.06689 12.6667C1.06689 12.9981 1.33552 13.2667 1.66689 13.2667H3.00023C3.3316 13.2667 3.60023 12.9981 3.60023 12.6667C3.60023 12.3354 3.3316 12.0667 3.00023 12.0667H1.66689Z" fill="black"/>
<path d="M1.66689 2.7334C1.33552 2.7334 1.06689 3.00203 1.06689 3.3334C1.06689 3.66477 1.33552 3.9334 1.66689 3.9334H3.00023C3.3316 3.9334 3.60023 3.66477 3.60023 3.3334C3.60023 3.00203 3.3316 2.7334 3.00023 2.7334H1.66689Z" fill="black"/>
</svg>
