<svg width="17" height="17" viewBox="0 0 17 17" fill="none" xmlns="http://www.w3.org/2000/svg">
<mask id="mask0_102_793" style="mask-type:alpha" maskUnits="userSpaceOnUse" x="0" y="0" width="17" height="17">
<rect x="0.447876" y="0.209961" width="16" height="16" fill="#DCDCDC"/>
</mask>
<g mask="url(#mask0_102_793)">
<path d="M5.36939 7.53377C4.97066 7.53377 4.64743 7.82763 4.64743 8.19014C4.64743 8.55264 4.97066 8.84651 5.36939 8.84651H12.4453L11.9989 9.25724C11.7186 9.5151 11.7214 9.93069 12.005 10.1855C12.2886 10.4403 12.7457 10.4378 13.026 10.1799L14.6789 8.65907C14.9584 8.40189 14.9565 7.98763 14.6747 7.73256L13.0218 6.23656C12.7392 5.98081 12.2821 5.98174 12.0008 6.23865C11.7195 6.49555 11.7205 6.91115 12.0031 7.1669L12.4084 7.53377H5.36939Z" fill="black"/>
<path d="M9.26102 2.14212C9.26102 1.80906 8.96405 1.53906 8.59771 1.53906C8.23137 1.53906 7.9344 1.80906 7.9344 2.14212V6.02894C7.9344 6.362 8.23137 6.632 8.59771 6.632C8.96405 6.632 9.26102 6.362 9.26102 6.02894V2.14212Z" fill="black"/>
<path d="M9.26102 10.3911C9.26102 10.0581 8.96405 9.78809 8.59771 9.78809C8.23137 9.78809 7.9344 10.0581 7.9344 10.3911V14.278C7.9344 14.611 8.23137 14.881 8.59771 14.881C8.96405 14.881 9.26102 14.611 9.26102 14.278V10.3911Z" fill="black"/>
<path d="M2.6718 3.43622C3.03814 3.43622 3.33511 3.70622 3.33511 4.03928V12.3807C3.33511 12.7138 3.03814 12.9838 2.6718 12.9838C2.30546 12.9838 2.00848 12.7138 2.00848 12.3807V4.03928C2.00848 3.70622 2.30546 3.43622 2.6718 3.43622Z" fill="black"/>
</g>
</svg>
