<svg width="16" height="16" viewBox="0 0 16 16" fill="none" xmlns="http://www.w3.org/2000/svg">
<mask id="mask0_102_793" style="mask-type:alpha" maskUnits="userSpaceOnUse" x="0" y="0" width="16" height="16">
<rect width="16" height="16" fill="#DCDCDC"/>
</mask>
<g mask="url(#mask0_102_793)">
<path d="M4.92151 7.3238C4.52279 7.3238 4.19956 7.61767 4.19956 7.98018C4.19956 8.34268 4.52279 8.63655 4.92151 8.63655H11.9974L11.551 9.04728C11.2708 9.30514 11.2735 9.72073 11.5571 9.97552C11.8407 10.2303 12.2979 10.2278 12.5781 9.96996L14.231 8.4491C14.5105 8.19193 14.5086 7.77767 14.2268 7.5226L12.5739 6.0266C12.2913 5.77085 11.8342 5.77178 11.5529 6.02869C11.2716 6.28559 11.2726 6.70119 11.5552 6.95694L11.9605 7.3238H4.92151Z" fill="black"/>
<path d="M8.81315 1.93216C8.81315 1.5991 8.51617 1.3291 8.14983 1.3291C7.7835 1.3291 7.48652 1.5991 7.48652 1.93216V5.81898C7.48652 6.15204 7.7835 6.42204 8.14983 6.42204C8.51617 6.42204 8.81315 6.15204 8.81315 5.81898V1.93216Z" fill="black"/>
<path d="M8.81315 10.1812C8.81315 9.84812 8.51617 9.57812 8.14983 9.57812C7.7835 9.57812 7.48652 9.84812 7.48652 10.1812V14.068C7.48652 14.4011 7.7835 14.6711 8.14983 14.6711C8.51617 14.6711 8.81315 14.4011 8.81315 14.068V10.1812Z" fill="black"/>
<path d="M2.22392 3.22626C2.59026 3.22626 2.88723 3.49626 2.88723 3.82932V12.1707C2.88723 12.5038 2.59026 12.7738 2.22392 12.7738C1.85758 12.7738 1.56061 12.5038 1.56061 12.1707V3.82932C1.56061 3.49626 1.85758 3.22626 2.22392 3.22626Z" fill="black"/>
</g>
</svg>
