<svg width="25" height="25" viewBox="0 0 25 25" fill="none" xmlns="http://www.w3.org/2000/svg">
<mask id="mask0_17_422" style="mask-type:alpha" maskUnits="userSpaceOnUse" x="0" y="0" width="25" height="25">
<rect x="0.472137" y="0.836792" width="24" height="24" fill="#DCDCDC"/>
</mask>
<g mask="url(#mask0_17_422)">
<path fill-rule="evenodd" clip-rule="evenodd" d="M4.79145 14.5419C4.13464 14.0342 3.71448 13.2564 3.71448 12.3846C3.71448 10.8547 5.0302 9.61454 6.62616 9.61454C8.24652 9.61454 9.58238 8.35539 9.5824 6.80214L9.58241 5.6068C9.58243 4.07696 10.8762 2.83679 12.4721 2.83679C14.0681 2.83679 15.3619 4.07698 15.3619 5.60683V6.80213C15.3619 8.35538 16.6977 9.61454 18.3181 9.61454C19.914 9.61454 21.2298 10.8547 21.2298 12.3846C21.2298 13.2564 20.8096 14.0342 20.1528 14.5419L22.3531 21.6039C22.5446 22.2187 22.0642 22.8368 21.3949 22.8368H3.54936C2.88001 22.8368 2.39963 22.2187 2.59118 21.6039L4.79145 14.5419ZM13.3619 5.60683V6.80213C13.3619 9.43301 15.6129 11.5317 18.3181 11.5317C18.8292 11.5317 19.2298 11.9324 19.2298 12.3846C19.2298 12.842 18.8542 13.2153 18.3825 13.2365H6.56173C6.09007 13.2153 5.71448 12.842 5.71448 12.3846C5.71448 11.9324 6.11504 11.5317 6.62616 11.5317C9.33136 11.5317 11.5824 9.43304 11.5824 6.80217L11.5824 5.60682C11.5824 5.13579 11.9808 4.75395 12.4721 4.75395C12.9635 4.75395 13.3619 5.1358 13.3619 5.60683ZM6.68785 15.1546L4.89167 20.9196H20.0526L18.2564 15.1546H6.68785Z" fill="black"/>
</g>
</svg>
