<svg width="16" height="16" viewBox="0 0 16 16" fill="none" xmlns="http://www.w3.org/2000/svg">
<path fill-rule="evenodd" clip-rule="evenodd" d="M2.76162 2.19092C1.87797 2.19092 1.16162 2.90726 1.16162 3.79092V5.48239C1.16162 6.36604 1.87797 7.08239 2.76162 7.08239H4.45309C5.33675 7.08239 6.05309 6.36604 6.05309 5.48239V3.79092C6.05309 2.90726 5.33675 2.19092 4.45309 2.19092H2.76162ZM2.36162 3.79092C2.36162 3.57 2.54071 3.39092 2.76162 3.39092H4.45309C4.674 3.39092 4.85309 3.57 4.85309 3.79092V5.48239C4.85309 5.7033 4.674 5.88239 4.45309 5.88239H2.76162C2.54071 5.88239 2.36162 5.7033 2.36162 5.48239V3.79092Z" fill="black"/>
<path d="M7.46545 2.92178C7.46545 2.59041 7.73408 2.32178 8.06545 2.32178H14.2382C14.5696 2.32178 14.8382 2.59041 14.8382 2.92178C14.8382 3.25315 14.5696 3.52178 14.2382 3.52178H8.06545C7.73408 3.52178 7.46545 3.25315 7.46545 2.92178Z" fill="black"/>
<path d="M7.46545 6.35098C7.46545 6.01961 7.73408 5.75098 8.06545 5.75098H14.2382C14.5696 5.75098 14.8382 6.01961 14.8382 6.35098C14.8382 6.68235 14.5696 6.95098 14.2382 6.95098H8.06545C7.73408 6.95098 7.46545 6.68235 7.46545 6.35098Z" fill="black"/>
<path d="M1.89272 9.18018C1.56135 9.18018 1.29272 9.4488 1.29272 9.78018C1.29272 10.1115 1.56135 10.3802 1.89272 10.3802H14.2382C14.5696 10.3802 14.8382 10.1115 14.8382 9.78018C14.8382 9.4488 14.5696 9.18018 14.2382 9.18018H1.89272Z" fill="black"/>
<path d="M1.29272 13.2094C1.29272 12.878 1.56135 12.6094 1.89272 12.6094H14.2382C14.5696 12.6094 14.8382 12.878 14.8382 13.2094C14.8382 13.5407 14.5696 13.8094 14.2382 13.8094H1.89272C1.56135 13.8094 1.29272 13.5407 1.29272 13.2094Z" fill="black"/>
</svg>
