<svg width="16" height="16" viewBox="0 0 16 16" fill="none" xmlns="http://www.w3.org/2000/svg">
<path d="M7.17185 6.05078C5.92714 6.05078 5.30136 7.55348 6.17814 8.43696L6.82289 9.08663L6.17814 9.7363C5.30135 10.6198 5.92715 12.1225 7.17185 12.1225H8.57355C9.09954 12.1225 9.60377 11.9125 9.97429 11.5392C10.2077 11.3039 10.2063 10.9241 9.97107 10.6906C9.73586 10.4572 9.35597 10.4586 9.12254 10.6939C8.97733 10.8402 8.7797 10.9225 8.57355 10.9225H7.17185C6.99403 10.9225 6.90463 10.7078 7.02989 10.5816L7.74455 9.86148C8.17019 9.43259 8.17019 8.74066 7.74455 8.31177L7.02989 7.59166C6.90463 7.46545 6.99403 7.25078 7.17185 7.25078H8.57355C8.7797 7.25078 8.97733 7.33308 9.12254 7.4794C9.35597 7.71461 9.73586 7.71605 9.97107 7.48263C10.2063 7.24921 10.2077 6.86931 9.97429 6.63411C9.60377 6.26076 9.09954 6.05078 8.57355 6.05078H7.17185Z" fill="black"/>
<path fill-rule="evenodd" clip-rule="evenodd" d="M10.9999 1.8999H10.6835C10.4461 1.31354 9.87128 0.899902 9.1998 0.899902H6.7998C6.12833 0.899902 5.55346 1.31354 5.31611 1.8999H4.9999C3.56396 1.8999 2.3999 3.06396 2.3999 4.4999V12.4999C2.3999 13.9358 3.56396 15.0999 4.9999 15.0999H10.9999C12.4358 15.0999 13.5999 13.9358 13.5999 12.4999V4.4999C13.5999 3.06396 12.4358 1.8999 10.9999 1.8999ZM4.9999 3.0999H5.31611C5.55346 3.68627 6.12833 4.0999 6.7998 4.0999H9.1998C9.87128 4.0999 10.4461 3.68627 10.6835 3.0999H10.9999C11.7731 3.0999 12.3999 3.7267 12.3999 4.4999V12.4999C12.3999 13.2731 11.7731 13.8999 10.9999 13.8999H4.9999C4.2267 13.8999 3.5999 13.2731 3.5999 12.4999V4.4999C3.5999 3.7267 4.2267 3.0999 4.9999 3.0999ZM6.7998 2.0999C6.57889 2.0999 6.3998 2.27899 6.3998 2.4999C6.3998 2.72082 6.57889 2.8999 6.7998 2.8999H9.1998C9.42072 2.8999 9.5998 2.72082 9.5998 2.4999C9.5998 2.27899 9.42072 2.0999 9.1998 2.0999H6.7998Z" fill="black"/>
</svg>
