<svg width="16" height="16" viewBox="0 0 16 16" fill="none" xmlns="http://www.w3.org/2000/svg">
<path d="M7.32142 1.22314C6.99005 1.22314 6.72142 1.49177 6.72142 1.82314C6.72142 2.15452 6.99005 2.42314 7.32142 2.42314H9.59142C9.92279 2.42314 10.1914 2.15452 10.1914 1.82314C10.1914 1.49177 9.92279 1.22314 9.59142 1.22314H7.32142Z" fill="black"/>
<path d="M2.78643 6.95814C2.78643 6.62677 2.5178 6.35814 2.18643 6.35814C1.85505 6.35814 1.58643 6.62677 1.58643 6.95814V9.22814C1.58643 9.55951 1.85505 9.82814 2.18643 9.82814C2.5178 9.82814 2.78643 9.55951 2.78643 9.22814V6.95814Z" fill="black"/>
<path d="M2.79668 3.83291C2.79668 3.05971 3.42348 2.43291 4.19668 2.43291H4.52668C4.85805 2.43291 5.12668 2.16428 5.12668 1.83291C5.12668 1.50154 4.85805 1.23291 4.52668 1.23291H4.19668C2.76074 1.23291 1.59668 2.39697 1.59668 3.83291V4.16291C1.59668 4.49428 1.86531 4.76291 2.19668 4.76291C2.52805 4.76291 2.79668 4.49428 2.79668 4.16291V3.83291Z" fill="black"/>
<path d="M7.2748 6.3125C6.94343 6.3125 6.6748 6.58113 6.6748 6.9125C6.6748 7.24387 6.94343 7.5125 7.2748 7.5125H11.0748C11.4062 7.5125 11.6748 7.24387 11.6748 6.9125C11.6748 6.58113 11.4062 6.3125 11.0748 6.3125H7.2748Z" fill="black"/>
<path d="M6.6748 9.20889C6.6748 8.87752 6.94343 8.60889 7.2748 8.60889H9.2748C9.60618 8.60889 9.87481 8.87752 9.87481 9.20889C9.87481 9.54026 9.60618 9.80889 9.2748 9.80889H7.2748C6.94343 9.80889 6.6748 9.54026 6.6748 9.20889Z" fill="black"/>
<path d="M7.2748 10.9053C6.94343 10.9053 6.6748 11.1739 6.6748 11.5053C6.6748 11.8366 6.94343 12.1053 7.2748 12.1053H8.2748C8.60618 12.1053 8.8748 11.8366 8.8748 11.5053C8.8748 11.1739 8.60618 10.9053 8.2748 10.9053H7.2748Z" fill="black"/>
<path fill-rule="evenodd" clip-rule="evenodd" d="M4.21387 6.17764C4.21387 4.7417 5.37793 3.57764 6.81387 3.57764H11.8139C13.2498 3.57764 14.4139 4.7417 14.4139 6.17764V12.1776C14.4139 13.6136 13.2498 14.7776 11.8139 14.7776H6.81387C5.37793 14.7776 4.21387 13.6136 4.21387 12.1776V6.17764ZM6.81387 4.77764C6.04067 4.77764 5.41387 5.40444 5.41387 6.17764V12.1776C5.41387 12.9508 6.04067 13.5776 6.81387 13.5776H11.8139C12.5871 13.5776 13.2139 12.9508 13.2139 12.1776V6.17764C13.2139 5.40444 12.5871 4.77764 11.8139 4.77764H6.81387Z" fill="black"/>
</svg>
