<svg width="17" height="17" viewBox="0 0 17 17" fill="none" xmlns="http://www.w3.org/2000/svg">
<path d="M6.68584 2.8208H5.98584C4.88127 2.8208 3.98584 3.71623 3.98584 4.8208V12.8208C3.98584 13.9254 4.88127 14.8208 5.98584 14.8208H11.9858C13.0904 14.8208 13.9858 13.9254 13.9858 12.8208V4.8208C13.9858 3.71623 13.0904 2.8208 11.9858 2.8208H11.2858" stroke="black" stroke-width="1.2"/>
<path d="M6.78564 2.8208C6.78564 2.26852 7.23336 1.8208 7.78564 1.8208H10.1856C10.7379 1.8208 11.1856 2.26852 11.1856 2.8208V2.8208C11.1856 3.37309 10.7379 3.8208 10.1856 3.8208H7.78564C7.23336 3.8208 6.78564 3.37309 6.78564 2.8208V2.8208Z" stroke="black" stroke-width="1.2"/>
<path d="M7.95947 7.74858L8.68464 7.32318C8.81797 7.24496 8.98584 7.34111 8.98584 7.49568V11.4761" stroke="black" stroke-width="1.2" stroke-linecap="round"/>
<path d="M7.72021 11.4761H10.2515" stroke="black" stroke-width="1.2" stroke-linecap="round"/>
</svg>
