<svg width="16" height="16" viewBox="0 0 16 16" fill="none" xmlns="http://www.w3.org/2000/svg">
<path d="M7.99483 11.7556H6.73428C6.40291 11.7556 6.13428 11.487 6.13428 11.1556C6.13428 10.8243 6.40291 10.5556 6.73428 10.5556H7.3999V7.87363L7.27713 7.94566C6.99131 8.11333 6.62368 8.01755 6.45601 7.73173C6.28834 7.44591 6.38412 7.07828 6.66994 6.91061L7.39511 6.4852C7.92842 6.17235 8.5999 6.55693 8.5999 7.17523V10.5556H9.26553C9.5969 10.5556 9.86553 10.8243 9.86553 11.1556C9.86553 11.487 9.5969 11.7556 9.26553 11.7556H8.00497L7.9999 11.7556L7.99483 11.7556Z" fill="black"/>
<path fill-rule="evenodd" clip-rule="evenodd" d="M10.6835 1.8999H10.9999C12.4358 1.8999 13.5999 3.06396 13.5999 4.4999V12.4999C13.5999 13.9358 12.4358 15.0999 10.9999 15.0999H4.9999C3.56396 15.0999 2.3999 13.9358 2.3999 12.4999V4.4999C2.3999 3.06396 3.56396 1.8999 4.9999 1.8999H5.31611C5.55346 1.31354 6.12833 0.899902 6.7998 0.899902H9.1998C9.87128 0.899902 10.4461 1.31354 10.6835 1.8999ZM5.31611 3.0999H4.9999C4.2267 3.0999 3.5999 3.7267 3.5999 4.4999V12.4999C3.5999 13.2731 4.2267 13.8999 4.9999 13.8999H10.9999C11.7731 13.8999 12.3999 13.2731 12.3999 12.4999V4.4999C12.3999 3.7267 11.7731 3.0999 10.9999 3.0999H10.6835C10.4461 3.68627 9.87128 4.0999 9.1998 4.0999H6.7998C6.12833 4.0999 5.55346 3.68627 5.31611 3.0999ZM6.3998 2.4999C6.3998 2.27899 6.57889 2.0999 6.7998 2.0999H9.1998C9.42072 2.0999 9.5998 2.27899 9.5998 2.4999C9.5998 2.72082 9.42072 2.8999 9.1998 2.8999H6.7998C6.57889 2.8999 6.3998 2.72082 6.3998 2.4999Z" fill="black"/>
</svg>
