<svg width="16" height="16" viewBox="0 0 16 16" fill="none" xmlns="http://www.w3.org/2000/svg">
<path fill-rule="evenodd" clip-rule="evenodd" d="M7.061 6.58997C7.38151 5.71545 8.61836 5.71545 8.93886 6.58997L10.5634 11.0226C10.6774 11.3338 10.5176 11.6784 10.2065 11.7925C9.89538 11.9065 9.55072 11.7467 9.43669 11.4356L8.95497 10.1212H7.04489L6.56318 11.4356C6.44915 11.7467 6.10449 11.9065 5.79336 11.7925C5.48222 11.6784 5.32244 11.3338 5.43646 11.0226L7.061 6.58997ZM7.48468 8.92119H8.51518L7.99993 7.51529L7.48468 8.92119Z" fill="black"/>
<path fill-rule="evenodd" clip-rule="evenodd" d="M10.6835 1.8999H10.9999C12.4358 1.8999 13.5999 3.06396 13.5999 4.4999V12.4999C13.5999 13.9358 12.4358 15.0999 10.9999 15.0999H4.9999C3.56396 15.0999 2.3999 13.9358 2.3999 12.4999V4.4999C2.3999 3.06396 3.56396 1.8999 4.9999 1.8999H5.31611C5.55346 1.31354 6.12833 0.899902 6.7998 0.899902H9.1998C9.87128 0.899902 10.4461 1.31354 10.6835 1.8999ZM5.31611 3.0999H4.9999C4.2267 3.0999 3.5999 3.7267 3.5999 4.4999V12.4999C3.5999 13.2731 4.2267 13.8999 4.9999 13.8999H10.9999C11.7731 13.8999 12.3999 13.2731 12.3999 12.4999V4.4999C12.3999 3.7267 11.7731 3.0999 10.9999 3.0999H10.6835C10.4461 3.68627 9.87128 4.0999 9.1998 4.0999H6.7998C6.12833 4.0999 5.55346 3.68627 5.31611 3.0999ZM6.3998 2.4999C6.3998 2.27899 6.57889 2.0999 6.7998 2.0999H9.1998C9.42072 2.0999 9.5998 2.27899 9.5998 2.4999C9.5998 2.72082 9.42072 2.8999 9.1998 2.8999H6.7998C6.57889 2.8999 6.3998 2.72082 6.3998 2.4999Z" fill="black"/>
</svg>
