<svg width="16" height="16" viewBox="0 0 16 16" fill="none" xmlns="http://www.w3.org/2000/svg">
<path d="M6.73276 7.91684C6.96707 7.68253 6.96707 7.30263 6.73276 7.06831C6.49845 6.834 6.11855 6.834 5.88423 7.06831L4.67622 8.27632C4.5637 8.38884 4.50049 8.54146 4.50049 8.70059C4.50049 8.85972 4.5637 9.01233 4.67622 9.12485L5.88423 10.3329C6.11855 10.5672 6.49845 10.5672 6.73276 10.3329C6.96707 10.0985 6.96707 9.71864 6.73276 9.48433L6.54902 9.30059H9.4504L9.26665 9.48433C9.03234 9.71864 9.03234 10.0985 9.26665 10.3329C9.50097 10.5672 9.88087 10.5672 10.1152 10.3329L11.3232 9.12485C11.5575 8.89053 11.5575 8.51064 11.3232 8.27632L10.1152 7.06831C9.88087 6.834 9.50097 6.834 9.26665 7.06831C9.03234 7.30263 9.03234 7.68253 9.26665 7.91684L9.4504 8.10059H6.54902L6.73276 7.91684Z" fill="black"/>
<path fill-rule="evenodd" clip-rule="evenodd" d="M10.9999 1.8999H10.6835C10.4461 1.31354 9.87128 0.899902 9.1998 0.899902H6.7998C6.12833 0.899902 5.55346 1.31354 5.31611 1.8999H4.9999C3.56396 1.8999 2.3999 3.06396 2.3999 4.4999V12.4999C2.3999 13.9358 3.56396 15.0999 4.9999 15.0999H10.9999C12.4358 15.0999 13.5999 13.9358 13.5999 12.4999V4.4999C13.5999 3.06396 12.4358 1.8999 10.9999 1.8999ZM4.9999 3.0999H5.31611C5.55346 3.68627 6.12833 4.0999 6.7998 4.0999H9.1998C9.87128 4.0999 10.4461 3.68627 10.6835 3.0999H10.9999C11.7731 3.0999 12.3999 3.7267 12.3999 4.4999V12.4999C12.3999 13.2731 11.7731 13.8999 10.9999 13.8999H4.9999C4.2267 13.8999 3.5999 13.2731 3.5999 12.4999V4.4999C3.5999 3.7267 4.2267 3.0999 4.9999 3.0999ZM6.7998 2.0999C6.57889 2.0999 6.3998 2.27899 6.3998 2.4999C6.3998 2.72082 6.57889 2.8999 6.7998 2.8999H9.1998C9.42072 2.8999 9.5998 2.72082 9.5998 2.4999C9.5998 2.27899 9.42072 2.0999 9.1998 2.0999H6.7998Z" fill="black"/>
</svg>
