<svg width="16" height="16" viewBox="0 0 16 16" fill="none" xmlns="http://www.w3.org/2000/svg">
<path d="M7.31483 1.22998C6.98346 1.22998 6.71483 1.49861 6.71483 1.82998C6.71483 2.16135 6.98346 2.42998 7.31483 2.42998H9.58483C9.9162 2.42998 10.1848 2.16135 10.1848 1.82998C10.1848 1.49861 9.9162 1.22998 9.58483 1.22998H7.31483Z" fill="black"/>
<path d="M2.77983 6.96498C2.77983 6.63361 2.5112 6.36498 2.17983 6.36498C1.84846 6.36498 1.57983 6.63361 1.57983 6.96498V9.23498C1.57983 9.56635 1.84846 9.83498 2.17983 9.83498C2.5112 9.83498 2.77983 9.56635 2.77983 9.23498V6.96498Z" fill="black"/>
<path d="M4.18975 2.43965C3.41655 2.43965 2.78975 3.06645 2.78975 3.83965V4.16965C2.78975 4.50102 2.52112 4.76965 2.18975 4.76965C1.85838 4.76965 1.58975 4.50102 1.58975 4.16965V3.83965C1.58975 2.40371 2.75381 1.23965 4.18975 1.23965H4.51975C4.85112 1.23965 5.11975 1.50828 5.11975 1.83965C5.11975 2.17102 4.85112 2.43965 4.51975 2.43965H4.18975Z" fill="black"/>
<path fill-rule="evenodd" clip-rule="evenodd" d="M4.22012 6.16973C4.22012 4.73379 5.38418 3.56973 6.82012 3.56973H11.8201C13.2561 3.56973 14.4201 4.73379 14.4201 6.16973V12.1697C14.4201 13.6057 13.2561 14.7697 11.8201 14.7697H6.82012C5.38418 14.7697 4.22012 13.6057 4.22012 12.1697V6.16973ZM6.82012 4.76973C6.04692 4.76973 5.42012 5.39653 5.42012 6.16973V12.1697C5.42012 12.9429 6.04692 13.5697 6.82012 13.5697H11.8201C12.5933 13.5697 13.2201 12.9429 13.2201 12.1697V6.16973C13.2201 5.39653 12.5933 4.76973 11.8201 4.76973H6.82012Z" fill="black"/>
</svg>
