<svg width="17" height="17" viewBox="0 0 17 17" fill="none" xmlns="http://www.w3.org/2000/svg">
<path d="M6.10918 2.8208H5.40918C4.30461 2.8208 3.40918 3.71623 3.40918 4.8208V12.8208C3.40918 13.9254 4.30461 14.8208 5.40918 14.8208H11.4092C12.5137 14.8208 13.4092 13.9254 13.4092 12.8208V4.8208C13.4092 3.71623 12.5137 2.8208 11.4092 2.8208H10.7092" stroke="black" stroke-width="1.2"/>
<path d="M6.20898 2.8208C6.20898 2.26852 6.6567 1.8208 7.20898 1.8208H9.60898C10.1613 1.8208 10.609 2.26852 10.609 2.8208V2.8208C10.609 3.37309 10.1613 3.8208 9.60898 3.8208H7.20898C6.6567 3.8208 6.20898 3.37309 6.20898 2.8208V2.8208Z" stroke="black" stroke-width="1.2"/>
<path d="M6.40894 11.5502L8.03348 7.11755C8.16168 6.76774 8.65642 6.76774 8.78462 7.11755L10.4092 11.5502" stroke="black" stroke-width="1.2" stroke-linecap="round" stroke-linejoin="round"/>
<path d="M7.39575 9.84229H9.53873" stroke="black" stroke-width="1.2" stroke-linecap="round"/>
</svg>
