<svg width="17" height="16" viewBox="0 0 17 16" fill="none" xmlns="http://www.w3.org/2000/svg">
<path d="M5.75576 5.98633C5.42439 5.98633 5.15576 6.25496 5.15576 6.58633C5.15576 6.9177 5.42439 7.18633 5.75576 7.18633H11.5542C11.8856 7.18633 12.1542 6.9177 12.1542 6.58633C12.1542 6.25496 11.8856 5.98633 11.5542 5.98633H5.75576Z" fill="black"/>
<path d="M6.15527 9.07607C6.15527 8.7447 6.4239 8.47607 6.75527 8.47607H10.5553C10.8866 8.47607 11.1553 8.7447 11.1553 9.07607C11.1553 9.40744 10.8866 9.67607 10.5553 9.67607H6.75527C6.4239 9.67607 6.15527 9.40744 6.15527 9.07607Z" fill="black"/>
<path d="M7.75527 10.9653C7.4239 10.9653 7.15527 11.234 7.15527 11.5653C7.15527 11.8967 7.4239 12.1653 7.75527 12.1653H9.55527C9.88664 12.1653 10.1553 11.8967 10.1553 11.5653C10.1553 11.234 9.88664 10.9653 9.55527 10.9653H7.75527Z" fill="black"/>
<path fill-rule="evenodd" clip-rule="evenodd" d="M11.6552 1.8999H11.3388C11.1014 1.31354 10.5266 0.899902 9.85508 0.899902H7.45508C6.7836 0.899902 6.20874 1.31354 5.97138 1.8999H5.65518C4.21924 1.8999 3.05518 3.06396 3.05518 4.4999V12.4999C3.05518 13.9358 4.21924 15.0999 5.65518 15.0999H11.6552C13.0911 15.0999 14.2552 13.9358 14.2552 12.4999V4.4999C14.2552 3.06396 13.0911 1.8999 11.6552 1.8999ZM5.65518 3.0999H5.97138C6.20874 3.68627 6.7836 4.0999 7.45508 4.0999H9.85508C10.5266 4.0999 11.1014 3.68627 11.3388 3.0999H11.6552C12.4284 3.0999 13.0552 3.7267 13.0552 4.4999V12.4999C13.0552 13.2731 12.4284 13.8999 11.6552 13.8999H5.65518C4.88198 13.8999 4.25518 13.2731 4.25518 12.4999V4.4999C4.25518 3.7267 4.88198 3.0999 5.65518 3.0999ZM7.45508 2.0999C7.23416 2.0999 7.05508 2.27899 7.05508 2.4999C7.05508 2.72082 7.23416 2.8999 7.45508 2.8999H9.85508C10.076 2.8999 10.2551 2.72082 10.2551 2.4999C10.2551 2.27899 10.076 2.0999 9.85508 2.0999H7.45508Z" fill="black"/>
</svg>
