<svg width="17" height="17" viewBox="0 0 17 17" fill="none" xmlns="http://www.w3.org/2000/svg">
<path d="M6.59526 2.8208H5.89526C4.79069 2.8208 3.89526 3.71623 3.89526 4.8208V12.8208C3.89526 13.9254 4.79069 14.8208 5.89526 14.8208H11.8953C12.9998 14.8208 13.8953 13.9254 13.8953 12.8208V4.8208C13.8953 3.71623 12.9998 2.8208 11.8953 2.8208H11.1953" stroke="black" stroke-width="1.2"/>
<path d="M6.69507 2.8208C6.69507 2.26852 7.14278 1.8208 7.69507 1.8208H10.0951C10.6474 1.8208 11.0951 2.26852 11.0951 2.8208V2.8208C11.0951 3.37309 10.6474 3.8208 10.0951 3.8208H7.69507C7.14278 3.8208 6.69507 3.37309 6.69507 2.8208V2.8208Z" stroke="black" stroke-width="1.2"/>
<path d="M10.4436 7.37765V7.37765C10.1857 7.11782 9.83481 6.97168 9.46874 6.97168H8.06703C7.35578 6.97168 6.99818 7.83037 7.4992 8.33521L8.21386 9.05532C8.40733 9.25027 8.40733 9.56478 8.21386 9.75973L7.4992 10.4798C6.99818 10.9847 7.35578 11.8434 8.06703 11.8434H9.46874C9.83481 11.8434 10.1857 11.6972 10.4436 11.4374V11.4374" stroke="black" stroke-width="1.2" stroke-linecap="round" stroke-linejoin="round"/>
</svg>
