<svg width="17" height="17" viewBox="0 0 17 17" fill="none" xmlns="http://www.w3.org/2000/svg">
<path d="M6.59551 3.0083H5.89551C4.79094 3.0083 3.89551 3.90373 3.89551 5.0083V13.0083C3.89551 14.1129 4.79094 15.0083 5.89551 15.0083H11.8955C13.0001 15.0083 13.8955 14.1129 13.8955 13.0083V5.0083C13.8955 3.90373 13.0001 3.0083 11.8955 3.0083H11.1955" stroke="black" stroke-width="1.2"/>
<path d="M6.69531 3.0083C6.69531 2.45602 7.14303 2.0083 7.69531 2.0083H10.0953C10.6476 2.0083 11.0953 2.45602 11.0953 3.0083V3.0083C11.0953 3.56059 10.6476 4.0083 10.0953 4.0083H7.69531C7.14303 4.0083 6.69531 3.56059 6.69531 3.0083V3.0083Z" stroke="black" stroke-width="1.2"/>
<path d="M5.99609 7.09473H11.7945" stroke="black" stroke-width="1.2" stroke-linecap="round" stroke-linejoin="round"/>
<path d="M6.99561 9.58398H10.7956" stroke="black" stroke-width="1.2" stroke-linecap="round" stroke-linejoin="round"/>
<path d="M7.99561 12.0737H9.79561" stroke="black" stroke-width="1.2" stroke-linecap="round" stroke-linejoin="round"/>
</svg>
