<svg width="17" height="17" viewBox="0 0 17 17" fill="none" xmlns="http://www.w3.org/2000/svg">
<path fill-rule="evenodd" clip-rule="evenodd" d="M8.49874 6.21606C7.21008 6.21606 6.16541 7.26074 6.16541 8.5494C6.16541 9.83805 7.21008 10.8827 8.49874 10.8827C9.7874 10.8827 10.8321 9.83805 10.8321 8.5494C10.8321 7.26074 9.7874 6.21606 8.49874 6.21606ZM7.49874 8.5494C7.49874 7.99712 7.94646 7.5494 8.49874 7.5494C9.05102 7.5494 9.49874 7.99712 9.49874 8.5494C9.49874 9.10168 9.05102 9.5494 8.49874 9.5494C7.94646 9.5494 7.49874 9.10168 7.49874 8.5494Z" fill="black"/>
<path fill-rule="evenodd" clip-rule="evenodd" d="M5.16547 2.21606C4.92923 2.21606 4.71063 2.34109 4.59085 2.54471L1.25745 8.21138C1.13472 8.42001 1.13472 8.67878 1.25745 8.88742L4.59085 14.5541C4.71063 14.7577 4.92923 14.8827 5.16547 14.8827H11.8322C12.0684 14.8827 12.287 14.7577 12.4068 14.5541L15.74 8.8874C15.8628 8.67877 15.8628 8.42002 15.74 8.21139L12.4068 2.54473C12.287 2.3411 12.0684 2.21606 11.8322 2.21606H5.16547ZM2.60553 8.5494L5.54677 3.5494H11.4509L14.392 8.5494L11.4509 13.5494H5.54677L2.60553 8.5494Z" fill="black"/>
</svg>
