<svg width="17" height="17" viewBox="0 0 17 17" fill="none" xmlns="http://www.w3.org/2000/svg">
<path fill-rule="evenodd" clip-rule="evenodd" d="M4.08989 4.52266H2.64274C2.27455 4.52266 1.97607 4.22419 1.97607 3.856C1.97607 3.48781 2.27455 3.18933 2.64274 3.18933H4.08986C4.36441 2.41251 5.10525 1.85596 5.97607 1.85596C6.8469 1.85596 7.58774 2.41251 7.86228 3.18933H12.3093C14.0055 3.18933 15.3096 4.45471 15.3094 6.1894C15.3093 7.92386 14.0056 9.18933 12.3093 9.18933H7.30953L7.3021 9.18929H4.97621C4.00568 9.18929 3.30932 9.86839 3.30941 10.8559C3.3095 11.8436 4.00579 12.5226 4.97621 12.5226H9.42321C9.69778 11.7458 10.4386 11.1893 11.3094 11.1893C12.1802 11.1893 12.921 11.7458 13.1956 12.5226H14.6427C15.0109 12.5226 15.3094 12.8211 15.3094 13.1892C15.3094 13.5574 15.0109 13.8559 14.6427 13.8559H13.1956C12.9211 14.6328 12.1802 15.1893 11.3094 15.1893C10.4386 15.1893 9.69772 14.6328 9.42318 13.856H4.97621C3.27993 13.856 1.97623 12.5905 1.97607 10.856C1.97592 9.12133 3.28005 7.85596 4.97621 7.85596H7.30941L7.31684 7.856H12.3093C13.2797 7.856 13.976 7.177 13.9761 6.18927C13.9762 5.20175 13.2798 4.52266 12.3093 4.52266H7.86226C7.58769 5.29944 6.84687 5.85596 5.97607 5.85596C5.10528 5.85596 4.36446 5.29944 4.08989 4.52266ZM5.30941 3.85596C5.30941 3.48777 5.60788 3.18929 5.97607 3.18929C6.34426 3.18929 6.64274 3.48777 6.64274 3.85596C6.64274 4.22415 6.34426 4.52262 5.97607 4.52262C5.60788 4.52262 5.30941 4.22415 5.30941 3.85596ZM10.6427 13.1925C10.6445 13.5593 10.9423 13.856 11.3094 13.856C11.6776 13.856 11.9761 13.5575 11.9761 13.1893C11.9761 12.8211 11.6776 12.5227 11.3094 12.5227C10.9423 12.5227 10.6445 12.8194 10.6427 13.1861L10.6427 13.1893L10.6427 13.1925Z" fill="black"/>
</svg>
