<svg width="16" height="16" viewBox="0 0 16 16" fill="none" xmlns="http://www.w3.org/2000/svg">
<path fill-rule="evenodd" clip-rule="evenodd" d="M3.44719 4.0002H2.00004C1.63185 4.0002 1.33337 3.70173 1.33337 3.33354C1.33337 2.96535 1.63185 2.66687 2.00004 2.66687H3.44716C3.72171 1.89005 4.46255 1.3335 5.33337 1.3335C6.2042 1.3335 6.94504 1.89005 7.21958 2.66687H11.6666C13.3628 2.66687 14.6669 3.93225 14.6667 5.66694C14.6666 7.4014 13.3629 8.66687 11.6666 8.66687H6.66683L6.6594 8.66683H4.33351C3.36298 8.66683 2.66662 9.34592 2.66671 10.3334C2.6668 11.3212 3.36309 12.0002 4.33351 12.0002H8.78051C9.05508 11.2234 9.79589 10.6669 10.6667 10.6669C11.5375 10.6669 12.2783 11.2234 12.5529 12.0001H14C14.3682 12.0001 14.6667 12.2986 14.6667 12.6668C14.6667 13.035 14.3682 13.3335 14 13.3335H12.5529C12.2784 14.1103 11.5375 14.6669 10.6667 14.6669C9.79586 14.6669 9.05502 14.1103 8.78048 13.3335H4.33351C2.63723 13.3335 1.33353 12.068 1.33337 10.3336C1.33322 8.59887 2.63735 7.3335 4.33351 7.3335H6.66671L6.67414 7.33354H11.6666C12.637 7.33354 13.3333 6.65454 13.3334 5.66681C13.3335 4.67929 12.6371 4.0002 11.6666 4.0002H7.21956C6.94499 4.77698 6.20417 5.3335 5.33337 5.3335C4.46258 5.3335 3.72176 4.77698 3.44719 4.0002ZM4.66671 3.3335C4.66671 2.96531 4.96518 2.66683 5.33337 2.66683C5.70156 2.66683 6.00004 2.96531 6.00004 3.3335C6.00004 3.70169 5.70156 4.00016 5.33337 4.00016C4.96518 4.00016 4.66671 3.70169 4.66671 3.3335ZM10 12.6701C10.0018 13.0368 10.2996 13.3335 10.6667 13.3335C11.0349 13.3335 11.3334 13.0351 11.3334 12.6669C11.3334 12.2987 11.0349 12.0002 10.6667 12.0002C10.2996 12.0002 10.0018 12.2969 10 12.6636L10 12.6668L10 12.6701Z" fill="black"/>
</svg>
