<svg width="25" height="25" viewBox="0 0 25 25" fill="none" xmlns="http://www.w3.org/2000/svg">
<mask id="mask0_17_419" style="mask-type:alpha" maskUnits="userSpaceOnUse" x="0" y="0" width="25" height="25">
<rect x="0.861862" y="0.836792" width="24" height="24" fill="#DCDCDC"/>
</mask>
<g mask="url(#mask0_17_419)">
<path d="M10.7618 18.0255C10.7618 17.4523 11.2543 16.9877 11.8618 16.9877H13.8618C14.4693 16.9877 14.9618 17.4523 14.9618 18.0255C14.9618 18.5986 14.4693 19.0632 13.8618 19.0632H11.8618C11.2543 19.0632 10.7618 18.5986 10.7618 18.0255Z" fill="black"/>
<path fill-rule="evenodd" clip-rule="evenodd" d="M7.76183 3.87453C7.76183 3.3014 8.25431 2.83679 8.86183 2.83679H16.8618C17.4693 2.83679 17.9618 3.3014 17.9618 3.87453V6.61038H21.8618C23.0216 6.61038 23.9618 7.49735 23.9618 8.59151V16.1387C23.9618 17.2328 23.0216 18.1198 21.8618 18.1198H17.9618V21.7991C17.9618 22.3722 17.4693 22.8368 16.8618 22.8368H8.86183C8.25431 22.8368 7.76183 22.3722 7.76183 21.7991V18.1198H3.86183C2.70204 18.1198 1.76183 17.2329 1.76183 16.1387V8.59151C1.76183 7.49734 2.70204 6.61038 3.86183 6.61038H7.76183V3.87453ZM7.76183 15.2896H7.36183C6.75431 15.2896 6.26183 14.825 6.26183 14.2519C6.26183 13.6788 6.75431 13.2142 7.36183 13.2142H18.3618C18.9693 13.2142 19.4618 13.6788 19.4618 14.2519C19.4618 14.825 18.9693 15.2896 18.3618 15.2896H17.9618V16.0443H21.7618V8.68585H19.9618V10.4783C19.9618 11.0514 19.4693 11.516 18.8618 11.516H6.86183C6.25431 11.516 5.76183 11.0514 5.76183 10.4783V8.68585H3.96183V16.0443H7.76183V15.2896ZM9.96183 15.2896V20.7613H15.7618V15.2896H9.96183ZM15.7618 7.64811C15.7618 8.22124 16.2543 8.68585 16.8618 8.68585H17.7618V9.44057H7.96183V8.68585H8.86183C9.46934 8.68585 9.96183 8.22124 9.96183 7.64811V4.91226H15.7618V7.64811Z" fill="black"/>
</g>
</svg>
