<svg width="16" height="16" viewBox="0 0 16 16" fill="none" xmlns="http://www.w3.org/2000/svg">
<path d="M8.14424 13.6667H2.47757C1.92529 13.6667 1.47757 13.219 1.47757 12.6667V3C1.47757 2.44772 1.92529 2 2.47757 2H13.5224C14.0747 2 14.5224 2.44772 14.5224 3V7.63736" stroke="black" stroke-width="1.33333" stroke-linecap="round" stroke-linejoin="round"/>
<path d="M13.5224 11.3335H11.5224C10.9701 11.3335 10.5224 11.7812 10.5224 12.3335V13.0002C10.5224 13.5524 10.9701 14.0002 11.5224 14.0002H13.5224C14.0747 14.0002 14.5224 13.5524 14.5224 13.0002V12.3335C14.5224 11.7812 14.0747 11.3335 13.5224 11.3335Z" stroke="black" stroke-width="1.33333" stroke-linejoin="round"/>
<path d="M12.5224 9.3335C13.0747 9.3335 13.5224 9.7812 13.5224 10.3335V11.3335H11.5224V10.3335C11.5224 9.7812 11.9701 9.3335 12.5224 9.3335Z" stroke="black" stroke-width="1.33333" stroke-linejoin="round"/>
<path d="M5.82585 2.26904V6.17786" stroke="black" stroke-width="1.33" stroke-linecap="round"/>
<path d="M10.1741 2.26904V6.17786" stroke="black" stroke-width="1.33" stroke-linecap="round"/>
<path d="M1.57254 6.17773H14.4275" stroke="black" stroke-width="1.33"/>
</svg>
