<svg width="16" height="16" viewBox="0 0 16 16" fill="none" xmlns="http://www.w3.org/2000/svg">
<path fill-rule="evenodd" clip-rule="evenodd" d="M5.785 6.77762C5.78908 6.7777 5.79316 6.77774 5.79725 6.77774C5.80134 6.77774 5.80543 6.7777 5.8095 6.77762H10.0184C10.0225 6.7777 10.0266 6.77774 10.0307 6.77774C10.0347 6.77774 10.0388 6.7777 10.0429 6.77762H13.6638V7.63727C13.6638 7.96864 13.9324 8.23727 14.2638 8.23727C14.5951 8.23727 14.8638 7.96864 14.8638 7.63727V3.9999C14.8638 2.56395 13.6997 1.39989 12.2637 1.3999L3.56389 1.39999C2.12797 1.40001 0.96393 2.56405 0.96392 3.99998L0.963867 11.6666C0.963857 13.1025 2.12792 14.2666 3.56387 14.2666H8.0542C8.38557 14.2666 8.6542 13.9979 8.6542 13.6666C8.6542 13.3352 8.38557 13.0666 8.0542 13.0666H3.56387C2.79067 13.0666 2.16386 12.4398 2.16387 11.6666L2.1639 6.77762H5.785ZM6.39725 2.59996L9.43065 2.59993V5.57762H6.39725V2.59996ZM5.19725 5.57762V2.59998L3.56391 2.59999C2.79072 2.6 2.16393 3.22679 2.16392 3.99998L2.16391 5.57762H5.19725ZM13.6638 5.57762V3.9999C13.6638 3.2267 13.037 2.59989 12.2638 2.5999L10.6307 2.59992V5.57762H13.6638Z" fill="black"/>
<path fill-rule="evenodd" clip-rule="evenodd" d="M14.1223 10.2333V10.7496C14.7087 10.9869 15.1223 11.5618 15.1223 12.2333V12.8999C15.1223 13.7836 14.406 14.4999 13.5223 14.4999H11.5223C10.6387 14.4999 9.92235 13.7836 9.92235 12.8999V12.2333C9.92235 11.5618 10.336 10.9869 10.9223 10.7496V10.2333C10.9223 9.34961 11.6387 8.63328 12.5223 8.63328C13.406 8.63328 14.1223 9.34961 14.1223 10.2333ZM11.1223 12.2333C11.1223 12.0124 11.3014 11.8333 11.5223 11.8333H13.5223C13.7433 11.8333 13.9223 12.0124 13.9223 12.2333V12.8999C13.9223 13.1209 13.7433 13.2999 13.5223 13.2999H11.5223C11.3014 13.2999 11.1223 13.1209 11.1223 12.8999V12.2333ZM12.9223 10.2333V10.6333H12.1223V10.2333C12.1223 10.0124 12.3014 9.83328 12.5223 9.83328C12.7433 9.83328 12.9223 10.0124 12.9223 10.2333Z" fill="black"/>
</svg>
