<svg width="16" height="16" viewBox="0 0 16 16" fill="none" xmlns="http://www.w3.org/2000/svg">
<path d="M7.48389 10.3267V12.1905C7.48389 12.7428 7.9316 13.1905 8.48389 13.1905H11.2216L12.2955 14.2644L13.3695 13.1905H14.1593C14.7116 13.1905 15.1593 12.7428 15.1593 12.1905V8.46289C15.1593 7.91061 14.7116 7.46289 14.1593 7.46289H12.2955" stroke="black" stroke-width="1.2" stroke-linecap="round" stroke-linejoin="round"/>
<path d="M0.840332 3.73535C0.840332 2.63078 1.73576 1.73535 2.84033 1.73535H10.2955C11.4001 1.73535 12.2955 2.63078 12.2955 3.73535V8.32676C12.2955 9.43132 11.4001 10.3268 10.2955 10.3268H5.6014L4.1695 11.7587L3.05978 10.3268H2.84033C1.73576 10.3268 0.840332 9.43133 0.840332 8.32676V3.73535Z" stroke="black" stroke-width="1.2" stroke-linecap="round" stroke-linejoin="round"/>
<path d="M6.41016 6.1311H6.76813" stroke="black" stroke-width="1.2" stroke-linecap="round"/>
<path d="M8.91626 6.1311H9.27424" stroke="black" stroke-width="1.2" stroke-linecap="round"/>
<path d="M3.90454 6.1311H4.26252" stroke="black" stroke-width="1.2" stroke-linecap="round"/>
</svg>
