<svg width="17" height="16" viewBox="0 0 17 16" fill="none" xmlns="http://www.w3.org/2000/svg">
<g clip-path="url(#clip0_1559_19)">
<path d="M7.60303 10C8.7076 10 9.60303 9.10457 9.60303 8C9.60303 6.89543 8.7076 6 7.60303 6C6.49846 6 5.60303 6.89543 5.60303 8C5.60303 9.10457 6.49846 10 7.60303 10Z" fill="black"/>
<path fill-rule="evenodd" clip-rule="evenodd" d="M1.66943 5.29023C1.66941 3.85426 2.83349 2.69017 4.26946 2.69019L10.9362 2.69026C12.3192 2.69028 13.45 3.77008 13.5315 5.13259L14.5692 4.55638C15.3024 4.14929 16.2032 4.67947 16.2032 5.51809V10.4819C16.2032 11.3205 15.3024 11.8507 14.5692 11.4436L13.5315 10.8674C13.45 12.2299 12.3192 13.3097 10.9362 13.3097H4.26953C2.83361 13.3097 1.66956 12.1457 1.66953 10.7098L1.66943 5.29023ZM13.5362 9.49743L15.0032 10.312V5.68799L13.5362 6.50254V9.49743ZM4.26945 3.89019C3.49623 3.89018 2.86942 4.517 2.86943 5.29021L2.86953 10.7098C2.86955 11.483 3.49634 12.1097 4.26953 12.1097H10.9362C11.7094 12.1097 12.3362 11.4829 12.3362 10.7097V5.29026C12.3362 4.51707 11.7094 3.89027 10.9362 3.89026L4.26945 3.89019Z" fill="black"/>
</g>
<defs>
<clipPath id="clip0_1559_19">
<rect width="16" height="16" fill="white" transform="translate(0.936523)"/>
</clipPath>
</defs>
</svg>
