<svg width="17" height="17" viewBox="0 0 17 17" fill="none" xmlns="http://www.w3.org/2000/svg">
<mask id="mask0_102_659" style="mask-type:alpha" maskUnits="userSpaceOnUse" x="0" y="0" width="17" height="17">
<rect x="0.0695801" y="0.0600586" width="16" height="16" fill="#DCDCDC"/>
</mask>
<g mask="url(#mask0_102_659)">
<path fill-rule="evenodd" clip-rule="evenodd" d="M14.2571 6.53267C14.5175 6.28401 14.5175 5.88086 14.2571 5.6322L10.0145 1.58005C9.75414 1.33139 9.33203 1.33139 9.07168 1.58005C8.81133 1.82871 8.81133 2.23187 9.07168 2.48053L12.1763 5.4457H6.5456C3.86219 5.4457 1.68685 7.52337 1.68685 10.0863C1.68685 12.6492 3.86218 14.7269 6.5456 14.7269H9.86226C10.2139 14.7269 10.499 14.4418 10.499 14.0902V14.0902C10.499 13.7385 10.2139 13.4534 9.86226 13.4534H6.5456C4.59856 13.4534 3.02018 11.9459 3.02018 10.0863C3.02018 8.22668 4.59857 6.71917 6.5456 6.71917H12.1763L9.07168 9.68434C8.81133 9.933 8.81133 10.3362 9.07168 10.5848C9.33203 10.8335 9.75414 10.8335 10.0145 10.5848L14.2571 6.53267Z" fill="black"/>
</g>
</svg>
