<svg width="16" height="16" viewBox="0 0 16 16" fill="none" xmlns="http://www.w3.org/2000/svg">
<mask id="mask0_102_659" style="mask-type:alpha" maskUnits="userSpaceOnUse" x="0" y="0" width="16" height="16">
<rect width="16" height="16" fill="#DCDCDC"/>
</mask>
<g mask="url(#mask0_102_659)">
<path fill-rule="evenodd" clip-rule="evenodd" d="M14.1876 6.47237C14.4479 6.22371 14.4479 5.82055 14.1876 5.57189L9.94491 1.51975C9.68456 1.27109 9.26245 1.27109 9.0021 1.51975C8.74175 1.76841 8.74175 2.17156 9.0021 2.42022L12.1067 5.3854H6.47602C3.79261 5.3854 1.61727 7.46307 1.61727 10.026C1.61727 12.5889 3.7926 14.6666 6.47602 14.6666H9.79268C10.1443 14.6666 10.4294 14.3815 10.4294 14.0299C10.4294 13.6782 10.1443 13.3931 9.79268 13.3931H6.47602C4.52899 13.3931 2.9506 11.8856 2.9506 10.026C2.9506 8.16638 4.52899 6.65887 6.47602 6.65887H12.1067L9.0021 9.62404C8.74175 9.8727 8.74175 10.2759 9.0021 10.5245C9.26245 10.7732 9.68456 10.7732 9.94491 10.5245L14.1876 6.47237Z" fill="black"/>
</g>
</svg>
