<svg width="17" height="17" viewBox="0 0 17 17" fill="none" xmlns="http://www.w3.org/2000/svg">
<path fill-rule="evenodd" clip-rule="evenodd" d="M5.13281 3.84408C5.13281 2.55541 6.17749 1.51074 7.46615 1.51074C8.7548 1.51074 9.79948 2.55541 9.79948 3.84408V6.5337C9.79948 7.82236 8.7548 8.86704 7.46615 8.86704C6.17749 8.86704 5.13281 7.82236 5.13281 6.5337V3.84408ZM7.46615 2.84408C6.91387 2.84408 6.46615 3.29179 6.46615 3.84408V6.5337C6.46615 7.08598 6.91387 7.5337 7.46615 7.5337C8.01842 7.5337 8.46615 7.08598 8.46615 6.5337V3.84408C8.46615 3.29179 8.01842 2.84408 7.46615 2.84408Z" fill="black"/>
<path d="M2.13281 8.20033C2.13281 7.83214 2.43129 7.53366 2.79948 7.53366H3.13281C3.501 7.53366 3.79948 7.83214 3.79948 8.20033C3.79948 8.56852 3.501 8.867 3.13281 8.867H2.79948C2.43129 8.867 2.13281 8.56852 2.13281 8.20033Z" fill="black"/>
<path d="M8.93763 9.7878C9.19798 10.0481 9.19798 10.4703 8.93763 10.7306L8.0757 11.5925H13.4662C13.8344 11.5925 14.1329 11.891 14.1329 12.2592C14.1329 12.6274 13.8344 12.9259 13.4662 12.9259H8.0757L8.93763 13.7878C9.19798 14.0482 9.19798 14.4703 8.93763 14.7306C8.67728 14.991 8.25517 14.991 7.99482 14.7306L5.99482 12.7306C5.93091 12.6667 5.88268 12.593 5.85015 12.5144C5.81755 12.4358 5.79956 12.3496 5.79956 12.2592C5.79956 12.1688 5.81755 12.0826 5.85015 12.004C5.88268 11.9254 5.93091 11.8517 5.99482 11.7878L7.99482 9.7878C8.25517 9.52745 8.67728 9.52745 8.93763 9.7878Z" fill="black"/>
</svg>
