<svg width="16" height="16" viewBox="0 0 16 16" fill="none" xmlns="http://www.w3.org/2000/svg">
<path fill-rule="evenodd" clip-rule="evenodd" d="M5 3.61825C5 2.32958 6.04468 1.28491 7.33333 1.28491C8.62199 1.28491 9.66667 2.32958 9.66667 3.61825V6.30787C9.66667 7.59653 8.62199 8.64121 7.33333 8.64121C6.04468 8.64121 5 7.59653 5 6.30787V3.61825ZM7.33333 2.61825C6.78105 2.61825 6.33333 3.06596 6.33333 3.61825V6.30787C6.33333 6.86015 6.78106 7.30787 7.33333 7.30787C7.88561 7.30787 8.33333 6.86015 8.33333 6.30787V3.61825C8.33333 3.06596 7.88561 2.61825 7.33333 2.61825Z" fill="black"/>
<path d="M2 7.9745C2 7.60631 2.29848 7.30783 2.66667 7.30783H3C3.36819 7.30783 3.66667 7.60631 3.66667 7.9745C3.66667 8.34269 3.36819 8.64117 3 8.64117H2.66667C2.29848 8.64117 2 8.34269 2 7.9745Z" fill="black"/>
<path d="M8.80482 9.56197C9.06517 9.82232 9.06517 10.2444 8.80482 10.5048L7.94289 11.3667H13.3334C13.7016 11.3667 14.0001 11.6652 14.0001 12.0334C14.0001 12.4016 13.7016 12.7 13.3334 12.7H7.94289L8.80482 13.562C9.06517 13.8223 9.06517 14.2444 8.80482 14.5048C8.54447 14.7651 8.12236 14.7651 7.86201 14.5048L5.86201 12.5048C5.79809 12.4409 5.74987 12.3672 5.71733 12.2886C5.68474 12.21 5.66675 12.1238 5.66675 12.0334C5.66675 11.943 5.68474 11.8568 5.71733 11.7782C5.74987 11.6996 5.79809 11.6259 5.86201 11.562L7.86201 9.56197C8.12236 9.30162 8.54447 9.30162 8.80482 9.56197Z" fill="black"/>
</svg>
