<svg width="16" height="16" viewBox="0 0 16 16" fill="none" xmlns="http://www.w3.org/2000/svg">
<path fill-rule="evenodd" clip-rule="evenodd" d="M6.33307 1.3916C5.14145 1.3916 4.06641 2.27555 4.06641 3.49366V6.49777C4.06641 7.71586 5.14145 8.59982 6.33307 8.59982C7.52469 8.59982 8.59974 7.71586 8.59974 6.49777V3.49366C8.59974 2.27555 7.52469 1.3916 6.33307 1.3916ZM5.26641 3.49366C5.26641 3.05264 5.68376 2.5916 6.33307 2.5916C6.98239 2.5916 7.39974 3.05264 7.39974 3.49366V6.49777C7.39974 6.93878 6.98239 7.39982 6.33307 7.39982C5.68376 7.39982 5.26641 6.93878 5.26641 6.49777V3.49366Z" fill="black"/>
<path d="M7.90913 9.5417C8.14345 9.30739 8.52335 9.30739 8.75766 9.5417C8.99198 9.77602 8.99198 10.1559 8.75766 10.3902L7.78193 11.366H13.9999C14.3313 11.366 14.5999 11.6346 14.5999 11.966C14.5999 12.2973 14.3313 12.566 13.9999 12.566H7.78193L8.75766 13.5417C8.99198 13.776 8.99198 14.1559 8.75766 14.3902C8.52335 14.6245 8.14345 14.6245 7.90913 14.3902L5.91739 12.3985C5.80388 12.2893 5.73324 12.1359 5.73324 11.966C5.73324 11.796 5.80388 11.6426 5.91739 11.5334L7.90913 9.5417Z" fill="black"/>
<path d="M1.3999 8.3002C1.3999 7.96882 1.66853 7.7002 1.9999 7.7002H2.33324C2.66461 7.7002 2.93324 7.96882 2.93324 8.3002C2.93324 8.63157 2.66461 8.9002 2.33324 8.9002H1.9999C1.66853 8.9002 1.3999 8.63157 1.3999 8.3002Z" fill="black"/>
</svg>
