<svg width="16" height="16" viewBox="0 0 16 16" fill="none" xmlns="http://www.w3.org/2000/svg">
<path d="M1.9999 1.3667C1.66853 1.3667 1.3999 1.63533 1.3999 1.9667C1.3999 2.29807 1.66853 2.5667 1.9999 2.5667H13.9999C14.3313 2.5667 14.5999 2.29807 14.5999 1.9667C14.5999 1.63533 14.3313 1.3667 13.9999 1.3667H1.9999Z" fill="black"/>
<path d="M1.9999 13.4334C1.66853 13.4334 1.3999 13.7021 1.3999 14.0334C1.3999 14.3648 1.66853 14.6334 1.9999 14.6334H13.9999C14.3313 14.6334 14.5999 14.3648 14.5999 14.0334C14.5999 13.7021 14.3313 13.4334 13.9999 13.4334H1.9999Z" fill="black"/>
<path d="M10.5293 5.47066C10.295 5.23634 9.91513 5.23634 9.68081 5.47066L8 7.15147L6.31918 5.47066C6.08487 5.23634 5.70497 5.23634 5.47065 5.47066C5.23634 5.70497 5.23634 6.08487 5.47065 6.31918L7.15147 8L5.47065 9.68082C5.23634 9.91513 5.23634 10.295 5.47065 10.5293C5.70497 10.7637 6.08487 10.7637 6.31918 10.5293L8 8.84853L9.68081 10.5293C9.91513 10.7637 10.295 10.7637 10.5293 10.5293C10.7637 10.295 10.7637 9.91513 10.5293 9.68082L8.84852 8L10.5293 6.31918C10.7637 6.08487 10.7637 5.70497 10.5293 5.47066Z" fill="black"/>
</svg>
