<svg width="16" height="16" viewBox="0 0 16 16" fill="none" xmlns="http://www.w3.org/2000/svg">
<path d="M2.90715 7.99996C2.90715 5.18729 5.18729 2.90715 7.99996 2.90715C8.4238 2.90715 8.83545 2.95884 9.229 3.05631C10.1415 3.28231 10.9567 3.75439 11.6011 4.39881C11.7706 4.56829 12.0121 4.82568 12.2605 5.0957H10.8789C10.5116 5.0957 10.2139 5.39343 10.2139 5.7607C10.2139 6.12797 10.5116 6.4257 10.8789 6.4257H13.7456C13.9067 6.42869 14.0693 6.37349 14.1993 6.25806C14.2693 6.19596 14.323 6.12239 14.3602 6.0427C14.4003 5.95709 14.4228 5.86152 14.4228 5.7607V2.8818C14.4228 2.51453 14.125 2.2168 13.7578 2.2168C13.3905 2.2168 13.0928 2.51453 13.0928 2.8818V4.03656C12.8885 3.81635 12.6924 3.60923 12.5416 3.45835C11.38 2.29677 9.7734 1.57715 7.99996 1.57715C4.45275 1.57715 1.57715 4.45275 1.57715 7.99996C1.57715 11.5472 4.45275 14.4228 7.99996 14.4228C9.7734 14.4228 11.38 13.7032 12.5416 12.5416C12.8013 12.2819 12.8013 11.8608 12.5416 11.6011C12.2819 11.3414 11.8608 11.3414 11.6011 11.6011C10.6788 12.5235 9.4065 13.0928 7.99996 13.0928C5.18729 13.0928 2.90715 10.8126 2.90715 7.99996Z" fill="black"/>
</svg>
