<svg width="16" height="16" viewBox="0 0 16 16" fill="none" xmlns="http://www.w3.org/2000/svg">
<path fill-rule="evenodd" clip-rule="evenodd" d="M5.7497 13.0395H1.6332C1.30183 13.0395 1.0332 12.7709 1.0332 12.4395C1.0332 12.1082 1.30183 11.8395 1.6332 11.8395H2.8332V6.06506C2.8332 3.24426 5.11679 1.00293 7.99987 1.00293C10.8829 1.00293 13.1665 3.24426 13.1665 6.06506V11.8395H14.3665C14.6979 11.8395 14.9665 12.1082 14.9665 12.4395C14.9665 12.7709 14.6979 13.0395 14.3665 13.0395H10.2494C10.1119 14.152 9.14693 14.9975 7.99958 14.9975C6.85222 14.9975 5.88725 14.152 5.7497 13.0395ZM4.0332 6.06506C4.0332 3.95712 5.72828 2.20293 7.99987 2.20293C10.2715 2.20293 11.9665 3.95712 11.9665 6.06506V11.8395H9.68094C9.67605 11.8394 9.67116 11.8394 9.66624 11.8394H6.33291C6.328 11.8394 6.3231 11.8394 6.31821 11.8395H4.0332V6.06506ZM6.97122 13.0395C7.09416 13.4703 7.50006 13.7975 7.99958 13.7975C8.4991 13.7975 8.905 13.4703 9.02794 13.0395H6.97122Z" fill="black"/>
</svg>
