<svg width="16" height="17" viewBox="0 0 16 17" fill="none" xmlns="http://www.w3.org/2000/svg">
<path d="M6.33335 5.58789C5.96516 5.58789 5.66669 5.88637 5.66669 6.25456C5.66669 6.62275 5.96516 6.92122 6.33335 6.92122H6.66669C7.03488 6.92122 7.33335 6.62275 7.33335 6.25456C7.33335 5.88637 7.03488 5.58789 6.66669 5.58789H6.33335Z" fill="black"/>
<path d="M8.00018 6.25456C8.00018 5.88637 8.29866 5.58789 8.66685 5.58789H9.00018C9.36837 5.58789 9.66685 5.88637 9.66685 6.25456C9.66685 6.62275 9.36837 6.92122 9.00018 6.92122H8.66685C8.29866 6.92122 8.00018 6.62275 8.00018 6.25456Z" fill="black"/>
<path d="M4.0001 5.58789C3.63191 5.58789 3.33344 5.88637 3.33344 6.25456C3.33344 6.62275 3.63191 6.92122 4.0001 6.92122H4.33344C4.70162 6.92122 5.0001 6.62275 5.0001 6.25456C5.0001 5.88637 4.70162 5.58789 4.33344 5.58789H4.0001Z" fill="black"/>
<path fill-rule="evenodd" clip-rule="evenodd" d="M0.666687 2.25456C0.666687 1.88637 0.965164 1.58789 1.33335 1.58789H12C12.3682 1.58789 12.6667 1.88637 12.6667 2.25456V6.9212H14.6667C15.0349 6.9212 15.3334 7.21968 15.3334 7.58787V12.9212C15.3334 13.2894 15.0349 13.5879 14.6667 13.5879H13.2762L12.4714 14.3926C12.2111 14.653 11.789 14.653 11.5286 14.3926L10.7239 13.5879H7.33335C6.96516 13.5879 6.66669 13.2894 6.66669 12.9212V10.9212H5.94283L4.80476 12.0593C4.54441 12.3196 4.1223 12.3196 3.86195 12.0593L2.72388 10.9212H1.33335C0.965164 10.9212 0.666687 10.6227 0.666687 10.2546V2.25456ZM12.6667 10.2545V8.25454H14V12.2545H13C12.8232 12.2545 12.6536 12.3248 12.5286 12.4498L12 12.9784L11.4714 12.4498C11.3464 12.3248 11.1768 12.2545 11 12.2545H8.00002V10.9212H12C12.3222 10.9212 12.591 10.6927 12.6531 10.3889C12.662 10.3455 12.6667 10.3006 12.6667 10.2545ZM11.3334 2.92122L11.3334 9.58787H7.33335L7.32813 9.58789H5.66669C5.48988 9.58789 5.32031 9.65813 5.19528 9.78315L4.33335 10.6451L3.47143 9.78315C3.3464 9.65813 3.17683 9.58789 3.00002 9.58789H2.00002V2.92122H11.3334Z" fill="black"/>
</svg>
