<svg width="16" height="16" viewBox="0 0 16 16" fill="none" xmlns="http://www.w3.org/2000/svg">
<path d="M6.33335 5.5C5.96516 5.5 5.66669 5.79848 5.66669 6.16667C5.66669 6.53486 5.96516 6.83333 6.33335 6.83333H6.66669C7.03488 6.83333 7.33335 6.53486 7.33335 6.16667C7.33335 5.79848 7.03488 5.5 6.66669 5.5H6.33335Z" fill="black"/>
<path d="M8.00018 6.16667C8.00018 5.79848 8.29866 5.5 8.66685 5.5H9.00018C9.36837 5.5 9.66685 5.79848 9.66685 6.16667C9.66685 6.53486 9.36837 6.83333 9.00018 6.83333H8.66685C8.29866 6.83333 8.00018 6.53486 8.00018 6.16667Z" fill="black"/>
<path d="M4.0001 5.5C3.63191 5.5 3.33344 5.79848 3.33344 6.16667C3.33344 6.53486 3.63191 6.83333 4.0001 6.83333H4.33344C4.70162 6.83333 5.0001 6.53486 5.0001 6.16667C5.0001 5.79848 4.70162 5.5 4.33344 5.5H4.0001Z" fill="black"/>
<path fill-rule="evenodd" clip-rule="evenodd" d="M0.666687 2.16667C0.666687 1.79848 0.965164 1.5 1.33335 1.5H12C12.3682 1.5 12.6667 1.79848 12.6667 2.16667V6.83331H14.6667C15.0349 6.83331 15.3334 7.13179 15.3334 7.49998V12.8333C15.3334 13.2015 15.0349 13.5 14.6667 13.5H13.2762L12.4714 14.3047C12.2111 14.5651 11.789 14.5651 11.5286 14.3047L10.7239 13.5H7.33335C6.96516 13.5 6.66669 13.2015 6.66669 12.8333V10.8333H5.94283L4.80476 11.9714C4.54441 12.2318 4.1223 12.2318 3.86195 11.9714L2.72388 10.8333H1.33335C0.965164 10.8333 0.666687 10.5349 0.666687 10.1667V2.16667ZM12.6667 10.1666V8.16665H14V12.1666H13C12.8232 12.1666 12.6536 12.2369 12.5286 12.3619L12 12.8905L11.4714 12.3619C11.3464 12.2369 11.1768 12.1666 11 12.1666H8.00002V10.8333H12C12.3222 10.8333 12.591 10.6048 12.6531 10.301C12.662 10.2576 12.6667 10.2127 12.6667 10.1666ZM11.3334 2.83333L11.3334 9.49998H7.33335L7.32813 9.5H5.66669C5.48988 9.5 5.32031 9.57024 5.19528 9.69526L4.33335 10.5572L3.47143 9.69526C3.3464 9.57024 3.17683 9.5 3.00002 9.5H2.00002V2.83333H11.3334Z" fill="black"/>
</svg>
