<svg width="17" height="17" viewBox="0 0 17 17" fill="none" xmlns="http://www.w3.org/2000/svg">
<path fill-rule="evenodd" clip-rule="evenodd" d="M13.1199 13.8782C11.8531 15.145 10.1031 15.9285 8.17017 15.9285C6.23719 15.9285 4.48719 15.145 3.22042 13.8782C1.95367 12.6114 1.17017 10.8614 1.17017 8.92847C1.17017 6.99549 1.95367 5.24549 3.22042 3.97872C4.48719 2.71197 6.23719 1.92847 8.17017 1.92847C10.1031 1.92847 11.8531 2.71197 13.1199 3.97872C14.3867 5.24549 15.1702 6.99549 15.1702 8.92847C15.1702 10.8614 14.3867 12.6114 13.1199 13.8782ZM11.9749 7.39979C12.2352 7.13944 12.2352 6.71733 11.9749 6.45698C11.7145 6.19663 11.2924 6.19663 11.0321 6.45698L7.50346 9.98558L5.97486 8.45698C5.71451 8.19663 5.2924 8.19663 5.03205 8.45698C4.7717 8.71733 4.7717 9.13944 5.03205 9.39979L7.03205 11.3998C7.2924 11.6601 7.71451 11.6601 7.97486 11.3998L11.9749 7.39979Z" fill="black"/>
</svg>
