<svg width="16" height="16" viewBox="0 0 16 16" fill="none" xmlns="http://www.w3.org/2000/svg">
<path fill-rule="evenodd" clip-rule="evenodd" d="M12.9497 12.9497C11.683 14.2165 9.93298 15 8 15C6.06702 15 4.31702 14.2165 3.05025 12.9497C1.7835 11.683 1 9.93298 1 8C1 6.06702 1.7835 4.31702 3.05025 3.05025C4.31702 1.7835 6.06702 1 8 1C9.93298 1 11.683 1.7835 12.9497 3.05025C14.2165 4.31702 15 6.06702 15 8C15 9.93298 14.2165 11.683 12.9497 12.9497ZM11.8047 6.47132C12.065 6.21097 12.065 5.78886 11.8047 5.52851C11.5443 5.26816 11.1222 5.26816 10.8619 5.52851L7.33329 9.05711L5.8047 7.52851C5.54435 7.26816 5.12224 7.26816 4.86189 7.52851C4.60154 7.78886 4.60154 8.21097 4.86189 8.47132L6.86189 10.4713C7.12224 10.7317 7.54435 10.7317 7.8047 10.4713L11.8047 6.47132Z" fill="black"/>
</svg>
