<svg width="16" height="16" viewBox="0 0 16 16" fill="none" xmlns="http://www.w3.org/2000/svg">
<mask id="mask0_102_805" style="mask-type:alpha" maskUnits="userSpaceOnUse" x="0" y="0" width="16" height="16">
<rect width="16" height="16" fill="#DCDCDC"/>
</mask>
<g mask="url(#mask0_102_805)">
<path fill-rule="evenodd" clip-rule="evenodd" d="M14.3754 2.90308C14.4648 2.64472 14.3922 2.34908 14.1894 2.14632C13.9867 1.94356 13.691 1.87089 13.4327 1.9603L5.50328 4.70423C5.13835 4.83051 4.96231 5.23518 5.11008 5.60809C5.25785 5.98101 5.67348 6.18094 6.03841 6.05466L8.25753 5.28675L11.049 8.0782L10.2811 10.2973C10.1548 10.6623 10.3547 11.0779 10.7276 11.2257C11.1005 11.3734 11.5052 11.1974 11.6315 10.8325L14.3754 2.90308ZM11.552 6.62449L9.71124 4.78369L12.5261 3.80961L11.552 6.62449Z" fill="black"/>
<path d="M2.83111 5.01909C2.54473 4.73271 2.09354 4.71957 1.82337 4.98974C1.5532 5.25991 1.56634 5.71109 1.85272 5.99748L9.08612 13.2309L8.05806 13.2009C7.66452 13.1895 7.35478 13.4992 7.36624 13.8928C7.3777 14.2863 7.70603 14.6146 8.09957 14.6261L10.8479 14.7061C11.1362 14.7145 11.3909 14.5485 11.4935 14.2854C11.596 14.0224 11.5261 13.7141 11.3164 13.5044L2.83111 5.01909Z" fill="black"/>
</g>
</svg>
