<svg width="16" height="16" viewBox="0 0 16 16" fill="none" xmlns="http://www.w3.org/2000/svg">
<path fill-rule="evenodd" clip-rule="evenodd" d="M12.1994 1.49307C13.3824 0.944623 14.6068 2.16904 14.0584 3.35206L10.8904 10.1855C10.751 10.4862 10.3943 10.6169 10.0937 10.4775C9.79302 10.3381 9.66229 9.98144 9.80166 9.68081L11.0507 6.98651L8.61023 4.546C8.59522 4.53098 8.58116 4.51537 8.56807 4.49924L5.87063 5.74977C5.57 5.88915 5.2133 5.75842 5.07392 5.45779C4.93455 5.15715 5.06528 4.80045 5.36591 4.66108L12.1994 1.49307ZM12.9697 2.84734L11.5883 5.82701L9.72443 3.96315L12.7041 2.58177C12.8731 2.50342 13.048 2.67833 12.9697 2.84734Z" fill="black"/>
<path d="M2.40366 4.68273C2.16934 4.44842 1.78945 4.44842 1.55513 4.68273C1.32082 4.91705 1.32082 5.29695 1.55513 5.53126L9.45182 13.4279L7.92792 13.5038C7.59696 13.5203 7.34202 13.8019 7.35849 14.1329C7.37497 14.4639 7.65662 14.7188 7.98758 14.7023L9.96172 14.6041C10.8278 14.5609 11.2323 13.5113 10.6191 12.8982L2.40366 4.68273Z" fill="black"/>
</svg>
