<svg width="17" height="17" viewBox="0 0 17 17" fill="none" xmlns="http://www.w3.org/2000/svg">
<mask id="mask0_102_805" style="mask-type:alpha" maskUnits="userSpaceOnUse" x="0" y="0" width="17" height="17">
<rect x="0.70166" y="0.556152" width="16" height="16" fill="#DCDCDC"/>
</mask>
<g mask="url(#mask0_102_805)">
<path fill-rule="evenodd" clip-rule="evenodd" d="M15.0771 3.45899C15.1665 3.20062 15.0938 2.90498 14.8911 2.70223C14.6883 2.49947 14.3927 2.4268 14.1343 2.51621L6.20494 5.26013C5.84001 5.38641 5.66397 5.79109 5.81174 6.164C5.95951 6.53691 6.37514 6.73685 6.74007 6.61057L8.95919 5.84266L11.7506 8.63411L10.9827 10.8532C10.8565 11.2182 11.0564 11.6338 11.4293 11.7816C11.8022 11.9293 12.2069 11.7533 12.3332 11.3884L15.0771 3.45899ZM12.2537 7.1804L10.4129 5.3396L13.2278 4.36552L12.2537 7.1804Z" fill="black"/>
<path d="M3.53277 5.575C3.24638 5.28862 2.7952 5.27547 2.52503 5.54565C2.25486 5.81582 2.268 6.267 2.55438 6.55339L9.78778 13.7868L8.75972 13.7568C8.36618 13.7454 8.05644 14.0551 8.0679 14.4487C8.07936 14.8422 8.40769 15.1705 8.80123 15.182L11.5496 15.2621C11.8378 15.2704 12.0926 15.1044 12.1951 14.8413C12.2977 14.5783 12.2278 14.27 12.018 14.0603L3.53277 5.575Z" fill="black"/>
</g>
</svg>
