<svg width="16" height="16" viewBox="0 0 16 16" fill="none" xmlns="http://www.w3.org/2000/svg">
<g clip-path="url(#clip0_927_166)">
<path d="M3.11339 1.41934C3.11339 1.08797 2.84476 0.819336 2.51339 0.819336C2.18201 0.819336 1.91338 1.08797 1.91338 1.41934V12.5869L0.782193 11.563C0.53652 11.3406 0.157091 11.3595 -0.0652855 11.6052C-0.287662 11.8509 -0.268776 12.2303 -0.0231021 12.4527L1.44231 13.7791C2.08518 14.361 3.11338 13.9049 3.11338 13.0377L3.11339 1.41934Z" fill="black"/>
<path fill-rule="evenodd" clip-rule="evenodd" d="M12.2955 9.26826C13.5199 8.81955 13.5199 7.08797 12.2955 6.63926L5.22343 4.04738C4.9123 3.93336 4.56763 4.09314 4.45361 4.40428C4.33958 4.71541 4.49936 5.06007 4.8105 5.1741L7.59888 6.19602V9.64743C7.59888 9.66866 7.59999 9.68964 7.60214 9.71031L4.8105 10.7334C4.49936 10.8474 4.33958 11.1921 4.45361 11.5032C4.56763 11.8144 4.9123 11.9742 5.22343 11.8601L12.2955 9.26826ZM11.8826 7.76597L8.79888 6.63581V9.27171L11.8826 8.14155C12.0575 8.07745 12.0575 7.83008 11.8826 7.76597Z" fill="black"/>
</g>
<defs>
<clipPath id="clip0_927_166">
<rect width="16" height="16" fill="white"/>
</clipPath>
</defs>
</svg>
