<svg width="25" height="25" viewBox="0 0 25 25" fill="none" xmlns="http://www.w3.org/2000/svg">
<mask id="mask0_17_600" style="mask-type:alpha" maskUnits="userSpaceOnUse" x="0" y="0" width="25" height="25">
<rect x="0.645996" y="0.537476" width="24" height="24" fill="#DCDCDC"/>
</mask>
<g mask="url(#mask0_17_600)">
<path d="M2.646 6.53748L2.646 4.53748C2.646 3.43291 3.54143 2.53748 4.646 2.53748L6.646 2.53748L6.646 4.53748L4.646 4.53748L4.646 6.53748L2.646 6.53748Z" fill="#999999"/>
<path d="M14.646 2.53748L14.646 4.53748L10.646 4.53748L10.646 2.53748L14.646 2.53748Z" fill="#999999"/>
<path d="M2.646 10.5375L4.646 10.5375L4.646 11.5375L8.646 11.5375L8.646 13.5375L4.646 13.5375L4.646 14.5375L2.646 14.5375L2.646 10.5375Z" fill="#999999"/>
<path d="M2.646 18.5375L4.646 18.5375L4.646 20.5375L6.646 20.5375L6.646 22.5375L4.646 22.5375C3.54143 22.5375 2.646 21.642 2.646 20.5375L2.646 18.5375Z" fill="#999999"/>
<path d="M10.646 22.5375L10.646 20.5375L11.646 20.5375L11.646 16.5375L13.646 16.5375L13.646 20.5375L14.646 20.5375L14.646 22.5375L10.646 22.5375Z" fill="#999999"/>
<path d="M20.646 11.5375L16.646 11.5375L16.646 13.5375L20.646 13.5375L20.646 11.5375Z" fill="#999999"/>
<path d="M11.646 8.53748L11.646 4.53748L13.646 4.53748L13.646 8.53748L11.646 8.53748Z" fill="#999999"/>
<path d="M20.646 2.53747L18.646 2.53747L18.646 4.53747L20.646 4.53748L20.646 20.5375L18.646 20.5375L18.646 22.5375L20.646 22.5375C21.7506 22.5375 22.646 21.642 22.646 20.5375L22.646 4.53748C22.646 3.43291 21.7506 2.53747 20.646 2.53747Z" fill="black"/>
</g>
</svg>
