<svg width="17" height="17" viewBox="0 0 17 17" fill="none" xmlns="http://www.w3.org/2000/svg">
<path fill-rule="evenodd" clip-rule="evenodd" d="M15.3706 8.25648C15.3706 8.53019 15.2111 8.77879 14.9623 8.89283L10.9623 10.7262L10.9623 10.7262L9.62893 11.3373L9.62893 11.3373L6.96227 12.5595C6.61082 12.7206 6.19534 12.5663 6.03426 12.2148C5.87318 11.8634 6.0275 11.4479 6.37895 11.2868L8.63727 10.2517L8.63727 6.26124L6.37895 5.22616C6.0275 5.06508 5.87318 4.6496 6.03426 4.29816C6.19534 3.94671 6.61082 3.79239 6.96227 3.95347L9.62893 5.1757L9.62893 5.17571L10.9623 5.7868L10.9623 5.78681L14.9623 7.62014C15.2111 7.73418 15.3706 7.98278 15.3706 8.25648ZM10.0373 6.9029L10.0373 9.61007L10.3789 9.45347L10.379 9.45347L12.9906 8.25649L10.379 7.0595L10.3789 7.0595L10.0373 6.9029Z" fill="black"/>
<path fill-rule="evenodd" clip-rule="evenodd" d="M4.0041 1.55615C4.3907 1.55615 4.7041 1.86955 4.7041 2.25615L4.7041 14.2562C4.7041 14.5393 4.53355 14.7945 4.27198 14.9029C4.01041 15.0112 3.70933 14.9513 3.50913 14.7511L1.50913 12.7511C1.23576 12.4778 1.23576 12.0345 1.50913 11.7612C1.78249 11.4878 2.22571 11.4878 2.49908 11.7612L3.3041 12.5662L3.3041 2.25615C3.3041 1.86955 3.6175 1.55615 4.0041 1.55615Z" fill="black"/>
</svg>
