<svg width="16" height="16" viewBox="0 0 16 16" fill="none" xmlns="http://www.w3.org/2000/svg">
<mask id="mask0_102_821" style="mask-type:alpha" maskUnits="userSpaceOnUse" x="0" y="0" width="16" height="16">
<rect width="16" height="16" transform="matrix(-1 -8.74228e-08 -8.74228e-08 1 16 0)" fill="#D9D9D9"/>
</mask>
<g mask="url(#mask0_102_821)">
<path d="M14 2.3501C14.359 2.3501 14.65 2.64111 14.65 3.0001C14.65 3.35908 14.359 3.6501 14 3.6501L2.00002 3.6501C1.64104 3.6501 1.35002 3.35908 1.35002 3.0001C1.35002 2.64111 1.64104 2.3501 2.00002 2.3501L14 2.3501Z" fill="black"/>
<path d="M14 5.68347C14.359 5.68347 14.65 5.97449 14.65 6.33347C14.65 6.69246 14.359 6.98347 14 6.98347L4.66669 6.98347C4.30771 6.98347 4.01669 6.69246 4.01669 6.33347C4.01669 5.97449 4.30771 5.68347 4.66669 5.68347L14 5.68347Z" fill="black"/>
<path d="M14.65 9.66672C14.65 9.30774 14.359 9.01672 14 9.01672L2.00002 9.01672C1.64104 9.01672 1.35002 9.30774 1.35002 9.66672C1.35002 10.0257 1.64104 10.3167 2.00002 10.3167L14 10.3167C14.359 10.3167 14.65 10.0257 14.65 9.66672Z" fill="black"/>
<path d="M14 12.3501C14.359 12.3501 14.65 12.6411 14.65 13.0001C14.65 13.3591 14.359 13.6501 14 13.6501L4.66669 13.6501C4.3077 13.6501 4.01669 13.3591 4.01669 13.0001C4.01669 12.6411 4.30771 12.3501 4.66669 12.3501L14 12.3501Z" fill="black"/>
</g>
</svg>
