<svg width="25" height="25" viewBox="0 0 25 25" fill="none" xmlns="http://www.w3.org/2000/svg">
<mask id="mask0_17_673" style="mask-type:alpha" maskUnits="userSpaceOnUse" x="0" y="0" width="25" height="25">
<rect x="0.0327148" y="0.943726" width="24" height="24" fill="#DCDCDC"/>
</mask>
<g mask="url(#mask0_17_673)">
<path fill-rule="evenodd" clip-rule="evenodd" d="M21.5959 5.15119C21.73 4.76365 21.621 4.32018 21.3168 4.01605C21.0127 3.71192 20.5692 3.60291 20.1817 3.73702L8.28761 7.85291C7.74022 8.04233 7.47616 8.64935 7.69781 9.20871C7.91947 9.76808 8.54291 10.068 9.0903 9.87856L12.419 8.7267L16.6062 12.9139L15.4543 16.2426C15.2649 16.79 15.5648 17.4134 16.1242 17.6351C16.6835 17.8567 17.2905 17.5927 17.48 17.0453L21.5959 5.15119ZM17.3608 10.7333L14.5996 7.97211L18.8219 6.51099L17.3608 10.7333Z" fill="#35322B"/>
<path d="M4.27936 8.32521C3.84978 7.89563 3.17301 7.87592 2.76775 8.28118C2.36249 8.68645 2.3822 9.36321 2.81178 9.79279L13.6619 20.6429L12.1198 20.598C11.5295 20.5808 11.0649 21.0454 11.0821 21.6357C11.0992 22.226 11.5917 22.7185 12.1821 22.7357L16.3046 22.8558C16.7369 22.8684 17.1191 22.6193 17.2729 22.2247C17.4267 21.8301 17.3219 21.3677 17.0073 21.0531L4.27936 8.32521Z" fill="#35322B"/>
</g>
</svg>
