<svg width="16" height="16" viewBox="0 0 16 16" fill="none" xmlns="http://www.w3.org/2000/svg">
<path fill-rule="evenodd" clip-rule="evenodd" d="M15 7.70009C15 7.97379 14.8405 8.22239 14.5917 8.33643L10.5917 10.1698L10.5917 10.1698L9.25833 10.7809L9.25832 10.7809L6.59166 12.0031C6.24022 12.1642 5.82474 12.0099 5.66366 11.6584C5.50258 11.307 5.6569 10.8915 6.00834 10.7304L8.26667 9.69533L8.26667 5.70484L6.00834 4.66977C5.6569 4.50869 5.50258 4.0932 5.66366 3.74176C5.82474 3.39032 6.24022 3.236 6.59166 3.39708L9.25832 4.61931L9.25833 4.61931L10.5917 5.23041L10.5917 5.23041L14.5917 7.06374C14.8405 7.17778 15 7.42638 15 7.70009ZM9.66667 6.3465L9.66667 9.05368L10.0083 8.89708L10.0083 8.89707L12.62 7.70009L10.0083 6.5031L10.0083 6.5031L9.66667 6.3465Z" fill="black"/>
<path fill-rule="evenodd" clip-rule="evenodd" d="M3.6335 1C4.0201 1 4.3335 1.3134 4.3335 1.7L4.3335 13.7C4.3335 13.9831 4.16295 14.2384 3.90137 14.3467C3.6398 14.4551 3.33872 14.3952 3.13852 14.195L1.13852 12.195C0.865154 11.9216 0.865154 11.4784 1.13852 11.205C1.41189 10.9317 1.8551 10.9317 2.12847 11.205L2.9335 12.0101L2.9335 1.7C2.9335 1.3134 3.2469 1 3.6335 1Z" fill="black"/>
</svg>
