<svg width="17" height="17" viewBox="0 0 17 17" fill="none" xmlns="http://www.w3.org/2000/svg">
<path d="M4.64671 1.77571C4.94126 1.55479 5.35913 1.61449 5.58004 1.90904L8.59224 6.20102L11.6044 1.90904C11.8254 1.61449 12.2432 1.55479 12.5378 1.77571C12.8323 1.99662 12.892 2.41449 12.6711 2.70904L9.92567 6.64535H12.6711C13.0393 6.64535 13.3378 6.94382 13.3378 7.31201C13.3378 7.6802 13.0393 7.97868 12.6711 7.97868H9.25887V9.91528H12.9271C13.2953 9.91528 13.5938 10.2138 13.5938 10.582C13.5938 10.9501 13.2953 11.2486 12.9271 11.2486H9.25887V14.1274C9.25887 14.4956 8.96039 14.794 8.5922 14.794C8.22401 14.794 7.92554 14.4956 7.92554 14.1274V11.2486H4.25736C3.88918 11.2486 3.5907 10.9501 3.5907 10.582C3.5907 10.2138 3.88918 9.91528 4.25736 9.91528H7.92554V7.97868H4.51338C4.14519 7.97868 3.84671 7.6802 3.84671 7.31201C3.84671 6.94382 4.14519 6.64535 4.51338 6.64535H7.25882L4.51338 2.70904C4.29246 2.41449 4.35216 1.99662 4.64671 1.77571Z" fill="black"/>
</svg>
