<svg width="16" height="16" viewBox="0 0 16 16" fill="none" xmlns="http://www.w3.org/2000/svg">
<path d="M4.05443 1.55744C4.34898 1.33653 4.76685 1.39623 4.98776 1.69078L7.99996 5.98276L11.0122 1.69078C11.2331 1.39623 11.6509 1.33653 11.9455 1.55744C12.24 1.77836 12.2997 2.19623 12.0788 2.49078L9.33338 6.42708H12.0788C12.447 6.42708 12.7455 6.72556 12.7455 7.09375C12.7455 7.46194 12.447 7.76042 12.0788 7.76042H8.66659V9.69702H12.3348C12.703 9.69702 13.0015 9.9955 13.0015 10.3637C13.0015 10.7319 12.703 11.0304 12.3348 11.0304H8.66659V13.9091C8.66659 14.2773 8.36811 14.5758 7.99992 14.5758C7.63173 14.5758 7.33325 14.2773 7.33325 13.9091V11.0304H3.66508C3.29689 11.0304 2.99841 10.7319 2.99841 10.3637C2.99841 9.9955 3.29689 9.69702 3.66508 9.69702H7.33325V7.76042H3.92109C3.5529 7.76042 3.25443 7.46194 3.25443 7.09375C3.25443 6.72556 3.5529 6.42708 3.92109 6.42708H6.66653L3.92109 2.49078C3.70018 2.19623 3.75987 1.77836 4.05443 1.55744Z" fill="black"/>
</svg>
