<svg width="16" height="16" viewBox="0 0 16 16" fill="none" xmlns="http://www.w3.org/2000/svg">
<path fill-rule="evenodd" clip-rule="evenodd" d="M9.72502 1.02051H6.07803C4.97346 1.02051 4.07803 1.91594 4.07803 3.02051V7.57046H3.00039C2.66902 7.57046 2.40039 7.83909 2.40039 8.17046C2.40039 8.50183 2.66902 8.77046 3.00039 8.77046H4.07803V10.4854H3.00039C2.66902 10.4854 2.40039 10.754 2.40039 11.0854C2.40039 11.4167 2.66902 11.6854 3.00039 11.6854H4.07803V14.3795C4.07803 14.7108 4.34666 14.9795 4.67803 14.9795C5.0094 14.9795 5.27803 14.7108 5.27803 14.3795V11.6854H11.3637C11.695 11.6854 11.9637 11.4167 11.9637 11.0854C11.9637 10.754 11.695 10.4854 11.3637 10.4854H5.27803V8.77046H9.72503C11.8651 8.77046 13.6 7.03557 13.6 4.89548C13.6 2.75539 11.8651 1.02051 9.72502 1.02051ZM9.72503 7.57046H5.27803V3.12051C5.27803 2.62345 5.68097 2.22051 6.17803 2.22051H9.72502C11.2024 2.22051 12.4 3.41814 12.4 4.89548C12.4 6.37283 11.2024 7.57046 9.72503 7.57046Z" fill="black"/>
</svg>
