<svg width="16" height="16" viewBox="0 0 16 16" fill="none" xmlns="http://www.w3.org/2000/svg">
<path fill-rule="evenodd" clip-rule="evenodd" d="M6.92533 7.88936C7.5801 7.88936 8.11092 7.35855 8.11092 6.70378C8.11092 6.04901 7.5801 5.51819 6.92533 5.51819C6.27056 5.51819 5.73975 6.04901 5.73975 6.70378C5.73975 7.35855 6.27056 7.88936 6.92533 7.88936Z" fill="black"/>
<path fill-rule="evenodd" clip-rule="evenodd" d="M11.9639 5.51817C12.7824 5.51817 13.4459 4.85465 13.4459 4.03618C13.4459 3.21771 12.7824 2.5542 11.9639 2.5542C11.1454 2.5542 10.4819 3.21771 10.4819 4.03618C10.4819 4.85465 11.1454 5.51817 11.9639 5.51817Z" fill="black"/>
<path fill-rule="evenodd" clip-rule="evenodd" d="M5.44339 11.4461C5.93449 11.4461 6.33258 11.048 6.33258 10.5569C6.33258 10.0658 5.93449 9.66772 5.44339 9.66772C4.95229 9.66772 4.5542 10.0658 4.5542 10.5569C4.5542 11.048 4.95229 11.4461 5.44339 11.4461Z" fill="black"/>
<path fill-rule="evenodd" clip-rule="evenodd" d="M10.7784 10.2604C11.2695 10.2604 11.6675 9.86235 11.6675 9.37125C11.6675 8.88015 11.2695 8.48206 10.7784 8.48206C10.2873 8.48206 9.88916 8.88015 9.88916 9.37125C9.88916 9.86235 10.2873 10.2604 10.7784 10.2604Z" fill="black"/>
<path fill-rule="evenodd" clip-rule="evenodd" d="M1.9999 1.5415C2.33127 1.5415 2.5999 1.81013 2.5999 2.1415V11.8589C2.5999 12.6321 3.2267 13.2589 3.9999 13.2589H13.9999C14.3313 13.2589 14.5999 13.5275 14.5999 13.8589C14.5999 14.1903 14.3313 14.4589 13.9999 14.4589H3.9999C2.56396 14.4589 1.3999 13.2949 1.3999 11.8589V2.1415C1.3999 1.81013 1.66853 1.5415 1.9999 1.5415Z" fill="black"/>
</svg>
