<svg width="16" height="16" viewBox="0 0 16 16" fill="none" xmlns="http://www.w3.org/2000/svg">
<g clip-path="url(#clip0_1359_33)">
<path fill-rule="evenodd" clip-rule="evenodd" d="M8.00089 5.38672C6.55713 5.38672 5.38672 6.55713 5.38672 8.00089C5.38672 9.44466 6.55713 10.6151 8.00089 10.6151C9.44466 10.6151 10.6151 9.44466 10.6151 8.00089C10.6151 6.55713 9.44466 5.38672 8.00089 5.38672ZM6.58672 8.00089C6.58672 7.21987 7.21987 6.58672 8.00089 6.58672C8.78192 6.58672 9.41507 7.21987 9.41507 8.00089C9.41507 8.78192 8.78192 9.41507 8.00089 9.41507C7.21987 9.41507 6.58672 8.78192 6.58672 8.00089Z" fill="black"/>
<path fill-rule="evenodd" clip-rule="evenodd" d="M9.13226 1.43347C8.50742 0.808634 7.49436 0.808634 6.86952 1.43347L5.81561 2.48738C5.7406 2.56239 5.63886 2.60454 5.53277 2.60454H4.20844C3.32479 2.60454 2.60844 3.32088 2.60844 4.20454V5.52886C2.60844 5.63495 2.5663 5.73669 2.49129 5.81171L1.43738 6.86561C0.81254 7.49045 0.81254 8.50352 1.43738 9.12836L2.49129 10.1823C2.5663 10.2573 2.60844 10.359 2.60844 10.4651V11.7894C2.60844 12.6731 3.32479 13.3894 4.20844 13.3894H5.53277C5.63886 13.3894 5.7406 13.4316 5.81561 13.5066L6.86952 14.5605C7.49436 15.1853 8.50742 15.1853 9.13226 14.5605L10.1862 13.5066C10.2612 13.4316 10.3629 13.3894 10.469 13.3894H11.7933C12.677 13.3894 13.3933 12.6731 13.3933 11.7894V10.4651C13.3933 10.359 13.4355 10.2573 13.5105 10.1823L14.5644 9.12836C15.1892 8.50352 15.1892 7.49045 14.5644 6.86561L13.5105 5.81171C13.4355 5.73669 13.3933 5.63495 13.3933 5.52887V4.20454C13.3933 3.32088 12.677 2.60454 11.7933 2.60454H10.469C10.3629 2.60454 10.2612 2.56239 10.1862 2.48738L9.13226 1.43347ZM7.71805 2.282C7.87426 2.12579 8.12752 2.12579 8.28373 2.282L9.33764 3.33591C9.6377 3.63597 10.0447 3.80454 10.469 3.80454H11.7933C12.0143 3.80454 12.1933 3.98362 12.1933 4.20454V5.52887C12.1933 5.95321 12.3619 6.36018 12.662 6.66024L13.7159 7.71414C13.8721 7.87035 13.8721 8.12362 13.7159 8.27983L12.662 9.33373C12.3619 9.63379 12.1933 10.0408 12.1933 10.4651V11.7894C12.1933 12.0103 12.0143 12.1894 11.7933 12.1894H10.469C10.0447 12.1894 9.6377 12.358 9.33764 12.6581L8.28373 13.712C8.12752 13.8682 7.87426 13.8682 7.71805 13.712L6.66414 12.6581C6.36408 12.358 5.95712 12.1894 5.53277 12.1894H4.20844C3.98753 12.1894 3.80844 12.0103 3.80844 11.7894V10.4651C3.80844 10.0408 3.63987 9.63379 3.33981 9.33373L2.28591 8.27983C2.1297 8.12362 2.1297 7.87035 2.28591 7.71414L3.33981 6.66024C3.63987 6.36018 3.80844 5.95321 3.80844 5.52886V4.20454C3.80844 3.98362 3.98753 3.80454 4.20844 3.80454H5.53277C5.95712 3.80454 6.36408 3.63597 6.66414 3.33591L7.71805 2.282Z" fill="black"/>
</g>
<defs>
<clipPath id="clip0_1359_33">
<rect width="16" height="16" fill="white"/>
</clipPath>
</defs>
</svg>
