<svg width="16" height="16" viewBox="0 0 16 16" fill="none" xmlns="http://www.w3.org/2000/svg">
<g clip-path="url(#clip0_1359_33)">
<path fill-rule="evenodd" clip-rule="evenodd" d="M7.99992 5.38965C6.55615 5.38965 5.38574 6.56006 5.38574 8.00382C5.38574 9.44759 6.55615 10.618 7.99992 10.618C9.44368 10.618 10.6141 9.44759 10.6141 8.00382C10.6141 6.56006 9.44368 5.38965 7.99992 5.38965ZM6.58574 8.00382C6.58574 7.2228 7.21889 6.58965 7.99992 6.58965C8.78094 6.58965 9.41409 7.2228 9.41409 8.00382C9.41409 8.78485 8.78094 9.418 7.99992 9.418C7.21889 9.418 6.58574 8.78485 6.58574 8.00382Z" fill="black"/>
<path fill-rule="evenodd" clip-rule="evenodd" d="M9.13129 1.4364C8.50645 0.811564 7.49338 0.811564 6.86854 1.4364L5.81464 2.49031C5.73962 2.56532 5.63788 2.60747 5.5318 2.60747H4.20747C3.32381 2.60747 2.60747 3.32381 2.60747 4.20747V5.53179C2.60747 5.63788 2.56532 5.73962 2.49031 5.81464L1.4364 6.86854C0.811564 7.49338 0.811564 8.50645 1.4364 9.13129L2.49031 10.1852C2.56532 10.2602 2.60747 10.3619 2.60747 10.468V11.7924C2.60747 12.676 3.32381 13.3924 4.20747 13.3924H5.53179C5.63788 13.3924 5.73962 13.4345 5.81464 13.5095L6.86854 14.5634C7.49338 15.1883 8.50645 15.1883 9.13129 14.5634L10.1852 13.5095C10.2602 13.4345 10.3619 13.3924 10.468 13.3924H11.7924C12.676 13.3924 13.3924 12.676 13.3924 11.7924V10.468C13.3924 10.3619 13.4345 10.2602 13.5095 10.1852L14.5634 9.13129C15.1883 8.50645 15.1883 7.49338 14.5634 6.86854L13.5095 5.81464C13.4345 5.73962 13.3924 5.63788 13.3924 5.5318V4.20747C13.3924 3.32381 12.676 2.60747 11.7924 2.60747H10.468C10.3619 2.60747 10.2602 2.56532 10.1852 2.49031L9.13129 1.4364ZM7.71707 2.28493C7.87328 2.12872 8.12655 2.12872 8.28276 2.28493L9.33666 3.33884C9.63672 3.6389 10.0437 3.80747 10.468 3.80747H11.7924C12.0133 3.80747 12.1924 3.98655 12.1924 4.20747V5.5318C12.1924 5.95614 12.3609 6.36311 12.661 6.66317L13.7149 7.71707C13.8711 7.87328 13.8711 8.12655 13.7149 8.28276L12.661 9.33666C12.3609 9.63672 12.1924 10.0437 12.1924 10.468V11.7924C12.1924 12.0133 12.0133 12.1924 11.7924 12.1924H10.468C10.0437 12.1924 9.63672 12.3609 9.33666 12.661L8.28276 13.7149C8.12655 13.8711 7.87328 13.8711 7.71707 13.7149L6.66317 12.661C6.36311 12.3609 5.95614 12.1924 5.53179 12.1924H4.20747C3.98655 12.1924 3.80747 12.0133 3.80747 11.7924V10.468C3.80747 10.0437 3.6389 9.63672 3.33884 9.33666L2.28493 8.28276C2.12872 8.12655 2.12872 7.87328 2.28493 7.71707L3.33884 6.66317C3.6389 6.36311 3.80747 5.95614 3.80747 5.53179V4.20747C3.80747 3.98655 3.98655 3.80747 4.20747 3.80747H5.5318C5.95614 3.80747 6.36311 3.6389 6.66317 3.33884L7.71707 2.28493Z" fill="black"/>
</g>
<defs>
<clipPath id="clip0_1359_33">
<rect width="16" height="16" fill="white"/>
</clipPath>
</defs>
</svg>
