<svg width="16" height="16" viewBox="0 0 16 16" fill="none" xmlns="http://www.w3.org/2000/svg">
<g clip-path="url(#clip0_824_11)">
<path d="M11.4713 6.47132C11.7317 6.21097 11.7317 5.78886 11.4713 5.52851C11.211 5.26816 10.7889 5.26816 10.5285 5.52851L6.99992 9.05711L5.47132 7.52851C5.21097 7.26816 4.78886 7.26816 4.52851 7.52851C4.26816 7.78886 4.26816 8.21097 4.52851 8.47132L6.52851 10.4713C6.78886 10.7317 7.21097 10.7317 7.47132 10.4713L11.4713 6.47132Z" fill="black"/>
<path fill-rule="evenodd" clip-rule="evenodd" d="M7.99998 0.986328C6.06341 0.986328 4.30909 1.77209 3.04058 3.04057C1.7721 4.30908 0.986328 6.06341 0.986328 7.99998C0.986328 9.93655 1.77209 11.6909 3.04058 12.9594C4.30908 14.2279 6.06341 15.0136 7.99998 15.0136C9.93655 15.0136 11.6909 14.2279 12.9594 12.9594C14.2279 11.6909 15.0136 9.93655 15.0136 7.99998C15.0136 6.06341 14.2279 4.30908 12.9594 3.04058C11.6909 1.77209 9.93655 0.986328 7.99998 0.986328ZM3.98338 3.98339C5.01207 2.95472 6.43124 2.31966 7.99998 2.31966C9.56872 2.31966 10.9879 2.95472 12.0166 3.98339C13.0452 5.01207 13.6803 6.43124 13.6803 7.99998C13.6803 9.56872 13.0452 10.9879 12.0166 12.0166C10.9879 13.0452 9.56872 13.6803 7.99998 13.6803C6.43124 13.6803 5.01207 13.0452 3.98339 12.0166C2.95472 10.9879 2.31966 9.56872 2.31966 7.99998C2.31966 6.43124 2.95472 5.01208 3.98338 3.98339Z" fill="black"/>
</g>
<defs>
<clipPath id="clip0_824_11">
<rect width="16" height="16" fill="white"/>
</clipPath>
</defs>
</svg>
