<svg width="16" height="16" viewBox="0 0 16 16" fill="none" xmlns="http://www.w3.org/2000/svg">
<g clip-path="url(#clip0_1154_17)">
<path fill-rule="evenodd" clip-rule="evenodd" d="M0.733398 7.99994C0.733398 3.98667 3.98679 0.733276 8.00007 0.733276C12.0133 0.733276 15.2667 3.98667 15.2667 7.99994C15.2667 12.0132 12.0133 15.2666 8.00007 15.2666C3.98679 15.2666 0.733398 12.0132 0.733398 7.99994ZM8.00007 1.93328C4.64954 1.93328 1.9334 4.64941 1.9334 7.99994C1.9334 11.3505 4.64954 14.0666 8.00007 14.0666C11.3506 14.0666 14.0667 11.3505 14.0667 7.99994C14.0667 4.64941 11.3506 1.93328 8.00007 1.93328Z" fill="black"/>
<path d="M5 6.5C5 5.67157 5.67157 5 6.5 5H9.5C10.3284 5 11 5.67157 11 6.5V9.5C11 10.3284 10.3284 11 9.5 11H6.5C5.67157 11 5 10.3284 5 9.5V6.5Z" fill="black"/>
</g>
<defs>
<clipPath id="clip0_1154_17">
<rect width="16" height="16" fill="white"/>
</clipPath>
</defs>
</svg>
