<svg width="25" height="25" viewBox="0 0 25 25" fill="none" xmlns="http://www.w3.org/2000/svg">
<mask id="mask0_17_447" style="mask-type:alpha" maskUnits="userSpaceOnUse" x="0" y="0" width="25" height="25">
<rect x="0.230469" y="0.899414" width="24" height="24" fill="#DCDCDC"/>
</mask>
<g mask="url(#mask0_17_447)">
<path d="M7.07135 4.00532C7.07135 3.39455 6.57622 2.89941 5.96545 2.89941C5.35467 2.89941 4.85954 3.39455 4.85954 4.00532V9.13445C4.85954 9.74522 5.35467 10.2404 5.96545 10.2404C6.57622 10.2404 7.07135 9.74522 7.07135 9.13445V4.00532Z" fill="black"/>
<path d="M5.96545 13.5581C6.57622 13.5581 7.07135 14.0532 7.07135 14.664V15.5285C7.07135 18.3778 9.38116 20.6876 12.2305 20.6876C15.0798 20.6876 17.3896 18.3778 17.3896 15.5285V14.664C17.3896 14.0532 17.8847 13.5581 18.4955 13.5581C19.1062 13.5581 19.6014 14.0532 19.6014 14.664V15.5285C19.6014 19.5993 16.3013 22.8994 12.2305 22.8994C8.15961 22.8994 4.85954 19.5993 4.85954 15.5285V14.664C4.85954 14.0532 5.35467 13.5581 5.96545 13.5581Z" fill="black"/>
<path d="M18.4955 10.2404C19.1062 10.2404 19.6014 9.74522 19.6014 9.13445V4.00532C19.6014 3.39455 19.1062 2.89941 18.4955 2.89941C17.8847 2.89941 17.3896 3.39455 17.3896 4.00532V9.13445C17.3896 9.74522 17.8847 10.2404 18.4955 10.2404Z" fill="black"/>
<path d="M2.27729 10.7594C1.66652 10.7594 1.17139 11.2546 1.17139 11.8653C1.17139 12.4761 1.66652 12.9712 2.27729 12.9712H22.1836C22.7944 12.9712 23.2895 12.4761 23.2895 11.8653C23.2895 11.2546 22.7944 10.7594 22.1836 10.7594H2.27729Z" fill="black"/>
</g>
</svg>
