<svg width="17" height="17" viewBox="0 0 17 17" fill="none" xmlns="http://www.w3.org/2000/svg">
<mask id="mask0_102_671" style="mask-type:alpha" maskUnits="userSpaceOnUse" x="0" y="0" width="17" height="17">
<rect x="0.069519" y="0.0600586" width="16" height="16" fill="#DCDCDC"/>
</mask>
<g mask="url(#mask0_102_671)">
<path d="M5.03223 2.1974C5.03223 1.83782 4.74074 1.54632 4.38116 1.54632C4.02158 1.54632 3.73008 1.83782 3.73008 2.1974V5.21704C3.73008 5.57662 4.02158 5.86811 4.38116 5.86811C4.74074 5.86811 5.03223 5.57662 5.03223 5.21704V2.1974Z" fill="black"/>
<path d="M4.38116 8.95372C4.74074 8.95372 5.03223 9.24522 5.03223 9.60479V10.3959C5.03223 12.0733 6.39207 13.4332 8.06953 13.4332C9.74698 13.4332 11.1068 12.0733 11.1068 10.3959V9.60479C11.1068 9.24522 11.3983 8.95372 11.7579 8.95372C12.1175 8.95372 12.409 9.24522 12.409 9.60479V10.3959C12.409 12.7925 10.4661 14.7353 8.06953 14.7353C5.67292 14.7353 3.73008 12.7925 3.73008 10.3959V9.60479C3.73008 9.24522 4.02158 8.95372 4.38116 8.95372Z" fill="black"/>
<path d="M11.7579 5.86879C12.1175 5.86879 12.409 5.57729 12.409 5.21771V2.03535C12.409 1.67577 12.1175 1.38428 11.7579 1.38428C11.3983 1.38428 11.1068 1.67577 11.1068 2.03535V5.21771C11.1068 5.57729 11.3983 5.86879 11.7579 5.86879Z" fill="black"/>
<path d="M2.20985 6.7262C1.85027 6.7262 1.55878 7.0177 1.55878 7.37727C1.55878 7.73685 1.85027 8.02835 2.20985 8.02835H13.9292C14.2888 8.02835 14.5803 7.73685 14.5803 7.37727C14.5803 7.0177 14.2888 6.7262 13.9292 6.7262H2.20985Z" fill="black"/>
</g>
</svg>
