<svg width="16" height="16" viewBox="0 0 16 16" fill="none" xmlns="http://www.w3.org/2000/svg">
<path d="M2.60384 2.34274C2.39447 2.05113 1.98835 1.98445 1.69674 2.19382C1.40513 2.40319 1.33846 2.80931 1.54782 3.10092L5.06527 8.00012L1.54784 12.8993C1.33847 13.1909 1.40514 13.597 1.69675 13.8064C1.98836 14.0158 2.39448 13.9491 2.60385 13.6575L5.86545 9.11463L9.12705 13.6575C9.33642 13.9491 9.74254 14.0158 10.0341 13.8064C10.3258 13.597 10.3924 13.1909 10.1831 12.8993L6.66563 8.00012L10.1831 3.10092C10.3924 2.80931 10.3258 2.40319 10.0342 2.19382C9.74255 1.98445 9.33643 2.05113 9.12706 2.34274L5.86545 6.88561L2.60384 2.34274Z" fill="black"/>
<path d="M13.0221 10.4725C13.0221 10.7718 12.8545 11.1247 12.5304 11.5427C12.2085 11.9577 11.7454 12.4206 11.1825 12.9381C11.0649 13.0462 10.9967 13.1989 10.9967 13.3594C10.9967 13.6737 11.2515 13.9285 11.5657 13.9285H13.9773C14.307 13.9285 14.5742 13.6612 14.5742 13.3315C14.5742 13.0018 14.307 12.7345 13.9773 12.7345H13.5735C13.4387 12.7345 13.2624 12.7467 13.092 12.7634L13.0906 12.7634L13.089 12.7619L13.0868 12.7589C13.0855 12.7561 13.0855 12.7535 13.0855 12.7535L13.0863 12.7525C13.4178 12.3983 13.7329 12.0116 13.9656 11.6159C14.1978 11.2211 14.3528 10.8094 14.3528 10.4074C14.3528 9.91841 14.18 9.50783 13.8761 9.21983C13.5728 8.93241 13.1473 8.7749 12.6552 8.7749C12.3802 8.7749 12.1555 8.80023 11.9494 8.86784C11.7424 8.93575 11.5606 9.0442 11.3682 9.20192C11.2524 9.29691 11.1771 9.44251 11.1545 9.58802C11.1319 9.73348 11.1599 9.89717 11.2771 10.0132C11.4897 10.2236 11.8118 10.2625 12.0629 10.0905C12.1882 10.0046 12.3689 9.94905 12.5271 9.94905C12.7029 9.94905 12.8211 9.99229 12.8963 10.0673C12.9714 10.1422 13.0221 10.2675 13.0221 10.4725Z" fill="black"/>
</svg>
