<svg width="17" height="17" viewBox="0 0 17 17" fill="none" xmlns="http://www.w3.org/2000/svg">
<path d="M2.66573 3.27145C2.45636 2.97984 2.05024 2.91317 1.75863 3.12253C1.46702 3.3319 1.40035 3.73802 1.60971 4.02963L5.12716 8.92883L1.60973 13.828C1.40036 14.1196 1.46703 14.5257 1.75864 14.7351C2.05025 14.9445 2.45637 14.8778 2.66574 14.5862L5.92734 10.0433L9.18894 14.5862C9.39831 14.8778 9.80443 14.9445 10.096 14.7351C10.3876 14.5257 10.4543 14.1196 10.245 13.828L6.72752 8.92883L10.245 4.02963C10.4543 3.73802 10.3877 3.3319 10.0961 3.12253C9.80444 2.91317 9.39832 2.97984 9.18895 3.27145L5.92734 7.81432L2.66573 3.27145Z" fill="black"/>
<path d="M13.084 11.4012C13.084 11.7006 12.9164 12.0534 12.5923 12.4714C12.2704 12.8864 11.8073 13.3493 11.2443 13.8668C11.1267 13.9749 11.0586 14.1276 11.0586 14.2881C11.0586 14.6024 11.3134 14.8572 11.6276 14.8572H14.0392C14.3689 14.8572 14.6361 14.5899 14.6361 14.2602C14.6361 13.9305 14.3689 13.6632 14.0392 13.6632H13.6354C13.5006 13.6632 13.3243 13.6754 13.1539 13.6921L13.1525 13.6921L13.1509 13.6906L13.1487 13.6876C13.1473 13.6848 13.1474 13.6822 13.1474 13.6822L13.1482 13.6812C13.4797 13.327 13.7948 12.9403 14.0275 12.5446C14.2597 12.1498 14.4147 11.7382 14.4147 11.3361C14.4147 10.8471 14.2419 10.4365 13.938 10.1485C13.6347 9.86112 13.2092 9.70361 12.7171 9.70361C12.4421 9.70361 12.2173 9.72894 12.0113 9.79655C11.8043 9.86446 11.6225 9.97291 11.4301 10.1306C11.3143 10.2256 11.239 10.3712 11.2164 10.5167C11.1938 10.6622 11.2218 10.8259 11.339 10.9419C11.5516 11.1523 11.8736 11.1912 12.1248 11.0192C12.2501 10.9334 12.4308 10.8778 12.589 10.8778C12.7648 10.8778 12.883 10.921 12.9582 10.996C13.0333 11.0709 13.084 11.1962 13.084 11.4012Z" fill="black"/>
</svg>
