<svg width="17" height="16" viewBox="0 0 17 16" fill="none" xmlns="http://www.w3.org/2000/svg">
<path d="M10.3093 11.9302C10.0114 11.9302 9.76996 11.5394 9.76996 11.0574V6.74679C9.76996 6.28864 9.99945 5.91723 10.2826 5.91723H10.3093C10.5445 5.91723 10.7451 6.19232 10.7838 6.56765L10.7923 6.6501C10.7939 6.66626 10.8026 6.6781 10.8127 6.6781Lnan nanL10.8127 6.6781C10.8182 6.6781 10.8235 6.67455 10.8273 6.66828C11.1324 6.176 11.4514 5.76929 11.9509 5.76929C12.4668 5.76929 12.7802 6.11802 12.9696 6.76264C13.2895 6.23426 13.6356 5.76929 14.1319 5.76929C14.9416 5.76929 15.2942 6.7098 15.2942 8.2104V10.9897C15.2942 11.5091 15.034 11.9302 14.713 11.9302Lnan nanL14.713 11.9302C14.3921 11.9302 14.1319 11.5091 14.1319 10.9897V8.44289C14.1319 7.61862 14.0013 7.37556 13.7074 7.37556Lnan nanL13.7074 7.37556C13.2596 7.37556 13.1132 8.31995 13.1132 9.04476V10.9844C13.1132 11.5068 12.8516 11.9302 12.5288 11.9302Lnan nanL12.5288 11.9302C12.206 11.9302 11.9444 11.5068 11.9444 10.9844V8.44289C11.9444 7.61862 11.8138 7.37556 11.52 7.37556Lnan nanL11.52 7.37556C11.0721 7.37556 10.9257 8.31995 10.9257 9.04476V10.995C10.9257 11.5115 10.667 11.9302 10.3478 11.9302H10.3093Z" fill="black"/>
<path d="M6.61373 12.0782C5.80403 12.0782 5.45795 11.1376 5.45795 9.63703V6.85775C5.45795 6.33832 5.71814 5.91724 6.0391 5.91724C6.36007 5.91724 6.62026 6.33832 6.62026 6.85775V9.40455C6.62026 10.2394 6.75738 10.4719 7.05123 10.4719C7.11248 10.4719 7.16834 10.4626 7.22051 10.4426C7.59463 10.2995 7.67156 9.5245 7.67156 8.90233V6.85775C7.67156 6.33832 7.93175 5.91724 8.25271 5.91724C8.57368 5.91724 8.83387 6.33832 8.83387 6.85775V11.1006C8.83387 11.5588 8.60437 11.9302 8.32128 11.9302H8.14522C7.99624 11.9302 7.86909 11.7559 7.8446 11.5181L7.80493 11.1328C7.80333 11.1173 7.79503 11.1059 7.78531 11.1059C7.77943 11.1059 7.77383 11.1102 7.77004 11.1175C7.46462 11.7027 7.11974 12.0782 6.61373 12.0782Z" fill="black"/>
<path d="M2.92665 12.0781C2.44891 12.0781 1.94517 11.8617 1.51069 11.4334C1.27078 11.1969 1.25067 10.6728 1.42894 10.3215C1.61686 9.95109 1.9544 9.91256 2.21833 10.1299C2.46194 10.3304 2.71934 10.4507 2.95277 10.4507C3.38374 10.4507 3.58616 10.1865 3.58616 9.76381C3.58616 9.3094 3.31844 9.16145 2.90053 8.87613L2.28019 8.45342C1.77087 8.12583 1.29419 7.43893 1.29419 6.29763C1.29419 4.97668 2.02553 3.91992 3.05724 3.91992C3.4784 3.91992 3.91791 4.11606 4.29041 4.50389C4.50421 4.72649 4.51804 5.19876 4.35988 5.52088C4.19102 5.86477 3.8882 5.908 3.63956 5.73186C3.45863 5.60368 3.27034 5.53677 3.05724 5.53677C2.6981 5.53677 2.47609 5.76925 2.47609 6.19196C2.47609 6.62523 2.78299 6.79431 3.21396 7.06907L3.82123 7.46007C4.42198 7.85107 4.78112 8.50626 4.78112 9.61586C4.78112 10.9262 4.10202 12.0781 2.92665 12.0781Z" fill="black"/>
</svg>
