<svg width="16" height="16" viewBox="0 0 16 16" fill="none" xmlns="http://www.w3.org/2000/svg">
<path d="M9.82566 11.9312C9.52779 11.9312 9.28632 11.5404 9.28632 11.0583V6.74777C9.28632 6.28962 9.51581 5.91821 9.79891 5.91821H9.8257C10.0608 5.91821 10.2615 6.1933 10.3001 6.56863L10.3086 6.65107C10.3103 6.66723 10.3189 6.67908 10.329 6.67908Lnan nanL10.329 6.67908C10.3345 6.67908 10.3398 6.67553 10.3437 6.66925C10.6488 6.17698 10.9678 5.77026 11.4673 5.77026C11.9831 5.77026 12.2966 6.11899 12.4859 6.76362C12.8059 6.23524 13.152 5.77026 13.6482 5.77026C14.4579 5.77026 14.8106 6.71078 14.8106 8.21138V10.9907C14.8106 11.5101 14.5504 11.9312 14.2294 11.9312Lnan nanL14.2294 11.9312C13.9084 11.9312 13.6482 11.5101 13.6482 10.9907V8.44387C13.6482 7.61959 13.5176 7.37654 13.2238 7.37654Lnan nanL13.2238 7.37654C12.7759 7.37654 12.6296 8.32093 12.6296 9.04573V10.9854C12.6296 11.5077 12.3679 11.9312 12.0452 11.9312Lnan nanL12.0452 11.9312C11.7224 11.9312 11.4608 11.5077 11.4608 10.9854V8.44387C11.4608 7.61959 11.3302 7.37654 11.0363 7.37654Lnan nanL11.0363 7.37654C10.5884 7.37654 10.4421 8.32093 10.4421 9.04573V10.9959C10.4421 11.5125 10.1834 11.9312 9.86421 11.9312H9.82566Z" fill="black"/>
<path d="M6.13008 12.0791C5.32039 12.0791 4.9743 11.1386 4.9743 9.63801V6.85873C4.9743 6.3393 5.2345 5.91821 5.55546 5.91821C5.87642 5.91821 6.13661 6.3393 6.13661 6.85873V9.40552C6.13661 10.2404 6.27374 10.4729 6.56758 10.4729C6.62884 10.4729 6.6847 10.4636 6.73686 10.4436C7.11099 10.3004 7.18792 9.52547 7.18792 8.90331V6.85873C7.18792 6.3393 7.44811 5.91821 7.76907 5.91821C8.09003 5.91821 8.35023 6.3393 8.35023 6.85873V11.1016C8.35023 11.5598 8.12073 11.9312 7.83763 11.9312H7.66158C7.5126 11.9312 7.38545 11.7569 7.36096 11.519L7.32128 11.1338C7.31968 11.1183 7.31139 11.1069 7.30167 11.1069C7.29579 11.1069 7.29019 11.1112 7.2864 11.1184C6.98098 11.7036 6.6361 12.0791 6.13008 12.0791Z" fill="black"/>
<path d="M2.443 12.0791C1.96527 12.0791 1.46153 11.8627 1.02705 11.4343C0.78714 11.1978 0.767027 10.6738 0.945295 10.3224C1.13322 9.95206 1.47075 9.91354 1.73469 10.1308C1.9783 10.3314 2.2357 10.4517 2.46912 10.4517C2.90009 10.4517 3.10252 10.1875 3.10252 9.76478C3.10252 9.31038 2.83479 9.16243 2.41689 8.8771L1.79655 8.4544C1.28722 8.12681 0.810547 7.43991 0.810547 6.29861C0.810547 4.97766 1.54189 3.9209 2.5736 3.9209C2.99475 3.9209 3.43427 4.11704 3.80676 4.50486C4.02057 4.72747 4.0344 5.19974 3.87623 5.52185C3.70738 5.86574 3.40456 5.90897 3.15592 5.73283C2.97499 5.60465 2.7867 5.53774 2.5736 5.53774C2.21446 5.53774 1.99245 5.77023 1.99245 6.19293C1.99245 6.62621 2.29935 6.79529 2.73032 7.07004L3.33759 7.46105C3.93834 7.85205 4.29748 8.50724 4.29748 9.61684C4.29748 10.9272 3.61837 12.0791 2.443 12.0791Z" fill="black"/>
</svg>
