<svg width="16" height="16" viewBox="0 0 16 16" fill="none" xmlns="http://www.w3.org/2000/svg">
<path d="M13.0221 3.60995C13.0221 3.90929 12.8545 4.26213 12.5304 4.68012C12.2085 5.09515 11.7454 5.55802 11.1825 6.07553C11.0649 6.18363 10.9967 6.3363 10.9967 6.49688C10.9967 6.81115 11.2515 7.06592 11.5657 7.06592H13.9773C14.307 7.06592 14.5742 6.79864 14.5742 6.46894C14.5742 6.13924 14.307 5.87196 13.9773 5.87196H13.5735C13.4387 5.87196 13.2624 5.88419 13.092 5.90085L13.0906 5.90087C13.0906 5.90087 13.0882 5.89908 13.0868 5.89632C13.0855 5.89356 13.0855 5.89096 13.0855 5.89096L13.0863 5.88997C13.4178 5.53574 13.7329 5.149 13.9656 4.75332C14.1978 4.35858 14.3528 3.94689 14.3528 3.54482C14.3528 3.05586 14.18 2.64528 13.8761 2.35728C13.5728 2.06986 13.1473 1.91235 12.6552 1.91235C12.3802 1.91235 12.1555 1.93768 11.9494 2.00529C11.7424 2.0732 11.5606 2.18165 11.3682 2.33937C11.2524 2.43436 11.1771 2.57996 11.1545 2.72547C11.1319 2.87094 11.1599 3.03463 11.2771 3.15062C11.4897 3.36103 11.8118 3.39998 12.0629 3.22793C12.1882 3.14209 12.3689 3.0865 12.5271 3.0865C12.7029 3.0865 12.8211 3.12974 12.8963 3.20472C12.9714 3.27967 13.0221 3.40498 13.0221 3.60995Z" fill="black"/>
<path d="M2.60384 2.50216C2.39447 2.21055 1.98835 2.14388 1.69674 2.35324C1.40513 2.56261 1.33846 2.96873 1.54782 3.26034L5.06527 8.15954L1.54784 13.0587C1.33847 13.3503 1.40514 13.7565 1.69675 13.9658C1.98836 14.1752 2.39448 14.1085 2.60385 13.8169L5.86545 9.27405L9.12705 13.8169C9.33642 14.1085 9.74254 14.1752 10.0341 13.9658C10.3258 13.7565 10.3924 13.3503 10.1831 13.0587L6.66563 8.15954L10.1831 3.26034C10.3924 2.96873 10.3258 2.56261 10.0342 2.35324C9.74255 2.14388 9.33643 2.21055 9.12706 2.50216L5.86545 7.04503L2.60384 2.50216Z" fill="black"/>
</svg>
