<svg width="17" height="17" viewBox="0 0 17 17" fill="none" xmlns="http://www.w3.org/2000/svg">
<path d="M13.4963 4.53866C13.4963 4.838 13.3288 5.19084 13.0046 5.60884C12.6828 6.02386 12.2197 6.48673 11.6567 7.00424C11.5391 7.11234 11.4709 7.26502 11.4709 7.42559C11.4709 7.73986 11.7257 7.99463 12.04 7.99463H14.4515C14.7812 7.99463 15.0485 7.72735 15.0485 7.39765C15.0485 7.06795 14.7812 6.80067 14.4515 6.80067H14.0477C13.9129 6.80067 13.7367 6.8129 13.5663 6.82956L13.5648 6.82958C13.5648 6.82958 13.5624 6.82779 13.5611 6.82503C13.5597 6.82227 13.5597 6.81967 13.5597 6.81967L13.5605 6.81868C13.892 6.46446 14.2071 6.07771 14.4399 5.68204C14.6721 5.28729 14.8271 4.8756 14.8271 4.47353C14.8271 3.98457 14.6542 3.57399 14.3503 3.28599C14.047 2.99857 13.6216 2.84106 13.1295 2.84106C12.8544 2.84106 12.6297 2.86639 12.4236 2.934C12.2166 3.00192 12.0348 3.11036 11.8425 3.26808C11.7267 3.36307 11.6514 3.50867 11.6288 3.65418C11.6061 3.79965 11.6341 3.96334 11.7513 4.07933C11.9639 4.28974 12.286 4.32869 12.5372 4.15664C12.6625 4.0708 12.8431 4.01521 13.0013 4.01521C13.1771 4.01521 13.2954 4.05845 13.3705 4.13343C13.4456 4.20838 13.4963 4.33369 13.4963 4.53866Z" fill="black"/>
<path d="M3.07808 3.43087C2.86871 3.13926 2.46259 3.07259 2.17098 3.28195C1.87937 3.49132 1.8127 3.89744 2.02207 4.18905L5.53951 9.08825L2.02208 13.9874C1.81271 14.279 1.87939 14.6852 2.171 14.8945C2.46261 15.1039 2.86873 15.0372 3.07809 14.7456L6.33969 10.2028L9.60129 14.7456C9.81066 15.0372 10.2168 15.1039 10.5084 14.8945C10.8 14.6852 10.8667 14.279 10.6573 13.9874L7.13987 9.08825L10.6573 4.18905C10.8667 3.89744 10.8 3.49132 10.5084 3.28195C10.2168 3.07259 9.81067 3.13926 9.60131 3.43087L6.33969 7.97374L3.07808 3.43087Z" fill="black"/>
</svg>
