<svg width="25" height="25" viewBox="0 0 25 25" fill="none" xmlns="http://www.w3.org/2000/svg">
<mask id="mask0_17_679" style="mask-type:alpha" maskUnits="userSpaceOnUse" x="0" y="0" width="25" height="25">
<rect x="0.587402" y="0.923462" width="24" height="24" fill="#D9D9D9"/>
</mask>
<g mask="url(#mask0_17_679)">
<path fill-rule="evenodd" clip-rule="evenodd" d="M2.68115 20.8922C2.68115 21.9623 3.5486 22.8297 4.61865 22.8297H20.5562C21.6262 22.8297 22.4937 21.9623 22.4937 20.8922V4.95471C22.4937 3.88466 21.6262 3.01721 20.5562 3.01721H4.61865C3.5486 3.01721 2.68115 3.88466 2.68115 4.95471V20.8922ZM4.68115 13.9235V20.8297H11.5874V13.9235H4.68115ZM4.68115 11.9235H11.5874V5.01721H4.68115V11.9235ZM13.5874 13.9235V20.8297H20.4937V13.9235H13.5874ZM20.4937 11.9235H13.5874V5.01721H20.4937V11.9235Z" fill="black"/>
</g>
</svg>
