<svg width="25" height="25" viewBox="0 0 25 25" fill="none" xmlns="http://www.w3.org/2000/svg">
<mask id="mask0_17_432" style="mask-type:alpha" maskUnits="userSpaceOnUse" x="0" y="0" width="25" height="25">
<rect x="0.959045" y="0.836792" width="24" height="24" fill="#DCDCDC"/>
</mask>
<g mask="url(#mask0_17_432)">
<path d="M22.4328 7.81793C22.989 7.81793 23.267 7.47989 23.267 6.80382C23.267 6.47668 23.1962 6.22588 23.0544 6.0514C22.9126 5.86603 22.7109 5.77334 22.4492 5.77334H20.2738V3.51611C20.2738 2.95998 19.9357 2.68192 19.2596 2.68192C18.9216 2.68192 18.6653 2.75825 18.4909 2.91091C18.3164 3.05267 18.2292 3.24895 18.2292 3.49975V5.77334H16.2336C15.8847 5.77334 15.6284 5.86058 15.4649 6.03505C15.3122 6.20952 15.2359 6.46578 15.2359 6.80382C15.2359 7.13095 15.3122 7.38175 15.4649 7.55623C15.6175 7.7307 15.8683 7.81793 16.2173 7.81793H18.2292V10.0424C18.2292 10.3914 18.3164 10.6476 18.4909 10.8112C18.6653 10.9639 18.9216 11.0402 19.2596 11.0402C19.5868 11.0402 19.8376 10.9639 20.0121 10.8112C20.1865 10.6586 20.2738 10.4078 20.2738 10.0588V7.81793H22.4328Z" fill="black"/>
<path fill-rule="evenodd" clip-rule="evenodd" d="M6.15884 20.6333L7.30848 17.4087H14.7391L16.2813 21.6989C16.3748 22.0167 16.515 22.269 16.7019 22.456C16.9075 22.6616 17.1693 22.7551 17.487 22.7364C17.9731 22.7364 18.2815 22.5868 18.4124 22.2877C18.5432 21.9699 18.5339 21.5867 18.3843 21.1381L12.4679 3.94947C12.3744 3.65038 12.2062 3.41671 11.9631 3.24847C11.7201 3.06153 11.4023 2.96807 11.0098 2.96807C10.6359 2.96807 10.3275 3.06153 10.0845 3.24847C9.86013 3.41671 9.70124 3.65038 9.60777 3.94947L3.71935 21.082C3.51372 21.7176 3.51372 22.1475 3.71935 22.3718C3.92497 22.6149 4.21472 22.7364 4.58859 22.7364C4.79422 22.7364 4.9718 22.6709 5.12135 22.5401C5.28959 22.4279 5.42979 22.269 5.54195 22.0634C5.67281 21.8578 5.78497 21.6334 5.87843 21.3904C5.9719 21.1474 6.06537 20.8951 6.15884 20.6333ZM11.0378 5.82816L14.2344 15.4459H7.84124L11.0378 5.82816Z" fill="black"/>
</g>
</svg>
