<svg width="25" height="25" viewBox="0 0 25 25" fill="none" xmlns="http://www.w3.org/2000/svg">
<mask id="mask0_17_559" style="mask-type:alpha" maskUnits="userSpaceOnUse" x="0" y="0" width="25" height="25">
<rect x="0.834961" y="0.136261" width="24" height="24" fill="#DCDCDC"/>
</mask>
<g mask="url(#mask0_17_559)">
<path d="M13.8564 2.84659C13.7025 2.43183 13.3033 2.13626 12.835 2.13626C12.3665 2.13626 11.9672 2.43198 11.8134 2.8469L9.16465 5.49566C8.778 5.88232 8.778 6.50921 9.16465 6.89587C9.55131 7.28253 10.1782 7.28253 10.5649 6.89587L11.7459 5.71488V14.6115C11.7459 15.213 12.2335 15.7006 12.835 15.7006C13.4365 15.7006 13.9241 15.213 13.9241 14.6115V5.71469L15.1052 6.89587C15.4919 7.28253 16.1188 7.28253 16.5055 6.89587C16.8921 6.50921 16.8921 5.88232 16.5055 5.49566L13.8564 2.84659Z" fill="black"/>
<path d="M3.92407 16.7924C3.32257 16.7924 2.83496 17.28 2.83496 17.8815C2.83496 18.483 3.32257 18.9706 3.92407 18.9706H21.7459C22.3473 18.9706 22.835 18.483 22.835 17.8815C22.835 17.28 22.3473 16.7924 21.7459 16.7924H3.92407Z" fill="black"/>
<path d="M3.92407 19.958C3.32257 19.958 2.83496 20.4457 2.83496 21.0472C2.83496 21.6486 3.32257 22.1363 3.92407 22.1363H21.7459C22.3473 22.1363 22.835 21.6486 22.835 21.0472C22.835 20.4457 22.3473 19.958 21.7459 19.958H3.92407Z" fill="black"/>
</g>
</svg>
