<svg width="25" height="25" viewBox="0 0 25 25" fill="none" xmlns="http://www.w3.org/2000/svg">
<mask id="mask0_17_438" style="mask-type:alpha" maskUnits="userSpaceOnUse" x="0" y="0" width="25" height="25">
<rect x="0.195007" y="0.774048" width="24" height="24" fill="#DCDCDC"/>
</mask>
<g mask="url(#mask0_17_438)">
<path d="M14.1249 12.0431C15.4894 12.2575 16.6005 12.7838 17.4582 13.622C18.3354 14.4407 18.774 15.6006 18.774 17.1015C18.774 18.8754 18.2477 20.2692 17.195 21.2828C16.1619 22.277 14.6999 22.774 12.8091 22.774H6.84416C6.4348 22.774 6.12291 22.6668 5.90849 22.4524C5.71355 22.238 5.61609 21.9651 5.61609 21.6337V3.9144C5.61609 3.58301 5.7233 3.31011 5.93773 3.09568C6.15215 2.88126 6.4543 2.77405 6.84416 2.77405H11.4933C12.5459 2.77405 13.4523 2.90075 14.2126 3.15416C14.9728 3.38808 15.5966 3.72921 16.0839 4.17755C16.5713 4.6259 16.9319 5.16196 17.1658 5.78574C17.3997 6.39003 17.5167 7.07229 17.5167 7.83253C17.5167 8.94364 17.195 9.85982 16.5518 10.5811C15.928 11.3023 15.119 11.7896 14.1249 12.0431ZM7.92603 11.1074H11.464C12.6921 11.1074 13.6278 10.8345 14.2711 10.2887C14.9143 9.72336 15.236 8.95338 15.236 7.97873C15.236 7.04305 14.9241 6.28282 14.3003 5.69802C13.696 5.09374 12.7506 4.79159 11.464 4.79159H7.92603V11.1074ZM7.92603 20.7565H11.8734C13.4329 20.7565 14.5927 20.4641 15.3529 19.8793C16.1132 19.275 16.4933 18.3296 16.4933 17.0431C16.4933 15.659 16.0449 14.6746 15.1483 14.0898C14.2516 13.4855 12.9455 13.1834 11.2301 13.1834H7.92603V20.7565Z" fill="black"/>
</g>
</svg>
