<svg width="25" height="25" viewBox="0 0 25 25" fill="none" xmlns="http://www.w3.org/2000/svg">
<mask id="mask0_17_435" style="mask-type:alpha" maskUnits="userSpaceOnUse" x="0" y="0" width="25" height="25">
<rect x="0.577026" y="0.836792" width="24" height="24" fill="#DCDCDC"/>
</mask>
<g mask="url(#mask0_17_435)">
<path fill-rule="evenodd" clip-rule="evenodd" d="M5.65668 20.7486L6.81949 17.487H14.3352L15.8951 21.8263C15.9896 22.1477 16.1314 22.403 16.3205 22.5921C16.5285 22.8 16.7932 22.8946 17.1146 22.8757C17.6062 22.8757 17.9182 22.7244 18.0505 22.4219C18.1829 22.1005 18.1734 21.7129 18.0222 21.2591L12.038 3.87366C11.9434 3.57114 11.7732 3.33479 11.5275 3.16462C11.2817 2.97555 10.9602 2.88101 10.5632 2.88101C10.185 2.88101 9.87305 2.97555 9.62725 3.16462C9.40036 3.33479 9.23965 3.57114 9.14511 3.87366L3.18925 21.2024C2.98127 21.8452 2.98127 22.2801 3.18925 22.507C3.39723 22.7528 3.6903 22.8757 4.06845 22.8757C4.27643 22.8757 4.45605 22.8095 4.60731 22.6771C4.77748 22.5637 4.91929 22.403 5.03273 22.195C5.16508 21.987 5.27853 21.7601 5.37307 21.5143C5.4676 21.2685 5.56214 21.0133 5.65668 20.7486ZM10.5915 5.77386L13.8247 15.5018H7.35835L10.5915 5.77386Z" fill="black"/>
<path d="M21.2855 6.78559C21.8479 6.78559 22.1292 6.44368 22.1292 5.75986C22.1292 5.42897 22.0575 5.1753 21.9141 4.99883C21.7707 4.81133 21.5667 4.71758 21.302 4.71758H15.8425C15.4895 4.71758 15.2303 4.80582 15.0649 4.98229C14.9105 5.15876 14.8333 5.41795 14.8333 5.75986C14.8333 6.10177 14.9105 6.36096 15.0649 6.53743C15.2193 6.70287 15.473 6.78559 15.8259 6.78559H21.2855Z" fill="black"/>
</g>
</svg>
