<svg width="25" height="25" viewBox="0 0 25 25" fill="none" xmlns="http://www.w3.org/2000/svg">
<mask id="mask0_17_562" style="mask-type:alpha" maskUnits="userSpaceOnUse" x="0" y="0" width="25" height="25">
<rect x="0.56543" y="0.136261" width="24" height="24" fill="#DCDCDC"/>
</mask>
<g mask="url(#mask0_17_562)">
<path d="M12.5654 2.13626C13.1128 2.13626 13.5564 2.57995 13.5564 3.12726V7.04093L14.5674 6.02994C14.9544 5.64293 15.5819 5.64293 15.9689 6.02994C16.3559 6.41695 16.3559 7.04442 15.9689 7.43143L13.2662 10.1342C12.8792 10.5212 12.2517 10.5212 11.8647 10.1342L9.16197 7.43143C8.77496 7.04442 8.77496 6.41695 9.16197 6.02994C9.54898 5.64293 10.1764 5.64293 10.5635 6.02994L11.5744 7.04093V3.12726C11.5744 2.57995 12.0181 2.13626 12.5654 2.13626Z" fill="black"/>
<path d="M9.16197 16.8409L11.8647 14.1381C12.2517 13.7511 12.8792 13.7511 13.2662 14.1381L15.9689 16.8409C16.3559 17.2279 16.3559 17.8553 15.9689 18.2424C15.5819 18.6294 14.9544 18.6294 14.5674 18.2424L13.5564 17.2314V21.1453C13.5564 21.6926 13.1128 22.1363 12.5654 22.1363C12.0181 22.1363 11.5744 21.6926 11.5744 21.1453V17.2314L10.5635 18.2424C10.1764 18.6294 9.54898 18.6294 9.16197 18.2424C8.77496 17.8553 8.77496 17.2279 9.16197 16.8409Z" fill="black"/>
<path d="M4.45725 11.1454C3.90993 11.1454 3.46625 11.5891 3.46625 12.1364C3.46625 12.6837 3.90993 13.1274 4.45725 13.1274H20.6736C21.221 13.1274 21.6646 12.6837 21.6646 12.1364C21.6646 11.5891 21.221 11.1454 20.6736 11.1454H4.45725Z" fill="black"/>
</g>
</svg>
