<svg width="25" height="25" viewBox="0 0 25 25" fill="none" xmlns="http://www.w3.org/2000/svg">
<mask id="mask0_17_464" style="mask-type:alpha" maskUnits="userSpaceOnUse" x="0" y="0" width="25" height="25">
<rect x="0.358887" y="0.923462" width="24" height="24" fill="#DCDCDC"/>
</mask>
<g mask="url(#mask0_17_464)">
<path fill-rule="evenodd" clip-rule="evenodd" d="M13.3591 3.52882C13.1799 3.15995 12.7893 2.92346 12.3591 2.92346C11.929 2.92346 11.5384 3.15995 11.3592 3.52882L5.85918 14.8496C5.60605 15.3706 5.84856 15.9865 6.40082 16.2253C6.95309 16.4641 7.60599 16.2353 7.85912 15.7143L9.39836 12.5461H15.3199L16.8592 15.7143C17.1123 16.2353 17.7652 16.4641 18.3175 16.2253C18.8697 15.9865 19.1122 15.3706 18.8591 14.8496L13.3591 3.52882ZM14.3116 10.4706H10.4067L12.3591 6.45184L14.3116 10.4706Z" fill="black"/>
<path d="M3.35888 18.0178C2.75137 18.0178 2.25888 18.4824 2.25888 19.0555C2.25888 19.6287 2.75137 20.0933 3.35888 20.0933H18.7032L17.5811 21.1519C17.1515 21.5572 17.1515 22.2143 17.5811 22.6195C18.0106 23.0248 18.7071 23.0248 19.1367 22.6195L22.1367 19.7893C22.4513 19.4925 22.5454 19.0462 22.3751 18.6584C22.2049 18.2706 21.8038 18.0178 21.3589 18.0178H3.35888Z" fill="black"/>
</g>
</svg>
