<svg width="25" height="25" viewBox="0 0 25 25" fill="none" xmlns="http://www.w3.org/2000/svg">
<mask id="mask0_17_553" style="mask-type:alpha" maskUnits="userSpaceOnUse" x="0" y="0" width="25" height="25">
<rect x="0.623962" y="0.136261" width="24" height="24" fill="#DCDCDC"/>
</mask>
<g mask="url(#mask0_17_553)">
<path d="M3.26753 3.19566C2.63595 3.19566 2.12396 3.70765 2.12396 4.33923C2.12396 4.9708 2.63595 5.48279 3.26753 5.48279H21.9804C22.612 5.48279 23.124 4.9708 23.124 4.33923C23.124 3.70765 22.612 3.19566 21.9804 3.19566H3.26753Z" fill="black"/>
<path d="M3.26753 8.39368C2.63595 8.39368 2.12396 8.90567 2.12396 9.53725C2.12396 10.1688 2.63595 10.6808 3.26753 10.6808H17.822C18.4536 10.6808 18.9655 10.1688 18.9655 9.53725C18.9655 8.90567 18.4536 8.39368 17.822 8.39368H3.26753Z" fill="black"/>
<path d="M2.12396 14.7353C2.12396 14.1037 2.63595 13.5917 3.26753 13.5917H21.9804C22.612 13.5917 23.124 14.1037 23.124 14.7353C23.124 15.3668 22.612 15.8788 21.9804 15.8788H3.26753C2.63595 15.8788 2.12396 15.3668 2.12396 14.7353Z" fill="black"/>
<path d="M3.26753 18.7897C2.63595 18.7897 2.12396 19.3017 2.12396 19.9333C2.12396 20.5649 2.63595 21.0769 3.26753 21.0769H17.822C18.4536 21.0769 18.9655 20.5649 18.9655 19.9333C18.9655 19.3017 18.4536 18.7897 17.822 18.7897H3.26753Z" fill="black"/>
</g>
</svg>
