<svg width="25" height="25" viewBox="0 0 25 25" fill="none" xmlns="http://www.w3.org/2000/svg">
<mask id="mask0_17_556" style="mask-type:alpha" maskUnits="userSpaceOnUse" x="0" y="0" width="25" height="25">
<rect x="0.295898" y="0.136261" width="24" height="24" fill="#DCDCDC"/>
</mask>
<g mask="url(#mask0_17_556)">
<path d="M13.385 3.22537C13.385 2.62387 12.8974 2.13626 12.2959 2.13626C11.6944 2.13626 11.2068 2.62387 11.2068 3.22537V11.9822L10.0957 10.8711C9.67039 10.4458 8.98081 10.4458 8.55548 10.8711C8.13016 11.2964 8.13016 11.986 8.55548 12.4113L11.5249 15.3808C11.5276 15.3834 11.5302 15.3861 11.5329 15.3887C11.6348 15.4888 11.7516 15.5648 11.8759 15.6167C12.0052 15.6708 12.1471 15.7006 12.2959 15.7006C12.593 15.7006 12.8624 15.5816 13.0589 15.3887C13.0616 15.3861 13.0642 15.3834 13.0669 15.3807L16.0363 12.4113C16.4616 11.986 16.4616 11.2964 16.0363 10.8711C15.611 10.4458 14.9214 10.4458 14.4961 10.8711L13.385 11.9822V3.22537Z" fill="black"/>
<path d="M3.38501 16.7098C2.78351 16.7098 2.2959 17.1974 2.2959 17.7989C2.2959 18.4004 2.78351 18.888 3.38501 18.888H21.2068C21.8083 18.888 22.2959 18.4004 22.2959 17.7989C22.2959 17.1974 21.8083 16.7098 21.2068 16.7098H3.38501Z" fill="black"/>
<path d="M3.38501 19.958C2.78351 19.958 2.2959 20.4457 2.2959 21.0472C2.2959 21.6486 2.78351 22.1363 3.38501 22.1363H21.2068C21.8083 22.1363 22.2959 21.6486 22.2959 21.0472C22.2959 20.4457 21.8083 19.958 21.2068 19.958H3.38501Z" fill="black"/>
</g>
</svg>
