<svg width="25" height="25" viewBox="0 0 25 25" fill="none" xmlns="http://www.w3.org/2000/svg">
<mask id="mask0_17_550" style="mask-type:alpha" maskUnits="userSpaceOnUse" x="0" y="0" width="25" height="25">
<rect x="0.632935" y="0.136261" width="24" height="24" fill="#DCDCDC"/>
</mask>
<g mask="url(#mask0_17_550)">
<path d="M3.2765 3.19568C2.64493 3.19568 2.13293 3.70767 2.13293 4.33924C2.13293 4.97082 2.64493 5.48281 3.2765 5.48281H21.9894C22.6209 5.48281 23.1329 4.97082 23.1329 4.33924C23.1329 3.70767 22.6209 3.19568 21.9894 3.19568H3.2765Z" fill="black"/>
<path d="M6.39531 8.3937C5.76374 8.3937 5.25175 8.90569 5.25175 9.53726C5.25175 10.1688 5.76374 10.6808 6.39531 10.6808H18.8706C19.5021 10.6808 20.0141 10.1688 20.0141 9.53726C20.0141 8.90569 19.5021 8.3937 18.8706 8.3937H6.39531Z" fill="black"/>
<path d="M2.13293 14.7353C2.13293 14.1037 2.64493 13.5917 3.2765 13.5917H21.9894C22.6209 13.5917 23.1329 14.1037 23.1329 14.7353C23.1329 15.3669 22.6209 15.8788 21.9894 15.8788H3.2765C2.64493 15.8788 2.13293 15.3669 2.13293 14.7353Z" fill="black"/>
<path d="M6.39531 18.7897C5.76374 18.7897 5.25175 19.3017 5.25175 19.9333C5.25175 20.5649 5.76374 21.0769 6.39531 21.0769H18.8706C19.5021 21.0769 20.0141 20.5649 20.0141 19.9333C20.0141 19.3017 19.5021 18.7897 18.8706 18.7897H6.39531Z" fill="black"/>
</g>
</svg>
