<svg width="25" height="25" viewBox="0 0 25 25" fill="none" xmlns="http://www.w3.org/2000/svg">
<mask id="mask0_17_441" style="mask-type:alpha" maskUnits="userSpaceOnUse" x="0" y="0" width="25" height="25">
<rect x="0.81311" y="0.774048" width="24" height="24" fill="#DCDCDC"/>
</mask>
<g mask="url(#mask0_17_441)">
<path d="M10.338 3.99237C10.338 3.31951 10.8835 2.77405 11.5563 2.77405H16.792C17.4648 2.77405 18.0103 3.31951 18.0103 3.99237C18.0103 4.66523 17.4648 5.21069 16.792 5.21069H15.3706L12.8207 20.3374H14.0699C14.7428 20.3374 15.2883 20.8829 15.2883 21.5557C15.2883 22.2286 14.7428 22.774 14.0699 22.774H8.83429C8.16143 22.774 7.61597 22.2286 7.61597 21.5557C7.61597 20.8829 8.16143 20.3374 8.83429 20.3374H10.3497L12.8996 5.21069H11.5563C10.8835 5.21069 10.338 4.66523 10.338 3.99237Z" fill="black"/>
</g>
</svg>
