<svg width="25" height="25" viewBox="0 0 25 25" fill="none" xmlns="http://www.w3.org/2000/svg">
<mask id="mask0_17_661" style="mask-type:alpha" maskUnits="userSpaceOnUse" x="0" y="0" width="25" height="25">
<rect x="0.339355" y="0.943726" width="24" height="24" fill="#D9D9D9"/>
</mask>
<g mask="url(#mask0_17_661)">
<path d="M4.30746 5.02399C4.30746 4.4875 4.74237 4.05258 5.27887 4.05258H5.28168C5.81817 4.05258 6.25309 4.4875 6.25309 5.02399V18.5182L7.24786 17.5235C7.62722 17.1441 8.24228 17.1441 8.62164 17.5235C9.001 17.9028 9.001 18.5179 8.62164 18.8972L5.96857 21.5503C5.78244 21.7364 5.53348 21.8352 5.28027 21.8349C5.02706 21.8352 4.7781 21.7364 4.59198 21.5503L1.93893 18.8972C1.55957 18.5179 1.55957 17.9028 1.93893 17.5235C2.31829 17.1441 2.93335 17.1441 3.31271 17.5235L4.30746 18.5182V5.02399Z" fill="black"/>
<path fill-rule="evenodd" clip-rule="evenodd" d="M22.4408 20.3749C21.9387 20.605 21.3452 20.3846 21.1151 19.8825L19.3895 16.1177H12.7013L10.9757 19.8825C10.7456 20.3846 10.1521 20.605 9.65 20.3749C9.14794 20.1448 8.92749 19.5513 9.1576 19.0492L15.1363 6.0047C15.2992 5.64925 15.6544 5.42136 16.0454 5.42136C16.4364 5.42136 16.7915 5.64925 16.9545 6.0047L22.9332 19.0492C23.1633 19.5513 22.9428 20.1448 22.4408 20.3749ZM13.6179 14.1177H18.4728L16.0454 8.82142L13.6179 14.1177Z" fill="black"/>
</g>
</svg>
