<svg width="16" height="16" viewBox="0 0 16 16" fill="none" xmlns="http://www.w3.org/2000/svg">
<path fill-rule="evenodd" clip-rule="evenodd" d="M8.29531 2.45703H11.0212C11.2769 1.63985 12.0399 1.04688 12.9414 1.04688C14.0525 1.04688 14.9532 1.94757 14.9532 3.05863C14.9532 4.16969 14.0525 5.07039 12.9414 5.07039C12.0388 5.07039 11.2749 4.47587 11.0202 3.65703H8.29531C8.0744 3.65703 7.89531 3.83612 7.89531 4.05703V7.39844H11.0212C11.2769 6.58125 12.0399 5.98828 12.9414 5.98828C14.0525 5.98828 14.9532 6.88898 14.9532 8.00004C14.9532 9.1111 14.0525 10.0118 12.9414 10.0118C12.0388 10.0118 11.2749 9.41728 11.0202 8.59844H7.89531V11.9393C7.89531 12.1602 8.0744 12.3393 8.29531 12.3393H11.0213C11.2773 11.5224 12.0401 10.9297 12.9414 10.9297C14.0525 10.9297 14.9532 11.8304 14.9532 12.9414C14.9532 14.0525 14.0525 14.9532 12.9414 14.9532C12.0386 14.9532 11.2746 14.3584 11.02 13.5393H8.29531C7.41166 13.5393 6.69531 12.823 6.69531 11.9393V8.59844H4.97989C4.72513 9.41728 3.96131 10.0118 3.05863 10.0118C1.94757 10.0118 1.04688 9.1111 1.04688 8.00004C1.04688 6.88898 1.94757 5.98828 3.05863 5.98828C3.96013 5.98828 4.72314 6.58125 4.97889 7.39844H6.69531V4.05703C6.69531 3.17338 7.41166 2.45703 8.29531 2.45703ZM3.86982 7.96953C3.85378 7.53535 3.49674 7.18828 3.05863 7.18828C2.61031 7.18828 2.24688 7.55172 2.24688 8.00004C2.24688 8.44836 2.61031 8.81179 3.05863 8.81179C3.49736 8.81179 3.85479 8.46375 3.86989 8.0287C3.86939 8.01867 3.86914 8.00859 3.86914 7.99844C3.86914 7.98875 3.86937 7.97911 3.86982 7.96953ZM12.9414 2.24688C12.5018 2.24688 12.1438 2.59636 12.1301 3.03266C12.1304 3.04074 12.1306 3.04887 12.1306 3.05703C12.1306 3.06565 12.1304 3.07423 12.13 3.08276C12.1428 3.51992 12.5012 3.87039 12.9414 3.87039C13.3898 3.87039 13.7532 3.50695 13.7532 3.05863C13.7532 2.61031 13.3898 2.24688 12.9414 2.24688ZM12.1305 12.9516C12.1304 12.9561 12.1302 12.9607 12.13 12.9653C12.1426 13.4026 12.5011 13.7532 12.9414 13.7532C13.3898 13.7532 13.7532 13.3898 13.7532 12.9414C13.7532 12.4931 13.3898 12.1297 12.9414 12.1297C12.5019 12.1297 12.144 12.479 12.1301 12.9152C12.1304 12.9232 12.1306 12.9312 12.1306 12.9393C12.1306 12.9434 12.1305 12.9475 12.1305 12.9516ZM12.9414 7.18828C12.4931 7.18828 12.1297 7.55172 12.1297 8.00004C12.1297 8.44836 12.4931 8.81179 12.9414 8.81179C13.3898 8.81179 13.7532 8.44836 13.7532 8.00004C13.7532 7.55172 13.3898 7.18828 12.9414 7.18828Z" fill="black"/>
</svg>
