<svg width="16" height="16" viewBox="0 0 16 16" fill="none" xmlns="http://www.w3.org/2000/svg">
<path fill-rule="evenodd" clip-rule="evenodd" d="M8.29678 2.45508H11.0226C11.2784 1.63789 12.0414 1.04492 12.9429 1.04492C14.054 1.04492 14.9547 1.94562 14.9547 3.05668C14.9547 4.16774 14.054 5.06843 12.9429 5.06843C12.0402 5.06843 11.2764 4.47392 11.0216 3.65508H8.29678C8.07586 3.65508 7.89678 3.83416 7.89678 4.05508V7.39648H11.0226C11.2784 6.5793 12.0414 5.98633 12.9429 5.98633C14.054 5.98633 14.9547 6.88702 14.9547 7.99808C14.9547 9.10915 14.054 10.0098 12.9429 10.0098C12.0402 10.0098 11.2764 9.41532 11.0216 8.59648H7.89678V11.9374C7.89678 12.1583 8.07586 12.3374 8.29678 12.3374H11.0228C11.2787 11.5205 12.0416 10.9277 12.9429 10.9277C14.054 10.9277 14.9547 11.8284 14.9547 12.9395C14.9547 14.0506 14.054 14.9512 12.9429 14.9512C12.04 14.9512 11.2761 14.3565 11.0215 13.5374H8.29678C7.41312 13.5374 6.69678 12.821 6.69678 11.9374V8.59648H4.98136C4.72659 9.41532 3.96277 10.0098 3.0601 10.0098C1.94903 10.0098 1.04834 9.10915 1.04834 7.99808C1.04834 6.88702 1.94903 5.98633 3.0601 5.98633C3.9616 5.98633 4.7246 6.5793 4.98036 7.39648H6.69678V4.05508C6.69678 3.17142 7.41312 2.45508 8.29678 2.45508ZM3.87129 7.96758C3.85525 7.53339 3.4982 7.18633 3.0601 7.18633C2.61178 7.18633 2.24834 7.54976 2.24834 7.99808C2.24834 8.4464 2.61178 8.80984 3.0601 8.80984C3.49882 8.80984 3.85626 8.46179 3.87136 8.02675C3.87086 8.01672 3.87061 8.00663 3.87061 7.99648C3.87061 7.98679 3.87084 7.97716 3.87129 7.96758ZM12.9429 2.24492C12.5033 2.24492 12.1453 2.5944 12.1316 3.03071C12.1319 3.03879 12.132 3.04691 12.132 3.05508C12.132 3.0637 12.1319 3.07228 12.1315 3.08081C12.1443 3.51797 12.5027 3.86843 12.9429 3.86843C13.3912 3.86843 13.7547 3.505 13.7547 3.05668C13.7547 2.60836 13.3912 2.24492 12.9429 2.24492ZM12.1319 12.9496C12.1318 12.9542 12.1317 12.9588 12.1315 12.9633C12.1441 13.4006 12.5026 13.7512 12.9429 13.7512C13.3912 13.7512 13.7547 13.3878 13.7547 12.9395C13.7547 12.4912 13.3912 12.1277 12.9429 12.1277C12.5034 12.1277 12.1454 12.4771 12.1316 12.9132C12.1319 12.9212 12.132 12.9293 12.132 12.9374C12.132 12.9415 12.132 12.9455 12.1319 12.9496ZM12.9429 7.18633C12.4946 7.18633 12.1312 7.54976 12.1312 7.99808C12.1312 8.4464 12.4946 8.80984 12.9429 8.80984C13.3912 8.80984 13.7547 8.4464 13.7547 7.99808C13.7547 7.54976 13.3912 7.18633 12.9429 7.18633Z" fill="black"/>
</svg>
