<svg width="16" height="16" viewBox="0 0 16 16" fill="none" xmlns="http://www.w3.org/2000/svg">
<path d="M12.0676 1.39844C11.2083 1.39844 10.48 1.959 10.2283 2.73438H7.73428C6.85062 2.73438 6.13428 3.45072 6.13428 4.33437V7.39844H4.57358C4.32074 6.62509 3.5934 6.06641 2.73558 6.06641C1.66783 6.06641 0.802246 6.93199 0.802246 7.99974C0.802246 9.06749 1.66783 9.93307 2.73558 9.93307C3.59436 9.93307 4.32237 9.37314 4.57443 8.59844H6.13428V11.6677C6.13428 12.5514 6.85062 13.2677 7.73428 13.2677H10.2292C10.4816 14.0417 11.2093 14.601 12.0676 14.601C13.1354 14.601 14.0009 13.7355 14.0009 12.6677C14.0009 11.6 13.1354 10.7344 12.0676 10.7344C11.2093 10.7344 10.4816 11.2937 10.2292 12.0677H7.73428C7.51336 12.0677 7.33428 11.8886 7.33428 11.6677V8.59844H10.2288C10.4808 9.37314 11.2088 9.93307 12.0676 9.93307C13.1354 9.93307 14.0009 9.06749 14.0009 7.99974C14.0009 6.93199 13.1354 6.06641 12.0676 6.06641C11.2098 6.06641 10.4825 6.62509 10.2296 7.39844H7.33428V4.33437C7.33428 4.11346 7.51336 3.93438 7.73428 3.93438H10.23C10.4833 4.70705 11.2103 5.2651 12.0676 5.2651C13.1354 5.2651 14.0009 4.39952 14.0009 3.33177C14.0009 2.26402 13.1354 1.39844 12.0676 1.39844Z" fill="black"/>
</svg>
