<svg width="25" height="25" viewBox="0 0 25 25" fill="none" xmlns="http://www.w3.org/2000/svg">
<mask id="mask0_17_565" style="mask-type:alpha" maskUnits="userSpaceOnUse" x="0" y="0" width="25" height="25">
<rect x="0.0263672" y="0.136261" width="24" height="24" fill="#DCDCDC"/>
</mask>
<g mask="url(#mask0_17_565)">
<path d="M3.23516 2.13626C3.90276 2.13626 4.44395 2.67746 4.44395 3.34505V20.9275C4.44395 21.5951 3.90276 22.1363 3.23516 22.1363C2.56756 22.1363 2.02637 21.5951 2.02637 20.9275V3.34505C2.02637 2.67746 2.56756 2.13626 3.23516 2.13626Z" fill="black"/>
<path d="M20.8176 2.13626C21.4852 2.13626 22.0264 2.67746 22.0264 3.34505V20.9275C22.0264 21.5951 21.4852 22.1363 20.8176 22.1363C20.15 22.1363 19.6088 21.5951 19.6088 20.9275V13.3496H9.857C9.18941 13.3496 8.64821 12.8084 8.64821 12.1408C8.64821 11.4732 9.18941 10.932 9.857 10.932H19.6088V3.34505C19.6088 2.67746 20.15 2.13626 20.8176 2.13626Z" fill="black"/>
</g>
</svg>
