<svg width="17" height="17" viewBox="0 0 17 17" fill="none" xmlns="http://www.w3.org/2000/svg">
<mask id="mask0_102_796" style="mask-type:alpha" maskUnits="userSpaceOnUse" x="0" y="0" width="17" height="17">
<rect x="0.39563" y="0.210205" width="15.9998" height="15.9998" fill="#DCDCDC"/>
</mask>
<g mask="url(#mask0_102_796)">
<path d="M2.44963 1.63696C2.82345 1.63696 3.12649 1.94 3.12649 2.31382V14.1746C3.12649 14.5484 2.82345 14.8514 2.44963 14.8514C2.07582 14.8514 1.77278 14.5484 1.77278 14.1746L1.77278 2.31382C1.77278 1.94 2.07582 1.63696 2.44963 1.63696Z" fill="black"/>
<path d="M14.3414 1.63696C14.7152 1.63696 15.0183 1.94 15.0183 2.31382V14.1746C15.0183 14.5484 14.7152 14.8514 14.3414 14.8514C13.9676 14.8514 13.6646 14.5484 13.6646 14.1746V8.94528H6.9855C6.61169 8.94528 6.30865 8.64224 6.30865 8.26843C6.30865 7.89461 6.61169 7.59158 6.9855 7.59158H13.6646V2.31382C13.6646 1.94 13.9676 1.63696 14.3414 1.63696Z" fill="black"/>
</g>
</svg>
