<svg width="16" height="16" viewBox="0 0 16 16" fill="none" xmlns="http://www.w3.org/2000/svg">
<mask id="mask0_102_796" style="mask-type:alpha" maskUnits="userSpaceOnUse" x="0" y="0" width="16" height="16">
<rect width="15.9998" height="15.9998" fill="#DCDCDC"/>
</mask>
<g mask="url(#mask0_102_796)">
<path d="M2.054 1.42676C2.42782 1.42676 2.73086 1.72979 2.73086 2.10361V13.9644C2.73086 14.3382 2.42782 14.6412 2.054 14.6412C1.68019 14.6412 1.37715 14.3382 1.37715 13.9644L1.37715 2.10361C1.37715 1.72979 1.68019 1.42676 2.054 1.42676Z" fill="black"/>
<path d="M13.9458 1.42676C14.3196 1.42676 14.6226 1.72979 14.6226 2.10361V13.9644C14.6226 14.3382 14.3196 14.6412 13.9458 14.6412C13.572 14.6412 13.2689 14.3382 13.2689 13.9644V8.73508H6.58987C6.21606 8.73508 5.91302 8.43204 5.91302 8.05822C5.91302 7.68441 6.21606 7.38137 6.58987 7.38137H13.2689V2.10361C13.2689 1.72979 13.572 1.42676 13.9458 1.42676Z" fill="black"/>
</g>
</svg>
