<svg width="16" height="16" viewBox="0 0 16 16" fill="none" xmlns="http://www.w3.org/2000/svg">
<path fill-rule="evenodd" clip-rule="evenodd" d="M12.8338 3.02955C12.5121 2.59828 12.1259 2.25975 11.6696 2.03611C11.1407 1.77686 10.555 1.69037 9.93323 1.75283C8.91752 1.85487 8.20561 2.42392 7.80147 3.25307C7.46737 3.93852 7.34764 4.78614 7.37878 5.68638C6.53109 5.99097 5.78343 5.80678 5.11152 5.37783C4.31613 4.87006 3.64891 4.02464 3.17622 3.25415C3.05043 3.04911 2.81434 2.93902 2.57642 2.97445C2.3385 3.00988 2.14473 3.18398 2.08414 3.41678C1.75023 4.69965 1.38547 6.38001 2.10485 8.24876L2.10485 8.24876C2.50165 9.27951 3.31312 10.1374 4.46145 10.8477C3.33964 11.326 2.45471 11.4602 1.77906 11.3314C1.48943 11.2762 1.20261 11.4396 1.10243 11.7169C1.00225 11.9942 1.11839 12.3032 1.37643 12.4459C1.39165 12.4543 1.40925 12.4641 1.42915 12.4752C1.82943 12.698 3.15958 13.4383 4.81073 13.8932C6.52834 14.3665 8.72423 14.5668 10.5913 13.4002C14.0368 11.2474 14.0127 7.59663 14.0014 5.88563C14.0012 5.84882 14.001 5.8129 14.0008 5.77792C14.0429 5.70748 14.0953 5.63137 14.1638 5.5336L14.1753 5.51726C14.2727 5.37845 14.3962 5.20237 14.5098 4.98715C14.7576 4.51796 14.9334 3.91442 14.9334 2.98131C14.9334 2.74295 14.7923 2.5272 14.5739 2.43164C14.3556 2.33608 14.1014 2.37884 13.9263 2.54058C13.4927 2.94111 13.1395 3.05972 12.8338 3.02955ZM11.1415 3.11364C10.842 2.96686 10.4861 2.90332 10.0532 2.94682C9.48685 3.00371 9.11834 3.29018 8.88016 3.77884C8.62509 4.30214 8.52011 5.06983 8.60055 6.01823C8.62123 6.26203 8.49181 6.49396 8.27347 6.60437C6.82924 7.33472 5.51476 7.05894 4.46581 6.38929C3.88754 6.02013 3.38528 5.53063 2.96523 5.02327C2.83434 5.90053 2.8444 6.82964 3.22474 7.81766C3.57789 8.73502 4.4584 9.59095 6.03101 10.3322C6.23562 10.4286 6.36861 10.6319 6.37496 10.858C6.38132 11.0842 6.25997 11.2946 6.0611 11.4024C5.30295 11.8133 4.5811 12.126 3.90073 12.3251C4.27733 12.4726 4.6914 12.6156 5.12946 12.7363C6.72706 13.1765 8.513 13.2838 9.95544 12.3825C12.8175 10.5943 12.8069 7.58972 12.8008 5.85296C12.8005 5.77562 12.8003 5.7008 12.8003 5.62871C12.8003 5.53927 12.8203 5.45096 12.8588 5.37024C12.9569 5.16464 13.0792 4.99022 13.1768 4.85103L13.1813 4.84471C13.2853 4.69632 13.371 4.57392 13.4487 4.42684C13.4926 4.34371 13.5362 4.24815 13.5756 4.13369C13.1701 4.26109 12.7447 4.27367 12.3067 4.1428C12.1711 4.10232 12.0543 4.01525 11.9767 3.89697C11.7234 3.51072 11.4422 3.26103 11.1415 3.11364Z" fill="black"/>
</svg>
