<svg width="16" height="16" viewBox="0 0 16 16" fill="none" xmlns="http://www.w3.org/2000/svg">
<mask id="mask0_102_668" style="mask-type:alpha" maskUnits="userSpaceOnUse" x="0" y="0" width="16" height="16">
<rect width="16" height="16" fill="#DCDCDC"/>
</mask>
<g mask="url(#mask0_102_668)">
<path d="M5.24805 1.93784C5.24805 1.58695 4.96359 1.30249 4.6127 1.30249C4.2618 1.30249 3.97734 1.58695 3.97734 1.93784V7.95524C3.97734 10.1769 5.77833 11.9778 7.99995 11.9778C10.2216 11.9778 12.0226 10.1769 12.0226 7.95524V1.93784C12.0226 1.58695 11.7381 1.30249 11.3872 1.30249C11.0363 1.30249 10.7519 1.58695 10.7519 1.93784V7.95524C10.7519 9.47507 9.51979 10.7071 7.99995 10.7071C6.48012 10.7071 5.24805 9.47507 5.24805 7.95524V1.93784Z" fill="black"/>
<path d="M2.72117 13.4268C2.37027 13.4268 2.08582 13.7113 2.08582 14.0622C2.08582 14.4131 2.37027 14.6975 2.72117 14.6975H13.2788C13.6297 14.6975 13.9142 14.4131 13.9142 14.0622C13.9142 13.7113 13.6297 13.4268 13.2788 13.4268H2.72117Z" fill="black"/>
</g>
</svg>
