<svg width="17" height="17" viewBox="0 0 17 17" fill="none" xmlns="http://www.w3.org/2000/svg">
<mask id="mask0_102_668" style="mask-type:alpha" maskUnits="userSpaceOnUse" x="0" y="0" width="17" height="17">
<rect x="0.069519" y="0.0600586" width="16" height="16" fill="#DCDCDC"/>
</mask>
<g mask="url(#mask0_102_668)">
<path d="M5.31757 1.99766C5.31757 1.64676 5.03311 1.3623 4.68221 1.3623C4.33132 1.3623 4.04686 1.64676 4.04686 1.99766V8.01505C4.04686 10.2367 5.84784 12.0377 8.06947 12.0377C10.2911 12.0377 12.0921 10.2367 12.0921 8.01505V1.99766C12.0921 1.64676 11.8076 1.3623 11.4567 1.3623C11.1058 1.3623 10.8214 1.64676 10.8214 1.99766V8.01505C10.8214 9.53489 9.58931 10.767 8.06947 10.767C6.54964 10.767 5.31757 9.53489 5.31757 8.01505V1.99766Z" fill="black"/>
<path d="M2.79069 13.4866C2.43979 13.4866 2.15533 13.7711 2.15533 14.122C2.15533 14.4729 2.43979 14.7573 2.79069 14.7573H13.3483C13.6992 14.7573 13.9837 14.4729 13.9837 14.122C13.9837 13.7711 13.6992 13.4866 13.3483 13.4866H2.79069Z" fill="black"/>
</g>
</svg>
