<svg width="25" height="25" viewBox="0 0 25 25" fill="none" xmlns="http://www.w3.org/2000/svg">
<mask id="mask0_17_444" style="mask-type:alpha" maskUnits="userSpaceOnUse" x="0" y="0" width="25" height="25">
<rect x="0.43103" y="0.836792" width="24" height="24" fill="#DCDCDC"/>
</mask>
<g mask="url(#mask0_17_444)">
<path d="M7.60096 3.95193C7.60096 3.33606 7.10169 2.83679 6.48582 2.83679C5.86994 2.83679 5.37067 3.33606 5.37067 3.95193V11.0031C5.37067 14.9024 8.53167 18.0634 12.431 18.0634C16.3303 18.0634 19.4913 14.9024 19.4913 11.0031V3.95193C19.4913 3.33606 18.992 2.83679 18.3761 2.83679C17.7602 2.83679 17.261 3.33606 17.261 3.95193V11.0031C17.261 13.6706 15.0985 15.8331 12.431 15.8331C9.76343 15.8331 7.60096 13.6706 7.60096 11.0031V3.95193Z" fill="black"/>
<path d="M4.92105 20.6065C4.30517 20.6065 3.80591 21.1058 3.80591 21.7217C3.80591 22.3375 4.30517 22.8368 4.92105 22.8368H19.941C20.5569 22.8368 21.0562 22.3375 21.0562 21.7217C21.0562 21.1058 20.5569 20.6065 19.941 20.6065H4.92105Z" fill="black"/>
</g>
</svg>
