<svg width="25" height="25" viewBox="0 0 25 25" fill="none" xmlns="http://www.w3.org/2000/svg">
<mask id="mask0_17_413" style="mask-type:alpha" maskUnits="userSpaceOnUse" x="0" y="0" width="25" height="25">
<rect x="0.618103" y="0.836792" width="24" height="24" fill="#DCDCDC"/>
</mask>
<g mask="url(#mask0_17_413)">
<path fill-rule="evenodd" clip-rule="evenodd" d="M3.33684 10.5455C2.94631 10.1725 2.94631 9.56775 3.33684 9.19476L9.7008 3.11653C10.0913 2.74354 10.7245 2.74354 11.115 3.11653C11.5055 3.48952 11.5055 4.09426 11.115 4.46725L6.45816 8.91501H14.9041C18.9293 8.91501 22.1923 12.0315 22.1923 15.8759C22.1923 19.7203 18.9293 22.8368 14.9041 22.8368H9.92915C9.40166 22.8368 8.97405 22.4092 8.97405 21.8817V21.8817C8.97405 21.3542 9.40166 20.9266 9.92915 20.9266H14.9041C17.8247 20.9266 20.1923 18.6653 20.1923 15.8759C20.1923 13.0865 17.8247 10.8252 14.9041 10.8252H6.45816L11.115 15.273C11.5055 15.646 11.5055 16.2507 11.115 16.6237C10.7245 16.9967 10.0913 16.9967 9.7008 16.6237L3.33684 10.5455Z" fill="black"/>
</g>
</svg>
