<svg width="16" height="16" viewBox="0 0 16 16" fill="none" xmlns="http://www.w3.org/2000/svg">
<mask id="mask0_102_656" style="mask-type:alpha" maskUnits="userSpaceOnUse" x="0" y="0" width="16" height="16">
<rect width="16" height="16" fill="#DCDCDC"/>
</mask>
<g mask="url(#mask0_102_656)">
<path fill-rule="evenodd" clip-rule="evenodd" d="M1.81245 6.47237C1.5521 6.22371 1.5521 5.82055 1.81245 5.57189L6.05509 1.51975C6.31544 1.27109 6.73755 1.27109 6.9979 1.51975C7.25825 1.76841 7.25825 2.17156 6.9979 2.42022L3.89333 5.3854H9.52398C12.2074 5.3854 14.3827 7.46307 14.3827 10.026C14.3827 12.5889 12.2074 14.6666 9.52398 14.6666H6.20732C5.85566 14.6666 5.57059 14.3815 5.57059 14.0299C5.57059 13.6782 5.85566 13.3931 6.20732 13.3931H9.52398C11.471 13.3931 13.0494 11.8856 13.0494 10.026C13.0494 8.16638 11.471 6.65887 9.52398 6.65887H3.89333L6.9979 9.62404C7.25825 9.8727 7.25825 10.2759 6.9979 10.5245C6.73755 10.7732 6.31544 10.7732 6.05509 10.5245L1.81245 6.47237Z" fill="black"/>
</g>
</svg>
