<svg width="17" height="17" viewBox="0 0 17 17" fill="none" xmlns="http://www.w3.org/2000/svg">
<mask id="mask0_102_656" style="mask-type:alpha" maskUnits="userSpaceOnUse" x="0" y="0" width="17" height="17">
<rect x="0.0695801" y="0.0600586" width="16" height="16" fill="#DCDCDC"/>
</mask>
<g mask="url(#mask0_102_656)">
<path fill-rule="evenodd" clip-rule="evenodd" d="M1.88203 6.53267C1.62168 6.28401 1.62168 5.88086 1.88203 5.6322L6.12467 1.58005C6.38502 1.33139 6.80713 1.33139 7.06748 1.58005C7.32783 1.82871 7.32783 2.23187 7.06748 2.48053L3.96291 5.4457H9.59356C12.277 5.4457 14.4523 7.52337 14.4523 10.0863C14.4523 12.6492 12.277 14.7269 9.59356 14.7269H6.2769C5.92524 14.7269 5.64017 14.4418 5.64017 14.0902V14.0902C5.64017 13.7385 5.92524 13.4534 6.2769 13.4534H9.59356C11.5406 13.4534 13.119 11.9459 13.119 10.0863C13.119 8.22668 11.5406 6.71917 9.59356 6.71917H3.96291L7.06748 9.68434C7.32783 9.933 7.32783 10.3362 7.06748 10.5848C6.80713 10.8335 6.38502 10.8335 6.12467 10.5848L1.88203 6.53267Z" fill="black"/>
</g>
</svg>
