<svg width="25" height="25" viewBox="0 0 25 25" fill="none" xmlns="http://www.w3.org/2000/svg">
<mask id="mask0_17_585" style="mask-type:alpha" maskUnits="userSpaceOnUse" x="0" y="0" width="25" height="25">
<rect x="0.339355" y="0.537476" width="24" height="24" fill="#DCDCDC"/>
</mask>
<g mask="url(#mask0_17_585)">
<path d="M6.33936 22.5375H4.33936C3.23479 22.5375 2.33936 21.642 2.33936 20.5375V18.5375H4.33936V20.5375L6.33936 20.5375V22.5375Z" fill="#999999"/>
<path d="M2.33936 10.5375H4.33936V14.5375H2.33936V10.5375Z" fill="#999999"/>
<path d="M10.3394 22.5375V20.5375H11.3394V16.5375H13.3394V20.5375H14.3394V22.5375H10.3394Z" fill="#999999"/>
<path d="M18.3394 22.5375V20.5375H20.3394V18.5375H22.3394V20.5375C22.3394 21.642 21.4439 22.5375 20.3394 22.5375H18.3394Z" fill="#999999"/>
<path d="M22.3394 14.5375H20.3394V13.5375H16.3394V11.5375H20.3394V10.5375H22.3394V14.5375Z" fill="#999999"/>
<path d="M11.3394 4.53748V8.53748H13.3394V4.53748H11.3394Z" fill="#999999"/>
<path d="M8.33936 13.5375H4.33936V11.5375H8.33936V13.5375Z" fill="#999999"/>
<path d="M2.33936 4.53748V6.53748H4.33936L4.33936 4.53748H20.3394V6.53748H22.3394V4.53748C22.3394 3.43291 21.4439 2.53748 20.3394 2.53748H4.33936C3.23479 2.53748 2.33936 3.43291 2.33936 4.53748Z" fill="black"/>
</g>
</svg>
