<svg width="16" height="16" viewBox="0 0 16 16" fill="none" xmlns="http://www.w3.org/2000/svg">
<path fill-rule="evenodd" clip-rule="evenodd" d="M8.76695 1.25762C8.36722 0.779361 7.63211 0.779358 7.23238 1.25762L5.20435 3.68406C4.6602 4.33512 5.12312 5.32537 5.97164 5.32537H6.25909V8.52405C6.25909 9.07633 6.7068 9.52405 7.25909 9.52405H8.74012C9.2924 9.52405 9.74012 9.07633 9.74012 8.52405V5.32537H10.0277C10.8762 5.32537 11.3391 4.33512 10.795 3.68406L8.76695 1.25762ZM6.39946 4.12537L7.99966 2.21079L9.59987 4.12537H9.54012C8.98783 4.12537 8.54012 4.57308 8.54012 5.12537V8.32405H7.45909V5.12537C7.45909 4.57308 7.01137 4.12537 6.45909 4.12537H6.39946Z" fill="black"/>
<path fill-rule="evenodd" clip-rule="evenodd" d="M5.07951 7.11286C5.3759 6.96467 5.49603 6.60426 5.34784 6.30788C5.19964 6.01149 4.83924 5.89136 4.54285 6.03955L1.35413 7.63391C1.15086 7.73554 1.02246 7.9433 1.02246 8.17057V11.1121C1.02246 11.4908 1.23646 11.8371 1.57525 12.0065L7.55269 14.9952C7.83422 15.136 8.16559 15.136 8.44712 14.9952L14.4246 12.0065C14.7633 11.8371 14.9773 11.4908 14.9773 11.1121V8.17057C14.9773 7.9433 14.8489 7.73554 14.6457 7.63391L11.457 6.03955C11.1606 5.89136 10.8002 6.01149 10.652 6.30788C10.5038 6.60426 10.6239 6.96467 10.9203 7.11286L13.0357 8.17057L7.9999 10.6885L2.9641 8.17057L5.07951 7.11286ZM8.44712 11.8065L13.7773 9.14139V10.9885L7.9999 13.8772L2.22246 10.9885V9.14139L7.55269 11.8065C7.83422 11.9473 8.16559 11.9473 8.44712 11.8065Z" fill="black"/>
</svg>
