<svg width="16" height="16" viewBox="0 0 16 16" fill="none" xmlns="http://www.w3.org/2000/svg">
<path fill-rule="evenodd" clip-rule="evenodd" d="M12.6772 1.13916L10.8775 1.1392C9.93861 1.13923 9.17753 1.90031 9.17751 2.83917L9.17744 5.89799L9.17725 5.91321L9.17743 5.9284L9.17734 10.0763L9.17725 10.087L9.17734 10.0978L9.17727 13.1612C9.17725 14.1001 9.93837 14.8612 10.8773 14.8612H12.6772C13.6161 14.8612 14.3772 14.1001 14.3772 13.1612L14.3772 10.0918L14.3772 10.087L14.3772 10.0822L14.3772 5.91983L14.3772 5.91321L14.3772 5.90657L14.3772 2.83915C14.3772 1.90025 13.6161 1.13914 12.6772 1.13916ZM13.1772 9.48703L13.1772 6.51321H10.3774L10.3774 9.48703H13.1772ZM10.3773 10.687L10.3773 13.1612C10.3773 13.4373 10.6011 13.6612 10.8773 13.6612H12.6772C12.9534 13.6612 13.1772 13.4373 13.1772 13.1612L13.1772 10.687H10.3773ZM10.3774 5.31321H13.1772L13.1772 2.83916C13.1772 2.56301 12.9533 2.33915 12.6772 2.33916L10.8775 2.3392C10.6014 2.33921 10.3775 2.56306 10.3775 2.83919L10.3774 5.31321Z" fill="black"/>
<path fill-rule="evenodd" clip-rule="evenodd" d="M5.12248 1.13918L3.32249 1.13927C2.38363 1.13931 1.62256 1.90043 1.62257 2.83928L1.62259 5.90665L1.62256 5.91321L1.62259 5.91977L1.62263 10.0778C1.62258 10.0808 1.62256 10.0839 1.62256 10.087C1.62256 10.0901 1.62258 10.0932 1.62263 10.0963L1.62265 13.1612C1.62266 14.1001 2.38378 14.8612 3.32265 14.8612H5.12256C6.06144 14.8612 6.82256 14.1001 6.82256 13.1612V2.83918C6.82256 1.90027 6.06139 1.13914 5.12248 1.13918ZM5.62256 10.687V13.1612C5.62256 13.4373 5.3987 13.6612 5.12256 13.6612H3.32265C3.04651 13.6612 2.82266 13.4373 2.82265 13.1612L2.82263 10.687H5.62256ZM5.62256 9.48703V6.51321H2.8226L2.82262 9.48703H5.62256ZM2.82259 5.31321H5.62256V2.83918C5.62256 2.56303 5.39869 2.33917 5.12254 2.33918L3.32254 2.33927C3.04641 2.33928 2.82257 2.56314 2.82257 2.83927L2.82259 5.31321Z" fill="black"/>
</svg>
