<svg width="17" height="17" viewBox="0 0 17 17" fill="none" xmlns="http://www.w3.org/2000/svg">
<mask id="mask0_102_799" style="mask-type:alpha" maskUnits="userSpaceOnUse" x="0" y="0" width="17" height="17">
<rect x="0.205078" y="0.556152" width="16" height="16" fill="#D9D9D9"/>
</mask>
<g mask="url(#mask0_102_799)">
<path d="M2.85036 3.27456C2.85036 2.9169 3.1403 2.62695 3.49796 2.62695H3.49984C3.8575 2.62695 4.14744 2.9169 4.14744 3.27456V12.2707L4.81063 11.6076C5.06353 11.3547 5.47357 11.3547 5.72648 11.6076C5.97939 11.8605 5.97939 12.2705 5.72648 12.5234L3.95777 14.2921C3.83368 14.4162 3.66771 14.482 3.4989 14.4818C3.33009 14.482 3.16412 14.4162 3.04004 14.2921L1.27134 12.5234C1.01844 12.2705 1.01844 11.8605 1.27134 11.6076C1.52425 11.3547 1.93429 11.3547 2.18719 11.6076L2.85036 12.2707V3.27456Z" fill="black"/>
<path fill-rule="evenodd" clip-rule="evenodd" d="M14.9392 13.5085C14.6045 13.6619 14.2088 13.515 14.0554 13.1803L12.9051 10.6704H8.44625L7.29587 13.1803C7.14246 13.515 6.74676 13.6619 6.41206 13.5085C6.07735 13.3551 5.93038 12.9594 6.08379 12.6247L10.0696 3.92837C10.1782 3.6914 10.415 3.53947 10.6757 3.53947C10.9363 3.53947 11.1731 3.6914 11.2817 3.92837L15.2675 12.6247C15.4209 12.9594 15.274 13.3551 14.9392 13.5085ZM9.05735 9.33704H12.2939L10.6757 5.80619L9.05735 9.33704Z" fill="black"/>
</g>
</svg>
