<svg width="16" height="16" viewBox="0 0 16 16" fill="none" xmlns="http://www.w3.org/2000/svg">
<mask id="mask0_102_834" style="mask-type:alpha" maskUnits="userSpaceOnUse" x="0" y="0" width="16" height="16">
<rect width="15.9997" height="15.9997" fill="#DCDCDC"/>
</mask>
<g mask="url(#mask0_102_834)">
<path d="M1.96316 7.33978C1.59868 7.33978 1.30322 7.63524 1.30322 7.99971C1.30322 8.36418 1.59868 8.65964 1.96316 8.65964H14.0367C14.4011 8.65964 14.6966 8.36418 14.6966 7.99971C14.6966 7.63524 14.4011 7.33978 14.0367 7.33978H1.96316Z" fill="black"/>
<path d="M8.65852 1.96233C8.65852 1.59859 8.36365 1.30371 7.9999 1.30371C7.63616 1.30371 7.34128 1.59859 7.34128 1.96233L7.34128 4.45623L6.66938 3.78433C6.41217 3.52712 5.99516 3.52712 5.73795 3.78433C5.48074 4.04154 5.48074 4.45855 5.73795 4.71576L7.53419 6.512C7.79139 6.76921 8.20841 6.76921 8.46562 6.512L10.2619 4.71576C10.5191 4.45855 10.5191 4.04154 10.2619 3.78433C10.0046 3.52712 9.58763 3.52712 9.33043 3.78433L8.65852 4.45623L8.65852 1.96233Z" fill="black"/>
<path d="M7.34128 14.0372C7.34128 14.401 7.63616 14.6959 7.9999 14.6959C8.36365 14.6959 8.65852 14.401 8.65852 14.0372L8.65852 11.5433L9.33042 12.2152C9.58763 12.4725 10.0046 12.4725 10.2619 12.2152C10.5191 11.958 10.5191 11.541 10.2619 11.2838L8.46562 9.48758C8.20841 9.23038 7.79139 9.23038 7.53419 9.48758L5.73795 11.2838C5.48074 11.541 5.48074 11.958 5.73795 12.2153C5.99516 12.4725 6.41217 12.4725 6.66938 12.2153L7.34128 11.5433L7.34128 14.0372Z" fill="black"/>
</g>
</svg>
