<svg width="17" height="17" viewBox="0 0 17 17" fill="none" xmlns="http://www.w3.org/2000/svg">
<mask id="mask0_102_709" style="mask-type:alpha" maskUnits="userSpaceOnUse" x="0" y="0" width="17" height="17">
<rect x="0.882446" y="0.236328" width="15.9998" height="15.9998" fill="#DCDCDC"/>
</mask>
<g mask="url(#mask0_102_709)">
<path fill-rule="evenodd" clip-rule="evenodd" d="M2.2157 2.90265C2.2157 2.16628 2.81264 1.56934 3.54901 1.56934H6.21565C6.95202 1.56934 7.54896 2.16628 7.54896 2.90265V13.5692C7.54896 14.3056 6.95202 14.9025 6.21565 14.9025H3.54901C2.81264 14.9025 2.2157 14.3056 2.2157 13.5692V2.90265ZM3.54901 2.90265H6.21565V5.5622H3.54901V2.90265ZM3.54901 6.89552V9.57631H6.21565V6.89552H3.54901ZM3.54901 13.5692V10.9096H6.21565V13.5692H3.54901Z" fill="black"/>
<path fill-rule="evenodd" clip-rule="evenodd" d="M10.2156 2.90265C10.2156 2.16628 10.8125 1.56934 11.5489 1.56934H14.2155C14.9519 1.56934 15.5489 2.16628 15.5489 2.90265V13.5692C15.5489 14.3056 14.9519 14.9025 14.2155 14.9025H11.5489C10.8125 14.9025 10.2156 14.3056 10.2156 13.5692V2.90265ZM11.5489 2.90265H14.2155V5.5622H11.5489V2.90265ZM11.5489 6.89552V9.57631H14.2155V6.89552H11.5489ZM11.5489 13.5692V10.9096H14.2155V13.5692H11.5489Z" fill="black"/>
</g>
</svg>
