<svg width="25" height="25" viewBox="0 0 25 25" fill="none" xmlns="http://www.w3.org/2000/svg">
<mask id="mask0_17_456" style="mask-type:alpha" maskUnits="userSpaceOnUse" x="0" y="0" width="25" height="25">
<rect x="0.610474" y="0.923462" width="24" height="24" fill="#DCDCDC"/>
</mask>
<g mask="url(#mask0_17_456)">
<path d="M13.6319 3.63379C13.478 3.21903 13.0788 2.92346 12.6105 2.92346C12.1421 2.92346 11.7427 3.21918 11.5889 3.6341L8.94017 6.28286C8.55351 6.66952 8.55351 7.29641 8.94017 7.68307C9.32682 8.06973 9.95372 8.06973 10.3404 7.68307L11.5214 6.50208V15.3987C11.5214 16.0002 12.009 16.4878 12.6105 16.4878C13.212 16.4878 13.6996 16.0002 13.6996 15.3987V6.50189L14.8808 7.68307C15.2674 8.06973 15.8943 8.06973 16.281 7.68307C16.6676 7.29641 16.6676 6.66952 16.281 6.28286L13.6319 3.63379Z" fill="black"/>
<path d="M3.69958 17.6174C3.09808 17.6174 2.61047 18.105 2.61047 18.7065C2.61047 19.308 3.09808 19.7956 3.69958 19.7956H21.5214C22.1229 19.7956 22.6105 19.308 22.6105 18.7065C22.6105 18.105 22.1229 17.6174 21.5214 17.6174H3.69958Z" fill="black"/>
<path d="M3.69958 20.7452C3.09808 20.7452 2.61047 21.2329 2.61047 21.8344C2.61047 22.4359 3.09808 22.9235 3.69958 22.9235H21.5214C22.1229 22.9235 22.6105 22.4359 22.6105 21.8344C22.6105 21.2329 22.1229 20.7452 21.5214 20.7452H3.69958Z" fill="black"/>
</g>
</svg>
