<svg width="17" height="17" viewBox="0 0 17 17" fill="none" xmlns="http://www.w3.org/2000/svg">
<mask id="mask0_102_834" style="mask-type:alpha" maskUnits="userSpaceOnUse" x="0" y="0" width="17" height="17">
<rect x="0.88269" y="0.210205" width="15.9997" height="15.9997" fill="#DCDCDC"/>
</mask>
<g mask="url(#mask0_102_834)">
<path d="M2.84585 7.55023C2.48138 7.55023 2.18591 7.84569 2.18591 8.21016C2.18591 8.57463 2.48138 8.87009 2.84585 8.87009H14.9194C15.2838 8.87009 15.5793 8.57463 15.5793 8.21016C15.5793 7.84569 15.2838 7.55023 14.9194 7.55023H2.84585Z" fill="black"/>
<path d="M9.54121 2.17278C9.54121 1.80903 9.24634 1.51416 8.88259 1.51416C8.51885 1.51416 8.22397 1.80903 8.22397 2.17278L8.22397 4.66668L7.55207 3.99478C7.29486 3.73757 6.87785 3.73757 6.62064 3.99478C6.36343 4.25199 6.36343 4.669 6.62064 4.92621L8.41688 6.72245C8.67409 6.97965 9.0911 6.97965 9.34831 6.72245L11.1445 4.92621C11.4018 4.669 11.4018 4.25199 11.1445 3.99478C10.8873 3.73757 10.4703 3.73757 10.2131 3.99478L9.54121 4.66668L9.54121 2.17278Z" fill="black"/>
<path d="M8.22397 14.2477C8.22397 14.6114 8.51885 14.9063 8.88259 14.9063C9.24634 14.9063 9.54121 14.6114 9.54121 14.2477L9.54121 11.7538L10.2131 12.4257C10.4703 12.6829 10.8873 12.6829 11.1445 12.4257C11.4018 12.1685 11.4018 11.7515 11.1445 11.4943L9.34831 9.69803C9.0911 9.44083 8.67408 9.44082 8.41688 9.69803L6.62064 11.4943C6.36343 11.7515 6.36343 12.1685 6.62064 12.4257C6.87785 12.6829 7.29486 12.6829 7.55207 12.4257L8.22397 11.7538L8.22397 14.2477Z" fill="black"/>
</g>
</svg>
