<svg width="16" height="16" viewBox="0 0 16 16" fill="none" xmlns="http://www.w3.org/2000/svg">
<mask id="mask0_102_799" style="mask-type:alpha" maskUnits="userSpaceOnUse" x="0" y="0" width="16" height="16">
<rect width="16" height="16" fill="#D9D9D9"/>
</mask>
<g mask="url(#mask0_102_799)">
<path d="M2.64534 2.71841C2.64534 2.36074 2.93528 2.0708 3.29295 2.0708H3.29482C3.65248 2.0708 3.94243 2.36074 3.94243 2.71841V11.7146L4.60561 11.0514C4.85851 10.7985 5.26856 10.7985 5.52146 11.0514C5.77437 11.3043 5.77437 11.7144 5.52146 11.9673L3.75275 13.736C3.62866 13.8601 3.46269 13.9259 3.29388 13.9257C3.12508 13.9259 2.9591 13.8601 2.83502 13.736L1.06632 11.9673C0.813418 11.7144 0.813418 11.3043 1.06632 11.0514C1.31923 10.7985 1.72927 10.7985 1.98218 11.0514L2.64534 11.7146V2.71841Z" fill="black"/>
<path fill-rule="evenodd" clip-rule="evenodd" d="M14.7342 12.9524C14.3995 13.1058 14.0038 12.9588 13.8504 12.6241L12.7 10.1142H8.24123L7.09085 12.6241C6.93744 12.9588 6.54175 13.1058 6.20704 12.9524C5.87233 12.799 5.72536 12.4033 5.87877 12.0686L9.86459 3.37222C9.9732 3.13525 10.21 2.98332 10.4706 2.98332C10.7313 2.98332 10.9681 3.13525 11.0767 3.37222L15.0625 12.0686C15.2159 12.4033 15.0689 12.799 14.7342 12.9524ZM8.85233 8.78089H12.0889L10.4706 5.25003L8.85233 8.78089Z" fill="black"/>
</g>
</svg>
