<svg width="16" height="16" viewBox="0 0 16 16" fill="none" xmlns="http://www.w3.org/2000/svg">
<mask id="mask0_208_112" style="mask-type:alpha" maskUnits="userSpaceOnUse" x="0" y="0" width="16" height="16">
<rect width="15.9998" height="15.9998" fill="#DCDCDC"/>
</mask>
<g mask="url(#mask0_208_112)">
<path fill-rule="evenodd" clip-rule="evenodd" d="M1.33325 2.66632C1.33325 1.92995 1.9302 1.33301 2.66657 1.33301H5.3332C6.06957 1.33301 6.66652 1.92995 6.66652 2.66632V13.3329C6.66652 14.0692 6.06957 14.6662 5.3332 14.6662H2.66657C1.9302 14.6662 1.33325 14.0692 1.33325 13.3329V2.66632ZM2.66657 2.66632H5.3332V5.32588H2.66657V2.66632ZM2.66657 6.65919V9.33999H5.3332V6.65919H2.66657ZM2.66657 13.3329V10.6733H5.3332V13.3329H2.66657Z" fill="black"/>
<path fill-rule="evenodd" clip-rule="evenodd" d="M9.33315 2.66632C9.33315 1.92995 9.9301 1.33301 10.6665 1.33301H13.3331C14.0695 1.33301 14.6664 1.92995 14.6664 2.66632V13.3329C14.6664 14.0692 14.0695 14.6662 13.3331 14.6662H10.6665C9.9301 14.6662 9.33315 14.0692 9.33315 13.3329V2.66632ZM10.6665 2.66632H13.3331V5.32588H10.6665V2.66632ZM10.6665 6.65919V9.33999H13.3331V6.65919H10.6665ZM10.6665 13.3329V10.6733H13.3331V13.3329H10.6665Z" fill="black"/>
</g>
</svg>
