<svg width="16" height="17" viewBox="0 0 16 17" fill="none" xmlns="http://www.w3.org/2000/svg">
<path fill-rule="evenodd" clip-rule="evenodd" d="M5.33331 9.54948C5.33331 8.07672 6.52722 6.88281 7.99998 6.88281C9.47274 6.88281 10.6666 8.07672 10.6666 9.54948C10.6666 11.0222 9.47274 12.2161 7.99998 12.2161C6.52722 12.2161 5.33331 11.0222 5.33331 9.54948ZM7.99998 8.21615C7.2636 8.21615 6.66665 8.8131 6.66665 9.54948C6.66665 10.2859 7.2636 10.8828 7.99998 10.8828C8.73636 10.8828 9.33331 10.2859 9.33331 9.54948C9.33331 8.8131 8.73636 8.21615 7.99998 8.21615Z" fill="black"/>
<path fill-rule="evenodd" clip-rule="evenodd" d="M8.66958 2.88273C8.66958 2.51454 8.3711 2.21606 8.00291 2.21606C7.63472 2.21606 7.33624 2.51454 7.33624 2.88273V4.24933C6.69648 4.31346 6.08562 4.46761 5.51599 4.68788L4.96311 3.91643C4.74863 3.61716 4.33216 3.54842 4.03289 3.7629C3.73362 3.97738 3.66488 4.39386 3.87936 4.69313L4.30524 5.28738C3.95132 5.50393 3.62264 5.74454 3.32358 6.00079C2.16525 6.99326 1.33331 8.32831 1.33331 9.5494C1.33331 10.7705 2.16525 12.1055 3.32358 13.098C4.50813 14.113 6.15722 14.8827 7.99998 14.8827C9.84261 14.8827 11.4917 14.1135 12.6763 13.0988C13.8348 12.1064 14.6666 10.7714 14.6666 9.5494C14.6666 8.32741 13.8348 6.99236 12.6763 6.00001C12.4565 5.81172 12.2207 5.63189 11.9707 5.46386L12.4169 4.8412C12.6314 4.54193 12.5626 4.12546 12.2634 3.91098C11.9641 3.6965 11.5476 3.76523 11.3332 4.0645L10.7946 4.81594C10.1402 4.52804 9.42506 4.32626 8.66958 4.2499V2.88273ZM4.19111 7.01329C3.17786 7.88146 2.66665 8.87976 2.66665 9.5494C2.66665 10.219 3.17786 11.2173 4.19111 12.0855C5.17813 12.9312 6.52904 13.5494 7.99998 13.5494C9.47105 13.5494 10.822 12.9316 11.8089 12.0862C12.822 11.2184 13.3333 10.2201 13.3333 9.5494C13.3333 8.87871 12.822 7.88044 11.8089 7.01262C10.822 6.16721 9.47105 5.5494 7.99998 5.5494C6.52904 5.5494 5.17813 6.16759 4.19111 7.01329Z" fill="black"/>
</svg>
