<svg width="16" height="16" viewBox="0 0 16 16" fill="none" xmlns="http://www.w3.org/2000/svg">
<path fill-rule="evenodd" clip-rule="evenodd" d="M1.93949 12.3363L1.94048 12.3357L1.95034 12.33C1.95981 12.3245 1.97499 12.3158 1.99548 12.3043C2.0365 12.2813 2.09866 12.2474 2.17888 12.2061C2.33971 12.1234 2.57112 12.0123 2.84885 11.9012C3.41339 11.6754 4.12822 11.4664 4.81552 11.4664C5.82167 11.4664 6.71309 11.8774 7.74399 12.3643C7.7595 12.3717 7.77504 12.379 7.79061 12.3864C8.77119 12.8497 9.88765 13.3772 11.185 13.3772C12.0901 13.3772 12.9676 13.1085 13.5973 12.8566C13.9167 12.7289 14.1829 12.6011 14.3704 12.5047C14.4644 12.4564 14.5391 12.4157 14.5914 12.3864C14.6175 12.3717 14.6381 12.3599 14.6527 12.3514L14.6702 12.3412L14.6755 12.3381L14.6772 12.337L14.6782 12.3365C14.6782 12.3365 14.6784 12.3363 14.3697 11.8218L14.6782 12.3365C14.9623 12.166 15.0547 11.7973 14.8842 11.5131C14.7138 11.2291 14.3454 11.1369 14.0613 11.3071L14.06 11.3079L14.0502 11.3137C14.0407 11.3192 14.0255 11.3279 14.005 11.3394C13.964 11.3623 13.9019 11.3963 13.8216 11.4375C13.6608 11.5202 13.4294 11.6314 13.1517 11.7424C12.5871 11.9683 11.8723 12.1772 11.185 12.1772C10.1788 12.1772 9.28742 11.7663 8.25652 11.2793C8.24101 11.272 8.22547 11.2646 8.2099 11.2573C7.22931 10.7939 6.11286 10.2664 4.81552 10.2664C3.91046 10.2664 3.03292 10.5351 2.40318 10.787C2.08377 10.9148 1.81757 11.0425 1.63007 11.139C1.53613 11.1873 1.46144 11.228 1.40916 11.2573C1.383 11.2719 1.36241 11.2837 1.34778 11.2922L1.33033 11.3024L1.32504 11.3056L1.32327 11.3066L1.32233 11.3072C1.32233 11.3072 1.32209 11.3073 1.63068 11.8217L1.32233 11.3072C1.03818 11.4777 0.945803 11.8464 1.11629 12.1305C1.28674 12.4146 1.65536 12.5066 1.93949 12.3363Z" fill="black"/>
<path fill-rule="evenodd" clip-rule="evenodd" d="M1.93949 8.51464L1.94048 8.51406L1.95034 8.50829C1.95981 8.50279 1.97499 8.49407 1.99548 8.4826C2.0365 8.45963 2.09866 8.4257 2.17888 8.38443C2.33971 8.30172 2.57112 8.19061 2.84885 8.07952C3.41339 7.85371 4.12822 7.64473 4.81552 7.64473C5.82167 7.64473 6.71309 8.05572 7.74399 8.54267C7.7595 8.54999 7.77504 8.55733 7.79061 8.56469C8.77119 9.02803 9.88765 9.55557 11.185 9.55557C12.0901 9.55557 12.9676 9.28684 13.5973 9.03494C13.9167 8.90718 14.1829 8.77943 14.3704 8.683C14.4644 8.63469 14.5391 8.59398 14.5914 8.5647C14.6175 8.55006 14.6381 8.53825 14.6527 8.52975L14.6702 8.51954L14.6755 8.51641L14.6772 8.51535L14.6782 8.51479C14.6782 8.51479 14.6784 8.51464 14.3697 8.00015L14.6782 8.51479C14.9623 8.3443 15.0547 7.9756 14.8842 7.69145C14.7138 7.4074 14.3454 7.31523 14.0613 7.48547L14.06 7.48623L14.0502 7.492C14.0407 7.4975 14.0255 7.50622 14.005 7.5177C13.964 7.54067 13.9019 7.5746 13.8216 7.61586C13.6608 7.69857 13.4294 7.80968 13.1517 7.92077C12.5871 8.14659 11.8723 8.35557 11.185 8.35557C10.1788 8.35557 9.28742 7.94457 8.25652 7.45762C8.24101 7.4503 8.22547 7.44296 8.2099 7.4356C7.22931 6.97226 6.11286 6.44473 4.81552 6.44473C3.91046 6.44473 3.03292 6.71346 2.40318 6.96535C2.08377 7.09311 1.81757 7.22086 1.63007 7.31729C1.53613 7.3656 1.46144 7.40631 1.40916 7.43559C1.383 7.45024 1.36241 7.46205 1.34778 7.47054L1.33033 7.48075L1.32504 7.48389L1.32327 7.48494L1.32233 7.48551C1.32233 7.48551 1.32209 7.48565 1.63068 7.99997L1.32233 7.48551C1.03818 7.656 0.945803 8.0247 1.11629 8.30884C1.28674 8.59292 1.65536 8.68496 1.93949 8.51464Z" fill="black"/>
<path fill-rule="evenodd" clip-rule="evenodd" d="M1.93949 4.69296L1.94048 4.69238L1.95034 4.68661C1.95981 4.68111 1.97499 4.67239 1.99548 4.66092C2.0365 4.63795 2.09866 4.60402 2.17888 4.56276C2.33971 4.48004 2.57112 4.36893 2.84885 4.25784C3.41339 4.03203 4.12822 3.82305 4.81552 3.82305C5.82167 3.82305 6.71309 4.23404 7.74399 4.72099C7.7595 4.72831 7.77504 4.73566 7.79061 4.74301C8.77119 5.20635 9.88765 5.73389 11.185 5.73389C12.0901 5.73389 12.9676 5.46516 13.5973 5.21326C13.9167 5.0855 14.1829 4.95775 14.3704 4.86132C14.4644 4.81301 14.5391 4.7723 14.5914 4.74302C14.6175 4.72838 14.6381 4.71657 14.6527 4.70807L14.6702 4.69786L14.6755 4.69473L14.6772 4.69367L14.6782 4.69311C14.6782 4.69311 14.6784 4.69296 14.3697 4.17847L14.6782 4.69311C14.9623 4.52262 15.0547 4.15392 14.8842 3.86977C14.7138 3.58572 14.3454 3.49355 14.0613 3.66379L14.06 3.66455L14.0502 3.67032C14.0407 3.67582 14.0255 3.68454 14.005 3.69602C13.964 3.71899 13.9019 3.75292 13.8216 3.79418C13.6608 3.87689 13.4294 3.988 13.1517 4.09909C12.5871 4.32491 11.8723 4.53389 11.185 4.53389C10.1788 4.53389 9.28742 4.12289 8.25652 3.63594C8.24101 3.62862 8.22547 3.62128 8.2099 3.61392C7.22931 3.15058 6.11286 2.62305 4.81552 2.62305C3.91046 2.62305 3.03292 2.89178 2.40318 3.14367C2.08377 3.27143 1.81757 3.39918 1.63007 3.49561C1.53613 3.54392 1.46144 3.58463 1.40916 3.61391C1.383 3.62856 1.36241 3.64037 1.34778 3.64886L1.33033 3.65907L1.32504 3.66221L1.32327 3.66326L1.32233 3.66383C1.32233 3.66383 1.32209 3.66397 1.63068 4.17829L1.32233 3.66383C1.03818 3.83432 0.945803 4.20302 1.11629 4.48716C1.28674 4.77124 1.65536 4.86329 1.93949 4.69296Z" fill="black"/>
</svg>
