<svg width="16" height="16" viewBox="0 0 16 16" fill="none" xmlns="http://www.w3.org/2000/svg">
<path fill-rule="evenodd" clip-rule="evenodd" d="M12.6998 2.0999H3.2998C2.85798 2.0999 2.4998 2.45807 2.4998 2.8999V13.0999C2.4998 13.5417 2.85798 13.8999 3.29981 13.8999H12.6998C13.1416 13.8999 13.4998 13.5417 13.4998 13.0999V2.8999C13.4998 2.45808 13.1416 2.0999 12.6998 2.0999ZM3.2998 0.899902C2.19524 0.899902 1.2998 1.79533 1.2998 2.8999V13.0999C1.2998 14.2045 2.19524 15.0999 3.29981 15.0999H12.6998C13.8044 15.0999 14.6998 14.2045 14.6998 13.0999V2.8999C14.6998 1.79533 13.8044 0.899902 12.6998 0.899902H3.2998Z" fill="black"/>
<path fill-rule="evenodd" clip-rule="evenodd" d="M6.59054 5.90887C6.82485 6.14319 6.82485 6.52309 6.59054 6.7574L5.94814 7.3998H10.0511L9.40868 6.7574C9.17437 6.52309 9.17437 6.14319 9.40868 5.90887C9.64299 5.67456 10.0229 5.67456 10.2572 5.90887L11.9239 7.57554C12.1582 7.80986 12.1582 8.18975 11.9239 8.42407L10.2572 10.0907C10.0229 10.3251 9.64299 10.3251 9.40868 10.0907C9.17437 9.85642 9.17436 9.47652 9.40868 9.24221L10.0511 8.5998H5.94814L6.59054 9.24221C6.82485 9.47652 6.82485 9.85642 6.59054 10.0907C6.35623 10.3251 5.97633 10.3251 5.74201 10.0907L4.07534 8.42407C3.96282 8.31155 3.89961 8.15893 3.89961 7.9998C3.89961 7.84067 3.96282 7.68806 4.07534 7.57554L5.74201 5.90887C5.97633 5.67456 6.35622 5.67456 6.59054 5.90887Z" fill="black"/>
</svg>
