<svg width="25" height="25" viewBox="0 0 25 25" fill="none" xmlns="http://www.w3.org/2000/svg">
<mask id="mask0_17_460" style="mask-type:alpha" maskUnits="userSpaceOnUse" x="0" y="0" width="25" height="25">
<rect x="0.741028" y="0.923462" width="24" height="24" fill="#DCDCDC"/>
</mask>
<g mask="url(#mask0_17_460)">
<path d="M4.07772 2.92346C4.69137 2.92346 5.18884 3.42092 5.18884 4.03457V21.8124C5.18884 22.426 4.69137 22.9235 4.07772 22.9235C3.46408 22.9235 2.96661 22.426 2.96661 21.8124V4.03457C2.96661 3.42092 3.46408 2.92346 4.07772 2.92346Z" fill="black"/>
<path d="M21.4043 2.92346C22.018 2.92346 22.5154 3.42092 22.5154 4.03457V21.8124C22.5154 22.426 22.018 22.9235 21.4043 22.9235C20.7907 22.9235 20.2932 22.426 20.2932 21.8124V4.03457C20.2932 3.42092 20.7907 2.92346 21.4043 2.92346Z" fill="black"/>
<path d="M6.99518 7.93244C6.99518 7.31879 7.49264 6.82133 8.10629 6.82133H13.4509C16.2319 6.82133 18.4864 9.0758 18.4864 11.8568C18.4864 14.6379 16.2319 16.8923 13.4509 16.8923H11.4842L13.1614 18.5695C13.5953 19.0035 13.5953 19.707 13.1614 20.1409C12.7275 20.5748 12.024 20.5748 11.5901 20.1409L7.92944 16.4803C7.49552 16.0463 7.49552 15.3428 7.92944 14.9089L11.5901 11.2483C12.024 10.8144 12.7275 10.8144 13.1614 11.2483C13.5953 11.6822 13.5953 12.3857 13.1614 12.8196L11.3109 14.6701H13.4509C15.0046 14.6701 16.2641 13.4106 16.2641 11.8568C16.2641 10.3031 15.0046 9.04355 13.4509 9.04355H8.10629C7.49264 9.04355 6.99518 8.54609 6.99518 7.93244Z" fill="black"/>
</g>
</svg>
