<svg width="17" height="16" viewBox="0 0 17 16" fill="none" xmlns="http://www.w3.org/2000/svg">
<path fill-rule="evenodd" clip-rule="evenodd" d="M12.6551 1.98906C11.7476 1.08113 10.2757 1.08149 9.3686 1.98987L4.82542 6.53955C4.75087 6.61421 4.69336 6.70411 4.65682 6.80309L3.2461 10.625C3.16506 10.8446 3.21909 11.0912 3.3845 11.2568C3.54991 11.4224 3.79651 11.4767 4.01616 11.3959L7.85031 9.98517C7.94979 9.94856 8.04014 9.89077 8.11508 9.81579L12.6552 5.27327C13.5618 4.36621 13.5618 2.89607 12.6551 1.98906ZM10.2177 2.83779C10.6562 2.39869 11.3677 2.39851 11.8064 2.8374C12.2447 3.27584 12.2447 3.9865 11.8065 4.42497L7.3392 8.89457L4.82213 9.82068L5.74706 7.31487L10.2177 2.83779Z" fill="black"/>
<path d="M1.79238 13.2999C1.46101 13.2999 1.19238 13.5685 1.19238 13.8999C1.19238 14.2313 1.46101 14.4999 1.79238 14.4999H14.4924C14.8238 14.4999 15.0924 14.2313 15.0924 13.8999C15.0924 13.5685 14.8238 13.2999 14.4924 13.2999H1.79238Z" fill="black"/>
</svg>
