<svg width="16" height="16" viewBox="0 0 16 16" fill="none" xmlns="http://www.w3.org/2000/svg">
<path fill-rule="evenodd" clip-rule="evenodd" d="M10.2312 1.3335C10.4081 1.33346 10.5777 1.40374 10.7028 1.52886L13.1378 3.96489C13.398 4.22522 13.398 4.64717 13.1378 4.9075L6.2435 11.8048C6.11847 11.9299 5.94885 12.0002 5.77199 12.0002H3.33293C2.96474 12.0002 2.66626 11.7017 2.66626 11.3335V8.9068C2.66626 8.73012 2.73639 8.56067 2.86124 8.43567L9.75961 1.52904C9.88462 1.40387 10.0543 1.33353 10.2312 1.3335ZM10.2315 2.94336L3.99959 9.1827V10.6668H5.49576L11.7237 4.4362L10.2315 2.94336ZM1.33301 14.0002C1.33301 13.632 1.63148 13.3335 1.99967 13.3335H13.9997C14.3679 13.3335 14.6663 13.632 14.6663 14.0002C14.6663 14.3684 14.3679 14.6668 13.9997 14.6668H1.99967C1.63148 14.6668 1.33301 14.3684 1.33301 14.0002Z" fill="black"/>
</svg>
