<svg width="17" height="17" viewBox="0 0 17 17" fill="none" xmlns="http://www.w3.org/2000/svg">
<mask id="mask0_102_1192" style="mask-type:alpha" maskUnits="userSpaceOnUse" x="0" y="0" width="17" height="17">
<rect x="0.622559" y="0.541504" width="16" height="16" fill="#DCDCDC"/>
</mask>
<g mask="url(#mask0_102_1192)">
<path fill-rule="evenodd" clip-rule="evenodd" d="M12.1213 12.3461L13.7607 10.7067C13.8857 10.5817 13.9559 10.4121 13.9559 10.2353L13.9559 5.20801C13.9559 4.83982 13.6574 4.54134 13.2892 4.54134L3.95591 4.54134C3.58772 4.54134 3.28925 4.83982 3.28925 5.20801L3.28925 11.8747C3.28925 12.2429 3.58772 12.5413 3.95591 12.5413L11.6499 12.5413C11.8267 12.5413 11.9963 12.4711 12.1213 12.3461ZM13.0641 13.2889C12.689 13.664 12.1803 13.8747 11.6499 13.8747L3.95591 13.8747C2.85134 13.8747 1.95591 12.9792 1.95591 11.8747L1.95591 5.20801C1.95591 4.10344 2.85134 3.20801 3.95591 3.20801L13.2892 3.20801C14.3938 3.20801 15.2892 4.10344 15.2892 5.20801L15.2892 10.2353C15.2892 10.7657 15.0785 11.2744 14.7035 11.6495L13.0641 13.2889Z" fill="black"/>
<path fill-rule="evenodd" clip-rule="evenodd" d="M12.6225 7.875L13.9558 7.875L13.9558 9.20833L12.6225 9.20833L12.6225 7.875ZM7.28914 7.875L9.95581 7.875L9.95581 9.20833L7.28914 9.20833L7.28914 7.875ZM3.28914 7.875L4.62248 7.875L4.62248 9.20833L3.28914 9.20833L3.28914 7.875Z" fill="#E5E5E5"/>
</g>
</svg>
