<svg width="16" height="16" viewBox="0 0 16 16" fill="none" xmlns="http://www.w3.org/2000/svg">
<mask id="mask0_102_1187" style="mask-type:alpha" maskUnits="userSpaceOnUse" x="0" y="0" width="16" height="16">
<rect width="16" height="16" fill="#DCDCDC"/>
</mask>
<g mask="url(#mask0_102_1187)">
<path fill-rule="evenodd" clip-rule="evenodd" d="M11.8048 4.5012L10.1654 2.86184C10.0404 2.73682 9.87085 2.66659 9.69404 2.66659H4.66675C4.29856 2.66659 4.00008 2.96506 4.00008 3.33325V12.6666C4.00008 13.0348 4.29856 13.3333 4.66675 13.3333H11.3334C11.7016 13.3333 12.0001 13.0348 12.0001 12.6666V4.97261C12.0001 4.7958 11.9298 4.62623 11.8048 4.5012ZM12.7476 3.55839C13.1227 3.93346 13.3334 4.44217 13.3334 4.97261V12.6666C13.3334 13.7712 12.438 14.6666 11.3334 14.6666H4.66675C3.56218 14.6666 2.66675 13.7712 2.66675 12.6666V3.33325C2.66675 2.22868 3.56218 1.33325 4.66675 1.33325H9.69404C10.2245 1.33325 10.7332 1.54396 11.1082 1.91903L12.7476 3.55839Z" fill="black"/>
<path fill-rule="evenodd" clip-rule="evenodd" d="M7.33325 3.99984V2.6665H8.66659V3.99984H7.33325ZM7.33325 9.33317V6.6665H8.66659V9.33317H7.33325ZM7.33325 13.3332V11.9998H8.66659V13.3332H7.33325Z" fill="#E5E5E5"/>
</g>
</svg>
