<svg width="17" height="17" viewBox="0 0 17 17" fill="none" xmlns="http://www.w3.org/2000/svg">
<mask id="mask0_102_1187" style="mask-type:alpha" maskUnits="userSpaceOnUse" x="0" y="0" width="17" height="17">
<rect x="0.622559" y="0.541504" width="16" height="16" fill="#DCDCDC"/>
</mask>
<g mask="url(#mask0_102_1187)">
<path fill-rule="evenodd" clip-rule="evenodd" d="M12.4274 5.04295L10.788 3.40359C10.663 3.27857 10.4934 3.20833 10.3166 3.20833H5.28931C4.92112 3.20833 4.62264 3.50681 4.62264 3.875V13.2083C4.62264 13.5765 4.92112 13.875 5.28931 13.875H11.956C12.3242 13.875 12.6226 13.5765 12.6226 13.2083V5.51436C12.6226 5.33754 12.5524 5.16797 12.4274 5.04295ZM13.3702 4.10014C13.7453 4.47521 13.956 4.98392 13.956 5.51436V13.2083C13.956 14.3129 13.0605 15.2083 11.956 15.2083H5.28931C4.18474 15.2083 3.28931 14.3129 3.28931 13.2083V3.875C3.28931 2.77043 4.18474 1.875 5.28931 1.875H10.3166C10.847 1.875 11.3557 2.08571 11.7308 2.46078L13.3702 4.10014Z" fill="black"/>
<path fill-rule="evenodd" clip-rule="evenodd" d="M7.95581 4.54134V3.20801H9.28914V4.54134H7.95581ZM7.95581 9.87467V7.20801H9.28914V9.87467H7.95581ZM7.95581 13.8747V12.5413H9.28914V13.8747H7.95581Z" fill="#E5E5E5"/>
</g>
</svg>
