<svg width="17" height="17" viewBox="0 0 17 17" fill="none" xmlns="http://www.w3.org/2000/svg">
<mask id="mask0_251_23" style="mask-type:alpha" maskUnits="userSpaceOnUse" x="0" y="0" width="17" height="17">
<rect x="0.571411" y="0.359375" width="16" height="16" fill="#D9D9D9"/>
</mask>
<g mask="url(#mask0_251_23)">
<path fill-rule="evenodd" clip-rule="evenodd" d="M8.57141 13.8594C11.609 13.8594 14.0714 11.3969 14.0714 8.35938C14.0714 5.32181 11.609 2.85938 8.57141 2.85938C5.53384 2.85938 3.07141 5.32181 3.07141 8.35938C3.07141 11.3969 5.53384 13.8594 8.57141 13.8594ZM8.57141 14.8594C12.1613 14.8594 15.0714 11.9492 15.0714 8.35938C15.0714 4.76952 12.1613 1.85938 8.57141 1.85938C4.98156 1.85938 2.07141 4.76952 2.07141 8.35938C2.07141 11.9492 4.98156 14.8594 8.57141 14.8594Z" fill="black"/>
<path fill-rule="evenodd" clip-rule="evenodd" d="M8.57141 13.8594C11.609 13.8594 14.0714 11.3969 14.0714 8.35938C14.0714 5.32181 11.609 2.85938 8.57141 2.85938C5.53384 2.85938 3.07141 5.32181 3.07141 8.35938C3.07141 11.3969 5.53384 13.8594 8.57141 13.8594Z" fill="#E5E5E5"/>
</g>
</svg>
