<svg width="17" height="17" viewBox="0 0 17 17" fill="none" xmlns="http://www.w3.org/2000/svg">
<path fill-rule="evenodd" clip-rule="evenodd" d="M13.4103 3.10742H4.41028C3.85799 3.10742 3.41028 3.55514 3.41028 4.10742V13.1074C3.41028 13.6597 3.85799 14.1074 4.41028 14.1074H13.4103C13.9626 14.1074 14.4103 13.6597 14.4103 13.1074V4.10742C14.4103 3.55514 13.9626 3.10742 13.4103 3.10742ZM4.41028 2.10742C3.30571 2.10742 2.41028 3.00285 2.41028 4.10742V13.1074C2.41028 14.212 3.30571 15.1074 4.41028 15.1074H13.4103C14.5148 15.1074 15.4103 14.212 15.4103 13.1074V4.10742C15.4103 3.00285 14.5148 2.10742 13.4103 2.10742H4.41028Z" fill="black"/>
<path fill-rule="evenodd" clip-rule="evenodd" d="M13.4103 3.10742H4.41028C3.85799 3.10742 3.41028 3.55514 3.41028 4.10742V13.1074C3.41028 13.6597 3.85799 14.1074 4.41028 14.1074H13.4103C13.9626 14.1074 14.4103 13.6597 14.4103 13.1074V4.10742C14.4103 3.55514 13.9626 3.10742 13.4103 3.10742Z" fill="#E5E5E5"/>
</svg>
