<svg width="16" height="17" viewBox="0 0 16 17" fill="none" xmlns="http://www.w3.org/2000/svg">
<g clip-path="url(#clip0_1118_3)">
<path d="M13.5464 2.9165L12.474 1.84407C12.1353 1.50541 11.6556 1.30785 11.204 1.30785C10.7525 1.30785 10.2727 1.50541 9.93403 1.84407L3.28325 8.49485L2.94459 11.7122C2.88815 12.1073 3.19859 12.4459 3.59369 12.4459C3.62191 12.4459 3.65013 12.4459 3.67835 12.4459L6.89562 12.1073L13.5464 5.45647C14.2519 4.75093 14.2519 3.62205 13.5464 2.9165ZM6.27475 10.8091L4.3839 11.0066L4.58145 9.11574L7.78919 5.8798L8.66406 5.00492L10.3856 6.72646L9.51071 7.60134L6.27475 10.8091ZM12.5869 4.49693L11.3451 5.76692L9.6236 4.04538L10.8936 2.80361C11.0065 2.69073 11.1476 2.6625 11.204 2.6625C11.2605 2.6625 11.4016 2.69073 11.5144 2.80361L12.5869 3.87605C12.7562 4.04538 12.7562 4.3276 12.5869 4.49693Z" fill="url(#paint0_linear_1118_3)"/>
<path d="M13.3333 8.03707C13.3333 7.66888 13.6318 7.3704 14 7.3704C14.3681 7.3704 14.6666 7.66888 14.6666 8.03707C14.6666 8.40526 14.3681 8.70374 14 8.70374C13.6318 8.70374 13.3333 8.40526 13.3333 8.03707Z" fill="url(#paint1_linear_1118_3)"/>
<path d="M13.1018 15.0283C12.9912 15.4845 12.3423 15.4845 12.2316 15.0283L11.9272 13.7729C11.8877 13.61 11.7605 13.4828 11.5976 13.4433L10.3422 13.1389C9.88598 13.0283 9.88598 12.3794 10.3422 12.2687L11.5976 11.9643C11.7605 11.9248 11.8877 11.7976 11.9272 11.6347L12.2316 10.3793C12.3423 9.92309 12.9912 9.92309 13.1018 10.3793L13.4062 11.6347C13.4457 11.7976 13.5729 11.9248 13.7358 11.9643L14.9912 12.2687C15.4474 12.3794 15.4474 13.0283 14.9912 13.1389L13.7358 13.4433C13.5729 13.4828 13.4457 13.61 13.4062 13.7729L13.1018 15.0283Z" fill="url(#paint2_linear_1118_3)"/>
<path fill-rule="evenodd" clip-rule="evenodd" d="M12.2316 15.0283C12.3423 15.4845 12.9912 15.4845 13.1018 15.0283L13.4062 13.7729C13.4457 13.61 13.5729 13.4828 13.7358 13.4433L14.9912 13.1389C15.4474 13.0283 15.4474 12.3794 14.9912 12.2687L13.7358 11.9643C13.5729 11.9248 13.4457 11.7976 13.4062 11.6347L13.1018 10.3793C12.9912 9.92309 12.3423 9.92309 12.2316 10.3793L11.9272 11.6347C11.8877 11.7976 11.7605 11.9248 11.5976 11.9643L10.3422 12.2687C9.88598 12.3794 9.88598 13.0283 10.3422 13.1389L11.5976 13.4433C11.7605 13.4828 11.8877 13.61 11.9272 13.7729L12.2316 15.0283Z" fill="url(#paint3_linear_1118_3)"/>
<path d="M7.33329 14.7038C7.33329 14.3356 7.63177 14.0372 7.99996 14.0372C8.36815 14.0372 8.66663 14.3356 8.66663 14.7038C8.66663 15.072 8.36815 15.3705 7.99996 15.3705C7.63177 15.3705 7.33329 15.072 7.33329 14.7038Z" fill="url(#paint4_linear_1118_3)"/>
<path d="M0.666667 14.7038C0.666667 14.3356 0.965143 14.0372 1.33333 14.0372C1.70152 14.0372 2 14.3356 2 14.7038C2 15.072 1.70152 15.3705 1.33333 15.3705C0.965143 15.3705 0.666667 15.072 0.666667 14.7038Z" fill="url(#paint5_linear_1118_3)"/>
<path d="M2.99294 4.44709C2.90996 4.78928 2.42329 4.78928 2.34032 4.44709L2.112 3.50554C2.08238 3.38337 1.98699 3.28798 1.86482 3.25836L0.923267 3.03005C0.581079 2.94707 0.581078 2.4604 0.923266 2.37743L1.86482 2.14911C1.98699 2.11949 2.08238 2.0241 2.112 1.90193L2.34032 0.960377C2.42329 0.618189 2.90996 0.618188 2.99294 0.960376L3.22125 1.90193C3.25087 2.0241 3.34626 2.11949 3.46843 2.14911L4.40998 2.37743C4.75217 2.4604 4.75217 2.94707 4.40999 3.03005L3.46843 3.25836C3.34626 3.28798 3.25087 3.38337 3.22125 3.50554L2.99294 4.44709Z" fill="url(#paint6_linear_1118_3)"/>
<path fill-rule="evenodd" clip-rule="evenodd" d="M2.34032 4.44709C2.42329 4.78928 2.90996 4.78928 2.99294 4.44709L3.22125 3.50554C3.25087 3.38337 3.34626 3.28798 3.46843 3.25836L4.40999 3.03005C4.75217 2.94707 4.75217 2.4604 4.40998 2.37743L3.46843 2.14911C3.34626 2.11949 3.25087 2.0241 3.22125 1.90193L2.99294 0.960376C2.90996 0.618188 2.42329 0.618189 2.34032 0.960377L2.112 1.90193C2.08238 2.0241 1.98699 2.11949 1.86482 2.14911L0.923266 2.37743C0.581078 2.4604 0.581079 2.94707 0.923267 3.03005L1.86482 3.25836C1.98699 3.28798 2.08238 3.38337 2.112 3.50554L2.34032 4.44709Z" fill="url(#paint7_linear_1118_3)"/>
</g>
<defs>
<linearGradient id="paint0_linear_1118_3" x1="14.0756" y1="6.87689" x2="2.44658" y2="6.87689" gradientUnits="userSpaceOnUse">
<stop stop-color="#5357ED"/>
<stop offset="1" stop-color="#40B9FF"/>
</linearGradient>
<linearGradient id="paint1_linear_1118_3" x1="14.6666" y1="8.03707" x2="13.2745" y2="8.03707" gradientUnits="userSpaceOnUse">
<stop stop-color="#5357ED"/>
<stop offset="1" stop-color="#40B9FF"/>
</linearGradient>
<linearGradient id="paint2_linear_1118_3" x1="15.3334" y1="12.7038" x2="9.76475" y2="12.7038" gradientUnits="userSpaceOnUse">
<stop stop-color="#5357ED"/>
<stop offset="1" stop-color="#40B9FF"/>
</linearGradient>
<linearGradient id="paint3_linear_1118_3" x1="15.3334" y1="12.7038" x2="9.76475" y2="12.7038" gradientUnits="userSpaceOnUse">
<stop stop-color="#5357ED"/>
<stop offset="1" stop-color="#40B9FF"/>
</linearGradient>
<linearGradient id="paint4_linear_1118_3" x1="8.66663" y1="14.7038" x2="7.27447" y2="14.7038" gradientUnits="userSpaceOnUse">
<stop stop-color="#5357ED"/>
<stop offset="1" stop-color="#40B9FF"/>
</linearGradient>
<linearGradient id="paint5_linear_1118_3" x1="2" y1="14.7038" x2="0.607843" y2="14.7038" gradientUnits="userSpaceOnUse">
<stop stop-color="#5357ED"/>
<stop offset="1" stop-color="#40B9FF"/>
</linearGradient>
<linearGradient id="paint6_linear_1118_3" x1="4.66663" y1="2.70374" x2="0.490155" y2="2.70374" gradientUnits="userSpaceOnUse">
<stop stop-color="#5357ED"/>
<stop offset="1" stop-color="#40B9FF"/>
</linearGradient>
<linearGradient id="paint7_linear_1118_3" x1="4.66663" y1="2.70374" x2="0.490155" y2="2.70374" gradientUnits="userSpaceOnUse">
<stop stop-color="#5357ED"/>
<stop offset="1" stop-color="#40B9FF"/>
</linearGradient>
<clipPath id="clip0_1118_3">
<rect width="16" height="16" fill="white" transform="translate(0 0.0371094)"/>
</clipPath>
</defs>
</svg>
