<svg width="16" height="16" viewBox="0 0 16 16" fill="none" xmlns="http://www.w3.org/2000/svg">
<path d="M3.4535 1.12549C2.7002 1.12549 2.08954 1.73615 2.08954 2.48945V13.5104C2.08954 14.2637 2.7002 14.8744 3.4535 14.8744H12.5465C13.2998 14.8744 13.9105 14.2637 13.9105 13.5104V5.0992L10.0091 1.12549H3.4535Z" fill="#4B7DFF"/>
<path d="M4.57245 7.27962C4.57245 7.09553 4.72169 6.94629 4.90578 6.94629H10.2391C10.4232 6.94629 10.5724 7.09553 10.5724 7.27962C10.5724 7.46372 10.4232 7.61296 10.2391 7.61296H4.90578C4.72169 7.61296 4.57245 7.46372 4.57245 7.27962Z" fill="white"/>
<path d="M4.57245 9.62638C4.57245 9.44229 4.72169 9.29305 4.90578 9.29305H10.2391C10.4232 9.29305 10.5724 9.44229 10.5724 9.62638C10.5724 9.81048 10.4232 9.95972 10.2391 9.95972H4.90578C4.72169 9.95972 4.57245 9.81048 4.57245 9.62638Z" fill="white"/>
<path d="M4.90578 11.6398C4.72169 11.6398 4.57245 11.789 4.57245 11.9731C4.57245 12.1572 4.72169 12.3065 4.90578 12.3065H7.57245C7.75654 12.3065 7.90578 12.1572 7.90578 11.9731C7.90578 11.789 7.75654 11.6398 7.57245 11.6398H4.90578Z" fill="white"/>
<path d="M4.57245 7.27962C4.57245 7.09553 4.72169 6.94629 4.90578 6.94629H10.2391C10.4232 6.94629 10.5724 7.09553 10.5724 7.27962C10.5724 7.46372 10.4232 7.61296 10.2391 7.61296H4.90578C4.72169 7.61296 4.57245 7.46372 4.57245 7.27962Z" stroke="white" stroke-width="0.03" stroke-linecap="round"/>
<path d="M4.57245 9.62638C4.57245 9.44229 4.72169 9.29305 4.90578 9.29305H10.2391C10.4232 9.29305 10.5724 9.44229 10.5724 9.62638C10.5724 9.81048 10.4232 9.95972 10.2391 9.95972H4.90578C4.72169 9.95972 4.57245 9.81048 4.57245 9.62638Z" stroke="white" stroke-width="0.03" stroke-linecap="round"/>
<path d="M4.90578 11.6398C4.72169 11.6398 4.57245 11.789 4.57245 11.9731C4.57245 12.1572 4.72169 12.3065 4.90578 12.3065H7.57245C7.75654 12.3065 7.90578 12.1572 7.90578 11.9731C7.90578 11.789 7.75654 11.6398 7.57245 11.6398H4.90578Z" stroke="white" stroke-width="0.03" stroke-linecap="round"/>
<path d="M10.0075 1.12549L13.9104 5.09842H10.6742C10.306 5.09842 10.0075 4.79994 10.0075 4.43175V1.12549Z" fill="#305CFA"/>
</svg>
