<svg width="16" height="16" viewBox="0 0 16 16" fill="none" xmlns="http://www.w3.org/2000/svg">
<path d="M3.36396 1.12549C2.61066 1.12549 2 1.73615 2 2.48945V13.5104C2 14.2637 2.61066 14.8744 3.36396 14.8744H12.457C13.2103 14.8744 13.821 14.2637 13.821 13.5104V5.0992L9.91954 1.12549H3.36396Z" fill="#4B7DFF"/>
<path d="M4.48291 7.27974C4.48291 7.09565 4.63215 6.94641 4.81624 6.94641H10.1496C10.3337 6.94641 10.4829 7.09565 10.4829 7.27974C10.4829 7.46384 10.3337 7.61308 10.1496 7.61308H4.81624C4.63215 7.61308 4.48291 7.46384 4.48291 7.27974Z" fill="white"/>
<path d="M4.48291 9.62651C4.48291 9.44241 4.63215 9.29317 4.81624 9.29317H10.1496C10.3337 9.29317 10.4829 9.44241 10.4829 9.62651C10.4829 9.8106 10.3337 9.95984 10.1496 9.95984H4.81624C4.63215 9.95984 4.48291 9.8106 4.48291 9.62651Z" fill="white"/>
<path d="M4.81624 11.6399C4.63215 11.6399 4.48291 11.7892 4.48291 11.9733C4.48291 12.1574 4.63215 12.3066 4.81624 12.3066H7.48291C7.667 12.3066 7.81624 12.1574 7.81624 11.9733C7.81624 11.7892 7.667 11.6399 7.48291 11.6399H4.81624Z" fill="white"/>
<path d="M9.91797 1.12549L13.8209 5.09842H10.5846C10.2164 5.09842 9.91797 4.79994 9.91797 4.43175V1.12549Z" fill="#305CFA"/>
</svg>
