<svg width="16" height="16" viewBox="0 0 16 16" fill="none" xmlns="http://www.w3.org/2000/svg">
<path d="M3.36396 1.12561C2.61066 1.12561 2 1.73627 2 2.48957V13.5106C2 14.2638 2.61066 14.8745 3.36396 14.8745H12.457C13.2103 14.8745 13.821 14.2638 13.821 13.5106V5.09932L9.91954 1.12561H3.36396Z" fill="#FF6B4B"/>
<path d="M9.91797 1.12561L13.8209 5.09854H10.5846C10.2164 5.09854 9.91797 4.80006 9.91797 4.43187V1.12561Z" fill="#EC4F2D"/>
<path d="M7.67552 7.24523C7.67552 7.07955 7.54082 6.94359 7.37607 6.96111C6.92204 7.00941 6.48485 7.16701 6.10275 7.42233C5.6372 7.73339 5.27436 8.17552 5.06009 8.6928C4.84583 9.21008 4.78977 9.77928 4.899 10.3284C5.00823 10.8776 5.27785 11.382 5.67376 11.7779C6.06967 12.1738 6.57409 12.4434 7.12323 12.5527C7.67238 12.6619 8.24158 12.6058 8.75886 12.3916C9.27614 12.1773 9.71827 11.8145 10.0293 11.3489C10.2846 10.9668 10.4423 10.5296 10.4905 10.0756C10.5081 9.91084 10.3721 9.77614 10.2064 9.77614L7.97552 9.77614C7.80983 9.77614 7.67552 9.64183 7.67552 9.47614L7.67552 7.24523Z" fill="white"/>
<path d="M10.32 9.35194C10.4857 9.35194 10.6218 9.21715 10.6021 9.05264C10.5749 8.82499 10.5166 8.60166 10.4285 8.38897C10.302 8.08367 10.1166 7.80626 9.88298 7.5726C9.64931 7.33893 9.37191 7.15358 9.06661 7.02712C8.85392 6.93902 8.63058 6.8807 8.40293 6.85343C8.23842 6.83373 8.10364 6.96989 8.10364 7.13557V9.05194C8.10364 9.21762 8.23795 9.35194 8.40364 9.35194H10.32Z" fill="white"/>
</svg>
