<svg width="16" height="16" viewBox="0 0 16 16" fill="none" xmlns="http://www.w3.org/2000/svg">
<path d="M3.36396 1.12549C2.61066 1.12549 2 1.73615 2 2.48945V13.5104C2 14.2637 2.61066 14.8744 3.36396 14.8744H12.457C13.2103 14.8744 13.821 14.2637 13.821 13.5104V5.0992L9.91954 1.12549H3.36396Z" fill="#35BD4B"/>
<path d="M9.91797 1.12549L13.8209 5.09842H10.5846C10.2164 5.09842 9.91797 4.79994 9.91797 4.43175V1.12549Z" fill="#32A846"/>
<path fill-rule="evenodd" clip-rule="evenodd" d="M7.71926 10.2949L6.28687 12.403C6.17306 12.5705 5.94501 12.614 5.77751 12.5002C5.61002 12.3864 5.56649 12.1584 5.6803 11.9909L7.27596 9.64252L5.85088 7.54519C5.73707 7.37769 5.78059 7.14964 5.94809 7.03583C6.11558 6.92202 6.34363 6.96555 6.45744 7.13304L7.71926 8.9901L8.98108 7.13304C9.09489 6.96555 9.32294 6.92202 9.49044 7.03583C9.65793 7.14964 9.70146 7.37769 9.58765 7.54519L8.16256 9.64252L9.75822 11.9909C9.87203 12.1584 9.82851 12.3864 9.66101 12.5002C9.49351 12.614 9.26547 12.5705 9.15166 12.403L7.71926 10.2949Z" fill="white"/>
</svg>
