<svg width="16" height="16" viewBox="0 0 16 16" fill="none" xmlns="http://www.w3.org/2000/svg">
<path d="M3.4538 1.12549C2.70051 1.12549 2.08984 1.73615 2.08984 2.48945V13.5104C2.08984 14.2637 2.70051 14.8744 3.4538 14.8744H12.5468C13.3001 14.8744 13.9108 14.2637 13.9108 13.5104V5.0992L10.0094 1.12549H3.4538Z" fill="black"/>
<path d="M10.0078 1.12549L13.9107 5.09842H10.6745C10.3063 5.09842 10.0078 4.79994 10.0078 4.43175V1.12549Z" fill="#E5E5E5"/>
<path fill-rule="evenodd" clip-rule="evenodd" d="M7.80941 10.2949L6.37701 12.403C6.2632 12.5705 6.03516 12.614 5.86766 12.5002C5.70017 12.3864 5.65664 12.1584 5.77045 11.9909L7.36611 9.64252L5.94103 7.54519C5.82722 7.37769 5.87074 7.14964 6.03824 7.03583C6.20573 6.92202 6.43378 6.96555 6.54759 7.13304L7.80941 8.9901L9.07123 7.13304C9.18504 6.96555 9.41309 6.92202 9.58059 7.03583C9.74808 7.14964 9.7916 7.37769 9.67779 7.54519L8.25271 9.64252L9.84837 11.9909C9.96218 12.1584 9.91866 12.3864 9.75116 12.5002C9.58366 12.614 9.35562 12.5705 9.24181 12.403L7.80941 10.2949Z" fill="white"/>
</svg>
