<svg width="16" height="16" viewBox="0 0 16 16" fill="none" xmlns="http://www.w3.org/2000/svg">
<path d="M8.5999 5.9999C8.5999 5.66853 8.33127 5.3999 7.9999 5.3999C7.66853 5.3999 7.3999 5.66853 7.3999 5.9999V7.40329L6.004 7.4051C5.67263 7.40553 5.40435 7.67451 5.40479 8.00588C5.40522 8.33725 5.6742 8.60553 6.00557 8.6051L7.3999 8.60329V9.9999C7.3999 10.3313 7.66853 10.5999 7.9999 10.5999C8.33127 10.5999 8.5999 10.3313 8.5999 9.9999V8.60172L10.0004 8.5999C10.3317 8.59947 10.6 8.33049 10.5996 7.99912C10.5992 7.66775 10.3302 7.39947 9.9988 7.3999L8.5999 7.40172V5.9999Z" fill="black"/>
<path fill-rule="evenodd" clip-rule="evenodd" d="M7.99958 1.73315C4.53861 1.73315 1.73291 4.53885 1.73291 7.99982C1.73291 11.4608 4.53861 14.2665 7.99958 14.2665C9.51395 14.2665 10.9029 13.7293 11.9862 12.8351L13.2422 14.0908C13.4765 14.3251 13.8564 14.3251 14.0907 14.0907C14.325 13.8564 14.325 13.4765 14.0906 13.2422L12.8347 11.9866C13.729 10.9033 14.2662 9.51428 14.2662 7.99982C14.2662 4.53885 11.4605 1.73315 7.99958 1.73315ZM2.93291 7.99982C2.93291 5.20159 5.20135 2.93315 7.99958 2.93315C10.7978 2.93315 13.0662 5.20159 13.0662 7.99982C13.0662 10.7981 10.7978 13.0665 7.99958 13.0665C5.20135 13.0665 2.93291 10.7981 2.93291 7.99982Z" fill="black"/>
</svg>
