<svg width="16" height="16" viewBox="0 0 16 16" fill="none" xmlns="http://www.w3.org/2000/svg">
<g clip-path="url(#clip0_911_593)">
<path fill-rule="evenodd" clip-rule="evenodd" d="M2.44766 0.848145C1.564 0.848145 0.847656 1.56449 0.847656 2.44814V6.44814C0.847656 7.3318 1.564 8.04814 2.44766 8.04814H6.44766C7.33131 8.04814 8.04766 7.3318 8.04766 6.44814V2.44814C8.04766 1.56449 7.33131 0.848145 6.44766 0.848145H2.44766ZM2.04766 6.44814V5.04824H3.84775V6.84814H2.44766C2.22674 6.84814 2.04766 6.66906 2.04766 6.44814ZM2.04766 3.84824H3.84775V2.04814H2.44766C2.22674 2.04814 2.04766 2.22723 2.04766 2.44814V3.84824ZM5.04775 6.84814V5.04824H6.84766V6.44814C6.84766 6.66906 6.66857 6.84814 6.44766 6.84814H5.04775ZM5.04775 3.84824H6.84766V2.44814C6.84766 2.22723 6.66857 2.04814 6.44766 2.04814H5.04775V3.84824Z" fill="black"/>
<path fill-rule="evenodd" clip-rule="evenodd" d="M9.55215 7.95166C8.66849 7.95166 7.95215 8.668 7.95215 9.55166V13.5517C7.95215 14.4353 8.66849 15.1517 9.55215 15.1517L11.5522 15.1517L13.5521 15.1517C14.4358 15.1517 15.1521 14.4353 15.1521 13.5517L15.1521 11.5518L15.1521 9.55166C15.1521 8.668 14.4358 7.95166 13.5521 7.95166H9.55215ZM13.9521 10.9518V9.55166C13.9521 9.33075 13.7731 9.15166 13.5521 9.15166H12.1522V10.9518H13.9521ZM10.9522 10.9518V9.15166H9.55215C9.33123 9.15166 9.15215 9.33075 9.15215 9.55166V10.9518H10.9522ZM9.15215 12.1518H10.9522V13.9517H9.55215C9.33123 13.9517 9.15215 13.7726 9.15215 13.5517V12.1518ZM12.1522 12.1518H13.9521V13.5517C13.9521 13.7726 13.7731 13.9517 13.5521 13.9517H12.1522V12.1518Z" fill="black"/>
<path d="M9.62158 2.44912C9.62158 2.11775 9.89021 1.84912 10.2216 1.84912H12.7516C13.6352 1.84912 14.3516 2.56547 14.3516 3.44912V5.9791C14.3516 6.31047 14.0829 6.5791 13.7516 6.5791C13.4202 6.5791 13.1516 6.31047 13.1516 5.9791V3.44912C13.1516 3.22821 12.9725 3.04912 12.7516 3.04912H10.2216C9.89021 3.04912 9.62158 2.78049 9.62158 2.44912Z" fill="black"/>
<path d="M5.77871 14.1507C6.11008 14.1507 6.37871 13.8821 6.37871 13.5507C6.37871 13.2193 6.11008 12.9507 5.77871 12.9507L3.24873 12.9507C3.02782 12.9507 2.84873 12.7716 2.84873 12.5507L2.84873 10.0207C2.84873 9.68933 2.5801 9.4207 2.24873 9.4207C1.91736 9.4207 1.64873 9.68933 1.64873 10.0207L1.64873 12.5507C1.64873 13.4343 2.36507 14.1507 3.24873 14.1507H5.77871Z" fill="black"/>
</g>
<defs>
<clipPath id="clip0_911_593">
<rect width="16" height="16" fill="white"/>
</clipPath>
</defs>
</svg>
