<svg width="16" height="16" viewBox="0 0 16 16" fill="none" xmlns="http://www.w3.org/2000/svg">
<path d="M5.3313 1.4667C5.3313 1.13533 5.59993 0.866699 5.9313 0.866699H10.069C10.4004 0.866699 10.669 1.13533 10.669 1.4667C10.669 1.79807 10.4004 2.0667 10.069 2.0667H5.9313C5.59993 2.0667 5.3313 1.79807 5.3313 1.4667Z" fill="black"/>
<path d="M1.09985 3.64443C1.09985 3.31306 1.36848 3.04443 1.69985 3.04443H14.2999C14.6312 3.04443 14.8999 3.31306 14.8999 3.64443C14.8999 3.9758 14.6312 4.24443 14.2999 4.24443H1.69985C1.36848 4.24443 1.09985 3.9758 1.09985 3.64443Z" fill="black"/>
<path d="M6.12398 8.30171C6.35829 8.0674 6.73819 8.0674 6.97251 8.30171L8.00007 9.32928L9.02764 8.30171C9.26195 8.0674 9.64185 8.0674 9.87617 8.30171C10.1105 8.53603 10.1105 8.91593 9.87617 9.15024L8.8486 10.1778L9.87617 11.2054C10.1105 11.4397 10.1105 11.8196 9.87617 12.0539C9.64185 12.2882 9.26195 12.2882 9.02764 12.0539L8.00007 11.0263L6.97251 12.0539C6.73819 12.2882 6.35829 12.2882 6.12398 12.0539C5.88966 11.8196 5.88966 11.4397 6.12398 11.2054L7.15154 10.1778L6.12398 9.15024C5.88966 8.91593 5.88966 8.53603 6.12398 8.30171Z" fill="black"/>
<path fill-rule="evenodd" clip-rule="evenodd" d="M4.75332 5.22217C3.86966 5.22217 3.15332 5.93851 3.15332 6.82217V12.5331C3.15332 13.9691 4.31738 15.1332 5.75332 15.1332H10.2465C11.6825 15.1332 12.8465 13.9691 12.8465 12.5331V6.82217C12.8465 5.93851 12.1302 5.22217 11.2465 5.22217H4.75332ZM4.35332 6.82217C4.35332 6.60125 4.53241 6.42217 4.75332 6.42217H11.2465C11.4674 6.42217 11.6465 6.60125 11.6465 6.82217V12.5331C11.6465 13.3063 11.0197 13.9332 10.2465 13.9332H5.75332C4.98012 13.9332 4.35332 13.3063 4.35332 12.5331V6.82217Z" fill="black"/>
</svg>
