<svg width="16" height="16" viewBox="0 0 16 16" fill="none" xmlns="http://www.w3.org/2000/svg">
<path d="M1.28096 4.6541C1.57489 4.50109 1.93721 4.61533 2.09022 4.90926C2.27315 5.26067 2.55999 5.60455 2.94829 5.92278C4.04628 6.82266 5.87505 7.44865 7.99828 7.44865C10.1215 7.44865 11.9503 6.82267 13.0482 5.92279C13.4366 5.60455 13.7234 5.26067 13.9063 4.90927C14.0594 4.61533 14.4217 4.50109 14.7156 4.65409C15.0095 4.8071 15.1238 5.16941 14.9708 5.46334C14.6995 5.98445 14.2981 6.44997 13.8089 6.8509C13.7298 6.91575 13.6481 6.97914 13.564 7.041L15.2245 8.70153C15.4588 8.93585 15.4588 9.31575 15.2245 9.55006C14.9902 9.78438 14.6103 9.78438 14.376 9.55006L12.5041 7.67822C11.8977 7.97568 11.2181 8.21208 10.4884 8.37706L11.0996 10.6581C11.1853 10.9782 10.9954 11.3072 10.6753 11.393C10.3552 11.4787 10.0262 11.2888 9.94045 10.9687L9.29949 8.57652C8.8758 8.62404 8.44081 8.64865 7.99828 8.64865C7.55276 8.64865 7.11487 8.62371 6.68846 8.57555L6.04723 10.9687C5.96147 11.2888 5.63247 11.4788 5.31239 11.393C4.99231 11.3073 4.80236 10.9783 4.88812 10.6582L5.49983 8.37516C4.7743 8.2105 4.09843 7.9752 3.49498 7.67947L1.62436 9.55009C1.39005 9.78441 1.01015 9.78441 0.775835 9.5501C0.54152 9.31578 0.541518 8.93588 0.775832 8.70157L2.43478 7.04261C2.34987 6.98024 2.26746 6.91632 2.18764 6.8509C1.69842 6.44997 1.29706 5.98445 1.0258 5.46335C0.872791 5.16942 0.987031 4.80711 1.28096 4.6541Z" fill="black"/>
</svg>
