<svg width="16" height="16" viewBox="0 0 16 16" fill="none" xmlns="http://www.w3.org/2000/svg">
<path d="M2.51995 2.97553V4.05556C2.51995 4.20314 2.40031 4.32277 2.25273 4.32277C1.99376 4.32277 1.78552 4.53558 1.78552 4.79266C1.78552 5.05273 1.99617 5.268 2.25813 5.268H3.79178C4.0528 5.268 4.26439 5.0564 4.26439 4.79538V4.73058C4.26439 4.50535 4.08181 4.32277 3.85658 4.32277C3.74181 4.32277 3.64878 4.22973 3.64878 4.11496V2.2753C3.64878 1.9268 3.36626 1.64429 3.01776 1.64429C2.90079 1.64429 2.78946 1.6779 2.69146 1.73053C2.60678 1.77601 2.52066 1.81604 2.43309 1.85066C2.36308 1.87641 2.28441 1.90095 2.1969 1.9242C2.01199 1.97332 1.87193 2.13768 1.87193 2.33645C1.87193 2.56569 2.05776 2.75152 2.28699 2.75152H2.39102C2.44754 2.75152 2.47095 2.77114 2.48663 2.79752C2.5076 2.83279 2.51995 2.89182 2.51995 2.97553Z" fill="black"/>
<path d="M2.44236 8.57463C2.25925 8.75469 2.05589 8.94849 1.83342 9.15489C1.73778 9.24362 1.68286 9.36822 1.68286 9.49914C1.68286 9.75751 1.89231 9.96695 2.15067 9.96695H3.87813C4.14809 9.96695 4.36694 9.7481 4.36694 9.47814C4.36694 9.20818 4.14809 8.98933 3.87813 8.98933H3.69452C3.61457 8.98933 3.51752 8.99502 3.40408 9.00599C3.3951 9.00686 3.38702 9.00742 3.37978 9.00772C3.38531 9.00042 3.39121 8.99339 3.39703 8.98702C3.48454 8.89119 3.57143 8.79192 3.65769 8.68923C3.81284 8.50084 3.94171 8.30707 4.0425 8.10935C4.14934 7.90689 4.20493 7.70398 4.20493 7.50168C4.20493 7.25963 4.15099 7.04339 4.03964 6.85648C3.92927 6.67122 3.77684 6.52864 3.58408 6.43014C3.39133 6.32802 3.17162 6.27844 2.9277 6.27844C2.66431 6.27844 2.43247 6.32541 2.23568 6.42364C2.13314 6.47293 2.0319 6.5373 1.93191 6.61601C1.72495 6.77891 1.74295 7.07397 1.91374 7.24476L1.92445 7.25547C2.10562 7.43664 2.36002 7.39218 2.53538 7.26592L2.53746 7.26438C2.59991 7.21692 2.69069 7.20207 2.79809 7.20207C2.90267 7.20207 2.97626 7.23265 3.02979 7.28618L3.03324 7.28946C3.0837 7.33534 3.11931 7.41625 3.11931 7.55568C3.11931 7.683 3.06737 7.83056 2.94838 8.00055C2.82714 8.17375 2.65901 8.36508 2.44236 8.57463Z" fill="black"/>
<path d="M2.15675 14.5286C2.37685 14.6213 2.6318 14.666 2.91918 14.666C3.16754 14.666 3.39917 14.6265 3.61311 14.5463L3.61457 14.5457C3.82983 14.4611 4.00647 14.3385 4.14099 14.1763L4.14174 14.1753C4.28016 14.0043 4.34762 13.7978 4.34762 13.5616C4.34762 13.3256 4.28018 13.124 4.13854 12.9657C4.04579 12.862 3.93491 12.7796 3.80706 12.7178C3.92064 12.6476 4.01399 12.565 4.08476 12.4689C4.18868 12.3277 4.23962 12.1631 4.23962 11.9794C4.23962 11.6419 4.11412 11.3728 3.8591 11.1863C3.61341 11.0004 3.28947 10.9127 2.89758 10.9127C2.67593 10.9127 2.46633 10.9548 2.26979 11.0395C2.18775 11.074 2.10703 11.1147 2.02762 11.1617C1.79307 11.3003 1.78093 11.6074 1.93867 11.7981C2.10549 11.9998 2.38732 12.0017 2.59195 11.8957C2.67058 11.8565 2.75752 11.8363 2.85438 11.8363C2.96071 11.8363 3.02179 11.86 3.05567 11.8898C3.08709 11.9174 3.11079 11.9642 3.11079 12.0496C3.11079 12.1326 3.0772 12.1981 2.99843 12.2527C2.95714 12.2795 2.88579 12.3042 2.77465 12.32C2.55847 12.3508 2.36556 12.5239 2.36556 12.7624C2.36556 12.9995 2.55719 13.178 2.77994 13.1988C2.86307 13.2066 2.92903 13.2178 2.97927 13.2315C3.09334 13.2617 3.14926 13.3004 3.17229 13.3331C3.20183 13.3749 3.21879 13.4278 3.21879 13.4968C3.21879 13.5709 3.19116 13.6188 3.13234 13.6541C3.06327 13.6955 2.96259 13.7208 2.82198 13.7208C2.71626 13.7208 2.60883 13.6961 2.49885 13.6446C2.27649 13.531 1.96371 13.5423 1.79775 13.7721L1.79042 13.7823C1.66619 13.9543 1.65996 14.2176 1.85686 14.3602C1.9473 14.4257 2.04778 14.4819 2.15675 14.5286Z" fill="black"/>
<path d="M6.31718 2.78943C5.94899 2.78943 5.65051 3.08791 5.65051 3.4561C5.65051 3.82429 5.94899 4.12276 6.31718 4.12276H13.6505C14.0187 4.12276 14.3172 3.82429 14.3172 3.4561C14.3172 3.08791 14.0187 2.78943 13.6505 2.78943H6.31718Z" fill="black"/>
<path d="M5.65051 8.12272C5.65051 7.75453 5.94899 7.45605 6.31718 7.45605H13.6505C14.0187 7.45605 14.3172 7.75453 14.3172 8.12272C14.3172 8.49091 14.0187 8.78939 13.6505 8.78939H6.31718C5.94899 8.78939 5.65051 8.49091 5.65051 8.12272Z" fill="black"/>
<path d="M6.31718 12.1227C5.94899 12.1227 5.65051 12.4212 5.65051 12.7893C5.65051 13.1575 5.94899 13.456 6.31718 13.456H13.6505C14.0187 13.456 14.3172 13.1575 14.3172 12.7893C14.3172 12.4212 14.0187 12.1227 13.6505 12.1227H6.31718Z" fill="black"/>
</svg>
