<svg width="16" height="17" viewBox="0 0 16 17" fill="none" xmlns="http://www.w3.org/2000/svg">
<path fill-rule="evenodd" clip-rule="evenodd" d="M3.99243 1.65381C2.61172 1.65381 1.49243 2.77295 1.49243 4.15381V12.1538C1.49243 13.5347 2.61172 14.6538 3.99243 14.6538H11.9924C13.3731 14.6538 14.4924 13.5347 14.4924 12.1538V4.15381C14.4924 2.77295 13.3731 1.65381 11.9924 1.65381H3.99243ZM12.3779 6.3623C12.6317 6.1084 12.6317 5.69678 12.3779 5.44287C12.1241 5.18896 11.7125 5.18896 11.4586 5.44287L7.21062 9.69092L5.00681 7.4873C4.75296 7.2334 4.3414 7.2334 4.08755 7.4873C3.83372 7.74072 3.83372 8.15234 4.08757 8.40625L6.85709 11.1758C7.05234 11.3711 7.36893 11.3711 7.56418 11.1758L12.3779 6.3623Z" fill="black"/>
</svg>
