<svg width="16" height="16" viewBox="0 0 16 16" fill="none" xmlns="http://www.w3.org/2000/svg">
<path fill-rule="evenodd" clip-rule="evenodd" d="M1.05005 3.6498C1.05005 2.21386 2.21411 1.0498 3.65005 1.0498H12.3501C13.786 1.0498 14.95 2.21387 14.95 3.6498V12.3498C14.95 13.7857 13.786 14.9498 12.35 14.9498H3.65005C2.21411 14.9498 1.05005 13.7857 1.05005 12.3498V8.01719C1.04989 8.01144 1.0498 8.00568 1.0498 7.9999C1.0498 7.99412 1.04989 7.98836 1.05005 7.98262V3.6498ZM2.25005 8.5999V12.3498C2.25005 13.123 2.87685 13.7498 3.65005 13.7498H7.3999V8.5999H2.25005ZM7.3999 7.3999H2.25005V3.6498C2.25005 2.87661 2.87685 2.2498 3.65005 2.2498H7.3999V7.3999ZM8.5999 8.5999V13.7498H12.35C13.1232 13.7498 13.75 13.123 13.75 12.3498V8.5999H8.5999ZM13.75 7.3999H8.5999V2.2498H12.3501C13.1232 2.2498 13.75 2.87661 13.75 3.6498V7.3999Z" fill="black"/>
</svg>
