<svg width="16" height="16" viewBox="0 0 16 16" fill="none" xmlns="http://www.w3.org/2000/svg">
<path d="M8.60039 10.0668C8.60039 9.73539 8.33176 9.46676 8.00039 9.46676C7.66902 9.46676 7.40039 9.73539 7.40039 10.0668V12.0827C7.40039 12.414 7.66902 12.6827 8.00039 12.6827C8.33176 12.6827 8.60039 12.414 8.60039 12.0827V10.0668Z" fill="black"/>
<path fill-rule="evenodd" clip-rule="evenodd" d="M8.2172 2.25005L8.00002 2.25005C6.69848 2.25004 5.64336 3.30513 5.64336 4.60667V6.52902H13.3755C14.0779 6.52902 14.6474 7.0985 14.6474 7.80099V13.6782C14.6474 14.3806 14.0779 14.9501 13.3755 14.9501H2.62402C1.92153 14.9501 1.35205 14.3806 1.35205 13.6782V7.80099C1.35205 7.0985 1.92153 6.52902 2.62402 6.52902H4.44336V4.60667C4.44336 2.64239 6.03573 1.05004 8 1.05005L8.21719 1.05005C10.0615 1.05003 11.5567 2.54515 11.5567 4.38948C11.5567 4.72085 11.288 4.98948 10.9567 4.98948C10.6253 4.98948 10.3567 4.72085 10.3567 4.38948C10.3567 3.2079 9.39879 2.25004 8.2172 2.25005ZM2.62402 7.72902C2.58427 7.72902 2.55205 7.76124 2.55205 7.80099V13.6782C2.55205 13.7179 2.58427 13.7501 2.62402 13.7501H13.3755C13.4152 13.7501 13.4474 13.7179 13.4474 13.6782V7.80099C13.4474 7.76124 13.4152 7.72902 13.3755 7.72902H2.62402Z" fill="black"/>
</svg>
