<svg width="16" height="17" viewBox="0 0 16 17" fill="none" xmlns="http://www.w3.org/2000/svg">
<path fill-rule="evenodd" clip-rule="evenodd" d="M12 2.65381H4C3.17157 2.65381 2.5 3.32538 2.5 4.15381V12.1538C2.5 12.9822 3.17157 13.6538 4 13.6538H12C12.8284 13.6538 13.5 12.9822 13.5 12.1538V4.15381C13.5 3.32538 12.8284 2.65381 12 2.65381ZM4 1.65381C2.61929 1.65381 1.5 2.7731 1.5 4.15381V12.1538C1.5 13.5345 2.61929 14.6538 4 14.6538H12C13.3807 14.6538 14.5 13.5345 14.5 12.1538V4.15381C14.5 2.7731 13.3807 1.65381 12 1.65381H4Z" fill="black"/>
</svg>
