<svg width="17" height="16" viewBox="0 0 17 16" fill="none" xmlns="http://www.w3.org/2000/svg">
<rect x="5.59021" y="1.50879" width="4.8735" height="12.9512" fill="#E5E5E5"/>
<path fill-rule="evenodd" clip-rule="evenodd" d="M1.34863 2.53325C1.34863 1.87051 1.88589 1.33325 2.54863 1.33325H13.482C14.1447 1.33325 14.682 1.87051 14.682 2.53325V13.4666C14.682 14.1294 14.1447 14.6666 13.482 14.6666H2.54863C1.88589 14.6666 1.34863 14.1294 1.34863 13.4666V2.53325ZM13.082 2.63325C13.2477 2.63325 13.382 2.76757 13.382 2.93325V5.09946C13.382 5.26515 13.2477 5.39946 13.082 5.39946H10.9708C10.8052 5.39946 10.6708 5.26515 10.6708 5.09946V2.93325C10.6708 2.76757 10.8052 2.63325 10.9708 2.63325H13.082ZM9.37085 2.93325C9.37085 2.76757 9.23653 2.63325 9.07085 2.63325H6.95974C6.79406 2.63325 6.65974 2.76757 6.65974 2.93325V5.09946C6.65974 5.26515 6.79406 5.39946 6.95974 5.39946L9.07085 5.39946C9.23654 5.39946 9.37085 5.26515 9.37085 5.09946V2.93325ZM5.35974 2.93325C5.35974 2.76757 5.22543 2.63325 5.05974 2.63325H2.94863C2.78295 2.63325 2.64863 2.76757 2.64863 2.93325V5.09946C2.64863 5.26515 2.78295 5.39946 2.94863 5.39946H5.05974C5.22543 5.39946 5.35974 5.26515 5.35974 5.09946V2.93325ZM2.94863 6.69946C2.78295 6.69946 2.64863 6.83378 2.64863 6.99946V9.11045C2.64863 9.27613 2.78295 9.41045 2.94863 9.41045H5.05974C5.22543 9.41045 5.35974 9.27613 5.35974 9.11045V6.99946C5.35974 6.83378 5.22543 6.69946 5.05974 6.69946H2.94863ZM2.94863 10.7104C2.78295 10.7104 2.64863 10.8448 2.64863 11.0104V13.0666C2.64863 13.2323 2.78295 13.3666 2.94863 13.3666H5.05974C5.22543 13.3666 5.35974 13.2323 5.35974 13.0666V11.0104C5.35974 10.8448 5.22543 10.7104 5.05974 10.7104H2.94863ZM6.65974 13.0666C6.65974 13.2323 6.79406 13.3666 6.95974 13.3666H9.07085C9.23653 13.3666 9.37085 13.2323 9.37085 13.0666V11.0104C9.37085 10.8448 9.23653 10.7104 9.07085 10.7104L6.95974 10.7104C6.79406 10.7104 6.65974 10.8448 6.65974 11.0104V13.0666ZM10.6708 13.0666C10.6708 13.2323 10.8052 13.3666 10.9708 13.3666H13.082C13.2477 13.3666 13.382 13.2323 13.382 13.0666V11.0104C13.382 10.8448 13.2477 10.7104 13.082 10.7104H10.9708C10.8052 10.7104 10.6708 10.8448 10.6708 11.0104V13.0666ZM13.082 9.41045C13.2477 9.41045 13.382 9.27613 13.382 9.11045V6.99946C13.382 6.83378 13.2477 6.69946 13.082 6.69946H10.9708C10.8052 6.69946 10.6708 6.83378 10.6708 6.99946V9.11045C10.6708 9.27613 10.8052 9.41045 10.9708 9.41045H13.082ZM6.95974 9.41045C6.79406 9.41045 6.65974 9.27613 6.65974 9.11045V6.99946C6.65974 6.83378 6.79406 6.69946 6.95974 6.69946L9.07085 6.69946C9.23653 6.69946 9.37085 6.83378 9.37085 6.99946V9.11045C9.37085 9.27613 9.23653 9.41045 9.07085 9.41045H6.95974Z" fill="black"/>
</svg>
