<svg width="17" height="17" viewBox="0 0 17 17" fill="none" xmlns="http://www.w3.org/2000/svg">
<mask id="mask0_107_1287" style="mask-type:alpha" maskUnits="userSpaceOnUse" x="0" y="0" width="17" height="17">
<rect x="0.195557" y="0.0490723" width="16" height="16" fill="#DCDCDC"/>
</mask>
<g mask="url(#mask0_107_1287)">
<path d="M4.19548 1.38208H2.86214C2.12576 1.38208 1.52881 1.97903 1.52881 2.71541V4.04875H2.86214V2.71541L4.19548 2.71541V1.38208Z" fill="#E5E5E5"/>
<path d="M1.52881 9.38208H2.86214V6.71541H1.52881V9.38208Z" fill="#E5E5E5"/>
<path d="M6.86214 1.38208V2.71541H7.52881V5.38208H8.86214V2.71541H9.52881V1.38208H6.86214Z" fill="#E5E5E5"/>
<path d="M12.1955 1.38208V2.71541H13.5288V4.04875H14.8621V2.71541C14.8621 1.97903 14.2652 1.38208 13.5288 1.38208H12.1955Z" fill="#E5E5E5"/>
<path d="M14.8621 6.71541H13.5288V7.38208H10.8621V8.71541H13.5288V9.38208H14.8621V6.71541Z" fill="#E5E5E5"/>
<path d="M7.52881 13.3821V10.7154H8.86214V13.3821H7.52881Z" fill="#E5E5E5"/>
<path d="M5.52881 7.38208H2.86214V8.71541H5.52881V7.38208Z" fill="#E5E5E5"/>
<path d="M1.52881 13.3824V12.0491H2.86214L2.86214 13.3824H13.5288V12.0491H14.8621V13.3824C14.8621 14.1188 14.2652 14.7157 13.5288 14.7157H2.86214C2.12576 14.7157 1.52881 14.1188 1.52881 13.3824Z" fill="black"/>
</g>
</svg>
