<svg width="17" height="17" viewBox="0 0 17 17" fill="none" xmlns="http://www.w3.org/2000/svg">
<mask id="mask0_102_1198" style="mask-type:alpha" maskUnits="userSpaceOnUse" x="0" y="0" width="17" height="17">
<rect x="0.919373" y="0.591797" width="16" height="16" fill="#DCDCDC"/>
</mask>
<g mask="url(#mask0_102_1198)">
<path fill-rule="evenodd" clip-rule="evenodd" d="M6.60668 10.576C6.65219 10.4632 6.69764 10.3462 6.74303 10.225L7.25057 8.86766H10.578L11.2717 10.7077C11.3244 10.8758 11.4061 11.0194 11.5216 11.1295C11.6593 11.2608 11.8312 11.3154 12.0208 11.3058C12.2738 11.3049 12.5113 11.2297 12.619 10.995L12.6207 10.991C12.7095 10.7855 12.6943 10.5552 12.6123 10.3207L9.77288 2.45517C9.71484 2.28008 9.60947 2.1406 9.46151 2.04182C9.30774 1.93043 9.11827 1.88292 8.90735 1.88292C8.7021 1.88292 8.51689 1.93194 8.36397 2.04378C8.22418 2.14402 8.12555 2.28364 8.06872 2.45523L5.24337 10.2932L5.24219 10.2967C5.1894 10.4523 5.15765 10.5974 5.15765 10.7264C5.15765 10.8564 5.19054 10.9855 5.28219 11.0827C5.42193 11.2386 5.61147 11.3058 5.82541 11.3058C5.95627 11.3058 6.07743 11.2663 6.18094 11.1834C6.28267 11.1165 6.36558 11.0249 6.43038 10.9135C6.49925 10.8095 6.55795 10.6969 6.60668 10.576ZM7.64042 7.59332L8.92081 3.92007L10.2012 7.59332H7.64042Z" fill="black"/>
<rect x="3.12982" y="12.7881" width="11.5791" height="2.56077" rx="1.28039" fill="#E5E5E5"/>
</g>
</svg>
