<svg width="17" height="17" viewBox="0 0 17 17" fill="none" xmlns="http://www.w3.org/2000/svg">
<mask id="mask0_248_114" style="mask-type:alpha" maskUnits="userSpaceOnUse" x="0" y="0" width="17" height="17">
<rect x="0.183594" y="0.483398" width="16" height="16" fill="#DCDCDC"/>
</mask>
<g mask="url(#mask0_248_114)">
<path d="M1.51685 13.8164V12.4831H2.85018L2.85018 13.8164H4.18351V15.1497H2.85018C2.1138 15.1497 1.51685 14.5528 1.51685 13.8164Z" fill="#E5E5E5"/>
<path d="M2.85018 1.81641H4.18351V3.14974L2.85018 3.14974V4.48307H1.51685V3.14974C1.51685 2.41336 2.1138 1.81641 2.85018 1.81641Z" fill="#E5E5E5"/>
<path d="M2.85018 9.81641H1.51685V7.14974H2.85018V9.81641Z" fill="#E5E5E5"/>
<path d="M6.85018 3.14974V1.81641H9.51685V3.14974H8.84855V4.4689H7.51855V3.14974H6.85018Z" fill="#E5E5E5"/>
<path d="M12.1835 3.14974V1.81641H13.5168C14.2532 1.81641 14.8502 2.41336 14.8502 3.14974V4.48307H13.5168V3.14974H12.1835Z" fill="#E5E5E5"/>
<path d="M13.5168 7.14974H14.8502V9.81641H13.5168V7.14974Z" fill="#E5E5E5"/>
<path d="M13.5168 12.4831H14.8502V13.8164C14.8502 14.5528 14.2532 15.1497 13.5168 15.1497H12.1835V13.8164H13.5168V12.4831Z" fill="#E5E5E5"/>
<path d="M9.51685 13.8164V15.1497H6.85018V13.8164H7.51856V12.4972H8.84856V13.8164H9.51685Z" fill="#E5E5E5"/>
<path d="M7.51855 7.14499L7.51856 9.82108H8.84856V7.14499H7.51855Z" fill="#E5E5E5"/>
<path d="M8.85059 7.81763H7.51725L2.85059 7.81771V9.15104H7.51725L8.85059 9.15096L13.5173 9.15104V7.81771L8.85059 7.81763Z" fill="black"/>
</g>
</svg>
