<svg width="16" height="16" viewBox="0 0 16 16" fill="none" xmlns="http://www.w3.org/2000/svg">
<mask id="mask0_248_114" style="mask-type:alpha" maskUnits="userSpaceOnUse" x="0" y="0" width="16" height="16">
<rect width="16" height="16" fill="#DCDCDC"/>
</mask>
<g mask="url(#mask0_248_114)">
<path d="M1.33325 13.333V11.9997H2.66659L2.66659 13.333H3.99992V14.6663H2.66659C1.93021 14.6663 1.33325 14.0694 1.33325 13.333Z" fill="#E5E5E5"/>
<path d="M2.66659 1.33301H3.99992V2.66634L2.66659 2.66634V3.99967H1.33325V2.66634C1.33325 1.92996 1.93021 1.33301 2.66659 1.33301Z" fill="#E5E5E5"/>
<path d="M2.66659 9.33301H1.33325V6.66634H2.66659V9.33301Z" fill="#E5E5E5"/>
<path d="M6.66659 2.66634V1.33301H9.33325V2.66634H8.66496V3.9855H7.33496V2.66634H6.66659Z" fill="#E5E5E5"/>
<path d="M11.9999 2.66634V1.33301H13.3333C14.0696 1.33301 14.6666 1.92996 14.6666 2.66634V3.99967H13.3333V2.66634H11.9999Z" fill="#E5E5E5"/>
<path d="M13.3333 6.66634H14.6666V9.33301H13.3333V6.66634Z" fill="#E5E5E5"/>
<path d="M13.3333 11.9997H14.6666V13.333C14.6666 14.0694 14.0696 14.6663 13.3333 14.6663H11.9999V13.333H13.3333V11.9997Z" fill="#E5E5E5"/>
<path d="M9.33325 13.333V14.6663H6.66659V13.333H7.33496V12.0138H8.66496V13.333H9.33325Z" fill="#E5E5E5"/>
<path d="M7.33496 6.66159L7.33496 9.33768H8.66496V6.66159H7.33496Z" fill="#E5E5E5"/>
<path d="M8.66687 7.33423H7.33354L2.66687 7.33431V8.66764H7.33354L8.66687 8.66756L13.3335 8.66764V7.33431L8.66687 7.33423Z" fill="black"/>
</g>
</svg>
