<svg width="17" height="17" viewBox="0 0 17 17" fill="none" xmlns="http://www.w3.org/2000/svg">
<mask id="mask0_107_1307" style="mask-type:alpha" maskUnits="userSpaceOnUse" x="0" y="0" width="17" height="17">
<rect x="0.195557" y="0.0490723" width="16" height="16" fill="#DCDCDC"/>
</mask>
<g mask="url(#mask0_107_1307)">
<path fill-rule="evenodd" clip-rule="evenodd" d="M1.52881 12.0487V13.3821C1.52881 14.1185 2.12576 14.7154 2.86214 14.7154H4.19548V13.3821H2.86214L2.86214 12.0487H1.52881ZM4.19548 1.38208H2.86214C2.12576 1.38208 1.52881 1.97903 1.52881 2.71541V4.04875H2.86214V2.71541L4.19548 2.71541V1.38208ZM1.52881 9.38208H2.86214V6.71541H1.52881V9.38208ZM6.86214 1.38208V2.71541H9.52881V1.38208H6.86214ZM12.1955 1.38208V2.71541H13.5288V4.04875H14.8621V2.71541C14.8621 1.97903 14.2652 1.38208 13.5288 1.38208H12.1955ZM14.8621 6.71541H13.5288V9.38208H14.8621V6.71541ZM14.8621 12.0487H13.5288V13.3821H12.1955V14.7154H13.5288C14.2652 14.7154 14.8621 14.1185 14.8621 13.3821V12.0487ZM9.52881 14.7154V13.3821H6.86214V14.7154H9.52881Z" fill="#E5E5E5"/>
<path d="M8.86243 7.38322V2.71655H7.52909V7.38322H2.86243V8.71655H7.52909V13.3832H8.86243V8.71655H13.5291V7.38322H8.86243Z" fill="black"/>
</g>
</svg>
