<svg width="16" height="16" viewBox="0 0 16 16" fill="none" xmlns="http://www.w3.org/2000/svg">
<mask id="mask0_436_43" style="mask-type:alpha" maskUnits="userSpaceOnUse" x="0" y="0" width="16" height="16">
<rect width="16" height="16" fill="#D9D9D9"/>
</mask>
<g mask="url(#mask0_436_43)">
<path d="M2.00635 2.85478L1.90417 3.07837L2.39643 3.30332L7.25035 13.925L8.34179 13.4263L4.77691 5.62534L13.2325 14.0809L14.081 13.2324L5.62932 4.78069L13.4249 8.34313L13.9237 7.25169L3.30198 2.39778L3.07703 1.90552L2.85542 2.00679L2.76733 1.9187L2.60621 2.07982L2.40294 1.98693L2.27204 2.27338L1.98559 2.40428L2.07848 2.60755L1.91881 2.76723L2.00635 2.85478Z" fill="black"/>
<path fill-rule="evenodd" clip-rule="evenodd" d="M1.34351 12.0924L1.34351 13.4565C1.34351 14.1193 1.88077 14.6565 2.54351 14.6565L3.90764 14.6565L3.90764 13.3265L2.67351 13.3265L2.67351 12.0924L1.34351 12.0924ZM3.90763 1.34351L2.54351 1.34351C1.88076 1.34351 1.34351 1.88076 1.34351 2.54351L1.34351 3.90764L2.67351 3.90764L2.67351 2.67351L3.90763 2.67351L3.90763 1.34351ZM1.34351 9.36415L2.67351 9.36415L2.67351 6.63589L1.34351 6.63589L1.34351 9.36415ZM6.63589 1.34351L6.63589 2.67351L9.36415 2.67351L9.36415 1.34351L6.63589 1.34351ZM12.0924 1.34351L12.0924 2.67351L13.3265 2.67351L13.3265 3.90763L14.6565 3.90763L14.6565 2.54351C14.6565 1.88076 14.1193 1.34351 13.4565 1.34351L12.0924 1.34351ZM14.6565 6.63589L13.3265 6.63589L13.3265 9.36415L14.6565 9.36415L14.6565 6.63589ZM14.6565 12.0924L13.3265 12.0924L13.3265 13.3265L12.0924 13.3265L12.0924 14.6565L13.4565 14.6565C14.1193 14.6565 14.6565 14.1193 14.6565 13.4565L14.6565 12.0924ZM9.36415 14.6565L9.36415 13.3265L6.63589 13.3265L6.63589 14.6565L9.36415 14.6565Z" fill="#E5E5E5"/>
</g>
</svg>
