<svg width="17" height="17" viewBox="0 0 17 17" fill="none" xmlns="http://www.w3.org/2000/svg">
<mask id="mask0_107_1292" style="mask-type:alpha" maskUnits="userSpaceOnUse" x="0" y="0" width="17" height="17">
<rect x="0.195557" y="0.0490723" width="16" height="16" fill="#DCDCDC"/>
</mask>
<g mask="url(#mask0_107_1292)">
<path d="M14.8621 4.04875L14.8621 2.71541C14.8621 1.97903 14.2651 1.38208 13.5287 1.38208L12.1954 1.38208L12.1954 2.71541L13.5287 2.71541L13.5287 4.04875L14.8621 4.04875Z" fill="#E5E5E5"/>
<path d="M6.86206 1.38208L6.86206 2.71541L9.52873 2.71541L9.52873 1.38208L6.86206 1.38208Z" fill="#E5E5E5"/>
<path d="M14.8621 6.71541L13.5287 6.71541L13.5287 7.38208L10.8621 7.38208L10.8621 8.71541L13.5287 8.71541L13.5287 9.38208L14.8621 9.38208L14.8621 6.71541Z" fill="#E5E5E5"/>
<path d="M14.8621 12.0487L13.5287 12.0487L13.5287 13.3821L12.1954 13.3821L12.1954 14.7154L13.5287 14.7154C14.2651 14.7154 14.8621 14.1185 14.8621 13.3821L14.8621 12.0487Z" fill="#E5E5E5"/>
<path d="M9.52873 14.7154L9.52873 13.3821L8.86206 13.3821L8.86206 10.7154L7.52873 10.7154L7.52873 13.3821L6.86206 13.3821L6.86206 14.7154L9.52873 14.7154Z" fill="#E5E5E5"/>
<path d="M2.86206 7.38208L5.52873 7.38208L5.52873 8.71541L2.86206 8.71541L2.86206 7.38208Z" fill="#E5E5E5"/>
<path d="M8.86206 5.38208L8.86206 2.71541L7.52873 2.71541L7.52873 5.38208L8.86206 5.38208Z" fill="#E5E5E5"/>
<path d="M2.86247 1.38208L4.1958 1.38208L4.1958 2.71541L2.86247 2.71541L2.86247 13.3821L4.1958 13.3821L4.1958 14.7154L2.86247 14.7154C2.12609 14.7154 1.52913 14.1185 1.52913 13.3821L1.52913 2.71541C1.52913 1.97903 2.12609 1.38208 2.86247 1.38208Z" fill="black"/>
</g>
</svg>
