<svg width="16" height="16" viewBox="0 0 16 16" fill="none" xmlns="http://www.w3.org/2000/svg">
<path fill-rule="evenodd" clip-rule="evenodd" d="M12.665 2.66496H3.33496C2.96493 2.66496 2.66496 2.96493 2.66496 3.33496V12.665C2.66496 13.035 2.96493 13.335 3.33496 13.335H12.665C13.035 13.335 13.335 13.035 13.335 12.665V3.33496C13.335 2.96493 13.035 2.66496 12.665 2.66496ZM3.33496 1.33496C2.23039 1.33496 1.33496 2.23039 1.33496 3.33496V12.665C1.33496 13.7695 2.23039 14.665 3.33496 14.665H12.665C13.7695 14.665 14.665 13.7695 14.665 12.665V3.33496C14.665 2.23039 13.7695 1.33496 12.665 1.33496H3.33496Z" fill="black"/>
<path fill-rule="evenodd" clip-rule="evenodd" d="M13.2559 14.1963L1.64941 2.58984L2.58987 1.64939L14.1963 13.2558L13.2559 14.1963Z" fill="#E5E5E5"/>
</svg>
