<svg width="17" height="17" viewBox="0 0 17 17" fill="none" xmlns="http://www.w3.org/2000/svg">
<path fill-rule="evenodd" clip-rule="evenodd" d="M13.2764 2.95793H3.94641C3.57638 2.95793 3.27641 3.2579 3.27641 3.62793V12.9579C3.27641 13.328 3.57638 13.6279 3.94641 13.6279H13.2764C13.6464 13.6279 13.9464 13.328 13.9464 12.9579V3.62793C13.9464 3.2579 13.6464 2.95793 13.2764 2.95793ZM3.94641 1.62793C2.84184 1.62793 1.94641 2.52336 1.94641 3.62793V12.9579C1.94641 14.0625 2.84184 14.9579 3.94641 14.9579H13.2764C14.381 14.9579 15.2764 14.0625 15.2764 12.9579V3.62793C15.2764 2.52336 14.381 1.62793 13.2764 1.62793H3.94641Z" fill="black"/>
<path fill-rule="evenodd" clip-rule="evenodd" d="M13.8673 14.4893L2.26086 2.88281L3.20132 1.94236L14.8078 13.5488L13.8673 14.4893Z" fill="#E5E5E5"/>
</svg>
