<svg width="17" height="17" viewBox="0 0 17 17" fill="none" xmlns="http://www.w3.org/2000/svg">
<mask id="mask0_102_1204" style="mask-type:alpha" maskUnits="userSpaceOnUse" x="0" y="0" width="17" height="17">
<rect x="0.250183" y="0.40625" width="16" height="16" fill="#DCDCDC"/>
</mask>
<g mask="url(#mask0_102_1204)">
<rect x="1.93988" y="12.6562" width="12.6205" height="2.79107" rx="1.39554" fill="#E5E5E5"/>
<path fill-rule="evenodd" clip-rule="evenodd" d="M7.99664 2.57069C7.59302 2.05771 7.10966 1.68854 6.63466 1.50243C6.11882 1.30028 5.40184 1.25862 4.95066 1.83566C4.5486 2.34994 4.581 3.10899 4.82709 3.91045C4.93826 4.27259 5.11865 4.62903 5.37541 4.97266C5.38713 4.98834 5.39945 5.00329 5.41229 5.01752C5.4217 5.02789 5.4314 5.03788 5.44133 5.04746C5.45477 5.06043 5.46874 5.07267 5.48315 5.08419L3.75659 6.81071C3.51774 7.04955 3.51774 7.43683 3.75659 7.67569L7.48775 11.4068C7.72666 11.6457 8.11394 11.6457 8.35278 11.4068L13.0831 6.67651C13.3219 6.43766 13.3219 6.05039 13.0831 5.81155L9.35191 2.08037C9.11306 1.84153 8.72579 1.84153 8.48695 2.08037L7.99664 2.57069ZM7.71181 4.91288C7.72271 4.98224 7.73182 5.05302 7.73898 5.12518C7.77251 5.46131 8.07213 5.70663 8.40825 5.6731C8.74438 5.6396 8.98972 5.33994 8.9562 5.00382C8.90804 4.52113 8.79269 4.0731 8.6291 3.66819L8.91946 3.37784L11.7856 6.24403L10.8608 7.16886H5.12843L7.6582 4.63909C7.67903 4.72777 7.69702 4.81905 7.71181 4.91288ZM7.12302 3.44433C6.8246 3.02658 6.47279 2.75283 6.18833 2.64136C6.05252 2.58814 5.96546 2.58477 5.92656 2.58984C5.92268 2.59037 5.91947 2.59093 5.91678 2.59147L5.91208 2.59257C5.89185 2.62604 5.78612 2.86628 5.99645 3.5514C6.0626 3.76685 6.1728 3.99252 6.34325 4.2241L7.12302 3.44433Z" fill="black"/>
<path d="M12.4434 11.9528C12.8956 11.9528 13.2622 11.5862 13.2622 11.134C13.2622 10.854 12.9483 10.3347 12.7092 9.9798C12.5801 9.78823 12.3066 9.78823 12.1776 9.97981C11.9385 10.3347 11.6246 10.854 11.6246 11.134C11.6246 11.5862 11.9912 11.9528 12.4434 11.9528Z" fill="black"/>
</g>
</svg>
