<svg width="16" height="16" viewBox="0 0 16 16" fill="none" xmlns="http://www.w3.org/2000/svg">
<mask id="mask0_436_42" style="mask-type:alpha" maskUnits="userSpaceOnUse" x="0" y="0" width="16" height="16">
<rect x="16" y="16" width="16" height="16" transform="rotate(180 16 16)" fill="#D9D9D9"/>
</mask>
<g mask="url(#mask0_436_42)">
<path d="M3.30081 13.6064L14.426 8.50936L13.9262 7.41841L4.06619 11.9358L8.58355 2.07575L7.4926 1.57594L2.39559 12.7012L2.0873 12.8424L2.20909 13.1082L2.06861 13.4148L2.4242 13.5778L2.58712 13.9334L2.89374 13.7929L3.15956 13.9147L3.30081 13.6064Z" fill="black"/>
<path fill-rule="evenodd" clip-rule="evenodd" d="M12.0924 14.6565L13.4565 14.6565C14.1193 14.6565 14.6565 14.1192 14.6565 13.4565L14.6565 12.0924L13.3265 12.0924L13.3265 13.3265L12.0924 13.3265L12.0924 14.6565ZM1.34351 12.0924L1.34351 13.4565C1.34351 14.1192 1.88076 14.6565 2.54351 14.6565L3.90764 14.6565L3.90764 13.3265L2.67351 13.3265L2.67351 12.0924L1.34351 12.0924ZM9.36415 14.6565L9.36415 13.3265L6.63589 13.3265L6.63589 14.6565L9.36415 14.6565ZM1.34351 9.36411L2.67351 9.36411L2.67351 6.63585L1.34351 6.63585L1.34351 9.36411ZM1.34351 3.90759L2.67351 3.90759L2.67351 2.67346L3.90763 2.67346L3.90763 1.34346L2.54351 1.34346C1.88076 1.34346 1.34351 1.88072 1.34351 2.54346L1.34351 3.90759ZM6.63589 1.34346L6.63589 2.67346L9.36415 2.67346L9.36415 1.34346L6.63589 1.34346ZM12.0924 1.34346L12.0924 2.67346L13.3265 2.67346L13.3265 3.90759L14.6565 3.90759L14.6565 2.54346C14.6565 1.88072 14.1193 1.34346 13.4565 1.34346L12.0924 1.34346ZM14.6565 6.63585L13.3265 6.63585L13.3265 9.36411L14.6565 9.36411L14.6565 6.63585Z" fill="#E5E5E5"/>
</g>
</svg>
