<svg width="17" height="17" viewBox="0 0 17 17" fill="none" xmlns="http://www.w3.org/2000/svg">
<mask id="mask0_107_1297" style="mask-type:alpha" maskUnits="userSpaceOnUse" x="0" y="0" width="17" height="17">
<rect x="0.195557" y="0.0490723" width="16" height="16" fill="#DCDCDC"/>
</mask>
<g mask="url(#mask0_107_1297)">
<path d="M1.52881 4.04899L1.52881 2.71566C1.52881 1.97928 2.12576 1.38232 2.86214 1.38232L4.19548 1.38232L4.19548 2.71566L2.86214 2.71566L2.86214 4.04899L1.52881 4.04899Z" fill="#E5E5E5"/>
<path d="M9.52881 1.38232L9.52881 2.71566L6.86214 2.71566L6.86214 1.38232L9.52881 1.38232Z" fill="#E5E5E5"/>
<path d="M1.52881 6.71566L2.86214 6.71566L2.86214 7.38232L5.52881 7.38232L5.52881 8.71566L2.86214 8.71566L2.86214 9.38232L1.52881 9.38232L1.52881 6.71566Z" fill="#E5E5E5"/>
<path d="M1.52881 12.049L2.86214 12.049L2.86214 13.3823L4.19548 13.3823L4.19548 14.7157L2.86214 14.7157C2.12576 14.7157 1.52881 14.1187 1.52881 13.3823L1.52881 12.049Z" fill="#E5E5E5"/>
<path d="M6.86214 14.7157L6.86214 13.3823L7.52881 13.3823L7.52881 10.7157L8.86214 10.7157L8.86214 13.3823L9.52881 13.3823L9.52881 14.7157L6.86214 14.7157Z" fill="#E5E5E5"/>
<path d="M13.5288 7.38232L10.8621 7.38232L10.8621 8.71566L13.5288 8.71566L13.5288 7.38232Z" fill="#E5E5E5"/>
<path d="M7.52881 5.38232L7.52881 2.71566L8.86214 2.71566L8.86214 5.38232L7.52881 5.38232Z" fill="#E5E5E5"/>
<path d="M13.5289 1.38232L12.1956 1.38232L12.1956 2.71566L13.5289 2.71566L13.5289 13.3823L12.1956 13.3823L12.1956 14.7157L13.5289 14.7157C14.2653 14.7157 14.8622 14.1187 14.8622 13.3823L14.8622 2.71566C14.8622 1.97928 14.2653 1.38232 13.5289 1.38232Z" fill="black"/>
</g>
</svg>
