<svg width="16" height="16" viewBox="0 0 16 16" fill="none" xmlns="http://www.w3.org/2000/svg">
<mask id="mask0_436_41" style="mask-type:alpha" maskUnits="userSpaceOnUse" x="0" y="0" width="16" height="16">
<rect width="16" height="16" fill="#D9D9D9"/>
</mask>
<g mask="url(#mask0_436_41)">
<path fill-rule="evenodd" clip-rule="evenodd" d="M1.91906 13.2325L13.2328 1.91881L14.0813 2.76733L2.76759 14.081L1.91906 13.2325Z" fill="black"/>
<path fill-rule="evenodd" clip-rule="evenodd" d="M3.90759 1.34351L2.54346 1.34351C1.88072 1.34351 1.34346 1.88076 1.34346 2.54351L1.34346 3.90764L2.67346 3.90764L2.67346 2.67351L3.90759 2.67351L3.90759 1.34351ZM14.6565 3.90763L14.6565 2.54351C14.6565 1.88076 14.1192 1.34351 13.4565 1.34351L12.0924 1.34351L12.0924 2.67351L13.3265 2.67351L13.3265 3.90763L14.6565 3.90763ZM6.63585 1.34351L6.63585 2.67351L9.36411 2.67351L9.36411 1.34351L6.63585 1.34351ZM14.6565 6.63589L13.3265 6.63589L13.3265 9.36415L14.6565 9.36415L14.6565 6.63589ZM14.6565 12.0924L13.3265 12.0924L13.3265 13.3265L12.0924 13.3265L12.0924 14.6565L13.4565 14.6565C14.1192 14.6565 14.6565 14.1193 14.6565 13.4565L14.6565 12.0924ZM9.36411 14.6565L9.36411 13.3265L6.63585 13.3265L6.63585 14.6565L9.36411 14.6565ZM3.90759 14.6565L3.90759 13.3265L2.67346 13.3265L2.67346 12.0924L1.34346 12.0924L1.34346 13.4565C1.34346 14.1193 1.88072 14.6565 2.54346 14.6565L3.90759 14.6565ZM1.34346 9.36415L2.67346 9.36415L2.67346 6.63589L1.34346 6.63589L1.34346 9.36415Z" fill="#E5E5E5"/>
</g>
</svg>
