<svg width="17" height="17" viewBox="0 0 17 17" fill="none" xmlns="http://www.w3.org/2000/svg">
<mask id="mask0_107_1282" style="mask-type:alpha" maskUnits="userSpaceOnUse" x="0" y="0" width="17" height="17">
<rect x="0.195557" y="0.0490723" width="16" height="16" fill="#DCDCDC"/>
</mask>
<g mask="url(#mask0_107_1282)">
<path d="M4.19572 14.7161H2.86239C2.12601 14.7161 1.52905 14.1191 1.52905 13.3827V12.0494H2.86239V13.3827L4.19572 13.3827V14.7161Z" fill="#E5E5E5"/>
<path d="M1.52905 6.71606H2.86239V9.38273H1.52905V6.71606Z" fill="#E5E5E5"/>
<path d="M6.86239 14.7161V13.3827H7.52905V10.7161H8.86239V13.3827H9.52905V14.7161H6.86239Z" fill="#E5E5E5"/>
<path d="M12.1957 14.7161V13.3827H13.5291V12.0494H14.8624V13.3827C14.8624 14.1191 14.2654 14.7161 13.5291 14.7161H12.1957Z" fill="#E5E5E5"/>
<path d="M14.8624 9.38273H13.5291V8.71606H10.8624V7.38273H13.5291V6.71606H14.8624V9.38273Z" fill="#E5E5E5"/>
<path d="M7.52905 2.71606V5.38273H8.86239V2.71606H7.52905Z" fill="#E5E5E5"/>
<path d="M5.52905 8.71606H2.86239V7.38273H5.52905V8.71606Z" fill="#E5E5E5"/>
<path d="M1.52905 2.71696V4.05029H2.86239L2.86239 2.71696H13.5291V4.05029H14.8624V2.71696C14.8624 1.98058 14.2654 1.38363 13.5291 1.38363H2.86239C2.12601 1.38363 1.52905 1.98058 1.52905 2.71696Z" fill="black"/>
</g>
</svg>
