<svg width="17" height="17" viewBox="0 0 17 17" fill="none" xmlns="http://www.w3.org/2000/svg">
<mask id="mask0_248_119" style="mask-type:alpha" maskUnits="userSpaceOnUse" x="0" y="0" width="17" height="17">
<rect x="16.8252" y="0.483398" width="16" height="16" transform="rotate(90 16.8252 0.483398)" fill="#DCDCDC"/>
</mask>
<g mask="url(#mask0_248_119)">
<path d="M3.49219 1.81665L4.82552 1.81665L4.82552 3.14998L3.49219 3.14998L3.49219 4.48332L2.15885 4.48332L2.15885 3.14998C2.15885 2.4136 2.75581 1.81665 3.49219 1.81665Z" fill="#E5E5E5"/>
<path d="M15.4922 3.14998L15.4922 4.48332L14.1589 4.48332L14.1589 3.14998L12.8255 3.14998L12.8255 1.81665L14.1589 1.81665C14.8952 1.81665 15.4922 2.4136 15.4922 3.14998Z" fill="#E5E5E5"/>
<path d="M7.49219 3.14998L7.49219 1.81665L10.1589 1.81665L10.1589 3.14998L7.49219 3.14998Z" fill="#E5E5E5"/>
<path d="M14.1589 7.14998L15.4922 7.14998L15.4922 9.81665L14.1589 9.81665L14.1589 9.14836L12.8397 9.14836L12.8397 7.81836L14.1589 7.81836L14.1589 7.14998Z" fill="#E5E5E5"/>
<path d="M14.1589 12.4833L15.4922 12.4833L15.4922 13.8167C15.4922 14.553 14.8952 15.15 14.1589 15.15L12.8255 15.15L12.8255 13.8167L14.1589 13.8167L14.1589 12.4833Z" fill="#E5E5E5"/>
<path d="M10.1589 13.8167L10.1589 15.15L7.49219 15.15L7.49219 13.8167L10.1589 13.8167Z" fill="#E5E5E5"/>
<path d="M4.82552 13.8166L4.82552 15.15L3.49219 15.15C2.75581 15.15 2.15885 14.553 2.15885 13.8166L2.15885 12.4833L3.49219 12.4833L3.49219 13.8166L4.82552 13.8166Z" fill="#E5E5E5"/>
<path d="M3.49219 9.81665L2.15885 9.81665L2.15885 7.14998L3.49219 7.14998L3.49219 7.81836L4.81143 7.81836L4.81143 9.14836L3.49219 9.14836L3.49219 9.81665Z" fill="#E5E5E5"/>
<path d="M10.1636 7.81836L7.48752 7.81836L7.48752 9.14836L10.1636 9.14836L10.1636 7.81836Z" fill="#E5E5E5"/>
<path d="M9.49097 9.15015L9.49097 7.81681L9.49089 3.15015L8.15755 3.15015L8.15755 7.81681L8.15763 9.15015L8.15755 13.8168L9.49088 13.8168L9.49097 9.15015Z" fill="black"/>
</g>
</svg>
