<svg width="16" height="16" viewBox="0 0 16 16" fill="none" xmlns="http://www.w3.org/2000/svg">
<rect opacity="0.01" width="16" height="16" fill="black"/>
<path fill-rule="evenodd" clip-rule="evenodd" d="M8.09973 1.50049C4.51022 1.50049 1.59973 4.41098 1.59973 8.00049C1.59973 11.59 4.51022 14.5005 8.09973 14.5005C11.6892 14.5005 14.5997 11.59 14.5997 8.00049C14.5997 4.41098 11.6892 1.50049 8.09973 1.50049ZM10.4995 10.4701L9.5419 10.4657L8.09971 8.74643L6.65897 10.4643L5.69993 10.4686C5.63609 10.4686 5.58386 10.4179 5.58386 10.3526C5.58386 10.325 5.59402 10.2989 5.61143 10.2771L7.49904 8.02824L5.61143 5.7808C5.59402 5.75904 5.58386 5.73292 5.58386 5.70536C5.58386 5.64152 5.63609 5.58929 5.69993 5.58929L6.65897 5.59364L8.09971 7.31295L9.54045 5.59509L10.498 5.59074C10.5619 5.59074 10.6141 5.64152 10.6141 5.70681C10.6141 5.73438 10.604 5.76049 10.5865 5.78225L8.70183 8.02969L10.588 10.2786C10.6054 10.3003 10.6156 10.3265 10.6156 10.354C10.6156 10.4179 10.5633 10.4701 10.4995 10.4701Z" fill="black"/>
</svg>
