<svg width="16" height="16" viewBox="0 0 16 16" fill="none" xmlns="http://www.w3.org/2000/svg">
<circle cx="8" cy="8" r="7" fill="black"/>
<path d="M10.3557 6.58469C10.6154 6.32499 10.6154 5.90394 10.3557 5.64424C10.096 5.38454 9.67492 5.38454 9.41523 5.64424L7.99996 7.05951L6.58469 5.64424C6.32499 5.38454 5.90394 5.38454 5.64424 5.64424C5.38454 5.90394 5.38454 6.32499 5.64424 6.58469L7.05951 7.99996L5.64399 9.41547C5.38429 9.67517 5.38429 10.0962 5.64399 10.3559C5.90369 10.6156 6.32475 10.6156 6.58444 10.3559L7.99996 8.94041L9.41547 10.3559C9.67517 10.6156 10.0962 10.6156 10.3559 10.3559C10.6156 10.0962 10.6156 9.67517 10.3559 9.41547L8.94041 7.99996L10.3557 6.58469Z" fill="white"/>
</svg>
