<svg width="17" height="17" viewBox="0 0 17 17" fill="none" xmlns="http://www.w3.org/2000/svg">
<rect opacity="0.01" x="0.387817" y="0.211914" width="16" height="16" fill="black"/>
<path fill-rule="evenodd" clip-rule="evenodd" d="M8.48755 1.7124C4.89804 1.7124 1.98755 4.62289 1.98755 8.2124C1.98755 11.8019 4.89804 14.7124 8.48755 14.7124C12.0771 14.7124 14.9875 11.8019 14.9875 8.2124C14.9875 4.62289 12.0771 1.7124 8.48755 1.7124ZM10.8873 10.682L9.92972 10.6777L8.48753 8.95834L7.04679 10.6762L6.08775 10.6806C6.02391 10.6806 5.97168 10.6298 5.97168 10.5645C5.97168 10.5369 5.98184 10.5108 5.99925 10.489L7.88686 8.24015L5.99925 5.99272C5.98184 5.97095 5.97168 5.94484 5.97168 5.91727C5.97168 5.85343 6.02391 5.8012 6.08775 5.8012L7.04679 5.80555L8.48753 7.52486L9.92826 5.807L10.8859 5.80265C10.9497 5.80265 11.0019 5.85343 11.0019 5.91872C11.0019 5.94629 10.9918 5.97241 10.9744 5.99417L9.08965 8.2416L10.9758 10.4905C10.9932 10.5122 11.0034 10.5384 11.0034 10.5659C11.0034 10.6298 10.9511 10.682 10.8873 10.682Z" fill="black"/>
</svg>
