<svg width="17" height="17" viewBox="0 0 17 17" fill="none" xmlns="http://www.w3.org/2000/svg">
<mask id="mask0_17_693" style="mask-type:alpha" maskUnits="userSpaceOnUse" x="0" y="0" width="17" height="17">
<rect x="0.52417" y="0.928955" width="16" height="16" fill="#35322B"/>
</mask>
<g mask="url(#mask0_17_693)">
<path fill-rule="evenodd" clip-rule="evenodd" d="M8.52417 13.429C11.0095 13.429 13.0242 11.4142 13.0242 8.92896C13.0242 6.44367 11.0095 4.42896 8.52417 4.42896C6.03889 4.42896 4.02417 6.44367 4.02417 8.92896C4.02417 11.4142 6.03889 13.429 8.52417 13.429ZM8.52417 15.929C12.3902 15.929 15.5242 12.7949 15.5242 8.92896C15.5242 5.06296 12.3902 1.92896 8.52417 1.92896C4.65818 1.92896 1.52417 5.06296 1.52417 8.92896C1.52417 12.7949 4.65818 15.929 8.52417 15.929Z" fill="black"/>
<path fill-rule="evenodd" clip-rule="evenodd" d="M7.31722 3.18333C7.31722 2.49298 7.87687 1.93333 8.56722 1.93333C12.4308 1.93333 15.5628 5.06538 15.5628 8.92895C15.5628 12.7925 12.4308 15.9246 8.56722 15.9246C6.789 15.9246 5.16309 15.2595 3.9294 14.1663C3.4127 13.7085 3.36497 12.9185 3.8228 12.4018C4.28063 11.8851 5.07065 11.8374 5.58735 12.2952C6.38144 12.9988 7.4231 13.4246 8.56722 13.4246C11.0501 13.4246 13.0628 11.4118 13.0628 8.92895C13.0628 6.44609 11.0501 4.43333 8.56722 4.43333C7.87687 4.43333 7.31722 3.87369 7.31722 3.18333Z" fill="black"/>
</g>
</svg>
