<svg width="17" height="17" viewBox="0 0 17 17" fill="none" xmlns="http://www.w3.org/2000/svg">
<mask id="mask0_17_688" style="mask-type:alpha" maskUnits="userSpaceOnUse" x="0" y="0" width="17" height="17">
<rect x="0.530762" y="0.928955" width="16" height="16" fill="#35322B"/>
</mask>
<g mask="url(#mask0_17_688)">
<path fill-rule="evenodd" clip-rule="evenodd" d="M8.53076 1.92896C4.66514 1.92896 1.53076 5.06333 1.53076 8.92896C1.53076 12.7946 4.66514 15.929 8.53076 15.929C12.3964 15.929 15.5308 12.7946 15.5308 8.92896C15.5308 5.06333 12.3964 1.92896 8.53076 1.92896ZM11.1151 11.5883L10.0839 11.5836L8.53076 9.73208L6.9792 11.5821L5.94639 11.5868C5.87764 11.5868 5.82139 11.5321 5.82139 11.4618C5.82139 11.4321 5.83232 11.404 5.85107 11.3805L7.88389 8.95864L5.85107 6.53833C5.83232 6.51489 5.82139 6.48677 5.82139 6.45708C5.82139 6.38833 5.87764 6.33208 5.94639 6.33208L6.9792 6.33677L8.53076 8.18833L10.0823 6.33833L11.1136 6.33364C11.1823 6.33364 11.2386 6.38833 11.2386 6.45864C11.2386 6.48833 11.2276 6.51645 11.2089 6.53989L9.1792 8.9602L11.2104 11.3821C11.2292 11.4055 11.2401 11.4336 11.2401 11.4633C11.2401 11.5321 11.1839 11.5883 11.1151 11.5883Z" fill="black"/>
</g>
</svg>
