<svg width="16" height="16" viewBox="0 0 16 16" fill="none" xmlns="http://www.w3.org/2000/svg">
<path fill-rule="evenodd" clip-rule="evenodd" d="M5.52943 4.13222C5.04447 4.67313 4.80329 5.36617 4.62433 5.99255C4.54276 6.27804 4.28182 6.47486 3.98491 6.47486C3.72674 6.47486 3.03127 6.58556 2.42111 6.96691C1.84767 7.32531 1.36491 7.90552 1.36491 8.91236C1.36491 9.80719 1.69848 10.2829 2.08883 10.5603C2.51561 10.8635 3.09316 10.9849 3.61991 10.9849C3.98718 10.9849 4.28491 11.2826 4.28491 11.6499C4.28491 12.0171 3.98718 12.3149 3.61991 12.3149C2.92999 12.3149 2.04754 12.1625 1.31849 11.6445C0.553008 11.1006 0.0349121 10.2075 0.0349121 8.91236C0.0349121 7.3642 0.829659 6.39317 1.71621 5.83907C2.32373 5.45937 2.98092 5.26778 3.47867 5.18939C3.67501 4.59078 3.98278 3.86495 4.53915 3.24438C5.26756 2.43192 6.3651 1.85986 7.99991 1.85986C9.41175 1.85986 10.4787 2.26651 11.2508 2.90069C11.8794 3.4171 12.2805 4.05785 12.5207 4.68054C12.5765 4.69352 12.6367 4.70846 12.7006 4.72562C13.0475 4.81876 13.5169 4.98086 13.9925 5.25826C14.9641 5.82501 15.9649 6.88563 15.9649 8.72986C15.9649 9.98478 15.5388 10.9172 14.8131 11.522C14.1088 12.109 13.2087 12.3149 12.3799 12.3149C12.0126 12.3149 11.7149 12.0171 11.7149 11.6499C11.7149 11.2826 12.0126 10.9849 12.3799 10.9849C13.0111 10.9849 13.5711 10.8258 13.9617 10.5002C14.331 10.1925 14.6349 9.66494 14.6349 8.72986C14.6349 7.4716 13.9933 6.79847 13.3223 6.40709C12.9766 6.20543 12.6248 6.08237 12.3557 6.01012C12.2225 5.97434 12.1129 5.95192 12.0392 5.93875C12.0024 5.93218 11.9748 5.92797 11.9579 5.92556L11.941 5.92326L11.9406 5.9232L11.9404 5.92318L11.9404 5.92317L11.9391 5.92303C11.672 5.8924 11.4494 5.70379 11.3755 5.44505C11.2218 4.90708 10.9197 4.34994 10.4066 3.92841C9.9011 3.51321 9.14307 3.18986 7.99991 3.18986C6.71472 3.18986 5.98726 3.62155 5.52943 4.13222ZM10.2952 9.35444C10.5549 9.61414 10.5549 10.0352 10.2952 10.2949L8.94046 11.6497L10.2952 13.0044C10.5549 13.2641 10.5549 13.6852 10.2952 13.9449C10.0355 14.2046 9.61448 14.2046 9.35478 13.9449L8.00001 12.5901L6.64524 13.9449C6.38554 14.2046 5.96448 14.2046 5.70478 13.9449C5.44509 13.6852 5.44509 13.2641 5.70478 13.0044L7.05956 11.6497L5.70478 10.2949C5.44509 10.0352 5.44509 9.61414 5.70478 9.35444C5.96448 9.09474 6.38554 9.09474 6.64524 9.35444L8.00001 10.7092L9.35478 9.35444C9.61448 9.09474 10.0355 9.09474 10.2952 9.35444Z" fill="black"/>
</svg>
