<svg width="17" height="17" viewBox="0 0 17 17" fill="none" xmlns="http://www.w3.org/2000/svg">
<mask id="mask0_102_585" style="mask-type:alpha" maskUnits="userSpaceOnUse" x="0" y="0" width="17" height="17">
<rect x="0.605957" y="0.544922" width="16" height="16" fill="#D9D9D9"/>
</mask>
<g mask="url(#mask0_102_585)">
<path d="M8.60606 12.2665C8.2526 12.2665 7.96606 11.98 7.96606 11.6265V3.3065C7.96606 2.95304 8.2526 2.6665 8.60606 2.6665C8.95953 2.6665 9.24606 2.95304 9.24606 3.3065V11.6265C9.24606 11.98 8.95953 12.2665 8.60606 12.2665Z" fill="black"/>
<path d="M8.60604 14.4232C9.06627 14.4232 9.43937 14.0501 9.43937 13.5899C9.43937 13.1296 9.06627 12.7565 8.60604 12.7565C8.14581 12.7565 7.77271 13.1296 7.77271 13.5899C7.77271 14.0501 8.14581 14.4232 8.60604 14.4232Z" fill="black"/>
<path d="M10.0459 3.85322V5.20152C11.7807 5.48023 13.4499 6.26607 14.8141 7.55897C15.0814 7.81224 15.5033 7.8009 15.7566 7.53365C16.0099 7.26641 15.9985 6.84445 15.7313 6.59118C14.1094 5.0542 12.1128 4.14157 10.0459 3.85322Z" fill="black"/>
<path d="M2.96246 7.0663C4.21077 6.0644 5.66367 5.44281 7.16587 5.20149V3.85334C5.36626 4.10453 3.61995 4.82892 2.12787 6.02647C1.90626 6.20435 1.69034 6.3926 1.48079 6.59119C1.21355 6.84445 1.20222 7.26641 1.45548 7.53366C1.70875 7.8009 2.13071 7.81223 2.39795 7.55897C2.58094 7.38556 2.76929 7.22135 2.96246 7.0663Z" fill="black"/>
<path d="M3.46797 8.88159C4.51858 7.83098 5.81086 7.16934 7.16587 6.89668V8.26318C6.15633 8.51474 5.20003 9.03514 4.41078 9.8244C4.15043 10.0847 3.72832 10.0847 3.46797 9.8244C3.20762 9.56405 3.20762 9.14194 3.46797 8.88159Z" fill="black"/>
<path d="M10.0459 8.2631V6.89661C11.401 7.16923 12.6934 7.83089 13.7441 8.88159C14.0045 9.14194 14.0045 9.56405 13.7441 9.8244C13.4838 10.0847 13.0616 10.0847 12.8013 9.8244C12.012 9.03505 11.0555 8.51462 10.0459 8.2631Z" fill="black"/>
<path d="M5.46797 11.0532C5.96285 10.5583 6.54553 10.2047 7.16587 9.99245V11.44C6.89416 11.5823 6.63911 11.7676 6.41078 11.996C6.15043 12.2563 5.72832 12.2563 5.46797 11.996C5.20762 11.7356 5.20762 11.3135 5.46797 11.0532Z" fill="black"/>
<path d="M10.0459 11.4398V9.99233C10.6663 10.2046 11.2491 10.5582 11.7441 11.0532C12.0045 11.3135 12.0045 11.7356 11.7441 11.996C11.4838 12.2563 11.0616 12.2563 10.8013 11.996C10.5729 11.7675 10.3177 11.5822 10.0459 11.4398Z" fill="black"/>
</g>
</svg>
