<svg width="16" height="16" viewBox="0 0 16 16" fill="none" xmlns="http://www.w3.org/2000/svg">
<mask id="mask0_102_585" style="mask-type:alpha" maskUnits="userSpaceOnUse" x="0" y="0" width="16" height="16">
<rect width="16" height="16" fill="#D9D9D9"/>
</mask>
<g mask="url(#mask0_102_585)">
<path d="M8.00011 11.7216C7.64665 11.7216 7.36011 11.435 7.36011 11.0816V2.76158C7.36011 2.40812 7.64665 2.12158 8.00011 2.12158C8.35357 2.12158 8.64011 2.40812 8.64011 2.76158V11.0816C8.64011 11.435 8.35357 11.7216 8.00011 11.7216Z" fill="black"/>
<path d="M8.00008 13.8783C8.46032 13.8783 8.83342 13.5052 8.83342 13.045C8.83342 12.5847 8.46032 12.2116 8.00008 12.2116C7.53985 12.2116 7.16675 12.5847 7.16675 13.045C7.16675 13.5052 7.53985 13.8783 8.00008 13.8783Z" fill="black"/>
<path d="M9.43991 3.3083V4.6566C11.1747 4.93531 12.8439 5.72115 14.2082 7.01405C14.4754 7.26731 14.8974 7.25598 15.1506 6.98873C15.4039 6.72149 15.3926 6.29953 15.1253 6.04626C13.5035 4.50928 11.5069 3.59665 9.43991 3.3083Z" fill="black"/>
<path d="M2.3565 6.52137C3.60481 5.51948 5.05771 4.89789 6.55991 4.65657V3.30842C4.7603 3.55961 3.014 4.284 1.52191 5.48155C1.3003 5.65943 1.08439 5.84768 0.874838 6.04627C0.607592 6.29953 0.59626 6.72149 0.849526 6.98873C1.10279 7.25598 1.52475 7.26731 1.79199 7.01405C1.97498 6.84063 2.16333 6.67643 2.3565 6.52137Z" fill="black"/>
<path d="M2.86201 8.33667C3.91262 7.28606 5.2049 6.62442 6.55991 6.35175V7.71826C5.55037 7.96981 4.59408 8.49022 3.80482 9.27947C3.54447 9.53982 3.12236 9.53982 2.86201 9.27947C2.60166 9.01912 2.60166 8.59701 2.86201 8.33667Z" fill="black"/>
<path d="M9.43991 7.71818V6.35169C10.795 6.62431 12.0875 7.28597 13.1382 8.33667C13.3985 8.59701 13.3985 9.01912 13.1382 9.27947C12.8778 9.53982 12.4557 9.53982 12.1953 9.27947C11.406 8.49013 10.4496 7.9697 9.43991 7.71818Z" fill="black"/>
<path d="M4.86201 10.5082C5.35689 10.0134 5.93957 9.65979 6.55991 9.44753V10.8951C6.28821 11.0374 6.03315 11.2227 5.80482 11.451C5.54447 11.7114 5.12236 11.7114 4.86201 11.451C4.60166 11.1907 4.60166 10.7686 4.86201 10.5082Z" fill="black"/>
<path d="M9.43991 10.8949V9.44741C10.0604 9.65966 10.6432 10.0133 11.1382 10.5082C11.3985 10.7686 11.3985 11.1907 11.1382 11.451C10.8778 11.7114 10.4557 11.7114 10.1953 11.451C9.96691 11.2226 9.71174 11.0372 9.43991 10.8949Z" fill="black"/>
</g>
</svg>
