<svg width="16" height="16" viewBox="0 0 16 16" fill="none" xmlns="http://www.w3.org/2000/svg">
<mask id="mask0_102_580" style="mask-type:alpha" maskUnits="userSpaceOnUse" x="0" y="0" width="16" height="16">
<rect width="16" height="16" fill="#D9D9D9"/>
</mask>
<g mask="url(#mask0_102_580)">
<path fill-rule="evenodd" clip-rule="evenodd" d="M5.82613 4.56746C5.40036 5.04236 5.18674 5.65314 5.02643 6.21425C4.94606 6.49553 4.68897 6.68945 4.39644 6.68945C4.17409 6.68945 3.56092 6.78651 3.0238 7.12221C2.52284 7.43531 2.10324 7.93892 2.10324 8.81885C2.10324 9.60442 2.39454 10.0131 2.72844 10.2503C3.09823 10.5131 3.60322 10.6206 4.06884 10.6206C4.43069 10.6206 4.72404 10.914 4.72404 11.2758C4.72404 11.6377 4.43069 11.931 4.06884 11.931C3.44246 11.931 2.63705 11.7929 1.96945 11.3185C1.26595 10.8187 0.792847 9.99887 0.792847 8.81885C0.792847 7.40558 1.51984 6.5169 2.32929 6.011C2.8676 5.67455 3.44845 5.50028 3.89776 5.42544C4.07573 4.89085 4.35413 4.2463 4.85044 3.69271C5.51609 2.95026 6.5174 2.43066 8.00003 2.43066C9.27898 2.43066 10.2502 2.7993 10.9548 3.3781C11.5184 3.84106 11.881 4.41324 12.1008 4.9709C12.1429 4.98097 12.1875 4.99222 12.2342 5.00477C12.549 5.08928 12.9754 5.23648 13.408 5.48878C14.2932 6.00515 15.2072 6.97409 15.2072 8.65505C15.2072 9.79541 14.8194 10.6501 14.1525 11.2059C13.5065 11.7442 12.6838 11.931 11.9312 11.931C11.5694 11.931 11.276 11.6377 11.276 11.2758C11.276 10.914 11.5694 10.6206 11.9312 10.6206C12.4891 10.6206 12.9767 10.4799 13.3136 10.1992C13.6294 9.93602 13.8968 9.48028 13.8968 8.65505C13.8968 7.55142 13.3367 6.96426 12.7477 6.62068C12.4431 6.443 12.1325 6.33426 11.8944 6.27034C11.7766 6.23871 11.6799 6.21893 11.6151 6.20737C11.5828 6.2016 11.5587 6.19792 11.5442 6.19585L11.53 6.19391L11.5302 6.19393L11.5307 6.19398C11.2667 6.16442 11.0466 5.97834 10.9736 5.72285C10.8382 5.24885 10.5726 4.75996 10.123 4.39067C9.68107 4.02762 9.01427 3.74106 8.00003 3.74106C6.86186 3.74106 6.22518 4.12236 5.82613 4.56746ZM11.53 6.19391L11.5294 6.19384L11.5286 6.19374C11.5284 6.19372 11.5288 6.19377 11.53 6.19391Z" fill="black"/>
<path fill-rule="evenodd" clip-rule="evenodd" d="M11.0302 9.12626C11.3127 9.35231 11.3585 9.76463 11.1325 10.0472L8.51171 13.3232C8.40173 13.4606 8.24107 13.5481 8.06592 13.5658C7.89077 13.5835 7.71587 13.5299 7.58063 13.4172L5.61504 11.7792C5.33705 11.5476 5.2995 11.1344 5.53115 10.8564C5.7628 10.5785 6.17595 10.5409 6.45393 10.7725L7.90602 11.9826L10.1093 9.22859C10.3353 8.94603 10.7476 8.90021 11.0302 9.12626Z" fill="black"/>
</g>
</svg>
