<svg width="16" height="16" viewBox="0 0 16 16" fill="none" xmlns="http://www.w3.org/2000/svg">
<path d="M4.62433 5.99255C4.80329 5.36617 5.04447 4.67313 5.52943 4.13222C5.98726 3.62155 6.71472 3.18986 7.99991 3.18986C9.14307 3.18986 9.9011 3.51321 10.4066 3.92841C10.9197 4.34994 11.2218 4.90708 11.3755 5.44505C11.4494 5.70379 11.672 5.8924 11.9391 5.92303C11.9395 5.92308 11.94 5.92313 11.9404 5.92317C11.9403 5.92316 11.9404 5.92318 11.9404 5.92317L11.9579 5.92556C11.9748 5.92797 12.0024 5.93218 12.0392 5.93875C12.1129 5.95192 12.2225 5.97434 12.3557 6.01012C12.6248 6.08237 12.9766 6.20543 13.3223 6.40709C13.9933 6.79847 14.6349 7.4716 14.6349 8.72986C14.6349 9.66494 14.331 10.1925 13.9617 10.5002C13.5711 10.8258 13.0111 10.9849 12.3799 10.9849C12.0126 10.9849 11.7149 11.2826 11.7149 11.6499C11.7149 12.0171 12.0126 12.3149 12.3799 12.3149C13.2087 12.3149 14.1088 12.109 14.8131 11.522C15.5388 10.9172 15.9649 9.98478 15.9649 8.72986C15.9649 6.88563 14.9641 5.82501 13.9925 5.25826C13.5169 4.98086 13.0475 4.81876 12.7006 4.72562C12.6367 4.70846 12.5765 4.69352 12.5207 4.68054C12.2805 4.05785 11.8794 3.4171 11.2508 2.90069C10.4787 2.26651 9.41175 1.85986 7.99991 1.85986C6.3651 1.85986 5.26756 2.43192 4.53915 3.24438C3.98278 3.86495 3.67501 4.59078 3.47867 5.18939C2.98092 5.26778 2.32373 5.45937 1.71621 5.83907C0.829659 6.39317 0.0349121 7.3642 0.0349121 8.91236C0.0349121 10.2075 0.553008 11.1006 1.31849 11.6445C2.04754 12.1625 2.92999 12.3149 3.61991 12.3149C3.98718 12.3149 4.28491 12.0171 4.28491 11.6499C4.28491 11.2826 3.98718 10.9849 3.61991 10.9849C3.09316 10.9849 2.51561 10.8635 2.08883 10.5603C1.69848 10.2829 1.36491 9.80719 1.36491 8.91236C1.36491 7.90552 1.84767 7.32531 2.42111 6.96691C3.03127 6.58556 3.72674 6.47486 3.98491 6.47486C4.28182 6.47486 4.54276 6.27804 4.62433 5.99255Z" fill="black"/>
<path d="M11.4393 10.2401C11.6687 9.95333 11.6222 9.53485 11.3355 9.30541C11.0487 9.07598 10.6302 9.12248 10.4008 9.40927L7.90457 12.5295L6.23576 11.1388C5.95361 10.9037 5.53429 10.9418 5.29917 11.224C5.06405 11.5061 5.10217 11.9254 5.38431 12.1606L7.57431 13.9856C7.71158 14.0999 7.88909 14.1543 8.06686 14.1363C8.24463 14.1184 8.4077 14.0296 8.51931 13.8901L11.4393 10.2401Z" fill="black"/>
</svg>
