<svg width="17" height="17" viewBox="0 0 17 17" fill="none" xmlns="http://www.w3.org/2000/svg">
<mask id="mask0_102_580" style="mask-type:alpha" maskUnits="userSpaceOnUse" x="0" y="0" width="17" height="17">
<rect x="0.0649414" y="0.544922" width="16" height="16" fill="#D9D9D9"/>
</mask>
<g mask="url(#mask0_102_580)">
<path fill-rule="evenodd" clip-rule="evenodd" d="M5.89107 5.11238C5.4653 5.58728 5.25169 6.19806 5.09137 6.75917C5.011 7.04045 4.75391 7.23438 4.46138 7.23438C4.23903 7.23438 3.62587 7.33143 3.08874 7.66713C2.58779 7.98023 2.16818 8.48384 2.16818 9.36377C2.16818 10.1493 2.45948 10.558 2.79338 10.7953C3.16317 11.058 3.66816 11.1656 4.13378 11.1656C4.49564 11.1656 4.78898 11.4589 4.78898 11.8208C4.78898 12.1826 4.49564 12.476 4.13378 12.476C3.5074 12.476 2.702 12.3378 2.03439 11.8635C1.33089 11.3636 0.857788 10.5438 0.857788 9.36377C0.857788 7.9505 1.58478 7.06182 2.39423 6.55592C2.93255 6.21947 3.51339 6.0452 3.96271 5.97037C4.14067 5.43578 4.41907 4.79122 4.91539 4.23763C5.58103 3.49519 6.58234 2.97559 8.06497 2.97559C9.34392 2.97559 10.3151 3.34422 11.0197 3.92302C11.5834 4.38598 11.946 4.95817 12.1657 5.51582C12.2078 5.52589 12.2524 5.53714 12.2992 5.54969C12.6139 5.63421 13.0404 5.78141 13.4729 6.0337C14.3581 6.55007 15.2722 7.51901 15.2722 9.19997C15.2722 10.3403 14.8844 11.195 14.2174 11.7508C13.5715 12.2891 12.7487 12.476 11.9962 12.476C11.6343 12.476 11.341 12.1826 11.341 11.8208C11.341 11.4589 11.6343 11.1656 11.9962 11.1656C12.554 11.1656 13.0417 11.0248 13.3785 10.7441C13.6943 10.4809 13.9618 10.0252 13.9618 9.19997C13.9618 8.09634 13.4016 7.50918 12.8126 7.1656C12.508 6.98792 12.1974 6.87919 11.9593 6.81526C11.8415 6.78363 11.7449 6.76386 11.6801 6.75229C11.6478 6.74652 11.6237 6.74284 11.6092 6.74077L11.5949 6.73883L11.5952 6.73885L11.5956 6.73891C11.3316 6.70934 11.1116 6.52326 11.0386 6.26777C10.9031 5.79377 10.6376 5.30488 10.188 4.9356C9.74601 4.57255 9.07921 4.28598 8.06497 4.28598C6.92681 4.28598 6.29012 4.66728 5.89107 5.11238ZM11.5949 6.73883L11.5944 6.73876L11.5935 6.73866C11.5933 6.73864 11.5938 6.73869 11.5949 6.73883Z" fill="black"/>
<path fill-rule="evenodd" clip-rule="evenodd" d="M11.0951 9.67143C11.3777 9.89748 11.4235 10.3098 11.1974 10.5924L8.57665 13.8683C8.46668 14.0058 8.30601 14.0932 8.13086 14.1109C7.95571 14.1286 7.78081 14.0751 7.64558 13.9624L5.67998 12.3244C5.402 12.0927 5.36444 11.6796 5.59609 11.4016C5.82775 11.1236 6.24089 11.0861 6.51888 11.3177L7.97097 12.5278L10.1742 9.77376C10.4002 9.49119 10.8126 9.44538 11.0951 9.67143Z" fill="black"/>
</g>
</svg>
