<svg width="16" height="16" viewBox="0 0 16 16" fill="none" xmlns="http://www.w3.org/2000/svg">
<path fill-rule="evenodd" clip-rule="evenodd" d="M1.36975 7.99963C1.36975 4.33785 4.33821 1.36938 8 1.36938C11.6618 1.36938 14.6302 4.33785 14.6302 7.99963C14.6302 11.6614 11.6618 14.6299 8 14.6299C4.33821 14.6299 1.36975 11.6614 1.36975 7.99963ZM5.13752 9.9814C4.90702 9.57689 5.24951 9.1345 5.71508 9.1345C5.92603 9.1345 6.11083 9.26608 6.22137 9.44576C6.58857 10.0426 7.24776 10.4405 7.99989 10.4405C8.75202 10.4405 9.41121 10.0426 9.77841 9.44576C9.88895 9.26608 10.0737 9.1345 10.2847 9.1345C10.7503 9.1345 11.0928 9.57689 10.8623 9.9814C10.2957 10.9756 9.22609 11.646 7.99989 11.646C6.77369 11.646 5.70407 10.9756 5.13752 9.9814ZM10.1096 5.43633C10.4425 5.43633 10.7124 5.70619 10.7124 6.03908V7.24458C10.7124 7.57747 10.4425 7.84733 10.1096 7.84733C9.77673 7.84733 9.50687 7.57747 9.50687 7.24458V6.03908C9.50687 5.70619 9.77673 5.43633 10.1096 5.43633ZM6.49312 6.03908C6.49312 5.70619 6.22327 5.43633 5.89038 5.43633C5.55749 5.43633 5.28763 5.70619 5.28763 6.03908V7.24458C5.28763 7.57747 5.55749 7.84733 5.89038 7.84733C6.22327 7.84733 6.49312 7.57747 6.49312 7.24458V6.03908Z" fill="black"/>
</svg>
