<svg width="17" height="17" viewBox="0 0 17 17" fill="none" xmlns="http://www.w3.org/2000/svg">
<path fill-rule="evenodd" clip-rule="evenodd" d="M1.67749 8.2113C1.67749 4.54952 4.64595 1.58105 8.30774 1.58105C11.9695 1.58105 14.938 4.54952 14.938 8.2113C14.938 11.8731 11.9695 14.8416 8.30774 14.8416C4.64595 14.8416 1.67749 11.8731 1.67749 8.2113ZM5.44526 10.1931C5.21476 9.78856 5.55725 9.34617 6.02282 9.34617C6.23377 9.34617 6.41857 9.47775 6.52911 9.65742C6.89631 10.2542 7.5555 10.6522 8.30763 10.6522C9.05976 10.6522 9.71895 10.2542 10.0861 9.65742C10.1967 9.47775 10.3815 9.34617 10.5924 9.34617C11.058 9.34617 11.4005 9.78856 11.17 10.1931C10.6035 11.1873 9.53383 11.8577 8.30763 11.8577C7.08143 11.8577 6.01181 11.1873 5.44526 10.1931ZM10.4174 5.648C10.7503 5.648 11.0201 5.91786 11.0201 6.25075V7.45625C11.0201 7.78914 10.7503 8.059 10.4174 8.059C10.0845 8.059 9.81461 7.78914 9.81461 7.45625V6.25075C9.81461 5.91786 10.0845 5.648 10.4174 5.648ZM6.80086 6.25075C6.80086 5.91786 6.531 5.648 6.19811 5.648C5.86522 5.648 5.59536 5.91786 5.59536 6.25075V7.45625C5.59536 7.78914 5.86522 8.059 6.19811 8.059C6.531 8.059 6.80086 7.78914 6.80086 7.45625V6.25075Z" fill="black"/>
</svg>
