<svg width="16" height="16" viewBox="0 0 16 16" fill="none" xmlns="http://www.w3.org/2000/svg">
<path fill-rule="evenodd" clip-rule="evenodd" d="M15 8C15 11.866 11.866 15 8 15C4.134 15 1 11.866 1 8C1 4.134 4.134 1 8 1C11.866 1 15 4.134 15 8ZM5.39845 9.79663C5.69341 9.64915 6.05177 9.76742 6.20128 10.0607L6.20225 10.0625C6.20427 10.0662 6.2087 10.0742 6.21561 10.086C6.22945 10.1095 6.25297 10.1473 6.2866 10.1948C6.35434 10.2904 6.46018 10.4209 6.60707 10.5515C6.89579 10.8082 7.34246 11.0666 8.00012 11.0666C8.65777 11.0666 9.10444 10.8082 9.39316 10.5515C9.54005 10.4209 9.64589 10.2904 9.71362 10.1948C9.74726 10.1473 9.77078 10.1095 9.78462 10.086C9.79153 10.0742 9.79596 10.0662 9.79798 10.0625L9.79875 10.0611C9.94813 9.76753 10.3067 9.64908 10.6018 9.79663C10.8982 9.94482 11.0183 10.3052 10.8701 10.6016L10.3334 10.3333C10.8701 10.6016 10.8702 10.6013 10.8701 10.6016L10.8695 10.6027L10.8689 10.604L10.8675 10.6068L10.8638 10.614L10.8531 10.634C10.8446 10.6498 10.8331 10.6704 10.8185 10.6952C10.7893 10.7446 10.7478 10.8109 10.6929 10.8884C10.5835 11.0428 10.4185 11.2456 10.1904 11.4484C9.72913 11.8584 9.00912 12.2666 8.00012 12.2666C6.99111 12.2666 6.27111 11.8584 5.80983 11.4484C5.58172 11.2456 5.41672 11.0428 5.30738 10.8884C5.25247 10.8109 5.21088 10.7446 5.18176 10.6952C5.16718 10.6704 5.15566 10.6498 5.1471 10.634L5.13645 10.614L5.13275 10.6068L5.13131 10.604L5.13068 10.6027C5.13055 10.6025 5.13013 10.6016 5.66678 10.3333L5.13013 10.6016C4.98193 10.3052 5.10207 9.94482 5.39845 9.79663ZM10.3332 5.3999C10.6645 5.3999 10.9332 5.66853 10.9332 5.9999V7.33324C10.9332 7.66461 10.6645 7.93324 10.3332 7.93324C10.0018 7.93324 9.73315 7.66461 9.73315 7.33324V5.9999C9.73315 5.66853 10.0018 5.3999 10.3332 5.3999ZM6.26665 5.9999C6.26665 5.66853 5.99802 5.3999 5.66665 5.3999C5.33528 5.3999 5.06665 5.66853 5.06665 5.9999V7.33324C5.06665 7.66461 5.33528 7.93324 5.66665 7.93324C5.99802 7.93324 6.26665 7.66461 6.26665 7.33324V5.9999Z" fill="black"/>
</svg>
