<svg width="16" height="16" viewBox="0 0 16 16" fill="none" xmlns="http://www.w3.org/2000/svg">
<path d="M8 15C11.866 15 15 11.866 15 8C15 4.134 11.866 1 8 1C4.134 1 1 4.134 1 8C1 11.866 4.134 15 8 15Z" fill="black"/>
<path fill-rule="evenodd" clip-rule="evenodd" d="M6.33171 5.99996C6.33171 5.63269 6.03398 5.33496 5.66671 5.33496C5.29944 5.33496 5.00171 5.63269 5.00171 5.99996V7.33329C5.00171 7.70056 5.29944 7.99829 5.66671 7.99829C6.03398 7.99829 6.33171 7.70056 6.33171 7.33329V5.99996ZM10.3332 5.33496C10.7005 5.33496 10.9982 5.63269 10.9982 5.99996V7.33329C10.9982 7.70056 10.7005 7.99829 10.3332 7.99829C9.96594 7.99829 9.66821 7.70056 9.66821 7.33329V5.99996C9.66821 5.63269 9.96594 5.33496 10.3332 5.33496ZM6.25953 10.0319L6.25869 10.0303L6.25888 10.0307L6.25889 10.0307L6.25953 10.0319ZM9.67883 10.0353L6.25889 10.0307L6.25939 10.0316C6.26106 10.0347 6.2651 10.042 6.27159 10.053C6.28461 10.0751 6.30714 10.1114 6.33963 10.1573C6.3647 10.1927 6.3952 10.2331 6.43131 10.2766L5.66677 10.3334C5.07197 10.6308 5.07212 10.6311 5.07227 10.6314L5.07259 10.632L5.07327 10.6333L5.07483 10.6364L5.07877 10.6441L5.08993 10.6651C5.09884 10.6815 5.11075 10.7028 5.12574 10.7283C5.15569 10.7791 5.19826 10.8469 5.25432 10.9261C5.36591 11.0836 5.53412 11.2904 5.76663 11.4971C6.23725 11.9154 6.97206 12.3317 8.0001 12.3317C9.02814 12.3317 9.76295 11.9154 10.2336 11.4971C10.4661 11.2904 10.6343 11.0836 10.7459 10.9261C10.8019 10.8469 10.8445 10.7791 10.8745 10.7283C10.8895 10.7028 10.9014 10.6815 10.9103 10.6651L10.9214 10.6441L10.9254 10.6364L10.9269 10.6333L10.9276 10.632L10.9279 10.6314C10.9281 10.6311 10.9282 10.6308 10.3515 10.3424L10.9282 10.6308C11.0925 10.3023 10.9593 9.90281 10.6308 9.73856C10.3041 9.5752 9.90719 9.70604 9.74132 10.0307L9.74131 10.0307L9.67883 10.0353ZM9.73873 10.0354L9.67883 10.0353L6.43131 10.2766C6.48952 10.3467 6.56229 10.4248 6.65023 10.503C6.92961 10.7513 7.36147 11.0017 8.0001 11.0017C8.63873 11.0017 9.07059 10.7513 9.34996 10.503C9.49245 10.3763 9.59508 10.2498 9.66057 10.1573C9.69305 10.1114 9.71559 10.0751 9.72861 10.053C9.73319 10.0453 9.73656 10.0393 9.73873 10.0354ZM9.73892 10.0354L9.73873 10.0354L9.74081 10.0316L9.74052 10.0322L9.73969 10.0339L9.73919 10.0349L9.73892 10.0354ZM9.73892 10.0354L9.73864 10.036L10.3334 10.3334C9.73864 10.036 9.73878 10.0357 9.73892 10.0354Z" fill="white"/>
</svg>
