<svg width="25" height="25" viewBox="0 0 25 25" fill="none" xmlns="http://www.w3.org/2000/svg">
<mask id="mask0_17_397" style="mask-type:alpha" maskUnits="userSpaceOnUse" x="0" y="0" width="25" height="25">
<rect x="0.713989" y="0.426758" width="24" height="24" fill="#D9D9D9"/>
</mask>
<g mask="url(#mask0_17_397)">
<path fill-rule="evenodd" clip-rule="evenodd" d="M1.71399 12.4268C1.71399 6.35162 6.63885 1.42676 12.714 1.42676C18.7891 1.42676 23.714 6.35162 23.714 12.4268C23.714 18.5019 18.7891 23.4268 12.714 23.4268C6.63885 23.4268 1.71399 18.5019 1.71399 12.4268ZM7.96496 15.7146C7.58254 15.0435 8.15075 14.3096 8.92316 14.3096C9.27315 14.3096 9.57973 14.5279 9.76313 14.826C10.3723 15.8161 11.466 16.4763 12.7138 16.4763C13.9616 16.4763 15.0553 15.8161 15.6645 14.826C15.8479 14.5279 16.1545 14.3096 16.5045 14.3096C17.2769 14.3096 17.8451 15.0435 17.4627 15.7146C16.5227 17.3641 14.7481 18.4763 12.7138 18.4763C10.6795 18.4763 8.9049 17.3641 7.96496 15.7146ZM16.214 8.17407C16.7663 8.17407 17.214 8.62179 17.214 9.17407V11.1741C17.214 11.7264 16.7663 12.1741 16.214 12.1741C15.6617 12.1741 15.214 11.7264 15.214 11.1741V9.17407C15.214 8.62179 15.6617 8.17407 16.214 8.17407ZM10.214 9.17407C10.214 8.62179 9.76627 8.17407 9.21399 8.17407C8.6617 8.17407 8.21399 8.62179 8.21399 9.17407V11.1741C8.21399 11.7264 8.6617 12.1741 9.21399 12.1741C9.76627 12.1741 10.214 11.7264 10.214 11.1741V9.17407Z" fill="black"/>
</g>
</svg>
