<svg width="17" height="17" viewBox="0 0 17 17" fill="none" xmlns="http://www.w3.org/2000/svg">
<rect opacity="0.01" x="0.387817" y="0.211914" width="16" height="16" fill="black"/>
<path fill-rule="evenodd" clip-rule="evenodd" d="M8.38843 1.8125C4.79892 1.8125 1.88843 4.72299 1.88843 8.3125C1.88843 11.902 4.79892 14.8125 8.38843 14.8125C11.9779 14.8125 14.8884 11.902 14.8884 8.3125C14.8884 4.72299 11.9779 1.8125 8.38843 1.8125ZM11.196 6.18984L8.1404 10.4265C7.95614 10.6833 7.57456 10.6833 7.39029 10.4265L5.58103 7.91931C5.5259 7.84241 5.58103 7.73504 5.67534 7.73504H6.35581C6.5038 7.73504 6.64453 7.80614 6.73159 7.92801L7.76462 9.3615L10.0454 6.19855C10.1325 6.07813 10.2718 6.00558 10.4212 6.00558H11.1017C11.196 6.00558 11.2511 6.11295 11.196 6.18984Z" fill="black"/>
</svg>
