<svg width="16" height="16" viewBox="0 0 16 16" fill="none" xmlns="http://www.w3.org/2000/svg">
<rect opacity="0.01" width="16" height="16" fill="black"/>
<path fill-rule="evenodd" clip-rule="evenodd" d="M8.00061 1.60059C4.4111 1.60059 1.50061 4.51108 1.50061 8.10059C1.50061 11.6901 4.4111 14.6006 8.00061 14.6006C11.5901 14.6006 14.5006 11.6901 14.5006 8.10059C14.5006 4.51108 11.5901 1.60059 8.00061 1.60059ZM10.8082 5.97793L7.75259 10.2145C7.56832 10.4713 7.18674 10.4713 7.00248 10.2145L5.19321 7.70739C5.13808 7.6305 5.19321 7.52313 5.28752 7.52313H5.96799C6.11598 7.52313 6.25672 7.59422 6.34377 7.7161L7.37681 9.14958L9.65761 5.98664C9.74466 5.86621 9.88395 5.79367 10.0334 5.79367H10.7139C10.8082 5.79367 10.8633 5.90103 10.8082 5.97793Z" fill="black"/>
</svg>
