<svg width="16" height="16" viewBox="0 0 16 16" fill="none" xmlns="http://www.w3.org/2000/svg">
<path fill-rule="evenodd" clip-rule="evenodd" d="M8 15C11.866 15 15 11.866 15 8C15 4.13401 11.866 1 8 1C4.13401 1 1 4.13401 1 8C1 11.866 4.13401 15 8 15ZM11.7245 6.42417C11.9588 6.18985 11.9588 5.80995 11.7245 5.57564C11.4901 5.34132 11.1102 5.34132 10.8759 5.57564L7.3002 9.15137L5.72446 7.57564C5.49014 7.34132 5.11025 7.34132 4.87593 7.57564C4.64162 7.80995 4.64162 8.18985 4.87593 8.42417L6.87593 10.4242C7.11025 10.6585 7.49014 10.6585 7.72446 10.4242L11.7245 6.42417Z" fill="black"/>
</svg>
