<svg width="17" height="17" viewBox="0 0 17 17" fill="none" xmlns="http://www.w3.org/2000/svg">
<mask id="mask0_17_683" style="mask-type:alpha" maskUnits="userSpaceOnUse" x="0" y="0" width="17" height="17">
<rect x="0.537354" y="0.928955" width="16" height="16" fill="#35322B"/>
</mask>
<g mask="url(#mask0_17_683)">
<path fill-rule="evenodd" clip-rule="evenodd" d="M8.53735 1.92896C4.67173 1.92896 1.53735 5.06333 1.53735 8.92896C1.53735 12.7946 4.67173 15.929 8.53735 15.929C12.403 15.929 15.5374 12.7946 15.5374 8.92896C15.5374 5.06333 12.403 1.92896 8.53735 1.92896ZM11.5608 6.64302L8.27017 11.2055C8.07173 11.4821 7.66079 11.4821 7.46235 11.2055L5.51392 8.50552C5.45454 8.4227 5.51392 8.30708 5.61548 8.30708H6.34829C6.50767 8.30708 6.65923 8.38364 6.75298 8.51489L7.86548 10.0586L10.3217 6.65239C10.4155 6.52271 10.5655 6.44458 10.7264 6.44458H11.4592C11.5608 6.44458 11.6202 6.56021 11.5608 6.64302Z" fill="black"/>
</g>
</svg>
