<svg width="16" height="16" viewBox="0 0 16 16" fill="none" xmlns="http://www.w3.org/2000/svg">
<path fill-rule="evenodd" clip-rule="evenodd" d="M1.40051 8.00049C1.40051 4.41098 4.311 1.50049 7.90051 1.50049C11.49 1.50049 14.4005 4.41098 14.4005 8.00049C14.4005 11.59 11.49 14.5005 7.90051 14.5005C4.311 14.5005 1.40051 11.59 1.40051 8.00049ZM7.31368 5.3379L7.56087 9.33424H8.24066L8.49816 5.3379L8.51876 4.12252H7.28278L7.31368 5.3379ZM7.07678 11.0646C7.07678 11.5693 7.44758 11.8783 7.90077 11.8783C8.35396 11.8783 8.72476 11.5693 8.72476 11.0646C8.72476 10.5805 8.35396 10.2612 7.90077 10.2612C7.44758 10.2612 7.07678 10.5805 7.07678 11.0646Z" fill="black"/>
</svg>
