<svg width="17" height="17" viewBox="0 0 17 17" fill="none" xmlns="http://www.w3.org/2000/svg">
<mask id="mask0_17_698" style="mask-type:alpha" maskUnits="userSpaceOnUse" x="0" y="0" width="17" height="17">
<rect x="0.51709" y="0.928955" width="16" height="16" fill="#35322B"/>
</mask>
<g mask="url(#mask0_17_698)">
<path fill-rule="evenodd" clip-rule="evenodd" d="M1.51709 8.92896C1.51709 5.06333 4.65146 1.92896 8.51709 1.92896C12.3827 1.92896 15.5171 5.06333 15.5171 8.92896C15.5171 12.7946 12.3827 15.929 8.51709 15.929C4.65146 15.929 1.51709 12.7946 1.51709 8.92896ZM7.88513 6.06162L8.15134 10.3654H8.88342L9.16073 6.06162L9.18291 4.75275H7.85186L7.88513 6.06162ZM7.63001 12.2288C7.63001 12.7724 8.02933 13.1051 8.51738 13.1051C9.00544 13.1051 9.40475 12.7724 9.40475 12.2288C9.40475 11.7075 9.00544 11.3637 8.51738 11.3637C8.02933 11.3637 7.63001 11.7075 7.63001 12.2288Z" fill="black"/>
</g>
</svg>
