<svg width="17" height="17" viewBox="0 0 17 17" fill="none" xmlns="http://www.w3.org/2000/svg">
<path fill-rule="evenodd" clip-rule="evenodd" d="M1.78833 8.2124C1.78833 4.62289 4.69882 1.7124 8.28833 1.7124C11.8778 1.7124 14.7883 4.62289 14.7883 8.2124C14.7883 11.8019 11.8778 14.7124 8.28833 14.7124C4.69882 14.7124 1.78833 11.8019 1.78833 8.2124ZM7.7015 5.54982L7.94869 9.54615H8.62848L8.88598 5.54982L8.90658 4.33444H7.6706L7.7015 5.54982ZM7.4646 11.2765C7.4646 11.7812 7.83539 12.0902 8.28859 12.0902C8.74178 12.0902 9.11257 11.7812 9.11257 11.2765C9.11257 10.7924 8.74178 10.4731 8.28859 10.4731C7.83539 10.4731 7.4646 10.7924 7.4646 11.2765Z" fill="black"/>
</svg>
