<svg width="16" height="16" viewBox="0 0 16 16" fill="none" xmlns="http://www.w3.org/2000/svg">
<path d="M2.95905 1.33105C2.05994 1.33105 1.33105 2.05993 1.33105 2.95905V5.70305C1.33105 6.60217 2.05993 7.33105 2.95905 7.33105H5.70305C6.60217 7.33105 7.33105 6.60217 7.33105 5.70305V2.95905C7.33105 2.05994 6.60217 1.33105 5.70305 1.33105H2.95905Z" fill="black"/>
<path d="M2.95905 8.66855C2.05994 8.66855 1.33105 9.39743 1.33105 10.2966V13.0406C1.33105 13.9397 2.05993 14.6686 2.95905 14.6686H5.70305C6.60217 14.6686 7.33105 13.9397 7.33105 13.0406V10.2966C7.33105 9.39743 6.60217 8.66855 5.70305 8.66855H2.95905Z" fill="black"/>
<path d="M8.6623 10.2966C8.6623 9.39743 9.39119 8.66855 10.2903 8.66855H13.0343C13.9334 8.66855 14.6623 9.39743 14.6623 10.2966V13.0406C14.6623 13.9397 13.9334 14.6686 13.0343 14.6686H10.2903C9.39119 14.6686 8.6623 13.9397 8.6623 13.0406V10.2966Z" fill="black"/>
<path fill-rule="evenodd" clip-rule="evenodd" d="M10.2903 1.33105C9.39119 1.33105 8.6623 2.05993 8.6623 2.95905V5.70305C8.6623 6.60217 9.39119 7.33105 10.2903 7.33105H13.0343C13.9334 7.33105 14.6623 6.60217 14.6623 5.70305V2.95905C14.6623 2.05994 13.9334 1.33105 13.0343 1.33105H10.2903ZM9.9983 2.95905C9.9983 2.79779 10.129 2.66705 10.2903 2.66705H13.0343C13.1956 2.66705 13.3263 2.79779 13.3263 2.95905V5.70305C13.3263 5.86432 13.1956 5.99505 13.0343 5.99505H10.2903C10.129 5.99505 9.9983 5.86432 9.9983 5.70305V2.95905Z" fill="black"/>
</svg>
