<svg width="45" height="45" viewBox="0 0 45 45" fill="none" xmlns="http://www.w3.org/2000/svg">
<path d="M14.5396 4.66935C13.1965 4.11305 11.7187 3.96749 10.2929 4.25109C8.86716 4.5347 7.55752 5.23472 6.5296 6.26263C5.50168 7.29055 4.80166 8.60019 4.51806 10.026C4.23446 11.4517 4.38002 12.9296 4.93632 14.2726C5.49262 15.6156 6.43469 16.7635 7.64339 17.5712C8.85209 18.3788 10.2731 18.8099 11.7268 18.8099C12.4724 18.8099 13.0768 18.2055 13.0768 17.4599C13.0768 16.7143 12.4724 16.1099 11.7268 16.1099C10.8072 16.1099 9.90812 15.8371 9.14343 15.3262C8.37875 14.8153 7.78274 14.089 7.43079 13.2393C7.07885 12.3897 6.98676 11.4547 7.16618 10.5527C7.3456 9.65068 7.78847 8.82213 8.43879 8.17182C9.0891 7.52151 9.91765 7.07864 10.8197 6.89921C11.7217 6.71979 12.6566 6.81188 13.5063 7.16383C14.356 7.51577 15.0822 8.11178 15.5932 8.87646C16.1041 9.64115 16.3768 10.5402 16.3768 11.4599C16.3768 12.2055 16.9812 12.8099 17.7268 12.8099C18.4724 12.8099 19.0768 12.2055 19.0768 11.4599C19.0768 10.0062 18.6458 8.58513 17.8381 7.37643C17.0305 6.16772 15.8826 5.22566 14.5396 4.66935Z" fill="black"/>
<path d="M31.3581 40.6941C32.7012 41.2504 34.179 41.3959 35.6048 41.1123C37.0305 40.8287 38.3402 40.1287 39.3681 39.1008C40.396 38.0729 41.096 36.7632 41.3796 35.3375C41.6632 33.9117 41.5177 32.4339 40.9614 31.0908C40.4051 29.7478 39.463 28.5999 38.2543 27.7922C37.0456 26.9846 35.6246 26.5535 34.1709 26.5535C33.4253 26.5535 32.8209 27.158 32.8209 27.9035C32.8209 28.6491 33.4253 29.2535 34.1709 29.2535C35.0906 29.2535 35.9896 29.5263 36.7543 30.0372C37.519 30.5482 38.115 31.2744 38.4669 32.1241C38.8189 32.9737 38.9109 33.9087 38.7315 34.8107C38.5521 35.7127 38.1092 36.5413 37.4589 37.1916C36.8086 37.8419 35.9801 38.2848 35.078 38.4642C34.176 38.6436 33.2411 38.5515 32.3914 38.1996C31.5417 37.8476 30.8155 37.2516 30.3045 36.4869C29.7936 35.7222 29.5209 34.8232 29.5209 33.9035C29.5209 33.158 28.9165 32.5535 28.1709 32.5535C27.4253 32.5535 26.8209 33.158 26.8209 33.9035C26.8209 35.3572 27.2519 36.7783 28.0596 37.987C28.8672 39.1957 30.0151 40.1377 31.3581 40.6941Z" fill="black"/>
<path fill-rule="evenodd" clip-rule="evenodd" d="M11.9026 11.6358C12.4298 11.1086 13.2846 11.1086 13.8118 11.6358L19.3031 17.1271H26.5937L32.0851 11.6358C32.6123 11.1086 33.467 11.1086 33.9942 11.6358C34.5215 12.163 34.5215 13.0177 33.9942 13.545L28.5033 19.0359V26.3272L33.9942 31.8182C34.5215 32.3454 34.5215 33.2002 33.9942 33.7274C33.467 34.2546 32.6123 34.2546 32.0851 33.7274L26.5941 28.2364H19.3028L13.8118 33.7274C13.2846 34.2546 12.4298 34.2546 11.9026 33.7274C11.3754 33.2002 11.3754 32.3454 11.9026 31.8182L17.3939 26.3269V19.0363L11.9026 13.545C11.3754 13.0177 11.3754 12.163 11.9026 11.6358ZM20.0939 25.5364V19.8271H25.8033V25.5364H20.0939Z" fill="black"/>
<path d="M41.3796 10.0262C41.6632 11.452 41.5177 12.9298 40.9614 14.2728C40.4051 15.6159 39.463 16.7638 38.2543 17.5714C37.0456 18.379 35.6246 18.8101 34.1709 18.8101C33.4253 18.8101 32.8209 18.2057 32.8209 17.4601C32.8209 16.7145 33.4253 16.1101 34.1709 16.1101C35.0906 16.1101 35.9896 15.8374 36.7543 15.3264C37.519 14.8155 38.115 14.0893 38.4669 13.2396C38.8189 12.3899 38.9109 11.455 38.7315 10.5529C38.5521 9.65093 38.1092 8.82238 37.4589 8.17206C36.8086 7.52175 35.9801 7.07888 35.078 6.89946C34.176 6.72004 33.2411 6.81212 32.3914 7.16407C31.5417 7.51602 30.8155 8.11202 30.3045 8.87671C29.7936 9.6414 29.5209 10.5404 29.5209 11.4601C29.5209 12.2057 28.9165 12.8101 28.1709 12.8101C27.4253 12.8101 26.8209 12.2057 26.8209 11.4601C26.8209 10.0064 27.2519 8.58537 28.0596 7.37667C28.8672 6.16797 30.0151 5.2259 31.3581 4.6696C32.7012 4.11329 34.179 3.96774 35.6048 4.25134C37.0305 4.53494 38.3402 5.23496 39.3681 6.26288C40.396 7.29079 41.096 8.60044 41.3796 10.0262Z" fill="black"/>
<path d="M4.51806 35.3373C4.23446 33.9116 4.38002 32.4337 4.93632 31.0907C5.49262 29.7477 6.43469 28.5997 7.64339 27.7921C8.85209 26.9845 10.2731 26.5534 11.7268 26.5534C12.4724 26.5534 13.0768 27.1578 13.0768 27.9034C13.0768 28.649 12.4724 29.2534 11.7268 29.2534C10.8072 29.2534 9.90812 29.5261 9.14343 30.0371C8.37874 30.548 7.78274 31.2743 7.43079 32.1239C7.07885 32.9736 6.98676 33.9086 7.16618 34.8106C7.3456 35.7126 7.78847 36.5411 8.43879 37.1915C9.0891 37.8418 9.91765 38.2846 10.8197 38.4641C11.7217 38.6435 12.6566 38.5514 13.5063 38.1995C14.356 37.8475 15.0822 37.2515 15.5932 36.4868C16.1041 35.7221 16.3768 34.8231 16.3768 33.9034C16.3768 33.1578 16.9812 32.5534 17.7268 32.5534C18.4724 32.5534 19.0768 33.1578 19.0768 33.9034C19.0768 35.3571 18.6458 36.7782 17.8381 37.9869C17.0305 39.1956 15.8826 40.1376 14.5396 40.6939C13.1965 41.2502 11.7187 41.3958 10.2929 41.1122C8.86716 40.8286 7.55752 40.1286 6.5296 39.1007C5.50168 38.0727 4.80166 36.7631 4.51806 35.3373Z" fill="black"/>
</svg>
