<svg width="44" height="44" viewBox="0 0 44 44" fill="none" xmlns="http://www.w3.org/2000/svg">
<path d="M13.5914 4.61759C12.2484 4.06129 10.7706 3.91574 9.3448 4.19934C7.91904 4.48294 6.6094 5.18296 5.58148 6.21087C4.55356 7.23879 3.85354 8.54843 3.56994 9.9742C3.28634 11.4 3.4319 12.8778 3.9882 14.2208C4.5445 15.5639 5.48657 16.7118 6.69527 17.5194C7.90397 18.327 9.32502 18.7581 10.7787 18.7581C11.5243 18.7581 12.1287 18.1537 12.1287 17.4081C12.1287 16.6625 11.5243 16.0581 10.7787 16.0581C9.85903 16.0581 8.96 15.7854 8.19531 15.2744C7.43062 14.7635 6.83462 14.0373 6.48267 13.1876C6.13073 12.3379 6.03864 11.403 6.21806 10.5009C6.39748 9.59893 6.84035 8.77038 7.49067 8.12006C8.14098 7.46975 8.96953 7.02688 9.87154 6.84746C10.7736 6.66804 11.7085 6.76012 12.5582 7.11207C13.4079 7.46402 14.1341 8.06002 14.645 8.82471C15.156 9.5894 15.4287 10.4884 15.4287 11.4081C15.4287 12.1537 16.0331 12.7581 16.7787 12.7581C17.5243 12.7581 18.1287 12.1537 18.1287 11.4081C18.1287 9.95442 17.6976 8.53337 16.89 7.32467C16.0824 6.11597 14.9345 5.1739 13.5914 4.61759Z" fill="black"/>
<path d="M30.41 40.6423C31.7531 41.1986 33.2309 41.3442 34.6567 41.0606C36.0824 40.777 37.3921 40.0769 38.42 39.049C39.4479 38.0211 40.1479 36.7115 40.4315 35.2857C40.7151 33.8599 40.5696 32.3821 40.0133 31.0391C39.457 29.696 38.5149 28.5481 37.3062 27.7405C36.0975 26.9328 34.6764 26.5018 33.2227 26.5018C32.4772 26.5018 31.8727 27.1062 31.8727 27.8518C31.8727 28.5974 32.4772 29.2018 33.2227 29.2018C34.1424 29.2018 35.0415 29.4745 35.8062 29.9854C36.5708 30.4964 37.1668 31.2226 37.5188 32.0723C37.8707 32.922 37.9628 33.8569 37.7834 34.7589C37.604 35.661 37.1611 36.4895 36.5108 37.1398C35.8605 37.7901 35.0319 38.233 34.1299 38.4124C33.2279 38.5919 32.2929 38.4998 31.4433 38.1478C30.5936 37.7959 29.8674 37.1999 29.3564 36.4352C28.8455 35.6705 28.5728 34.7715 28.5728 33.8518C28.5728 33.1062 27.9683 32.5018 27.2227 32.5018C26.4772 32.5018 25.8727 33.1062 25.8727 33.8518C25.8727 35.3055 26.3038 36.7265 27.1114 37.9352C27.9191 39.1439 29.067 40.086 30.41 40.6423Z" fill="black"/>
<path fill-rule="evenodd" clip-rule="evenodd" d="M10.9545 11.584C11.4817 11.0568 12.3365 11.0568 12.8637 11.584L18.355 17.0753H25.6456L31.1369 11.584C31.6641 11.0568 32.5189 11.0568 33.0461 11.584C33.5733 12.1112 33.5733 12.966 33.0461 13.4932L27.5552 18.9842V26.2755L33.0461 31.7665C33.5733 32.2937 33.5733 33.1484 33.0461 33.6756C32.5189 34.2028 31.6641 34.2028 31.1369 33.6756L25.646 28.1847H18.3546L12.8637 33.6756C12.3365 34.2028 11.4817 34.2028 10.9545 33.6756C10.4273 33.1484 10.4273 32.2937 10.9545 31.7665L16.4458 26.2751V18.9845L10.9545 13.4932C10.4273 12.966 10.4273 12.1112 10.9545 11.584ZM19.1458 25.4847V19.7753H24.8552V25.4847H19.1458Z" fill="black"/>
<path d="M40.4315 9.97444C40.7151 11.4002 40.5696 12.878 40.0133 14.2211C39.457 15.5641 38.5149 16.712 37.3062 17.5197C36.0975 18.3273 34.6764 18.7584 33.2227 18.7584C32.4772 18.7584 31.8727 18.1539 31.8727 17.4084C31.8727 16.6628 32.4772 16.0584 33.2227 16.0584C34.1424 16.0584 35.0415 15.7856 35.8062 15.2747C36.5708 14.7637 37.1668 14.0375 37.5188 13.1878C37.8707 12.3382 37.9628 11.4032 37.7834 10.5012C37.604 9.59917 37.1611 8.77062 36.5108 8.12031C35.8605 7.46999 35.0319 7.02712 34.1299 6.8477C33.2279 6.66828 32.2929 6.76037 31.4433 7.11231C30.5936 7.46426 29.8674 8.06026 29.3564 8.82495C28.8455 9.58964 28.5728 10.4887 28.5728 11.4084C28.5728 12.1539 27.9683 12.7584 27.2227 12.7584C26.4772 12.7584 25.8727 12.1539 25.8727 11.4084C25.8727 9.95466 26.3038 8.53361 27.1114 7.32491C27.9191 6.11621 29.067 5.17414 30.41 4.61784C31.7531 4.06153 33.2309 3.91598 34.6567 4.19958C36.0824 4.48318 37.3921 5.1832 38.42 6.21112C39.4479 7.23903 40.1479 8.54868 40.4315 9.97444Z" fill="black"/>
<path d="M3.56994 35.2856C3.28634 33.8598 3.4319 32.382 3.9882 31.0389C4.5445 29.6959 5.48657 28.548 6.69527 27.7404C7.90397 26.9327 9.32502 26.5017 10.7787 26.5017C11.5243 26.5017 12.1287 27.1061 12.1287 27.8517C12.1287 28.5972 11.5243 29.2017 10.7787 29.2017C9.85903 29.2017 8.96 29.4744 8.19531 29.9853C7.43062 30.4963 6.83462 31.2225 6.48267 32.0722C6.13073 32.9219 6.03864 33.8568 6.21806 34.7588C6.39748 35.6608 6.84035 36.4894 7.49067 37.1397C8.14098 37.79 8.96953 38.2329 9.87154 38.4123C10.7736 38.5917 11.7085 38.4996 12.5582 38.1477C13.4079 37.7957 14.1341 37.1997 14.645 36.4351C15.156 35.6704 15.4287 34.7713 15.4287 33.8517C15.4287 33.1061 16.0331 32.5017 16.7787 32.5017C17.5243 32.5017 18.1287 33.1061 18.1287 33.8517C18.1287 35.3053 17.6976 36.7264 16.89 37.9351C16.0824 39.1438 14.9345 40.0859 13.5914 40.6422C12.2484 41.1985 10.7706 41.344 9.3448 41.0604C7.91904 40.7768 6.6094 40.0768 5.58148 39.0489C4.55356 38.021 3.85354 36.7113 3.56994 35.2856Z" fill="black"/>
</svg>
