<svg width="17" height="16" viewBox="0 0 17 16" fill="none" xmlns="http://www.w3.org/2000/svg">
<path d="M9.92417 3.07417C9.68985 2.83986 9.30995 2.83986 9.07564 3.07417C8.84132 3.30849 8.84132 3.68839 9.07564 3.9227L12.5514 7.39844H2.9999C2.66853 7.39844 2.3999 7.66707 2.3999 7.99844C2.3999 8.32981 2.66853 8.59844 2.9999 8.59844H12.5514L9.07564 12.0742C8.84132 12.3085 8.84132 12.6884 9.07564 12.9227C9.30995 13.157 9.68985 13.157 9.92417 12.9227L14.4242 8.4227C14.5413 8.30554 14.5999 8.15199 14.5999 7.99844C14.5999 7.91708 14.5837 7.83951 14.5544 7.76877C14.5251 7.698 14.4817 7.6317 14.4242 7.57417L9.92417 3.07417Z" fill="black"/>
</svg>
