<svg width="16" height="16" viewBox="0 0 16 16" fill="none" xmlns="http://www.w3.org/2000/svg">
<path fill-rule="evenodd" clip-rule="evenodd" d="M7.99961 14.4016C9.69699 14.4016 11.3249 13.7273 12.5251 12.527C13.7253 11.3268 14.3996 9.69895 14.3996 8.00156C14.3996 6.30418 13.7253 4.67631 12.5251 3.47608C11.3249 2.27585 9.69699 1.60156 7.99961 1.60156C6.30222 1.60156 4.67436 2.27585 3.47413 3.47608C2.27389 4.67631 1.59961 6.30418 1.59961 8.00156C1.59961 9.69895 2.27389 11.3268 3.47413 12.527C4.67436 13.7273 6.30222 14.4016 7.99961 14.4016V14.4016ZM10.9652 7.43596L8.56521 5.03596C8.41433 4.89024 8.21225 4.8096 8.00249 4.81142C7.79273 4.81325 7.59208 4.89738 7.44375 5.04571C7.29543 5.19403 7.21129 5.39468 7.20947 5.60444C7.20765 5.8142 7.28828 6.01628 7.43401 6.16716L8.46841 7.20156H5.59961C5.38744 7.20156 5.18395 7.28585 5.03392 7.43588C4.88389 7.58591 4.79961 7.78939 4.79961 8.00156C4.79961 8.21374 4.88389 8.41722 5.03392 8.56725C5.18395 8.71728 5.38744 8.80156 5.59961 8.80156H8.46841L7.43401 9.83596C7.3576 9.90976 7.29665 9.99804 7.25473 10.0956C7.2128 10.1932 7.19073 10.2982 7.18981 10.4044C7.18889 10.5107 7.20913 10.616 7.24935 10.7143C7.28958 10.8126 7.34898 10.902 7.42409 10.9771C7.49921 11.0522 7.58853 11.1116 7.68685 11.1518C7.78516 11.192 7.89051 11.2123 7.99673 11.2114C8.10295 11.2104 8.20793 11.1884 8.30553 11.1464C8.40314 11.1045 8.49141 11.0436 8.56521 10.9672L10.9652 8.56716C11.1152 8.41714 11.1994 8.21369 11.1994 8.00156C11.1994 7.78943 11.1152 7.58598 10.9652 7.43596V7.43596Z" fill="black"/>
</svg>
