<svg width="16" height="16" viewBox="0 0 16 16" fill="none" xmlns="http://www.w3.org/2000/svg">
<path d="M11.8598 8.34957H7.64929V4.13905C7.64929 3.95293 7.57535 3.77444 7.44375 3.64283C7.31214 3.51123 7.13365 3.43729 6.94753 3.43729C5.83718 3.43729 4.75177 3.76655 3.82854 4.38343C2.90532 5.00031 2.18575 5.8771 1.76084 6.90293C1.33593 7.92876 1.22475 9.05755 1.44137 10.1466C1.65799 11.2356 2.19267 12.2359 2.97781 13.021C3.76295 13.8062 4.76327 14.3409 5.85229 14.5575C6.9413 14.7741 8.0701 14.6629 9.09593 14.238C10.1218 13.8131 10.9986 13.0935 11.6154 12.1703C12.2323 11.2471 12.5616 10.1617 12.5616 9.05133C12.5616 8.86521 12.4876 8.68672 12.356 8.55511C12.2244 8.42351 12.0459 8.34957 11.8598 8.34957Z" fill="black"/>
<path d="M9.05279 1.33203C8.86668 1.33203 8.68818 1.40597 8.55658 1.53757C8.42498 1.66917 8.35104 1.84767 8.35104 2.03379V6.94606C8.35104 7.13218 8.42498 7.31068 8.55658 7.44228C8.68818 7.57388 8.86668 7.64782 9.05279 7.64782H13.9651C14.1512 7.64782 14.3297 7.57388 14.4613 7.44228C14.5929 7.31068 14.6668 7.13218 14.6668 6.94606C14.6652 5.45764 14.0731 4.03066 13.0207 2.97819C11.9682 1.92572 10.5412 1.3337 9.05279 1.33203Z" fill="black"/>
</svg>
