<svg width="17" height="16" viewBox="0 0 17 16" fill="none" xmlns="http://www.w3.org/2000/svg">
<path d="M12.3598 8.34957H8.14929V4.13905C8.14929 3.95293 8.07535 3.77444 7.94375 3.64283C7.81214 3.51123 7.63365 3.43729 7.44753 3.43729C6.33718 3.43729 5.25177 3.76655 4.32854 4.38343C3.40532 5.00031 2.68575 5.8771 2.26084 6.90293C1.83593 7.92876 1.72475 9.05755 1.94137 10.1466C2.15799 11.2356 2.69267 12.2359 3.47781 13.021C4.26295 13.8062 5.26327 14.3409 6.35229 14.5575C7.4413 14.7741 8.5701 14.6629 9.59593 14.238C10.6218 13.8131 11.4986 13.0935 12.1154 12.1703C12.7323 11.2471 13.0616 10.1617 13.0616 9.05133C13.0616 8.86521 12.9876 8.68672 12.856 8.55511C12.7244 8.42351 12.5459 8.34957 12.3598 8.34957Z" fill="black"/>
<path d="M9.5528 1.33203C9.36668 1.33203 9.18818 1.40597 9.05658 1.53757C8.92498 1.66917 8.85104 1.84767 8.85104 2.03379V6.94606C8.85104 7.13218 8.92498 7.31068 9.05658 7.44228C9.18818 7.57388 9.36668 7.64782 9.5528 7.64782H14.4651C14.6512 7.64782 14.8297 7.57388 14.9613 7.44228C15.0929 7.31068 15.1668 7.13218 15.1668 6.94606C15.1652 5.45764 14.5731 4.03066 13.5207 2.97819C12.4682 1.92572 11.0412 1.3337 9.5528 1.33203Z" fill="black"/>
</svg>
