<svg width="16" height="16" viewBox="0 0 16 16" fill="none" xmlns="http://www.w3.org/2000/svg">
<path d="M8 2C6.81331 2 5.65328 2.35189 4.66658 3.01118C3.67989 3.67047 2.91085 4.60754 2.45673 5.7039C2.0026 6.80025 1.88378 8.00665 2.11529 9.17054C2.3468 10.3344 2.91825 11.4035 3.75736 12.2426C4.59648 13.0818 5.66557 13.6532 6.82946 13.8847C7.99335 14.1162 9.19975 13.9974 10.2961 13.5433C11.3925 13.0891 12.3295 12.3201 12.9888 11.3334C13.6481 10.3467 14 9.18669 14 8C13.9983 6.40924 13.3656 4.88413 12.2407 3.75929C11.1159 2.63445 9.59076 2.00175 8 2ZM10.2242 7.2242L7.8242 9.6242C7.71169 9.73668 7.5591 9.79987 7.4 9.79987C7.2409 9.79987 7.08832 9.73668 6.9758 9.6242L5.7758 8.4242C5.66651 8.31104 5.60603 8.15948 5.6074 8.00216C5.60876 7.84484 5.67187 7.69435 5.78311 7.58311C5.89436 7.47186 6.04484 7.40876 6.20216 7.40739C6.35948 7.40603 6.51104 7.4665 6.6242 7.5758L7.4 8.3516L9.3758 6.3758C9.48896 6.2665 9.64052 6.20603 9.79784 6.20739C9.95516 6.20876 10.1056 6.27186 10.2169 6.38311C10.3281 6.49435 10.3912 6.64484 10.3926 6.80216C10.394 6.95948 10.3335 7.11104 10.2242 7.2242Z" fill="black"/>
</svg>
