<svg width="45" height="45" viewBox="0 0 45 45" fill="none" xmlns="http://www.w3.org/2000/svg">
<path fill-rule="evenodd" clip-rule="evenodd" d="M17.7711 15.9321C17.0256 15.9321 16.4211 16.5365 16.4211 17.2821V26.8213C16.4211 27.5669 17.0256 28.1713 17.7711 28.1713H27.3103C28.0559 28.1713 28.6603 27.5669 28.6603 26.8213V17.2821C28.6603 16.5365 28.0559 15.9321 27.3103 15.9321H17.7711ZM19.1211 25.4713V18.6321H25.9603V25.4713H19.1211Z" fill="black"/>
<path fill-rule="evenodd" clip-rule="evenodd" d="M15.3146 3.21338C16.0602 3.21338 16.6646 3.81779 16.6646 4.56338V7.98291H21.1912V4.56338C21.1912 3.81779 21.7956 3.21338 22.5412 3.21338C23.2867 3.21338 23.8912 3.81779 23.8912 4.56338V7.98291H28.4177V4.56338C28.4177 3.81779 29.0221 3.21338 29.7677 3.21338C30.5133 3.21338 31.1177 3.81779 31.1177 4.56338V7.98291H33.6708C35.2945 7.98291 36.6107 9.29914 36.6107 10.9228V13.4751H40.029C40.7746 13.4751 41.379 14.0795 41.379 14.8251C41.379 15.5707 40.7746 16.1751 40.029 16.1751H36.6107V20.7017H40.029C40.7746 20.7017 41.379 21.3061 41.379 22.0517C41.379 22.7972 40.7746 23.4017 40.029 23.4017H36.6107V27.9282H40.029C40.7746 27.9282 41.379 28.5326 41.379 29.2782C41.379 30.0238 40.7746 30.6282 40.029 30.6282H36.6107V33.1808C36.6107 34.8045 35.2945 36.1207 33.6708 36.1207H31.1177V39.5402C31.1177 40.2858 30.5133 40.8902 29.7677 40.8902C29.0221 40.8902 28.4177 40.2858 28.4177 39.5402V36.1207H23.8912V39.5402C23.8912 40.2858 23.2867 40.8902 22.5412 40.8902C21.7956 40.8902 21.1912 40.2858 21.1912 39.5402V36.1207H16.6646V39.5402C16.6646 40.2858 16.0602 40.8902 15.3146 40.8902C14.569 40.8902 13.9646 40.2858 13.9646 39.5402V36.1207H11.4128C9.78913 36.1207 8.4729 34.8045 8.4729 33.1808V30.6282H5.05239C4.30681 30.6282 3.70239 30.0238 3.70239 29.2782C3.70239 28.5326 4.30681 27.9282 5.05239 27.9282H8.4729V23.4017H5.05239C4.30681 23.4017 3.70239 22.7972 3.70239 22.0517C3.70239 21.3061 4.30681 20.7017 5.05239 20.7017H8.4729V16.1751H5.05239C4.30681 16.1751 3.70239 15.5707 3.70239 14.8251C3.70239 14.0795 4.30681 13.4751 5.05239 13.4751H8.4729V10.9228C8.4729 9.29913 9.78912 7.98291 11.4128 7.98291H13.9646V4.56338C13.9646 3.81779 14.569 3.21338 15.3146 3.21338ZM33.9107 29.22C33.9098 29.2393 33.9094 29.2587 33.9094 29.2782C33.9094 29.2977 33.9098 29.3171 33.9107 29.3364V33.1808C33.9107 33.3133 33.8033 33.4207 33.6708 33.4207H29.7733L29.7677 33.4207L29.7621 33.4207H22.5468L22.5412 33.4207L22.5355 33.4207H15.3202L15.3146 33.4207L15.309 33.4207H11.4128C11.2803 33.4207 11.1729 33.3133 11.1729 33.1808V10.9228C11.1729 10.7903 11.2803 10.6829 11.4128 10.6829H15.303L15.3146 10.683L15.3262 10.6829H22.5296L22.5412 10.683L22.5527 10.6829H29.7561L29.7677 10.683L29.7793 10.6829H33.6708C33.8033 10.6829 33.9107 10.7903 33.9107 10.9228V14.7669C33.9098 14.7862 33.9094 14.8056 33.9094 14.8251C33.9094 14.8446 33.9098 14.864 33.9107 14.8833V21.9935C33.9102 22.0039 33.9099 22.0144 33.9097 22.0249C33.9095 22.0338 33.9094 22.0427 33.9094 22.0517C33.9094 22.0712 33.9098 22.0906 33.9107 22.1099V29.22Z" fill="black"/>
</svg>
