<svg width="44" height="44" viewBox="0 0 44 44" fill="none" xmlns="http://www.w3.org/2000/svg">
<path fill-rule="evenodd" clip-rule="evenodd" d="M17.2293 15.8804C16.4837 15.8804 15.8793 16.4848 15.8793 17.2304V26.7695C15.8793 27.5151 16.4837 28.1195 17.2293 28.1195H26.7685C27.5141 28.1195 28.1185 27.5151 28.1185 26.7695V17.2304C28.1185 16.4848 27.5141 15.8804 26.7685 15.8804H17.2293ZM18.5793 25.4195V18.5804H25.4185V25.4195H18.5793Z" fill="black"/>
<path fill-rule="evenodd" clip-rule="evenodd" d="M14.7728 3.16162C15.5184 3.16162 16.1228 3.76604 16.1228 4.51162V7.93115H20.6494V4.51162C20.6494 3.76604 21.2538 3.16162 21.9994 3.16162C22.7449 3.16162 23.3494 3.76604 23.3494 4.51162V7.93115H27.8759V4.51162C27.8759 3.76604 28.4803 3.16162 29.2259 3.16162C29.9715 3.16162 30.5759 3.76604 30.5759 4.51162V7.93115H33.129C34.7527 7.93115 36.0688 9.24739 36.0688 10.871V13.4233H39.4872C40.2328 13.4233 40.8372 14.0278 40.8372 14.7733C40.8372 15.5189 40.2328 16.1233 39.4872 16.1233H36.0688V20.6499H39.4872C40.2328 20.6499 40.8372 21.2543 40.8372 21.9999C40.8372 22.7455 40.2328 23.3499 39.4872 23.3499H36.0688V27.8765H39.4872C40.2328 27.8765 40.8372 28.4809 40.8372 29.2265C40.8372 29.972 40.2328 30.5765 39.4872 30.5765H36.0688V33.129C36.0688 34.7527 34.7527 36.0689 33.129 36.0689H30.5759V39.4885C30.5759 40.2341 29.9715 40.8385 29.2259 40.8385C28.4803 40.8385 27.8759 40.2341 27.8759 39.4885V36.0689H23.3494V39.4885C23.3494 40.2341 22.7449 40.8385 21.9994 40.8385C21.2538 40.8385 20.6494 40.2341 20.6494 39.4885V36.0689H16.1228V39.4885C16.1228 40.2341 15.5184 40.8385 14.7728 40.8385C14.0272 40.8385 13.4228 40.2341 13.4228 39.4885V36.0689H10.871C9.24732 36.0689 7.93109 34.7527 7.93109 33.129V30.5765H4.51058C3.765 30.5765 3.16058 29.972 3.16058 29.2265C3.16058 28.4809 3.765 27.8765 4.51058 27.8765H7.93109V23.3499H4.51058C3.765 23.3499 3.16058 22.7455 3.16058 21.9999C3.16058 21.2543 3.765 20.6499 4.51058 20.6499H7.93109V16.1233H4.51058C3.765 16.1233 3.16058 15.5189 3.16058 14.7733C3.16058 14.0278 3.765 13.4233 4.51058 13.4233H7.93109V10.871C7.93109 9.24737 9.24731 7.93115 10.871 7.93115H13.4228V4.51162C13.4228 3.76604 14.0272 3.16162 14.7728 3.16162ZM33.3688 29.1683C33.368 29.1876 33.3676 29.207 33.3676 29.2265C33.3676 29.246 33.368 29.2654 33.3688 29.2847V33.129C33.3688 33.2615 33.2615 33.3689 33.129 33.3689H29.2315L29.2259 33.3689L29.2203 33.3689H22.005L21.9994 33.3689L21.9937 33.3689H14.7784L14.7728 33.3689L14.7672 33.3689H10.871C10.7385 33.3689 10.6311 33.2615 10.6311 33.129V10.871C10.6311 10.7385 10.7385 10.6312 10.871 10.6312H14.7612L14.7728 10.6312L14.7844 10.6312H21.9878L21.9994 10.6312L22.0109 10.6312H29.2143L29.2259 10.6312L29.2375 10.6312H33.129C33.2615 10.6312 33.3688 10.7385 33.3688 10.871V14.7151C33.368 14.7344 33.3676 14.7538 33.3676 14.7733C33.3676 14.7928 33.368 14.8122 33.3688 14.8315V21.9417C33.3684 21.9521 33.3681 21.9626 33.3679 21.9731C33.3677 21.982 33.3676 21.991 33.3676 21.9999C33.3676 22.0194 33.368 22.0388 33.3688 22.0581V29.1683Z" fill="black"/>
</svg>
