<svg width="16" height="16" viewBox="0 0 16 16" fill="none" xmlns="http://www.w3.org/2000/svg">
<path d="M12.6667 1.9987H10.4813C10.3652 1.79667 10.1981 1.62873 9.99656 1.51171C9.79507 1.3947 9.56634 1.33273 9.33333 1.33203H6.66667C6.43366 1.33273 6.20493 1.3947 6.00344 1.51171C5.80194 1.62873 5.63476 1.79667 5.51867 1.9987H3.33333C2.97971 1.9987 2.64057 2.13917 2.39052 2.38922C2.14048 2.63927 2 2.97841 2 3.33203V13.332C2 13.6857 2.14048 14.0248 2.39052 14.2748C2.64057 14.5249 2.97971 14.6654 3.33333 14.6654H12.6667C13.0203 14.6654 13.3594 14.5249 13.6095 14.2748C13.8595 14.0248 14 13.6857 14 13.332V3.33203C14 2.97841 13.8595 2.63927 13.6095 2.38922C13.3594 2.13917 13.0203 1.9987 12.6667 1.9987ZM6.66667 2.66536H9.33333V4.66536H6.66667V2.66536ZM10.4667 8.19136L7.81667 10.7627C7.69226 10.8835 7.52571 10.951 7.35233 10.951C7.17896 10.951 7.01241 10.8835 6.888 10.7627L5.53333 9.45336C5.47047 9.39208 5.4203 9.31902 5.38568 9.23834C5.35106 9.15767 5.33266 9.07096 5.33155 8.98318C5.33043 8.8954 5.34662 8.80826 5.37918 8.72673C5.41175 8.6452 5.46005 8.57089 5.52133 8.50803C5.58262 8.44517 5.65568 8.395 5.73636 8.36038C5.81703 8.32575 5.90373 8.30736 5.99151 8.30625C6.0793 8.30513 6.16644 8.32132 6.24797 8.35388C6.32949 8.38644 6.40381 8.43475 6.46667 8.49603L7.352 9.35536L9.53867 7.2347C9.60087 7.17089 9.67524 7.1202 9.75738 7.08563C9.83951 7.05106 9.92774 7.03331 10.0169 7.03342C10.106 7.03353 10.1942 7.05151 10.2762 7.08629C10.3582 7.12107 10.4325 7.17194 10.4945 7.2359C10.5566 7.29987 10.6052 7.37562 10.6374 7.45869C10.6697 7.54175 10.685 7.63044 10.6824 7.71952C10.6798 7.80859 10.6594 7.89624 10.6223 7.97729C10.5853 8.05833 10.5323 8.13113 10.4667 8.19136Z" fill="black"/>
</svg>
