<svg width="16" height="16" viewBox="0 0 16 16" fill="none" xmlns="http://www.w3.org/2000/svg">
<path fill-rule="evenodd" clip-rule="evenodd" d="M3.85345 1.907C4.94549 1.54474 6.41185 1.33203 8.00107 1.33203C9.59029 1.33203 11.0566 1.54474 12.1487 1.907C12.6912 2.08696 13.1783 2.31588 13.5436 2.60237C13.901 2.88268 14.2365 3.29771 14.2365 3.84599C14.2365 4.39427 13.901 4.80931 13.5436 5.08962C13.4817 5.13819 13.4163 5.1851 13.3477 5.2304C13.3827 5.25351 13.4168 5.27702 13.45 5.30092C13.8469 5.58642 14.2365 6.02225 14.2365 6.61481C14.2365 7.16309 13.901 7.57813 13.5436 7.85844C13.4807 7.90783 13.4141 7.95551 13.3442 8.00153C13.3804 8.02538 13.4157 8.04966 13.45 8.07436C13.8469 8.35986 14.2365 8.79569 14.2365 9.38825C14.2365 9.93653 13.901 10.3516 13.5436 10.6319C13.4815 10.6806 13.4159 10.7276 13.3471 10.773C13.3823 10.7962 13.4166 10.8199 13.45 10.8439C13.8469 11.1294 14.2365 11.5652 14.2365 12.1578C14.2365 12.7061 13.901 13.1211 13.5436 13.4014C13.1783 13.6879 12.6912 13.9168 12.1487 14.0968C11.0566 14.459 9.59029 14.6717 8.00107 14.6717C6.41185 14.6717 4.94549 14.459 3.85345 14.0968C3.31094 13.9168 2.82379 13.6879 2.4585 13.4014C2.10109 13.1211 1.76562 12.7061 1.76562 12.1578C1.76562 11.5652 2.1552 11.1294 2.55208 10.8439C2.58549 10.8199 2.6198 10.7962 2.655 10.773C2.58619 10.7276 2.52058 10.6806 2.4585 10.6319C2.10109 10.3516 1.76562 9.93653 1.76562 9.38825C1.76562 8.79569 2.1552 8.35986 2.55208 8.07436C2.58642 8.04966 2.62173 8.02538 2.65796 8.00153C2.58808 7.95551 2.52148 7.90783 2.4585 7.85844C2.10109 7.57813 1.76562 7.16309 1.76562 6.61481C1.76562 6.02225 2.1552 5.58642 2.55208 5.30092C2.58531 5.27702 2.61945 5.25351 2.65446 5.2304C2.58585 5.1851 2.52042 5.13819 2.4585 5.08962C2.10109 4.80931 1.76562 4.39427 1.76562 3.84599C1.76562 3.29771 2.10109 2.88268 2.4585 2.60237C2.82379 2.31588 3.31095 2.08696 3.85345 1.907ZM4.54438 10.1454C4.5181 10.1358 4.49117 10.1279 4.46375 10.1217C4.39853 10.1022 4.33501 10.0822 4.27325 10.0617C3.808 9.90739 3.47963 9.73825 3.28133 9.58272C3.14928 9.47916 3.11157 9.41283 3.10152 9.38854C3.11234 9.36209 3.15715 9.28158 3.3307 9.15674C3.5458 9.002 3.87956 8.84104 4.3303 8.69615C5.35589 8.97114 6.63295 9.12878 8.00107 9.12878C9.36918 9.12878 10.6462 8.97114 11.6718 8.69615C12.1226 8.84104 12.4563 9.002 12.6714 9.15674C12.845 9.28158 12.8898 9.36208 12.9006 9.38854C12.8906 9.41283 12.8528 9.47916 12.7208 9.58272C12.5225 9.73825 12.1941 9.90739 11.7289 10.0617C11.6671 10.0822 11.6036 10.1022 11.5384 10.1217C11.511 10.1279 11.484 10.1358 11.4578 10.1454C10.5558 10.4041 9.34746 10.5689 8.00107 10.5689C6.65467 10.5689 5.44638 10.4041 4.54438 10.1454ZM4.32368 11.4678C3.87629 11.6122 3.54475 11.7723 3.3307 11.9263C3.15715 12.0511 3.11234 12.1316 3.10152 12.1581C3.11157 12.1824 3.14928 12.2487 3.28133 12.3523C3.47963 12.5078 3.808 12.6769 4.27325 12.8313C5.1967 13.1376 6.51474 13.3384 8.00107 13.3384C9.4874 13.3384 10.8054 13.1376 11.7289 12.8313C12.1941 12.6769 12.5225 12.5078 12.7208 12.3523C12.8528 12.2487 12.8906 12.1824 12.9006 12.1581C12.8898 12.1316 12.845 12.0511 12.6714 11.9263C12.4574 11.7723 12.1258 11.6122 11.6784 11.4678C10.6517 11.7439 9.37213 11.9022 8.00107 11.9022C6.63 11.9022 5.35039 11.7439 4.32368 11.4678ZM4.32248 5.92523C3.8757 6.06947 3.54455 6.22946 3.3307 6.3833C3.15715 6.50814 3.11234 6.58865 3.10152 6.6151C3.11157 6.63939 3.14928 6.70572 3.28133 6.80929C3.47963 6.96481 3.808 7.13395 4.27325 7.28829C5.1967 7.59462 6.51474 7.79544 8.00107 7.79544C9.4874 7.79544 10.8054 7.59462 11.7289 7.28829C12.1941 7.13395 12.5225 6.96481 12.7208 6.80929C12.8528 6.70573 12.8906 6.63939 12.9006 6.6151C12.8898 6.58865 12.845 6.50814 12.6714 6.3833C12.4576 6.22946 12.1264 6.06947 11.6797 5.92523C10.6527 6.20151 9.37266 6.35996 8.00107 6.35996C6.62947 6.35996 5.34939 6.20152 4.32248 5.92523ZM3.09846 6.60638C3.0983 6.60526 3.09816 6.6047 3.09813 6.6047C3.09812 6.6047 3.09811 6.60456 3.09813 6.6047C3.09814 6.60481 3.09818 6.60517 3.09822 6.60535L3.09846 6.60638Z" fill="black"/>
</svg>
