<svg width="41" height="41" viewBox="0 0 41 41" fill="none" xmlns="http://www.w3.org/2000/svg">
<mask id="mask0_217_3" style="mask-type:alpha" maskUnits="userSpaceOnUse" x="0" y="0" width="41" height="41">
<rect x="0.907166" y="0.361328" width="40" height="40" fill="#D9D9D9"/>
</mask>
<g mask="url(#mask0_217_3)">
<path fill-rule="evenodd" clip-rule="evenodd" d="M29.4207 29.3304L30.2287 28.944C30.1516 28.8843 30.0809 28.8273 30.0139 28.7733C29.8523 28.6429 29.7128 28.5304 29.5597 28.4419C29.4843 28.3986 29.3319 28.4547 29.2309 28.4996C28.0261 29.0467 26.7796 29.4718 25.4915 29.7686C23.1766 30.3027 20.8377 30.4391 18.4763 30.1504C16.3812 29.8953 14.376 29.3306 12.4542 28.4595C12.374 28.4226 12.2376 28.4371 12.1606 28.4836C12.0262 28.5652 11.9017 28.6632 11.7652 28.7706C11.7112 28.8131 11.6551 28.8572 11.5959 28.9023C12.5135 29.475 13.4793 29.8953 14.5284 30.3156C14.3676 30.5723 14.2098 30.8269 14.0534 31.0793C13.6917 31.6628 13.337 32.2351 12.9675 32.7973C12.6555 33.2716 12.6283 33.263 12.1073 33.0967L12.0788 33.0876C9.2522 32.1845 6.6502 30.8385 4.23909 29.1124C4.06744 28.9889 3.99205 28.8493 3.98884 28.6552C3.98036 28.2422 3.96614 27.8289 3.95191 27.4157C3.92041 26.5003 3.88891 25.585 3.91986 24.672C4.05782 20.469 5.1968 16.5243 7.16033 12.8186C7.55905 12.0672 8.00961 11.3428 8.46015 10.6186C8.63862 10.3317 8.81709 10.0448 8.99232 9.75621C9.03724 9.68402 9.11585 9.61665 9.19445 9.58136C11.2719 8.64932 13.4263 7.96112 15.669 7.55686C16.0989 7.47986 16.1085 7.48146 16.3091 7.87128C16.516 8.27233 16.7165 8.67819 16.8978 9.09208C16.9732 9.26372 17.071 9.2926 17.2363 9.27816C17.5065 9.25456 17.7767 9.22951 18.047 9.20445C18.8421 9.13075 19.6377 9.057 20.435 9.01989C21.7649 8.96053 23.0932 9.05678 24.4102 9.26052C24.6797 9.30223 24.8209 9.24929 24.93 8.97978C25.042 8.70615 25.1767 8.4417 25.3114 8.17736C25.3946 8.01402 25.4778 7.85061 25.5556 7.6852C25.631 7.52638 25.7257 7.47344 25.9005 7.50553C28.2058 7.92262 30.4292 8.606 32.5644 9.57173C32.6638 9.61665 32.7521 9.71771 32.8162 9.81236C35.2081 13.3416 36.846 17.1756 37.5342 21.4011C37.8245 23.1833 37.9384 24.9768 37.8999 26.7799C37.8919 27.1588 37.8666 27.5364 37.8413 27.9143C37.8258 28.1444 37.8104 28.3747 37.7989 28.6055C37.7876 28.8413 37.6994 29.0066 37.4957 29.1525C35.0027 30.9252 32.3093 32.2903 29.3848 33.1967C29.2068 33.2513 29.0977 33.2416 28.995 33.0748C28.6803 32.5609 28.3621 32.0487 28.044 31.5365L28.0431 31.535C27.8312 31.194 27.6193 30.8529 27.4085 30.5113C27.3835 30.47 27.3659 30.4251 27.3501 30.3849C27.3426 30.3658 27.3355 30.3477 27.3283 30.3316C28.0243 29.9982 28.7128 29.6689 29.4207 29.3304ZM23.4862 21.5374C23.491 22.4614 23.7253 23.1753 24.1873 23.817C25.2444 25.288 27.2721 25.4677 28.5635 24.2036C29.8132 22.9812 29.9495 20.7851 28.8635 19.4071C27.8272 18.0948 26.0176 17.8686 24.7311 18.9162C23.8648 19.622 23.5087 20.5765 23.4862 21.5374ZM17.5828 19.452C18.064 20.0936 18.3015 20.8171 18.2967 21.762C18.2758 22.6187 17.9678 23.5042 17.2443 24.2148C16.0684 25.3715 14.2364 25.3185 13.1183 24.1009C11.912 22.7871 11.8638 20.6952 13.006 19.3268C14.2364 17.8542 16.431 17.9135 17.5828 19.452Z" fill="black"/>
</g>
</svg>
