<svg width="16" height="16" viewBox="0 0 16 16" fill="none" xmlns="http://www.w3.org/2000/svg">
<path d="M13.5447 2.76875C12.5249 2.30083 11.4313 1.95609 10.2879 1.75864C10.2671 1.75483 10.2463 1.76435 10.2356 1.7834C10.0949 2.03354 9.93915 2.35988 9.83006 2.61637C8.60027 2.43226 7.37679 2.43226 6.17221 2.61637C6.0631 2.35417 5.90166 2.03354 5.76038 1.7834C5.74966 1.76499 5.72886 1.75547 5.70803 1.75864C4.56527 1.95546 3.47171 2.3002 2.45129 2.76875C2.44246 2.77256 2.43488 2.77892 2.42986 2.78717C0.355594 5.88607 -0.212633 8.90881 0.0661201 11.8941C0.0673814 11.9087 0.0755799 11.9226 0.086932 11.9315C1.45547 12.9366 2.78114 13.5467 4.08219 13.9511C4.10301 13.9575 4.12507 13.9498 4.13832 13.9327C4.44608 13.5124 4.72043 13.0693 4.95565 12.6032C4.96953 12.5759 4.95628 12.5436 4.92791 12.5328C4.49275 12.3677 4.0784 12.1664 3.67982 11.9379C3.64829 11.9195 3.64577 11.8744 3.67477 11.8528C3.75865 11.7899 3.84255 11.7245 3.92264 11.6585C3.93713 11.6465 3.95732 11.6439 3.97435 11.6515C6.59286 12.847 9.4277 12.847 12.0153 11.6515C12.0323 11.6433 12.0525 11.6458 12.0677 11.6579C12.1478 11.7239 12.2316 11.7899 12.3161 11.8528C12.3451 11.8744 12.3433 11.9195 12.3117 11.9379C11.9131 12.1709 11.4988 12.3677 11.063 12.5321C11.0346 12.5429 11.022 12.5759 11.0359 12.6032C11.2762 13.0686 11.5505 13.5118 11.8526 13.9321C11.8652 13.9498 11.8879 13.9575 11.9087 13.9511C13.2161 13.5467 14.5417 12.9366 15.9103 11.9315C15.9223 11.9226 15.9298 11.9093 15.9311 11.8947C16.2647 8.44341 15.3723 5.44546 13.5655 2.7878C13.5611 2.77892 13.5535 2.77256 13.5447 2.76875ZM5.34668 10.0764C4.55833 10.0764 3.90875 9.3526 3.90875 8.46374C3.90875 7.57488 4.54574 6.85112 5.34668 6.85112C6.15392 6.85112 6.79721 7.58124 6.78459 8.46374C6.78459 9.3526 6.14761 10.0764 5.34668 10.0764ZM10.6632 10.0764C9.87484 10.0764 9.22526 9.3526 9.22526 8.46374C9.22526 7.57488 9.86222 6.85112 10.6632 6.85112C11.4704 6.85112 12.1137 7.58124 12.1011 8.46374C12.1011 9.3526 11.4704 10.0764 10.6632 10.0764Z" fill="black"/>
</svg>
