<svg width="16" height="16" viewBox="0 0 16 16" fill="none" xmlns="http://www.w3.org/2000/svg">
<path fill-rule="evenodd" clip-rule="evenodd" d="M8.13561 1.33105C7.32559 1.33105 6.66895 1.9877 6.66895 2.79772V13.1977C6.66895 14.0077 7.32559 14.6644 8.13561 14.6644H13.2002C14.0102 14.6644 14.6669 14.0077 14.6669 13.1977V2.79772C14.6669 1.9877 14.0102 1.33105 13.2002 1.33105H8.13561ZM12.3356 4.33105C12.7038 4.33105 13.0023 4.62953 13.0023 4.99772V5.99772C13.0023 6.36591 12.7038 6.66439 12.3356 6.66439C11.9674 6.66439 11.6689 6.36591 11.6689 5.99772V4.99772C11.6689 4.62953 11.9674 4.33105 12.3356 4.33105ZM9.66478 4.99772C9.66478 4.62953 9.3663 4.33105 8.99811 4.33105C8.62992 4.33105 8.33145 4.62953 8.33145 4.99772V5.99772C8.33145 6.36591 8.62992 6.66439 8.99811 6.66439C9.3663 6.66439 9.66478 6.36591 9.66478 5.99772V4.99772Z" fill="black"/>
<path d="M4.21866 1.43629C3.40889 1.33507 2.67222 1.9143 2.57956 2.7251L1.42856 12.7963C1.33681 13.5992 1.9118 14.325 2.71438 14.4195L3.94732 14.5645C4.76173 14.6603 5.49648 14.0698 5.57808 13.2538L6.58608 3.17381C6.66528 2.38185 6.09838 1.67125 5.30861 1.57253L4.21866 1.43629Z" fill="black"/>
</svg>
