<svg width="16" height="16" viewBox="0 0 16 16" fill="none" xmlns="http://www.w3.org/2000/svg">
<path fill-rule="evenodd" clip-rule="evenodd" d="M2.3224 2.8549C2.32274 1.8683 3.12269 1.06872 4.10929 1.06885L9.41674 1.06952C9.89051 1.06957 10.3449 1.25781 10.6799 1.59282L13.1561 4.06909C13.4912 4.40415 13.6794 4.8586 13.6794 5.33245V13.1454C13.6794 14.1322 12.8795 14.9321 11.8928 14.9321H4.10551C3.11852 14.9321 2.31851 14.1318 2.31885 13.1448L2.3224 2.8549ZM9.13954 5.24751C8.87919 4.98716 8.45708 4.98716 8.19673 5.24751C7.93638 5.50786 7.93638 5.92997 8.19673 6.19032L8.72116 6.71475H5.66813C5.29994 6.71475 5.00146 7.01322 5.00146 7.38141C5.00146 7.7496 5.29994 8.04808 5.66813 8.04808H10.2602C10.4547 8.06987 10.657 8.00617 10.8062 7.85698C10.9369 7.72629 11.002 7.55483 11.0015 7.38353L11.0015 7.38141C11.0015 7.1747 10.9074 6.98997 10.7597 6.86769L9.13954 5.24751ZM5.05205 9.12622C5.01946 9.20483 5.00146 9.29102 5.00146 9.38141C5.00146 9.56551 5.07608 9.73217 5.19673 9.85282L6.86339 11.5195C7.12374 11.7798 7.54585 11.7798 7.8062 11.5195C8.06655 11.2591 8.06655 10.837 7.8062 10.5767L7.27761 10.0481H10.3348C10.703 10.0481 11.0015 9.7496 11.0015 9.38141C11.0015 9.01322 10.703 8.71475 10.3348 8.71475H5.66813C5.57774 8.71475 5.49155 8.73274 5.41294 8.76533C5.33431 8.79787 5.26064 8.84609 5.19673 8.91001C5.13281 8.97393 5.08458 9.04759 5.05205 9.12622Z" fill="black"/>
</svg>
