<svg width="17" height="16" viewBox="0 0 17 16" fill="none" xmlns="http://www.w3.org/2000/svg">
<path fill-rule="evenodd" clip-rule="evenodd" d="M1.51465 3.43854C1.51465 2.1867 2.52947 1.17188 3.78132 1.17188H6.42092C7.67276 1.17188 8.68758 2.1867 8.68758 3.43854V7.00019C8.68758 8.25203 7.67276 9.26685 6.42092 9.26685H3.78132C2.52947 9.26685 1.51465 8.25203 1.51465 7.00019V3.43854ZM3.78132 2.50521C3.26585 2.50521 2.84798 2.92308 2.84798 3.43854V7.00019C2.84798 7.51565 3.26585 7.93352 3.78132 7.93352H6.42092C6.93638 7.93352 7.35425 7.51565 7.35425 7.00019V3.43854C7.35425 2.92308 6.93638 2.50521 6.42092 2.50521H3.78132Z" fill="black"/>
<path fill-rule="evenodd" clip-rule="evenodd" d="M1.51602 12.4399C1.51602 11.3078 2.43371 10.3901 3.56575 10.3901H13.0935C14.2256 10.3901 15.1432 11.3078 15.1432 12.4399C15.1432 13.5719 14.2256 14.4896 13.0935 14.4896H3.56575C2.43371 14.4896 1.51602 13.5719 1.51602 12.4399ZM3.56575 11.7235C3.17009 11.7235 2.84935 12.0442 2.84935 12.4399C2.84935 12.8355 3.17009 13.1563 3.56575 13.1563H13.0935C13.4892 13.1563 13.8099 12.8355 13.8099 12.4399C13.8099 12.0442 13.4892 11.7235 13.0935 11.7235H3.56575Z" fill="black"/>
<path fill-rule="evenodd" clip-rule="evenodd" d="M9.81641 3.06793C9.81641 2.02077 10.6653 1.17188 11.7125 1.17188H13.2492C14.2964 1.17188 15.1453 2.02077 15.1453 3.06793C15.1453 4.11509 14.2964 4.96399 13.2492 4.96399H11.7125C10.6653 4.96399 9.81641 4.11509 9.81641 3.06793ZM11.7125 2.50521C11.4017 2.50521 11.1497 2.75715 11.1497 3.06793C11.1497 3.37872 11.4017 3.63065 11.7125 3.63065H13.2492C13.56 3.63065 13.8119 3.37872 13.8119 3.06793C13.8119 2.75715 13.56 2.50521 13.2492 2.50521H11.7125Z" fill="black"/>
<path fill-rule="evenodd" clip-rule="evenodd" d="M9.81641 7.37418C9.81641 6.32702 10.6653 5.47813 11.7125 5.47813H13.2492C14.2964 5.47813 15.1453 6.32702 15.1453 7.37418C15.1453 8.42134 14.2964 9.27024 13.2492 9.27024H11.7125C10.6653 9.27024 9.81641 8.42134 9.81641 7.37418ZM11.7125 6.81146C11.4017 6.81146 11.1497 7.0634 11.1497 7.37418C11.1497 7.68496 11.4017 7.93691 11.7125 7.93691H13.2492C13.56 7.93691 13.8119 7.68497 13.8119 7.37418C13.8119 7.0634 13.56 6.81146 13.2492 6.81146H11.7125Z" fill="black"/>
</svg>
