<svg width="16" height="16" viewBox="0 0 16 16" fill="none" xmlns="http://www.w3.org/2000/svg">
<path fill-rule="evenodd" clip-rule="evenodd" d="M1.18213 3.43854C1.18213 2.1867 2.19695 1.17188 3.4488 1.17188H6.0884C7.34024 1.17188 8.35506 2.1867 8.35506 3.43854V7.00019C8.35506 8.25203 7.34024 9.26685 6.0884 9.26685H3.4488C2.19695 9.26685 1.18213 8.25203 1.18213 7.00019V3.43854ZM3.4488 2.50521C2.93333 2.50521 2.51546 2.92308 2.51546 3.43854V7.00019C2.51546 7.51565 2.93333 7.93352 3.4488 7.93352H6.0884C6.60386 7.93352 7.02173 7.51565 7.02173 7.00019V3.43854C7.02173 2.92308 6.60386 2.50521 6.0884 2.50521H3.4488Z" fill="black"/>
<path fill-rule="evenodd" clip-rule="evenodd" d="M1.1835 12.4399C1.1835 11.3078 2.1012 10.3901 3.23323 10.3901H12.761C13.893 10.3901 14.8107 11.3078 14.8107 12.4399C14.8107 13.5719 13.893 14.4896 12.761 14.4896H3.23323C2.10119 14.4896 1.1835 13.5719 1.1835 12.4399ZM3.23323 11.7235C2.83757 11.7235 2.51683 12.0442 2.51683 12.4399C2.51683 12.8355 2.83757 13.1563 3.23323 13.1563H12.761C13.1567 13.1563 13.4774 12.8355 13.4774 12.4399C13.4774 12.0442 13.1567 11.7235 12.761 11.7235H3.23323Z" fill="black"/>
<path fill-rule="evenodd" clip-rule="evenodd" d="M9.4834 3.06793C9.4834 2.02077 10.3323 1.17188 11.3795 1.17188H12.9162C13.9634 1.17188 14.8122 2.02077 14.8122 3.06793C14.8122 4.11509 13.9634 4.96399 12.9162 4.96399H11.3795C10.3323 4.96399 9.4834 4.11509 9.4834 3.06793ZM11.3795 2.50521C11.0687 2.50521 10.8167 2.75715 10.8167 3.06793C10.8167 3.37872 11.0687 3.63065 11.3795 3.63065H12.9162C13.227 3.63065 13.4789 3.37872 13.4789 3.06793C13.4789 2.75715 13.227 2.50521 12.9162 2.50521H11.3795Z" fill="black"/>
<path fill-rule="evenodd" clip-rule="evenodd" d="M9.4834 7.37418C9.4834 6.32702 10.3323 5.47813 11.3795 5.47813H12.9162C13.9634 5.47813 14.8122 6.32702 14.8122 7.37418C14.8122 8.42134 13.9634 9.27024 12.9162 9.27024H11.3795C10.3323 9.27024 9.4834 8.42134 9.4834 7.37418ZM11.3795 6.81146C11.0687 6.81146 10.8167 7.0634 10.8167 7.37418C10.8167 7.68497 11.0687 7.9369 11.3795 7.9369H12.9162C13.227 7.9369 13.4789 7.68497 13.4789 7.37418C13.4789 7.0634 13.227 6.81146 12.9162 6.81146H11.3795Z" fill="black"/>
</svg>
