<svg width="41" height="41" viewBox="0 0 41 41" fill="none" xmlns="http://www.w3.org/2000/svg">
<mask id="mask0_217_6" style="mask-type:alpha" maskUnits="userSpaceOnUse" x="0" y="0" width="41" height="41">
<rect x="0.907166" y="0.361328" width="40" height="40" fill="#D9D9D9"/>
</mask>
<g mask="url(#mask0_217_6)">
<path d="M20.9046 4.36133C11.8926 4.36133 4.58832 11.6672 4.58832 20.6777C4.58832 28.1232 9.57727 34.4044 16.3936 36.3613C16.5097 36.2721 16.5904 36.1308 16.6157 35.9205C16.7301 34.9462 16.6459 33.9485 16.6459 32.9035C16.2758 32.9322 16.0301 32.9557 15.7844 32.9709C13.6543 33.0903 11.8286 32.6158 10.7871 30.3325C10.4253 29.54 9.65804 28.9343 9.07081 28.2461C8.88235 28.0256 8.67539 27.8187 8.26652 27.3829C8.88909 27.2988 9.2744 27.1591 9.63111 27.2129C10.8645 27.398 11.5964 28.2679 12.2509 29.2388C13.3682 30.8979 14.9028 30.8255 16.3986 30.388C16.5349 30.3477 16.6762 30.1878 16.7351 30.0498C16.9774 29.4693 17.1877 28.8754 17.4284 28.2377C16.7132 28.0643 16.0082 27.9297 15.3285 27.7211C10.4623 26.2219 8.43646 19.8835 11.4887 15.7846C11.6553 15.5608 11.7277 15.1688 11.6688 14.8945C11.413 13.7167 11.4887 12.5759 11.8387 11.43C12.012 10.8613 12.3553 10.6173 12.8937 10.8209C13.979 11.2314 15.034 11.7211 16.121 12.1283C16.5298 12.2814 17.0212 12.4295 17.425 12.3437C19.747 11.854 22.0488 11.7884 24.3742 12.342C24.7948 12.4429 25.3181 12.2696 25.7539 12.1098C26.8426 11.7093 27.8993 11.2214 28.9879 10.8175C29.5381 10.6139 29.8747 10.8932 30.0311 11.4519C30.3509 12.5977 30.4552 13.7419 30.1708 14.9147C30.117 15.1351 30.1069 15.4615 30.2297 15.6147C31.7037 17.4504 31.8988 19.5251 31.5674 21.7697C31.0845 25.0525 29.0367 27.2702 25.7455 27.9129C25.298 28.0004 24.8521 28.098 24.2884 28.2141C25.1903 29.4811 25.2239 30.8104 25.1869 32.1581C25.16 33.161 25.1751 34.1672 25.1734 35.17C25.1718 35.7707 25.2576 36.1544 25.4662 36.3479C32.2589 34.3758 37.226 28.1064 37.226 20.6777C37.221 11.6656 29.9167 4.36133 20.9046 4.36133Z" fill="black"/>
</g>
</svg>
