<svg width="16" height="16" viewBox="0 0 16 16" fill="none" xmlns="http://www.w3.org/2000/svg">
<path d="M8.00016 1.33203C6.68162 1.33203 5.39269 1.72302 4.29636 2.45557C3.20004 3.18811 2.34555 4.2293 1.84097 5.44747C1.33638 6.66565 1.20436 8.00609 1.4616 9.2993C1.71883 10.5925 2.35377 11.7804 3.28612 12.7127C4.21847 13.6451 5.40636 14.28 6.69956 14.5373C7.99277 14.7945 9.33321 14.6625 10.5514 14.1579C11.7696 13.6533 12.8108 12.7988 13.5433 11.7025C14.2758 10.6062 14.6668 9.31724 14.6668 7.9987C14.6649 6.23118 13.9619 4.53662 12.7121 3.2868C11.4622 2.03697 9.76768 1.33397 8.00016 1.33203ZM7.66683 3.9987C7.86461 3.9987 8.05795 4.05735 8.2224 4.16723C8.38685 4.27711 8.51502 4.43329 8.59071 4.61601C8.6664 4.79874 8.6862 4.99981 8.64762 5.19379C8.60903 5.38777 8.51379 5.56595 8.37394 5.7058C8.23409 5.84566 8.0559 5.9409 7.86192 5.97948C7.66794 6.01807 7.46687 5.99826 7.28415 5.92258C7.10142 5.84689 6.94524 5.71872 6.83536 5.55427C6.72548 5.38982 6.66683 5.19648 6.66683 4.9987C6.66683 4.73348 6.77219 4.47913 6.95972 4.29159C7.14726 4.10405 7.40162 3.9987 7.66683 3.9987ZM9.3335 11.332H6.66683C6.49002 11.332 6.32045 11.2618 6.19543 11.1368C6.0704 11.0117 6.00016 10.8422 6.00016 10.6654C6.00016 10.4886 6.0704 10.319 6.19543 10.194C6.32045 10.0689 6.49002 9.9987 6.66683 9.9987H7.3335V7.9987H6.66683C6.49002 7.9987 6.32045 7.92846 6.19543 7.80343C6.0704 7.67841 6.00016 7.50884 6.00016 7.33203C6.00016 7.15522 6.0704 6.98565 6.19543 6.86063C6.32045 6.7356 6.49002 6.66536 6.66683 6.66536H8.00016C8.17698 6.66536 8.34655 6.7356 8.47157 6.86063C8.59659 6.98565 8.66683 7.15522 8.66683 7.33203V9.9987H9.3335C9.51031 9.9987 9.67988 10.0689 9.8049 10.194C9.92993 10.319 10.0002 10.4886 10.0002 10.6654C10.0002 10.8422 9.92993 11.0117 9.8049 11.1368C9.67988 11.2618 9.51031 11.332 9.3335 11.332Z" fill="black"/>
</svg>
