<svg width="16" height="17" viewBox="0 0 16 17" fill="none" xmlns="http://www.w3.org/2000/svg">
<path d="M8.00016 1.58203C6.68162 1.58203 5.39269 1.97302 4.29636 2.70557C3.20004 3.43811 2.34555 4.4793 1.84097 5.69747C1.33638 6.91565 1.20436 8.25609 1.4616 9.5493C1.71883 10.8425 2.35377 12.0304 3.28612 12.9627C4.21847 13.8951 5.40636 14.53 6.69956 14.7873C7.99277 15.0445 9.33321 14.9125 10.5514 14.4079C11.7696 13.9033 12.8108 13.0488 13.5433 11.9525C14.2758 10.8562 14.6668 9.56724 14.6668 8.2487C14.6649 6.48118 13.9619 4.78662 12.7121 3.5368C11.4622 2.28697 9.76768 1.58397 8.00016 1.58203V1.58203ZM7.66683 4.2487C7.86461 4.2487 8.05795 4.30735 8.2224 4.41723C8.38685 4.52711 8.51502 4.68329 8.59071 4.86601C8.6664 5.04874 8.6862 5.24981 8.64762 5.44379C8.60903 5.63777 8.51379 5.81595 8.37394 5.9558C8.23409 6.09566 8.0559 6.1909 7.86192 6.22948C7.66794 6.26807 7.46687 6.24826 7.28415 6.17258C7.10142 6.09689 6.94524 5.96872 6.83536 5.80427C6.72548 5.63982 6.66683 5.44648 6.66683 5.2487C6.66683 4.98348 6.77219 4.72913 6.95972 4.54159C7.14726 4.35405 7.40162 4.2487 7.66683 4.2487ZM9.3335 11.582H6.66683C6.49002 11.582 6.32045 11.5118 6.19543 11.3868C6.0704 11.2617 6.00016 11.0922 6.00016 10.9154C6.00016 10.7386 6.0704 10.569 6.19543 10.444C6.32045 10.3189 6.49002 10.2487 6.66683 10.2487H7.3335V8.2487H6.66683C6.49002 8.2487 6.32045 8.17846 6.19543 8.05343C6.0704 7.92841 6.00016 7.75884 6.00016 7.58203C6.00016 7.40522 6.0704 7.23565 6.19543 7.11063C6.32045 6.9856 6.49002 6.91536 6.66683 6.91536H8.00016C8.17698 6.91536 8.34655 6.9856 8.47157 7.11063C8.59659 7.23565 8.66683 7.40522 8.66683 7.58203V10.2487H9.3335C9.51031 10.2487 9.67988 10.3189 9.8049 10.444C9.92993 10.569 10.0002 10.7386 10.0002 10.9154C10.0002 11.0922 9.92993 11.2617 9.8049 11.3868C9.67988 11.5118 9.51031 11.582 9.3335 11.582Z" fill="black"/>
</svg>
