<svg width="16" height="16" viewBox="0 0 16 16" fill="none" xmlns="http://www.w3.org/2000/svg">
<path fill-rule="evenodd" clip-rule="evenodd" d="M11.3334 7.33325C11.5978 7.33325 11.8373 7.48956 11.9437 7.73165L13.8465 12.0605L14.6064 13.7227C14.7594 14.0576 14.6121 14.4532 14.2772 14.6062C13.9424 14.7593 13.5468 14.6119 13.3937 14.2771L12.8099 12.9999H9.85687L9.27302 14.2771C9.11995 14.6119 8.72439 14.7593 8.38954 14.6062C8.05468 14.4532 7.90731 14.0576 8.06039 13.7227L8.82026 12.0605L10.7231 7.73165C10.8295 7.48956 11.0689 7.33325 11.3334 7.33325ZM10.4499 11.6666H12.2169L11.3334 9.65664L10.4499 11.6666Z" fill="black"/>
<path fill-rule="evenodd" clip-rule="evenodd" d="M5.12253 1.36764C5.47183 1.25121 5.84938 1.43999 5.96581 1.78928L6.29914 2.78928C6.41557 3.13858 6.2268 3.51612 5.8775 3.63256C5.52821 3.74899 5.15066 3.56021 5.03423 3.21092L4.7009 2.21092C4.58446 1.86162 4.77324 1.48408 5.12253 1.36764Z" fill="black"/>
<path fill-rule="evenodd" clip-rule="evenodd" d="M1.33337 3.66667C1.33337 3.29848 1.63185 3 2.00004 3H9.33337C9.70156 3 10 3.29848 10 3.66667C10 4.03486 9.70156 4.33333 9.33337 4.33333H2.00004C1.63185 4.33333 1.33337 4.03486 1.33337 3.66667Z" fill="black"/>
<path fill-rule="evenodd" clip-rule="evenodd" d="M3.15016 4.69234C3.50383 4.59126 3.87248 4.79572 3.97408 5.14911C3.97418 5.14945 3.97427 5.14979 3.97437 5.15013L3.33337 5.33334C3.97437 5.15013 3.97441 5.15028 3.97437 5.15013L3.97828 5.16315C3.98189 5.17502 3.98781 5.19414 3.99612 5.2198C4.01276 5.27114 4.03888 5.34842 4.075 5.44588C4.14742 5.64131 4.25901 5.91502 4.41353 6.22204C4.72764 6.84616 5.19519 7.55962 5.8303 8.0534C6.5183 8.58833 7.44454 9.08552 8.22296 9.45602C8.60751 9.63906 8.947 9.78699 9.18985 9.88894C9.31114 9.93986 9.40798 9.97917 9.47388 10.0055C9.50682 10.0187 9.532 10.0286 9.54861 10.0351L9.56699 10.0422L9.57116 10.0439C9.57112 10.0438 9.57119 10.0439 9.57116 10.0439C9.91491 10.1756 10.0876 10.5614 9.95592 10.9052C9.8242 11.249 9.43869 11.4209 9.09487 11.2892L9.33337 10.6667C9.09487 11.2892 9.09495 11.2893 9.09487 11.2892L9.09207 11.2881L9.08578 11.2857L9.06303 11.2769C9.04344 11.2692 9.01515 11.2581 8.97898 11.2436C8.90665 11.2147 8.8027 11.1725 8.67372 11.1183C8.41601 11.0101 8.05703 10.8537 7.64992 10.6599C6.845 10.2768 5.8151 9.73051 5.01191 9.10602C4.15579 8.4404 3.57947 7.53068 3.22253 6.82146C3.04152 6.46181 2.91077 6.14132 2.82476 5.90921C2.78165 5.7929 2.74952 5.69808 2.72771 5.63077C2.7168 5.59709 2.70845 5.57024 2.70259 5.55097L2.69565 5.52782L2.69356 5.52067L2.69286 5.51823L2.69247 5.5169C2.69242 5.51672 2.69238 5.51655 3.33337 5.33334L2.69247 5.5169C2.59129 5.16289 2.79615 4.79353 3.15016 4.69234Z" fill="black"/>
<path fill-rule="evenodd" clip-rule="evenodd" d="M8.14192 3.0154C8.50168 3.09374 8.72981 3.44889 8.65146 3.80865L8.00053 3.6669C8.65146 3.80865 8.6515 3.8085 8.65146 3.80865L8.65113 3.81018L8.65057 3.81272L8.64878 3.82076L8.64247 3.84836C8.63705 3.87178 8.62917 3.90506 8.61876 3.94724C8.59794 4.03157 8.56694 4.15168 8.52514 4.29972C8.44169 4.59527 8.31438 5.005 8.13788 5.46527C7.79076 6.3705 7.22919 7.53637 6.38848 8.39427C5.58835 9.21079 4.55854 9.92831 3.75021 10.4333C3.34208 10.6883 2.98207 10.8942 2.72339 11.0367C2.59393 11.108 2.48951 11.1637 2.41673 11.2019C2.38034 11.221 2.35183 11.2357 2.33203 11.2459L2.30896 11.2576L2.30251 11.2609L2.30059 11.2619C2.3005 11.2619 2.29956 11.2624 2.00006 10.6668L2.29956 11.2624C1.97061 11.4278 1.56986 11.2952 1.40446 10.9663C1.23907 10.6374 1.37159 10.2367 1.70045 10.0712L1.70515 10.0689L1.7232 10.0596C1.7396 10.0512 1.76456 10.0383 1.79728 10.0212C1.86273 9.98682 1.9591 9.93548 2.07992 9.86891C2.32179 9.73563 2.66025 9.54207 3.04378 9.30247C3.81879 8.81831 4.74511 8.16628 5.43617 7.46106C6.0867 6.79723 6.569 5.83266 6.89294 4.98789C7.05197 4.57316 7.16699 4.20299 7.24198 3.9374C7.2794 3.80488 7.30665 3.6991 7.32428 3.62769C7.33309 3.592 7.33949 3.56495 7.34353 3.54749L7.34784 3.52864L7.34866 3.52494C7.42711 3.16531 7.78224 2.93707 8.14192 3.0154Z" fill="black"/>
</svg>
