<svg width="21" height="21" viewBox="0 0 21 21" fill="none" xmlns="http://www.w3.org/2000/svg">
<mask id="mask0_273_6459" style="mask-type:alpha" maskUnits="userSpaceOnUse" x="0" y="0" width="21" height="21">
<rect x="0.906128" y="0.84137" width="20" height="20" fill="#D9D9D9"/>
</mask>
<g mask="url(#mask0_273_6459)">
<path d="M10.8883 2.36621C11.2162 2.36621 11.5186 2.54297 11.6795 2.82866L15.0847 8.87489C15.243 9.15605 15.2403 9.50013 15.0774 9.77871C14.9146 10.0573 14.6162 10.2285 14.2935 10.2285H11.7967L11.7995 18.4082C11.7997 18.9097 11.3932 19.3164 10.8917 19.3166C10.3902 19.3168 9.98355 18.9103 9.98338 18.4088L9.98055 10.2285H7.48309C7.16041 10.2285 6.86196 10.0573 6.69913 9.77871C6.5363 9.50013 6.53354 9.15605 6.69189 8.87489L10.0971 2.82866C10.258 2.54297 10.5604 2.36621 10.8883 2.36621Z" fill="black"/>
<path d="M6.55801 10.804C6.99121 11.0567 7.13757 11.6127 6.88491 12.0459L6.57347 12.5799H8.24173C8.74324 12.5799 9.14979 12.9865 9.14979 13.488C9.14979 13.9895 8.74324 14.396 8.24173 14.396H5.51425L4.145 16.7437H8.24122C8.74272 16.7437 9.14927 17.1503 9.14927 17.6518C9.14927 18.1533 8.74272 18.5598 8.24122 18.5598H2.56418C2.23905 18.5598 1.93873 18.386 1.77679 18.1041C1.61484 17.8221 1.61599 17.4751 1.77979 17.1943L5.31613 11.1309C5.56879 10.6977 6.1248 10.5514 6.55801 10.804Z" fill="black"/>
<path d="M15.2543 10.804C15.6875 10.5514 16.2435 10.6977 16.4961 11.131L20.0325 17.1943C20.1963 17.4751 20.1974 17.8221 20.0355 18.1041C19.8735 18.386 19.5732 18.5598 19.2481 18.5598H13.5371C13.0356 18.5598 12.629 18.1533 12.629 17.6518C12.629 17.1503 13.0356 16.7437 13.5371 16.7437H17.6673L16.298 14.396H13.5743C13.0728 14.396 12.6663 13.9895 12.6663 13.488C12.6663 12.9865 13.0728 12.5799 13.5743 12.5799H15.2388L14.9274 12.0459C14.6747 11.6127 14.8211 11.0567 15.2543 10.804Z" fill="black"/>
</g>
</svg>
