<svg width="44" height="44" viewBox="0 0 44 44" fill="none" xmlns="http://www.w3.org/2000/svg">
<path d="M16.7765 14.7337C16.7765 16.1762 15.6072 17.3456 14.1647 17.3456C12.7222 17.3456 11.5529 16.1762 11.5529 14.7337C11.5529 13.2912 12.7222 12.1219 14.1647 12.1219C15.6072 12.1219 16.7765 13.2912 16.7765 14.7337Z" fill="black"/>
<path d="M10.6823 24.3106C12.1248 24.3106 13.2941 23.1412 13.2941 21.6988C13.2941 20.2563 12.1248 19.0869 10.6823 19.0869C9.2398 19.0869 8.07043 20.2563 8.07043 21.6988C8.07043 23.1412 9.2398 24.3106 10.6823 24.3106Z" fill="black"/>
<path d="M24.612 11.2515C24.612 12.6939 23.4426 13.8633 22.0001 13.8633C20.5577 13.8633 19.3883 12.6939 19.3883 11.2515C19.3883 9.80898 20.5577 8.63962 22.0001 8.63962C23.4426 8.63962 24.612 9.80898 24.612 11.2515Z" fill="black"/>
<path d="M29.8356 17.3456C31.2781 17.3456 32.4474 16.1762 32.4474 14.7337C32.4474 13.2912 31.2781 12.1219 29.8356 12.1219C28.3931 12.1219 27.2238 13.2912 27.2238 14.7337C27.2238 16.1762 28.3931 17.3456 29.8356 17.3456Z" fill="black"/>
<path d="M35.9299 21.6988C35.9299 23.1412 34.7605 24.3106 33.318 24.3106C31.8755 24.3106 30.7062 23.1412 30.7062 21.6988C30.7062 20.2563 31.8755 19.0869 33.318 19.0869C34.7605 19.0869 35.9299 20.2563 35.9299 21.6988Z" fill="black"/>
<path fill-rule="evenodd" clip-rule="evenodd" d="M21.9997 3.79541C11.6485 3.79541 3.23743 12.1898 3.23743 22.5693C3.23743 31.963 10.1267 39.7308 19.1086 41.1215C19.1982 41.1354 19.2881 41.1486 19.3781 41.1612C20.2353 41.2812 21.1108 41.3433 22.0004 41.3433C24.8473 41.3433 27.5499 40.708 29.9711 39.5695C29.9831 39.5639 29.9949 39.5581 30.0067 39.5522C36.3603 36.5476 40.762 30.0779 40.762 22.5693C40.762 12.1898 32.3509 3.79541 21.9997 3.79541ZM15.1707 37.1014C15.5987 37.3027 16.0372 37.4856 16.485 37.6493C17.1305 35.1954 19.3625 33.3965 22.0001 33.3965C24.6376 33.3965 26.8695 35.1954 27.515 37.6491C33.6738 35.3995 38.062 29.4906 38.062 22.5693C38.062 13.7157 30.8815 6.51859 21.9997 6.51859C13.1178 6.51859 5.93743 13.7157 5.93743 22.5693C5.93743 28.9789 9.70082 34.5204 15.1487 37.0913L15.1707 37.1014ZM19.0932 38.358C20.0357 38.5301 21.0071 38.62 21.9997 38.62C22.9926 38.62 23.9642 38.53 24.9069 38.3579C24.5725 37.0763 23.4053 36.1196 22.0001 36.1196C20.5948 36.1196 19.4275 37.0764 19.0932 38.358Z" fill="black"/>
</svg>
