<svg width="45" height="45" viewBox="0 0 45 45" fill="none" xmlns="http://www.w3.org/2000/svg">
<path d="M17.3178 14.9725C17.3178 16.415 16.1484 17.5843 14.706 17.5843C13.2635 17.5843 12.0941 16.415 12.0941 14.9725C12.0941 13.53 13.2635 12.3607 14.706 12.3607C16.1484 12.3607 17.3178 13.53 17.3178 14.9725Z" fill="black"/>
<path d="M11.2235 24.5494C12.666 24.5494 13.8354 23.38 13.8354 21.9375C13.8354 20.4951 12.666 19.3257 11.2235 19.3257C9.78106 19.3257 8.61169 20.4951 8.61169 21.9375C8.61169 23.38 9.78106 24.5494 11.2235 24.5494Z" fill="black"/>
<path d="M25.1532 11.4902C25.1532 12.9327 23.9839 14.1021 22.5414 14.1021C21.0989 14.1021 19.9296 12.9327 19.9296 11.4902C19.9296 10.0477 21.0989 8.87839 22.5414 8.87839C23.9839 8.87839 25.1532 10.0477 25.1532 11.4902Z" fill="black"/>
<path d="M30.3769 17.5843C31.8193 17.5843 32.9887 16.415 32.9887 14.9725C32.9887 13.53 31.8193 12.3607 30.3769 12.3607C28.9344 12.3607 27.765 13.53 27.765 14.9725C27.765 16.415 28.9344 17.5843 30.3769 17.5843Z" fill="black"/>
<path d="M36.4711 21.9375C36.4711 23.38 35.3018 24.5494 33.8593 24.5494C32.4168 24.5494 31.2474 23.38 31.2474 21.9375C31.2474 20.4951 32.4168 19.3257 33.8593 19.3257C35.3018 19.3257 36.4711 20.4951 36.4711 21.9375Z" fill="black"/>
<path fill-rule="evenodd" clip-rule="evenodd" d="M22.541 4.03418C12.1897 4.03418 3.77869 12.4286 3.77869 22.808C3.77869 32.2018 10.668 39.9696 19.6498 41.3603C19.7395 41.3741 19.8293 41.3874 19.9194 41.4C20.7766 41.52 21.6521 41.5821 22.5417 41.5821C25.3886 41.5821 28.0912 40.9467 30.5123 39.8083C30.5243 39.8027 30.5362 39.7969 30.548 39.7909C36.9016 36.7864 41.3032 30.3166 41.3032 22.808C41.3032 12.4286 32.8922 4.03418 22.541 4.03418ZM15.7119 37.3402C16.14 37.5414 16.5784 37.7244 17.0263 37.888C17.6718 35.4342 19.9037 33.6352 22.5413 33.6352C25.1789 33.6352 27.4107 35.4341 28.0563 37.8878C34.2151 35.6383 38.6032 29.7293 38.6032 22.808C38.6032 13.9544 31.4228 6.75736 22.541 6.75736C13.6591 6.75736 6.47869 13.9544 6.47869 22.808C6.47869 29.2177 10.2421 34.7591 15.6899 37.3301L15.7119 37.3402ZM19.6345 38.5968C20.577 38.7688 21.5483 38.8587 22.541 38.8587C23.5338 38.8587 24.5054 38.7688 25.4481 38.5967C25.1138 37.3151 23.9465 36.3584 22.5413 36.3584C21.1361 36.3584 19.9688 37.3151 19.6345 38.5968Z" fill="black"/>
</svg>
