<svg width="21" height="21" viewBox="0 0 21 21" fill="none" xmlns="http://www.w3.org/2000/svg">
<mask id="mask0_273_6453" style="mask-type:alpha" maskUnits="userSpaceOnUse" x="0" y="0" width="21" height="21">
<rect x="0.906128" y="0.84137" width="20" height="20" fill="#D9D9D9"/>
</mask>
<g mask="url(#mask0_273_6453)">
<path fill-rule="evenodd" clip-rule="evenodd" d="M3.65601 9.08179C3.65601 5.07771 6.90193 1.83179 10.906 1.83179C14.9101 1.83179 18.156 5.07771 18.156 9.08179C18.156 12.1445 16.4089 14.9765 14.8078 16.9512C13.9918 17.9575 13.1783 18.7843 12.5692 19.3596C12.264 19.6478 12.0085 19.8745 11.8274 20.0305C11.7369 20.1086 11.6648 20.1691 11.6144 20.2109C11.5891 20.2318 11.5693 20.248 11.5552 20.2595L11.5385 20.2731L11.5335 20.2771L11.5318 20.2784L10.9186 20.8413L11.5307 20.2793C11.1655 20.5715 10.6461 20.5711 10.2808 20.2789L10.2786 20.2771L10.2735 20.2731L10.2568 20.2595C10.2427 20.248 10.2229 20.2318 10.1977 20.2109C10.1472 20.1691 10.0751 20.1086 9.98458 20.0305C9.80354 19.8745 9.54802 19.6478 9.24282 19.3596C8.63367 18.7843 7.82017 17.9575 7.00425 16.9512C5.40313 14.9765 3.65601 12.1445 3.65601 9.08179ZM7.40601 9.08179C7.40601 7.14879 8.97301 5.58179 10.906 5.58179C12.839 5.58179 14.406 7.14879 14.406 9.08179C14.406 11.0148 12.839 12.5818 10.906 12.5818C8.97301 12.5818 7.40601 11.0148 7.40601 9.08179Z" fill="black"/>
</g>
</svg>
