<svg width="16" height="16" viewBox="0 0 16 16" fill="none" xmlns="http://www.w3.org/2000/svg">
<path d="M2.26683 7.9987C1.75136 7.9987 1.3335 7.58083 1.3335 7.06536V4.93203C1.3335 4.41657 1.75136 3.9987 2.26683 3.9987H3.66683C4.03502 3.9987 4.3335 3.70022 4.3335 3.33203V3.33203C4.3335 2.22746 5.22893 1.33203 6.3335 1.33203C7.43806 1.33203 8.3335 2.22746 8.3335 3.33203V3.33203C8.3335 3.70022 8.63197 3.9987 9.00016 3.9987H10.4002C10.9156 3.9987 11.3335 4.41657 11.3335 4.93203V7.06536C11.3335 7.58083 11.7514 7.9987 12.2668 7.9987H12.6668C13.7714 7.9987 14.6668 8.89413 14.6668 9.9987C14.6668 11.1033 13.7714 11.9987 12.6668 11.9987H12.2668C11.7514 11.9987 11.3335 12.4166 11.3335 12.932V13.732C11.3335 14.2475 10.9156 14.6654 10.4002 14.6654H2.26683C1.75136 14.6654 1.3335 14.2475 1.3335 13.732V12.932C1.3335 12.4166 1.75136 11.9987 2.26683 11.9987H2.66683C3.7714 11.9987 4.66683 11.1033 4.66683 9.9987C4.66683 8.89413 3.7714 7.9987 2.66683 7.9987H2.26683Z" fill="black"/>
</svg>
