<svg width="16" height="16" viewBox="0 0 16 16" fill="none" xmlns="http://www.w3.org/2000/svg">
<g clip-path="url(#clip0_6380_5568)">
<path fill-rule="evenodd" clip-rule="evenodd" d="M16 3.2C16 1.43269 14.5673 0 12.8 0H3.2C1.43269 0 0 1.43269 0 3.2V12.8C0 14.5673 1.43269 16 3.2 16H12.8C14.5673 16 16 14.5673 16 12.8V3.2ZM11.9328 7.83111C11.9264 7.84963 11.9017 7.84737 11.8869 7.83455C11.815 7.77249 11.7398 7.72855 11.6615 7.70146C11.4145 7.61596 11.1235 7.44633 11.082 7.18819C11.0707 7.11797 11.0565 7.04834 11.0392 6.97908C10.8702 6.30502 10.5005 5.75842 9.96806 5.32071C9.25146 4.73126 8.41859 4.446 7.49767 4.40566C6.50672 4.36246 5.59401 4.6047 4.79115 5.19539C4.03044 5.75502 3.55837 6.49531 3.48567 7.45231C3.43673 8.09656 3.61856 8.68654 3.97686 9.22261C4.1903 9.54214 4.45375 9.81509 4.76097 10.0452C4.91368 10.1594 4.9628 10.3005 4.90886 10.4852C4.86295 10.643 4.82259 10.8026 4.78222 10.9622L4.74346 11.1141L4.73792 11.1332C4.73239 11.1512 4.72685 11.17 4.72685 11.1878C4.72685 11.2071 4.73346 11.2253 4.75418 11.2405C4.77257 11.2539 4.78901 11.2541 4.80437 11.2482C4.81762 11.2432 4.83009 11.2339 4.84225 11.2249C4.85025 11.2189 4.85812 11.213 4.86599 11.2085L4.99119 11.136C5.19974 11.0153 5.40844 10.8944 5.61366 10.7682C5.7737 10.6696 5.9332 10.6521 6.11538 10.7019C6.91539 10.921 7.71736 10.9199 8.51576 10.6918C8.61721 10.6628 8.64007 10.6744 8.64489 10.7842C8.65329 10.9811 8.7551 11.1364 8.9171 11.2498C8.93139 11.2598 8.94604 11.2692 8.96157 11.2787C8.97495 11.287 8.98893 11.2954 9.00383 11.3043L9.00384 11.3043L9.00385 11.3043V11.3043C9.02411 11.3165 9.02137 11.3464 8.99919 11.3545C8.74613 11.4474 8.49575 11.5082 8.24194 11.5524C7.46266 11.688 6.68873 11.6614 5.92302 11.457C5.8664 11.442 5.82139 11.4497 5.77102 11.4751C5.60491 11.559 5.43844 11.6423 5.27198 11.7257C5.01638 11.8535 4.76079 11.9813 4.50626 12.1115C4.36766 12.1823 4.2362 12.1923 4.10992 12.0977C4.04991 12.0527 4.01079 12.0004 3.98882 11.9412C3.96382 11.8739 3.96096 11.7978 3.974 11.7132C4.00797 11.4932 4.03631 11.2724 4.06466 11.0515C4.08178 10.9181 4.09889 10.7848 4.11725 10.6516C4.12046 10.6275 4.11707 10.6084 4.10939 10.592C4.09867 10.5688 4.07956 10.5509 4.05991 10.5331L4.05884 10.5322L4.04562 10.5199C3.67982 10.1716 3.35028 9.79313 3.10808 9.34721C2.32683 7.90894 2.57332 6.22094 3.74002 5.03616C4.51341 4.25089 5.45916 3.80978 6.5453 3.65626C7.4932 3.5222 8.41395 3.62449 9.29879 3.9924C10.2844 4.40209 11.0619 5.05169 11.5548 6.01226C11.8403 6.56868 11.9674 7.16187 11.9349 7.78773C11.9348 7.79202 11.9349 7.79648 11.9353 7.80112C11.9358 7.81076 11.9364 7.82094 11.9328 7.83111V7.83111ZM13.8611 10.4804C13.8572 10.7944 13.6334 11.0673 13.3251 11.1159C12.8837 11.1852 12.5138 11.3856 12.2054 11.705C12.1641 11.7477 12.1205 11.7835 12.0582 11.7771C11.9971 11.771 11.9499 11.7402 11.9281 11.6802C11.9231 11.6661 11.9199 11.6525 11.9187 11.6395C11.918 11.632 11.918 11.6247 11.9185 11.6173C11.9198 11.6 11.9242 11.5836 11.9315 11.5679C11.9419 11.5456 11.9578 11.5249 11.9778 11.5052C12.1253 11.3608 12.2559 11.2034 12.3563 11.0216C12.4658 10.8237 12.5404 10.6143 12.5797 10.3911C12.6349 10.078 12.8839 9.85186 13.1774 9.84115C13.4965 9.82973 13.7652 10.0236 13.8404 10.323C13.8436 10.3362 13.8461 10.3496 13.8481 10.3631C13.8498 10.3753 13.8513 10.3874 13.8525 10.3995L13.8554 10.427L13.8565 10.4376C13.8579 10.4518 13.8593 10.4661 13.8611 10.4804ZM12.0285 12.3037C12.0291 12.6302 11.776 12.9162 11.4639 12.9424C11.114 12.9717 10.8111 12.7505 10.7547 12.4049C10.682 11.9595 10.4769 11.5902 10.1567 11.2783C10.1192 11.2418 10.099 11.1994 10.0958 11.1589C10.092 11.11 10.1133 11.0638 10.1588 11.0336C10.1999 11.0065 10.2376 10.9995 10.2726 11.0072C10.3112 11.0156 10.3467 11.0415 10.3807 11.0768C10.5505 11.2542 10.7456 11.3971 10.9686 11.5017C11.0749 11.5515 11.1837 11.5923 11.2957 11.6234C11.3218 11.6306 11.348 11.6373 11.3745 11.6436C11.4121 11.6523 11.45 11.66 11.4884 11.6664C11.8079 11.7214 12.0284 11.9806 12.0285 12.3037ZM11.4041 8.01587C11.7026 8.01676 11.976 8.23366 12.0232 8.52356C12.0973 8.97948 12.3004 9.36345 12.6331 9.68174C12.7142 9.75957 12.7139 9.85775 12.6346 9.9188C12.5912 9.95219 12.5517 9.95986 12.5147 9.95094C12.4758 9.94165 12.4395 9.91381 12.4047 9.8781C12.3491 9.8208 12.2911 9.76725 12.2305 9.71744C12.0655 9.5816 11.8819 9.47377 11.6788 9.39523C11.5581 9.34864 11.4345 9.31312 11.3057 9.29312C10.9729 9.24207 10.7268 8.9411 10.7497 8.61728C10.7741 8.27346 11.0554 8.0148 11.4041 8.01587ZM10.5353 9.29809L10.5653 9.26849C10.6654 9.17066 10.7511 9.15603 10.8202 9.22761C10.8897 9.29955 10.8765 9.38113 10.7747 9.48377C10.535 9.72548 10.3599 10.0063 10.2594 10.3322C10.2431 10.3852 10.2323 10.4395 10.2214 10.4938L10.2142 10.5297C10.1997 10.6007 10.1831 10.6714 10.1524 10.7384C10.0307 11.0042 9.7121 11.1755 9.45169 11.1138C9.12572 11.0365 8.9046 10.7532 8.9221 10.4354C8.93871 10.1368 9.18948 9.8815 9.48848 9.84008C9.70818 9.80973 9.91483 9.7319 10.1068 9.61855C10.1431 9.59641 10.1786 9.57303 10.214 9.54946L10.2274 9.54055C10.2565 9.52121 10.2855 9.50193 10.3147 9.48306C10.3986 9.43339 10.467 9.36565 10.5353 9.2981L10.5353 9.29809Z" fill="black"/>
</g>
<defs>
<clipPath id="clip0_6380_5568">
<rect width="16" height="16" fill="white"/>
</clipPath>
</defs>
</svg>
