<svg width="16" height="17" viewBox="0 0 16 17" fill="none" xmlns="http://www.w3.org/2000/svg">
<path d="M8.00016 2.08203C6.68162 2.08203 5.39269 2.47302 4.29636 3.20557C3.20004 3.93811 2.34555 4.9793 1.84097 6.19747C1.33638 7.41565 1.20436 8.75609 1.4616 10.0493C1.71883 11.3425 2.35377 12.5304 3.28612 13.4627C4.21847 14.3951 5.40636 15.03 6.69956 15.2873C7.99277 15.5445 9.33321 15.4125 10.5514 14.9079C11.7696 14.4033 12.8108 13.5488 13.5433 12.4525C14.2758 11.3562 14.6668 10.0672 14.6668 8.7487C14.6649 6.98118 13.9619 5.28662 12.7121 4.0368C11.4622 2.78697 9.76768 2.08397 8.00016 2.08203V2.08203ZM8.00016 12.7487C7.86831 12.7487 7.73942 12.7096 7.62978 12.6363C7.52015 12.5631 7.4347 12.459 7.38424 12.3371C7.33379 12.2153 7.32058 12.0813 7.34631 11.952C7.37203 11.8226 7.43553 11.7039 7.52876 11.6106C7.622 11.5174 7.74078 11.4539 7.8701 11.4282C7.99942 11.4024 8.13347 11.4157 8.25529 11.4661C8.3771 11.5166 8.48122 11.602 8.55448 11.7116C8.62773 11.8213 8.66683 11.9502 8.66683 12.082C8.66683 12.2588 8.59659 12.4284 8.47157 12.5534C8.34654 12.6785 8.17698 12.7487 8.00016 12.7487ZM8.66683 9.72603V10.082C8.66683 10.2588 8.59659 10.4284 8.47157 10.5534C8.34654 10.6785 8.17698 10.7487 8.00016 10.7487C7.82335 10.7487 7.65378 10.6785 7.52876 10.5534C7.40374 10.4284 7.3335 10.2588 7.3335 10.082V9.1367C7.33349 9.04692 7.35162 8.95808 7.38679 8.87548C7.42196 8.79288 7.47344 8.71824 7.53816 8.65603C7.60239 8.59344 7.67878 8.54469 7.76261 8.51281C7.84643 8.48093 7.93591 8.4666 8.0255 8.4707C8.15438 8.47537 8.28289 8.45395 8.40329 8.40772C8.52369 8.3615 8.63351 8.29142 8.72616 8.2017C8.81881 8.11198 8.89237 8.00446 8.94244 7.88561C8.9925 7.76675 9.01803 7.639 9.0175 7.51003C9.02775 7.24481 8.93223 6.98639 8.75195 6.7916C8.57166 6.59681 8.32138 6.48162 8.05616 6.47136C7.79095 6.46111 7.53252 6.55663 7.33773 6.73691C7.14295 6.9172 7.02775 7.16748 7.0175 7.4327C7.01539 7.52054 6.99569 7.60708 6.95956 7.68718C6.92343 7.76728 6.87161 7.83933 6.80716 7.89906C6.7427 7.95878 6.66693 8.00498 6.58431 8.03492C6.5017 8.06486 6.41392 8.07793 6.32616 8.07336C6.14967 8.06642 5.98313 7.98972 5.86314 7.8601C5.74314 7.73048 5.67949 7.55854 5.68616 7.38203C5.70509 6.95333 5.84187 6.53815 6.08147 6.18214C6.32107 5.82614 6.6542 5.54311 7.04423 5.36416C7.43426 5.18522 7.86608 5.1173 8.29221 5.16787C8.71835 5.21845 9.12228 5.38555 9.45959 5.65082C9.7969 5.91608 10.0545 6.26922 10.2041 6.67142C10.3538 7.07361 10.3896 7.50928 10.3076 7.9305C10.2257 8.35172 10.0292 8.74219 9.73969 9.05897C9.45021 9.37575 9.07899 9.60656 8.66683 9.72603Z" fill="black"/>
</svg>
