<svg width="16" height="16" viewBox="0 0 16 16" fill="none" xmlns="http://www.w3.org/2000/svg">
<path d="M8.00016 1.33203C6.68162 1.33203 5.39269 1.72302 4.29636 2.45557C3.20004 3.18811 2.34555 4.2293 1.84097 5.44747C1.33638 6.66565 1.20436 8.00609 1.4616 9.2993C1.71883 10.5925 2.35377 11.7804 3.28612 12.7127C4.21847 13.6451 5.40636 14.28 6.69956 14.5373C7.99277 14.7945 9.33321 14.6625 10.5514 14.1579C11.7696 13.6533 12.8108 12.7988 13.5433 11.7025C14.2758 10.6062 14.6668 9.31724 14.6668 7.9987C14.6649 6.23118 13.9619 4.53662 12.7121 3.2868C11.4622 2.03697 9.76768 1.33397 8.00016 1.33203ZM8.00016 11.9987C7.86831 11.9987 7.73942 11.9596 7.62978 11.8863C7.52015 11.8131 7.4347 11.709 7.38424 11.5871C7.33379 11.4653 7.32058 11.3313 7.34631 11.202C7.37203 11.0726 7.43552 10.9539 7.52876 10.8606C7.62199 10.7674 7.74078 10.7039 7.8701 10.6782C7.99942 10.6524 8.13347 10.6657 8.25529 10.7161C8.3771 10.7666 8.48122 10.852 8.55448 10.9616C8.62773 11.0713 8.66683 11.2002 8.66683 11.332C8.66683 11.5088 8.59659 11.6784 8.47157 11.8034C8.34654 11.9285 8.17698 11.9987 8.00016 11.9987ZM8.66683 8.97603V9.33203C8.66683 9.50884 8.59659 9.67841 8.47157 9.80343C8.34654 9.92846 8.17698 9.9987 8.00016 9.9987C7.82335 9.9987 7.65378 9.92846 7.52876 9.80343C7.40374 9.67841 7.3335 9.50884 7.3335 9.33203V8.3867C7.33349 8.29692 7.35162 8.20808 7.38679 8.12548C7.42196 8.04288 7.47344 7.96824 7.53816 7.90603C7.60239 7.84344 7.67878 7.79469 7.76261 7.76281C7.84643 7.73093 7.93591 7.7166 8.0255 7.7207C8.15438 7.72537 8.28289 7.70395 8.40329 7.65772C8.52369 7.6115 8.63351 7.54142 8.72616 7.4517C8.81881 7.36198 8.89237 7.25446 8.94244 7.13561C8.9925 7.01675 9.01803 6.889 9.0175 6.76003C9.02775 6.49481 8.93223 6.23639 8.75195 6.0416C8.57166 5.84681 8.32138 5.73162 8.05616 5.72136C7.79095 5.71111 7.53252 5.80663 7.33773 5.98691C7.14295 6.1672 7.02775 6.41748 7.0175 6.6827C7.01539 6.77054 6.99569 6.85708 6.95956 6.93718C6.92343 7.01728 6.87161 7.08933 6.80716 7.14906C6.7427 7.20878 6.66693 7.25498 6.58431 7.28492C6.5017 7.31486 6.41392 7.32793 6.32616 7.32336C6.14966 7.31642 5.98313 7.23972 5.86314 7.1101C5.74314 6.98048 5.67949 6.80854 5.68616 6.63203C5.70509 6.20333 5.84187 5.78815 6.08147 5.43214C6.32107 5.07614 6.6542 4.79311 7.04423 4.61416C7.43426 4.43522 7.86608 4.3673 8.29221 4.41787C8.71835 4.46845 9.12228 4.63555 9.45959 4.90082C9.7969 5.16608 10.0545 5.51922 10.2041 5.92142C10.3538 6.32361 10.3896 6.75928 10.3076 7.1805C10.2257 7.60172 10.0292 7.99219 9.73969 8.30897C9.45021 8.62575 9.07899 8.85656 8.66683 8.97603Z" fill="black"/>
</svg>
