<svg width="16" height="16" viewBox="0 0 16 16" fill="none" xmlns="http://www.w3.org/2000/svg">
<path d="M4.66764 7.32422C4.29945 7.32422 4.00098 7.6227 4.00098 7.99089C4.00098 8.35908 4.29945 8.65755 4.66764 8.65755H8.33431C8.7025 8.65755 9.00098 8.35908 9.00098 7.99089C9.00098 7.6227 8.7025 7.32422 8.33431 7.32422H4.66764Z" fill="black"/>
<path d="M4.66764 9.99297C4.29945 9.99297 4.00098 10.2914 4.00098 10.6596C4.00098 11.0278 4.29945 11.3263 4.66764 11.3263H11.3343C11.7025 11.3263 12.001 11.0278 12.001 10.6596C12.001 10.2914 11.7025 9.99297 11.3343 9.99297H4.66764Z" fill="black"/>
<path fill-rule="evenodd" clip-rule="evenodd" d="M4.66706 1.65234C5.03525 1.65234 5.33372 1.95082 5.33372 2.31901V3.00859H10.6629V2.31901C10.6629 1.95082 10.9614 1.65234 11.3296 1.65234C11.6977 1.65234 11.9962 1.95082 11.9962 2.31901V3.00859H12.7996C14.0522 3.00859 15.0676 4.02401 15.0676 5.27659V12.0766C15.0676 13.3292 14.0522 14.3446 12.7996 14.3446H3.19964C1.94706 14.3446 0.931641 13.3292 0.931641 12.0766V5.27659C0.931641 4.02401 1.94706 3.00859 3.19964 3.00859H4.00039V2.31901C4.00039 1.95082 4.29887 1.65234 4.66706 1.65234ZM10.6629 4.34459V4.98568C10.6629 5.35387 10.9614 5.65234 11.3296 5.65234C11.6977 5.65234 11.9962 5.35387 11.9962 4.98568V4.34459H12.7996C13.3144 4.34459 13.7316 4.76186 13.7316 5.27659V12.0766C13.7316 12.5913 13.3144 13.0086 12.7996 13.0086H3.19964C2.68491 13.0086 2.26764 12.5913 2.26764 12.0766V5.27659C2.26764 4.76186 2.68491 4.34459 3.19964 4.34459H4.00039V4.98568C4.00039 5.35387 4.29887 5.65234 4.66706 5.65234C5.03525 5.65234 5.33372 5.35387 5.33372 4.98568V4.34459H10.6629Z" fill="black"/>
</svg>
