<svg width="16" height="16" viewBox="0 0 16 16" fill="none" xmlns="http://www.w3.org/2000/svg">
<path d="M7.87317 12.5893L7.99795 13.4603C8.03429 13.718 8.1418 13.9605 8.30843 14.1605C8.47506 14.3606 8.69422 14.5104 8.94131 14.593C9.18839 14.6756 9.45364 14.6878 9.70728 14.6282C9.96093 14.5686 10.1929 14.4396 10.3773 14.2557L11.8642 12.7706C11.9812 12.6539 12.0532 12.4997 12.0675 12.3351L12.2658 10.0021C10.8624 10.8949 9.21144 11.845 7.87317 12.5893Z" fill="black"/>
<path d="M14.4839 2.36394C14.4488 2.15532 14.3494 1.96282 14.1997 1.81323C14.0499 1.66364 13.8572 1.56441 13.6483 1.52933C12.992 1.41372 12.3272 1.3526 11.6609 1.34659C10.6671 1.26122 9.67771 1.55353 8.89037 2.16509C7.64393 3.41 5.00383 8.13407 4.18222 9.62963C4.10979 9.76204 4.08244 9.9144 4.10432 10.0637C4.1262 10.213 4.19611 10.3511 4.3035 10.4572L5.54643 11.6965C5.61111 11.7625 5.68819 11.8149 5.77325 11.851C5.85831 11.887 5.94967 11.9059 6.04206 11.9066C6.15853 11.9069 6.27313 11.8775 6.37505 11.8212C7.87246 11.0013 12.6023 8.36442 13.8488 7.11951C14.9466 6.01814 14.6914 3.56684 14.4839 2.36394ZM11.8642 6.12597C11.668 6.32175 11.4182 6.45507 11.1463 6.50905C10.8743 6.56304 10.5924 6.53528 10.3363 6.42927C10.0801 6.32327 9.86116 6.14378 9.70712 5.91351C9.55309 5.68323 9.47087 5.41251 9.47087 5.13557C9.47087 4.85864 9.55309 4.58792 9.70712 4.35764C9.86116 4.12737 10.0801 3.94788 10.3363 3.84188C10.5924 3.73587 10.8743 3.70811 11.1463 3.76209C11.4182 3.81608 11.668 3.94939 11.8642 4.14518C11.9944 4.27522 12.0977 4.42962 12.1682 4.59955C12.2387 4.76949 12.275 4.95163 12.275 5.13557C12.275 5.31952 12.2387 5.50166 12.1682 5.67159C12.0977 5.84153 11.9944 5.99593 11.8642 6.12597Z" fill="black"/>
<path d="M6.00351 3.74468L3.66837 3.94283C3.50393 3.95699 3.34976 4.02865 3.23302 4.14518L1.74473 5.63025C1.56044 5.8141 1.43107 6.04559 1.37113 6.29877C1.31118 6.55194 1.32304 6.81679 1.40537 7.06361C1.48769 7.31043 1.63723 7.52947 1.83722 7.69616C2.03721 7.86285 2.27973 7.9706 2.5376 8.00733L3.40969 8.13197C4.15559 6.79534 5.10619 5.14643 6.00351 3.74468Z" fill="black"/>
</svg>
