<svg width="28" height="29" viewBox="0 0 28 29" fill="none" xmlns="http://www.w3.org/2000/svg">
<mask id="mask0_217_18" style="mask-type:alpha" maskUnits="userSpaceOnUse" x="0" y="0" width="28" height="29">
<rect y="0.641113" width="28" height="28" fill="#D9D9D9"/>
</mask>
<g mask="url(#mask0_217_18)">
<path fill-rule="evenodd" clip-rule="evenodd" d="M2.84589 13.404C2.84589 7.92716 7.28574 3.4873 12.7626 3.4873C18.2394 3.4873 22.6792 7.92716 22.6792 13.404C22.6792 15.7219 21.8839 17.8542 20.5514 19.5428L24.8124 23.8038C25.268 24.2594 25.268 24.9981 24.8124 25.4537C24.3568 25.9093 23.6181 25.9093 23.1625 25.4537L18.9015 21.1927C17.2129 22.5254 15.0806 23.3207 12.7626 23.3207C7.28574 23.3207 2.84589 18.8808 2.84589 13.404ZM12.7626 5.82064C8.5744 5.82064 5.17922 9.21582 5.17922 13.404C5.17922 17.5922 8.5744 20.9873 12.7626 20.9873C16.9508 20.9873 20.3459 17.5922 20.3459 13.404C20.3459 9.21582 16.9508 5.82064 12.7626 5.82064Z" fill="black"/>
</g>
</svg>
