<svg width="25" height="25" viewBox="0 0 25 25" fill="none" xmlns="http://www.w3.org/2000/svg">
<path fill-rule="evenodd" clip-rule="evenodd" d="M12.9811 1.76563C13.3619 1.76465 13.7102 1.97999 13.8795 2.32106L16.7429 8.09049L23.1287 9.02164C23.5048 9.07649 23.8174 9.33986 23.9352 9.70128C24.053 10.0627 23.9557 10.4596 23.6841 10.7256L19.0393 15.2745L20.1422 21.5937C20.2079 21.9702 20.0533 22.3512 19.7438 22.5754C19.4343 22.7997 19.024 22.8279 18.6867 22.6481L12.9838 19.6084L7.28204 22.6481C6.94456 22.828 6.53403 22.7996 6.22445 22.5751C5.91488 22.3506 5.76048 21.9691 5.82671 21.5924L6.93762 15.2745L2.28534 10.7262C2.01331 10.4603 1.91574 10.063 2.03362 9.70132C2.1515 9.33961 2.46441 9.07612 2.8409 9.02153L9.26138 8.09051L12.0857 2.32567C12.2532 1.98374 12.6004 1.76661 12.9811 1.76563ZM12.9895 5.02672L10.8252 9.44438C10.6799 9.74096 10.3976 9.94668 10.0707 9.99407L5.13018 10.7105L8.71292 14.2131C8.94895 14.4439 9.05591 14.7762 8.99874 15.1013L8.15183 19.9179L12.5133 17.5928C12.8073 17.436 13.16 17.436 13.4541 17.5927L17.8198 19.9197L16.9786 15.1001C16.922 14.7757 17.0287 14.4442 17.264 14.2137L20.8423 10.7094L15.9358 9.99396C15.611 9.94661 15.3302 9.74294 15.1843 9.44899L12.9895 5.02672Z" fill="black"/>
</svg>
