<svg width="24" height="24" viewBox="0 0 24 24" fill="none" xmlns="http://www.w3.org/2000/svg">
<path fill-rule="evenodd" clip-rule="evenodd" d="M11.9969 1.5C12.3777 1.49903 12.726 1.71437 12.8953 2.05544L15.7587 7.82487L22.1445 8.75601C22.5207 8.81086 22.8332 9.07424 22.951 9.43565C23.0688 9.79707 22.9715 10.194 22.6999 10.46L18.0551 15.0089L19.158 21.3281C19.2237 21.7046 19.0691 22.0856 18.7596 22.3098C18.4501 22.534 18.0398 22.5622 17.7026 22.3825L11.9996 19.3428L6.29785 22.3824C5.96037 22.5623 5.54984 22.534 5.24026 22.3095C4.93069 22.0849 4.77629 21.7035 4.84252 21.3268L5.95343 15.0089L1.30114 10.4606C1.02912 10.1947 0.93155 9.7974 1.04943 9.43569C1.16731 9.07398 1.48021 8.81049 1.85671 8.7559L8.27719 7.82489L11.1015 2.06004C11.269 1.71811 11.6162 1.50098 11.9969 1.5ZM12.0053 4.7611L9.84103 9.17876C9.69573 9.47534 9.41336 9.68105 9.08652 9.72845L4.14599 10.4449L7.72873 13.9475C7.96476 14.1782 8.07172 14.5106 8.01455 14.8357L7.16764 19.6523L11.5291 17.3272C11.8231 17.1704 12.1758 17.1704 12.4699 17.3271L16.8356 19.654L15.9944 14.8345C15.9378 14.5101 16.0445 14.1785 16.2798 13.9481L19.8581 10.4438L14.9516 9.72834C14.6268 9.68098 14.346 9.47732 14.2001 9.18336L12.0053 4.7611Z" fill="black"/>
</svg>
