<svg width="45" height="45" viewBox="0 0 45 45" fill="none" xmlns="http://www.w3.org/2000/svg">
<path fill-rule="evenodd" clip-rule="evenodd" d="M22.5413 1.55811C23.2869 1.55811 23.8913 2.16252 23.8913 2.90811V8.17013L37.3169 15.8418C37.3309 15.8498 37.3447 15.858 37.3584 15.8665C37.3774 15.8783 37.3961 15.8905 37.4145 15.9032C37.4781 15.9471 37.5382 15.9966 37.5941 16.0517C37.6127 16.07 37.6308 16.0889 37.6484 16.1084C37.7845 16.2591 37.8853 16.4388 37.9425 16.6339C37.9487 16.655 37.9543 16.676 37.9595 16.6972C37.9782 16.7748 37.9899 16.8533 37.9946 16.9318C37.9955 16.9471 37.9962 16.9625 37.9966 16.9778C37.9969 16.9898 37.9971 17.0019 37.9971 17.0139C37.9971 17.0139 37.9971 17.0139 37.9971 17.0139V32.3006L43.2962 34.9502C43.963 35.2836 44.2333 36.0945 43.8999 36.7614C43.5665 37.4283 42.7556 37.6986 42.0887 37.3651L36.6896 34.6656L23.2276 42.3582C23.0714 42.4505 22.8951 42.5123 22.7068 42.5353C22.5898 42.5498 22.4714 42.5488 22.3546 42.5326C22.1766 42.5079 22.0097 42.4486 21.861 42.3617L8.3927 34.6655L2.99346 37.3651C2.32659 37.6986 1.51568 37.4283 1.18225 36.7614C0.848812 36.0945 1.11912 35.2836 1.78599 34.9502L7.08533 32.3005V17.0491C7.0789 16.8103 7.13577 16.5668 7.26294 16.3443C7.39112 16.12 7.57389 15.9464 7.78496 15.8307L21.1913 8.17003V2.90811C21.1913 2.16252 21.7957 1.55811 22.5413 1.55811ZM9.78533 19.3405V32.3516L21.1913 38.8691V25.8582L9.78533 19.3405ZM23.8913 38.869V25.8578L35.2971 19.3402V32.3516L23.8913 38.869ZM33.926 17.014L22.5409 23.5197L11.1562 17.0141L22.5412 10.5084L33.926 17.014Z" fill="black"/>
</svg>
