<svg width="44" height="44" viewBox="0 0 44 44" fill="none" xmlns="http://www.w3.org/2000/svg">
<path fill-rule="evenodd" clip-rule="evenodd" d="M22 1.50635C22.7455 1.50635 23.35 2.11076 23.35 2.85635V8.11837L36.7755 15.79C36.7896 15.798 36.8034 15.8063 36.8171 15.8147C36.8361 15.8265 36.8548 15.8387 36.8732 15.8515C36.9367 15.8953 36.9969 15.9449 37.0528 16C37.0713 16.0183 37.0894 16.0372 37.107 16.0567C37.2432 16.2073 37.3439 16.387 37.4012 16.5822C37.4074 16.6032 37.413 16.6243 37.4181 16.6454C37.4369 16.7231 37.4486 16.8016 37.4533 16.88C37.4542 16.8954 37.4549 16.9107 37.4553 16.9261C37.4556 16.9381 37.4557 16.9501 37.4557 16.9621C37.4557 16.9621 37.4557 16.9622 37.4557 16.9621V32.2489L42.7548 34.8984C43.4217 35.2318 43.692 36.0428 43.3586 36.7096C43.0251 37.3765 42.2142 37.6468 41.5474 37.3134L36.1483 34.6138L22.6863 42.3064C22.5301 42.3987 22.3538 42.4605 22.1655 42.4836C22.0485 42.498 21.93 42.4971 21.8133 42.4808C21.6353 42.4562 21.4684 42.3969 21.3197 42.3099L7.85138 34.6138L2.45214 37.3134C1.78527 37.6468 0.974362 37.3765 0.640927 36.7096C0.307491 36.0428 0.577794 35.2318 1.24467 34.8984L6.54401 32.2487V16.9973C6.53758 16.7586 6.59445 16.515 6.72162 16.2925C6.8498 16.0682 7.03257 15.8946 7.24364 15.7789L20.65 8.11827V2.85635C20.65 2.11076 21.2544 1.50635 22 1.50635ZM9.24401 19.2887V32.2998L20.65 38.8174V25.8064L9.24401 19.2887ZM23.35 38.8173V25.806L34.7557 19.2884V32.2998L23.35 38.8173ZM33.3846 16.9622L21.9996 23.4679L10.6149 16.9623L21.9999 10.4566L33.3846 16.9622Z" fill="black"/>
</svg>
