<svg width="16" height="16" viewBox="0 0 16 16" fill="none" xmlns="http://www.w3.org/2000/svg">
<path fill-rule="evenodd" clip-rule="evenodd" d="M4.46666 1.66895C3.65665 1.66895 3 2.32559 3 3.13561V4.86894C3 4.91318 3.00196 4.95696 3.00579 5.0002H2.1777C1.31547 5.0002 0.679953 5.80625 0.881182 6.64468L2.56118 13.6447C2.70506 14.2442 3.24117 14.6669 3.8577 14.6669H12.1398C12.7563 14.6669 13.2925 14.2442 13.4364 13.6447L15.1164 6.64467C15.3176 5.80626 14.6821 5.0002 13.8198 5.0002H12.8798L9.53995 2.59547C8.88327 2.12266 7.96774 2.27102 7.49397 2.927L7 3.61096V3.13561C7 2.32559 6.34335 1.66895 5.53333 1.66895H4.46666ZM8.76087 3.67751L10.5979 5.0002H7.64137L8.57488 3.70765C8.61795 3.64802 8.70118 3.63453 8.76087 3.67751ZM5.55694 5.0002C5.61932 4.98905 5.66666 4.93453 5.66666 4.86894V3.13561C5.66666 3.06197 5.60697 3.00228 5.53333 3.00228H4.46666C4.39303 3.00228 4.33333 3.06197 4.33333 3.13561V4.86894C4.33333 4.93453 4.38068 4.98905 4.44306 5.0002H5.55694ZM4.99792 7.66894C4.62973 7.66894 4.33125 7.96742 4.33125 8.33561C4.33125 8.7038 4.62973 9.00228 4.99792 9.00228H7.66458C8.03277 9.00228 8.33125 8.7038 8.33125 8.33561C8.33125 7.96742 8.03277 7.66894 7.66458 7.66894H4.99792Z" fill="black"/>
</svg>
