<svg width="16" height="16" viewBox="0 0 16 16" fill="none" xmlns="http://www.w3.org/2000/svg">
<path d="M13.333 2H2.66634C2.31272 2 1.97358 2.14048 1.72353 2.39052C1.47348 2.64057 1.33301 2.97971 1.33301 3.33333V12.6667C1.33301 13.0203 1.47348 13.3594 1.72353 13.6095C1.97358 13.8595 2.31272 14 2.66634 14H13.333C13.6866 14 14.0258 13.8595 14.2758 13.6095C14.5259 13.3594 14.6663 13.0203 14.6663 12.6667V3.33333C14.6663 2.97971 14.5259 2.64057 14.2758 2.39052C14.0258 2.14048 13.6866 2 13.333 2V2ZM4.66634 11.3333C4.53451 11.3333 4.40564 11.2942 4.29604 11.2209C4.18643 11.1477 4.101 11.0436 4.05056 10.9218C4.00011 10.8 3.98691 10.6659 4.01262 10.5366C4.03833 10.4073 4.1018 10.2886 4.19501 10.1953L6.39034 8L4.19501 5.80467C4.07357 5.67893 4.00637 5.51053 4.00789 5.33573C4.00941 5.16094 4.07952 4.99373 4.20313 4.87012C4.32673 4.74652 4.49394 4.6764 4.66874 4.67488C4.84354 4.67337 5.01194 4.74056 5.13767 4.862L7.80434 7.52867C7.92932 7.65369 7.99953 7.82322 7.99953 8C7.99953 8.17678 7.92932 8.34631 7.80434 8.47133L5.13767 11.138C5.01268 11.263 4.84314 11.3333 4.66634 11.3333ZM11.333 11.3333H7.99967C7.82286 11.3333 7.65329 11.2631 7.52827 11.1381C7.40325 11.013 7.33301 10.8435 7.33301 10.6667C7.33301 10.4899 7.40325 10.3203 7.52827 10.1953C7.65329 10.0702 7.82286 10 7.99967 10H11.333C11.5098 10 11.6794 10.0702 11.8044 10.1953C11.9294 10.3203 11.9997 10.4899 11.9997 10.6667C11.9997 10.8435 11.9294 11.013 11.8044 11.1381C11.6794 11.2631 11.5098 11.3333 11.333 11.3333Z" fill="black"/>
</svg>
