<svg width="16" height="16" viewBox="0 0 16 16" fill="none" xmlns="http://www.w3.org/2000/svg">
<path d="M11.6596 0.56543C12.9122 0.56543 13.9275 1.58082 13.9275 2.8334V6.38496L12.5916 5.19199V2.8334C12.5916 2.31867 12.1743 1.90137 11.6596 1.90137H3.47598C2.96125 1.90137 2.54395 2.31867 2.54395 2.8334V12.2084L3.3041 11.4482L5.23263 13.5225V15.4123L3.30332 13.3373L1.20801 15.4342V2.8334C1.20801 1.58082 2.2234 0.56543 3.47598 0.56543H11.6596Z" fill="black"/>
<path fill-rule="evenodd" clip-rule="evenodd" d="M11.7087 7.42324C12.282 6.84995 13.212 6.84995 13.7853 7.42324L14.3618 7.9998C14.935 8.57306 14.9358 9.5031 14.3626 10.0764L9.00715 15.4318L8.72668 15.4287L6.37511 15.41L6.35402 12.7779L11.7087 7.42324ZM12.8407 8.36777C12.7892 8.31622 12.7048 8.31622 12.6532 8.36777L7.69465 13.3271L7.7009 14.0842L8.45793 14.0904L13.4173 9.13105C13.4687 9.07953 13.4687 8.99585 13.4173 8.94433L12.8407 8.36777Z" fill="black"/>
<path d="M9.51973 6.38809C9.85673 6.42214 10.1197 6.70695 10.1197 7.05293C10.1197 7.39891 9.85673 7.68372 9.51973 7.71777L9.45176 7.7209H4.36191C3.99299 7.7209 3.69395 7.42186 3.69395 7.05293C3.69395 6.684 3.99299 6.38496 4.36191 6.38496H9.45176L9.51973 6.38809Z" fill="black"/>
<path d="M8.42519 3.85918C8.76192 3.8935 9.02441 4.17824 9.02441 4.52402C9.02441 4.86981 8.76192 5.15455 8.42519 5.18887L8.35644 5.19199H4.36191C3.99299 5.19199 3.69395 4.89295 3.69395 4.52402C3.69395 4.1551 3.99299 3.85605 4.36191 3.85605H8.35644L8.42519 3.85918Z" fill="black"/>
</svg>
