<svg width="41" height="41" viewBox="0 0 41 41" fill="none" xmlns="http://www.w3.org/2000/svg">
<mask id="mask0_217_9" style="mask-type:alpha" maskUnits="userSpaceOnUse" x="0" y="0" width="41" height="41">
<rect x="0.907227" y="0.361328" width="40" height="40" fill="#D9D9D9"/>
</mask>
<g mask="url(#mask0_217_9)">
<path fill-rule="evenodd" clip-rule="evenodd" d="M28.7766 13.9622C28.8085 14.0871 28.8405 14.2121 28.8781 14.3352C28.9278 14.4987 28.8665 14.5326 28.7211 14.5115C28.2878 14.4493 27.8516 14.4562 27.4175 14.4746C24.0888 14.6171 21.1517 15.7242 18.7509 18.0792C17.2525 19.5483 16.2796 21.3233 15.9077 23.3999C15.6564 24.8026 15.7353 26.1946 16.148 27.5629C16.2286 27.831 16.2282 27.8332 15.9348 27.8297C14.2708 27.8113 12.6481 27.5509 11.0781 26.9907C10.9688 26.9521 10.8855 26.9598 10.7843 27.0237C9.83272 27.6236 8.87859 28.2199 7.92444 28.8161L7.27073 29.2247C7.22424 29.2535 7.17701 29.2809 7.12429 29.3115C7.09648 29.3276 7.06638 29.3451 7.0348 29.3637C7.10467 29.0526 7.17386 28.7429 7.24282 28.4342C7.44902 27.5111 7.65324 26.5969 7.86698 25.6854C7.91545 25.4786 7.89057 25.3727 7.70612 25.2406C5.67888 23.792 4.15008 21.9445 3.40241 19.544C2.36734 16.2201 2.97517 13.1505 5.0363 10.3738C6.53593 8.35388 8.54129 6.99581 10.8855 6.12503C12.2552 5.61629 13.6725 5.33275 15.133 5.25339C18.306 5.08138 21.2581 5.77844 23.9305 7.51956C26.1679 8.97715 27.7915 10.9362 28.6443 13.4928C28.6957 13.6467 28.7362 13.8045 28.7766 13.9622ZM9.6021 12.4075C9.59995 13.5352 10.5222 14.4661 11.6461 14.4704C12.7742 14.4746 13.7089 13.5532 13.7145 12.4311C13.7201 11.3012 12.8025 10.3657 11.6808 10.3575C10.5402 10.3494 9.60424 11.2725 9.6021 12.4075ZM20.3852 14.4708C19.2605 14.4665 18.3386 13.5369 18.3403 12.4088C18.3421 11.2742 19.2785 10.3502 20.4182 10.358C21.5403 10.3657 22.4575 11.3008 22.4523 12.4307C22.4472 13.5528 21.5129 14.4751 20.3852 14.4708Z" fill="black"/>
<path fill-rule="evenodd" clip-rule="evenodd" d="M35.8703 18.3936C37.3579 19.6954 38.3685 21.2942 38.7533 23.2442C39.1338 25.1711 38.8022 26.9963 37.8336 28.7026C37.0503 30.0826 35.9578 31.1696 34.6327 32.0292C34.4963 32.118 34.4624 32.1956 34.5028 32.3522C34.6785 33.0365 34.8492 33.7224 35.0198 34.4082C35.0911 34.6947 35.1625 34.9815 35.2341 35.2678C35.2365 35.277 35.239 35.2862 35.2415 35.2954C35.2576 35.3543 35.2741 35.4145 35.2419 35.4943L35.0395 35.3568C34.6979 35.1249 34.3594 34.895 34.0215 34.6643L33.7501 34.4793C33.2163 34.1155 32.6824 33.7517 32.1517 33.3838C32.065 33.3242 31.9955 33.3186 31.8973 33.3508C30.435 33.8295 28.9328 34.0526 27.3971 33.9895C24.657 33.8776 22.1656 33.051 20.0367 31.2849C18.5688 30.0671 17.5187 28.5564 17.049 26.6853C16.4716 24.3865 16.8791 22.2439 18.1772 20.2823C19.5987 18.1345 21.6388 16.8159 24.0659 16.0562C25.4441 15.6251 26.8622 15.4432 28.3018 15.5054C31.1406 15.6281 33.7049 16.4993 35.8703 18.3936ZM22.9664 21.6528C22.963 22.4879 23.6523 23.2 24.4699 23.206C25.3441 23.2124 26.0506 22.5227 26.0502 21.6635C26.0502 20.8223 25.354 20.1235 24.5137 20.1214C23.6721 20.1192 22.9699 20.8142 22.9664 21.6528ZM31.6712 23.206C30.8545 23.2026 30.1605 22.4909 30.1626 21.6583C30.1647 20.8189 30.8639 20.1218 31.7043 20.1218C32.536 20.1218 33.2464 20.8197 33.2464 21.6365C33.2468 22.521 32.5557 23.2099 31.6712 23.206Z" fill="black"/>
</g>
</svg>
