<svg width="16" height="16" viewBox="0 0 16 16" fill="none" xmlns="http://www.w3.org/2000/svg">
<path fill-rule="evenodd" clip-rule="evenodd" d="M15.1485 3.22287C15.3967 3.47272 15.575 3.78338 15.6655 4.12377C16 5.38013 16 8.00013 16 8.00013C16 8.00013 16 10.6201 15.6655 11.8765C15.575 12.2169 15.3967 12.5275 15.1485 12.7774C14.9002 13.0272 14.5907 13.2075 14.2509 13.3001C13 13.6365 8 13.6365 8 13.6365C8 13.6365 3 13.6365 1.74909 13.3001C1.40929 13.2075 1.09977 13.0272 0.851525 12.7774C0.603277 12.5275 0.425004 12.2169 0.334545 11.8765C5.96046e-08 10.6201 0 8.00013 0 8.00013C0 8.00013 5.96046e-08 5.38013 0.334545 4.12377C0.425004 3.78338 0.603277 3.47272 0.851525 3.22287C1.09977 2.97303 1.40929 2.79277 1.74909 2.70013C3 2.36377 8 2.36377 8 2.36377C8 2.36377 13 2.36377 14.2509 2.70013C14.5907 2.79277 14.9002 2.97303 15.1485 3.22287ZM10.5459 8.00223L6.36406 5.62314V10.3813L10.5459 8.00223Z" fill="black"/>
</svg>
