<svg width="16" height="16" viewBox="0 0 16 16" fill="none" xmlns="http://www.w3.org/2000/svg">
<g clip-path="url(#clip0_6380_5607)">
<path fill-rule="evenodd" clip-rule="evenodd" d="M15.1641 3.22238C15.4123 3.47223 15.5906 3.78289 15.6811 4.12328C16.0156 5.37964 16.0156 7.99964 16.0156 7.99964C16.0156 7.99964 16.0156 10.6196 15.6811 11.876C15.5906 12.2164 15.4123 12.5271 15.1641 12.7769C14.9159 13.0267 14.6063 13.207 14.2665 13.2996C13.0156 13.636 8.01563 13.636 8.01563 13.636C8.01563 13.636 3.01563 13.636 1.76472 13.2996C1.42491 13.207 1.1154 13.0267 0.86715 12.7769C0.618902 12.5271 0.440629 12.2164 0.35017 11.876C0.015625 10.6196 0.015625 7.99964 0.015625 7.99964C0.015625 7.99964 0.015625 5.37964 0.35017 4.12328C0.440629 3.78289 0.618902 3.47223 0.86715 3.22238C1.1154 2.97254 1.42491 2.79228 1.76472 2.69964C3.01563 2.36328 8.01563 2.36328 8.01563 2.36328C8.01563 2.36328 13.0156 2.36328 14.2665 2.69964C14.6063 2.79228 14.9159 2.97254 15.1641 3.22238ZM10.5615 8.00175L6.37969 5.62266V10.3808L10.5615 8.00175Z" fill="black"/>
</g>
<defs>
<clipPath id="clip0_6380_5607">
<rect width="16" height="16" fill="white"/>
</clipPath>
</defs>
</svg>
