<svg width="16" height="16" viewBox="0 0 16 16" fill="none" xmlns="http://www.w3.org/2000/svg">
<g clip-path="url(#clip0_6380_5566)">
<path d="M11.9707 10.8041C12.1496 10.8039 12.1588 10.7962 12.1588 10.62L12.159 5.00067C12.159 4.83464 12.1465 4.82371 11.9759 4.82371C11.2701 4.82371 10.5639 4.82371 9.85766 4.82431C9.66721 4.82451 9.66204 4.82947 9.66204 5.01417V10.6416C9.66224 10.6601 9.66244 10.6788 9.66224 10.6971C9.66065 10.766 9.70017 10.7969 9.76293 10.8023C9.80483 10.8059 9.84813 10.8085 9.88943 10.8025C9.98039 10.7896 10.0157 10.8311 10.0334 10.9165C10.0616 11.053 10.1007 11.187 10.1371 11.3217C10.1754 11.4633 10.178 11.4641 10.2971 11.39C10.3607 11.3507 10.4244 11.3117 10.4882 11.2728C10.6622 11.1662 10.8365 11.0595 11.0061 10.9459C11.1044 10.8802 11.2037 10.8319 11.3122 10.8105C11.3719 10.7985 11.4347 10.795 11.5016 10.8011C11.6567 10.8152 11.8142 10.8041 11.9707 10.8041Z" fill="black"/>
<path fill-rule="evenodd" clip-rule="evenodd" d="M16 12.8648V3.1465C15.9917 3.13656 15.9873 3.12524 15.9871 3.11214C15.9976 2.59735 15.7956 2.15149 15.5323 1.72746C15.1959 1.18587 14.7419 0.762841 14.1942 0.44408C13.8732 0.25759 13.537 0.0969191 13.1629 0.0428986C13.0185 0.0220451 12.8713 0.0216479 12.7266 0H3.13562C3.11377 0.0174772 3.08756 0.0119163 3.06273 0.0127107C2.70288 0.0234354 2.36606 0.112609 2.04096 0.271691C1.61736 0.479233 1.24579 0.750726 0.926645 1.0959C0.356678 1.71297 -0.000793202 2.41901 0.00158994 3.27936C0.0105267 6.48365 -0.0142977 9.68814 0.0141014 12.8924C0.0170803 13.2455 0.10903 13.5742 0.255593 13.8934C0.464912 14.3494 0.751484 14.7464 1.12186 15.0848C1.74565 15.6548 2.45741 16.0012 3.32249 16C4.86697 15.9978 6.41164 15.9978 7.95631 15.9978C9.53593 15.9978 11.1156 15.9978 12.6952 15.9954C12.9593 15.9952 13.2258 15.9867 13.4844 15.9063C14.2267 15.6747 14.8344 15.2459 15.3075 14.6364C15.6495 14.1959 15.919 13.7137 15.9712 13.1395C15.9756 13.0918 15.9774 13.0438 15.9811 12.9961C15.9845 12.952 15.9895 12.9081 16 12.8648ZM5.93561 9.68218C6.05536 9.58486 6.17968 9.49271 6.29308 9.38844C6.37212 9.31575 6.42137 9.32886 6.48889 9.40314C6.88727 9.84067 7.27294 10.2895 7.65524 10.7411C7.77519 10.8827 7.80756 11.0597 7.82246 11.2381C7.83259 11.3588 7.8308 11.4786 7.82027 11.5975C7.81312 11.6792 7.8018 11.7606 7.78731 11.8416C7.7738 11.9171 7.75771 11.9924 7.73964 12.0672C7.73825 12.0734 7.73766 12.0803 7.73706 12.0875C7.73666 12.0932 7.73607 12.0992 7.73508 12.105L7.73388 12.1109C7.73031 12.1252 7.72276 12.1369 7.7033 12.1397C7.69635 12.1407 7.69019 12.1401 7.68463 12.1383C7.67748 12.1359 7.67152 12.1314 7.66596 12.1258C7.65504 12.1147 7.6465 12.0994 7.63717 12.0879L7.4769 11.8869L7.36807 11.7499L7.35377 11.732C7.2092 11.5497 7.06462 11.3673 6.91706 11.187C6.59871 10.7977 6.2758 10.4125 5.95229 10.0272C5.94534 10.0188 5.93878 10.0085 5.93223 9.99796L5.92846 9.99161C5.91078 9.96281 5.89072 9.935 5.85339 9.94672C5.82459 9.95566 5.81844 9.99121 5.81248 10.025C5.81049 10.0365 5.80851 10.0478 5.80573 10.0579C5.62858 10.6843 5.3573 11.2653 5.01571 11.8212C4.68247 12.3629 4.20227 12.6207 3.59338 12.6908L3.55048 12.696C3.35884 12.7188 3.16779 12.7413 2.97595 12.6946C2.93484 12.6849 2.8834 12.6803 2.87407 12.6334C2.86553 12.5905 2.91716 12.5757 2.94497 12.5534C3.76298 11.8929 4.42787 11.1115 4.85247 10.1404C5.08959 9.59817 5.23635 9.03235 5.3011 8.44328C5.3144 8.32214 5.27746 8.30208 5.16824 8.30287C4.83777 8.30506 4.50731 8.30506 4.17685 8.30506L3.86347 8.30525C3.63032 8.30565 3.39717 8.30625 3.16402 8.30784C3.05419 8.30843 3.02301 8.28281 3.0532 8.17219C3.09888 8.00397 3.15369 7.84052 3.24584 7.69176C3.33461 7.54897 3.45595 7.4737 3.63349 7.47548C3.93377 7.47866 4.23404 7.47826 4.53432 7.47787C4.78376 7.47767 5.03299 7.47727 5.28223 7.47906C5.38113 7.47985 5.42244 7.45721 5.4276 7.34818C5.44408 7.01532 5.46116 6.68245 5.47427 6.34959C5.48122 6.17522 5.48698 6.00084 5.49095 5.82647C5.49651 5.58199 5.4987 5.33711 5.49532 5.09203C5.49373 4.99034 5.46196 4.96333 5.36484 4.96532C5.09873 4.97088 4.83201 4.97167 4.5659 4.96452C4.46859 4.96194 4.42311 4.99352 4.39511 5.08587C4.29899 5.40185 4.15659 5.68883 3.88809 5.90055C3.64998 6.08823 3.3775 6.17621 3.08259 6.20819C2.97217 6.2203 3.00276 6.16688 3.02778 6.12338C3.03215 6.11564 3.03632 6.10829 3.0395 6.10173C3.15984 5.85209 3.27265 5.59926 3.37909 5.34386C3.50977 5.03006 3.63071 4.7121 3.74352 4.39075C3.83467 4.13177 3.92483 3.8722 4.00844 3.61063C4.16791 3.11253 4.523 2.85534 5.02326 2.77292C5.16208 2.75008 5.16843 2.75922 5.12018 2.88831C4.98533 3.24858 4.85962 3.61183 4.75377 3.98183L4.74463 4.0142L4.73629 4.04578C4.71445 4.13515 4.73649 4.13634 4.86895 4.13634L7.71025 4.13654C7.89594 4.13654 7.97577 4.19731 8.02939 4.37705C8.05422 4.46027 8.06732 4.54467 8.07467 4.63007C8.08083 4.69998 8.08301 4.77029 8.0846 4.84099C8.08659 4.94148 8.05104 4.97008 7.95234 4.96909C7.63578 4.96611 7.31902 4.96611 7.00246 4.96651L6.48115 4.96691C6.45771 4.96691 6.43746 4.9671 6.42018 4.9677C6.4035 4.9681 6.3894 4.96889 6.37768 4.97068C6.37291 4.97147 6.36834 4.97227 6.36417 4.97346L6.35484 4.97644C6.3459 4.97982 6.33895 4.98438 6.33359 4.99074C6.31532 5.01219 6.31512 5.0533 6.31512 5.13215C6.31393 5.86381 6.28354 6.59467 6.23251 7.32415C6.22992 7.36029 6.23131 7.3883 6.23727 7.41014C6.23906 7.4167 6.24124 7.42265 6.24383 7.42802L6.24819 7.43636C6.25276 7.44371 6.25832 7.44986 6.26488 7.45503C6.27838 7.46575 6.29645 7.47231 6.31929 7.47568C6.33717 7.47846 6.35802 7.47926 6.38205 7.47906C6.5731 7.47707 6.76414 7.47628 6.95519 7.47608L7.9293 7.47687C8.0137 7.47687 8.0709 7.48442 8.1132 7.50865L8.12611 7.51699C8.13187 7.52096 8.13743 7.52533 8.14279 7.5303C8.17874 7.56386 8.20296 7.61669 8.22799 7.69792C8.2691 7.83198 8.2824 7.97001 8.29571 8.10844L8.30326 8.1855C8.31318 8.28301 8.27684 8.30724 8.18291 8.30645C7.62903 8.30267 7.07514 8.30307 6.52146 8.30565C6.40866 8.30625 6.27083 8.26017 6.18921 8.32849C6.13579 8.37318 6.13738 8.45341 6.13897 8.53425L6.13936 8.55569C6.13956 8.56543 6.13976 8.57516 6.13956 8.58469C6.13936 8.60475 6.13857 8.62441 6.13599 8.64288C6.0925 8.96184 6.02299 9.27484 5.9364 9.58447C5.92866 9.61168 5.9217 9.63908 5.91416 9.66629C5.92111 9.67185 5.92826 9.67722 5.93561 9.68218ZM8.8194 4.29503L8.82 11.4347C8.8202 11.5955 8.85297 11.6277 9.01283 11.6287C9.15682 11.6295 9.3006 11.6341 9.44398 11.6275C9.53415 11.6235 9.58082 11.6502 9.60564 11.7421C9.63305 11.843 9.66442 11.9427 9.6958 12.0424C9.72917 12.1483 9.76233 12.2541 9.79093 12.3612C9.82112 12.4752 9.86282 12.4666 9.94484 12.4104C10.181 12.2484 10.4215 12.0928 10.6663 11.9441C10.7537 11.8911 10.8417 11.8388 10.9303 11.7876C11.1166 11.6795 11.3068 11.6174 11.5296 11.6249C11.6734 11.6299 11.8174 11.6319 11.9614 11.6325C12.0909 11.6329 12.2203 11.6323 12.35 11.6313L12.4616 11.6307C12.5736 11.6297 12.6856 11.6289 12.7977 11.6287C12.9744 11.6285 13.0046 11.5977 13.0046 11.422L13.0038 4.23167C13.0038 4.03009 12.9837 4.01102 12.776 4.01102L9.09704 4.01122C9.05474 4.01122 9.01899 4.01122 8.98861 4.01221C8.95167 4.0134 8.92287 4.01619 8.90043 4.02214C8.87044 4.03029 8.85138 4.04419 8.83946 4.06822C8.8196 4.10854 8.8194 4.17745 8.8194 4.29503Z" fill="black"/>
</g>
<defs>
<clipPath id="clip0_6380_5566">
<rect width="16" height="16" fill="white"/>
</clipPath>
</defs>
</svg>
