<svg width="17" height="16" viewBox="0 0 17 16" fill="none" xmlns="http://www.w3.org/2000/svg">
<path d="M12.1763 10.8041C12.3552 10.8039 12.3643 10.7962 12.3643 10.62L12.3645 5.00067C12.3645 4.83464 12.352 4.82371 12.1814 4.82371C11.4756 4.82371 10.7694 4.82371 10.0632 4.82431C9.87277 4.82451 9.86761 4.82947 9.86761 5.01417V10.6416C9.86781 10.6601 9.86801 10.6788 9.86781 10.6971C9.86622 10.766 9.90574 10.7969 9.96849 10.8023C10.0104 10.8059 10.0537 10.8085 10.095 10.8025C10.186 10.7896 10.2213 10.8311 10.239 10.9165C10.2672 11.053 10.3063 11.187 10.3426 11.3217C10.381 11.4633 10.3836 11.4641 10.5027 11.39C10.5663 11.3507 10.63 11.3117 10.6938 11.2728C10.8677 11.1662 11.0421 11.0595 11.2117 10.9459C11.31 10.8802 11.4093 10.8319 11.5177 10.8105C11.5775 10.7985 11.6403 10.795 11.7072 10.8011C11.8623 10.8152 12.0198 10.8041 12.1763 10.8041Z" fill="black"/>
<path fill-rule="evenodd" clip-rule="evenodd" d="M16.2056 12.8648V3.1465C16.1972 3.13656 16.1929 3.12524 16.1927 3.11214C16.2032 2.59735 16.0012 2.15149 15.7379 1.72746C15.4015 1.18587 14.9475 0.762841 14.3997 0.44408C14.0788 0.25759 13.7426 0.0969191 13.3684 0.0428986C13.2241 0.0220451 13.0769 0.0216479 12.9321 0H3.34118C3.31934 0.0174772 3.29312 0.0119163 3.2683 0.0127107C2.90844 0.0234354 2.57163 0.112609 2.24653 0.271691C1.82292 0.479233 1.45135 0.750726 1.13221 1.0959C0.562244 1.71297 0.204773 2.41901 0.207156 3.27936C0.216093 6.48365 0.191269 9.68814 0.219668 12.8924C0.222647 13.2455 0.314596 13.5742 0.461159 13.8934C0.670478 14.3494 0.957051 14.7464 1.32743 15.0848C1.95122 15.6548 2.66298 16.0012 3.52806 16C5.07253 15.9978 6.6172 15.9978 8.16188 15.9978C9.7415 15.9978 11.3211 15.9978 12.9007 15.9954C13.1649 15.9952 13.4314 15.9867 13.69 15.9063C14.4323 15.6747 15.04 15.2459 15.5131 14.6364C15.855 14.1959 16.1245 13.7137 16.1768 13.1395C16.1811 13.0918 16.1829 13.0438 16.1867 12.9961C16.1901 12.952 16.195 12.9081 16.2056 12.8648ZM6.14117 9.68218C6.26093 9.58486 6.38525 9.49271 6.49864 9.38844C6.57768 9.31575 6.62694 9.32886 6.69446 9.40314C7.09284 9.84067 7.47851 10.2895 7.86081 10.7411C7.98076 10.8827 8.01313 11.0597 8.02802 11.2381C8.03815 11.3588 8.03636 11.4786 8.02584 11.5975C8.01869 11.6792 8.00737 11.7606 7.99287 11.8416C7.97937 11.9171 7.96328 11.9924 7.94521 12.0672C7.94382 12.0734 7.94322 12.0803 7.94263 12.0875C7.94223 12.0932 7.94163 12.0992 7.94064 12.105L7.93945 12.1109C7.93588 12.1252 7.92833 12.1369 7.90887 12.1397C7.90192 12.1407 7.89576 12.1401 7.8902 12.1383C7.88305 12.1359 7.87709 12.1314 7.87153 12.1258C7.86061 12.1147 7.85207 12.0994 7.84273 12.0879L7.68247 11.8869L7.57364 11.7499L7.55934 11.732C7.41476 11.5497 7.27019 11.3673 7.12263 11.187C6.80428 10.7977 6.48137 10.4125 6.15785 10.0272C6.1509 10.0188 6.14435 10.0085 6.1378 9.99796L6.13402 9.99161C6.11635 9.96281 6.09629 9.935 6.05895 9.94672C6.03016 9.95566 6.024 9.99121 6.01804 10.025C6.01606 10.0365 6.01407 10.0478 6.01129 10.0579C5.83414 10.6843 5.56286 11.2653 5.22128 11.8212C4.88804 12.3629 4.40784 12.6207 3.79894 12.6908L3.75605 12.696C3.5644 12.7188 3.37336 12.7413 3.18151 12.6946C3.1404 12.6849 3.08897 12.6803 3.07963 12.6334C3.07109 12.5905 3.12273 12.5757 3.15053 12.5534C3.96854 11.8929 4.63344 11.1115 5.05804 10.1404C5.29516 9.59817 5.44192 9.03235 5.50666 8.44328C5.51997 8.32214 5.48303 8.30208 5.3738 8.30287C5.04334 8.30506 4.71288 8.30506 4.38242 8.30506L4.06903 8.30525C3.83588 8.30565 3.60273 8.30625 3.36958 8.30784C3.25976 8.30843 3.22858 8.28281 3.25877 8.17219C3.30444 8.00397 3.35925 7.84052 3.4514 7.69176C3.54017 7.54897 3.66152 7.4737 3.83906 7.47548C4.13934 7.47866 4.43961 7.47826 4.73989 7.47787C4.98932 7.47767 5.23856 7.47727 5.4878 7.47906C5.5867 7.47985 5.628 7.45721 5.63317 7.34818C5.64965 7.01532 5.66673 6.68245 5.67984 6.34959C5.68679 6.17522 5.69255 6.00084 5.69652 5.82647C5.70208 5.58199 5.70426 5.33711 5.70089 5.09203C5.6993 4.99034 5.66752 4.96333 5.57041 4.96532C5.30429 4.97088 5.03758 4.97167 4.77146 4.96452C4.67415 4.96194 4.62867 4.99352 4.60067 5.08587C4.50455 5.40185 4.36216 5.68883 4.09366 5.90055C3.85554 6.08823 3.58307 6.17621 3.28816 6.20819C3.17774 6.2203 3.20832 6.16688 3.23335 6.12338C3.23771 6.11564 3.24189 6.10829 3.24506 6.10173C3.36541 5.85209 3.47821 5.59926 3.58466 5.34386C3.71534 5.03006 3.83628 4.7121 3.94908 4.39075C4.04024 4.13177 4.1304 3.8722 4.21401 3.61063C4.37348 3.11253 4.72857 2.85534 5.22883 2.77292C5.36765 2.75008 5.374 2.75922 5.32574 2.88831C5.1909 3.24858 5.06519 3.61183 4.95933 3.98183L4.9502 4.0142L4.94186 4.04578C4.92001 4.13515 4.94206 4.13634 5.07452 4.13634L7.91582 4.13654C8.1015 4.13654 8.18134 4.19731 8.23496 4.37705C8.25978 4.46027 8.27289 4.54467 8.28024 4.63007C8.2864 4.69998 8.28858 4.77029 8.29017 4.84099C8.29215 4.94148 8.25661 4.97008 8.1579 4.96909C7.84134 4.96611 7.52459 4.96611 7.20802 4.96651L6.68671 4.96691C6.66328 4.96691 6.64302 4.9671 6.62574 4.9677C6.60906 4.9681 6.59496 4.96889 6.58324 4.97068C6.57848 4.97147 6.57391 4.97227 6.56974 4.97346L6.56041 4.97644C6.55147 4.97982 6.54452 4.98438 6.53916 4.99074C6.52089 5.01219 6.52069 5.0533 6.52069 5.13215C6.5195 5.86381 6.48911 6.59467 6.43807 7.32415C6.43549 7.36029 6.43688 7.3883 6.44284 7.41014C6.44463 7.4167 6.44681 7.42265 6.44939 7.42802L6.45376 7.43636C6.45833 7.44371 6.46389 7.44986 6.47044 7.45503C6.48395 7.46575 6.50202 7.47231 6.52486 7.47568C6.54273 7.47846 6.56358 7.47926 6.58761 7.47906C6.77866 7.47707 6.96971 7.47628 7.16076 7.47608L8.13487 7.47687C8.21927 7.47687 8.27647 7.48442 8.31877 7.50865L8.33167 7.51699C8.33743 7.52096 8.34299 7.52533 8.34836 7.5303C8.3843 7.56386 8.40853 7.61669 8.43355 7.69792C8.47466 7.83198 8.48797 7.97001 8.50127 8.10844L8.50882 8.1855C8.51875 8.28301 8.48241 8.30724 8.38847 8.30645C7.83459 8.30267 7.28071 8.30307 6.72703 8.30565C6.61423 8.30625 6.4764 8.26017 6.39478 8.32849C6.34136 8.37318 6.34294 8.45341 6.34453 8.53425L6.34493 8.55569C6.34513 8.56543 6.34533 8.57516 6.34513 8.58469C6.34493 8.60475 6.34414 8.62441 6.34155 8.64288C6.29806 8.96184 6.22855 9.27484 6.14197 9.58447C6.13422 9.61168 6.12727 9.63908 6.11972 9.66629C6.12668 9.67185 6.13382 9.67722 6.14117 9.68218ZM9.02497 4.29503L9.02557 11.4347C9.02576 11.5955 9.05853 11.6277 9.2184 11.6287C9.36238 11.6295 9.50617 11.6341 9.64955 11.6275C9.73971 11.6235 9.78638 11.6502 9.81121 11.7421C9.83861 11.843 9.86999 11.9427 9.90137 12.0424C9.93473 12.1483 9.9679 12.2541 9.9965 12.3612C10.0267 12.4752 10.0684 12.4666 10.1504 12.4104C10.3865 12.2484 10.627 12.0928 10.8719 11.9441C10.9593 11.8911 11.0473 11.8388 11.1358 11.7876C11.3221 11.6795 11.5124 11.6174 11.7352 11.6249C11.879 11.6299 12.023 11.6319 12.1669 11.6325C12.2964 11.6329 12.4259 11.6323 12.5556 11.6313L12.6672 11.6307C12.7792 11.6297 12.8912 11.6289 13.0032 11.6287C13.18 11.6285 13.2102 11.5977 13.2102 11.422L13.2094 4.23167C13.2094 4.03009 13.1893 4.01102 12.9816 4.01102L9.30261 4.01122C9.2603 4.01122 9.22456 4.01122 9.19417 4.01221C9.15723 4.0134 9.12844 4.01619 9.106 4.02214C9.07601 4.03029 9.05694 4.04419 9.04503 4.06822C9.02517 4.10854 9.02497 4.17745 9.02497 4.29503Z" fill="black"/>
</svg>
