<svg width="16" height="16" viewBox="0 0 16 16" fill="none" xmlns="http://www.w3.org/2000/svg">
<path d="M5.97705 7.51296C5.97705 7.18159 6.24568 6.91296 6.57705 6.91296H8.48632C8.81769 6.91296 9.08632 7.18159 9.08632 7.51296C9.08632 7.84433 8.81769 8.11296 8.48632 8.11296H6.57705C6.24568 8.11296 5.97705 7.84433 5.97705 7.51296Z" fill="black"/>
<path d="M6.57705 9.41028C6.24568 9.41028 5.97705 9.67891 5.97705 10.0103C5.97705 10.3416 6.24568 10.6103 6.57705 10.6103H10.8199C11.1512 10.6103 11.4199 10.3416 11.4199 10.0103C11.4199 9.67891 11.1512 9.41028 10.8199 9.41028H6.57705Z" fill="black"/>
<path fill-rule="evenodd" clip-rule="evenodd" d="M3.51074 2.37063C3.51074 1.48697 4.22709 0.77063 5.11074 0.77063H9.80318L9.81294 0.770708C9.97168 0.768161 10.1311 0.82824 10.2511 0.95055L14.4317 5.21408C14.5165 5.30049 14.5697 5.406 14.5917 5.51645C14.6041 5.5644 14.6106 5.61467 14.6106 5.66648V11.6406C14.6106 12.5243 13.8943 13.2406 13.0106 13.2406H5.11074C4.22709 13.2406 3.51074 12.5243 3.51074 11.6406V2.37063ZM10.4032 4.66648V2.81964L12.6063 5.06648H10.8032C10.5823 5.06648 10.4032 4.88739 10.4032 4.66648ZM5.11074 1.97063C4.88983 1.97063 4.71074 2.14972 4.71074 2.37063V11.6406C4.71074 11.8615 4.88983 12.0406 5.11074 12.0406H13.0106C13.2316 12.0406 13.4106 11.8615 13.4106 11.6406V6.26648H10.8032C9.91953 6.26648 9.20318 5.55013 9.20318 4.66648V1.97063H5.11074Z" fill="black"/>
<path d="M2.58916 6.6741C2.58916 6.34273 2.32053 6.0741 1.98916 6.0741C1.65779 6.0741 1.38916 6.34273 1.38916 6.6741V12.6294C1.38916 14.0653 2.55322 15.2294 3.98916 15.2294H9.41408C9.74545 15.2294 10.0141 14.9607 10.0141 14.6294C10.0141 14.298 9.74545 14.0294 9.41408 14.0294H3.98916C3.21596 14.0294 2.58916 13.4026 2.58916 12.6294V6.6741Z" fill="black"/>
</svg>
