<svg width="17" height="17" viewBox="0 0 17 17" fill="none" xmlns="http://www.w3.org/2000/svg">
<mask id="mask0_102_855" style="mask-type:alpha" maskUnits="userSpaceOnUse" x="0" y="0" width="17" height="17">
<rect x="0.506409" y="0.497314" width="16" height="16" fill="#DCDCDC"/>
</mask>
<g mask="url(#mask0_102_855)">
<path d="M6.27618 7.04563C6.27618 6.6937 6.56147 6.4084 6.9134 6.4084H8.18785C8.53978 6.4084 8.82508 6.6937 8.82508 7.04563C8.82508 7.39756 8.53978 7.68286 8.18785 7.68286H6.9134C6.56147 7.68286 6.27618 7.39756 6.27618 7.04563Z" fill="black"/>
<path d="M6.9134 8.95731C6.56147 8.95731 6.27618 9.2426 6.27618 9.59454C6.27618 9.94647 6.56147 10.2318 6.9134 10.2318H10.7368C11.0887 10.2318 11.374 9.94647 11.374 9.59454C11.374 9.2426 11.0887 8.95731 10.7368 8.95731H6.9134Z" fill="black"/>
<path fill-rule="evenodd" clip-rule="evenodd" d="M14.5601 6.12556C14.5601 5.9258 14.4682 5.74751 14.3243 5.63067L10.9462 1.94543C10.8316 1.7762 10.6379 1.66498 10.4181 1.66498H5.00172C4.64979 1.66498 4.3645 1.95027 4.3645 2.3022V12.7807C4.3645 13.1326 4.64979 13.4179 5.00172 13.4179H13.9229C14.2748 13.4179 14.5601 13.1326 14.5601 12.7807V6.12556ZM11.0554 5.48833V3.95057L12.465 5.48833H11.0554ZM5.63895 2.93943V12.1434H13.2857V6.76278H10.4181C10.0662 6.76278 9.78092 6.47749 9.78092 6.12556V2.93943H5.63895Z" fill="black"/>
<path d="M3.72727 7.04563C3.72727 6.6937 3.44198 6.4084 3.09005 6.4084C2.73812 6.4084 2.45282 6.6937 2.45282 7.04563V14.6923C2.45282 15.0443 2.73812 15.3296 3.09005 15.3296H9.78092C10.1328 15.3296 10.4181 15.0443 10.4181 14.6923C10.4181 14.3404 10.1328 14.0551 9.78092 14.0551H3.72727V7.04563Z" fill="black"/>
</g>
</svg>
