<svg width="16" height="16" viewBox="0 0 16 16" fill="none" xmlns="http://www.w3.org/2000/svg">
<mask id="mask0_102_855" style="mask-type:alpha" maskUnits="userSpaceOnUse" x="0" y="0" width="16" height="16">
<rect width="16" height="16" fill="#DCDCDC"/>
</mask>
<g mask="url(#mask0_102_855)">
<path d="M5.76977 6.54832C5.76977 6.19639 6.05506 5.91109 6.40699 5.91109H7.68144C8.03337 5.91109 8.31867 6.19639 8.31867 6.54832C8.31867 6.90025 8.03337 7.18554 7.68144 7.18554H6.40699C6.05506 7.18554 5.76977 6.90025 5.76977 6.54832Z" fill="black"/>
<path d="M6.40699 8.45999C6.05506 8.45999 5.76977 8.74529 5.76977 9.09722C5.76977 9.44915 6.05506 9.73445 6.40699 9.73445H10.2303C10.5823 9.73445 10.8676 9.44915 10.8676 9.09722C10.8676 8.74529 10.5823 8.45999 10.2303 8.45999H6.40699Z" fill="black"/>
<path fill-rule="evenodd" clip-rule="evenodd" d="M14.0537 5.62824C14.0537 5.42848 13.9618 5.25019 13.8179 5.13336L10.4398 1.44811C10.3252 1.27889 10.1315 1.16766 9.91174 1.16766H4.49531C4.14338 1.16766 3.85809 1.45296 3.85809 1.80489V12.2833C3.85809 12.6353 4.14338 12.9206 4.49531 12.9206H13.4165C13.7684 12.9206 14.0537 12.6353 14.0537 12.2833V5.62824ZM10.549 4.99102V3.45325L11.9586 4.99102H10.549ZM5.13254 2.44211V11.6461H12.7793V6.26547H9.91174C9.55981 6.26547 9.27451 5.98017 9.27451 5.62824V2.44211H5.13254Z" fill="black"/>
<path d="M3.22086 6.54832C3.22086 6.19639 2.93557 5.91109 2.58364 5.91109C2.23171 5.91109 1.94641 6.19639 1.94641 6.54832V14.195C1.94641 14.547 2.23171 14.8323 2.58364 14.8323H9.27451C9.62644 14.8323 9.91174 14.547 9.91174 14.195C9.91174 13.8431 9.62644 13.5578 9.27451 13.5578H3.22086V6.54832Z" fill="black"/>
</g>
</svg>
