<svg width="16" height="16" viewBox="0 0 16 16" fill="none" xmlns="http://www.w3.org/2000/svg">
<mask id="mask0_102_859" style="mask-type:alpha" maskUnits="userSpaceOnUse" x="0" y="0" width="16" height="16">
<rect width="16" height="16" fill="#DCDCDC"/>
</mask>
<g mask="url(#mask0_102_859)">
<path d="M5.45127 1.94667C5.45127 1.59474 5.73656 1.30945 6.08849 1.30945H9.91185C10.2638 1.30945 10.5491 1.59474 10.5491 1.94667C10.5491 2.2986 10.2638 2.5839 9.91185 2.5839H6.08849C5.73656 2.5839 5.45127 2.2986 5.45127 1.94667Z" fill="black"/>
<path d="M2.26514 3.85835C2.26514 3.50642 2.55043 3.22113 2.90236 3.22113H13.098C13.4499 3.22113 13.7352 3.50642 13.7352 3.85835C13.7352 4.21028 13.4499 4.49558 13.098 4.49558H2.90236C2.55043 4.49558 2.26514 4.21028 2.26514 3.85835Z" fill="black"/>
<path d="M6.27513 7.86835C6.52398 7.61949 6.92745 7.61949 7.1763 7.86835L8.00017 8.69221L8.82403 7.86835C9.07289 7.61949 9.47636 7.61949 9.72521 7.86835C9.97406 8.1172 9.97406 8.52067 9.72521 8.76952L8.90134 9.59339L9.72521 10.4173C9.97406 10.6661 9.97406 11.0696 9.72521 11.3184C9.47636 11.5673 9.07289 11.5673 8.82403 11.3184L8.00017 10.4946L7.1763 11.3184C6.92745 11.5673 6.52398 11.5673 6.27513 11.3184C6.02628 11.0696 6.02628 10.6661 6.27513 10.4173L7.099 9.59339L6.27513 8.76952C6.02628 8.52067 6.02628 8.1172 6.27513 7.86835Z" fill="black"/>
<path fill-rule="evenodd" clip-rule="evenodd" d="M4.17681 5.1328C3.82488 5.1328 3.53959 5.4181 3.53959 5.77003V13.0981C3.53959 13.978 4.25281 14.6912 5.13265 14.6912H10.8677C11.7475 14.6912 12.4608 13.978 12.4608 13.0981V5.77003C12.4608 5.4181 12.1755 5.1328 11.8235 5.1328H4.17681ZM4.81404 13.0981V6.40726H11.1863V13.0981C11.1863 13.2741 11.0437 13.4167 10.8677 13.4167H5.13265C4.95667 13.4167 4.81404 13.2741 4.81404 13.0981Z" fill="black"/>
</g>
</svg>
