<svg width="17" height="17" viewBox="0 0 17 17" fill="none" xmlns="http://www.w3.org/2000/svg">
<mask id="mask0_102_859" style="mask-type:alpha" maskUnits="userSpaceOnUse" x="0" y="0" width="17" height="17">
<rect x="0.506714" y="0.497314" width="16" height="16" fill="#DCDCDC"/>
</mask>
<g mask="url(#mask0_102_859)">
<path d="M5.95798 2.44399C5.95798 2.09206 6.24328 1.80676 6.59521 1.80676H10.4186C10.7705 1.80676 11.0558 2.09206 11.0558 2.44399C11.0558 2.79592 10.7705 3.08121 10.4186 3.08121H6.59521C6.24328 3.08121 5.95798 2.79592 5.95798 2.44399Z" fill="black"/>
<path d="M2.77185 4.35567C2.77185 4.00374 3.05715 3.71844 3.40908 3.71844H13.6047C13.9566 3.71844 14.2419 4.00374 14.2419 4.35567C14.2419 4.7076 13.9566 4.99289 13.6047 4.99289H3.40908C3.05715 4.99289 2.77185 4.7076 2.77185 4.35567Z" fill="black"/>
<path d="M6.78185 8.36566C7.0307 8.11681 7.43417 8.11681 7.68302 8.36566L8.50688 9.18953L9.33075 8.36566C9.5796 8.11681 9.98307 8.11681 10.2319 8.36566C10.4808 8.61451 10.4808 9.01798 10.2319 9.26683L9.40806 10.0907L10.2319 10.9146C10.4808 11.1634 10.4808 11.5669 10.2319 11.8157C9.98307 12.0646 9.5796 12.0646 9.33075 11.8157L8.50688 10.9919L7.68302 11.8157C7.43417 12.0646 7.0307 12.0646 6.78185 11.8157C6.53299 11.5669 6.53299 11.1634 6.78185 10.9146L7.60571 10.0907L6.78185 9.26683C6.53299 9.01798 6.53299 8.61451 6.78185 8.36566Z" fill="black"/>
<path fill-rule="evenodd" clip-rule="evenodd" d="M4.68353 5.63012C4.3316 5.63012 4.0463 5.91541 4.0463 6.26734V13.5954C4.0463 14.4753 4.75953 15.1885 5.63937 15.1885H11.3744C12.2542 15.1885 12.9675 14.4753 12.9675 13.5954V6.26734C12.9675 5.91541 12.6822 5.63012 12.3302 5.63012H4.68353ZM5.32075 13.5954V6.90457H11.693V13.5954C11.693 13.7714 11.5504 13.9141 11.3744 13.9141H5.63937C5.46339 13.9141 5.32075 13.7714 5.32075 13.5954Z" fill="black"/>
</g>
</svg>
