<svg width="16" height="16" viewBox="0 0 16 16" fill="none" xmlns="http://www.w3.org/2000/svg">
<path d="M8.75 5.32495C8.75 5.73916 8.41421 6.07495 8 6.07495C7.58579 6.07495 7.25 5.73916 7.25 5.32495C7.25 4.91074 7.58579 4.57495 8 4.57495C8.41421 4.57495 8.75 4.91074 8.75 5.32495Z" fill="black"/>
<path d="M8.5999 7.52505C8.5999 7.19368 8.33127 6.92505 7.9999 6.92505C7.66853 6.92505 7.3999 7.19368 7.3999 7.52505V11.425C7.3999 11.7564 7.66853 12.025 7.9999 12.025C8.33127 12.025 8.5999 11.7564 8.5999 11.425V7.52505Z" fill="black"/>
<path fill-rule="evenodd" clip-rule="evenodd" d="M0.899902 8.00002C0.899902 4.0788 4.07868 0.900024 7.9999 0.900024C11.9211 0.900024 15.0999 4.0788 15.0999 8.00002C15.0999 11.9212 11.9211 15.1 7.9999 15.1C4.07868 15.1 0.899902 11.9212 0.899902 8.00002ZM7.9999 2.10002C4.74142 2.10002 2.0999 4.74154 2.0999 8.00002C2.0999 11.2585 4.74142 13.9 7.9999 13.9C11.2584 13.9 13.8999 11.2585 13.8999 8.00002C13.8999 4.74154 11.2584 2.10002 7.9999 2.10002Z" fill="black"/>
</svg>
