<svg width="16" height="16" viewBox="0 0 16 16" fill="none" xmlns="http://www.w3.org/2000/svg">
<mask id="mask0_102_891" style="mask-type:alpha" maskUnits="userSpaceOnUse" x="0" y="0" width="16" height="16">
<rect width="16" height="16" fill="#DCDCDC"/>
</mask>
<g mask="url(#mask0_102_891)">
<path d="M8.7965 5.29175C8.7965 5.73167 8.43988 6.08829 7.99996 6.08829C7.56005 6.08829 7.20343 5.73167 7.20343 5.29175C7.20343 4.85184 7.56005 4.49522 7.99996 4.49522C8.43988 4.49522 8.7965 4.85184 8.7965 5.29175Z" fill="black"/>
<path d="M8.63719 7.68135C8.63719 7.32942 8.35189 7.04413 7.99996 7.04413C7.64803 7.04413 7.36274 7.32942 7.36274 7.68135V11.5047C7.36274 11.8566 7.64803 12.1419 7.99996 12.1419C8.35189 12.1419 8.63719 11.8566 8.63719 11.5047V7.68135Z" fill="black"/>
<path fill-rule="evenodd" clip-rule="evenodd" d="M0.990479 7.99996C0.990479 4.12873 4.12873 0.990479 7.99996 0.990479C11.8712 0.990479 15.0094 4.12873 15.0094 7.99996C15.0094 11.8712 11.8712 15.0094 7.99996 15.0094C4.12873 15.0094 0.990479 11.8712 0.990479 7.99996ZM7.99996 2.26493C4.83259 2.26493 2.26493 4.83259 2.26493 7.99996C2.26493 11.1673 4.83259 13.735 7.99996 13.735C11.1673 13.735 13.735 11.1673 13.735 7.99996C13.735 4.83259 11.1673 2.26493 7.99996 2.26493Z" fill="black"/>
</g>
</svg>
