<svg width="17" height="17" viewBox="0 0 17 17" fill="none" xmlns="http://www.w3.org/2000/svg">
<mask id="mask0_102_891" style="mask-type:alpha" maskUnits="userSpaceOnUse" x="0" y="0" width="17" height="17">
<rect x="0.506409" y="0.497314" width="16" height="16" fill="#DCDCDC"/>
</mask>
<g mask="url(#mask0_102_891)">
<path d="M9.30291 5.78907C9.30291 6.22898 8.94629 6.5856 8.50637 6.5856C8.06646 6.5856 7.70984 6.22898 7.70984 5.78907C7.70984 5.34916 8.06646 4.99254 8.50637 4.99254C8.94629 4.99254 9.30291 5.34916 9.30291 5.78907Z" fill="black"/>
<path d="M9.1436 8.17867C9.1436 7.82674 8.8583 7.54144 8.50637 7.54144C8.15444 7.54144 7.86915 7.82674 7.86915 8.17867V12.002C7.86915 12.354 8.15444 12.6392 8.50637 12.6392C8.8583 12.6392 9.1436 12.354 9.1436 12.002V8.17867Z" fill="black"/>
<path fill-rule="evenodd" clip-rule="evenodd" d="M1.49689 8.49728C1.49689 4.62605 4.63514 1.48779 8.50637 1.48779C12.3776 1.48779 15.5159 4.62605 15.5159 8.49728C15.5159 12.3685 12.3776 15.5068 8.50637 15.5068C4.63514 15.5068 1.49689 12.3685 1.49689 8.49728ZM8.50637 2.76224C5.339 2.76224 2.77134 5.32991 2.77134 8.49728C2.77134 11.6646 5.339 14.2323 8.50637 14.2323C11.6737 14.2323 14.2414 11.6646 14.2414 8.49728C14.2414 5.32991 11.6737 2.76224 8.50637 2.76224Z" fill="black"/>
</g>
</svg>
