<svg width="16" height="16" viewBox="0 0 16 16" fill="none" xmlns="http://www.w3.org/2000/svg">
<mask id="mask0_226_292" style="mask-type:alpha" maskUnits="userSpaceOnUse" x="0" y="0" width="16" height="16">
<rect width="16" height="16" fill="#DCDCDC"/>
</mask>
<g mask="url(#mask0_226_292)">
<path fill-rule="evenodd" clip-rule="evenodd" d="M3.1958 1.35974C2.49527 1.35974 1.92737 1.92764 1.92737 2.62818V13.2963C1.92737 13.9969 2.49527 14.5648 3.1958 14.5648H7.00111C7.35138 14.5648 7.63533 14.2808 7.63533 13.9306C7.63533 13.5803 7.35138 13.2963 7.00111 13.2963H3.1958V2.62818H8.90377V5.16505C8.90377 5.51532 9.18772 5.79927 9.53799 5.79927H12.0749V8.01903C12.0749 8.3693 12.3588 8.65325 12.7091 8.65325C13.0593 8.65325 13.3433 8.3693 13.3433 8.01903V5.16505C13.3433 5.00103 13.281 4.85156 13.1789 4.73897L10.3265 1.56969C10.2062 1.43605 10.0349 1.35974 9.8551 1.35974H3.1958ZM10.1722 4.53083V3.29436L11.285 4.53083H10.1722Z" fill="black"/>
<path d="M12.4489 9.93044C12.2344 9.71591 11.8866 9.71591 11.6721 9.93044C11.4575 10.145 11.4575 10.4928 11.6721 10.7073L12.1169 11.1521H7.55172C7.24834 11.1521 7.00241 11.398 7.00241 11.7014C7.00241 12.0048 7.24834 12.2507 7.55172 12.2507H12.1218L11.672 12.7005C11.4575 12.9151 11.4575 13.2629 11.672 13.4774C11.8865 13.6919 12.2343 13.6919 12.4489 13.4774L13.7923 12.134C13.8074 12.1217 13.8221 12.1086 13.8362 12.0945C13.943 11.9877 13.9966 11.8478 13.997 11.7078L13.9971 11.7014C13.9971 11.5279 13.9166 11.3732 13.791 11.2725L12.4489 9.93044Z" fill="black"/>
</g>
</svg>
