<svg width="16" height="17" viewBox="0 0 16 17" fill="none" xmlns="http://www.w3.org/2000/svg">
<mask id="mask0_226_292" style="mask-type:alpha" maskUnits="userSpaceOnUse" x="-1" y="0" width="17" height="17">
<rect x="-0.000976562" y="0.497314" width="16" height="16" fill="#DCDCDC"/>
</mask>
<g mask="url(#mask0_226_292)">
<path fill-rule="evenodd" clip-rule="evenodd" d="M3.19483 1.85706C2.49429 1.85706 1.92639 2.42495 1.92639 3.12549V13.7937C1.92639 14.4942 2.4943 15.0621 3.19483 15.0621H7.00014C7.35041 15.0621 7.63436 14.7781 7.63436 14.4279C7.63436 14.0776 7.35041 13.7937 7.00014 13.7937H3.19483V3.12549H8.90279V5.66236C8.90279 6.01263 9.18674 6.29658 9.53701 6.29658H12.0739V8.51635C12.0739 8.86662 12.3578 9.15056 12.7081 9.15056C13.0584 9.15056 13.3423 8.86662 13.3423 8.51635V5.66236C13.3423 5.49835 13.2801 5.34887 13.1779 5.23628L10.3255 2.067C10.2053 1.93337 10.0339 1.85706 9.85412 1.85706H3.19483ZM10.1712 5.02815V3.79168L11.2841 5.02815H10.1712Z" fill="#35322B"/>
<path d="M12.4479 10.4278C12.2334 10.2132 11.8856 10.2132 11.6711 10.4278C11.4566 10.6423 11.4566 10.9901 11.6711 11.2046L12.1159 11.6494H7.55075C7.24737 11.6494 7.00143 11.8954 7.00143 12.1987C7.00143 12.5021 7.24737 12.7481 7.55075 12.7481H12.1208L11.671 13.1979C11.4565 13.4124 11.4565 13.7602 11.671 13.9747C11.8856 14.1892 12.2334 14.1892 12.4479 13.9747L13.7913 12.6313C13.8065 12.6191 13.8211 12.6059 13.8352 12.5918C13.942 12.485 13.9956 12.3452 13.9961 12.2052L13.9961 12.1987C13.9961 12.0252 13.9156 11.8705 13.79 11.7698L12.4479 10.4278Z" fill="#35322B"/>
</g>
</svg>
