<svg width="16" height="16" viewBox="0 0 16 16" fill="none" xmlns="http://www.w3.org/2000/svg">
<mask id="mask0_290_23" style="mask-type:alpha" maskUnits="userSpaceOnUse" x="0" y="0" width="16" height="16">
<rect width="16" height="16" fill="#DCDCDC"/>
</mask>
<g mask="url(#mask0_290_23)">
<path fill-rule="evenodd" clip-rule="evenodd" d="M2.42402 1.85193C1.68697 1.85193 1.08948 2.44942 1.08948 3.18647V13.4807C1.08948 13.8106 1.33026 14.0898 1.65417 14.1401C1.66698 14.1421 1.67987 14.1437 1.69284 14.1449C1.71716 14.1473 1.74135 14.1483 1.76532 14.148H12.9087C13.2267 14.148 13.5006 13.9235 13.563 13.6116L14.8975 6.93888C14.9367 6.74285 14.886 6.53957 14.7592 6.38497C14.6325 6.23037 14.4431 6.14074 14.2432 6.14074H13.4091V4.8062C13.4091 4.06914 12.8116 3.47165 12.0746 3.47165H8.742L7.2739 2.09202C7.14713 1.93989 6.95932 1.85193 6.76129 1.85193H2.42402ZM12.0746 6.14074V4.8062H8.42947C8.23144 4.8062 8.04364 4.71824 7.91686 4.5661L6.44876 3.18647H2.42402L2.42402 7.85545L2.71362 6.65191C2.78577 6.35207 3.05399 6.14074 3.36238 6.14074H12.0746ZM2.61138 12.8135H12.3616L13.4293 7.47529H3.94592L2.61138 12.8135Z" fill="black"/>
</g>
</svg>
