<svg width="17" height="17" viewBox="0 0 17 17" fill="none" xmlns="http://www.w3.org/2000/svg">
<mask id="mask0_226_289" style="mask-type:alpha" maskUnits="userSpaceOnUse" x="0" y="0" width="17" height="17">
<rect x="0.499023" y="0.497314" width="16" height="16" fill="#DCDCDC"/>
</mask>
<g mask="url(#mask0_226_289)">
<path fill-rule="evenodd" clip-rule="evenodd" d="M3.19861 2.65381C2.49807 2.65381 1.93018 3.22171 1.93018 3.92225V13.7066C1.93018 14.0201 2.15903 14.2855 2.4669 14.3333C2.47907 14.3351 2.49132 14.3367 2.50365 14.3379C2.52676 14.3401 2.54975 14.3411 2.57254 14.3408H13.1639C13.4662 14.3408 13.7265 14.1274 13.7858 13.831L15.0542 7.48877C15.0915 7.30245 15.0433 7.10924 14.9228 6.9623C14.8023 6.81536 14.6223 6.73017 14.4323 6.73017H13.6396V5.46173C13.6396 4.76119 13.0717 4.1933 12.3711 4.1933H9.20363L7.80825 2.88201C7.68775 2.73741 7.50925 2.65381 7.32103 2.65381H3.19861ZM12.3711 6.73017V5.46173H8.90658C8.71835 5.46173 8.53985 5.37813 8.41936 5.23353L7.02398 3.92225H3.19861L3.19861 8.35994L3.47387 7.21602C3.54244 6.93103 3.79737 6.73017 4.09049 6.73017H12.3711ZM3.37669 13.0724H12.644L13.6587 7.99861H4.64512L3.37669 13.0724Z" fill="#35322B"/>
</g>
</svg>
