<svg width="17" height="17" viewBox="0 0 17 17" fill="none" xmlns="http://www.w3.org/2000/svg">
<mask id="mask0_102_875" style="mask-type:alpha" maskUnits="userSpaceOnUse" x="0" y="0" width="17" height="17">
<rect x="0.506409" y="0.497314" width="16" height="16" fill="#DCDCDC"/>
</mask>
<g mask="url(#mask0_102_875)">
<path d="M5.03078 4.67412H4.23161C5.28226 3.50011 6.80847 2.76237 8.50649 2.76237C11.6739 2.76237 14.2415 5.33003 14.2415 8.4974C14.2415 11.6648 11.6739 14.2324 8.50649 14.2324C5.33912 14.2324 2.77146 11.6648 2.77146 8.4974C2.77146 8.14547 2.48617 7.86017 2.13424 7.86017C1.7823 7.86017 1.49701 8.14547 1.49701 8.4974C1.49701 12.3686 4.63526 15.5069 8.50649 15.5069C12.3777 15.5069 15.516 12.3686 15.516 8.4974C15.516 4.62617 12.3777 1.48792 8.50649 1.48792C6.46685 1.48792 4.63118 2.35928 3.35081 3.74859V2.99417C3.35081 2.64224 3.06552 2.35694 2.71359 2.35694C2.36166 2.35694 2.07636 2.64224 2.07636 2.99417V5.31135C2.07636 5.66328 2.36166 5.94858 2.71359 5.94858H5.03078C5.38271 5.94858 5.668 5.66328 5.668 5.31135C5.668 4.95942 5.38271 4.67412 5.03078 4.67412Z" fill="black"/>
<path d="M9.14535 4.67411C9.14538 4.32218 8.86011 4.03685 8.50818 4.03682C8.15625 4.03678 7.87093 4.32205 7.87089 4.67398L7.87051 8.50014C7.8705 8.66916 7.93763 8.83127 8.05715 8.95079L10.7588 11.6524C11.0077 11.9013 11.4111 11.9013 11.66 11.6524C11.9088 11.4036 11.9088 11.0001 11.66 10.7513L9.14499 8.23628L9.14535 4.67411Z" fill="black"/>
</g>
</svg>
