<svg width="16" height="16" viewBox="0 0 16 16" fill="none" xmlns="http://www.w3.org/2000/svg">
<mask id="mask0_102_875" style="mask-type:alpha" maskUnits="userSpaceOnUse" x="0" y="0" width="16" height="16">
<rect width="16" height="16" fill="#DCDCDC"/>
</mask>
<g mask="url(#mask0_102_875)">
<path d="M4.52437 4.17681H3.7252C4.77585 3.0028 6.30206 2.26505 8.00008 2.26505C11.1675 2.26505 13.7351 4.83271 13.7351 8.00008C13.7351 11.1675 11.1675 13.7351 8.00008 13.7351C4.83271 13.7351 2.26505 11.1675 2.26505 8.00008C2.26505 7.64815 1.97976 7.36286 1.62783 7.36286C1.2759 7.36286 0.990601 7.64815 0.990601 8.00008C0.990601 11.8713 4.12885 15.0096 8.00008 15.0096C11.8713 15.0096 15.0096 11.8713 15.0096 8.00008C15.0096 4.12885 11.8713 0.990601 8.00008 0.990601C5.96045 0.990601 4.12477 1.86197 2.84441 3.25127V2.49686C2.84441 2.14493 2.55911 1.85963 2.20718 1.85963C1.85525 1.85963 1.56995 2.14493 1.56995 2.49686V4.81404C1.56995 5.16597 1.85525 5.45126 2.20718 5.45126H4.52437C4.8763 5.45126 5.16159 5.16597 5.16159 4.81404C5.16159 4.46211 4.8763 4.17681 4.52437 4.17681Z" fill="black"/>
<path d="M8.63894 4.17679C8.63897 3.82486 8.35371 3.53954 8.00178 3.5395C7.64985 3.53947 7.36452 3.82474 7.36449 4.17667L7.3641 8.00283C7.36409 8.17185 7.43122 8.33396 7.55074 8.45348L10.2524 11.1551C10.5012 11.404 10.9047 11.404 11.1536 11.1551C11.4024 10.9063 11.4024 10.5028 11.1536 10.2539L8.63858 7.73897L8.63894 4.17679Z" fill="black"/>
</g>
</svg>
