<svg width="16" height="16" viewBox="0 0 16 16" fill="none" xmlns="http://www.w3.org/2000/svg">
<path d="M3.39986 6.33339C3.39986 6.00202 3.66849 5.73339 3.99986 5.73339H4.66652C4.99789 5.73339 5.26652 6.00202 5.26652 6.33339C5.26652 6.66476 4.99789 6.93339 4.66652 6.93339H3.99986C3.66849 6.93339 3.39986 6.66476 3.39986 6.33339Z" fill="black"/>
<path d="M6.99986 5.73339C6.66849 5.73339 6.39986 6.00202 6.39986 6.33339C6.39986 6.66476 6.66849 6.93339 6.99986 6.93339H7.66652C7.99789 6.93339 8.26652 6.66476 8.26652 6.33339C8.26652 6.00202 7.99789 5.73339 7.66652 5.73339H6.99986Z" fill="black"/>
<path d="M9.06636 6.33339C9.06636 6.00202 9.33499 5.73339 9.66636 5.73339H11.9997C12.3311 5.73339 12.5997 6.00202 12.5997 6.33339C12.5997 6.66476 12.3311 6.93339 11.9997 6.93339H9.66636C9.33499 6.93339 9.06636 6.66476 9.06636 6.33339Z" fill="black"/>
<path d="M3.99986 8.73339C3.66849 8.73339 3.39986 9.00202 3.39986 9.33339C3.39986 9.66476 3.66849 9.93339 3.99986 9.93339H11.9999C12.3312 9.93339 12.5999 9.66476 12.5999 9.33339C12.5999 9.00202 12.3312 8.73339 11.9999 8.73339H3.99986Z" fill="black"/>
<path fill-rule="evenodd" clip-rule="evenodd" d="M3.33338 1.73345L12.6667 1.7334C14.1026 1.73339 15.2667 2.89745 15.2667 4.3334V11C15.2667 12.4359 14.1027 13.6 12.6667 13.6H3.33355C1.89763 13.6 0.733583 12.4359 0.73355 11L0.733398 4.33351C0.733366 2.89755 1.89742 1.73346 3.33338 1.73345ZM12.6667 2.9334L3.33339 2.93345C2.56018 2.93346 1.93338 3.56028 1.9334 4.33348L1.93355 11C1.93357 11.7732 2.56036 12.4 3.33355 12.4H12.6667C13.4399 12.4 14.0667 11.7732 14.0667 11V4.3334C14.0667 3.5602 13.4399 2.93339 12.6667 2.9334Z" fill="black"/>
</svg>
