<svg width="17" height="17" viewBox="0 0 17 17" fill="none" xmlns="http://www.w3.org/2000/svg">
<mask id="mask0_102_883" style="mask-type:alpha" maskUnits="userSpaceOnUse" x="0" y="0" width="17" height="17">
<rect x="0.506592" y="0.497314" width="16" height="16" fill="#DCDCDC"/>
</mask>
<g mask="url(#mask0_102_883)">
<path d="M4.37501 6.97149C4.28567 7.0085 4.18992 7.02754 4.09322 7.02754V7.02607C3.89812 7.02607 3.71102 6.94857 3.57306 6.81062C3.43511 6.67266 3.35761 6.48556 3.35761 6.29046C3.35761 6.09536 3.43511 5.90826 3.57306 5.77031C3.71102 5.63235 3.89812 5.55485 4.09322 5.55485C4.18992 5.55485 4.28567 5.5739 4.37501 5.6109C4.46434 5.64791 4.54552 5.70214 4.6139 5.77052C4.68227 5.8389 4.73651 5.92007 4.77351 6.00941C4.81052 6.09875 4.82957 6.1945 4.82957 6.2912C4.82957 6.38789 4.81052 6.48365 4.77351 6.57298C4.73651 6.66232 4.68227 6.7435 4.6139 6.81187C4.54552 6.88025 4.46434 6.93449 4.37501 6.97149Z" fill="black"/>
<path d="M4.61337 9.01745C4.75133 8.8795 4.82883 8.69239 4.82883 8.49729C4.82883 8.3022 4.75133 8.11509 4.61337 7.97714C4.47542 7.83918 4.28832 7.76168 4.09322 7.76168C3.89812 7.76168 3.71102 7.83918 3.57306 7.97714C3.43511 8.11509 3.35761 8.3022 3.35761 8.49729C3.35761 8.69239 3.43511 8.8795 3.57306 9.01745C3.71102 9.1554 3.89812 9.2329 4.09322 9.2329C4.28832 9.2329 4.47542 9.1554 4.61337 9.01745Z" fill="black"/>
<path d="M4.61337 11.2243C4.47542 11.3622 4.28832 11.4397 4.09322 11.4397C3.89812 11.4397 3.71102 11.3622 3.57306 11.2243C3.43511 11.0863 3.35761 10.8992 3.35761 10.7041C3.35761 10.509 3.43511 10.3219 3.57306 10.184C3.71102 10.046 3.89812 9.96852 4.09322 9.96852C4.28832 9.96852 4.47542 10.046 4.61337 10.184C4.75133 10.3219 4.82883 10.509 4.82883 10.7041C4.82883 10.8992 4.75133 11.0863 4.61337 11.2243Z" fill="black"/>
<path d="M6.97995 6.57202C7.01683 6.48274 7.03576 6.38706 7.03566 6.29046C7.03547 6.09536 6.95778 5.90834 6.81969 5.77052C6.6816 5.6327 6.49441 5.55539 6.29932 5.55559C6.10422 5.55578 5.91719 5.63347 5.77938 5.77156C5.64156 5.90965 5.56425 6.09684 5.56444 6.29193C5.56454 6.38853 5.58366 6.48417 5.62072 6.57338C5.65778 6.66259 5.71204 6.74363 5.78042 6.81187C5.84879 6.88011 5.92994 6.93422 6.01923 6.97109C6.10851 7.00797 6.20419 7.0269 6.30079 7.02681C6.39739 7.02671 6.49303 7.00759 6.58224 6.97053C6.67145 6.93347 6.75249 6.87921 6.82073 6.81083C6.88897 6.74246 6.94307 6.66131 6.97995 6.57202Z" fill="black"/>
<path d="M6.58156 9.17691C6.49231 9.21388 6.39665 9.23291 6.30005 9.2329C6.10496 9.2329 5.91785 9.1554 5.7799 9.01745C5.64194 8.8795 5.56444 8.69239 5.56444 8.49729C5.56444 8.3022 5.64194 8.11509 5.7799 7.97714C5.91785 7.83918 6.10496 7.76168 6.30005 7.76168C6.39665 7.76168 6.49231 7.78071 6.58156 7.81768C6.67081 7.85465 6.7519 7.90883 6.82021 7.97714C6.88852 8.04545 6.9427 8.12654 6.97967 8.21579C7.01664 8.30504 7.03566 8.40069 7.03566 8.49729C7.03566 8.5939 7.01664 8.68955 6.97967 8.7788C6.9427 8.86805 6.88852 8.94914 6.82021 9.01745C6.7519 9.08576 6.67081 9.13994 6.58156 9.17691Z" fill="black"/>
<path d="M9.18678 6.57202C9.22366 6.48274 9.24259 6.38706 9.2425 6.29046C9.2423 6.09536 9.16461 5.90834 9.02652 5.77052C8.88843 5.6327 8.70125 5.55539 8.50615 5.55559C8.31105 5.55578 8.12403 5.63347 7.98621 5.77156C7.84839 5.90965 7.77108 6.09684 7.77127 6.29193C7.77137 6.38853 7.79049 6.48417 7.82755 6.57338C7.86461 6.66259 7.91887 6.74363 7.98725 6.81187C8.05563 6.88011 8.13677 6.93422 8.22606 6.97109C8.31535 7.00797 8.41102 7.0269 8.50762 7.02681C8.60422 7.02671 8.69986 7.00759 8.78907 6.97053C8.87828 6.93347 8.95932 6.87921 9.02756 6.81083C9.0958 6.74246 9.1499 6.66131 9.18678 6.57202Z" fill="black"/>
<path d="M8.78839 9.17691C8.69914 9.21388 8.60349 9.23291 8.50689 9.2329C8.31179 9.2329 8.12468 9.1554 7.98673 9.01745C7.84878 8.8795 7.77127 8.69239 7.77127 8.49729C7.77127 8.3022 7.84878 8.11509 7.98673 7.97714C8.12468 7.83918 8.31179 7.76168 8.50689 7.76168C8.60349 7.76168 8.69914 7.78071 8.78839 7.81768C8.87764 7.85465 8.95873 7.90883 9.02704 7.97714C9.09535 8.04545 9.14953 8.12654 9.1865 8.21579C9.22347 8.30504 9.2425 8.40069 9.2425 8.49729C9.2425 8.5939 9.22347 8.68955 9.1865 8.7788C9.14953 8.86805 9.09535 8.94914 9.02704 9.01745C8.95873 9.08576 8.87764 9.13994 8.78839 9.17691Z" fill="black"/>
<path d="M11.3936 6.57202C11.4305 6.48274 11.4494 6.38706 11.4493 6.29046C11.4491 6.09536 11.3714 5.90834 11.2334 5.77052C11.0953 5.6327 10.9081 5.55539 10.713 5.55559C10.5179 5.55578 10.3309 5.63347 10.193 5.77156C10.0552 5.90965 9.97791 6.09684 9.97811 6.29193C9.97821 6.38853 9.99733 6.48417 10.0344 6.57338C10.0714 6.66259 10.1257 6.74363 10.1941 6.81187C10.2625 6.88011 10.3436 6.93422 10.4329 6.97109C10.5222 7.00797 10.6179 7.0269 10.7145 7.02681C10.8111 7.02671 10.9067 7.00759 10.9959 6.97053C11.0851 6.93347 11.1662 6.87921 11.2344 6.81083C11.3026 6.74246 11.3567 6.66131 11.3936 6.57202Z" fill="black"/>
<path d="M10.9952 9.17691C10.906 9.21388 10.8103 9.23291 10.7137 9.2329C10.5186 9.2329 10.3315 9.1554 10.1936 9.01745C10.0556 8.8795 9.97811 8.69239 9.97811 8.49729C9.97811 8.3022 10.0556 8.11509 10.1936 7.97714C10.3315 7.83918 10.5186 7.76168 10.7137 7.76168C10.8103 7.76168 10.906 7.78071 10.9952 7.81768C11.0845 7.85465 11.1656 7.90883 11.2339 7.97714C11.3022 8.04545 11.3564 8.12654 11.3933 8.21579C11.4303 8.30504 11.4493 8.40069 11.4493 8.49729C11.4493 8.5939 11.4303 8.68955 11.3933 8.7788C11.3564 8.86805 11.3022 8.94914 11.2339 9.01745C11.1656 9.08576 11.0845 9.13994 10.9952 9.17691Z" fill="black"/>
<path d="M13.6005 6.57202C13.6373 6.48274 13.6563 6.38706 13.6562 6.29046C13.656 6.09536 13.5783 5.90834 13.4402 5.77052C13.3021 5.6327 13.1149 5.55539 12.9198 5.55559C12.7247 5.55578 12.5377 5.63347 12.3999 5.77156C12.2621 5.90965 12.1847 6.09684 12.1849 6.29193C12.185 6.38853 12.2042 6.48417 12.2412 6.57338C12.2783 6.66259 12.3325 6.74363 12.4009 6.81187C12.4693 6.88011 12.5504 6.93422 12.6397 6.97109C12.729 7.00797 12.8247 7.0269 12.9213 7.02681C13.0179 7.02671 13.1135 7.00759 13.2027 6.97053C13.292 6.93347 13.373 6.87921 13.4412 6.81083C13.5095 6.74246 13.5636 6.66131 13.6005 6.57202Z" fill="black"/>
<path d="M13.2021 9.17691C13.1128 9.21388 13.0172 9.23291 12.9206 9.2329C12.7255 9.2329 12.5384 9.1554 12.4004 9.01745C12.2624 8.8795 12.1849 8.69239 12.1849 8.49729C12.1849 8.3022 12.2624 8.11509 12.4004 7.97714C12.5384 7.83918 12.7255 7.76168 12.9206 7.76168C13.0172 7.76168 13.1128 7.78071 13.2021 7.81768C13.2913 7.85465 13.3724 7.90883 13.4407 7.97714C13.509 8.04545 13.5632 8.12654 13.6002 8.21579C13.6371 8.30504 13.6562 8.40069 13.6562 8.49729C13.6562 8.5939 13.6371 8.68955 13.6002 8.7788C13.5632 8.86805 13.509 8.94914 13.4407 9.01745C13.3724 9.08576 13.2913 9.13994 13.2021 9.17691Z" fill="black"/>
<path d="M13.4407 11.2243C13.5787 11.0863 13.6562 10.8992 13.6562 10.7041C13.6562 10.509 13.5787 10.3219 13.4407 10.184C13.3028 10.046 13.1156 9.96852 12.9206 9.96852C12.7255 9.96852 12.5384 10.046 12.4004 10.184C12.2624 10.3219 12.1849 10.509 12.1849 10.7041C12.1849 10.8992 12.2624 11.0863 12.4004 11.2243C12.5384 11.3622 12.7255 11.4397 12.9206 11.4397C13.1156 11.4397 13.3028 11.3622 13.4407 11.2243Z" fill="black"/>
<path d="M5.7799 10.184C5.91785 10.046 6.10496 9.96852 6.30005 9.96852H10.7137C10.9088 9.96852 11.0959 10.046 11.2339 10.184C11.3718 10.3219 11.4493 10.509 11.4493 10.7041C11.4493 10.8992 11.3718 11.0863 11.2339 11.2243C11.0959 11.3622 10.9088 11.4397 10.7137 11.4397H6.30005C6.10496 11.4397 5.91785 11.3622 5.7799 11.2243C5.64194 11.0863 5.56444 10.8992 5.56444 10.7041C5.56444 10.509 5.64194 10.3219 5.7799 10.184Z" fill="black"/>
<path fill-rule="evenodd" clip-rule="evenodd" d="M0.860199 4.99261C0.860199 3.93682 1.71609 3.08093 2.77188 3.08093H14.2419C15.2977 3.08093 16.1536 3.93682 16.1536 4.99261V12.0021C16.1536 13.0579 15.2977 13.9138 14.2419 13.9138H2.77188C1.71609 13.9138 0.860199 13.0579 0.860199 12.0021V4.99261ZM2.77188 4.35538H14.2419C14.5939 4.35538 14.8792 4.64068 14.8792 4.99261V12.0021C14.8792 12.354 14.5939 12.6393 14.2419 12.6393H2.77188C2.41995 12.6393 2.13465 12.354 2.13465 12.0021V4.99261C2.13465 4.64068 2.41995 4.35538 2.77188 4.35538Z" fill="black"/>
</g>
</svg>
