<svg width="16" height="16" viewBox="0 0 16 16" fill="none" xmlns="http://www.w3.org/2000/svg">
<mask id="mask0_102_883" style="mask-type:alpha" maskUnits="userSpaceOnUse" x="0" y="0" width="16" height="16">
<rect width="16" height="16" fill="#DCDCDC"/>
</mask>
<g mask="url(#mask0_102_883)">
<path d="M3.86841 6.47418C3.77908 6.51118 3.68333 6.53023 3.58663 6.53023V6.52876C3.39153 6.52876 3.20443 6.45126 3.06647 6.3133C2.92852 6.17535 2.85102 5.98824 2.85102 5.79315C2.85102 5.59805 2.92852 5.41094 3.06647 5.27299C3.20443 5.13504 3.39153 5.05754 3.58663 5.05754C3.68333 5.05754 3.77908 5.07658 3.86841 5.11359C3.95775 5.15059 4.03893 5.20483 4.1073 5.27321C4.17568 5.34158 4.22992 5.42276 4.26692 5.51209C4.30393 5.60143 4.32297 5.69718 4.32297 5.79388C4.32297 5.89058 4.30393 5.98633 4.26692 6.07567C4.22992 6.16501 4.17568 6.24618 4.1073 6.31456C4.03893 6.38293 3.95775 6.43717 3.86841 6.47418Z" fill="black"/>
<path d="M4.10678 8.52013C4.24474 8.38218 4.32224 8.19508 4.32224 7.99998C4.32224 7.80488 4.24474 7.61778 4.10678 7.47982C3.96883 7.34187 3.78172 7.26437 3.58663 7.26437C3.39153 7.26437 3.20443 7.34187 3.06647 7.47982C2.92852 7.61778 2.85102 7.80488 2.85102 7.99998C2.85102 8.19508 2.92852 8.38218 3.06647 8.52013C3.20443 8.65809 3.39153 8.73559 3.58663 8.73559C3.78172 8.73559 3.96883 8.65809 4.10678 8.52013Z" fill="black"/>
<path d="M4.10678 10.727C3.96883 10.8649 3.78172 10.9424 3.58663 10.9424C3.39153 10.9424 3.20443 10.8649 3.06647 10.727C2.92852 10.589 2.85102 10.4019 2.85102 10.2068C2.85102 10.0117 2.92852 9.82461 3.06647 9.68666C3.20443 9.5487 3.39153 9.4712 3.58663 9.4712C3.78172 9.4712 3.96883 9.5487 4.10678 9.68666C4.24474 9.82461 4.32224 10.0117 4.32224 10.2068C4.32224 10.4019 4.24474 10.589 4.10678 10.727Z" fill="black"/>
<path d="M6.47336 6.07471C6.51024 5.98542 6.52917 5.88975 6.52907 5.79315C6.52888 5.59805 6.45119 5.41102 6.3131 5.27321C6.175 5.13539 5.98782 5.05808 5.79272 5.05827C5.59763 5.05847 5.4106 5.13615 5.27279 5.27425C5.13497 5.41234 5.05765 5.59952 5.05785 5.79462C5.05795 5.89122 5.07707 5.98686 5.11413 6.07607C5.15118 6.16528 5.20545 6.24632 5.27383 6.31456C5.3422 6.3828 5.42335 6.4369 5.51263 6.47378C5.60192 6.51066 5.69759 6.52959 5.7942 6.52949C5.8908 6.5294 5.98643 6.51027 6.07565 6.47322C6.16486 6.43616 6.2459 6.38189 6.31414 6.31352C6.38238 6.24514 6.43648 6.16399 6.47336 6.07471Z" fill="black"/>
<path d="M6.07497 8.67959C5.98572 8.71656 5.89006 8.73559 5.79346 8.73559C5.59836 8.73559 5.41126 8.65809 5.27331 8.52013C5.13535 8.38218 5.05785 8.19508 5.05785 7.99998C5.05785 7.80488 5.13535 7.61778 5.27331 7.47982C5.41126 7.34187 5.59836 7.26437 5.79346 7.26437C5.89006 7.26437 5.98572 7.2834 6.07497 7.32036C6.16422 7.35733 6.24531 7.41152 6.31362 7.47982C6.38192 7.54813 6.43611 7.62922 6.47308 7.71847C6.51005 7.80772 6.52907 7.90338 6.52907 7.99998C6.52907 8.09658 6.51005 8.19224 6.47308 8.28149C6.43611 8.37073 6.38192 8.45183 6.31362 8.52013C6.24531 8.58844 6.16422 8.64263 6.07497 8.67959Z" fill="black"/>
<path d="M8.68019 6.07471C8.71707 5.98542 8.736 5.88975 8.73591 5.79315C8.73571 5.59805 8.65802 5.41102 8.51993 5.27321C8.38184 5.13539 8.19465 5.05808 7.99956 5.05827C7.80446 5.05847 7.61743 5.13615 7.47962 5.27425C7.3418 5.41234 7.26449 5.59952 7.26468 5.79462C7.26478 5.89122 7.2839 5.98686 7.32096 6.07607C7.35802 6.16528 7.41228 6.24632 7.48066 6.31456C7.54904 6.3828 7.63018 6.4369 7.71947 6.47378C7.80875 6.51066 7.90443 6.52959 8.00103 6.52949C8.09763 6.5294 8.19327 6.51027 8.28248 6.47322C8.37169 6.43616 8.45273 6.38189 8.52097 6.31352C8.58921 6.24514 8.64331 6.16399 8.68019 6.07471Z" fill="black"/>
<path d="M8.2818 8.67959C8.19255 8.71656 8.0969 8.73559 8.00029 8.73559C7.8052 8.73559 7.61809 8.65809 7.48014 8.52013C7.34219 8.38218 7.26468 8.19508 7.26468 7.99998C7.26468 7.80488 7.34219 7.61778 7.48014 7.47982C7.61809 7.34187 7.8052 7.26437 8.00029 7.26437C8.0969 7.26437 8.19255 7.2834 8.2818 7.32036C8.37105 7.35733 8.45214 7.41152 8.52045 7.47982C8.58876 7.54813 8.64294 7.62922 8.67991 7.71847C8.71688 7.80772 8.73591 7.90338 8.73591 7.99998C8.73591 8.09658 8.71688 8.19224 8.67991 8.28149C8.64294 8.37073 8.58876 8.45183 8.52045 8.52013C8.45214 8.58844 8.37105 8.64263 8.2818 8.67959Z" fill="black"/>
<path d="M10.887 6.07471C10.9239 5.98542 10.9428 5.88975 10.9427 5.79315C10.9425 5.59805 10.8649 5.41102 10.7268 5.27321C10.5887 5.13539 10.4015 5.05808 10.2064 5.05827C10.0113 5.05847 9.82427 5.13615 9.68645 5.27425C9.54864 5.41234 9.47132 5.59952 9.47152 5.79462C9.47161 5.89122 9.49074 5.98686 9.52779 6.07607C9.56485 6.16528 9.61912 6.24632 9.68749 6.31456C9.75587 6.3828 9.83702 6.4369 9.9263 6.47378C10.0156 6.51066 10.1113 6.52959 10.2079 6.52949C10.3045 6.5294 10.4001 6.51027 10.4893 6.47322C10.5785 6.43616 10.6596 6.38189 10.7278 6.31352C10.796 6.24514 10.8501 6.16399 10.887 6.07471Z" fill="black"/>
<path d="M10.4886 8.67959C10.3994 8.71656 10.3037 8.73559 10.2071 8.73559C10.012 8.73559 9.82493 8.65809 9.68697 8.52013C9.54902 8.38218 9.47152 8.19508 9.47152 7.99998C9.47152 7.80488 9.54902 7.61778 9.68697 7.47982C9.82493 7.34187 10.012 7.26437 10.2071 7.26437C10.3037 7.26437 10.3994 7.2834 10.4886 7.32036C10.5779 7.35733 10.659 7.41152 10.7273 7.47982C10.7956 7.54813 10.8498 7.62922 10.8867 7.71847C10.9237 7.80772 10.9427 7.90338 10.9427 7.99998C10.9427 8.09658 10.9237 8.19224 10.8867 8.28149C10.8498 8.37073 10.7956 8.45183 10.7273 8.52013C10.659 8.58844 10.5779 8.64263 10.4886 8.67959Z" fill="black"/>
<path d="M13.0939 6.07471C13.1307 5.98542 13.1497 5.88975 13.1496 5.79315C13.1494 5.59805 13.0717 5.41102 12.9336 5.27321C12.7955 5.13539 12.6083 5.05808 12.4132 5.05827C12.2181 5.05847 12.0311 5.13615 11.8933 5.27425C11.7555 5.41234 11.6782 5.59952 11.6784 5.79462C11.6784 5.89122 11.6976 5.98686 11.7346 6.07607C11.7717 6.16528 11.826 6.24632 11.8943 6.31456C11.9627 6.3828 12.0438 6.4369 12.1331 6.47378C12.2224 6.51066 12.3181 6.52959 12.4147 6.52949C12.5113 6.5294 12.6069 6.51027 12.6961 6.47322C12.7854 6.43616 12.8664 6.38189 12.9346 6.31352C13.0029 6.24514 13.057 6.16399 13.0939 6.07471Z" fill="black"/>
<path d="M12.6955 8.67959C12.6062 8.71656 12.5106 8.73559 12.414 8.73559C12.2189 8.73559 12.0318 8.65809 11.8938 8.52013C11.7559 8.38218 11.6784 8.19508 11.6784 7.99998C11.6784 7.80488 11.7559 7.61778 11.8938 7.47982C12.0318 7.34187 12.2189 7.26437 12.414 7.26437C12.5106 7.26437 12.6062 7.2834 12.6955 7.32036C12.7847 7.35733 12.8658 7.41152 12.9341 7.47982C13.0024 7.54813 13.0566 7.62922 13.0936 7.71847C13.1305 7.80772 13.1496 7.90338 13.1496 7.99998C13.1496 8.09658 13.1305 8.19224 13.0936 8.28149C13.0566 8.37073 13.0024 8.45183 12.9341 8.52013C12.8658 8.58844 12.7847 8.64263 12.6955 8.67959Z" fill="black"/>
<path d="M12.9341 10.727C13.0721 10.589 13.1496 10.4019 13.1496 10.2068C13.1496 10.0117 13.0721 9.82461 12.9341 9.68666C12.7962 9.5487 12.6091 9.4712 12.414 9.4712C12.2189 9.4712 12.0318 9.5487 11.8938 9.68666C11.7559 9.82461 11.6784 10.0117 11.6784 10.2068C11.6784 10.4019 11.7559 10.589 11.8938 10.727C12.0318 10.8649 12.2189 10.9424 12.414 10.9424C12.6091 10.9424 12.7962 10.8649 12.9341 10.727Z" fill="black"/>
<path d="M5.27331 9.68666C5.41126 9.5487 5.59836 9.4712 5.79346 9.4712H10.2071C10.4022 9.4712 10.5893 9.5487 10.7273 9.68666C10.8652 9.82461 10.9427 10.0117 10.9427 10.2068C10.9427 10.4019 10.8652 10.589 10.7273 10.727C10.5893 10.8649 10.4022 10.9424 10.2071 10.9424H5.79346C5.59836 10.9424 5.41126 10.8649 5.27331 10.727C5.13535 10.589 5.05785 10.4019 5.05785 10.2068C5.05785 10.0117 5.13535 9.82461 5.27331 9.68666Z" fill="black"/>
<path fill-rule="evenodd" clip-rule="evenodd" d="M0.353607 4.4953C0.353607 3.43951 1.20949 2.58362 2.26529 2.58362H13.7354C14.7911 2.58362 15.647 3.43951 15.647 4.4953V11.5048C15.647 12.5606 14.7911 13.4165 13.7354 13.4165H2.26529C1.20949 13.4165 0.353607 12.5606 0.353607 11.5048V4.4953ZM2.26529 3.85807H13.7354C14.0873 3.85807 14.3726 4.14337 14.3726 4.4953V11.5048C14.3726 11.8567 14.0873 12.142 13.7354 12.142H2.26529C1.91335 12.142 1.62806 11.8567 1.62806 11.5048V4.4953C1.62806 4.14337 1.91335 3.85807 2.26529 3.85807Z" fill="black"/>
</g>
</svg>
