<svg width="16" height="16" viewBox="0 0 16 16" fill="none" xmlns="http://www.w3.org/2000/svg">
<path d="M8.21777 4.62545C8.21777 4.36834 8.36853 4.26244 8.55371 4.40807L10.2775 5.76116C10.4626 5.90679 10.4626 6.1437 10.2775 6.28859L8.56653 7.62777C8.38074 7.7734 8.21704 7.62569 8.21704 7.41039V6.68856H7.95764C7.20862 6.68856 5.73914 7.00417 5.38965 7.61245C5.32104 7.72393 5.2489 7.69954 5.2489 7.61245C5.26392 6.52898 7.10498 5.30965 8.18701 5.30965H8.21777V4.62545Z" fill="black"/>
<path fill-rule="evenodd" clip-rule="evenodd" d="M1 2.45166C1 1.89937 1.44775 1.45166 2 1.45166H14C14.5522 1.45166 15 1.89937 15 2.45166V9.62175C15 10.174 14.5522 10.6217 14 10.6217H8.63501V13.2784H12C12.3507 13.2784 12.635 13.5627 12.635 13.9134C12.635 14.2641 12.3507 14.5484 12 14.5484H4C3.64929 14.5484 3.36499 14.2641 3.36499 13.9134C3.36499 13.5627 3.64929 13.2784 4 13.2784H7.36499V10.6217H2C1.44775 10.6217 1 10.174 1 9.62175V2.45166ZM2.27002 9.35176V2.72165H13.73V9.35176H2.27002Z" fill="black"/>
</svg>
