<svg width="16" height="16" viewBox="0 0 16 16" fill="none" xmlns="http://www.w3.org/2000/svg">
<mask id="mask0_106_1267" style="mask-type:alpha" maskUnits="userSpaceOnUse" x="0" y="0" width="16" height="16">
<rect width="16" height="16" fill="#DCDCDC"/>
</mask>
<g mask="url(#mask0_106_1267)">
<path fill-rule="evenodd" clip-rule="evenodd" d="M1.1626 2.77704C1.1626 2.41963 1.45234 2.12988 1.80976 2.12988H14.1902C14.5477 2.12988 14.8374 2.41963 14.8374 2.77704C14.8374 3.13446 14.5477 3.42421 14.1902 3.42421H1.80976C1.45234 3.42421 1.1626 3.13446 1.1626 2.77704Z" fill="black"/>
<path fill-rule="evenodd" clip-rule="evenodd" d="M7.35291 6.25904C7.35291 5.90163 7.64266 5.61188 8.00007 5.61188H14.1903C14.5477 5.61188 14.8375 5.90163 14.8375 6.25904C14.8375 6.61646 14.5477 6.90621 14.1903 6.90621H8.00007C7.64266 6.90621 7.35291 6.61646 7.35291 6.25904Z" fill="black"/>
<path fill-rule="evenodd" clip-rule="evenodd" d="M7.35291 9.74108C7.35291 9.38366 7.64266 9.09392 8.00007 9.09392H14.1903C14.5477 9.09392 14.8375 9.38366 14.8375 9.74108C14.8375 10.0985 14.5477 10.3882 14.1903 10.3882H8.00007C7.64266 10.3882 7.35291 10.0985 7.35291 9.74108Z" fill="black"/>
<path fill-rule="evenodd" clip-rule="evenodd" d="M1.1626 13.2231C1.1626 12.8657 1.45234 12.5759 1.80976 12.5759H14.1902C14.5477 12.5759 14.8374 12.8657 14.8374 13.2231C14.8374 13.5805 14.5477 13.8702 14.1902 13.8702H1.80976C1.45234 13.8702 1.1626 13.5805 1.1626 13.2231Z" fill="black"/>
<path fill-rule="evenodd" clip-rule="evenodd" d="M5.2186 5.49957C5.42437 5.61362 5.55204 5.83035 5.55204 6.06561V9.93451C5.55204 10.1698 5.42437 10.3865 5.2186 10.5005C5.01284 10.6146 4.76139 10.608 4.56189 10.4833L1.46676 8.54885C1.27755 8.43059 1.1626 8.22319 1.1626 8.00006C1.1626 7.77692 1.27755 7.56953 1.46676 7.45126L4.56189 5.51681C4.76139 5.39213 5.01284 5.38552 5.2186 5.49957ZM3.03082 8.00006L4.25772 8.76687V7.23325L3.03082 8.00006Z" fill="black"/>
</g>
</svg>
