<svg width="17" height="16" viewBox="0 0 17 16" fill="none" xmlns="http://www.w3.org/2000/svg">
<path d="M2 2.8666C2 2.53523 2.26863 2.2666 2.6 2.2666H14.07C14.4014 2.2666 14.67 2.53523 14.67 2.8666C14.67 3.19797 14.4014 3.4666 14.07 3.4666H2.6C2.26863 3.4666 2 3.19797 2 2.8666Z" fill="black"/>
<path d="M2 8.00002C2 7.66865 2.26863 7.40002 2.6 7.40002H14.07C14.4014 7.40002 14.67 7.66865 14.67 8.00002C14.67 8.3314 14.4014 8.60002 14.07 8.60002H2.6C2.26863 8.60002 2 8.3314 2 8.00002Z" fill="black"/>
<path d="M2.6 12.5334C2.26863 12.5334 2 12.8021 2 13.1334C2 13.4648 2.26863 13.7334 2.6 13.7334H14.07C14.4014 13.7334 14.67 13.4648 14.67 13.1334C14.67 12.8021 14.4014 12.5334 14.07 12.5334H2.6Z" fill="black"/>
</svg>
