<svg width="16" height="16" viewBox="0 0 16 16" fill="none" xmlns="http://www.w3.org/2000/svg">
<path d="M2.26504 2.2666C1.93367 2.2666 1.66504 2.53523 1.66504 2.8666C1.66504 3.19797 1.93367 3.4666 2.26504 3.4666H13.735C14.0664 3.4666 14.335 3.19797 14.335 2.8666C14.335 2.53523 14.0664 2.2666 13.735 2.2666H2.26504Z" fill="black"/>
<path d="M1.71341 7.76362C1.68228 7.83616 1.66504 7.91608 1.66504 8.00002C1.66504 8.07879 1.68022 8.15401 1.70781 8.22293C1.73709 8.29624 1.78141 8.36494 1.84077 8.4243L3.72637 10.3099C3.96068 10.5442 4.34058 10.5443 4.5749 10.3099C4.80922 10.0756 4.80922 9.69573 4.57491 9.46141L3.71354 8.60002H13.735C14.0664 8.60002 14.335 8.3314 14.335 8.00002C14.335 7.66865 14.0664 7.40002 13.735 7.40002H3.71356L4.57491 6.53866C4.80922 6.30435 4.80922 5.92445 4.5749 5.69014C4.34058 5.45582 3.96068 5.45583 3.72637 5.69014L1.84318 7.57337C1.8353 7.58116 1.82764 7.58916 1.8202 7.59738C1.77451 7.64777 1.73892 7.70405 1.71341 7.76362Z" fill="black"/>
<path d="M1.66504 13.1334C1.66504 12.8021 1.93367 12.5334 2.26504 12.5334H13.735C14.0664 12.5334 14.335 12.8021 14.335 13.1334C14.335 13.4648 14.0664 13.7334 13.735 13.7334H2.26504C1.93367 13.7334 1.66504 13.4648 1.66504 13.1334Z" fill="black"/>
</svg>
