<svg width="16" height="16" viewBox="0 0 16 16" fill="none" xmlns="http://www.w3.org/2000/svg">
<path d="M1.66504 2.8666C1.66504 2.53523 1.93367 2.2666 2.26504 2.2666H13.735C14.0664 2.2666 14.335 2.53523 14.335 2.8666C14.335 3.19797 14.0664 3.4666 13.735 3.4666H2.26504C1.93367 3.4666 1.66504 3.19797 1.66504 2.8666Z" fill="black"/>
<path d="M1.66504 8.00002C1.66504 7.66865 1.93367 7.40002 2.26504 7.40002H13.735C14.0664 7.40002 14.335 7.66865 14.335 8.00002C14.335 8.3314 14.0664 8.60002 13.735 8.60002H2.26504C1.93367 8.60002 1.66504 8.3314 1.66504 8.00002Z" fill="black"/>
<path d="M2.26504 12.5334C1.93367 12.5334 1.66504 12.8021 1.66504 13.1334C1.66504 13.4648 1.93367 13.7334 2.26504 13.7334H13.735C14.0664 13.7334 14.335 13.4648 14.335 13.1334C14.335 12.8021 14.0664 12.5334 13.735 12.5334H2.26504Z" fill="black"/>
</svg>
