<svg width="17" height="17" viewBox="0 0 17 17" fill="none" xmlns="http://www.w3.org/2000/svg">
<mask id="mask0_106_1267" style="mask-type:alpha" maskUnits="userSpaceOnUse" x="0" y="0" width="17" height="17">
<rect x="0.461304" y="0.497314" width="16" height="16" fill="#DCDCDC"/>
</mask>
<g mask="url(#mask0_106_1267)">
<path fill-rule="evenodd" clip-rule="evenodd" d="M1.6239 3.27436C1.6239 2.91694 1.91365 2.6272 2.27106 2.6272H14.6515C15.009 2.6272 15.2987 2.91694 15.2987 3.27436C15.2987 3.63178 15.009 3.92152 14.6515 3.92152H2.27106C1.91365 3.92152 1.6239 3.63178 1.6239 3.27436Z" fill="black"/>
<path fill-rule="evenodd" clip-rule="evenodd" d="M7.81422 6.75636C7.81422 6.39894 8.10396 6.1092 8.46138 6.1092H14.6516C15.009 6.1092 15.2988 6.39894 15.2988 6.75636C15.2988 7.11378 15.009 7.40352 14.6516 7.40352H8.46138C8.10396 7.40352 7.81422 7.11378 7.81422 6.75636Z" fill="black"/>
<path fill-rule="evenodd" clip-rule="evenodd" d="M7.81422 10.2384C7.81422 9.88098 8.10396 9.59123 8.46138 9.59123H14.6516C15.009 9.59123 15.2988 9.88098 15.2988 10.2384C15.2988 10.5958 15.009 10.8856 14.6516 10.8856H8.46138C8.10396 10.8856 7.81422 10.5958 7.81422 10.2384Z" fill="black"/>
<path fill-rule="evenodd" clip-rule="evenodd" d="M1.6239 13.7204C1.6239 13.363 1.91365 13.0732 2.27106 13.0732H14.6515C15.009 13.0732 15.2987 13.363 15.2987 13.7204C15.2987 14.0778 15.009 14.3676 14.6515 14.3676H2.27106C1.91365 14.3676 1.6239 14.0778 1.6239 13.7204Z" fill="black"/>
<path fill-rule="evenodd" clip-rule="evenodd" d="M5.67991 5.99688C5.88568 6.11093 6.01335 6.32766 6.01335 6.56292V10.4318C6.01335 10.6671 5.88568 10.8838 5.67991 10.9979C5.47414 11.1119 5.22269 11.1053 5.02319 10.9806L1.92807 9.04616C1.73885 8.9279 1.6239 8.72051 1.6239 8.49737C1.6239 8.27424 1.73885 8.06684 1.92807 7.94858L5.02319 6.01413C5.22269 5.88944 5.47414 5.88284 5.67991 5.99688ZM3.49213 8.49737L4.71902 9.26418V7.73056L3.49213 8.49737Z" fill="black"/>
</g>
</svg>
