<svg width="17" height="17" viewBox="0 0 17 17" fill="none" xmlns="http://www.w3.org/2000/svg">
<mask id="mask0_102_847" style="mask-type:alpha" maskUnits="userSpaceOnUse" x="0" y="0" width="17" height="17">
<rect x="0.506714" y="0.497314" width="16" height="16" fill="#DCDCDC"/>
</mask>
<g mask="url(#mask0_102_847)">
<path d="M7.55071 1.9657C6.84683 1.9657 6.27626 2.5363 6.27626 3.24015V4.19599C6.27626 4.54792 6.56155 4.83321 6.91348 4.83321C7.26541 4.83321 7.55071 4.54792 7.55071 4.19599V3.24015H13.923V10.2496H12.6485C12.2966 10.2496 12.0113 10.5349 12.0113 10.8869C12.0113 11.2388 12.2966 11.5241 12.6485 11.5241H13.923C14.6268 11.5241 15.1974 10.9535 15.1974 10.2496V3.24015C15.1974 2.5363 14.6268 1.9657 13.923 1.9657H7.55071Z" fill="black"/>
<path d="M6.27626 8.33796C6.62819 8.33796 6.91348 8.62325 6.91348 8.97518V9.93102H7.86932C8.22125 9.93102 8.50655 10.2163 8.50655 10.5682C8.50655 10.9202 8.22125 11.2055 7.86932 11.2055H6.91348V12.1613C6.91348 12.5132 6.62819 12.7985 6.27626 12.7985C5.92433 12.7985 5.63903 12.5132 5.63903 12.1613V11.2055H4.68319C4.33126 11.2055 4.04596 10.9202 4.04596 10.5682C4.04596 10.2163 4.33126 9.93102 4.68319 9.93102H5.63903V8.97518C5.63903 8.62325 5.92433 8.33796 6.27626 8.33796Z" fill="black"/>
<path fill-rule="evenodd" clip-rule="evenodd" d="M3.09013 6.10767C2.38627 6.10767 1.81567 6.67826 1.81567 7.38212V13.7544C1.81567 14.4582 2.38627 15.0288 3.09013 15.0288H9.46238C10.1662 15.0288 10.7368 14.4582 10.7368 13.7544V7.38212C10.7368 6.67826 10.1662 6.10767 9.46238 6.10767H3.09013ZM3.09013 13.7544V7.38212H9.46238V13.7544H3.09013Z" fill="black"/>
</g>
</svg>
