<svg width="16" height="16" viewBox="0 0 16 16" fill="none" xmlns="http://www.w3.org/2000/svg">
<mask id="mask0_102_847" style="mask-type:alpha" maskUnits="userSpaceOnUse" x="0" y="0" width="16" height="16">
<rect width="16" height="16" fill="#DCDCDC"/>
</mask>
<g mask="url(#mask0_102_847)">
<path d="M7.04399 1.46838C6.34012 1.46838 5.76954 2.03898 5.76954 2.74284V3.69867C5.76954 4.0506 6.05484 4.3359 6.40677 4.3359C6.7587 4.3359 7.04399 4.0506 7.04399 3.69867V2.74284H13.4163V9.75232H12.1418C11.7899 9.75232 11.5046 10.0376 11.5046 10.3895C11.5046 10.7415 11.7899 11.0268 12.1418 11.0268H13.4163C14.1201 11.0268 14.6907 10.4562 14.6907 9.75232V2.74284C14.6907 2.03898 14.1201 1.46838 13.4163 1.46838H7.04399Z" fill="black"/>
<path d="M5.76954 7.84064C6.12147 7.84064 6.40677 8.12594 6.40677 8.47787V9.43371H7.36261C7.71454 9.43371 7.99983 9.719 7.99983 10.0709C7.99983 10.4229 7.71454 10.7082 7.36261 10.7082H6.40677V11.664C6.40677 12.0159 6.12147 12.3012 5.76954 12.3012C5.41761 12.3012 5.13232 12.0159 5.13232 11.664V10.7082H4.17648C3.82455 10.7082 3.53925 10.4229 3.53925 10.0709C3.53925 9.719 3.82455 9.43371 4.17648 9.43371H5.13232V8.47787C5.13232 8.12594 5.41761 7.84064 5.76954 7.84064Z" fill="black"/>
<path fill-rule="evenodd" clip-rule="evenodd" d="M2.58341 5.61035C1.87955 5.61035 1.30896 6.18094 1.30896 6.8848V13.2571C1.30896 13.9609 1.87955 14.5315 2.58341 14.5315H8.95567C9.65953 14.5315 10.2301 13.9609 10.2301 13.2571V6.8848C10.2301 6.18094 9.65953 5.61035 8.95567 5.61035H2.58341ZM2.58341 13.2571V6.8848H8.95567V13.2571H2.58341Z" fill="black"/>
</g>
</svg>
