<svg width="16" height="16" viewBox="0 0 16 16" fill="none" xmlns="http://www.w3.org/2000/svg">
<path d="M6.9334 2.33332C6.9334 2.29649 6.96324 2.26665 7.00006 2.26665H13.6667C13.7036 2.26665 13.7334 2.29649 13.7334 2.33332V9.66665C13.7334 9.70348 13.7036 9.73332 13.6667 9.73332H12.3334C12.002 9.73332 11.7334 10.0019 11.7334 10.3333C11.7334 10.6647 12.002 10.9333 12.3334 10.9333H13.6667C14.3663 10.9333 14.9334 10.3662 14.9334 9.66665V2.33332C14.9334 1.63376 14.3663 1.06665 13.6667 1.06665H7.00006C6.30049 1.06665 5.7334 1.63376 5.7334 2.33332V3.33332C5.7334 3.66469 6.00203 3.93332 6.3334 3.93332C6.66477 3.93332 6.9334 3.66469 6.9334 3.33332V2.33332Z" fill="black"/>
<path d="M5.66665 7.73328C5.99802 7.73328 6.26665 8.00191 6.26665 8.33328V9.40002H7.33324C7.66461 9.40002 7.93324 9.66865 7.93324 10C7.93324 10.3314 7.66461 10.6 7.33324 10.6H6.26665V11.6666C6.26665 11.998 5.99802 12.2666 5.66665 12.2666C5.33528 12.2666 5.06665 11.998 5.06665 11.6666V10.6H3.9999C3.66853 10.6 3.3999 10.3314 3.3999 10C3.3999 9.66865 3.66853 9.40002 3.9999 9.40002H5.06665V8.33328C5.06665 8.00191 5.33528 7.73328 5.66665 7.73328Z" fill="black"/>
<path fill-rule="evenodd" clip-rule="evenodd" d="M2.33332 5.40002C1.63376 5.40002 1.06665 5.96713 1.06665 6.66669V13.3334C1.06665 14.0329 1.63376 14.6 2.33332 14.6H8.99998C9.69954 14.6 10.2667 14.0329 10.2667 13.3334V6.66669C10.2667 5.96713 9.69954 5.40002 8.99998 5.40002H2.33332ZM2.26665 6.66669C2.26665 6.62987 2.2965 6.60002 2.33332 6.60002H8.99998C9.0368 6.60002 9.06665 6.62987 9.06665 6.66669V13.3334C9.06665 13.3702 9.0368 13.4 8.99998 13.4H2.33332C2.2965 13.4 2.26665 13.3702 2.26665 13.3334V6.66669Z" fill="black"/>
</svg>
