<svg width="16" height="16" viewBox="0 0 16 16" fill="none" xmlns="http://www.w3.org/2000/svg">
<path d="M3.57494 6.95463C3.9181 6.82118 4.0881 6.43482 3.95465 6.09166C3.8212 5.74851 3.43484 5.57851 3.09168 5.71196L3.57494 6.95463ZM0.671589 9.25227C0.626839 9.61773 0.886826 9.95027 1.25229 9.99502C1.61775 10.0398 1.95029 9.77978 1.99504 9.41432L0.671589 9.25227ZM12.9083 5.71196C12.5651 5.57851 12.1788 5.74851 12.0453 6.09166C11.9119 6.43482 12.0819 6.82118 12.425 6.95463L12.9083 5.71196ZM14.0049 9.41432C14.0497 9.77978 14.3822 10.0398 14.7477 9.99502C15.1131 9.95027 15.3731 9.61773 15.3284 9.25227L14.0049 9.41432ZM6.15744 5.68549C5.79966 5.59853 5.43914 5.81806 5.35217 6.17584C5.26521 6.53361 5.48475 6.89414 5.84252 6.9811L6.15744 5.68549ZM10.1574 6.9811C10.5152 6.89414 10.7347 6.53361 10.6478 6.17584C10.5608 5.81806 10.2003 5.59853 9.84252 5.68549L10.1574 6.9811ZM6.78384 11.9896C7.1463 11.9249 7.38766 11.5786 7.32293 11.2161C7.25821 10.8536 6.91191 10.6123 6.54945 10.677L6.78384 11.9896ZM4.03602 13.1171C3.9166 13.4654 4.10214 13.8445 4.45043 13.9639C4.79872 14.0833 5.17786 13.8978 5.29728 13.5495L4.03602 13.1171ZM9.45051 10.677C9.08805 10.6123 8.74175 10.8536 8.67703 11.2161C8.6123 11.5786 8.85366 11.9249 9.21612 11.9896L9.45051 10.677ZM10.7027 13.5495C10.8221 13.8978 11.2012 14.0833 11.5495 13.9639C11.8978 13.8445 12.0834 13.4654 11.9639 13.1171L10.7027 13.5495ZM3.33331 6.33329C3.09168 5.71196 3.09133 5.71209 3.09098 5.71223C3.09085 5.71228 3.09049 5.71242 3.09023 5.71252C3.08972 5.71272 3.08919 5.71293 3.08862 5.71315C3.0875 5.7136 3.08626 5.71409 3.08492 5.71462C3.08224 5.71569 3.07914 5.71695 3.07562 5.71839C3.06859 5.72127 3.05991 5.7249 3.04968 5.72932C3.02923 5.73815 3.00253 5.75014 2.97042 5.76557C2.90625 5.7964 2.82002 5.84114 2.71837 5.90203C2.5155 6.02357 2.24819 6.2113 1.9721 6.48386C1.41334 7.03546 0.834736 7.91989 0.671589 9.25227L1.99504 9.41432C2.1176 8.41336 2.539 7.7978 2.90881 7.43273C3.097 7.24695 3.27612 7.12218 3.40361 7.04581C3.46715 7.00774 3.51708 6.98217 3.54777 6.96742C3.56309 6.96006 3.57351 6.95545 3.5783 6.95338C3.5807 6.95235 3.58168 6.95195 3.58115 6.95217C3.58089 6.95228 3.58025 6.95254 3.57922 6.95295C3.5787 6.95315 3.57809 6.9534 3.57738 6.95368C3.57702 6.95382 3.57664 6.95397 3.57624 6.95413C3.57603 6.95421 3.57571 6.95433 3.57561 6.95437C3.57528 6.9545 3.57494 6.95463 3.33331 6.33329ZM12.6666 6.33329C12.425 6.95463 12.4247 6.9545 12.4244 6.95437C12.4243 6.95433 12.4239 6.95421 12.4237 6.95413C12.4233 6.95397 12.4229 6.95382 12.4226 6.95368C12.4219 6.9534 12.4213 6.95315 12.4207 6.95295C12.4197 6.95254 12.4191 6.95228 12.4188 6.95217C12.4183 6.95195 12.4193 6.95235 12.4217 6.95338C12.4265 6.95545 12.4369 6.96006 12.4522 6.96742C12.4829 6.98217 12.5328 7.00774 12.5964 7.04581C12.7238 7.12219 12.903 7.24695 13.0912 7.43273C13.461 7.7978 13.8824 8.41336 14.0049 9.41432L15.3284 9.25227C15.1652 7.91989 14.5866 7.03546 14.0279 6.48386C13.7518 6.2113 13.4845 6.02357 13.2816 5.90203C13.1799 5.84113 13.0937 5.7964 13.0295 5.76557C12.9974 5.75014 12.9707 5.73815 12.9503 5.72932C12.94 5.7249 12.9314 5.72127 12.9243 5.71839C12.9208 5.71694 12.9177 5.71569 12.915 5.71462C12.9137 5.71409 12.9125 5.7136 12.9113 5.71315C12.9108 5.71293 12.9102 5.71272 12.9097 5.71252C12.9095 5.71242 12.9091 5.71228 12.909 5.71223C12.9086 5.71209 12.9083 5.71196 12.6666 6.33329ZM5.99998 6.33329C5.84252 6.9811 5.84218 6.98102 5.84185 6.98093C5.84175 6.98091 5.84142 6.98083 5.84121 6.98078C5.8408 6.98068 5.84041 6.98058 5.84004 6.98049C5.83931 6.98031 5.83866 6.98015 5.83811 6.98001C5.837 6.97973 5.83625 6.97953 5.83585 6.97943C5.83506 6.97922 5.83565 6.97937 5.83756 6.97991C5.84139 6.98098 5.85041 6.9836 5.86398 6.988C5.89122 6.99682 5.93622 7.01265 5.99403 7.03738C6.11031 7.08712 6.27378 7.1709 6.44788 7.30255C6.78763 7.55946 7.18407 8.00899 7.34699 8.80096L8.65297 8.5323C8.41589 7.37983 7.81233 6.6627 7.25208 6.23904C6.97618 6.03042 6.71465 5.89544 6.51843 5.8115C6.41999 5.76939 6.33687 5.73964 6.27504 5.71961C6.24409 5.70958 6.21834 5.70193 6.19853 5.69636C6.18862 5.69358 6.18018 5.6913 6.17331 5.68951C6.16987 5.68861 6.16682 5.68783 6.16417 5.68716C6.16285 5.68682 6.16162 5.68652 6.1605 5.68624C6.15994 5.6861 6.1594 5.68597 6.15889 5.68584C6.15864 5.68578 6.15827 5.68569 6.15815 5.68566C6.15779 5.68557 6.15744 5.68549 5.99998 6.33329ZM9.99998 6.33329C9.84252 5.68549 9.84217 5.68557 9.84181 5.68566C9.84169 5.68569 9.84132 5.68578 9.84107 5.68584C9.84056 5.68597 9.84002 5.6861 9.83946 5.68624C9.83834 5.68652 9.83711 5.68682 9.83579 5.68716C9.83314 5.68783 9.83009 5.68861 9.82665 5.68951C9.81978 5.6913 9.81134 5.69358 9.80143 5.69636C9.78162 5.70193 9.75587 5.70958 9.72492 5.71961C9.66309 5.73964 9.57997 5.76939 9.48153 5.8115C9.28531 5.89544 9.02378 6.03042 8.74788 6.23904C8.18763 6.6627 7.58407 7.37983 7.34699 8.5323L8.65297 8.80096C8.81589 8.00899 9.21233 7.55946 9.55208 7.30255C9.72618 7.1709 9.88965 7.08712 10.0059 7.03738C10.0637 7.01265 10.1087 6.99682 10.136 6.988C10.1496 6.9836 10.1586 6.98098 10.1624 6.97991C10.1643 6.97937 10.1649 6.97922 10.1641 6.97943C10.1637 6.97953 10.163 6.97973 10.1619 6.98001C10.1613 6.98015 10.1607 6.98031 10.1599 6.98049C10.1596 6.98058 10.1592 6.98068 10.1587 6.98078C10.1585 6.98083 10.1582 6.98091 10.1581 6.98093C10.1578 6.98102 10.1574 6.9811 9.99998 6.33329ZM6.66665 11.3333C6.54945 10.677 6.54908 10.6771 6.54871 10.6771C6.54857 10.6772 6.54819 10.6772 6.54793 10.6773C6.5474 10.6774 6.54684 10.6775 6.54627 10.6776C6.54512 10.6778 6.54388 10.678 6.54255 10.6783C6.53989 10.6788 6.53688 10.6794 6.53352 10.68C6.52681 10.6813 6.51872 10.683 6.50932 10.685C6.49051 10.6891 6.46642 10.6947 6.43762 10.7022C6.38008 10.7172 6.30333 10.7397 6.21209 10.7727C6.03001 10.8384 5.78725 10.9467 5.52374 11.1211C4.98931 11.4748 4.38862 12.0887 4.03602 13.1171L5.29728 13.5495C5.54468 12.8279 5.94398 12.4418 6.25956 12.233C6.42105 12.1261 6.56578 12.0625 6.66495 12.0267C6.71434 12.0089 6.75165 11.9982 6.77302 11.9927C6.78367 11.9899 6.79024 11.9884 6.79224 11.988C6.79323 11.9878 6.79308 11.9878 6.7917 11.9881C6.79101 11.9882 6.79002 11.9884 6.78871 11.9887C6.78806 11.9888 6.78733 11.9889 6.78652 11.9891C6.78611 11.9892 6.78568 11.9892 6.78524 11.9893C6.78502 11.9894 6.78467 11.9894 6.78455 11.9894C6.7842 11.9895 6.78384 11.9896 6.66665 11.3333ZM9.33331 11.3333C9.21612 11.9896 9.21576 11.9895 9.2154 11.9894C9.21529 11.9894 9.21494 11.9894 9.21472 11.9893C9.21428 11.9892 9.21385 11.9892 9.21344 11.9891C9.21263 11.9889 9.2119 11.9888 9.21125 11.9887C9.20994 11.9884 9.20895 11.9882 9.20826 11.9881C9.20688 11.9878 9.20672 11.9878 9.20772 11.988C9.20972 11.9884 9.21629 11.9899 9.22694 11.9927C9.24831 11.9982 9.28562 12.0089 9.33501 12.0267C9.43417 12.0625 9.57891 12.1261 9.7404 12.233C10.056 12.4418 10.4553 12.8279 10.7027 13.5495L11.9639 13.1171C11.6113 12.0887 11.0106 11.4748 10.4762 11.1211C10.2127 10.9467 9.96995 10.8384 9.78787 10.7727C9.69663 10.7397 9.61988 10.7172 9.56234 10.7022C9.53354 10.6947 9.50945 10.6891 9.49064 10.685C9.48124 10.683 9.47315 10.6813 9.46644 10.68C9.46308 10.6794 9.46007 10.6788 9.45741 10.6783C9.45608 10.678 9.45484 10.6778 9.45369 10.6776C9.45312 10.6775 9.45256 10.6774 9.45203 10.6773C9.45177 10.6772 9.45139 10.6772 9.45125 10.6771C9.45088 10.6771 9.45051 10.677 9.33331 11.3333ZM8.99998 10.3333C8.99998 10.8856 8.55226 11.3333 7.99998 11.3333V12.6666C9.28864 12.6666 10.3333 11.622 10.3333 10.3333H8.99998ZM7.99998 11.3333C7.4477 11.3333 6.99998 10.8856 6.99998 10.3333H5.66665C5.66665 11.622 6.71132 12.6666 7.99998 12.6666V11.3333ZM6.99998 10.3333C6.99998 9.78101 7.4477 9.33329 7.99998 9.33329V7.99996C6.71132 7.99996 5.66665 9.04463 5.66665 10.3333H6.99998ZM7.99998 9.33329C8.55227 9.33329 8.99998 9.78101 8.99998 10.3333H10.3333C10.3333 9.04463 9.28864 7.99996 7.99998 7.99996V9.33329ZM12.6666 4.66663C12.6666 5.40301 12.0697 5.99996 11.3333 5.99996V7.33329C12.8061 7.33329 14 6.13939 14 4.66663H12.6666ZM11.3333 5.99996C10.5969 5.99996 9.99998 5.40301 9.99998 4.66663H8.66665C8.66665 6.13939 9.86055 7.33329 11.3333 7.33329V5.99996ZM9.99998 4.66663C9.99998 3.93025 10.5969 3.33329 11.3333 3.33329V1.99996C9.86055 1.99996 8.66665 3.19387 8.66665 4.66663H9.99998ZM11.3333 3.33329C12.0697 3.33329 12.6666 3.93025 12.6666 4.66663H14C14 3.19387 12.8061 1.99996 11.3333 1.99996V3.33329ZM5.99998 4.66663C5.99998 5.40301 5.40303 5.99996 4.66665 5.99996V7.33329C6.13941 7.33329 7.33331 6.13939 7.33331 4.66663H5.99998ZM4.66665 5.99996C3.93027 5.99996 3.33331 5.40301 3.33331 4.66663H1.99998C1.99998 6.13939 3.19389 7.33329 4.66665 7.33329V5.99996ZM3.33331 4.66663C3.33331 3.93025 3.93027 3.33329 4.66665 3.33329V1.99996C3.19389 1.99996 1.99998 3.19387 1.99998 4.66663H3.33331ZM4.66665 3.33329C5.40303 3.33329 5.99998 3.93025 5.99998 4.66663H7.33331C7.33331 3.19387 6.13941 1.99996 4.66665 1.99996V3.33329Z" fill="black"/>
</svg>
