<svg width="16" height="17" viewBox="0 0 16 17" fill="none" xmlns="http://www.w3.org/2000/svg">
<path d="M3.57494 7.00309C3.9181 6.86964 4.0881 6.48328 3.95465 6.14012C3.8212 5.79697 3.43484 5.62697 3.09168 5.76042L3.57494 7.00309ZM0.671589 9.30073C0.626839 9.66619 0.886826 9.99873 1.25229 10.0435C1.61775 10.0882 1.95029 9.82824 1.99504 9.46278L0.671589 9.30073ZM12.9083 5.76042C12.5651 5.62697 12.1788 5.79697 12.0453 6.14013C11.9119 6.48328 12.0819 6.86964 12.425 7.00309L12.9083 5.76042ZM14.0049 9.46278C14.0497 9.82824 14.3822 10.0882 14.7477 10.0435C15.1131 9.99873 15.3731 9.66619 15.3284 9.30073L14.0049 9.46278ZM6.15744 5.73395C5.79966 5.64699 5.43914 5.86652 5.35217 6.2243C5.26521 6.58207 5.48475 6.9426 5.84252 7.02956L6.15744 5.73395ZM10.1574 7.02956C10.5152 6.9426 10.7347 6.58207 10.6478 6.2243C10.5608 5.86652 10.2003 5.64699 9.84252 5.73395L10.1574 7.02956ZM6.78384 12.038C7.1463 11.9733 7.38766 11.627 7.32293 11.2646C7.25821 10.9021 6.91191 10.6607 6.54945 10.7255L6.78384 12.038ZM4.03602 13.1655C3.9166 13.5138 4.10214 13.893 4.45043 14.0124C4.79872 14.1318 5.17786 13.9463 5.29728 13.598L4.03602 13.1655ZM9.45051 10.7255C9.08805 10.6607 8.74175 10.9021 8.67703 11.2646C8.6123 11.627 8.85366 11.9733 9.21612 12.038L9.45051 10.7255ZM10.7027 13.598C10.8221 13.9463 11.2012 14.1318 11.5495 14.0124C11.8978 13.893 12.0834 13.5138 11.9639 13.1655L10.7027 13.598ZM3.33331 6.38175C3.09168 5.76042 3.09133 5.76055 3.09098 5.76069C3.09085 5.76074 3.09049 5.76088 3.09023 5.76098C3.08972 5.76118 3.08919 5.76139 3.08862 5.76162C3.0875 5.76206 3.08626 5.76255 3.08492 5.76308C3.08224 5.76415 3.07914 5.76541 3.07562 5.76685C3.06859 5.76973 3.05991 5.77336 3.04968 5.77778C3.02923 5.78661 3.00253 5.79861 2.97042 5.81403C2.90625 5.84486 2.82002 5.8896 2.71837 5.95049C2.5155 6.07203 2.24819 6.25977 1.9721 6.53232C1.41334 7.08392 0.834736 7.96835 0.671589 9.30073L1.99504 9.46278C2.1176 8.46183 2.539 7.84626 2.90881 7.48119C3.097 7.29541 3.27612 7.17065 3.40361 7.09427C3.46715 7.0562 3.51708 7.03063 3.54777 7.01588C3.56309 7.00852 3.57351 7.00392 3.5783 7.00184C3.5807 7.00081 3.58168 7.00041 3.58115 7.00063C3.58089 7.00074 3.58025 7.001 3.57922 7.00141C3.5787 7.00162 3.57809 7.00186 3.57738 7.00214C3.57702 7.00228 3.57664 7.00243 3.57623 7.00259C3.57603 7.00267 3.57571 7.00279 3.57561 7.00283C3.57528 7.00296 3.57494 7.00309 3.33331 6.38175ZM12.6666 6.38175C12.425 7.00309 12.4247 7.00296 12.4244 7.00283C12.4243 7.00279 12.4239 7.00267 12.4237 7.00259C12.4233 7.00243 12.4229 7.00228 12.4226 7.00214C12.4219 7.00186 12.4213 7.00162 12.4207 7.00141C12.4197 7.001 12.4191 7.00074 12.4188 7.00063C12.4183 7.00041 12.4193 7.00081 12.4217 7.00184C12.4265 7.00392 12.4369 7.00852 12.4522 7.01588C12.4829 7.03063 12.5328 7.05621 12.5964 7.09427C12.7238 7.17065 12.903 7.29541 13.0912 7.48119C13.461 7.84626 13.8824 8.46183 14.0049 9.46278L15.3284 9.30073C15.1652 7.96835 14.5866 7.08392 14.0279 6.53232C13.7518 6.25977 13.4845 6.07203 13.2816 5.95049C13.1799 5.8896 13.0937 5.84486 13.0295 5.81403C12.9974 5.79861 12.9707 5.78661 12.9503 5.77778C12.94 5.77336 12.9314 5.76973 12.9243 5.76685C12.9208 5.76541 12.9177 5.76415 12.915 5.76308C12.9137 5.76255 12.9125 5.76206 12.9113 5.76161C12.9108 5.76139 12.9102 5.76118 12.9097 5.76098C12.9095 5.76088 12.9091 5.76074 12.909 5.76069C12.9086 5.76055 12.9083 5.76042 12.6666 6.38175ZM5.99998 6.38175C5.84252 7.02956 5.84218 7.02948 5.84185 7.0294C5.84175 7.02937 5.84142 7.02929 5.84121 7.02924C5.8408 7.02914 5.84041 7.02904 5.84004 7.02895C5.83931 7.02877 5.83866 7.02861 5.83811 7.02847C5.837 7.02819 5.83625 7.028 5.83585 7.02789C5.83506 7.02768 5.83565 7.02783 5.83756 7.02837C5.84139 7.02944 5.85041 7.03206 5.86398 7.03646C5.89122 7.04528 5.93622 7.06111 5.99403 7.08584C6.11031 7.13558 6.27378 7.21936 6.44788 7.35101C6.78763 7.60792 7.18407 8.05745 7.34699 8.84942L8.65297 8.58076C8.41589 7.42829 7.81233 6.71116 7.25208 6.28751C6.97618 6.07888 6.71465 5.9439 6.51843 5.85996C6.41999 5.81785 6.33687 5.78811 6.27504 5.76807C6.24409 5.75804 6.21834 5.7504 6.19853 5.74483C6.18862 5.74204 6.18018 5.73977 6.17331 5.73797C6.16987 5.73707 6.16682 5.73629 6.16417 5.73562C6.16285 5.73529 6.16163 5.73498 6.1605 5.7347C6.15994 5.73456 6.1594 5.73443 6.15889 5.73431C6.15864 5.73424 6.15827 5.73415 6.15815 5.73412C6.15779 5.73404 6.15744 5.73395 5.99998 6.38175ZM9.99998 6.38175C9.84252 5.73395 9.84217 5.73404 9.84181 5.73412C9.84169 5.73415 9.84132 5.73424 9.84107 5.73431C9.84056 5.73443 9.84002 5.73456 9.83946 5.7347C9.83833 5.73498 9.83711 5.73529 9.83579 5.73562C9.83314 5.73629 9.83009 5.73707 9.82665 5.73797C9.81978 5.73977 9.81134 5.74204 9.80143 5.74483C9.78162 5.7504 9.75587 5.75804 9.72492 5.76807C9.66309 5.78811 9.57997 5.81785 9.48153 5.85996C9.28531 5.9439 9.02378 6.07888 8.74788 6.28751C8.18763 6.71116 7.58407 7.42829 7.34699 8.58076L8.65297 8.84942C8.81589 8.05745 9.21233 7.60792 9.55208 7.35101C9.72618 7.21936 9.88965 7.13558 10.0059 7.08584C10.0637 7.06111 10.1087 7.04528 10.136 7.03646C10.1496 7.03206 10.1586 7.02944 10.1624 7.02837C10.1643 7.02783 10.1649 7.02768 10.1641 7.02789C10.1637 7.028 10.163 7.02819 10.1619 7.02847C10.1613 7.02861 10.1607 7.02877 10.1599 7.02895C10.1596 7.02904 10.1592 7.02914 10.1587 7.02924C10.1585 7.02929 10.1582 7.02937 10.1581 7.0294C10.1578 7.02948 10.1574 7.02956 9.99998 6.38175ZM6.66665 11.3818C6.54945 10.7255 6.54908 10.7255 6.54871 10.7256C6.54857 10.7256 6.54819 10.7257 6.54793 10.7257C6.5474 10.7258 6.54684 10.7259 6.54627 10.726C6.54512 10.7263 6.54388 10.7265 6.54255 10.7267C6.53989 10.7272 6.53688 10.7278 6.53352 10.7285C6.52681 10.7298 6.51872 10.7315 6.50932 10.7335C6.49051 10.7376 6.46642 10.7432 6.43762 10.7507C6.38008 10.7656 6.30333 10.7882 6.21209 10.8211C6.03001 10.8869 5.78725 10.9952 5.52373 11.1695C4.98931 11.5232 4.38862 12.1371 4.03602 13.1655L5.29728 13.598C5.54468 12.8764 5.94398 12.4903 6.25956 12.2815C6.42105 12.1746 6.56578 12.111 6.66495 12.0752C6.71434 12.0574 6.75165 12.0467 6.77301 12.0411C6.78367 12.0384 6.79024 12.0369 6.79224 12.0365C6.79323 12.0363 6.79308 12.0363 6.7917 12.0366C6.79101 12.0367 6.79002 12.0369 6.78871 12.0371C6.78806 12.0373 6.78733 12.0374 6.78652 12.0376C6.78611 12.0376 6.78568 12.0377 6.78524 12.0378C6.78502 12.0378 6.78467 12.0379 6.78455 12.0379C6.7842 12.038 6.78384 12.038 6.66665 11.3818ZM9.33331 11.3818C9.21612 12.038 9.21576 12.038 9.21541 12.0379C9.21529 12.0379 9.21494 12.0378 9.21472 12.0378C9.21428 12.0377 9.21385 12.0376 9.21344 12.0376C9.21263 12.0374 9.2119 12.0373 9.21125 12.0371C9.20994 12.0369 9.20895 12.0367 9.20826 12.0366C9.20688 12.0363 9.20672 12.0363 9.20772 12.0365C9.20972 12.0369 9.21629 12.0384 9.22694 12.0411C9.24831 12.0467 9.28562 12.0574 9.33501 12.0752C9.43417 12.111 9.57891 12.1746 9.7404 12.2815C10.056 12.4903 10.4553 12.8764 10.7027 13.598L11.9639 13.1655C11.6113 12.1371 11.0106 11.5232 10.4762 11.1695C10.2127 10.9952 9.96995 10.8869 9.78787 10.8211C9.69663 10.7882 9.61988 10.7656 9.56234 10.7507C9.53354 10.7432 9.50944 10.7376 9.49064 10.7335C9.48124 10.7315 9.47315 10.7298 9.46644 10.7285C9.46308 10.7278 9.46007 10.7272 9.45741 10.7267C9.45608 10.7265 9.45484 10.7263 9.45369 10.726C9.45312 10.7259 9.45256 10.7258 9.45203 10.7257C9.45177 10.7257 9.45139 10.7256 9.45125 10.7256C9.45088 10.7255 9.45051 10.7255 9.33331 11.3818ZM8.99998 10.3818C8.99998 10.934 8.55226 11.3818 7.99998 11.3818V12.7151C9.28864 12.7151 10.3333 11.6704 10.3333 10.3818H8.99998ZM7.99998 11.3818C7.4477 11.3818 6.99998 10.934 6.99998 10.3818H5.66665C5.66665 11.6704 6.71132 12.7151 7.99998 12.7151V11.3818ZM6.99998 10.3818C6.99998 9.82947 7.4477 9.38176 7.99998 9.38176V8.04842C6.71132 8.04842 5.66665 9.09309 5.66665 10.3818H6.99998ZM7.99998 9.38176C8.55226 9.38176 8.99998 9.82947 8.99998 10.3818H10.3333C10.3333 9.09309 9.28864 8.04842 7.99998 8.04842V9.38176ZM12.6666 4.71509C12.6666 5.45147 12.0697 6.04842 11.3333 6.04842V7.38175C12.8061 7.38175 14 6.18785 14 4.71509H12.6666ZM11.3333 6.04842C10.5969 6.04842 9.99998 5.45147 9.99998 4.71509H8.66665C8.66665 6.18785 9.86055 7.38175 11.3333 7.38175V6.04842ZM9.99998 4.71509C9.99998 3.97871 10.5969 3.38175 11.3333 3.38175V2.04842C9.86055 2.04842 8.66665 3.24233 8.66665 4.71509H9.99998ZM11.3333 3.38175C12.0697 3.38175 12.6666 3.97871 12.6666 4.71509H14C14 3.24233 12.8061 2.04842 11.3333 2.04842V3.38175ZM5.99998 4.71509C5.99998 5.45147 5.40303 6.04842 4.66665 6.04842V7.38175C6.13941 7.38175 7.33331 6.18785 7.33331 4.71509H5.99998ZM4.66665 6.04842C3.93027 6.04842 3.33331 5.45147 3.33331 4.71509H1.99998C1.99998 6.18785 3.19389 7.38175 4.66665 7.38175V6.04842ZM3.33331 4.71509C3.33331 3.97871 3.93027 3.38175 4.66665 3.38175V2.04842C3.19389 2.04842 1.99998 3.24233 1.99998 4.71509H3.33331ZM4.66665 3.38175C5.40303 3.38175 5.99998 3.97871 5.99998 4.71509H7.33331C7.33331 3.24233 6.13941 2.04842 4.66665 2.04842V3.38175Z" fill="black"/>
</svg>
