<svg width="16" height="16" viewBox="0 0 16 16" fill="none" xmlns="http://www.w3.org/2000/svg">
<path fill-rule="evenodd" clip-rule="evenodd" d="M8.00002 5.66663C6.71136 5.66663 5.66669 6.7113 5.66669 7.99996C5.66669 9.28862 6.71136 10.3333 8.00002 10.3333C9.28868 10.3333 10.3334 9.28862 10.3334 7.99996C10.3334 6.7113 9.28868 5.66663 8.00002 5.66663ZM7.00002 7.99996C7.00002 7.44768 7.44774 6.99996 8.00002 6.99996C8.5523 6.99996 9.00002 7.44768 9.00002 7.99996C9.00002 8.55224 8.5523 8.99996 8.00002 8.99996C7.44774 8.99996 7.00002 8.55224 7.00002 7.99996Z" fill="black"/>
<path fill-rule="evenodd" clip-rule="evenodd" d="M4.66675 1.66663C4.43051 1.66663 4.21191 1.79165 4.09213 1.99527L0.758734 7.66194C0.636005 7.87058 0.636005 8.12934 0.758734 8.33798L4.09213 14.0046C4.21191 14.2083 4.43051 14.3333 4.66675 14.3333H11.3335C11.5697 14.3333 11.7883 14.2083 11.9081 14.0046L15.2413 8.33797C15.364 8.12934 15.364 7.87058 15.2413 7.66195L11.9081 1.99529C11.7883 1.79166 11.5697 1.66663 11.3335 1.66663H4.66675ZM2.10681 7.99996L5.04805 2.99996H10.9522L13.8932 7.99996L10.9522 13H5.04805L2.10681 7.99996Z" fill="black"/>
</svg>
