<svg width="17" height="17" viewBox="0 0 17 17" fill="none" xmlns="http://www.w3.org/2000/svg">
<mask id="mask0_102_863" style="mask-type:alpha" maskUnits="userSpaceOnUse" x="0" y="0" width="17" height="17">
<rect x="0.506714" y="0.497314" width="16" height="16" fill="#DCDCDC"/>
</mask>
<g mask="url(#mask0_102_863)">
<path d="M7.23235 12.0024C7.23235 11.6504 7.51764 11.3652 7.86957 11.3652H9.14402C9.49595 11.3652 9.78125 11.6504 9.78125 12.0024C9.78125 12.3543 9.49595 12.6396 9.14402 12.6396H7.86957C7.51764 12.6396 7.23235 12.3543 7.23235 12.0024Z" fill="black"/>
<path fill-rule="evenodd" clip-rule="evenodd" d="M5.32067 2.44399C5.32067 2.09206 5.60597 1.80676 5.9579 1.80676H11.0557C11.4076 1.80676 11.6929 2.09206 11.6929 2.44399V4.35567H14.2418C14.9457 4.35567 15.5163 4.92625 15.5163 5.63012V10.7279C15.5163 11.4318 14.9457 12.0024 14.2418 12.0024H11.6929V14.5513C11.6929 14.9032 11.4076 15.1885 11.0557 15.1885H5.9579C5.60597 15.1885 5.32067 14.9032 5.32067 14.5513V12.0024H2.77177C2.06791 12.0024 1.49731 11.4318 1.49731 10.7279V5.63012C1.49731 4.92624 2.06791 4.35567 2.77177 4.35567H5.32067V2.44399ZM5.32067 10.0907H5.00206C4.65013 10.0907 4.36483 9.8054 4.36483 9.45347C4.36483 9.10154 4.65013 8.81625 5.00206 8.81625H12.0115C12.3635 8.81625 12.6488 9.10154 12.6488 9.45347C12.6488 9.8054 12.3635 10.0907 12.0115 10.0907H11.6929V10.7279H14.2418V5.63012H12.9674V6.90457C12.9674 7.2565 12.6821 7.5418 12.3302 7.5418H4.68344C4.33151 7.5418 4.04622 7.2565 4.04622 6.90457V5.63012H2.77177V10.7279H5.32067V10.0907ZM6.59512 10.0907V13.9141H10.4185V10.0907H6.59512ZM10.4185 4.99289C10.4185 5.34482 10.7038 5.63012 11.0557 5.63012H11.6929V6.26734H5.32067V5.63012H5.9579C6.30983 5.63012 6.59512 5.34482 6.59512 4.99289V3.08121H10.4185V4.99289Z" fill="black"/>
</g>
</svg>
