<svg width="16" height="16" viewBox="0 0 16 16" fill="none" xmlns="http://www.w3.org/2000/svg">
<mask id="mask0_102_863" style="mask-type:alpha" maskUnits="userSpaceOnUse" x="0" y="0" width="16" height="16">
<rect width="16" height="16" fill="#DCDCDC"/>
</mask>
<g mask="url(#mask0_102_863)">
<path d="M6.72563 11.5051C6.72563 11.1531 7.01093 10.8678 7.36286 10.8678H8.63731C8.98924 10.8678 9.27454 11.1531 9.27454 11.5051C9.27454 11.857 8.98924 12.1423 8.63731 12.1423H7.36286C7.01093 12.1423 6.72563 11.857 6.72563 11.5051Z" fill="black"/>
<path fill-rule="evenodd" clip-rule="evenodd" d="M4.81396 1.94667C4.81396 1.59474 5.09925 1.30945 5.45118 1.30945H10.549C10.9009 1.30945 11.1862 1.59474 11.1862 1.94667V3.85835H13.7351C14.439 3.85835 15.0096 4.42893 15.0096 5.1328V10.2306C15.0096 10.9345 14.439 11.5051 13.7351 11.5051H11.1862V14.054C11.1862 14.4059 10.9009 14.6912 10.549 14.6912H5.45118C5.09925 14.6912 4.81396 14.4059 4.81396 14.054V11.5051H2.26505C1.5612 11.5051 0.990601 10.9345 0.990601 10.2306V5.1328C0.990601 4.42893 1.5612 3.85835 2.26505 3.85835H4.81396V1.94667ZM4.81396 9.59339H4.49534C4.14341 9.59339 3.85812 9.30809 3.85812 8.95616C3.85812 8.60423 4.14341 8.31893 4.49534 8.31893H11.5048C11.8568 8.31893 12.1421 8.60423 12.1421 8.95616C12.1421 9.30809 11.8568 9.59339 11.5048 9.59339H11.1862V10.2306H13.7351V5.1328H12.4607V6.40726C12.4607 6.75919 12.1754 7.04448 11.8234 7.04448H4.17673C3.8248 7.04448 3.5395 6.75919 3.5395 6.40726V5.1328H2.26505V10.2306H4.81396V9.59339ZM6.08841 9.59339V13.4167H9.91176V9.59339H6.08841ZM9.91176 4.49558C9.91176 4.84751 10.1971 5.1328 10.549 5.1328H11.1862V5.77003H4.81396V5.1328H5.45118C5.80311 5.1328 6.08841 4.84751 6.08841 4.49558V2.5839H9.91176V4.49558Z" fill="black"/>
</g>
</svg>
