<svg width="16" height="16" viewBox="0 0 16 16" fill="none" xmlns="http://www.w3.org/2000/svg">
<path d="M6.75635 11.5388C6.75635 11.2075 7.02498 10.9388 7.35635 10.9388H8.64321C8.97458 10.9388 9.24321 11.2075 9.24321 11.5388C9.24321 11.8702 8.97458 12.1388 8.64321 12.1388H7.35635C7.02498 12.1388 6.75635 11.8702 6.75635 11.5388Z" fill="black"/>
<path fill-rule="evenodd" clip-rule="evenodd" d="M4.82617 1.88735C4.82617 1.55598 5.0948 1.28735 5.42617 1.28735H10.5736C10.905 1.28735 11.1736 1.55598 11.1736 1.88735V3.86121H13.791C14.4778 3.86121 15.0345 4.4179 15.0345 5.10464V10.2521C15.0345 10.9388 14.4778 11.4955 13.791 11.4955H11.1736V14.1126C11.1736 14.4439 10.905 14.7126 10.5736 14.7126H5.42617C5.0948 14.7126 4.82617 14.4439 4.82617 14.1126V11.4955H2.20901C1.52228 11.4955 0.965576 10.9388 0.965576 10.2521V5.10464C0.965576 4.41789 1.52228 3.86121 2.20901 3.86121H4.82617V1.88735ZM4.82617 10.2955V9.60855C4.82617 9.59394 4.82669 9.57946 4.82772 9.56511H4.46108C4.12971 9.56511 3.86108 9.29648 3.86108 8.96511C3.86108 8.63374 4.12971 8.36511 4.46108 8.36511H11.5388C11.8702 8.36511 12.1388 8.63374 12.1388 8.96511C12.1388 9.29648 11.8702 9.56511 11.5388 9.56511H11.1721C11.1731 9.57946 11.1736 9.59394 11.1736 9.60855V10.2955H13.791C13.815 10.2955 13.8345 10.2761 13.8345 10.2521V5.10464C13.8345 5.08064 13.815 5.06121 13.791 5.06121H12.4605V6.3915C12.4605 6.72287 12.1918 6.9915 11.8605 6.9915H4.13931C3.80794 6.9915 3.53931 6.72287 3.53931 6.3915V5.06121H2.20901C2.18501 5.06121 2.16558 5.08065 2.16558 5.10464V10.2521C2.16558 10.2761 2.18501 10.2955 2.20901 10.2955H4.82617ZM9.97516 9.56511H6.02462C6.02565 9.57946 6.02617 9.59394 6.02617 9.60855V13.5126H9.97362V9.60855C9.97362 9.59394 9.97414 9.57946 9.97516 9.56511ZM9.97362 4.46108C9.97362 4.69542 10.108 4.89838 10.3038 4.99715C10.385 5.03813 10.4767 5.06121 10.5739 5.06121H11.2605V5.7915H4.73931V5.06121H5.42616C5.73749 5.06121 5.99344 4.82409 6.02326 4.5206C6.02518 4.50102 6.02617 4.48116 6.02617 4.46108V2.48735H9.97362V4.46108Z" fill="black"/>
</svg>
