<svg width="16" height="16" viewBox="0 0 16 16" fill="none" xmlns="http://www.w3.org/2000/svg">
<path d="M4.20039 8.06641C3.86902 8.06641 3.60039 8.33504 3.60039 8.66641C3.60039 8.99778 3.86902 9.26641 4.20039 9.26641H5.20039C5.53176 9.26641 5.80039 8.99778 5.80039 8.66641C5.80039 8.33504 5.53176 8.06641 5.20039 8.06641H4.20039Z" fill="black"/>
<path fill-rule="evenodd" clip-rule="evenodd" d="M13.1297 3.19844C13.1297 2.20418 12.3236 1.39824 11.3293 1.39844L4.66878 1.39977C3.67481 1.39997 2.86914 2.2058 2.86914 3.19977V5.49756C2.03331 5.65308 1.4005 6.38619 1.40049 7.26709L1.40039 12.7996C1.40037 13.7937 2.20626 14.5997 3.20039 14.5997L6.62542 14.5997C6.63896 14.6006 6.65263 14.601 6.66641 14.601C6.68018 14.601 6.69385 14.6006 6.70739 14.5997L11.6256 14.5997C11.6391 14.6006 11.6527 14.601 11.6664 14.601C11.6801 14.601 11.6937 14.6006 11.7072 14.5997L12.7996 14.5997C13.7937 14.5997 14.5996 13.7938 14.5996 12.7997V7.26641C14.5996 6.38503 13.9662 5.65161 13.1297 5.4966V3.19844ZM11.0664 13.3997L7.26641 13.3997V12.3344C7.26641 12.1135 7.44549 11.9344 7.66641 11.9344H10.6664C10.8873 11.9344 11.0664 12.1135 11.0664 12.3344V13.3997ZM12.2664 12.3344V13.3997L12.7996 13.3997C13.131 13.3997 13.3996 13.1311 13.3996 12.7997V7.26641C13.3996 6.93502 13.131 6.66638 12.7996 6.66641L3.20044 6.66712C2.86909 6.66715 2.60049 6.93576 2.60049 7.26711L2.60039 12.7996C2.60038 13.131 2.86901 13.3997 3.20039 13.3997L6.06641 13.3997V12.3344C6.06641 11.4507 6.78275 10.7344 7.66641 10.7344H10.6664C11.5501 10.7344 12.2664 11.4507 12.2664 12.3344ZM11.9297 5.46647V3.19844C11.9297 2.86702 11.661 2.59837 11.3296 2.59844L4.66902 2.59977C4.3377 2.59984 4.06914 2.86845 4.06914 3.19977V5.46706L11.9297 5.46647Z" fill="black"/>
</svg>
