<svg width="17" height="17" viewBox="0 0 17 17" fill="none" xmlns="http://www.w3.org/2000/svg">
<mask id="mask0_102_867" style="mask-type:alpha" maskUnits="userSpaceOnUse" x="0" y="0" width="17" height="17">
<rect x="0.506409" y="0.497314" width="16" height="16" fill="#DCDCDC"/>
</mask>
<g mask="url(#mask0_102_867)">
<path fill-rule="evenodd" clip-rule="evenodd" d="M2.4527 2.93732C2.4527 2.23346 3.02329 1.66287 3.72715 1.66287H10.418C10.5987 1.66287 10.7708 1.73954 10.8917 1.87381L13.7575 5.05812C13.8602 5.17124 13.9228 5.32143 13.9228 5.48622V8.35374C13.9228 8.70567 13.6375 8.99096 13.2855 8.99096C12.9336 8.99096 12.6483 8.70567 12.6483 8.35374V6.12345H10.0994C9.74748 6.12345 9.46218 5.83815 9.46218 5.48622V2.93732H3.72715L3.72715 14.0574H7.5505C7.90243 14.0574 8.18773 14.3427 8.18773 14.6946C8.18773 15.0466 7.90243 15.3319 7.5505 15.3319H3.72715C3.0233 15.3319 2.4527 14.7613 2.4527 14.0574L2.4527 2.93732ZM10.7366 3.60666V4.849H11.8547L10.7366 3.60666Z" fill="black"/>
<path fill-rule="evenodd" clip-rule="evenodd" d="M13.0989 9.78348L14.3734 11.0579C14.6222 11.3068 14.6222 11.7103 14.3734 11.9591L11.1872 15.1452C11.0677 15.2647 10.9056 15.3319 10.7366 15.3319H9.46218C9.11025 15.3319 8.82496 15.0466 8.82496 14.6946V13.4202C8.82496 13.2512 8.89209 13.0891 9.0116 12.9696L12.1977 9.78348C12.4466 9.53462 12.85 9.53462 13.0989 9.78348ZM10.0994 13.6841V14.0574H10.4727L13.0216 11.5085L12.6483 11.1352L10.0994 13.6841Z" fill="black"/>
</g>
</svg>
