<svg width="16" height="16" viewBox="0 0 16 16" fill="none" xmlns="http://www.w3.org/2000/svg">
<mask id="mask0_102_867" style="mask-type:alpha" maskUnits="userSpaceOnUse" x="0" y="0" width="16" height="16">
<rect width="16" height="16" fill="#DCDCDC"/>
</mask>
<g mask="url(#mask0_102_867)">
<path fill-rule="evenodd" clip-rule="evenodd" d="M1.94629 2.44C1.94629 1.73614 2.51688 1.16555 3.22074 1.16555H9.91161C10.0923 1.16555 10.2644 1.24222 10.3853 1.3765L13.2511 4.5608C13.3538 4.67393 13.4164 4.82411 13.4164 4.98891V7.85642C13.4164 8.20835 13.1311 8.49365 12.7791 8.49365C12.4272 8.49365 12.1419 8.20835 12.1419 7.85642V5.62613H9.593C9.24107 5.62613 8.95577 5.34084 8.95577 4.98891V2.44H3.22074L3.22074 13.5601H7.0441C7.39603 13.5601 7.68132 13.8454 7.68132 14.1973C7.68132 14.5493 7.39603 14.8346 7.0441 14.8346H3.22074C2.51689 14.8346 1.94629 14.264 1.94629 13.5601L1.94629 2.44ZM10.2302 3.10935V4.35168H11.3483L10.2302 3.10935Z" fill="black"/>
<path fill-rule="evenodd" clip-rule="evenodd" d="M12.5925 9.28616L13.8669 10.5606C14.1158 10.8095 14.1158 11.2129 13.8669 11.4618L10.6808 14.6479C10.5613 14.7674 10.3992 14.8346 10.2302 14.8346H8.95577C8.60384 14.8346 8.31855 14.5493 8.31855 14.1973V12.9229C8.31855 12.7539 8.38568 12.5918 8.50519 12.4723L11.6913 9.28616C11.9402 9.03731 12.3436 9.03731 12.5925 9.28616ZM9.593 13.1868V13.5601H9.96628L12.5152 11.0112L12.1419 10.6379L9.593 13.1868Z" fill="black"/>
</g>
</svg>
