<svg width="16" height="16" viewBox="0 0 16 16" fill="none" xmlns="http://www.w3.org/2000/svg">
<mask id="mask0_102_887" style="mask-type:alpha" maskUnits="userSpaceOnUse" x="0" y="0" width="16" height="16">
<rect width="16" height="16" fill="#DCDCDC"/>
</mask>
<g mask="url(#mask0_102_887)">
<path d="M7.99976 1.62781C6.19952 1.62781 4.57275 2.37516 3.41466 3.57483C3.17023 3.82804 3.17735 4.23144 3.43055 4.47587C3.68375 4.72029 4.08716 4.71318 4.33158 4.45998C5.25945 3.49879 6.55939 2.90226 7.99976 2.90226C10.8152 2.90226 13.0976 5.18463 13.0976 8.00007C13.0976 8.352 13.3829 8.63729 13.7348 8.63729C14.0867 8.63729 14.372 8.352 14.372 8.00007V2.90226C14.372 2.55033 14.0867 2.26503 13.7348 2.26503C13.3829 2.26503 13.0976 2.55033 13.0976 2.90226V4.1761C11.935 2.62869 10.0843 1.62781 7.99976 1.62781Z" fill="black"/>
<path d="M2.90195 8.00007C2.90195 7.64814 2.61666 7.36284 2.26473 7.36284C1.9128 7.36284 1.6275 7.64814 1.6275 8.00007V13.0979C1.6275 13.4498 1.9128 13.7351 2.26473 13.7351C2.61666 13.7351 2.90195 13.4498 2.90195 13.0979V11.824C4.06455 13.3714 5.91527 14.3723 7.99976 14.3723C9.71846 14.3723 11.2794 13.6911 12.425 12.5852C12.6782 12.3408 12.6853 11.9373 12.4409 11.6841C12.1965 11.4309 11.7931 11.4238 11.5399 11.6682C10.6223 12.554 9.37518 13.0979 7.99976 13.0979C5.18433 13.0979 2.90195 10.8155 2.90195 8.00007Z" fill="black"/>
</g>
</svg>
