<svg width="17" height="17" viewBox="0 0 17 17" fill="none" xmlns="http://www.w3.org/2000/svg">
<mask id="mask0_102_887" style="mask-type:alpha" maskUnits="userSpaceOnUse" x="0" y="0" width="17" height="17">
<rect x="0.506592" y="0.497314" width="16" height="16" fill="#DCDCDC"/>
</mask>
<g mask="url(#mask0_102_887)">
<path d="M8.50635 2.12512C6.70611 2.12512 5.07934 2.87248 3.92125 4.07215C3.67682 4.32535 3.68394 4.72876 3.93714 4.97318C4.19034 5.21761 4.59375 5.21049 4.83817 4.95729C5.76604 3.9961 7.06598 3.39957 8.50635 3.39957C11.3218 3.39957 13.6042 5.68195 13.6042 8.49738C13.6042 8.84931 13.8895 9.13461 14.2414 9.13461C14.5933 9.13461 14.8786 8.84931 14.8786 8.49738V3.39957C14.8786 3.04764 14.5933 2.76235 14.2414 2.76235C13.8895 2.76235 13.6042 3.04764 13.6042 3.39957V4.67341C12.4416 3.12601 10.5908 2.12512 8.50635 2.12512Z" fill="black"/>
<path d="M3.40855 8.49738C3.40855 8.14545 3.12325 7.86016 2.77132 7.86016C2.41939 7.86016 2.13409 8.14545 2.13409 8.49738V13.5952C2.13409 13.9471 2.41939 14.2324 2.77132 14.2324C3.12325 14.2324 3.40855 13.9471 3.40855 13.5952V12.3214C4.57114 13.8688 6.42186 14.8696 8.50635 14.8696C10.2251 14.8696 11.786 14.1884 12.9316 13.0825C13.1848 12.8381 13.1919 12.4347 12.9475 12.1815C12.7031 11.9283 12.2997 11.9211 12.0464 12.1656C11.1289 13.0513 9.88177 13.5952 8.50635 13.5952C5.69092 13.5952 3.40855 11.3128 3.40855 8.49738Z" fill="black"/>
</g>
</svg>
