<svg width="17" height="17" viewBox="0 0 17 17" fill="none" xmlns="http://www.w3.org/2000/svg">
<mask id="mask0_102_879" style="mask-type:alpha" maskUnits="userSpaceOnUse" x="0" y="0" width="17" height="17">
<rect x="0.506409" y="0.497314" width="16" height="16" fill="#DCDCDC"/>
</mask>
<g mask="url(#mask0_102_879)">
<path d="M4.68306 9.13461C4.68306 8.78268 4.96835 8.49738 5.32028 8.49738H11.6925C12.0445 8.49738 12.3298 8.78268 12.3298 9.13461C12.3298 9.48654 12.0445 9.77183 11.6925 9.77183H5.32028C4.96835 9.77183 4.68306 9.48654 4.68306 9.13461Z" fill="black"/>
<path d="M5.32028 11.0463C4.96835 11.0463 4.68306 11.3316 4.68306 11.6835C4.68306 12.0354 4.96835 12.3207 5.32028 12.3207H8.50906C8.86099 12.3207 9.14629 12.0354 9.14629 11.6835C9.14629 11.3316 8.86099 11.0463 8.50906 11.0463H5.32028Z" fill="black"/>
<path fill-rule="evenodd" clip-rule="evenodd" d="M12.2182 2.29766L14.6763 4.59266C14.8054 4.71317 14.8787 4.88184 14.8787 5.05843V13.2766C14.8787 14.1564 14.1654 14.8696 13.2856 14.8696H3.72722C2.8474 14.8696 2.13416 14.1564 2.13416 13.2766V3.71819C2.13416 2.83836 2.8474 2.12512 3.72722 2.12512H11.7822C11.9509 2.12512 12.1042 2.19066 12.2182 2.29766ZM3.72722 3.39957C3.55126 3.39957 3.40861 3.54222 3.40861 3.71819V13.2766C3.40861 13.4525 3.55125 13.5952 3.72722 13.5952H13.2856C13.4616 13.5952 13.6042 13.4526 13.6042 13.2766V5.33528L11.531 3.39957H9.14629V5.31125C9.14629 5.66318 8.86099 5.94848 8.50906 5.94848H5.32293C4.971 5.94848 4.6857 5.66318 4.6857 5.31125V3.39957H3.72722ZM5.96016 3.39957V4.67403H7.87183V3.39957H5.96016Z" fill="black"/>
</g>
</svg>
