<svg width="16" height="16" viewBox="0 0 16 16" fill="none" xmlns="http://www.w3.org/2000/svg">
<mask id="mask0_102_879" style="mask-type:alpha" maskUnits="userSpaceOnUse" x="0" y="0" width="16" height="16">
<rect width="16" height="16" fill="#DCDCDC"/>
</mask>
<g mask="url(#mask0_102_879)">
<path d="M4.17665 8.63729C4.17665 8.28536 4.46195 8.00007 4.81388 8.00007H11.1861C11.5381 8.00007 11.8234 8.28536 11.8234 8.63729C11.8234 8.98922 11.5381 9.27452 11.1861 9.27452H4.81388C4.46195 9.27452 4.17665 8.98922 4.17665 8.63729Z" fill="black"/>
<path d="M4.81388 10.549C4.46195 10.549 4.17665 10.8343 4.17665 11.1862C4.17665 11.5381 4.46195 11.8234 4.81388 11.8234H8.00265C8.35458 11.8234 8.63988 11.5381 8.63988 11.1862C8.63988 10.8343 8.35458 10.549 8.00265 10.549H4.81388Z" fill="black"/>
<path fill-rule="evenodd" clip-rule="evenodd" d="M11.7118 1.80034L14.1699 4.09535C14.299 4.21586 14.3723 4.38453 14.3723 4.56112V12.7793C14.3723 13.6591 13.659 14.3723 12.7792 14.3723H3.22081C2.34099 14.3723 1.62775 13.6591 1.62775 12.7793V3.22087C1.62775 2.34105 2.34099 1.62781 3.22081 1.62781H11.2758C11.4445 1.62781 11.5978 1.69334 11.7118 1.80034ZM3.22081 2.90226C3.04485 2.90226 2.9022 3.04491 2.9022 3.22087V12.7793C2.9022 12.9552 3.04484 13.0979 3.22081 13.0979H12.7792C12.9552 13.0979 13.0978 12.9552 13.0978 12.7793V4.83796L11.0246 2.90226H8.63988V4.81394C8.63988 5.16587 8.35458 5.45116 8.00265 5.45116H4.81652C4.46459 5.45116 4.1793 5.16587 4.1793 4.81394V2.90226H3.22081ZM5.45375 2.90226V4.17671H7.36542V2.90226H5.45375Z" fill="black"/>
</g>
</svg>
