<svg width="16" height="16" viewBox="0 0 16 16" fill="none" xmlns="http://www.w3.org/2000/svg">
<path d="M14.6001 4.00002C14.6001 2.56408 13.436 1.40002 12.0001 1.40002H8.00283C7.67146 1.40002 7.40283 1.66865 7.40283 2.00002C7.40283 2.3314 7.67146 2.60002 8.00283 2.60002H12.0001C12.7733 2.60002 13.4001 3.22683 13.4001 4.00002V12C13.4001 12.7732 12.7733 13.4 12.0001 13.4H8.00007C7.66869 13.4 7.40007 13.6687 7.40007 14C7.40007 14.3314 7.66869 14.6 8.00007 14.6H12.0001C13.436 14.6 14.6001 13.436 14.6001 12V4.00002Z" fill="black"/>
<path d="M7.24231 4.57576C7.00799 4.81007 7.00799 5.18997 7.24231 5.42429L9.21523 7.39722H1.9999C1.66853 7.39722 1.3999 7.66585 1.3999 7.99722C1.3999 8.32859 1.66853 8.59722 1.9999 8.59722H9.22085L7.24231 10.5758C7.00799 10.8101 7.00799 11.19 7.24231 11.4243C7.47662 11.6586 7.85652 11.6586 8.09083 11.4243L11.0908 8.42429C11.2083 8.30679 11.2669 8.15268 11.2666 7.99868L11.2666 7.99722C11.2666 7.81392 11.1844 7.64982 11.0548 7.53976L8.09083 4.57576C7.85652 4.34145 7.47662 4.34145 7.24231 4.57576Z" fill="black"/>
</svg>
