<svg width="16" height="16" viewBox="0 0 16 16" fill="none" xmlns="http://www.w3.org/2000/svg">
<path d="M6.86902 1.45203C7.49386 0.82719 8.50692 0.827188 9.13176 1.45203L11.8114 4.13164C12.0457 4.36595 12.0457 4.74585 11.8114 4.98017C11.5771 5.21448 11.1972 5.21448 10.9628 4.98017L8.60039 2.61771V11.3295C8.60039 11.6609 8.33176 11.9295 8.00039 11.9295C7.66902 11.9295 7.40039 11.6609 7.40039 11.3295V2.61771L5.03794 4.98017C4.80362 5.21448 4.42372 5.21448 4.18941 4.98017C3.95509 4.74585 3.95509 4.36595 4.18941 4.13164L6.86902 1.45203Z" fill="black"/>
<path d="M14.6734 7.34277C15.0048 7.34277 15.2734 7.6114 15.2734 7.94277V12.4162C15.2734 13.8522 14.1094 15.0162 12.6734 15.0162H3.32656C1.89062 15.0162 0.726562 13.8522 0.726562 12.4162V7.9459C0.726562 7.61453 0.995192 7.3459 1.32656 7.3459C1.65793 7.3459 1.92656 7.61453 1.92656 7.9459V12.4162C1.92656 13.1894 2.55336 13.8162 3.32656 13.8162H12.6734C13.4466 13.8162 14.0734 13.1894 14.0734 12.4162V7.94277C14.0734 7.6114 14.3421 7.34277 14.6734 7.34277Z" fill="black"/>
</svg>
