<svg width="16" height="16" viewBox="0 0 16 16" fill="none" xmlns="http://www.w3.org/2000/svg">
<g clip-path="url(#clip0_995_163)">
<path d="M7.05462 1.17499C7.61739 0.762959 8.38222 0.762959 8.94499 1.17499L11.341 2.9292C11.6083 3.12495 11.6664 3.50039 11.4706 3.76776C11.2749 4.03513 10.8995 4.09319 10.6321 3.89743L8.5999 2.40958V11.3868C8.5999 11.7181 8.33127 11.9868 7.9999 11.9868C7.66853 11.9868 7.3999 11.7181 7.3999 11.3868V2.40944L5.36753 3.89743C5.10016 4.09319 4.72472 4.03513 4.52897 3.76776C4.33321 3.50039 4.39127 3.12495 4.65864 2.9292L7.05462 1.17499Z" fill="black"/>
<path d="M3.08443 6.64615C3.27987 6.91374 3.22138 7.28911 2.95379 7.48456L2.81092 7.5889C2.19224 8.04078 1.82646 8.76087 1.82646 9.52701V12.7735C1.82646 13.5467 2.45327 14.1735 3.22646 14.1735H12.7733C13.5465 14.1735 14.1733 13.5467 14.1733 12.7735V9.5295C14.1733 8.76085 13.8052 8.0387 13.1831 7.58719L13.0475 7.48873C12.7793 7.29408 12.7197 6.91889 12.9143 6.65071C13.109 6.38254 13.4842 6.32293 13.7523 6.51758L13.888 6.61604C14.8211 7.29331 15.3733 8.37652 15.3733 9.5295V12.7735C15.3733 14.2094 14.2093 15.3735 12.7733 15.3735H3.22646C1.79052 15.3735 0.626465 14.2094 0.626465 12.7735V9.52701C0.626465 8.37781 1.17512 7.29766 2.10315 6.61985L2.24602 6.51551C2.51361 6.32006 2.88898 6.37855 3.08443 6.64615Z" fill="black"/>
</g>
<defs>
<clipPath id="clip0_995_163">
<rect width="16" height="16" fill="white"/>
</clipPath>
</defs>
</svg>
