<svg width="16" height="17" viewBox="0 0 16 17" fill="none" xmlns="http://www.w3.org/2000/svg">
<path fill-rule="evenodd" clip-rule="evenodd" d="M8 14.2161C11.3137 14.2161 14 11.4421 14 9.54948C14 7.65681 11.3137 4.88281 8 4.88281C4.6863 4.88281 2 7.65875 2 9.54948C2 11.4402 4.6863 14.2161 8 14.2161Z" stroke="black" stroke-width="1.33333" stroke-linejoin="round"/>
<path d="M8 11.5494C9.10457 11.5494 10 10.654 10 9.54944C10 8.44487 9.10457 7.54944 8 7.54944C6.89543 7.54944 6 8.44487 6 9.54944C6 10.654 6.89543 11.5494 8 11.5494Z" stroke="black" stroke-width="1.33333" stroke-linejoin="round"/>
<path d="M4.4212 4.30481L5.28604 5.51154" stroke="black" stroke-width="1.33333" stroke-linecap="round"/>
<path d="M11.875 4.45288L11.0101 5.65965" stroke="black" stroke-width="1.33333" stroke-linecap="round"/>
<path d="M8.00293 2.88281V4.88281" stroke="black" stroke-width="1.33333" stroke-linecap="round"/>
</svg>
