<svg width="16" height="16" viewBox="0 0 16 16" fill="none" xmlns="http://www.w3.org/2000/svg">
<path d="M12.8246 5.54762C13.0157 5.2769 12.9512 4.90253 12.6804 4.71143C12.4097 4.52034 12.0353 4.58488 11.8442 4.8556L7.84424 10.5223C7.65315 10.793 7.7177 11.1674 7.98841 11.3585C8.25913 11.5496 8.63351 11.485 8.8246 11.2143L12.8246 5.54762Z" fill="black"/>
<path d="M3.66641 4.9375C3.99778 4.9375 4.26641 5.20613 4.26641 5.5375V6.87083C4.26641 7.2022 3.99778 7.47083 3.66641 7.47083C3.33504 7.47083 3.06641 7.2022 3.06641 6.87083V5.5375C3.06641 5.20613 3.33504 4.9375 3.66641 4.9375Z" fill="black"/>
<path d="M4.26641 8.80312C4.26641 8.47175 3.99778 8.20312 3.66641 8.20312C3.33504 8.20312 3.06641 8.47175 3.06641 8.80312C3.06641 9.1345 3.33504 9.40312 3.66641 9.40312C3.99778 9.40312 4.26641 9.1345 4.26641 8.80312Z" fill="black"/>
<path d="M3.66641 10.2031C3.99778 10.2031 4.26641 10.4718 4.26641 10.8031C4.26641 11.1345 3.99778 11.4031 3.66641 11.4031C3.33504 11.4031 3.06641 11.1345 3.06641 10.8031C3.06641 10.4718 3.33504 10.2031 3.66641 10.2031Z" fill="black"/>
<path fill-rule="evenodd" clip-rule="evenodd" d="M12.6663 1.76172C14.1024 1.76145 15.2668 2.92559 15.2668 4.36172V11.6364C15.2668 13.0723 14.1027 14.2364 12.6668 14.2364L3.33438 14.2355C1.89844 14.2355 0.734375 13.0714 0.734375 11.6355V4.36172C0.734375 2.92565 1.89863 1.76154 3.3347 1.76172H12.6663ZM12.6665 2.96172C13.4398 2.96157 14.0668 3.58842 14.0668 4.36172V11.6364C14.0668 12.4096 13.44 13.0364 12.6668 13.0364H6.60104V2.96285L12.6665 2.96172Z" fill="black"/>
<path d="M3.66561 4.93896C3.99698 4.93896 4.26561 5.20759 4.26561 5.53896V6.8723C4.26561 7.20367 3.99698 7.4723 3.66561 7.4723C3.33424 7.4723 3.06561 7.20367 3.06561 6.8723V5.53896C3.06561 5.20759 3.33424 4.93896 3.66561 4.93896Z" fill="#E5E5E5"/>
<path d="M4.26561 8.80459C4.26561 8.47322 3.99698 8.20459 3.66561 8.20459C3.33424 8.20459 3.06561 8.47322 3.06561 8.80459C3.06561 9.13596 3.33424 9.40459 3.66561 9.40459C3.99698 9.40459 4.26561 9.13596 4.26561 8.80459Z" fill="#E5E5E5"/>
<path d="M3.66561 10.2046C3.99698 10.2046 4.26561 10.4732 4.26561 10.8046C4.26561 11.136 3.99698 11.4046 3.66561 11.4046C3.33424 11.4046 3.06561 11.136 3.06561 10.8046C3.06561 10.4732 3.33424 10.2046 3.66561 10.2046Z" fill="#E5E5E5"/>
</svg>
