<svg width="16" height="17" viewBox="0 0 16 17" fill="none" xmlns="http://www.w3.org/2000/svg">
<g clip-path="url(#clip0_1303_163)">
<rect y="0.932983" width="16" height="16" rx="2" fill="#E5E5E5"/>
<path d="M8.00007 4.23352C8.27622 4.23352 8.50007 4.45738 8.50007 4.73352L8.50004 8.43298H12.1997C12.4758 8.43298 12.6997 8.65684 12.6997 8.93298C12.6997 9.20913 12.4758 9.43298 12.1997 9.43298H8.50003L8.5 13.1325C8.5 13.4086 8.27614 13.6324 8 13.6324C7.72385 13.6324 7.5 13.4086 7.5 13.1324L7.50003 9.43298H3.80078C3.52464 9.43298 3.30078 9.20913 3.30078 8.93298C3.30078 8.65684 3.52464 8.43298 3.80078 8.43298H7.50004L7.50007 4.73352C7.50007 4.45737 7.72393 4.23352 8.00007 4.23352Z" fill="black"/>
<path fill-rule="evenodd" clip-rule="evenodd" d="M2 0.932983C0.895431 0.932983 0 1.82841 0 2.93298V14.933C0 16.0376 0.895431 16.933 2 16.933H14C15.1046 16.933 16 16.0376 16 14.933V2.93298C16 1.82841 15.1046 0.932983 14 0.932983H2ZM14 1.93298H2C1.44772 1.93298 1 2.3807 1 2.93298V14.933C1 15.4853 1.44772 15.933 2 15.933H14C14.5523 15.933 15 15.4853 15 14.933V2.93298C15 2.3807 14.5523 1.93298 14 1.93298Z" fill="black"/>
</g>
<defs>
<clipPath id="clip0_1303_163">
<rect width="16" height="16" fill="white" transform="translate(0 0.932983)"/>
</clipPath>
</defs>
</svg>
