<svg width="16" height="16" viewBox="0 0 16 16" fill="none" xmlns="http://www.w3.org/2000/svg">
<mask id="mask0_102_1198" style="mask-type:alpha" maskUnits="userSpaceOnUse" x="0" y="0" width="16" height="16">
<rect width="16" height="16" fill="#DCDCDC"/>
</mask>
<g mask="url(#mask0_102_1198)">
<path fill-rule="evenodd" clip-rule="evenodd" d="M5.68731 9.98425C5.73282 9.87144 5.77827 9.75442 5.82366 9.63323L6.3312 8.27586H9.65859L10.3523 10.1159C10.405 10.284 10.4868 10.4276 10.6023 10.5378C10.74 10.669 10.9119 10.7236 11.1014 10.714C11.3544 10.7131 11.5919 10.6379 11.6996 10.4032L11.7013 10.3992C11.7901 10.1937 11.7749 9.9634 11.6929 9.7289L8.85351 1.86337C8.79546 1.68828 8.6901 1.54881 8.54213 1.45002C8.38836 1.33863 8.1989 1.29112 7.98798 1.29112C7.78272 1.29112 7.59752 1.34014 7.4446 1.45198C7.30481 1.55223 7.20617 1.69184 7.14935 1.86343L4.324 9.70145L4.32281 9.70495C4.27002 9.86052 4.23828 10.0056 4.23828 10.1346C4.23828 10.2646 4.27116 10.3937 4.36281 10.4909C4.50256 10.6468 4.6921 10.714 4.90604 10.714C5.0369 10.714 5.15805 10.6745 5.26156 10.5916C5.3633 10.5247 5.44621 10.4332 5.51101 10.3217C5.57988 10.2177 5.63858 10.1051 5.68731 9.98425ZM6.72105 7.00152L8.00144 3.32827L9.28183 7.00152H6.72105Z" fill="black"/>
<rect x="2.21045" y="12.196" width="11.5791" height="2.56077" rx="1.28039" fill="#E5E5E5"/>
</g>
</svg>
