<svg width="17" height="16" viewBox="0 0 17 16" fill="none" xmlns="http://www.w3.org/2000/svg">
<path d="M1.98682 13.4992C1.98682 12.5603 2.74793 11.7992 3.68682 11.7992H14.2868C15.2257 11.7992 15.9868 12.5603 15.9868 13.4992V13.4992C15.9868 14.4381 15.2257 15.1992 14.2868 15.1992H3.68682C2.74793 15.1992 1.98682 14.4381 1.98682 13.4992V13.4992Z" fill="#E5E5E5"/>
<path fill-rule="evenodd" clip-rule="evenodd" d="M10.3014 1.70389C9.85268 0.479568 8.12109 0.479557 7.67238 1.70389L4.72235 9.75326C4.60832 10.0644 4.76811 10.4091 5.07924 10.5231C5.39038 10.6371 5.73504 10.4773 5.84907 10.1662L6.99975 7.02646C7.03588 7.03324 7.07314 7.03679 7.11123 7.03679H10.9778L12.1247 10.1662C12.2387 10.4773 12.5834 10.6371 12.8945 10.5231C13.2057 10.4091 13.3654 10.0644 13.2514 9.75326L10.3014 1.70389ZM10.538 5.83679L9.17467 2.11682C9.11057 1.94192 8.8632 1.94192 8.7991 2.11682L7.43576 5.83679H10.538Z" fill="black"/>
</svg>
