<svg width="20" height="20" viewBox="0 0 20 20" fill="none" xmlns="http://www.w3.org/2000/svg">
<path d="M16.887 10C16.887 13.8037 13.8036 16.8871 9.99999 16.8871C6.19638 16.8871 3.11295 13.8037 3.11295 10C3.11295 6.19644 6.19638 3.11301 9.99999 3.11301C13.8036 3.11301 16.887 6.19644 16.887 10Z" fill="#E5E5E5" stroke="black" stroke-width="0.3"/>
<rect x="7.40741" y="7.40735" width="1.48148" height="1.48148" rx="0.740741" fill="black"/>
<rect x="11.1111" y="7.40735" width="1.48148" height="1.48148" rx="0.740741" fill="black"/>
<path d="M12.5355 13.5821C13.0482 13.1841 13.3951 12.6107 13.5405 12.0327C13.5934 11.8226 13.5051 11.6349 13.3518 11.5331C13.2036 11.4346 13.0031 11.4203 12.8265 11.5131C11.0615 12.4407 8.94609 12.4427 7.1828 11.513C7.00629 11.4199 6.80602 11.4343 6.65798 11.5329C6.50518 11.6346 6.41701 11.8217 6.46844 12.0312C6.61029 12.609 6.95079 13.1833 7.46449 13.5821C8.14361 14.1093 9.05608 14.3999 10 14.3999C10.9439 14.3999 11.8564 14.1093 12.5355 13.5821Z" fill="white" stroke="black" stroke-width="0.4"/>
</svg>
