<svg width="16" height="16" viewBox="0 0 16 16" fill="none" xmlns="http://www.w3.org/2000/svg">
<path fill-rule="evenodd" clip-rule="evenodd" d="M6.4833 1.65005C6.4833 1.31868 6.21467 1.05005 5.8833 1.05005C5.55193 1.05005 5.2833 1.31868 5.2833 1.65005V5.28345H1.65029C1.31892 5.28345 1.05029 5.55208 1.05029 5.88345C1.05029 6.21482 1.31892 6.48345 1.65029 6.48345H5.2833V9.51684H1.65029C1.31892 9.51684 1.05029 9.78547 1.05029 10.1168C1.05029 10.4482 1.31892 10.7168 1.65029 10.7168H5.2833V14.35C5.2833 14.6814 5.55193 14.95 5.8833 14.95C6.21467 14.95 6.4833 14.6814 6.4833 14.35V10.7168H9.5167V14.35C9.5167 14.6814 9.78533 14.95 10.1167 14.95C10.4481 14.95 10.7167 14.6814 10.7167 14.35V10.7168H14.3503C14.6817 10.7168 14.9503 10.4482 14.9503 10.1168C14.9503 9.78547 14.6817 9.51685 14.3503 9.51685H10.7167V6.48345H14.3503C14.6817 6.48345 14.9503 6.21482 14.9503 5.88345C14.9503 5.55208 14.6817 5.28345 14.3503 5.28345H10.7167V1.65005C10.7167 1.31868 10.4481 1.05005 10.1167 1.05005C9.78533 1.05005 9.5167 1.31868 9.5167 1.65005V5.28345L6.4833 5.28345V1.65005ZM6.4833 6.48345V9.51684L9.5167 9.51685V6.48345L6.4833 6.48345Z" fill="#E5E5E5"/>
<path fill-rule="evenodd" clip-rule="evenodd" d="M1.0498 3.65005C1.0498 2.21411 2.21386 1.05005 3.6498 1.05005H12.3498C13.7857 1.05005 14.9498 2.21411 14.9498 3.65005V12.3501C14.9498 13.786 13.7857 14.95 12.3498 14.95H3.6498C2.21386 14.95 1.0498 13.786 1.0498 12.35V3.65005ZM3.6498 2.25005C2.87661 2.25005 2.2498 2.87685 2.2498 3.65005V12.35C2.2498 13.1232 2.87661 13.75 3.6498 13.75H12.3498C13.123 13.75 13.7498 13.1232 13.7498 12.3501V3.65005C13.7498 2.87685 13.123 2.25005 12.3498 2.25005H3.6498Z" fill="black"/>
</svg>
