<svg width="20" height="20" viewBox="0 0 20 20" fill="none" xmlns="http://www.w3.org/2000/svg">
<circle cx="9.99999" cy="10" r="6.88704" fill="#E5E5E5" stroke="black" stroke-width="0.3"/>
<rect x="7.40741" y="7.40735" width="1.48148" height="1.48148" rx="0.740741" fill="black"/>
<rect x="11.1111" y="7.40735" width="1.48148" height="1.48148" rx="0.740741" fill="black"/>
<path d="M7.47573 11.731C6.96306 12.129 6.61613 12.7024 6.47071 13.2804C6.41784 13.4905 6.50617 13.6782 6.65942 13.78C6.80761 13.8785 7.00813 13.8928 7.18477 13.8C8.9498 12.8724 11.0652 12.8704 12.8285 13.8002C13.005 13.8932 13.2052 13.8788 13.3533 13.7802C13.5061 13.6785 13.5942 13.4914 13.5428 13.2819C13.401 12.7041 13.0605 12.1298 12.5468 11.731C11.8676 11.2038 10.9552 10.9132 10.0112 10.9132C9.06732 10.9132 8.15485 11.2038 7.47573 11.731Z" fill="white" stroke="black" stroke-width="0.4"/>
</svg>
