<svg width="16" height="16" viewBox="0 0 16 16" fill="none" xmlns="http://www.w3.org/2000/svg">
<path fill-rule="evenodd" clip-rule="evenodd" d="M8.00695 14.9998C8.00461 14.9999 8.00227 14.9999 7.99993 14.9999C4.13397 14.9999 1 11.8659 1 7.99995C1 4.13624 4.13035 1.00365 7.99321 1.00003C7.9955 1.00001 7.99779 1 8.00008 1C11.866 1 15 4.13397 15 7.99993C15 11.8636 11.8697 14.9961 8.00695 14.9998ZM13.3569 8.01503C13.3568 8.01001 13.3568 8.00499 13.3568 7.99995C13.3568 5.04144 10.9584 2.64309 7.99993 2.64309C5.04645 2.64309 2.65123 5.03327 2.64308 7.98484C2.64317 7.98986 2.64322 7.99489 2.64322 7.99993C2.64322 10.9584 5.04157 13.3568 8.00008 13.3568C10.9536 13.3568 13.3488 10.9666 13.3569 8.01503Z" fill="#E5E5E5"/>
<path fill-rule="evenodd" clip-rule="evenodd" d="M7.17852 1.82153C7.17852 1.36781 7.54633 1 8.00005 1C11.866 1 15 4.13397 15 7.99993C15 11.8659 11.866 14.9999 8.00005 14.9999C4.1341 14.9999 1.00012 11.8659 1.00012 7.99993C1.00012 7.54621 1.36793 7.1784 1.82165 7.1784C2.27537 7.1784 2.64318 7.54621 2.64318 7.99993C2.64318 10.9584 5.04153 13.3568 8.00005 13.3568C10.9586 13.3568 13.3569 10.9584 13.3569 7.99993C13.3569 5.04141 10.9586 2.64306 8.00005 2.64306C7.54633 2.64306 7.17852 2.27525 7.17852 1.82153Z" fill="black"/>
</svg>
