<svg width="16" height="16" viewBox="0 0 16 16" fill="none" xmlns="http://www.w3.org/2000/svg">
<mask id="mask0_102_1204" style="mask-type:alpha" maskUnits="userSpaceOnUse" x="0" y="0" width="16" height="16">
<rect width="16" height="16" fill="#DCDCDC"/>
</mask>
<g mask="url(#mask0_102_1204)">
<rect x="1.6897" y="12.2498" width="12.6205" height="2.79107" rx="1.39554" fill="#E5E5E5"/>
<path fill-rule="evenodd" clip-rule="evenodd" d="M7.74646 2.1642C7.34284 1.65121 6.85947 1.28205 6.38447 1.09593C5.86863 0.893787 5.15166 0.852126 4.70047 1.42917C4.29842 1.94344 4.33082 2.70249 4.57691 3.50395C4.68808 3.8661 4.86846 4.22254 5.12522 4.56617C5.13695 4.58185 5.14927 4.5968 5.16211 4.61102C5.17152 4.6214 5.18122 4.63139 5.19115 4.64096C5.20459 4.65393 5.21855 4.66618 5.23296 4.6777L3.5064 6.40422C3.26756 6.64306 3.26756 7.03033 3.5064 7.26919L7.23756 11.0004C7.47648 11.2392 7.86375 11.2392 8.1026 11.0004L12.8329 6.27001C13.0717 6.03117 13.0717 5.6439 12.8329 5.40505L9.10172 1.67387C8.86288 1.43503 8.47561 1.43503 8.23676 1.67387L7.74646 2.1642ZM7.46162 4.50638C7.47252 4.57574 7.48163 4.64652 7.4888 4.71868C7.52232 5.05481 7.82194 5.30013 8.15807 5.26661C8.4942 5.23311 8.73954 4.93345 8.70601 4.59732C8.65786 4.11463 8.54251 3.6666 8.37892 3.26169L8.66928 2.97135L11.5354 5.83753L10.6106 6.76237H4.87824L7.40802 4.2326C7.42885 4.32128 7.44684 4.41255 7.46162 4.50638ZM6.87284 3.03784C6.57441 2.62008 6.22261 2.34634 5.93815 2.23487C5.80233 2.18165 5.71528 2.17827 5.67638 2.18335C5.6725 2.18387 5.66929 2.18443 5.6666 2.18497L5.6619 2.18607C5.64166 2.21954 5.53594 2.45979 5.74626 3.1449C5.81241 3.36036 5.92262 3.58602 6.09307 3.81761L6.87284 3.03784Z" fill="black"/>
<path d="M12.1932 11.5463C12.6454 11.5463 13.012 11.1797 13.012 10.7275C13.012 10.4475 12.6981 9.92821 12.459 9.5733C12.3299 9.38173 12.0564 9.38174 11.9274 9.57331C11.6883 9.92822 11.3744 10.4475 11.3744 10.7275C11.3744 11.1797 11.741 11.5463 12.1932 11.5463Z" fill="black"/>
</g>
</svg>
