<svg width="17" height="16" viewBox="0 0 17 16" fill="none" xmlns="http://www.w3.org/2000/svg">
<path fill-rule="evenodd" clip-rule="evenodd" d="M8.01281 1.36643C8.79386 0.585377 10.0602 0.585378 10.8412 1.36643L12.9223 3.44752C13.7034 4.22857 13.7034 5.4949 12.9223 6.27595L9.36445 9.83383C8.5834 10.6149 7.31707 10.6149 6.53602 9.83383L4.45493 7.75273C3.67388 6.97168 3.67388 5.70535 4.45493 4.9243L8.01281 1.36643ZM9.9927 2.21495C9.68028 1.90253 9.17375 1.90253 8.86133 2.21495L5.30346 5.77283L5.29671 5.77966L10.839 6.66224L12.0738 5.42742C12.3862 5.115 12.3862 4.60847 12.0738 4.29605L9.9927 2.21495Z" fill="black"/>
<path d="M14.5179 9.48875C14.5179 9.99175 14.1101 10.3995 13.607 10.3995C13.1041 10.3995 12.6963 9.99175 12.6963 9.48875C12.6963 9.1773 13.0455 8.59966 13.3114 8.20487C13.4549 7.99177 13.7591 7.99177 13.9027 8.20486C14.1687 8.59965 14.5179 9.1773 14.5179 9.48875Z" fill="black"/>
<path d="M1.98682 13.4992C1.98682 12.5603 2.74793 11.7992 3.68682 11.7992H14.2868C15.2257 11.7992 15.9868 12.5603 15.9868 13.4992V13.4992C15.9868 14.4381 15.2257 15.1992 14.2868 15.1992H3.68682C2.74793 15.1992 1.98682 14.4381 1.98682 13.4992V13.4992Z" fill="white"/>
<path fill-rule="evenodd" clip-rule="evenodd" d="M14.2868 12.4992H3.68682C3.13453 12.4992 2.68682 12.9469 2.68682 13.4992C2.68682 14.0515 3.13453 14.4992 3.68682 14.4992H14.2868C14.8391 14.4992 15.2868 14.0515 15.2868 13.4992C15.2868 12.9469 14.8391 12.4992 14.2868 12.4992ZM3.68682 11.7992C2.74793 11.7992 1.98682 12.5603 1.98682 13.4992C1.98682 14.4381 2.74793 15.1992 3.68682 15.1992H14.2868C15.2257 15.1992 15.9868 14.4381 15.9868 13.4992C15.9868 12.5603 15.2257 11.7992 14.2868 11.7992H3.68682Z" fill="#E5E5E5"/>
</svg>
