<svg width="20" height="21" viewBox="0 0 20 21" fill="none" xmlns="http://www.w3.org/2000/svg">
<path fill-rule="evenodd" clip-rule="evenodd" d="M8.90467 3.99244C8.84611 4.1338 8.84611 4.31301 8.84611 4.67143V13.716L5.92068 10.7906C5.66724 10.5371 5.54052 10.4104 5.39916 10.3519C5.21067 10.2738 4.9989 10.2738 4.81041 10.3519C4.66905 10.4104 4.54233 10.5371 4.28889 10.7906C4.03545 11.044 3.90873 11.1707 3.85018 11.3121C3.77211 11.5006 3.77211 11.7124 3.85018 11.9008C3.90873 12.0422 4.03545 12.1689 4.28889 12.4224L9.03476 17.1682C9.07839 17.2127 9.12737 17.2617 9.18231 17.3166L9.18239 17.3167L9.18241 17.3167C9.40545 17.5398 9.53035 17.6647 9.65346 17.7313C9.67085 17.7408 9.6882 17.7492 9.70577 17.7564C9.89425 17.8345 10.106 17.8345 10.2945 17.7564C10.4359 17.6979 10.5626 17.5712 10.816 17.3177C10.8986 17.2352 10.9677 17.1661 11.0253 17.1056L15.7095 12.4214L15.7095 12.4213C15.963 12.1679 16.0897 12.0412 16.1482 11.8998C16.2263 11.7114 16.2263 11.4996 16.1482 11.3111C16.0897 11.1697 15.963 11.043 15.7095 10.7896C15.4561 10.5361 15.3294 10.4094 15.188 10.3509C14.9995 10.2728 14.7878 10.2728 14.5993 10.3509C14.4579 10.4094 14.3312 10.5361 14.0778 10.7896L14.0777 10.7896L11.1538 13.7135V4.67142C11.1538 4.31301 11.1538 4.1338 11.0953 3.99244C11.0172 3.80395 10.8674 3.6542 10.6789 3.57613C10.5376 3.51758 10.3584 3.51758 9.99996 3.51758C9.64154 3.51758 9.46233 3.51758 9.32097 3.57613C9.13249 3.6542 8.98274 3.80395 8.90467 3.99244Z" fill="black"/>
</svg>
