<svg width="20" height="21" viewBox="0 0 20 21" fill="none" xmlns="http://www.w3.org/2000/svg">
<path fill-rule="evenodd" clip-rule="evenodd" d="M15.4274 4.74935C14.0982 5.1012 13.1363 5.13675 12.3604 5.03379C11.5776 4.93009 10.9487 4.68342 10.2456 4.40416L10.2246 4.39527C9.53411 4.1212 8.76945 3.8175 7.81312 3.69157C6.84279 3.56268 5.71016 3.61898 4.24802 4.0049C4.09343 4.04217 3.95538 4.13393 3.85649 4.26515C3.7576 4.39636 3.70374 4.55925 3.70374 4.72712V17.3197C3.70374 17.5162 3.79534 17.7046 3.92654 17.8435C4.05773 17.9824 4.25893 18.0605 4.44448 18.0605C4.63002 18.0605 4.84911 17.9824 4.98031 17.8435C5.11151 17.7046 5.18522 17.5162 5.18522 17.3197V14.9123V12.5049C6.24649 12.2738 6.97081 12.2605 7.63962 12.3486C8.42246 12.4523 9.05139 12.699 9.75448 12.9782L9.77546 12.9871C10.466 13.2612 11.2306 13.5649 12.1869 13.6908C13.1601 13.8197 14.2976 13.7627 15.7667 13.3738C15.8866 13.3421 16.0727 13.2135 16.1483 13.111C16.2238 13.0084 16.2963 12.8204 16.2963 12.6553V5.46787C16.2963 5.35535 16.2721 5.24432 16.2255 5.1432C16.1788 5.04208 16.1111 4.95353 16.0274 4.88428C15.9436 4.81502 15.846 4.76688 15.7421 4.7435C15.6382 4.72012 15.494 4.73173 15.4274 4.74935Z" fill="black"/>
</svg>
