<svg width="32" height="32" viewBox="0 0 32 32" fill="none" xmlns="http://www.w3.org/2000/svg">
<path d="M2 12.3661C2 12.0347 2.26863 11.7661 2.6 11.7661H9.24705C9.57842 11.7661 9.84705 12.0347 9.84705 12.3661V29.278C9.84705 29.6093 9.57842 29.878 9.24705 29.878H4C2.89543 29.878 2 28.9825 2 27.878V12.3661Z" fill="#E5E5E5"/>
<path d="M2 4.0863C2 2.98173 2.89543 2.0863 4 2.0863H9.24705C9.57842 2.0863 9.84705 2.35493 9.84705 2.6863V8.73981C9.84705 9.07118 9.57842 9.33981 9.24705 9.33981H2.6C2.26863 9.33981 2 9.07118 2 8.73981V4.0863Z" fill="#E5E5E5"/>
<path d="M12.2637 2.6863C12.2637 2.35493 12.5323 2.0863 12.8637 2.0863H27.9702C29.0748 2.0863 29.9702 2.98173 29.9702 4.0863V8.73627C29.9702 9.06764 29.7016 9.33627 29.3702 9.33627H12.8637C12.5323 9.33627 12.2637 9.06764 12.2637 8.73627L12.2637 2.6863Z" fill="#E5E5E5"/>
<path d="M12.2982 12.4011C12.2981 12.0697 12.5667 11.8009 12.8982 11.8009L29.3929 11.8009C29.7242 11.8009 29.9928 12.0694 29.9929 12.4007L29.9992 27.9129C29.9996 29.0178 29.1041 29.9137 27.9992 29.9137H12.905C12.5737 29.9137 12.3051 29.6452 12.305 29.314L12.2982 12.4011Z" fill="black"/>
</svg>
