<svg width="16" height="16" viewBox="0 0 16 16" fill="none" xmlns="http://www.w3.org/2000/svg">
<path fill-rule="evenodd" clip-rule="evenodd" d="M3.6498 1.69238C2.21386 1.69238 1.0498 2.85644 1.0498 4.29238V10.077C1.0498 11.513 2.21386 12.677 3.64981 12.677H4.103V13.7078C4.103 13.9169 4.21186 14.111 4.39033 14.2199C4.5688 14.3289 4.79113 14.3371 4.97713 14.2415L8.02308 12.677H12.3498C13.7857 12.677 14.9498 11.513 14.9498 10.077V4.29238C14.9498 2.85644 13.7857 1.69238 12.3498 1.69238H3.6498ZM2.2498 4.29238C2.2498 3.51918 2.87661 2.89238 3.6498 2.89238H12.3498C13.123 2.89238 13.7498 3.51918 13.7498 4.29238V10.077C13.7498 10.8502 13.123 11.477 12.3498 11.477H7.878C7.78265 11.477 7.68868 11.4998 7.60387 11.5433L5.303 12.7251V12.077C5.303 11.7457 5.03437 11.477 4.703 11.477H3.64981C2.87661 11.477 2.2498 10.8502 2.2498 10.077V4.29238Z" fill="black"/>
<path d="M8.60007 4.93447C8.60007 4.6031 8.33144 4.33447 8.00007 4.33447C7.6687 4.33447 7.40007 4.6031 7.40007 4.93447V6.57048H5.76406C5.43269 6.57048 5.16406 6.83911 5.16406 7.17048C5.16406 7.50185 5.43269 7.77048 5.76406 7.77048H7.40007V9.40648C7.40007 9.73785 7.6687 10.0065 8.00007 10.0065C8.33144 10.0065 8.60007 9.73785 8.60007 9.40648V7.77048H10.2361C10.5674 7.77048 10.8361 7.50185 10.8361 7.17048C10.8361 6.83911 10.5674 6.57048 10.2361 6.57048H8.60007V4.93447Z" fill="black"/>
</svg>
