<svg width="16" height="16" viewBox="0 0 16 16" fill="none" xmlns="http://www.w3.org/2000/svg">
<path fill-rule="evenodd" clip-rule="evenodd" d="M4.00146 3.49372C4.00146 2.23352 5.11214 1.32666 6.33313 1.32666C7.55412 1.32666 8.6648 2.23352 8.6648 3.49372V6.49782C8.6648 7.75801 7.55413 8.66488 6.33313 8.66488C5.11214 8.66488 4.00146 7.75801 4.00146 6.49782V3.49372ZM6.33313 2.65666C5.71319 2.65666 5.33146 3.09479 5.33146 3.49372V6.49782C5.33146 6.89675 5.71319 7.33488 6.33313 7.33488C6.95307 7.33488 7.3348 6.89675 7.3348 6.49782V3.49372C7.3348 3.09479 6.95307 2.65666 6.33313 2.65666Z" fill="black"/>
<path fill-rule="evenodd" clip-rule="evenodd" d="M10.0015 3.49372C10.0015 2.23352 11.1121 1.32666 12.3331 1.32666C13.5541 1.32666 14.6648 2.23352 14.6648 3.49372V6.49782C14.6648 7.75801 13.5541 8.66488 12.3331 8.66488C11.1121 8.66488 10.0015 7.75801 10.0015 6.49782V3.49372ZM12.3331 2.65666C11.7132 2.65666 11.3315 3.09479 11.3315 3.49372V6.49782C11.3315 6.89675 11.7132 7.33488 12.3331 7.33488C12.9531 7.33488 13.3348 6.89675 13.3348 6.49782V3.49372C13.3348 3.09479 12.9531 2.65666 12.3331 2.65666Z" fill="black"/>
<path d="M12.4702 9.4959C12.2105 9.2362 11.7894 9.2362 11.5297 9.4959C11.27 9.7556 11.27 10.1767 11.5297 10.4364L12.3945 11.3011H6.33346C5.96619 11.3011 5.66846 11.5989 5.66846 11.9661C5.66846 12.3334 5.96619 12.6311 6.33346 12.6311H12.3945L11.5297 13.4959C11.27 13.7556 11.27 14.1767 11.5297 14.4364C11.7894 14.696 12.2105 14.696 12.4702 14.4364L14.4615 12.445C14.587 12.3241 14.6651 12.1542 14.6651 11.9661C14.6651 11.778 14.587 11.6081 14.4615 11.4872L12.4702 9.4959Z" fill="black"/>
<path d="M1.33496 8.30015C1.33496 7.93289 1.63269 7.63515 1.99996 7.63515H2.33329C2.70056 7.63515 2.99829 7.93289 2.99829 8.30015C2.99829 8.66742 2.70056 8.96515 2.33329 8.96515H1.99996C1.63269 8.96515 1.33496 8.66742 1.33496 8.30015Z" fill="black"/>
</svg>
