<svg width="16" height="16" viewBox="0 0 16 16" fill="none" xmlns="http://www.w3.org/2000/svg">
<path d="M8.00013 4.26953C7.63286 4.26953 7.33512 4.56726 7.33512 4.93453V6.50554H5.76412C5.39685 6.50554 5.09912 6.80327 5.09912 7.17054C5.09912 7.5378 5.39685 7.83554 5.76412 7.83554H7.33512V9.40654C7.33512 9.77381 7.63286 10.0715 8.00013 10.0715C8.36739 10.0715 8.66512 9.77381 8.66513 9.40654V7.83554H10.2361C10.6034 7.83554 10.9011 7.5378 10.9011 7.17054C10.9011 6.80327 10.6034 6.50554 10.2361 6.50554H8.66513V4.93453C8.66512 4.56726 8.36739 4.26953 8.00013 4.26953Z" fill="black"/>
<path fill-rule="evenodd" clip-rule="evenodd" d="M3.64986 1.62744C2.17802 1.62744 0.984863 2.8206 0.984863 4.29244V10.0771C0.984863 11.5489 2.17802 12.7421 3.64986 12.7421H4.03806V13.7079C4.03806 13.9396 4.15871 14.1547 4.35652 14.2755C4.55432 14.3962 4.80073 14.4053 5.00689 14.2994L8.03886 12.7421H12.3499C13.8217 12.7421 15.0149 11.5489 15.0149 10.0771V4.29244C15.0149 2.8206 13.8217 1.62744 12.3499 1.62744H3.64986ZM2.31486 4.29244C2.31486 3.55514 2.91256 2.95744 3.64986 2.95744H12.3499C13.0872 2.95744 13.6849 3.55514 13.6849 4.29244V10.0771C13.6849 10.8144 13.0872 11.4121 12.3499 11.4121H7.87806C7.77238 11.4121 7.66823 11.4373 7.57423 11.4856L5.36806 12.6187V12.0771C5.36806 11.7098 5.07033 11.4121 4.70306 11.4121H3.64986C2.91256 11.4121 2.31486 10.8144 2.31486 10.0771V4.29244Z" fill="black"/>
</svg>
