<svg width="16" height="16" viewBox="0 0 16 16" fill="none" xmlns="http://www.w3.org/2000/svg">
<g clip-path="url(#clip0_910_238)">
<path fill-rule="evenodd" clip-rule="evenodd" d="M3.64986 0.984985C2.17803 0.984985 0.984863 2.17814 0.984863 3.64998V12.35C0.984863 13.8218 2.17802 15.015 3.64986 15.015H12.3499C13.8217 15.015 15.0149 13.8218 15.0149 12.35V7.99999C15.0149 7.63272 14.7171 7.33499 14.3499 7.33499C13.9826 7.33499 13.6849 7.63272 13.6849 7.99999V9.10967L12.2776 8.05423C11.7384 7.64982 10.9838 7.7034 10.5071 8.18003L9.00535 9.68182L6.78152 7.77569C6.26126 7.32973 5.48988 7.34258 4.98477 7.80561L2.31486 10.253V3.64998C2.31486 2.91268 2.91256 2.31499 3.64986 2.31499H7.99986C8.36713 2.31499 8.66486 2.01725 8.66486 1.64999C8.66486 1.28272 8.36713 0.984985 7.99986 0.984985H3.64986ZM5.88351 8.78601C5.8926 8.77767 5.90655 8.77742 5.91595 8.78548L10.2783 12.5246C10.5571 12.7636 10.977 12.7314 11.216 12.4525C11.455 12.1737 11.4227 11.7538 11.1438 11.5148L10.0181 10.5499L11.4476 9.12048C11.4562 9.11192 11.4698 9.11091 11.4796 9.11825L13.6849 10.7722V12.35C13.6849 13.0873 13.0872 13.685 12.3499 13.685H3.64986C2.91256 13.685 2.31486 13.0873 2.31486 12.35V12.0573L5.88351 8.78601Z" fill="black"/>
<path d="M11.8098 1.08276C11.4425 1.08276 11.1448 1.38049 11.1448 1.74776V3.23193H9.66036C9.29309 3.23193 8.99536 3.52966 8.99536 3.89693C8.99536 4.2642 9.29309 4.56193 9.66036 4.56193H11.1448V6.24161C11.1448 6.60888 11.4425 6.90661 11.8098 6.90661C12.177 6.90661 12.4748 6.60888 12.4748 6.24161V4.56193H14.1542C14.5215 4.56193 14.8192 4.2642 14.8192 3.89693C14.8192 3.52966 14.5215 3.23193 14.1542 3.23193H12.4748V1.74776C12.4748 1.38049 12.177 1.08276 11.8098 1.08276Z" fill="black"/>
</g>
<defs>
<clipPath id="clip0_910_238">
<rect width="16" height="16" fill="white"/>
</clipPath>
</defs>
</svg>
