<svg width="16" height="16" viewBox="0 0 16 16" fill="none" xmlns="http://www.w3.org/2000/svg">
<g clip-path="url(#clip0_1451_20)">
<path d="M8.00387 4.7666C7.6366 4.7666 7.33887 5.06433 7.33887 5.4316V7.33496H5.42965C5.06238 7.33496 4.76465 7.63269 4.76465 7.99996C4.76465 8.36723 5.06238 8.66496 5.42965 8.66496H7.33887V10.5691C7.33887 10.9364 7.6366 11.2341 8.00387 11.2341C8.37114 11.2341 8.66887 10.9364 8.66887 10.5691V8.66496H10.5671C10.9344 8.66496 11.2321 8.36723 11.2321 7.99996C11.2321 7.63269 10.9344 7.33496 10.5671 7.33496H8.66887V5.4316C8.66887 5.06433 8.37114 4.7666 8.00387 4.7666Z" fill="black"/>
<path fill-rule="evenodd" clip-rule="evenodd" d="M7.99996 0.913086C4.08599 0.913086 0.913086 4.08599 0.913086 7.99996C0.913086 11.9139 4.08599 15.0868 7.99996 15.0868C11.9139 15.0868 15.0868 11.9139 15.0868 7.99996C15.0868 4.08599 11.9139 0.913086 7.99996 0.913086ZM2.24309 7.99996C2.24309 4.82052 4.82052 2.24309 7.99996 2.24309C11.1794 2.24309 13.7568 4.82052 13.7568 7.99996C13.7568 11.1794 11.1794 13.7568 7.99996 13.7568C4.82052 13.7568 2.24309 11.1794 2.24309 7.99996Z" fill="black"/>
</g>
<defs>
<clipPath id="clip0_1451_20">
<rect width="16" height="16" fill="white"/>
</clipPath>
</defs>
</svg>
