<svg width="16" height="16" viewBox="0 0 16 16" fill="none" xmlns="http://www.w3.org/2000/svg">
<path d="M1.33496 1.96676C1.33496 1.59949 1.63269 1.30176 1.99996 1.30176H14C14.3672 1.30176 14.665 1.59949 14.665 1.96676C14.665 2.33403 14.3672 2.63176 14 2.63176H1.99996C1.63269 2.63176 1.33496 2.33403 1.33496 1.96676Z" fill="black"/>
<path d="M1.33496 14.0335C1.33496 13.6663 1.63269 13.3685 1.99996 13.3685H14C14.3672 13.3685 14.665 13.6663 14.665 14.0335C14.665 14.4008 14.3672 14.6985 14 14.6985H1.99996C1.63269 14.6985 1.33496 14.4008 1.33496 14.0335Z" fill="black"/>
<path d="M6.80319 9.36307C6.5435 9.10337 6.12244 9.10337 5.86274 9.36307C5.60304 9.62277 5.60304 10.0438 5.86274 10.3035L7.52941 11.9702C7.65412 12.0949 7.82327 12.165 7.99964 12.165C8.176 12.165 8.34515 12.0949 8.46986 11.9702L10.1365 10.3035C10.3962 10.0438 10.3962 9.62277 10.1365 9.36307C9.87683 9.10337 9.45577 9.10337 9.19608 9.36307L8.66464 9.89451V6.10541L9.19608 6.63685C9.45578 6.89655 9.87683 6.89655 10.1365 6.63685C10.3962 6.37715 10.3962 5.9561 10.1365 5.6964L8.46986 4.02973C8.21016 3.77004 7.78911 3.77004 7.52941 4.02973L5.86274 5.6964C5.60304 5.9561 5.60304 6.37715 5.86274 6.63685C6.12244 6.89655 6.5435 6.89655 6.80319 6.63685L7.33464 6.10541V9.89451L6.80319 9.36307Z" fill="black"/>
</svg>
