<svg width="17" height="16" viewBox="0 0 17 16" fill="none" xmlns="http://www.w3.org/2000/svg">
<path d="M2.67623 2.00195C3.0435 2.00195 3.34123 2.29968 3.34123 2.66695V13.3336C3.34123 13.7009 3.0435 13.9986 2.67623 13.9986C2.30896 13.9986 2.01123 13.7009 2.01123 13.3336V2.66695C2.01123 2.29968 2.30896 2.00195 2.67623 2.00195Z" fill="black"/>
<path d="M15.143 2.00195C15.5103 2.00195 15.808 2.29968 15.808 2.66695V13.3336C15.808 13.7009 15.5103 13.9986 15.143 13.9986C14.7758 13.9986 14.478 13.7009 14.478 13.3336V2.66695C14.478 2.29968 14.7758 2.00195 15.143 2.00195Z" fill="black"/>
<path d="M7.54652 6.80393C7.80622 6.54423 7.80622 6.12317 7.54652 5.86348C7.28682 5.60378 6.86577 5.60378 6.60607 5.86348L4.9394 7.53014C4.81469 7.65485 4.74463 7.824 4.74463 8.00037C4.74463 8.17674 4.81469 8.34588 4.9394 8.47059L6.60607 10.1373C6.86577 10.397 7.28682 10.397 7.54652 10.1373C7.80622 9.87756 7.80622 9.45651 7.54652 9.19681L7.01508 8.66537H10.8042L10.2727 9.19681C10.013 9.45651 10.013 9.87756 10.2727 10.1373C10.5324 10.397 10.9535 10.397 11.2132 10.1373L12.8799 8.47059C13.1396 8.21089 13.1396 7.78984 12.8799 7.53014L11.2132 5.86348C10.9535 5.60378 10.5324 5.60378 10.2727 5.86348C10.013 6.12317 10.013 6.54423 10.2727 6.80393L10.8042 7.33537H7.01508L7.54652 6.80393Z" fill="black"/>
</svg>
