<svg width="16" height="16" viewBox="0 0 16 16" fill="none" xmlns="http://www.w3.org/2000/svg">
<path d="M11.9271 0.734863C11.5297 0.734863 11.2076 1.05701 11.2076 1.45441C11.2076 1.8518 11.5297 2.17395 11.9271 2.17395C12.3245 2.17395 12.6467 1.8518 12.6467 1.45441C12.6467 1.05701 12.3245 0.734863 11.9271 0.734863Z" fill="black"/>
<path d="M6.1107 1.22521C5.98412 0.886872 5.60723 0.715207 5.26889 0.841787C3.26567 1.59123 1.6599 3.15236 0.849364 5.12578C0.712117 5.45994 0.871744 5.84209 1.2059 5.97933C1.54006 6.11658 1.92221 5.95695 2.05945 5.6228C2.73216 3.98495 4.06625 2.68845 5.72728 2.06703C6.06562 1.94045 6.23728 1.56355 6.1107 1.22521Z" fill="black"/>
<path d="M8.91737 3.42011C8.68406 2.45796 7.31566 2.45796 7.08235 3.42011L6.48459 5.88527C6.41276 6.18148 6.18148 6.41276 5.88527 6.48459L3.42011 7.08235C2.45796 7.31566 2.45796 8.68406 3.42012 8.91737L5.88527 9.51513C6.18148 9.58696 6.41276 9.81824 6.48459 10.1145L7.08235 12.5796C7.31566 13.5418 8.68406 13.5418 8.91737 12.5796L9.51513 10.1145C9.58696 9.81824 9.81824 9.58696 10.1145 9.51513L12.5796 8.91737C13.5418 8.68406 13.5418 7.31566 12.5796 7.08235L10.1145 6.48459C9.81824 6.41276 9.58696 6.18148 9.51513 5.88527L8.91737 3.42011Z" fill="black"/>
<path d="M14.5453 3.35304C14.1479 3.35304 13.8258 3.6752 13.8258 4.07259C13.8258 4.46998 14.1479 4.79214 14.5453 4.79214C14.9427 4.79214 15.2649 4.46998 15.2649 4.07259C15.2649 3.6752 14.9427 3.35304 14.5453 3.35304Z" fill="black"/>
<path d="M14.774 9.89955C14.4356 9.77324 14.0588 9.94519 13.9325 10.2836C13.3159 11.9356 12.0344 13.2642 10.4149 13.9419C10.0816 14.0814 9.92456 14.4646 10.064 14.7978C10.2035 15.1311 10.5867 15.2882 10.9199 15.1487C12.8721 14.3317 14.4149 12.7323 15.1581 10.7411C15.2844 10.4026 15.1125 10.0259 14.774 9.89955Z" fill="black"/>
<path d="M1.45441 11.2076C1.05701 11.2076 0.734863 11.5297 0.734863 11.9271C0.734863 12.3245 1.05701 12.6467 1.45441 12.6467C1.8518 12.6467 2.17395 12.3245 2.17395 11.9271C2.17395 11.5297 1.8518 11.2076 1.45441 11.2076Z" fill="black"/>
<path d="M4.07259 13.8258C3.6752 13.8258 3.35304 14.1479 3.35304 14.5453C3.35304 14.9427 3.6752 15.2649 4.07259 15.2649C4.46998 15.2649 4.79214 14.9427 4.79214 14.5453C4.79214 14.1479 4.46998 13.8258 4.07259 13.8258Z" fill="black"/>
</svg>
