<svg width="16" height="16" viewBox="0 0 16 16" fill="none" xmlns="http://www.w3.org/2000/svg">
<path d="M4.07253 15.1998C3.71104 15.1998 3.41799 14.9068 3.41799 14.5453C3.41799 14.1838 3.71104 13.8907 4.07253 13.8907C4.43403 13.8907 4.72708 14.1838 4.72708 14.5453C4.72708 14.9068 4.43403 15.1998 4.07253 15.1998Z" fill="black"/>
<path d="M11.9271 2.1089C11.5656 2.1089 11.2725 1.81585 11.2725 1.45435C11.2725 1.09285 11.5656 0.799805 11.9271 0.799805C12.2886 0.799805 12.5816 1.09285 12.5816 1.45435C12.5816 1.81585 12.2886 2.1089 11.9271 2.1089Z" fill="black"/>
<path d="M14.5453 4.72708C14.1838 4.72708 13.8907 4.43403 13.8907 4.07253C13.8907 3.71104 14.1838 3.41799 14.5453 3.41799C14.9068 3.41799 15.1998 3.71104 15.1998 4.07253C15.1998 4.43403 14.9068 4.72708 14.5453 4.72708Z" fill="black"/>
<path d="M7.14546 3.43537C7.36271 2.53946 8.6369 2.53946 8.85414 3.43537L9.45191 5.90053C9.52947 6.22039 9.77921 6.47014 10.0991 6.5477L12.5642 7.14546C13.4601 7.36271 13.4601 8.6369 12.5642 8.85414L10.0991 9.45191C9.77921 9.52947 9.52947 9.77921 9.45191 10.0991L8.85414 12.5642C8.6369 13.4601 7.36271 13.4601 7.14546 12.5642L6.5477 10.0991C6.47014 9.77921 6.22039 9.52947 5.90053 9.45191L3.43537 8.85414C2.53946 8.6369 2.53946 7.36271 3.43537 7.14546L5.90053 6.5477C6.22039 6.47014 6.47014 6.22039 6.5477 5.90053L7.14546 3.43537Z" fill="black"/>
<path fill-rule="evenodd" clip-rule="evenodd" d="M14.7512 9.96039C15.0561 10.0742 15.2109 10.4135 15.0972 10.7183C14.3602 12.6927 12.8304 14.2786 10.8948 15.0887C10.5946 15.2143 10.2495 15.0728 10.1239 14.7727C9.99832 14.4726 10.1398 14.1274 10.4399 14.0018C12.076 13.3172 13.3705 11.9751 13.9934 10.3063C14.1071 10.0015 14.4464 9.84663 14.7512 9.96039Z" fill="black"/>
<path fill-rule="evenodd" clip-rule="evenodd" d="M6.04977 1.24793C6.16377 1.55265 6.00916 1.89209 5.70444 2.00609C4.02642 2.63388 2.67882 3.94352 1.99927 5.59804C1.87566 5.89899 1.53149 6.04276 1.23054 5.91915C0.929587 5.79554 0.785823 5.45137 0.909432 5.15042C1.71312 3.19367 3.30539 1.64569 5.2916 0.902608C5.59632 0.788606 5.93576 0.943212 6.04977 1.24793Z" fill="black"/>
<path d="M1.45435 12.5816C1.09285 12.5816 0.799805 12.2886 0.799805 11.9271C0.799805 11.5656 1.09285 11.2725 1.45435 11.2725C1.81585 11.2725 2.1089 11.5656 2.1089 11.9271C2.1089 12.2886 1.81585 12.5816 1.45435 12.5816Z" fill="black"/>
</svg>
