<svg width="16" height="16" viewBox="0 0 16 16" fill="none" xmlns="http://www.w3.org/2000/svg">
<path d="M8.25451 10.5817C8.1761 10.6142 8.09013 10.6322 7.99996 10.6322C7.81633 10.6322 7.65008 10.5577 7.52974 10.4374L5.52974 8.43739C5.27004 8.17769 5.27004 7.75664 5.52974 7.49694C5.78943 7.23724 6.21049 7.23724 6.47019 7.49694L7.33496 8.36171V2.3005C7.33496 1.93323 7.63269 1.6355 7.99996 1.6355C8.36723 1.6355 8.66496 1.93323 8.66496 2.3005V8.36171L9.52974 7.49694C9.78943 7.23724 10.2105 7.23724 10.4702 7.49694C10.7299 7.75664 10.7299 8.17769 10.4702 8.43739L8.47019 10.4374C8.40643 10.5011 8.33295 10.5493 8.25451 10.5817Z" fill="black"/>
<path d="M1.33496 13.6998C1.33496 13.3325 1.63269 13.0348 1.99996 13.0348H14C14.3672 13.0348 14.665 13.3325 14.665 13.6998C14.665 14.0671 14.3672 14.3648 14 14.3648H1.99996C1.63269 14.3648 1.33496 14.0671 1.33496 13.6998Z" fill="black"/>
</svg>
