<svg width="16" height="16" viewBox="0 0 16 16" fill="none" xmlns="http://www.w3.org/2000/svg">
<path d="M1.99996 1.83447C1.63269 1.83447 1.33496 2.1322 1.33496 2.49947C1.33496 2.86674 1.63269 3.16447 1.99996 3.16447H14C14.3672 3.16447 14.665 2.86674 14.665 2.49947C14.665 2.1322 14.3672 1.83447 14 1.83447H1.99996Z" fill="black"/>
<path d="M1.99996 5.50146C1.63269 5.50146 1.33496 5.7992 1.33496 6.16646C1.33496 6.53373 1.63269 6.83146 1.99996 6.83146H14C14.3672 6.83146 14.665 6.53373 14.665 6.16646C14.665 5.7992 14.3672 5.50146 14 5.50146H1.99996Z" fill="black"/>
<path d="M1.33496 9.83346C1.33496 9.46619 1.63269 9.16846 1.99996 9.16846H14C14.3672 9.16846 14.665 9.46619 14.665 9.83346C14.665 10.2007 14.3672 10.4985 14 10.4985H1.99996C1.63269 10.4985 1.33496 10.2007 1.33496 9.83346Z" fill="black"/>
<path d="M1.99996 12.8354C1.63269 12.8354 1.33496 13.1332 1.33496 13.5004C1.33496 13.8677 1.63269 14.1654 1.99996 14.1654H14C14.3672 14.1654 14.665 13.8677 14.665 13.5004C14.665 13.1332 14.3672 12.8354 14 12.8354H1.99996Z" fill="black"/>
</svg>
