<svg width="16" height="16" viewBox="0 0 16 16" fill="none" xmlns="http://www.w3.org/2000/svg">
<path d="M1.33496 2.3005C1.33496 2.66777 1.63269 2.9655 1.99996 2.9655H14C14.3672 2.9655 14.665 2.66777 14.665 2.3005C14.665 1.93323 14.3672 1.6355 14 1.6355H1.99996C1.63269 1.6355 1.33496 1.93323 1.33496 2.3005Z" fill="black"/>
<path d="M8.25451 5.41867C8.33295 5.45112 8.40643 5.49922 8.47019 5.56298L10.4702 7.56298C10.7299 7.82268 10.7299 8.24374 10.4702 8.50343C10.2105 8.76313 9.78943 8.76313 9.52974 8.50343L8.66496 7.63866V13.6999C8.66496 14.0671 8.36723 14.3649 7.99996 14.3649C7.63269 14.3649 7.33496 14.0671 7.33496 13.6999V7.63866L6.47019 8.50343C6.21049 8.76313 5.78943 8.76313 5.52974 8.50343C5.27004 8.24374 5.27004 7.82268 5.52974 7.56298L7.5294 5.56332" fill="black"/>
<path d="M8.25451 5.41867C8.17668 5.38639 8.0914 5.36847 8.00196 5.36821L7.99996 5.36821L7.99797 5.36821C7.82906 5.36871 7.66031 5.43317 7.53115 5.56157" fill="black"/>
</svg>
