<svg width="16" height="16" viewBox="0 0 16 16" fill="none" xmlns="http://www.w3.org/2000/svg">
<path fill-rule="evenodd" clip-rule="evenodd" d="M7.9999 1.12915C8.03875 1.12915 8.07673 1.13284 8.11352 1.13989H12.2599C13.6958 1.13989 14.8599 2.30395 14.8599 3.73989V7.88619C14.867 7.92301 14.8707 7.96102 14.8707 7.9999C14.8707 8.03878 14.867 8.0768 14.8599 8.11362V12.2599C14.8599 13.6958 13.6958 14.8599 12.2599 14.8599H8.11362C8.0768 14.867 8.03878 14.8707 7.9999 14.8707C7.96102 14.8707 7.92301 14.867 7.88619 14.8599H3.73989C2.30396 14.8599 1.13989 13.6958 1.13989 12.2599V8.11352C1.13284 8.07673 1.12915 8.03875 1.12915 7.9999C1.12915 7.96106 1.13284 7.92308 1.13989 7.88629V3.73989C1.13989 2.30396 2.30395 1.13989 3.73989 1.13989H7.88629C7.92308 1.13284 7.96106 1.12915 7.9999 1.12915ZM2.33989 8.5999V12.2599C2.33989 13.0331 2.9667 13.6599 3.73989 13.6599H7.3999V8.5999H2.33989ZM7.3999 7.3999H2.33989V3.73989C2.33989 2.9667 2.96669 2.33989 3.73989 2.33989H7.3999V7.3999ZM8.5999 8.5999V13.6599H12.2599C13.0331 13.6599 13.6599 13.0331 13.6599 12.2599V8.5999H8.5999ZM13.6599 7.3999H8.5999V2.33989H12.2599C13.0331 2.33989 13.6599 2.96669 13.6599 3.73989V7.3999Z" fill="black"/>
</svg>
