<svg width="16" height="16" viewBox="0 0 16 16" fill="none" xmlns="http://www.w3.org/2000/svg">
<path fill-rule="evenodd" clip-rule="evenodd" d="M7.99996 1.06421C8.04082 1.06421 8.08082 1.06789 8.11965 1.07495H12.2599C13.7318 1.07495 14.925 2.26811 14.925 3.73995V7.88017C14.932 7.91903 14.9357 7.95906 14.9357 7.99996C14.9357 8.04086 14.932 8.0809 14.925 8.11976V12.2599C14.925 13.7318 13.7318 14.925 12.26 14.925H8.11976C8.0809 14.932 8.04086 14.9357 7.99996 14.9357C7.95906 14.9357 7.91903 14.932 7.88017 14.925H3.73995C2.26812 14.925 1.07495 13.7318 1.07495 12.26V8.11965C1.06789 8.08082 1.06421 8.04082 1.06421 7.99996C1.06421 7.9591 1.06789 7.9191 1.07495 7.88027V3.73995C1.07495 2.26812 2.26811 1.07495 3.73995 1.07495H7.88027C7.9191 1.06789 7.9591 1.06421 7.99996 1.06421ZM2.40495 8.66496V12.26C2.40495 12.9973 3.00265 13.595 3.73995 13.595H7.33496V8.66496H2.40495ZM7.33496 7.33496H2.40495V3.73995C2.40495 3.00265 3.00265 2.40495 3.73995 2.40495H7.33496V7.33496ZM8.66496 8.66496V13.595H12.26C12.9973 13.595 13.595 12.9973 13.595 12.2599V8.66496H8.66496ZM13.595 7.33496H8.66496V2.40495H12.2599C12.9973 2.40495 13.595 3.00265 13.595 3.73995V7.33496Z" fill="black"/>
</svg>
