<svg width="16" height="16" viewBox="0 0 16 16" fill="none" xmlns="http://www.w3.org/2000/svg">
<path fill-rule="evenodd" clip-rule="evenodd" d="M8.00012 1.66821C4.50325 1.66821 1.66846 4.50301 1.66846 7.99988C1.66846 11.4967 4.50325 14.3315 8.00012 14.3315C9.50898 14.3315 10.8946 13.8038 11.9824 12.9227L13.1968 14.1369C13.4565 14.3965 13.8776 14.3965 14.1372 14.1368C14.3969 13.877 14.3969 13.456 14.1371 13.1963L12.9228 11.9823C13.8039 10.8945 14.3318 9.50882 14.3318 7.99988C14.3318 4.50301 11.497 1.66821 8.00012 1.66821ZM2.99846 7.99988C2.99846 5.23755 5.23779 2.99821 8.00012 2.99821C10.7625 2.99821 13.0018 5.23755 13.0018 7.99988C13.0018 10.7622 10.7625 13.0015 8.00012 13.0015C5.23779 13.0015 2.99846 10.7622 2.99846 7.99988ZM8.66496 5.99984C8.66496 5.63257 8.36723 5.33484 7.99996 5.33484C7.63269 5.33484 7.33496 5.63257 7.33496 5.99984V7.33831L6.00447 7.34004C5.6372 7.34052 5.33985 7.63864 5.34033 8.0059C5.34081 8.37317 5.63893 8.67052 6.0062 8.67004L7.33496 8.66831V9.99984C7.33496 10.3671 7.63269 10.6648 7.99996 10.6648C8.36723 10.6648 8.66496 10.3671 8.66496 9.99984V8.66658L10.001 8.66484C10.3683 8.66436 10.6656 8.36624 10.6651 7.99897C10.6647 7.6317 10.3665 7.33436 9.99927 7.33484L8.66496 7.33658V5.99984Z" fill="black"/>
</svg>
