<svg width="16" height="16" viewBox="0 0 16 16" fill="none" xmlns="http://www.w3.org/2000/svg">
<path fill-rule="evenodd" clip-rule="evenodd" d="M3.19424 1.33496C2.16422 1.33492 1.32919 2.16989 1.32916 3.19991L1.3291 5.46643C1.32907 6.49646 2.16407 7.33148 3.1941 7.33148H5.46074C6.49075 7.33148 7.32574 6.49649 7.32574 5.46648V3.20006C7.32574 2.17008 6.4908 1.3351 5.46082 1.33506L3.19424 1.33496ZM2.65916 3.19995C2.65917 2.90447 2.89871 2.66495 3.19419 2.66496L5.46076 2.66506C5.75622 2.66507 5.99574 2.9046 5.99574 3.20006V5.46648C5.99574 5.76196 5.75621 6.00148 5.46074 6.00148H3.1941C2.89862 6.00148 2.65909 5.76195 2.6591 5.46647L2.65916 3.19995Z" fill="black"/>
<path fill-rule="evenodd" clip-rule="evenodd" d="M10.539 1.33496C9.50895 1.33492 8.67392 2.16989 8.67389 3.19991L8.67383 5.46643C8.6738 6.49646 9.5088 7.33148 10.5388 7.33148H12.8055C13.8355 7.33148 14.6705 6.49649 14.6705 5.46648V3.20006C14.6705 2.17008 13.8355 1.3351 12.8055 1.33506L10.539 1.33496ZM10.0039 3.19995C10.0039 2.90447 10.2434 2.66495 10.5389 2.66496L12.8055 2.66506C13.1009 2.66507 13.3405 2.9046 13.3405 3.20006V5.46648C13.3405 5.76196 13.1009 6.00148 12.8055 6.00148H10.5388C10.2433 6.00148 10.0038 5.76195 10.0038 5.46647L10.0039 3.19995Z" fill="black"/>
<path fill-rule="evenodd" clip-rule="evenodd" d="M3.19424 8.66846C2.16422 8.66841 1.32919 9.50338 1.32916 10.5334L1.3291 12.7999C1.32907 13.83 2.16407 14.665 3.1941 14.665H5.46074C6.49075 14.665 7.32574 13.83 7.32574 12.8V10.5336C7.32574 9.50358 6.4908 8.6686 5.46082 8.66856L3.19424 8.66846ZM2.65916 10.5334C2.65917 10.238 2.89871 9.99844 3.19419 9.99846L5.46076 9.99855C5.75622 9.99857 5.99574 10.2381 5.99574 10.5336V12.8C5.99574 13.0955 5.75621 13.335 5.46074 13.335H3.1941C2.89862 13.335 2.65909 13.0954 2.6591 12.8L2.65916 10.5334Z" fill="black"/>
<path fill-rule="evenodd" clip-rule="evenodd" d="M10.539 8.66846C9.50895 8.66841 8.67392 9.50338 8.67389 10.5334L8.67383 12.7999C8.6738 13.83 9.5088 14.665 10.5388 14.665H12.8055C13.8355 14.665 14.6705 13.83 14.6705 12.8V10.5336C14.6705 9.50358 13.8355 8.6686 12.8055 8.66856L10.539 8.66846ZM10.0039 10.5334C10.0039 10.238 10.2434 9.99844 10.5389 9.99846L12.8055 9.99855C13.1009 9.99857 13.3405 10.2381 13.3405 10.5336V12.8C13.3405 13.0955 13.1009 13.335 12.8055 13.335H10.5388C10.2433 13.335 10.0038 13.0954 10.0038 12.8L10.0039 10.5334Z" fill="black"/>
</svg>
