<svg width="20" height="21" viewBox="0 0 20 21" fill="none" xmlns="http://www.w3.org/2000/svg">
<path fill-rule="evenodd" clip-rule="evenodd" d="M11.0936 17.3406C11.1522 17.1992 11.1522 17.02 11.1522 16.6616V7.61701L14.0776 10.5424C14.3311 10.7959 14.4578 10.9226 14.5991 10.9811C14.7876 11.0592 14.9994 11.0592 15.1879 10.9811C15.3292 10.9226 15.456 10.7959 15.7094 10.5424C15.9628 10.289 16.0896 10.1623 16.1481 10.0209C16.2262 9.83243 16.2262 9.62066 16.1481 9.43217C16.0896 9.29081 15.9628 9.16409 15.7094 8.91065L10.9645 4.16576C10.9207 4.12105 10.8714 4.07178 10.8161 4.01648L10.8159 4.0163C10.5916 3.792 10.4666 3.66696 10.3428 3.60058C10.3261 3.59154 10.3094 3.58358 10.2925 3.57658C10.104 3.49851 9.89226 3.49851 9.70378 3.57658C9.56242 3.63514 9.4357 3.76186 9.18226 4.0153C9.09955 4.09801 9.03034 4.16722 8.97258 4.22785L4.28878 8.91166C4.03534 9.1651 3.90862 9.29182 3.85006 9.43318C3.77199 9.62166 3.77199 9.83344 3.85006 10.0219C3.90862 10.1633 4.03534 10.29 4.28878 10.5434C4.54221 10.7969 4.66893 10.9236 4.8103 10.9822C4.99878 11.0602 5.21056 11.0602 5.39904 10.9822C5.5404 10.9236 5.66712 10.7969 5.92056 10.5434L5.92056 10.5434L8.84449 7.61951V16.6616C8.84449 17.02 8.84449 17.1992 8.90305 17.3406C8.98112 17.5291 9.13087 17.6788 9.31935 17.7569C9.46072 17.8154 9.63992 17.8154 9.99834 17.8154C10.3568 17.8154 10.536 17.8154 10.6773 17.7569C10.8658 17.6788 11.0156 17.5291 11.0936 17.3406Z" fill="black"/>
</svg>
