<svg width="20" height="21" viewBox="0 0 20 21" fill="none" xmlns="http://www.w3.org/2000/svg">
<path fill-rule="evenodd" clip-rule="evenodd" d="M6.05431 16.1597C6.19567 16.1012 6.32239 15.9745 6.57583 15.721L12.9712 9.32568L12.9712 13.4626C12.9712 13.821 12.9712 14.0002 13.0297 14.1416C13.1078 14.3301 13.2576 14.4798 13.446 14.5579C13.5874 14.6164 13.7666 14.6164 14.125 14.6164C14.4834 14.6164 14.6626 14.6164 14.804 14.5579C14.9925 14.4798 15.1422 14.3301 15.2203 14.1416C15.2789 14.0002 15.2789 13.821 15.2789 13.4626L15.2789 6.75233C15.2795 6.68972 15.2795 6.62004 15.2795 6.54182L15.2795 6.54157C15.2795 6.22585 15.2795 6.04918 15.2395 5.91495C15.2339 5.89605 15.2276 5.878 15.2203 5.86053C15.1422 5.67204 14.9925 5.52229 14.804 5.44422C14.6626 5.38567 14.4834 5.38567 14.125 5.38567L14.125 5.38567C14.0075 5.38567 13.9093 5.38567 13.8254 5.38773L7.20256 5.38773C6.84414 5.38773 6.66493 5.38773 6.52357 5.44628C6.33509 5.52436 6.18534 5.6741 6.10727 5.86259C6.04871 6.00395 6.04871 6.18315 6.04871 6.54156V6.54157L6.04871 6.54159C6.04871 6.9 6.04871 7.0792 6.10727 7.22056C6.18534 7.40905 6.33509 7.55879 6.52357 7.63687C6.66493 7.69542 6.84414 7.69542 7.20256 7.69542H11.3379L4.94405 14.0892C4.69061 14.3427 4.56389 14.4694 4.50533 14.6108C4.42726 14.7992 4.42726 15.011 4.50533 15.1995C4.56389 15.3409 4.69061 15.4676 4.94405 15.721C5.19749 15.9745 5.32421 16.1012 5.46557 16.1597C5.65405 16.2378 5.86583 16.2378 6.05431 16.1597Z" fill="black"/>
</svg>
