<svg width="16" height="16" viewBox="0 0 16 16" fill="none" xmlns="http://www.w3.org/2000/svg">
<path d="M2.66496 2.20016C2.66496 1.83289 2.36723 1.53516 1.99996 1.53516C1.63269 1.53516 1.33496 1.83289 1.33496 2.20016V13.8002C1.33496 14.1674 1.63269 14.4652 1.99996 14.4652C2.36723 14.4652 2.66496 14.1674 2.66496 13.8002V2.20016Z" fill="black"/>
<path d="M14.665 2.20016C14.665 1.83289 14.3672 1.53516 14 1.53516C13.6327 1.53516 13.335 1.83289 13.335 2.20016V13.8002C13.335 14.1674 13.6327 14.4652 14 14.4652C14.3672 14.4652 14.665 14.1674 14.665 13.8002V2.20016Z" fill="black"/>
<path d="M6.47002 8.19648C6.72972 8.45618 6.72972 8.87724 6.47002 9.13694L6.27188 9.33508H9.33313C10.0704 9.33508 10.6681 8.73738 10.6681 8.00008C10.6681 7.26279 10.0704 6.66508 9.33313 6.66508H4.66646C4.2992 6.66508 4.00146 6.36735 4.00146 6.00008C4.00146 5.63281 4.2992 5.33508 4.66646 5.33508H9.33313C10.805 5.33508 11.9981 6.52825 11.9981 8.00008C11.9981 9.47192 10.805 10.6651 9.33313 10.6651H6.27196L6.47002 10.8631C6.72972 11.1228 6.72972 11.5439 6.47002 11.8036C6.21033 12.0633 5.78927 12.0633 5.52957 11.8036L4.19624 10.4703C3.93654 10.2106 3.93654 9.78951 4.19624 9.52982L5.52957 8.19648C5.78927 7.93678 6.21033 7.93678 6.47002 8.19648Z" fill="black"/>
</svg>
