<svg width="16" height="16" viewBox="0 0 16 16" fill="none" xmlns="http://www.w3.org/2000/svg">
<path fill-rule="evenodd" clip-rule="evenodd" d="M2.43156 2.66695C2.43156 2.29968 2.13383 2.00195 1.76656 2.00195C1.39929 2.00195 1.10156 2.29968 1.10156 2.66695V13.3336C1.10156 13.7009 1.39929 13.9986 1.76656 13.9986C2.13383 13.9986 2.43156 13.7009 2.43156 13.3336V2.66695ZM14.8984 2.66695C14.8984 2.29968 14.6006 2.00195 14.2334 2.00195C13.8661 2.00195 13.5684 2.29968 13.5684 2.66695V13.3336C13.5684 13.7009 13.8661 13.9986 14.2334 13.9986C14.6006 13.9986 14.8984 13.7009 14.8984 13.3336V2.66695ZM7.00038 4.77628C7.34171 3.84492 8.65896 3.84492 9.0003 4.77628L11.4247 11.3915C11.5511 11.7364 11.374 12.1184 11.0292 12.2447C10.6843 12.3711 10.3023 12.194 10.1759 11.8492L9.45956 9.89445H6.5815C6.56809 9.89445 6.55477 9.89406 6.54155 9.89327L5.82473 11.8492C5.69834 12.194 5.31634 12.3711 4.9715 12.2447C4.62666 12.1184 4.44957 11.7364 4.57595 11.3915L7.00038 4.77628ZM7.02855 8.56445H8.97212L8.00034 5.91286L7.02855 8.56445Z" fill="black"/>
</svg>
