<svg width="16" height="16" viewBox="0 0 16 16" fill="none" xmlns="http://www.w3.org/2000/svg">
<path fill-rule="evenodd" clip-rule="evenodd" d="M3.04928 1.41309C2.12972 1.41309 1.38428 2.15853 1.38428 3.07809V5.67809C1.38428 6.59764 2.12972 7.34309 3.04928 7.34309H5.64928C6.56883 7.34309 7.31428 6.59764 7.31428 5.67809V3.07809C7.31428 2.15853 6.56883 1.41309 5.64928 1.41309H3.04928ZM2.71428 3.07809C2.71428 2.89307 2.86426 2.74309 3.04928 2.74309H5.64928C5.83429 2.74309 5.98428 2.89307 5.98428 3.07809V5.67809C5.98428 5.8631 5.83429 6.01309 5.64928 6.01309H3.04928C2.86426 6.01309 2.71428 5.8631 2.71428 5.67809V3.07809Z" fill="black"/>
<path fill-rule="evenodd" clip-rule="evenodd" d="M10.3505 1.41309C9.43099 1.41309 8.68555 2.15853 8.68555 3.07809V5.67809C8.68555 6.59764 9.43099 7.34309 10.3505 7.34309H12.9505C13.8701 7.34309 14.6155 6.59764 14.6155 5.67809V3.07809C14.6155 2.15853 13.8701 1.41309 12.9505 1.41309H10.3505ZM10.0155 3.07809C10.0155 2.89307 10.1655 2.74309 10.3505 2.74309H12.9505C13.1356 2.74309 13.2855 2.89307 13.2855 3.07809V5.67809C13.2855 5.8631 13.1356 6.01309 12.9505 6.01309H10.3505C10.1655 6.01309 10.0155 5.8631 10.0155 5.67809V3.07809Z" fill="black"/>
<path d="M11.6505 8.65616C11.2833 8.65616 10.9855 8.95389 10.9855 9.32116V10.9566H9.35005C8.98278 10.9566 8.68505 11.2544 8.68505 11.6216C8.68505 11.9889 8.98278 12.2866 9.35005 12.2866H10.9855V13.9221C10.9855 14.2894 11.2833 14.5871 11.6505 14.5871C12.0178 14.5871 12.3155 14.2894 12.3155 13.9221V12.2866H13.951C14.3183 12.2866 14.616 11.9889 14.616 11.6216C14.616 11.2544 14.3183 10.9566 13.951 10.9566H12.3155V9.32116C12.3155 8.95389 12.0178 8.65616 11.6505 8.65616Z" fill="black"/>
<path fill-rule="evenodd" clip-rule="evenodd" d="M3.04928 8.65674C2.12972 8.65674 1.38428 9.40218 1.38428 10.3217V12.9217C1.38428 13.8413 2.12972 14.5867 3.04928 14.5867H5.64928C6.56883 14.5867 7.31428 13.8413 7.31428 12.9217V10.3217C7.31428 9.40218 6.56883 8.65674 5.64928 8.65674H3.04928ZM2.71428 10.3217C2.71428 10.1367 2.86426 9.98674 3.04928 9.98674H5.64928C5.83429 9.98674 5.98428 10.1367 5.98428 10.3217V12.9217C5.98428 13.1068 5.83429 13.2567 5.64928 13.2567H3.04928C2.86426 13.2567 2.71428 13.1068 2.71428 12.9217V10.3217Z" fill="black"/>
</svg>
