<svg width="16" height="16" viewBox="0 0 16 16" fill="none" xmlns="http://www.w3.org/2000/svg">
<path d="M1.99996 1.30176C1.63269 1.30176 1.33496 1.59949 1.33496 1.96676C1.33496 2.33403 1.63269 2.63176 1.99996 2.63176H14C14.3672 2.63176 14.665 2.33403 14.665 1.96676C14.665 1.59949 14.3672 1.30176 14 1.30176H1.99996Z" fill="black"/>
<path d="M1.99996 13.3685C1.63269 13.3685 1.33496 13.6663 1.33496 14.0335C1.33496 14.4008 1.63269 14.6985 1.99996 14.6985H14C14.3672 14.6985 14.665 14.4008 14.665 14.0335C14.665 13.6663 14.3672 13.3685 14 13.3685H1.99996Z" fill="black"/>
<path fill-rule="evenodd" clip-rule="evenodd" d="M7.00038 4.6755C7.34171 3.74413 8.65896 3.74413 9.0003 4.6755L11.4247 11.2907C11.5511 11.6356 11.374 12.0176 11.0292 12.1439C10.6843 12.2703 10.3023 12.0932 10.1759 11.7484L9.45956 9.79367H6.5815C6.56809 9.79367 6.55477 9.79327 6.54155 9.79249L5.82473 11.7484C5.69834 12.0932 5.31634 12.2703 4.9715 12.1439C4.62666 12.0176 4.44957 11.6356 4.57595 11.2907L7.00038 4.6755ZM7.02855 8.46367H8.97212L8.00034 5.81208L7.02855 8.46367Z" fill="black"/>
</svg>
