<svg width="16" height="16" viewBox="0 0 16 16" fill="none" xmlns="http://www.w3.org/2000/svg">
<path fill-rule="evenodd" clip-rule="evenodd" d="M2.30824 4.64274C2.63358 3.67541 4.00177 3.6754 4.32711 4.64274L6.08778 9.87775C6.20486 10.2259 6.01757 10.603 5.66947 10.72C5.32136 10.8371 4.94425 10.6498 4.82717 10.3017L4.2331 8.53538H2.40225L1.80818 10.3017C1.6911 10.6498 1.314 10.8371 0.965888 10.72C0.617779 10.603 0.430492 10.2259 0.54757 9.87775L2.30824 4.64274ZM3.31768 5.81353L3.78579 7.20538H2.84956L3.31768 5.81353Z" fill="black"/>
<path d="M7.34679 10.0403C7.70436 10.9316 8.96604 10.9316 9.32362 10.0403L10.7015 6.60595C10.8383 6.26509 10.6728 5.87791 10.332 5.74116C9.99109 5.6044 9.60391 5.76986 9.46716 6.11072L8.3352 8.93206L7.20325 6.11072C7.06649 5.76986 6.67931 5.6044 6.33845 5.74116C5.99759 5.87791 5.83213 6.26509 5.96889 6.60595L7.34679 10.0403Z" fill="black"/>
<path fill-rule="evenodd" clip-rule="evenodd" d="M14.8178 5.62109C15.1851 5.62109 15.4828 5.91883 15.4828 6.28609V7.82613L15.4828 10.8448C15.4828 12.0005 14.5459 12.9374 13.3902 12.9374H12.8888C11.7763 12.9374 10.8745 12.0356 10.8745 10.9231C10.8745 10.5558 11.1722 10.2581 11.5395 10.2581C11.9068 10.2581 12.2045 10.5558 12.2045 10.9231C12.2045 11.3011 12.5109 11.6074 12.8888 11.6074H13.3902C13.8114 11.6074 14.1528 11.266 14.1528 10.8448L14.1528 9.91484C13.8569 10.0531 13.5268 10.1303 13.1787 10.1303C11.9061 10.1303 10.8745 9.09868 10.8745 7.82613C10.8745 6.55358 11.9061 5.52197 13.1787 5.52197C13.5991 5.52197 13.9933 5.6346 14.3326 5.83132C14.454 5.70193 14.6265 5.62109 14.8178 5.62109ZM14.1528 7.82434C14.1519 7.28715 13.7161 6.85197 13.1787 6.85197C12.6407 6.85197 12.2045 7.28812 12.2045 7.82613C12.2045 8.36414 12.6407 8.80029 13.1787 8.80029C13.7161 8.80029 14.1519 8.36511 14.1528 7.82792L14.1528 7.82613L14.1528 7.82434Z" fill="black"/>
</svg>
