<svg width="17" height="17" viewBox="0 0 17 17" fill="none" xmlns="http://www.w3.org/2000/svg">
<mask id="mask0_436_28" style="mask-type:alpha" maskUnits="userSpaceOnUse" x="0" y="0" width="17" height="17">
<rect x="0.352783" y="0.717773" width="16" height="16" fill="#D9D9D9"/>
</mask>
<g mask="url(#mask0_436_28)">
<path fill-rule="evenodd" clip-rule="evenodd" d="M13.5853 14.7987L2.27159 3.485L3.12012 2.63647L14.4338 13.9502L13.5853 14.7987Z" fill="black"/>
<path fill-rule="evenodd" clip-rule="evenodd" d="M1.69629 12.8102L1.69629 14.1743C1.69629 14.8371 2.23355 15.3743 2.89629 15.3743L4.26042 15.3743L4.26042 14.0443L3.02629 14.0443L3.02629 12.8102L1.69629 12.8102ZM4.26042 2.06128L2.89629 2.06128C2.23355 2.06128 1.69629 2.59854 1.69629 3.26128L1.69629 4.62541L3.02629 4.62541L3.02629 3.39128L4.26042 3.39128L4.26042 2.06128ZM1.69629 10.0819L3.02629 10.0819L3.02629 7.35367L1.69629 7.35367L1.69629 10.0819ZM6.98868 2.06128L6.98868 3.39128L9.71693 3.39128L9.71693 2.06128L6.98868 2.06128ZM12.4452 2.06128L12.4452 3.39128L13.6793 3.39128L13.6793 4.62541L15.0093 4.62541L15.0093 3.26128C15.0093 2.59854 14.4721 2.06128 13.8093 2.06128L12.4452 2.06128ZM15.0093 7.35367L13.6793 7.35367L13.6793 10.0819L15.0093 10.0819L15.0093 7.35367ZM15.0093 12.8102L13.6793 12.8102L13.6793 14.0443L12.4452 14.0443L12.4452 15.3743L13.8093 15.3743C14.4721 15.3743 15.0093 14.8371 15.0093 14.1743L15.0093 12.8102ZM9.71693 15.3743L9.71693 14.0443L6.98868 14.0443L6.98868 15.3743L9.71693 15.3743Z" fill="#E5E5E5"/>
</g>
</svg>
