<svg width="17" height="16" viewBox="0 0 17 16" fill="none" xmlns="http://www.w3.org/2000/svg">
<path fill-rule="evenodd" clip-rule="evenodd" d="M4.48922 1.06494C3.01738 1.06494 1.82422 2.2581 1.82422 3.72994V12.2699C1.82422 13.7418 3.01738 14.9349 4.48922 14.9349H13.0292C14.5011 14.9349 15.6942 13.7418 15.6942 12.2699V3.72994C15.6942 2.2581 14.5011 1.06494 13.0292 1.06494H4.48922ZM4.14075 2.44088C4.25184 2.41092 4.36866 2.39494 4.48922 2.39494H13.0292C13.7665 2.39494 14.3642 2.99264 14.3642 3.72994V12.2699C14.3642 12.3905 14.3482 12.5073 14.3183 12.6184L4.14075 2.44088ZM3.20022 3.38125C3.17022 3.4924 3.15422 3.6093 3.15422 3.72994V12.2699C3.15422 13.0072 3.75192 13.6049 4.48922 13.6049H13.0292C13.1499 13.6049 13.2668 13.5889 13.3779 13.5589L3.20022 3.38125Z" fill="black"/>
</svg>
