<svg width="16" height="16" viewBox="0 0 16 16" fill="none" xmlns="http://www.w3.org/2000/svg">
<path d="M1.39395 8.94472C1.36156 9.33338 1.66829 9.66675 2.05831 9.66675H3.33378C3.70198 9.66675 4.00045 9.36828 4.00045 9.00008V2.33341C4.00045 1.96522 3.70198 1.66675 3.33378 1.66675H2.61387C2.26714 1.66675 1.9783 1.93252 1.9495 2.27805L1.39395 8.94472Z" fill="black"/>
<path d="M6.00045 8.87525C6.00045 9.15381 6.17358 9.40315 6.42555 9.52191C6.97505 9.78095 7.91141 10.3021 8.33378 11.0066C8.87815 11.9144 8.98081 13.5547 8.99751 13.9305C8.99985 13.9831 8.99835 14.0357 9.00558 14.0879C9.09581 14.7386 10.3519 13.9784 10.8338 13.1747C11.0953 12.7385 11.1288 12.1654 11.1013 11.718C11.0719 11.2392 10.9315 10.7768 10.7938 10.3173L10.5004 9.33858H14.1194C14.5615 9.33858 14.8811 8.91615 14.761 8.49072L12.9709 2.15222C12.8898 1.86505 12.6277 1.66675 12.3293 1.66675H6.66711C6.29891 1.66675 6.00045 1.96522 6.00045 2.33341V8.87525Z" fill="black"/>
<path d="M1.39395 8.94472C1.36156 9.33338 1.66829 9.66675 2.05831 9.66675H3.33378C3.70198 9.66675 4.00045 9.36828 4.00045 9.00008V2.33341C4.00045 1.96522 3.70198 1.66675 3.33378 1.66675H2.61387C2.26714 1.66675 1.9783 1.93252 1.9495 2.27805L1.39395 8.94472Z" stroke="black" stroke-width="1.33" stroke-linecap="round" stroke-linejoin="round"/>
<path d="M6.00045 8.87525C6.00045 9.15381 6.17358 9.40315 6.42555 9.52191C6.97505 9.78095 7.91141 10.3021 8.33378 11.0066C8.87815 11.9144 8.98081 13.5547 8.99751 13.9305C8.99985 13.9831 8.99835 14.0357 9.00558 14.0879C9.09581 14.7386 10.3519 13.9784 10.8338 13.1747C11.0953 12.7385 11.1288 12.1654 11.1013 11.718C11.0719 11.2392 10.9315 10.7768 10.7938 10.3173L10.5004 9.33858H14.1194C14.5615 9.33858 14.8811 8.91615 14.761 8.49072L12.9709 2.15222C12.8898 1.86505 12.6277 1.66675 12.3293 1.66675H6.66711C6.29891 1.66675 6.00045 1.96522 6.00045 2.33341V8.87525Z" stroke="black" stroke-width="1.33" stroke-linecap="round" stroke-linejoin="round"/>
</svg>
