<svg width="16" height="16" viewBox="0 0 16 16" fill="none" xmlns="http://www.w3.org/2000/svg">
<path d="M11.6666 4.00016H10.138C9.84099 4.00016 9.69226 4.3592 9.90226 4.5692L11.4309 6.0978C11.6409 6.3078 11.9999 6.15906 11.9999 5.8621V4.3335C11.9999 4.1494 11.8507 4.00016 11.6666 4.00016Z" fill="black"/>
<path d="M3.99992 5.8621V4.3335C3.99992 4.1494 4.14915 4.00016 4.33325 4.00016H5.86185C6.15882 4.00016 6.30755 4.3592 6.09755 4.5692L4.56895 6.0978C4.35895 6.3078 3.99992 6.15906 3.99992 5.8621Z" fill="black"/>
<path d="M4.33325 12.0001H5.86185C6.15882 12.0001 6.30755 11.6411 6.09755 11.4311L4.56895 9.9025C4.35895 9.6925 3.99992 9.84124 3.99992 10.1382V11.6668C3.99992 11.8509 4.14915 12.0001 4.33325 12.0001Z" fill="black"/>
<path d="M11.9999 10.1382V11.6668C11.9999 11.8509 11.8507 12.0001 11.6666 12.0001H10.138C9.84099 12.0001 9.69226 11.6411 9.90226 11.4311L11.4309 9.9025C11.6409 9.6925 11.9999 9.84124 11.9999 10.1382Z" fill="black"/>
<path fill-rule="evenodd" clip-rule="evenodd" d="M1.33325 3.00016C1.33325 2.07969 2.07944 1.3335 2.99992 1.3335H12.9999C13.9204 1.3335 14.6666 2.07969 14.6666 3.00016V13.0002C14.6666 13.9206 13.9204 14.6668 12.9999 14.6668H2.99992C2.07944 14.6668 1.33325 13.9206 1.33325 13.0002V3.00016ZM2.99992 2.66683C2.81582 2.66683 2.66659 2.81607 2.66659 3.00016V13.0002C2.66659 13.1843 2.81582 13.3335 2.99992 13.3335H12.9999C13.184 13.3335 13.3333 13.1843 13.3333 13.0002V3.00016C13.3333 2.81607 13.184 2.66683 12.9999 2.66683H2.99992Z" fill="black"/>
</svg>
