<svg width="16" height="16" viewBox="0 0 16 16" fill="none" xmlns="http://www.w3.org/2000/svg">
<path d="M3.66598 4.87354C3.29871 4.87354 3.00098 5.17127 3.00098 5.53854V6.87187C3.00098 7.23914 3.29871 7.53687 3.66598 7.53687C4.03325 7.53687 4.33098 7.23914 4.33098 6.87187V5.53854C4.33098 5.17127 4.03325 4.87354 3.66598 4.87354Z" fill="black"/>
<path d="M3.66598 8.13916C3.29871 8.13916 3.00098 8.43689 3.00098 8.80416C3.00098 9.17143 3.29871 9.46916 3.66598 9.46916C4.03325 9.46916 4.33098 9.17143 4.33098 8.80416C4.33098 8.43689 4.03325 8.13916 3.66598 8.13916Z" fill="black"/>
<path d="M3.66598 10.1392C3.29871 10.1392 3.00098 10.4369 3.00098 10.8042C3.00098 11.1714 3.29871 11.4692 3.66598 11.4692C4.03325 11.4692 4.33098 11.1714 4.33098 10.8042C4.33098 10.4369 4.03325 10.1392 3.66598 10.1392Z" fill="black"/>
<path d="M12.7175 4.65936C12.4174 4.44757 12.0025 4.51911 11.7907 4.81915L7.79071 10.4858C7.57891 10.7859 7.65045 11.2008 7.9505 11.4126C8.25055 11.6244 8.66548 11.5529 8.87728 11.2528L12.8773 5.58614C13.0891 5.28609 13.0175 4.87116 12.7175 4.65936Z" fill="black"/>
<path fill-rule="evenodd" clip-rule="evenodd" d="M15.3313 4.36275C15.3313 2.89072 14.1379 1.69748 12.6659 1.69775H3.33427C1.86231 1.69757 0.668945 2.89079 0.668945 4.36276V11.6365C0.668945 13.1084 1.86211 14.3015 3.33395 14.3015L12.6663 14.3024C14.1382 14.3024 15.3313 13.1093 15.3313 11.6374V4.36275ZM1.99895 4.36276C1.99895 3.62539 2.59675 3.02766 3.33411 3.02775L5.33561 3.02801V12.9715H3.33395C2.59665 12.9715 1.99895 12.3738 1.99895 11.6365V4.36276ZM6.66561 12.9724V3.02888L12.6661 3.02775C13.4035 3.02762 14.0013 3.62536 14.0013 4.36275V11.6374C14.0013 12.3747 13.4036 12.9724 12.6663 12.9724H6.66561Z" fill="black"/>
</svg>
