<svg width="16" height="16" viewBox="0 0 16 16" fill="none" xmlns="http://www.w3.org/2000/svg">
<path d="M12.8241 5.5486C13.0152 5.27788 12.9507 4.9035 12.6799 4.71241C12.4092 4.52131 12.0349 4.58586 11.8438 4.85658L7.84376 10.5232C7.65266 10.794 7.71721 11.1683 7.98793 11.3594C8.25865 11.5505 8.63302 11.486 8.82412 11.2153L12.8241 5.5486Z" fill="black"/>
<path d="M3.66592 4.93848C3.99729 4.93848 4.26592 5.20711 4.26592 5.53848V6.87181C4.26592 7.20318 3.99729 7.47181 3.66592 7.47181C3.33455 7.47181 3.06592 7.20318 3.06592 6.87181V5.53848C3.06592 5.20711 3.33455 4.93848 3.66592 4.93848Z" fill="black"/>
<path d="M4.26592 8.8041C4.26592 8.47273 3.99729 8.2041 3.66592 8.2041C3.33455 8.2041 3.06592 8.47273 3.06592 8.8041C3.06592 9.13547 3.33455 9.4041 3.66592 9.4041C3.99729 9.4041 4.26592 9.13547 4.26592 8.8041Z" fill="black"/>
<path d="M3.66592 10.2041C3.99729 10.2041 4.26592 10.4727 4.26592 10.8041C4.26592 11.1355 3.99729 11.4041 3.66592 11.4041C3.33455 11.4041 3.06592 11.1355 3.06592 10.8041C3.06592 10.4727 3.33455 10.2041 3.66592 10.2041Z" fill="black"/>
<path fill-rule="evenodd" clip-rule="evenodd" d="M12.6658 1.7627C14.1019 1.76243 15.2663 2.92656 15.2663 4.3627V11.6374C15.2663 13.0733 14.1022 14.2374 12.6663 14.2374L3.33389 14.2365C1.89795 14.2365 0.733887 13.0724 0.733887 11.6365V4.3627C0.733887 2.92663 1.89815 1.76251 3.33422 1.7627H12.6658ZM12.666 2.9627C13.4393 2.96255 14.0663 3.58939 14.0663 4.3627V11.6374C14.0663 12.4106 13.4395 13.0374 12.6663 13.0374H6.60055V2.96383L12.666 2.9627ZM1.93389 4.3627C1.93389 3.58943 2.5608 2.9626 3.33406 2.9627L5.40055 2.96296V13.0365H3.33389C2.56069 13.0365 1.93389 12.4097 1.93389 11.6365V4.3627Z" fill="black"/>
</svg>
