<svg width="16" height="16" viewBox="0 0 16 16" fill="none" xmlns="http://www.w3.org/2000/svg">
<path fill-rule="evenodd" clip-rule="evenodd" d="M4.65797 1.23511C3.73771 1.23511 2.9917 1.98112 2.9917 2.90138V12.8589C2.9917 13.9115 3.84502 14.7648 4.89765 14.7648H9.10166C11.2593 14.7648 13.0084 13.0157 13.0084 10.8581C13.0084 9.14694 11.9082 7.69272 10.3766 7.16419C10.9682 6.53448 11.3306 5.68695 11.3306 4.75477C11.3306 2.81092 9.75479 1.23511 7.81093 1.23511H4.65797ZM4.3217 2.90138C4.3217 2.71566 4.47225 2.56511 4.65797 2.56511H7.81093C9.02025 2.56511 10.0006 3.54545 10.0006 4.75477C10.0006 5.96409 9.02025 6.94444 7.81093 6.94444H4.3217V2.90138ZM4.3217 12.8589V8.28141H9.10166C10.5247 8.28141 11.6784 9.43504 11.6784 10.8581C11.6784 12.2812 10.5247 13.4348 9.10166 13.4348H4.89765C4.57956 13.4348 4.3217 13.177 4.3217 12.8589Z" fill="black"/>
</svg>
