<svg width="16" height="16" viewBox="0 0 16 16" fill="none" xmlns="http://www.w3.org/2000/svg">
<path d="M7.33472 10.2092C7.33472 9.84196 7.63245 9.54423 7.99972 9.54423C8.36699 9.54423 8.66472 9.84196 8.66472 10.2092V12.5609L9.52949 11.6962C9.78919 11.4365 10.2102 11.4365 10.4699 11.6962C10.7296 11.9559 10.7296 12.3769 10.4699 12.6366L8.47907 14.6275C8.35819 14.7529 8.18779 14.8315 7.99972 14.8315C7.81163 14.8315 7.64169 14.7534 7.52081 14.6279L5.52949 12.6366C5.26979 12.3769 5.26979 11.9559 5.52949 11.6962C5.78919 11.4365 6.21024 11.4365 6.46994 11.6962L7.33472 12.5609V10.2092Z" fill="black"/>
<path fill-rule="evenodd" clip-rule="evenodd" d="M1.10986 7.00004C1.10986 7.91959 1.85531 8.66504 2.77486 8.66504H13.0749C13.9944 8.66504 14.7399 7.91959 14.7399 7.00004C14.7399 6.08048 13.9944 5.33504 13.0749 5.33504H2.77486C1.85531 5.33504 1.10986 6.08048 1.10986 7.00004ZM2.77486 7.33504C2.58985 7.33504 2.43986 7.18505 2.43986 7.00004C2.43986 6.81503 2.58985 6.66504 2.77486 6.66504H13.0749C13.2599 6.66504 13.4099 6.81502 13.4099 7.00004C13.4099 7.18505 13.2599 7.33504 13.0749 7.33504H2.77486Z" fill="black"/>
<path fill-rule="evenodd" clip-rule="evenodd" d="M1.25977 2.83354C1.25977 3.75309 2.00521 4.49854 2.92477 4.49854H13.2248C14.1443 4.49854 14.8898 3.75309 14.8898 2.83354C14.8898 1.91398 14.1443 1.16854 13.2248 1.16854H2.92477C2.00521 1.16854 1.25977 1.91398 1.25977 2.83354ZM2.92477 3.16854C2.73975 3.16854 2.58977 3.01855 2.58977 2.83354C2.58977 2.64852 2.73975 2.49854 2.92477 2.49854H13.2248C13.4098 2.49854 13.5598 2.64852 13.5598 2.83354C13.5598 3.01855 13.4098 3.16854 13.2248 3.16854H2.92477Z" fill="black"/>
</svg>
