<svg width="16" height="16" viewBox="0 0 16 16" fill="none" xmlns="http://www.w3.org/2000/svg">
<path fill-rule="evenodd" clip-rule="evenodd" d="M2.59225 1.30176C1.67269 1.30176 0.927246 2.0472 0.927246 2.96676V4.96676C0.927246 5.88631 1.67269 6.63176 2.59225 6.63176H11.2695C12.189 6.63176 12.9345 5.88631 12.9345 4.96676V4.86491H13.7426V8.18648C13.7426 8.35511 13.6172 8.49745 13.45 8.51879L7.09694 9.32899C6.26556 9.43502 5.64258 10.1425 5.64258 10.9806V14.0332C5.64258 14.4005 5.94031 14.6982 6.30758 14.6982C6.67485 14.6982 6.97258 14.4005 6.97258 14.0332V10.9806C6.97258 10.812 7.09792 10.6696 7.2652 10.6483L13.6182 9.8381C14.4496 9.73207 15.0726 9.02459 15.0726 8.18648V4.19991C15.0726 3.83264 14.7748 3.53491 14.4076 3.53491H12.9345V2.96676C12.9345 2.0472 12.189 1.30176 11.2695 1.30176H2.59225ZM2.25725 2.96676C2.25725 2.78174 2.40723 2.63176 2.59225 2.63176H11.2695C11.4545 2.63176 11.6045 2.78174 11.6045 2.96676V4.96676C11.6045 5.15177 11.4545 5.30176 11.2695 5.30176H2.59225C2.40723 5.30176 2.25725 5.15177 2.25725 4.96676V2.96676Z" fill="black"/>
</svg>
