<svg width="16" height="16" viewBox="0 0 16 16" fill="none" xmlns="http://www.w3.org/2000/svg">
<path d="M8.66846 11.8327C8.66846 11.4655 8.96619 11.1677 9.33346 11.1677H11.3335C11.7007 11.1677 11.9985 11.4655 11.9985 11.8327C11.9985 12.2 11.7007 12.4977 11.3335 12.4977H9.33346C8.96619 12.4977 8.66846 12.2 8.66846 11.8327Z" fill="black"/>
<path d="M4.66646 11.1677C4.2992 11.1677 4.00146 11.4655 4.00146 11.8327C4.00146 12.2 4.2992 12.4977 4.66646 12.4977H6.66646C7.03373 12.4977 7.33146 12.2 7.33146 11.8327C7.33146 11.4655 7.03373 11.1677 6.66646 11.1677H4.66646Z" fill="black"/>
<path d="M8.66846 9.166C8.66846 8.79873 8.96619 8.501 9.33346 8.501H11.3335C11.7007 8.501 11.9985 8.79873 11.9985 9.166C11.9985 9.53327 11.7007 9.831 11.3335 9.831H9.33346C8.96619 9.831 8.66846 9.53327 8.66846 9.166Z" fill="black"/>
<path d="M4.66646 8.501C4.2992 8.501 4.00146 8.79873 4.00146 9.166C4.00146 9.53327 4.2992 9.831 4.66646 9.831H6.66646C7.03373 9.831 7.33146 9.53327 7.33146 9.166C7.33146 8.79873 7.03373 8.501 6.66646 8.501H4.66646Z" fill="black"/>
<path fill-rule="evenodd" clip-rule="evenodd" d="M5.92863 1.69991C5.92863 1.33264 5.6309 1.03491 5.26363 1.03491C4.89636 1.03491 4.59863 1.33264 4.59863 1.69991V2.27515H3.49996C2.02812 2.27515 0.834961 3.46831 0.834961 4.94015V12.3C0.834961 13.7718 2.02812 14.965 3.49996 14.965H12.5C13.9718 14.965 15.165 13.7718 15.165 12.3V4.94015C15.165 3.46831 13.9718 2.27515 12.5 2.27515H11.4023V1.69991C11.4023 1.33264 11.1045 1.03491 10.7373 1.03491C10.37 1.03491 10.0723 1.33264 10.0723 1.69991V2.27515H5.92863V1.69991ZM13.835 5.90537V4.94015C13.835 4.20285 13.2373 3.60515 12.5 3.60515H11.4023V4.09991C11.4023 4.46718 11.1045 4.76491 10.7373 4.76491C10.37 4.76491 10.0723 4.46718 10.0723 4.09991V3.60515H5.92863V4.09991C5.92863 4.46718 5.6309 4.76491 5.26363 4.76491C4.89636 4.76491 4.59863 4.46718 4.59863 4.09991V3.60515H3.49996C2.76266 3.60515 2.16496 4.20285 2.16496 4.94015V5.90537H13.835ZM2.16496 7.23537H13.835V12.3C13.835 13.0373 13.2373 13.635 12.5 13.635H3.49996C2.76266 13.635 2.16496 13.0373 2.16496 12.3V7.23537Z" fill="black"/>
</svg>
