<svg width="16" height="16" viewBox="0 0 16 16" fill="none" xmlns="http://www.w3.org/2000/svg">
<path d="M12.594 1.07397L10.6608 1.07401C9.52046 1.07404 8.596 1.99839 8.59585 3.13873L8.5957 4.19171C8.59565 4.55898 8.89334 4.85675 9.26061 4.8568C9.62788 4.85686 9.92565 4.55917 9.9257 4.1919L9.92585 3.13891C9.9259 2.73303 10.2549 2.40402 10.6608 2.40401L12.594 2.40397C13 2.40397 13.329 2.73304 13.329 3.13897L13.3291 12.861C13.3291 13.2669 13 13.596 12.5941 13.596H10.6607C10.2548 13.596 9.9257 13.2669 9.9257 12.861V11.8083C9.9257 11.441 9.62797 11.1433 9.2607 11.1433C8.89343 11.1433 8.5957 11.441 8.5957 11.8083V12.861C8.5957 14.0015 9.52024 14.926 10.6607 14.926H12.5941C13.7346 14.926 14.6591 14.0015 14.6591 12.861L14.659 3.13896C14.659 1.99848 13.7345 1.07395 12.594 1.07397Z" fill="black"/>
<path d="M5.33942 1.07401L3.40623 1.07408C2.26578 1.07413 1.3413 1.99866 1.34131 3.1391L1.34141 12.861C1.34142 14.0015 2.26595 14.926 3.40641 14.926H5.3395C6.47997 14.926 7.4045 14.0015 7.4045 12.861V11.8083C7.4045 11.441 7.10677 11.1433 6.7395 11.1433C6.37224 11.1433 6.0745 11.441 6.0745 11.8083V12.861C6.0745 13.2669 5.74543 13.596 5.3395 13.596H3.40641C3.00048 13.596 2.67141 13.267 2.67141 12.861L2.67131 3.13909C2.6713 2.73317 3.00036 2.4041 3.40628 2.40408L5.33948 2.40401C5.74542 2.40399 6.0745 2.73306 6.0745 3.13901V4.19182C6.0745 4.55909 6.37224 4.85682 6.7395 4.85682C7.10677 4.85682 7.4045 4.55909 7.4045 4.19182V3.13901C7.4045 1.99851 6.47992 1.07396 5.33942 1.07401Z" fill="black"/>
<path d="M9.16114 5.95381C8.90144 6.21351 8.90144 6.63456 9.16114 6.89426L10.045 7.77816C10.1758 7.90898 10.1758 8.12109 10.045 8.25191L9.16114 9.13581C8.90144 9.3955 8.90144 9.81656 9.16114 10.0763C9.42084 10.336 9.8419 10.336 10.1016 10.0763L10.9855 9.19235C11.6357 8.54213 11.6357 7.48794 10.9855 6.83772L10.1016 5.95381C9.8419 5.69411 9.42084 5.69411 9.16114 5.95381Z" fill="black"/>
<path d="M5.89798 5.95381C6.15768 5.69411 6.57873 5.69411 6.83843 5.95381C7.09813 6.21351 7.09813 6.63456 6.83843 6.89426L5.95454 7.77815C5.82371 7.90898 5.82371 8.12109 5.95454 8.25191L6.83843 9.13581C7.09813 9.39551 7.09813 9.81656 6.83843 10.0763C6.57873 10.336 6.15768 10.336 5.89798 10.0763L5.01408 9.19237C4.36386 8.54214 4.36386 7.48792 5.01408 6.8377L5.89798 5.95381Z" fill="black"/>
</svg>
