<svg width="16" height="16" viewBox="0 0 16 16" fill="none" xmlns="http://www.w3.org/2000/svg">
<path fill-rule="evenodd" clip-rule="evenodd" d="M1.0752 3.73995C1.0752 2.26812 2.26836 1.07495 3.7402 1.07495H12.2602C13.732 1.07495 14.9252 2.26811 14.9252 3.73995V4.86995C14.9252 5.23722 14.6275 5.53495 14.2602 5.53495C13.8929 5.53495 13.5952 5.23722 13.5952 4.86995V3.73995C13.5952 3.00265 12.9975 2.40495 12.2602 2.40495H8.40522V6.73995C8.40522 7.65951 7.65977 8.40495 6.74021 8.40495H2.7043C2.70169 8.40497 2.69907 8.40497 2.69646 8.40495H2.4052V12.26C2.4052 12.9973 3.0029 13.595 3.7402 13.595H12.2602C12.9975 13.595 13.5952 12.9973 13.5952 12.26V11.73C13.5952 11.3627 13.8929 11.065 14.2602 11.065C14.6275 11.065 14.9252 11.3627 14.9252 11.73V12.26C14.9252 13.7318 13.732 14.925 12.2602 14.925H3.7402C2.26836 14.925 1.0752 13.7318 1.0752 12.26V3.73995ZM2.44505 7.07495H2.4052V5.64484L6.30516 2.40495H7.07522V2.90928L2.44505 7.07495ZM4.43359 7.07495H6.74021C6.92523 7.07495 7.07522 6.92497 7.07522 6.73995V4.69833L4.43359 7.07495ZM3.7402 2.40495H4.22382L2.4052 3.91577V3.73995C2.4052 3.00265 3.0029 2.40495 3.7402 2.40495Z" fill="black"/>
<path d="M8.67383 9.00302C8.67383 9.59121 9.15065 10.068 9.73883 10.068H11.7793C12.1465 10.068 12.4443 9.77029 12.4443 9.40302C12.4443 9.03575 12.1465 8.73802 11.7793 8.73802H10.9446L12.2764 7.40764C12.7257 6.95877 13.4538 6.95896 13.9029 7.40807C14.3522 7.85734 14.3522 8.58576 13.9029 9.03503L13.1637 9.77428C12.904 10.034 12.904 10.455 13.1637 10.7147C13.4234 10.9744 13.8444 10.9744 14.1041 10.7147L14.8434 9.97548C15.8121 9.00681 15.812 7.43629 14.8434 6.46762C13.8751 5.49931 12.3053 5.4989 11.3364 6.4667L10.0038 7.79791V6.96259C10.0038 6.59532 9.7061 6.29759 9.33883 6.29759C8.97156 6.29759 8.67383 6.59532 8.67383 6.96259V9.00302Z" fill="black"/>
</svg>
