<svg width="16" height="16" viewBox="0 0 16 16" fill="none" xmlns="http://www.w3.org/2000/svg">
<path fill-rule="evenodd" clip-rule="evenodd" d="M3.06911 0C1.36974 0 -0.0078125 1.37755 -0.0078125 3.07692V12.9231C-0.0078125 14.6224 1.36974 16 3.06911 16H12.9153C14.6146 16 15.9922 14.6224 15.9922 12.9231V3.07692C15.9922 1.37755 14.6146 0 12.9153 0H3.06911ZM3.22791 7.20012C2.80033 7.20012 2.45373 7.55829 2.45373 8.00015C2.45373 8.44193 2.80033 8.80011 3.22791 8.80011H12.7565C13.184 8.80011 13.5306 8.44193 13.5306 8.00015C13.5306 7.55829 13.184 7.20012 12.7565 7.20012H3.22791Z" fill="black"/>
</svg>
