<svg width="16" height="16" viewBox="0 0 16 16" fill="none" xmlns="http://www.w3.org/2000/svg">
<path fill-rule="evenodd" clip-rule="evenodd" d="M3.06911 0C1.36978 0 -0.0078125 1.3774 -0.0078125 3.07692V12.9231C-0.0078125 14.6226 1.36978 16 3.06911 16H12.9153C14.6146 16 15.9922 14.6226 15.9922 12.9231V3.07692C15.9922 1.3774 14.6146 0 12.9153 0H3.06911ZM13.3897 5.79507C13.7021 5.48257 13.7021 4.97596 13.3897 4.66346C13.0773 4.35096 12.5707 4.35096 12.2583 4.66346L7.02995 9.89183L4.31757 7.17969C4.00515 6.86719 3.49861 6.86719 3.18619 7.17969C2.87378 7.49159 2.87378 7.9982 3.1862 8.3107L6.59484 11.7194C6.83515 11.9597 7.2248 11.9597 7.46511 11.7194L13.3897 5.79507Z" fill="black"/>
</svg>
