<svg width="16" height="16" viewBox="0 0 16 16" fill="none" xmlns="http://www.w3.org/2000/svg">
<path fill-rule="evenodd" clip-rule="evenodd" d="M12.9153 1.23077H3.06911C2.04951 1.23077 1.22296 2.05732 1.22296 3.07692V12.9231C1.22296 13.9427 2.04951 14.7692 3.06911 14.7692H12.9153C13.9349 14.7692 14.7614 13.9427 14.7614 12.9231V3.07692C14.7614 2.05732 13.9349 1.23077 12.9153 1.23077ZM3.06911 0C1.36977 0 -0.0078125 1.37759 -0.0078125 3.07692V12.9231C-0.0078125 14.6224 1.36977 16 3.06911 16H12.9153C14.6146 16 15.9922 14.6224 15.9922 12.9231V3.07692C15.9922 1.37759 14.6146 0 12.9153 0H3.06911Z" fill="black"/>
</svg>
