<svg width="16" height="16" viewBox="0 0 16 16" fill="none" xmlns="http://www.w3.org/2000/svg">
<path d="M8.20033 8.14658C8.55604 7.83867 8.84136 7.45784 9.03691 7.02993C9.23246 6.60203 9.33366 6.13706 9.33366 5.66658C9.33366 4.78253 8.98247 3.93468 8.35735 3.30956C7.73223 2.68444 6.88438 2.33325 6.00033 2.33325C5.11627 2.33325 4.26842 2.68444 3.6433 3.30956C3.01818 3.93468 2.66699 4.78253 2.66699 5.66658C2.66699 6.13706 2.76819 6.60203 2.96374 7.02993C3.15929 7.45784 3.44461 7.83867 3.80033 8.14658C2.86709 8.56917 2.0753 9.2516 1.51965 10.1123C0.963989 10.973 0.667973 11.9755 0.666992 12.9999C0.666992 13.1767 0.73723 13.3463 0.862254 13.4713C0.987279 13.5963 1.15685 13.6666 1.33366 13.6666C1.51047 13.6666 1.68004 13.5963 1.80506 13.4713C1.93009 13.3463 2.00033 13.1767 2.00033 12.9999C2.00033 11.9391 2.42175 10.9216 3.1719 10.1715C3.92204 9.42135 4.93946 8.99992 6.00033 8.99992C7.06119 8.99992 8.07861 9.42135 8.82875 10.1715C9.5789 10.9216 10.0003 11.9391 10.0003 12.9999C10.0003 13.1767 10.0706 13.3463 10.1956 13.4713C10.3206 13.5963 10.4902 13.6666 10.667 13.6666C10.8438 13.6666 11.0134 13.5963 11.1384 13.4713C11.2634 13.3463 11.3337 13.1767 11.3337 12.9999C11.3327 11.9755 11.0367 10.973 10.481 10.1123C9.92535 9.2516 9.13357 8.56917 8.20033 8.14658ZM6.00033 7.66658C5.60476 7.66658 5.21808 7.54929 4.88918 7.32952C4.56029 7.10976 4.30394 6.7974 4.15257 6.43195C4.00119 6.0665 3.96158 5.66437 4.03876 5.2764C4.11593 4.88844 4.30641 4.53208 4.58611 4.25237C4.86582 3.97267 5.22218 3.78219 5.61015 3.70501C5.99811 3.62784 6.40024 3.66745 6.76569 3.81883C7.13115 3.9702 7.4435 4.22655 7.66326 4.55544C7.88303 4.88434 8.00033 5.27102 8.00033 5.66658C8.00033 6.19702 7.78961 6.70573 7.41454 7.0808C7.03947 7.45587 6.53076 7.66658 6.00033 7.66658ZM12.4937 7.87992C12.9203 7.39947 13.199 6.80595 13.2962 6.17081C13.3934 5.53567 13.3049 4.88597 13.0415 4.29992C12.7781 3.71387 12.3509 3.21645 11.8113 2.86753C11.2718 2.51862 10.6429 2.33308 10.0003 2.33325C9.82351 2.33325 9.65395 2.40349 9.52892 2.52851C9.4039 2.65354 9.33366 2.82311 9.33366 2.99992C9.33366 3.17673 9.4039 3.3463 9.52892 3.47132C9.65395 3.59635 9.82351 3.66659 10.0003 3.66659C10.5308 3.66659 11.0395 3.8773 11.4145 4.25237C11.7896 4.62744 12.0003 5.13615 12.0003 5.66658C11.9994 6.01674 11.9065 6.36052 11.731 6.66353C11.5555 6.96654 11.3036 7.21817 11.0003 7.39325C10.9015 7.45027 10.8189 7.53169 10.7606 7.62975C10.7022 7.7278 10.67 7.83919 10.667 7.95325C10.6642 8.06643 10.6903 8.17845 10.7428 8.27876C10.7953 8.37906 10.8724 8.46435 10.967 8.52659L11.227 8.69992L11.3137 8.74658C12.1173 9.12773 12.7952 9.73058 13.2676 10.4841C13.7401 11.2377 13.9874 12.1105 13.9803 12.9999C13.9803 13.1767 14.0506 13.3463 14.1756 13.4713C14.3006 13.5963 14.4702 13.6666 14.647 13.6666C14.8238 13.6666 14.9934 13.5963 15.1184 13.4713C15.2434 13.3463 15.3137 13.1767 15.3137 12.9999C15.3191 11.9769 15.0629 10.9694 14.5693 10.0733C14.0757 9.17717 13.3612 8.42213 12.4937 7.87992Z" fill="black"/>
</svg>
