<svg width="16" height="16" viewBox="0 0 16 16" fill="none" xmlns="http://www.w3.org/2000/svg">
<g clip-path="url(#clip0_2018_309)">
<path d="M8.16731 4.80014C8.16735 4.43288 7.86966 4.13511 7.50239 4.13507C7.13512 4.13503 6.83735 4.43273 6.83731 4.8L6.83691 8.40293C6.83689 8.57933 6.90696 8.7485 7.03169 8.87323L9.45815 11.2997C9.71785 11.5594 10.1389 11.5594 10.3986 11.2997C10.6583 11.04 10.6583 10.6189 10.3986 10.3592L8.16694 8.12758L8.16731 4.80014Z" fill="black"/>
<path fill-rule="evenodd" clip-rule="evenodd" d="M7.99996 0.834961C4.04284 0.834961 0.834961 4.04284 0.834961 7.99996C0.834961 11.9571 4.04284 15.165 7.99996 15.165C11.9571 15.165 15.165 11.9571 15.165 7.99996C15.165 4.04284 11.9571 0.834961 7.99996 0.834961ZM2.16496 7.99996C2.16496 4.77738 4.77738 2.16496 7.99996 2.16496C11.2225 2.16496 13.835 4.77738 13.835 7.99996C13.835 11.2225 11.2225 13.835 7.99996 13.835C4.77738 13.835 2.16496 11.2225 2.16496 7.99996Z" fill="black"/>
</g>
<defs>
<clipPath id="clip0_2018_309">
<rect width="16" height="16" fill="white"/>
</clipPath>
</defs>
</svg>
