<svg width="16" height="16" viewBox="0 0 16 16" fill="none" xmlns="http://www.w3.org/2000/svg">
<path fill-rule="evenodd" clip-rule="evenodd" d="M3.75827 2.81831C3.49857 2.55861 3.07752 2.55861 2.81782 2.81831C2.55812 3.07801 2.55812 3.49906 2.81782 3.75876L7.05918 8.00012L2.81782 12.2415C2.55812 12.5012 2.55812 12.9222 2.81782 13.1819C3.07752 13.4416 3.49857 13.4416 3.75827 13.1819L7.99964 8.94058L12.241 13.1819C12.5007 13.4416 12.9218 13.4416 13.1814 13.1819C13.4411 12.9222 13.4411 12.5012 13.1814 12.2415L8.94009 8.00012L13.1814 3.75876C13.4411 3.49906 13.4411 3.07801 13.1814 2.81831C12.9218 2.55861 12.5007 2.55861 12.241 2.81831L7.99964 7.05967L3.75827 2.81831Z" fill="black"/>
</svg>
