<svg width="16" height="16" viewBox="0 0 16 16" fill="none" xmlns="http://www.w3.org/2000/svg">
<path fill-rule="evenodd" clip-rule="evenodd" d="M0.296387 7.79632C0.296387 6.01006 1.74444 4.56201 3.5307 4.56201C4.20301 4.56201 4.8427 4.8518 5.28606 5.3572L5.35041 5.43056C5.59261 5.70666 5.56513 6.12681 5.28904 6.36901C5.01295 6.61121 4.59279 6.58373 4.35059 6.30764L4.28624 6.23428C4.09541 6.01674 3.82007 5.89201 3.5307 5.89201C2.47898 5.89201 1.62639 6.7446 1.62639 7.79632V8.21422C1.62639 9.2601 2.47424 10.1079 3.52012 10.1079C3.81226 10.1079 4.08974 9.97996 4.27939 9.75774L4.34467 9.68125C4.58308 9.40189 5.00282 9.36869 5.28219 9.60711C5.56156 9.84552 5.59475 10.2653 5.35634 10.5446L5.29106 10.6211C4.84872 11.1394 4.20152 11.4379 3.52012 11.4379C1.7397 11.4379 0.296387 9.99464 0.296387 8.21422V7.79632ZM13.2085 4.86322C13.5757 4.86322 13.8735 5.16095 13.8735 5.52822V6.76221H14.9429C15.3101 6.76221 15.6079 7.05994 15.6079 7.42721C15.6079 7.79448 15.3101 8.09221 14.9429 8.09221H13.8735V9.97297C13.8735 10.0475 13.9339 10.108 14.0085 10.108H15.0385C15.4057 10.108 15.7035 10.4057 15.7035 10.773C15.7035 11.1402 15.4057 11.438 15.0385 11.438H14.0085C13.1994 11.438 12.5435 10.7821 12.5435 9.97297V8.09221H11.5893C11.222 8.09221 10.9243 7.79448 10.9243 7.42721C10.9243 7.05994 11.222 6.76221 11.5893 6.76221H12.5435V5.52822C12.5435 5.16095 12.8412 4.86322 13.2085 4.86322ZM9.39872 8.71625C9.39872 8.23168 8.938 7.87971 8.47047 8.00711L8.13734 8.09789C7.77033 8.1979 7.50468 8.50835 7.45615 8.87773L7.45629 10.773C7.45632 11.1386 7.16118 11.4354 6.79611 11.438C6.79452 11.438 6.79293 11.438 6.79134 11.438C6.42407 11.438 6.12632 11.1403 6.12629 10.7731L6.12614 8.80937L6.12603 7.35534C6.12601 6.98807 6.42371 6.69032 6.79098 6.69029C7.022 6.69027 7.22552 6.80806 7.34473 6.98687C7.48384 6.91516 7.63198 6.85711 7.78766 6.81468L8.12079 6.7239C9.43432 6.36596 10.7287 7.35482 10.7287 8.71625V10.7731C10.7287 11.1404 10.431 11.4381 10.0637 11.4381C9.69645 11.4381 9.39872 11.1404 9.39872 10.7731V8.71625Z" fill="black"/>
</svg>
