<svg width="16" height="16" viewBox="0 0 16 16" fill="none" xmlns="http://www.w3.org/2000/svg">
<path d="M9.8188 2.22894C9.89004 1.86865 9.65572 1.51882 9.29543 1.44757C8.93513 1.37633 8.58531 1.61065 8.51406 1.97094L6.18073 13.7709C6.10948 14.1312 6.3438 14.4811 6.7041 14.5523C7.06439 14.6236 7.41422 14.3892 7.48546 14.0289L9.8188 2.22894Z" fill="black"/>
<path d="M5.02793 3.62059C5.29218 3.87566 5.29963 4.29664 5.04457 4.5609L2.43445 7.26502C1.92216 7.79576 1.9374 8.64137 2.46846 9.1533L5.02762 11.6203C5.29204 11.8752 5.29976 12.2962 5.04487 12.5606C4.78997 12.825 4.36899 12.8327 4.10457 12.5778L1.54541 10.1108C0.485272 9.08888 0.454862 7.40083 1.47751 6.34135L4.08763 3.63722C4.34269 3.37297 4.76368 3.36553 5.02793 3.62059Z" fill="black"/>
<path d="M10.9717 3.62059C11.236 3.36553 11.657 3.37297 11.912 3.63722L14.5221 6.34135C15.5448 7.40083 15.5144 9.08888 14.4542 10.1108L11.8951 12.5778C11.6307 12.8327 11.2097 12.825 10.9548 12.5606C10.6999 12.2962 10.7076 11.8752 10.972 11.6203L13.5312 9.1533C14.0623 8.64137 14.0775 7.79576 13.5652 7.26502L10.9551 4.5609C10.7 4.29664 10.7075 3.87566 10.9717 3.62059Z" fill="black"/>
</svg>
