<svg width="16" height="16" viewBox="0 0 16 16" fill="none" xmlns="http://www.w3.org/2000/svg">
<g clip-path="url(#clip0_1497_21)">
<path fill-rule="evenodd" clip-rule="evenodd" d="M3.35016 1.13317C3.83406 0.77025 4.40712 0.666504 4.8335 0.666504C5.20169 0.666504 5.50016 0.964981 5.50016 1.33317C5.50016 1.70136 5.20169 1.99984 4.8335 1.99984C4.5932 1.99984 4.33294 2.06276 4.15016 2.19984C3.99969 2.31269 3.8335 2.52353 3.8335 2.99984V5.99984C3.8335 6.44246 3.64826 6.81114 3.43483 7.0886C3.25759 7.31902 3.04233 7.51164 2.83678 7.6665C3.04233 7.82137 3.25759 8.01399 3.43483 8.24441C3.64826 8.52187 3.8335 8.89055 3.8335 9.33317V12.9998C3.8335 13.4761 3.99969 13.687 4.15016 13.7998C4.33294 13.9369 4.5932 13.9998 4.8335 13.9998C5.20169 13.9998 5.50016 14.2983 5.50016 14.6665C5.50016 15.0347 5.20169 15.3332 4.8335 15.3332C4.40712 15.3332 3.83406 15.2294 3.35016 14.8665C2.83397 14.4794 2.50016 13.8569 2.50016 12.9998V9.33317C2.50016 9.27579 2.47707 9.18614 2.378 9.05735C2.27795 8.92729 2.12835 8.795 1.95119 8.67099C1.77745 8.54937 1.59942 8.45107 1.46244 8.38258C1.39479 8.34876 1.3392 8.32322 1.30183 8.30667C1.28319 8.29842 1.26923 8.29246 1.26073 8.28889L1.25257 8.28549C0.999629 8.18417 0.833496 7.939 0.833496 7.6665C0.833496 7.39427 0.999015 7.14942 1.25154 7.04793L1.26073 7.04412C1.26923 7.04055 1.28319 7.03459 1.30183 7.02634C1.3392 7.00979 1.39479 6.98425 1.46244 6.95043C1.59942 6.88194 1.77745 6.78363 1.95119 6.66202C2.12835 6.538 2.27795 6.40572 2.378 6.27566C2.47707 6.14687 2.50016 6.05722 2.50016 5.99984V2.99984C2.50016 2.14281 2.83397 1.52032 3.35016 1.13317Z" fill="black"/>
<path fill-rule="evenodd" clip-rule="evenodd" d="M10.5 1.33317C10.5 0.964981 10.7985 0.666504 11.1667 0.666504C11.593 0.666504 12.1661 0.77025 12.65 1.13317C13.1662 1.52032 13.5 2.14281 13.5 2.99984V5.99984C13.5 6.05722 13.5231 6.14687 13.6222 6.27566C13.7222 6.40572 13.8718 6.538 14.049 6.66202C14.2227 6.78363 14.4007 6.88194 14.5377 6.95043C14.6054 6.98425 14.661 7.00979 14.6983 7.02634C14.717 7.03459 14.7309 7.04055 14.7394 7.04412L14.7476 7.04752C15.0005 7.14883 15.1667 7.39401 15.1667 7.6665C15.1667 7.93911 15.0007 8.18425 14.7476 8.28549L14.7394 8.28889C14.7309 8.29246 14.717 8.29842 14.6983 8.30667C14.661 8.32322 14.6054 8.34876 14.5377 8.38258C14.4007 8.45107 14.2227 8.54937 14.049 8.67099C13.8718 8.795 13.7222 8.92729 13.6222 9.05735C13.5231 9.18614 13.5 9.27579 13.5 9.33317V12.9998C13.5 13.8569 13.1662 14.4794 12.65 14.8665C12.1661 15.2294 11.593 15.3332 11.1667 15.3332C10.7985 15.3332 10.5 15.0347 10.5 14.6665C10.5 14.2983 10.7985 13.9998 11.1667 13.9998C11.407 13.9998 11.6672 13.9369 11.85 13.7998C12.0005 13.687 12.1667 13.4761 12.1667 12.9998V9.33317C12.1667 8.89055 12.3519 8.52187 12.5653 8.24441C12.7426 8.01399 12.9578 7.82137 13.1634 7.6665C12.9578 7.51164 12.7426 7.31902 12.5653 7.0886C12.3519 6.81114 12.1667 6.44246 12.1667 5.99984V2.99984C12.1667 2.52353 12.0005 2.31269 11.85 2.19984C11.6672 2.06276 11.407 1.99984 11.1667 1.99984C10.7985 1.99984 10.5 1.70136 10.5 1.33317Z" fill="black"/>
</g>
<defs>
<clipPath id="clip0_1497_21">
<rect width="16" height="16" fill="white"/>
</clipPath>
</defs>
</svg>
