<svg width="16" height="16" viewBox="0 0 16 16" fill="none" xmlns="http://www.w3.org/2000/svg">
<path d="M9.92206 2.45064C9.98634 2.12556 9.77492 1.80992 9.44984 1.74564C9.12477 1.68136 8.80913 1.89278 8.74485 2.21785L6.41152 14.0179C6.34724 14.3429 6.55865 14.6586 6.88373 14.7228C7.20881 14.7871 7.52444 14.5757 7.58872 14.2506L9.92206 2.45064Z" fill="black"/>
<path d="M5.14972 3.90157C5.38815 4.1317 5.39487 4.51154 5.16473 4.74996L2.55461 7.45409C2.01739 8.01066 2.03336 8.89745 2.59029 9.43431L5.14944 11.9013C5.38802 12.1313 5.39498 12.5111 5.165 12.7497C4.93502 12.9883 4.55519 12.9952 4.31662 12.7652L1.75746 10.2983C0.723174 9.30122 0.693506 7.65434 1.69121 6.6207L4.30133 3.91657C4.53146 3.67815 4.9113 3.67143 5.14972 3.90157Z" fill="black"/>
<path d="M10.8505 3.90157C11.0889 3.67143 11.4688 3.67815 11.6989 3.91657L14.309 6.6207C15.3067 7.65434 15.2771 9.30122 14.2428 10.2983L11.6836 12.7652C11.4451 12.9952 11.0652 12.9883 10.8352 12.7497C10.6053 12.5111 10.6122 12.1313 10.8508 11.9013L13.41 9.43431C13.9669 8.89745 13.9829 8.01066 13.4456 7.45409L10.8355 4.74996C10.6054 4.51154 10.6121 4.1317 10.8505 3.90157Z" fill="black"/>
</svg>
