<svg width="16" height="16" viewBox="0 0 16 16" fill="none" xmlns="http://www.w3.org/2000/svg">
<path fill-rule="evenodd" clip-rule="evenodd" d="M9.71431 13.6614C9.71452 13.6521 9.71463 13.6429 9.71463 13.6336V2.53867C9.71463 1.76547 9.08783 1.13867 8.31463 1.13867H7.68516C6.91196 1.13867 6.28516 1.76547 6.28516 2.53867V13.6336C6.28516 13.6429 6.28526 13.6521 6.28547 13.6614H5.51607C5.51628 13.6522 5.51639 13.6429 5.51639 13.6336V7.447C5.51639 6.6738 4.88959 6.047 4.11639 6.047H3.48691C2.71372 6.047 2.08691 6.6738 2.08691 7.447V13.6336C2.08691 13.6429 2.08702 13.6522 2.08723 13.6614H1.3334C1.00203 13.6614 0.733398 13.93 0.733398 14.2614C0.733398 14.5927 1.00203 14.8614 1.3334 14.8614H14.6667C14.9981 14.8614 15.2667 14.5927 15.2667 14.2614C15.2667 13.93 14.9981 13.6614 14.6667 13.6614H13.9126C13.9127 13.6547 13.9128 13.6479 13.9128 13.6412C13.9129 13.6387 13.9129 13.6361 13.9129 13.6336V7.447C13.9129 6.6738 13.2861 6.047 12.5129 6.047H11.8834C11.1102 6.047 10.4834 6.6738 10.4834 7.447V13.6336C10.4834 13.6429 10.4835 13.6522 10.4837 13.6614H9.71431ZM7.68516 2.33867C7.5747 2.33867 7.48516 2.42822 7.48516 2.53867V13.6336H8.51463V2.53867C8.51463 2.42822 8.42509 2.33867 8.31463 2.33867H7.68516ZM3.48691 7.247C3.37646 7.247 3.28691 7.33654 3.28691 7.447V13.6336H4.31639V7.447C4.31639 7.33654 4.22684 7.247 4.11639 7.247H3.48691ZM11.6834 7.447C11.6834 7.33654 11.7729 7.247 11.8834 7.247H12.5129C12.6233 7.247 12.7129 7.33654 12.7129 7.447V13.6336H11.6834V7.447Z" fill="black"/>
</svg>
