<svg width="17" height="17" viewBox="0 0 17 17" fill="none" xmlns="http://www.w3.org/2000/svg">
<path fill-rule="evenodd" clip-rule="evenodd" d="M6.79407 7.49183L6.80825 7.49199L6.82241 7.49183L10.9728 7.49192L10.9821 7.49199L10.9913 7.49192L14.0562 7.49199C14.9951 7.49201 15.7562 6.73089 15.7562 5.79199V3.99202C15.7562 3.05313 14.9951 2.29202 14.0562 2.29202L10.9893 2.29203L10.9821 2.29199L10.9749 2.29203L6.81682 2.29205L6.80825 2.29199L6.79967 2.29205L3.73417 2.29207C2.79527 2.29207 2.03416 3.05321 2.03418 3.99211L2.03422 5.7918C2.03425 6.73065 2.79533 7.49174 3.73419 7.49176L6.79407 7.49183ZM14.0562 6.29199L11.5821 6.29194V3.49203L14.0562 3.49202C14.3324 3.49202 14.5562 3.71588 14.5562 3.99202V5.79199C14.5562 6.06814 14.3323 6.292 14.0562 6.29199ZM10.3821 6.29191V3.49204L7.40825 3.49205V6.29184L10.3821 6.29191ZM6.20825 6.29181V3.49205L3.73418 3.49207C3.45803 3.49207 3.23417 3.71593 3.23418 3.99208L3.23422 5.79177C3.23423 6.0679 3.45808 6.29175 3.73421 6.29176L6.20825 6.29181Z" fill="black"/>
<path fill-rule="evenodd" clip-rule="evenodd" d="M5.53413 9.19951L3.73415 9.19954C2.79526 9.19955 2.03415 9.96069 2.03418 10.8996L2.03423 12.6995C2.03425 13.6384 2.79536 14.3995 3.73423 14.3995H5.53415C6.47303 14.3995 7.23415 13.6384 7.23415 12.6995V10.8995C7.23415 9.96062 6.47302 9.1995 5.53413 9.19951ZM3.73417 10.3995L5.53414 10.3995C5.81029 10.3995 6.03415 10.6234 6.03415 10.8995V12.6995C6.03415 12.9756 5.81029 13.1995 5.53415 13.1995H3.73423C3.45809 13.1995 3.23423 12.9756 3.23423 12.6995L3.23418 10.8996C3.23417 10.6234 3.45803 10.3995 3.73417 10.3995Z" fill="black"/>
</svg>
