<svg width="16" height="16" viewBox="0 0 16 16" fill="none" xmlns="http://www.w3.org/2000/svg">
<path fill-rule="evenodd" clip-rule="evenodd" d="M10.4999 1.61475C9.61625 1.61475 8.8999 2.33109 8.8999 3.21475V4.75646C8.77205 4.72356 8.63802 4.70605 8.4999 4.70605H7.4999C6.61625 4.70605 5.8999 5.4224 5.8999 6.30606V7.7506C5.77205 7.7177 5.63802 7.7002 5.4999 7.7002H4.4999C3.61625 7.7002 2.8999 8.41654 2.8999 9.3002V13.1851H1.3334C1.00203 13.1851 0.733398 13.4537 0.733398 13.7851C0.733398 14.1164 1.00203 14.3851 1.3334 14.3851H3.48937L3.4999 14.3851H6.4999L6.50256 14.3851H9.4999L9.50644 14.3851H12.4999L12.5047 14.3851H14.6667C14.9981 14.3851 15.2667 14.1164 15.2667 13.7851C15.2667 13.4537 14.9981 13.1851 14.6667 13.1851H13.0999V3.21475C13.0999 2.33109 12.3836 1.61475 11.4999 1.61475H10.4999ZM11.8999 13.1851V3.21475C11.8999 2.99383 11.7208 2.81475 11.4999 2.81475H10.4999C10.279 2.81475 10.0999 2.99383 10.0999 3.21475V13.1851H11.8999ZM8.8999 13.1851V6.30605C8.8999 6.08514 8.72082 5.90605 8.4999 5.90605H7.4999C7.27899 5.90605 7.0999 6.08514 7.0999 6.30606V13.1851H8.8999ZM5.8999 9.3002V13.1851H4.0999V9.3002C4.0999 9.07928 4.27899 8.9002 4.4999 8.9002H5.4999C5.72082 8.9002 5.8999 9.07928 5.8999 9.3002Z" fill="black"/>
</svg>
