<svg width="17" height="16" viewBox="0 0 17 16" fill="none" xmlns="http://www.w3.org/2000/svg">
<path fill-rule="evenodd" clip-rule="evenodd" d="M6.81688 1.88678L6.80877 1.88672L6.79928 1.88679L3.73423 1.8868C2.75943 1.8868 1.96921 2.67704 1.96924 3.65184L1.96928 5.45153C1.96931 6.42628 2.75949 7.21647 3.73424 7.21649L6.79412 7.21656L6.80756 7.21674L6.82285 7.21656L10.9729 7.21665L10.9826 7.21672L10.9916 7.21665L14.0562 7.21672C15.031 7.21675 15.8213 6.42652 15.8213 5.45172V3.65175C15.8213 2.67697 15.031 1.88675 14.0563 1.88675L10.9894 1.88677L10.9818 1.88672L10.9745 1.88677L6.81688 1.88678ZM11.6471 5.88667V3.21676L14.0563 3.21675C14.2965 3.21675 14.4913 3.41151 14.4913 3.65175V5.45172C14.4913 5.69197 14.2965 5.88673 14.0563 5.88672L11.6471 5.88667ZM7.47331 5.88657V3.21678L10.3171 3.21677V5.88664L7.47331 5.88657ZM3.73424 3.2168L6.14331 3.21679V5.88654L3.73427 5.88649C3.49404 5.88648 3.29929 5.69174 3.29928 5.4515L3.29924 3.65181C3.29923 3.41156 3.49399 3.2168 3.73424 3.2168Z" fill="black"/>
<path fill-rule="evenodd" clip-rule="evenodd" d="M5.53418 8.79424L3.73421 8.79427C2.75942 8.79428 1.96921 9.58453 1.96924 10.5593L1.96929 12.3593C1.96931 13.334 2.75952 14.1242 3.73429 14.1242H5.53421C6.50899 14.1242 7.29921 13.334 7.29921 12.3592V10.5592C7.29921 9.58445 6.50898 8.79423 5.53418 8.79424ZM3.73423 10.1243L5.5342 10.1242C5.77445 10.1242 5.96921 10.319 5.96921 10.5592V12.3592C5.96921 12.5995 5.77445 12.7942 5.53421 12.7942H3.73429C3.49405 12.7942 3.29929 12.5995 3.29929 12.3592L3.29924 10.5593C3.29923 10.319 3.49399 10.1243 3.73423 10.1243Z" fill="black"/>
</svg>
