<svg width="17" height="16" viewBox="0 0 17 16" fill="none" xmlns="http://www.w3.org/2000/svg">
<path fill-rule="evenodd" clip-rule="evenodd" d="M3.89644 1.6272C2.4246 1.6272 1.23145 2.82036 1.23145 4.2922V10.0769C1.23145 11.5487 2.42461 12.7419 3.89645 12.7419H4.28464V13.7076C4.28464 13.9394 4.4053 14.1544 4.6031 14.2752C4.8009 14.396 5.04731 14.4051 5.25347 14.2992L8.28544 12.7419H12.5964C14.0683 12.7419 15.2614 11.5487 15.2614 10.0769V4.2922C15.2614 2.82036 14.0683 1.6272 12.5964 1.6272H3.89644ZM2.56145 4.2922C2.56145 3.5549 3.15914 2.9572 3.89644 2.9572H12.5964C13.3337 2.9572 13.9314 3.5549 13.9314 4.2922V10.0769C13.9314 10.8142 13.3337 11.4119 12.5964 11.4119H8.12464C8.01896 11.4119 7.91481 11.437 7.82081 11.4853L5.61464 12.6185V12.0769C5.61464 11.7096 5.31691 11.4119 4.94964 11.4119H3.89645C3.15915 11.4119 2.56145 10.8142 2.56145 10.0769V4.2922ZM5.82268 6.79311C5.82268 6.42584 5.52495 6.12811 5.15768 6.12811C4.79041 6.12811 4.49268 6.42584 4.49268 6.79311V7.77158C4.49268 8.13885 4.79041 8.43658 5.15768 8.43658C5.52495 8.43658 5.82268 8.13885 5.82268 7.77158V6.79311ZM8.41939 6.12811C8.78666 6.12811 9.08439 6.42584 9.08439 6.79311V7.77158C9.08439 8.13885 8.78666 8.43658 8.41939 8.43658C8.05212 8.43658 7.75439 8.13885 7.75439 7.77158V6.79311C7.75439 6.42584 8.05212 6.12811 8.41939 6.12811ZM12.3461 6.79311C12.3461 6.42584 12.0484 6.12811 11.6811 6.12811C11.3138 6.12811 11.0161 6.42584 11.0161 6.79311V7.77158C11.0161 8.13885 11.3138 8.43658 11.6811 8.43658C12.0484 8.43658 12.3461 8.13885 12.3461 7.77158V6.79311Z" fill="black"/>
</svg>
