<svg width="16" height="16" viewBox="0 0 16 16" fill="none" xmlns="http://www.w3.org/2000/svg">
<g clip-path="url(#clip0_2018_264)">
<path fill-rule="evenodd" clip-rule="evenodd" d="M2.44771 0.783203C1.52816 0.783203 0.782715 1.52865 0.782715 2.4482V6.4482C0.782715 7.36776 1.52816 8.1132 2.44772 8.1132H6.44771C7.36727 8.1132 8.11271 7.36776 8.11271 6.4482V2.4482C8.11271 1.52865 7.36727 0.783203 6.44771 0.783203H2.44771ZM2.11271 6.4482V5.11329H3.78271V6.7832H2.44772C2.2627 6.7832 2.11271 6.63322 2.11271 6.4482ZM2.11271 3.78329H3.78271V2.1132H2.44771C2.2627 2.1132 2.11271 2.26319 2.11271 2.4482V3.78329ZM5.11271 6.7832V5.11329H6.78271V6.4482C6.78271 6.63322 6.63273 6.7832 6.44771 6.7832H5.11271ZM5.11271 3.78329H6.78271V2.4482C6.78271 2.26319 6.63273 2.1132 6.44771 2.1132H5.11271V3.78329Z" fill="black"/>
<path fill-rule="evenodd" clip-rule="evenodd" d="M9.55221 7.88672C8.63265 7.88672 7.88721 8.63216 7.88721 9.55172V13.5517C7.88721 14.4713 8.63265 15.2167 9.55221 15.2167H13.5522C14.4718 15.2167 15.2172 14.4713 15.2172 13.5517V9.55172C15.2172 8.63216 14.4718 7.88672 13.5522 7.88672H9.55221ZM13.8872 10.8868V9.55172C13.8872 9.3667 13.7372 9.21672 13.5522 9.21672H12.2172V10.8868H13.8872ZM12.2172 12.2168H13.8872V13.5517C13.8872 13.7367 13.7372 13.8867 13.5522 13.8867H12.2172V12.2168ZM10.8872 10.8868V9.21672H9.55221C9.36719 9.21672 9.21721 9.3667 9.21721 9.55172V10.8868H10.8872ZM9.21721 12.2168H10.8872V13.8867H9.55221C9.36719 13.8867 9.21721 13.7367 9.21721 13.5517V12.2168Z" fill="black"/>
<path d="M9.55664 2.44918C9.55664 2.08191 9.85437 1.78418 10.2216 1.78418H12.7516C13.6712 1.78418 14.4166 2.52963 14.4166 3.44918V5.97916C14.4166 6.34643 14.1189 6.64416 13.7516 6.64416C13.3844 6.64416 13.0866 6.34643 13.0866 5.97916V3.44918C13.0866 3.26416 12.9366 3.11418 12.7516 3.11418H10.2216C9.85437 3.11418 9.55664 2.81645 9.55664 2.44918Z" fill="black"/>
<path d="M5.77885 14.2158C6.14612 14.2158 6.44385 13.918 6.44385 13.5508C6.44385 13.1835 6.14612 12.8858 5.77885 12.8858H3.24887C3.06385 12.8858 2.91387 12.7358 2.91387 12.5508L2.91387 10.0208C2.91387 9.65351 2.61614 9.35578 2.24887 9.35578C1.8816 9.35578 1.58387 9.65351 1.58387 10.0208L1.58387 12.5508C1.58387 13.4703 2.32931 14.2158 3.24887 14.2158H5.77885Z" fill="black"/>
</g>
<defs>
<clipPath id="clip0_2018_264">
<rect width="16" height="16" fill="white"/>
</clipPath>
</defs>
</svg>
