<svg width="16" height="16" viewBox="0 0 16 16" fill="none" xmlns="http://www.w3.org/2000/svg">
<path fill-rule="evenodd" clip-rule="evenodd" d="M11.9284 3.51389C11.7723 2.19083 10.647 1.16455 9.28194 1.16455H4.28194C2.8101 1.16455 1.61694 2.35771 1.61694 3.82955V9.82955C1.61694 11.2305 2.6979 12.3789 4.07124 12.4863C4.22737 13.8094 5.3527 14.8357 6.71773 14.8357H11.7177C13.1896 14.8357 14.3827 13.6425 14.3827 12.1707V6.17068C14.3827 4.76975 13.3018 3.62131 11.9284 3.51389ZM10.5774 3.50568H6.71773C5.2459 3.50568 4.05273 4.69884 4.05273 6.17068V11.1449C3.42465 11.0363 2.94694 10.4887 2.94694 9.82955V3.82955C2.94694 3.09225 3.54464 2.49455 4.28194 2.49455H9.28194C9.90755 2.49455 10.4326 2.92488 10.5774 3.50568ZM13.0527 6.17068C13.0527 5.43338 12.455 4.83568 11.7177 4.83568H6.71773C5.98043 4.83568 5.38273 5.43338 5.38273 6.17068V12.1707C5.38273 12.908 5.98043 13.5057 6.71773 13.5057H11.7177C12.455 13.5057 13.0527 12.908 13.0527 12.1707V6.17068Z" fill="black"/>
</svg>
