<svg width="16" height="16" viewBox="0 0 16 16" fill="none" xmlns="http://www.w3.org/2000/svg">
<path d="M1.6499 3.65002C1.6499 2.54545 2.54533 1.65002 3.6499 1.65002H12.3499C13.4545 1.65002 14.3499 2.54545 14.3499 3.65002V12.35C14.3499 13.4546 13.4545 14.35 12.3499 14.35H3.6499C2.54533 14.35 1.6499 13.4546 1.6499 12.35V3.65002Z" fill="#E5E5E5"/>
<path d="M9.9998 1.65002H5.9998V6H1.6499V10H5.9998V14.35H9.9998V10H14.3499V6H9.9998V1.65002Z" fill="white"/>
<path fill-rule="evenodd" clip-rule="evenodd" d="M3.6498 1.05005C2.21386 1.05005 1.0498 2.21411 1.0498 3.65005V12.35C1.0498 13.786 2.21386 14.95 3.6498 14.95H12.3498C13.7857 14.95 14.9498 13.786 14.9498 12.3501V3.65005C14.9498 2.21411 13.7857 1.05005 12.3498 1.05005H3.6498ZM5.4002 2.25005H3.6498C2.87661 2.25005 2.2498 2.87685 2.2498 3.65005V5.40002H5.4002V2.25005ZM2.2498 10.6V12.35C2.2498 13.1232 2.87661 13.75 3.6498 13.75H5.4002V10.6H2.2498ZM6.60019 13.75H9.4002V9.40002H13.7498V6.60002H9.4002V2.25005H6.60019V6.60002H2.25029V9.40002H6.60019V13.75ZM10.6002 2.25005V5.40002H13.7498V3.65005C13.7498 2.87685 13.123 2.25005 12.3498 2.25005H10.6002ZM13.7498 10.6H10.6002V13.75H12.3498C13.123 13.75 13.7498 13.1232 13.7498 12.3501V10.6Z" fill="black"/>
</svg>
