<svg width="16" height="16" viewBox="0 0 16 16" fill="none" xmlns="http://www.w3.org/2000/svg">
<path fill-rule="evenodd" clip-rule="evenodd" d="M8.00045 1.34033C7.08089 1.34033 6.33545 2.08578 6.33545 3.00533C6.33545 3.5791 6.62572 4.08503 7.06715 4.38435L5.36942 7.77981L3.70601 6.9481C3.89046 6.68006 3.99846 6.35523 3.99846 6.00533C3.99846 5.08578 3.25301 4.34033 2.33346 4.34033C1.4139 4.34033 0.668457 5.08578 0.668457 6.00533C0.668457 6.74124 1.14583 7.36548 1.80766 7.58559L3.69407 14.188C3.77564 14.4735 4.03657 14.6703 4.33348 14.6703H11.6668C11.9637 14.6703 12.2247 14.4735 12.3062 14.188L14.1927 7.58545C14.8543 7.36522 15.3315 6.74108 15.3315 6.00533C15.3315 5.08578 14.586 4.34033 13.6665 4.34033C12.7469 4.34033 12.0015 5.08578 12.0015 6.00533C12.0015 6.35529 12.1095 6.68017 12.294 6.94824L10.6309 7.77981L8.9333 4.38466C9.37498 4.08537 9.66545 3.5793 9.66545 3.00533C9.66545 2.08578 8.92 1.34033 8.00045 1.34033ZM7.66545 3.00533C7.66545 2.82032 7.81543 2.67033 8.00045 2.67033C8.18546 2.67033 8.33545 2.82032 8.33545 3.00533C8.33545 3.19035 8.18546 3.34033 8.00045 3.34033C7.81543 3.34033 7.66545 3.19035 7.66545 3.00533ZM6.26161 8.9694L8.00015 5.49232L9.73869 8.9694C9.90294 9.29789 10.3024 9.43104 10.6309 9.26679L12.6121 8.27618L11.1652 13.3403H4.83509L3.38819 8.27618L5.36942 9.26679C5.69791 9.43104 6.09736 9.29789 6.26161 8.9694ZM1.99846 6.00533C1.99846 5.82032 2.14844 5.67033 2.33346 5.67033C2.51847 5.67033 2.66846 5.82032 2.66846 6.00533C2.66846 6.18985 2.51928 6.33952 2.33496 6.34033H2.33193C2.14762 6.33951 1.99846 6.18984 1.99846 6.00533ZM13.3315 6.00533C13.3315 5.82032 13.4814 5.67033 13.6665 5.67033C13.8515 5.67033 14.0015 5.82032 14.0015 6.00533C14.0015 6.19035 13.8515 6.34033 13.6665 6.34033L13.665 6.34033C13.4806 6.33952 13.3315 6.18985 13.3315 6.00533Z" fill="black"/>
</svg>
