<svg width="16" height="16" viewBox="0 0 16 16" fill="none" xmlns="http://www.w3.org/2000/svg">
<path fill-rule="evenodd" clip-rule="evenodd" d="M3.65011 0.984863C2.17827 0.984863 0.985107 2.17802 0.985107 3.64986V12.3499C0.985107 13.8217 2.17827 15.0149 3.65011 15.0149H12.3501C13.8219 15.0149 15.0151 13.8217 15.0151 12.3499V3.64986C15.0151 2.17803 13.8219 0.984863 12.3501 0.984863H3.65011ZM2.31511 3.64986C2.31511 2.91256 2.91281 2.31486 3.65011 2.31486H12.3501C13.0874 2.31486 13.6851 2.91256 13.6851 3.64986V12.3499C13.6851 13.0872 13.0874 13.6849 12.3501 13.6849H3.65011C2.91281 13.6849 2.31511 13.0872 2.31511 12.3499V3.64986ZM8.00002 4.42056C8.36728 4.42057 8.66501 4.7183 8.66501 5.08557L8.66499 7.33511H10.9143C11.2815 7.33511 11.5793 7.63284 11.5793 8.00011C11.5793 8.36738 11.2815 8.66511 10.9143 8.66511H8.66498L8.66496 10.9142C8.66496 11.2815 8.36722 11.5792 7.99996 11.5792C7.63269 11.5792 7.33496 11.2814 7.33496 10.9142L7.33498 8.66511H5.08565C4.71838 8.66511 4.42065 8.36738 4.42065 8.00011C4.42065 7.63284 4.71838 7.33511 5.08565 7.33511H7.33499L7.33501 5.08556C7.33501 4.71829 7.63275 4.42056 8.00002 4.42056Z" fill="black"/>
</svg>
