<svg width="16" height="16" viewBox="0 0 16 16" fill="none" xmlns="http://www.w3.org/2000/svg">
<path fill-rule="evenodd" clip-rule="evenodd" d="M2.4543 1.79897C2.71174 1.53703 3.13278 1.53337 3.39472 1.79081L8 6.31683L12.6053 1.79081C12.8672 1.53337 13.2883 1.53703 13.5457 1.79897C13.8031 2.06091 13.7995 2.48195 13.5375 2.73939L8.94872 7.24923L10.912 9.17867C11.1512 9.10818 11.4044 9.07036 11.6665 9.07036C13.1383 9.07036 14.3315 10.2635 14.3315 11.7354C14.3315 13.2072 13.1383 14.4004 11.6665 14.4004C10.1946 14.4004 9.00146 13.2072 9.00146 11.7354C9.00146 11.0205 9.28293 10.3714 9.74109 9.89275L8 8.18162L6.25886 9.89279C6.717 10.3714 6.99846 11.0205 6.99846 11.7354C6.99846 13.2072 5.8053 14.4004 4.33346 14.4004C2.86162 14.4004 1.66846 13.2072 1.66846 11.7354C1.66846 10.2635 2.86162 9.07036 4.33346 9.07036C4.59554 9.07036 4.84878 9.10819 5.08803 9.17869L7.05128 7.24923L2.46247 2.73939C2.20052 2.48195 2.19687 2.06091 2.4543 1.79897ZM2.99846 11.7354C2.99846 10.9981 3.59616 10.4004 4.33346 10.4004C5.07076 10.4004 5.66846 10.9981 5.66846 11.7354C5.66846 12.4727 5.07076 13.0704 4.33346 13.0704C3.59616 13.0704 2.99846 12.4727 2.99846 11.7354ZM10.3315 11.7354C10.3315 10.9981 10.9292 10.4004 11.6665 10.4004C12.4038 10.4004 13.0015 10.9981 13.0015 11.7354C13.0015 12.4727 12.4038 13.0704 11.6665 13.0704C10.9292 13.0704 10.3315 12.4727 10.3315 11.7354Z" fill="black"/>
</svg>
