<svg width="16" height="16" viewBox="0 0 16 16" fill="none" xmlns="http://www.w3.org/2000/svg">
<path fill-rule="evenodd" clip-rule="evenodd" d="M9.23136 6.19238C8.86317 6.19238 8.5647 6.49086 8.5647 6.85905V11.1688C8.5647 11.5369 8.86317 11.8354 9.23136 11.8354H11.6941C12.0622 11.8354 12.3607 11.5369 12.3607 11.1688V6.85905C12.3607 6.49086 12.0622 6.19238 11.6941 6.19238H9.23136ZM9.89803 10.5021V7.52572H11.0274V10.5021H9.89803Z" fill="black"/>
<path d="M3.63928 6.85905C3.63928 6.49086 3.93776 6.19238 4.30595 6.19238H6.76864C7.13683 6.19238 7.4353 6.49086 7.4353 6.85905V9.0057C7.43534 9.00845 7.43535 9.0112 7.43535 9.01396C7.43535 9.01671 7.43534 9.01946 7.4353 9.02221V11.1688C7.4353 11.5369 7.13683 11.8354 6.76864 11.8354H4.30595C3.93776 11.8354 3.63928 11.5369 3.63928 11.1688C3.63928 10.8006 3.93776 10.5021 4.30595 10.5021H6.10197V9.68062H4.92167C4.55348 9.68062 4.255 9.38215 4.255 9.01396C4.255 8.64577 4.55348 8.34729 4.92167 8.34729H6.10197V7.52572H4.30595C3.93776 7.52572 3.63928 7.22724 3.63928 6.85905Z" fill="black"/>
<path fill-rule="evenodd" clip-rule="evenodd" d="M5.66667 1.33398C6.03486 1.33398 6.33333 1.63246 6.33333 2.00065V2.53381H9.66675V2.00065C9.66675 1.63246 9.96523 1.33398 10.3334 1.33398C10.7016 1.33398 11.0001 1.63246 11.0001 2.00065V2.53381H14.1821C14.5503 2.53381 14.8488 2.83229 14.8488 3.20048V13.9996C14.8488 14.3677 14.5503 14.6662 14.1821 14.6662H1.81791C1.44972 14.6662 1.15125 14.3677 1.15125 13.9996V3.20048C1.15125 2.83229 1.44972 2.53381 1.81791 2.53381H5V2.00065C5 1.63246 5.29848 1.33398 5.66667 1.33398ZM9.66675 3.86715V4.40045C9.66675 4.76864 9.96523 5.06711 10.3334 5.06711C10.7016 5.06711 11.0001 4.76864 11.0001 4.40045V3.86715H13.5154V13.3329H2.48458V3.86715H5V4.40045C5 4.76864 5.29848 5.06711 5.66667 5.06711C6.03486 5.06711 6.33333 4.76864 6.33333 4.40045V3.86715H9.66675Z" fill="black"/>
</svg>
