<svg width="17" height="16" viewBox="0 0 17 16" fill="none" xmlns="http://www.w3.org/2000/svg">
<g clip-path="url(#clip0_2018_551)">
<path d="M11.5361 4.80271C11.7958 5.06241 12.2168 5.06241 12.4765 4.80271L13.3413 3.93793L13.3413 13.6672C13.3413 14.0345 13.639 14.3322 14.0063 14.3322C14.3736 14.3322 14.6713 14.0345 14.6713 13.6672L14.6713 3.93793L15.5361 4.80271C15.7958 5.06241 16.2168 5.06241 16.4765 4.80271C16.7362 4.54301 16.7362 4.12195 16.4765 3.86225L14.4765 1.86225C14.2168 1.60256 13.7958 1.60256 13.5361 1.86225L11.5361 3.86225C11.2764 4.12195 11.2764 4.54301 11.5361 4.80271Z" fill="black"/>
<path d="M3.88813 10.0509C4.14783 10.3106 4.56889 10.3106 4.82859 10.0509L5.93945 8.94007L7.05032 10.0509C7.31002 10.3106 7.73107 10.3106 7.99077 10.0509C8.25047 9.79124 8.25047 9.37018 7.99077 9.11048L6.8799 7.99962L7.99077 6.88875C8.25047 6.62905 8.25047 6.208 7.99077 5.9483C7.73107 5.6886 7.31002 5.6886 7.05032 5.9483L5.93945 7.05916L4.82859 5.9483C4.56889 5.6886 4.14783 5.6886 3.88813 5.9483C3.62843 6.208 3.62843 6.62905 3.88813 6.88875L4.999 7.99962L3.88813 9.11048C3.62843 9.37018 3.62843 9.79124 3.88813 10.0509Z" fill="black"/>
<path fill-rule="evenodd" clip-rule="evenodd" d="M8.83936 12.6648L3.03939 12.6648C2.0646 12.6647 1.27439 11.8745 1.27441 10.8997L1.27457 5.09981C1.27459 4.12504 2.0648 3.33486 3.03957 3.33486H8.83938C9.81417 3.33486 10.6044 4.12507 10.6044 5.09985V10.8998C10.6044 11.8746 9.81415 12.6649 8.83936 12.6648ZM3.03941 11.3348L8.83938 11.3348C9.07962 11.3348 9.27438 11.1401 9.27438 10.8998V5.09985C9.27438 4.85961 9.07963 4.66486 8.83938 4.66486H3.03957C2.79933 4.66486 2.60457 4.8596 2.60457 5.09984L2.60441 10.8997C2.60441 11.14 2.79916 11.3347 3.03941 11.3348Z" fill="black"/>
</g>
<defs>
<clipPath id="clip0_2018_551">
<rect width="16" height="16" fill="white" transform="translate(0.972656)"/>
</clipPath>
</defs>
</svg>
