<svg width="16" height="16" viewBox="0 0 16 16" fill="none" xmlns="http://www.w3.org/2000/svg">
<path d="M10.6093 4.75717C10.8436 4.99149 11.2235 4.99149 11.4579 4.75717L12.4336 3.78144L12.4336 13.6676C12.4336 13.999 12.7022 14.2676 13.0336 14.2676C13.365 14.2676 13.6336 13.999 13.6336 13.6676L13.6336 3.78144L14.6093 4.75717C14.8436 4.99149 15.2235 4.99149 15.4579 4.75717C15.6922 4.52286 15.6922 4.14296 15.4579 3.90865L13.4579 1.90865C13.2235 1.67433 12.8436 1.67433 12.6093 1.90865L10.6093 3.90865C10.375 4.14296 10.375 4.52286 10.6093 4.75717Z" fill="black"/>
<path d="M2.96131 10.0053C3.19563 10.2396 3.57553 10.2396 3.80984 10.0053L4.96667 8.84845L6.1235 10.0053C6.35781 10.2396 6.73771 10.2396 6.97203 10.0053C7.20634 9.77096 7.20634 9.39106 6.97203 9.15675L5.8152 7.99992L6.97203 6.84309C7.20634 6.60878 7.20634 6.22888 6.97203 5.99456C6.73771 5.76025 6.35781 5.76025 6.1235 5.99456L4.96667 7.15139L3.80984 5.99456C3.57553 5.76025 3.19563 5.76025 2.96131 5.99456C2.727 6.22888 2.727 6.60878 2.96131 6.84309L4.11814 7.99992L2.96131 9.15675C2.727 9.39106 2.727 9.77096 2.96131 10.0053Z" fill="black"/>
<path fill-rule="evenodd" clip-rule="evenodd" d="M7.86664 12.6001L2.06667 12.6001C1.12778 12.6 0.366674 11.8389 0.366699 10.9L0.366852 5.10012C0.366877 4.16125 1.12799 3.40016 2.06685 3.40016H7.86667C8.80555 3.40016 9.56667 4.16128 9.56667 5.10016V10.9001C9.56667 11.839 8.80554 12.6002 7.86664 12.6001ZM2.06669 11.4001L7.86666 11.4001C8.14281 11.4002 8.36667 11.1763 8.36667 10.9001V5.10016C8.36667 4.82402 8.14281 4.60016 7.86667 4.60016H2.06685C1.79071 4.60016 1.56686 4.82401 1.56685 5.10015L1.5667 10.9C1.56669 11.1762 1.79055 11.4001 2.06669 11.4001Z" fill="black"/>
</svg>
