<svg width="16" height="16" viewBox="0 0 16 16" fill="none" xmlns="http://www.w3.org/2000/svg">
<path d="M5.26636 1.46676C5.26636 1.09949 5.56409 0.801758 5.93136 0.801758H10.0691C10.4363 0.801758 10.7341 1.09949 10.7341 1.46676C10.7341 1.83403 10.4363 2.13176 10.0691 2.13176H5.93136C5.56409 2.13176 5.26636 1.83403 5.26636 1.46676Z" fill="black"/>
<path d="M1.03491 3.64449C1.03491 3.27722 1.33264 2.97949 1.69991 2.97949H14.2999C14.6672 2.97949 14.9649 3.27722 14.9649 3.64449C14.9649 4.01176 14.6672 4.30949 14.2999 4.30949H1.69991C1.33264 4.30949 1.03491 4.01176 1.03491 3.64449Z" fill="black"/>
<path fill-rule="evenodd" clip-rule="evenodd" d="M4.75338 5.15726C3.83382 5.15726 3.08838 5.90271 3.08838 6.82226V13.1332C3.08838 14.2737 4.01291 15.1982 5.15338 15.1982H10.8466C11.9871 15.1982 12.9116 14.2737 12.9116 13.1332V6.82226C12.9116 5.9027 12.1661 5.15726 11.2466 5.15726H4.75338ZM4.41838 6.82226C4.41838 6.63724 4.56836 6.48726 4.75338 6.48726H11.2466C11.4316 6.48726 11.5816 6.63724 11.5816 6.82226V13.1332C11.5816 13.5392 11.2525 13.8682 10.8466 13.8682H5.15338C4.74745 13.8682 4.41838 13.5392 4.41838 13.1332V6.82226Z" fill="black"/>
</svg>
