<svg width="16" height="16" viewBox="0 0 16 16" fill="none" xmlns="http://www.w3.org/2000/svg">
<path d="M10.0512 2.91542C9.79154 2.65572 9.37049 2.65572 9.11079 2.91542L7.99992 4.02628L6.88905 2.91542C6.62936 2.65572 6.2083 2.65572 5.9486 2.91542C5.6889 3.17512 5.6889 3.59617 5.9486 3.85587L7.05947 4.96674L5.9486 6.0776C5.6889 6.3373 5.6889 6.75836 5.9486 7.01806C6.2083 7.27775 6.62936 7.27775 6.88905 7.01806L7.99992 5.90719L9.11079 7.01806C9.37049 7.27775 9.79154 7.27775 10.0512 7.01806C10.3109 6.75836 10.3109 6.3373 10.0512 6.0776L8.94037 4.96674L10.0512 3.85587C10.3109 3.59617 10.3109 3.17512 10.0512 2.91542Z" fill="black"/>
<path fill-rule="evenodd" clip-rule="evenodd" d="M12.665 7.8667L12.6649 2.06673C12.6649 1.09194 11.8746 0.301732 10.8998 0.301758L5.09993 0.301911C4.12517 0.301936 3.33498 1.09215 3.33498 2.06691V7.86673C3.33498 8.84151 4.12519 9.63173 5.09998 9.63173H10.9C11.8748 9.63173 12.665 8.8415 12.665 7.8667ZM11.3349 2.06675L11.335 7.86672C11.335 8.10697 11.1402 8.30173 10.9 8.30173H5.09998C4.85973 8.30173 4.66498 8.10697 4.66498 7.86673V2.06691C4.66498 1.82667 4.85973 1.63192 5.09997 1.63191L10.8999 1.63176C11.1401 1.63175 11.3349 1.82651 11.3349 2.06675Z" fill="black"/>
<path d="M4.80319 10.5634C5.06289 10.8231 5.06289 11.2441 4.80319 11.5038L3.93842 12.3686L13.6674 12.3686C14.0347 12.3686 14.3324 12.6663 14.3324 13.0336C14.3324 13.4009 14.0347 13.6986 13.6674 13.6986L3.93842 13.6986L4.80319 14.5634C5.06289 14.8231 5.06289 15.2441 4.80319 15.5038C4.5435 15.7635 4.12244 15.7635 3.86274 15.5038L1.86274 13.5038C1.60304 13.2441 1.60304 12.8231 1.86274 12.5634L3.86274 10.5634C4.12244 10.3037 4.5435 10.3037 4.80319 10.5634Z" fill="black"/>
</svg>
