<svg width="16" height="16" viewBox="0 0 16 16" fill="none" xmlns="http://www.w3.org/2000/svg">
<path d="M5.94868 2.91542C6.20838 2.65572 6.62943 2.65572 6.88913 2.91542L8 4.02628L9.11087 2.91542C9.37057 2.65572 9.79162 2.65572 10.0513 2.91542C10.311 3.17512 10.311 3.59617 10.0513 3.85587L8.94045 4.96674L10.0513 6.0776C10.311 6.3373 10.311 6.75836 10.0513 7.01806C9.79162 7.27775 9.37057 7.27775 9.11087 7.01806L8 5.90719L6.88913 7.01806C6.62943 7.27775 6.20838 7.27775 5.94868 7.01806C5.68898 6.75836 5.68898 6.3373 5.94868 6.0776L7.05955 4.96674L5.94868 3.85587C5.68898 3.59617 5.68898 3.17512 5.94868 2.91542Z" fill="black"/>
<path fill-rule="evenodd" clip-rule="evenodd" d="M3.33496 7.8667L3.33505 2.06673C3.33506 1.09194 4.1253 0.301732 5.10009 0.301758L10.9 0.301911C11.8748 0.301936 12.6649 1.09215 12.6649 2.06691V7.86673C12.6649 8.84151 11.8747 9.63173 10.8999 9.63173H5.09996C4.12517 9.63173 3.33495 8.8415 3.33496 7.8667ZM4.66505 2.06675L4.66496 7.86672C4.66496 8.10697 4.85971 8.30173 5.09996 8.30173H10.8999C11.1402 8.30173 11.3349 8.10697 11.3349 7.86673V2.06691C11.3349 1.82667 11.1402 1.63192 10.9 1.63191L5.10006 1.63176C4.85981 1.63175 4.66505 1.82651 4.66505 2.06675Z" fill="black"/>
<path d="M11.1972 10.5633C10.9375 10.823 10.9375 11.2441 11.1972 11.5038L12.062 12.3685L2.33297 12.3685C1.9657 12.3685 1.66797 12.6663 1.66797 13.0335C1.66797 13.4008 1.9657 13.6985 2.33297 13.6985L12.062 13.6985L11.1972 14.5633C10.9375 14.823 10.9375 15.2441 11.1972 15.5038C11.4569 15.7635 11.878 15.7635 12.1377 15.5038L14.1377 13.5038C14.3974 13.2441 14.3974 12.823 14.1377 12.5633L12.1377 10.5633C11.878 10.3036 11.4569 10.3036 11.1972 10.5633Z" fill="black"/>
</svg>
