<svg width="16" height="16" viewBox="0 0 16 16" fill="none" xmlns="http://www.w3.org/2000/svg">
<path d="M10.0054 2.96131C9.77113 2.727 9.39123 2.727 9.15692 2.96131L8.00009 4.11814L6.84326 2.96131C6.60895 2.727 6.22905 2.727 5.99473 2.96131C5.76042 3.19563 5.76042 3.57553 5.99473 3.80984L7.15156 4.96667L5.99473 6.1235C5.76042 6.35781 5.76042 6.73771 5.99473 6.97203C6.22905 7.20634 6.60895 7.20634 6.84326 6.97203L8.00009 5.8152L9.15692 6.97203C9.39123 7.20634 9.77113 7.20634 10.0054 6.97203C10.2398 6.73771 10.2398 6.35781 10.0054 6.1235L8.84862 4.96667L10.0054 3.80984C10.2398 3.57553 10.2398 3.19563 10.0054 2.96131Z" fill="black"/>
<path fill-rule="evenodd" clip-rule="evenodd" d="M12.6001 7.86664L12.6001 2.06667C12.6 1.12778 11.8389 0.366674 10.9 0.366699L5.10012 0.366852C4.16125 0.366877 3.40016 1.12799 3.40016 2.06685V7.86667C3.40016 8.80555 4.16128 9.56667 5.10016 9.56667H10.9001C11.839 9.56667 12.6002 8.80554 12.6001 7.86664ZM11.4001 2.06669L11.4001 7.86666C11.4002 8.14281 11.1763 8.36667 10.9001 8.36667H5.10016C4.82402 8.36667 4.60016 8.14281 4.60016 7.86667V2.06685C4.60016 1.79071 4.82401 1.56686 5.10015 1.56685L10.9 1.5667C11.1762 1.56669 11.4001 1.79055 11.4001 2.06669Z" fill="black"/>
<path d="M4.75717 10.6093C4.99149 10.8436 4.99149 11.2235 4.75717 11.4579L3.78144 12.4336L13.6676 12.4336C13.999 12.4336 14.2676 12.7022 14.2676 13.0336C14.2676 13.365 13.999 13.6336 13.6676 13.6336L3.78144 13.6336L4.75717 14.6093C4.99149 14.8436 4.99149 15.2235 4.75717 15.4579C4.52286 15.6922 4.14296 15.6922 3.90865 15.4579L1.90865 13.4579C1.67433 13.2235 1.67433 12.8436 1.90865 12.6093L3.90865 10.6093C4.14296 10.375 4.52286 10.375 4.75717 10.6093Z" fill="black"/>
</svg>
