<svg width="16" height="16" viewBox="0 0 16 16" fill="none" xmlns="http://www.w3.org/2000/svg">
<path fill-rule="evenodd" clip-rule="evenodd" d="M12.1272 14.9257L10.3272 14.9257C9.35237 14.9258 8.5621 14.1356 8.5621 13.1607V10.0902L8.56209 10.0867L8.5621 10.0832V5.91642L8.56209 5.91291L8.5621 5.9094V2.83873C8.5621 1.86395 9.35232 1.07373 10.3271 1.07373H12.127C13.1018 1.07373 13.892 1.86394 13.892 2.83872L13.892 5.90381L13.8921 5.91291L13.892 5.922L13.8921 10.0808L13.8921 10.0867L13.8921 10.0927L13.8921 13.1607C13.8921 14.1354 13.1019 14.9256 12.1272 14.9257ZM12.562 6.57791L12.5621 9.42174H9.8921V6.57791H12.562ZM12.562 5.24791H9.8921V2.83873C9.8921 2.59849 10.0869 2.40373 10.3271 2.40373H12.127C12.3672 2.40373 12.562 2.59848 12.562 2.83873L12.562 5.24791ZM9.8921 13.1607V10.7517H12.5621L12.5621 13.1607C12.5621 13.4009 12.3673 13.5957 12.1271 13.5957L10.3271 13.5957C10.0869 13.5958 9.8921 13.401 9.8921 13.1607Z" fill="black"/>
<path d="M2.3022 5.94859C2.56189 5.68889 2.98295 5.68889 3.24265 5.94859L4.35352 7.05946L5.46438 5.94859C5.72408 5.68889 6.14514 5.68889 6.40483 5.94859C6.66453 6.20829 6.66453 6.62934 6.40483 6.88904L5.29397 7.99991L6.40483 9.11077C6.66453 9.37047 6.66453 9.79153 6.40483 10.0512C6.14514 10.3109 5.72408 10.3109 5.46438 10.0512L4.35352 8.94036L3.24265 10.0512C2.98295 10.3109 2.56189 10.3109 2.3022 10.0512C2.0425 9.79153 2.0425 9.37047 2.3022 9.11077L3.41306 7.99991L2.3022 6.88904C2.0425 6.62934 2.0425 6.20829 2.3022 5.94859Z" fill="black"/>
</svg>
