<svg width="16" height="16" viewBox="0 0 16 16" fill="none" xmlns="http://www.w3.org/2000/svg">
<path d="M13.0337 1.66748C13.4009 1.66748 13.6987 1.96521 13.6987 2.33248L13.6987 12.0617L14.5634 11.197C14.8231 10.9373 15.2442 10.9373 15.5039 11.197C15.7636 11.4567 15.7636 11.8777 15.5039 12.1374L13.5039 14.1374C13.2442 14.3971 12.8231 14.3971 12.5634 14.1374L10.5634 12.1374C10.3037 11.8777 10.3037 11.4567 10.5634 11.197C10.8231 10.9373 11.2442 10.9373 11.5039 11.197L12.3687 12.0617L12.3687 2.33248C12.3687 1.96521 12.6664 1.66748 13.0337 1.66748Z" fill="black"/>
<path d="M2.91548 5.94874C3.17518 5.68904 3.59623 5.68904 3.85593 5.94874L4.9668 7.05961L6.07766 5.94874C6.33736 5.68904 6.75842 5.68904 7.01812 5.94874C7.27781 6.20844 7.27781 6.6295 7.01812 6.88919L5.90725 8.00006L7.01812 9.11093C7.27781 9.37063 7.27781 9.79168 7.01812 10.0514C6.75842 10.3111 6.33736 10.3111 6.07766 10.0514L4.9668 8.94051L3.85593 10.0514C3.59623 10.3111 3.17518 10.3111 2.91548 10.0514C2.65578 9.79168 2.65578 9.37063 2.91548 9.11093L4.02634 8.00006L2.91548 6.88919C2.65578 6.6295 2.65578 6.20844 2.91548 5.94874Z" fill="black"/>
<path fill-rule="evenodd" clip-rule="evenodd" d="M7.8667 3.33484L2.06673 3.33493C1.09194 3.33494 0.301732 4.12518 0.301758 5.09997L0.301911 10.8999C0.301936 11.8746 1.09215 12.6648 2.06691 12.6648H7.86673C8.84151 12.6648 9.63173 11.8746 9.63173 10.8998V5.09984C9.63173 4.12505 8.8415 3.33482 7.8667 3.33484ZM2.06675 4.66493L7.86672 4.66484C8.10697 4.66484 8.30173 4.85959 8.30173 5.09984V10.8998C8.30173 11.1401 8.10697 11.3348 7.86673 11.3348H2.06691C1.82667 11.3348 1.63192 11.1401 1.63191 10.8998L1.63176 5.09994C1.63175 4.85969 1.82651 4.66493 2.06675 4.66493Z" fill="black"/>
</svg>
