<svg width="16" height="16" viewBox="0 0 16 16" fill="none" xmlns="http://www.w3.org/2000/svg">
<path d="M5.94868 2.30268C6.20838 2.04299 6.62943 2.04299 6.88913 2.30268L8 3.41355L9.11087 2.30268C9.37057 2.04299 9.79162 2.04299 10.0513 2.30268C10.311 2.56238 10.311 2.98344 10.0513 3.24314L8.94045 4.354L10.0513 5.46487C10.311 5.72457 10.311 6.14562 10.0513 6.40532C9.79162 6.66502 9.37057 6.66502 9.11087 6.40532L8 5.29446L6.88913 6.40532C6.62943 6.66502 6.20838 6.66502 5.94868 6.40532C5.68898 6.14562 5.68898 5.72457 5.94868 5.46487L7.05955 4.354L5.94868 3.24314C5.68898 2.98344 5.68898 2.56238 5.94868 2.30268Z" fill="black"/>
<path fill-rule="evenodd" clip-rule="evenodd" d="M2.83932 13.8923L5.90713 13.8923L5.91305 13.8923L5.91898 13.8923L10.0778 13.8923L10.0869 13.8923L10.096 13.8923L13.1613 13.8922C14.136 13.8922 14.9262 13.102 14.9262 12.1272V10.3273C14.9262 9.35256 14.136 8.56234 13.1612 8.56234H10.0904L10.0869 8.56233L10.0834 8.56234H5.91656L5.91305 8.56233L5.90954 8.56234H2.83922C1.8644 8.56234 1.07417 9.35261 1.07422 10.3274L1.0743 12.1274C1.07435 13.1022 1.86456 13.8923 2.83932 13.8923ZM9.42188 9.89234H6.57805V12.5623L9.42188 12.5623V9.89234ZM10.7519 12.5623L13.1612 12.5622C13.4015 12.5622 13.5962 12.3675 13.5962 12.1272V10.3273C13.5962 10.0871 13.4015 9.89234 13.1612 9.89234H10.7519V12.5623ZM2.83922 9.89234H5.24805V12.5623L2.83931 12.5623C2.59907 12.5623 2.40431 12.3676 2.4043 12.1274L2.40422 10.3274C2.40421 10.0871 2.59897 9.89234 2.83922 9.89234Z" fill="black"/>
</svg>
