<svg width="16" height="16" viewBox="0 0 16 16" fill="none" xmlns="http://www.w3.org/2000/svg">
<path fill-rule="evenodd" clip-rule="evenodd" d="M12.4549 14.8606L10.6549 14.8607C9.71601 14.8607 8.95484 14.0996 8.95484 13.1607V2.83867C8.95484 1.89979 9.71596 1.13867 10.6548 1.13867H12.4547C13.3936 1.13867 14.1547 1.89978 14.1547 2.83866L14.1548 5.90355L14.1548 5.91284L14.1548 5.92212L14.1548 10.0801L14.1548 10.0867L14.1548 10.0932L14.1548 13.1606C14.1548 14.0995 13.3938 14.8606 12.4549 14.8606ZM12.9548 6.51284L12.9548 9.48667H10.1548V6.51284H12.9548ZM12.9548 5.31284L10.1548 5.31284V2.83867C10.1548 2.56253 10.3787 2.33867 10.6548 2.33867H12.4547C12.7309 2.33867 12.9547 2.56253 12.9547 2.83867L12.9548 5.31284ZM12.9548 10.6867H10.1548V13.1607C10.1548 13.4368 10.3787 13.6607 10.6549 13.6607L12.4549 13.6606C12.731 13.6606 12.9548 13.4367 12.9548 13.1606L12.9548 10.6867Z" fill="black"/>
<path d="M2.67622 5.99449C2.91054 5.76018 3.29044 5.76018 3.52475 5.99449L4.68158 7.15132L5.83841 5.99449C6.07273 5.76018 6.45262 5.76018 6.68694 5.99449C6.92125 6.22881 6.92125 6.60871 6.68694 6.84302L5.53011 7.99985L6.68694 9.15668C6.92125 9.391 6.92125 9.77089 6.68694 10.0052C6.45262 10.2395 6.07273 10.2395 5.83841 10.0052L4.68158 8.84838L3.52475 10.0052C3.29044 10.2395 2.91054 10.2395 2.67622 10.0052C2.44191 9.77089 2.44191 9.391 2.67622 9.15668L3.83305 7.99985L2.67622 6.84302C2.44191 6.60871 2.44191 6.22881 2.67622 5.99449Z" fill="black"/>
</svg>
