<svg width="16" height="16" viewBox="0 0 16 16" fill="none" xmlns="http://www.w3.org/2000/svg">
<path d="M8.00006 4.51001C7.54995 4.51001 7.18506 4.8749 7.18506 5.32501C7.18506 5.77512 7.54995 6.14001 8.00006 6.14001C8.45017 6.14001 8.81506 5.77512 8.81506 5.32501C8.81506 4.8749 8.45017 4.51001 8.00006 4.51001Z" fill="black"/>
<path d="M7.99996 6.86011C7.63269 6.86011 7.33496 7.15784 7.33496 7.52511V11.4251C7.33496 11.7924 7.63269 12.0901 7.99996 12.0901C8.36723 12.0901 8.66496 11.7924 8.66496 11.4251V7.52511C8.66496 7.15784 8.36723 6.86011 7.99996 6.86011Z" fill="black"/>
<path fill-rule="evenodd" clip-rule="evenodd" d="M7.99996 0.835083C4.04284 0.835083 0.834961 4.04296 0.834961 8.00008C0.834961 11.9572 4.04284 15.1651 7.99996 15.1651C11.9571 15.1651 15.165 11.9572 15.165 8.00008C15.165 4.04296 11.9571 0.835083 7.99996 0.835083ZM2.16496 8.00008C2.16496 4.7775 4.77738 2.16508 7.99996 2.16508C11.2225 2.16508 13.835 4.7775 13.835 8.00008C13.835 11.2227 11.2225 13.8351 7.99996 13.8351C4.77738 13.8351 2.16496 11.2227 2.16496 8.00008Z" fill="black"/>
</svg>
