<svg width="16" height="16" viewBox="0 0 16 16" fill="none" xmlns="http://www.w3.org/2000/svg">
<path d="M4.41357 5.13242C4.41357 4.80105 4.6822 4.53242 5.01357 4.53242H10.9862C11.3176 4.53242 11.5862 4.80105 11.5862 5.13242C11.5862 5.46379 11.3176 5.73242 10.9862 5.73242H5.01357C4.6822 5.73242 4.41357 5.46379 4.41357 5.13242Z" fill="black"/>
<path d="M4.41357 7.87852C4.41357 7.54715 4.6822 7.27852 5.01357 7.27852H10.9862C11.3176 7.27852 11.5862 7.54715 11.5862 7.87852C11.5862 8.20989 11.3176 8.47852 10.9862 8.47852H5.01357C4.6822 8.47852 4.41357 8.20989 4.41357 7.87852Z" fill="black"/>
<path d="M4.41357 10.6715C4.41357 10.3401 4.6822 10.0715 5.01357 10.0715H8.17178C8.50315 10.0715 8.77178 10.3401 8.77178 10.6715C8.77178 11.0029 8.50315 11.2715 8.17178 11.2715H5.01357C4.6822 11.2715 4.41357 11.0029 4.41357 10.6715Z" fill="black"/>
<path fill-rule="evenodd" clip-rule="evenodd" d="M1.90107 0.478516C1.45925 0.478516 1.10107 0.836687 1.10107 1.27852V11.9215C1.10107 13.9097 2.71285 15.5215 4.70107 15.5215H14.0987C14.5406 15.5215 14.8987 15.1633 14.8987 14.7215V4.07852C14.8987 2.09029 13.287 0.478516 11.2987 0.478516H1.90107ZM2.30107 11.9215V1.67852H11.2987C12.6242 1.67852 13.6987 2.75303 13.6987 4.07852V14.3215H4.70107C3.37559 14.3215 2.30107 13.247 2.30107 11.9215Z" fill="black"/>
</svg>
