<svg width="16" height="16" viewBox="0 0 16 16" fill="none" xmlns="http://www.w3.org/2000/svg">
<path d="M10.9913 10.8779C11.4971 10.8779 11.9073 11.2882 11.9073 11.7939C11.9073 12.2997 11.4971 12.71 10.9913 12.71C10.4857 12.7099 10.0754 12.2996 10.0753 11.7939C10.0753 11.2882 10.4857 10.878 10.9913 10.8779Z" fill="black"/>
<path fill-rule="evenodd" clip-rule="evenodd" d="M11.9572 8.51465C12.5471 8.51471 13.0936 8.82742 13.3927 9.33594L14.3419 10.9502C14.6291 11.4386 14.6479 12.037 14.3966 12.5391L14.3419 12.6377L13.3927 14.252C13.0936 14.7605 12.5471 15.0732 11.9572 15.0732H10.0255C9.50941 15.0731 9.02688 14.8339 8.71399 14.4336L8.59094 14.252L7.64075 12.6377C7.33466 12.1169 7.33466 11.471 7.64075 10.9502L8.59094 9.33594L8.71399 9.1543C9.02688 8.75387 9.50935 8.51477 10.0255 8.51465H11.9572ZM10.0255 9.84473C9.93678 9.84483 9.85287 9.87988 9.79114 9.94043L9.73743 10.0098L8.78723 11.624C8.72565 11.7288 8.72564 11.8591 8.78723 11.9639L9.73743 13.5781L9.79114 13.6475C9.85286 13.7079 9.93684 13.7431 10.0255 13.7432H11.9572C12.0757 13.7431 12.186 13.6803 12.2462 13.5781L13.1954 11.9639L13.2306 11.8809C13.2536 11.7953 13.2415 11.7025 13.1954 11.624L12.2462 10.0098C12.186 9.90756 12.0758 9.84479 11.9572 9.84473H10.0255Z" fill="black"/>
<path d="M10.5031 0.926758C11.9748 0.926758 13.1679 2.12013 13.1681 3.5918V6.41602C13.1679 6.78314 12.8702 7.08105 12.5031 7.08105C12.1361 7.08084 11.8382 6.783 11.838 6.41602V3.5918C11.8378 2.85467 11.2402 2.25684 10.5031 2.25684H4.0929C3.35572 2.25684 2.75813 2.85467 2.75793 3.5918V12.085C2.75818 12.8221 3.35574 13.4199 4.0929 13.4199H6.18958L6.32434 13.4326C6.62712 13.4947 6.85444 13.7639 6.85461 14.085C6.8544 14.406 6.62705 14.6742 6.32434 14.7363L6.18958 14.75H4.0929C2.62121 14.75 1.4281 13.5566 1.42786 12.085V3.5918C1.42806 2.12013 2.62118 0.926758 4.0929 0.926758H10.5031Z" fill="black"/>
<path d="M8.04993 6.42969C8.35293 6.49172 8.58118 6.75971 8.58118 7.08105C8.581 7.40229 8.35289 7.67047 8.04993 7.73242L7.91614 7.74609H4.73547C4.36833 7.74609 4.07063 7.44816 4.07043 7.08105C4.07043 6.71379 4.3682 6.41602 4.73547 6.41602H7.91614L8.04993 6.42969Z" fill="black"/>
<path d="M10.1007 3.92188C10.4034 3.98418 10.631 4.25215 10.631 4.57324C10.6309 4.8943 10.4033 5.16233 10.1007 5.22461L9.96594 5.23828H4.73547C4.36824 5.23828 4.0705 4.94046 4.07043 4.57324C4.07043 4.20597 4.3682 3.9082 4.73547 3.9082H9.96594L10.1007 3.92188Z" fill="black"/>
</svg>
