<svg width="16" height="16" viewBox="0 0 16 16" fill="none" xmlns="http://www.w3.org/2000/svg">
<path d="M5.01363 4.46748C4.64636 4.46748 4.34863 4.76521 4.34863 5.13248C4.34863 5.49975 4.64636 5.79748 5.01363 5.79748H10.9863C11.3536 5.79748 11.6513 5.49975 11.6513 5.13248C11.6513 4.76521 11.3536 4.46748 10.9863 4.46748H5.01363Z" fill="black"/>
<path d="M5.01363 7.21358C4.64636 7.21358 4.34863 7.51131 4.34863 7.87858C4.34863 8.24584 4.64636 8.54357 5.01363 8.54357H10.9863C11.3536 8.54357 11.6513 8.24584 11.6513 7.87858C11.6513 7.51131 11.3536 7.21358 10.9863 7.21358H5.01363Z" fill="black"/>
<path d="M5.01363 10.0065C4.64636 10.0065 4.34863 10.3043 4.34863 10.6715C4.34863 11.0388 4.64636 11.3365 5.01363 11.3365H8.17184C8.5391 11.3365 8.83684 11.0388 8.83684 10.6715C8.83684 10.3043 8.5391 10.0065 8.17184 10.0065H5.01363Z" fill="black"/>
<path fill-rule="evenodd" clip-rule="evenodd" d="M1.90113 0.413574C1.42341 0.413574 1.03613 0.800847 1.03613 1.27857V11.9215C1.03613 13.9457 2.67701 15.5865 4.70113 15.5865H14.0988C14.5765 15.5865 14.9638 15.1993 14.9638 14.7215V4.07857C14.9638 2.05445 13.3229 0.413574 11.2988 0.413574H1.90113ZM2.36613 11.9215V1.74357H11.2988C12.5884 1.74357 13.6338 2.78899 13.6338 4.07857V14.2565H4.70113C3.41155 14.2565 2.36613 13.2111 2.36613 11.9215Z" fill="black"/>
</svg>
