<svg width="16" height="16" viewBox="0 0 16 16" fill="none" xmlns="http://www.w3.org/2000/svg">
<path d="M7.99996 0.935059C7.63269 0.935059 7.33496 1.23279 7.33496 1.60006V2.83496H5.73846C4.27297 2.83496 3.08496 4.02297 3.08496 5.48846C3.08496 6.74208 3.96231 7.82468 5.18873 8.08439L10.5357 9.21668C11.1474 9.34622 11.585 9.88618 11.585 10.5115C11.585 11.2424 10.9924 11.835 10.2615 11.835H5.79542C5.03301 11.835 4.41496 11.2169 4.41496 10.4545C4.41496 10.0872 4.11723 9.78951 3.74996 9.78951C3.38269 9.78951 3.08496 10.0872 3.08496 10.4545C3.08496 11.9514 4.29847 13.165 5.79542 13.165H7.33496V14.4001C7.33496 14.7673 7.63269 15.0651 7.99996 15.0651C8.36723 15.0651 8.66496 14.7673 8.66496 14.4001V13.165H10.2615C11.7269 13.165 12.915 11.9769 12.915 10.5115C12.915 9.25784 12.0376 8.17525 10.8112 7.91553L5.46427 6.78324C4.85256 6.6537 4.41496 6.11374 4.41496 5.48846C4.41496 4.75751 5.00751 4.16496 5.73846 4.16496H10.2045C10.9669 4.16496 11.585 4.78301 11.585 5.54542C11.585 5.91268 11.8827 6.21042 12.25 6.21042C12.6172 6.21042 12.915 5.91268 12.915 5.54542C12.915 4.04847 11.7014 2.83496 10.2045 2.83496H8.66496V1.60006C8.66496 1.23279 8.36723 0.935059 7.99996 0.935059Z" fill="black"/>
</svg>
