<svg width="16" height="16" viewBox="0 0 16 16" fill="none" xmlns="http://www.w3.org/2000/svg">
<path d="M7.99752 1.33508C7.63025 1.33508 7.33252 1.63281 7.33252 2.00008V9.05882L5.47019 7.19648C5.21049 6.93678 4.78943 6.93678 4.52974 7.19648C4.27004 7.45618 4.27004 7.87724 4.52974 8.13694L7.49429 11.1015C7.61614 11.2424 7.79643 11.3317 7.99752 11.3317L8.0106 11.3316C8.17713 11.329 8.34306 11.2641 8.47019 11.1369L11.4702 8.13694C11.7299 7.87724 11.7299 7.45618 11.4702 7.19648C11.2105 6.93678 10.7894 6.93678 10.5297 7.19648L8.66252 9.0637V2.00008C8.66252 1.63281 8.36479 1.33508 7.99752 1.33508Z" fill="black"/>
<path d="M14 7.33508C13.6327 7.33508 13.335 7.63281 13.335 8.00008V12.0001C13.335 12.7374 12.7373 13.3351 12 13.3351H3.99996C3.26266 13.3351 2.66496 12.7374 2.66496 12.0001V8.00285C2.66496 7.63558 2.36723 7.33785 1.99996 7.33785C1.63269 7.33785 1.33496 7.63558 1.33496 8.00285V12.0001C1.33496 13.4719 2.52812 14.6651 3.99996 14.6651H12C13.4718 14.6651 14.665 13.4719 14.665 12.0001V8.00008C14.665 7.63281 14.3672 7.33508 14 7.33508Z" fill="black"/>
</svg>
