<svg width="16" height="16" viewBox="0 0 16 16" fill="none" xmlns="http://www.w3.org/2000/svg">
<path fill-rule="evenodd" clip-rule="evenodd" d="M13.9999 7.3335C14.3681 7.3335 14.6666 7.63196 14.6666 8.00016V13.0002C14.6666 13.9206 13.9204 14.6668 12.9999 14.6668H2.99992C2.07944 14.6668 1.33325 13.9206 1.33325 13.0002V3.00016C1.33325 2.07969 2.07945 1.3335 2.99992 1.3335H7.99992C8.36812 1.3335 8.66659 1.63197 8.66659 2.00016C8.66659 2.36835 8.36812 2.66683 7.99992 2.66683H2.99992C2.81582 2.66683 2.66659 2.81607 2.66659 3.00016V10.1513L5.11381 7.90803C5.61102 7.45223 6.37036 7.43958 6.8825 7.87857L9.01633 9.70757L10.453 8.27089C10.9222 7.8017 11.665 7.74896 12.1958 8.14706L13.3333 9.00013V8.00016C13.3333 7.63196 13.6317 7.3335 13.9999 7.3335ZM11.3958 9.21373L13.3333 10.6668V13.0002C13.3333 13.1843 13.184 13.3335 12.9999 13.3335H2.99992C2.81583 13.3335 2.66659 13.1843 2.66659 13.0002V11.9601L6.01476 8.8909L10.2327 12.5063C10.5123 12.7459 10.9331 12.7135 11.1728 12.434C11.4124 12.1544 11.38 11.7336 11.1005 11.494L10.0317 10.5779L11.3958 9.21373Z" fill="black"/>
<path d="M12.3333 1.3335C12.7014 1.3335 12.9999 1.63197 12.9999 2.00016V4.39069L13.5285 3.86209C13.7889 3.60174 14.211 3.60174 14.4713 3.86209C14.7317 4.12244 14.7317 4.54455 14.4713 4.8049L12.8047 6.47157C12.7407 6.53549 12.6671 6.58371 12.5884 6.61624C12.5098 6.64884 12.4236 6.66683 12.3333 6.66683C12.2429 6.66683 12.1567 6.64884 12.0781 6.61624C11.9994 6.58371 11.9258 6.53549 11.8618 6.47157L10.1952 4.8049C9.93483 4.54455 9.93483 4.12244 10.1952 3.86209C10.4555 3.60174 10.8776 3.60174 11.138 3.86209L11.6666 4.39069V2.00016C11.6666 1.63197 11.9651 1.3335 12.3333 1.3335Z" fill="black"/>
</svg>
