<svg width="16" height="16" viewBox="0 0 16 16" fill="none" xmlns="http://www.w3.org/2000/svg">
<path d="M3.74166 1.07666C2.26974 1.07666 1.07654 2.26995 1.07666 3.74187L1.07735 12.2582C1.07747 13.73 2.27059 14.923 3.74235 14.923H6.9562C7.32347 14.923 7.6212 14.6253 7.6212 14.258C7.6212 13.8908 7.32347 13.593 6.9562 13.593H3.74235C3.00509 13.593 2.40741 12.9954 2.40735 12.2581L2.40666 3.74177C2.4066 3.00443 3.00432 2.40666 3.74166 2.40666H12.2579C12.9952 2.40666 13.5929 3.00436 13.5929 3.74166V7.30406C13.5929 7.67133 13.8906 7.96906 14.2579 7.96906C14.6251 7.96906 14.9229 7.67133 14.9229 7.30406V3.74166C14.9229 2.26982 13.7297 1.07666 12.2579 1.07666H3.74166Z" fill="black"/>
<path fill-rule="evenodd" clip-rule="evenodd" d="M9.52052 8.73802C9.3025 8.69442 9.0771 8.76266 8.91988 8.91988C8.76266 9.0771 8.69442 9.3025 8.73802 9.52052L9.71157 14.3883C9.76432 14.652 9.97075 14.858 10.2346 14.9102C10.4985 14.9624 10.7678 14.8505 10.917 14.6268L11.4406 13.8414L12.3273 14.7281C12.587 14.9878 13.0081 14.9878 13.2678 14.7281L14.7281 13.2678C14.9878 13.0081 14.9878 12.587 14.7281 12.3273L13.8414 11.4406L14.6268 10.917C14.8505 10.7678 14.9624 10.4985 14.9102 10.2346C14.858 9.97075 14.652 9.76432 14.3883 9.71157L9.52052 8.73802ZM10.7009 12.5532L10.2378 10.2378L12.5532 10.7009L12.4287 10.7839C12.2629 10.8944 12.1554 11.0734 12.1358 11.2717C12.1162 11.4699 12.1864 11.6666 12.3273 11.8074L13.3174 12.7975L12.7975 13.3174L11.8074 12.3273C11.6666 12.1864 11.4699 12.1162 11.2717 12.1358C11.0734 12.1554 10.8944 12.2629 10.7839 12.4287L10.7009 12.5532Z" fill="black"/>
</svg>
