<svg width="16" height="16" viewBox="0 0 16 16" fill="none" xmlns="http://www.w3.org/2000/svg">
<path d="M1.92036 1.44958C1.59225 1.28693 1.19289 1.41855 1.02847 1.74458C0.863891 2.07092 0.997547 2.46737 1.32597 2.63017L3.17024 3.54441L4.87189 10.9675C4.94082 11.2683 5.21024 11.481 5.52032 11.481H12.6061C12.9007 11.481 13.1606 11.2886 13.244 11.0075L15.0154 5.03623C15.0747 4.83653 15.0355 4.62088 14.9098 4.45436C14.7841 4.28787 14.5869 4.19003 14.3775 4.19003H7.64605C7.2793 4.19003 6.98105 4.48493 6.98105 4.84989C6.98105 5.21485 7.2793 5.50975 7.64605 5.50975H13.4885L12.9422 7.35148H7.64647C7.27973 7.35148 6.98147 7.64638 6.98147 8.01134C6.98147 8.3763 7.27973 8.6712 7.64647 8.6712H12.5507L12.1086 10.1613H6.05105L4.39732 2.94727C4.35312 2.75443 4.22412 2.59159 4.04609 2.50334L1.92036 1.44958Z" fill="black"/>
<path d="M6.20988 12.3551C5.57998 12.3551 5.06839 12.8615 5.06839 13.4874C5.06839 14.1133 5.57998 14.6197 6.20988 14.6197C6.83979 14.6197 7.35138 14.1133 7.35138 13.4874C7.35138 12.8615 6.83979 12.3551 6.20988 12.3551Z" fill="black"/>
<path d="M11.4389 12.3551C10.809 12.3551 10.2974 12.8615 10.2974 13.4874C10.2974 14.1133 10.809 14.6197 11.4389 14.6197C12.0688 14.6197 12.5804 14.1133 12.5804 13.4874C12.5804 12.8615 12.0688 12.3551 11.4389 12.3551Z" fill="black"/>
</svg>
