<svg width="17" height="16" viewBox="0 0 17 16" fill="none" xmlns="http://www.w3.org/2000/svg">
<g clip-path="url(#clip0_1275_120)">
<path fill-rule="evenodd" clip-rule="evenodd" d="M4.22896 2.34033C2.75712 2.34033 1.56396 3.53349 1.56396 5.00533V11.0053C1.56396 12.4772 2.75713 13.6703 4.22897 13.6703H13.5623C15.0341 13.6703 16.2273 12.4772 16.2273 11.0053V5.00533C16.2273 3.53349 15.0341 2.34033 13.5623 2.34033H4.22896ZM8.89568 7.1914L3.94911 3.6997C4.03931 3.68046 4.13293 3.67033 4.22896 3.67033H13.5623C13.6584 3.67033 13.752 3.68047 13.8422 3.69971L8.89568 7.1914ZM2.89397 5.00533C2.89397 4.8721 2.91346 4.74351 2.94973 4.62223L8.51219 8.54867C8.7421 8.71095 9.04927 8.71095 9.27918 8.54867L14.8415 4.62228C14.8778 4.74355 14.8973 4.87212 14.8973 5.00533V11.0053C14.8973 11.7426 14.2996 12.3403 13.5623 12.3403H4.22897C3.49167 12.3403 2.89397 11.7426 2.89397 11.0053V5.00533Z" fill="black"/>
</g>
<defs>
<clipPath id="clip0_1275_120">
<rect width="16" height="16" fill="white" transform="translate(0.895508 0.00537109)"/>
</clipPath>
</defs>
</svg>
