<svg width="17" height="16" viewBox="0 0 17 16" fill="none" xmlns="http://www.w3.org/2000/svg">
<path fill-rule="evenodd" clip-rule="evenodd" d="M11.2439 1.74472C10.4766 0.950158 9.21047 0.928057 8.41591 1.69536L1.7789 8.10465C0.984337 8.87194 0.962237 10.1381 1.72954 10.9326L4.93826 14.2554C5.17135 14.4967 5.45047 14.6668 5.74842 14.7652C5.86541 14.8676 6.01862 14.9297 6.18634 14.9297H14.159C14.5263 14.9297 14.824 14.632 14.824 14.2647C14.824 13.8974 14.5263 13.5997 14.159 13.5997H8.49635L14.4033 7.89545C15.1978 7.12815 15.2199 5.86201 14.4526 5.06745L11.2439 1.74472ZM13.4959 5.99135L10.2872 2.66861C10.0301 2.40244 9.60599 2.39503 9.33981 2.65208L6.13697 5.74502L10.2765 10.0317L13.4794 6.93873C13.7456 6.68168 13.753 6.25753 13.4959 5.99135ZM9.31982 10.9556L5.18025 6.66891L2.70279 9.06137C2.43662 9.31841 2.42921 9.74257 2.68626 10.0087L5.89498 13.3315C6.15203 13.5977 6.57619 13.6051 6.84236 13.348L9.31982 10.9556Z" fill="black"/>
</svg>
