<svg width="16" height="16" viewBox="0 0 16 16" fill="none" xmlns="http://www.w3.org/2000/svg">
<path fill-rule="evenodd" clip-rule="evenodd" d="M4.84744 14.2554C5.13718 14.5554 5.49804 14.7453 5.87778 14.8241C5.94522 14.8504 6.01859 14.8648 6.09531 14.8648H6.21452C6.26238 14.8665 6.31029 14.8665 6.35816 14.8648H14.068C14.3994 14.8648 14.668 14.5962 14.668 14.2648C14.668 13.9334 14.3994 13.6648 14.068 13.6648H8.33814L14.3125 7.89545C15.107 7.12815 15.1291 5.86201 14.3618 5.06745L11.1531 1.74472C10.3858 0.950158 9.11965 0.928057 8.32509 1.69536L1.68808 8.10465C0.893517 8.87194 0.871417 10.1381 1.63872 10.9326L4.84744 14.2554ZM13.4986 5.90104L10.2899 2.57831C9.98296 2.26048 9.47651 2.25164 9.15868 2.55856L5.90918 5.69657L10.2294 10.1702L13.4789 7.03224C13.7967 6.72532 13.8055 6.21887 13.4986 5.90104ZM9.36616 11.0038L5.04598 6.53016L2.52167 8.96785C2.20384 9.27477 2.195 9.78123 2.50192 10.0991L5.71065 13.4218C5.85627 13.5726 6.04681 13.6538 6.2408 13.6648H6.33161C6.51632 13.6543 6.69832 13.5801 6.84185 13.4415L9.36616 11.0038Z" fill="black"/>
</svg>
