<svg width="16" height="16" viewBox="0 0 16 16" fill="none" xmlns="http://www.w3.org/2000/svg">
<path d="M11.3296 0.935059C8.16194 0.935059 5.47256 2.89209 4.5269 5.74424H3.06588C2.69861 5.74424 2.40088 6.04197 2.40088 6.40924C2.40088 6.77651 2.69861 7.07424 3.06588 7.07424H4.22382C4.18471 7.37735 4.16455 7.68636 4.16455 8.00006C4.16455 8.31359 4.18469 8.62244 4.22376 8.92539H3.06588C2.69861 8.92539 2.40088 9.22312 2.40088 9.59039C2.40088 9.95766 2.69861 10.2554 3.06588 10.2554H4.52674C5.47225 13.1078 8.16176 15.0651 11.3296 15.0651C11.9391 15.0651 12.5318 14.9888 13.0981 14.845C13.4541 14.7546 13.6694 14.3927 13.579 14.0367C13.4886 13.6808 13.1267 13.4655 12.7708 13.5559C12.3105 13.6728 11.8278 13.7351 11.3296 13.7351C8.90479 13.7351 6.82778 12.3538 5.9464 10.2554H11.4292C11.7964 10.2554 12.0942 9.95766 12.0942 9.59039C12.0942 9.22312 11.7964 8.92539 11.4292 8.92539H5.5675C5.5195 8.62405 5.49455 8.31499 5.49455 8.00006C5.49455 7.68495 5.51952 7.37573 5.56758 7.07424H11.4292C11.7964 7.07424 12.0942 6.77651 12.0942 6.40924C12.0942 6.04197 11.7964 5.74424 11.4292 5.74424H5.9466C6.8281 3.64606 8.90497 2.26506 11.3296 2.26506C11.827 2.26506 12.309 2.32716 12.7687 2.44371C13.1247 2.53398 13.4865 2.31856 13.5767 1.96256C13.667 1.60655 13.4516 1.24478 13.0956 1.15451C12.53 1.01109 11.9382 0.935059 11.3296 0.935059Z" fill="black"/>
</svg>
