<svg width="16" height="16" viewBox="0 0 16 16" fill="none" xmlns="http://www.w3.org/2000/svg">
<path d="M4.14986 1.48511C2.67802 1.48511 1.48486 2.67827 1.48486 4.15011V11.85C1.48486 13.3219 2.67803 14.515 4.14987 14.515H13.8498C14.217 14.515 14.5148 14.2173 14.5148 13.85C14.5148 13.4827 14.217 13.185 13.8498 13.185H4.14987C3.41256 13.185 2.81486 12.5873 2.81486 11.85V4.15011C2.81486 3.41281 3.41256 2.81511 4.14986 2.81511H13.8498C14.217 2.81511 14.5148 2.51738 14.5148 2.15011C14.5148 1.78284 14.217 1.48511 13.8498 1.48511H4.14986Z" fill="black"/>
<path d="M12.011 4.95311C11.7513 4.69341 11.3302 4.69341 11.0705 4.95311C10.8108 5.21281 10.8108 5.63386 11.0705 5.89356L12.2444 7.06742H7.13766C6.77039 7.06742 6.47266 7.36515 6.47266 7.73242C6.47266 8.09969 6.77039 8.39742 7.13766 8.39742H12.2443L11.0705 9.57125C10.8108 9.83095 10.8108 10.252 11.0705 10.5117C11.3302 10.7714 11.7513 10.7714 12.011 10.5117L14.32 8.20263C14.5797 7.94293 14.5797 7.52188 14.32 7.26218L12.011 4.95311Z" fill="black"/>
</svg>
