<svg width="17" height="16" viewBox="0 0 17 16" fill="none" xmlns="http://www.w3.org/2000/svg">
<g clip-path="url(#clip0_2018_288)">
<path d="M1.27946 4.59651C1.60524 4.42693 2.0068 4.55354 2.17639 4.87932C2.35454 5.22154 2.63517 5.55883 3.01801 5.87258C4.10168 6.76072 5.91468 7.38372 8.0268 7.38372C10.1389 7.38372 11.9519 6.76073 13.0356 5.87259C13.4184 5.55883 13.6991 5.22153 13.8772 4.87932C14.0468 4.55355 14.4484 4.42693 14.7741 4.59651C15.0999 4.76609 15.2265 5.16765 15.0569 5.49343C14.7809 6.02374 14.3733 6.49585 13.8786 6.90126C13.8177 6.95116 13.7553 7.0002 13.6915 7.04835L15.2988 8.65566C15.5585 8.91536 15.5585 9.33641 15.2988 9.59611C15.0391 9.85581 14.6181 9.85581 14.3584 9.59611L12.5193 7.75707C11.937 8.0385 11.2895 8.26418 10.5967 8.42551L11.1904 10.6414C11.2855 10.9962 11.0749 11.3608 10.7202 11.4559C10.3654 11.5509 10.0008 11.3404 9.90572 10.9857L9.27919 8.64733C8.87069 8.69111 8.45211 8.71372 8.0268 8.71372C7.59834 8.71372 7.17673 8.69077 6.76536 8.64636L6.13856 10.9857C6.04351 11.3405 5.67887 11.551 5.32411 11.4559C4.96936 11.3609 4.75882 10.9962 4.85388 10.6415L5.44817 8.42346C4.7596 8.2625 4.1159 8.03793 3.53662 7.75822L1.6987 9.59614C1.43901 9.85584 1.01795 9.85584 0.758252 9.59615C0.498553 9.33645 0.498551 8.91539 0.758249 8.6557L2.36407 7.04987C2.29955 7.00123 2.23649 6.95168 2.17495 6.90125C1.68027 6.49583 1.27271 6.02373 0.99666 5.49344C0.827075 5.16766 0.953691 4.7661 1.27946 4.59651Z" fill="black"/>
</g>
<defs>
<clipPath id="clip0_2018_288">
<rect width="16" height="16" fill="white" transform="translate(0.0283203)"/>
</clipPath>
</defs>
</svg>
