<svg width="16" height="16" viewBox="0 0 16 16" fill="none" xmlns="http://www.w3.org/2000/svg">
<path d="M2.31637 3.68699C2.0823 3.40398 1.66312 3.36431 1.38011 3.59838C1.09709 3.83245 1.05742 4.25163 1.29149 4.53465L4.95196 8.96042C5.16258 9.21508 5.52825 9.27643 5.81045 9.10446L8.83959 7.25857L12.6404 11.235H9.94747C9.5802 11.235 9.28247 11.5328 9.28247 11.9C9.28247 12.2673 9.5802 12.565 9.94747 12.565H14.1821C14.3519 12.5686 14.5231 12.5075 14.6556 12.3809C14.713 12.326 14.7585 12.2633 14.7919 12.196C14.8363 12.1069 14.8612 12.0064 14.8612 11.9V7.65133C14.8612 7.28406 14.5635 6.98633 14.1962 6.98633C13.8289 6.98633 13.5312 7.28406 13.5312 7.65133V10.2421L9.43126 5.95273C9.21535 5.72685 8.87131 5.68175 8.60449 5.84435L5.60995 7.66916L2.31637 3.68699Z" fill="black"/>
</svg>
