<svg width="16" height="16" viewBox="0 0 16 16" fill="none" xmlns="http://www.w3.org/2000/svg">
<path fill-rule="evenodd" clip-rule="evenodd" d="M3.09811 1.76855C1.90241 1.76855 0.933105 2.73786 0.933105 3.93355V12.0669C0.933105 13.2625 1.90241 14.2319 3.09811 14.2319H12.9018C14.0975 14.2319 15.0668 13.2625 15.0668 12.0669V5.10397C15.0668 4.18441 14.3214 3.43897 13.4018 3.43897H8.36999C8.29 3.43897 8.21265 3.41035 8.15193 3.35828L6.76561 2.16958C6.46381 1.9108 6.07937 1.76855 5.68182 1.76855H3.09811ZM2.26311 3.93355C2.26311 3.4724 2.63695 3.09855 3.09811 3.09855H5.68182C5.76181 3.09855 5.83916 3.12718 5.89988 3.17924L7.28619 4.36794C7.588 4.62672 7.97243 4.76897 8.36999 4.76897H13.4018C13.5868 4.76897 13.7368 4.91895 13.7368 5.10397V6.70068H2.26311V3.93355ZM2.26311 12.0669V8.03068H13.7368V12.0669C13.7368 12.528 13.363 12.9019 12.9018 12.9019H3.09811C2.63695 12.9019 2.26311 12.528 2.26311 12.0669Z" fill="black"/>
</svg>
