<svg width="16" height="16" viewBox="0 0 16 16" fill="none" xmlns="http://www.w3.org/2000/svg">
<path d="M10.82 2.71997C10.5396 2.71997 10.3123 2.94731 10.3123 3.22775V11.5462L9.50648 10.7404C9.30818 10.5421 8.98667 10.5421 8.78837 10.7404C8.59007 10.9387 8.59007 11.2602 8.78837 11.4585L10.4611 13.1312C10.6594 13.3295 10.9809 13.3295 11.1792 13.1312L12.8519 11.4585C13.0502 11.2602 13.0502 10.9387 12.8519 10.7404C12.6536 10.5421 12.3321 10.5421 12.1338 10.7404L11.3278 11.5464V3.22775C11.3278 2.94731 11.1005 2.71997 10.82 2.71997Z" fill="black"/>
<path d="M3.56444 8.73193C3.284 8.73193 3.05666 8.95927 3.05666 9.23971C3.05666 9.52015 3.284 9.74749 3.56444 9.74749H5.66805L3.20538 12.2102C3.06016 12.3554 3.01671 12.5738 3.09531 12.7635C3.1739 12.9533 3.35906 13.077 3.56444 13.077H6.89394C7.17438 13.077 7.40172 12.8497 7.40172 12.5692C7.40172 12.2888 7.17438 12.0614 6.89394 12.0614H4.79033L7.25299 9.59877C7.39822 9.45355 7.44166 9.23514 7.36307 9.04539C7.28447 8.85565 7.09932 8.73193 6.89394 8.73193H3.56444Z" fill="black"/>
<path fill-rule="evenodd" clip-rule="evenodd" d="M5.9834 3.44975C5.72605 2.74754 4.7329 2.74754 4.47554 3.44975L3.03066 7.39223C2.93416 7.65554 3.06939 7.94723 3.3327 8.04373C3.59601 8.14023 3.8877 8.005 3.9842 7.74169L4.40107 6.60424H6.05788L6.47475 7.74169C6.57125 8.005 6.86294 8.14023 7.12625 8.04373C7.38956 7.94723 7.52479 7.65554 7.42829 7.39223L5.9834 3.44975ZM5.68569 5.58868H4.77326L5.22947 4.34387L5.68569 5.58868Z" fill="black"/>
</svg>
