<svg width="16" height="16" viewBox="0 0 16 16" fill="none" xmlns="http://www.w3.org/2000/svg">
<path d="M12.2809 3.49046C12.0736 3.28313 11.7375 3.28313 11.5301 3.49046L9.77 5.25058C9.56267 5.45791 9.56267 5.79407 9.77 6.0014C9.97734 6.20874 10.3135 6.20874 10.5208 6.0014L11.3745 5.14774V12.134C11.3745 12.4273 11.6122 12.665 11.9054 12.665C12.1986 12.665 12.4363 12.4273 12.4363 12.134V5.14749L13.2902 6.0014C13.4976 6.20874 13.8337 6.20874 14.0411 6.0014C14.2484 5.79407 14.2484 5.45791 14.0411 5.25058L12.2809 3.49046Z" fill="black"/>
<path d="M2.57951 3.97632C1.92052 3.97632 1.56237 4.74673 1.98715 5.25055L4.36291 8.06837V10.9202C4.36291 11.2382 4.55725 11.524 4.85302 11.6408L5.68359 11.969C6.19209 12.1698 6.74308 11.7951 6.74308 11.2484V8.06837L9.11884 5.25055C9.54362 4.74673 9.18547 3.97632 8.52648 3.97632H2.57951Z" fill="black"/>
</svg>
