<svg width="16" height="16" viewBox="0 0 16 16" fill="none" xmlns="http://www.w3.org/2000/svg">
<path d="M10.821 13.2807C10.5405 13.2807 10.3131 13.0533 10.3131 12.7728V4.45262L9.50713 5.25858C9.30879 5.45692 8.98723 5.45692 8.78889 5.25858C8.59055 5.06024 8.59055 4.73867 8.78889 4.54034L10.462 2.86726C10.6603 2.66892 10.9819 2.66892 11.1802 2.86726L12.8533 4.54034C13.0516 4.73867 13.0516 5.06024 12.8533 5.25858C12.655 5.45692 12.3334 5.45692 12.135 5.25858L11.3288 4.45238V12.7728C11.3288 13.0533 11.1015 13.2807 10.821 13.2807Z" fill="black"/>
<path d="M3.56404 8.73187C3.28355 8.73187 3.05617 8.95926 3.05617 9.23975C3.05617 9.52024 3.28355 9.74762 3.56404 9.74762H5.66813L3.20492 12.2108C3.05967 12.3561 3.01622 12.5745 3.09483 12.7643C3.17344 12.9541 3.35863 13.0778 3.56404 13.0778H6.89424C7.17474 13.0778 7.40212 12.8504 7.40212 12.57C7.40212 12.2895 7.17474 12.0621 6.89424 12.0621H4.79016L7.25337 9.59887C7.39862 9.45362 7.44207 9.23517 7.36346 9.04539C7.28485 8.85561 7.09966 8.73187 6.89424 8.73187H3.56404Z" fill="black"/>
<path fill-rule="evenodd" clip-rule="evenodd" d="M5.98352 3.44858C5.72611 2.74623 4.73277 2.74623 4.47537 3.44858L3.03018 7.39188C2.93366 7.65524 3.06891 7.94698 3.33227 8.0435C3.59563 8.14002 3.88737 8.00477 3.98389 7.74141L4.40085 6.60371H6.05803L6.47499 7.74141C6.57151 8.00477 6.86325 8.14002 7.12661 8.0435C7.38998 7.94698 7.52523 7.65524 7.42871 7.39188L5.98352 3.44858ZM5.68577 5.58796H4.77311L5.22944 4.34284L5.68577 5.58796Z" fill="black"/>
</svg>
