<svg width="16" height="16" viewBox="0 0 16 16" fill="none" xmlns="http://www.w3.org/2000/svg">
<path d="M11.9054 3.33521C11.6122 3.33521 11.3745 3.5729 11.3745 3.86612V10.8524L10.5208 9.99876C10.3135 9.79143 9.97734 9.79143 9.77 9.99876C9.56267 10.2061 9.56267 10.5423 9.77 10.7496L11.5301 12.5097C11.7375 12.717 12.0736 12.717 12.2809 12.5097L14.0411 10.7496C14.2484 10.5423 14.2484 10.2061 14.0411 9.99876C13.8337 9.79143 13.4976 9.79143 13.2902 9.99876L12.4363 10.8527V3.86612C12.4363 3.5729 12.1986 3.33521 11.9054 3.33521Z" fill="black"/>
<path d="M2.57951 3.97653C1.92052 3.97653 1.56237 4.74694 1.98715 5.25076L4.36291 8.06858V10.9204C4.36291 11.2385 4.55725 11.5242 4.85302 11.641L5.68359 11.9692C6.19209 12.1701 6.74308 11.7953 6.74308 11.2486V8.06858L9.11884 5.25076C9.54362 4.74694 9.18547 3.97653 8.52648 3.97653H2.57951Z" fill="black"/>
</svg>
