<svg width="16" height="16" viewBox="0 0 16 16" fill="none" xmlns="http://www.w3.org/2000/svg">
<path fill-rule="evenodd" clip-rule="evenodd" d="M3.17943 2.67473C2.8945 2.67473 2.73965 3.00783 2.92331 3.22566L6.76549 7.78276C6.86661 7.9027 6.92207 8.05453 6.92207 8.21142V12.7339C6.92207 12.8714 7.0061 12.9949 7.13398 13.0454L8.61982 13.6324C8.83968 13.7193 9.07791 13.5573 9.07791 13.3209V8.21142C9.07791 8.05453 9.13338 7.9027 9.2345 7.78276L13.0767 3.22566C13.2603 3.00783 13.1055 2.67473 12.8206 2.67473H3.17943ZM1.90649 4.08297C0.993662 3.00029 1.7633 1.34473 3.17943 1.34473H12.8206C14.2367 1.34473 15.0063 3.00029 14.0935 4.08297L10.4079 8.45434V13.3209C10.4079 14.4958 9.22385 15.3011 8.13114 14.8694L6.6453 14.2824C6.00969 14.0313 5.59207 13.4173 5.59207 12.7339V8.45434L1.90649 4.08297Z" fill="black"/>
</svg>
