<svg width="17" height="16" viewBox="0 0 17 16" fill="none" xmlns="http://www.w3.org/2000/svg">
<path d="M12.3852 3.40015C12.6425 3.40015 12.8511 3.60874 12.8511 3.86606V11.0095L13.816 10.0447C13.9979 9.86272 14.2929 9.86272 14.4749 10.0447C14.6568 10.2266 14.6568 10.5216 14.4749 10.7036L12.7148 12.4637C12.5328 12.6456 12.2378 12.6456 12.0559 12.4637L10.2958 10.7036C10.1138 10.5216 10.1138 10.2266 10.2958 10.0447C10.4777 9.86272 10.7727 9.86272 10.9547 10.0447L11.9193 11.0093V3.86606C11.9193 3.60874 12.1279 3.40015 12.3852 3.40015Z" fill="black"/>
<path d="M2.51664 5.2088C2.1275 4.74725 2.4556 4.04147 3.05931 4.04147H9.00628C9.60999 4.04147 9.93809 4.74725 9.54894 5.2088L7.15788 8.04478V11.2485C7.15788 11.7494 6.65311 12.0927 6.18727 11.9087L5.3567 11.5805C5.08574 11.4735 4.90771 11.2117 4.90771 10.9204V8.04478L2.51664 5.2088Z" fill="black"/>
</svg>
