<svg width="17" height="16" viewBox="0 0 17 16" fill="none" xmlns="http://www.w3.org/2000/svg">
<path d="M12.0371 12.6001C12.2944 12.6001 12.503 12.3916 12.503 12.1342V4.99075L13.4678 5.95563C13.6498 6.13758 13.9448 6.13758 14.1267 5.95563C14.3087 5.77368 14.3087 5.47868 14.1267 5.29673L12.3666 3.53661C12.1847 3.35466 11.8897 3.35466 11.7077 3.53661L9.94761 5.29673C9.76567 5.47868 9.76567 5.77368 9.94761 5.95563C10.1296 6.13758 10.4246 6.13758 10.6065 5.95563L11.5711 4.991V12.1342C11.5711 12.3916 11.7797 12.6001 12.0371 12.6001Z" fill="black"/>
<path d="M2.1685 5.20884C1.77936 4.74729 2.10746 4.04151 2.71117 4.04151H8.65813C9.26184 4.04151 9.58994 4.74728 9.2008 5.20884L6.80974 8.04481V11.2485C6.80974 11.7494 6.30496 12.0927 5.83913 11.9087L5.00856 11.5806C4.7376 11.4735 4.55956 11.2118 4.55956 10.9204V8.04481L2.1685 5.20884Z" fill="black"/>
</svg>
