<svg width="16" height="16" viewBox="0 0 16 16" fill="none" xmlns="http://www.w3.org/2000/svg">
<path d="M1.33346 1.99414C0.966188 1.99414 0.668457 2.29187 0.668457 2.65914C0.668457 3.02641 0.966188 3.32414 1.33346 3.32414H14.6668C15.0341 3.32414 15.3318 3.02641 15.3318 2.65914C15.3318 2.29187 15.0341 1.99414 14.6668 1.99414H1.33346Z" fill="black"/>
<path fill-rule="evenodd" clip-rule="evenodd" d="M10.4998 5.32617C8.56773 5.32617 7.00147 6.89244 7.00147 8.82451C7.00147 10.7566 8.56773 12.3228 10.4998 12.3228C11.1382 12.3228 11.7367 12.1518 12.252 11.853L14.1949 13.8099C14.4536 14.0705 14.8747 14.072 15.1353 13.8133C15.396 13.5545 15.3975 13.1334 15.1387 12.8728L13.2572 10.9777C13.7214 10.384 13.9981 9.6365 13.9981 8.82451C13.9981 6.89244 12.4319 5.32617 10.4998 5.32617ZM8.33147 8.82451C8.33147 7.62698 9.30227 6.65617 10.4998 6.65617C11.6973 6.65617 12.6681 7.62698 12.6681 8.82451C12.6681 10.022 11.6973 10.9928 10.4998 10.9928C9.30227 10.9928 8.33147 10.022 8.33147 8.82451Z" fill="black"/>
<path d="M1.33346 7.32617C0.966188 7.32617 0.668457 7.6239 0.668457 7.99117C0.668457 8.35844 0.966188 8.65617 1.33346 8.65617H5.00012C5.36739 8.65617 5.66512 8.35844 5.66512 7.99117C5.66512 7.6239 5.36739 7.32617 5.00012 7.32617H1.33346Z" fill="black"/>
<path d="M1.33346 12.6582C0.966188 12.6582 0.668457 12.9559 0.668457 13.3232C0.668457 13.6905 0.966188 13.9882 1.33346 13.9882H5.00012C5.36739 13.9882 5.66512 13.6905 5.66512 13.3232C5.66512 12.9559 5.36739 12.6582 5.00012 12.6582H1.33346Z" fill="black"/>
</svg>
