<svg width="16" height="16" viewBox="0 0 16 16" fill="none" xmlns="http://www.w3.org/2000/svg">
<path fill-rule="evenodd" clip-rule="evenodd" d="M2.97134 2.23291C1.60996 2.23291 0.506345 3.33653 0.506345 4.69791V11.9995C0.449346 12.9117 1.16682 13.767 2.17026 13.767H12.2177C12.8688 13.767 13.4601 13.3875 13.7313 12.7956L15.4116 9.1289C15.917 8.02603 15.1111 6.77026 13.898 6.77026H13.8586V6.03345C13.8586 4.83775 12.8893 3.86845 11.6936 3.86845H9.00557C8.43144 3.86845 7.88023 3.64317 7.47045 3.24104C6.81201 2.5949 5.92631 2.23291 5.00379 2.23291H2.97134ZM1.83634 4.69791C1.83634 4.07107 2.3445 3.56291 2.97134 3.56291H5.00379C5.57792 3.56291 6.12912 3.78819 6.53891 4.19032C7.19735 4.83646 8.08304 5.19845 9.00557 5.19845H11.6936C12.1548 5.19845 12.5286 5.57229 12.5286 6.03345V6.77026H4.6405C3.6357 6.77026 2.71632 7.33541 2.26263 8.23195L1.83634 9.07433V4.69791ZM3.44933 8.83248C3.6766 8.38337 4.13716 8.10026 4.6405 8.10026H13.898C14.1421 8.10026 14.3042 8.35293 14.2025 8.57482L12.5222 12.2415C12.4677 12.3606 12.3487 12.437 12.2177 12.437H2.17026C1.98846 12.437 1.85252 12.2972 1.83634 12.1342V12.0694C1.84027 12.03 1.85153 11.9899 1.87136 11.9507L3.44933 8.83248Z" fill="black"/>
</svg>
