<svg width="16" height="16" viewBox="0 0 16 16" fill="none" xmlns="http://www.w3.org/2000/svg">
<path fill-rule="evenodd" clip-rule="evenodd" d="M2.94254 2.26257C1.58115 2.26257 0.477536 3.36619 0.477536 4.72757V12.0253C0.418285 12.9389 1.13637 13.7966 2.14121 13.7966H12.1886C12.8397 13.7966 13.431 13.4171 13.7023 12.8253L15.3826 9.15856C15.888 8.0557 15.0821 6.79993 13.8689 6.79993H13.8298V6.06311C13.8298 4.86742 12.8605 3.89811 11.6648 3.89811H8.97676C8.40263 3.89811 7.85142 3.67283 7.44164 3.27071C6.7832 2.62456 5.8975 2.26257 4.97498 2.26257H2.94254ZM1.80754 4.72757C1.80754 4.10073 2.31569 3.59257 2.94254 3.59257H4.97498C5.54911 3.59257 6.10032 3.81785 6.5101 4.21998C7.16854 4.86613 8.05424 5.22811 8.97676 5.22811H11.6648C12.126 5.22811 12.4998 5.60196 12.4998 6.06311V6.79993H4.61144C3.60665 6.79993 2.68727 7.36507 2.23358 8.26161L1.80754 9.10351V4.72757Z" fill="black"/>
</svg>
