<svg width="16" height="16" viewBox="0 0 16 16" fill="none" xmlns="http://www.w3.org/2000/svg">
<path fill-rule="evenodd" clip-rule="evenodd" d="M4.86374 2.40009C5.33328 1.11892 7.14526 1.11891 7.6148 2.40009L11.7893 13.7905C11.9157 14.1354 11.7386 14.5174 11.3938 14.6438C11.0489 14.7701 10.6669 14.593 10.5405 14.2482L8.98215 9.99603H3.74361C3.66202 9.99603 3.58386 9.98134 3.51163 9.95445L1.93801 14.2482C1.81163 14.593 1.42963 14.7701 1.08479 14.6438C0.739945 14.5174 0.562849 14.1354 0.68923 13.7905L4.86374 2.40009ZM3.98383 8.66603H8.49471L6.36603 2.85775C6.35137 2.81777 6.33275 2.8006 6.31788 2.79081C6.29934 2.77861 6.27204 2.76921 6.23927 2.76921C6.2065 2.76921 6.1792 2.77861 6.16066 2.79081C6.14579 2.8006 6.12717 2.81777 6.11252 2.85775L3.98383 8.66603Z" fill="black"/>
<path d="M9.54938 4.71555C9.54938 4.34828 9.84711 4.05055 10.2144 4.05055H14.6864C15.0537 4.05055 15.3514 4.34828 15.3514 4.71555C15.3514 5.08282 15.0537 5.38055 14.6864 5.38055H10.2144C9.84711 5.38055 9.54938 5.08282 9.54938 4.71555Z" fill="black"/>
</svg>
