<svg width="16" height="16" viewBox="0 0 16 16" fill="none" xmlns="http://www.w3.org/2000/svg">
<path d="M9.76168 3.37012C9.39441 3.37012 9.09668 3.66785 9.09668 4.03512C9.09668 4.40239 9.39441 4.70012 9.76168 4.70012H11.2996V6.23801C11.2996 6.60528 11.5973 6.90301 11.9646 6.90301C12.3318 6.90301 12.6296 6.60528 12.6296 6.23801V4.4757C12.6296 3.86511 12.1346 3.37012 11.524 3.37012H9.76168Z" fill="black"/>
<path d="M4.03316 9.10059C3.66589 9.10059 3.36816 9.39832 3.36816 9.76559V11.5279C3.36816 12.1385 3.86315 12.6335 4.47374 12.6335H6.23606C6.60333 12.6335 6.90106 12.3357 6.90106 11.9685C6.90106 11.6012 6.60333 11.3035 6.23606 11.3035H4.69816V9.76559C4.69816 9.39832 4.40043 9.10059 4.03316 9.10059Z" fill="black"/>
<path fill-rule="evenodd" clip-rule="evenodd" d="M3.99996 1.33496C2.52812 1.33496 1.33496 2.52812 1.33496 3.99996V12C1.33496 13.4718 2.52812 14.665 3.99996 14.665H12C13.4718 14.665 14.665 13.4718 14.665 12V3.99996C14.665 2.52812 13.4718 1.33496 12 1.33496H3.99996ZM2.66496 3.99996C2.66496 3.26266 3.26266 2.66496 3.99996 2.66496H12C12.7373 2.66496 13.335 3.26266 13.335 3.99996V12C13.335 12.7373 12.7373 13.335 12 13.335H3.99996C3.26266 13.335 2.66496 12.7373 2.66496 12V3.99996Z" fill="black"/>
</svg>
