<svg width="16" height="16" viewBox="0 0 16 16" fill="none" xmlns="http://www.w3.org/2000/svg">
<path d="M9.16162 4.03506C9.16162 3.70369 9.43025 3.43506 9.76162 3.43506H11.5239C12.0986 3.43506 12.5645 3.90095 12.5645 4.47564V6.23795C12.5645 6.56932 12.2959 6.83795 11.9645 6.83795C11.6331 6.83795 11.3645 6.56932 11.3645 6.23795V4.63506H9.76162C9.43025 4.63506 9.16162 4.36643 9.16162 4.03506Z" fill="black"/>
<path d="M4.03311 9.16553C4.36448 9.16553 4.63311 9.43416 4.63311 9.76553V11.3684H6.236C6.56737 11.3684 6.836 11.637 6.836 11.9684C6.836 12.2998 6.56737 12.5684 6.236 12.5684H4.47368C3.89899 12.5684 3.43311 12.1025 3.43311 11.5278V9.76553C3.43311 9.43416 3.70173 9.16553 4.03311 9.16553Z" fill="black"/>
<path fill-rule="evenodd" clip-rule="evenodd" d="M3.9999 1.3999C2.56396 1.3999 1.3999 2.56396 1.3999 3.9999V11.9999C1.3999 13.4358 2.56396 14.5999 3.9999 14.5999H11.9999C13.4358 14.5999 14.5999 13.4358 14.5999 11.9999V3.9999C14.5999 2.56396 13.4358 1.3999 11.9999 1.3999H3.9999ZM2.5999 3.9999C2.5999 3.2267 3.2267 2.5999 3.9999 2.5999H11.9999C12.7731 2.5999 13.3999 3.2267 13.3999 3.9999V11.9999C13.3999 12.7731 12.7731 13.3999 11.9999 13.3999H3.9999C3.2267 13.3999 2.5999 12.7731 2.5999 11.9999V3.9999Z" fill="black"/>
</svg>
