<svg width="16" height="16" viewBox="0 0 16 16" fill="none" xmlns="http://www.w3.org/2000/svg">
<path fill-rule="evenodd" clip-rule="evenodd" d="M1.0752 12.26C1.0752 13.7318 2.26836 14.925 3.7402 14.925H12.2602C13.732 14.925 14.9252 13.7318 14.9252 12.2599V3.73995C14.9252 2.26811 13.732 1.07495 12.2602 1.07495H3.7402C2.26836 1.07495 1.0752 2.26812 1.0752 3.73995V12.26ZM2.68856 13.0824C2.51103 12.8557 2.4052 12.5702 2.4052 12.26V12.0005L5.61719 8.38763V9.66844L2.68856 13.0824ZM4.0012 13.595H5.61719V11.7112L4.0012 13.595ZM6.94719 13.595H12.2602C12.9975 13.595 13.5952 12.9973 13.5952 12.2599V3.73995C13.5952 3.00265 12.9975 2.40495 12.2602 2.40495H6.94719V13.595ZM5.61719 2.40495H5.13551L2.4052 5.56909V6.82298L5.61719 3.21013V2.40495ZM2.4052 8.8247V9.99876L5.61719 6.38592V5.21185L2.4052 8.8247ZM2.42484 3.5105L3.32082 2.47215C2.8594 2.6247 2.50944 3.02212 2.42484 3.5105Z" fill="black"/>
</svg>
