<svg width="16" height="16" viewBox="0 0 16 16" fill="none" xmlns="http://www.w3.org/2000/svg">
<path fill-rule="evenodd" clip-rule="evenodd" d="M3.7402 1.07495C2.26836 1.07495 1.0752 2.26812 1.0752 3.73995V5.33307C1.0752 5.33304 1.0752 5.33309 1.0752 5.33307V12.26C1.0752 13.7318 2.26836 14.925 3.7402 14.925H12.2602C13.732 14.925 14.9252 13.7318 14.9252 12.2599V3.73995C14.9252 2.43513 13.9875 1.34933 12.7491 1.11971C12.6511 1.08286 12.5457 1.0698 12.4422 1.08107C12.3821 1.07701 12.3214 1.07495 12.2602 1.07495H3.7402ZM10.7683 2.40495H9.59427L5.98139 5.61697H7.15545L10.7683 2.40495ZM7.59256 2.40495H6.30516L2.43874 5.61697H3.97967L7.59256 2.40495ZM4.22382 2.40495H3.7402C3.0029 2.40495 2.4052 3.00265 2.4052 3.73995V3.91577L4.22382 2.40495ZM2.4052 6.94697V12.26C2.4052 12.9973 3.0029 13.595 3.7402 13.595H12.2602C12.9975 13.595 13.5952 12.9973 13.5952 12.2599V6.94697H2.4052ZM13.5952 5.61697V4.62559L12.4463 5.61697H13.5952ZM13.3971 3.03982C13.2356 2.77818 12.9864 2.57647 12.6904 2.47578L9.15717 5.61697H10.4105L13.3971 3.03982Z" fill="black"/>
</svg>
