<svg width="16" height="16" viewBox="0 0 16 16" fill="none" xmlns="http://www.w3.org/2000/svg">
<path fill-rule="evenodd" clip-rule="evenodd" d="M1.0752 3.73995C1.0752 2.26812 2.26836 1.07495 3.7402 1.07495H12.2602C12.3214 1.07495 12.3821 1.07701 12.4422 1.08107C12.5457 1.06981 12.651 1.08281 12.7492 1.11972C13.9875 1.34938 14.9252 2.43516 14.9252 3.73995V12.2599C14.9252 13.7318 13.732 14.925 12.2602 14.925H3.7402C2.26836 14.925 1.0752 13.7318 1.0752 12.26V3.73995ZM9.5967 2.40495H10.8226L2.4052 10.2146V8.88241L9.5967 2.40495ZM2.4052 12.26V12.0289L6.72996 8.01638C6.72835 8.04638 6.72754 8.07659 6.72754 8.10699L6.72763 9.33837L2.72805 13.1305C2.52683 12.8968 2.4052 12.5926 2.4052 12.26ZM4.17123 13.595H6.72795L6.72777 11.171L4.17123 13.595ZM13.5952 6.44186V4.7118L11.7441 6.44186H13.5952ZM9.79622 6.44186L13.4112 3.06329C13.2518 2.79272 12.9998 2.58328 12.6987 2.47862L8.42699 6.44186H9.79622ZM8.39254 7.77186H13.5922V12.2599C13.5922 12.9972 12.9945 13.5949 12.2572 13.5949H8.05795L8.05754 8.10689C8.05753 7.92186 8.20751 7.77186 8.39254 7.77186ZM7.60942 2.40495L2.4052 7.09244V5.64484L6.30516 2.40495H7.60942ZM4.22382 2.40495L2.4052 3.91577V3.73995C2.4052 3.00265 3.0029 2.40495 3.7402 2.40495H4.22382Z" fill="black"/>
</svg>
