<svg width="16" height="16" viewBox="0 0 16 16" fill="none" xmlns="http://www.w3.org/2000/svg">
<path fill-rule="evenodd" clip-rule="evenodd" d="M2.00016 1.53223C1.63197 1.53223 1.3335 1.8307 1.3335 2.19889V5.19889C1.3335 5.56708 1.63197 5.86556 2.00016 5.86556C2.36835 5.86556 2.66683 5.56708 2.66683 5.19889V3.79736L4.90549 6.01352C5.16716 6.27255 5.58926 6.27042 5.84829 6.00876C6.10732 5.7471 6.10519 5.32499 5.84353 5.06596L3.62079 2.86556H5.00016C5.36835 2.86556 5.66683 2.56708 5.66683 2.19889C5.66683 1.8307 5.36835 1.53223 5.00016 1.53223H2.00016ZM11.0002 1.53223C10.632 1.53223 10.3335 1.8307 10.3335 2.19889C10.3335 2.56708 10.632 2.86556 11.0002 2.86556H12.357L10.1953 5.02732C9.93491 5.28767 9.93491 5.70978 10.1953 5.97013C10.4556 6.23048 10.8777 6.23048 11.1381 5.97013L13.3335 3.77471V5.19889C13.3335 5.56708 13.632 5.86556 14.0002 5.86556C14.3684 5.86556 14.6668 5.56708 14.6668 5.19889V2.19889C14.6668 1.8307 14.3684 1.53223 14.0002 1.53223H11.0002ZM2.00016 14.4673C1.63197 14.4673 1.3335 14.1688 1.3335 13.8006V10.8006C1.3335 10.4324 1.63197 10.134 2.00016 10.134C2.36835 10.134 2.66683 10.4324 2.66683 10.8006V12.2022L4.90549 9.98599C5.16716 9.72696 5.58926 9.72909 5.84829 9.99075C6.10732 10.2524 6.10519 10.6745 5.84353 10.9335L3.62079 13.134H5.00016C5.36835 13.134 5.66683 13.4324 5.66683 13.8006C5.66683 14.1688 5.36835 14.4673 5.00016 14.4673H2.00016ZM11.0002 14.4673C10.632 14.4673 10.3335 14.1688 10.3335 13.8006C10.3335 13.4324 10.632 13.134 11.0002 13.134H12.357L10.1953 10.9722C9.93491 10.7118 9.93491 10.2897 10.1953 10.0294C10.4556 9.76903 10.8777 9.76903 11.1381 10.0294L13.3335 12.2248V10.8006C13.3335 10.4324 13.632 10.134 14.0002 10.134C14.3684 10.134 14.6668 10.4324 14.6668 10.8006V13.8006C14.6668 14.1688 14.3684 14.4673 14.0002 14.4673H11.0002Z" fill="black"/>
</svg>
