<svg width="16" height="16" viewBox="0 0 16 16" fill="none" xmlns="http://www.w3.org/2000/svg">
<path d="M9.19453 6.80352C8.93483 6.54382 8.93483 6.12277 9.19453 5.86307L12.3926 2.66504H9.99809C9.63082 2.66504 9.33309 2.36731 9.33309 2.00004C9.33309 1.63277 9.63082 1.33504 9.99809 1.33504H13.9877C14.1613 1.33234 14.3358 1.39724 14.4683 1.52973C14.5409 1.60237 14.5933 1.68762 14.6253 1.77844C14.6498 1.84775 14.6631 1.92234 14.6631 2.00004V6.00004C14.6631 6.36731 14.3654 6.66504 13.9981 6.66504C13.6308 6.66504 13.3331 6.36731 13.3331 6.00004V3.60541L10.135 6.80352C9.87528 7.06322 9.45423 7.06322 9.19453 6.80352Z" fill="black"/>
<path d="M6.80352 9.19649C7.06322 9.45618 7.06322 9.87724 6.80352 10.1369L3.60549 13.335H5.99996C6.36723 13.335 6.66496 13.6327 6.66496 14C6.66496 14.3672 6.36723 14.665 5.99996 14.665H2.01036C1.83672 14.6677 1.66223 14.6028 1.52973 14.4703C1.4571 14.3976 1.40478 14.3124 1.37278 14.2216C1.34829 14.1523 1.33496 14.0777 1.33496 14V9.99996C1.33496 9.63269 1.63269 9.33496 1.99996 9.33496C2.36723 9.33496 2.66496 9.63269 2.66496 9.99996V12.3946L5.86307 9.19649C6.12277 8.93679 6.54382 8.93679 6.80352 9.19649Z" fill="black"/>
</svg>
