<svg width="16" height="16" viewBox="0 0 16 16" fill="none" xmlns="http://www.w3.org/2000/svg">
<path fill-rule="evenodd" clip-rule="evenodd" d="M3.09318 3.78608C2.21639 2.9026 2.84219 1.3999 4.08689 1.3999H11.2079C11.7676 1.3999 12.3041 1.62335 12.6984 2.02063L13.2584 2.58488C13.4918 2.82009 13.4904 3.19998 13.2552 3.4334C13.02 3.66683 12.6401 3.66538 12.4066 3.43018L11.8467 2.86593C11.6777 2.69566 11.4477 2.5999 11.2079 2.5999H4.08689C3.90907 2.5999 3.81967 2.81458 3.94493 2.94079L8.24218 7.27082C8.66782 7.69971 8.66782 8.39164 8.24218 8.82053L3.94493 13.1506C3.81967 13.2768 3.90907 13.4915 4.08689 13.4915H11.2079C11.4477 13.4915 11.6777 13.3957 11.8467 13.2254L12.4066 12.6612C12.6401 12.426 13.02 12.4245 13.2552 12.658C13.4904 12.8914 13.4918 13.2713 13.2584 13.5065L12.6984 14.0707C12.3041 14.468 11.7676 14.6915 11.2079 14.6915H4.08689C2.84218 14.6915 2.2164 13.1888 3.09318 12.3053L7.32053 8.04568L3.09318 3.78608Z" fill="black"/>
</svg>
