<svg width="16" height="16" viewBox="0 0 16 16" fill="none" xmlns="http://www.w3.org/2000/svg">
<path fill-rule="evenodd" clip-rule="evenodd" d="M3.04723 3.83193C2.12974 2.90743 2.78459 1.33496 4.08708 1.33496H11.208C11.7851 1.33496 12.3383 1.56532 12.7447 1.9749L13.3047 2.53915C13.5634 2.79984 13.5618 3.22089 13.3011 3.4796C13.0405 3.73831 12.6194 3.73671 12.3607 3.47603L11.8007 2.91177C11.6439 2.75381 11.4306 2.66496 11.208 2.66496H4.08708C4.04779 2.66496 4.02536 2.67544 4.01031 2.68602C3.99227 2.6987 3.97428 2.71965 3.96245 2.74806C3.95062 2.77647 3.94842 2.804 3.95213 2.82574C3.95522 2.84387 3.96358 2.86717 3.99125 2.89506L8.28851 7.22509C8.7393 7.67933 8.7393 8.41215 8.28851 8.86638L3.99125 13.1964C3.96358 13.2243 3.95522 13.2476 3.95213 13.2657C3.94842 13.2875 3.95062 13.315 3.96245 13.3434C3.97428 13.3718 3.99227 13.3928 4.01031 13.4055C4.02536 13.416 4.04779 13.4265 4.08707 13.4265H11.208C11.4306 13.4265 11.6439 13.3377 11.8007 13.1797L12.3607 12.6154C12.6194 12.3548 13.0405 12.3532 13.3011 12.6119C13.5618 12.8706 13.5634 13.2916 13.3047 13.5523L12.7447 14.1166C12.3383 14.5262 11.7851 14.7565 11.208 14.7565H4.08707C2.78458 14.7565 2.12974 13.184 3.04723 12.2595L7.22914 8.04574L3.04723 3.83193Z" fill="black"/>
</svg>
