<svg width="16" height="16" viewBox="0 0 16 16" fill="none" xmlns="http://www.w3.org/2000/svg">
<path fill-rule="evenodd" clip-rule="evenodd" d="M6.33362 0.668457C3.38902 0.668457 1.00195 3.05552 1.00195 6.00012C1.00195 8.60344 2.86769 10.7709 5.33496 11.2384V12.6666C5.33496 14.1385 6.52812 15.3316 7.99996 15.3316H12.6666C14.1385 15.3316 15.3316 14.1385 15.3316 12.6666V7.99996C15.3316 6.52812 14.1385 5.33496 12.6666 5.33496H11.6242C11.2968 2.70425 9.05298 0.668457 6.33362 0.668457ZM2.33195 6.00012C2.33195 3.79006 4.12356 1.99846 6.33362 1.99846C8.31704 1.99846 9.96352 3.4415 10.2803 5.33496H7.99996C6.52812 5.33496 5.33496 6.52812 5.33496 7.99996V9.87619C3.6081 9.43259 2.33195 7.86531 2.33195 6.00012ZM6.66496 7.99996C6.66496 7.26266 7.26266 6.66496 7.99996 6.66496H12.6666C13.4039 6.66496 14.0016 7.26266 14.0016 7.99996V12.6666C14.0016 13.4039 13.4039 14.0016 12.6666 14.0016H7.99996C7.26266 14.0016 6.66496 13.4039 6.66496 12.6666V7.99996Z" fill="black"/>
</svg>
