<svg width="16" height="16" viewBox="0 0 16 16" fill="none" xmlns="http://www.w3.org/2000/svg">
<path fill-rule="evenodd" clip-rule="evenodd" d="M3.08154 1.08154C1.97697 1.08154 1.08154 1.97697 1.08154 3.08154C1.08154 3.95305 1.63893 4.69422 2.4165 4.96829V11.0317C1.63893 11.3058 1.08154 12.0469 1.08154 12.9185C1.08154 14.023 1.97697 14.9185 3.08154 14.9185C3.95308 14.9185 4.69427 14.361 4.96832 13.5834H11.0317C11.3057 14.361 12.0469 14.9185 12.9185 14.9185C14.023 14.9185 14.9185 14.023 14.9185 12.9185C14.9185 12.0469 14.361 11.3057 13.5834 11.0317V4.96832C14.361 4.69427 14.9185 3.95308 14.9185 3.08154C14.9185 1.97697 14.023 1.08154 12.9185 1.08154C12.0469 1.08154 11.3058 1.63893 11.0317 2.4165H4.96829C4.69422 1.63893 3.95305 1.08154 3.08154 1.08154ZM2.41154 3.08154C2.41154 2.71151 2.71151 2.41154 3.08154 2.41154C3.45157 2.41154 3.75154 2.71151 3.75154 3.08154C3.75154 3.45157 3.45157 3.75154 3.08154 3.75154C2.71151 3.75154 2.41154 3.45157 2.41154 3.08154ZM12.2485 3.08154C12.2485 2.71151 12.5484 2.41154 12.9185 2.41154C13.2885 2.41154 13.5885 2.71151 13.5885 3.08154C13.5885 3.45157 13.2885 3.75154 12.9185 3.75154C12.5484 3.75154 12.2485 3.45157 12.2485 3.08154ZM3.7465 4.96832C4.31619 4.76755 4.76755 4.31619 4.96832 3.7465H11.0317C11.2324 4.31617 11.6838 4.76751 12.2534 4.96829V11.0317C11.6838 11.2325 11.2325 11.6838 11.0317 12.2534H4.96829C4.76751 11.6838 4.31617 11.2324 3.7465 11.0317V4.96832ZM6.14098 4.87598C5.44234 4.87598 4.87598 5.44234 4.87598 6.14098V7.89199C4.87598 8.59063 5.44234 9.15699 6.14098 9.15699H6.84332V9.85933C6.84332 10.558 7.40968 11.1243 8.10832 11.1243H9.85933C10.558 11.1243 11.1243 10.558 11.1243 9.85933V8.10832C11.1243 7.40968 10.558 6.84332 9.85933 6.84332L9.15699 6.84332V6.14098C9.15699 5.44234 8.59063 4.87598 7.89199 4.87598H6.14098ZM6.20598 7.82699V6.20598L7.82699 6.20598L7.82699 6.90832C7.82699 7.60696 8.39335 8.17332 9.09199 8.17332H9.79433V9.79433H8.17332V9.09199C8.17332 8.39335 7.60696 7.82699 6.90832 7.82699H6.20598ZM2.41154 12.9185C2.41154 12.5484 2.71151 12.2485 3.08154 12.2485C3.45157 12.2485 3.75154 12.5484 3.75154 12.9185C3.75154 13.2885 3.45157 13.5885 3.08154 13.5885C2.71151 13.5885 2.41154 13.2885 2.41154 12.9185ZM12.2485 12.9185C12.2485 12.5484 12.5484 12.2485 12.9185 12.2485C13.2885 12.2485 13.5885 12.5484 13.5885 12.9185C13.5885 13.2885 13.2885 13.5885 12.9185 13.5885C12.5484 13.5885 12.2485 13.2885 12.2485 12.9185Z" fill="black"/>
</svg>
