<svg width="16" height="16" viewBox="0 0 16 16" fill="none" xmlns="http://www.w3.org/2000/svg">
<path fill-rule="evenodd" clip-rule="evenodd" d="M7.25167 1.09717C6.33212 1.09717 5.58667 1.84261 5.58667 2.76217V5.57275H2.74825C1.8287 5.57275 1.08325 6.3182 1.08325 7.23775V13.2378C1.08325 14.1573 1.8287 14.9028 2.74825 14.9028H8.74825C9.66781 14.9028 10.4133 14.1573 10.4133 13.2378V10.4272H13.2517C14.1712 10.4272 14.9167 9.68172 14.9167 8.76217V2.76217C14.9167 1.84261 14.1712 1.09717 13.2517 1.09717H7.25167ZM6.91667 2.76217C6.91667 2.57715 7.06665 2.42717 7.25167 2.42717H13.2517C13.4367 2.42717 13.5867 2.57715 13.5867 2.76217V8.76217C13.5867 8.94718 13.4367 9.09717 13.2517 9.09717H10.4133V7.23775C10.4133 6.3182 9.66781 5.57275 8.74825 5.57275H6.91667V2.76217ZM2.41325 7.23775C2.41325 7.05274 2.56324 6.90275 2.74825 6.90275H5.58667V8.76217C5.58667 9.68172 6.33212 10.4272 7.25167 10.4272H9.08325V13.2378C9.08325 13.4228 8.93327 13.5728 8.74825 13.5728H2.74825C2.56324 13.5728 2.41325 13.4228 2.41325 13.2378V7.23775ZM6.91667 8.76217V6.90275H8.74825C8.93327 6.90275 9.08325 7.05274 9.08325 7.23775V9.09717H7.25167C7.06665 9.09717 6.91667 8.94718 6.91667 8.76217Z" fill="black"/>
</svg>
