<svg width="16" height="16" viewBox="0 0 16 16" fill="none" xmlns="http://www.w3.org/2000/svg">
<path d="M5.66895 1.33561C5.66895 0.967422 5.96742 0.668945 6.33561 0.668945H9.66894C10.0371 0.668945 10.3356 0.967422 10.3356 1.33561C10.3356 1.7038 10.0371 2.00228 9.66894 2.00228H6.33561C5.96742 2.00228 5.66895 1.7038 5.66895 1.33561Z" fill="black"/>
<path fill-rule="evenodd" clip-rule="evenodd" d="M8.57883 6.33591C8.46013 6.12819 8.23924 6 8 6C7.76076 6 7.53987 6.12819 7.42117 6.33591L6.08784 8.66924C5.97072 8.8742 5.97072 9.1258 6.08784 9.33076L7.42117 11.6641C7.53987 11.8718 7.76076 12 8 12C8.23924 12 8.46013 11.8718 8.57883 11.6641L9.91216 9.33076C10.0293 9.1258 10.0293 8.8742 9.91216 8.66924L8.57883 6.33591ZM8 9.98962L7.4345 9L8 8.01038L8.5655 9L8 9.98962Z" fill="black"/>
<path fill-rule="evenodd" clip-rule="evenodd" d="M8.00228 2.66895C4.50449 2.66895 1.66895 5.50449 1.66895 9.00228C1.66895 12.5001 4.50449 15.3356 8.00228 15.3356C11.5001 15.3356 14.3356 12.5001 14.3356 9.00228C14.3356 5.50449 11.5001 2.66895 8.00228 2.66895ZM7.3296 4.04714C5.10614 4.34614 3.34586 6.10656 3.04708 8.33008H3.6671C4.03529 8.33008 4.33376 8.62856 4.33376 8.99675C4.33376 9.36494 4.03529 9.66342 3.6671 9.66342H3.0456C3.34003 11.8922 5.10246 13.6579 7.3296 13.9574V13.3342C7.3296 12.9661 7.62807 12.6676 7.99626 12.6676C8.36445 12.6676 8.66293 12.9661 8.66293 13.3342V13.959C10.8958 13.6643 12.664 11.8962 12.959 9.66342H12.3338C11.9656 9.66342 11.6671 9.36494 11.6671 8.99675C11.6671 8.62856 11.9656 8.33008 12.3338 8.33008H12.9575C12.6582 6.10255 10.8921 4.33979 8.66293 4.04554V4.66758C8.66293 5.03577 8.36445 5.33425 7.99626 5.33425C7.62807 5.33425 7.3296 5.03577 7.3296 4.66758V4.04714Z" fill="black"/>
</svg>
