<svg width="16" height="16" viewBox="0 0 16 16" fill="none" xmlns="http://www.w3.org/2000/svg">
<path d="M2.49996 2.00195C2.13269 2.00195 1.83496 2.29968 1.83496 2.66695V13.3336C1.83496 13.7009 2.13269 13.9986 2.49996 13.9986C2.86723 13.9986 3.16496 13.7009 3.16496 13.3336V8.66496H8.16846V13.3336C8.16846 13.7009 8.46619 13.9986 8.83346 13.9986C9.20073 13.9986 9.49846 13.7009 9.49846 13.3336V2.66695C9.49846 2.29968 9.20073 2.00195 8.83346 2.00195C8.46619 2.00195 8.16846 2.29968 8.16846 2.66695V7.33496H3.16496V2.66695C3.16496 2.29968 2.86723 2.00195 2.49996 2.00195Z" fill="black"/>
<path d="M13.7479 5.72177C13.4959 5.62055 13.2076 5.68272 13.0198 5.87882L11.4284 7.53995C11.1744 7.80516 11.1834 8.22612 11.4486 8.48019C11.7138 8.73426 12.1348 8.72522 12.3889 8.46001L12.835 7.99432V13.3333C12.835 13.7006 13.1327 13.9983 13.5 13.9983C13.8673 13.9983 14.165 13.7006 14.165 13.3333V6.33885C14.165 6.06728 13.9999 5.823 13.7479 5.72177Z" fill="black"/>
</svg>
