<svg width="16" height="16" viewBox="0 0 16 16" fill="none" xmlns="http://www.w3.org/2000/svg">
<path d="M1.99996 2.00195C1.63269 2.00195 1.33496 2.29968 1.33496 2.66695V13.3336C1.33496 13.7009 1.63269 13.9986 1.99996 13.9986C2.36723 13.9986 2.66496 13.7009 2.66496 13.3336V8.66496H7.33496V13.3336C7.33496 13.7009 7.63269 13.9986 7.99996 13.9986C8.36723 13.9986 8.66496 13.7009 8.66496 13.3336V2.66695C8.66496 2.29968 8.36723 2.00195 7.99996 2.00195C7.63269 2.00195 7.33496 2.29968 7.33496 2.66695V7.33496H2.66496V2.66695C2.66496 2.29968 2.36723 2.00195 1.99996 2.00195Z" fill="black"/>
<path d="M12.3334 6.00195C11.2629 6.00195 10.0017 6.84042 10.0017 8.33362C10.0017 8.70089 10.2994 8.99862 10.6667 8.99862C11.034 8.99862 11.3317 8.70089 11.3317 8.33362C11.3317 7.71412 11.8501 7.33195 12.3334 7.33195C12.8167 7.33195 13.335 7.71411 13.335 8.33362C13.335 8.60859 13.2148 8.9152 12.9431 9.28551C12.6698 9.6579 12.295 10.0271 11.8724 10.4335L11.7887 10.5139C11.4069 10.8805 10.9882 11.2826 10.6638 11.6973C10.3173 12.1402 10.0017 12.6907 10.0017 13.3336C10.0017 13.7009 10.2994 13.9986 10.6667 13.9986H14C14.3673 13.9986 14.665 13.7009 14.665 13.3336C14.665 12.9664 14.3673 12.6686 14 12.6686H11.5991C11.6328 12.62 11.6702 12.5694 11.7113 12.5168C11.9748 12.18 12.3284 11.8399 12.7328 11.4512L12.7943 11.3921C13.2051 10.997 13.6636 10.5517 14.0153 10.0723C14.3686 9.59097 14.665 9.00868 14.665 8.33362C14.665 6.84043 13.4039 6.00195 12.3334 6.00195Z" fill="black"/>
</svg>
