<svg width="16" height="16" viewBox="0 0 16 16" fill="none" xmlns="http://www.w3.org/2000/svg">
<path d="M2.5999 2.66689C2.5999 2.33552 2.33127 2.06689 1.9999 2.06689C1.66853 2.06689 1.3999 2.33552 1.3999 2.66689V13.3336C1.3999 13.6649 1.66853 13.9336 1.9999 13.9336C2.33127 13.9336 2.5999 13.6649 2.5999 13.3336V8.5999H7.3999V13.3336C7.3999 13.6649 7.66853 13.9336 7.9999 13.9336C8.33127 13.9336 8.5999 13.6649 8.5999 13.3336V2.66689C8.5999 2.33552 8.33127 2.06689 7.9999 2.06689C7.66853 2.06689 7.3999 2.33552 7.3999 2.66689V7.3999H2.5999V2.66689Z" fill="black"/>
<path d="M10.6667 6.06689C10.3353 6.06689 10.0667 6.33552 10.0667 6.66689C10.0667 6.99827 10.3353 7.26689 10.6667 7.26689H12.7732L11.193 9.29853C11.0524 9.47942 11.027 9.72465 11.1277 9.93051C11.2283 10.1364 11.4375 10.2669 11.6667 10.2669C12.2418 10.2669 12.6786 10.4115 12.9585 10.6354C13.2204 10.845 13.4 11.166 13.4 11.6669C13.4 12.1622 13.2254 12.3937 13.0567 12.5202C12.8588 12.6686 12.5829 12.7336 12.3333 12.7336C11.7271 12.7336 11.3432 12.4858 11.1106 12.23C10.8877 11.9848 10.5082 11.9667 10.2631 12.1896C10.0179 12.4125 9.99979 12.792 10.2227 13.0372C10.6568 13.5147 11.3522 13.9336 12.3333 13.9336C12.7504 13.9336 13.3078 13.8319 13.7767 13.4802C14.2746 13.1068 14.6 12.5049 14.6 11.6669C14.6 10.8345 14.2796 10.1555 13.7081 9.69837C13.4342 9.47923 13.117 9.32231 12.7746 9.21971L14.4736 7.03526C14.6143 6.85437 14.6397 6.60914 14.539 6.40328C14.4383 6.19743 14.2291 6.06689 14 6.06689H10.6667Z" fill="black"/>
</svg>
