<svg width="16" height="16" viewBox="0 0 16 16" fill="none" xmlns="http://www.w3.org/2000/svg">
<path d="M1.99996 2.00146C1.63269 2.00146 1.33496 2.2992 1.33496 2.66646V13.3331C1.33496 13.7004 1.63269 13.9981 1.99996 13.9981C2.36723 13.9981 2.66496 13.7004 2.66496 13.3331V8.66447H7.33496V13.3331C7.33496 13.7004 7.63269 13.9981 7.99996 13.9981C8.36723 13.9981 8.66496 13.7004 8.66496 13.3331V2.66646C8.66496 2.2992 8.36723 2.00146 7.99996 2.00146C7.63269 2.00146 7.33496 2.2992 7.33496 2.66646V7.33447H2.66496V2.66646C2.66496 2.2992 2.36723 2.00146 1.99996 2.00146Z" fill="black"/>
<path d="M10.6667 6.00146C10.2994 6.00146 10.0017 6.2992 10.0017 6.66646C10.0017 7.03373 10.2994 7.33146 10.6667 7.33146H12.6404L11.1418 9.25819C10.9859 9.45868 10.9577 9.73047 11.0693 9.95863C11.1809 10.1868 11.4127 10.3315 11.6667 10.3315C12.2319 10.3315 12.6528 10.4736 12.918 10.6857C13.1632 10.8819 13.335 11.1836 13.335 11.6665C13.335 12.1431 13.1687 12.3545 13.0177 12.4678C12.8345 12.6052 12.5738 12.6681 12.3334 12.6681C11.7474 12.6681 11.3804 12.4296 11.1588 12.1858C10.9117 11.914 10.4911 11.894 10.2194 12.1411C9.94763 12.3881 9.9276 12.8087 10.1747 13.0805C10.6196 13.5699 11.332 13.9981 12.3334 13.9981C12.7595 13.9981 13.3322 13.8945 13.8157 13.5318C14.3315 13.145 14.665 12.523 14.665 11.6665C14.665 10.8161 14.337 10.1178 13.7488 9.64719C13.4918 9.44161 13.1985 9.2899 12.8833 9.18541L14.525 7.07474C14.6809 6.87425 14.709 6.60246 14.5974 6.3743C14.4858 6.14614 14.254 6.00146 14 6.00146H10.6667Z" fill="black"/>
</svg>
