<svg width="16" height="16" viewBox="0 0 16 16" fill="none" xmlns="http://www.w3.org/2000/svg">
<path fill-rule="evenodd" clip-rule="evenodd" d="M1.83346 2.00195C1.46619 2.00195 1.16846 2.29968 1.16846 2.66695V13.3336C1.16846 13.7009 1.46619 13.9986 1.83346 13.9986C2.20073 13.9986 2.49846 13.7009 2.49846 13.3336V8.66496H7.16846V13.3336C7.16846 13.7009 7.46619 13.9986 7.83346 13.9986C8.20073 13.9986 8.49846 13.7009 8.49846 13.3336V2.66695C8.49846 2.29968 8.20073 2.00195 7.83346 2.00195C7.46619 2.00195 7.16846 2.29968 7.16846 2.66695V7.33496H2.49846V2.66695C2.49846 2.29968 2.20073 2.00195 1.83346 2.00195ZM13.3571 6.03165C13.0793 5.94503 12.7774 6.04912 12.612 6.28858L9.61978 10.6208C9.54305 10.7319 9.50195 10.8637 9.50195 10.9987V11.6731C9.50195 12.0404 9.79968 12.3381 10.167 12.3381H12.4942V13.3332C12.4942 13.7004 12.7919 13.9982 13.1592 13.9982C13.5265 13.9982 13.8242 13.7004 13.8242 13.3332V12.3381H14.167C14.5342 12.3381 14.832 12.0404 14.832 11.6731C14.832 11.3059 14.5342 11.0081 14.167 11.0081H13.8242V6.66651C13.8242 6.37549 13.635 6.11827 13.3571 6.03165ZM12.4942 11.0081H10.9687L12.4942 8.79945V11.0081Z" fill="black"/>
</svg>
