<svg width="16" height="16" viewBox="0 0 16 16" fill="none" xmlns="http://www.w3.org/2000/svg">
<path d="M1.99996 2.00195C1.63269 2.00195 1.33496 2.29968 1.33496 2.66695V13.3336C1.33496 13.7009 1.63269 13.9986 1.99996 13.9986C2.36723 13.9986 2.66496 13.7009 2.66496 13.3336V8.66496H7.33496V13.3336C7.33496 13.7009 7.63269 13.9986 7.99996 13.9986C8.36723 13.9986 8.66496 13.7009 8.66496 13.3336V2.66695C8.66496 2.29968 8.36723 2.00195 7.99996 2.00195C7.63269 2.00195 7.33496 2.29968 7.33496 2.66695V7.33496H2.66496V2.66695C2.66496 2.29968 2.36723 2.00195 1.99996 2.00195Z" fill="black"/>
<path d="M10.667 6.33838C10.2997 6.33838 10.002 6.63611 10.002 7.00338V9.34498C10.002 9.71225 10.2997 10.01 10.667 10.01C10.7932 10.01 10.9115 9.97472 11.0121 9.91349C11.02 9.90991 11.0307 9.90513 11.0445 9.89934C11.0994 9.87626 11.1899 9.84211 11.3109 9.80695C11.5531 9.73657 11.9068 9.66528 12.3336 9.66528C12.4881 9.66528 12.5767 9.69711 12.6298 9.72793C12.682 9.75826 12.738 9.80971 12.7935 9.90987C12.918 10.1348 13.002 10.5367 13.002 11.1669C13.002 11.8039 12.9148 12.1746 12.7797 12.3781C12.7309 12.4515 12.6631 12.5225 12.5469 12.5761C12.4291 12.6304 12.258 12.6686 12.0003 12.6686C11.6604 12.6686 11.5292 12.5632 11.4692 12.4912C11.3916 12.3982 11.332 12.2355 11.332 12.0029C11.332 11.6356 11.0342 11.3379 10.667 11.3379C10.2997 11.3379 10.002 11.6356 10.002 12.0029C10.002 12.4342 10.1089 12.9369 10.448 13.3433C10.8049 13.771 11.3405 13.9986 12.0003 13.9986C12.8212 13.9986 13.4807 13.7265 13.8876 13.114C14.2524 12.5647 14.332 11.8522 14.332 11.1669C14.332 10.4751 14.2492 9.79364 13.9571 9.26582C13.8043 8.98964 13.5895 8.74728 13.2979 8.57789C13.0071 8.409 12.679 8.33528 12.3336 8.33528C11.9544 8.33528 11.6162 8.37703 11.332 8.43397V7.66838H13.3336C13.7009 7.66838 13.9986 7.37065 13.9986 7.00338C13.9986 6.63611 13.7009 6.33838 13.3336 6.33838H10.667Z" fill="black"/>
</svg>
