<svg width="16" height="16" viewBox="0 0 16 16" fill="none" xmlns="http://www.w3.org/2000/svg">
<path d="M1.99996 2.00195C1.63269 2.00195 1.33496 2.29968 1.33496 2.66695V13.3336C1.33496 13.7009 1.63269 13.9986 1.99996 13.9986C2.36723 13.9986 2.66496 13.7009 2.66496 13.3336V8.66496H7.33496V13.3336C7.33496 13.7009 7.63269 13.9986 7.99996 13.9986C8.36723 13.9986 8.66496 13.7009 8.66496 13.3336V2.66695C8.66496 2.29968 8.36723 2.00195 7.99996 2.00195C7.63269 2.00195 7.33496 2.29968 7.33496 2.66695V7.33496H2.66496V2.66695C2.66496 2.29968 2.36723 2.00195 1.99996 2.00195Z" fill="black"/>
<path fill-rule="evenodd" clip-rule="evenodd" d="M12.1668 6.33496C10.7333 6.33496 9.66846 7.58418 9.66846 8.99996V11.3333C9.66846 11.3524 9.66926 11.3713 9.67085 11.39C9.66926 11.4266 9.66846 11.4633 9.66846 11.5003C9.66846 12.8801 10.787 13.9986 12.1668 13.9986C13.5466 13.9986 14.6651 12.8801 14.6651 11.5003C14.6651 10.1205 13.5466 9.00195 12.1668 9.00195C11.7448 9.00195 11.3471 9.10661 10.9985 9.29141V8.99996C10.9985 8.20777 11.5741 7.66496 12.1668 7.66496C12.6206 7.66496 13.0532 7.97174 13.2425 8.47886C13.3709 8.82295 13.7539 8.9978 14.098 8.86939C14.4421 8.74099 14.617 8.35796 14.4886 8.01386C14.1324 7.05934 13.2496 6.33496 12.1668 6.33496ZM10.9985 11.5003C10.9985 10.855 11.5215 10.332 12.1668 10.332C12.8121 10.332 13.3351 10.855 13.3351 11.5003C13.3351 12.1456 12.8121 12.6686 12.1668 12.6686C11.5215 12.6686 10.9985 12.1456 10.9985 11.5003Z" fill="black"/>
</svg>
