<svg width="16" height="16" viewBox="0 0 16 16" fill="none" xmlns="http://www.w3.org/2000/svg">
<path d="M4.99996 3.8418C4.63269 3.8418 4.33496 4.13953 4.33496 4.5068C4.33496 4.87407 4.63269 5.1718 4.99996 5.1718H11C11.3672 5.1718 11.665 4.87407 11.665 4.5068C11.665 4.13953 11.3672 3.8418 11 3.8418H4.99996Z" fill="black"/>
<path d="M4.99996 10.8391C4.63269 10.8391 4.33496 11.1368 4.33496 11.5041C4.33496 11.8714 4.63269 12.1691 4.99996 12.1691H11C11.3672 12.1691 11.665 11.8714 11.665 11.5041C11.665 11.1368 11.3672 10.8391 11 10.8391H4.99996Z" fill="black"/>
<path fill-rule="evenodd" clip-rule="evenodd" d="M3.30011 0.840332C2.15964 0.840332 1.23511 1.76486 1.23511 2.90533V13.1053C1.23511 14.2458 2.15964 15.1703 3.30011 15.1703H12.7001C13.8406 15.1703 14.7651 14.2458 14.7651 13.1053V2.90533C14.7651 1.76486 13.8406 0.840332 12.7001 0.840332H3.30011ZM2.56511 2.90533C2.56511 2.4994 2.89418 2.17033 3.30011 2.17033H12.7001C13.106 2.17033 13.4351 2.4994 13.4351 2.90533V13.1053C13.4351 13.5113 13.106 13.8403 12.7001 13.8403H3.30011C2.89418 13.8403 2.56511 13.5113 2.56511 13.1053V2.90533Z" fill="black"/>
</svg>
