<svg width="16" height="16" viewBox="0 0 16 16" fill="none" xmlns="http://www.w3.org/2000/svg">
<g clip-path="url(#clip0_1359_35)">
<path d="M8.00006 3.69678C6.57374 3.69678 5.41748 4.85304 5.41748 6.27936C5.41748 6.64663 5.71521 6.94436 6.08248 6.94436C6.44975 6.94436 6.74748 6.64663 6.74748 6.27936C6.74748 5.58758 7.30828 5.02678 8.00006 5.02678C8.69184 5.02678 9.25264 5.58758 9.25264 6.27936C9.25264 6.97113 8.69184 7.53193 8.00006 7.53193C7.63279 7.53193 7.33506 7.82966 7.33506 8.19693V9.47532C7.33506 9.84259 7.63279 10.1403 8.00006 10.1403C8.36733 10.1403 8.66506 9.84259 8.66506 9.47532V8.77549C9.76908 8.48211 10.5826 7.47582 10.5826 6.27936C10.5826 4.85304 9.42637 3.69678 8.00006 3.69678Z" fill="black"/>
<path d="M8.00022 10.6929C7.52306 10.6929 7.13623 11.0797 7.13623 11.5569C7.13623 12.034 7.52306 12.4209 8.00022 12.4209C8.47739 12.4209 8.86421 12.034 8.86421 11.5569C8.86421 11.0797 8.47739 10.6929 8.00022 10.6929Z" fill="black"/>
<path fill-rule="evenodd" clip-rule="evenodd" d="M7.9998 0.942871C6.05127 0.942871 4.28613 1.73348 3.0098 3.00979C1.73348 4.28613 0.942871 6.05127 0.942871 7.9998C0.942871 9.94832 1.73348 11.7135 3.0098 12.9898C4.28613 14.2661 6.05127 15.0567 7.9998 15.0567C9.94832 15.0567 11.7135 14.2661 12.9898 12.9898C14.2661 11.7135 15.0567 9.94832 15.0567 7.9998C15.0567 6.05127 14.2661 4.28613 12.9898 3.00979C11.7135 1.73348 9.94832 0.942871 7.9998 0.942871ZM3.95024 3.95025C4.98736 2.91315 6.41818 2.27287 7.9998 2.27287C9.58142 2.27287 11.0122 2.91315 12.0493 3.95025C13.0864 4.98736 13.7267 6.41818 13.7267 7.9998C13.7267 9.58142 13.0864 11.0122 12.0493 12.0493C11.0122 13.0864 9.58142 13.7267 7.9998 13.7267C6.41818 13.7267 4.98736 13.0864 3.95025 12.0493C2.91315 11.0122 2.27287 9.58142 2.27287 7.9998C2.27287 6.41818 2.91315 4.98737 3.95024 3.95025Z" fill="black"/>
</g>
<defs>
<clipPath id="clip0_1359_35">
<rect width="16" height="16" fill="white"/>
</clipPath>
</defs>
</svg>
