<svg width="16" height="16" viewBox="0 0 16 16" fill="none" xmlns="http://www.w3.org/2000/svg">
<path fill-rule="evenodd" clip-rule="evenodd" d="M3.47116 2.33052C3.21146 2.07082 2.79041 2.07082 2.53071 2.33052C2.27101 2.59021 2.27101 3.01127 2.53071 3.27097L6.02322 6.76348C5.79863 7.12198 5.66846 7.54637 5.66846 8.00022C5.66846 9.28796 6.71239 10.3319 8.00012 10.3319C8.45409 10.3319 8.8784 10.2017 9.23684 9.9771L12.5307 13.271C12.7904 13.5307 13.2115 13.5307 13.4712 13.271C13.7309 13.0113 13.7309 12.5902 13.4712 12.3305L3.47116 2.33052ZM6.99846 8.00022C6.99846 7.91943 7.00793 7.84107 7.02583 7.76609L8.23424 8.9745C8.15925 8.99241 8.08088 9.00189 8.00012 9.00189C7.44693 9.00189 6.99846 8.55342 6.99846 8.00022Z" fill="black"/>
<path d="M7.99999 3.33496C7.48759 3.33496 6.99133 3.40348 6.51704 3.52122C6.16059 3.6097 5.94336 3.9704 6.03185 4.32685C6.12033 4.6833 6.48103 4.90053 6.83748 4.81204C7.21825 4.71751 7.60665 4.66496 7.99999 4.66496C10.1133 4.66496 12.0494 6.18552 13.2065 7.3521C13.5726 7.72123 13.5726 8.2787 13.2061 8.64812C12.9453 8.91113 12.6371 9.19999 12.2896 9.48798C12.0069 9.72235 11.9677 10.1416 12.202 10.4243C12.4364 10.7071 12.8556 10.7463 13.1384 10.5119C13.5241 10.1922 13.8641 9.87335 14.1504 9.58475C15.0308 8.69715 15.0315 7.30346 14.1507 6.4155C12.9601 5.2151 10.6878 3.33496 7.99999 3.33496Z" fill="black"/>
<path d="M3.79793 5.57558C3.56355 5.29282 3.14432 5.2536 2.86156 5.48798C2.47583 5.80771 2.13583 6.12657 1.84956 6.41517C0.969131 7.30278 0.968511 8.69646 1.84923 9.58442C3.03985 10.7848 5.31219 12.665 7.99999 12.665C8.51664 12.665 9.01687 12.5953 9.4947 12.4758C9.85099 12.3867 10.0676 12.0256 9.97844 11.6693C9.88932 11.313 9.52823 11.0964 9.17194 11.1855C8.78818 11.2815 8.3966 11.335 7.99999 11.335C5.88668 11.335 3.9506 9.8144 2.79352 8.64782C2.4274 8.27869 2.42739 7.72122 2.79383 7.3518C3.05471 7.08879 3.36289 6.79993 3.71032 6.51194C3.99308 6.27757 4.03231 5.85834 3.79793 5.57558Z" fill="black"/>
</svg>
