<svg width="16" height="16" viewBox="0 0 16 16" fill="none" xmlns="http://www.w3.org/2000/svg">
<g clip-path="url(#clip0_1358_2)">
<path d="M7.99996 0.994141C5.9893 0.994141 4.17687 1.84143 2.89982 3.19691V2.52364C2.89982 2.15637 2.60209 1.85864 2.23482 1.85864C1.86755 1.85864 1.56982 2.15637 1.56982 2.52364V4.82939C1.56982 5.19666 1.86755 5.49439 2.23482 5.49439H4.54058C4.90785 5.49439 5.20558 5.19666 5.20558 4.82939C5.20558 4.46212 4.90785 4.16439 4.54058 4.16439H3.81612C4.85423 3.03257 6.34455 2.32414 7.99996 2.32414C11.1346 2.32414 13.6758 4.86529 13.6758 7.99996C13.6758 11.1346 11.1346 13.6758 7.99996 13.6758C4.86529 13.6758 2.32414 11.1346 2.32414 7.99996C2.32414 7.63269 2.02641 7.33496 1.65914 7.33496C1.29187 7.33496 0.994141 7.63269 0.994141 7.99996C0.994141 11.8692 4.13075 15.0058 7.99996 15.0058C11.8692 15.0058 15.0058 11.8692 15.0058 7.99996C15.0058 4.13075 11.8692 0.994141 7.99996 0.994141Z" fill="black"/>
<path d="M7.69085 4.5675C7.32358 4.56746 7.02581 4.86516 7.02577 5.23243L7.02539 8.61954C7.02537 8.80116 7.09963 8.97488 7.23092 9.10036L9.60412 11.3685C9.86963 11.6223 10.2906 11.6127 10.5443 11.3472C10.7981 11.0817 10.7886 10.6608 10.523 10.407L8.35542 8.33534L8.35577 5.23258C8.35581 4.86531 8.05812 4.56755 7.69085 4.5675Z" fill="black"/>
</g>
<defs>
<clipPath id="clip0_1358_2">
<rect width="16" height="16" fill="white"/>
</clipPath>
</defs>
</svg>
