<svg width="16" height="16" viewBox="0 0 16 16" fill="none" xmlns="http://www.w3.org/2000/svg">
<path fill-rule="evenodd" clip-rule="evenodd" d="M9.66477 1.98022C8.69146 1.20158 7.30846 1.20158 6.33515 1.98023L1.83515 5.58023C1.20297 6.08597 0.834961 6.85166 0.834961 7.66124V13.5C0.834961 14.4195 1.58041 15.165 2.49996 15.165H5.67254C6.24825 15.165 6.71496 14.6983 6.71496 14.1226V12.55C6.71496 11.8403 7.29027 11.265 7.99996 11.265C8.70965 11.265 9.28496 11.8403 9.28496 12.55V14.1226C9.28496 14.6983 9.75167 15.165 10.3274 15.165H13.5C14.4195 15.165 15.165 14.4195 15.165 13.5V7.66124C15.165 6.85166 14.797 6.08597 14.1648 5.58022L9.66477 1.98022ZM7.16599 3.01878C7.65356 2.62873 8.34636 2.62873 8.83393 3.01878L13.3339 6.61878C13.6506 6.87213 13.835 7.25569 13.835 7.66124V13.5C13.835 13.685 13.685 13.835 13.5 13.835H10.615V12.55C10.615 11.1058 9.44419 9.93499 7.99996 9.93499C6.55574 9.93499 5.38496 11.1058 5.38496 12.55V13.835H2.49996C2.31495 13.835 2.16496 13.685 2.16496 13.5V7.66124C2.16496 7.25569 2.34931 6.87213 2.66599 6.61878L7.16599 3.01878Z" fill="black"/>
</svg>
