<svg width="16" height="16" viewBox="0 0 16 16" fill="none" xmlns="http://www.w3.org/2000/svg">
<path fill-rule="evenodd" clip-rule="evenodd" d="M6.37569 1.75028C7.32526 0.990629 8.67454 0.990628 9.62411 1.75028L14.1241 5.35028C14.7409 5.84369 15.0999 6.5907 15.0999 7.38054V13.2193C15.0999 14.1029 14.3836 14.8193 13.4999 14.8193H10.3273C9.78751 14.8193 9.3499 14.3817 9.3499 13.8419V12.2693C9.3499 11.5237 8.74549 10.9193 7.9999 10.9193C7.25432 10.9193 6.6499 11.5237 6.6499 12.2693V13.8419C6.6499 14.3817 6.2123 14.8193 5.67248 14.8193H2.4999C1.61625 14.8193 0.899902 14.1029 0.899902 13.2193V7.38054C0.899902 6.5907 1.25894 5.84369 1.87569 5.35028L6.37569 1.75028Z" fill="black"/>
</svg>
