<svg width="16" height="16" viewBox="0 0 16 16" fill="none" xmlns="http://www.w3.org/2000/svg">
<path fill-rule="evenodd" clip-rule="evenodd" d="M5.91305 6.88762L5.89811 6.88745L2.83922 6.88738C1.86447 6.88736 1.07429 6.09718 1.07426 5.12243L1.07422 3.32273C1.07419 2.34794 1.86441 1.55769 2.83921 1.55769L5.90402 1.55768L5.91305 1.55762L5.92207 1.55768L10.0793 1.55766L10.0869 1.55762L10.0945 1.55766L13.1612 1.55765C14.136 1.55764 14.9263 2.34786 14.9263 3.32265V5.12262C14.9263 6.09741 14.136 6.88764 13.1612 6.88762L10.0966 6.88755L10.0869 6.88762L10.0771 6.88755L5.92795 6.88745L5.91305 6.88762ZM10.7519 5.55756L13.1612 5.55762C13.4015 5.55762 13.5963 5.36287 13.5963 5.12262V3.32265C13.5963 3.0824 13.4015 2.88765 13.1612 2.88765L10.7519 2.88766V5.55756ZM9.42188 2.88766V5.55753L6.57805 5.55747V2.88767L9.42188 2.88766ZM5.24805 2.88768V5.55744L2.83925 5.55738C2.59902 5.55738 2.40427 5.36263 2.40426 5.12239L2.40422 3.3227C2.40421 3.08245 2.59897 2.88769 2.83922 2.88769L5.24805 2.88768Z" fill="black"/>
<path fill-rule="evenodd" clip-rule="evenodd" d="M1.07422 10.8774L1.0743 12.6774C1.07435 13.6521 1.86456 14.4423 2.83932 14.4423L5.90713 14.4423L5.91305 14.4423L5.91898 14.4423L10.0778 14.4422C10.0808 14.4423 10.0838 14.4423 10.0869 14.4423C10.0899 14.4423 10.0929 14.4423 10.096 14.4422L13.1613 14.4422C14.136 14.4422 14.9262 13.652 14.9262 12.6772V10.8773C14.9262 9.90253 14.136 9.11231 13.1612 9.11231H10.0904L10.0869 9.1123L10.0834 9.11231H5.91656L5.91305 9.1123L5.90954 9.11231H2.83922C1.8644 9.11231 1.07417 9.90258 1.07422 10.8774ZM9.42188 10.4423H6.57805V13.1123L9.42188 13.1122V10.4423ZM10.7519 13.1122L13.1612 13.1122C13.4015 13.1122 13.5962 12.9175 13.5962 12.6772V10.8773C13.5962 10.6371 13.4015 10.4423 13.1612 10.4423H10.7519V13.1122ZM5.24805 13.1123V10.4423H2.83922C2.59897 10.4423 2.40421 10.6371 2.40422 10.8773L2.4043 12.6773C2.40431 12.9176 2.59907 13.1123 2.83931 13.1123L5.24805 13.1123Z" fill="black"/>
</svg>
