<svg width="16" height="16" viewBox="0 0 16 16" fill="none" xmlns="http://www.w3.org/2000/svg">
<path fill-rule="evenodd" clip-rule="evenodd" d="M1.99996 1.83447C1.63269 1.83447 1.33496 2.1322 1.33496 2.49947C1.33496 2.86674 1.63269 3.16447 1.99996 3.16447H14C14.3672 3.16447 14.665 2.86674 14.665 2.49947C14.665 2.1322 14.3672 1.83447 14 1.83447H1.99996ZM3.33321 5.50159C2.96594 5.50159 2.66821 5.79932 2.66821 6.16659C2.66821 6.53386 2.96594 6.83159 3.33321 6.83159H12.6665C13.0338 6.83159 13.3315 6.53386 13.3315 6.16659C13.3315 5.79932 13.0338 5.50159 12.6665 5.50159H3.33321ZM1.33496 9.83358C1.33496 9.46631 1.63269 9.16858 1.99996 9.16858H14C14.3672 9.16858 14.665 9.46631 14.665 9.83358C14.665 10.2008 14.3672 10.4986 14 10.4986H1.99996C1.63269 10.4986 1.33496 10.2008 1.33496 9.83358ZM3.33321 12.8356C2.96594 12.8356 2.66821 13.1334 2.66821 13.5006C2.66821 13.8679 2.96594 14.1656 3.33321 14.1656H12.6665C13.0338 14.1656 13.3315 13.8679 13.3315 13.5006C13.3315 13.1334 13.0338 12.8356 12.6665 12.8356H3.33321Z" fill="black"/>
</svg>
