<svg width="16" height="16" viewBox="0 0 16 16" fill="none" xmlns="http://www.w3.org/2000/svg">
<path d="M7.04757 4.47742C6.6803 4.47742 6.38257 4.77515 6.38257 5.14242C6.38257 5.50969 6.6803 5.80742 7.04757 5.80742H8.95257C9.31984 5.80742 9.61757 5.50969 9.61757 5.14242C9.61757 4.77515 9.31984 4.47742 8.95257 4.47742H7.04757Z" fill="black"/>
<path d="M6.41256 11.7799C6.04529 11.7799 5.74756 12.0776 5.74756 12.4449C5.74756 12.8122 6.04529 13.1099 6.41256 13.1099H9.58757C9.95484 13.1099 10.2526 12.8122 10.2526 12.4449C10.2526 12.0776 9.95484 11.7799 9.58757 11.7799H6.41256Z" fill="black"/>
<path fill-rule="evenodd" clip-rule="evenodd" d="M2.6025 0.984985C2.23523 0.984985 1.9375 1.28272 1.9375 1.64999C1.9375 2.01725 2.23523 2.31499 2.6025 2.31499H3.33255C3.74888 4.20906 4.29027 5.70964 4.98184 6.77359C5.30538 7.27135 5.67112 7.68589 6.08023 7.99889C5.67109 8.31161 5.30534 8.72602 4.98184 9.22372C4.29018 10.2878 3.74878 11.7893 3.33247 13.6849H2.6025C2.23523 13.6849 1.9375 13.9827 1.9375 14.3499C1.9375 14.7172 2.23523 15.0149 2.6025 15.0149H3.86526L3.87252 15.015L12.1279 15.015L12.1352 15.0149L13.3975 15.0149C13.7648 15.0149 14.0625 14.7172 14.0625 14.3499C14.0625 13.9827 13.7648 13.6849 13.3975 13.6849H12.6675C12.2512 11.7909 11.7098 10.2903 11.0182 9.22637C10.6947 8.72862 10.3289 8.31407 9.91983 8.00107C10.329 7.68836 10.6947 7.27394 11.0182 6.77625C11.7099 5.71215 12.2513 4.21064 12.6676 2.31499H13.3975C13.7648 2.31499 14.0625 2.01725 14.0625 1.64999C14.0625 1.28272 13.7648 0.984985 13.3975 0.984985H2.6025ZM6.09697 6.04876C5.55863 5.22055 5.0845 3.98827 4.69606 2.31499H11.3042C10.9157 3.99002 10.4415 5.22314 9.90309 6.05141C9.29697 6.98391 8.64376 7.33206 7.99056 7.33497C7.33735 7.33082 6.70361 6.98206 6.09697 6.04876ZM6.09697 9.94855C6.7035 9.01543 7.33675 8.66791 7.98932 8.66498C8.64312 8.66915 9.29689 9.01859 9.9031 9.95121C10.4414 10.7794 10.9155 12.0117 11.304 13.6849H4.69592C5.08441 12.0099 5.5586 10.7768 6.09697 9.94855Z" fill="black"/>
</svg>
