<svg width="16" height="16" viewBox="0 0 16 16" fill="none" xmlns="http://www.w3.org/2000/svg">
<path fill-rule="evenodd" clip-rule="evenodd" d="M8.66506 1.99997C8.66506 1.6327 8.36734 1.33496 8.00007 1.33496C7.6328 1.33496 7.33506 1.63269 7.33506 1.99996L7.33502 7.33496H1.99996C1.63269 7.33496 1.33496 7.63269 1.33496 7.99996C1.33496 8.36723 1.63269 8.66496 1.99996 8.66496H7.33501L7.33496 14C7.33496 14.3672 7.63269 14.665 7.99996 14.665C8.36722 14.665 8.66496 14.3672 8.66496 14L8.66501 8.66496H14C14.3672 8.66496 14.665 8.36723 14.665 7.99996C14.665 7.63269 14.3672 7.33496 14 7.33496H8.66502L8.66506 1.99997Z" fill="black"/>
</svg>
