<svg width="16" height="16" viewBox="0 0 16 16" fill="none" xmlns="http://www.w3.org/2000/svg">
<path d="M1.99996 1.30176C1.63269 1.30176 1.33496 1.59949 1.33496 1.96676C1.33496 2.33403 1.63269 2.63176 1.99996 2.63176H14C14.3672 2.63176 14.665 2.33403 14.665 1.96676C14.665 1.59949 14.3672 1.30176 14 1.30176H1.99996Z" fill="black"/>
<path d="M1.99996 13.3685C1.63269 13.3685 1.33496 13.6663 1.33496 14.0335C1.33496 14.4008 1.63269 14.6985 1.99996 14.6985H14C14.3672 14.6985 14.665 14.4008 14.665 14.0335C14.665 13.6663 14.3672 13.3685 14 13.3685H1.99996Z" fill="black"/>
<path d="M9.44722 10.4702C9.18752 10.2105 9.18752 9.78943 9.44722 9.52973L10.312 8.66496L4.08248 8.66496C3.71521 8.66496 3.41748 8.36723 3.41748 7.99996C3.41748 7.63269 3.71521 7.33496 4.08248 7.33496L10.312 7.33496L9.44722 6.47019C9.18752 6.21049 9.18752 5.78943 9.44722 5.52973C9.70691 5.27004 10.128 5.27004 10.3877 5.52973L12.3877 7.52973C12.6474 7.78943 12.6474 8.21049 12.3877 8.47019L10.3877 10.4702C10.128 10.7299 9.70691 10.7299 9.44722 10.4702Z" fill="black"/>
</svg>
