<svg width="16" height="16" viewBox="0 0 16 16" fill="none" xmlns="http://www.w3.org/2000/svg">
<path d="M8.00019 1.78027C8.36746 1.78027 8.66519 2.078 8.66519 2.44527V4.01628H10.2362C10.6035 4.01628 10.9012 4.31401 10.9012 4.68128C10.9012 5.04855 10.6035 5.34628 10.2362 5.34628H8.66519V6.91728C8.66519 7.28455 8.36746 7.58228 8.00019 7.58228C7.63292 7.58228 7.33519 7.28455 7.33519 6.91728V5.34628H5.76418C5.39691 5.34628 5.09918 5.04855 5.09918 4.68128C5.09918 4.31401 5.39691 4.01628 5.76418 4.01628H7.33519V2.44527C7.33519 2.078 7.63292 1.78027 8.00019 1.78027Z" fill="black"/>
<path fill-rule="evenodd" clip-rule="evenodd" d="M2.83932 14.2196L5.90737 14.2196L5.91329 14.2196L5.91922 14.2196L10.2271 14.2195L10.2363 14.2196L10.2455 14.2195L13.1613 14.2195C14.136 14.2195 14.9262 13.4293 14.9262 12.4545V10.6546C14.9262 9.67983 14.136 8.88962 13.1612 8.88962H10.2398L10.2363 8.88961L10.2328 8.88962H5.9168L5.91329 8.88961L5.90978 8.88962H2.83922C1.8644 8.88962 1.07417 9.67988 1.07422 10.6547L1.0743 12.4547C1.07435 13.4294 1.86456 14.2196 2.83932 14.2196ZM9.57129 10.2196H6.57829V12.8896L9.57129 12.8896V10.2196ZM10.9013 12.8895L13.1612 12.8895C13.4015 12.8895 13.5962 12.6948 13.5962 12.4545V10.6546C13.5962 10.4144 13.4015 10.2196 13.1612 10.2196H10.9013V12.8895ZM2.83922 10.2196H5.24829V12.8896L2.83931 12.8896C2.59907 12.8896 2.40431 12.6949 2.4043 12.4546L2.40422 10.6546C2.40421 10.4144 2.59897 10.2196 2.83922 10.2196Z" fill="black"/>
</svg>
