<svg width="16" height="16" viewBox="0 0 16 16" fill="none" xmlns="http://www.w3.org/2000/svg">
<path fill-rule="evenodd" clip-rule="evenodd" d="M14.9257 3.54519L14.9257 5.34518C14.9258 6.32 14.1356 7.11026 13.1607 7.11026H10.0904L10.0869 7.11027L10.0834 7.11026H5.9166L5.91309 7.11027L5.90958 7.11026H2.83873C1.86395 7.11026 1.07373 6.32005 1.07373 5.34526V3.54536C1.07373 2.57058 1.86394 1.78037 2.83872 1.78036L5.90399 1.78033L5.91309 1.78027L5.92219 1.78033L10.081 1.7803L10.0869 1.78027L10.0928 1.7803L13.1607 1.78027C14.1354 1.78027 14.9256 2.57043 14.9257 3.54519ZM6.57809 3.11033L9.42192 3.1103V5.78026H6.57809V3.11033ZM5.24809 3.11034V5.78026H2.83873C2.59849 5.78026 2.40373 5.58551 2.40373 5.34526V3.54536C2.40373 3.30512 2.59848 3.11036 2.83873 3.11036L5.24809 3.11034ZM13.1607 5.78026H10.7519V3.11029L13.1607 3.11027C13.4009 3.11027 13.5957 3.30502 13.5957 3.54525L13.5957 5.34524C13.5958 5.5855 13.401 5.78026 13.1607 5.78026Z" fill="black"/>
<path d="M8.00027 14.2196C7.633 14.2196 7.33527 13.9219 7.33527 13.5546V11.9836H5.76427C5.397 11.9836 5.09927 11.6859 5.09927 11.3186C5.09927 10.9513 5.397 10.6536 5.76427 10.6536H7.33527V9.0826C7.33527 8.71533 7.633 8.4176 8.00027 8.4176C8.36754 8.4176 8.66527 8.71533 8.66527 9.0826V10.6536H10.2363C10.6035 10.6536 10.9013 10.9513 10.9013 11.3186C10.9013 11.6859 10.6035 11.9836 10.2363 11.9836H8.66527V13.5546C8.66527 13.9219 8.36754 14.2196 8.00027 14.2196Z" fill="black"/>
</svg>
