<svg width="16" height="16" viewBox="0 0 16 16" fill="none" xmlns="http://www.w3.org/2000/svg">
<path fill-rule="evenodd" clip-rule="evenodd" d="M7.94771 0.30127L7.93415 0.301405L5.10009 0.301331C4.1253 0.301305 3.33506 1.09151 3.33505 2.0663L3.33496 7.86627C3.33495 8.84107 4.12517 9.6313 5.09996 9.6313H10.8999C11.8747 9.6313 12.6649 8.84108 12.6649 7.8663V4.97759C12.665 4.97382 12.665 4.97005 12.665 4.96627C12.665 4.96249 12.665 4.95871 12.6649 4.95495V2.06648C12.6649 1.09172 11.8748 0.301509 10.9 0.301483L7.96132 0.301406L7.94771 0.30127ZM11.3349 4.30127V2.06648C11.3349 1.82624 11.1402 1.63149 10.9 1.63148L8.61271 1.63142V4.30127H11.3349ZM7.28271 4.30127V1.63139L5.10006 1.63133C4.85981 1.63132 4.66505 1.82608 4.66505 2.06632L4.66501 4.30127H7.28271ZM4.66499 5.63127H7.28271V8.3013H5.09996C4.85971 8.3013 4.66496 8.10654 4.66496 7.86629L4.66499 5.63127ZM8.61271 5.63127H11.3349V7.8663C11.3349 8.10655 11.1402 8.3013 10.8999 8.3013H8.61271V5.63127Z" fill="black"/>
<path d="M11.1972 10.5629C10.9375 10.8226 10.9375 11.2436 11.1972 11.5033L12.062 12.3681L2.33297 12.3681C1.9657 12.3681 1.66797 12.6658 1.66797 13.0331C1.66797 13.4004 1.9657 13.6981 2.33297 13.6981L12.062 13.6981L11.1972 14.5629C10.9375 14.8226 10.9375 15.2436 11.1972 15.5033C11.4569 15.763 11.878 15.763 12.1377 15.5033L14.1377 13.5033C14.3974 13.2436 14.3974 12.8226 14.1377 12.5629L12.1377 10.5629C11.878 10.3032 11.4569 10.3032 11.1972 10.5629Z" fill="black"/>
</svg>
