<svg width="16" height="16" viewBox="0 0 16 16" fill="none" xmlns="http://www.w3.org/2000/svg">
<path d="M13.0337 1.66748C13.4009 1.66748 13.6987 1.96521 13.6987 2.33248L13.6987 12.0617L14.5634 11.197C14.8231 10.9373 15.2442 10.9373 15.5039 11.197C15.7636 11.4567 15.7636 11.8777 15.5039 12.1374L13.5039 14.1374C13.2442 14.3971 12.8231 14.3971 12.5634 14.1374L10.5634 12.1374C10.3037 11.8777 10.3037 11.4567 10.5634 11.197C10.8231 10.9373 11.2442 10.9373 11.5039 11.197L12.3687 12.0617L12.3687 2.33248C12.3687 1.96521 12.6664 1.66748 13.0337 1.66748Z" fill="black"/>
<path fill-rule="evenodd" clip-rule="evenodd" d="M4.95586 3.33488L2.06673 3.33493C1.09194 3.33494 0.301732 4.12518 0.301758 5.09997L0.301833 7.93728L0.301758 7.94735L0.301833 7.95746L0.301911 10.8999C0.301936 11.8746 1.09215 12.6648 2.06691 12.6648H7.86673C8.84151 12.6648 9.63173 11.8746 9.63173 10.8998V7.95358L9.63176 7.94735L9.63173 7.94111V5.09984C9.63173 4.12505 8.8415 3.33482 7.8667 3.33484L4.97764 3.33488C4.97402 3.33482 4.97039 3.33479 4.96676 3.33479C4.96312 3.33479 4.95948 3.33482 4.95586 3.33488ZM4.30176 4.66489L2.06675 4.66493C1.82651 4.66493 1.63175 4.85969 1.63176 5.09994L1.63182 7.28235H4.30176V4.66489ZM4.30176 8.61235H1.63185L1.63191 10.8998C1.63192 11.1401 1.82667 11.3348 2.06691 11.3348H4.30176V8.61235ZM5.63176 11.3348V8.61235H8.30173V10.8998C8.30173 11.1401 8.10697 11.3348 7.86673 11.3348H5.63176ZM5.63176 7.28235V4.66487L7.86672 4.66484C8.10697 4.66484 8.30173 4.85959 8.30173 5.09984V7.28235H5.63176Z" fill="black"/>
</svg>
