<svg width="16" height="16" viewBox="0 0 16 16" fill="none" xmlns="http://www.w3.org/2000/svg">
<path d="M9.81133 1.33497H11.9998C12.3671 1.33497 12.6648 1.6327 12.6648 1.99997C12.6648 2.36724 12.3671 2.66497 11.9998 2.66497H10.1677L7.20771 13.335H9.33329C9.70056 13.335 9.99829 13.6327 9.99829 14C9.99829 14.3672 9.70056 14.665 9.33329 14.665H6.34507C6.33738 14.6651 6.32967 14.6651 6.32194 14.665H3.99996C3.63269 14.665 3.33496 14.3672 3.33496 14C3.33496 13.6327 3.63269 13.335 3.99996 13.335H5.82748L8.78745 2.66497H6.66646C6.2992 2.66497 6.00146 2.36724 6.00146 1.99997C6.00146 1.6327 6.2992 1.33497 6.66646 1.33497H9.52109C9.61412 1.31405 9.71287 1.31291 9.81133 1.33497Z" fill="black"/>
</svg>
