<svg width="16" height="16" viewBox="0 0 16 16" fill="none" xmlns="http://www.w3.org/2000/svg">
<path fill-rule="evenodd" clip-rule="evenodd" d="M12.4547 14.9257L10.6547 14.9257C9.67988 14.9258 8.88962 14.1356 8.88962 13.1607V10.0902L8.88961 10.0867L8.88962 10.0832V5.91642L8.88961 5.91291L8.88962 5.9094V2.83873C8.88962 1.86395 9.67983 1.07373 10.6546 1.07373H12.4545C13.4293 1.07373 14.2195 1.86394 14.2195 2.83872L14.2195 5.90381L14.2196 5.91291L14.2195 5.922L14.2196 10.0808L14.2196 10.0867L14.2196 10.0927L14.2196 13.1607C14.2196 14.1354 13.4294 14.9256 12.4547 14.9257ZM12.8896 6.57791L12.8896 9.42174H10.2196V6.57791H12.8896ZM12.8895 5.24791H10.2196V2.83873C10.2196 2.59849 10.4144 2.40373 10.6546 2.40373H12.4545C12.6948 2.40373 12.8895 2.59848 12.8895 2.83873L12.8895 5.24791ZM10.2196 13.1607V10.7517H12.8896L12.8896 13.1607C12.8896 13.4009 12.6949 13.5957 12.4546 13.5957L10.6546 13.5957C10.4144 13.5958 10.2196 13.401 10.2196 13.1607Z" fill="black"/>
<path d="M1.78027 7.9999C1.78027 7.63264 2.078 7.3349 2.44527 7.3349H4.01628V5.7639C4.01628 5.39663 4.31401 5.0989 4.68128 5.0989C5.04855 5.0989 5.34628 5.39663 5.34628 5.7639V7.3349H6.91728C7.28455 7.3349 7.58228 7.63264 7.58228 7.9999C7.58228 8.36717 7.28455 8.6649 6.91728 8.6649H5.34628V10.2359C5.34628 10.6032 5.04855 10.9009 4.68128 10.9009C4.31401 10.9009 4.01628 10.6032 4.01628 10.2359V8.6649H2.44527C2.078 8.6649 1.78027 8.36717 1.78027 7.9999Z" fill="black"/>
</svg>
