<svg width="16" height="16" viewBox="0 0 16 16" fill="none" xmlns="http://www.w3.org/2000/svg">
<path d="M11.3184 14.0102C11.3184 14.3775 11.6161 14.6752 11.9834 14.6752C12.3506 14.6752 12.6484 14.3775 12.6484 14.0102V2.98911L13.6709 3.91471C13.9432 4.16118 14.3638 4.14025 14.6102 3.86796C14.8567 3.59567 14.8358 3.17513 14.5635 2.92867L13.0981 1.60223C12.4134 0.98249 11.3184 1.46832 11.3184 2.3918V14.0102Z" fill="black"/>
<path fill-rule="evenodd" clip-rule="evenodd" d="M2.17865 9.40014C0.897479 8.9306 0.897482 7.11862 2.17865 6.64908L9.25077 4.0572C9.59561 3.93082 9.97761 4.10792 10.104 4.45276C10.2304 4.7976 10.0533 5.1796 9.70844 5.30598L6.96281 6.31223V9.71827L6.96256 9.7369L9.70844 10.7432C10.0533 10.8696 10.2304 11.2516 10.104 11.5965C9.97761 11.9413 9.59561 12.1184 9.25077 11.992L2.17865 9.40014ZM2.63632 7.89785L5.63281 6.79966V9.24956L2.63632 8.15136C2.59633 8.13671 2.57917 8.11809 2.56938 8.10322C2.55717 8.08468 2.54777 8.05738 2.54777 8.02461C2.54777 7.99184 2.55717 7.96454 2.56938 7.946C2.57917 7.93113 2.59634 7.91251 2.63632 7.89785Z" fill="black"/>
</svg>
