<svg width="16" height="16" viewBox="0 0 16 16" fill="none" xmlns="http://www.w3.org/2000/svg">
<path d="M1.99996 1.83447C1.63269 1.83447 1.33496 2.1322 1.33496 2.49947C1.33496 2.86674 1.63269 3.16447 1.99996 3.16447H14C14.3672 3.16447 14.665 2.86674 14.665 2.49947C14.665 2.1322 14.3672 1.83447 14 1.83447H1.99996Z" fill="black"/>
<path d="M1.99996 5.50159C1.63269 5.50159 1.33496 5.79932 1.33496 6.16659C1.33496 6.53386 1.63269 6.83159 1.99996 6.83159H11.3333C11.7006 6.83159 11.9983 6.53386 11.9983 6.16659C11.9983 5.79932 11.7006 5.50159 11.3333 5.50159H1.99996Z" fill="black"/>
<path d="M1.33496 9.83358C1.33496 9.46631 1.63269 9.16858 1.99996 9.16858H14C14.3672 9.16858 14.665 9.46631 14.665 9.83358C14.665 10.2008 14.3672 10.4986 14 10.4986H1.99996C1.63269 10.4986 1.33496 10.2008 1.33496 9.83358Z" fill="black"/>
<path d="M1.99996 12.8356C1.63269 12.8356 1.33496 13.1334 1.33496 13.5006C1.33496 13.8679 1.63269 14.1656 1.99996 14.1656H11.3333C11.7006 14.1656 11.9983 13.8679 11.9983 13.5006C11.9983 13.1334 11.7006 12.8356 11.3333 12.8356H1.99996Z" fill="black"/>
</svg>
