<svg width="17" height="16" viewBox="0 0 17 16" fill="none" xmlns="http://www.w3.org/2000/svg">
<path fill-rule="evenodd" clip-rule="evenodd" d="M4.71676 1.06494C3.24492 1.06494 2.05176 2.2581 2.05176 3.72994V12.2699C2.05176 13.7418 3.24492 14.9349 4.71676 14.9349H13.2568C14.7286 14.9349 15.9218 13.7418 15.9218 12.2699V3.72994C15.9218 2.2581 14.7286 1.06494 13.2568 1.06494H4.71676ZM3.38176 3.9772V12.2699C3.38176 13.0072 3.97946 13.6049 4.71676 13.6049H7.87125L3.38176 3.9772ZM9.33874 13.6049H13.2568C13.3772 13.6049 13.494 13.589 13.605 13.5591L5.57102 5.52504L9.33874 13.6049ZM14.5457 12.6188C14.5757 12.5076 14.5918 12.3906 14.5918 12.2699V8.3525L6.51149 4.58461L14.5457 12.6188ZM14.5918 6.88501V3.72994C14.5918 2.99264 13.9941 2.39494 13.2568 2.39494H4.96278L14.5918 6.88501Z" fill="black"/>
</svg>
