<svg width="17" height="16" viewBox="0 0 17 16" fill="none" xmlns="http://www.w3.org/2000/svg">
<path fill-rule="evenodd" clip-rule="evenodd" d="M4.7192 1.06494C3.24736 1.06494 2.0542 2.2581 2.0542 3.72994V12.2699C2.0542 13.7418 3.24736 14.9349 4.7192 14.9349H13.2592C14.731 14.9349 15.9242 13.7418 15.9242 12.2699V3.72994C15.9242 2.2581 14.731 1.06494 13.2592 1.06494H4.7192ZM3.3842 3.9772V12.2699C3.3842 13.0072 3.9819 13.6049 4.7192 13.6049H7.87369L3.3842 3.9772ZM9.34118 13.6049H13.2592C13.9965 13.6049 14.5942 13.0072 14.5942 12.2699V8.3525L4.75176 3.76289L9.34118 13.6049ZM14.5942 6.88501V3.72994C14.5942 2.99264 13.9965 2.39494 13.2592 2.39494H4.96522L14.5942 6.88501Z" fill="black"/>
</svg>
