<svg width="17" height="17" viewBox="0 0 17 17" fill="none" xmlns="http://www.w3.org/2000/svg">
<mask id="mask0_436_29" style="mask-type:alpha" maskUnits="userSpaceOnUse" x="0" y="0" width="17" height="17">
<rect x="0.456665" y="0.717773" width="16" height="16" fill="#D9D9D9"/>
</mask>
<g mask="url(#mask0_436_29)">
<path d="M3.75537 3.11333L14.8806 8.21036L14.3808 9.30132L4.52076 4.78394L9.03813 14.644L7.94718 15.1438L2.85015 4.01855L2.5419 3.87733L2.66368 3.61154L2.52319 3.30491L2.8788 3.14199L3.04172 2.78638L3.34836 2.92686L3.61415 2.80509L3.75537 3.11333Z" fill="black"/>
<path fill-rule="evenodd" clip-rule="evenodd" d="M1.80017 12.8102L1.80017 14.1743C1.80017 14.8371 2.33743 15.3743 3.00017 15.3743L4.3643 15.3743L4.3643 14.0443L3.13017 14.0443L3.13017 12.8102L1.80017 12.8102ZM4.3643 2.06128L3.00017 2.06128C2.33743 2.06128 1.80017 2.59854 1.80017 3.26128L1.80017 4.62541L3.13017 4.62541L3.13017 3.39128L4.3643 3.39128L4.3643 2.06128ZM1.80017 10.0819L3.13017 10.0819L3.13017 7.35367L1.80017 7.35367L1.80017 10.0819ZM7.09256 2.06128L7.09256 3.39128L9.82081 3.39128L9.82081 2.06128L7.09256 2.06128ZM12.5491 2.06128L12.5491 3.39128L13.7832 3.39128L13.7832 4.62541L15.1132 4.62541L15.1132 3.26128C15.1132 2.59854 14.5759 2.06128 13.9132 2.06128L12.5491 2.06128ZM15.1132 7.35367L13.7832 7.35367L13.7832 10.0819L15.1132 10.0819L15.1132 7.35367ZM15.1132 12.8102L13.7832 12.8102L13.7832 14.0443L12.5491 14.0443L12.5491 15.3743L13.9132 15.3743C14.5759 15.3743 15.1132 14.8371 15.1132 14.1743L15.1132 12.8102ZM9.82082 15.3743L9.82082 14.0443L7.09256 14.0443L7.09256 15.3743L9.82082 15.3743Z" fill="#E5E5E5"/>
</g>
</svg>
