<svg width="16" height="16" viewBox="0 0 16 16" fill="none" xmlns="http://www.w3.org/2000/svg">
<path fill-rule="evenodd" clip-rule="evenodd" d="M1.40339 3.61455C0.829476 2.37661 2.11074 1.09535 3.34868 1.66926L10.1822 4.83727C10.5154 4.99174 10.6602 5.38708 10.5058 5.72028C10.3513 6.05349 9.95596 6.19838 9.62276 6.0439L6.96955 4.81387L4.56113 7.22229L4.54789 7.23518L5.77803 9.88863C5.93251 10.2218 5.78762 10.6172 5.45441 10.7716C5.12121 10.9261 4.72587 10.7812 4.5714 10.448L1.40339 3.61455ZM2.78928 2.87589L5.68443 4.21809L3.95222 5.9503L2.61002 3.05515C2.59211 3.01652 2.59314 2.99121 2.59673 2.97377C2.60121 2.95203 2.61387 2.92609 2.63704 2.90291C2.66022 2.87974 2.68617 2.86708 2.70791 2.8626C2.72534 2.85901 2.75065 2.85798 2.78928 2.87589Z" fill="black"/>
<path d="M4.60627 13.337C4.34658 13.5967 4.34658 14.0177 4.60627 14.2774C4.86597 14.5371 5.28703 14.5371 5.54673 14.2774L13.3398 6.48432L13.4084 7.86188C13.4266 8.2287 13.7388 8.51126 14.1056 8.493C14.4724 8.47474 14.755 8.16258 14.7367 7.79577L14.6385 5.82163C14.5926 4.89928 13.4747 4.46851 12.8217 5.12151L4.60627 13.337Z" fill="black"/>
</svg>
