<svg width="16" height="16" viewBox="0 0 16 16" fill="none" xmlns="http://www.w3.org/2000/svg">
<g clip-path="url(#clip0_1389_26)">
<path d="M8.60137 1.16787C8.60137 0.8365 8.33274 0.567871 8.00137 0.567871C7.67 0.567871 7.40137 0.8365 7.40137 1.16787V2.5012C7.40137 2.83258 7.67 3.1012 8.00137 3.1012C8.33274 3.1012 8.60137 2.83258 8.60137 2.5012V1.16787Z" fill="black"/>
<path d="M13.413 3.47373C13.6466 3.23875 13.6455 2.85885 13.4105 2.62521C13.1755 2.39156 12.7956 2.39265 12.562 2.62764L11.7419 3.45245C11.5083 3.68743 11.5094 4.06733 11.7443 4.30097C11.9793 4.53461 12.3592 4.53353 12.5929 4.29854L13.413 3.47373Z" fill="black"/>
<path d="M8.00814 5.8335C6.71947 5.8335 5.6748 6.87816 5.6748 8.16683C5.6748 9.4555 6.71947 10.5002 8.00814 10.5002V5.8335Z" fill="black"/>
<path fill-rule="evenodd" clip-rule="evenodd" d="M8.00788 3.8999C5.65147 3.8999 3.74121 5.81016 3.74121 8.16657C3.74121 10.523 5.65147 12.4332 8.00788 12.4332C10.3643 12.4332 12.2745 10.523 12.2745 8.16657C12.2745 5.81016 10.3643 3.8999 8.00788 3.8999ZM4.94121 8.16657C4.94121 6.47291 6.31422 5.0999 8.00788 5.0999C9.70154 5.0999 11.0745 6.47291 11.0745 8.16657C11.0745 9.86023 9.70154 11.2332 8.00788 11.2332C6.31422 11.2332 4.94121 9.86023 4.94121 8.16657Z" fill="black"/>
<path d="M4.11258 11.8713C4.34756 12.1049 4.34864 12.4848 4.115 12.7198L3.4327 13.406C3.19905 13.641 2.81916 13.6421 2.58417 13.4085C2.34919 13.1748 2.34811 12.7949 2.58175 12.5599L3.26405 11.8737C3.4977 11.6387 3.87759 11.6377 4.11258 11.8713Z" fill="black"/>
<path d="M8.60137 13.8319C8.60137 13.5006 8.33274 13.2319 8.00137 13.2319C7.67 13.2319 7.40137 13.5006 7.40137 13.8319V14.8319C7.40137 15.1633 7.67 15.4319 8.00137 15.4319C8.33274 15.4319 8.60137 15.1633 8.60137 14.8319V13.8319Z" fill="black"/>
<path d="M12.7334 7.83193C12.7334 7.50056 13.002 7.23193 13.3334 7.23193H14.6667C14.9981 7.23193 15.2667 7.50056 15.2667 7.83193C15.2667 8.1633 14.9981 8.43193 14.6667 8.43193H13.3334C13.002 8.43193 12.7334 8.1633 12.7334 7.83193Z" fill="black"/>
<path d="M12.9354 11.7358C12.7011 11.5015 12.3212 11.5015 12.0869 11.7358C11.8526 11.9701 11.8526 12.35 12.0869 12.5843L12.9093 13.4068C13.1437 13.6411 13.5236 13.6411 13.7579 13.4068C13.9922 13.1725 13.9922 12.7926 13.7579 12.5583L12.9354 11.7358Z" fill="black"/>
<path d="M1.3334 7.56787C1.00203 7.56787 0.733398 7.8365 0.733398 8.16787C0.733398 8.49924 1.00203 8.76787 1.3334 8.76787H2.66673C2.9981 8.76787 3.26673 8.49924 3.26673 8.16787C3.26673 7.8365 2.9981 7.56787 2.66673 7.56787H1.3334Z" fill="black"/>
<path d="M2.92476 2.62642C3.15907 2.39211 3.53897 2.3921 3.77328 2.62642L4.45755 3.31067C4.69187 3.54498 4.69187 3.92488 4.45756 4.1592C4.22325 4.39351 3.84335 4.39352 3.60903 4.15921L2.92476 3.47495C2.69045 3.24064 2.69044 2.86074 2.92476 2.62642Z" fill="black"/>
</g>
<defs>
<clipPath id="clip0_1389_26">
<rect width="16" height="16" fill="white"/>
</clipPath>
</defs>
</svg>
