<svg width="16" height="16" viewBox="0 0 16 16" fill="none" xmlns="http://www.w3.org/2000/svg">
<path d="M14.0463 1.9774C12.8837 0.814801 10.9984 0.770975 9.83559 1.93376L6.78923 4.98004C5.62649 6.14283 5.67001 8.02847 6.83264 9.19109C7.09624 9.4547 7.52363 9.4547 7.78723 9.19109C8.05083 8.92749 8.05083 8.5001 7.78723 8.2365C7.12914 7.57841 7.13592 6.54743 7.74328 5.93524L10.7902 2.88835C11.4018 2.2767 12.4321 2.27236 13.0918 2.932C13.7514 3.59162 13.7471 4.62194 13.1354 5.23358L10.4903 7.87868C10.2267 8.14229 10.2267 8.56967 10.4903 8.83328C10.7539 9.09688 11.1813 9.09688 11.4449 8.83327L14.09 6.18818C15.2528 5.02541 15.209 3.13999 14.0463 1.9774Z" fill="black"/>
<path d="M9.107 6.83955C8.8434 6.57595 8.41601 6.57595 8.15241 6.83955C7.8888 7.10316 7.8888 7.53054 8.15241 7.79415C8.81206 8.45379 8.80771 9.48408 8.19608 10.0957L5.1059 13.1861C4.49423 13.7978 3.46395 13.8021 2.80431 13.1425C2.14468 12.4828 2.149 11.4525 2.76066 10.8409L5.40577 8.19576C5.66937 7.93215 5.66937 7.50477 5.40577 7.24116C5.14216 6.97756 4.71478 6.97756 4.45117 7.24116L1.80607 9.88626C0.643272 11.0491 0.687137 12.9344 1.8497 14.0971C3.01233 15.2597 4.89771 15.3035 6.0605 14.1407L9.15145 11.1415C10.3142 9.97876 10.2696 8.00217 9.107 6.83955Z" fill="black"/>
</svg>
