<svg width="16" height="16" viewBox="0 0 16 16" fill="none" xmlns="http://www.w3.org/2000/svg">
<path d="M8.46081 3.97694C8.26341 3.8217 8.10271 3.93458 8.10271 4.20865V4.93799H8.06992C6.91651 4.93799 4.95399 6.23776 4.93799 7.3927C4.93799 7.48554 5.01489 7.51153 5.08802 7.3927C5.46056 6.74429 7.02698 6.40786 7.82542 6.40786H8.10193V7.17731C8.10193 7.40681 8.27642 7.56426 8.47447 7.40903L10.2983 5.98151C10.4957 5.82706 10.4957 5.57452 10.2983 5.41928L8.46081 3.97694Z" fill="black"/>
<path fill-rule="evenodd" clip-rule="evenodd" d="M3.60738 1.33496C2.13554 1.33496 0.942383 2.52812 0.942383 3.99996V7.93111C0.942383 9.40295 2.13554 10.5961 3.60738 10.5961H7.33536C7.3351 10.6039 7.33496 10.6117 7.33496 10.6195V13.1393H4.99996C4.63269 13.1393 4.33496 13.437 4.33496 13.8043C4.33496 14.1716 4.63269 14.4693 4.99996 14.4693H11C11.3672 14.4693 11.665 14.1716 11.665 13.8043C11.665 13.437 11.3672 13.1393 11 13.1393H8.66496V10.6195C8.66496 10.6117 8.66483 10.6039 8.66456 10.5961H12.393C13.8649 10.5961 15.058 9.40295 15.058 7.93111V3.99996C15.058 2.52812 13.8649 1.33496 12.393 1.33496H3.60738ZM2.27238 3.99996C2.27238 3.26266 2.87008 2.66496 3.60738 2.66496H12.393C13.1303 2.66496 13.728 3.26266 13.728 3.99996V7.93111C13.728 8.66841 13.1303 9.26611 12.393 9.26611H3.60738C2.87008 9.26611 2.27238 8.66841 2.27238 7.93111V3.99996Z" fill="black"/>
</svg>
