<svg width="17" height="16" viewBox="0 0 17 16" fill="none" xmlns="http://www.w3.org/2000/svg">
<path d="M8.55801 9.06666C8.92528 9.06666 9.22301 9.36439 9.22301 9.73166V11.7476C9.22301 12.1148 8.92528 12.4126 8.55801 12.4126C8.19074 12.4126 7.89301 12.1148 7.89301 11.7476V9.73166C7.89301 9.36439 8.19074 9.06666 8.55801 9.06666Z" fill="black"/>
<path fill-rule="evenodd" clip-rule="evenodd" d="M8.55741 0.985107C6.55814 0.985107 4.93741 2.60584 4.93741 4.60511V6.46405L4.50972 6.46405C3.03786 6.46406 1.84469 7.65726 1.84473 9.12912L1.84481 12.3502C1.84485 13.822 3.038 15.0152 4.50981 15.0152H12.605C14.0768 15.0152 15.27 13.822 15.27 12.3502V9.12903C15.27 7.65719 14.0768 6.46403 12.6049 6.46403L12.1774 6.46403V4.60511C12.1774 2.60584 10.5567 0.985107 8.55741 0.985107ZM10.8474 6.46404V4.60511C10.8474 3.34038 9.82214 2.31511 8.55741 2.31511C7.29268 2.31511 6.26741 3.34038 6.26741 4.60511V6.46405L10.8474 6.46404ZM12.605 7.79403L4.50972 7.79405C3.77241 7.79405 3.17471 8.39177 3.17473 9.12909L3.17481 12.3502C3.17483 13.0875 3.77253 13.6852 4.50981 13.6852H12.605C13.3423 13.6852 13.94 13.0875 13.94 12.3502V9.12903C13.94 8.39173 13.3423 7.79403 12.605 7.79403Z" fill="black"/>
</svg>
