<svg width="16" height="16" viewBox="0 0 16 16" fill="none" xmlns="http://www.w3.org/2000/svg">
<path fill-rule="evenodd" clip-rule="evenodd" d="M7.71905 1.30444C4.3402 1.30444 1.60107 4.04357 1.60107 7.42242C1.60107 10.8013 4.3402 13.5404 7.71905 13.5404C9.16113 13.5404 10.4867 13.0415 11.5325 12.2068L13.6121 14.4551C13.8615 14.7247 14.2823 14.7411 14.5519 14.4917C14.8215 14.2424 14.8379 13.8216 14.5885 13.552L12.4768 11.269C13.3275 10.2181 13.837 8.87977 13.837 7.42242C13.837 4.04357 11.0979 1.30444 7.71905 1.30444ZM2.93107 7.42242C2.93107 4.77811 5.07474 2.63444 7.71905 2.63444C10.3634 2.63444 12.507 4.77811 12.507 7.42242C12.507 10.0667 10.3634 12.2104 7.71905 12.2104C5.07474 12.2104 2.93107 10.0667 2.93107 7.42242Z" fill="black"/>
</svg>
