<svg width="16" height="16" viewBox="0 0 16 16" fill="none" xmlns="http://www.w3.org/2000/svg">
<path fill-rule="evenodd" clip-rule="evenodd" d="M4.90213 8.65894V11.6843C4.90213 12.0516 5.19986 12.3493 5.56713 12.3493C5.9344 12.3493 6.23213 12.0516 6.23213 11.6843V5.6221C6.23213 4.63192 4.83805 4.41847 4.54177 5.36328L3.25646 9.46194L1.97113 5.36326C1.68332 4.44549 0.280762 4.60184 0.280762 5.62033V11.6843C0.280762 12.0516 0.578492 12.3493 0.945762 12.3493C1.31303 12.3493 1.61076 12.0516 1.61076 11.6843V8.6589L2.43109 11.2748C2.68455 12.083 3.82837 12.083 4.08183 11.2748L4.90213 8.65894ZM9.52596 8.27576C9.4915 7.87209 9.13213 7.56708 8.72093 7.60798L7.65029 7.71446C7.28483 7.7508 6.95909 7.484 6.92275 7.11853C6.8864 6.75307 7.1532 6.42733 7.51867 6.39098L8.5893 6.28451C9.80456 6.16364 10.8587 7.11812 10.8587 8.33937V10.1818L10.8588 10.2066L10.8587 10.2314V11.6841C10.8587 12.0513 10.5609 12.3491 10.1937 12.3491C9.97523 12.3491 9.78139 12.2437 9.66016 12.0811C9.39693 12.2029 9.10372 12.2708 8.79464 12.2708C7.65463 12.2708 6.73047 11.3466 6.73047 10.2066C6.73047 9.06662 7.65463 8.14246 8.79464 8.14246C9.05215 8.14246 9.29865 8.18961 9.52596 8.27576ZM9.52866 10.1918C9.52079 9.7932 9.19517 9.47246 8.79464 9.47246C8.38917 9.47246 8.06047 9.80116 8.06047 10.2066C8.06047 10.6121 8.38917 10.9408 8.79464 10.9408C9.19517 10.9408 9.52079 10.6201 9.52866 10.2214V10.1918ZM15.4225 6.5674C15.7335 6.76275 15.8208 7.16908 15.6176 7.47496L14.3363 9.40291L15.6172 11.3304C15.8205 11.6363 15.7332 12.0426 15.4222 12.238C15.1112 12.4333 14.6943 12.3437 14.491 12.0378L13.5381 10.604L12.5852 12.0379C12.3819 12.3438 11.965 12.4334 11.654 12.238C11.343 12.0427 11.2556 11.6363 11.4589 11.3305L12.7399 9.40291L11.4586 7.4749C11.2553 7.16902 11.3427 6.76269 11.6537 6.56734C11.9647 6.37199 12.3816 6.46159 12.5849 6.76747L13.5381 8.20184L14.4913 6.76753C14.6946 6.46165 15.1115 6.37205 15.4225 6.5674Z" fill="black"/>
</svg>
