<svg width="16" height="16" viewBox="0 0 16 16" fill="none" xmlns="http://www.w3.org/2000/svg">
<path d="M2.2651 2.20154C1.89783 2.20154 1.6001 2.49927 1.6001 2.86654C1.6001 3.23381 1.89783 3.53154 2.2651 3.53154H13.7351C14.1024 3.53154 14.4001 3.23381 14.4001 2.86654C14.4001 2.49927 14.1024 2.20154 13.7351 2.20154H2.2651Z" fill="black"/>
<path d="M2.2651 7.33496C1.89783 7.33496 1.6001 7.63269 1.6001 7.99996C1.6001 8.36723 1.89783 8.66496 2.2651 8.66496H13.7351C14.1024 8.66496 14.4001 8.36723 14.4001 7.99996C14.4001 7.63269 14.1024 7.33496 13.7351 7.33496H2.2651Z" fill="black"/>
<path d="M2.2651 12.4684C1.89783 12.4684 1.6001 12.7661 1.6001 13.1334C1.6001 13.5007 1.89783 13.7984 2.2651 13.7984H13.7351C14.1024 13.7984 14.4001 13.5007 14.4001 13.1334C14.4001 12.7661 14.1024 12.4684 13.7351 12.4684H2.2651Z" fill="black"/>
</svg>
