<svg width="16" height="16" viewBox="0 0 16 16" fill="none" xmlns="http://www.w3.org/2000/svg">
<path d="M12.594 1.07397L10.6608 1.07401C9.52046 1.07404 8.596 1.99839 8.59585 3.13873L8.5957 4.19171C8.59565 4.55898 8.89334 4.85675 9.26061 4.8568C9.62788 4.85686 9.92565 4.55917 9.9257 4.1919L9.92585 3.13891C9.9259 2.73303 10.2549 2.40402 10.6608 2.40401L12.594 2.40397C13 2.40397 13.329 2.73304 13.329 3.13897L13.3291 7.33496H10.6516L11.0923 6.89426C11.352 6.63456 11.352 6.21351 11.0923 5.95381C10.8326 5.69411 10.4115 5.69411 10.1518 5.95381L9.26792 6.83772C8.61772 7.48794 8.61772 8.54213 9.26792 9.19235L10.1518 10.0763C10.4115 10.336 10.8326 10.336 11.0923 10.0763C11.352 9.81656 11.352 9.3955 11.0923 9.13581L10.6214 8.66496H13.3291L13.3291 12.861C13.3291 13.2669 13 13.596 12.5941 13.596H10.6607C10.2548 13.596 9.9257 13.2669 9.9257 12.861V11.8083C9.9257 11.441 9.62797 11.1433 9.2607 11.1433C8.89343 11.1433 8.5957 11.441 8.5957 11.8083V12.861C8.5957 14.0015 9.52024 14.926 10.6607 14.926H12.5941C13.7346 14.926 14.6591 14.0015 14.6591 12.861L14.6591 8.00669L14.6591 7.99996L14.6591 7.99322L14.659 3.13896C14.659 1.99848 13.7345 1.07395 12.594 1.07397Z" fill="black"/>
<path d="M5.33942 1.07401L3.40623 1.07408C2.26578 1.07413 1.3413 1.99866 1.34131 3.1391L1.34136 7.99186L1.34131 7.99996L1.34136 8.00807L1.34141 12.861C1.34142 14.0015 2.26595 14.926 3.40641 14.926H5.3395C6.47997 14.926 7.4045 14.0015 7.4045 12.861V11.8083C7.4045 11.441 7.10677 11.1433 6.7395 11.1433C6.37224 11.1433 6.0745 11.441 6.0745 11.8083V12.861C6.0745 13.2669 5.74543 13.596 5.3395 13.596H3.40641C3.00048 13.596 2.67141 13.267 2.67141 12.861L2.67136 8.66496H5.21103L4.74018 9.13581C4.48049 9.39551 4.48049 9.81656 4.74018 10.0763C4.99988 10.336 5.42094 10.336 5.68064 10.0763L6.56453 9.19237C7.21475 8.54214 7.21475 7.48792 6.56453 6.8377L5.68064 5.95381C5.42094 5.69411 4.99988 5.69411 4.74018 5.95381C4.48049 6.21351 4.48049 6.63456 4.74018 6.89426L5.18089 7.33496H2.67135L2.67131 3.13909C2.6713 2.73317 3.00036 2.4041 3.40628 2.40408L5.33948 2.40401C5.74542 2.40399 6.0745 2.73306 6.0745 3.13901V4.19182C6.0745 4.55909 6.37224 4.85682 6.7395 4.85682C7.10677 4.85682 7.4045 4.55909 7.4045 4.19182V3.13901C7.4045 1.99851 6.47992 1.07396 5.33942 1.07401Z" fill="black"/>
</svg>
