<svg width="16" height="16" viewBox="0 0 16 16" fill="none" xmlns="http://www.w3.org/2000/svg">
<path d="M9.37076 6.33527C9.37076 6.72187 9.05736 7.03527 8.67076 7.03527C8.28417 7.03527 7.97076 6.72187 7.97076 6.33527C7.97076 5.94868 8.28417 5.63527 8.67076 5.63527C9.05736 5.63527 9.37076 5.94868 9.37076 6.33527Z" fill="black"/>
<path d="M8.006 11.6841C8.006 12.0514 8.30373 12.3491 8.671 12.3491C9.03827 12.3491 9.336 12.0514 9.336 11.6841L9.336 8.20605C9.336 7.83878 9.03827 7.54105 8.671 7.54105C8.30373 7.54105 8.006 7.83878 8.006 8.20605L8.006 11.6841Z" fill="black"/>
<path d="M12.5174 8.91826C12.9849 8.79086 13.4457 9.14283 13.4457 9.62741V11.6843C13.4457 12.0515 13.7434 12.3493 14.1107 12.3493C14.4779 12.3493 14.7757 12.0515 14.7757 11.6843V9.62741C14.7757 8.26598 13.4813 7.27711 12.1677 7.63506L11.8346 7.72584C11.6789 7.76826 11.5308 7.8263 11.3917 7.898C11.2725 7.71917 11.069 7.60137 10.8379 7.60138C10.4706 7.60141 10.1729 7.89916 10.173 8.26643L10.1731 9.72052C10.1678 9.78349 10.1651 9.84707 10.1651 9.91115V10.6843C10.1651 10.7196 10.1679 10.7543 10.1732 10.7881L10.1732 11.6841C10.1733 12.0514 10.471 12.3491 10.8383 12.3491C11.2055 12.3491 11.5033 12.0513 11.5032 11.684L11.5031 9.78888C11.5516 9.41951 11.8173 9.10906 12.1843 9.00905L12.5174 8.91826Z" fill="black"/>
<path fill-rule="evenodd" clip-rule="evenodd" d="M5.84549 8.65869V11.6841C5.84549 12.0514 6.14322 12.3491 6.51049 12.3491C6.87776 12.3491 7.17549 12.0514 7.17549 11.6841V5.62186C7.17549 4.63168 5.78141 4.41822 5.48513 5.36303L4.19982 9.4617L2.91449 5.36302C2.62668 4.44525 1.22412 4.6016 1.22412 5.62008V11.6841C1.22412 12.0514 1.52185 12.3491 1.88912 12.3491C2.25639 12.3491 2.55412 12.0514 2.55412 11.6841V8.65866L3.37445 11.2745C3.62791 12.0828 4.77173 12.0828 5.02519 11.2745L5.84549 8.65869Z" fill="black"/>
</svg>
