<svg width="16" height="16" viewBox="0 0 16 16" fill="none" xmlns="http://www.w3.org/2000/svg">
<path d="M8 3.30078C8.55228 3.30078 9 2.85307 9 2.30078C9 1.7485 8.55228 1.30078 8 1.30078C7.44772 1.30078 7 1.7485 7 2.30078C7 2.85307 7.44772 3.30078 8 3.30078Z" fill="black"/>
<path d="M8 9.00012C8.55228 9.00012 9 8.55241 9 8.00012C9 7.44784 8.55228 7.00012 8 7.00012C7.44772 7.00012 7 7.44784 7 8.00012C7 8.55241 7.44772 9.00012 8 9.00012Z" fill="black"/>
<path d="M9 13.6995C9 14.2517 8.55228 14.6995 8 14.6995C7.44772 14.6995 7 14.2517 7 13.6995C7 13.1472 7.44772 12.6995 8 12.6995C8.55228 12.6995 9 13.1472 9 13.6995Z" fill="black"/>
</svg>
