<svg width="16" height="16" viewBox="0 0 16 16" fill="none" xmlns="http://www.w3.org/2000/svg">
<path fill-rule="evenodd" clip-rule="evenodd" d="M2.85006 1.29907C1.93051 1.29907 1.18506 2.04452 1.18506 2.96407C1.18506 3.88363 1.9305 4.62907 2.85006 4.62907H13.1501C14.0696 4.62907 14.8151 3.88363 14.8151 2.96407C14.8151 2.04452 14.0696 1.29907 13.1501 1.29907H2.85006ZM2.51506 2.96407C2.51506 2.77906 2.66504 2.62907 2.85006 2.62907H13.1501C13.3351 2.62907 13.4851 2.77906 13.4851 2.96407C13.4851 3.14909 13.3351 3.29907 13.1501 3.29907H2.85006C2.66504 3.29907 2.51506 3.14909 2.51506 2.96407Z" fill="black"/>
<path d="M7.99996 5.70457C7.63269 5.70457 7.33496 6.0023 7.33496 6.36957V12.4306L6.47019 11.5659C6.21049 11.3062 5.78943 11.3062 5.52974 11.5659C5.27004 11.8256 5.27004 12.2466 5.52974 12.5063L7.52105 14.4976C7.64193 14.6231 7.81187 14.7012 7.99996 14.7012C8.18803 14.7012 8.35843 14.6226 8.47931 14.4972L10.4702 12.5063C10.7299 12.2466 10.7299 11.8256 10.4702 11.5659C10.2105 11.3062 9.78943 11.3062 9.52973 11.5659L8.66496 12.4306V6.36957C8.66496 6.0023 8.36723 5.70457 7.99996 5.70457Z" fill="black"/>
</svg>
