<svg width="16" height="16" viewBox="0 0 16 16" fill="none" xmlns="http://www.w3.org/2000/svg">
<path fill-rule="evenodd" clip-rule="evenodd" d="M2.85006 14.701C1.93051 14.701 1.18506 13.9556 1.18506 13.036C1.18506 12.1164 1.9305 11.371 2.85006 11.371H13.1501C14.0696 11.371 14.8151 12.1164 14.8151 13.036C14.8151 13.9555 14.0696 14.701 13.1501 14.701H2.85006ZM2.51506 13.036C2.51506 13.221 2.66504 13.371 2.85006 13.371H13.1501C13.3351 13.371 13.4851 13.221 13.4851 13.036C13.4851 12.851 13.3351 12.701 13.1501 12.701H2.85006C2.66504 12.701 2.51506 12.851 2.51506 13.036Z" fill="black"/>
<path d="M7.99996 10.2955C7.63269 10.2955 7.33496 9.99776 7.33496 9.6305V3.56944L6.47019 4.43422C6.21049 4.69392 5.78943 4.69392 5.52974 4.43422C5.27004 4.17452 5.27004 3.75346 5.52974 3.49376L7.52105 1.50245C7.64193 1.377 7.81187 1.29883 7.99996 1.29883C8.18803 1.29883 8.35843 1.37747 8.47931 1.50291L10.4702 3.49376C10.7299 3.75346 10.7299 4.17452 10.4702 4.43422C10.2105 4.69392 9.78943 4.69392 9.52973 4.43422L8.66496 3.56944V9.6305C8.66496 9.99776 8.36723 10.2955 7.99996 10.2955Z" fill="black"/>
</svg>
