<svg width="16" height="16" viewBox="0 0 16 16" fill="none" xmlns="http://www.w3.org/2000/svg">
<g clip-path="url(#clip0_1451_16)">
<path fill-rule="evenodd" clip-rule="evenodd" d="M7.99992 3.3335C7.07943 3.3335 6.33325 4.07967 6.33325 5.00016C6.33325 5.92065 7.07943 6.66683 7.99992 6.66683C8.92041 6.66683 9.66659 5.92065 9.66659 5.00016C9.66659 4.07967 8.92041 3.3335 7.99992 3.3335ZM7.66659 5.00016C7.66659 4.81605 7.81581 4.66683 7.99992 4.66683C8.18403 4.66683 8.33325 4.81605 8.33325 5.00016C8.33325 5.18427 8.18403 5.3335 7.99992 5.3335C7.81581 5.3335 7.66659 5.18427 7.66659 5.00016Z" fill="black"/>
<path fill-rule="evenodd" clip-rule="evenodd" d="M6.33325 11.0002C6.33325 10.0797 7.07943 9.3335 7.99992 9.3335C8.92041 9.3335 9.66659 10.0797 9.66659 11.0002C9.66659 11.9207 8.92041 12.6668 7.99992 12.6668C7.07943 12.6668 6.33325 11.9207 6.33325 11.0002ZM7.99992 10.6668C7.81581 10.6668 7.66659 10.8161 7.66659 11.0002C7.66659 11.1843 7.81581 11.3335 7.99992 11.3335C8.18403 11.3335 8.33325 11.1843 8.33325 11.0002C8.33325 10.8161 8.18403 10.6668 7.99992 10.6668Z" fill="black"/>
<path fill-rule="evenodd" clip-rule="evenodd" d="M4.99992 6.3335C4.07943 6.3335 3.33325 7.07967 3.33325 8.00016C3.33325 8.92065 4.07943 9.66683 4.99992 9.66683C5.92041 9.66683 6.66659 8.92065 6.66659 8.00016C6.66659 7.07967 5.92041 6.3335 4.99992 6.3335ZM4.66659 8.00016C4.66659 7.81605 4.81581 7.66683 4.99992 7.66683C5.18403 7.66683 5.33325 7.81605 5.33325 8.00016C5.33325 8.18427 5.18403 8.3335 4.99992 8.3335C4.81581 8.3335 4.66659 8.18427 4.66659 8.00016Z" fill="black"/>
<path fill-rule="evenodd" clip-rule="evenodd" d="M9.33325 8.00016C9.33325 7.07967 10.0794 6.3335 10.9999 6.3335C11.9204 6.3335 12.6666 7.07967 12.6666 8.00016C12.6666 8.92065 11.9204 9.66683 10.9999 9.66683C10.0794 9.66683 9.33325 8.92065 9.33325 8.00016ZM10.9999 7.66683C10.8158 7.66683 10.6666 7.81605 10.6666 8.00016C10.6666 8.18427 10.8158 8.3335 10.9999 8.3335C11.184 8.3335 11.3333 8.18427 11.3333 8.00016C11.3333 7.81605 11.184 7.66683 10.9999 7.66683Z" fill="black"/>
<path fill-rule="evenodd" clip-rule="evenodd" d="M8 0.83252C4.04151 0.83252 0.83252 4.04151 0.83252 8C0.83252 11.9585 4.04151 15.1675 8 15.1675C8.03257 15.1675 8.06509 15.1673 8.09756 15.1668H14.501C14.8692 15.1668 15.1676 14.8684 15.1676 14.5002C15.1676 14.132 14.8692 13.8335 14.501 13.8335H12.1655C13.9829 12.5334 15.1675 10.405 15.1675 8C15.1675 4.04151 11.9585 0.83252 8 0.83252ZM8.08801 13.8335C11.2695 13.7864 13.8341 11.1927 13.8341 8C13.8341 4.77789 11.2221 2.16585 8 2.16585C4.77789 2.16585 2.16585 4.77789 2.16585 8C2.16585 11.2128 4.76276 13.819 7.97199 13.8341C7.98133 13.8337 7.99072 13.8335 8.00016 13.8335H8.08801Z" fill="black"/>
</g>
<defs>
<clipPath id="clip0_1451_16">
<rect width="16" height="16" fill="white"/>
</clipPath>
</defs>
</svg>
