<svg width="16" height="16" viewBox="0 0 16 16" fill="none" xmlns="http://www.w3.org/2000/svg">
<path d="M7.00012 1.00171C6.26465 1.00171 5.66846 1.59792 5.66846 2.33338V3.33338C5.66846 3.70065 5.96619 3.99838 6.33346 3.99838C6.70073 3.99838 6.99846 3.70065 6.99846 3.33338L7.00012 2.33171H13.6668L13.6685 9.66671L12.3335 9.66838C11.9662 9.66838 11.6685 9.96611 11.6685 10.3334C11.6685 10.7006 11.9662 10.9984 12.3335 10.9984H13.6668C14.4023 10.9984 14.9985 10.4022 14.9985 9.66671V2.33338C14.9985 1.59792 14.4023 1.00171 13.6668 1.00171H7.00012Z" fill="black"/>
<path d="M5.66671 7.66833C5.29944 7.66833 5.00171 7.96607 5.00171 8.33333V9.33508H3.99996C3.63269 9.33508 3.33496 9.63281 3.33496 10.0001C3.33496 10.3674 3.63269 10.6651 3.99996 10.6651H5.00171V11.6667C5.00171 12.0339 5.29944 12.3317 5.66671 12.3317C6.03398 12.3317 6.33171 12.0339 6.33171 11.6667V10.6651H7.33329C7.70056 10.6651 7.99829 10.3674 7.99829 10.0001C7.99829 9.63281 7.70056 9.33508 7.33329 9.33508H6.33171V8.33333C6.33171 7.96607 6.03398 7.66833 5.66671 7.66833Z" fill="black"/>
<path fill-rule="evenodd" clip-rule="evenodd" d="M2.33338 5.33508C1.59792 5.33508 1.00171 5.93129 1.00171 6.66675V13.3334C1.00171 14.0689 1.59792 14.6651 2.33338 14.6651H9.00004C9.7355 14.6651 10.3317 14.0689 10.3317 13.3334V6.66675C10.3317 5.93129 9.7355 5.33508 9.00004 5.33508H2.33338ZM2.33338 6.66508H9.00004L9.00171 13.3334H2.33171L2.33338 6.66508Z" fill="black"/>
</svg>
