<svg width="16" height="16" viewBox="0 0 16 16" fill="none" xmlns="http://www.w3.org/2000/svg">
<path d="M3.9999 3.40015C3.66853 3.40015 3.3999 3.66878 3.3999 4.00015C3.3999 4.33152 3.66853 4.60015 3.9999 4.60015H6.33324C6.66461 4.60015 6.93324 4.33152 6.93324 4.00015C6.93324 3.66878 6.66461 3.40015 6.33324 3.40015H3.9999Z" fill="black"/>
<path d="M3.3999 6.66689C3.3999 6.33552 3.66853 6.06689 3.9999 6.06689H6.66657C6.99794 6.06689 7.26657 6.33552 7.26657 6.66689C7.26657 6.99827 6.99794 7.26689 6.66657 7.26689H3.9999C3.66853 7.26689 3.3999 6.99827 3.3999 6.66689Z" fill="black"/>
<path d="M3.9999 8.7334C3.66853 8.7334 3.3999 9.00203 3.3999 9.3334C3.3999 9.66477 3.66853 9.9334 3.9999 9.9334H6.9999C7.33127 9.9334 7.5999 9.66477 7.5999 9.3334C7.5999 9.00203 7.33127 8.7334 6.9999 8.7334H3.9999Z" fill="black"/>
<path fill-rule="evenodd" clip-rule="evenodd" d="M1.3999 2.3334C1.3999 1.44975 2.11625 0.733398 2.9999 0.733398H7.45045C8.25737 0.733398 8.93801 1.33426 9.0381 2.13494L9.19625 3.40015H13.0001C13.8837 3.40015 14.6001 4.11649 14.6001 5.00015V13.6668C14.6001 14.5505 13.8837 15.2668 13.0001 15.2668H7.99452C7.63568 15.2668 7.35437 15.0707 7.2068 14.8023C7.17661 14.7549 7.15263 14.7024 7.13631 14.6456L6.54819 12.6001H2.9999C2.11625 12.6001 1.3999 11.8837 1.3999 11.0001V2.3334ZM8.40589 6.752C8.40496 6.7454 8.40413 6.73878 8.40341 6.73211L7.84736 2.28378C7.82234 2.08361 7.65218 1.9334 7.45045 1.9334H2.9999C2.77899 1.9334 2.5999 2.11248 2.5999 2.3334V11.0001C2.5999 11.221 2.77899 11.4001 2.9999 11.4001H8.53379C8.77439 11.4001 8.96054 11.1892 8.9307 10.9505L8.40589 6.752ZM7.93227 13.0712L8.34454 12.6001H7.79681L7.93227 13.0712ZM9.67974 7.26689L9.86305 8.7334H11.0001C11.3314 8.7334 11.6001 9.00203 11.6001 9.3334C11.6001 9.66477 11.3314 9.9334 11.0001 9.9334H10.0131L10.2065 11.4807C10.2631 11.9337 10.1235 12.3892 9.82294 12.7328L8.65566 14.0668H13.0001C13.221 14.0668 13.4001 13.8877 13.4001 13.6668V5.00015C13.4001 4.77923 13.221 4.60015 13.0001 4.60015H9.3464L9.52974 6.06689H10.9999C11.3313 6.06689 11.5999 6.33552 11.5999 6.66689C11.5999 6.99827 11.3313 7.26689 10.9999 7.26689H9.67974Z" fill="black"/>
</svg>
