<svg width="16" height="16" viewBox="0 0 16 16" fill="none" xmlns="http://www.w3.org/2000/svg">
<path d="M3.99996 3.33472C3.63269 3.33472 3.33496 3.63245 3.33496 3.99972C3.33496 4.36699 3.63269 4.66472 3.99996 4.66472H6.33329C6.70056 4.66472 6.99829 4.36699 6.99829 3.99972C6.99829 3.63245 6.70056 3.33472 6.33329 3.33472H3.99996Z" fill="black"/>
<path d="M3.99996 6.00146C3.63269 6.00146 3.33496 6.2992 3.33496 6.66646C3.33496 7.03373 3.63269 7.33146 3.99996 7.33146H6.66663C7.0339 7.33146 7.33163 7.03373 7.33163 6.66646C7.33163 6.2992 7.0339 6.00146 6.66663 6.00146H3.99996Z" fill="black"/>
<path d="M3.99996 8.66797C3.63269 8.66797 3.33496 8.9657 3.33496 9.33297C3.33496 9.70024 3.63269 9.99797 3.99996 9.99797H6.99996C7.36723 9.99797 7.66496 9.70024 7.66496 9.33297C7.66496 8.9657 7.36723 8.66797 6.99996 8.66797H3.99996Z" fill="black"/>
<path fill-rule="evenodd" clip-rule="evenodd" d="M2.99996 0.667969C2.08041 0.667969 1.33496 1.41342 1.33496 2.33297V10.9996C1.33496 11.9192 2.08041 12.6646 2.99996 12.6646H6.49931L7.0739 14.6631C7.09176 14.7252 7.11793 14.7828 7.15089 14.835C7.30919 15.1215 7.6109 15.3314 7.99458 15.3314H13.0001C13.9197 15.3314 14.6651 14.5859 14.6651 13.6664V4.99972C14.6651 4.08017 13.9197 3.33472 13.0001 3.33472H9.25369L9.10265 2.12645C8.9985 1.29324 8.29021 0.667969 7.45051 0.667969H2.99996ZM2.66496 2.33297C2.66496 2.14795 2.81495 1.99797 2.99996 1.99797H7.45051C7.61946 1.99797 7.76197 2.12377 7.78293 2.29142L8.3389 6.73921C8.33966 6.74623 8.34062 6.75376 8.3416 6.76071L8.86626 10.9581C8.89125 11.158 8.73535 11.3346 8.53385 11.3346H2.99996C2.81495 11.3346 2.66496 11.1847 2.66496 10.9996V2.33297ZM9.58718 6.00146L9.42008 4.66472H13.0001C13.1851 4.66472 13.3351 4.8147 13.3351 4.99972V13.6664C13.3351 13.8514 13.1851 14.0014 13.0001 14.0014H8.79896L9.87192 12.7751C10.1847 12.4176 10.3299 11.9436 10.271 11.4722L10.0867 9.99797H11.0001C11.3674 9.99797 11.6651 9.70024 11.6651 9.33297C11.6651 8.9657 11.3674 8.66797 11.0001 8.66797H9.92049L9.75343 7.33146H11C11.3672 7.33146 11.665 7.03373 11.665 6.66646C11.665 6.2992 11.3672 6.00146 11 6.00146H9.58718ZM7.96187 12.9383L7.88319 12.6646H8.20135L7.96187 12.9383Z" fill="black"/>
</svg>
