<svg width="16" height="16" viewBox="0 0 16 16" fill="none" xmlns="http://www.w3.org/2000/svg">
<path d="M7.13496 1.33496C6.76769 1.33496 6.46996 1.63269 6.46996 1.99996C6.46996 2.36723 6.76769 2.66496 7.13496 2.66496H7.61499V4.55071C7.61499 4.91798 7.91272 5.21571 8.27999 5.21571C8.64726 5.21571 8.94499 4.91798 8.94499 4.55071V2.66496H9.40496C9.77223 2.66496 10.07 2.36723 10.07 1.99996C10.07 1.63269 9.77223 1.33496 9.40496 1.33496H7.13496Z" fill="black"/>
<path d="M2.66496 7.13496C2.66496 6.76769 2.36723 6.46996 1.99996 6.46996C1.63269 6.46996 1.33496 6.76769 1.33496 7.13496V9.40496C1.33496 9.77223 1.63269 10.07 1.99996 10.07C2.36723 10.07 2.66496 9.77223 2.66496 9.40496V8.93474H4.54998C4.91725 8.93474 5.21498 8.63701 5.21498 8.26974C5.21498 7.90247 4.91725 7.60474 4.54998 7.60474H2.66496V7.13496Z" fill="black"/>
<path d="M15.205 7.13496C15.205 6.76769 14.9072 6.46996 14.54 6.46996C14.1727 6.46996 13.875 6.76769 13.875 7.13496V7.60474H12.01C11.6427 7.60474 11.345 7.90247 11.345 8.26974C11.345 8.63701 11.6427 8.93474 12.01 8.93474H13.875V9.40496C13.875 9.77223 14.1727 10.07 14.54 10.07C14.9072 10.07 15.205 9.77223 15.205 9.40496V8.27495L15.205 8.26974L15.205 8.26452V7.13496Z" fill="black"/>
<path d="M7.13496 13.875C6.76769 13.875 6.46996 14.1727 6.46996 14.54C6.46996 14.9072 6.76769 15.205 7.13496 15.205H8.24807C8.25865 15.2055 8.26929 15.2057 8.27999 15.2057C8.29069 15.2057 8.30133 15.2055 8.31191 15.205H9.40496C9.77223 15.205 10.07 14.9072 10.07 14.54C10.07 14.1727 9.77223 13.875 9.40496 13.875H8.94499V12.0107C8.94499 11.6434 8.64726 11.3457 8.27999 11.3457C7.91272 11.3457 7.61499 11.6434 7.61499 12.0107V13.875H7.13496Z" fill="black"/>
<path d="M2.67497 4.00973C2.67497 3.27243 3.27267 2.67473 4.00997 2.67473H4.33997C4.70724 2.67473 5.00497 2.377 5.00497 2.00973C5.00497 1.64246 4.70724 1.34473 4.33997 1.34473H4.00997C2.53813 1.34473 1.34497 2.53789 1.34497 4.00973V4.33973C1.34497 4.707 1.6427 5.00473 2.00997 5.00473C2.37724 5.00473 2.67497 4.707 2.67497 4.33973V4.00973Z" fill="black"/>
<path d="M12.2 1.34473C11.8327 1.34473 11.535 1.64246 11.535 2.00973C11.535 2.377 11.8327 2.67473 12.2 2.67473H12.53C13.2673 2.67473 13.865 3.27243 13.865 4.00973V4.33973C13.865 4.707 14.1627 5.00473 14.53 5.00473C14.8972 5.00473 15.195 4.707 15.195 4.33973V4.00973C15.195 2.53789 14.0018 1.34473 12.53 1.34473H12.2Z" fill="black"/>
<path d="M2.67497 12.1997C2.67497 11.8325 2.37724 11.5347 2.00997 11.5347C1.6427 11.5347 1.34497 11.8325 1.34497 12.1997V12.5297C1.34497 14.0016 2.53813 15.1947 4.00997 15.1947H4.33997C4.70724 15.1947 5.00497 14.897 5.00497 14.5297C5.00497 14.1625 4.70724 13.8647 4.33997 13.8647H4.00997C3.27267 13.8647 2.67497 13.267 2.67497 12.5297V12.1997Z" fill="black"/>
<path d="M15.195 12.1997C15.195 11.8325 14.8972 11.5347 14.53 11.5347C14.1627 11.5347 13.865 11.8325 13.865 12.1997V12.5297C13.865 13.267 13.2673 13.8647 12.53 13.8647H12.2C11.8327 13.8647 11.535 14.1625 11.535 14.5297C11.535 14.897 11.8327 15.1947 12.2 15.1947H12.53C14.0018 15.1947 15.195 14.0016 15.195 12.5297V12.1997Z" fill="black"/>
</svg>
