<svg width="16" height="16" viewBox="0 0 16 16" fill="none" xmlns="http://www.w3.org/2000/svg">
<path fill-rule="evenodd" clip-rule="evenodd" d="M6.59995 2.17865C7.06949 0.897479 8.88148 0.897482 9.35102 2.17865L11.9429 9.25077C12.0693 9.59561 11.8922 9.97761 11.5473 10.104C11.2025 10.2304 10.8205 10.0533 10.6941 9.70844L9.68782 6.96269H6.2817L6.26324 6.96244L5.25685 9.70844C5.13047 10.0533 4.74847 10.2304 4.40363 10.104C4.05879 9.97761 3.8817 9.59561 4.00808 9.25077L6.59995 2.17865ZM8.10224 2.63632L9.20039 5.63269H6.75058L7.84873 2.63632C7.86338 2.59633 7.88201 2.57917 7.89687 2.56938C7.91541 2.55717 7.94271 2.54777 7.97548 2.54777C8.00826 2.54777 8.03555 2.55717 8.05409 2.56938C8.06896 2.57917 8.08759 2.59634 8.10224 2.63632Z" fill="black"/>
<path d="M1.98971 11.3182C1.62244 11.3182 1.32471 11.6159 1.32471 11.9832C1.32471 12.3504 1.62244 12.6482 1.98971 12.6482H13.0108L12.0852 13.6707C11.8387 13.943 11.8597 14.3636 12.132 14.61C12.4042 14.8565 12.8248 14.8356 13.0712 14.5633L14.3977 13.0979C15.0174 12.4132 14.5316 11.3182 13.6081 11.3182H1.98971Z" fill="black"/>
</svg>
