<svg width="16" height="16" viewBox="0 0 16 16" fill="none" xmlns="http://www.w3.org/2000/svg">
<path fill-rule="evenodd" clip-rule="evenodd" d="M5.33346 1.34033C4.96619 1.34033 4.66846 1.63806 4.66846 2.00533V4.67383H1.99996C1.63269 4.67383 1.33496 4.97156 1.33496 5.33883C1.33496 5.7061 1.63269 6.00383 1.99996 6.00383H4.66846V10.0071H1.99996C1.63269 10.0071 1.33496 10.3048 1.33496 10.6721C1.33496 11.0393 1.63269 11.3371 1.99996 11.3371H4.66846V14.0053C4.66846 14.3726 4.96619 14.6703 5.33346 14.6703C5.70073 14.6703 5.99846 14.3726 5.99846 14.0053V11.3371H10.0017V14.0053C10.0017 14.3726 10.2994 14.6703 10.6667 14.6703C11.034 14.6703 11.3317 14.3726 11.3317 14.0053V11.3371H14C14.3672 11.3371 14.665 11.0393 14.665 10.6721C14.665 10.3048 14.3672 10.0071 14 10.0071H11.3317V6.00383H14C14.3672 6.00383 14.665 5.7061 14.665 5.33883C14.665 4.97156 14.3672 4.67383 14 4.67383H11.3317V2.00533C11.3317 1.63806 11.034 1.34033 10.6667 1.34033C10.2994 1.34033 10.0017 1.63806 10.0017 2.00533V4.67383H5.99846V2.00533C5.99846 1.63806 5.70073 1.34033 5.33346 1.34033ZM5.99846 10.0071V6.00383H10.0017V10.0071H5.99846Z" fill="black"/>
</svg>
