<svg width="17" height="16" viewBox="0 0 17 16" fill="none" xmlns="http://www.w3.org/2000/svg">
<path d="M1.41686 3.96697V2.9942C1.41686 2.9188 1.40574 2.86563 1.38685 2.83387C1.37272 2.81011 1.35164 2.79243 1.30073 2.79243H1.20704C1.00057 2.79243 0.833193 2.62506 0.833193 2.41859C0.833193 2.23956 0.959346 2.09152 1.1259 2.04728C1.20471 2.02634 1.27557 2.00423 1.33863 1.98104C1.4175 1.94986 1.49507 1.91381 1.57134 1.87285C1.6596 1.82544 1.75988 1.79517 1.86523 1.79517C2.17912 1.79517 2.43358 2.04962 2.43358 2.36351V4.02047C2.43358 4.12385 2.51738 4.20765 2.62075 4.20765C2.82361 4.20765 2.98806 4.3721 2.98806 4.57495V4.63332C2.98806 4.86842 2.79748 5.059 2.56239 5.059H1.18105C0.945103 5.059 0.755371 4.86511 0.755371 4.63087C0.755371 4.39932 0.942925 4.20765 1.17618 4.20765C1.3091 4.20765 1.41686 4.09989 1.41686 3.96697Z" fill="black"/>
<path d="M0.711916 9.21437C0.911777 9.02895 1.09447 8.85485 1.25897 8.69309C1.45361 8.50483 1.60465 8.33294 1.71357 8.17735C1.82047 8.02463 1.86713 7.89207 1.86713 7.77769C1.86713 7.65243 1.83514 7.57974 1.7898 7.53852L1.78671 7.53557C1.73862 7.48748 1.67251 7.46001 1.57856 7.46001C1.48207 7.46001 1.40051 7.47335 1.34441 7.51599L1.34254 7.51737C1.185 7.6308 0.956452 7.67074 0.7937 7.50799L0.784076 7.49836C0.63064 7.34493 0.614468 7.07985 0.800395 6.93351C0.890231 6.8628 0.98118 6.80498 1.0733 6.76069C1.25009 6.67245 1.45837 6.63025 1.69499 6.63025C1.91412 6.63025 2.1115 6.67479 2.28466 6.76653C2.45783 6.85502 2.59478 6.98311 2.69393 7.14954C2.79396 7.31745 2.84243 7.51172 2.84243 7.72917C2.84243 7.91091 2.79248 8.0932 2.6965 8.27509C2.60595 8.45271 2.49018 8.62679 2.35079 8.79604C2.2733 8.88829 2.19524 8.97747 2.11663 9.06356C2.1114 9.06929 2.10609 9.0756 2.10112 9.08216C2.10763 9.08189 2.11489 9.08139 2.12296 9.08061C2.22487 9.07075 2.31206 9.06564 2.38388 9.06564H2.54883C2.79136 9.06564 2.98797 9.26225 2.98797 9.50477C2.98797 9.7473 2.79136 9.94391 2.54883 9.94391H0.99693C0.764821 9.94391 0.57666 9.75575 0.57666 9.52364C0.57666 9.40602 0.625997 9.29409 0.711916 9.21437Z" fill="black"/>
<path d="M1.02011 14.674C1.2133 14.7553 1.43707 14.7946 1.68931 14.7946C1.9073 14.7946 2.11062 14.7599 2.2984 14.6895L2.29967 14.689C2.48861 14.6148 2.64365 14.5071 2.76173 14.3647L2.76239 14.3639C2.88388 14.2138 2.94309 14.0326 2.94309 13.8252C2.94309 13.6181 2.8839 13.4411 2.75958 13.3022C2.67817 13.2112 2.58084 13.1388 2.46863 13.0846C2.56832 13.023 2.65026 12.9505 2.71238 12.8661C2.80359 12.7422 2.8483 12.5977 2.8483 12.4365C2.8483 12.1403 2.73815 11.9041 2.51431 11.7404C2.29866 11.5772 2.01433 11.5002 1.67035 11.5002C1.47581 11.5002 1.29184 11.5372 1.11933 11.6115C1.04732 11.6418 0.976468 11.6776 0.906769 11.7188C0.700895 11.8404 0.690241 12.1099 0.828692 12.2774C0.975114 12.4544 1.22249 12.4561 1.4021 12.363C1.47111 12.3286 1.54742 12.3109 1.63243 12.3109C1.72577 12.3109 1.77938 12.3317 1.80912 12.3578C1.83669 12.3821 1.85749 12.4231 1.85749 12.4981C1.85749 12.5709 1.82801 12.6284 1.75887 12.6764C1.72263 12.6999 1.66001 12.7216 1.56245 12.7355C1.37271 12.7625 1.20339 12.9145 1.20339 13.1237C1.20339 13.3319 1.37158 13.4885 1.5671 13.5068C1.64006 13.5136 1.69796 13.5234 1.74206 13.5355C1.84218 13.562 1.89126 13.596 1.91148 13.6246C1.9374 13.6614 1.95229 13.7078 1.95229 13.7684C1.95229 13.8334 1.92804 13.8754 1.87641 13.9064C1.81578 13.9428 1.72741 13.965 1.60399 13.965C1.51121 13.965 1.41691 13.9433 1.32038 13.8981C1.12521 13.7983 0.85067 13.8083 0.705008 14.01L0.698574 14.0189C0.589528 14.1699 0.584068 14.401 0.756885 14.5262C0.836272 14.5836 0.924461 14.633 1.02011 14.674Z" fill="black"/>
<path d="M4.89303 2.76202C4.52576 2.76202 4.22803 3.05975 4.22803 3.42702C4.22803 3.79429 4.52576 4.09202 4.89303 4.09202H14.9116C15.2789 4.09202 15.5766 3.79429 15.5766 3.42702C15.5766 3.05975 15.2789 2.76202 14.9116 2.76202H4.89303Z" fill="black"/>
<path d="M4.22754 8.28707C4.22754 7.9198 4.52527 7.62207 4.89254 7.62207H14.9111C15.2784 7.62207 15.5761 7.9198 15.5761 8.28707C15.5761 8.65434 15.2784 8.95207 14.9111 8.95207H4.89254C4.52527 8.95207 4.22754 8.65434 4.22754 8.28707Z" fill="black"/>
<path d="M4.89303 12.4825C4.52576 12.4825 4.22803 12.7802 4.22803 13.1475C4.22803 13.5148 4.52576 13.8125 4.89303 13.8125H14.9116C15.2789 13.8125 15.5766 13.5148 15.5766 13.1475C15.5766 12.7802 15.2789 12.4825 14.9116 12.4825H4.89303Z" fill="black"/>
</svg>
