<svg width="16" height="16" viewBox="0 0 16 16" fill="none" xmlns="http://www.w3.org/2000/svg">
<path fill-rule="evenodd" clip-rule="evenodd" d="M4.66686 3.33171C3.92956 3.33171 3.33186 3.92941 3.33186 4.66671C3.33186 5.40401 3.92956 6.00171 4.66686 6.00171C5.40416 6.00171 6.00186 5.40401 6.00186 4.66671C6.00186 3.92941 5.40416 3.33171 4.66686 3.33171ZM2.00186 4.66671C2.00186 3.19487 3.19502 2.00171 4.66686 2.00171C6.1387 2.00171 7.33186 3.19487 7.33186 4.66671C7.33186 5.16802 7.19344 5.637 6.95274 6.03752C7.04854 6.09579 7.14892 6.16305 7.25129 6.24046C7.5047 6.43209 7.767 6.6838 8.00019 7.00873C8.23339 6.6838 8.49568 6.43209 8.7491 6.24046C8.85146 6.16305 8.95184 6.09579 9.04764 6.03752C8.80694 5.637 8.66852 5.16802 8.66852 4.66671C8.66852 3.19487 9.86169 2.00171 11.3335 2.00171C12.8054 2.00171 13.9985 3.19487 13.9985 4.66671C13.9985 5.19533 13.8446 5.688 13.5792 6.10236C13.719 6.2053 13.8716 6.33178 14.0269 6.48513C14.5854 7.03649 15.1638 7.92059 15.3269 9.25255C15.3716 9.6171 15.1122 9.94881 14.7477 9.99345C14.3831 10.0381 14.0514 9.77874 14.0068 9.4142C13.8842 8.41283 13.4626 7.79693 13.0925 7.43163C12.9042 7.24574 12.725 7.12089 12.5974 7.04446C12.5879 7.03876 12.5787 7.03335 12.5698 7.02821C12.2003 7.22205 11.7797 7.33171 11.3335 7.33171C10.8746 7.33171 10.4428 7.21571 10.0657 7.01142C10.0477 7.01837 10.0275 7.0265 10.0055 7.03593C9.88911 7.08572 9.72551 7.16956 9.55128 7.3013C9.31538 7.47969 9.05219 7.75086 8.85869 8.16484C9.7216 8.50674 10.3319 9.34879 10.3319 10.3334C10.3319 10.5579 10.3001 10.7751 10.2409 10.9805C10.3164 11.0222 10.395 11.0693 10.4755 11.1226C11.0097 11.476 11.6101 12.0897 11.9626 13.1177C12.0817 13.4651 11.8966 13.8433 11.5492 13.9624C11.2018 14.0815 10.8236 13.8965 10.7045 13.5491C10.4569 12.8271 10.0574 12.4407 9.74153 12.2317C9.66187 12.179 9.58628 12.1368 9.51822 12.1033C9.11031 12.4534 8.57996 12.665 8.00019 12.665C7.42042 12.665 6.89008 12.4534 6.48217 12.1033C6.4141 12.1368 6.33851 12.179 6.25885 12.2317C5.943 12.4407 5.54344 12.8271 5.29591 13.5491C5.1768 13.8965 4.7986 14.0815 4.45118 13.9624C4.10377 13.8433 3.91869 13.4651 4.0378 13.1177C4.39027 12.0897 4.99072 11.476 5.52487 11.1226C5.6054 11.0693 5.684 11.0222 5.75951 10.9805C5.70027 10.7751 5.66853 10.5579 5.66853 10.3334C5.66853 9.34879 6.27879 8.50674 7.14169 8.16484C6.94819 7.75086 6.685 7.47969 6.4491 7.3013C6.27487 7.16956 6.11128 7.08572 5.99489 7.03593C5.97286 7.0265 5.95268 7.01837 5.93464 7.01142C5.55762 7.21571 5.12579 7.33171 4.66686 7.33171C4.22065 7.33171 3.80006 7.22205 3.43056 7.02821C3.42168 7.03335 3.41247 7.03876 3.40297 7.04446C3.27538 7.12089 3.09615 7.24574 2.90785 7.43163C2.53781 7.79693 2.11621 8.41283 1.9936 9.4142C1.94896 9.77875 1.61725 10.0381 1.2527 9.99345C0.888154 9.94881 0.628817 9.6171 0.673455 9.25255C0.836552 7.92059 1.41496 7.03649 1.97348 6.48513C2.12882 6.33178 2.28137 6.2053 2.42122 6.10236C2.15577 5.688 2.00186 5.19533 2.00186 4.66671ZM3.58013 6.95096C3.58013 6.95096 3.58013 6.95096 3.58014 6.95096L3.58013 6.95096ZM5.83695 6.97803C5.83695 6.97803 5.83695 6.97803 5.83696 6.97803L5.83695 6.97803ZM7.20654 10.9446C7.20156 10.9377 7.19645 10.9309 7.19123 10.9242C7.07006 10.7586 6.99853 10.5543 6.99853 10.3334C6.99853 9.78017 7.44699 9.33171 8.00019 9.33171C8.5534 9.33171 9.00186 9.78017 9.00186 10.3334C9.00186 10.5543 8.93033 10.7585 8.80917 10.9242C8.80393 10.9309 8.79882 10.9377 8.79384 10.9446C8.61068 11.1821 8.3233 11.335 8.00019 11.335C7.67708 11.335 7.3897 11.1821 7.20654 10.9446ZM10.1639 6.9779L10.1622 6.97838C10.1641 6.97785 10.1647 6.97769 10.1639 6.9779ZM11.3335 3.33171C10.5962 3.33171 9.99852 3.92941 9.99852 4.66671C9.99852 5.40401 10.5962 6.00171 11.3335 6.00171C12.0708 6.00171 12.6685 5.40401 12.6685 4.66671C12.6685 3.92941 12.0708 3.33171 11.3335 3.33171Z" fill="black"/>
</svg>
