<svg width="16" height="16" viewBox="0 0 16 16" fill="none" xmlns="http://www.w3.org/2000/svg">
<path d="M1.66646 2.66846C1.2992 2.66846 1.00146 2.96619 1.00146 3.33346C1.00146 3.70073 1.2992 3.99846 1.66646 3.99846H2.9998C3.36707 3.99846 3.6648 3.70073 3.6648 3.33346C3.6648 2.96619 3.36707 2.66846 2.9998 2.66846H1.66646Z" fill="black"/>
<path d="M5.66646 2.66846C5.2992 2.66846 5.00146 2.96619 5.00146 3.33346C5.00146 3.70073 5.2992 3.99846 5.66646 3.99846H14.3331C14.7004 3.99846 14.9981 3.70073 14.9981 3.33346C14.9981 2.96619 14.7004 2.66846 14.3331 2.66846H5.66646Z" fill="black"/>
<path d="M4.33309 7.33511C3.96582 7.33511 3.66809 7.63284 3.66809 8.00011C3.66809 8.36738 3.96582 8.66511 4.33309 8.66511H5.66642C6.03369 8.66511 6.33142 8.36738 6.33142 8.00011C6.33142 7.63284 6.03369 7.33511 5.66642 7.33511H4.33309Z" fill="black"/>
<path d="M8.33309 7.33511C7.96582 7.33511 7.66809 7.63284 7.66809 8.00011C7.66809 8.36738 7.96582 8.66511 8.33309 8.66511H14.3331C14.7004 8.66511 14.9981 8.36738 14.9981 8.00011C14.9981 7.63284 14.7004 7.33511 14.3331 7.33511H8.33309Z" fill="black"/>
<path d="M1.66646 12.0018C1.2992 12.0018 1.00146 12.2995 1.00146 12.6668C1.00146 13.0341 1.2992 13.3318 1.66646 13.3318H2.9998C3.36707 13.3318 3.6648 13.0341 3.6648 12.6668C3.6648 12.2995 3.36707 12.0018 2.9998 12.0018H1.66646Z" fill="black"/>
<path d="M5.66646 12.0018C5.2992 12.0018 5.00146 12.2995 5.00146 12.6668C5.00146 13.0341 5.2992 13.3318 5.66646 13.3318H14.3331C14.7004 13.3318 14.9981 13.0341 14.9981 12.6668C14.9981 12.2995 14.7004 12.0018 14.3331 12.0018H5.66646Z" fill="black"/>
</svg>
