<svg width="16" height="16" viewBox="0 0 16 16" fill="none" xmlns="http://www.w3.org/2000/svg">
<path d="M7.9999 0.733154C8.33127 0.733154 8.5999 1.00178 8.5999 1.33315V5.33315C8.5999 5.66453 8.33127 5.93315 7.9999 5.93315C7.66853 5.93315 7.3999 5.66453 7.3999 5.33315V1.33315C7.3999 1.00178 7.66853 0.733154 7.9999 0.733154Z" fill="black"/>
<path d="M2.46621 2.73315C2.79758 2.73315 3.06621 3.00178 3.06621 3.33315V12.6665C3.06621 12.9979 2.79758 13.2665 2.46621 13.2665C2.13484 13.2665 1.86621 12.9979 1.86621 12.6665V3.33315C1.86621 3.00178 2.13484 2.73315 2.46621 2.73315Z" fill="black"/>
<path d="M5.3334 7.3999C5.00203 7.3999 4.7334 7.66853 4.7334 7.9999C4.7334 8.33127 5.00203 8.5999 5.3334 8.5999H12.603L11.9252 9.28591C11.6922 9.52163 11.6945 9.90152 11.9302 10.1344C12.166 10.3673 12.5458 10.3651 12.7788 10.1293L14.4577 8.43018C14.69 8.19509 14.6884 7.81641 14.4542 7.58324L12.7753 5.91184C12.5404 5.67806 12.1605 5.67891 11.9267 5.91375C11.6929 6.14859 11.6938 6.52849 11.9286 6.76228L12.5691 7.3999H5.3334Z" fill="black"/>
<path d="M8.5999 10.6667C8.5999 10.3353 8.33127 10.0667 7.9999 10.0667C7.66853 10.0667 7.3999 10.3353 7.3999 10.6667V14.6667C7.3999 14.998 7.66853 15.2667 7.9999 15.2667C8.33127 15.2667 8.5999 14.998 8.5999 14.6667V10.6667Z" fill="black"/>
</svg>
