<svg width="16" height="16" viewBox="0 0 16 16" fill="none" xmlns="http://www.w3.org/2000/svg">
<path d="M7.99996 0.668457C8.36723 0.668457 8.66496 0.966188 8.66496 1.33346V5.33346C8.66496 5.70073 8.36723 5.99846 7.99996 5.99846C7.63269 5.99846 7.33496 5.70073 7.33496 5.33346V1.33346C7.33496 0.966188 7.63269 0.668457 7.99996 0.668457Z" fill="black"/>
<path d="M2.46627 2.6684C2.83354 2.6684 3.13127 2.96613 3.13127 3.3334V12.6667C3.13127 13.034 2.83354 13.3317 2.46627 13.3317C2.099 13.3317 1.80127 13.034 1.80127 12.6667V3.3334C1.80127 2.96613 2.099 2.6684 2.46627 2.6684Z" fill="black"/>
<path d="M5.33346 7.33514C4.96619 7.33514 4.66846 7.63287 4.66846 8.00014C4.66846 8.36741 4.96619 8.66514 5.33346 8.66514H12.4474L11.879 9.24041C11.6208 9.50166 11.6234 9.9227 11.8846 10.1808C12.1459 10.439 12.5669 10.4365 12.825 10.1752L14.504 8.47604C14.7614 8.21548 14.7597 7.79579 14.5001 7.53736L12.8212 5.86596C12.5609 5.60684 12.1398 5.60779 11.8807 5.86807C11.6216 6.12836 11.6226 6.54941 11.8828 6.80852L12.4118 7.33514H5.33346Z" fill="black"/>
<path d="M8.66496 10.6668C8.66496 10.2995 8.36723 10.0018 7.99996 10.0018C7.63269 10.0018 7.33496 10.2995 7.33496 10.6668V14.6668C7.33496 15.034 7.63269 15.3318 7.99996 15.3318C8.36723 15.3318 8.66496 15.034 8.66496 14.6668V10.6668Z" fill="black"/>
</svg>
