<svg width="16" height="16" viewBox="0 0 16 16" fill="none" xmlns="http://www.w3.org/2000/svg">
<path fill-rule="evenodd" clip-rule="evenodd" d="M2.76168 2.12598C1.84212 2.12598 1.09668 2.87142 1.09668 3.79098V5.48245C1.09668 6.402 1.84213 7.14745 2.76168 7.14745H4.45315C5.3727 7.14745 6.11815 6.402 6.11815 5.48245V3.79098C6.11815 2.87142 5.3727 2.12598 4.45315 2.12598H2.76168ZM2.42668 3.79098C2.42668 3.60596 2.57666 3.45598 2.76168 3.45598H4.45315C4.63816 3.45598 4.78815 3.60596 4.78815 3.79098V5.48245C4.78815 5.66746 4.63816 5.81745 4.45315 5.81745H2.76168C2.57666 5.81745 2.42668 5.66746 2.42668 5.48245V3.79098Z" fill="black"/>
<path d="M8.06551 2.25684C7.69824 2.25684 7.40051 2.55457 7.40051 2.92184C7.40051 3.28911 7.69824 3.58684 8.06551 3.58684H14.2382C14.6055 3.58684 14.9032 3.28911 14.9032 2.92184C14.9032 2.55457 14.6055 2.25684 14.2382 2.25684H8.06551Z" fill="black"/>
<path d="M8.06551 5.68604C7.69824 5.68604 7.40051 5.98377 7.40051 6.35104C7.40051 6.7183 7.69824 7.01604 8.06551 7.01604H14.2382C14.6055 7.01604 14.9032 6.7183 14.9032 6.35104C14.9032 5.98377 14.6055 5.68604 14.2382 5.68604H8.06551Z" fill="black"/>
<path d="M1.89278 9.11523C1.52551 9.11523 1.22778 9.41296 1.22778 9.78023C1.22778 10.1475 1.52551 10.4452 1.89278 10.4452H14.2382C14.6055 10.4452 14.9032 10.1475 14.9032 9.78023C14.9032 9.41296 14.6055 9.11523 14.2382 9.11523H1.89278Z" fill="black"/>
<path d="M1.89278 12.5444C1.52551 12.5444 1.22778 12.8422 1.22778 13.2094C1.22778 13.5767 1.52551 13.8744 1.89278 13.8744H14.2382C14.6055 13.8744 14.9032 13.5767 14.9032 13.2094C14.9032 12.8422 14.6055 12.5444 14.2382 12.5444H1.89278Z" fill="black"/>
</svg>
