<svg width="16" height="16" viewBox="0 0 16 16" fill="none" xmlns="http://www.w3.org/2000/svg">
<path fill-rule="evenodd" clip-rule="evenodd" d="M5.27312 3.16496H4.99996C4.26266 3.16496 3.66496 3.76266 3.66496 4.49996V12.5C3.66496 13.2373 4.26266 13.835 4.99996 13.835H11C11.7373 13.835 12.335 13.2373 12.335 12.5V4.49996C12.335 3.76266 11.7373 3.16496 11 3.16496H10.7269C10.4702 3.75354 9.88315 4.16496 9.20001 4.16496H6.80001C6.11687 4.16496 5.52982 3.75354 5.27312 3.16496ZM10.7269 1.83496H11C12.4718 1.83496 13.665 3.02812 13.665 4.49996V12.5C13.665 13.9718 12.4718 15.165 11 15.165H4.99996C3.52812 15.165 2.33496 13.9718 2.33496 12.5V4.49996C2.33496 3.02812 3.52812 1.83496 4.99996 1.83496H5.27312C5.52982 1.24638 6.11687 0.834961 6.80001 0.834961H9.20001C9.88315 0.834961 10.4702 1.24638 10.7269 1.83496ZM6.46501 2.49996C6.46501 2.31495 6.61499 2.16496 6.80001 2.16496H9.20001C9.38503 2.16496 9.53501 2.31495 9.53501 2.49996C9.53501 2.68498 9.38503 2.83496 9.20001 2.83496H6.80001C6.61499 2.83496 6.46501 2.68498 6.46501 2.49996ZM7.98958 11.8205H6.73434C6.36707 11.8205 6.06934 11.5227 6.06934 11.1555C6.06934 10.7882 6.36707 10.4905 6.73434 10.4905H7.33507V7.98704L7.31018 8.00163C6.9934 8.18747 6.58595 8.08131 6.40011 7.76453C6.21428 7.44775 6.32043 7.04029 6.63722 6.85446L7.36238 6.42905C7.93903 6.09077 8.66507 6.5066 8.66507 7.17515V10.4905H9.26559C9.63286 10.4905 9.93059 10.7882 9.93059 11.1555C9.93059 11.5227 9.63286 11.8205 9.26559 11.8205H8.01056C8.00707 11.8205 8.00357 11.8206 8.00007 11.8206C7.99656 11.8206 7.99307 11.8205 7.98958 11.8205Z" fill="black"/>
</svg>
