<svg width="16" height="16" viewBox="0 0 16 16" fill="none" xmlns="http://www.w3.org/2000/svg">
<path d="M7.32124 1.15771C6.95397 1.15771 6.65624 1.45545 6.65624 1.82271C6.65624 2.18998 6.95397 2.48771 7.32124 2.48771H9.59124C9.9585 2.48771 10.2562 2.18998 10.2562 1.82271C10.2562 1.45545 9.9585 1.15771 9.59124 1.15771H7.32124Z" fill="black"/>
<path d="M2.85124 6.95771C2.85124 6.59044 2.55351 6.29271 2.18624 6.29271C1.81897 6.29271 1.52124 6.59044 1.52124 6.95771V9.22771C1.52124 9.59498 1.81897 9.89271 2.18624 9.89271C2.55351 9.89271 2.85124 9.59498 2.85124 9.22771V6.95771Z" fill="black"/>
<path d="M2.86149 3.83248C2.86149 3.09518 3.45919 2.49748 4.19649 2.49748H4.52649C4.89376 2.49748 5.19149 2.19975 5.19149 1.83248C5.19149 1.46521 4.89376 1.16748 4.52649 1.16748H4.19649C2.72465 1.16748 1.53149 2.36064 1.53149 3.83248V4.16248C1.53149 4.52975 1.82922 4.82748 2.19649 4.82748C2.56376 4.82748 2.86149 4.52975 2.86149 4.16248V3.83248Z" fill="black"/>
<path d="M7.27462 6.24689C6.90735 6.24689 6.60962 6.54462 6.60962 6.91189C6.60962 7.27916 6.90735 7.57689 7.27462 7.57689H11.0746C11.4419 7.57689 11.7396 7.27916 11.7396 6.91189C11.7396 6.54462 11.4419 6.24689 11.0746 6.24689H7.27462Z" fill="black"/>
<path d="M6.60962 9.20827C6.60962 8.841 6.90735 8.54327 7.27462 8.54327H9.27462C9.64189 8.54327 9.93962 8.841 9.93962 9.20827C9.93962 9.57554 9.64189 9.87327 9.27462 9.87327H7.27462C6.90735 9.87327 6.60962 9.57554 6.60962 9.20827Z" fill="black"/>
<path d="M7.27462 10.8397C6.90735 10.8397 6.60962 11.1374 6.60962 11.5047C6.60962 11.8719 6.90735 12.1697 7.27462 12.1697H8.27462C8.64189 12.1697 8.93962 11.8719 8.93962 11.5047C8.93962 11.1374 8.64189 10.8397 8.27462 10.8397H7.27462Z" fill="black"/>
<path fill-rule="evenodd" clip-rule="evenodd" d="M4.14868 6.17696C4.14868 4.70512 5.34184 3.51196 6.81368 3.51196H11.8137C13.2855 3.51196 14.4787 4.70512 14.4787 6.17696V12.177C14.4787 13.6488 13.2855 14.842 11.8137 14.842H6.81368C5.34184 14.842 4.14868 13.6488 4.14868 12.177V6.17696ZM6.81368 4.84196C6.07638 4.84196 5.47868 5.43966 5.47868 6.17696V12.177C5.47868 12.9143 6.07638 13.512 6.81368 13.512H11.8137C12.551 13.512 13.1487 12.9143 13.1487 12.177V6.17696C13.1487 5.43966 12.551 4.84196 11.8137 4.84196H6.81368Z" fill="black"/>
</svg>
