<svg width="16" height="16" viewBox="0 0 16 16" fill="none" xmlns="http://www.w3.org/2000/svg">
<path d="M7.17179 5.98572C5.8693 5.98572 5.21446 7.55819 6.13195 8.48269L6.73126 9.08657L6.13195 9.69044C5.21446 10.6149 5.8693 12.1874 7.17179 12.1874H8.57349C9.11681 12.1874 9.63765 11.9705 10.0204 11.5849C10.2791 11.3242 10.2775 10.9031 10.0168 10.6444C9.75611 10.3857 9.33506 10.3873 9.07635 10.648C8.94334 10.782 8.76232 10.8574 8.57349 10.8574H7.17179C7.1325 10.8574 7.11008 10.8469 7.09503 10.8364C7.07699 10.8237 7.059 10.8027 7.04717 10.7743C7.03534 10.7459 7.03314 10.7184 7.03684 10.6966C7.03993 10.6785 7.04829 10.6552 7.07597 10.6273L7.79063 9.90721C8.24142 9.45297 8.24142 8.72016 7.79063 8.26592L7.07597 7.54581C7.04829 7.51793 7.03993 7.49463 7.03684 7.4765C7.03314 7.45476 7.03534 7.42723 7.04717 7.39882C7.059 7.37041 7.07699 7.34946 7.09503 7.33677C7.11008 7.32619 7.1325 7.31572 7.17179 7.31572H8.57349C8.76232 7.31572 8.94334 7.3911 9.07635 7.52513C9.33506 7.78581 9.75611 7.78741 10.0168 7.5287C10.2775 7.26999 10.2791 6.84894 10.0204 6.58826C9.63765 6.20262 9.11681 5.98572 8.57349 5.98572H7.17179Z" fill="black"/>
<path fill-rule="evenodd" clip-rule="evenodd" d="M11 1.83496H10.7269C10.4702 1.24638 9.88315 0.834961 9.20001 0.834961H6.80001C6.11687 0.834961 5.52982 1.24638 5.27312 1.83496H4.99996C3.52812 1.83496 2.33496 3.02812 2.33496 4.49996V12.5C2.33496 13.9718 3.52812 15.165 4.99996 15.165H11C12.4718 15.165 13.665 13.9718 13.665 12.5V4.49996C13.665 3.02812 12.4718 1.83496 11 1.83496ZM4.99996 3.16496H5.27312C5.52982 3.75354 6.11687 4.16496 6.80001 4.16496H9.20001C9.88315 4.16496 10.4702 3.75354 10.7269 3.16496H11C11.7373 3.16496 12.335 3.76266 12.335 4.49996V12.5C12.335 13.2373 11.7373 13.835 11 13.835H4.99996C4.26266 13.835 3.66496 13.2373 3.66496 12.5V4.49996C3.66496 3.76266 4.26266 3.16496 4.99996 3.16496ZM6.80001 2.16496C6.61499 2.16496 6.46501 2.31495 6.46501 2.49996C6.46501 2.68498 6.61499 2.83496 6.80001 2.83496H9.20001C9.38503 2.83496 9.53501 2.68498 9.53501 2.49996C9.53501 2.31495 9.38503 2.16496 9.20001 2.16496H6.80001Z" fill="black"/>
</svg>
