<svg width="16" height="16" viewBox="0 0 16 16" fill="none" xmlns="http://www.w3.org/2000/svg">
<path d="M6.64989 1.83004C6.64989 1.46277 6.94762 1.16504 7.31489 1.16504H9.58489C9.95216 1.16504 10.2499 1.46277 10.2499 1.83004C10.2499 2.19731 9.95216 2.49504 9.58489 2.49504H7.31489C6.94762 2.49504 6.64989 2.19731 6.64989 1.83004Z" fill="black"/>
<path d="M2.17989 6.30004C2.54716 6.30004 2.84489 6.59777 2.84489 6.96504V9.23503C2.84489 9.6023 2.54716 9.90003 2.17989 9.90003C1.81262 9.90003 1.51489 9.6023 1.51489 9.23503V6.96504C1.51489 6.59777 1.81262 6.30004 2.17989 6.30004Z" fill="black"/>
<path d="M4.1899 2.5048C3.4526 2.5048 2.8549 3.1025 2.8549 3.8398V4.16981C2.8549 4.53707 2.55717 4.83481 2.1899 4.83481C1.82263 4.83481 1.5249 4.53707 1.5249 4.16981V3.8398C1.5249 2.36796 2.71806 1.1748 4.1899 1.1748H4.5199C4.88717 1.1748 5.1849 1.47254 5.1849 1.8398C5.1849 2.20707 4.88717 2.5048 4.5199 2.5048H4.1899Z" fill="black"/>
<path fill-rule="evenodd" clip-rule="evenodd" d="M6.82027 3.50488C5.34843 3.50488 4.15527 4.69804 4.15527 6.16988V12.1699C4.15527 13.6417 5.34843 14.8349 6.82027 14.8349H11.8203C13.2921 14.8349 14.4853 13.6417 14.4853 12.1699V6.16988C14.4853 4.69804 13.2921 3.50488 11.8203 3.50488H6.82027ZM5.48527 6.16988C5.48527 5.43258 6.08297 4.83488 6.82027 4.83488H11.8203C12.5576 4.83488 13.1553 5.43258 13.1553 6.16988V12.1699C13.1553 12.9072 12.5576 13.5049 11.8203 13.5049H6.82027C6.08297 13.5049 5.48527 12.9072 5.48527 12.1699V6.16988Z" fill="black"/>
</svg>
