<svg width="16" height="16" viewBox="0 0 16 16" fill="none" xmlns="http://www.w3.org/2000/svg">
<path fill-rule="evenodd" clip-rule="evenodd" d="M6.99981 6.56766C7.34114 5.6363 8.65839 5.6363 8.99973 6.56766L10.6243 11.0003C10.7506 11.3452 10.5736 11.7272 10.2287 11.8536C9.88387 11.9799 9.50187 11.8028 9.37549 11.458L8.90938 10.1862H7.09015L6.62404 11.458C6.49766 11.8028 6.11566 11.9799 5.77082 11.8536C5.42598 11.7272 5.24888 11.3452 5.37527 11.0003L6.99981 6.56766ZM7.57758 8.8562H8.42195L7.99977 7.70424L7.57758 8.8562Z" fill="black"/>
<path fill-rule="evenodd" clip-rule="evenodd" d="M10.7269 1.83496H11C12.4718 1.83496 13.665 3.02812 13.665 4.49996V12.5C13.665 13.9718 12.4718 15.165 11 15.165H4.99996C3.52812 15.165 2.33496 13.9718 2.33496 12.5V4.49996C2.33496 3.02812 3.52812 1.83496 4.99996 1.83496H5.27312C5.52982 1.24638 6.11687 0.834961 6.80001 0.834961H9.20001C9.88315 0.834961 10.4702 1.24638 10.7269 1.83496ZM5.27312 3.16496H4.99996C4.26266 3.16496 3.66496 3.76266 3.66496 4.49996V12.5C3.66496 13.2373 4.26266 13.835 4.99996 13.835H11C11.7373 13.835 12.335 13.2373 12.335 12.5V4.49996C12.335 3.76266 11.7373 3.16496 11 3.16496H10.7269C10.4702 3.75354 9.88315 4.16496 9.20001 4.16496H6.80001C6.11687 4.16496 5.52982 3.75354 5.27312 3.16496ZM6.46501 2.49996C6.46501 2.31495 6.61499 2.16496 6.80001 2.16496H9.20001C9.38503 2.16496 9.53501 2.31495 9.53501 2.49996C9.53501 2.68498 9.38503 2.83496 9.20001 2.83496H6.80001C6.61499 2.83496 6.46501 2.68498 6.46501 2.49996Z" fill="black"/>
</svg>
