<svg width="17" height="16" viewBox="0 0 17 16" fill="none" xmlns="http://www.w3.org/2000/svg">
<path d="M6.01021 5.92139C5.64295 5.92139 5.34521 6.21912 5.34521 6.58639C5.34521 6.95366 5.64295 7.25139 6.01021 7.25139H11.8087C12.1759 7.25139 12.4737 6.95366 12.4737 6.58639C12.4737 6.21912 12.1759 5.92139 11.8087 5.92139H6.01021Z" fill="black"/>
<path d="M6.34473 9.07589C6.34473 8.70862 6.64246 8.41089 7.00973 8.41089H10.8097C11.177 8.41089 11.4747 8.70862 11.4747 9.07589C11.4747 9.44316 11.177 9.74089 10.8097 9.74089H7.00973C6.64246 9.74089 6.34473 9.44316 6.34473 9.07589Z" fill="black"/>
<path d="M8.00973 10.9004C7.64246 10.9004 7.34473 11.1981 7.34473 11.5654C7.34473 11.9327 7.64246 12.2304 8.00973 12.2304H9.80973C10.177 12.2304 10.4747 11.9327 10.4747 11.5654C10.4747 11.1981 10.177 10.9004 9.80973 10.9004H8.00973Z" fill="black"/>
<path fill-rule="evenodd" clip-rule="evenodd" d="M11.9096 1.83496H11.6363C11.3796 1.24638 10.7926 0.834961 10.1094 0.834961H7.70943C7.02629 0.834961 6.43924 1.24638 6.18254 1.83496H5.90963C4.43779 1.83496 3.24463 3.02812 3.24463 4.49996V12.5C3.24463 13.9718 4.43779 15.165 5.90963 15.165H11.9096C13.3815 15.165 14.5746 13.9718 14.5746 12.5V4.49996C14.5746 3.02812 13.3815 1.83496 11.9096 1.83496ZM5.90963 3.16496H6.18254C6.43924 3.75354 7.02629 4.16496 7.70943 4.16496H10.1094C10.7926 4.16496 11.3796 3.75354 11.6363 3.16496H11.9096C12.6469 3.16496 13.2446 3.76266 13.2446 4.49996V12.5C13.2446 13.2373 12.6469 13.835 11.9096 13.835H5.90963C5.17233 13.835 4.57463 13.2373 4.57463 12.5V4.49996C4.57463 3.76266 5.17233 3.16496 5.90963 3.16496ZM7.70943 2.16496C7.52442 2.16496 7.37443 2.31495 7.37443 2.49996C7.37443 2.68498 7.52442 2.83496 7.70943 2.83496H10.1094C10.2944 2.83496 10.4444 2.68498 10.4444 2.49996C10.4444 2.31495 10.2944 2.16496 10.1094 2.16496H7.70943Z" fill="black"/>
</svg>
