<svg width="16" height="16" viewBox="0 0 16 16" fill="none" xmlns="http://www.w3.org/2000/svg">
<path fill-rule="evenodd" clip-rule="evenodd" d="M4.06731 1.78564C2.80718 1.78564 1.78564 2.80718 1.78564 4.06731C1.78564 5.32744 2.80718 6.34898 4.06731 6.34898C5.32744 6.34898 6.34898 5.32744 6.34898 4.06731C6.34898 2.80718 5.32744 1.78564 4.06731 1.78564ZM3.01564 4.06731C3.01564 3.48649 3.48649 3.01564 4.06731 3.01564C4.64813 3.01564 5.11898 3.48649 5.11898 4.06731C5.11898 4.64813 4.64813 5.11898 4.06731 5.11898C3.48649 5.11898 3.01564 4.64813 3.01564 4.06731Z" fill="black"/>
<path d="M13.5701 2.42964C13.3104 2.16994 12.8893 2.16994 12.6296 2.42964L2.42964 12.6296C2.16994 12.8893 2.16994 13.3104 2.42964 13.5701C2.68934 13.8298 3.11039 13.8298 3.37009 13.5701L13.5701 3.37009C13.8298 3.11039 13.8298 2.68934 13.5701 2.42964Z" fill="black"/>
<path fill-rule="evenodd" clip-rule="evenodd" d="M11.9335 9.65137C10.6734 9.65137 9.65186 10.6729 9.65186 11.933C9.65186 13.1932 10.6734 14.2147 11.9335 14.2147C13.1937 14.2147 14.2152 13.1932 14.2152 11.933C14.2152 10.6729 13.1937 9.65137 11.9335 9.65137ZM10.8819 11.933C10.8819 11.3522 11.3527 10.8814 11.9335 10.8814C12.5143 10.8814 12.9852 11.3522 12.9852 11.933C12.9852 12.5139 12.5143 12.9847 11.9335 12.9847C11.3527 12.9847 10.8819 12.5139 10.8819 11.933Z" fill="black"/>
</svg>
