<svg width="16" height="16" viewBox="0 0 16 16" fill="none" xmlns="http://www.w3.org/2000/svg">
<path fill-rule="evenodd" clip-rule="evenodd" d="M5.44395 1.04504C4.49958 1.04504 3.62573 1.54483 3.14691 2.35882L0.623328 6.64882C0.132719 7.48283 0.132719 8.51725 0.623328 9.35127L3.14691 13.6413C3.62573 14.4553 4.49958 14.955 5.44395 14.955H10.5562C11.5006 14.955 12.3745 14.4552 12.8533 13.6412L15.3767 9.35122C15.8673 8.51723 15.8673 7.48286 15.3767 6.64887L12.8533 2.35887C12.3745 1.54485 11.5006 1.04504 10.5562 1.04504H5.44395ZM4.29327 3.03316C4.53314 2.62541 4.97088 2.37504 5.44395 2.37504H10.5562C11.0293 2.37504 11.467 2.62542 11.7069 3.03319L14.2303 7.32319C14.4761 7.74097 14.4761 8.25912 14.2303 8.6769L11.7069 12.9669C11.467 13.3747 11.0293 13.625 10.5562 13.625H5.44395C4.97088 13.625 4.53314 13.3747 4.29327 12.9669L1.76969 8.67693C1.52393 8.25913 1.52393 7.74095 1.76969 7.32316L4.29327 3.03316ZM8.00029 4.98962C6.33762 4.98962 4.98975 6.3375 4.98975 8.00016C4.98975 9.66283 6.33762 11.0107 8.00029 11.0107C9.66295 11.0107 11.0108 9.66283 11.0108 8.00016C11.0108 6.3375 9.66295 4.98962 8.00029 4.98962ZM6.31975 8.00016C6.31975 7.07204 7.07216 6.31962 8.00029 6.31962C8.92841 6.31962 9.68083 7.07204 9.68083 8.00016C9.68083 8.92829 8.92841 9.6807 8.00029 9.6807C7.07216 9.6807 6.31975 8.92829 6.31975 8.00016Z" fill="black"/>
</svg>
