<svg width="16" height="16" viewBox="0 0 16 16" fill="none" xmlns="http://www.w3.org/2000/svg">
<path fill-rule="evenodd" clip-rule="evenodd" d="M5.24492 1.13525C6.14025 1.13525 6.90105 1.71126 7.17697 2.51291H11.7891C13.5287 2.51291 14.8654 3.80996 14.8653 5.58908C14.8651 7.36797 13.5289 8.66511 11.7891 8.66511H6.63054L6.62246 8.66516H4.21149C3.19562 8.66516 2.46516 9.37739 2.46525 10.4112C2.46535 11.4452 3.19573 12.1574 4.21149 12.1574H8.82355C9.09942 11.3556 9.86027 10.7795 10.7557 10.7795C11.6511 10.7795 12.4119 11.3556 12.6878 12.1574H14.1999C14.5672 12.1574 14.8649 12.4551 14.8649 12.8224C14.8649 13.1897 14.5672 13.4874 14.1999 13.4874H12.6877C12.4118 14.2891 11.651 14.8651 10.7557 14.8651C9.86031 14.8651 9.09949 14.289 8.82359 13.4874H4.21149C2.47169 13.4874 1.13542 12.1902 1.13525 10.4113C1.13509 8.6322 2.4718 7.33516 4.21149 7.33516H6.61454L6.62262 7.33511H11.7891C12.8048 7.33511 13.5352 6.62298 13.5353 5.58894C13.5354 4.55513 12.8049 3.84291 11.7891 3.84291H7.17705C6.9012 4.64468 6.14034 5.2208 5.24492 5.2208C4.3495 5.2208 3.58864 4.64468 3.31279 3.84291H1.80025C1.43298 3.84291 1.13525 3.54518 1.13525 3.17791C1.13525 2.81064 1.43298 2.51291 1.80025 2.51291H3.31287C3.58879 1.71126 4.34959 1.13525 5.24492 1.13525ZM4.53215 3.17803C4.53215 2.78437 4.85127 2.46525 5.24492 2.46525C5.63488 2.46525 5.95169 2.77841 5.95761 3.16696L5.95752 3.17791L5.95761 3.18887C5.95182 3.57752 5.63495 3.8908 5.24492 3.8908C4.85127 3.8908 4.53215 3.57168 4.53215 3.17803ZM10.0429 12.8311C10.0476 13.2207 10.3649 13.5351 10.7557 13.5351C11.1457 13.5351 11.4625 13.2219 11.4683 12.8333C11.4683 12.8297 11.4683 12.826 11.4683 12.8224C11.4683 12.8188 11.4683 12.8151 11.4684 12.8115C11.4626 12.4228 11.1457 12.1095 10.7557 12.1095C10.3649 12.1095 10.0476 12.424 10.0429 12.8136C10.043 12.8165 10.043 12.8194 10.043 12.8224C10.043 12.8253 10.043 12.8282 10.0429 12.8311Z" fill="black"/>
</svg>
