<svg width="16" height="16" viewBox="0 0 16 16" fill="none" xmlns="http://www.w3.org/2000/svg">
<path fill-rule="evenodd" clip-rule="evenodd" d="M2.49996 0.884277C1.58041 0.884277 0.834961 1.62973 0.834961 2.54928V3.74928C0.834961 4.66883 1.58041 5.41428 2.49996 5.41428H3.69996C4.61952 5.41428 5.36496 4.66883 5.36496 3.74928V2.54928C5.36496 1.62972 4.61951 0.884277 3.69996 0.884277H2.49996ZM2.16496 2.54928C2.16496 2.36426 2.31495 2.21428 2.49996 2.21428H3.69996C3.88498 2.21428 4.03496 2.36426 4.03496 2.54928V3.74928C4.03496 3.93429 3.88498 4.08428 3.69996 4.08428L2.49996 4.08428C2.31495 4.08428 2.16496 3.93429 2.16496 3.74928V2.54928Z" fill="black"/>
<path fill-rule="evenodd" clip-rule="evenodd" d="M13.4993 0.98418L8.09933 0.98418C7.17977 0.98418 6.43433 1.72963 6.43433 2.64918V3.64918C6.43433 4.56873 7.17977 5.31418 8.09933 5.31418L13.4993 5.31418C14.4189 5.31418 15.1643 4.56873 15.1643 3.64918V2.64918C15.1643 1.72962 14.4189 0.98418 13.4993 0.98418ZM8.09933 2.31418L13.4993 2.31418C13.6843 2.31418 13.8343 2.46416 13.8343 2.64918V3.64918C13.8343 3.83419 13.6843 3.98418 13.4993 3.98418L8.09933 3.98418C7.91431 3.98418 7.76433 3.83419 7.76433 3.64918V2.64918C7.76433 2.46416 7.91431 2.31418 8.09933 2.31418Z" fill="black"/>
<path fill-rule="evenodd" clip-rule="evenodd" d="M2.60006 6.38584C1.6805 6.38584 0.935059 7.13129 0.935059 8.05084V13.4508C0.935059 14.3704 1.6805 15.1158 2.60006 15.1158H3.60006C4.51961 15.1158 5.26506 14.3704 5.26506 13.4508V8.05084C5.26506 7.13129 4.51961 6.38584 3.60006 6.38584H2.60006ZM2.26506 8.05084C2.26506 7.86583 2.41504 7.71584 2.60006 7.71584H3.60006C3.78507 7.71584 3.93506 7.86582 3.93506 8.05084V13.4508C3.93506 13.6359 3.78507 13.7858 3.60006 13.7858H2.60006C2.41504 13.7858 2.26506 13.6359 2.26506 13.4508V8.05084Z" fill="black"/>
<path d="M14.0885 7.03613C13.7213 7.03613 13.4235 7.33386 13.4235 7.70113V10.3538C13.4235 11.0908 12.8263 11.6884 12.0892 11.6888L9.25225 11.6903L10.213 10.7295C10.4727 10.4698 10.4727 10.0487 10.213 9.78904C9.95332 9.52934 9.53227 9.52934 9.27257 9.78904L7.45954 11.6021C7.04364 12.018 7.04363 12.6923 7.45954 13.1082L9.27257 14.9212C9.53227 15.1809 9.95332 15.1809 10.213 14.9212C10.4727 14.6615 10.4727 14.2405 10.213 13.9808L9.25251 13.0203L12.0899 13.0188C13.5612 13.018 14.7535 11.8251 14.7535 10.3538V7.70113C14.7535 7.33386 14.4558 7.03613 14.0885 7.03613Z" fill="black"/>
</svg>
