<svg width="16" height="16" viewBox="0 0 16 16" fill="none" xmlns="http://www.w3.org/2000/svg">
<g clip-path="url(#clip0_1646_14)">
<path fill-rule="evenodd" clip-rule="evenodd" d="M9.32428 1.31159C8.53476 0.73468 7.46558 0.734679 6.67605 1.31159L1.45 5.13027C0.652459 5.71304 0.324585 6.7495 0.640405 7.68835L2.62285 13.5817C2.93227 14.5015 3.7905 15.1209 4.75656 15.1209H11.2438C12.2098 15.1209 13.0681 14.5015 13.3775 13.5817L15.3599 7.68835C15.6758 6.7495 15.3479 5.71304 14.5503 5.13027L9.32428 1.31159ZM7.45408 2.38737C7.77973 2.14942 8.22061 2.14942 8.54626 2.38737L13.7723 6.20605C14.1014 6.44652 14.2369 6.87449 14.1065 7.26234L12.124 13.1556C11.9962 13.5355 11.642 13.7909 11.2438 13.7909H4.75656C4.35833 13.7909 4.0041 13.5355 3.8763 13.1556L1.89386 7.26234C1.76339 6.87449 1.89894 6.44652 2.22803 6.20605L7.45408 2.38737Z" fill="black"/>
</g>
<defs>
<clipPath id="clip0_1646_14">
<rect width="16" height="16" fill="white"/>
</clipPath>
</defs>
</svg>
