<svg width="16" height="16" viewBox="0 0 16 16" fill="none" xmlns="http://www.w3.org/2000/svg">
<path d="M7.9985 0.884277C7.63123 0.884277 7.3335 1.18201 7.3335 1.54928V8.21594C7.3335 8.58321 7.63123 8.88094 7.9985 8.88094C8.36577 8.88094 8.6635 8.58321 8.6635 8.21594V1.54928C8.6635 1.18201 8.36577 0.884277 7.9985 0.884277Z" fill="black"/>
<path d="M4.77829 2.62714C4.56023 2.33161 4.14389 2.26881 3.84836 2.48687C2.12283 3.76007 1.00146 5.80976 1.00146 8.12124C1.00146 11.9861 4.13458 15.1193 7.99947 15.1193C11.8644 15.1193 14.9975 11.9861 14.9975 8.12124C14.9975 5.81258 13.8788 3.76507 12.1569 2.49154C11.8616 2.27315 11.4452 2.33548 11.2268 2.63077C11.0084 2.92605 11.0708 3.34247 11.366 3.56086C12.7635 4.59439 13.6675 6.25218 13.6675 8.12124C13.6675 11.2516 11.1298 13.7893 7.99947 13.7893C4.86912 13.7893 2.33146 11.2516 2.33146 8.12124C2.33146 6.2499 3.23766 4.59034 4.63802 3.55707C4.93355 3.33902 4.99635 2.92267 4.77829 2.62714Z" fill="black"/>
</svg>
