<svg width="16" height="16" viewBox="0 0 16 16" fill="none" xmlns="http://www.w3.org/2000/svg">
<path d="M4.20045 8.00146C3.83318 8.00146 3.53545 8.2992 3.53545 8.66646C3.53545 9.03373 3.83318 9.33146 4.20045 9.33146H5.20045C5.56772 9.33146 5.86545 9.03373 5.86545 8.66646C5.86545 8.2992 5.56772 8.00146 5.20045 8.00146H4.20045Z" fill="black"/>
<path fill-rule="evenodd" clip-rule="evenodd" d="M13.1947 3.1985C13.1947 2.16834 12.3595 1.33329 11.3294 1.3335L4.66883 1.33483C3.63896 1.33504 2.8042 2.16997 2.8042 3.19983V5.4444C1.96459 5.62614 1.33556 6.37312 1.33555 7.26714L1.33545 12.7997C1.33543 13.8297 2.17042 14.6647 3.20044 14.6647L6.62333 14.6647C6.6376 14.6656 6.65198 14.6661 6.66646 14.6661C6.68095 14.6661 6.69533 14.6656 6.70959 14.6647L11.6236 14.6647C11.6378 14.6656 11.6521 14.6661 11.6665 14.6661C11.6809 14.6661 11.6952 14.6656 11.7094 14.6647L12.7997 14.6647C13.8297 14.6647 14.6647 13.8298 14.6647 12.7997V7.26647C14.6647 6.37195 14.035 5.62465 13.1947 5.4434V3.1985ZM4.66909 2.66483L11.3296 2.6635C11.6252 2.66344 11.8647 2.90298 11.8647 3.1985V5.40154L4.1342 5.40211V3.19983C4.1342 2.9044 4.37366 2.66489 4.66909 2.66483ZM3.20051 6.73218L12.7997 6.73147C13.0951 6.73144 13.3347 6.97098 13.3347 7.26647V12.7997C13.3347 13.0952 13.0952 13.3347 12.7997 13.3347L12.3315 13.3347V12.3344C12.3315 11.4149 11.586 10.6694 10.6665 10.6694H7.66646C6.74691 10.6694 6.00146 11.4149 6.00146 12.3344V13.3347L3.20045 13.3347C2.90497 13.3347 2.66544 13.0952 2.66545 12.7997L2.66555 7.26717C2.66555 6.97172 2.90505 6.7322 3.20051 6.73218ZM7.33146 12.3344C7.33146 12.1494 7.48145 11.9994 7.66646 11.9994H10.6665C10.8515 11.9994 11.0015 12.1494 11.0015 12.3344V13.3347L7.33146 13.3347V12.3344Z" fill="black"/>
</svg>
