<svg width="16" height="16" viewBox="0 0 16 16" fill="none" xmlns="http://www.w3.org/2000/svg">
<path fill-rule="evenodd" clip-rule="evenodd" d="M5.78445 6.8427C5.78873 6.84278 5.79302 6.84282 5.79732 6.84282C5.80162 6.84282 5.80591 6.84278 5.8102 6.8427H10.0179C10.0221 6.84278 10.0264 6.84282 10.0307 6.84282C10.035 6.84282 10.0393 6.84278 10.0436 6.8427H13.5988V7.63733C13.5988 8.0046 13.8966 8.30233 14.2638 8.30233C14.6311 8.30233 14.9288 8.0046 14.9288 7.63733V3.99996C14.9288 2.52811 13.7356 1.33495 12.2638 1.33496L3.56395 1.33505C2.09213 1.33507 0.898989 2.52821 0.898979 4.00003L0.898926 11.6666C0.898916 13.1385 2.09208 14.3316 3.56393 14.3316H8.05425C8.42152 14.3316 8.71925 14.0339 8.71925 13.6666C8.71925 13.2994 8.42152 13.0016 8.05425 13.0016H3.56393C2.82662 13.0016 2.22892 12.4039 2.22893 11.6666L2.22896 6.8427H5.78445ZM6.46232 2.66502L9.36572 2.66499V5.5127H6.46232V2.66502ZM5.13232 5.5127V2.66504L3.56396 2.66505C2.82667 2.66506 2.22898 3.26275 2.22898 4.00004L2.22897 5.5127H5.13232ZM13.5988 5.5127V3.99996C13.5988 3.26266 13.0011 2.66495 12.2638 2.66496L10.6957 2.66498V5.5127H13.5988Z" fill="black"/>
<path fill-rule="evenodd" clip-rule="evenodd" d="M14.1874 10.2333V10.7064C14.776 10.9631 15.1874 11.5501 15.1874 12.2333V12.8999C15.1874 13.8195 14.442 14.5649 13.5224 14.5649H11.5224C10.6029 14.5649 9.85742 13.8195 9.85742 12.8999V12.2333C9.85742 11.5501 10.2688 10.9631 10.8574 10.7064V10.2333C10.8574 9.3137 11.6029 8.56827 12.5224 8.56827C13.442 8.56827 14.1874 9.3137 14.1874 10.2333ZM11.1874 12.2333C11.1874 12.0483 11.3374 11.8983 11.5224 11.8983H13.5224C13.7074 11.8983 13.8574 12.0483 13.8574 12.2333V12.8999C13.8574 13.0849 13.7074 13.2349 13.5224 13.2349H11.5224C11.3374 13.2349 11.1874 13.0849 11.1874 12.8999V12.2333ZM12.8574 10.2333V10.5683H12.1874V10.2333C12.1874 10.0482 12.3374 9.89827 12.5224 9.89827C12.7075 9.89827 12.8574 10.0482 12.8574 10.2333Z" fill="black"/>
</svg>
