<svg width="16" height="16" viewBox="0 0 16 16" fill="none" xmlns="http://www.w3.org/2000/svg">
<path fill-rule="evenodd" clip-rule="evenodd" d="M4.39766 13.8765C6.1851 13.8765 7.6341 12.4275 7.6341 10.64V10.2556C7.6341 8.91197 6.70493 7.78533 5.45407 7.48321L6.56236 3.15497C6.78381 2.29015 5.663 1.74084 5.11514 2.44564L2.31281 6.05068C1.30812 7.34316 0.762695 8.93354 0.762695 10.5706C0.762695 12.3964 2.24279 13.8765 4.06859 13.8765H4.39766ZM6.4341 10.64C6.4341 11.7647 5.52236 12.6765 4.39766 12.6765H4.06859C2.90553 12.6765 1.9627 11.7336 1.9627 10.5706C1.9627 9.20028 2.41925 7.86903 3.26024 6.78714L4.95032 4.61295L4.14021 7.77668C4.0329 8.19575 4.34946 8.60359 4.78206 8.60359C5.69446 8.60358 6.4341 9.34323 6.4341 10.2556V10.64Z" fill="black"/>
<path fill-rule="evenodd" clip-rule="evenodd" d="M12.0009 13.8765C13.7884 13.8765 15.2374 12.4275 15.2374 10.64V10.2556C15.2374 8.91197 14.3082 7.78533 13.0573 7.48321L14.1656 3.15497C14.3871 2.29015 13.2663 1.74084 12.7184 2.44564L9.91609 6.05068C8.91139 7.34316 8.36597 8.93354 8.36597 10.5706C8.36597 12.3964 9.84606 13.8765 11.6719 13.8765H12.0009ZM14.0374 10.64C14.0374 11.7647 13.1256 12.6765 12.0009 12.6765H11.6719C10.5088 12.6765 9.56597 11.7336 9.56597 10.5706C9.56597 9.20028 10.0225 7.86903 10.8635 6.78714L12.5536 4.61295L11.7435 7.77668C11.6362 8.19575 11.9527 8.60359 12.3853 8.60359C13.2977 8.60358 14.0374 9.34323 14.0374 10.2556V10.64Z" fill="black"/>
</svg>
