<svg width="16" height="16" viewBox="0 0 16 16" fill="none" xmlns="http://www.w3.org/2000/svg">
<path fill-rule="evenodd" clip-rule="evenodd" d="M6.62539 3.17099C6.86432 2.23787 5.65501 1.64519 5.06388 2.40565L2.26155 6.01068C1.248 7.31457 0.697754 8.91899 0.697754 10.5705C0.697754 12.4322 2.20695 13.9414 4.06864 13.9414H4.39772C6.22105 13.9414 7.69916 12.4633 7.69916 10.6399V10.2555C7.69916 8.90413 6.78026 7.76751 5.53326 7.43612L6.62539 3.17099ZM3.31162 6.82693L4.80988 4.8995L4.0773 7.76045C3.95947 8.22064 4.30708 8.66848 4.78212 8.66848C5.65862 8.66848 6.36916 9.37903 6.36916 10.2555V10.6399C6.36916 11.7287 5.48652 12.6114 4.39772 12.6114H4.06864C2.94149 12.6114 2.02775 11.6976 2.02775 10.5705C2.02775 9.21462 2.4795 7.89741 3.31162 6.82693Z" fill="black"/>
<path fill-rule="evenodd" clip-rule="evenodd" d="M14.2287 3.17099C14.4676 2.23787 13.2583 1.64519 12.6671 2.40565L9.86482 6.01068C8.85127 7.31457 8.30103 8.91899 8.30103 10.5705C8.30103 12.4322 9.81022 13.9414 11.6719 13.9414H12.001C13.8243 13.9414 15.3024 12.4633 15.3024 10.6399V10.2555C15.3024 8.90413 14.3835 7.76751 13.1365 7.43612L14.2287 3.17099ZM10.9149 6.82693L12.4131 4.8995L11.6806 7.76045C11.5627 8.22064 11.9104 8.66848 12.3854 8.66848C13.2619 8.66848 13.9724 9.37903 13.9724 10.2555V10.6399C13.9724 11.7287 13.0898 12.6114 12.001 12.6114H11.6719C10.5448 12.6114 9.63102 11.6976 9.63102 10.5705C9.63102 9.21462 10.0828 7.89741 10.9149 6.82693Z" fill="black"/>
</svg>
