<svg width="17" height="16" viewBox="0 0 17 16" fill="none" xmlns="http://www.w3.org/2000/svg">
<g clip-path="url(#clip0_1559_19)">
<path d="M7.60309 5.93506C6.46262 5.93506 5.53809 6.85959 5.53809 8.00006C5.53809 9.14053 6.46262 10.0651 7.60309 10.0651C8.74355 10.0651 9.66809 9.14053 9.66809 8.00006C9.66809 6.85959 8.74355 5.93506 7.60309 5.93506Z" fill="black"/>
<path fill-rule="evenodd" clip-rule="evenodd" d="M4.26952 2.62524C2.79765 2.62523 1.60447 3.81842 1.60449 5.29029L1.60459 10.7099C1.60462 12.1817 2.79777 13.3748 4.26959 13.3748H10.9362C12.3191 13.3748 13.456 12.3215 13.5884 10.9733L14.5377 11.5005C15.3142 11.9316 16.2683 11.3701 16.2683 10.4819V5.51814C16.2683 4.62998 15.3142 4.06847 14.5377 4.49961L13.5884 5.02674C13.456 3.67862 12.3191 2.62533 10.9363 2.62532L4.26952 2.62524ZM2.93449 5.29027C2.93448 4.55295 3.53219 3.95524 4.26951 3.95524L10.9362 3.95532C11.6735 3.95533 12.2712 4.55302 12.2712 5.29032V10.7098C12.2712 11.4471 11.6735 12.0448 10.9362 12.0448H4.26959C3.5323 12.0448 2.93461 11.4471 2.93459 10.7098L2.93449 5.29027ZM13.6012 9.45923V6.54086L14.9383 5.79849V10.2016L13.6012 9.45923Z" fill="black"/>
</g>
<defs>
<clipPath id="clip0_1559_19">
<rect width="16" height="16" fill="white" transform="translate(0.936523)"/>
</clipPath>
</defs>
</svg>
