<svg width="16" height="16" viewBox="0 0 16 16" fill="none" xmlns="http://www.w3.org/2000/svg">
<path fill-rule="evenodd" clip-rule="evenodd" d="M3 1C1.89539 1 1 1.89543 1 3V13C1 14.1046 1.89539 15 3 15H15V1H3ZM7.69275 9.68884C7.82471 9.78416 7.98608 9.83183 8.17676 9.83183C8.36743 9.83183 8.52881 9.7805 8.66077 9.67784C8.79272 9.56784 8.85876 9.40651 8.85876 9.19383C8.85876 9.0545 8.86609 8.92618 8.88074 8.80884C8.90271 8.6915 8.94678 8.57417 9.01282 8.45683C9.07874 8.33217 9.17407 8.1965 9.29871 8.04984C9.36938 7.96262 9.4541 7.86714 9.55286 7.76344C9.62854 7.68407 9.71252 7.59987 9.80481 7.51083C10.1201 7.21017 10.3291 6.9315 10.4318 6.67484C10.5417 6.41084 10.6005 6.13217 10.6078 5.83884C10.6151 5.50151 10.5637 5.2045 10.4537 4.94785C10.3511 4.69118 10.2008 4.47484 10.0028 4.29884C9.81213 4.12283 9.58105 3.99451 9.30981 3.91383C9.03845 3.82584 8.74512 3.78551 8.42981 3.79283C8.10706 3.80017 7.80273 3.8515 7.51672 3.94684C7.23804 4.03484 6.99243 4.15584 6.77979 4.30984C6.57446 4.46384 6.40942 4.65083 6.28479 4.87083C6.16748 5.08351 6.10876 5.31818 6.10876 5.57484C6.10876 5.75818 6.15637 5.89751 6.25171 5.99284C6.34705 6.08817 6.50476 6.13951 6.72473 6.14684C6.90076 6.14684 7.07312 6.09917 7.24182 6.00385C7.4104 5.90851 7.49475 5.7655 7.49475 5.57484C7.49475 5.38417 7.58643 5.24484 7.76978 5.15685C7.95312 5.06883 8.16211 5.02118 8.39673 5.01384C8.63147 5.0065 8.83313 5.05783 9.00171 5.16783C9.17041 5.27051 9.25476 5.47217 9.25476 5.77284C9.25476 5.89751 9.24377 6.01117 9.2218 6.11385C9.19971 6.20917 9.16309 6.30817 9.11182 6.41084C9.06042 6.50616 8.98706 6.60884 8.89172 6.71884C8.80371 6.82884 8.69373 6.94984 8.56177 7.08183C8.38574 7.2505 8.23181 7.43384 8.09973 7.63184C7.96777 7.82251 7.85779 8.01685 7.76978 8.21484C7.68176 8.4055 7.61206 8.58884 7.56079 8.76483C7.52759 8.89177 7.50696 9.00417 7.49878 9.10204C7.49609 9.1342 7.49475 9.16481 7.49475 9.19383C7.49475 9.42117 7.56079 9.58617 7.69275 9.68884ZM8.70471 11.9988C8.56543 12.1382 8.3894 12.2078 8.17676 12.2078C7.96411 12.2078 7.78442 12.1382 7.63782 11.9988C7.49841 11.8522 7.42871 11.6725 7.42871 11.4598C7.42871 11.2472 7.49841 11.0712 7.63782 10.9318C7.78442 10.7852 7.96411 10.7118 8.17676 10.7118C8.3894 10.7118 8.56543 10.7852 8.70471 10.9318C8.85144 11.0712 8.9248 11.2472 8.9248 11.4598C8.9248 11.6725 8.85144 11.8522 8.70471 11.9988Z" fill="black"/>
</svg>
