<svg width="16" height="16" viewBox="0 0 16 16" fill="none" xmlns="http://www.w3.org/2000/svg">
<path d="M11.2812 2.77147C11.0024 2.53245 10.9701 2.11264 11.2091 1.83379C11.4482 1.55494 11.868 1.52266 12.1468 1.76168L14.4801 3.76168C14.6207 3.88222 14.7047 4.05596 14.7118 4.24105C14.7189 4.42615 14.6485 4.60582 14.5175 4.73679L12.1843 7.07013C11.9246 7.32983 11.5035 7.32984 11.2438 7.07014C10.9841 6.81045 10.9841 6.38939 11.2438 6.12969L12.4419 4.93157H6.6333C4.44165 4.93157 2.66496 6.70825 2.66496 8.8999C2.66496 11.0916 4.44164 12.8682 6.63329 12.8682H11.9973C12.3646 12.8682 12.6623 13.166 12.6623 13.5332C12.6623 13.9005 12.3646 14.1982 11.9973 14.1982H6.63329C3.70711 14.1982 1.33496 11.8261 1.33496 8.8999C1.33496 5.97372 3.70711 3.60157 6.6333 3.60157H12.2497L11.2812 2.77147Z" fill="black"/>
</svg>
