<svg width="16" height="16" viewBox="0 0 16 16" fill="none" xmlns="http://www.w3.org/2000/svg">
<path d="M1.99996 1.30176C1.63269 1.30176 1.33496 1.59949 1.33496 1.96676C1.33496 2.33403 1.63269 2.63176 1.99996 2.63176H14C14.3672 2.63176 14.665 2.33403 14.665 1.96676C14.665 1.59949 14.3672 1.30176 14 1.30176H1.99996Z" fill="black"/>
<path d="M1.99996 13.3685C1.63269 13.3685 1.33496 13.6663 1.33496 14.0335C1.33496 14.4008 1.63269 14.6985 1.99996 14.6985H14C14.3672 14.6985 14.665 14.4008 14.665 14.0335C14.665 13.6663 14.3672 13.3685 14 13.3685H1.99996Z" fill="black"/>
<path d="M10.5752 5.42468C10.3155 5.16498 9.89449 5.16498 9.63479 5.42468L7.99994 7.05953L6.36509 5.42468C6.10539 5.16498 5.68433 5.16498 5.42463 5.42468C5.16493 5.68438 5.16493 6.10543 5.42463 6.36513L7.05949 7.99998L5.42463 9.63484C5.16493 9.89454 5.16493 10.3156 5.42463 10.5753C5.68433 10.835 6.10539 10.835 6.36509 10.5753L7.99994 8.94044L9.63479 10.5753C9.89449 10.835 10.3155 10.835 10.5752 10.5753C10.8349 10.3156 10.8349 9.89454 10.5752 9.63484L8.94039 7.99998L10.5752 6.36513C10.8349 6.10543 10.8349 5.68438 10.5752 5.42468Z" fill="black"/>
</svg>
