<svg width="16" height="16" viewBox="0 0 16 16" fill="none" xmlns="http://www.w3.org/2000/svg">
<path fill-rule="evenodd" clip-rule="evenodd" d="M6.33313 1.32666C5.11214 1.32666 4.00146 2.23352 4.00146 3.49372V6.49782C4.00146 7.75801 5.11214 8.66488 6.33313 8.66488C7.55413 8.66488 8.6648 7.75801 8.6648 6.49782V3.49372C8.6648 2.23352 7.55412 1.32666 6.33313 1.32666ZM5.33146 3.49372C5.33146 3.09479 5.71319 2.65666 6.33313 2.65666C6.95307 2.65666 7.3348 3.09479 7.3348 3.49372V6.49782C7.3348 6.89675 6.95307 7.33488 6.33313 7.33488C5.71319 7.33488 5.33146 6.89675 5.33146 6.49782V3.49372Z" fill="black"/>
<path d="M7.86331 9.49604C8.12301 9.23634 8.54406 9.23634 8.80376 9.49604C9.06346 9.75574 9.06346 10.1768 8.80376 10.4365L7.93899 11.3013H14C14.3673 11.3013 14.665 11.599 14.665 11.9663C14.665 12.3335 14.3673 12.6313 14 12.6313H7.93899L8.80376 13.496C9.06346 13.7557 9.06346 14.1768 8.80376 14.4365C8.54406 14.6962 8.12301 14.6962 7.86331 14.4365L5.872 12.4452C5.74647 12.3242 5.66837 12.1544 5.66837 11.9663C5.66837 11.7782 5.74648 11.6083 5.87203 11.4873L7.86331 9.49604Z" fill="black"/>
<path d="M1.33496 8.30015C1.33496 7.93289 1.63269 7.63515 1.99996 7.63515H2.33329C2.70056 7.63515 2.99829 7.93289 2.99829 8.30015C2.99829 8.66742 2.70056 8.96515 2.33329 8.96515H1.99996C1.63269 8.96515 1.33496 8.66742 1.33496 8.30015Z" fill="black"/>
</svg>
