<svg width="16" height="16" viewBox="0 0 16 16" fill="none" xmlns="http://www.w3.org/2000/svg">
<path fill-rule="evenodd" clip-rule="evenodd" d="M4.22536 1.76245C3.32694 1.8261 2.65023 2.60601 2.71388 3.50443C2.76081 4.16675 3.197 4.70858 3.78298 4.92211L3.86932 5.72939C3.32504 5.98533 2.94824 6.53861 2.94824 7.17988C2.94824 7.60494 3.11378 7.99133 3.38391 8.27811L3.06889 8.73642C2.9299 8.69958 2.7839 8.67994 2.63331 8.67994C1.69701 8.67994 0.937988 9.43897 0.937988 10.3753C0.937988 11.3116 1.69701 12.0706 2.63331 12.0706C3.56962 12.0706 4.32864 11.3116 4.32864 10.3753C4.32864 10.0276 4.22401 9.70445 4.04453 9.43547L4.49444 8.78092C4.51296 8.78156 4.53156 8.78188 4.55023 8.78188C5.01274 8.78188 5.42946 8.58588 5.72188 8.27242L6.83246 8.5862C6.85289 9.62311 7.59276 10.4836 8.57348 10.6892L8.67095 11.6613C8.1275 11.9777 7.76221 12.5666 7.76221 13.2408C7.76221 14.2495 8.57993 15.0672 9.58864 15.0672C10.5974 15.0672 11.4151 14.2495 11.4151 13.2408C11.4151 12.3222 10.737 11.562 9.85413 11.4335L9.77116 10.606C10.1041 10.4857 10.3997 10.2871 10.6356 10.0325L11.7255 10.5479C11.7146 10.625 11.709 10.7039 11.709 10.784C11.709 11.7098 12.4595 12.4603 13.3853 12.4603C14.3111 12.4603 15.0616 11.7098 15.0616 10.784C15.0616 9.85818 14.3111 9.10768 13.3853 9.10768C12.9764 9.10768 12.6017 9.25407 12.3108 9.49729L11.1793 8.96222C11.2057 8.82626 11.2195 8.68581 11.2195 8.54214C11.2195 7.98627 11.0128 7.47868 10.672 7.09208L11.1225 6.38444C11.3639 6.44574 11.621 6.46161 11.8828 6.42369C12.9504 6.26901 13.6905 5.27817 13.5358 4.21057C13.3811 3.14298 12.3903 2.40292 11.3227 2.55759C10.2551 2.71227 9.51504 3.70311 9.66971 4.7707C9.7238 5.14403 9.88014 5.47731 10.1063 5.74628L9.66304 6.44239C9.46136 6.38127 9.24741 6.3484 9.02577 6.3484C8.22204 6.3484 7.51926 6.78063 7.1372 7.42532L6.15189 7.14694C6.138 6.45813 5.68936 5.87603 5.06915 5.6638L4.98609 4.88728C5.60512 4.62059 6.01767 3.9843 5.96734 3.27393C5.90369 2.37551 5.12378 1.6988 4.22536 1.76245ZM3.91088 3.41962C3.89407 3.18229 4.07283 2.97626 4.31017 2.95945C4.5475 2.94263 4.75353 3.1214 4.77034 3.35873C4.78716 3.59606 4.60839 3.80209 4.37106 3.8189C4.13372 3.83572 3.9277 3.65695 3.91088 3.41962ZM4.55023 6.77789C4.32822 6.77789 4.14824 6.95787 4.14824 7.17988C4.14824 7.4019 4.32822 7.58188 4.55023 7.58188C4.77225 7.58188 4.95223 7.4019 4.95223 7.17988C4.95223 6.95787 4.77225 6.77789 4.55023 6.77789ZM8.03203 8.54214C8.03203 7.99331 8.47694 7.5484 9.02577 7.5484C9.5746 7.5484 10.0195 7.99331 10.0195 8.54214C10.0195 9.09097 9.5746 9.53588 9.02577 9.53588C8.47694 9.53588 8.03203 9.09097 8.03203 8.54214ZM2.63331 9.87994C2.35975 9.87994 2.13799 10.1017 2.13799 10.3753C2.13799 10.6488 2.35975 10.8706 2.63331 10.8706C2.90687 10.8706 3.12864 10.6488 3.12864 10.3753C3.12864 10.1017 2.90687 9.87994 2.63331 9.87994ZM10.8573 4.59864C10.7977 4.18694 11.0831 3.80484 11.4948 3.74519C11.9065 3.68555 12.2886 3.97094 12.3482 4.38264C12.4079 4.79434 12.1225 5.17644 11.7108 5.23608C11.2991 5.29573 10.917 5.01034 10.8573 4.59864ZM13.3853 10.3077C13.1222 10.3077 12.909 10.5209 12.909 10.784C12.909 11.047 13.1222 11.2603 13.3853 11.2603C13.6483 11.2603 13.8616 11.047 13.8616 10.784C13.8616 10.5209 13.6483 10.3077 13.3853 10.3077ZM8.96221 13.2408C8.96221 12.8948 9.24267 12.6143 9.58864 12.6143C9.93461 12.6143 10.2151 12.8948 10.2151 13.2408C10.2151 13.5867 9.93461 13.8672 9.58864 13.8672C9.24267 13.8672 8.96221 13.5867 8.96221 13.2408Z" fill="black"/>
</svg>
