<svg width="16" height="16" viewBox="0 0 16 16" fill="none" xmlns="http://www.w3.org/2000/svg">
<g clip-path="url(#clip0_1997_112)">
<path fill-rule="evenodd" clip-rule="evenodd" d="M11.0747 0.735476C10.0085 0.934851 9.30579 1.96079 9.50517 3.02697C9.57418 3.39601 9.74222 3.7215 9.97668 3.98111L9.29839 5.01049C8.99668 4.88865 8.66698 4.82158 8.32162 4.82158C7.77969 4.82158 7.27634 4.98674 6.85915 5.26947L5.85917 4.17327C6.02533 3.90491 6.12065 3.58819 6.11915 3.2493C6.1149 2.28671 5.33112 1.50982 4.36853 1.51407C3.40594 1.51832 2.62906 2.3021 2.63331 3.26469C2.63756 4.22728 3.42134 5.00417 4.38393 4.99992C4.56828 4.9991 4.74581 4.9697 4.91235 4.91592L6.04383 6.15628C5.83275 6.53245 5.71216 6.96622 5.71155 7.42811L3.73256 8.31289C3.35203 7.90148 2.78259 7.67738 2.18572 7.76199C1.21919 7.89899 0.54673 8.79358 0.683732 9.7601C0.820733 10.7266 1.71532 11.3991 2.68185 11.2621C3.59652 11.1324 4.24783 10.3243 4.19898 9.41883L5.99502 8.61585C6.3098 9.23306 6.86296 9.7084 7.53315 9.92052L7.42549 11.7128C6.76942 11.9229 6.25942 12.4954 6.16403 13.2237C6.03235 14.2292 6.74071 15.1511 7.7462 15.2828C8.7517 15.4145 9.67356 14.7061 9.80525 13.7006C9.91852 12.8357 9.41024 12.0327 8.62594 11.7412L8.72994 10.01C9.41782 9.90191 10.0165 9.52516 10.4152 8.99052L11.9658 9.61128C11.9627 9.67727 11.9635 9.74414 11.9684 9.81166C12.035 10.7398 12.8414 11.4382 13.7695 11.3716C14.6976 11.305 15.396 10.4986 15.3294 9.57047C15.2628 8.64234 14.4564 7.94395 13.5283 8.01055C13.1018 8.04116 12.7238 8.22798 12.4463 8.51105L10.8918 7.88872C10.918 7.74031 10.9317 7.58758 10.9317 7.43165C10.9317 6.76925 10.6849 6.16448 10.2783 5.70425L11.0158 4.58504C11.2654 4.63975 11.5297 4.64637 11.7967 4.59646C12.8628 4.39708 13.5655 3.37114 13.3661 2.30496C13.1668 1.23878 12.1408 0.5361 11.0747 0.735476ZM10.6847 2.80639C10.6072 2.39166 10.8805 1.99258 11.2952 1.91503C11.71 1.83747 12.109 2.11081 12.1866 2.52554C12.2641 2.94027 11.9908 3.33935 11.5761 3.4169C11.1614 3.49446 10.7623 3.22112 10.6847 2.80639ZM4.37383 2.71406C4.07398 2.71538 3.83197 2.95954 3.8333 3.25939C3.83462 3.55925 4.07878 3.80125 4.37863 3.79993C4.67848 3.7986 4.92049 3.55445 4.91917 3.2546C4.91784 2.95474 4.67369 2.71274 4.37383 2.71406ZM6.91155 7.43165C6.91155 6.65289 7.54286 6.02157 8.32162 6.02157C9.10039 6.02157 9.7317 6.65289 9.7317 7.43165C9.7317 8.21042 9.10039 8.84173 8.32162 8.84173C7.54286 8.84173 6.91155 8.21042 6.91155 7.43165ZM2.35413 8.95011C2.04379 8.9941 1.82787 9.28135 1.87186 9.59169C1.91585 9.90204 2.20309 10.118 2.51344 10.074C2.82378 10.03 3.0397 9.74273 2.99571 9.43239C2.95172 9.12204 2.66448 8.90612 2.35413 8.95011ZM13.6142 9.20747C13.3471 9.22664 13.1461 9.45869 13.1653 9.72577C13.1845 9.99285 13.4165 10.1938 13.6836 10.1747C13.9507 10.1555 14.1516 9.92344 14.1325 9.65636C14.1133 9.38928 13.8813 9.1883 13.6142 9.20747ZM7.35387 13.3796C7.39949 13.0312 7.71888 12.7858 8.06725 12.8314C8.41561 12.877 8.66103 13.1964 8.61541 13.5448C8.56978 13.8931 8.25039 14.1386 7.90203 14.0929C7.55367 14.0473 7.30825 13.7279 7.35387 13.3796Z" fill="black"/>
</g>
<defs>
<clipPath id="clip0_1997_112">
<rect width="16" height="16" fill="white"/>
</clipPath>
</defs>
</svg>
