<svg width="16" height="16" viewBox="0 0 16 16" fill="none" xmlns="http://www.w3.org/2000/svg">
<g clip-path="url(#clip0_1383_22)">
<path fill-rule="evenodd" clip-rule="evenodd" d="M7.99993 0.9375C5.08218 0.9375 2.76826 3.20672 2.76826 6.06463V11.7741H1.63326C1.26599 11.7741 0.968262 12.0718 0.968262 12.4391C0.968262 12.8064 1.26599 13.1041 1.63326 13.1041H5.69304C5.86006 14.2216 6.83989 15.0621 7.99964 15.0621C9.15938 15.0621 10.1392 14.2216 10.3062 13.1041H14.3666C14.7339 13.1041 15.0316 12.8064 15.0316 12.4391C15.0316 12.0718 14.7339 11.7741 14.3666 11.7741H13.2316V6.06463C13.2316 3.20672 10.9177 0.9375 7.99993 0.9375ZM4.09826 6.06463C4.09826 3.99308 5.76374 2.2675 7.99993 2.2675C10.2361 2.2675 11.9016 3.99308 11.9016 6.06463V11.7741H9.681L9.6663 11.7739H6.33297L6.31823 11.7741H4.09826V6.06463ZM7.99964 13.7321C7.56209 13.7321 7.20229 13.4657 7.06165 13.1041H8.93762C8.79698 13.4657 8.43719 13.7321 7.99964 13.7321Z" fill="black"/>
</g>
<defs>
<clipPath id="clip0_1383_22">
<rect width="16" height="16" fill="white"/>
</clipPath>
</defs>
</svg>
