<svg width="16" height="16" viewBox="0 0 16 16" fill="none" xmlns="http://www.w3.org/2000/svg">
<path d="M7.28009 1.30762L3.80122 1.30763C2.32938 1.30763 1.13622 2.50081 1.13623 3.97265L1.13628 12.3001C1.13629 13.772 2.32946 14.9651 3.80129 14.9651H12.1287C13.6005 14.9651 14.7937 13.7719 14.7937 12.3001V8.82122C14.7937 8.45395 14.496 8.15622 14.1287 8.15622C13.7614 8.15622 13.4637 8.45395 13.4637 8.82122V12.3001C13.4637 13.0374 12.866 13.6351 12.1287 13.6351H3.80129C3.06399 13.6351 2.46629 13.0374 2.46628 12.3001L2.46623 3.97264C2.46623 3.23534 3.06393 2.63763 3.80123 2.63763L7.28009 2.63762C7.64736 2.63762 7.94509 2.33988 7.94509 1.97262C7.94509 1.60535 7.64736 1.30762 7.28009 1.30762Z" fill="black"/>
<path fill-rule="evenodd" clip-rule="evenodd" d="M14.0537 2.04961C13.1208 1.11627 11.6077 1.11665 10.6752 2.05045L6.13204 6.60013C6.05087 6.68142 5.98824 6.77931 5.94846 6.88709L4.53774 10.709C4.44792 10.9524 4.5078 11.2257 4.69113 11.4093C4.87446 11.5928 5.14777 11.6529 5.39122 11.5634L9.22536 10.1527C9.33369 10.1128 9.43207 10.0499 9.51366 9.96825L14.0538 5.42572C14.9858 4.49328 14.9857 2.98201 14.0537 2.04961ZM11.6163 2.99023C12.0294 2.57654 12.6998 2.57638 13.1131 2.98985C13.526 3.40292 13.526 4.07243 13.1131 4.48552L8.65595 8.94501L6.2845 9.81754L7.15572 7.45724L11.6163 2.99023Z" fill="black"/>
</svg>
