<svg width="16" height="16" viewBox="0 0 16 16" fill="none" xmlns="http://www.w3.org/2000/svg">
<g clip-path="url(#clip0_910_206)">
<path d="M8.00034 4.24939C6.31999 4.24939 4.8994 5.35398 4.42167 6.87495C4.31162 7.22534 4.50645 7.59861 4.85684 7.70866C5.20723 7.81872 5.5805 7.62389 5.69055 7.2735C5.99918 6.29091 6.91752 5.57939 8.00034 5.57939C9.08315 5.57939 10.0015 6.29091 10.3101 7.2735C10.4085 7.58675 10.7208 7.78131 11.0454 7.73154C11.3699 7.68177 11.6096 7.40257 11.6096 7.07422V5.22294C11.6096 4.85567 11.3118 4.55794 10.9446 4.55794C10.6404 4.55794 10.3841 4.76204 10.3048 5.04077C9.66919 4.54495 8.86941 4.24939 8.00034 4.24939Z" fill="black"/>
<path d="M11.1438 8.29118C10.7934 8.18112 10.4202 8.37596 10.3101 8.72635C10.0015 9.70893 9.08315 10.4205 8.00034 10.4205C6.91752 10.4205 5.99918 9.70893 5.69055 8.72635C5.59216 8.41309 5.27986 8.21853 4.95531 8.2683C4.63076 8.31808 4.39111 8.59727 4.39111 8.92562V10.7769C4.39111 11.1442 4.68884 11.4419 5.05611 11.4419C5.36023 11.4419 5.61661 11.2378 5.69584 10.9591C6.33149 11.4549 7.13126 11.7505 8.00034 11.7505C9.68068 11.7505 11.1013 10.6459 11.579 9.12489C11.6891 8.7745 11.4942 8.40123 11.1438 8.29118Z" fill="black"/>
<path fill-rule="evenodd" clip-rule="evenodd" d="M7.99996 0.834961C4.04284 0.834961 0.834961 4.04284 0.834961 7.99996C0.834961 11.9571 4.04284 15.165 7.99996 15.165C11.9571 15.165 15.165 11.9571 15.165 7.99996C15.165 4.04284 11.9571 0.834961 7.99996 0.834961ZM2.16496 7.99996C2.16496 4.77738 4.77738 2.16496 7.99996 2.16496C11.2225 2.16496 13.835 4.77738 13.835 7.99996C13.835 11.2225 11.2225 13.835 7.99996 13.835C4.77738 13.835 2.16496 11.2225 2.16496 7.99996Z" fill="black"/>
</g>
<defs>
<clipPath id="clip0_910_206">
<rect width="16" height="16" fill="white"/>
</clipPath>
</defs>
</svg>
