<svg width="16" height="16" viewBox="0 0 16 16" fill="none" xmlns="http://www.w3.org/2000/svg">
<path d="M6.41012 5.46596C6.04285 5.46596 5.74512 5.76369 5.74512 6.13096C5.74512 6.49823 6.04285 6.79596 6.41012 6.79596H6.76809C7.13536 6.79596 7.43309 6.49823 7.43309 6.13096C7.43309 5.76369 7.13536 5.46596 6.76809 5.46596H6.41012Z" fill="black"/>
<path d="M8.25122 6.13096C8.25122 5.76369 8.54895 5.46596 8.91622 5.46596H9.2742C9.64147 5.46596 9.9392 5.76369 9.9392 6.13096C9.9392 6.49823 9.64147 6.79596 9.2742 6.79596H8.91622C8.54895 6.79596 8.25122 6.49823 8.25122 6.13096Z" fill="black"/>
<path d="M3.9045 5.46596C3.53723 5.46596 3.2395 5.76369 3.2395 6.13096C3.2395 6.49823 3.53723 6.79596 3.9045 6.79596H4.26248C4.62975 6.79596 4.92748 6.49823 4.92748 6.13096C4.92748 5.76369 4.62975 5.46596 4.26248 5.46596H3.9045Z" fill="black"/>
<path fill-rule="evenodd" clip-rule="evenodd" d="M0.175293 3.73531C0.175293 2.26348 1.36845 1.07031 2.84029 1.07031H10.2955C11.7673 1.07031 12.9605 2.26347 12.9605 3.73531V6.79774H14.1595C15.0791 6.79774 15.8245 7.54319 15.8245 8.46274V12.1903C15.8245 13.1099 15.0791 13.8553 14.1595 13.8553H13.6451L12.766 14.7345C12.6413 14.8592 12.4721 14.9293 12.2957 14.9293C12.1194 14.9293 11.9502 14.8592 11.8255 14.7345L10.9464 13.8553H8.48409C7.56454 13.8553 6.81909 13.1099 6.81909 12.1903V10.9917H5.87682L4.63969 12.2288C4.50467 12.3639 4.31813 12.4343 4.12757 12.4223C3.937 12.4103 3.7608 12.3169 3.64384 12.166L2.73211 10.9896C1.31043 10.9328 0.175293 9.76232 0.175293 8.32672V3.73531ZM12.9605 8.32672V8.12774H14.1595C14.3446 8.12774 14.4945 8.27773 14.4945 8.46274V12.1903C14.4945 12.3754 14.3446 12.5253 14.1595 12.5253H13.3697C13.1933 12.5253 13.0242 12.5954 12.8994 12.7201L12.2957 13.3238L11.692 12.7201C11.5673 12.5954 11.3982 12.5253 11.2218 12.5253H8.48409C8.29908 12.5253 8.14909 12.3754 8.14909 12.1903V10.9917H10.2955C11.7673 10.9917 12.9605 9.79855 12.9605 8.32672ZM10.2955 9.66172H7.49931L7.48409 9.66155L7.46887 9.66172H5.60136C5.42499 9.66172 5.25585 9.73178 5.13114 9.85649L4.23283 10.7548L3.58537 9.91936C3.45941 9.75683 3.26536 9.66172 3.05974 9.66172H2.84029C2.10299 9.66172 1.50529 9.06402 1.50529 8.32672V3.73531C1.50529 2.99801 2.10299 2.40031 2.84029 2.40031H10.2955C11.0328 2.40031 11.6305 2.99801 11.6305 3.73531V8.32672C11.6305 9.06402 11.0328 9.66172 10.2955 9.66172Z" fill="black"/>
</svg>
