<svg width="17" height="16" viewBox="0 0 17 16" fill="none" xmlns="http://www.w3.org/2000/svg">
<path fill-rule="evenodd" clip-rule="evenodd" d="M8.06958 15C11.9356 15 15.0696 11.866 15.0696 8C15.0696 4.13401 11.9356 1 8.06958 1C4.20359 1 1.06958 4.13401 1.06958 8C1.06958 11.866 4.20359 15 8.06958 15ZM11.794 6.42417C12.0284 6.18985 12.0284 5.80995 11.794 5.57564C11.5597 5.34132 11.1798 5.34132 10.9455 5.57564L7.36978 9.15137L5.79404 7.57564C5.55972 7.34132 5.17983 7.34132 4.94551 7.57564C4.7112 7.80995 4.7112 8.18985 4.94551 8.42417L6.94551 10.4242C7.17983 10.6585 7.55972 10.6585 7.79404 10.4242L11.794 6.42417Z" fill="black"/>
</svg>
