<svg width="16" height="16" viewBox="0 0 16 16" fill="none" xmlns="http://www.w3.org/2000/svg">
<g clip-path="url(#clip0_1247_2)">
<path d="M7.45854 6.35127C7.19884 6.09157 6.77779 6.09157 6.51809 6.35127L4.85142 8.01793C4.59172 8.27763 4.59172 8.69869 4.85142 8.95839L6.51809 10.6251C6.77779 10.8848 7.19884 10.8848 7.45854 10.6251C7.71824 10.3654 7.71824 9.9443 7.45854 9.6846L6.9271 9.15316H9.67842C9.86343 9.15316 10.0134 9.30315 10.0134 9.48816V11.1548C10.0134 11.5221 10.3111 11.8198 10.6784 11.8198C11.0457 11.8198 11.3434 11.5221 11.3434 11.1548V9.48816C11.3434 8.56861 10.598 7.82316 9.67842 7.82316H6.9271L7.45854 7.29172C7.71824 7.03202 7.71824 6.61097 7.45854 6.35127Z" fill="black"/>
<path fill-rule="evenodd" clip-rule="evenodd" d="M4.66684 0.673828C3.19501 0.673828 2.00186 1.86697 2.00184 3.33879L2.00171 12.6721C2.00169 14.144 3.19486 15.3372 4.66671 15.3372H11.3333C12.8052 15.3372 13.9983 14.144 13.9983 12.6722V5.43963C13.9983 4.78127 13.7547 4.1462 13.3142 3.65684L11.4235 1.55604C10.9181 0.994485 10.1981 0.673828 9.44262 0.673828H4.66684ZM3.33184 3.33881C3.33185 2.60152 3.92954 2.00383 4.66684 2.00383H9.13359V3.74614C9.13359 4.66569 9.87904 5.41114 10.7986 5.41114H12.668C12.6682 5.42062 12.6683 5.43012 12.6683 5.43963V12.6722C12.6683 13.4095 12.0706 14.0072 11.3333 14.0072H4.66671C3.9294 14.0072 3.3317 13.4094 3.33171 12.6721L3.33184 3.33881ZM10.4636 3.74614V2.47761L11.9068 4.08114H10.7986C10.6136 4.08114 10.4636 3.93115 10.4636 3.74614Z" fill="black"/>
</g>
<defs>
<clipPath id="clip0_1247_2">
<rect y="0.00537109" width="16" height="16" rx="4" fill="white"/>
</clipPath>
</defs>
</svg>
