<svg width="17" height="17" viewBox="0 0 17 17" fill="none" xmlns="http://www.w3.org/2000/svg">
<mask id="mask0_436_42" style="mask-type:alpha" maskUnits="userSpaceOnUse" x="0" y="0" width="17" height="17">
<rect x="0.537598" y="0.481445" width="16" height="16" fill="#D9D9D9"/>
</mask>
<g mask="url(#mask0_436_42)">
<path d="M13.2368 2.87507L2.11162 7.97208L2.61144 9.06304L12.4714 4.54568L7.95409 14.4057L9.04505 14.9055L14.1421 3.78029L14.4503 3.63905L14.3286 3.37322L14.469 3.0666L14.1134 2.90369L13.9505 2.5481L13.6439 2.68857L13.3781 2.56678L13.2368 2.87507Z" fill="black"/>
<path fill-rule="evenodd" clip-rule="evenodd" d="M4.44524 1.82495L3.08111 1.82495C2.41837 1.82495 1.88111 2.36221 1.88111 3.02495L1.88111 4.38908L3.21111 4.38908L3.21111 3.15495L4.44524 3.15495L4.44524 1.82495ZM15.1941 4.38908L15.1941 3.02495C15.1941 2.36221 14.6569 1.82495 13.9941 1.82495L12.63 1.82495L12.63 3.15495L13.8641 3.15495L13.8641 4.38908L15.1941 4.38908ZM7.17349 1.82495L7.17349 3.15495L9.90175 3.15495L9.90175 1.82495L7.17349 1.82495ZM15.1941 7.11734L13.8641 7.11734L13.8641 9.84559L15.1941 9.84559L15.1941 7.11734ZM15.1941 12.5739L13.8641 12.5739L13.8641 13.808L12.63 13.808L12.63 15.138L13.9941 15.138C14.6569 15.138 15.1941 14.6007 15.1941 13.938L15.1941 12.5739ZM9.90175 15.138L9.90175 13.808L7.17349 13.808L7.17349 15.138L9.90175 15.138ZM4.44524 15.138L4.44524 13.808L3.21111 13.808L3.21111 12.5739L1.88111 12.5739L1.88111 13.938C1.88111 14.6007 2.41837 15.138 3.08111 15.138L4.44524 15.138ZM1.88111 9.8456L3.21111 9.8456L3.21111 7.11734L1.88111 7.11734L1.88111 9.8456Z" fill="#E5E5E5"/>
</g>
</svg>
