<svg width="16" height="16" viewBox="0 0 16 16" fill="none" xmlns="http://www.w3.org/2000/svg">
<path d="M1.99996 1.83447C1.63269 1.83447 1.33496 2.1322 1.33496 2.49947C1.33496 2.86674 1.63269 3.16447 1.99996 3.16447H14C14.3672 3.16447 14.665 2.86674 14.665 2.49947C14.665 2.1322 14.3672 1.83447 14 1.83447H1.99996Z" fill="black"/>
<path d="M4.66671 5.50159C4.29944 5.50159 4.00171 5.79932 4.00171 6.16659C4.00171 6.53386 4.29944 6.83159 4.66671 6.83159H14C14.3673 6.83159 14.665 6.53386 14.665 6.16659C14.665 5.79932 14.3673 5.50159 14 5.50159H4.66671Z" fill="black"/>
<path d="M1.33496 9.83358C1.33496 9.46631 1.63269 9.16858 1.99996 9.16858H14C14.3672 9.16858 14.665 9.46631 14.665 9.83358C14.665 10.2008 14.3672 10.4986 14 10.4986H1.99996C1.63269 10.4986 1.33496 10.2008 1.33496 9.83358Z" fill="black"/>
<path d="M4.66671 12.8356C4.29944 12.8356 4.00171 13.1334 4.00171 13.5006C4.00171 13.8679 4.29944 14.1656 4.66671 14.1656H14C14.3673 14.1656 14.665 13.8679 14.665 13.5006C14.665 13.1334 14.3673 12.8356 14 12.8356H4.66671Z" fill="black"/>
</svg>
