<svg width="17" height="16" viewBox="0 0 17 16" fill="none" xmlns="http://www.w3.org/2000/svg">
<path fill-rule="evenodd" clip-rule="evenodd" d="M12.448 1.40363C13.6859 0.82972 14.9672 2.11099 14.3933 3.34893L11.2252 10.1824C11.0708 10.5156 10.6754 10.6605 10.3422 10.506C10.009 10.3515 9.86414 9.9562 10.0186 9.623L11.2486 6.96984L8.84028 4.5615L8.8273 4.54815L6.17389 5.77828C5.84068 5.93275 5.44534 5.78786 5.29087 5.45466C5.1364 5.12146 5.28129 4.72611 5.61449 4.57164L12.448 1.40363ZM13.1866 2.78953L11.8444 5.68472L10.1122 3.95248L13.0074 2.61027C13.046 2.59236 13.0713 2.59339 13.0887 2.59698C13.1105 2.60146 13.1364 2.61411 13.1596 2.63729C13.1828 2.66046 13.1954 2.68641 13.1999 2.70815C13.2035 2.72558 13.2045 2.75089 13.1866 2.78953Z" fill="black"/>
<path d="M2.72556 4.60646C2.46586 4.34676 2.0448 4.34676 1.78511 4.60646C1.52541 4.86616 1.52541 5.28721 1.78511 5.54691L9.5782 13.34L8.20063 13.4086C7.83381 13.4268 7.55125 13.739 7.56951 14.1058C7.58777 14.4726 7.89993 14.7552 8.26675 14.7369L10.2409 14.6387C11.1632 14.5927 11.594 13.4749 10.941 12.8219L2.72556 4.60646Z" fill="black"/>
</svg>
