<svg width="16" height="16" viewBox="0 0 16 16" fill="none" xmlns="http://www.w3.org/2000/svg">
<path d="M14.1544 7.99957C14.1544 8.33094 13.8857 8.59957 13.5544 8.59957H11.9184V10.2356C11.9184 10.5669 11.6497 10.8356 11.3184 10.8356C10.987 10.8356 10.7184 10.5669 10.7184 10.2356V8.59957H9.08236C8.75098 8.59957 8.48236 8.33094 8.48236 7.99957C8.48236 7.6682 8.75098 7.39957 9.08236 7.39957H10.7184V5.76357C10.7184 5.4322 10.987 5.16357 11.3184 5.16357C11.6497 5.16357 11.9184 5.4322 11.9184 5.76357V7.39957H13.5544C13.8857 7.39957 14.1544 7.6682 14.1544 7.99957Z" fill="black"/>
<path fill-rule="evenodd" clip-rule="evenodd" d="M1.84473 2.83877L1.84475 5.90688L1.84473 5.9125L1.84475 5.91813L1.84479 10.0777L1.84473 10.0863L1.84479 10.095L1.84481 13.1607C1.84482 14.0996 2.60594 14.8607 3.54481 14.8607H5.34472C6.2836 14.8607 7.04472 14.0996 7.04472 13.1607V10.0897L7.04473 10.0863L7.04472 10.083V5.91583L7.04473 5.9125L7.04472 5.90917V2.83867C7.04472 1.89976 6.28355 1.13863 5.34464 1.13867L3.54465 1.13876C2.60579 1.1388 1.84472 1.89991 1.84473 2.83877ZM5.84472 9.48633V6.5125H3.04476L3.04478 9.48633H5.84472ZM3.04479 10.6863L3.04481 13.1607C3.04482 13.4368 3.26867 13.6607 3.54481 13.6607H5.34472C5.62086 13.6607 5.84472 13.4368 5.84472 13.1607V10.6863H3.04479ZM5.84472 2.83867V5.3125H3.04475L3.04473 2.83876C3.04472 2.56263 3.26857 2.33877 3.5447 2.33876L5.34469 2.33867C5.62084 2.33866 5.84472 2.56252 5.84472 2.83867Z" fill="black"/>
</svg>
