<svg width="16" height="16" viewBox="0 0 16 16" fill="none" xmlns="http://www.w3.org/2000/svg">
<path fill-rule="evenodd" clip-rule="evenodd" d="M3.54519 1.0743L5.34518 1.07422C6.32 1.07417 7.11026 1.8644 7.11026 2.83922V5.90972L7.11027 5.91323L7.11026 5.91674V10.0835L7.11027 10.0871L7.11026 10.0906V13.1612C7.11026 14.136 6.32005 14.9262 5.34526 14.9262H3.54536C2.57058 14.9262 1.78037 14.136 1.78036 13.1613L1.78033 10.0962L1.78027 10.0871L1.78033 10.078L1.7803 5.91916L1.78027 5.91323L1.7803 5.90731L1.78027 2.83932C1.78027 1.86456 2.57043 1.07435 3.54519 1.0743ZM3.11034 10.7521L3.11036 13.1612C3.11036 13.4015 3.30512 13.5962 3.54536 13.5962H5.34526C5.58551 13.5962 5.78026 13.4015 5.78026 13.1612V10.7521H3.11034ZM5.78026 9.42206H3.11033L3.1103 6.57823H5.78026V9.42206ZM5.78026 2.83922V5.24823H3.11029L3.11027 2.83931C3.11027 2.59907 3.30502 2.40431 3.54525 2.4043L5.34524 2.40422C5.5855 2.40421 5.78026 2.59897 5.78026 2.83922Z" fill="black"/>
<path d="M14.2194 8.00006C14.2194 8.36733 13.9216 8.66506 13.5544 8.66506H11.9834V10.2361C11.9834 10.6033 11.6856 10.9011 11.3184 10.9011C10.9511 10.9011 10.6534 10.6033 10.6534 10.2361V8.66506H9.08236C8.71509 8.66506 8.41736 8.36733 8.41736 8.00006C8.41736 7.63279 8.71509 7.33506 9.08236 7.33506H10.6534V5.76406C10.6534 5.39679 10.9511 5.09906 11.3184 5.09906C11.6856 5.09906 11.9834 5.39679 11.9834 5.76406V7.33506H13.5544C13.9216 7.33506 14.2194 7.63279 14.2194 8.00006Z" fill="black"/>
</svg>
