<svg width="16" height="16" viewBox="0 0 16 16" fill="none" xmlns="http://www.w3.org/2000/svg">
<path d="M4.68186 1.98971C4.68186 1.62244 4.38413 1.32471 4.01686 1.32471C3.64959 1.32471 3.35186 1.62244 3.35186 1.98971V13.0108L2.32929 12.0852C2.057 11.8387 1.63647 11.8597 1.39 12.132C1.14353 12.4042 1.16447 12.8248 1.43675 13.0712L2.90216 14.3977C3.58682 15.0174 4.68186 14.5316 4.68186 13.6081V1.98971Z" fill="black"/>
<path fill-rule="evenodd" clip-rule="evenodd" d="M13.8213 9.89962C15.1025 9.43008 15.1025 7.6181 13.8213 7.14856L6.74921 4.55668C6.40437 4.4303 6.02237 4.6074 5.89599 4.95224C5.76961 5.29708 5.9467 5.67908 6.29154 5.80546L9.03716 6.81171V10.2177L9.03742 10.2364L6.29154 11.2427C5.9467 11.3691 5.76961 11.7511 5.89599 12.0959C6.02237 12.4408 6.40437 12.6179 6.74921 12.4915L13.8213 9.89962ZM13.3637 8.39733L10.3672 7.29914V9.74904L13.3637 8.65084C13.4036 8.63619 13.4208 8.61757 13.4306 8.6027C13.4428 8.58416 13.4522 8.55686 13.4522 8.52409C13.4522 8.49132 13.4428 8.46402 13.4306 8.44548C13.4208 8.43061 13.4036 8.41199 13.3637 8.39733Z" fill="black"/>
</svg>
