<svg width="17" height="16" viewBox="0 0 17 16" fill="none" xmlns="http://www.w3.org/2000/svg">
<path fill-rule="evenodd" clip-rule="evenodd" d="M4.71676 1.06494C3.24492 1.06494 2.05176 2.2581 2.05176 3.72994V12.2699C2.05176 13.7418 3.24492 14.9349 4.71676 14.9349H13.2568C14.7286 14.9349 15.9218 13.7418 15.9218 12.2699V3.72994C15.9218 2.2581 14.7286 1.06494 13.2568 1.06494H4.71676ZM3.38176 3.72994C3.38176 2.99264 3.97946 2.39494 4.71676 2.39494H7.87128L3.38176 12.0228V3.72994ZM4.96261 13.6049H13.2568C13.9941 13.6049 14.5918 13.0072 14.5918 12.2699V9.1148L4.96261 13.6049ZM14.5918 7.64731V3.72994C14.5918 2.99264 13.9941 2.39494 13.2568 2.39494H9.33878L4.74941 12.2369L14.5918 7.64731Z" fill="black"/>
</svg>
