<svg width="16" height="16" viewBox="0 0 16 16" fill="none" xmlns="http://www.w3.org/2000/svg">
<path d="M11.9811 1.50272C12.2848 1.71054 12.3636 2.12456 12.1571 2.42746L9.36666 6.52142H12.8002C13.1674 6.52142 13.4652 6.81915 13.4652 7.18642C13.4652 7.55369 13.1674 7.85142 12.8002 7.85142H8.66496V9.84759H13.2221C13.5894 9.84759 13.8871 10.1453 13.8871 10.5126C13.8871 10.8799 13.5894 11.1776 13.2221 11.1776H8.66496V14.0875C8.66496 14.4548 8.36723 14.7525 7.99996 14.7525C7.63269 14.7525 7.33496 14.4548 7.33496 14.0875V11.1776H2.77779C2.41052 11.1776 2.11279 10.8799 2.11279 10.5126C2.11279 10.1453 2.41052 9.84759 2.77779 9.84759H7.33496V7.85142H3.20016C2.83289 7.85142 2.53516 7.55369 2.53516 7.18642C2.53516 6.81915 2.83289 6.52142 3.20016 6.52142H6.63432L3.84386 2.42746C3.6374 2.12456 3.71619 1.71054 4.01984 1.50272C4.3235 1.2949 4.73703 1.37199 4.9435 1.67489L8.00049 6.15989L11.0575 1.67489C11.2639 1.37199 11.6775 1.2949 11.9811 1.50272Z" fill="black"/>
</svg>
