<svg width="16" height="16" viewBox="0 0 16 16" fill="none" xmlns="http://www.w3.org/2000/svg">
<path d="M2.76373 3.91713C3.98217 2.34641 5.89002 1.3335 8.03413 1.3335C10.232 1.3335 12.1814 2.39777 13.3948 4.03625C13.6139 4.33214 13.5517 4.74964 13.2558 4.96875C12.9599 5.18787 12.5424 5.12563 12.3233 4.82974C11.3506 3.51621 9.79159 2.66683 8.03413 2.66683C6.30971 2.66683 4.77652 3.4845 3.80054 4.75602C3.78704 4.77361 3.77267 4.79051 3.75748 4.80667L3.57562 5.00016H4.96598C5.33417 5.00016 5.63265 5.29864 5.63265 5.66683C5.63265 6.03502 5.33417 6.3335 4.96598 6.3335H1.96598C1.59779 6.3335 1.29932 6.03502 1.29932 5.66683V2.66683C1.29932 2.29864 1.59779 2.00016 1.96598 2.00016C2.33417 2.00016 2.63265 2.29864 2.63265 2.66683V4.05659L2.76373 3.91713Z" fill="black"/>
<path fill-rule="evenodd" clip-rule="evenodd" d="M4.03413 7.3335C3.66594 7.3335 3.36746 7.63197 3.36746 8.00016V14.0002C3.36746 14.3684 3.66594 14.6668 4.03413 14.6668H14.0341C14.4023 14.6668 14.7008 14.3684 14.7008 14.0002V8.00016C14.7008 7.63197 14.4023 7.3335 14.0341 7.3335H4.03413ZM4.70079 13.3335V8.66683H13.3675V13.3335H4.70079Z" fill="black"/>
</svg>
