<svg width="16" height="16" viewBox="0 0 16 16" fill="none" xmlns="http://www.w3.org/2000/svg">
<path fill-rule="evenodd" clip-rule="evenodd" d="M4.47809 0.955566C4.22127 0.955566 4.01309 1.16375 4.01309 1.42057V7.50552H3.00045C2.63318 7.50552 2.33545 7.80325 2.33545 8.17052C2.33545 8.53778 2.63318 8.83552 3.00045 8.83552H4.01309V10.4204H3.00045C2.63318 10.4204 2.33545 10.7181 2.33545 11.0854C2.33545 11.4527 2.63318 11.7504 3.00045 11.7504H4.01309V14.3795C4.01309 14.7468 4.31082 15.0445 4.67809 15.0445C5.04536 15.0445 5.34309 14.7468 5.34309 14.3795V11.7504H11.3637C11.731 11.7504 12.0287 11.4527 12.0287 11.0854C12.0287 10.7181 11.731 10.4204 11.3637 10.4204H5.34309V8.83552H9.72509C11.9011 8.83552 13.6651 7.07153 13.6651 4.89554C13.6651 2.71955 11.9011 0.955566 9.72508 0.955566H4.47809ZM5.34309 7.50552V2.28557H9.72508C11.1665 2.28557 12.3351 3.45409 12.3351 4.89554C12.3351 6.33699 11.1665 7.50552 9.72509 7.50552H5.34309Z" fill="black"/>
</svg>
