<svg width="17" height="17" viewBox="0 0 17 17" fill="none" xmlns="http://www.w3.org/2000/svg">
<path fill-rule="evenodd" clip-rule="evenodd" d="M8.04163 6.24451L8.0418 6.25869L8.04163 6.27285L8.04173 10.4233L8.0418 10.4325L8.04173 10.4417L8.0418 13.5069C8.04182 14.4458 7.2807 15.2069 6.3418 15.2069H4.54183C3.60294 15.2069 2.84182 14.4458 2.84183 13.5069L2.84184 10.4397L2.8418 10.4325L2.84184 10.4253L2.84186 6.26726L2.8418 6.25869L2.84186 6.25011L2.84187 3.18486C2.84187 2.24596 3.60301 1.48484 4.54191 1.48486L6.3416 1.48491C7.28046 1.48493 8.04154 2.24602 8.04156 3.18487L8.04163 6.24451ZM6.8418 13.5069L6.84174 11.0325H4.04184L4.04183 13.5069C4.04183 13.783 4.26568 14.0069 4.54183 14.0069H6.3418C6.61794 14.0069 6.8418 13.783 6.8418 13.5069ZM6.84171 9.83252H4.04184L4.04185 6.85869H6.84165L6.84171 9.83252ZM6.84162 5.65869H4.04186L4.04187 3.18486C4.04187 2.90871 4.26574 2.68486 4.54188 2.68486L6.34158 2.68491C6.61771 2.68491 6.84156 2.90876 6.84156 3.1849L6.84162 5.65869Z" fill="black"/>
<path fill-rule="evenodd" clip-rule="evenodd" d="M9.74932 4.98481L9.74934 3.18484C9.74936 2.24595 10.5105 1.48484 11.4494 1.48486L13.2493 1.48491C14.1882 1.48494 14.9493 2.24604 14.9493 3.18491V4.98483C14.9493 5.92372 14.1882 6.68483 13.2493 6.68483H11.4493C10.5104 6.68483 9.7493 5.9237 9.74932 4.98481ZM10.9493 3.18486L10.9493 4.98483C10.9493 5.26097 11.1732 5.48483 11.4493 5.48483H13.2493C13.5254 5.48483 13.7493 5.26098 13.7493 4.98483V3.18491C13.7493 2.90877 13.5254 2.68492 13.2493 2.68491L11.4494 2.68486C11.1732 2.68486 10.9493 2.90871 10.9493 3.18486Z" fill="black"/>
</svg>
