<svg width="17" height="16" viewBox="0 0 17 16" fill="none" xmlns="http://www.w3.org/2000/svg">
<path fill-rule="evenodd" clip-rule="evenodd" d="M4.54148 1.07959C3.56669 1.07957 2.77644 1.86978 2.77644 2.84458L2.77643 5.90984L2.77637 5.91887L2.77643 5.92722L2.77641 10.085L2.77637 10.0926L2.77641 10.0996L2.7764 13.1666C2.77639 14.1414 3.56661 14.9316 4.5414 14.9316H6.34137C7.31616 14.9316 8.10639 14.1414 8.10637 13.1666L8.1063 10.1015L8.10636 10.0918L8.10629 10.0825L8.1062 5.93257L8.10638 5.91917L8.1062 5.90348L8.10613 2.84459C8.10611 1.86984 7.31593 1.07966 6.34118 1.07963L4.54148 1.07959ZM4.10644 2.84459C4.10644 2.60434 4.3012 2.40958 4.54145 2.40959L6.34114 2.40963C6.58138 2.40964 6.77613 2.60439 6.77613 2.84462L6.77619 5.25342H4.10643L4.10644 2.84459ZM4.10641 9.42725L4.10642 6.58342H6.77622L6.77628 9.42725H4.10641ZM4.1064 13.1666L4.10641 10.7572H6.77631L6.77637 13.1666C6.77637 13.4069 6.58161 13.6016 6.34137 13.6016H4.5414C4.30115 13.6016 4.10639 13.4069 4.1064 13.1666Z" fill="black"/>
<path fill-rule="evenodd" clip-rule="evenodd" d="M11.449 1.07959C10.4742 1.07956 9.68393 1.86977 9.68391 2.84456L9.68389 4.64453C9.68387 5.61933 10.4741 6.40956 11.4489 6.40956H13.2489C14.2237 6.40956 15.0139 5.61934 15.0139 4.64456V2.84464C15.0139 1.86987 14.2237 1.07966 13.2489 1.07964L11.449 1.07959ZM11.0139 2.84458C11.0139 2.60434 11.2087 2.40958 11.4489 2.40959L13.2489 2.40964C13.4891 2.40964 13.6839 2.6044 13.6839 2.84464V4.64456C13.6839 4.8848 13.4891 5.07956 13.2489 5.07956H11.4489C11.2086 5.07956 11.0139 4.8848 11.0139 4.64455L11.0139 2.84458Z" fill="black"/>
</svg>
