<svg width="16" height="16" viewBox="0 0 16 16" fill="none" xmlns="http://www.w3.org/2000/svg">
<path d="M8.66667 3.66663C9.03486 3.66663 9.33333 3.9651 9.33333 4.33329V5.66663C9.33333 6.03482 9.03486 6.33329 8.66667 6.33329C8.29848 6.33329 8 6.03482 8 5.66663V4.33329C8 3.9651 8.29848 3.66663 8.66667 3.66663Z" fill="black"/>
<path fill-rule="evenodd" clip-rule="evenodd" d="M3.34833 1.41349C2.19065 1.70433 1.33348 2.75205 1.3335 3.99996L1.33361 12C1.33363 13.4727 2.52754 14.6666 4.00028 14.6666H12C13.4727 14.6666 14.6666 13.4727 14.6666 12V3.99995C14.6666 2.52936 13.4763 1.33679 12.0065 1.33329C12.0042 1.33326 12.0018 1.33325 11.9995 1.33325H3.66569C3.5508 1.33325 3.44269 1.36232 3.34833 1.41349ZM4.00017 2.66659C3.26378 2.66658 2.66682 3.26355 2.66683 3.99994L2.66695 12C2.66696 12.7364 3.26391 13.3333 4.00028 13.3333H12C12.7364 13.3333 13.3333 12.7363 13.3333 12V3.99995C13.3333 3.26357 12.7364 2.66662 12 2.66661L11.3335 2.66661V6.69992C11.3335 7.78608 10.453 8.66658 9.36683 8.66658H6.30016C5.214 8.66658 4.3335 7.78608 4.3335 6.69992V2.66659L4.00017 2.66659ZM5.66683 2.66659V6.69992C5.66683 7.0497 5.95038 7.33325 6.30016 7.33325H9.36683C9.71661 7.33325 10.0002 7.0497 10.0002 6.69992V2.66661L5.66683 2.66659Z" fill="black"/>
</svg>
