<svg width="16" height="16" viewBox="0 0 16 16" fill="none" xmlns="http://www.w3.org/2000/svg">
<g clip-path="url(#clip0_1359_33)">
<path fill-rule="evenodd" clip-rule="evenodd" d="M7.99997 5.32471C6.52031 5.32471 5.3208 6.52422 5.3208 8.00388C5.3208 9.48354 6.52031 10.6831 7.99997 10.6831C9.47964 10.6831 10.6791 9.48354 10.6791 8.00388C10.6791 6.52422 9.47964 5.32471 7.99997 5.32471ZM6.6508 8.00388C6.6508 7.25876 7.25485 6.65471 7.99997 6.65471C8.7451 6.65471 9.34915 7.25876 9.34915 8.00388C9.34915 8.74901 8.7451 9.35305 7.99997 9.35305C7.25485 9.35305 6.6508 8.74901 6.6508 8.00388Z" fill="black"/>
<path fill-rule="evenodd" clip-rule="evenodd" d="M9.17731 1.3905C8.52708 0.740276 7.47286 0.740276 6.82264 1.3905L5.76873 2.44441C5.70591 2.50723 5.6207 2.54252 5.53185 2.54252H4.20753C3.28797 2.54252 2.54252 3.28797 2.54252 4.20752V5.53185C2.54252 5.6207 2.50723 5.70591 2.44441 5.76873L1.3905 6.82264C0.740276 7.47286 0.740276 8.52708 1.3905 9.17731L2.44441 10.2312C2.50723 10.294 2.54252 10.3792 2.54252 10.4681V11.7924C2.54252 12.712 3.28797 13.4574 4.20752 13.4574H5.53185C5.6207 13.4574 5.70591 13.4927 5.76873 13.5555L6.82264 14.6094C7.47286 15.2597 8.52708 15.2597 9.17731 14.6094L10.2312 13.5555C10.294 13.4927 10.3792 13.4574 10.4681 13.4574H11.7924C12.712 13.4574 13.4574 12.712 13.4574 11.7924V10.4681C13.4574 10.3792 13.4927 10.294 13.5555 10.2312L14.6094 9.17731C15.2597 8.52708 15.2597 7.47286 14.6094 6.82264L13.5555 5.76873C13.4927 5.70591 13.4574 5.6207 13.4574 5.53185V4.20753C13.4574 3.28797 12.712 2.54252 11.7924 2.54252H10.4681C10.3792 2.54252 10.294 2.50723 10.2312 2.44441L9.17731 1.3905ZM7.76309 2.33095C7.89392 2.20013 8.10603 2.20013 8.23685 2.33095L9.29076 3.38486C9.60301 3.69711 10.0265 3.87252 10.4681 3.87252H11.7924C11.9774 3.87252 12.1274 4.02251 12.1274 4.20753V5.53185C12.1274 5.97344 12.3028 6.39694 12.6151 6.70919L13.669 7.76309C13.7998 7.89392 13.7998 8.10603 13.669 8.23685L12.6151 9.29076C12.3028 9.60301 12.1274 10.0265 12.1274 10.4681V11.7924C12.1274 11.9774 11.9774 12.1274 11.7924 12.1274H10.4681C10.0265 12.1274 9.60301 12.3028 9.29076 12.6151L8.23685 13.669C8.10603 13.7998 7.89392 13.7998 7.76309 13.669L6.70919 12.6151C6.39694 12.3028 5.97344 12.1274 5.53185 12.1274H4.20752C4.02251 12.1274 3.87252 11.9774 3.87252 11.7924V10.4681C3.87252 10.0265 3.69711 9.60301 3.38486 9.29076L2.33095 8.23685C2.20013 8.10603 2.20013 7.89392 2.33095 7.76309L3.38486 6.70919C3.69711 6.39694 3.87252 5.97344 3.87252 5.53185V4.20752C3.87252 4.02251 4.02251 3.87252 4.20753 3.87252H5.53185C5.97344 3.87252 6.39694 3.69711 6.70919 3.38486L7.76309 2.33095Z" fill="black"/>
</g>
<defs>
<clipPath id="clip0_1359_33">
<rect width="16" height="16" fill="white"/>
</clipPath>
</defs>
</svg>
