<svg width="16" height="16" viewBox="0 0 16 16" fill="none" xmlns="http://www.w3.org/2000/svg">
<path fill-rule="evenodd" clip-rule="evenodd" d="M11.9723 0.835083C10.6078 0.835083 9.50171 1.94119 9.50171 3.30564C9.50171 3.48455 9.52074 3.65908 9.5569 3.8273L5.68863 6.17094C5.24999 5.77247 4.66726 5.52954 4.02793 5.52954C2.66349 5.52954 1.55737 6.63566 1.55737 8.0001C1.55737 9.36455 2.66349 10.4707 4.02793 10.4707C4.69157 10.4707 5.2942 10.2089 5.73801 9.78316L9.58492 12.0563C9.53063 12.26 9.50171 12.4739 9.50171 12.6944C9.50171 14.0589 10.6078 15.165 11.9723 15.165C13.3367 15.165 14.4428 14.0589 14.4428 12.6944C14.4428 11.33 13.3367 10.2239 11.9723 10.2239C11.3085 10.2239 10.7058 10.4857 10.262 10.9116L6.41521 8.63848C6.46955 8.43478 6.4985 8.22077 6.4985 8.0001C6.4985 7.75587 6.46304 7.51982 6.39695 7.29686L10.1793 5.00529C10.6294 5.48001 11.2663 5.77621 11.9723 5.77621C13.3367 5.77621 14.4428 4.67009 14.4428 3.30564C14.4428 1.94119 13.3367 0.835083 11.9723 0.835083ZM10.8317 3.30564C10.8317 2.67573 11.3424 2.16508 11.9723 2.16508C12.6022 2.16508 13.1128 2.67573 13.1128 3.30564C13.1128 3.93555 12.6022 4.44621 11.9723 4.44621C11.3424 4.44621 10.8317 3.93555 10.8317 3.30564ZM2.88737 8.0001C2.88737 7.3702 3.39803 6.85954 4.02793 6.85954C4.65784 6.85954 5.1685 7.3702 5.1685 8.0001C5.1685 8.63001 4.65784 9.14066 4.02793 9.14066C3.39803 9.14066 2.88737 8.63001 2.88737 8.0001ZM10.8317 12.6944C10.8317 12.0645 11.3424 11.5539 11.9723 11.5539C12.6022 11.5539 13.1128 12.0645 13.1128 12.6944C13.1128 13.3243 12.6022 13.835 11.9723 13.835C11.3424 13.835 10.8317 13.3243 10.8317 12.6944Z" fill="black"/>
</svg>
