<svg width="16" height="16" viewBox="0 0 16 16" fill="none" xmlns="http://www.w3.org/2000/svg">
<path d="M5.88699 2.34478L3.65371 2.3448C2.88051 2.34481 2.25372 2.97161 2.25372 3.7448L2.25371 12.4445C2.25371 13.2177 2.88052 13.8445 3.65372 13.8445L12.3535 13.8445C13.1267 13.8445 13.7535 13.2177 13.7535 12.4445V10.0256C13.7535 9.69425 14.0221 9.42562 14.3535 9.42562C14.6849 9.42562 14.9535 9.69425 14.9535 10.0256V12.4445C14.9535 13.8804 13.7894 15.0444 12.3535 15.0445L3.65373 15.0445C2.21778 15.0445 1.05371 13.8805 1.05371 12.4445L1.05372 3.7448C1.05372 2.30888 2.21776 1.14482 3.65369 1.1448L5.88697 1.14478C6.21834 1.14477 6.48698 1.4134 6.48698 1.74477C6.48699 2.07614 6.21836 2.34477 5.88699 2.34478Z" fill="black"/>
<path d="M8.71094 1.75039C8.71094 1.41902 8.97956 1.15039 9.31094 1.15039H13.7497C14.3572 1.15039 14.8497 1.64288 14.8497 2.25039V6.68919C14.8497 7.02056 14.5811 7.28919 14.2497 7.28919C13.9184 7.28919 13.6497 7.02056 13.6497 6.68919V3.19854L8.95883 7.88944C8.72452 8.12375 8.34462 8.12375 8.1103 7.88944C7.87599 7.65512 7.87599 7.27523 8.1103 7.04091L12.8008 2.35039H9.31094C8.97956 2.35039 8.71094 2.08176 8.71094 1.75039Z" fill="black"/>
</svg>
