<svg width="16" height="16" viewBox="0 0 16 16" fill="none" xmlns="http://www.w3.org/2000/svg">
<path d="M5.88705 2.40959L3.65376 2.40962C2.91647 2.40963 2.31878 3.00732 2.31878 3.74462L2.31877 12.4443C2.31877 13.1816 2.91647 13.7793 3.65378 13.7793L12.3536 13.7793C13.0909 13.7793 13.6885 13.1816 13.6885 12.4443V10.0254C13.6885 9.65817 13.9863 9.36044 14.3535 9.36044C14.7208 9.36044 15.0185 9.65817 15.0185 10.0254V12.4443C15.0185 13.9161 13.8254 15.1093 12.3536 15.1093L3.65379 15.1093C2.18194 15.1094 0.98877 13.9162 0.98877 12.4443L0.988781 3.74462C0.988783 2.27279 2.18192 1.07964 3.65375 1.07962L5.88703 1.07959C6.2543 1.07959 6.55204 1.37731 6.55204 1.74458C6.55204 2.11185 6.25432 2.40959 5.88705 2.40959Z" fill="black"/>
<path d="M8.646 1.75005C8.646 1.38278 8.94373 1.08505 9.311 1.08505H13.7498C14.3932 1.08505 14.9148 1.60664 14.9148 2.25005V6.68885C14.9148 7.05612 14.6171 7.35385 14.2498 7.35385C13.8825 7.35385 13.5848 7.05612 13.5848 6.68885V3.35524L9.00486 7.93518C8.74516 8.19488 8.3241 8.19488 8.0644 7.93518C7.8047 7.67549 7.8047 7.25443 8.0644 6.99473L12.6441 2.41505H9.311C8.94373 2.41505 8.646 2.11732 8.646 1.75005Z" fill="black"/>
</svg>
