<svg width="17" height="16" viewBox="0 0 17 16" fill="none" xmlns="http://www.w3.org/2000/svg">
<path fill-rule="evenodd" clip-rule="evenodd" d="M4.71676 1.06494C3.24492 1.06494 2.05176 2.2581 2.05176 3.72994V12.2699C2.05176 13.7418 3.24492 14.9349 4.71676 14.9349H13.2568C14.7286 14.9349 15.9218 13.7418 15.9218 12.2699V3.72994C15.9218 2.2581 14.7286 1.06494 13.2568 1.06494H4.71676ZM3.38176 3.72994C3.38176 2.99264 3.97946 2.39494 4.71676 2.39494H13.2568C13.3773 2.39494 13.4942 2.41093 13.6053 2.4409L3.42772 12.6185C3.39775 12.5074 3.38176 12.3905 3.38176 12.2699V3.72994ZM4.36816 13.559C4.47928 13.5889 4.59615 13.6049 4.71676 13.6049H13.2568C13.9941 13.6049 14.5918 13.0072 14.5918 12.2699V3.72994C14.5918 3.60934 14.5758 3.49247 14.5458 3.38134L4.36816 13.559Z" fill="black"/>
</svg>
