<svg width="16" height="16" viewBox="0 0 16 16" fill="none" xmlns="http://www.w3.org/2000/svg">
<path fill-rule="evenodd" clip-rule="evenodd" d="M5.79043 4.69338C6.44443 4.25639 7.21334 4.02314 7.9999 4.02314H8.1999C8.42082 4.02314 8.5999 4.20223 8.5999 4.42314V7.4001H11.5769C11.7978 7.4001 11.9769 7.57918 11.9769 7.8001V8.0001C11.9769 8.78666 11.7436 9.55557 11.3066 10.2096C10.8696 10.8636 10.2485 11.3733 9.52182 11.6743C8.79512 11.9753 7.99549 12.0541 7.22404 11.9006C6.45259 11.7472 5.74396 11.3684 5.18777 10.8122C4.63159 10.256 4.25282 9.54742 4.09937 8.77596C3.94592 8.00451 4.02467 7.20488 4.32568 6.47818C4.62668 5.75149 5.13642 5.13038 5.79043 4.69338ZM7.3999 5.28874C7.06508 5.36283 6.74514 5.49869 6.45711 5.69115C6.00044 5.99628 5.64451 6.42998 5.43433 6.9374C5.22415 7.44483 5.16916 8.00318 5.27631 8.54185C5.38346 9.08053 5.64794 9.57534 6.0363 9.9637C6.42466 10.3521 6.91947 10.6165 7.45815 10.7237C7.99682 10.8308 8.55518 10.7758 9.0626 10.5657C9.57002 10.3555 10.0037 9.99956 10.3089 9.54289C10.5013 9.25486 10.6372 8.93492 10.7113 8.6001H7.7999C7.57899 8.6001 7.3999 8.42101 7.3999 8.2001V5.28874Z" fill="black"/>
<path d="M11.5761 6.66963C11.797 6.66963 11.9792 6.48954 11.9459 6.27115C11.9138 6.06071 11.8565 5.85442 11.7746 5.65686C11.6416 5.33578 11.4467 5.04403 11.2009 4.79828C10.9552 4.55253 10.6634 4.35759 10.3424 4.2246C10.1448 4.14276 9.93851 4.08537 9.72807 4.05332C9.50968 4.02005 9.32959 4.20223 9.32959 4.42314V6.66963H11.5761Z" fill="black"/>
<path fill-rule="evenodd" clip-rule="evenodd" d="M1.90107 0.578613C1.45925 0.578613 1.10107 0.936785 1.10107 1.37861V11.8216C1.10107 13.8098 2.71285 15.4216 4.70107 15.4216H14.0987C14.5406 15.4216 14.8987 15.0634 14.8987 14.6216V4.17861C14.8987 2.19039 13.287 0.578613 11.2987 0.578613H1.90107ZM2.30107 11.8216V1.77861H11.2987C12.6242 1.77861 13.6987 2.85313 13.6987 4.17861V14.2216H4.70107C3.37559 14.2216 2.30107 13.1471 2.30107 11.8216Z" fill="black"/>
</svg>
