<svg width="16" height="16" viewBox="0 0 16 16" fill="none" xmlns="http://www.w3.org/2000/svg">
<path fill-rule="evenodd" clip-rule="evenodd" d="M7.99996 3.9582C7.20054 3.9582 6.41907 4.19526 5.75437 4.6394C5.08968 5.08353 4.57161 5.7148 4.26568 6.45337C3.95976 7.19194 3.87971 8.00464 4.03567 8.7887C4.19163 9.57276 4.57659 10.293 5.14187 10.8582C5.70715 11.4235 6.42735 11.8085 7.21142 11.9644C7.99548 12.1204 8.80818 12.0404 9.54675 11.7344C10.2853 11.4285 10.9166 10.9104 11.3607 10.2457C11.8049 9.58105 12.0419 8.79958 12.0419 8.00016V7.80016C12.0419 7.54334 11.8337 7.33516 11.5769 7.33516H8.66496V4.4232C8.66496 4.16639 8.45677 3.9582 8.19996 3.9582H7.99996ZM6.49328 5.74525C6.75182 5.5725 7.03668 5.44645 7.33496 5.371V8.20016C7.33496 8.45697 7.54315 8.66516 7.79996 8.66516H10.6291C10.5537 8.96344 10.4276 9.2483 10.2549 9.50684C9.95687 9.95282 9.53333 10.3004 9.03778 10.5057C8.54224 10.7109 7.99695 10.7646 7.47089 10.66C6.94482 10.5554 6.4616 10.2971 6.08232 9.9178C5.70305 9.53852 5.44476 9.0553 5.34012 8.52923C5.23548 8.00316 5.28918 7.45788 5.49444 6.96234C5.69971 6.46679 6.0473 6.04324 6.49328 5.74525Z" fill="black"/>
<path d="M9.73792 3.98912C9.47348 3.94884 9.26465 4.16957 9.26465 4.4232V6.73469H11.5761C11.8298 6.73469 12.0505 6.52585 12.0102 6.26142C11.9774 6.04581 11.9186 5.83446 11.8347 5.63205C11.6985 5.30308 11.4987 5.00416 11.247 4.75238C10.9952 4.50059 10.6963 4.30087 10.3673 4.1646C10.1649 4.08076 9.95352 4.02195 9.73792 3.98912Z" fill="black"/>
<path fill-rule="evenodd" clip-rule="evenodd" d="M1.90113 0.513672C1.42341 0.513672 1.03613 0.900945 1.03613 1.37867V11.8216C1.03613 13.8458 2.67701 15.4866 4.70113 15.4866H14.0988C14.5765 15.4866 14.9638 15.0994 14.9638 14.6216V4.17867C14.9638 2.15455 13.3229 0.513672 11.2988 0.513672H1.90113ZM2.36613 11.8216V1.84367H11.2988C12.5884 1.84367 13.6338 2.88909 13.6338 4.17867V14.1566H4.70113C3.41155 14.1566 2.36613 13.1112 2.36613 11.8216Z" fill="black"/>
</svg>
