<svg width="16" height="16" viewBox="0 0 16 16" fill="none" xmlns="http://www.w3.org/2000/svg">
<path d="M11.4045 6.82942C11.6639 6.56948 11.6635 6.14843 11.4036 5.88897C11.1436 5.62952 10.7226 5.62991 10.4631 5.88986L7.29981 9.05911L5.77048 7.52978C5.51078 7.27008 5.08973 7.27008 4.83003 7.52978C4.57033 7.78948 4.57033 8.21053 4.83003 8.47023L6.83003 10.4702C6.95482 10.595 7.12409 10.6651 7.30057 10.665C7.47704 10.6649 7.64625 10.5947 7.77092 10.4698L11.4045 6.82942Z" fill="black"/>
<path fill-rule="evenodd" clip-rule="evenodd" d="M15 8C15 11.866 11.866 15 8 15C4.13401 15 1 11.866 1 8C1 4.13401 4.13401 1 8 1C11.866 1 15 4.13401 15 8ZM13.67 8C13.67 11.1315 11.1315 13.67 8 13.67C4.86855 13.67 2.33 11.1315 2.33 8C2.33 4.86855 4.86855 2.33 8 2.33C11.1315 2.33 13.67 4.86855 13.67 8Z" fill="black"/>
</svg>
