<svg width="16" height="16" viewBox="0 0 16 16" fill="none" xmlns="http://www.w3.org/2000/svg">
<g clip-path="url(#clip0_1154_17)">
<path fill-rule="evenodd" clip-rule="evenodd" d="M8.00012 0.668335C3.95095 0.668335 0.668457 3.95083 0.668457 8C0.668457 12.0492 3.95095 15.3317 8.00012 15.3317C12.0493 15.3317 15.3318 12.0492 15.3318 8C15.3318 3.95083 12.0493 0.668335 8.00012 0.668335ZM1.99846 8C1.99846 4.68537 4.68549 1.99834 8.00012 1.99834C11.3148 1.99834 14.0018 4.68537 14.0018 8C14.0018 11.3146 11.3148 14.0017 8.00012 14.0017C4.68549 14.0017 1.99846 11.3146 1.99846 8Z" fill="black"/>
<path d="M5 6.5C5 5.67157 5.67157 5 6.5 5H9.5C10.3284 5 11 5.67157 11 6.5V9.5C11 10.3284 10.3284 11 9.5 11H6.5C5.67157 11 5 10.3284 5 9.5V6.5Z" fill="black"/>
</g>
<defs>
<clipPath id="clip0_1154_17">
<rect width="16" height="16" fill="white"/>
</clipPath>
</defs>
</svg>
