<svg width="16" height="16" viewBox="0 0 16 16" fill="none" xmlns="http://www.w3.org/2000/svg">
<path d="M8.00033 1.20996C6.43345 1.20996 5.23596 1.88077 4.64804 2.94304C4.06338 3.99943 4.15123 5.32084 4.90099 6.47062C5.08199 6.7482 5.45374 6.82648 5.73131 6.64548C6.00888 6.46448 6.08716 6.09273 5.90616 5.81516C5.36418 4.98402 5.35768 4.13897 5.69797 3.52412C6.035 2.91515 6.78176 2.40996 8.00033 2.40996C9.19423 2.40996 10.0017 2.93409 10.5236 3.46755C10.7871 3.73682 10.9756 4.00712 11.0974 4.20903C11.158 4.30951 11.2013 4.39164 11.2284 4.44625C11.2419 4.47351 11.2514 4.49377 11.2568 4.50588L11.2621 4.51771C11.3901 4.82216 11.7407 4.96686 12.046 4.83992C12.3519 4.71267 12.4968 4.36149 12.3695 4.05552L11.8231 4.28278C12.3695 4.05552 12.3697 4.0558 12.3695 4.05552L12.3691 4.05437L12.3685 4.05298L12.367 4.04953L12.3629 4.03993L12.3498 4.01036C12.3388 3.98619 12.3234 3.95326 12.3033 3.91282C12.2632 3.83203 12.2043 3.72072 12.1249 3.58908C11.9666 3.32674 11.7235 2.97805 11.3814 2.62834C10.6921 1.92381 9.59192 1.20996 8.00033 1.20996Z" fill="black"/>
<path d="M2.11953 8.5999H7.88935C10.1109 9.46549 10.5895 10.7649 10.4268 11.6869C10.2475 12.703 9.26939 13.5898 8.00009 13.5898C6.63323 13.5898 5.77631 13.0502 5.25534 12.528C4.99021 12.2623 4.80823 11.9965 4.69365 11.7993C4.63659 11.7011 4.59698 11.6211 4.5727 11.5686C4.56059 11.5424 4.55236 11.5231 4.54774 11.512L4.54352 11.5016C4.4267 11.193 4.0823 11.0363 3.77279 11.1516C3.46228 11.2673 3.30438 11.6129 3.4201 11.9234L3.9649 11.7203C3.4201 11.9234 3.41998 11.9231 3.4201 11.9234L3.4206 11.9247L3.42118 11.9263L3.42262 11.9301L3.42661 11.9403C3.42977 11.9484 3.43394 11.9588 3.43914 11.9713C3.44956 11.9965 3.46418 12.0304 3.48334 12.0719C3.52161 12.1547 3.57828 12.2682 3.65608 12.4021C3.81124 12.6692 4.0534 13.0223 4.40584 13.3756C5.12 14.0914 6.27196 14.7898 8.00009 14.7898C9.82574 14.7898 11.3236 13.5101 11.6085 11.8955C11.812 10.7422 11.3901 9.55402 10.2665 8.5999H13.8804C14.2117 8.5999 14.4803 8.33127 14.4803 7.9999C14.4803 7.66853 14.2117 7.3999 13.8804 7.3999H8.01411C8.0048 7.39968 7.99551 7.39969 7.98625 7.3999H2.11953C1.78816 7.3999 1.51953 7.66853 1.51953 7.9999C1.51953 8.33127 1.78816 8.5999 2.11953 8.5999Z" fill="black"/>
</svg>
