<svg width="16" height="16" viewBox="0 0 16 16" fill="none" xmlns="http://www.w3.org/2000/svg">
<path d="M8.00057 1.14502C6.41482 1.14502 5.19291 1.8248 4.59141 2.91162C3.99351 3.99193 4.08577 5.33914 4.84678 6.50619C5.04739 6.81383 5.45941 6.90059 5.76705 6.69999C6.07469 6.49938 6.16146 6.08736 5.96085 5.77972C5.43012 4.96584 5.42803 4.14659 5.75508 3.55566C6.07852 2.97124 6.80086 2.47502 8.00057 2.47502C9.17293 2.47502 9.96454 2.98887 10.4774 3.51306C10.7366 3.77798 10.9221 4.04404 11.042 4.24267C11.1016 4.34146 11.144 4.42201 11.1704 4.4752C11.1836 4.50175 11.1927 4.52133 11.1979 4.53277L11.2027 4.54365C11.3447 4.88089 11.733 5.04065 12.0712 4.9C12.4103 4.75896 12.5708 4.36973 12.4298 4.03062L11.835 4.278C12.4298 4.03061 12.4298 4.03062 12.4298 4.03062L12.4293 4.02935L12.4286 4.02785L12.4271 4.02417L12.4228 4.01411C12.4193 4.00622 12.4148 3.99599 12.4092 3.98358C12.3979 3.95876 12.3822 3.92514 12.3618 3.88398C12.321 3.80177 12.2612 3.68889 12.1807 3.55555C12.0205 3.28994 11.7745 2.93701 11.4281 2.58294C10.7297 1.86915 9.6137 1.14502 8.00057 1.14502Z" fill="black"/>
<path d="M2.11959 8.66496H7.87735C10.0707 9.52325 10.5183 10.7957 10.363 11.6757C10.1894 12.6593 9.2395 13.5249 8.00033 13.5249C6.65304 13.5249 5.8121 12.9939 5.30159 12.4822C5.04119 12.2212 4.86247 11.9601 4.7501 11.7667C4.69415 11.6704 4.65547 11.5923 4.63195 11.5414C4.62021 11.516 4.61233 11.4975 4.60803 11.4872L4.60429 11.4779C4.47466 11.1363 4.09322 10.963 3.75033 11.0908C3.40618 11.219 3.23117 11.602 3.35943 11.9461L3.96417 11.7208C3.35944 11.9462 3.35943 11.9461 3.35943 11.9461L3.35998 11.9476L3.36061 11.9493L3.36215 11.9533L3.36636 11.9642C3.36966 11.9726 3.37397 11.9833 3.37933 11.9963C3.39006 12.0222 3.40503 12.0569 3.42457 12.0992C3.4636 12.1837 3.52119 12.299 3.60012 12.4349C3.75748 12.7057 4.00289 13.0636 4.36006 13.4216C5.08469 14.1479 6.25263 14.8549 8.00033 14.8549C9.85611 14.8549 11.3821 13.5539 11.6728 11.9068C11.8731 10.7716 11.4797 9.61135 10.4389 8.66496H13.8804C14.2477 8.66496 14.5454 8.36723 14.5454 7.99996C14.5454 7.63269 14.2477 7.33496 13.8804 7.33496H8.01564C8.00548 7.33473 7.99533 7.33473 7.98521 7.33496H2.11959C1.75232 7.33496 1.45459 7.63269 1.45459 7.99996C1.45459 8.36723 1.75232 8.66496 2.11959 8.66496Z" fill="black"/>
</svg>
