<svg width="17" height="16" viewBox="0 0 17 16" fill="none" xmlns="http://www.w3.org/2000/svg">
<path d="M10.1852 1.72533C10.4833 1.93982 10.5511 2.35538 10.3367 2.65351L6.4901 8.00014L10.3367 13.3468C10.5511 13.6449 10.4833 14.0605 10.1852 14.275C9.88707 14.4894 9.47151 14.4216 9.25703 14.1235L5.67089 9.13884L2.08475 14.1235C1.87026 14.4216 1.4547 14.4894 1.15657 14.275C0.85844 14.0605 0.790631 13.6449 1.00512 13.3468L4.85167 8.00014L1.00512 2.65351C0.790636 2.35538 0.858445 1.93982 1.15658 1.72533C1.45471 1.51085 1.87027 1.57865 2.08475 1.87679L5.67089 6.86145L9.25702 1.87679C9.47151 1.57865 9.88707 1.51085 10.1852 1.72533Z" fill="black"/>
<path d="M12.7062 10.1147C12.8788 9.96404 13.1731 9.87504 13.4256 9.91429C13.5416 9.93233 13.6269 9.97404 13.6862 10.0265C13.7413 10.0753 13.8027 10.1583 13.8365 10.3137C13.8968 10.5904 13.7573 11.0476 13.3052 11.654C12.8811 12.2229 12.2923 12.7744 11.7831 13.1789C11.2448 13.6064 11.5996 14.4002 12.2096 14.4002L14.6842 14.4001C15.0515 14.4001 15.3492 14.1024 15.3492 13.7351C15.3492 13.3678 15.0514 13.0701 14.6842 13.0701L13.8536 13.0701C14.0366 12.8712 14.212 12.6629 14.3716 12.4489C14.8593 11.7946 15.3284 10.9141 15.1361 10.0307C14.9476 9.16509 14.3106 8.70592 13.6299 8.60008C12.9969 8.50165 12.3057 8.69882 11.8315 9.11277C11.5549 9.35431 11.5264 9.7744 11.7679 10.0511C12.0095 10.3277 12.4296 10.3562 12.7062 10.1147Z" fill="black"/>
</svg>
