<svg width="16" height="16" viewBox="0 0 16 16" fill="none" xmlns="http://www.w3.org/2000/svg">
<path d="M8 1C6.61553 1 5.26215 1.41054 4.11101 2.17971C2.95987 2.94888 2.06266 4.04213 1.53285 5.32121C1.00303 6.6003 0.86441 8.00776 1.13451 9.36563C1.4046 10.7235 2.07129 11.9708 3.05026 12.9497C4.02922 13.9287 5.2765 14.5954 6.63437 14.8655C7.99224 15.1356 9.3997 14.997 10.6788 14.4672C11.9579 13.9373 13.0511 13.0401 13.8203 11.889C14.5895 10.7378 15 9.38447 15 8C14.998 6.14411 14.2598 4.36482 12.9475 3.0525C11.6352 1.74019 9.85589 1.00204 8 1ZM10.5949 7.0949L7.7949 9.8949C7.66363 10.0261 7.48562 10.0998 7.3 10.0998C7.11439 10.0998 6.93637 10.0261 6.8051 9.8949L5.4051 8.4949C5.27759 8.36288 5.20704 8.18606 5.20863 8.00252C5.21023 7.81898 5.28384 7.64341 5.41363 7.51363C5.54341 7.38384 5.71898 7.31022 5.90252 7.30863C6.08606 7.30703 6.26288 7.37759 6.3949 7.5051L7.3 8.4102L9.6051 6.1051C9.73712 5.97759 9.91394 5.90703 10.0975 5.90863C10.281 5.91022 10.4566 5.98384 10.5864 6.11363C10.7162 6.24341 10.7898 6.41898 10.7914 6.60252C10.793 6.78606 10.7224 6.96288 10.5949 7.0949Z" fill="black"/>
</svg>
