<svg width="16" height="16" viewBox="0 0 16 16" fill="none" xmlns="http://www.w3.org/2000/svg">
<path d="M2.3385 4.51172C1.22879 4.51172 0.329194 5.41132 0.329194 6.52103C0.329194 7.63074 1.22879 8.53033 2.3385 8.53033H2.45177C2.88329 8.53033 3.24434 8.88947 3.24434 9.33343C3.24434 9.78911 2.8738 10.1579 2.43057 10.1579H0.893516C0.526246 10.1579 0.228516 10.4556 0.228516 10.8229C0.228516 11.1902 0.526246 11.4879 0.893516 11.4879H2.43057C3.62075 11.4879 4.57434 10.5112 4.57434 9.33343C4.57434 8.16741 3.63024 7.20033 2.45177 7.20033H2.3385C1.96333 7.20033 1.65919 6.8962 1.65919 6.52103C1.65919 6.14586 1.96333 5.84172 2.3385 5.84172H3.90934C4.27661 5.84172 4.57434 5.54399 4.57434 5.17672C4.57434 4.80945 4.27661 4.51172 3.90934 4.51172H2.3385Z" fill="black"/>
<path d="M14.4415 10.8228C14.4415 11.1901 14.7392 11.4878 15.1065 11.4878C15.4738 11.4878 15.7715 11.1901 15.7715 10.8228V8.30976C15.7715 7.27868 14.9356 6.44282 13.9045 6.44282C13.4466 6.44282 13.0272 6.60769 12.7024 6.88131C12.3776 6.60769 11.9582 6.44282 11.5002 6.44282C10.4692 6.44282 9.63331 7.27868 9.63331 8.30976V10.8228C9.63331 11.1901 9.93104 11.4878 10.2983 11.4878C10.6656 11.4878 10.9633 11.1901 10.9633 10.8228V8.30976C10.9633 8.01322 11.2037 7.77282 11.5002 7.77282C11.7968 7.77282 12.0372 8.01322 12.0372 8.30976V10.8228C12.0372 11.1894 12.3339 11.4867 12.7002 11.4878L12.7022 11.4878C13.0695 11.4878 13.3676 11.1901 13.3676 10.8228V8.30976C13.3676 8.01322 13.608 7.77282 13.9045 7.77282C14.2011 7.77282 14.4415 8.01322 14.4415 8.30976V10.8228Z" fill="black"/>
<path d="M6.24699 7.29537C6.24699 6.9281 5.94926 6.63037 5.58199 6.63037C5.21472 6.63037 4.91699 6.9281 4.91699 7.29537V9.43664C4.91699 10.5695 5.83533 11.4878 6.96815 11.4878C8.10098 11.4878 9.01931 10.5695 9.01931 9.43664V7.29537C9.01931 6.9281 8.72158 6.63037 8.35431 6.63037C7.98704 6.63037 7.68931 6.9281 7.68931 7.29537V9.43664C7.68931 9.83493 7.36644 10.1578 6.96815 10.1578C6.56987 10.1578 6.24699 9.83493 6.24699 9.43664L6.24699 7.29537Z" fill="black"/>
</svg>
