<svg width="16" height="16" viewBox="0 0 16 16" fill="none" xmlns="http://www.w3.org/2000/svg">
<path fill-rule="evenodd" clip-rule="evenodd" d="M0.394135 6.52121C0.394135 5.4474 1.26463 4.5769 2.33844 4.5769H3.90929C4.24066 4.5769 4.50929 4.84553 4.50929 5.1769C4.50929 5.50828 4.24066 5.7769 3.90929 5.7769H2.33844C1.92737 5.7769 1.59414 6.11014 1.59414 6.52121C1.59414 6.93228 1.92737 7.26552 2.33844 7.26552H2.45171C3.59368 7.26552 4.50929 8.20288 4.50929 9.33362C4.50929 10.4761 3.58419 11.4231 2.43051 11.4231H0.893457C0.562086 11.4231 0.293457 11.1544 0.293457 10.8231C0.293457 10.4917 0.562086 10.2231 0.893457 10.2231H2.43051C2.91024 10.2231 3.30929 9.82458 3.30929 9.33362C3.30929 8.85437 2.91974 8.46552 2.45171 8.46552H2.33844C1.26463 8.46552 0.394135 7.59502 0.394135 6.52121Z" fill="black"/>
<path fill-rule="evenodd" clip-rule="evenodd" d="M15.1061 11.4231C14.7747 11.4231 14.5061 11.1545 14.5061 10.8231L14.5061 8.31006C14.5061 7.97762 14.2366 7.70812 13.9041 7.70812C13.5717 7.70812 13.3022 7.97762 13.3022 8.31006L13.3022 10.8231C13.3022 11.1545 13.0335 11.4231 12.7022 11.4231C12.3708 11.4231 12.1022 11.1545 12.1022 10.8231L12.1022 8.31006C12.1022 7.31488 12.9089 6.50812 13.9041 6.50812C14.8993 6.50812 15.7061 7.31488 15.7061 8.31006L15.7061 10.8231C15.7061 11.1545 15.4374 11.4231 15.1061 11.4231Z" fill="black"/>
<path fill-rule="evenodd" clip-rule="evenodd" d="M12.7022 11.4231C12.3709 11.4231 12.1022 11.1545 12.1022 10.8231L12.1022 8.31006C12.1022 7.97762 11.8327 7.70812 11.5003 7.70812C11.1679 7.70812 10.8984 7.97762 10.8984 8.31006L10.8984 10.8231C10.8984 11.1545 10.6297 11.4231 10.2984 11.4231C9.967 11.4231 9.69837 11.1545 9.69837 10.8231L9.69837 8.31006C9.69837 7.31488 10.5051 6.50812 11.5003 6.50812C12.4955 6.50812 13.3022 7.31488 13.3022 8.31006L13.3022 10.8231C13.3022 11.1545 13.0336 11.4231 12.7022 11.4231Z" fill="black"/>
<path fill-rule="evenodd" clip-rule="evenodd" d="M5.58193 6.69556C5.9133 6.69556 6.18193 6.96419 6.18193 7.29556L6.18193 9.43683C6.18193 9.87101 6.53391 10.223 6.96809 10.223C7.40228 10.223 7.75425 9.87101 7.75425 9.43683L7.75425 7.29556C7.75425 6.96419 8.02288 6.69556 8.35425 6.69556C8.68563 6.69556 8.95425 6.96419 8.95425 7.29556L8.95425 9.43683C8.95425 10.5338 8.06502 11.423 6.96809 11.423C5.87117 11.423 4.98193 10.5338 4.98193 9.43683L4.98193 7.29556C4.98193 6.96419 5.25056 6.69556 5.58193 6.69556Z" fill="black"/>
</svg>
