<svg width="16" height="16" viewBox="0 0 16 16" fill="none" xmlns="http://www.w3.org/2000/svg">
<path d="M12.6488 3.45665C12.8189 3.30816 13.1096 3.22023 13.3587 3.25896C13.4731 3.27674 13.5568 3.3178 13.6148 3.36911C13.6687 3.41683 13.7291 3.49822 13.7625 3.6515C13.8217 3.92377 13.6846 4.37594 13.2362 4.97755C12.8157 5.54165 12.2317 6.08864 11.7265 6.48996C11.1886 6.91731 11.5428 7.7112 12.1531 7.71119L14.6086 7.71115C14.9759 7.71114 15.2736 7.4134 15.2736 7.04613C15.2736 6.67887 14.9759 6.38114 14.6086 6.38115L13.7957 6.38116C13.9747 6.18612 14.1463 5.98202 14.3025 5.77241C14.7867 5.12288 15.2534 4.24748 15.062 3.36851C14.8744 2.50713 14.2405 2.05008 13.563 1.94475C12.9333 1.84684 12.2458 2.04293 11.7741 2.45476C11.4975 2.69631 11.469 3.1164 11.7105 3.39306C11.9521 3.66973 12.3722 3.6982 12.6488 3.45665Z" fill="black"/>
<path d="M1.17952 2.12646C0.881389 2.34094 0.81358 2.7565 1.02807 3.05463L4.84377 8.3584L1.02835 13.6618C0.813866 13.9599 0.881674 14.3755 1.17981 14.5899C1.47794 14.8044 1.8935 14.7366 2.10798 14.4385L5.66299 9.49709L9.218 14.4385C9.43248 14.7366 9.84804 14.8044 10.1462 14.5899C10.4443 14.3755 10.5121 13.9599 10.2976 13.6618L6.4822 8.3584L10.2979 3.05463C10.5124 2.7565 10.4446 2.34094 10.1465 2.12646C9.84833 1.91197 9.43277 1.97978 9.21828 2.27791L5.66299 7.2197L2.1077 2.27791C1.89321 1.97978 1.47765 1.91197 1.17952 2.12646Z" fill="black"/>
</svg>
