<svg width="16" height="16" viewBox="0 0 16 16" fill="none" xmlns="http://www.w3.org/2000/svg">
<path fill-rule="evenodd" clip-rule="evenodd" d="M7.00111 1.4H7.99008L8.00101 1.3999L8.01195 1.4H9.00111C9.00964 1.4 9.01812 1.40018 9.02656 1.40053L12.001 1.40055C13.4369 1.40056 14.601 2.56461 14.601 4.00055V5.65437L14.6011 5.6665V7.6665L14.601 7.67863V12C14.601 13.436 13.4369 14.6 12.001 14.6H3.99996C2.56415 14.6 1.40014 13.4362 1.39996 12.0004L1.39893 4.00083C1.39874 2.56476 2.56286 1.40049 3.99894 1.4005L6.97595 1.40052C6.98429 1.40017 6.99268 1.4 7.00111 1.4ZM7.40101 2.60052L3.99893 2.6005C3.22566 2.6005 2.59883 3.22741 2.59893 4.00068L2.59948 8.2889C2.60056 8.30362 2.60111 8.3185 2.60111 8.3335V8.7334H7.40101V2.60052ZM2.60111 9.9334V10.3335C2.60111 10.3472 2.60065 10.3608 2.59975 10.3743L2.59996 12.0002C2.60005 12.7733 3.22683 13.4 3.99996 13.4H6.99539L7.00111 13.4H7.40101V9.9334H2.60111ZM9.00683 13.4L9.00111 13.4H8.60101V7.26689H13.401V12C13.401 12.7732 12.7742 13.4 12.001 13.4H9.00683ZM13.401 6.06689H8.60101V2.60053L12.001 2.60055C12.7742 2.60055 13.401 3.22735 13.401 4.00055V6.06689Z" fill="black"/>
</svg>
