<svg width="16" height="16" viewBox="0 0 16 16" fill="none" xmlns="http://www.w3.org/2000/svg">
<path fill-rule="evenodd" clip-rule="evenodd" d="M8.01201 1.33506L8.00165 1.33496L7.98985 1.33506H7.00117C6.99231 1.33506 6.98349 1.33523 6.9747 1.33557L3.999 1.33556C2.52702 1.33555 1.3338 2.52892 1.33398 4.0009L1.33501 12.0004C1.3352 13.4721 2.52831 14.6651 4.00002 14.6651H12.001C13.4729 14.6651 14.666 13.4719 14.666 12.0001V7.67869L14.6662 7.66656L14.6662 5.66592L14.666 5.65408V4.0006C14.666 2.52877 13.4729 1.33561 12.0011 1.3356L9.02794 1.33559C9.01906 1.33523 9.01013 1.33506 9.00117 1.33506H8.01201ZM2.66398 4.00073C2.66389 3.26336 3.26162 2.66555 3.99899 2.66556L7.33607 2.66558V8.66845H2.66617V8.33355C2.66617 8.31779 2.66562 8.30214 2.66454 8.28663L2.66398 4.00073ZM8.66607 6.00195V2.66558L12.0011 2.6656C12.7384 2.66561 13.336 3.26331 13.336 4.0006V6.00195H8.66607ZM8.66607 13.3351V7.33195H13.336V12.0001C13.336 12.7374 12.7383 13.3351 12.001 13.3351H9.00689L9.00117 13.3351H8.66607ZM2.66617 10.3336V9.99845H7.33607V13.3351H7.00087L6.99515 13.3351H4.00002C3.26278 13.3351 2.66511 12.7375 2.66501 12.0003L2.6648 10.3765C2.66571 10.3623 2.66617 10.348 2.66617 10.3336Z" fill="black"/>
</svg>
