<svg width="16" height="16" viewBox="0 0 16 16" fill="none" xmlns="http://www.w3.org/2000/svg">
<path d="M2.06641 1.9999C2.06641 1.66853 2.33504 1.3999 2.66641 1.3999H13.3331C13.6644 1.3999 13.9331 1.66853 13.9331 1.9999V3.64434C13.9331 3.97571 13.6644 4.24434 13.3331 4.24434C13.0017 4.24434 12.7331 3.97571 12.7331 3.64434V2.5999H8.59966V13.3999H10.6665C10.9979 13.3999 11.2665 13.6685 11.2665 13.9999C11.2665 14.3313 10.9979 14.5999 10.6665 14.5999L7.99966 14.5999L5.33315 14.5999C5.00178 14.5999 4.73315 14.3313 4.73315 13.9999C4.73315 13.6685 5.00178 13.3999 5.33315 13.3999H7.39966V2.5999H3.26641V3.64434C3.26641 3.97571 2.99778 4.24434 2.66641 4.24434C2.33504 4.24434 2.06641 3.97571 2.06641 3.64434V1.9999Z" fill="black"/>
</svg>
