<svg width="16" height="16" viewBox="0 0 16 16" fill="none" xmlns="http://www.w3.org/2000/svg">
<path d="M2.66646 1.33496C2.2992 1.33496 2.00146 1.63269 2.00146 1.99996V3.64439C2.00146 4.01166 2.2992 4.30939 2.66646 4.30939C3.03373 4.30939 3.33147 4.01166 3.33147 3.64439V2.66496H7.33472V13.335H5.33321C4.96594 13.335 4.66821 13.6327 4.66821 14C4.66821 14.3672 4.96594 14.665 5.33321 14.665H10.6665C11.0338 14.665 11.3315 14.3672 11.3315 14C11.3315 13.6327 11.0338 13.335 10.6665 13.335H8.66472V2.66496H12.6681V3.64439C12.6681 4.01166 12.9659 4.30939 13.3331 4.30939C13.7004 4.30939 13.9981 4.01166 13.9981 3.64439V1.99996C13.9981 1.63269 13.7004 1.33496 13.3331 1.33496H2.66646Z" fill="black"/>
</svg>
