<svg width="17" height="16" viewBox="0 0 17 16" fill="none" xmlns="http://www.w3.org/2000/svg">
<g clip-path="url(#clip0_1293_26)">
<path d="M2.22896 2.00684C1.8617 2.00684 1.56396 2.30457 1.56396 2.67184C1.56396 3.03911 1.8617 3.33684 2.22896 3.33684H6.23047V14.0052C6.23047 14.3724 6.5282 14.6702 6.89547 14.6702C7.26274 14.6702 7.56047 14.3724 7.56047 14.0052V3.33684H11.5623C11.9296 3.33684 12.2273 3.03911 12.2273 2.67184C12.2273 2.30457 11.9296 2.00684 11.5623 2.00684H2.22896Z" fill="black"/>
<path d="M10.229 6.34009C9.8617 6.34009 9.56396 6.63782 9.56396 7.00509C9.56396 7.37236 9.8617 7.67009 10.229 7.67009H12.2305V14.0051C12.2305 14.3724 12.5282 14.6701 12.8955 14.6701C13.2627 14.6701 13.5605 14.3724 13.5605 14.0051V7.67009H15.5623C15.9296 7.67009 16.2273 7.37236 16.2273 7.00509C16.2273 6.63782 15.9296 6.34009 15.5623 6.34009H10.229Z" fill="black"/>
</g>
<defs>
<clipPath id="clip0_1293_26">
<rect width="16" height="16" fill="white" transform="translate(0.895508 0.00537109)"/>
</clipPath>
</defs>
</svg>
