<svg width="17" height="16" viewBox="0 0 17 16" fill="none" xmlns="http://www.w3.org/2000/svg">
<path fill-rule="evenodd" clip-rule="evenodd" d="M1.87646 3.64986C1.87646 2.17802 3.06963 0.984863 4.54146 0.984863H13.2415C14.7133 0.984863 15.9065 2.17803 15.9065 3.64986V12.3499C15.9065 13.8217 14.7133 15.0149 13.2415 15.0149H4.54146C3.06962 15.0149 1.87646 13.8217 1.87646 12.3499V3.64986ZM3.20646 8.66487V12.3499C3.20646 13.0872 3.80416 13.6849 4.54146 13.6849H8.22632V8.66487H3.20646ZM8.22632 7.33487H3.20646V3.64986C3.20646 2.91256 3.80416 2.31486 4.54146 2.31486H8.22632V7.33487ZM9.55632 8.66487V13.6849H13.2415C13.9788 13.6849 14.5765 13.0872 14.5765 12.3499V8.66487H9.55632ZM14.5765 7.33487H9.55632V2.31486H13.2415C13.9788 2.31486 14.5765 2.91256 14.5765 3.64986V7.33487Z" fill="black"/>
</svg>
