<svg width="16" height="16" viewBox="0 0 16 16" fill="none" xmlns="http://www.w3.org/2000/svg">
<path d="M5.00974 1.69624C4.75004 1.43654 4.32898 1.43654 4.06929 1.69624L2.53951 3.22601L2.00974 2.69624C1.75004 2.43654 1.32898 2.43654 1.06929 2.69624C0.809587 2.95594 0.809587 3.37699 1.06929 3.63669L2.06929 4.63669C2.32898 4.89639 2.75004 4.89639 3.00974 4.63669L5.00974 2.63669C5.26944 2.37699 5.26944 1.95594 5.00974 1.69624Z" fill="black"/>
<path d="M6.89815 2.50146C6.53088 2.50146 6.23315 2.7992 6.23315 3.16646C6.23315 3.53373 6.53088 3.83147 6.89815 3.83147H14.4605C14.8278 3.83147 15.1255 3.53373 15.1255 3.16646C15.1255 2.7992 14.8278 2.50146 14.4605 2.50146H6.89815Z" fill="black"/>
<path fill-rule="evenodd" clip-rule="evenodd" d="M2.87285 5.83447C1.7692 5.83447 0.874512 6.72916 0.874512 7.83281C0.874512 8.93646 1.7692 9.83114 2.87285 9.83114C3.97649 9.83114 4.87118 8.93646 4.87118 7.83281C4.87118 6.72916 3.97649 5.83447 2.87285 5.83447ZM2.20451 7.83281C2.20451 7.4637 2.50373 7.16447 2.87285 7.16447C3.24196 7.16447 3.54118 7.4637 3.54118 7.83281C3.54118 8.20192 3.24196 8.50114 2.87285 8.50114C2.50373 8.50114 2.20451 8.20192 2.20451 7.83281Z" fill="black"/>
<path d="M6.89815 7.16797C6.53088 7.16797 6.23315 7.4657 6.23315 7.83297C6.23315 8.20024 6.53088 8.49797 6.89815 8.49797H14.4605C14.8278 8.49797 15.1255 8.20024 15.1255 7.83297C15.1255 7.4657 14.8278 7.16797 14.4605 7.16797H6.89815Z" fill="black"/>
<path fill-rule="evenodd" clip-rule="evenodd" d="M2.87285 10.5015C1.7692 10.5015 0.874512 11.3961 0.874512 12.4998C0.874512 13.6034 1.7692 14.4981 2.87285 14.4981C3.97649 14.4981 4.87118 13.6034 4.87118 12.4998C4.87118 11.3961 3.97649 10.5015 2.87285 10.5015ZM2.20451 12.4998C2.20451 12.1307 2.50373 11.8315 2.87285 11.8315C3.24196 11.8315 3.54118 12.1307 3.54118 12.4998C3.54118 12.8689 3.24196 13.1681 2.87285 13.1681C2.50373 13.1681 2.20451 12.8689 2.20451 12.4998Z" fill="black"/>
<path d="M6.89815 11.8345C6.53088 11.8345 6.23315 12.1322 6.23315 12.4995C6.23315 12.8667 6.53088 13.1645 6.89815 13.1645H14.4605C14.8278 13.1645 15.1255 12.8667 15.1255 12.4995C15.1255 12.1322 14.8278 11.8345 14.4605 11.8345H6.89815Z" fill="black"/>
</svg>
