<svg width="16" height="16" viewBox="0 0 16 16" fill="none" xmlns="http://www.w3.org/2000/svg">
<path d="M7.33496 5.79077C7.33496 6.15804 7.63269 6.45577 7.99996 6.45577C8.36723 6.45577 8.66496 6.15804 8.66496 5.79077V3.43907L9.52973 4.30385C9.78943 4.56354 10.2105 4.56354 10.4702 4.30385C10.7299 4.04415 10.7299 3.62309 10.4702 3.36339L8.47931 1.37254C8.35843 1.2471 8.18803 1.16846 7.99996 1.16846C7.81187 1.16846 7.64193 1.24663 7.52105 1.37208L5.52974 3.36339C5.27004 3.62309 5.27004 4.04415 5.52974 4.30385C5.78943 4.56354 6.21049 4.56354 6.47019 4.30385L7.33496 3.43907V5.79077Z" fill="black"/>
<path fill-rule="evenodd" clip-rule="evenodd" d="M1.11011 8.99996C1.11011 8.08041 1.85555 7.33496 2.77511 7.33496H13.0751C13.9947 7.33496 14.7401 8.08041 14.7401 8.99996C14.7401 9.91952 13.9947 10.665 13.0751 10.665H2.77511C1.85556 10.665 1.11011 9.91952 1.11011 8.99996ZM2.77511 8.66496C2.59009 8.66496 2.44011 8.81495 2.44011 8.99996C2.44011 9.18497 2.59009 9.33496 2.77511 9.33496H13.0751C13.2601 9.33496 13.4101 9.18498 13.4101 8.99996C13.4101 8.81495 13.2601 8.66496 13.0751 8.66496H2.77511Z" fill="black"/>
<path fill-rule="evenodd" clip-rule="evenodd" d="M1.26001 13.1665C1.26001 12.2469 2.00546 11.5015 2.92501 11.5015H13.225C14.1446 11.5015 14.89 12.2469 14.89 13.1665C14.89 14.086 14.1446 14.8315 13.225 14.8315H2.92501C2.00546 14.8315 1.26001 14.086 1.26001 13.1665ZM2.92501 12.8315C2.73999 12.8315 2.59001 12.9814 2.59001 13.1665C2.59001 13.3515 2.73999 13.5015 2.92501 13.5015H13.225C13.41 13.5015 13.56 13.3515 13.56 13.1665C13.56 12.9814 13.41 12.8315 13.225 12.8315H2.92501Z" fill="black"/>
</svg>
