<svg width="17" height="16" viewBox="0 0 17 16" fill="none" xmlns="http://www.w3.org/2000/svg">
<path d="M7.82994 1.40913C7.88746 1.35161 7.95376 1.30821 8.02453 1.27893C8.09527 1.24959 8.17285 1.2334 8.2542 1.2334C8.33555 1.2334 8.41313 1.24959 8.48387 1.27893C8.55464 1.30821 8.62094 1.35161 8.67846 1.40913L10.6785 3.40913C10.9128 3.64345 10.9128 4.02335 10.6785 4.25766C10.4441 4.49198 10.0642 4.49198 9.82994 4.25766L8.8542 3.28193V5.8334C8.8542 6.16477 8.58557 6.4334 8.2542 6.4334C7.92283 6.4334 7.6542 6.16477 7.6542 5.8334V3.28193L6.67846 4.25766C6.44415 4.49198 6.06425 4.49198 5.82994 4.25766C5.59562 4.02335 5.59562 3.64345 5.82994 3.40913L7.82994 1.40913Z" fill="black"/>
<path fill-rule="evenodd" clip-rule="evenodd" d="M1.50439 9C1.50439 8.11634 2.22074 7.4 3.10439 7.4H13.4044C14.288 7.4 15.0044 8.11634 15.0044 9C15.0044 9.88366 14.2881 10.6 13.4044 10.6H3.1044C2.22074 10.6 1.50439 9.88366 1.50439 9ZM3.10439 8.6C2.88348 8.6 2.70439 8.77909 2.70439 9C2.70439 9.22091 2.88348 9.4 3.1044 9.4H13.4044C13.6253 9.4 13.8044 9.22091 13.8044 9C13.8044 8.77909 13.6253 8.6 13.4044 8.6H3.10439Z" fill="black"/>
<path fill-rule="evenodd" clip-rule="evenodd" d="M1.6543 13.1665C1.6543 12.2828 2.37064 11.5665 3.2543 11.5665H13.5543C14.438 11.5665 15.1543 12.2828 15.1543 13.1665C15.1543 14.0502 14.438 14.7665 13.5543 14.7665H3.2543C2.37064 14.7665 1.6543 14.0502 1.6543 13.1665ZM3.2543 12.7665C3.03338 12.7665 2.8543 12.9456 2.8543 13.1665C2.8543 13.3874 3.03338 13.5665 3.2543 13.5665H13.5543C13.7752 13.5665 13.9543 13.3874 13.9543 13.1665C13.9543 12.9456 13.7752 12.7665 13.5543 12.7665H3.2543Z" fill="black"/>
</svg>
