<svg width="17" height="16" viewBox="0 0 17 16" fill="none" xmlns="http://www.w3.org/2000/svg">
<path fill-rule="evenodd" clip-rule="evenodd" d="M1.41064 3.65005C1.41064 2.21411 2.5747 1.05005 4.01064 1.05005H12.7106C14.1466 1.05005 15.3106 2.21411 15.3106 3.65005V4.42505C15.3106 4.75642 15.042 5.02505 14.7106 5.02505C14.3793 5.02505 14.1106 4.75642 14.1106 4.42505V3.65005C14.1106 2.87685 13.4838 2.25005 12.7106 2.25005H11.0774V5.86798L11.0776 5.88345L11.0774 5.89892V10.1014L11.0776 10.1168L11.0774 10.1323V13.75H12.7106C13.4838 13.75 14.1106 13.1232 14.1106 12.35V11.575C14.1106 11.2437 14.3793 10.975 14.7106 10.975C15.042 10.975 15.3106 11.2437 15.3106 11.575V12.35C15.3106 13.786 14.1466 14.95 12.7106 14.95H4.01064C2.5747 14.95 1.41064 13.786 1.41064 12.35V3.65005ZM9.87744 5.28345V2.25005H6.84404V5.28345H9.87744ZM6.84404 6.48345H9.87744V9.51685H6.84404V6.48345ZM5.64404 5.28345V2.25005H4.01064C3.23745 2.25005 2.61064 2.87685 2.61064 3.65005V5.28345H5.64404ZM2.61064 6.48345H5.64404V9.51684H2.61064V6.48345ZM5.64404 10.7168H2.61064V12.35C2.61064 13.1232 3.23744 13.75 4.01064 13.75H5.64404V10.7168ZM9.87744 10.7168H6.84404V13.75H9.87744V10.7168Z" fill="black"/>
<path d="M14.4099 8.6018L12.126 8.60211C11.7946 8.60215 11.5259 8.33356 11.5259 8.00218C11.5258 7.67081 11.7944 7.40215 12.1258 7.40211L14.4139 7.4018L13.8452 6.8331C13.6109 6.59879 13.6109 6.21889 13.8452 5.98457C14.0795 5.75026 14.4594 5.75026 14.6937 5.98457L16.2847 7.57557L16.2873 7.57818C16.3954 7.68668 16.4622 7.8363 16.4622 8.00153C16.4622 8.18702 16.3781 8.35286 16.2459 8.46293L14.6937 10.0151C14.4594 10.2494 14.0795 10.2494 13.8452 10.0151C13.6109 9.78075 13.6109 9.40086 13.8452 9.16654L14.4099 8.6018Z" fill="black"/>
</svg>
