<svg width="16" height="16" viewBox="0 0 16 16" fill="none" xmlns="http://www.w3.org/2000/svg">
<path d="M6.34322 9.24451C5.97595 9.24451 5.67822 9.54224 5.67822 9.90951C5.67822 10.2768 5.97595 10.5745 6.34322 10.5745H9.65652C10.0238 10.5745 10.3215 10.2768 10.3215 9.90951C10.3215 9.54224 10.0238 9.24451 9.65652 9.24451H6.34322Z" fill="black"/>
<path fill-rule="evenodd" clip-rule="evenodd" d="M6.11892 1.18408C5.28441 1.18408 4.57881 1.80185 4.46852 2.62903L4.28445 4.00952H1.63863C1.27136 4.00952 0.973633 4.30725 0.973633 4.67452C0.973633 5.04179 1.27136 5.33952 1.63863 5.33952H3.1021L4.05259 13.3468C4.15204 14.1846 4.86235 14.8155 5.70598 14.8155H10.2956C11.1393 14.8155 11.8497 14.1844 11.949 13.3466L12.8982 5.33952H14.3617C14.7289 5.33952 15.0267 5.04179 15.0267 4.67452C15.0267 4.30725 14.7289 4.00952 14.3617 4.00952H11.7157L11.5316 2.62903C11.4213 1.80185 10.7157 1.18408 9.8812 1.18408H6.11892ZM5.78685 2.80481C5.80904 2.63838 5.95101 2.51408 6.11892 2.51408H9.8812C10.0491 2.51408 10.1911 2.63838 10.2133 2.80481L10.3739 4.00952H5.62622L5.78685 2.80481ZM5.37332 13.19L4.44144 5.33952H11.5589L10.6282 13.19C10.6082 13.3586 10.4653 13.4855 10.2956 13.4855H5.70598C5.53624 13.4855 5.39333 13.3586 5.37332 13.19Z" fill="black"/>
</svg>
