<svg width="16" height="16" viewBox="0 0 16 16" fill="none" xmlns="http://www.w3.org/2000/svg">
<path fill-rule="evenodd" clip-rule="evenodd" d="M6.11853 1.1842C5.28403 1.1842 4.57843 1.80197 4.46814 2.62915L4.28407 4.00964H1.63814C1.27088 4.00964 0.973145 4.30737 0.973145 4.67464C0.973145 5.04191 1.27088 5.33964 1.63814 5.33964H3.10162L4.05211 13.3469C4.15155 14.1847 4.86186 14.8157 5.7055 14.8157H10.2951C11.1388 14.8157 11.8492 14.1845 11.9485 13.3467L12.8977 5.33964H14.3612C14.7285 5.33964 15.0262 5.04191 15.0262 4.67464C15.0262 4.30737 14.7285 4.00964 14.3612 4.00964H11.7153L11.5312 2.62915C11.4209 1.80197 10.7153 1.1842 9.88082 1.1842H6.11853ZM5.78647 2.80493C5.80866 2.6385 5.95063 2.5142 6.11853 2.5142H9.88082C10.0487 2.5142 10.1907 2.6385 10.2129 2.80493L10.3735 4.00964H5.62584L5.78647 2.80493ZM5.80822 9.90963C5.80822 9.61416 6.04775 9.37463 6.34322 9.37463H9.65652C9.95199 9.37463 10.1915 9.61416 10.1915 9.90963C10.1915 10.2051 9.95199 10.4446 9.65652 10.4446H6.34322C6.04775 10.4446 5.80822 10.2051 5.80822 9.90963Z" fill="black"/>
</svg>
