<svg width="16" height="16" viewBox="0 0 16 16" fill="none" xmlns="http://www.w3.org/2000/svg">
<path fill-rule="evenodd" clip-rule="evenodd" d="M14.4443 2.27805C14.7843 2.69781 14.8821 3.29421 14.6055 3.85164C14.3871 4.29204 14.1122 4.8016 13.7759 5.34836C14.3497 6.24932 14.6822 7.31901 14.6822 8.46635C14.6822 11.6763 12.0801 14.2784 8.87015 14.2784C7.34561 14.2784 5.95817 13.6914 4.92149 12.7311C4.22164 12.9808 3.55223 13.1137 2.96656 13.0557C2.34116 12.9939 1.78997 12.7073 1.46734 12.1265C0.976584 11.2429 1.3433 10.2606 1.78548 9.56455C2.132 9.0191 2.60289 8.51828 3.05881 8.14946C3.0555 8.08572 3.06235 8.02097 3.08007 7.95768C3.33773 4.98598 5.83164 2.65431 8.87015 2.65431C10.4723 2.65431 11.923 3.30256 12.9744 4.35108C13.1903 3.98006 13.3751 3.63163 13.5306 3.31834C13.5917 3.19516 13.5663 3.10056 13.5119 3.03339C13.4527 2.96035 13.3397 2.90029 13.1814 2.92903L12.9553 2.97008C12.6292 3.02926 12.3169 2.81292 12.2577 2.48688C12.1986 2.16084 12.4149 1.84855 12.7409 1.78937L12.9671 1.74832C13.5563 1.64137 14.109 1.86416 14.4443 2.27805ZM12.3141 5.39867C11.4694 4.45105 10.2395 3.85431 8.87015 3.85431C8.8359 3.85431 8.80174 3.85468 8.76766 3.85543C8.76988 3.85801 8.7721 3.86061 8.77431 3.8632C9.06289 4.20226 9.28493 4.65063 9.24552 5.19023C9.2112 5.65993 8.97856 5.94937 8.81448 6.13076C8.78142 6.16732 8.75619 6.19446 8.73565 6.21657C8.69923 6.25574 8.67755 6.27907 8.65306 6.31087C8.64862 6.31663 8.64502 6.32158 8.64209 6.32578C8.64403 6.33603 8.64675 6.34925 8.65057 6.36587C8.6526 6.37475 8.65537 6.38603 8.65865 6.39938C8.67894 6.4821 8.71873 6.64426 8.72532 6.80729C8.73426 7.02847 8.68972 7.27279 8.53907 7.52006C8.39659 7.75391 8.17953 7.95702 7.89875 8.14423C7.52124 8.39594 6.8199 8.7301 6.02156 8.90514C5.49684 9.02018 4.88811 9.0754 4.28465 8.96396C4.37883 9.84186 4.71934 10.646 5.2357 11.306C6.39082 10.7745 7.78346 9.88512 9.28642 8.69767C10.5669 7.68599 11.5638 6.49991 12.3141 5.39867ZM6.15468 12.1946C6.91644 12.7504 7.855 13.0784 8.87015 13.0784C8.91948 13.0784 8.96862 13.0776 9.01756 13.0761C9.06242 12.8969 9.12824 12.6719 9.22288 12.4224C9.44928 11.8254 9.85395 11.0526 10.5648 10.4432C11.2678 9.84065 12.0603 9.54747 12.6613 9.40323C12.9631 9.33082 13.2236 9.29426 13.4114 9.27572C13.4579 9.01294 13.4822 8.74248 13.4822 8.46635C13.4822 7.75105 13.3194 7.07379 13.0287 6.46961C12.2584 7.53774 11.2696 8.66018 10.0303 9.63926C8.65747 10.7239 7.33373 11.6001 6.15468 12.1946ZM12.9802 10.561C12.9674 10.5639 12.9544 10.567 12.9413 10.5701C12.4564 10.6865 11.8589 10.9145 11.3458 11.3543C10.8448 11.7838 10.535 12.3508 10.3494 12.836C11.4942 12.4486 12.4373 11.624 12.9802 10.561ZM4.06887 11.7426C3.65141 11.132 3.34739 10.4377 3.18717 9.69006C3.04551 9.85342 2.91265 10.0281 2.79836 10.208C2.41292 10.8147 2.36304 11.2677 2.51639 11.5438C2.61033 11.7129 2.76742 11.8302 3.0847 11.8616C3.33506 11.8863 3.66317 11.8522 4.06887 11.7426ZM4.31496 7.74014C4.75334 7.86349 5.25752 7.84415 5.76457 7.73298C6.41759 7.5898 6.98024 7.31438 7.23304 7.14582M4.31496 7.74014C4.57607 6.08926 5.71309 4.72974 7.23505 4.15255C7.49497 4.30246 7.71387 4.46871 7.86049 4.64098C8.01087 4.81766 8.05867 4.96644 8.04871 5.10281C8.04356 5.17326 8.02547 5.2142 7.92455 5.32577C7.91582 5.33542 7.9043 5.34744 7.89059 5.36173C7.78498 5.47188 7.5499 5.71706 7.46661 6.05377C7.40532 6.30168 7.45597 6.52538 7.48099 6.63436C7.48905 6.66947 7.49575 6.69792 7.50131 6.7215C7.51879 6.79567 7.52493 6.82173 7.5263 6.85575L7.52638 6.8576C7.52688 6.86925 7.52712 6.87464 7.51429 6.8957C7.49262 6.93127 7.42499 7.01783 7.23304 7.14582M8.63038 6.3453L8.63092 6.34395Z" fill="black"/>
</svg>
