<svg width="16" height="16" viewBox="0 0 16 16" fill="none" xmlns="http://www.w3.org/2000/svg">
<path fill-rule="evenodd" clip-rule="evenodd" d="M14.4423 2.33737C14.8229 2.7717 14.9369 3.4099 14.6373 4.00426C14.3785 4.51738 14.0464 5.11681 13.6334 5.75567C14.0903 6.57274 14.3507 7.51458 14.3507 8.51725C14.3507 11.6469 11.8136 14.1839 8.684 14.1839C7.2679 14.1839 5.97312 13.6645 4.97981 12.8057C4.27181 13.0594 3.58812 13.1971 2.98577 13.1375C2.34325 13.074 1.77017 12.778 1.43484 12.1743C0.925334 11.257 1.30965 10.2452 1.75498 9.54427C2.10244 8.99735 2.57304 8.49507 3.03086 8.12267C3.23345 5.17714 5.68702 2.85059 8.684 2.85059C10.2956 2.85059 11.7501 3.52336 12.7819 4.60337C13.0431 4.17255 13.2638 3.76667 13.4467 3.40396C13.4758 3.34627 13.4761 3.30819 13.4733 3.28735C13.4702 3.26389 13.4599 3.23934 13.4396 3.21617C13.4015 3.17273 13.3196 3.12672 13.1893 3.16144C12.8335 3.25627 12.4683 3.04473 12.3734 2.68896C12.2786 2.33319 12.4902 1.96791 12.8459 1.87309C13.4635 1.70848 14.0681 1.91034 14.4423 2.33737ZM8.97247 4.19337C10.1975 4.27388 11.2836 4.86349 12.021 5.75264C11.3087 6.73906 10.4005 7.76836 9.27086 8.66083C7.80009 9.82286 6.43784 10.6968 5.30341 11.2285C4.83843 10.6495 4.51915 9.94844 4.40119 9.18105C5.29209 9.2333 6.08356 9.21183 6.73654 9.0436C7.46706 8.85538 8.07044 8.46905 8.41579 7.77762C8.64225 7.32423 8.65813 6.92675 8.58813 6.60344C8.5846 6.5871 8.58087 6.57112 8.57701 6.55553C8.60501 6.5298 8.63332 6.50322 8.66015 6.47704C8.87035 6.27193 9.22839 5.87571 9.25786 5.31423C9.27536 4.98094 9.22256 4.67768 9.09492 4.40801C9.05834 4.33071 9.0171 4.25934 8.97247 4.19337ZM10.0974 9.70703C8.7863 10.7429 7.5179 11.5906 6.37542 12.1851C7.04378 12.6067 7.8354 12.8506 8.684 12.8506C8.72315 12.8506 8.76217 12.8501 8.80107 12.849C9.01556 11.6975 9.67219 10.8349 10.4327 10.2273C11.2698 9.55838 12.252 9.17817 12.9896 9.01047C13.0079 8.8486 13.0173 8.68403 13.0173 8.51725C13.0173 7.98636 12.9219 7.47777 12.7472 7.00771C12.033 7.9299 11.1564 8.87042 10.0974 9.70703ZM12.5112 10.5513C12.0963 10.7178 11.6549 10.9531 11.2629 11.2663C10.8376 11.6062 10.4797 12.0279 10.267 12.5523C11.232 12.1735 12.0282 11.4584 12.5112 10.5513ZM3.1757 9.85314C3.33887 10.5283 3.62296 11.1564 4.00375 11.713C3.63761 11.8057 3.34232 11.833 3.11704 11.8107C2.81688 11.781 2.68168 11.6732 2.60044 11.5269C2.46584 11.2846 2.49811 10.861 2.8804 10.2592C2.96903 10.1198 3.06904 9.98338 3.1757 9.85314ZM7.10685 4.47987C5.6932 5.0325 4.64084 6.30615 4.40194 7.84862C5.28374 7.90429 5.9359 7.87644 6.40471 7.75566C6.86681 7.6366 7.09567 7.44416 7.22595 7.18333C7.31236 7.01033 7.29647 6.92283 7.28825 6.88488C7.28145 6.85344 7.27057 6.82276 7.24831 6.76769L7.24494 6.75938C7.23548 6.73613 7.21813 6.69348 7.20457 6.65388C7.19168 6.61625 7.15587 6.51028 7.15587 6.37907C7.15587 6.2194 7.21008 6.09887 7.24331 6.03698C7.27884 5.97079 7.3185 5.92027 7.34488 5.88905C7.39656 5.82789 7.45483 5.77435 7.49186 5.74094C7.52654 5.70966 7.55636 5.68358 7.58419 5.65923C7.63399 5.61567 7.67764 5.57748 7.73128 5.52514C7.8998 5.3607 7.92821 5.27279 7.92969 5.24452C7.93744 5.09692 7.91245 5.01855 7.89277 4.97698C7.87268 4.93453 7.83923 4.89071 7.77367 4.83902C7.70248 4.7829 7.60787 4.7284 7.47242 4.66091C7.44246 4.64598 7.40696 4.62881 7.36816 4.61003C7.28858 4.57153 7.19508 4.52629 7.10685 4.47987Z" fill="black"/>
</svg>
