<svg width="16" height="16" viewBox="0 0 16 16" fill="none" xmlns="http://www.w3.org/2000/svg">
<path d="M12.6662 1.39893C11.807 1.39893 11.0786 1.95949 10.827 2.73486H8.33291C7.44926 2.73486 6.73291 3.45121 6.73291 4.33486V7.39893H5.17221C4.91937 6.62557 4.19203 6.06689 3.33421 6.06689C2.26646 6.06689 1.40088 6.93248 1.40088 8.00023C1.40088 9.06798 2.26646 9.93356 3.33421 9.93356C4.193 9.93356 4.921 9.37363 5.17306 8.59893H6.73291V11.6682C6.73291 12.5519 7.44925 13.2682 8.33291 13.2682H10.8278C11.0803 14.0422 11.8079 14.6015 12.6662 14.6015C13.734 14.6015 14.5996 13.7359 14.5996 12.6682C14.5996 11.6004 13.734 10.7349 12.6662 10.7349C11.8079 10.7349 11.0803 11.2942 10.8278 12.0682H8.33291C8.112 12.0682 7.93291 11.8891 7.93291 11.6682V8.59893H10.8274C11.0795 9.37363 11.8075 9.93356 12.6662 9.93356C13.734 9.93356 14.5996 9.06798 14.5996 8.00023C14.5996 6.93248 13.734 6.06689 12.6662 6.06689C11.8084 6.06689 11.0811 6.62557 10.8282 7.39893H7.93291V4.33486C7.93291 4.11395 8.112 3.93486 8.33291 3.93486H10.8287C11.0819 4.70754 11.8089 5.26559 12.6662 5.26559C13.734 5.26559 14.5996 4.40001 14.5996 3.33226C14.5996 2.26451 13.734 1.39893 12.6662 1.39893Z" fill="black"/>
</svg>
