<svg width="16" height="16" viewBox="0 0 16 16" fill="none" xmlns="http://www.w3.org/2000/svg">
<g clip-path="url(#clip0_1359_43)">
<path fill-rule="evenodd" clip-rule="evenodd" d="M12.9415 0.981934C12.0276 0.981934 11.2518 1.57218 10.9741 2.39209H8.29537C7.37582 2.39209 6.63037 3.13754 6.63037 4.05709V7.3335H5.02613C4.74842 6.51358 3.97257 5.92334 3.05869 5.92334C1.91173 5.92334 0.981934 6.85314 0.981934 8.0001C0.981934 9.14706 1.91173 10.0769 3.05869 10.0769C3.97375 10.0769 4.75044 9.48507 5.02721 8.6635H6.63037V11.9394C6.63037 12.8589 7.37582 13.6044 8.29537 13.6044H10.9728C11.2494 14.4262 12.0262 15.0183 12.9415 15.0183C14.0885 15.0183 15.0183 14.0885 15.0183 12.9415C15.0183 11.7945 14.0885 10.8647 12.9415 10.8647C12.0278 10.8647 11.2521 11.4547 10.9742 12.2744H8.29537C8.11036 12.2744 7.96037 12.1244 7.96037 11.9394V8.6635H10.973C11.2498 9.48507 12.0264 10.0769 12.9415 10.0769C14.0885 10.0769 15.0183 9.14706 15.0183 8.0001C15.0183 6.85314 14.0885 5.92334 12.9415 5.92334C12.0276 5.92334 11.2518 6.51358 10.9741 7.3335H7.96037V4.05709C7.96037 3.87207 8.11036 3.72209 8.29537 3.72209H10.973C11.2498 4.54367 12.0264 5.13545 12.9415 5.13545C14.0885 5.13545 15.0183 4.20565 15.0183 3.05869C15.0183 1.91173 14.0885 0.981934 12.9415 0.981934ZM12.1956 3.05709C12.1956 3.04888 12.1955 3.0407 12.1952 3.03255C12.2089 2.63225 12.5378 2.31193 12.9415 2.31193C13.3539 2.31193 13.6883 2.64627 13.6883 3.05869C13.6883 3.47111 13.3539 3.80545 12.9415 3.80545C12.5373 3.80545 12.208 3.48423 12.1951 3.08314C12.1955 3.0745 12.1956 3.06581 12.1956 3.05709ZM2.31193 8.0001C2.31193 7.58767 2.64627 7.25334 3.05869 7.25334C3.46082 7.25334 3.78874 7.57122 3.80483 7.96938C3.80441 7.97904 3.8042 7.98874 3.8042 7.9985C3.8042 8.00875 3.80443 8.01896 3.80489 8.02912C3.78967 8.42807 3.46139 8.74685 3.05869 8.74685C2.64627 8.74685 2.31193 8.41252 2.31193 8.0001ZM12.1947 8.0001C12.1947 7.58767 12.5291 7.25334 12.9415 7.25334C13.3539 7.25334 13.6883 7.58767 13.6883 8.0001C13.6883 8.41252 13.3539 8.74685 12.9415 8.74685C12.5291 8.74685 12.1947 8.41252 12.1947 8.0001ZM12.1956 12.9394C12.1956 12.9313 12.1955 12.9232 12.1952 12.9151C12.2091 12.5149 12.5379 12.1947 12.9415 12.1947C13.3539 12.1947 13.6883 12.5291 13.6883 12.9415C13.6883 13.3539 13.3539 13.6883 12.9415 13.6883C12.537 13.6883 12.2077 13.3667 12.1951 12.9653L12.1955 12.9529L12.1956 12.9394Z" fill="black"/>
</g>
<defs>
<clipPath id="clip0_1359_43">
<rect width="16" height="16" fill="white"/>
</clipPath>
</defs>
</svg>
