<svg width="16" height="16" viewBox="0 0 16 16" fill="none" xmlns="http://www.w3.org/2000/svg">
<path d="M12.6663 1.3335C11.7947 1.3335 11.0536 1.89142 10.7804 2.66943H8.33297C7.41342 2.66943 6.66797 3.41488 6.66797 4.33443V7.3335H5.21881C4.94444 6.55752 4.20438 6.00146 3.33427 6.00146C2.23062 6.00146 1.33594 6.89615 1.33594 7.9998C1.33594 9.10345 2.23062 9.99813 3.33427 9.99813C4.20535 9.99813 4.9461 9.44083 5.21973 8.6635H6.66797V11.6678C6.66797 12.5873 7.41341 13.3328 8.33297 13.3328H10.7813C11.0553 14.1094 11.7957 14.6661 12.6663 14.6661C13.77 14.6661 14.6646 13.7714 14.6646 12.6678C14.6646 11.5641 13.77 10.6694 12.6663 10.6694C11.7957 10.6694 11.0553 11.2261 10.7813 12.0028H8.33297C8.14795 12.0028 7.99797 11.8528 7.99797 11.6678V8.6635H10.7808C11.0545 9.44083 11.7952 9.99813 12.6663 9.99813C13.77 9.99813 14.6646 9.10345 14.6646 7.9998C14.6646 6.89615 13.77 6.00146 12.6663 6.00146C11.7962 6.00146 11.0561 6.55752 10.7818 7.3335H7.99797V4.33443C7.99797 4.14942 8.14795 3.99943 8.33297 3.99943H10.7822C11.057 4.77473 11.7967 5.33016 12.6663 5.33016C13.77 5.33016 14.6646 4.43548 14.6646 3.33183C14.6646 2.22818 13.77 1.3335 12.6663 1.3335Z" fill="black"/>
</svg>
