<svg width="16" height="16" viewBox="0 0 16 16" fill="none" xmlns="http://www.w3.org/2000/svg">
<path d="M2.21578 1.73535C2.58305 1.73535 2.88078 2.03308 2.88078 2.40035V14.0004C2.88078 14.3676 2.58305 14.6654 2.21578 14.6654C1.84851 14.6654 1.55078 14.3676 1.55078 14.0004V2.40035C1.55078 2.03308 1.84851 1.73535 2.21578 1.73535Z" fill="black"/>
<path d="M13.7841 1.73535C14.1514 1.73535 14.4491 2.03308 14.4491 2.40035V14.0004C14.4491 14.3676 14.1514 14.6654 13.7841 14.6654C13.4169 14.6654 13.1191 14.3676 13.1191 14.0004V8.66765H7.13473C6.76746 8.66765 6.46973 8.36992 6.46973 8.00265C6.46973 7.63538 6.76746 7.33765 7.13473 7.33765H13.1191V2.40035C13.1191 2.03308 13.4169 1.73535 13.7841 1.73535Z" fill="black"/>
</svg>
