<svg width="16" height="16" viewBox="0 0 16 16" fill="none" xmlns="http://www.w3.org/2000/svg">
<path d="M14.6792 4.00004C14.6792 2.52728 13.4853 1.33337 12.0125 1.33337H8.0153C7.64711 1.33337 7.34863 1.63185 7.34863 2.00004C7.34863 2.36823 7.64711 2.66671 8.0153 2.66671H12.0125C12.7489 2.66671 13.3459 3.26366 13.3459 4.00004V12C13.3459 12.7364 12.7489 13.3334 12.0125 13.3334H8.01253C7.64434 13.3334 7.34587 13.6319 7.34587 14C7.34587 14.3682 7.64434 14.6667 8.01253 14.6667H12.0125C13.4853 14.6667 14.6792 13.4728 14.6792 12V4.00004Z" fill="black"/>
<path d="M7.18354 4.52864C7.44389 4.26829 7.866 4.26829 8.12635 4.52864L11.0905 7.49278C11.2156 7.60097 11.3 7.75493 11.3178 7.92862C11.3385 8.12218 11.2747 8.32308 11.1264 8.47145L8.12635 11.4714C7.866 11.7318 7.44389 11.7318 7.18354 11.4714C6.92319 11.2111 6.92319 10.789 7.18354 10.5286L9.04828 8.6639H1.98796C1.61977 8.6639 1.32129 8.36542 1.32129 7.99723C1.32129 7.62904 1.61977 7.33057 1.98796 7.33057H9.04266L7.18354 5.47145C6.92319 5.2111 6.92319 4.78899 7.18354 4.52864Z" fill="black"/>
</svg>
