<svg width="16" height="16" viewBox="0 0 16 16" fill="none" xmlns="http://www.w3.org/2000/svg">
<path fill-rule="evenodd" clip-rule="evenodd" d="M11.698 1.9778C11.1567 1.71246 10.5585 1.62472 9.92655 1.68821C8.88646 1.7927 8.15598 2.3771 7.74287 3.22465C7.40848 3.91068 7.28659 4.75204 7.31213 5.64082C6.50605 5.915 5.79368 5.73638 5.14632 5.3231C4.36296 4.82301 3.70196 3.98714 3.23145 3.22022C3.09203 2.99297 2.83037 2.87095 2.56667 2.91022C2.30297 2.94949 2.08822 3.14245 2.02106 3.40046C1.68668 4.68513 1.31707 6.38327 2.04401 8.27217C2.43493 9.28765 3.22025 10.134 4.32066 10.8362C3.25983 11.2724 2.42612 11.3886 1.79105 11.2676C1.47004 11.2064 1.15216 11.3875 1.04112 11.6949C0.930086 12.0022 1.05881 12.3447 1.3448 12.5028L1.39761 12.5322C1.79906 12.7556 3.13462 13.499 4.79329 13.956C6.51736 14.431 8.73548 14.6363 10.6256 13.4554C14.1019 11.2834 14.0776 7.59973 14.0663 5.88895L14.0657 5.79592C14.1049 5.73195 14.1533 5.66159 14.2169 5.57097L14.2289 5.55388C14.3261 5.41523 14.4516 5.2364 14.5671 5.01756C14.8205 4.53771 14.9982 3.92347 14.9982 2.98137C14.9982 2.71719 14.8418 2.47806 14.5998 2.37215C14.3578 2.26624 14.076 2.31363 13.882 2.49289C13.4705 2.87299 13.1431 2.98526 12.868 2.96722C12.5446 2.54006 12.1565 2.20251 11.698 1.9778ZM10.0595 3.01155C10.4822 2.96908 10.8256 3.03137 11.1127 3.17207C11.4011 3.31343 11.674 3.55431 11.9222 3.93268C12.0081 4.06377 12.1377 4.16027 12.2879 4.20514C12.6937 4.32637 13.0895 4.32801 13.4688 4.23158C13.4436 4.29218 13.4174 4.34666 13.391 4.39655C13.3156 4.53946 13.2322 4.65863 13.1279 4.80746L13.1226 4.815C13.0253 4.95371 12.9004 5.1318 12.8 5.3423C12.7573 5.43176 12.7351 5.52964 12.7351 5.62877C12.7351 5.70099 12.7354 5.77593 12.7356 5.85324C12.7417 7.59283 12.7493 10.5602 9.92082 12.3275C8.50137 13.2143 6.73761 13.1121 5.14655 12.6737C4.77813 12.5722 4.42663 12.4548 4.10015 12.3321C4.7323 12.1309 5.39759 11.8359 6.0919 11.4596C6.31231 11.3402 6.44681 11.1069 6.43976 10.8563C6.43272 10.6057 6.28532 10.3803 6.05855 10.2734C4.49352 9.53579 3.62991 8.68975 3.28522 7.79436C2.93066 6.87329 2.90183 6.00358 3.00926 5.17671C3.41263 5.64744 3.88797 6.09769 4.43065 6.44414C5.49498 7.1236 6.834 7.40511 8.30262 6.66243C8.54462 6.54006 8.68807 6.283 8.66514 6.01279C8.58521 5.07043 8.69051 4.31599 8.93841 3.80738C9.05387 3.57049 9.19929 3.38587 9.38161 3.25358C9.56373 3.12144 9.78611 3.03901 10.0595 3.01155Z" fill="black"/>
</svg>
