<svg width="16" height="16" viewBox="0 0 16 16" fill="none" xmlns="http://www.w3.org/2000/svg">
<path d="M4.46416 2.03237C4.46416 1.701 4.19553 1.43237 3.86416 1.43237C3.53279 1.43237 3.26416 1.701 3.26416 2.03237V7.33338C3.26416 10.0313 5.35834 12.2667 7.9999 12.2667C10.6415 12.2667 12.7356 10.0313 12.7356 7.33338V2.03237C12.7356 1.701 12.467 1.43237 12.1356 1.43237C11.8043 1.43237 11.5356 1.701 11.5356 2.03237V7.33338C11.5356 9.42194 9.92656 11.0667 7.9999 11.0667C6.07325 11.0667 4.46416 9.42194 4.46416 7.33338V2.03237Z" fill="black"/>
<path d="M2.66641 13.4663C2.33504 13.4663 2.06641 13.7349 2.06641 14.0663C2.06641 14.3977 2.33504 14.6663 2.66641 14.6663H13.3331C13.6644 14.6663 13.9331 14.3977 13.9331 14.0663C13.9331 13.7349 13.6644 13.4663 13.3331 13.4663H2.66641Z" fill="black"/>
</svg>
