<svg width="16" height="16" viewBox="0 0 16 16" fill="none" xmlns="http://www.w3.org/2000/svg">
<path d="M4.53117 2.03243C4.53117 1.66516 4.23344 1.36743 3.86617 1.36743C3.4989 1.36743 3.20117 1.66516 3.20117 2.03243V7.33344C3.20117 10.0644 5.32163 12.3318 8.00191 12.3318C10.6822 12.3318 12.8027 10.0644 12.8027 7.33344V2.03243C12.8027 1.66516 12.5049 1.36743 12.1377 1.36743C11.7704 1.36743 11.4727 1.66516 11.4727 2.03243V7.33344C11.4727 9.38899 9.88985 11.0018 8.00191 11.0018C6.11398 11.0018 4.53117 9.38899 4.53117 7.33344V2.03243Z" fill="black"/>
<path d="M2.66842 13.4013C2.30115 13.4013 2.00342 13.6991 2.00342 14.0663C2.00342 14.4336 2.30115 14.7313 2.66842 14.7313H13.3351C13.7024 14.7313 14.0001 14.4336 14.0001 14.0663C14.0001 13.6991 13.7024 13.4013 13.3351 13.4013H2.66842Z" fill="black"/>
</svg>
