<svg width="16" height="16" viewBox="0 0 16 16" fill="none" xmlns="http://www.w3.org/2000/svg">
<path d="M4.72365 2.72206C4.97524 2.50641 5.00437 2.12763 4.78872 1.87603C4.57306 1.62444 4.19428 1.59531 3.94269 1.81097L1.61333 3.80761C1.48281 3.91768 1.3999 4.08241 1.3999 4.2665C1.3999 4.41745 1.45564 4.55538 1.54766 4.66083C1.55661 4.67109 1.56594 4.68108 1.57563 4.69077L3.9089 7.02411C4.14321 7.25842 4.52311 7.25843 4.75743 7.02412C4.99175 6.78981 4.99175 6.40991 4.75744 6.17559L3.44839 4.8665H9.36337C11.5909 4.8665 13.3967 6.67229 13.3967 8.89984C13.3967 11.1274 11.5909 12.9332 9.36337 12.9332H3.99937C3.668 12.9332 3.39937 13.2018 3.39937 13.5332C3.39937 13.8645 3.668 14.1332 3.99937 14.1332H9.36337C12.2537 14.1332 14.5967 11.7901 14.5967 8.89984C14.5967 6.00955 12.2537 3.6665 9.36337 3.6665H3.62183L4.72365 2.72206Z" fill="black"/>
</svg>
