<svg width="16" height="16" viewBox="0 0 16 16" fill="none" xmlns="http://www.w3.org/2000/svg">
<path d="M4.65371 2.77147C4.93256 2.53245 4.96484 2.11264 4.72582 1.83379C4.4868 1.55494 4.06699 1.52266 3.78814 1.76168L1.45487 3.76168C1.31424 3.88222 1.23026 4.05596 1.22315 4.24105C1.21604 4.42615 1.28645 4.60582 1.41742 4.73679L3.75069 7.07013C4.01039 7.32983 4.43144 7.32984 4.69114 7.07014C4.95085 6.81045 4.95085 6.38939 4.69116 6.12969L3.49307 4.93157H9.36343C11.5551 4.93157 13.3318 6.70825 13.3318 8.8999C13.3318 11.0916 11.5551 12.8682 9.36343 12.8682H3.99943C3.63216 12.8682 3.33443 13.166 3.33443 13.5332C3.33443 13.9005 3.63216 14.1982 3.99943 14.1982H9.36343C12.2896 14.1982 14.6618 11.8261 14.6618 8.8999C14.6618 5.97372 12.2896 3.60157 9.36343 3.60157H3.68529L4.65371 2.77147Z" fill="black"/>
</svg>
