<svg width="16" height="16" viewBox="0 0 16 16" fill="none" xmlns="http://www.w3.org/2000/svg">
<g clip-path="url(#clip0_1729_95)">
<path fill-rule="evenodd" clip-rule="evenodd" d="M2.54552 0.733398C1.54471 0.733398 0.733398 1.54471 0.733398 2.54552C0.733398 3.33614 1.23972 4.0085 1.9458 4.25604V7.50149C1.23972 7.74903 0.733398 8.4214 0.733398 9.21202C0.733398 10.2128 1.54471 11.0241 2.54552 11.0241C3.33593 11.0241 4.00815 10.5181 4.25585 9.81228H6.18799V11.7442C5.48191 11.9917 4.97559 12.6641 4.97559 13.4547C4.97559 14.4555 5.7869 15.2668 6.7877 15.2668C7.57829 15.2668 8.25064 14.7605 8.4982 14.0545H11.7442C11.9918 14.7605 12.6641 15.2668 13.4547 15.2668C14.4555 15.2668 15.2668 14.4555 15.2668 13.4547C15.2668 12.6641 14.7605 11.9918 14.0545 11.7442V8.4982C14.7605 8.25064 15.2668 7.57829 15.2668 6.7877C15.2668 5.7869 14.4555 4.97559 13.4547 4.97559C12.6641 4.97559 11.9917 5.48191 11.7442 6.18799H9.81228V4.25585C10.5181 4.00815 11.0241 3.33593 11.0241 2.54552C11.0241 1.54471 10.2128 0.733398 9.21202 0.733398C8.42158 0.733398 7.74934 1.23949 7.50166 1.94531H4.25587C4.00819 1.23949 3.33595 0.733398 2.54552 0.733398ZM12.8545 8.49806C12.3365 8.3163 11.9261 7.90593 11.7444 7.38799H9.81228V8.21228C9.81228 9.09594 9.09594 9.81228 8.21228 9.81228H7.38799V11.7444C7.90593 11.9261 8.3163 12.3365 8.49806 12.8545H11.7443C11.9261 12.3365 12.3365 11.9261 12.8545 11.7443V8.49806ZM3.1458 7.50169V4.25584C3.66388 4.07402 4.07433 3.66346 4.25601 3.14531H7.50152C7.68327 3.66364 8.09395 4.07431 8.61228 4.25603V8.21228C8.61228 8.4332 8.4332 8.61228 8.21228 8.61228H6.84486C6.82614 8.61052 6.80717 8.60962 6.78799 8.60962C6.76881 8.60962 6.74984 8.61052 6.73112 8.61228H4.25603C4.07436 8.09411 3.6639 7.68353 3.1458 7.50169ZM2.5458 8.60012L2.53418 8.60001C2.20135 8.60605 1.9334 8.87774 1.9334 9.21202C1.9334 9.55008 2.20745 9.82414 2.54552 9.82414C2.88358 9.82414 3.15763 9.55008 3.15763 9.21202C3.15763 8.87784 2.88984 8.60621 2.55714 8.60001L2.5458 8.60012ZM9.21202 3.15763C8.87805 3.15763 8.60654 2.89017 8.60002 2.55776L8.60015 2.54531L8.60003 2.53311C8.60663 2.20077 8.8781 1.9334 9.21202 1.9334C9.55008 1.9334 9.82414 2.20745 9.82414 2.54552C9.82414 2.88358 9.55008 3.15763 9.21202 3.15763ZM1.9334 2.54552C1.9334 2.20745 2.20745 1.9334 2.54552 1.9334C2.88358 1.9334 3.15763 2.20745 3.15763 2.54552C3.15763 2.88358 2.88358 3.15763 2.54552 3.15763C2.20745 3.15763 1.9334 2.88358 1.9334 2.54552ZM12.8426 13.4547C12.8426 13.1166 13.1166 12.8426 13.4547 12.8426C13.7928 12.8426 14.0668 13.1166 14.0668 13.4547C14.0668 13.7928 13.7928 14.0668 13.4547 14.0668C13.1166 14.0668 12.8426 13.7928 12.8426 13.4547ZM6.17559 13.4547C6.17559 13.1166 6.44964 12.8426 6.7877 12.8426C7.12576 12.8426 7.39982 13.1166 7.39982 13.4547C7.39982 13.7928 7.12576 14.0668 6.7877 14.0668C6.44964 14.0668 6.17559 13.7928 6.17559 13.4547ZM12.8426 6.7877C12.8426 6.44964 13.1166 6.17559 13.4547 6.17559C13.7928 6.17559 14.0668 6.44964 14.0668 6.7877C14.0668 7.12576 13.7928 7.39982 13.4547 7.39982C13.1166 7.39982 12.8426 7.12576 12.8426 6.7877Z" fill="black"/>
</g>
<defs>
<clipPath id="clip0_1729_95">
<rect width="16" height="16" fill="white"/>
</clipPath>
</defs>
</svg>
