<svg width="17" height="16" viewBox="0 0 17 16" fill="none" xmlns="http://www.w3.org/2000/svg">
<path d="M7.46855 2.83731C7.46855 2.61639 7.64764 2.4373 7.86855 2.4373H13.8603C14.0812 2.4373 14.2603 2.61639 14.2603 2.8373V9.5049C14.2603 9.72581 14.0812 9.90489 13.8603 9.90489H12.866C12.5346 9.90489 12.266 10.1735 12.266 10.5049C12.266 10.8363 12.5346 11.1049 12.866 11.1049H13.8603C14.7439 11.1049 15.4603 10.3886 15.4603 9.5049V2.8373C15.4603 1.95365 14.7439 1.2373 13.8603 1.2373H7.86855C6.9849 1.2373 6.26855 1.95365 6.26855 2.83731V3.48688C6.26855 3.81825 6.53718 4.08688 6.86855 4.08688C7.19993 4.08688 7.46855 3.81825 7.46855 3.48688V2.83731Z" fill="black"/>
<path fill-rule="evenodd" clip-rule="evenodd" d="M3.19888 5.56299C2.31522 5.56299 1.59888 6.27933 1.59888 7.16299V13.163C1.59888 14.0466 2.31522 14.763 3.19888 14.763H9.19888C10.0825 14.763 10.7989 14.0466 10.7989 13.163V7.16299C10.7989 6.27933 10.0825 5.56299 9.19888 5.56299H3.19888ZM2.79888 7.16299C2.79888 6.94207 2.97796 6.76299 3.19888 6.76299H9.19888C9.41979 6.76299 9.59888 6.94207 9.59888 7.16299V13.163C9.59888 13.3839 9.41979 13.563 9.19888 13.563H3.19888C2.97796 13.563 2.79888 13.3839 2.79888 13.163V7.16299Z" fill="black"/>
</svg>
