<svg width="16" height="16" viewBox="0 0 16 16" fill="none" xmlns="http://www.w3.org/2000/svg">
<g clip-path="url(#clip0_1729_95)">
<path fill-rule="evenodd" clip-rule="evenodd" d="M2.54557 0.668457C1.50887 0.668457 0.668457 1.50887 0.668457 2.54557C0.668457 3.34832 1.17232 4.03323 1.88086 4.30158V7.45607C1.17232 7.72442 0.668457 8.40933 0.668457 9.21208C0.668457 10.2488 1.50887 11.0892 2.54557 11.0892C3.34812 11.0892 4.03288 10.5856 4.30137 9.87734H6.12305V11.6987C5.41451 11.9671 4.91064 12.652 4.91064 13.4548C4.91064 14.4915 5.75106 15.3319 6.78776 15.3319C7.59048 15.3319 8.27537 14.828 8.54374 14.1195H11.6988C11.9671 14.828 12.652 15.3319 13.4548 15.3319C14.4915 15.3319 15.3319 14.4915 15.3319 13.4548C15.3319 12.652 14.828 11.9671 14.1195 11.6988V8.54374C14.828 8.27537 15.3319 7.59048 15.3319 6.78776C15.3319 5.75106 14.4915 4.91064 13.4548 4.91064C12.652 4.91064 11.9671 5.41451 11.6987 6.12305H9.87734V4.30137C10.5856 4.03288 11.0892 3.34812 11.0892 2.54557C11.0892 1.50887 10.2488 0.668457 9.21208 0.668457C8.40951 0.668457 7.72473 1.17209 7.45625 1.88037H4.3014C4.03292 1.17209 3.34814 0.668457 2.54557 0.668457ZM1.99846 2.54557C1.99846 2.24341 2.24341 1.99846 2.54557 1.99846C2.84774 1.99846 3.09269 2.24341 3.09269 2.54557C3.09269 2.84774 2.84774 3.09269 2.54557 3.09269C2.24341 3.09269 1.99846 2.84774 1.99846 2.54557ZM8.66522 2.54603L8.66509 2.53351C8.67149 2.23693 8.91394 1.99846 9.21208 1.99846C9.51424 1.99846 9.75919 2.24341 9.75919 2.54557C9.75919 2.84774 9.51424 3.09269 9.21208 3.09269C8.91389 3.09269 8.67141 2.85413 8.66509 2.55748L8.66522 2.54603ZM3.21086 4.30137C3.71259 4.11116 4.11148 3.71217 4.30155 3.21037H7.4561C7.64624 3.71235 8.04535 4.11145 8.54734 4.30157V8.21234C8.54734 8.39736 8.39736 8.54734 8.21234 8.54734H6.84788C6.82816 8.54558 6.8082 8.54468 6.78805 8.54468C6.76789 8.54468 6.74794 8.54558 6.72821 8.54734H4.30157C4.11151 8.04551 3.71261 7.6465 3.21086 7.45629V4.30137ZM12.9076 6.78776C12.9076 6.4856 13.1526 6.24064 13.4548 6.24064C13.7569 6.24064 14.0019 6.4856 14.0019 6.78776C14.0019 7.08992 13.7569 7.33488 13.4548 7.33488C13.1526 7.33488 12.9076 7.08992 12.9076 6.78776ZM9.87734 8.21234V7.45305H11.699C11.8891 7.95464 12.2879 8.35345 12.7896 8.54358V11.6989C12.2879 11.8891 11.8891 12.2879 11.6989 12.7896H8.54358C8.35345 12.2879 7.95464 11.8891 7.45305 11.699V9.87734H8.21234C9.1319 9.87734 9.87734 9.13189 9.87734 8.21234ZM1.99846 9.21208C1.99846 8.9136 2.23748 8.67094 2.53453 8.66507L2.54524 8.66518L2.55687 8.66507C2.85381 8.67108 3.09269 8.91369 3.09269 9.21208C3.09269 9.51424 2.84774 9.75919 2.54557 9.75919C2.24341 9.75919 1.99846 9.51424 1.99846 9.21208ZM6.24064 13.4548C6.24064 13.1526 6.4856 12.9076 6.78776 12.9076C7.08992 12.9076 7.33488 13.1526 7.33488 13.4548C7.33488 13.7569 7.08992 14.0019 6.78776 14.0019C6.4856 14.0019 6.24064 13.7569 6.24064 13.4548ZM12.9076 13.4548C12.9076 13.1526 13.1526 12.9076 13.4548 12.9076C13.7569 12.9076 14.0019 13.1526 14.0019 13.4548C14.0019 13.7569 13.7569 14.0019 13.4548 14.0019C13.1526 14.0019 12.9076 13.7569 12.9076 13.4548Z" fill="black"/>
</g>
<defs>
<clipPath id="clip0_1729_95">
<rect width="16" height="16" fill="white"/>
</clipPath>
</defs>
</svg>
