<svg width="16" height="16" viewBox="0 0 16 16" fill="none" xmlns="http://www.w3.org/2000/svg">
<path fill-rule="evenodd" clip-rule="evenodd" d="M7.33907 1.17236C6.41952 1.17236 5.67407 1.91781 5.67407 2.83736V3.48693C5.67407 3.8542 5.9718 4.15194 6.33907 4.15193C6.70634 4.15193 7.00407 3.8542 7.00407 3.48693V2.83736C7.00407 2.65235 7.15406 2.50236 7.33907 2.50236H13.3308C13.5158 2.50236 13.6658 2.65235 13.6658 2.83736V9.50495C13.6658 9.68997 13.5158 9.83995 13.3308 9.83995H12.3365C11.9692 9.83995 11.6715 10.1377 11.6715 10.505C11.6715 10.8722 11.9692 11.17 12.3365 11.17H13.3308C14.2503 11.17 14.9958 10.4245 14.9958 9.50495V2.83736C14.9958 1.91781 14.2503 1.17236 13.3308 1.17236H7.33907ZM2.66939 5.49805C1.74984 5.49805 1.00439 6.24349 1.00439 7.16305V13.163C1.00439 14.0826 1.74984 14.828 2.66939 14.828H8.66939C9.58895 14.828 10.3344 14.0826 10.3344 13.163V7.16305C10.3344 6.24349 9.58895 5.49805 8.66939 5.49805H2.66939ZM2.33439 7.16305C2.33439 6.97803 2.48438 6.82805 2.66939 6.82805H8.66939C8.85441 6.82805 9.00439 6.97803 9.00439 7.16305V13.163C9.00439 13.3481 8.85441 13.498 8.66939 13.498H2.66939C2.48438 13.498 2.33439 13.3481 2.33439 13.163V7.16305Z" fill="black"/>
</svg>
