<svg width="16" height="16" viewBox="0 0 16 16" fill="none" xmlns="http://www.w3.org/2000/svg">
<path d="M13.488 2.51194C12.0359 1.05982 9.68157 1.05982 8.22945 2.51194L6.94091 3.80049C6.68121 4.06018 6.68121 4.48124 6.94091 4.74094C7.2006 5.00064 7.62166 5.00064 7.88136 4.74094L9.1699 3.45239C10.1026 2.51967 11.6149 2.51967 12.5476 3.45239C13.4803 4.38511 13.4803 5.89735 12.5476 6.83007L11.259 8.11862C10.9993 8.37832 10.9993 8.79937 11.259 9.05907C11.5187 9.31877 11.9398 9.31877 12.1995 9.05907L13.488 7.77053C14.9402 6.31841 14.9402 3.96406 13.488 2.51194Z" fill="black"/>
<path d="M3.63122 2.69076C3.37152 2.43107 2.95046 2.43107 2.69076 2.69076C2.43107 2.95046 2.43107 3.37152 2.69076 3.63122L12.3692 13.3096C12.6289 13.5693 13.0499 13.5693 13.3096 13.3096C13.5693 13.0499 13.5693 12.6289 13.3096 12.3692L3.63122 2.69076Z" fill="black"/>
<path d="M4.74094 6.94139C4.48124 6.6817 4.06018 6.6817 3.80049 6.94139L2.51194 8.22994C1.05982 9.68206 1.05982 12.0364 2.51194 13.4885C3.96406 14.9406 6.31841 14.9406 7.77053 13.4885L9.05907 12.2C9.31877 11.9403 9.31877 11.5192 9.05907 11.2595C8.79937 10.9998 8.37832 10.9998 8.11862 11.2595L6.83007 12.5481C5.89735 13.4808 4.38511 13.4808 3.45239 12.5481C2.51967 11.6154 2.51967 10.1031 3.45239 9.17039L4.74094 7.88185C5.00064 7.62215 5.00064 7.20109 4.74094 6.94139Z" fill="black"/>
</svg>
