<svg width="17" height="16" viewBox="0 0 17 16" fill="none" xmlns="http://www.w3.org/2000/svg">
<path d="M9.42131 9.73165C9.42131 9.36438 9.12358 9.06665 8.75631 9.06665C8.38904 9.06665 8.09131 9.36438 8.09131 9.73165V11.7475C8.09131 12.1148 8.38904 12.4125 8.75631 12.4125C9.12358 12.4125 9.42131 12.1148 9.42131 11.7475V9.73165Z" fill="black"/>
<path fill-rule="evenodd" clip-rule="evenodd" d="M8.97312 2.31511L8.75593 2.31511C7.4903 2.3151 6.46428 3.34109 6.46428 4.60673V6.46388L12.8032 6.46391C14.2751 6.46392 15.4682 7.65708 15.4682 9.12891V12.3501C15.4682 13.8219 14.2751 15.0151 12.8032 15.0151H4.70799C3.23615 15.0151 2.04299 13.8219 2.04298 12.3501L2.04297 9.12888C2.04296 7.65703 3.23613 6.46386 4.70798 6.46387L5.13428 6.46387V4.60673C5.13428 2.60655 6.75575 0.985095 8.75592 0.98511L8.9731 0.985107C10.8533 0.985085 12.3776 2.50931 12.3776 4.38954C12.3776 4.75681 12.0798 5.05454 11.7126 5.05454C11.3453 5.05454 11.0476 4.75681 11.0476 4.38954C11.0476 3.24385 10.1188 2.31509 8.97312 2.31511ZM5.79928 7.79401L5.78569 7.79387L4.70798 7.79387C3.97067 7.79386 3.37297 8.39157 3.37297 9.12887L3.37298 12.3501C3.37299 13.0874 3.97069 13.6851 4.70799 13.6851H12.8032C13.5405 13.6851 14.1382 13.0874 14.1382 12.3501V9.12891C14.1382 8.39161 13.5405 7.79391 12.8032 7.79391L5.81285 7.79387L5.79928 7.79401Z" fill="black"/>
</svg>
