<svg width="16" height="16" viewBox="0 0 16 16" fill="none" xmlns="http://www.w3.org/2000/svg">
<path d="M2.77035 3.14006C2.77035 3.59845 2.39875 3.97006 1.94035 3.97006C1.48196 3.97006 1.11035 3.59845 1.11035 3.14006C1.11035 2.68166 1.48196 2.31006 1.94035 2.31006C2.39875 2.31006 2.77035 2.68166 2.77035 3.14006Z" fill="black"/>
<path d="M4.27047 2.47516C3.9032 2.47516 3.60547 2.77289 3.60547 3.14016C3.60547 3.50743 3.9032 3.80516 4.27047 3.80516H14.289C14.6563 3.80516 14.954 3.50743 14.954 3.14016C14.954 2.77289 14.6563 2.47516 14.289 2.47516H4.27047Z" fill="black"/>
<path d="M1.94035 8.82998C2.39875 8.82998 2.77035 8.45838 2.77035 7.99998C2.77035 7.54159 2.39875 7.16998 1.94035 7.16998C1.48196 7.16998 1.11035 7.54159 1.11035 7.99998C1.11035 8.45838 1.48196 8.82998 1.94035 8.82998Z" fill="black"/>
<path d="M4.27047 7.33505C3.9032 7.33505 3.60547 7.63278 3.60547 8.00005C3.60547 8.36732 3.9032 8.66505 4.27047 8.66505H14.289C14.6563 8.66505 14.954 8.36732 14.954 8.00005C14.954 7.63278 14.6563 7.33505 14.289 7.33505H4.27047Z" fill="black"/>
<path d="M1.94035 13.6905C2.39875 13.6905 2.77035 13.3189 2.77035 12.8605C2.77035 12.4021 2.39875 12.0305 1.94035 12.0305C1.48196 12.0305 1.11035 12.4021 1.11035 12.8605C1.11035 13.3189 1.48196 13.6905 1.94035 13.6905Z" fill="black"/>
<path d="M4.27047 12.1954C3.9032 12.1954 3.60547 12.4931 3.60547 12.8604C3.60547 13.2276 3.9032 13.5254 4.27047 13.5254H14.289C14.6563 13.5254 14.954 13.2276 14.954 12.8604C14.954 12.4931 14.6563 12.1954 14.289 12.1954H4.27047Z" fill="black"/>
</svg>
