<svg width="16" height="16" viewBox="0 0 16 16" fill="none" xmlns="http://www.w3.org/2000/svg">
<path fill-rule="evenodd" clip-rule="evenodd" d="M8.81689 1.216C8.39117 0.706648 7.60828 0.706645 7.18256 1.216L5.15454 3.64244C4.57501 4.33581 5.06802 5.39042 5.9717 5.39042H6.19415V8.5241C6.19415 9.11229 6.67096 9.5891 7.25915 9.5891H8.74017C9.32836 9.5891 9.80517 9.11229 9.80517 8.5241V5.39042H10.0277C10.9314 5.39042 11.4244 4.33581 10.8449 3.64244L8.81689 1.216ZM7.52415 5.12542C7.52415 4.56317 7.08845 4.10268 6.53626 4.06317L7.99972 2.31221L9.46318 4.06317C8.91094 4.10262 8.47517 4.56313 8.47517 5.12542V8.2591H7.52415V5.12542Z" fill="black"/>
<path fill-rule="evenodd" clip-rule="evenodd" d="M5.40603 6.27887C5.24179 5.95037 4.84234 5.81722 4.51384 5.98147L1.32512 7.57583C1.09983 7.68848 0.95752 7.91874 0.95752 8.17062V11.1121C0.95752 11.5155 1.18543 11.8843 1.54624 12.0647L7.52368 15.0534C7.82351 15.2033 8.17642 15.2033 8.47624 15.0534L14.4537 12.0647C14.8145 11.8843 15.0424 11.5155 15.0424 11.1121V8.17062C15.0424 7.91874 14.9001 7.68848 14.6748 7.57583L11.4861 5.98147C11.1576 5.81722 10.7581 5.95037 10.5939 6.27887C10.4296 6.60736 10.5628 7.00681 10.8913 7.17106L12.8904 8.17062L7.99996 10.6159L3.10951 8.17062L5.10864 7.17106C5.43713 7.00681 5.57028 6.60736 5.40603 6.27887ZM2.28752 10.9484V9.24662L7.52368 11.8647C7.82351 12.0146 8.17642 12.0146 8.47624 11.8647L13.7124 9.24662V10.9484L7.99996 13.8046L2.28752 10.9484Z" fill="black"/>
</svg>
