<svg width="17" height="16" viewBox="0 0 17 16" fill="none" xmlns="http://www.w3.org/2000/svg">
<path d="M2.54248 3.9999C2.54248 3.66853 2.81111 3.3999 3.14248 3.3999H13.1425C13.4739 3.3999 13.7425 3.66853 13.7425 3.9999C13.7425 4.33127 13.4739 4.5999 13.1425 4.5999H3.14248C2.81111 4.5999 2.54248 4.33127 2.54248 3.9999Z" fill="black"/>
<path d="M4.04248 7.9999C4.04248 7.66853 4.31111 7.3999 4.64248 7.3999H11.6425C11.9739 7.3999 12.2425 7.66853 12.2425 7.9999C12.2425 8.33127 11.9739 8.5999 11.6425 8.5999H4.64248C4.31111 8.5999 4.04248 8.33127 4.04248 7.9999Z" fill="black"/>
<path d="M6.14248 11.3999C5.81111 11.3999 5.54248 11.6685 5.54248 11.9999C5.54248 12.3313 5.81111 12.5999 6.14248 12.5999H10.1425C10.4739 12.5999 10.7425 12.3313 10.7425 11.9999C10.7425 11.6685 10.4739 11.3999 10.1425 11.3999H6.14248Z" fill="black"/>
</svg>
