<svg width="16" height="16" viewBox="0 0 16 16" fill="none" xmlns="http://www.w3.org/2000/svg">
<path d="M1.61914 3.42721C1.61914 3.05994 1.91687 2.76221 2.28414 2.76221H13.716C14.0833 2.76221 14.381 3.05994 14.381 3.42721C14.381 3.79448 14.0833 4.09221 13.716 4.09221H2.28414C1.91687 4.09221 1.61914 3.79448 1.61914 3.42721Z" fill="black"/>
<path d="M3.33398 7.99996C3.33398 7.63269 3.63172 7.33496 3.99898 7.33496H12.0013C12.3686 7.33496 12.6663 7.63269 12.6663 7.99996C12.6663 8.36723 12.3686 8.66496 12.0013 8.66496H3.99898C3.63172 8.66496 3.33398 8.36723 3.33398 7.99996Z" fill="black"/>
<path d="M5.71432 11.9077C5.34705 11.9077 5.04932 12.2054 5.04932 12.5727C5.04932 12.94 5.34705 13.2377 5.71432 13.2377H10.2871C10.6543 13.2377 10.9521 12.94 10.9521 12.5727C10.9521 12.2054 10.6543 11.9077 10.2871 11.9077H5.71432Z" fill="black"/>
</svg>
