<svg width="16" height="16" viewBox="0 0 16 16" fill="none" xmlns="http://www.w3.org/2000/svg">
<path d="M4.61961 2.68722C4.61961 2.31995 4.32188 2.02222 3.95461 2.02222C3.58734 2.02222 3.28961 2.31995 3.28961 2.68722V12.3299L2.25656 11.4336C1.97914 11.193 1.55914 11.2227 1.31846 11.5002C1.07778 11.7776 1.10757 12.1976 1.38498 12.4383L2.85669 13.7151C3.54624 14.3133 4.61961 13.8235 4.61961 12.9106V2.68722Z" fill="black"/>
<path fill-rule="evenodd" clip-rule="evenodd" d="M8.9454 3.94379C9.41494 2.66262 11.2269 2.66261 11.6965 3.94379L14.8032 12.4209C14.9296 12.7657 14.7525 13.1477 14.4077 13.2741C14.0628 13.4005 13.6808 13.2234 13.5545 12.8785L12.3685 9.64262H8.36664C8.33576 9.64262 8.30536 9.64052 8.2756 9.63644L7.0874 12.8785C6.96102 13.2234 6.57902 13.4005 6.23418 13.2741C5.88934 13.1477 5.71225 12.7657 5.83863 12.4209L8.9454 3.94379ZM10.4477 4.40145L11.8811 8.31262H8.76077L10.1942 4.40146C10.2088 4.36147 10.2275 4.3443 10.2423 4.33451C10.2609 4.32231 10.2882 4.31291 10.3209 4.31291C10.3537 4.31291 10.381 4.32231 10.3995 4.33451C10.4144 4.3443 10.433 4.36147 10.4477 4.40145Z" fill="black"/>
</svg>
