<svg width="16" height="16" viewBox="0 0 16 16" fill="none" xmlns="http://www.w3.org/2000/svg">
<path d="M7.99996 0.668457C8.36723 0.668457 8.66496 0.966188 8.66496 1.33346V4.39451L9.52974 3.52973C9.78943 3.27004 10.2105 3.27004 10.4702 3.52973C10.7299 3.78943 10.7299 4.21049 10.4702 4.47019L8.47019 6.47019C8.21049 6.72989 7.78943 6.72989 7.52974 6.47019L5.52974 4.47019C5.27004 4.21049 5.27004 3.78943 5.52974 3.52973C5.78943 3.27004 6.21049 3.27004 6.47019 3.52973L7.33496 4.39451V1.33346C7.33496 0.966188 7.63269 0.668457 7.99996 0.668457Z" fill="black"/>
<path d="M5.52974 11.5297L7.52974 9.52973C7.78943 9.27004 8.21049 9.27004 8.47019 9.52973L10.4702 11.5297C10.7299 11.7894 10.7299 12.2105 10.4702 12.4702C10.2105 12.7299 9.78943 12.7299 9.52974 12.4702L8.66496 11.6054V14.6665C8.66496 15.0338 8.36723 15.3315 7.99996 15.3315C7.63269 15.3315 7.33496 15.0338 7.33496 14.6665V11.6054L6.47019 12.4702C6.21049 12.7299 5.78943 12.7299 5.52974 12.4702C5.27004 12.2105 5.27004 11.7894 5.52974 11.5297Z" fill="black"/>
<path d="M1.99996 7.33508C1.63269 7.33508 1.33496 7.63281 1.33496 8.00008C1.33496 8.36735 1.63269 8.66508 1.99996 8.66508H14C14.3672 8.66508 14.665 8.36735 14.665 8.00008C14.665 7.63281 14.3672 7.33508 14 7.33508H1.99996Z" fill="black"/>
</svg>
