<svg width="16" height="16" viewBox="0 0 16 16" fill="none" xmlns="http://www.w3.org/2000/svg">
<path fill-rule="evenodd" clip-rule="evenodd" d="M12.6772 1.07397L10.8775 1.07402C9.90275 1.07404 9.11256 1.86423 9.11254 2.83898L9.11247 5.89811L9.1123 5.91305L9.11247 5.92795L9.11237 10.0771L9.1123 10.0869L9.11237 10.0966L9.1123 13.161C9.11228 14.1358 9.90251 14.926 10.8773 14.926H12.6773C13.6521 14.926 14.4423 14.1358 14.4423 13.161L14.4423 10.0945L14.4423 10.0869L14.4423 10.0793L14.4422 5.92205L14.4423 5.91305L14.4422 5.90404L14.4422 2.83897C14.4422 1.86417 13.652 1.07395 12.6772 1.07397ZM13.1123 9.42188L13.1122 6.57805H10.4425L10.4424 9.42188H13.1123ZM10.4424 10.7519L10.4423 13.161C10.4423 13.4012 10.6371 13.596 10.8773 13.596H12.6773C12.9175 13.596 13.1123 13.4012 13.1123 13.161L13.1123 10.7519H10.4424ZM10.4425 5.24805H13.1122L13.1122 2.83897C13.1122 2.59873 12.9175 2.40397 12.6772 2.40397L10.8775 2.40402C10.6373 2.40402 10.4425 2.59877 10.4425 2.83901L10.4425 5.24805Z" fill="black"/>
<path fill-rule="evenodd" clip-rule="evenodd" d="M5.12253 1.07401L3.32253 1.07409C2.34778 1.07414 1.55761 1.86435 1.55762 2.8391L1.55764 5.90713L1.55762 5.91305L1.55764 5.91898L1.55768 10.0778C1.55764 10.0808 1.55762 10.0838 1.55762 10.0869C1.55762 10.0899 1.55764 10.0929 1.55768 10.096L1.5577 13.161C1.55771 14.1358 2.34793 14.926 3.3227 14.926H5.12261C6.09739 14.926 6.88761 14.1358 6.88761 13.161V10.0904L6.88762 10.0869L6.88761 10.0834V5.91656L6.88762 5.91305L6.88761 5.90954V2.83901C6.88761 1.86419 6.09734 1.07396 5.12253 1.07401ZM5.55761 9.42188V6.57805H2.88765L2.88767 9.42188H5.55761ZM5.55761 10.7519V13.161C5.55761 13.4013 5.36285 13.596 5.12261 13.596H3.3227C3.08246 13.596 2.88771 13.4013 2.8877 13.161L2.88768 10.7519H5.55761ZM2.88764 5.24805H5.55761V2.83901C5.55761 2.59875 5.36284 2.40399 5.12259 2.40401L3.3226 2.40409C3.08236 2.4041 2.88762 2.59886 2.88762 2.83909L2.88764 5.24805Z" fill="black"/>
</svg>
