<svg width="16" height="16" viewBox="0 0 16 16" fill="none" xmlns="http://www.w3.org/2000/svg">
<path fill-rule="evenodd" clip-rule="evenodd" d="M5.33331 9.00004C5.33331 7.52728 6.52722 6.33337 7.99998 6.33337C9.47274 6.33337 10.6666 7.52728 10.6666 9.00004C10.6666 10.4728 9.47274 11.6667 7.99998 11.6667C6.52722 11.6667 5.33331 10.4728 5.33331 9.00004ZM7.99998 7.66671C7.2636 7.66671 6.66665 8.26366 6.66665 9.00004C6.66665 9.73642 7.2636 10.3334 7.99998 10.3334C8.73636 10.3334 9.33331 9.73642 9.33331 9.00004C9.33331 8.26366 8.73636 7.66671 7.99998 7.66671Z" fill="black"/>
<path fill-rule="evenodd" clip-rule="evenodd" d="M8.66958 2.33329C8.66958 1.9651 8.3711 1.66663 8.00291 1.66663C7.63472 1.66663 7.33624 1.9651 7.33624 2.33329V3.69989C6.69648 3.76402 6.08562 3.91817 5.51599 4.13845L4.96311 3.36699C4.74863 3.06772 4.33216 2.99899 4.03289 3.21346C3.73362 3.42794 3.66488 3.84442 3.87936 4.14369L4.30524 4.73794C3.95132 4.95449 3.62264 5.1951 3.32358 5.45135C2.16525 6.44383 1.33331 7.77887 1.33331 8.99996C1.33331 10.2211 2.16525 11.5561 3.32358 12.5486C4.50813 13.5635 6.15722 14.3333 7.99998 14.3333C9.84261 14.3333 11.4917 13.5641 12.6763 12.5494C13.8348 11.557 14.6666 10.2219 14.6666 8.99996C14.6666 7.77798 13.8348 6.44292 12.6763 5.45057C12.4565 5.26228 12.2207 5.08245 11.9707 4.91442L12.4169 4.29176C12.6314 3.99249 12.5626 3.57602 12.2634 3.36154C11.9641 3.14706 11.5476 3.21579 11.3332 3.51506L10.7946 4.2665C10.1402 3.9786 9.42506 3.77682 8.66958 3.70046V2.33329ZM4.19111 6.46385C3.17786 7.33203 2.66665 8.33032 2.66665 8.99996C2.66665 9.6696 3.17786 10.6679 4.19111 11.5361C5.17813 12.3818 6.52904 13 7.99998 13C9.47105 13 10.822 12.3821 11.8089 11.5367C12.822 10.6689 13.3333 9.67064 13.3333 8.99996C13.3333 8.32928 12.822 7.331 11.8089 6.46318C10.822 5.61777 9.47105 4.99996 7.99998 4.99996C6.52904 4.99996 5.17813 5.61815 4.19111 6.46385Z" fill="black"/>
</svg>
