<svg width="16" height="16" viewBox="0 0 16 16" fill="none" xmlns="http://www.w3.org/2000/svg">
<g clip-path="url(#clip0_2031_563)">
<path d="M0.782227 3.79996C0.782227 2.16244 2.1097 0.834961 3.74723 0.834961H12.1472C13.7847 0.834961 15.1122 2.16244 15.1122 3.79996V4.7252C15.1122 5.09247 14.8145 5.3902 14.4472 5.3902C14.08 5.3902 13.7822 5.09247 13.7822 4.7252V3.79996C13.7822 2.89698 13.0502 2.16496 12.1472 2.16496H3.74723C2.84424 2.16496 2.11223 2.89698 2.11223 3.79996V12.2C2.11223 13.1029 2.84424 13.835 3.74723 13.835H12.1472C13.0502 13.835 13.7822 13.1029 13.7822 12.2V12.1294C13.7822 11.7621 14.08 11.4644 14.4472 11.4644C14.8145 11.4644 15.1122 11.7621 15.1122 12.1294V12.2C15.1122 13.8375 13.7848 15.165 12.1472 15.165H3.74723C2.1097 15.165 0.782227 13.8375 0.782227 12.2V3.79996Z" fill="black"/>
<path d="M4.53514 7.74881L4.5424 7.74554C4.54954 7.74233 4.56128 7.73712 4.5773 7.73019C4.60937 7.71631 4.65847 7.69559 4.72213 7.67028C4.84976 7.61955 5.0342 7.55108 5.25595 7.48253C5.70675 7.34316 6.27868 7.21386 6.82865 7.21386C7.1755 7.21386 7.50494 7.26096 7.83417 7.33888C8.26803 7.44156 8.70152 7.59776 9.174 7.77025L9.21181 7.78406C10.0067 8.07436 10.9189 8.4075 11.9766 8.4075C12.7136 8.4075 13.4287 8.23839 13.9431 8.07935C14.204 7.9987 14.4217 7.91796 14.5756 7.85679C14.6527 7.82614 14.7142 7.80024 14.7576 7.78148C14.7793 7.77209 14.7964 7.76448 14.8088 7.75894L14.8236 7.75222L14.8283 7.75009L14.8299 7.74934L14.831 7.74881C15.1651 7.59392 15.3103 7.19757 15.1554 6.86355C15.0005 6.5296 14.6043 6.38438 14.2703 6.53912L14.2629 6.54249C14.2557 6.54569 14.244 6.5509 14.228 6.55784C14.1959 6.57172 14.1468 6.59244 14.0831 6.61775C13.9555 6.66848 13.7711 6.73694 13.5493 6.8055C13.0985 6.94487 12.5266 7.07417 11.9766 7.07417C11.6297 7.07417 11.3002 7.02705 10.9709 6.94911C10.5371 6.84643 10.1037 6.69024 9.63125 6.51778L9.59344 6.50397C8.79853 6.21367 7.88632 5.99923 6.82865 5.99923C6.09164 5.99923 5.37659 6.04964 4.86214 6.20868C4.60127 6.28933 4.38353 6.37007 4.22963 6.43124C4.15253 6.46189 4.09103 6.48779 4.04769 6.50655C4.026 6.51593 4.00883 6.52355 3.99649 6.52909L3.98162 6.53581L3.97697 6.53794L3.97535 6.53869L3.97421 6.53921C3.64019 6.69411 3.49498 7.09046 3.64988 7.42448C3.80472 7.75837 4.2012 7.90342 4.53514 7.74881Z" fill="black"/>
<path d="M4.5424 10.2725L4.53514 10.2758C4.2012 10.4304 3.80472 10.2853 3.64988 9.95145C3.49498 9.61743 3.64019 9.22108 3.97421 9.06619L3.97535 9.06566L3.97697 9.06491L3.98162 9.06278L3.99649 9.05606C4.00883 9.05052 4.026 9.04291 4.04769 9.03352C4.09103 9.01477 4.15253 8.98886 4.22963 8.95821C4.38353 8.89704 4.60127 8.8163 4.86214 8.73565C5.37659 8.57661 6.09164 8.4075 6.82865 8.4075C7.88632 8.4075 8.79853 8.74064 9.59344 9.03094L9.63125 9.04475C10.1037 9.21721 10.5371 9.3734 10.9709 9.47608C11.3002 9.55402 11.6297 9.60114 11.9766 9.60114C12.5266 9.60114 13.0985 9.47184 13.5493 9.33247C13.7711 9.26392 13.9555 9.19545 14.0831 9.14472C14.1468 9.11942 14.1959 9.09869 14.228 9.08481C14.2372 9.08081 14.245 9.07737 14.2514 9.07457C14.256 9.07253 14.2598 9.07082 14.2629 9.06946L14.2703 9.06609C14.6043 8.91135 15.0005 9.05657 15.1554 9.39052C15.3103 9.72454 15.1651 10.1209 14.831 10.2758L14.8283 10.2771L14.8236 10.2792L14.8088 10.2859C14.7964 10.2915 14.7793 10.2991 14.7576 10.3085C14.7142 10.3272 14.6527 10.3531 14.5756 10.3838C14.4217 10.4449 14.204 10.5257 13.9431 10.6063C13.4287 10.7654 12.7136 10.9345 11.9766 10.9345C10.9189 10.9345 10.0067 10.6013 9.21181 10.311L9.174 10.2972C8.70152 10.1247 8.26803 9.96853 7.83417 9.86585C7.50494 9.78793 7.1755 9.74083 6.82865 9.74083C6.27868 9.74083 5.70675 9.87014 5.25595 10.0095C5.0342 10.0781 4.84976 10.1465 4.72213 10.1973C4.65847 10.2226 4.60937 10.2433 4.5773 10.2572C4.56128 10.2641 4.54954 10.2693 4.5424 10.2725Z" fill="black"/>
</g>
<defs>
<clipPath id="clip0_2031_563">
<rect width="16" height="16" fill="white"/>
</clipPath>
</defs>
</svg>
