<svg width="16" height="16" viewBox="0 0 16 16" fill="none" xmlns="http://www.w3.org/2000/svg">
<path d="M6.63656 5.86297C6.37686 5.60327 5.95581 5.60327 5.69611 5.86297L4.02944 7.52964C3.90473 7.65435 3.83467 7.82349 3.83467 7.99986C3.83467 8.17623 3.90473 8.34538 4.02944 8.47009L5.69611 10.1368C5.95581 10.3965 6.37686 10.3965 6.63656 10.1368C6.89626 9.87706 6.89626 9.456 6.63656 9.1963L6.10512 8.66486H9.89422L9.36277 9.1963C9.10308 9.456 9.10308 9.87706 9.36278 10.1368C9.62247 10.3965 10.0435 10.3965 10.3032 10.1368L11.9699 8.47009C12.2296 8.21039 12.2296 7.78934 11.9699 7.52964L10.3032 5.86297C10.0435 5.60327 9.62247 5.60327 9.36278 5.86297C9.10308 6.12267 9.10308 6.54372 9.36278 6.80342L9.89422 7.33486H6.10512L6.63656 6.80342C6.89626 6.54372 6.89626 6.12267 6.63656 5.86297Z" fill="black"/>
<path fill-rule="evenodd" clip-rule="evenodd" d="M3.29986 0.834961C2.1594 0.834961 1.23486 1.75949 1.23486 2.89996V13.1C1.23486 14.2404 2.1594 15.165 3.29986 15.165H12.6999C13.8403 15.165 14.7649 14.2404 14.7649 13.1V2.89996C14.7649 1.75949 13.8403 0.834961 12.6999 0.834961H3.29986ZM2.56486 2.89996C2.56486 2.49403 2.89393 2.16496 3.29986 2.16496H12.6999C13.1058 2.16496 13.4349 2.49403 13.4349 2.89996V13.1C13.4349 13.5059 13.1058 13.835 12.6999 13.835H3.29986C2.89393 13.835 2.56486 13.5059 2.56486 13.1V2.89996Z" fill="black"/>
</svg>
