<svg width="16" height="16" viewBox="0 0 16 16" fill="none" xmlns="http://www.w3.org/2000/svg">
<path fill-rule="evenodd" clip-rule="evenodd" d="M12.5586 1.94316C11.6257 1.00983 10.1126 1.01021 9.18011 1.944L4.63693 6.49368C4.55575 6.57497 4.49313 6.67287 4.45334 6.78064L3.04263 10.6026C2.9528 10.8459 3.01268 11.1193 3.19601 11.3028C3.37934 11.4863 3.65266 11.5465 3.89611 11.4569L7.73025 10.0462C7.83858 10.0064 7.93695 9.94344 8.01855 9.8618L12.5587 5.31928C13.4906 4.38684 13.4906 2.87556 12.5586 1.94316ZM10.1212 2.88378C10.5343 2.4701 11.2047 2.46993 11.618 2.88341C12.0308 3.29647 12.0309 3.96599 11.618 4.37907L7.16083 8.83857L4.78939 9.7111L5.66061 7.35079L10.1212 2.88378Z" fill="black"/>
<path d="M1.64986 13.2349C1.28259 13.2349 0.984863 13.5327 0.984863 13.8999C0.984863 14.2672 1.28259 14.5649 1.64986 14.5649H14.3499C14.7171 14.5649 15.0149 14.2672 15.0149 13.8999C15.0149 13.5327 14.7171 13.2349 14.3499 13.2349H1.64986Z" fill="black"/>
</svg>
