<svg width="16" height="16" viewBox="0 0 16 16" fill="none" xmlns="http://www.w3.org/2000/svg">
<path d="M8.04883 5.38216C8.04883 5.01397 7.75035 4.71549 7.38216 4.71549C7.01397 4.71549 6.71549 5.01397 6.71549 5.38216V6.71897L5.3865 6.7207C5.01831 6.72117 4.72022 7.02004 4.7207 7.38823C4.72118 7.75642 5.02005 8.05451 5.38824 8.05403L6.71549 8.0523V9.38216C6.71549 9.75035 7.01397 10.0488 7.38216 10.0488C7.75035 10.0488 8.04883 9.75035 8.04883 9.38216V8.05056L9.38304 8.04883C9.75123 8.04835 10.0493 7.74948 10.0488 7.38129C10.0484 7.0131 9.74949 6.71502 9.3813 6.7155L8.04883 6.71723V5.38216Z" fill="black"/>
<path fill-rule="evenodd" clip-rule="evenodd" d="M7.38216 1.04883C3.88437 1.04883 1.04883 3.88437 1.04883 7.38216C1.04883 10.88 3.88437 13.7155 7.38216 13.7155C8.89089 13.7155 10.2764 13.1879 11.3643 12.3072L13.813 14.7559C14.0733 15.0162 14.4954 15.0162 14.7558 14.7559C15.0161 14.4955 15.0161 14.0734 14.7558 13.8131L12.3071 11.3644C13.1879 10.2765 13.7155 8.89095 13.7155 7.38216C13.7155 3.88437 10.88 1.04883 7.38216 1.04883ZM2.38216 7.38216C2.38216 4.62075 4.62075 2.38216 7.38216 2.38216C10.1436 2.38216 12.3822 4.62075 12.3822 7.38216C12.3822 10.1436 10.1436 12.3822 7.38216 12.3822C4.62075 12.3822 2.38216 10.1436 2.38216 7.38216Z" fill="black"/>
</svg>
