<svg width="16" height="16" viewBox="0 0 16 16" fill="none" xmlns="http://www.w3.org/2000/svg">
<path fill-rule="evenodd" clip-rule="evenodd" d="M2.2498 3.65005C2.2498 2.87685 2.87661 2.25005 3.64981 2.25005H7.9998C8.33118 2.25005 8.5998 1.98142 8.5998 1.65005C8.5998 1.31868 8.33118 1.05005 7.9998 1.05005H3.64981C2.21387 1.05005 1.0498 2.21411 1.0498 3.65005V12.35C1.0498 13.786 2.21386 14.95 3.6498 14.95H12.3498C13.7857 14.95 14.9498 13.786 14.9498 12.3501V8.00005C14.9498 7.66868 14.6812 7.40005 14.3498 7.40005C14.0184 7.40005 13.7498 7.66868 13.7498 8.00005V9.23974L12.2385 8.1063C11.7252 7.72129 11.0068 7.7723 10.5531 8.22605L9.00869 9.77041L6.73916 7.8251C6.24387 7.40055 5.5095 7.41278 5.02864 7.85359L2.2498 10.4009V3.65005ZM2.2498 12.0287V12.35C2.2498 13.1232 2.87661 13.75 3.6498 13.75H12.3498C13.123 13.75 13.7498 13.1232 13.7498 12.3501V10.7397L11.5186 9.06631C11.4829 9.03956 11.433 9.04314 11.4016 9.07458L9.92249 10.5537L11.1015 11.5642C11.3531 11.7799 11.3822 12.1587 11.1666 12.4103C10.9509 12.6619 10.5721 12.691 10.3205 12.4753L5.9582 8.7362C5.92384 8.70674 5.87288 8.70758 5.83952 8.73816L2.2498 12.0287Z" fill="black"/>
<path d="M11.8097 1.14783C12.1411 1.14783 12.4097 1.41646 12.4097 1.74783V3.297H14.1541C14.4855 3.297 14.7541 3.56563 14.7541 3.897C14.7541 4.22837 14.4855 4.497 14.1541 4.497H12.4097V6.24167C12.4097 6.57304 12.1411 6.84167 11.8097 6.84167C11.4783 6.84167 11.2097 6.57304 11.2097 6.24167V4.497H9.6603C9.32893 4.497 9.0603 4.22837 9.0603 3.897C9.0603 3.56563 9.32893 3.297 9.6603 3.297H11.2097V1.74783C11.2097 1.41646 11.4783 1.14783 11.8097 1.14783Z" fill="black"/>
</svg>
