<svg width="16" height="16" viewBox="0 0 16 16" fill="none" xmlns="http://www.w3.org/2000/svg">
<path d="M6.44751 5.14236C6.44751 4.81099 6.71614 4.54236 7.04751 4.54236H8.95252C9.28389 4.54236 9.55252 4.81099 9.55252 5.14236C9.55252 5.47373 9.28389 5.74236 8.95252 5.74236H7.04751C6.71614 5.74236 6.44751 5.47373 6.44751 5.14236Z" fill="black"/>
<path d="M6.4125 11.8448C6.08113 11.8448 5.8125 12.1135 5.8125 12.4448C5.8125 12.7762 6.08113 13.0448 6.4125 13.0448H9.58751C9.91888 13.0448 10.1875 12.7762 10.1875 12.4448C10.1875 12.1135 9.91888 11.8448 9.58751 11.8448H6.4125Z" fill="black"/>
<path fill-rule="evenodd" clip-rule="evenodd" d="M2.60244 1.04993C2.27107 1.04993 2.00244 1.31856 2.00244 1.64993C2.00244 1.9813 2.27107 2.24993 2.60244 2.24993H3.38481C3.80188 4.16479 4.34466 5.67408 5.03628 6.73811C5.37499 7.2592 5.75898 7.68598 6.18887 7.99886C5.75895 8.31142 5.37495 8.73805 5.03628 9.25909C4.34459 10.3232 3.80179 11.8334 3.38474 13.7499H2.60244C2.27107 13.7499 2.00244 14.0185 2.00244 14.3499C2.00244 14.6812 2.27107 14.9499 2.60244 14.9499H3.8652L3.87246 14.9499H12.1275L12.1347 14.9499H13.3975C13.7288 14.9499 13.9975 14.6812 13.9975 14.3499C13.9975 14.0185 13.7288 13.7499 13.3975 13.7499H12.6151C12.1981 11.835 11.6553 10.3258 10.9637 9.26174C10.625 8.74065 10.241 8.31386 9.81108 8.00099C10.241 7.68843 10.625 7.2618 10.9637 6.74076C11.6554 5.67661 12.1982 4.16639 12.6152 2.24993H13.3975C13.7288 2.24993 13.9975 1.9813 13.9975 1.64993C13.9975 1.31856 13.7288 1.04993 13.3975 1.04993H2.60244ZM11.3858 2.24993H4.61433C5.00692 3.96714 5.48964 5.23371 6.04241 6.08412C6.65685 7.0294 7.3085 7.39572 7.99047 7.39991L8.00053 7.3999L8.01059 7.39993C8.69199 7.39701 9.34321 7.0319 9.95753 6.08678C10.5103 5.23631 10.9931 3.96889 11.3858 2.24993ZM7.9893 8.59992L7.99941 8.59995L8.00953 8.59994C8.69149 8.60415 9.34312 8.97047 9.95754 9.91573C10.5103 10.7661 10.993 12.0327 11.3856 13.7499H4.6142C5.00684 12.0309 5.48961 10.7635 6.04241 9.91307C6.65672 8.96798 7.30792 8.60286 7.9893 8.59992Z" fill="black"/>
</svg>
