<svg width="16" height="16" viewBox="0 0 16 16" fill="none" xmlns="http://www.w3.org/2000/svg">
<path d="M8.41311 4.08315C8.22793 3.93752 8.07717 4.04341 8.07717 4.30052V4.98473H8.04641C6.96438 4.98473 5.12332 6.20406 5.1083 7.28752C5.1083 7.37462 5.18044 7.399 5.24905 7.28752C5.59854 6.67925 7.06802 6.36363 7.81704 6.36363H8.07644V7.08547C8.07644 7.30077 8.24014 7.44847 8.42593 7.30284L10.1369 5.96367C10.322 5.81877 10.322 5.58187 10.1369 5.43624L8.41311 4.08315Z" fill="black"/>
<path fill-rule="evenodd" clip-rule="evenodd" d="M3.60732 1.40002C2.17138 1.40002 1.00732 2.56408 1.00732 4.00002V7.93118C1.00732 9.36712 2.17138 10.5312 3.60732 10.5312H7.40636C7.40211 10.56 7.3999 10.5895 7.3999 10.6195V13.2043H4.9999C4.66853 13.2043 4.3999 13.473 4.3999 13.8043C4.3999 14.1357 4.66853 14.4043 4.9999 14.4043H10.9999C11.3313 14.4043 11.5999 14.1357 11.5999 13.8043C11.5999 13.473 11.3313 13.2043 10.9999 13.2043H8.5999V10.6195C8.5999 10.5895 8.5977 10.56 8.59344 10.5312H12.393C13.8289 10.5312 14.993 9.36712 14.993 7.93118V4.00002C14.993 2.56408 13.8289 1.40002 12.393 1.40002H3.60732ZM2.20732 4.00002C2.20732 3.22683 2.83413 2.60002 3.60732 2.60002H12.393C13.1662 2.60002 13.793 3.22683 13.793 4.00002V7.93118C13.793 8.70438 13.1662 9.33118 12.393 9.33118H3.60732C2.83413 9.33118 2.20732 8.70438 2.20732 7.93118V4.00002Z" fill="black"/>
</svg>
