<svg width="16" height="16" viewBox="0 0 16 16" fill="none" xmlns="http://www.w3.org/2000/svg">
<path fill-rule="evenodd" clip-rule="evenodd" d="M4.66679 3.26665C3.89359 3.26665 3.26679 3.89345 3.26679 4.66665C3.26679 5.43985 3.89359 6.06665 4.66679 6.06665C5.43999 6.06665 6.06679 5.43985 6.06679 4.66665C6.06679 3.89345 5.43999 3.26665 4.66679 3.26665ZM2.06679 4.66665C2.06679 3.23071 3.23085 2.06665 4.66679 2.06665C6.10273 2.06665 7.26679 3.23071 7.26679 4.66665C7.26679 5.17907 7.11856 5.65686 6.86263 6.05949C6.97331 6.12399 7.09125 6.20092 7.21202 6.29224C7.47987 6.49479 7.75819 6.76595 8.00013 7.12221C8.24206 6.76595 8.52038 6.49479 8.78824 6.29224C8.909 6.20092 9.02695 6.12399 9.13762 6.05949C8.88169 5.65686 8.73346 5.17907 8.73346 4.66665C8.73346 3.23071 9.89752 2.06665 11.3335 2.06665C12.7694 2.06665 13.9335 3.23071 13.9335 4.66665C13.9335 5.20434 13.7702 5.70391 13.4906 6.11852C13.6414 6.22583 13.8095 6.36188 13.9812 6.53132C14.5305 7.0736 15.1012 7.94459 15.2623 9.2604C15.3026 9.58931 15.0686 9.8886 14.7397 9.92887C14.4108 9.96914 14.1115 9.73515 14.0712 9.40624C13.9467 8.38871 13.5174 7.7597 13.1381 7.38531C12.9455 7.19519 12.762 7.06728 12.6308 6.98864C12.6092 6.97572 12.5891 6.96418 12.5707 6.95395C12.2028 7.15339 11.7814 7.26665 11.3335 7.26665C10.8752 7.26665 10.4447 7.14811 10.0708 6.94003C10.0456 6.94919 10.015 6.96109 9.97986 6.97611C9.85958 7.02756 9.69121 7.1139 9.51202 7.2494C9.25657 7.44256 8.97141 7.74055 8.77094 8.20108C9.64333 8.51651 10.2668 9.35211 10.2668 10.3333C10.2668 10.5699 10.2305 10.798 10.1633 11.0125C10.2513 11.0591 10.344 11.1135 10.4396 11.1767C10.9631 11.5231 11.5537 12.1256 11.901 13.1387C12.0085 13.4522 11.8415 13.7934 11.5281 13.9009C11.2146 14.0084 10.8734 13.8414 10.7659 13.5279C10.5132 12.791 10.1039 12.3935 9.77734 12.1774C9.67962 12.1128 9.58773 12.0634 9.5076 12.0261C9.10702 12.3831 8.57891 12.6 8.00013 12.6C7.42135 12.6 6.89323 12.3831 6.49265 12.0261C6.41253 12.0634 6.32064 12.1128 6.22291 12.1774C5.89639 12.3935 5.48702 12.791 5.23436 13.5279C5.12689 13.8414 4.78566 14.0084 4.4722 13.9009C4.15874 13.7934 3.99175 13.4522 4.09923 13.1387C4.44657 12.1256 5.03719 11.5231 5.56067 11.1767C5.65624 11.1135 5.749 11.0591 5.83696 11.0125C5.76971 10.798 5.73346 10.5699 5.73346 10.3333C5.73346 9.35211 6.35693 8.51651 7.22932 8.20108C7.02884 7.74055 6.74368 7.44256 6.48824 7.2494C6.30905 7.1139 6.14067 7.02756 6.02039 6.97611C5.98528 6.96109 5.95461 6.94919 5.92942 6.94003C5.55556 7.14811 5.12502 7.26665 4.66679 7.26665C4.21889 7.26665 3.79744 7.15339 3.42952 6.95395C3.41114 6.96418 3.39106 6.97572 3.36949 6.98864C3.23824 7.06728 3.05471 7.19519 2.86212 7.38531C2.48286 7.7597 2.05361 8.38871 1.92901 9.40624C1.88874 9.73516 1.58945 9.96914 1.26054 9.92887C0.931621 9.88859 0.697633 9.58931 0.737908 9.26039C0.899027 7.94459 1.46977 7.0736 2.01908 6.53132C2.19072 6.36189 2.35885 6.22582 2.5096 6.11851C2.23001 5.70391 2.06679 5.20434 2.06679 4.66665ZM7.1541 10.983C7.14936 10.9765 7.14449 10.97 7.1395 10.9636C7.00996 10.787 6.93346 10.5691 6.93346 10.3333C6.93346 9.74421 7.41102 9.26665 8.00013 9.26665C8.58923 9.26665 9.06679 9.74421 9.06679 10.3333C9.06679 10.5691 8.99029 10.787 8.86076 10.9636C8.85576 10.97 8.85089 10.9765 8.84614 10.9831C8.65113 11.2366 8.34471 11.4 8.00013 11.4C7.65554 11.4 7.34911 11.2366 7.1541 10.983ZM10.1467 6.91515L10.1474 6.91496C10.1476 6.9149 10.1474 6.91495 10.1468 6.91512C10.1455 6.91543 10.1443 6.91575 10.143 6.91606M11.3335 3.26665C10.5603 3.26665 9.93346 3.89345 9.93346 4.66665C9.93346 5.43985 10.5603 6.06665 11.3335 6.06665C12.1067 6.06665 12.7335 5.43985 12.7335 4.66665C12.7335 3.89345 12.1067 3.26665 11.3335 3.26665Z" fill="black"/>
</svg>
