<svg width="16" height="16" viewBox="0 0 16 16" fill="none" xmlns="http://www.w3.org/2000/svg">
<g clip-path="url(#clip0_910_261)">
<path fill-rule="evenodd" clip-rule="evenodd" d="M5.1001 9.15C5.1001 7.54838 6.39848 6.25 8.0001 6.25C9.60172 6.25 10.9001 7.54838 10.9001 9.15C10.9001 10.7516 9.60172 12.05 8.0001 12.05C6.39848 12.05 5.1001 10.7516 5.1001 9.15ZM8.0001 7.45C7.06122 7.45 6.3001 8.21112 6.3001 9.15C6.3001 10.0889 7.06122 10.85 8.0001 10.85C8.93898 10.85 9.7001 10.0889 9.7001 9.15C9.7001 8.21112 8.93898 7.45 8.0001 7.45Z" fill="black"/>
<path fill-rule="evenodd" clip-rule="evenodd" d="M8.60381 1.4833C8.60381 1.15193 8.33518 0.883301 8.00381 0.883301C7.67244 0.883301 7.40381 1.15193 7.40381 1.4833V3.20709C6.5841 3.27271 5.80413 3.47051 5.08424 3.7618L4.37284 2.76916C4.17981 2.49982 3.80499 2.43796 3.53564 2.63099C3.2663 2.82402 3.20444 3.19885 3.39747 3.46819L3.99247 4.29842C3.53431 4.56578 3.11131 4.86933 2.73058 5.19556C1.41664 6.32137 0.5 7.81457 0.5 9.14989C0.5 10.4852 1.41664 11.9784 2.73058 13.1042C4.06812 14.2503 5.9273 15.1166 8 15.1166C10.0726 15.1166 11.9317 14.2509 13.2694 13.1051C14.5834 11.9795 15.5 10.4863 15.5 9.14989C15.5 7.81353 14.5834 6.32031 13.2694 5.19467C12.9796 4.94647 12.6654 4.71142 12.3298 4.49546L12.9441 3.63836C13.1371 3.36902 13.0753 2.99419 12.8059 2.80116C12.5366 2.60812 12.1618 2.66998 11.9687 2.93933L11.2699 3.91436C10.4564 3.54075 9.55703 3.28492 8.60381 3.20769V1.4833ZM7.99448 4.38323C7.99759 4.38328 8.00069 4.3833 8.00381 4.3833C8.00669 4.3833 8.00957 4.38328 8.01245 4.38324C9.74577 4.38671 11.3318 5.115 12.4887 6.10602C13.6719 7.11958 14.3 8.3097 14.3 9.14989C14.3 9.99009 13.6719 11.1802 12.4887 12.1938C11.329 13.1872 9.73818 13.9166 8 13.9166C6.26194 13.9166 4.67112 13.1867 3.51136 12.193C2.32798 11.179 1.7 9.98891 1.7 9.14989C1.7 8.31087 2.32798 7.12075 3.51136 6.10681C4.6699 5.11415 6.25858 4.38477 7.99448 4.38323Z" fill="black"/>
</g>
<defs>
<clipPath id="clip0_910_261">
<rect width="16" height="16" fill="white"/>
</clipPath>
</defs>
</svg>
