<svg width="16" height="16" viewBox="0 0 16 16" fill="none" xmlns="http://www.w3.org/2000/svg">
<path d="M1.99996 1.47607C1.63269 1.47607 1.33496 1.7738 1.33496 2.14107V11.8585C1.33496 13.3303 2.52812 14.5235 3.99996 14.5235H14C14.3672 14.5235 14.665 14.2258 14.665 13.8585C14.665 13.4912 14.3672 13.1935 14 13.1935H3.99996C3.26266 13.1935 2.66496 12.5958 2.66496 11.8585V2.14107C2.66496 1.7738 2.36723 1.47607 1.99996 1.47607Z" fill="black"/>
<path fill-rule="evenodd" clip-rule="evenodd" d="M14.0313 2.49849C13.7096 2.32137 13.3052 2.43861 13.128 2.76035L13.1274 2.76147L10.692 7.3977C10.5878 7.58631 10.3347 7.62939 10.1745 7.48515L8.75426 6.20698C7.93673 5.4712 6.64309 5.7162 6.15121 6.69995L4.07183 10.8587C3.9775 11.0474 3.98132 11.2595 4.06374 11.4368C4.16337 11.6782 4.40109 11.8482 4.67869 11.8482L13.3138 11.8481C13.9019 11.848 14.3787 11.3712 14.3787 10.7831V3.08932C14.3787 3.00105 14.3615 2.91666 14.3302 2.83942C14.2756 2.69929 14.1733 2.57667 14.0313 2.49849ZM11.8577 8.03798L13.0487 5.77072V10.1831C13.0487 10.3681 12.8988 10.5181 12.7138 10.5181L5.7857 10.5182C5.75968 10.5182 5.74276 10.4908 5.7544 10.4676L7.3408 7.29475C7.43977 7.09681 7.70005 7.04752 7.86454 7.19556L9.28473 8.47373C10.082 9.19129 11.3399 8.97877 11.8571 8.0391L11.8577 8.03798Z" fill="black"/>
</svg>
