<svg width="16" height="16" viewBox="0 0 16 16" fill="none" xmlns="http://www.w3.org/2000/svg">
<path fill-rule="evenodd" clip-rule="evenodd" d="M15.0181 3.48697C15.0181 2.67788 14.3622 2.02197 13.5531 2.02197L2.40373 2.02197V1.33346C2.40373 0.966188 2.106 0.668457 1.73873 0.668457C1.37146 0.668457 1.07373 0.966188 1.07373 1.33346V14.6668C1.07373 15.0341 1.37146 15.3318 1.73873 15.3318C2.106 15.3318 2.40373 15.0341 2.40373 14.6668V13.9779H8.55311C9.36221 13.9779 10.0181 13.322 10.0181 12.5129V11.8835C10.0181 11.0744 9.36221 10.4185 8.55311 10.4185H2.40373L2.40373 9.77969H11.4614C12.2705 9.77969 12.9264 9.12379 12.9264 8.31469V7.68522C12.9264 6.87612 12.2705 6.22022 11.4614 6.22022L2.40373 6.22021V5.58144L13.5531 5.58145C14.3622 5.58145 15.0181 4.92554 15.0181 4.11645V3.48697ZM13.5531 3.35197C13.6277 3.35197 13.6881 3.41242 13.6881 3.48697V4.11645C13.6881 4.191 13.6277 4.25145 13.5531 4.25145L2.43148 4.25144V3.35197L13.5531 3.35197ZM11.4614 7.55022C11.536 7.55022 11.5964 7.61066 11.5964 7.68522V8.31469C11.5964 8.38925 11.536 8.44969 11.4614 8.44969L2.43151 8.44969V7.55021L11.4614 7.55022ZM8.55311 11.7485C8.62767 11.7485 8.68811 11.8089 8.68811 11.8835V12.5129C8.68811 12.5875 8.62767 12.6479 8.55311 12.6479H2.43148V11.7485H8.55311Z" fill="black"/>
</svg>
