<svg width="16" height="16" viewBox="0 0 16 16" fill="none" xmlns="http://www.w3.org/2000/svg">
<path d="M14.8451 2.33423C14.5367 2.13477 14.125 2.22308 13.9256 2.53147L9.97794 8.63513C9.86083 8.81619 9.60565 8.84107 9.45578 8.68602L7.04186 6.18879C6.26392 5.38399 4.92936 5.5607 4.38768 6.54023L0.934251 12.7852C0.756518 13.1066 0.872983 13.5112 1.19438 13.6889C1.51578 13.8667 1.92041 13.7502 2.09814 13.4288L5.55157 7.18386C5.66055 6.98678 5.92907 6.95122 6.08559 7.11315L8.49951 9.61039C9.24438 10.381 10.5127 10.2573 11.0947 9.35742L15.0424 3.25377C15.2418 2.94538 15.1535 2.53369 14.8451 2.33423Z" fill="black"/>
</svg>
