<svg width="16" height="16" viewBox="0 0 16 16" fill="none" xmlns="http://www.w3.org/2000/svg">
<path fill-rule="evenodd" clip-rule="evenodd" d="M1.99361 1.47656C1.62634 1.47656 1.32861 1.77429 1.32861 2.14156V11.859C1.32861 13.3308 2.52178 14.524 3.99361 14.524H13.9936C14.3609 14.524 14.6586 14.2262 14.6586 13.859C14.6586 13.4917 14.3609 13.194 13.9936 13.194H3.99361C3.25631 13.194 2.65861 12.5963 2.65861 11.859V2.14156C2.65861 1.77429 2.36088 1.47656 1.99361 1.47656ZM12.4467 1.77197C11.218 1.77197 10.2218 2.76804 10.2218 3.99678C10.2218 5.22552 11.2179 6.22159 12.4467 6.22159C13.6754 6.22159 14.6715 5.22552 14.6715 3.99678C14.6715 2.76804 13.6754 1.77197 12.4467 1.77197ZM11.5518 3.99678C11.5518 3.50261 11.9525 3.10197 12.4467 3.10197C12.9409 3.10197 13.3415 3.50261 13.3415 3.99678C13.3415 4.49095 12.9409 4.89159 12.4467 4.89159C11.9525 4.89159 11.5518 4.49095 11.5518 3.99678ZM7.00828 4.14307C6.09683 4.14307 5.35791 4.88194 5.35791 5.79342C5.35791 6.70489 6.09683 7.44376 7.00828 7.44376C7.91974 7.44376 8.65865 6.70489 8.65865 5.79342C8.65865 4.88194 7.91974 4.14307 7.00828 4.14307ZM6.68791 5.79342C6.68791 5.61651 6.83133 5.47307 7.00828 5.47307C7.18523 5.47307 7.32865 5.61651 7.32865 5.79342C7.32865 5.97032 7.18523 6.11376 7.00828 6.11376C6.83134 6.11376 6.68791 5.97032 6.68791 5.79342ZM10.6233 7.33496C9.67985 7.33496 8.91504 8.09973 8.91504 9.04315C8.91504 9.98657 9.67985 10.7513 10.6233 10.7513C11.5667 10.7513 12.3315 9.98657 12.3315 9.04315C12.3315 8.09973 11.5667 7.33496 10.6233 7.33496ZM5.72408 8.47803C4.66945 8.47803 3.81445 9.33297 3.81445 10.3876C3.81445 11.4423 4.66944 12.2972 5.72408 12.2972C6.77872 12.2972 7.63371 11.4423 7.63371 10.3876C7.63371 9.33297 6.77872 8.47803 5.72408 8.47803ZM10.245 9.04315C10.245 8.8343 10.4144 8.66496 10.6233 8.66496C10.8321 8.66496 11.0015 8.8343 11.0015 9.04315C11.0015 9.252 10.8321 9.42134 10.6233 9.42134C10.4144 9.42134 10.245 9.252 10.245 9.04315ZM5.14445 10.3876C5.14445 10.0675 5.40395 9.80803 5.72408 9.80803C6.04421 9.80803 6.30371 10.0675 6.30371 10.3876C6.30371 10.7077 6.04421 10.9672 5.72408 10.9672C5.40395 10.9672 5.14445 10.7077 5.14445 10.3876Z" fill="black"/>
</svg>
