<svg width="16" height="16" viewBox="0 0 16 16" fill="none" xmlns="http://www.w3.org/2000/svg">
<path d="M0.999961 13.7427C0.632692 13.7427 0.334961 14.0404 0.334961 14.4077C0.334961 14.7749 0.632692 15.0727 0.999961 15.0727H15C15.3672 15.0727 15.665 14.7749 15.665 14.4077C15.665 14.0404 15.3672 13.7427 15 13.7427H0.999961Z" fill="black"/>
<path fill-rule="evenodd" clip-rule="evenodd" d="M10.8623 2.89219C10.8623 1.84285 11.713 0.992188 12.7623 0.992188C13.8116 0.992188 14.6623 1.84285 14.6623 2.89219V10.892C14.6623 11.9414 13.8116 12.792 12.7623 12.792C11.713 12.792 10.8623 11.9414 10.8623 10.892V2.89219ZM13.3323 2.89219V10.892C13.3323 11.2068 13.0771 11.462 12.7623 11.462C12.4475 11.462 12.1923 11.2068 12.1923 10.892V2.89219C12.1923 2.57739 12.4475 2.32219 12.7623 2.32219C13.0771 2.32219 13.3323 2.57738 13.3323 2.89219Z" fill="black"/>
<path fill-rule="evenodd" clip-rule="evenodd" d="M7.99961 3.7002C6.95027 3.7002 6.09961 4.55085 6.09961 5.60019V10.892C6.09961 11.9414 6.95027 12.792 7.99961 12.792C9.04895 12.792 9.89961 11.9414 9.89961 10.892V5.6002C9.89961 4.55085 9.04895 3.7002 7.99961 3.7002ZM8.56961 10.892V5.6002C8.56961 5.28539 8.31441 5.0302 7.99961 5.0302C7.68481 5.0302 7.42961 5.28539 7.42961 5.60019V10.892C7.42961 11.2068 7.68481 11.462 7.99961 11.462C8.31441 11.462 8.56961 11.2068 8.56961 10.892Z" fill="black"/>
<path fill-rule="evenodd" clip-rule="evenodd" d="M3.23789 5.86719C2.18855 5.86719 1.33789 6.71784 1.33789 7.76719V10.892C1.33789 11.9413 2.18855 12.792 3.23789 12.792C4.28723 12.792 5.13789 11.9413 5.13789 10.892V7.76719C5.13789 6.71785 4.28723 5.86719 3.23789 5.86719ZM3.80789 10.892V7.76719C3.80789 7.45238 3.55269 7.19719 3.23789 7.19719C2.92309 7.19719 2.66789 7.45238 2.66789 7.76719V10.892C2.66789 11.2068 2.92309 11.462 3.23789 11.462C3.55269 11.462 3.80789 11.2068 3.80789 10.892Z" fill="black"/>
</svg>
