<svg width="16" height="16" viewBox="0 0 16 16" fill="none" xmlns="http://www.w3.org/2000/svg">
<path d="M10.1258 1.5863C9.92327 1.5227 9.70259 1.55933 9.53149 1.68493C9.3604 1.81052 9.25933 2.01009 9.25933 2.22234V6.07419C9.25933 6.44238 9.55781 6.74085 9.926 6.74085H13.7779C13.9901 6.74085 14.1897 6.63979 14.3153 6.46869C14.4409 6.2976 14.4775 6.07692 14.4139 5.87443C13.7734 3.83528 12.1649 2.22675 10.1258 1.5863Z" fill="black"/>
<path fill-rule="evenodd" clip-rule="evenodd" d="M1.63086 8.00007C1.63086 4.48263 4.48231 1.63118 7.99975 1.63118C8.32621 1.63118 8.59086 1.89583 8.59086 2.2223V7.40896H13.7775C14.104 7.40896 14.3686 7.67361 14.3686 8.00007C14.3686 11.5175 11.5172 14.369 7.99975 14.369C4.48231 14.369 1.63086 11.5175 1.63086 8.00007ZM7.40864 2.84672C4.82247 3.14012 2.81308 5.33543 2.81308 8.00007C2.81308 10.8646 5.13523 13.1867 7.99975 13.1867C10.6644 13.1867 12.8597 11.1774 13.1531 8.59118H7.99975C7.67329 8.59118 7.40864 8.32654 7.40864 8.00007V2.84672Z" fill="black"/>
</svg>
