<svg width="16" height="16" viewBox="0 0 16 16" fill="none" xmlns="http://www.w3.org/2000/svg">
<path fill-rule="evenodd" clip-rule="evenodd" d="M10.5 1.5498C9.58041 1.5498 8.83496 2.29525 8.83496 3.2148V4.67484C8.7267 4.65272 8.61466 4.64111 8.49996 4.64111H7.49996C6.58041 4.64111 5.83496 5.38656 5.83496 6.30611V7.66898C5.7267 7.64686 5.61466 7.63525 5.49996 7.63525H4.49996C3.58041 7.63525 2.83496 8.3807 2.83496 9.30025V13.1201H1.33346C0.966188 13.1201 0.668457 13.4178 0.668457 13.7851C0.668457 14.1524 0.966188 14.4501 1.33346 14.4501H3.48943L3.49996 14.4502L6.50052 14.4502L6.50296 14.4502L9.50044 14.4502L9.50699 14.4501L12.5002 14.4501L12.5051 14.4501H14.6668C15.0341 14.4501 15.3318 14.1524 15.3318 13.7851C15.3318 13.4178 15.0341 13.1201 14.6668 13.1201H13.165V3.2148C13.165 2.29525 12.4195 1.5498 11.5 1.5498H10.5ZM10.165 3.2148C10.165 3.02979 10.3149 2.8798 10.5 2.8798H11.5C11.685 2.8798 11.835 3.02979 11.835 3.2148V13.1201H10.165V3.2148ZM7.16496 6.30611C7.16496 6.1211 7.31495 5.97111 7.49996 5.97111H8.49996C8.68498 5.97111 8.83496 6.1211 8.83496 6.30611V13.1201H7.16496V6.30611ZM4.16496 9.30025C4.16496 9.11524 4.31495 8.96525 4.49996 8.96525H5.49996C5.68498 8.96525 5.83496 9.11524 5.83496 9.30025V13.1201H4.16496V9.30025Z" fill="black"/>
</svg>
