<svg width="16" height="16" viewBox="0 0 16 16" fill="none" xmlns="http://www.w3.org/2000/svg">
<path fill-rule="evenodd" clip-rule="evenodd" d="M7.68521 1.07373C6.87612 1.07373 6.22021 1.72963 6.22021 2.53873V13.5964H5.58144V7.44706C5.58144 6.63796 4.92554 5.98206 4.11644 5.98206H3.48697C2.67788 5.98206 2.02197 6.63796 2.02197 7.44706V13.5964H1.33346C0.966188 13.5964 0.668457 13.8942 0.668457 14.2614C0.668457 14.6287 0.966188 14.9264 1.33346 14.9264H14.6668C15.0341 14.9264 15.3318 14.6287 15.3318 14.2614C15.3318 13.8942 15.0341 13.5964 14.6668 13.5964H13.9779V7.44706C13.9779 6.63796 13.322 5.98206 12.5129 5.98206H11.8835C11.0744 5.98206 10.4185 6.63796 10.4185 7.44706V13.5964H9.77969V2.53873C9.77969 1.72963 9.12379 1.07373 8.31469 1.07373H7.68521ZM7.55021 2.53873C7.55021 2.46417 7.61066 2.40373 7.68521 2.40373H8.31469C8.38925 2.40373 8.44969 2.46417 8.44969 2.53873V13.5687H7.55021V2.53873ZM3.35197 7.44706C3.35197 7.3725 3.41241 7.31206 3.48697 7.31206H4.11644C4.191 7.31206 4.25144 7.3725 4.25144 7.44706V13.5687H3.35197V7.44706ZM11.7485 7.44706C11.7485 7.3725 11.8089 7.31206 11.8835 7.31206H12.5129C12.5875 7.31206 12.6479 7.3725 12.6479 7.44706V13.5687H11.7485V7.44706Z" fill="black"/>
</svg>
