<svg width="16" height="16" viewBox="0 0 16 16" fill="none" xmlns="http://www.w3.org/2000/svg">
<path d="M14.2399 1.55263C14.0074 1.26833 13.5884 1.22633 13.3041 1.45883L9.64907 4.44789C9.5587 4.52179 9.43637 4.54332 9.3262 4.50471L6.28116 3.43747C5.74687 3.25021 5.15403 3.34729 4.70736 3.69517L1.86627 5.90795C1.57652 6.13363 1.52457 6.55146 1.75025 6.84122C1.97592 7.13097 2.39376 7.18292 2.68351 6.95725L5.5246 4.74447C5.61447 4.67447 5.73375 4.65494 5.84125 4.69262L8.88629 5.75985C9.43387 5.95177 10.0419 5.84477 10.491 5.47745L14.1461 2.48839C14.4304 2.25589 14.4724 1.83694 14.2399 1.55263Z" fill="black"/>
<path fill-rule="evenodd" clip-rule="evenodd" d="M7.68521 6.53369C6.87612 6.53369 6.22021 7.18959 6.22021 7.99869V13.3612H5.58144V9.90702C5.58144 9.09792 4.92554 8.44202 4.11644 8.44202H3.48697C2.67788 8.44202 2.02197 9.09792 2.02197 9.90702V13.3612H1.33346C0.966188 13.3612 0.668457 13.6589 0.668457 14.0262C0.668457 14.3935 0.966188 14.6912 1.33346 14.6912H14.6668C15.0341 14.6912 15.3318 14.3935 15.3318 14.0262C15.3318 13.6589 15.0341 13.3612 14.6668 13.3612H13.9779V9.90702C13.9779 9.09792 13.322 8.44202 12.5129 8.44202H11.8835C11.0744 8.44202 10.4185 9.09792 10.4185 9.90702V13.3612H9.77969V7.99869C9.77969 7.1896 9.12379 6.53369 8.31469 6.53369H7.68521ZM7.55021 7.99869C7.55021 7.92413 7.61066 7.86369 7.68521 7.86369H8.31469C8.38925 7.86369 8.44969 7.92413 8.44969 7.99869V13.3334H7.55021V7.99869ZM3.35197 9.90702C3.35197 9.83246 3.41241 9.77202 3.48697 9.77202H4.11644C4.191 9.77202 4.25144 9.83246 4.25144 9.90702V13.3334H3.35197V9.90702ZM11.7485 9.90702C11.7485 9.83246 11.8089 9.77202 11.8835 9.77202H12.5129C12.5875 9.77202 12.6479 9.83246 12.6479 9.90702V13.3334H11.7485V9.90702Z" fill="black"/>
</svg>
