<svg width="16" height="16" viewBox="0 0 16 16" fill="none" xmlns="http://www.w3.org/2000/svg">
<path fill-rule="evenodd" clip-rule="evenodd" d="M1.99996 1.33496C1.63269 1.33496 1.33496 1.63269 1.33496 1.99996V13C1.33496 13.9195 2.08041 14.665 2.99996 14.665H14C14.3672 14.665 14.665 14.3672 14.665 14C14.665 13.6327 14.3672 13.335 14 13.335H2.99996C2.81495 13.335 2.66496 13.185 2.66496 13V1.99996C2.66496 1.63269 2.36723 1.33496 1.99996 1.33496ZM9.99996 1.33496C9.63269 1.33496 9.33496 1.63269 9.33496 1.99996V11.3333C9.33496 11.7006 9.63269 11.9983 9.99996 11.9983C10.3672 11.9983 10.665 11.7006 10.665 11.3333V1.99996C10.665 1.63269 10.3672 1.33496 9.99996 1.33496ZM12.667 4.00171C12.2997 4.00171 12.002 4.29944 12.002 4.66671V11.3334C12.002 11.7006 12.2997 11.9984 12.667 11.9984C13.0342 11.9984 13.332 11.7006 13.332 11.3334V4.66671C13.332 4.29944 13.0342 4.00171 12.667 4.00171ZM7.33346 6.66846C6.96619 6.66846 6.66846 6.96619 6.66846 7.33346V11.3335C6.66846 11.7007 6.96619 11.9985 7.33346 11.9985C7.70073 11.9985 7.99846 11.7007 7.99846 11.3335V7.33346C7.99846 6.96619 7.70073 6.66846 7.33346 6.66846ZM4.66695 9.33496C4.29968 9.33496 4.00195 9.63269 4.00195 9.99996V11.3333C4.00195 11.7006 4.29968 11.9983 4.66695 11.9983C5.03422 11.9983 5.33195 11.7006 5.33195 11.3333V9.99996C5.33195 9.63269 5.03422 9.33496 4.66695 9.33496Z" fill="black"/>
</svg>
