<svg width="16" height="16" viewBox="0 0 16 16" fill="none" xmlns="http://www.w3.org/2000/svg">
<path d="M8.62642 1.75244C7.70687 1.75244 6.96142 2.49789 6.96142 3.41744V6.8861C6.96142 7.07111 6.81144 7.2211 6.62642 7.2211H5.34927C4.42971 7.2211 3.68427 7.96654 3.68427 8.8861V12.5825C3.68427 12.7675 3.53428 12.9175 3.34927 12.9175H1.47457C1.1073 12.9175 0.80957 13.2152 0.80957 13.5825C0.80957 13.9497 1.1073 14.2475 1.47457 14.2475H3.34927C4.26882 14.2475 5.01427 13.502 5.01427 12.5825V8.8861C5.01427 8.70108 5.16425 8.5511 5.34927 8.5511H6.62642C7.54597 8.5511 8.29142 7.80565 8.29142 6.8861V3.41744C8.29142 3.23243 8.44141 3.08244 8.62642 3.08244H10.9961C11.1811 3.08244 11.3311 3.23243 11.3311 3.41744V10.8356C11.3311 11.7552 12.0765 12.5006 12.9961 12.5006H14.5258C14.8931 12.5006 15.1908 12.2029 15.1908 11.8356C15.1908 11.4683 14.8931 11.1706 14.5258 11.1706H12.9961C12.811 11.1706 12.6611 11.0206 12.6611 10.8356V3.41744C12.6611 2.49789 11.9156 1.75244 10.9961 1.75244H8.62642Z" fill="black"/>
</svg>
