<svg width="16" height="16" viewBox="0 0 16 16" fill="none" xmlns="http://www.w3.org/2000/svg">
<path d="M1.99996 1.47607C1.63269 1.47607 1.33496 1.7738 1.33496 2.14107V11.8585C1.33496 13.3303 2.52812 14.5235 3.99996 14.5235H14C14.3672 14.5235 14.665 14.2258 14.665 13.8585C14.665 13.4912 14.3672 13.1935 14 13.1935H3.99996C3.26266 13.1935 2.66496 12.5958 2.66496 11.8585V2.14107C2.66496 1.7738 2.36723 1.47607 1.99996 1.47607Z" fill="black"/>
<path d="M14.0313 2.49849C13.7096 2.32137 13.3052 2.43861 13.128 2.76035L13.1274 2.76147L10.692 7.3977C10.5878 7.58631 10.3347 7.62939 10.1745 7.48515L8.75426 6.20698C7.93673 5.4712 6.64309 5.7162 6.15121 6.69995L4.07183 10.8587C3.90759 11.1872 4.04073 11.5867 4.36923 11.7509C4.69773 11.9151 5.09717 11.782 5.26142 11.4535L7.3408 7.29475C7.43977 7.09681 7.70005 7.04752 7.86454 7.19556L9.28473 8.47373C10.082 9.19129 11.3399 8.97877 11.8571 8.0391L11.8577 8.03798L14.2932 3.40175C14.4698 3.0801 14.3529 2.6755 14.0313 2.49849Z" fill="black"/>
</svg>
