<svg width="16" height="16" viewBox="0 0 16 16" fill="none" xmlns="http://www.w3.org/2000/svg">
<path fill-rule="evenodd" clip-rule="evenodd" d="M2.85097 5.67507C2.29137 7.15329 1.99191 9.0557 1.88456 10.398C1.85528 10.7641 1.53476 11.0372 1.16866 11.0079C0.802559 10.9786 0.529512 10.6581 0.558792 10.292C0.671044 8.88845 0.985146 6.84716 1.60711 5.20419C1.91618 4.38776 2.32348 3.60876 2.8688 3.06328C3.43716 2.49475 4.18788 2.15673 5.08231 2.35206C6.37516 2.6344 7.1619 3.53313 7.68247 4.57583C8.17206 5.55646 8.47133 6.75527 8.7472 7.86031C8.75844 7.90532 8.76963 7.95017 8.7808 7.99484C9.07703 9.1797 9.35481 10.2447 9.79412 11.0505C10.2156 11.8235 10.7373 12.2727 11.5174 12.368C11.7559 12.3972 11.989 12.3183 12.2574 12.0244C12.5428 11.712 12.8168 11.2034 13.0664 10.5122C13.563 9.13678 13.8845 7.26634 14.1194 5.45783C14.1667 5.09362 14.5003 4.83672 14.8645 4.88402C15.2287 4.93132 15.4856 5.26491 15.4383 5.62912C15.2025 7.44524 14.8671 9.44106 14.3174 10.9638C14.0438 11.7216 13.6973 12.4201 13.2394 12.9214C12.7646 13.4413 12.1316 13.783 11.356 13.6882C10.0178 13.5246 9.18019 12.7028 8.62642 11.6871C8.09043 10.7041 7.77684 9.46264 7.49052 8.31743C7.48536 8.2968 7.48021 8.27619 7.47506 8.25561C7.18394 7.09092 6.91557 6.01725 6.49253 5.16991C6.07306 4.32973 5.55345 3.81629 4.79854 3.65144C4.44715 3.5747 4.13757 3.67532 3.80939 4.0036C3.45817 4.35492 3.13268 4.9309 2.85097 5.67507Z" fill="black"/>
</svg>
