<svg width="16" height="16" viewBox="0 0 16 16" fill="none" xmlns="http://www.w3.org/2000/svg">
<g clip-path="url(#clip0_1644_114)">
<path fill-rule="evenodd" clip-rule="evenodd" d="M8.00029 0.930176C4.09584 0.930176 0.930664 4.09535 0.930664 7.9998C0.930664 11.9042 4.09584 15.0694 8.00029 15.0694C11.9047 15.0694 15.0699 11.9042 15.0699 7.9998C15.0699 7.63253 14.7722 7.3348 14.4049 7.3348H9.60029C9.0839 7.3348 8.66529 6.91618 8.66529 6.3998V1.59518C8.66529 1.22791 8.36756 0.930176 8.00029 0.930176ZM2.26066 7.9998C2.26066 5.05483 4.47868 2.62782 7.33529 2.29828V6.3998C7.33529 7.65072 8.34936 8.6648 9.60029 8.6648H13.7018C13.3723 11.5214 10.9453 13.7394 8.00029 13.7394C4.83038 13.7394 2.26066 11.1697 2.26066 7.9998Z" fill="black"/>
<path fill-rule="evenodd" clip-rule="evenodd" d="M10.1209 1.25386C9.91893 1.19042 9.69881 1.22695 9.52814 1.35224C9.35747 1.47752 9.25666 1.67659 9.25666 1.88831V5.97836C9.25666 6.40086 9.59916 6.74336 10.0217 6.74336H14.1117C14.3234 6.74336 14.5225 6.64255 14.6478 6.47188C14.773 6.30121 14.8096 6.08109 14.7461 5.8791C14.0554 3.6797 12.3203 1.94465 10.1209 1.25386ZM10.5867 5.41336V2.87433C11.6799 3.42725 12.5728 4.32006 13.1257 5.41336H10.5867Z" fill="black"/>
</g>
<defs>
<clipPath id="clip0_1644_114">
<rect width="16" height="16" fill="white"/>
</clipPath>
</defs>
</svg>
