<svg width="16" height="16" viewBox="0 0 16 16" fill="none" xmlns="http://www.w3.org/2000/svg">
<g clip-path="url(#clip0_1644_119)">
<path d="M8.62306 7.56309C8.25173 7.29176 7.74882 7.29176 7.37749 7.56309L7.10489 7.76227C6.72984 8.03633 6.57575 8.52363 6.72421 8.96497L6.8146 9.23368C6.96007 9.66611 7.36362 9.95748 7.81807 9.95748H8.18248C8.63693 9.95748 9.04048 9.66611 9.18595 9.23368L9.27634 8.96497C9.4248 8.52363 9.27071 8.03633 8.89566 7.76227L8.62306 7.56309Z" fill="black"/>
<path fill-rule="evenodd" clip-rule="evenodd" d="M9.32442 4.99235C8.53489 4.41544 7.46571 4.41544 6.67619 4.99235L4.88626 6.30025C4.08872 6.88301 3.76085 7.91947 4.07667 8.85833L4.74663 10.8499C5.05605 11.7698 5.91428 12.3892 6.88034 12.3892H9.12027C10.0863 12.3892 10.9446 11.7698 11.254 10.8499L11.9239 8.85833C12.2398 7.91947 11.9119 6.88301 11.1143 6.30025L9.32442 4.99235ZM7.45421 6.06813C7.77986 5.83018 8.22074 5.83018 8.54639 6.06813L10.3363 7.37603C10.6654 7.6165 10.801 8.04446 10.6705 8.43231L10.0005 10.4239C9.87273 10.8038 9.5185 11.0592 9.12027 11.0592H6.88034C6.4821 11.0592 6.12787 10.8038 6.00008 10.4239L5.33012 8.43231C5.19965 8.04446 5.3352 7.6165 5.66429 7.37603L7.45421 6.06813Z" fill="black"/>
<path fill-rule="evenodd" clip-rule="evenodd" d="M9.32428 1.31159C8.53476 0.73468 7.46558 0.734679 6.67605 1.31159L1.45 5.13027C0.652459 5.71304 0.324585 6.7495 0.640405 7.68835L2.62285 13.5817C2.93227 14.5015 3.7905 15.1209 4.75656 15.1209H11.2438C12.2098 15.1209 13.0681 14.5015 13.3775 13.5817L15.3599 7.68835C15.6758 6.7495 15.3479 5.71304 14.5503 5.13027L9.32428 1.31159ZM7.45408 2.38737C7.77973 2.14942 8.22061 2.14942 8.54626 2.38737L13.7723 6.20605C14.1014 6.44652 14.2369 6.87449 14.1065 7.26234L12.124 13.1556C11.9962 13.5355 11.642 13.7909 11.2438 13.7909H4.75656C4.35833 13.7909 4.0041 13.5355 3.8763 13.1556L1.89386 7.26234C1.76339 6.87449 1.89894 6.44652 2.22803 6.20605L7.45408 2.38737Z" fill="black"/>
</g>
<defs>
<clipPath id="clip0_1644_119">
<rect width="16" height="16" fill="white"/>
</clipPath>
</defs>
</svg>
