<svg width="16" height="16" viewBox="0 0 16 16" fill="none" xmlns="http://www.w3.org/2000/svg">
<g clip-path="url(#clip0_1997_112)">
<path fill-rule="evenodd" clip-rule="evenodd" d="M13.4301 2.2926C13.2241 1.19113 12.1642 0.465191 11.0628 0.671165C9.96131 0.87714 9.23537 1.93703 9.44134 3.0385C9.5093 3.40192 9.67031 3.72462 9.89515 3.98639L9.27315 4.93033C8.97745 4.81777 8.6567 4.75616 8.32169 4.75616C7.78654 4.75616 7.28792 4.91337 6.86972 5.18413L5.93988 4.1648C6.09655 3.89563 6.1857 3.58239 6.18422 3.24859C6.17981 2.2501 5.3668 1.44424 4.36831 1.44865C3.36982 1.45306 2.56397 2.26607 2.56838 3.26456C2.57279 4.26305 3.3858 5.06891 4.38428 5.0645C4.56066 5.06372 4.73113 5.03769 4.89222 4.98981L5.96453 6.16531C5.76847 6.52963 5.65441 6.94461 5.647 7.38538L3.7481 8.23435C3.35417 7.82966 2.7789 7.61185 2.17667 7.69721C1.17459 7.83925 0.477402 8.76674 0.619442 9.76881C0.761482 10.7709 1.68897 11.4681 2.69104 11.326C3.62425 11.1938 4.29299 10.3803 4.26582 9.45975L5.96589 8.69968C6.28486 9.29086 6.81986 9.74831 7.46533 9.96628L7.36331 11.6646C6.70468 11.8929 6.19636 12.4764 6.09965 13.2149C5.9633 14.256 6.69674 15.2105 7.73783 15.3468C8.77892 15.4831 9.73342 14.7497 9.86976 13.7086C9.98487 12.8297 9.48011 12.0126 8.69374 11.6973L8.79179 10.0651C9.45812 9.94699 10.0391 9.58226 10.4371 9.06884L11.8994 9.65427C11.8983 9.70768 11.8997 9.7616 11.9036 9.81589C11.9728 10.7798 12.8103 11.5052 13.7742 11.436C14.7381 11.3668 15.4635 10.5293 15.3943 9.5654C15.3251 8.60147 14.4876 7.87612 13.5237 7.9453C13.0964 7.97596 12.7159 8.15768 12.4308 8.4344L10.9646 7.84739C10.9858 7.71174 10.9968 7.57275 10.9968 7.43123C10.9968 6.7703 10.757 6.16523 10.3598 5.69846L11.0459 4.65723C11.2908 4.70524 11.5486 4.70856 11.8087 4.65993C12.9101 4.45396 13.6361 3.39407 13.4301 2.2926ZM11.3072 1.9785C11.6867 1.90755 12.0518 2.15763 12.1228 2.53707C12.1937 2.91651 11.9436 3.28164 11.5642 3.35259C11.1848 3.42355 10.8196 3.17347 10.7487 2.79403C10.6777 2.41458 10.9278 2.04946 11.3072 1.9785ZM4.37419 2.77864C4.63814 2.77748 4.85307 2.99051 4.85423 3.25447C4.8554 3.51842 4.64237 3.73335 4.37841 3.73451C4.11445 3.73568 3.89953 3.52264 3.89836 3.25869C3.8972 2.99473 4.11023 2.77981 4.37419 2.77864ZM6.97661 7.43123C6.97661 6.68837 7.57883 6.08616 8.32169 6.08616C9.06456 6.08616 9.66677 6.68837 9.66677 7.43123C9.66677 8.1741 9.06456 8.77631 8.32169 8.77631C7.57883 8.77631 6.97661 8.1741 6.97661 7.43123ZM2.36332 9.01405C2.63812 8.9751 2.89247 9.16629 2.93142 9.44109C2.97037 9.7159 2.77918 9.97024 2.50438 10.0092C2.22958 10.0481 1.97523 9.85695 1.93628 9.58215C1.89733 9.30735 2.08852 9.053 2.36332 9.01405ZM13.6189 9.27189C13.8502 9.25529 14.0511 9.42932 14.0677 9.66059C14.0843 9.89187 13.9103 10.0928 13.679 10.1094C13.4477 10.126 13.2468 9.95197 13.2302 9.72069C13.2136 9.48942 13.3876 9.28848 13.6189 9.27189ZM7.41839 13.3876C7.45935 13.0748 7.7461 12.8545 8.05887 12.8954C8.37164 12.9364 8.59199 13.2231 8.55102 13.5359C8.51006 13.8487 8.22331 14.069 7.91054 14.0281C7.59777 13.9871 7.37743 13.7003 7.41839 13.3876Z" fill="black"/>
</g>
<defs>
<clipPath id="clip0_1997_112">
<rect width="16" height="16" fill="white"/>
</clipPath>
</defs>
</svg>
