<svg width="16" height="16" viewBox="0 0 16 16" fill="none" xmlns="http://www.w3.org/2000/svg">
<path d="M1.99996 1.47656C1.63269 1.47656 1.33496 1.77429 1.33496 2.14156V11.859C1.33496 13.3308 2.52812 14.524 3.99996 14.524H14C14.3672 14.524 14.665 14.2262 14.665 13.859C14.665 13.4917 14.3672 13.194 14 13.194H3.99996C3.26266 13.194 2.66496 12.5963 2.66496 11.859V2.14156C2.66496 1.77429 2.36723 1.47656 1.99996 1.47656Z" fill="black"/>
<path d="M11.964 2.48926C11.1096 2.48926 10.417 3.18187 10.417 4.03624C10.417 4.89061 11.1096 5.58323 11.964 5.58323C12.8183 5.58323 13.511 4.89061 13.511 4.03624C13.511 3.18187 12.8183 2.48926 11.964 2.48926Z" fill="black"/>
<path d="M6.92539 5.45325C6.23472 5.45325 5.6748 6.01317 5.6748 6.70384C5.6748 7.3945 6.23472 7.95442 6.92539 7.95442C7.61606 7.95442 8.17598 7.3945 8.17598 6.70384C8.17598 6.01317 7.61606 5.45325 6.92539 5.45325Z" fill="black"/>
<path d="M10.7784 8.41711C10.2514 8.41711 9.82422 8.84431 9.82422 9.3713C9.82422 9.8983 10.2514 10.3255 10.7784 10.3255C11.3054 10.3255 11.7326 9.8983 11.7326 9.3713C11.7326 8.84431 11.3054 8.41711 10.7784 8.41711Z" fill="black"/>
<path d="M5.44345 9.60278C4.91645 9.60278 4.48926 10.03 4.48926 10.557C4.48926 11.084 4.91645 11.5112 5.44345 11.5112C5.97045 11.5112 6.39764 11.084 6.39764 10.557C6.39764 10.03 5.97045 9.60278 5.44345 9.60278Z" fill="black"/>
</svg>
