<svg width="16" height="16" viewBox="0 0 16 16" fill="none" xmlns="http://www.w3.org/2000/svg">
<path d="M8.04497 4.71429C7.57458 1.84274 3.49937 1.69551 2.82302 4.52565L0.86944 12.7001C0.784072 13.0573 1.00444 13.4161 1.36165 13.5015C1.71886 13.5869 2.07764 13.3665 2.16301 13.0093L4.11659 4.83479C4.4554 3.41707 6.49683 3.49081 6.73247 4.92929L7.76516 11.2335C8.14604 13.5586 11.1354 14.282 12.5371 12.3883L15.0185 9.036C15.237 8.7408 15.1748 8.32436 14.8796 8.10585C14.5844 7.88735 14.168 7.94952 13.9495 8.24471L11.4681 11.597C10.7659 12.5456 9.26846 12.1833 9.07767 11.0185L8.04497 4.71429Z" fill="black"/>
</svg>
