<svg width="16" height="16" viewBox="0 0 16 16" fill="none" xmlns="http://www.w3.org/2000/svg">
<path fill-rule="evenodd" clip-rule="evenodd" d="M7.49996 1.25244C6.58041 1.25244 5.83496 1.99789 5.83496 2.91744V6.91744C5.83496 7.837 6.58041 8.58244 7.49996 8.58244H8.49996C9.41952 8.58244 10.165 7.837 10.165 6.91744V2.91744C10.165 1.99789 9.41952 1.25244 8.49996 1.25244H7.49996ZM7.16496 2.91744C7.16496 2.73243 7.31495 2.58244 7.49996 2.58244H8.49996C8.68498 2.58244 8.83496 2.73243 8.83496 2.91744V6.91744C8.83496 7.10246 8.68498 7.25244 8.49996 7.25244H7.49996C7.31495 7.25244 7.16496 7.10246 7.16496 6.91744V2.91744Z" fill="black"/>
<path fill-rule="evenodd" clip-rule="evenodd" d="M2.86324 7.41797C1.94369 7.41797 1.19824 8.16341 1.19824 9.08297V13.083C1.19824 14.0025 1.94369 14.748 2.86324 14.748H3.86324C4.7828 14.748 5.52824 14.0025 5.52824 13.083V9.08297C5.52824 8.16341 4.7828 7.41797 3.86324 7.41797H2.86324ZM2.52824 9.08297C2.52824 8.89795 2.67823 8.74797 2.86324 8.74797H3.86324C4.04826 8.74797 4.19824 8.89795 4.19824 9.08297V13.083C4.19824 13.268 4.04826 13.418 3.86324 13.418H2.86324C2.67823 13.418 2.52824 13.268 2.52824 13.083V9.08297Z" fill="black"/>
<path fill-rule="evenodd" clip-rule="evenodd" d="M12.1367 7.41797C11.2171 7.41797 10.4717 8.16341 10.4717 9.08297V13.083C10.4717 14.0025 11.2171 14.748 12.1367 14.748H13.1367C14.0562 14.748 14.8017 14.0025 14.8017 13.083V9.08297C14.8017 8.16341 14.0562 7.41797 13.1367 7.41797H12.1367ZM11.8017 9.08297C11.8017 8.89795 11.9517 8.74797 12.1367 8.74797H13.1367C13.3217 8.74797 13.4717 8.89795 13.4717 9.08297V13.083C13.4717 13.268 13.3217 13.418 13.1367 13.418H12.1367C11.9517 13.418 11.8017 13.268 11.8017 13.083V9.08297Z" fill="black"/>
</svg>
