<svg width="20" height="20" viewBox="0 0 20 20" fill="none" xmlns="http://www.w3.org/2000/svg">
<path d="M10 1.05957C10.356 1.05957 10.6816 1.26162 10.8408 1.58008L18.8408 17.5801L18.8799 17.668C19.0486 18.1134 18.8551 18.6232 18.4199 18.8408C17.9557 19.0727 17.3913 18.8841 17.1592 18.4199L10 4.10156L2.84082 18.4199C2.60871 18.8841 2.04434 19.0727 1.58008 18.8408C1.11587 18.6087 0.92731 18.0443 1.15918 17.5801L9.15918 1.58008C9.31841 1.26162 9.64395 1.05957 10 1.05957Z" fill="black"/>
<path d="M15.3337 11.7261L15.4294 11.731C15.9035 11.779 16.2732 12.1798 16.2732 12.6665C16.2732 13.1532 15.9035 13.554 15.4294 13.602L15.3337 13.6069H4.66675C4.1476 13.6069 3.72632 13.1856 3.72632 12.6665C3.72632 12.1474 4.1476 11.7261 4.66675 11.7261H15.3337Z" fill="black"/>
</svg>
