<svg width="16" height="16" viewBox="0 0 16 16" fill="none" xmlns="http://www.w3.org/2000/svg">
<path d="M11.3606 3.74168C11.6086 3.49373 12.0106 3.49373 12.2585 3.74168C12.5065 3.98963 12.5065 4.39164 12.2585 4.6396L4.63947 12.2586C4.39152 12.5066 3.98951 12.5066 3.74156 12.2586C3.49361 12.0107 3.49361 11.6087 3.74156 11.3607L11.3606 3.74168Z" fill="black"/>
<path d="M4.82544 4.82556H4.19052C3.83986 4.82556 3.5556 5.10982 3.5556 5.46048C3.5556 5.81114 3.83986 6.0954 4.19052 6.0954H4.82544V6.73032C4.82544 7.08098 5.1097 7.36524 5.46036 7.36524C5.81102 7.36524 6.09528 7.08098 6.09528 6.73032V6.0954H6.7302C7.08086 6.0954 7.36512 5.81114 7.36512 5.46048C7.36512 5.10982 7.08086 4.82556 6.7302 4.82556H6.09528V4.19064C6.09528 3.83998 5.81102 3.55572 5.46036 3.55572C5.1097 3.55572 4.82544 3.83998 4.82544 4.19064V4.82556Z" fill="black"/>
<path d="M8.3175 10.8573C8.3175 10.5066 8.60176 10.2224 8.95242 10.2224H11.4921C11.8428 10.2224 12.127 10.5066 12.127 10.8573C12.127 11.208 11.8428 11.4922 11.4921 11.4922H8.95242C8.60176 11.4922 8.3175 11.208 8.3175 10.8573Z" fill="black"/>
<path fill-rule="evenodd" clip-rule="evenodd" d="M1.33337 2.9208C1.33337 2.04416 2.04403 1.3335 2.92068 1.3335H13.0794C13.9561 1.3335 14.6667 2.04416 14.6667 2.9208V13.0795C14.6667 13.9562 13.9561 14.6668 13.0794 14.6668H2.92068C2.04404 14.6668 1.33337 13.9562 1.33337 13.0795V2.9208ZM2.92068 2.60334C2.74535 2.60334 2.60322 2.74547 2.60322 2.9208V13.0795C2.60322 13.2549 2.74534 13.397 2.92068 13.397H13.0794C13.2547 13.397 13.3969 13.2549 13.3969 13.0795V2.9208C13.3969 2.74546 13.2547 2.60334 13.0794 2.60334H2.92068Z" fill="black"/>
</svg>
