<svg width="16" height="16" viewBox="0 0 16 16" fill="none" xmlns="http://www.w3.org/2000/svg">
<path d="M2.5999 2.14102C2.5999 1.80964 2.33127 1.54102 1.9999 1.54102C1.66853 1.54102 1.3999 1.80964 1.3999 2.14102V11.8584C1.3999 13.2944 2.56396 14.4584 3.9999 14.4584H13.9999C14.3313 14.4584 14.5999 14.1898 14.5999 13.8584C14.5999 13.5271 14.3313 13.2584 13.9999 13.2584H3.9999C3.2267 13.2584 2.5999 12.6316 2.5999 11.8584V2.14102Z" fill="black"/>
<path fill-rule="evenodd" clip-rule="evenodd" d="M14.2697 2.86338C14.2205 2.73674 14.1282 2.62602 13.9999 2.55537C13.7096 2.39556 13.3447 2.50134 13.1849 2.79163L10.7489 7.42899C10.6246 7.65474 10.3225 7.70579 10.1309 7.5334L8.71072 6.25523C7.92511 5.54818 6.68197 5.78361 6.20929 6.72896L4.12991 10.8877C4.04459 11.0584 4.04822 11.2502 4.12322 11.4106C4.21284 11.6292 4.42775 11.7832 4.67863 11.7832L13.3137 11.783C13.866 11.783 14.3137 11.3353 14.3137 10.783V3.08926C14.3137 3.00936 14.2981 2.9331 14.2697 2.86338ZM13.1137 5.70986C13.1137 5.65764 13.0437 5.64037 13.0194 5.6866L11.8001 8.0077C11.3031 8.91068 10.0943 9.11491 9.32815 8.42536L7.90796 7.14719C7.71156 6.97042 7.40077 7.02928 7.2826 7.26562L5.6962 10.4384C5.66295 10.5049 5.71131 10.5832 5.78565 10.5831L12.7137 10.583C12.9346 10.583 13.1137 10.4039 13.1137 10.183V5.70986Z" fill="black"/>
</svg>
