<svg width="20" height="21" viewBox="0 0 20 21" fill="none" xmlns="http://www.w3.org/2000/svg">
<path fill-rule="evenodd" clip-rule="evenodd" d="M3.32508 11.7609C3.46644 11.8194 3.64565 11.8194 4.00407 11.8194H13.049L10.1235 14.745C9.87002 14.9984 9.7433 15.1251 9.68475 15.2665C9.60668 15.455 9.60668 15.6668 9.68475 15.8552C9.7433 15.9966 9.87002 16.1233 10.1235 16.3768C10.3769 16.6302 10.5036 16.7569 10.645 16.8155C10.8335 16.8935 11.0452 16.8935 11.2337 16.8155C11.3751 16.7569 11.5018 16.6302 11.7552 16.3768L16.5105 11.6215C16.5524 11.5803 16.5983 11.5344 16.6493 11.4834L16.6495 11.4831C16.8561 11.2765 16.9785 11.1542 17.0484 11.0394C17.0648 11.0128 17.0782 10.9866 17.0893 10.9599C17.1674 10.7714 17.1674 10.5596 17.0893 10.3711C17.0308 10.2298 16.904 10.1031 16.6506 9.84962C16.5685 9.76752 16.4997 9.69872 16.4394 9.64123L11.7542 4.95601C11.5007 4.70257 11.374 4.57585 11.2327 4.5173C11.0442 4.43923 10.8324 4.43923 10.6439 4.5173C10.5026 4.57585 10.3758 4.70257 10.1224 4.95601L10.1224 4.95601C9.86895 5.20945 9.74223 5.33617 9.68368 5.47753C9.60561 5.66601 9.60561 5.87779 9.68368 6.06627C9.74223 6.20764 9.86895 6.33436 10.1224 6.5878L13.0463 9.51175H4.00407C3.64565 9.51175 3.46644 9.51175 3.32508 9.5703C3.1366 9.64837 2.98685 9.79812 2.90877 9.98661C2.85022 10.128 2.85022 10.3072 2.85022 10.6656C2.85022 11.024 2.85022 11.2032 2.90877 11.3446C2.98685 11.5331 3.1366 11.6828 3.32508 11.7609Z" fill="black"/>
</svg>
