<svg width="16" height="16" viewBox="0 0 16 16" fill="none" xmlns="http://www.w3.org/2000/svg">
<path d="M2.5999 2.2001C2.5999 1.86873 2.33127 1.6001 1.9999 1.6001C1.66853 1.6001 1.3999 1.86873 1.3999 2.2001V13.8001C1.3999 14.1315 1.66853 14.4001 1.9999 14.4001C2.33127 14.4001 2.5999 14.1315 2.5999 13.8001V2.2001Z" fill="black"/>
<path d="M14.5999 2.2001C14.5999 1.86873 14.3313 1.6001 13.9999 1.6001C13.6685 1.6001 13.3999 1.86873 13.3999 2.2001V13.8001C13.3999 14.1315 13.6685 14.4001 13.9999 14.4001C14.3313 14.4001 14.5999 14.1315 14.5999 13.8001V2.2001Z" fill="black"/>
<path d="M6.424 8.24239C6.65832 8.4767 6.65832 8.8566 6.424 9.09091L6.11502 9.3999H9.33307C10.1063 9.3999 10.7331 8.7731 10.7331 7.9999C10.7331 7.22671 10.1063 6.5999 9.33307 6.5999H4.6666L4.66645 5.3999H9.33307C10.769 5.3999 11.9331 6.56396 11.9331 7.9999C11.9331 9.43584 10.769 10.5999 9.33307 10.5999H6.11485L6.424 10.9091C6.65832 11.1434 6.65832 11.5233 6.424 11.7576C6.18969 11.9919 5.80979 11.9919 5.57548 11.7576L4.24214 10.4242C4.00783 10.1899 4.00783 9.81003 4.24214 9.57572L5.57548 8.24239C5.80979 8.00807 6.18969 8.00807 6.424 8.24239Z" fill="black"/>
<path d="M4.6666 6.5999C4.33523 6.5999 4.06641 6.33127 4.06641 5.9999C4.06641 5.66853 4.33508 5.3999 4.66645 5.3999L4.6666 6.5999Z" fill="black"/>
</svg>
