<svg width="16" height="16" viewBox="0 0 16 16" fill="none" xmlns="http://www.w3.org/2000/svg">
<path d="M1.9834 3.98332C1.9834 3.61513 2.28188 3.31665 2.65007 3.31665H13.3167C13.6849 3.31665 13.9834 3.61513 13.9834 3.98332C13.9834 4.35151 13.6849 4.64998 13.3167 4.64998H2.65007C2.28188 4.64998 1.9834 4.35151 1.9834 3.98332Z" fill="black"/>
<path d="M1.9834 7.98267C1.9834 7.61448 2.28188 7.316 2.65007 7.316H10.6501C11.0183 7.316 11.3167 7.61448 11.3167 7.98267C11.3167 8.35086 11.0183 8.64933 10.6501 8.64933H2.65007C2.28188 8.64933 1.9834 8.35086 1.9834 7.98267Z" fill="black"/>
<path d="M2.65007 11.316C2.28188 11.316 1.9834 11.6145 1.9834 11.9827C1.9834 12.3509 2.28188 12.6493 2.65007 12.6493H7.9834C8.35159 12.6493 8.65006 12.3509 8.65006 11.9827C8.65006 11.6145 8.35159 11.316 7.9834 11.316H2.65007Z" fill="black"/>
</svg>
