<svg width="16" height="16" viewBox="0 0 16 16" fill="none" xmlns="http://www.w3.org/2000/svg">
<path fill-rule="evenodd" clip-rule="evenodd" d="M0.361328 7.79626C0.361328 6.0459 1.78028 4.62695 3.53064 4.62695C4.18424 4.62695 4.80612 4.90867 5.23714 5.40001L5.30149 5.47337C5.52001 5.72247 5.49522 6.10156 5.24612 6.32009C4.99701 6.53861 4.61792 6.51382 4.3994 6.26471L4.33504 6.19135C4.13187 5.95975 3.83873 5.82695 3.53064 5.82695C2.44302 5.82695 1.56133 6.70864 1.56133 7.79626V8.21416C1.56133 9.29594 2.43828 10.1729 3.52006 10.1729C3.83123 10.1729 4.12678 10.0366 4.32877 9.79988L4.39405 9.72339C4.60916 9.47133 4.98788 9.44138 5.23994 9.65649C5.492 9.8716 5.52195 10.2503 5.30684 10.5024L5.24156 10.5789C4.81157 11.0827 4.18244 11.3729 3.52006 11.3729C1.77554 11.3729 0.361328 9.95868 0.361328 8.21416V7.79626Z" fill="black"/>
<path fill-rule="evenodd" clip-rule="evenodd" d="M13.2084 4.92822C13.5398 4.92822 13.8084 5.19685 13.8084 5.52822V9.97297C13.8084 10.0834 13.8979 10.173 14.0084 10.173H15.0384C15.3698 10.173 15.6384 10.4416 15.6384 10.773C15.6384 11.1043 15.3698 11.373 15.0384 11.373H14.0084C13.2352 11.373 12.6084 10.7462 12.6084 9.97297V5.52822C12.6084 5.19685 12.877 4.92822 13.2084 4.92822Z" fill="black"/>
<path fill-rule="evenodd" clip-rule="evenodd" d="M10.9893 7.42715C10.9893 7.09578 11.2579 6.82715 11.5893 6.82715H14.9428C15.2742 6.82715 15.5428 7.09578 15.5428 7.42715C15.5428 7.75852 15.2742 8.02715 14.9428 8.02715H11.5893C11.2579 8.02715 10.9893 7.75852 10.9893 7.42715Z" fill="black"/>
<path fill-rule="evenodd" clip-rule="evenodd" d="M9.46366 8.71622C9.46366 8.18879 8.9622 7.80569 8.45332 7.94436L8.12019 8.03514C7.68503 8.15373 7.38311 8.54894 7.38311 8.99996V10.7731C7.38311 11.1044 7.11448 11.3731 6.78311 11.3731C6.45173 11.3731 6.18311 11.1044 6.18311 10.7731V8.99996C6.18311 8.0077 6.84733 7.13825 7.80469 6.87736L8.13782 6.78658C9.41001 6.43991 10.6637 7.39764 10.6637 8.71622V10.7731C10.6637 11.1044 10.395 11.3731 10.0637 11.3731C9.73229 11.3731 9.46366 11.1044 9.46366 10.7731V8.71622Z" fill="black"/>
<path fill-rule="evenodd" clip-rule="evenodd" d="M6.79079 6.75531C7.12216 6.75528 7.39081 7.02389 7.39084 7.35526L7.39109 10.773C7.39112 11.1043 7.12251 11.373 6.79114 11.373C6.45977 11.373 6.19112 11.1044 6.19109 10.7731L6.19084 7.35535C6.19081 7.02398 6.45942 6.75533 6.79079 6.75531Z" fill="black"/>
</svg>
