<svg width="16" height="16" viewBox="0 0 16 16" fill="none" xmlns="http://www.w3.org/2000/svg">
<path d="M6.1 2.6H5.5C4.6 2.6 4 3.2 4 4.1V5.8C4 6.5 3.5 7 2.8 7H2.5" stroke="#000" stroke-width="1.3" stroke-linecap="round" stroke-linejoin="round"/>
<path d="M2.5 9H2.8C3.5 9 4 9.5 4 10.2V11.9C4 12.8 4.6 13.4 5.5 13.4H6.1" stroke="#000" stroke-width="1.3" stroke-linecap="round" stroke-linejoin="round"/>
<path d="M9.9 2.6H10.5C11.4 2.6 12 3.2 12 4.1V5.8C12 6.5 12.5 7 13.2 7H13.5" stroke="#000" stroke-width="1.3" stroke-linecap="round" stroke-linejoin="round"/>
<path d="M13.5 9H13.2C12.5 9 12 9.5 12 10.2V11.9C12 12.8 11.4 13.4 10.5 13.4H9.9" stroke="#000" stroke-width="1.3" stroke-linecap="round" stroke-linejoin="round"/>
</svg>
