<svg width="16" height="16" viewBox="0 0 16 16" fill="none" xmlns="http://www.w3.org/2000/svg">
<path fill-rule="evenodd" clip-rule="evenodd" d="M9.71431 13.4262C9.71452 13.4169 9.71463 13.4077 9.71463 13.3984V7.99867C9.71463 7.22547 9.08783 6.59867 8.31463 6.59867H7.68516C6.91196 6.59867 6.28516 7.22547 6.28516 7.99867V13.3984C6.28516 13.4077 6.28526 13.4169 6.28547 13.4262H5.51607C5.51628 13.4169 5.51639 13.4077 5.51639 13.3984V9.90699C5.51639 9.13379 4.88959 8.50699 4.11639 8.50699H3.48691C2.71372 8.50699 2.08691 9.13379 2.08691 9.90699V13.3984C2.08691 13.4077 2.08702 13.4169 2.08723 13.4262H1.3334C1.00203 13.4262 0.733398 13.6948 0.733398 14.0262C0.733398 14.3575 1.00203 14.6262 1.3334 14.6262H14.6667C14.9981 14.6262 15.2667 14.3575 15.2667 14.0262C15.2667 13.6948 14.9981 13.4262 14.6667 13.4262H13.9126C13.9127 13.4194 13.9128 13.4127 13.9128 13.406C13.9129 13.4034 13.9129 13.4009 13.9129 13.3984V9.90699C13.9129 9.13379 13.2861 8.50699 12.5129 8.50699H11.8834C11.1102 8.50699 10.4834 9.13379 10.4834 9.90699V13.3984C10.4834 13.4077 10.4835 13.4169 10.4837 13.4262H9.71431ZM7.68516 7.79867C7.5747 7.79867 7.48516 7.88821 7.48516 7.99867V13.3984H8.51463V7.99867C8.51463 7.88821 8.42509 7.79867 8.31463 7.79867H7.68516ZM3.48691 9.70699C3.37646 9.70699 3.28691 9.79653 3.28691 9.90699V13.3984H4.31639V9.90699C4.31639 9.79653 4.22684 9.70699 4.11639 9.70699H3.48691ZM11.6834 9.90699C11.6834 9.79653 11.7729 9.70699 11.8834 9.70699H12.5129C12.6233 9.70699 12.7129 9.79653 12.7129 9.90699V13.3984H11.6834V9.90699Z" fill="black"/>
<path fill-rule="evenodd" clip-rule="evenodd" d="M14.1895 1.59372C14.3993 1.85024 14.3614 2.22824 14.1049 2.43802L10.4498 5.42707C10.0182 5.78005 9.43393 5.88287 8.90773 5.69845L5.86269 4.63121C5.73433 4.58623 5.59191 4.60955 5.4846 4.69312L2.64351 6.9059C2.38208 7.10952 2.00508 7.06265 1.80147 6.80122C1.59785 6.53978 1.64472 6.16279 1.90615 5.95917L4.74724 3.74639C5.17647 3.41209 5.74616 3.31881 6.2596 3.49875L9.30464 4.56599C9.43619 4.61209 9.58225 4.58639 9.69016 4.49814L13.3452 1.50909C13.6017 1.29931 13.9797 1.3372 14.1895 1.59372Z" fill="black"/>
</svg>
