<svg width="20" height="20" viewBox="0 0 20 20" fill="none" xmlns="http://www.w3.org/2000/svg">
  <path d="M8.7 3.2h2.6l.4 1.7 1.4.6 1.5-.9 1.8 1.8-.9 1.5.6 1.4 1.7.4v2.6l-1.7.4-.6 1.4.9 1.5-1.8 1.8-1.5-.9-1.4.6-.4 1.7H8.7l-.4-1.7-1.4-.6-1.5.9-1.8-1.8.9-1.5-.6-1.4-1.7-.4V9.7l1.7-.4.6-1.4-.9-1.5 1.8-1.8 1.5.9 1.4-.6.4-1.7Z" stroke="black" stroke-width="1.6" stroke-linecap="round" stroke-linejoin="round"/>
  <circle cx="10" cy="11" r="2.2" stroke="black" stroke-width="1.6" stroke-linecap="round" stroke-linejoin="round"/>
</svg>
