<svg width="20" height="20" viewBox="0 0 20 20" fill="none" xmlns="http://www.w3.org/2000/svg">
<g transform="scale(0.833333)">
<g transform="rotate(180 12 12)">
<path fill="black" fill-rule="evenodd" d="m5.12 11.134-.023.014-.406.234-.535.309a.357.357 0 0 0 0 .618l.535.31.406.233.023.014 4.38 2.529.023.013.406.235.536.309a.357.357 0 0 0 .535-.31V12.75h8.25a.75.75 0 0 0 0-1.5H11V8.357a.357.357 0 0 0-.535-.309l-.536.31-.406.234-.023.013zM9.5 12v1.663L6.62 12l2.88-1.663z" clip-rule="evenodd" />
</g>
</g>
</svg>
