<svg width="16" height="16" viewBox="0 0 16 16" fill="none" xmlns="http://www.w3.org/2000/svg"><rect x="2.4" y="1.4" width="11.2" height="13.2" rx="1.6" stroke="black" stroke-width="1.2"/><path d="M5 12H11M5.4 5.1C5.4 4.55 6.55 4.1 8 4.1C9.45 4.1 10.6 4.55 10.6 5.1C10.6 5.65 9.45 6.1 8 6.1C6.55 6.1 5.4 5.65 5.4 5.1ZM5.4 5.1V8.9C5.4 9.45 6.55 9.9 8 9.9C9.45 9.9 10.6 9.45 10.6 8.9V5.1M5.4 7C5.4 7.55 6.55 8 8 8C9.45 8 10.6 7.55 10.6 7" stroke="black" stroke-width="1.2" stroke-linecap="round" stroke-linejoin="round"/></svg>
