<svg width="16" height="16" viewBox="0 0 16 16" fill="none" xmlns="http://www.w3.org/2000/svg">
<path fill-rule="evenodd" clip-rule="evenodd" d="M3.00004 1.3335C2.07957 1.3335 1.33337 2.07969 1.33337 3.00016V13.0002C1.33337 13.9143 2.06935 14.6566 2.98108 14.6667C2.99252 14.6671 3.00399 14.6671 3.01547 14.6668H13C13.9205 14.6668 14.6667 13.9207 14.6667 13.0002V11.8335C14.6667 11.4653 14.3682 11.1668 14 11.1668C13.6319 11.1668 13.3334 11.4653 13.3334 11.8335V13.0002C13.3334 13.1843 13.1842 13.3335 13 13.3335H5.25636C5.61522 13.016 5.95119 12.6637 6.25105 12.2868C7.06748 11.2609 7.66671 9.98799 7.66671 8.66683V2.66683H13C13.1841 2.66683 13.3334 2.81606 13.3334 3.00016V4.66683C13.3334 5.03502 13.6319 5.3335 14 5.3335C14.3682 5.3335 14.6667 5.03502 14.6667 4.66683V3.00016C14.6667 2.0797 13.9205 1.3335 13 1.3335H3.00004ZM6.33337 2.66683H3.00004C2.81595 2.66683 2.66671 2.81607 2.66671 3.00016V13.0002C2.66671 13.1484 2.76345 13.274 2.89725 13.3173C3.70845 12.9437 4.55406 12.2781 5.20773 11.4566C5.90507 10.5803 6.33337 9.59203 6.33337 8.66683V2.66683Z" fill="black"/>
<path d="M12.4714 5.86209C12.2111 5.60174 11.789 5.60174 11.5286 5.86209C11.2683 6.12244 11.2683 6.54455 11.5286 6.8049L12.3906 7.66683H10C9.63185 7.66683 9.33337 7.96531 9.33337 8.3335C9.33337 8.70169 9.63185 9.00016 10 9.00016H12.3906L11.5286 9.86209C11.2683 10.1224 11.2683 10.5446 11.5286 10.8049C11.789 11.0653 12.2111 11.0653 12.4714 10.8049L14.4714 8.8049C14.5935 8.68286 14.6583 8.52528 14.6659 8.36548C14.6665 8.35482 14.6667 8.34416 14.6667 8.3335L12.4714 5.86209Z" fill="black"/>
<path d="M12.4714 5.86209L14.4714 7.86209C14.6001 7.9907 14.6651 8.15878 14.6667 8.32734L12.4714 5.86209Z" fill="black"/>
</svg>
