<svg width="16" height="16" viewBox="0 0 16 16" fill="none" xmlns="http://www.w3.org/2000/svg">
<path d="M1.01953 3.13985C1.01953 2.77258 1.31726 2.47485 1.68453 2.47485H2.73713C3.1044 2.47485 3.40213 2.77258 3.40213 3.13985C3.40213 3.50712 3.1044 3.80485 2.73713 3.80485H1.68453C1.31726 3.80485 1.01953 3.50712 1.01953 3.13985Z" fill="black"/>
<path d="M4.17734 3.13985C4.17734 2.77258 4.47507 2.47485 4.84234 2.47485H6.94754C7.31481 2.47485 7.61254 2.77258 7.61254 3.13985C7.61254 3.50712 7.31481 3.80485 6.94754 3.80485H4.84234C4.47507 3.80485 4.17734 3.50712 4.17734 3.13985Z" fill="black"/>
<path d="M8.38775 3.13985C8.38775 2.77258 8.68548 2.47485 9.05275 2.47485H11.158C11.5252 2.47485 11.823 2.77258 11.823 3.13985C11.823 3.50712 11.5252 3.80485 11.158 3.80485H9.05275C8.68548 3.80485 8.38775 3.50712 8.38775 3.13985Z" fill="black"/>
<path d="M12.5982 3.13985C12.5982 2.77258 12.8959 2.47485 13.2632 2.47485H14.3158C14.683 2.47485 14.9808 2.77258 14.9808 3.13985C14.9808 3.50712 14.683 3.80485 14.3158 3.80485H13.2632C12.8959 3.80485 12.5982 3.50712 12.5982 3.13985Z" fill="black"/>
<path d="M1.01953 7.99972C1.01953 7.63245 1.31726 7.33472 1.68453 7.33472H14.3158C14.683 7.33472 14.9808 7.63245 14.9808 7.99972C14.9808 8.36699 14.683 8.66472 14.3158 8.66472H1.68453C1.31726 8.66472 1.01953 8.36699 1.01953 7.99972Z" fill="black"/>
<path d="M1.68453 12.1951C1.31726 12.1951 1.01953 12.4928 1.01953 12.8601C1.01953 13.2273 1.31726 13.5251 1.68453 13.5251H2.73713C3.1044 13.5251 3.40213 13.2273 3.40213 12.8601C3.40213 12.4928 3.1044 12.1951 2.73713 12.1951H1.68453Z" fill="black"/>
<path d="M4.84234 12.1951C4.47507 12.1951 4.17734 12.4928 4.17734 12.8601C4.17734 13.2273 4.47507 13.5251 4.84234 13.5251H6.94754C7.31481 13.5251 7.61254 13.2273 7.61254 12.8601C7.61254 12.4928 7.31481 12.1951 6.94754 12.1951H4.84234Z" fill="black"/>
<path d="M9.05275 12.1951C8.68548 12.1951 8.38775 12.4928 8.38775 12.8601C8.38775 13.2273 8.68548 13.5251 9.05275 13.5251H11.158C11.5252 13.5251 11.823 13.2273 11.823 12.8601C11.823 12.4928 11.5252 12.1951 11.158 12.1951H9.05275Z" fill="black"/>
<path d="M13.2632 12.1951C12.8959 12.1951 12.5982 12.4928 12.5982 12.8601C12.5982 13.2273 12.8959 13.5251 13.2632 13.5251H14.3158C14.683 13.5251 14.9808 13.2273 14.9808 12.8601C14.9808 12.4928 14.683 12.1951 14.3158 12.1951H13.2632Z" fill="black"/>
</svg>
