<svg width="16" height="16" viewBox="0 0 16 16" fill="none" xmlns="http://www.w3.org/2000/svg">
<path d="M7.3999 2.8999V1.6C7.3999 1.26863 7.66853 1 7.9999 1C8.33127 1 8.5999 1.26863 8.5999 1.6V2.8999H10.2044C11.6655 2.8999 12.8499 4.08431 12.8499 5.54536C12.8499 5.87673 12.5813 6.14536 12.2499 6.14536C11.9185 6.14536 11.6499 5.87673 11.6499 5.54536C11.6499 4.74705 11.0028 4.0999 10.2044 4.0999H5.7384C4.97155 4.0999 4.3499 4.72155 4.3499 5.4884C4.3499 6.14439 4.80899 6.71087 5.45074 6.84677L10.7977 7.97906C11.994 8.23242 12.8499 9.28849 12.8499 10.5114C12.8499 11.941 11.691 13.0999 10.2614 13.0999H8.5999V14.4C8.5999 14.7314 8.33127 15 7.9999 15C7.66853 15 7.3999 14.7314 7.3999 14.4V13.0999H5.79536C4.33431 13.0999 3.1499 11.9155 3.1499 10.4544C3.1499 10.1231 3.41853 9.85445 3.7499 9.85445C4.08127 9.85445 4.3499 10.1231 4.3499 10.4544C4.3499 11.2527 4.99705 11.8999 5.79536 11.8999H10.2614C11.0283 11.8999 11.6499 11.2782 11.6499 10.5114C11.6499 9.85542 11.1908 9.28893 10.5491 9.15303L5.20214 8.02074C4.00575 7.76739 3.1499 6.71132 3.1499 5.4884C3.1499 4.05881 4.30881 2.8999 5.7384 2.8999H7.3999Z" fill="black"/>
</svg>
