<svg width="16" height="16" viewBox="0 0 16 16" fill="none" xmlns="http://www.w3.org/2000/svg">
<path d="M8.66203 1.99996C8.66203 1.63269 8.3643 1.33496 7.99703 1.33496C7.62976 1.33496 7.33203 1.63269 7.33203 1.99996V9.05833L5.47019 7.19648C5.21049 6.93678 4.78943 6.93678 4.52973 7.19648C4.27004 7.45618 4.27004 7.87724 4.52973 8.13694L7.49155 11.0988C7.61015 11.2373 7.78475 11.3266 7.9803 11.3314C8.15698 11.3366 8.33534 11.2718 8.47019 11.1369L11.4702 8.13694C11.7299 7.87724 11.7299 7.45618 11.4702 7.19648C11.2105 6.93678 10.7894 6.93678 10.5297 7.19648L8.66203 9.06419V1.99996Z" fill="black"/>
<path d="M14 7.33496C14.3672 7.33496 14.665 7.63269 14.665 7.99996V11C14.665 13.0241 13.0241 14.665 11 14.665H4.99996C2.97584 14.665 1.33496 13.0241 1.33496 11V8.00273C1.33496 7.63546 1.63269 7.33773 1.99996 7.33773C2.36723 7.33773 2.66496 7.63546 2.66496 8.00273V11C2.66496 12.2895 3.71038 13.335 4.99996 13.335H11C12.2895 13.335 13.335 12.2895 13.335 11V7.99996C13.335 7.63269 13.6327 7.33496 14 7.33496Z" fill="black"/>
</svg>
