<svg width="17" height="16" viewBox="0 0 17 16" fill="none" xmlns="http://www.w3.org/2000/svg">
<path fill-rule="evenodd" clip-rule="evenodd" d="M2.35381 3.65517C2.35381 2.88198 2.98061 2.25518 3.75381 2.25518H8.10381C8.43518 2.25518 8.70381 1.98655 8.70381 1.65518C8.70381 1.3238 8.43518 1.05518 8.10381 1.05518H3.75381C2.31787 1.05518 1.15381 2.21923 1.15381 3.65517V12.3552C1.15381 13.7911 2.31787 14.9552 3.75381 14.9552H12.4538C13.8897 14.9552 15.0538 13.7911 15.0538 12.3552V8.00518C15.0538 7.6738 14.7852 7.40518 14.4538 7.40518C14.1224 7.40518 13.8538 7.6738 13.8538 8.00518V9.24469L12.3428 8.11143C11.8294 7.72642 11.1111 7.77744 10.6573 8.23119L9.11281 9.77567L6.84342 7.83047C6.34812 7.40592 5.61375 7.41815 5.13289 7.85896L2.35381 10.4064V3.65517ZM2.35381 12.0343V12.3552C2.35381 13.1284 2.98061 13.7552 3.75381 13.7552H12.4538C13.227 13.7552 13.8538 13.1284 13.8538 12.3552V10.7447L11.6228 9.07144C11.5871 9.04469 11.5373 9.04827 11.5058 9.07971L10.0266 10.5589L11.2057 11.5696C11.4573 11.7853 11.4865 12.164 11.2708 12.4156C11.0552 12.6672 10.6764 12.6964 10.4248 12.4807L6.06245 8.74157C6.02809 8.71212 5.97713 8.71296 5.94377 8.74353L2.35381 12.0343Z" fill="black"/>
<path d="M10.3911 3.84419C10.6254 3.60988 11.0053 3.60988 11.2396 3.84419L11.8818 4.48643V1.93496C11.8818 1.60359 12.1505 1.33496 12.4818 1.33496C12.8132 1.33496 13.0818 1.60359 13.0818 1.93496V4.48676L13.7244 3.84419C13.9587 3.60988 14.3386 3.60988 14.5729 3.84419C14.8072 4.07851 14.8072 4.45841 14.5729 4.69272L12.9063 6.35939C12.6719 6.5937 12.292 6.5937 12.0577 6.35939L10.3911 4.69272C10.1568 4.45841 10.1568 4.07851 10.3911 3.84419Z" fill="black"/>
</svg>
