<svg width="16" height="16" viewBox="0 0 16 16" fill="none" xmlns="http://www.w3.org/2000/svg">
<path d="M5.84964 5.80918C6.71946 3.63548 8.84516 2.2 11.3295 2.2C11.8324 2.2 12.3198 2.26279 12.7846 2.38065C13.1058 2.46209 13.4322 2.26773 13.5137 1.94652C13.5951 1.62532 13.4008 1.2989 13.0795 1.21746C12.5191 1.07535 11.9327 1 11.3295 1C8.17278 1 5.49724 2.96009 4.57394 5.80918H3.06582C2.73445 5.80918 2.46582 6.07781 2.46582 6.40918C2.46582 6.74055 2.73445 7.00918 3.06582 7.00918H4.29808C4.25287 7.33297 4.22949 7.66376 4.22949 8C4.22949 8.33608 4.25284 8.6667 4.29801 8.99033H3.06582C2.73445 8.99033 2.46582 9.25896 2.46582 9.59033C2.46582 9.9217 2.73445 10.1903 3.06582 10.1903H4.57378C5.49693 13.0397 8.1726 15 11.3295 15C11.9336 15 12.5209 14.9244 13.0821 14.7819C13.4033 14.7003 13.5975 14.3738 13.5159 14.0527C13.4344 13.7315 13.1079 13.5373 12.7867 13.6188C12.3213 13.737 11.8332 13.8 11.3295 13.8C8.84497 13.8 6.71914 12.3643 5.84944 10.1903H11.4291C11.7605 10.1903 12.0291 9.9217 12.0291 9.59033C12.0291 9.25896 11.7605 8.99033 11.4291 8.99033H5.51225C5.45783 8.66834 5.42949 8.33748 5.42949 8C5.42949 7.66235 5.45786 7.33133 5.51233 7.00918H11.4291C11.7605 7.00918 12.0291 6.74055 12.0291 6.40918C12.0291 6.07781 11.7605 5.80918 11.4291 5.80918H5.84964Z" fill="black"/>
</svg>
