<svg width="16" height="16" viewBox="0 0 16 16" fill="none" xmlns="http://www.w3.org/2000/svg">
<path d="M3.65005 1.05005C2.21411 1.05005 1.05005 2.21411 1.05005 3.65005V12.35C1.05005 13.7859 2.21411 14.95 3.65005 14.95H14.35C14.6813 14.95 14.95 14.6813 14.95 14.35C14.95 14.0186 14.6813 13.75 14.35 13.75H3.65005C2.87685 13.75 2.25005 13.1232 2.25005 12.35V3.65005C2.25005 2.87685 2.87685 2.25005 3.65005 2.25005H14.35C14.6813 2.25005 14.95 1.98142 14.95 1.65005C14.95 1.31868 14.6813 1.05005 14.35 1.05005H3.65005Z" fill="black"/>
<path d="M11.6167 5.26668C11.851 5.03236 12.2309 5.03236 12.4652 5.26668L14.7743 7.57575C15.0086 7.81007 15.0086 8.18997 14.7743 8.42428L12.4652 10.7334C12.2309 10.9677 11.851 10.9677 11.6167 10.7334C11.3823 10.499 11.3823 10.1191 11.6167 9.88483L12.9015 8.60002H6.63784C6.30647 8.60002 6.03784 8.3314 6.03784 8.00002C6.03784 7.66865 6.30647 7.40002 6.63784 7.40002H12.9015L11.6167 6.11521C11.3823 5.88089 11.3823 5.50099 11.6167 5.26668Z" fill="black"/>
</svg>
