<svg width="16" height="17" viewBox="0 0 16 17" fill="none" xmlns="http://www.w3.org/2000/svg">
<path d="M2.5999 2.88223C2.5999 2.55086 2.33127 2.28223 1.9999 2.28223C1.66853 2.28223 1.3999 2.55086 1.3999 2.88223V12.5996C1.3999 14.0356 2.56396 15.1996 3.9999 15.1996H13.9999C14.3313 15.1996 14.5999 14.931 14.5999 14.5996C14.5999 14.2683 14.3313 13.9996 13.9999 13.9996H3.9999C3.2267 13.9996 2.5999 13.3728 2.5999 12.5996V2.88223Z" fill="black"/>
<path d="M11.232 12.357C11.232 12.6972 10.9562 12.973 10.616 12.973C10.2758 12.973 10 12.6972 10 12.357C10 12.0168 10.2758 11.741 10.616 11.741C10.9562 11.741 11.232 12.0168 11.232 12.357Z" fill="black"/>
<path d="M13.3428 10.8661C13.7965 10.8661 14.1642 10.4984 14.1642 10.0447C14.1642 9.59113 13.7965 9.22339 13.3428 9.22339C12.8892 9.22339 12.5215 9.59113 12.5215 10.0447C12.5215 10.4984 12.8892 10.8661 13.3428 10.8661Z" fill="black"/>
<path d="M9.38343 4.61532C9.38343 5.18234 8.92375 5.64202 8.35673 5.64202C7.78971 5.64202 7.33003 5.18234 7.33003 4.61532C7.33003 4.04829 7.78971 3.58862 8.35673 3.58862C8.92375 3.58862 9.38343 4.04829 9.38343 4.61532Z" fill="black"/>
<path d="M7.00001 8.973C7.34023 8.973 7.61602 8.69721 7.61602 8.35698C7.61602 8.01676 7.34023 7.74097 7.00001 7.74097C6.65978 7.74097 6.38399 8.01676 6.38399 8.35698C6.38399 8.69721 6.65978 8.973 7.00001 8.973Z" fill="black"/>
<path d="M13.9227 3.89515C14.0078 3.5749 13.8172 3.24628 13.497 3.16115C13.1767 3.07603 12.8481 3.26664 12.763 3.58689C11.0567 10.0062 6.67659 11.5668 4.65798 11.4831C4.32689 11.4694 4.04737 11.7267 4.03365 12.0577C4.01993 12.3888 4.27721 12.6683 4.60829 12.6821C7.21672 12.7902 12.0792 10.8308 13.9227 3.89515Z" fill="black"/>
</svg>
