<svg width="16" height="16" viewBox="0 0 16 16" fill="none" xmlns="http://www.w3.org/2000/svg">
<path d="M7.99967 10.6663C7.47226 10.6663 6.95669 10.5099 6.51815 10.2169C6.07962 9.92391 5.73783 9.50743 5.536 9.02016C5.33416 8.53289 5.28135 7.99672 5.38425 7.47943C5.48714 6.96215 5.74112 6.487 6.11406 6.11406C6.487 5.74112 6.96215 5.48714 7.47943 5.38425C7.99672 5.28135 8.53289 5.33416 9.02016 5.536C9.50743 5.73783 9.92391 6.07962 10.2169 6.51815C10.5099 6.95669 10.6663 7.47226 10.6663 7.99967C10.6663 8.70692 10.3854 9.3852 9.88529 9.88529C9.3852 10.3854 8.70692 10.6663 7.99967 10.6663ZM7.99967 6.66634C7.73597 6.66634 7.47818 6.74454 7.25891 6.89105C7.03965 7.03756 6.86875 7.2458 6.76784 7.48943C6.66692 7.73306 6.64051 8.00115 6.69196 8.25979C6.74341 8.51844 6.8704 8.75601 7.05687 8.94248C7.24334 9.12895 7.48091 9.25594 7.73955 9.30739C7.9982 9.35883 8.26628 9.33243 8.50992 9.23151C8.75355 9.1306 8.96179 8.9597 9.1083 8.74043C9.25481 8.52117 9.33301 8.26338 9.33301 7.99967C9.33301 7.64605 9.19253 7.30691 8.94248 7.05687C8.69243 6.80682 8.3533 6.66634 7.99967 6.66634Z" fill="black"/>
<path d="M7.99967 12.6663C3.69701 12.6663 1.33301 9.16101 1.33301 7.99967C1.33301 6.89034 4.40767 3.33301 7.99967 3.33301C11.5917 3.33301 14.6663 6.89034 14.6663 7.99967C14.6663 9.16101 12.3023 12.6663 7.99967 12.6663ZM2.67501 8.01834C3.14932 9.02475 3.90405 9.87286 4.84857 10.4608C5.79309 11.0488 6.88725 11.3517 7.99967 11.333C9.1121 11.3517 10.2063 11.0488 11.1508 10.4608C12.0953 9.87286 12.85 9.02475 13.3243 8.01834C13.0823 7.37167 10.8363 4.66634 7.99967 4.66634C5.16301 4.66634 2.91701 7.37167 2.67501 8.01834Z" fill="black"/>
</svg>
