<svg width="16" height="16" viewBox="0 0 16 16" fill="none" xmlns="http://www.w3.org/2000/svg">
<path fill-rule="evenodd" clip-rule="evenodd" d="M7.46613 5.2614C7.99641 5.15377 8.54607 5.209 9.04566 5.42016C9.54527 5.63133 9.9725 5.98902 10.2732 6.44821C10.5739 6.90741 10.7345 7.44742 10.7345 7.99994C10.7345 8.74088 10.446 9.45122 9.93293 9.97475C9.41991 10.4982 8.72439 10.7921 7.99945 10.7921C7.45882 10.7921 6.93021 10.6285 6.48047 10.3219C6.03072 10.0152 5.67998 9.57922 5.47282 9.06887C5.26565 8.55852 5.21142 7.99686 5.31705 7.45498C5.42268 6.9131 5.68338 6.41554 6.06598 6.02513C6.44856 5.63474 6.93584 5.36903 7.46613 5.2614ZM7.99945 6.50637C7.70941 6.50637 7.42599 6.59414 7.18504 6.75842C6.94411 6.92269 6.75652 7.15604 6.64579 7.4288C6.53508 7.70156 6.50613 8.00161 6.56255 8.29108C6.61898 8.58055 6.7583 8.84663 6.96308 9.05559C7.16788 9.26456 7.42896 9.40703 7.7134 9.46476C7.99784 9.5225 8.29266 9.49286 8.56052 9.37964C8.82836 9.26643 9.05707 9.07481 9.21789 8.82922C9.3787 8.58364 9.46445 8.29505 9.46445 7.99994C9.46445 7.60424 9.31042 7.22449 9.03583 6.94429C8.76119 6.66405 8.38842 6.50637 7.99945 6.50637Z" fill="black"/>
<path fill-rule="evenodd" clip-rule="evenodd" d="M1.06445 7.99994C1.06445 7.86432 1.111 7.68433 1.20506 7.46997C1.29865 7.25669 1.43723 7.01393 1.61634 6.75416C1.97451 6.23466 2.49209 5.65088 3.12753 5.10347C4.3995 4.00771 6.13495 3.06494 7.99945 3.06494C9.86395 3.06494 11.5994 4.00771 12.8714 5.10347C13.5068 5.65088 14.0244 6.23466 14.3826 6.75416C14.5617 7.01393 14.7003 7.25669 14.7938 7.46997C14.8879 7.68433 14.9345 7.86432 14.9345 7.99994C14.9345 8.29406 14.7859 8.75016 14.4847 9.27371C14.1847 9.79497 13.7374 10.3759 13.1495 10.9188C11.974 12.0042 10.2392 12.9349 7.99945 12.9349C5.75972 12.9349 4.02489 12.0042 2.84937 10.9188C2.26147 10.3759 1.81418 9.79497 1.51423 9.27371C1.21296 8.75016 1.06445 8.29406 1.06445 7.99994ZM7.99945 4.36351C6.48933 4.36351 5.14092 5.09788 4.14125 5.91406C3.64087 6.32258 3.22616 6.75295 2.92026 7.12521C2.61595 7.49554 2.415 7.81359 2.34753 7.99756L2.33827 8.0228L2.34954 8.0472C2.85275 9.13669 3.65354 10.055 4.65594 10.6918C5.65805 11.3283 6.81899 11.6563 7.99945 11.6364C9.17991 11.6563 10.3409 11.3283 11.343 10.6918C12.3454 10.055 13.1462 9.13669 13.6494 8.0472L13.6606 8.0228L13.6514 7.99756C13.5839 7.81359 13.383 7.49554 13.0786 7.12521C12.7727 6.75295 12.358 6.32258 11.8577 5.91406C10.858 5.09788 9.50957 4.36351 7.99945 4.36351Z" fill="black"/>
</svg>
