<svg width="16" height="16" viewBox="0 0 16 16" fill="none" xmlns="http://www.w3.org/2000/svg">
<path fill-rule="evenodd" clip-rule="evenodd" d="M4.92469 2.4224C5.3734 1.19807 7.10499 1.19807 7.5537 2.4224L11.7282 13.8128C11.8422 14.124 11.6824 14.4686 11.3713 14.5827C11.0602 14.6967 10.7155 14.5369 10.6015 14.2258L9.02748 9.93099C9.02539 9.93101 9.0233 9.93102 9.0212 9.93102H3.74372C3.64682 9.93102 3.55528 9.90805 3.47426 9.86726L1.8769 14.2258C1.76287 14.5369 1.41821 14.6967 1.10708 14.5827C0.795942 14.4686 0.636156 14.124 0.750185 13.8128L4.92469 2.4224ZM3.89068 8.73102H8.58771L6.42698 2.83533C6.36288 2.66043 6.11551 2.66042 6.05141 2.83533L3.89068 8.73102Z" fill="black"/>
<path d="M9.61442 4.71554C9.61442 4.38417 9.88305 4.11554 10.2144 4.11554H14.6864C15.0178 4.11554 15.2864 4.38417 15.2864 4.71554C15.2864 5.04691 15.0178 5.31554 14.6864 5.31554H10.2144C9.88305 5.31554 9.61442 5.04691 9.61442 4.71554Z" fill="black"/>
</svg>
