<svg width="16" height="16" viewBox="0 0 16 16" fill="black" xmlns="http://www.w3.org/2000/svg"><g transform="translate(8 8) scale(1 1.03) translate(-8 -8)"><path d="M861 70H821C781 -66 746 -150 621 -150H196V-145L545 315V334L237 725V729H566C700 729 766 699 789 532H828L817 782H69V758L449 282L62 -224V-248H800Z" transform="translate(3.65 9.9) scale(0.0108 -0.0083)"/><path d="M521 112C506 93 481 60 447 60C433 60 428 68 428 79C428 91 430 103 430 103L487 334C490 348 496 382 496 408C496 444 481 479 430 479C312 479 227 334 185 259H177L227 476H205L66 465V438C66 438 86 440 99 440C122 440 131 430 131 413C131 398 128 380 128 380L47 0H129L165 158C197 227 307 407 380 407C403 407 410 390 410 367C410 347 403 319 403 319L344 88C343 83 339 65 339 49C339 19 354 -10 404 -10C476 -10 516 60 542 97Z" transform="translate(6.65 2.7) scale(0.0048 -0.005)"/><path d="M257 28C190 28 185 43 185 101V482H159L33 454V425C33 425 44 427 58 427C87 427 102 423 102 380V101C102 44 99 28 32 28V0H257ZM145 673C110 673 88 647 88 617C88 586 111 560 145 560C180 560 202 586 202 617C202 647 180 673 145 673Z" transform="translate(5 15.8) scale(0.004 -0.0044)"/><path d="M658 327V395H62V327ZM658 123V190H62V123Z" transform="translate(6.14 15.8) scale(0.004 -0.0044)"/><path d="M468 317C468 523 378 642 249 642C104 642 27 510 27 320C27 143 86 -11 247 -11C404 -11 468 146 468 317ZM371 311C371 119 326 25 247 25C167 25 123 121 123 315C123 513 167 608 246 608C328 608 371 514 371 311Z" transform="translate(9.02 15.8) scale(0.004 -0.0044)"/></g></svg>
