<svg width="16" height="16" viewBox="0 0 16 16" fill="black" xmlns="http://www.w3.org/2000/svg"><g transform="translate(8 8) scale(1.16 1) translate(-8 -8)"><path d="M260 29C188 29 183 43 183 101V706H158L26 671V644C26 644 41 646 58 646C83 646 100 644 100 603V101C100 45 96 29 30 29V0H260Z" transform="translate(0.7 9.1) scale(0.01 -0.0105)"/><path d="M257 28C190 28 185 43 185 101V482H159L33 454V425C33 425 44 427 58 427C87 427 102 423 102 380V101C102 44 99 28 32 28V0H257ZM145 673C110 673 88 647 88 617C88 586 111 560 145 560C180 560 202 586 202 617C202 647 180 673 145 673Z" transform="translate(3.53 9.1) scale(0.01 -0.0105)"/><path d="M185 357C214 384 258 421 310 421C356 421 390 399 390 314V116C390 46 384 29 313 29V0H550V29C478 29 473 47 473 116V359C506 387 547 421 588 421C635 421 674 399 674 308V116C674 55 671 29 603 29V0H829V29C760 29 757 53 757 116V320C757 441 706 485 628 485C575 485 524 456 469 402H465C445 450 411 485 354 485C286 485 240 448 186 401H182V482H158L33 453V424C33 424 45 426 60 426C88 426 102 417 102 381V101C102 41 95 29 32 29V0H260V29C198 29 185 41 185 97Z" transform="translate(6.38 9.1) scale(0.01 -0.0105)"/><path d="M521 112C506 93 481 60 447 60C433 60 428 68 428 79C428 91 430 103 430 103L487 334C490 348 496 382 496 408C496 444 481 479 430 479C312 479 227 334 185 259H177L227 476H205L66 465V438C66 438 86 440 99 440C122 440 131 430 131 413C131 398 128 380 128 380L47 0H129L165 158C197 227 307 407 380 407C403 407 410 390 410 367C410 347 403 319 403 319L344 88C343 83 339 65 339 49C339 19 354 -10 404 -10C476 -10 516 60 542 97Z" transform="translate(1.7 15.5) scale(0.0048 -0.0072)"/><path d="M876 264C778 305 700 382 634 459L613 439C636 405 667 369 697 341C707 331 711 324 711 315C711 305 695 293 685 293H71V225H684C702 225 710 215 710 205C710 196 705 185 696 176C665 144 636 111 612 78L633 58C700 136 778 212 876 254Z" transform="translate(4.45 15.4) scale(0.0048 -0.0072)"/><path d="M878 227C878 364 784 440 692 440C588 440 541 375 494 290C397 421 346 440 271 440C212 440 75 393 75 205C75 63 168 0 256 0C354 0 424 55 470 148C533 54 592 0 675 0C805 0 878 128 878 227ZM447 185C419 148 370 86 279 86C189 86 137 171 137 258C137 323 182 380 239 380C309 380 373 310 447 188ZM515 251C544 294 583 354 674 354C765 354 817 275 817 182C817 116 772 60 714 60C645 60 588 126 515 248Z" transform="translate(9 15.4) scale(0.0048 -0.0072)"/></g></svg>
