<svg width="16" height="16" viewBox="0 0 16 16" fill="black" xmlns="http://www.w3.org/2000/svg"><g transform="translate(8 8) scale(1.03 1.02) translate(-8 -8)"><path d="M2.2 .5H.6V15.5H2.2M13.8 .5H15.4V15.5H13.8" fill="none" stroke="black" stroke-width=".75"/><path d="M426 0V28C334 28 297 46 297 95V639H268L74 584V551C105 561 156 567 176 567C201 567 209 553 209 518V95C209 45 174 28 80 28V0Z" transform="translate(3.32 7.2) scale(0.0078 -0.0078)"/><path d="M468 317C468 523 378 642 249 642C104 642 27 510 27 320C27 143 86 -11 247 -11C404 -11 468 146 468 317ZM371 311C371 119 326 25 247 25C167 25 123 121 123 315C123 513 167 608 246 608C328 608 371 514 371 311Z" transform="translate(8.82 7.2) scale(0.0078 -0.0078)"/><path d="M468 317C468 523 378 642 249 642C104 642 27 510 27 320C27 143 86 -11 247 -11C404 -11 468 146 468 317ZM371 311C371 119 326 25 247 25C167 25 123 121 123 315C123 513 167 608 246 608C328 608 371 514 371 311Z" transform="translate(3.32 14.3) scale(0.0078 -0.0078)"/><path d="M426 0V28C334 28 297 46 297 95V639H268L74 584V551C105 561 156 567 176 567C201 567 209 553 209 518V95C209 45 174 28 80 28V0Z" transform="translate(8.82 14.3) scale(0.0078 -0.0078)"/></g></svg>
