<svg width="16" height="16" viewBox="0 0 16 16" fill="none" xmlns="http://www.w3.org/2000/svg">
<path fill-rule="evenodd" clip-rule="evenodd" d="M3.74015 1.13989C2.30421 1.13989 1.14015 2.30396 1.14015 3.73989V5.32866C1.14013 5.33155 1.14013 5.33444 1.14015 5.33732V12.2599C1.14015 13.6958 2.30421 14.8599 3.74015 14.8599H12.2602C13.6961 14.8599 14.8602 13.6958 14.8602 12.2599V3.73989C14.8602 2.46491 13.9424 1.40427 12.7315 1.18251C12.6397 1.14703 12.5407 1.13477 12.4436 1.14626C12.383 1.14204 12.3218 1.13989 12.2602 1.13989H3.74015ZM10.9392 2.33989H9.5695L5.81042 5.68188H7.18015L10.9392 2.33989ZM7.76344 2.33989H6.2816L2.34015 5.61425V5.68188H4.00437L7.76344 2.33989ZM2.34015 6.88188V12.2599C2.34015 13.0331 2.96695 13.6599 3.74015 13.6599H12.2602C13.0334 13.6599 13.6602 13.0331 13.6602 12.2599V6.88188H2.34015ZM13.6602 5.68188V4.48357L12.2714 5.68188H13.6602ZM13.4806 3.05349C13.3067 2.745 13.0193 2.50905 12.675 2.40238L8.98621 5.68188H10.4346L13.4806 3.05349ZM2.34015 4.05418L4.4037 2.33989H3.74015C2.96695 2.33989 2.34015 2.9667 2.34015 3.73989V4.05418Z" fill="black"/>
</svg>
