<svg width="16" height="16" viewBox="0 0 16 16" fill="none" xmlns="http://www.w3.org/2000/svg">
<path fill-rule="evenodd" clip-rule="evenodd" d="M1.14014 12.2599C1.14014 13.6958 2.3042 14.8599 3.74014 14.8599H12.2601C13.6961 14.8599 14.8601 13.6958 14.8601 12.2599V3.73989C14.8601 2.30395 13.6961 1.13989 12.2601 1.13989H3.74014C2.3042 1.13989 1.14014 2.30396 1.14014 3.73989V12.2599ZM2.68766 13.1831C2.47131 12.9367 2.34014 12.6136 2.34014 12.2599V11.9756L5.68213 8.21656V9.69237L2.68766 13.1831ZM3.85969 13.6599H5.68213V11.5354L3.85969 13.6599ZM6.88213 13.6599H12.2601C13.0333 13.6599 13.6601 13.0331 13.6601 12.2599V3.73989C13.6601 2.96669 13.0333 2.33989 12.2601 2.33989H6.88213V13.6599ZM5.68213 2.33989H5.10563L2.34014 5.5448V6.99379L5.68213 3.23472V2.33989ZM2.34014 8.79985V10.1696L5.68213 6.4105V5.04078L2.34014 8.79985ZM2.3405 3.70754L3.50344 2.35982C2.85328 2.47053 2.35588 3.02952 2.3405 3.70754Z" fill="black"/>
</svg>
