<svg width="16" height="16" viewBox="0 0 16 16" fill="none" xmlns="http://www.w3.org/2000/svg">
<path fill-rule="evenodd" clip-rule="evenodd" d="M1.33325 2.60309C1.33325 1.90178 1.90178 1.33325 2.60309 1.33325H13.3967C14.0981 1.33325 14.6666 1.90178 14.6666 2.60309V13.3967C14.6666 14.0981 14.0981 14.6666 13.3967 14.6666H2.60309C1.90178 14.6666 1.33325 14.0981 1.33325 13.3967V2.60309ZM10.5396 13.3967H13.3967V10.5396H10.5396V13.3967ZM9.26976 10.5396V13.3967H6.41262V10.5396H9.26976ZM10.5396 9.26976H13.3967V6.73008H10.5396V9.26976ZM9.26976 6.73008V9.26976H6.41262V6.73008H9.26976ZM10.5396 5.46024H13.3967V2.60309H10.5396V5.46024ZM9.26976 2.60309V5.46024H6.41262V2.60309H9.26976ZM2.60309 2.60309H5.14278V5.46024H2.60309V2.60309ZM2.60309 6.73008H5.14278V9.26976H2.60309V6.73008ZM2.60309 10.5396H5.14278V13.3967H2.60309V10.5396Z" fill="black"/>
</svg>
