<svg width="17" height="16" viewBox="0 0 17 16" fill="none" xmlns="http://www.w3.org/2000/svg">
<path fill-rule="evenodd" clip-rule="evenodd" d="M7.38125 1.16211C6.49759 1.16211 5.78125 1.87845 5.78125 2.76211V5.6377H2.87783C1.99418 5.6377 1.27783 6.35404 1.27783 7.2377V13.2377C1.27783 14.1214 1.99418 14.8377 2.87783 14.8377H8.87783C9.76149 14.8377 10.4778 14.1214 10.4778 13.2377V10.3621H13.3813C14.2649 10.3621 14.9813 9.64577 14.9813 8.76211V2.76211C14.9813 1.87845 14.2649 1.16211 13.3813 1.16211H7.38125ZM10.4778 9.16211H13.3813C13.6022 9.16211 13.7812 8.98302 13.7812 8.76211V2.76211C13.7812 2.5412 13.6022 2.36211 13.3813 2.36211H7.38125C7.16034 2.36211 6.98125 2.5412 6.98125 2.76211V5.6377H8.87783C9.76149 5.6377 10.4778 6.35404 10.4778 7.2377V9.16211ZM6.98125 6.8377H8.87783C9.09875 6.8377 9.27783 7.01678 9.27783 7.2377V9.16211H7.38125C7.16034 9.16211 6.98125 8.98302 6.98125 8.76211V6.8377ZM5.78125 6.8377V8.76211C5.78125 9.64577 6.49759 10.3621 7.38125 10.3621H9.27783V13.2377C9.27783 13.4586 9.09875 13.6377 8.87783 13.6377H2.87783C2.65692 13.6377 2.47783 13.4586 2.47783 13.2377V7.2377C2.47783 7.01678 2.65692 6.8377 2.87783 6.8377H5.78125Z" fill="black"/>
</svg>
