<svg width="16" height="16" viewBox="0 0 16 16" fill="none" xmlns="http://www.w3.org/2000/svg">
<path d="M5.48291 6.27979C5.48291 4.88937 6.61007 3.76221 8.00049 3.76221C9.39091 3.76221 10.5181 4.88937 10.5181 6.27979C10.5181 7.46343 9.70122 8.4563 8.60049 8.72542V9.47575C8.60049 9.80712 8.33186 10.0757 8.00049 10.0757C7.66912 10.0757 7.40049 9.80712 7.40049 9.47575V8.19736C7.40049 7.86599 7.66912 7.59736 8.00049 7.59736C8.72816 7.59736 9.31807 7.00746 9.31807 6.27979C9.31807 5.55211 8.72816 4.96221 8.00049 4.96221C7.27281 4.96221 6.68291 5.55211 6.68291 6.27979C6.68291 6.61116 6.41428 6.87979 6.08291 6.87979C5.75154 6.87979 5.48291 6.61116 5.48291 6.27979Z" fill="black"/>
<path d="M8.79964 11.5573C8.79964 11.9986 8.44192 12.3563 8.00065 12.3563C7.55938 12.3563 7.20166 11.9986 7.20166 11.5573C7.20166 11.116 7.55938 10.7583 8.00065 10.7583C8.44192 10.7583 8.79964 11.116 8.79964 11.5573Z" fill="black"/>
<path fill-rule="evenodd" clip-rule="evenodd" d="M3.05619 3.05618C4.32084 1.79156 6.06964 1.0083 8.00023 1.0083C9.93081 1.0083 11.6796 1.79156 12.9443 3.05619C14.2089 4.32083 14.9922 6.06964 14.9922 8.00023C14.9922 9.93082 14.2089 11.6796 12.9443 12.9443C11.6796 14.2089 9.93082 14.9922 8.00023 14.9922C6.06964 14.9922 4.32084 14.2089 3.05619 12.9443C1.79156 11.6796 1.0083 9.93081 1.0083 8.00023C1.0083 6.06964 1.79156 4.32083 3.05619 3.05618ZM8.00023 2.2083C6.40068 2.2083 4.95352 2.85593 3.90471 3.90472C2.85592 4.95353 2.2083 6.40068 2.2083 8.00023C2.2083 9.59977 2.85593 11.0469 3.90472 12.0957C4.95352 13.1445 6.40068 13.7922 8.00023 13.7922C9.59977 13.7922 11.0469 13.1445 12.0957 12.0957C13.1445 11.0469 13.7922 9.59977 13.7922 8.00023C13.7922 6.40068 13.1445 4.95352 12.0957 3.90472C11.0469 2.85593 9.59977 2.2083 8.00023 2.2083Z" fill="black"/>
</svg>
