<svg width="16" height="16" viewBox="0 0 16 16" fill="none" xmlns="http://www.w3.org/2000/svg">
<path fill-rule="evenodd" clip-rule="evenodd" d="M1.5 2.5C1.5 2.22386 1.72386 2 2 2H14C14.2761 2 14.5 2.22386 14.5 2.5V11.5C14.5 11.7761 14.2761 12 14 12H2C1.72386 12 1.5 11.7761 1.5 11.5V2.5ZM2.5 3V11H13.5V3H2.5Z" fill="black"/>
<path d="M1.29289 1.29289C1.68342 0.902369 2.31658 0.902369 2.70711 1.29289L14.7071 13.2929C15.0976 13.6834 15.0976 14.3166 14.7071 14.7071C14.3166 15.0976 13.6834 15.0976 13.2929 14.7071L1.29289 2.70711C0.902369 2.31658 0.902369 1.68342 1.29289 1.29289Z" fill="black"/>
</svg>
