<svg width="16" height="16" viewBox="0 0 16 16" fill="none" xmlns="http://www.w3.org/2000/svg">
<path d="M12.8481 8.00049V3.87451C12.8481 3.13737 12.2503 2.5398 11.5132 2.53955H4.48682C3.74952 2.53955 3.15186 3.13721 3.15186 3.87451V12.1255C3.15186 12.8628 3.74952 13.4604 4.48682 13.4604H6.99951L7.1333 13.4741C7.43655 13.536 7.66454 13.804 7.66455 14.1255C7.66455 14.447 7.43655 14.715 7.1333 14.7769L6.99951 14.7905H4.48682C3.01498 14.7905 1.82178 13.5973 1.82178 12.1255V3.87451C1.82178 2.40267 3.01498 1.20947 4.48682 1.20947H11.5132C12.9848 1.20972 14.1772 2.40283 14.1772 3.87451V8.00049C14.177 8.36738 13.8801 8.6643 13.5132 8.66455C13.1461 8.66455 12.8484 8.36754 12.8481 8.00049Z" fill="black"/>
<path d="M10.1463 4.53859L10.2801 4.55226C10.5832 4.61419 10.8113 4.8822 10.8113 5.20363C10.8113 5.52506 10.5832 5.79306 10.2801 5.85499L10.1463 5.86867H5.85331C5.48604 5.86867 5.18827 5.5709 5.18827 5.20363C5.18827 4.83636 5.48604 4.53859 5.85331 4.53859H10.1463Z" fill="black"/>
<path d="M8.11307 7.33497L8.24686 7.34865C8.54984 7.41069 8.77811 7.67869 8.77811 8.00001C8.77811 8.32134 8.54984 8.58933 8.24686 8.65138L8.11307 8.66505H5.85331C5.48604 8.66505 5.18827 8.36728 5.18827 8.00001C5.18827 7.63274 5.48604 7.33497 5.85331 7.33497H8.11307Z" fill="black"/>
<path d="M6.98319 10.1314L7.11698 10.145C7.42003 10.207 7.64823 10.475 7.64823 10.7964C7.64823 11.1178 7.42003 11.3858 7.11698 11.4478L6.98319 11.4614H5.85331C5.48604 11.4614 5.18827 11.1637 5.18827 10.7964C5.18827 10.4291 5.48604 10.1314 5.85331 10.1314H6.98319Z" fill="black"/>
<path d="M13.8743 12.6147C13.8742 12.5394 13.7749 12.2553 13.3909 11.9477C13.039 11.6659 12.5573 11.4614 12.0394 11.4614C11.5213 11.4614 11.0398 11.6666 10.6878 11.9487C10.3037 12.2565 10.2045 12.5399 10.2044 12.6147C10.2044 12.6893 10.3034 12.9737 10.6878 13.2817C11.0398 13.5636 11.5215 13.768 12.0394 13.768C12.5574 13.768 13.039 13.5635 13.3909 13.2817C13.7751 12.9739 13.8743 12.6897 13.8743 12.6147ZM15.2044 12.6147C15.2044 13.2772 14.7436 13.9027 14.223 14.3198C13.6701 14.7627 12.9019 15.0981 12.0394 15.0981C11.1768 15.0981 10.4085 14.7627 9.85577 14.3198C9.33533 13.9027 8.87433 13.2769 8.87433 12.6147C8.8744 11.9526 9.33541 11.3276 9.85577 10.9106C10.4086 10.4676 11.1767 10.1313 12.0394 10.1313C12.9018 10.1313 13.6701 10.4668 14.223 10.9096C14.7435 11.3267 15.2043 11.9523 15.2044 12.6147Z" fill="black"/>
<path d="M12.0394 13.299C12.4172 13.299 12.7234 12.9927 12.7234 12.6149C12.7234 12.2371 12.4172 11.9308 12.0394 11.9308C11.6616 11.9308 11.3553 12.2371 11.3553 12.6149C11.3553 12.9927 11.6616 13.299 12.0394 13.299Z" fill="black"/>
</svg>
