<svg width="16" height="16" viewBox="0 0 16 16" fill="none" xmlns="http://www.w3.org/2000/svg">
<path d="M8.6 1.99991C8.60001 1.66854 8.33138 1.39991 8.00001 1.3999C7.66864 1.3999 7.40001 1.66853 7.4 1.9999L7.39996 7.3999H1.9999C1.66853 7.3999 1.3999 7.66853 1.3999 7.9999C1.3999 8.33127 1.66853 8.5999 1.9999 8.5999H7.39995L7.3999 13.9999C7.3999 14.3313 7.66853 14.5999 7.9999 14.5999C8.33127 14.5999 8.5999 14.3313 8.5999 13.9999L8.59995 8.5999H13.9999C14.3313 8.5999 14.5999 8.33127 14.5999 7.9999C14.5999 7.66853 14.3313 7.3999 13.9999 7.3999H8.59996L8.6 1.99991Z" fill="black"/>
</svg>
