<svg width="16" height="16" viewBox="0 0 16 16" fill="none" xmlns="http://www.w3.org/2000/svg">
<path d="M1.9999 1.3667C1.66853 1.3667 1.3999 1.63533 1.3999 1.9667C1.3999 2.29807 1.66853 2.5667 1.9999 2.5667H13.9999C14.3313 2.5667 14.5999 2.29807 14.5999 1.9667C14.5999 1.63533 14.3313 1.3667 13.9999 1.3667H1.9999Z" fill="black"/>
<path d="M1.9999 13.4334C1.66853 13.4334 1.3999 13.7021 1.3999 14.0334C1.3999 14.3648 1.66853 14.6334 1.9999 14.6334H13.9999C14.3313 14.6334 14.5999 14.3648 14.5999 14.0334C14.5999 13.7021 14.3313 13.4334 13.9999 13.4334H1.9999Z" fill="black"/>
<path d="M9.49336 10.4244C9.25905 10.19 9.25905 9.81015 9.49336 9.57583L10.4691 8.6001L4.08291 8.6001C3.75154 8.6001 3.48291 8.33147 3.48291 8.0001C3.48291 7.66873 3.75154 7.4001 4.08291 7.4001L10.4691 7.4001L9.49336 6.42436C9.25905 6.19005 9.25905 5.81015 9.49336 5.57583C9.72767 5.34152 10.1076 5.34152 10.3419 5.57583L12.3419 7.57583C12.5762 7.81015 12.5762 8.19005 12.3419 8.42436L10.3419 10.4244C10.1076 10.6587 9.72767 10.6587 9.49336 10.4244Z" fill="black"/>
</svg>
