<svg width="16" height="16" viewBox="0 0 16 16" fill="none" xmlns="http://www.w3.org/2000/svg">
<path d="M11.4046 13.9395C11.4046 14.2708 11.6732 14.5395 12.0046 14.5395C12.336 14.5395 12.6046 14.2708 12.6046 13.9395V2.77186L13.7358 3.79578C13.9815 4.01815 14.3609 3.99927 14.5833 3.75359C14.8057 3.50792 14.7868 3.12849 14.5411 2.90612L13.0757 1.57967C12.4328 0.997761 11.4046 1.45394 11.4046 2.32106V13.9395Z" fill="black"/>
<path fill-rule="evenodd" clip-rule="evenodd" d="M2.22244 9.26836C0.998116 8.81966 0.998119 7.08807 2.22245 6.63936L9.29456 4.04749C9.60569 3.93346 9.95036 4.09325 10.0644 4.40438C10.1784 4.71551 10.0186 5.06018 9.70749 5.1742L6.91911 6.19613V9.64753C6.91911 9.66877 6.918 9.68974 6.91585 9.71041L9.70749 10.7335C10.0186 10.8476 10.1784 11.1922 10.0644 11.5033C9.95036 11.8145 9.60569 11.9743 9.29456 11.8602L2.22244 9.26836ZM2.63538 7.76608L5.71911 6.63592V9.27181L2.63538 8.14165C2.46047 8.07755 2.46047 7.83018 2.63538 7.76608Z" fill="black"/>
</svg>
