<svg width="16" height="16" viewBox="0 0 16 16" fill="none" xmlns="http://www.w3.org/2000/svg">
<path fill-rule="evenodd" clip-rule="evenodd" d="M1.93072 10.1835L1.93106 10.1799L1.93238 10.1666L1.93813 10.1111C1.94338 10.0618 1.95153 9.98842 1.96289 9.89446C1.98561 9.70646 2.02113 9.43651 2.07197 9.11205C2.17396 8.46117 2.3362 7.60002 2.57751 6.74447C2.82117 5.88055 3.13443 5.06289 3.52207 4.47386C3.91655 3.87444 4.30029 3.63604 4.6667 3.63604C5.20279 3.63604 5.59094 3.79262 5.89245 4.03213C6.20445 4.27998 6.45611 4.64319 6.66114 5.09919C7.01279 5.88128 7.17707 6.8062 7.32445 7.63596C7.35331 7.79845 7.38152 7.95729 7.41037 8.1107C7.5826 9.0267 7.93167 10.342 8.56261 11.4445C9.18786 12.5371 10.18 13.5636 11.6667 13.5636C12.5868 13.5636 13.2216 12.8668 13.6371 12.1596C14.0698 11.4232 14.3885 10.4735 14.6226 9.56823C14.8589 8.65445 15.0188 7.74576 15.1195 7.06881C15.1701 6.72945 15.206 6.44627 15.2294 6.24721C15.2411 6.14764 15.2497 6.069 15.2554 6.01477L15.2618 5.95213L15.2634 5.93533L15.264 5.92935C15.264 5.9292 15.2641 5.92865 14.6667 5.87248L15.264 5.92935C15.295 5.59943 15.0528 5.30614 14.7229 5.27512C14.393 5.2441 14.1004 5.48635 14.0693 5.81621C14.0694 5.81618 14.0693 5.81625 14.0693 5.81621L14.069 5.81992L14.0677 5.83353L14.0619 5.88948C14.0567 5.93912 14.0487 6.01283 14.0376 6.10715C14.0154 6.29588 13.9811 6.5667 13.9326 6.89213C13.8355 7.54477 13.6829 8.40886 13.4608 9.26786C13.2365 10.1353 12.9511 10.9584 12.6025 11.5517C12.2368 12.174 11.9132 12.3636 11.6667 12.3636C10.82 12.3636 10.1455 11.7946 9.60413 10.8485C9.0684 9.91233 8.7508 8.74572 8.5897 7.88895C8.56536 7.75946 8.54044 7.61783 8.51388 7.46683C8.36895 6.64284 8.1749 5.53963 7.7556 4.60708C7.50229 4.04373 7.14979 3.49839 6.63887 3.09252C6.11746 2.67833 5.46395 2.43604 4.6667 2.43604C3.69978 2.43604 3.00019 3.08402 2.51967 3.81418C2.03231 4.55474 1.6789 5.50986 1.42256 6.41872C1.16387 7.33596 0.99278 8.24759 0.886434 8.92629C0.833107 9.26662 0.795708 9.55066 0.771558 9.75046C0.759477 9.8504 0.750696 9.92939 0.744883 9.98395L0.738344 10.0471L0.736664 10.0641L0.736208 10.0688L0.736074 10.0702C0.736059 10.0704 0.736002 10.071 1.33337 10.1272L0.736074 10.0702C0.705057 10.4002 0.947291 10.6935 1.27721 10.7245C1.60708 10.7555 1.89964 10.5133 1.93072 10.1835Z" fill="black"/>
</svg>
