<svg width="17" height="17" viewBox="0 0 17 17" fill="none" xmlns="http://www.w3.org/2000/svg">
<path d="M9.20459 4.90474C9.20459 4.64763 9.35535 4.54174 9.54053 4.68737L11.2643 6.04046C11.4495 6.18609 11.4495 6.42299 11.2643 6.56789L9.55334 7.90706C9.36755 8.05269 9.20386 7.90499 9.20386 7.68969V6.96785H8.94446C8.19543 6.96785 6.72595 7.28347 6.37646 7.89174C6.30786 8.00322 6.23572 7.97884 6.23572 7.89174C6.25073 6.80828 8.0918 5.58895 9.17383 5.58895H9.20459V4.90474Z" fill="black"/>
<path fill-rule="evenodd" clip-rule="evenodd" d="M1.98682 2.73096C1.98682 2.17867 2.43457 1.73096 2.98682 1.73096H14.9868C15.5391 1.73096 15.9868 2.17867 15.9868 2.73096V9.90105C15.9868 10.4533 15.5391 10.901 14.9868 10.901H9.62183V13.5577H12.9868C13.3375 13.5577 13.6218 13.842 13.6218 14.1927C13.6218 14.5434 13.3375 14.8277 12.9868 14.8277H4.98682C4.63611 14.8277 4.35181 14.5434 4.35181 14.1927C4.35181 13.842 4.63611 13.5577 4.98682 13.5577H8.35181V10.901H2.98682C2.43457 10.901 1.98682 10.4533 1.98682 9.90105V2.73096ZM3.25684 9.63106V3.00095H14.7168V9.63106H3.25684Z" fill="black"/>
</svg>
