<svg width="20" height="21" viewBox="0 0 20 21" fill="none" xmlns="http://www.w3.org/2000/svg">
<path fill-rule="evenodd" clip-rule="evenodd" d="M4.12194 6.33702C4.1805 6.47839 4.30722 6.6051 4.56066 6.85854L8.36822 10.6661L4.56062 14.4737C4.30718 14.7272 4.18046 14.8539 4.12191 14.9952C4.04384 15.1837 4.04384 15.3955 4.12191 15.584C4.18046 15.7253 4.30718 15.8521 4.56062 16.1055C4.81406 16.3589 4.94078 16.4857 5.08214 16.5442C5.27062 16.6223 5.4824 16.6223 5.67089 16.5442C5.81225 16.4857 5.93897 16.3589 6.19241 16.1055L10 12.2979L13.8074 16.1053C14.0609 16.3588 14.1876 16.4855 14.329 16.544C14.5174 16.6221 14.7292 16.6221 14.9177 16.544C15.0591 16.4855 15.1858 16.3588 15.4392 16.1053L15.4392 16.1053C15.6927 15.8519 15.8194 15.7252 15.8779 15.5838C15.956 15.3953 15.956 15.1835 15.8779 14.9951C15.8194 14.8537 15.6927 14.727 15.4392 14.4735L15.4392 14.4735L11.6318 10.6661L15.4392 6.85872C15.6926 6.60528 15.8193 6.47856 15.8779 6.3372C15.956 6.14871 15.956 5.93694 15.8779 5.74845C15.8193 5.60709 15.6926 5.48037 15.4392 5.22693C15.1857 4.97349 15.059 4.84677 14.9177 4.78822C14.7292 4.71015 14.5174 4.71015 14.3289 4.78822C14.1876 4.84677 14.0608 4.97349 13.8074 5.22693L10 9.03433L6.19244 5.22676C5.939 4.97332 5.81228 4.8466 5.67092 4.78805C5.48244 4.70997 5.27066 4.70997 5.08218 4.78805C4.94082 4.8466 4.8141 4.97332 4.56066 5.22676L4.56066 5.22676C4.30722 5.4802 4.1805 5.60692 4.12194 5.74828C4.04387 5.93676 4.04387 6.14854 4.12194 6.33702Z" fill="black"/>
</svg>
