<svg width="16" height="16" viewBox="0 0 16 16" fill="none" xmlns="http://www.w3.org/2000/svg">
<path fill-rule="evenodd" clip-rule="evenodd" d="M1.85059 4.06725C1.85059 2.84302 2.84302 1.85059 4.06725 1.85059C5.29148 1.85059 6.28392 2.84302 6.28392 4.06725C6.28392 5.29148 5.29148 6.28392 4.06725 6.28392C2.84302 6.28392 1.85059 5.29148 1.85059 4.06725ZM4.06725 2.95059C3.45053 2.95059 2.95059 3.45053 2.95059 4.06725C2.95059 4.68397 3.45053 5.18392 4.06725 5.18392C4.68397 5.18392 5.18392 4.68397 5.18392 4.06725C5.18392 3.45053 4.68397 2.95059 4.06725 2.95059Z" fill="black"/>
<path fill-rule="evenodd" clip-rule="evenodd" d="M9.7168 11.933C9.7168 10.7087 10.7092 9.71631 11.9335 9.71631C13.1577 9.71631 14.1501 10.7087 14.1501 11.933C14.1501 13.1572 13.1577 14.1496 11.9335 14.1496C10.7092 14.1496 9.7168 13.1572 9.7168 11.933ZM11.9335 10.8163C11.3167 10.8163 10.8168 11.3163 10.8168 11.933C10.8168 12.5497 11.3167 13.0496 11.9335 13.0496C12.5502 13.0496 13.0501 12.5497 13.0501 11.933C13.0501 11.3163 12.5502 10.8163 11.9335 10.8163Z" fill="black"/>
<path d="M13.5241 3.32407C13.7584 3.08975 13.7584 2.70986 13.5241 2.47554C13.2898 2.24123 12.9099 2.24123 12.6755 2.47554L2.47554 12.6755C2.24123 12.9099 2.24123 13.2898 2.47554 13.5241C2.70986 13.7584 3.08975 13.7584 3.32407 13.5241L13.5241 3.32407Z" fill="black"/>
</svg>
