<svg width="17" height="16" viewBox="0 0 17 16" fill="none" xmlns="http://www.w3.org/2000/svg">
<path fill-rule="evenodd" clip-rule="evenodd" d="M1.4082 3.74922C1.4082 4.63288 2.12455 5.34922 3.0082 5.34922H4.2082C5.09186 5.34922 5.8082 4.63287 5.8082 3.74922V2.54922C5.8082 1.66556 5.09186 0.949219 4.2082 0.949219H3.0082C2.12455 0.949219 1.4082 1.66556 1.4082 2.54922V3.74922ZM3.0082 4.14922C2.78729 4.14922 2.6082 3.97013 2.6082 3.74922V2.54922C2.6082 2.32831 2.78729 2.14922 3.0082 2.14922H4.2082C4.42912 2.14922 4.6082 2.32831 4.6082 2.54922V3.74922C4.6082 3.97013 4.42912 4.14922 4.2082 4.14922L3.0082 4.14922Z" fill="black"/>
<path fill-rule="evenodd" clip-rule="evenodd" d="M8.60757 5.24912C7.72391 5.24912 7.00757 4.53278 7.00757 3.64912V2.64912C7.00757 1.76547 7.72391 1.04912 8.60757 1.04912L14.0076 1.04912C14.8912 1.04912 15.6076 1.76546 15.6076 2.64912V3.64912C15.6076 4.53278 14.8912 5.24912 14.0076 5.24912L8.60757 5.24912ZM8.20757 3.64912C8.20757 3.87003 8.38665 4.04912 8.60757 4.04912L14.0076 4.04912C14.2285 4.04912 14.4076 3.87003 14.4076 3.64912V2.64912C14.4076 2.42821 14.2285 2.24912 14.0076 2.24912L8.60757 2.24912C8.38665 2.24912 8.20757 2.42821 8.20757 2.64912V3.64912Z" fill="black"/>
<path fill-rule="evenodd" clip-rule="evenodd" d="M1.5083 8.05078C1.5083 7.16713 2.22464 6.45078 3.1083 6.45078H4.1083C4.99196 6.45078 5.7083 7.16713 5.7083 8.05078V13.4508C5.7083 14.3344 4.99196 15.0508 4.1083 15.0508H3.1083C2.22464 15.0508 1.5083 14.3344 1.5083 13.4508V8.05078ZM3.1083 7.65078C2.88739 7.65078 2.7083 7.82987 2.7083 8.05078V13.4508C2.7083 13.6717 2.88739 13.8508 3.1083 13.8508H4.1083C4.32921 13.8508 4.5083 13.6717 4.5083 13.4508V8.05078C4.5083 7.82987 4.32921 7.65078 4.1083 7.65078H3.1083Z" fill="black"/>
<path d="M8.01375 13.0622L9.82677 14.8752C10.0611 15.1095 10.441 15.1095 10.6753 14.8752C10.9096 14.6409 10.9096 14.261 10.6753 14.0267L9.60391 12.9553L12.5981 12.9537C14.0335 12.953 15.1968 11.7891 15.1968 10.3537V7.70108C15.1968 7.3697 14.9281 7.10108 14.5968 7.10108C14.2654 7.10108 13.9968 7.3697 13.9968 7.70108V10.3537C13.9968 11.1266 13.3704 11.7533 12.5975 11.7537L9.60349 11.7553L10.6753 10.6835C10.9096 10.4492 10.9096 10.0693 10.6753 9.83495C10.441 9.60063 10.0611 9.60063 9.82677 9.83495L8.01375 11.648C7.62322 12.0385 7.62322 12.6717 8.01375 13.0622Z" fill="black"/>
</svg>
