<svg width="16" height="17" viewBox="0 0 16 17" fill="none" xmlns="http://www.w3.org/2000/svg">
<path d="M2.5999 2.88223C2.5999 2.55086 2.33127 2.28223 1.9999 2.28223C1.66853 2.28223 1.3999 2.55086 1.3999 2.88223V12.5996C1.3999 14.0356 2.56396 15.1996 3.9999 15.1996H13.9999C14.3313 15.1996 14.5999 14.931 14.5999 14.5996C14.5999 14.2683 14.3313 13.9996 13.9999 13.9996H3.9999C3.2267 13.9996 2.5999 13.3728 2.5999 12.5996V2.88223Z" fill="black"/>
<path d="M7.38398 12.3008C7.38398 12.6411 7.10819 12.9169 6.76796 12.9169C6.42774 12.9169 6.15195 12.6411 6.15195 12.3008C6.15195 11.9606 6.42774 11.6848 6.76796 11.6848C7.10819 11.6848 7.38398 11.9606 7.38398 12.3008Z" fill="black"/>
<path d="M5.12995 7.1393C5.58357 7.1393 5.95131 6.77155 5.95131 6.31794C5.95131 5.86432 5.58357 5.49658 5.12995 5.49658C4.67634 5.49658 4.30859 5.86432 4.30859 6.31794C4.30859 6.77155 4.67634 7.1393 5.12995 7.1393Z" fill="black"/>
<path d="M12.3802 3.85482C12.3802 4.42185 11.9206 4.88152 11.3535 4.88152C10.7865 4.88152 10.3268 4.42185 10.3268 3.85482C10.3268 3.28779 10.7865 2.82812 11.3535 2.82812C11.9206 2.82812 12.3802 3.28779 12.3802 3.85482Z" fill="black"/>
<path d="M9.89214 8.52476C10.2324 8.52476 10.5082 8.24897 10.5082 7.90874C10.5082 7.56852 10.2324 7.29272 9.89214 7.29272C9.55191 7.29272 9.27612 7.56852 9.27612 7.90874C9.27612 8.24897 9.55191 8.52476 9.89214 8.52476Z" fill="black"/>
<path d="M14.493 4.62904C14.5502 4.30265 14.3321 3.99165 14.0057 3.93441C13.6793 3.87717 13.3683 4.09536 13.311 4.42175C12.6989 7.91235 12.2835 9.74834 11.8467 10.7174C11.6353 11.1863 11.451 11.3753 11.3035 11.4657C11.1551 11.5566 10.9585 11.6014 10.5951 11.6014C10.2607 11.6014 10.0669 11.4749 9.89485 11.2423C9.6908 10.9665 9.54629 10.577 9.3662 10.0725L9.3514 10.031C9.19033 9.5793 8.99306 9.02613 8.67293 8.59276C8.31092 8.1027 7.78029 7.74701 7.00933 7.74701C5.9216 7.74701 5.28499 8.56651 4.88688 9.35918C4.57939 9.97142 4.33623 10.7269 4.11597 11.4113C4.04907 11.6191 3.98428 11.8204 3.92044 12.0091C3.81426 12.323 3.98265 12.6636 4.29655 12.7698C4.61045 12.8759 4.95099 12.7075 5.05717 12.3936C5.13535 12.1625 5.20931 11.9331 5.28188 11.708C5.49564 11.0449 5.69734 10.4192 5.95924 9.89775C6.31282 9.19372 6.64525 8.94701 7.00933 8.94701C7.34259 8.94701 7.53587 9.07312 7.70772 9.30575C7.91156 9.58171 8.0559 9.97125 8.23605 10.4759L8.25038 10.5161C8.4116 10.9681 8.60914 11.522 8.93009 11.9559C9.2926 12.446 9.82375 12.8014 10.5951 12.8014C11.0332 12.8014 11.4987 12.7535 11.9306 12.4888C12.3635 12.2235 12.6777 11.7938 12.9406 11.2106C13.4524 10.0754 13.8889 8.07337 14.493 4.62904Z" fill="black"/>
</svg>
