<svg width="16" height="16" viewBox="0 0 16 16" fill="none" xmlns="http://www.w3.org/2000/svg">
<path d="M3.80068 2.57257L7.27955 2.57256C7.61092 2.57256 7.87954 2.30393 7.87954 1.97256C7.87954 1.64119 7.61091 1.37256 7.27954 1.37256L3.80068 1.37257C2.36473 1.37257 1.20067 2.53665 1.20068 3.97259L1.20074 12.3001C1.20075 13.736 2.36481 14.9 3.80074 14.9H12.1282C13.5641 14.9 14.7282 13.736 14.7282 12.3V8.82116C14.7282 8.48979 14.4595 8.22116 14.1282 8.22116C13.7968 8.22116 13.5282 8.48979 13.5282 8.82116V12.3C13.5282 13.0732 12.9014 13.7 12.1282 13.7H3.80074C3.02754 13.7 2.40074 13.0732 2.40074 12.3001L2.40068 3.97258C2.40068 3.19938 3.02748 2.57257 3.80068 2.57257Z" fill="black"/>
<path fill-rule="evenodd" clip-rule="evenodd" d="M14.0072 2.0955C13.0997 1.18757 11.6278 1.18794 10.7207 2.09632L6.17749 6.646C6.10294 6.72065 6.04543 6.81056 6.00889 6.90954L4.59817 10.7315C4.51713 10.951 4.57116 11.1977 4.73657 11.3633C4.90198 11.5288 5.14858 11.5831 5.36823 11.5023L9.20237 10.0916C9.30186 10.055 9.3922 9.99722 9.46714 9.92224L14.0073 5.37972C14.9139 4.47266 14.9138 3.00252 14.0072 2.0955ZM11.5698 2.94424C12.0083 2.50513 12.7198 2.50496 13.1585 2.94384C13.5968 3.38229 13.5968 4.09294 13.1585 4.53141L8.69127 9.00102L6.1742 9.92713L7.09912 7.42132L11.5698 2.94424Z" fill="black"/>
</svg>
