<svg width="16" height="16" viewBox="0 0 16 16" fill="none" xmlns="http://www.w3.org/2000/svg">
<path d="M6.7937 8.6977Q6.7937 9.5729 6.7228 9.9277Q6.6045 10.8264 5.7057 11.3704Q4.8543 11.8908 3.577 12.0327H3.4115Q2.6783 12.0327 2.2052 11.3468Q1.7795 10.7555 1.7795 9.9277Q1.7795 9.5965 1.945 8.887Q2.1343 8.0828 2.3944 7.8226Q2.4417 7.7517 2.5127 7.7517Q2.6546 7.7517 2.6546 7.9172Q2.6546 7.9882 2.489 8.4139Q2.3235 8.8397 2.3235 9.0762Q2.3235 9.904 2.7256 10.2588Q3.1277 10.6136 3.9791 10.6136Q4.9016 10.6136 5.6111 10.1878Q6.4863 9.6911 6.4153 8.8397Q6.2261 8.1774 5.8713 6.4271Q5.4456 4.2038 5.1617 3.0449Q4.9489 2.6191 4.807 2.4536Q4.9489 2.1934 5.0198 1.8859Q5.1617 1.2 5.28 1.2Q5.351 1.2 5.4456 1.4602Q5.5638 1.744 5.6821 1.8623Q6.1078 2.217 6.1551 2.288Q6.1551 2.3353 6.1788 2.3826Q6.2261 2.6191 5.9186 3.2577Q6.2024 4.535 6.4863 6.4271Q6.6991 7.8463 6.7937 8.6977ZM11.3586 8.9816Q11.3823 9.6911 11.0748 10.3061Q10.8856 10.7082 10.0577 10.7082Q9.3009 10.7082 8.8751 9.9277Q8.5677 9.4073 8.4021 7.8226Q8.1656 5.8122 7.9054 4.0146Q7.7398 3.0922 7.6452 2.6428L7.7871 1.9332Q7.8581 1.4602 7.929 1.4602Q7.9763 1.4602 8 1.5784Q8.2365 2.2407 8.4257 3.8963Q8.7096 6.167 8.8042 6.6637Q9.0643 8.5795 9.2299 8.9106Q9.3245 9.1235 9.5729 9.3127Q9.8212 9.5019 10.0577 9.5019Q10.72 9.5019 10.791 9.1471Q10.7437 8.9816 10.4835 8.6268Q10.2706 8.2957 10.247 8.0355L10.3889 7.657Q10.4598 7.4442 10.5781 7.2077Q10.6017 7.184 10.6254 7.184Q10.8383 7.184 11.0275 7.6334Q11.335 8.272 11.3586 8.9816ZM14.2205 10.7318Q14.2205 12.2219 13.511 13.3099Q13.1325 13.8776 12.2574 14.6108Q11.9736 14.8 11.4532 14.8Q10.9329 14.8 9.3245 14.4689Q9.2536 14.4689 9.1471 14.3624Q9.0407 14.256 9.0407 14.2087Q9.0643 14.185 9.0643 14.185L9.088 14.1614Q9.703 14.1141 10.0577 14.1141Q10.72 14.0904 11.0038 13.9722Q13.1089 13.1917 13.7475 11.2995Q13.6765 11.1339 13.2035 10.3061Q12.825 9.6438 12.825 9.3363Q12.825 9.289 12.9197 9.1471Q12.9433 9.1235 13.0379 8.7923Q13.1089 8.5558 13.1798 8.5558Q13.4637 8.5558 13.8657 9.3363Q14.2205 10.0459 14.2205 10.377V10.7318ZM10.6017 12.1273Q10.6254 12.1983 10.4243 12.6122Q10.2233 13.0261 10.105 13.0261Q9.9631 13.0261 9.6793 12.7777Q9.3955 12.5294 9.3245 12.3638Q9.632 11.536 9.7976 11.465Q9.8685 11.465 10.1997 11.7607Q10.5308 12.0563 10.6017 12.1273ZM9.1353 12.4584Q9.159 12.6003 8.9579 12.967Q8.7569 13.3336 8.6386 13.3336Q8.4967 13.3336 8.201 13.097Q7.9054 12.8605 7.9054 12.7423Q7.8344 12.553 8.3075 11.8198Q8.6386 11.9617 9.1353 12.4584Z" fill="black"/>
</svg>
