<svg width="16" height="16" viewBox="0 0 16 16" fill="none" xmlns="http://www.w3.org/2000/svg">
<path d="M11.9445 1.55649C12.2184 1.744 12.2895 2.11755 12.1033 2.39085L9.24342 6.58659H12.8001C13.1315 6.58659 13.4001 6.85522 13.4001 7.18659C13.4001 7.51796 13.1315 7.78659 12.8001 7.78659H8.5999V9.91276H13.2221C13.5534 9.91276 13.8221 10.1814 13.8221 10.5128C13.8221 10.8441 13.5534 11.1128 13.2221 11.1128H8.5999V14.0877C8.5999 14.4191 8.33127 14.6877 7.9999 14.6877C7.66853 14.6877 7.3999 14.4191 7.3999 14.0877V11.1128H2.77773C2.44636 11.1128 2.17773 10.8441 2.17773 10.5128C2.17773 10.1814 2.44636 9.91276 2.77773 9.91276H7.3999V7.78659H3.2001C2.86873 7.78659 2.6001 7.51796 2.6001 7.18659C2.6001 6.85522 2.86873 6.58659 3.2001 6.58659H6.75736L3.89753 2.39085C3.71125 2.11755 3.78234 1.744 4.05631 1.55649C4.33029 1.36899 4.7034 1.43854 4.88968 1.71184L7.94595 6.19577C7.96752 6.22741 7.98564 6.2604 8.00039 6.29429C8.01514 6.2604 8.03326 6.22741 8.05483 6.19577L11.1111 1.71184C11.2974 1.43854 11.6705 1.36899 11.9445 1.55649Z" fill="black"/>
</svg>
