<svg width="16" height="16" viewBox="0 0 16 16" fill="none" xmlns="http://www.w3.org/2000/svg">
<path d="M8.5953 11.0279H7.1987Q5.9451 9.0475 5.6418 8.5953Q5.3384 8.1431 5.0035 7.8197Q4.6687 7.4963 4.3739 7.4104Q4.0791 7.3246 3.5926 7.3246H2.3104V11.0279H1.2V2.6367H4.9148Q5.6761 2.6367 6.1912 2.734Q6.7064 2.8313 7.0956 3.1433Q7.4848 3.4552 7.6938 3.9303Q7.9027 4.4054 7.9027 4.932Q7.9027 5.8822 7.3017 6.4603Q6.7007 7.0384 5.5502 7.1929V7.2158Q6.3916 7.5879 7.13 8.7441L8.5953 11.0279ZM2.3104 6.3286H4.6916Q5.4128 6.3286 5.8335 6.2056Q6.2542 6.0825 6.5061 5.7276Q6.7579 5.3727 6.7579 4.932Q6.7579 4.3596 6.3401 3.9589Q5.9222 3.5582 4.9606 3.5582H2.3104V6.3286ZM10.4842 5.7391Q11.0623 4.8175 12.2185 4.8175Q13.4148 4.8175 14.1074 5.6847Q14.8 6.5519 14.8 7.9428Q14.8 9.4253 14.033 10.2981Q13.266 11.171 12.1498 11.171Q11.171 11.171 10.5815 10.3926H10.5529V13.3633H9.5226V4.9549H10.4613V5.7391H10.4842ZM12.0811 10.3239Q12.8024 10.3239 13.2746 9.7258Q13.7468 9.1276 13.7468 7.9428Q13.7468 6.8266 13.2918 6.2256Q12.8367 5.6246 12.1269 5.6246Q11.3943 5.6246 10.9221 6.2943Q10.4498 6.964 10.4498 8.0286Q10.4498 9.1562 10.902 9.7401Q11.3542 10.3239 12.0811 10.3239Z" fill="black"/>
</svg>
