<svg width="20" height="20" viewBox="0 0 20 20" fill="none" xmlns="http://www.w3.org/2000/svg">
<path d="M4 17.6522L3.99481 17.7895C3.94367 18.4696 3.51757 19 3 19C2.48243 19 2.05633 18.4696 2.00519 17.7895L2 17.6522V2.34916C2 1.60438 2.44797 1 3 1C3.55203 1 4 1.60438 4 2.34916V17.6522Z" fill="black"/>
<path d="M18 17.6522L17.9948 17.7895C17.9437 18.4696 17.5176 19 17 19C16.4824 19 16.0563 18.4696 16.0052 17.7895L16 17.6522V2.34916C16 1.60438 16.448 1 17 1C17.552 1 18 1.60438 18 2.34916V17.6522Z" fill="black"/>
<path d="M2.12012 7.45312H4C4.70517 7.45313 5.06184 7.42557 5.34375 7.38086C5.64789 7.3326 5.91281 7.25895 6.51953 7.09863C6.93614 6.98855 7.28247 6.84852 7.69531 6.65723C8.08161 6.47822 8.6488 6.19353 9.27734 5.93164C9.82013 5.70547 10.1869 5.51379 10.7246 5.26465C11.2357 5.02783 11.8041 4.78766 12.5195 4.59863C13.7881 4.26345 14.8181 4.12012 16 4.12012H17.8799V12.5469H16C15.1819 12.5469 14.4762 12.6383 13.4805 12.9014C13.0639 13.0114 12.7175 13.1515 12.3047 13.3428C11.9184 13.5218 11.3512 13.8065 10.7227 14.0684C10.1799 14.2945 9.81307 14.4862 9.27539 14.7354C8.76428 14.9722 8.19585 15.2123 7.48047 15.4014C6.21191 15.7366 5.1819 15.8799 4 15.8799H2.12012V7.45312ZM4 14C5 14 5.86782 13.8822 7 13.583C7.99062 13.3212 8.64746 12.9343 9.58105 12.5146L10.4189 12.1514C11.3524 11.7317 12.0094 11.3447 13 11.083C13.9908 10.8212 14.7792 10.6984 15.6309 10.6719L16 10.667V6C15 6 14.1322 6.11784 13 6.41699L12.5938 6.53613C11.8158 6.78953 11.2191 7.12567 10.4189 7.48535L9.58105 7.84863C8.64757 8.26827 7.99058 8.65525 7 8.91699L6.26465 9.1084C5.61325 9.26765 5.125 9.33301 4 9.33301V14Z" fill="black"/>
<path d="M3 4.5C3 4.5 5.32843 4.51184 6.5 5C7.67157 5.48816 9 7 9 7" stroke="black" stroke-width="1.88"/>
<path d="M17 15.5C17 15.5 14.6716 15.4882 13.5 15C12.3284 14.5118 11 13 11 13" stroke="black" stroke-width="1.88"/>
</svg>
