<svg width="20" height="20" viewBox="0 0 20 20" fill="none" xmlns="http://www.w3.org/2000/svg">
<g transform="scale(0.833333)">
<path fill="black" fill-rule="evenodd" d="M6.1 4.6c0-1.447 1.248-2.5 2.633-2.5h9.534c1.385 0 2.633 1.053 2.633 2.5v4.8c0 1.447-1.248 2.5-2.633 2.5H18v.1a2 2 0 0 1-2 2h-3.7v1.5h-1.8V14H6a2 2 0 0 1-2-2V7a2 2 0 0 1 2-2h.1zm12.167 5.5H18V7a2 2 0 0 0-2-2H7.9v-.4c0-.32.304-.7.833-.7h9.534c.53 0 .833.38.833.7v4.8c0 .32-.304.7-.833.7M16 6.8H6a.2.2 0 0 0-.2.2v5c0 .11.09.2.2.2h10a.2.2 0 0 0 .2-.2V7a.2.2 0 0 0-.2-.2" clip-rule="evenodd"/>
<path fill="black" d="M10.5 17v1.5h1.8V17zM10.5 20v1.5a.9.9 0 1 0 1.8 0V20z"/>
</g>
</svg>
