<svg width="20" height="20" viewBox="0 0 20 20" fill="none" xmlns="http://www.w3.org/2000/svg">
<path d="M12.1543 1.00391C13.7394 1.08421 15 2.39489 15 4V5.30762C14.5832 5.14723 14.149 5.02276 13.7002 4.93848V4C13.7002 3.06112 12.9389 2.2998 12 2.2998H4C3.06112 2.2998 2.2998 3.06112 2.2998 4V12C2.2998 12.9389 3.06112 13.7002 4 13.7002H4.93848C5.02276 14.149 5.14723 14.5832 5.30762 15H4C2.39489 15 1.08421 13.7394 1.00391 12.1543L1 12V4C1 2.34315 2.34315 1 4 1H12L12.1543 1.00391Z" fill="black"/>
<circle cx="12.5" cy="12.5" r="5.85" stroke="black" stroke-width="1.3"/>
</svg>
