<svg width="20" height="20" viewBox="0 0 20 20" fill="none" xmlns="http://www.w3.org/2000/svg">
<path d="M3.12718 4.5414L3.03862 4.4455C2.61794 3.95249 2.56295 3.29491 2.92893 2.92893C3.29491 2.56296 3.95249 2.61794 4.4455 3.03863L4.5414 3.12718L16.1648 14.7506C16.6651 15.2509 16.7543 15.9736 16.364 16.364C15.9736 16.7543 15.2509 16.6651 14.7506 16.1648L3.12718 4.5414Z" fill="black"/>
<path d="M17.0539 16.6384C17.0632 16.8716 16.8716 17.0632 16.6384 17.0539L12.8833 16.9051C12.5348 16.8913 12.3696 16.4692 12.6163 16.2226L16.2226 12.6163C16.4692 12.3696 16.8913 12.5348 16.9051 12.8833L17.0539 16.6384Z" fill="black"/>
</svg>
