<svg width="20" height="20" viewBox="0 0 20 20" fill="none" xmlns="http://www.w3.org/2000/svg">
<circle cx="10" cy="10" r="8.2" fill="none" stroke="black" stroke-width="1.6"/>
<path d="M7.2857 6.0029L7.5253 6.2425L7.5774 6.2946L7.6296 6.3468L7.6817 6.3989L7.7339 6.4511L7.7861 6.5033L7.8382 6.5554L7.8904 6.6075L7.9425 6.6597L7.9947 6.7119L8.0468 6.764L8.099 6.8162L8.1511 6.8683L8.2033 6.9205L8.2554 6.9726L8.3076 7.0248L8.3597 7.0769L8.4119 7.1291L8.4641 7.1812L8.5162 7.2334L8.5684 7.2855L8.6205 7.3377L8.7248 7.442L8.777 7.4942L8.8291 7.5463L8.8813 7.5985L8.9334 7.6506L9.0377 7.7549L9.0899 7.8071L9.1421 7.8592L9.1942 7.9114L9.2464 7.9635L9.2985 8.0157L9.3507 8.0678L9.4028 8.12L9.455 8.1722L9.5071 8.2243L9.5593 8.2765L9.6114 8.3286L9.6636 8.3808L9.7157 8.4329L9.7679 8.4851L9.82 8.5372L9.8722 8.5894L9.9243 8.6415L9.9765 8.6937L10.0287 8.7458L10.0808 8.798L10.133 8.8501L10.1851 8.9023L10.2373 8.9544L10.2894 9.0066L10.3416 9.0588L10.3937 9.1109L10.4459 9.1631L10.498 9.2152L10.5502 9.2674L10.6024 9.3195L10.6545 9.3717L10.7066 9.4238L10.7588 9.476L10.811 9.5281L10.8631 9.5803L10.9153 9.6324L10.9674 9.6846L11.0196 9.7368L11.0717 9.7889L11.1239 9.841L11.176 9.8932L11.2282 9.9454L11.2803 9.9975L11.3325 10.0497L11.3846 10.1018L11.4368 10.154L11.489 10.2061L11.5411 10.2583L11.5933 10.3104L11.6454 10.3626L11.6976 10.4147L11.7497 10.4669L11.8019 10.5191L11.854 10.5712L11.9062 10.6234L11.9583 10.6755L12.0105 10.7277L12.0627 10.7798L12.1148 10.832L12.1669 10.8841L12.2191 10.9363L12.2713 10.9884L12.3234 11.0406L12.3756 11.0927L12.4277 11.1449L12.4799 11.197L12.532 11.2492L12.5842 11.3014L12.6363 11.3535L13.3143 12.0315L13.3665 12.0836L13.4186 12.1358L13.4708 12.1879L13.523 12.2401L13.5751 12.2923L13.6272 12.3444L13.6794 12.3966L13.7316 12.4487L13.7837 12.5009L13.8359 12.553L13.888 12.6052L13.9402 12.6573L13.9923 12.7095L14.0445 12.7616L14.0966 12.8138L14.4203 13.1374L14.4293 13.1278L14.4756 13.0768L14.5201 13.0245L14.5645 12.9705L14.6079 12.9159L14.6502 12.8606L14.6915 12.8047L14.7317 12.7482L14.7709 12.6911L14.8091 12.6334L14.8462 12.5751L14.8823 12.5162L14.9174 12.4568L14.9515 12.3968L14.9846 12.3363L15.0167 12.2753L15.0477 12.2138L15.0778 12.1517L15.1068 12.0892L15.1349 12.0263L15.1619 11.9628L15.188 11.8989L15.2131 11.8346L15.2372 11.7698L15.2603 11.7046L15.2824 11.6391L15.3035 11.5731L15.3236 11.5068L15.3428 11.4401L15.361 11.3731L15.3782 11.3057L15.3945 11.238L15.4097 11.17L15.424 11.1017L15.4374 11.0332L15.4498 10.9643L15.4612 10.8952L15.4716 10.8259L15.4812 10.7564L15.4897 10.6866L15.4973 10.6166L15.504 10.5465L15.5097 10.4761L15.5144 10.4057L15.5182 10.335L15.5211 10.2643L15.5231 10.1934L15.5241 10.1224L15.5242 10.0513L15.5233 9.9802L15.5216 9.909L15.5189 9.8377L15.5152 9.7664L15.5107 9.6951L15.5052 9.6238L15.4989 9.5525L15.4916 9.4812L15.4834 9.41L15.4743 9.3387L15.4643 9.2676L15.4534 9.1965L15.4417 9.1256L15.429 9.0547L15.4154 8.984L15.401 8.9134L15.3856 8.8429L15.3694 8.7726L15.3523 8.7025L15.3343 8.6325L15.3155 8.5628L15.2958 8.4932L15.2752 8.424L15.2538 8.3549L15.2315 8.2861L15.2083 8.2176L15.1843 8.1494L15.1595 8.0815L15.1338 8.0139L15.1072 7.9466L15.0798 7.8796L15.0516 7.8131L15.0226 7.7468L14.9927 7.681L14.962 7.6156L14.9305 7.5505L14.8981 7.486L14.865 7.4218L14.831 7.3581L14.7962 7.2949L14.7606 7.2321L14.7243 7.1698L14.6871 7.108L14.6491 7.0468L14.6104 6.9861L14.5708 6.9259L14.5305 6.8663L14.4894 6.8073L14.4475 6.7488L14.4048 6.691L14.3614 6.6338L14.3172 6.5772L14.2723 6.5212L14.2266 6.4659L14.1801 6.4112L14.1329 6.3573L14.0849 6.304L14.0362 6.2514L13.9868 6.1996L13.9366 6.1485L13.8838 6.0963L13.8301 6.0448L13.7759 5.9943L13.7211 5.9448L13.6656 5.8963L13.6097 5.8488L13.5532 5.8023L13.4962 5.7568L13.4386 5.7123L13.3805 5.6687L13.322 5.6262L13.263 5.5847L13.2034 5.5442L13.1434 5.5046L13.083 5.4661L13.0221 5.4285L12.9608 5.3919L12.8991 5.3564L12.8369 5.3218L12.7744 5.2882L12.7115 5.2556L12.6482 5.224L12.5845 5.1933L12.5205 5.1637L12.4561 5.1351L12.3914 5.1074L12.3264 5.0808L12.2611 5.0551L12.1955 5.0304L12.1296 5.0068L12.0634 4.9841L11.997 4.9624L11.9303 4.9417L11.8634 4.9219L11.7963 4.9032L11.7289 4.8855L11.6614 4.8687L11.5936 4.853L11.5257 4.8382L11.4576 4.8244L11.3894 4.8116L11.321 4.7999L11.2524 4.7891L11.1838 4.7793L11.115 4.7704L11.0462 4.7626L10.9772 4.7558L10.9082 4.7499L10.8391 4.7451L10.77 4.7412L10.7008 4.7384L10.6316 4.7365L10.5624 4.7356L10.4932 4.7357L10.4239 4.7368L10.3547 4.7389L10.2856 4.742L10.2165 4.7461L10.1474 4.7512L10.0784 4.7572L10.0094 4.7643L9.9406 4.7723L9.8719 4.7814L9.8033 4.7914L9.7348 4.8024L9.6664 4.8144L9.5982 4.8274L9.5301 4.8414L9.4622 4.8564L9.3945 4.8724L9.327 4.8893L9.2597 4.9073L9.1926 4.9262L9.1258 4.9462L9.0591 4.9671L8.9928 4.989L8.9267 5.0119L8.8608 5.0359L8.7953 5.0607L8.7301 5.0866L8.6651 5.1135L8.6005 5.1414L8.5362 5.1702L8.4723 5.2001L8.4087 5.2309L8.3455 5.2628L8.2826 5.2956L8.2202 5.3294L8.1581 5.3642L8.0965 5.4L8.0352 5.4368L7.9744 5.4746L7.9141 5.5133L7.8542 5.5531L7.7948 5.5939L7.7359 5.6356L7.6774 5.6784L7.6195 5.7221L7.562 5.7668L7.5051 5.8126L7.4487 5.8593L7.3929 5.907L7.3376 5.9557ZM13.1968 6.9649L13.241 7.0115L13.2845 7.0587L13.3273 7.1068L13.3693 7.1556L13.4106 7.2051L13.4512 7.2554L13.491 7.3063L13.53 7.358L13.5683 7.4102L13.6059 7.4632L13.6426 7.5168L13.6786 7.571L13.7139 7.6258L13.7483 7.6812L13.7819 7.7372L13.8148 7.7937L13.8469 7.8508L13.8781 7.9083L13.9086 7.9665L13.9382 8.0251L13.9671 8.0842L13.9951 8.1437L14.0222 8.2037L14.0486 8.2641L14.0741 8.325L14.0987 8.3863L14.1225 8.4479L14.1455 8.5099L14.1676 8.5723L14.1888 8.6351L14.2092 8.6981L14.2287 8.7615L14.2473 8.8252L14.265 8.8891L14.2818 8.9534L14.2977 9.0179L14.3127 9.0826L14.3268 9.1476L14.34 9.2127L14.3523 9.2781L14.3636 9.3436L14.374 9.4093L14.3834 9.4752L14.3919 9.5412L14.3994 9.6073L14.406 9.6735L14.4116 9.7398L14.4163 9.8066L14.42 9.8755L14.4226 9.944L14.4242 10.0122L14.4246 10.0801L14.424 10.1476L14.4223 10.2148L14.4196 10.2815L14.4158 10.3479L14.411 10.4139L14.4051 10.4795L14.3981 10.5447L14.3902 10.6094L14.3812 10.6738L14.3713 10.7376L14.3603 10.801L14.3483 10.8639L14.3354 10.9264L14.3181 11.0029L14.1801 11.3416L13.8784 11.0399L13.834 10.9956L13.7897 10.9512L13.5235 10.685L13.4791 10.6406L13.4347 10.5963L13.3904 10.5519L13.346 10.5076L13.3016 10.4632L13.2573 10.4188L13.2129 10.3745L13.1685 10.3301L13.1242 10.2857L13.0798 10.2414L13.0354 10.197L12.9911 10.1526L12.9467 10.1083L12.9023 10.0639L12.858 10.0195L12.8136 9.9752L12.7692 9.9308L12.7249 9.8864L12.6805 9.8421L12.6361 9.7977L12.5918 9.7533L12.5474 9.709L12.503 9.6646L12.4587 9.6202L12.4143 9.5759L12.3699 9.5315L12.3256 9.4871L12.2812 9.4428L12.2368 9.3984L12.1925 9.354L12.1481 9.3097L12.1038 9.2653L12.0594 9.2209L12.015 9.1766L11.9707 9.1322L11.9263 9.0878L11.8819 9.0435L11.8376 8.9991L11.3051 8.4667L11.2608 8.4223L11.2164 8.378L11.172 8.3336L11.1277 8.2892L11.0833 8.2449L11.0389 8.2005L10.9946 8.1561L10.9502 8.1118L10.9058 8.0674L10.8615 8.023L10.8171 7.9787L10.7727 7.9343L10.7284 7.8899L10.684 7.8456L10.6397 7.8012L10.5953 7.7568L10.5509 7.7125L10.5066 7.6681L10.4622 7.6237L10.4178 7.5794L10.3735 7.535L10.3291 7.4906L10.2847 7.4463L10.2404 7.4019L10.196 7.3575L10.1516 7.3132L10.1072 7.2688L10.0629 7.2244L10.0185 7.1801L9.9741 7.1357L9.9298 7.0913L9.8854 7.047L9.841 7.0026L9.7967 6.9582L9.7523 6.9139L9.7079 6.8695L9.6636 6.8251L9.6192 6.7808L9.4861 6.6477L9.4417 6.6033L9.3974 6.5589L9.353 6.5146L9.3086 6.4702L9.2643 6.4258L9.0075 6.169L9.3453 6.0305L9.4131 6.0083L9.476 5.9889L9.5391 5.9707L9.6025 5.9537L9.6662 5.9378L9.73 5.923L9.794 5.9094L9.8583 5.8969L9.9227 5.8856L9.9872 5.8754L10.0519 5.8664L10.1167 5.8585L10.1816 5.8517L10.2466 5.8461L10.3117 5.8416L10.3768 5.8383L10.4419 5.8361L10.5071 5.835L10.5723 5.8351L10.6375 5.8364L10.7026 5.8387L10.7678 5.8423L10.8328 5.8469L10.8978 5.8527L10.9627 5.8597L11.0275 5.8678L11.0921 5.877L11.1567 5.8874L11.221 5.8989L11.2852 5.9115L11.3493 5.9253L11.4131 5.9403L11.4767 5.9563L11.5401 5.9736L11.6032 5.9919L11.666 6.0114L11.7286 6.0321L11.7908 6.0539L11.8528 6.0768L11.9144 6.1009L11.9756 6.1261L12.0366 6.1525L12.0971 6.18L12.1572 6.2087L12.2169 6.2385L12.2761 6.2694L12.335 6.3015L12.3933 6.3347L12.4512 6.369L12.5086 6.4045L12.5654 6.4412L12.6217 6.4789L12.6775 6.5179L12.7327 6.5579L12.7873 6.5991L12.8413 6.6415L12.8947 6.6849L12.9475 6.7295L12.9996 6.7753L13.051 6.8221L13.1018 6.8701L13.1518 6.9192ZM6.0029 7.2148L5.9745 7.2457L5.9259 7.3002L5.8782 7.3553L5.8315 7.411L5.7858 7.4671L5.7411 7.5238L5.6973 7.581L5.6545 7.6387L5.6127 7.6969L5.5719 7.7555L5.532 7.8146L5.4931 7.8742L5.4552 7.9342L5.4183 7.9947L5.3823 8.0555L5.3473 8.1168L5.3133 8.1785L5.2803 8.2405L5.2482 8.303L5.2171 8.3657L5.187 8.4289L5.1578 8.4924L5.1296 8.5562L5.1024 8.6204L5.0762 8.6848L5.0509 8.7496L5.0267 8.8147L5.0033 8.88L4.981 8.9456L4.9596 9.0114L4.9392 9.0775L4.9198 9.1438L4.9013 9.2104L4.8839 9.2771L4.8674 9.344L4.8518 9.4112L4.8373 9.4785L4.8237 9.546L4.8111 9.6136L4.7994 9.6814L4.7887 9.7493L4.7791 9.8173L4.7703 9.8854L4.7626 9.9536L4.7558 10.0219L4.75 10.0903L4.7452 10.1588L4.7413 10.2273L4.7384 10.2958L4.7365 10.3644L4.7356 10.433L4.7356 10.5015L4.7366 10.5701L4.7386 10.6387L4.7416 10.7072L4.7455 10.7757L4.7504 10.8441L4.7563 10.9125L4.7632 10.9808L4.771 11.049L4.7798 11.1171L4.7896 11.1852L4.8003 11.253L4.812 11.3208L4.8247 11.3884L4.8384 11.4559L4.853 11.5232L4.8687 11.5903L4.8852 11.6572L4.9028 11.724L4.9213 11.7905L4.9408 11.8568L4.9613 11.9229L4.9828 11.9887L5.0052 12.0542L5.0286 12.1196L5.0529 12.1846L5.0783 12.2493L5.1046 12.3137L5.1319 12.3779L5.1601 12.4417L5.1894 12.5051L5.2196 12.5683L5.2508 12.631L5.2829 12.6934L5.316 12.7555L5.3501 12.8171L5.3852 12.8783L5.4212 12.9392L5.4582 12.9996L5.4962 13.0596L5.5352 13.1191L5.5751 13.1782L5.616 13.2368L5.6579 13.2949L5.7008 13.3526L5.7446 13.4097L5.7895 13.4664L5.8353 13.5225L5.882 13.5781L5.9298 13.6331L5.9785 13.6876L6.0282 13.7416L6.0789 13.7949L6.1306 13.8477L6.1819 13.8986L6.2336 13.9484L6.286 13.9975L6.3391 14.0457L6.3928 14.0931L6.4471 14.1397L6.5021 14.1855L6.5577 14.2305L6.6139 14.2746L6.6707 14.318L6.728 14.3606L6.7859 14.4023L6.8444 14.4432L6.9034 14.4833L6.9629 14.5226L7.023 14.561L7.0835 14.5986L7.1446 14.6354L7.2061 14.6713L7.2681 14.7064L7.3305 14.7407L7.3934 14.7741L7.4567 14.8067L7.5204 14.8384L7.5845 14.8693L7.649 14.8993L7.7139 14.9285L7.7791 14.9568L7.8447 14.9842L7.9106 15.0108L7.9769 15.0365L8.0434 15.0614L8.1103 15.0854L8.1774 15.1085L8.2449 15.1307L8.3125 15.1521L8.3804 15.1726L8.4486 15.1922L8.517 15.2109L8.5855 15.2287L8.6543 15.2456L8.7233 15.2617L8.7924 15.2768L8.8617 15.2911L8.9311 15.3044L9.0007 15.3169L9.0703 15.3285L9.1401 15.3391L9.2099 15.3489L9.2799 15.3577L9.3499 15.3656L9.4199 15.3726L9.49 15.3787L9.5601 15.3839L9.6303 15.3882L9.7004 15.3915L9.7705 15.394L9.8405 15.3955L9.9106 15.396L9.9806 15.3957L10.0505 15.3944L10.1203 15.3922L10.1901 15.389L10.2597 15.3849L10.3292 15.3799L10.3986 15.374L10.4679 15.3671L10.5369 15.3592L10.6058 15.3504L10.6746 15.3407L10.7431 15.33L10.8115 15.3184L10.8796 15.3058L10.9474 15.2923L11.0151 15.2778L11.0824 15.2624L11.1495 15.246L11.2164 15.2286L11.2829 15.2103L11.3491 15.191L11.415 15.1708L11.4805 15.1496L11.5458 15.1274L11.6106 15.1043L11.6751 15.0802L11.7392 15.0551L11.8029 15.029L11.8663 15.002L11.9292 14.974L11.9916 14.945L12.0537 14.915L12.1152 14.8841L12.1763 14.8522L12.237 14.8192L12.2971 14.7853L12.3567 14.7504L12.4159 14.7145L12.4745 14.6777L12.5326 14.6398L12.5901 14.6009L12.6471 14.561L12.7035 14.5201L12.7593 14.4782L12.8146 14.4354L12.8692 14.3914L12.9233 14.3465L12.9758 14.3013L13.0268 14.2548L13.0351 14.247L13.026 14.2378L12.9743 14.1861L12.9226 14.1345L12.8709 14.0828L12.8193 14.0311L12.6126 13.8244L12.5609 13.7728L12.5093 13.7211L12.4059 13.6178L12.3542 13.5661L12.3026 13.5144L12.2509 13.4627L12.1992 13.4111L12.1476 13.3594L12.0959 13.3077L11.9409 13.1527L11.8892 13.101L11.8375 13.0494L11.7342 12.946L11.6825 12.8944L11.6308 12.8427L11.4758 12.6877L11.4242 12.636L11.3725 12.5843L11.2692 12.481L11.2175 12.4293L11.1141 12.326L11.0625 12.2743L11.0108 12.2226L10.9591 12.171L10.9074 12.1193L10.8558 12.0676L10.8041 12.016L10.7524 11.9643L10.7008 11.9126L10.6491 11.8609L10.5457 11.7576L10.4941 11.7059L10.4424 11.6542L10.3907 11.6026L10.3391 11.5509L10.2874 11.4992L10.2357 11.4476L10.184 11.3959L10.0807 11.2925L10.029 11.2409L9.9774 11.1892L9.9257 11.1375L9.8223 11.0342L9.7707 10.9825L9.719 10.9308L9.564 10.7758L9.5123 10.7242L9.4606 10.6725L9.3573 10.5691L9.3056 10.5175L9.254 10.4658L9.2023 10.4141L9.1506 10.3625L9.099 10.3108L9.0473 10.2591L8.9956 10.2074L8.8923 10.1041L8.8406 10.0524L8.7889 10.0007L8.7373 9.9491L8.6856 9.8974L8.6339 9.8457L8.5822 9.7941L8.5306 9.7424L8.4272 9.6391L8.3756 9.5874L8.3239 9.5357L8.2722 9.4841L8.1689 9.3807L8.1172 9.329L8.0655 9.2774L8.0139 9.2257L7.9622 9.174L7.9105 9.1223L7.8589 9.0707L7.8072 9.019L7.7555 8.9673L7.7038 8.9157L7.6522 8.864L7.6005 8.8123L7.5488 8.7606L7.4971 8.709L7.4455 8.6573L7.3938 8.6056L7.3421 8.554L7.2905 8.5023L7.2388 8.4506L7.1871 8.3989L7.1354 8.3473L7.0321 8.2439L6.9804 8.1923L6.9288 8.1406L6.8771 8.0889L6.8254 8.0372L6.7737 7.9856L6.6187 7.8306L6.5671 7.7789L6.5154 7.7272L6.4637 7.6755L6.257 7.4689L6.2054 7.4172L6.1537 7.3655L6.102 7.3138L6.0503 7.2622ZM6.8701 13.0308L6.8222 12.9801L6.7754 12.9288L6.7298 12.8768L6.6852 12.8241L6.6418 12.7708L6.5996 12.7169L6.5584 12.6624L6.5184 12.6073L6.4796 12.5516L6.4418 12.4954L6.4052 12.4386L6.3698 12.3814L6.3354 12.3236L6.3022 12.2654L6.2702 12.2067L6.2393 12.1475L6.2095 12.0879L6.1809 12.0279L6.1534 11.9676L6.127 11.9068L6.1018 11.8456L6.0777 11.7841L6.0547 11.7223L6.0329 11.6601L6.0123 11.5977L5.9928 11.535L5.9744 11.472L5.9571 11.4087L5.941 11.3453L5.926 11.2816L5.9122 11.2177L5.8995 11.1536L5.8879 11.0893L5.8775 11.0249L5.8682 10.9603L5.8601 10.8957L5.8531 10.8309L5.8472 10.766L5.8425 10.7011L5.8389 10.6361L5.8365 10.5711L5.8351 10.506L5.835 10.4409L5.8359 10.3758L5.838 10.3108L5.8413 10.2458L5.8456 10.1808L5.8512 10.1159L5.8578 10.0511L5.8656 9.9864L5.8745 9.9218L5.8846 9.8574L5.8958 9.7931L5.9082 9.7289L5.9217 9.665L5.9363 9.6012L5.952 9.5377L5.969 9.4743L5.987 9.4113L6.0062 9.3485L6.0265 9.286L6.1464 8.9383L6.4177 9.1852L6.4653 9.2328L6.7311 9.4985L6.7754 9.5428L6.9525 9.72L6.9968 9.7643L7.0854 9.8529L7.1297 9.8972L7.174 9.9415L7.2183 9.9857L7.2626 10.03L7.5283 10.2958L7.5726 10.3401L7.6612 10.4287L7.7055 10.4729L7.7498 10.5172L7.7941 10.5615L7.8827 10.6501L7.927 10.6944L11.1029 13.8703L11.0518 14.1283L10.8713 14.1753L10.8103 14.1901L10.749 14.2039L10.6874 14.2167L10.6255 14.2285L10.5632 14.2394L10.5008 14.2492L10.438 14.2581L10.3751 14.266L10.3119 14.2729L10.2485 14.2789L10.185 14.2838L10.1213 14.2878L10.0574 14.2908L9.9934 14.2928L9.9292 14.2938L9.865 14.2938L9.8007 14.2929L9.7363 14.2909L9.6718 14.288L9.6073 14.2841L9.5427 14.2793L9.4782 14.2734L9.4137 14.2665L9.3491 14.2587L9.2846 14.2499L9.2202 14.2401L9.1558 14.2293L9.0915 14.2175L9.0273 14.2048L8.9633 14.191L8.8993 14.1763L8.8355 14.1606L8.7719 14.1438L8.7084 14.1261L8.6452 14.1074L8.5821 14.0877L8.5193 14.067L8.4567 14.0454L8.3944 14.0227L8.3323 13.999L8.2706 13.9743L8.2091 13.9487L8.148 13.922L8.0872 13.8943L8.0268 13.8657L7.9667 13.836L7.907 13.8053L7.8478 13.7736L7.789 13.741L7.7306 13.7073L7.6726 13.6726L7.6152 13.6369L7.5582 13.6002L7.5017 13.5624L7.4458 13.5237L7.3904 13.484L7.3356 13.4432L7.2813 13.4014L7.2277 13.3587L7.1746 13.3149L7.1222 13.2701L7.0704 13.2243L7.0193 13.1774L6.9689 13.1296L6.9191 13.0807Z" fill="black" fill-rule="evenodd"/>
</svg>
