<svg width="20" height="20" viewBox="0 0 20 20" fill="none" xmlns="http://www.w3.org/2000/svg">
<path d="M9.79785 3.00488C7.68264 3.11016 6 4.85865 6 7V10H5.92773L6 10.0938V15H3.12891L3.52246 8.70215C3.72276 5.49737 6.38081 3 9.5918 3C9.66075 3 9.72941 3.00259 9.79785 3.00488ZM9.5918 1C5.32466 1 1.79254 4.31832 1.52637 8.57715L1 17H8V7C8 5.89543 8.89543 5 10 5C11.1046 5 12 5.89543 12 7H14C14 5.39362 13.0526 4.00936 11.6865 3.37305C13.8423 4.1649 15.4397 6.1435 15.6494 8.55371L16.124 14H16.2969L15.2754 15.5576L14 13.9062V7H12V12H10L15.4072 19L20 12H17.957L17.6416 8.38086C17.2785 4.2052 13.7832 1.00018 9.5918 1Z" fill="black"/>
</svg>
