<svg width="20" height="20" viewBox="0 0 20 20" fill="none" xmlns="http://www.w3.org/2000/svg">
<path d="M16.9951 9.79785C16.8898 7.68264 15.1414 6 13 6H10V5.92773L9.90625 6H5V3.12891L11.2979 3.52246C14.5026 3.72276 17 6.38081 17 9.5918C17 9.66075 16.9974 9.72941 16.9951 9.79785ZM19 9.5918C19 5.32466 15.6817 1.79254 11.4229 1.52637L3 1V8H13C14.1046 8 15 8.89543 15 10C15 11.1046 14.1046 12 13 12V14C14.6064 14 15.9906 13.0526 16.627 11.6865C15.8351 13.8423 13.8565 15.4397 11.4463 15.6494L6 16.124V16.2969L4.44238 15.2754L6.09375 14H13V12H8V10L1 15.4072L8 20V17.957L11.6191 17.6416C15.7948 17.2785 18.9998 13.7832 19 9.5918Z" fill="black"/>
</svg>
