<svg width="20" height="20" viewBox="0 0 20 20" fill="none" xmlns="http://www.w3.org/2000/svg">
<path d="M7 1C7 4.3137 4.3137 7 1 7V1H7ZM2.6 5.0988A4.4 4.4 0 0 0 5.0988 2.6H2.6V5.0988Z" fill="black" fill-rule="evenodd"/>
<path d="M1 13C4.3137 13 7 15.6863 7 19H1V13ZM2.6 17.4H5.0988A4.4 4.4 0 0 0 2.6 14.9012V17.4Z" fill="black" fill-rule="evenodd"/>
<path d="M13 1C13 4.3137 15.6863 7 19 7V1H13ZM17.4 5.0988A4.4 4.4 0 0 1 14.9012 2.6H17.4V5.0988Z" fill="black" fill-rule="evenodd"/>
<path d="M19 13C15.6863 13 13 15.6863 13 19H19V13ZM17.4 17.4H14.9012A4.4 4.4 0 0 1 17.4 14.9012V17.4Z" fill="black" fill-rule="evenodd"/>
</svg>
