<svg width="20" height="20" viewBox="0 0 20 20" fill="none" xmlns="http://www.w3.org/2000/svg">
<path d="M4.2058 1.2L4.2002 1.2788L4.2002 11.7697L4.1247 12.2L1.6847 12.2L1.5482 12.2846L1.415 12.4934L1.2731 12.742L1.1444 12.9957L1.0289 13.254L0.9265 13.5163L0.8374 13.7823L0.7614 14.0513L0.6986 14.323L0.6489 14.5967L0.6125 14.8721L0.5892 15.1486L0.5791 15.4258L0.5821 15.703L0.5984 15.9799L0.6278 16.256L0.6704 16.5307L0.7261 16.8035L0.7951 17.074L0.8772 17.3417L0.9724 17.606L1.0809 17.8665L1.2025 18.1227L1.3374 18.3741L1.4854 18.6203L1.5959 18.785L1.7715 18.8L15.7265 18.8L15.8002 18.7921L15.8002 8.157L15.9622 7.8L17.7931 7.8L17.9321 7.7346L18.0514 7.5369L18.187 7.2861L18.3099 7.0305L18.4201 6.7705L18.5177 6.5066L18.6026 6.2391L18.6747 5.9687L18.7341 5.6956L18.7807 5.4205L18.8145 5.1438L18.8354 4.8659L18.8434 4.5873L18.8385 4.3084L18.8207 4.0298L18.7899 3.7519L18.7462 3.4752L18.6894 3.2L18.6195 2.927L18.5366 2.6565L18.4405 2.389L18.3313 2.125L18.2079 1.8627L18.0788 1.6044L17.9495 1.3458L17.8729 1.2ZM15.8216 2.8L16.0095 2.8L16.69 2.8L16.8955 2.8323L16.9678 3.0217L16.9978 3.1052L17.0261 3.1891L17.0526 3.2734L17.0773 3.3581L17.1003 3.4431L17.1216 3.5284L17.1412 3.614L17.159 3.6998L17.1751 3.7859L17.1895 3.8722L17.2021 3.9587L17.213 4.0453L17.2222 4.132L17.2297 4.2189L17.2354 4.3058L17.2394 4.3928L17.2417 4.4798L17.2423 4.5668L17.2412 4.6537L17.2384 4.7406L17.2338 4.8275L17.2276 4.9142L17.2196 5.0008L17.21 5.0872L17.1986 5.1735L17.1855 5.2595L17.1708 5.3454L17.1543 5.4309L17.1361 5.5162L17.1162 5.6011L17.0947 5.6857L17.0714 5.77L17.0465 5.8538L17.0199 5.9373L16.9754 6.0674L16.8287 6.2L16.0314 6.2L15.8002 6.2L9.9029 6.2L9.6376 6.1165L9.6972 5.8563L9.7142 5.7771L9.7302 5.6978L9.745 5.6183L9.7588 5.5386L9.7716 5.4588L9.7832 5.3789L9.7938 5.2988L9.8033 5.2186L9.8118 5.1384L9.8191 5.058L9.8254 4.9775L9.8306 4.897L9.8347 4.8164L9.8378 4.7357L9.8397 4.655L9.8406 4.5743L9.8404 4.4936L9.8391 4.4128L9.8367 4.3321L9.8333 4.2514L9.8287 4.1707L9.8231 4.0901L9.8163 4.0095L9.8085 3.9289L9.7996 3.8484L9.7896 3.7681L9.7785 3.6878L9.7663 3.6076L9.753 3.5275L9.7387 3.4475L9.7232 3.3677L9.7066 3.2881L9.6889 3.2085L9.6701 3.1292L9.5875 2.8ZM5.8002 7.2807L5.8743 6.4829L6.2533 7.2209L6.321 7.3451L6.3919 7.468L6.466 7.5895L6.5433 7.7097L6.5951 7.7861L6.6239 7.8L14.029 7.8L14.2002 8.0097L14.2002 16.9641L14.0575 17.2L5.8002 17.2ZM7.8916 2.819L7.9666 3.0218L7.9957 3.118L8.0132 3.2124L8.028 3.2974L8.0417 3.3825L8.0544 3.4676L8.0661 3.553L8.0768 3.6384L8.0864 3.7238L8.095 3.8094L8.1026 3.8951L8.1091 3.9808L8.1146 4.0665L8.1191 4.1523L8.1226 4.2381L8.125 4.324L8.1265 4.4099L8.1269 4.4957L8.1263 4.5816L8.1247 4.6675L8.1221 4.7533L8.1184 4.8391L8.1138 4.9249L8.1081 5.0106L8.1014 5.0963L8.0937 5.1819L8.085 5.2675L8.0753 5.3529L8.0646 5.4383L8.0529 5.5235L8.0401 5.6087L8.0264 5.6937L8.0117 5.7786L7.9959 5.8634L7.9792 5.948L7.9325 6.1703L7.6002 6.2133L7.4686 6.038L7.4284 5.9298L7.3993 5.8462L7.372 5.7622L7.3465 5.6778L7.3228 5.5929L7.301 5.5077L7.2809 5.4222L7.2626 5.3364L7.2462 5.2502L7.2315 5.1639L7.2187 5.0773L7.2076 4.9905L7.1984 4.9035L7.1909 4.8164L7.1853 4.7292L7.1815 4.642L7.1794 4.5547L7.1792 4.4673L7.1808 4.38L7.1842 4.2927L7.1893 4.2055L7.1963 4.1184L7.2051 4.0314L7.2157 3.9446L7.2281 3.8579L7.2423 3.7715L7.2583 3.6853L7.2761 3.5994L7.2957 3.5138L7.3171 3.4285L7.3404 3.3436L7.3654 3.259L7.3922 3.1749L7.4209 3.0912L7.4513 3.0081L7.5373 2.7875ZM2.9658 14.0162L2.9958 14.0995L3.0241 14.1832L3.0507 14.2674L3.0755 14.3519L3.0986 14.4367L3.12 14.5218L3.1397 14.6072L3.1576 14.6929L3.1738 14.7788L3.1883 14.865L3.2011 14.9513L3.2121 15.0377L3.2214 15.1243L3.229 15.211L3.2349 15.2978L3.2391 15.3846L3.2416 15.4714L3.2423 15.5583L3.2414 15.6451L3.2387 15.7319L3.2344 15.8186L3.2283 15.9052L3.2205 15.9916L3.2111 16.0779L3.1999 16.1641L3.187 16.25L3.1725 16.3357L3.1562 16.4211L3.1383 16.5062L3.1187 16.5911L3.0974 16.6756L3.0743 16.7597L3.0497 16.8435L3.0233 16.9268L2.985 17.04L2.8601 17.2L2.5595 17.2L2.4593 17.0133L2.4246 16.9193L2.3959 16.836L2.3689 16.7523L2.3437 16.6681L2.3203 16.5835L2.2987 16.4986L2.2789 16.4133L2.2609 16.3278L2.2447 16.2419L2.2302 16.1558L2.2176 16.0695L2.2067 15.983L2.1977 15.8964L2.1904 15.8096L2.1849 15.7227L2.1813 15.6357L2.1794 15.5487L2.1792 15.4617L2.1809 15.3747L2.1844 15.2877L2.1897 15.2008L2.1967 15.114L2.2056 15.0274L2.2162 14.9409L2.2286 14.8545L2.2428 14.7684L2.2589 14.6825L2.2767 14.5969L2.2962 14.5116L2.3176 14.4267L2.3408 14.342L2.3658 14.2578L2.3925 14.174L2.4211 14.0906L2.4514 14.0078L2.5371 13.7879L2.8899 13.8183Z" fill="black" fill-rule="evenodd"/>
</svg>
