<svg width="20" height="20" viewBox="0 0 20 20" fill="none" xmlns="http://www.w3.org/2000/svg">
<path d="M18 4V16H2V4H18ZM3.5 14.5H16.5V5.5H3.5V14.5Z" fill="black"/>
<path d="M1 3H5V7H1V3Z" fill="white"/>
<path d="M5 3V7H1V3H5ZM2 6H4V4H2V6Z" fill="black"/>
<path d="M15 3H19V7H15V3Z" fill="white"/>
<path d="M19 3V7H15V3H19ZM16 6H18V4H16V6Z" fill="black"/>
<path d="M15 13H19V17H15V13Z" fill="white"/>
<path d="M19 13V17H15V13H19ZM16 16H18V14H16V16Z" fill="black"/>
<path d="M1 13H5V17H1V13Z" fill="white"/>
<path d="M5 13V17H1V13H5ZM2 16H4V14H2V16Z" fill="black"/>
<path d="M6.5 6.97823C6.5 7.29621 6.69236 7.58258 6.98673 7.70283L8.38 8.272V11.752L6.9659 12.3477C6.68357 12.4667 6.5 12.7432 6.5 13.0496C6.5 13.5855 7.03894 13.9538 7.53828 13.7591L13.5175 11.4272C14.11 11.1961 14.5 10.6253 14.5 9.98948C14.5 9.35214 14.1082 8.78037 13.5138 8.55034L7.56524 6.24825C7.05231 6.04974 6.5 6.42823 6.5 6.97823ZM9.7 11.284V8.74L13.096 9.928V10.072L9.7 11.284Z" fill="black"/>
</svg>
