<svg width="20" height="20" viewBox="0 0 20 20" fill="none" xmlns="http://www.w3.org/2000/svg">
<path d="M13.8037 1.84277L18.458 6.92188L18.1572 13.8037L13.0781 18.458L6.19629 18.1572L1.54199 13.0781L1.84277 6.19629L6.92188 1.54199L13.8037 1.84277ZM3.80469 7.11133L3.57617 12.3379L7.11133 16.1953L12.3369 16.4238L16.1943 12.8887L16.4229 7.66211L12.8887 3.80566L7.66113 3.57715L3.80469 7.11133Z" fill="black"/>
<path d="M10.192 5.096C11.104 5.096 11.824 5.336 12.364 5.816C12.844 6.248 13.084 6.788 13.084 7.424C13.084 7.868 12.988 8.24 12.796 8.54C12.58 8.864 12.256 9.104 11.824 9.272V9.308C12.232 9.404 12.592 9.644 12.88 10.028C13.216 10.436 13.384 10.904 13.384 11.444C13.384 12.2 13.108 12.812 12.556 13.292C11.992 13.76 11.2 14 10.192 14C9.172 14 8.38 13.76 7.828 13.292C7.276 12.812 7 12.2 7 11.444C7 10.904 7.168 10.436 7.504 10.028C7.792 9.644 8.14 9.404 8.56 9.308V9.272C8.128 9.104 7.804 8.864 7.588 8.54C7.396 8.24 7.3 7.868 7.3 7.424C7.3 6.788 7.54 6.248 8.02 5.816C8.548 5.336 9.28 5.096 10.192 5.096ZM10.192 6.14C9.664 6.14 9.244 6.272 8.932 6.56C8.656 6.8 8.524 7.112 8.524 7.472C8.524 7.88 8.632 8.204 8.86 8.444C9.136 8.732 9.58 8.876 10.192 8.876C10.792 8.876 11.236 8.732 11.524 8.444C11.74 8.204 11.86 7.88 11.86 7.472C11.86 7.112 11.716 6.8 11.452 6.56C11.14 6.272 10.72 6.14 10.192 6.14ZM10.192 9.848C9.568 9.848 9.088 9.992 8.776 10.304C8.452 10.592 8.296 10.964 8.296 11.444C8.296 11.888 8.452 12.248 8.788 12.524C9.112 12.8 9.58 12.944 10.192 12.944C10.792 12.944 11.272 12.8 11.62 12.524C11.932 12.248 12.088 11.888 12.088 11.444C12.088 10.964 11.932 10.592 11.62 10.316C11.284 10.004 10.816 9.848 10.192 9.848Z" fill="black"/>
</svg>
