<svg width="20" height="20" viewBox="0 0 20 20" fill="none" xmlns="http://www.w3.org/2000/svg">
<path d="M15.0713 11.5303L16.8906 10L15.0713 8.46973V4.92871H11.5303L10 3.1084L8.46973 4.92871H4.92871V8.46973L3.1084 10L4.92871 11.5303V15.0713H8.46973L10 16.8906L11.5303 15.0713H15.0713V11.5303ZM17.0713 17.0713H12.4619L10 20L7.53809 17.0713H2.92871V12.4619L0 10L2.92871 7.53809V2.92871H7.53809L10 0L12.4619 2.92871H17.0713V7.53809L20 10L17.0713 12.4619V17.0713Z" fill="black"/>
<path d="M10 6.00001C10.8571 6.00001 11.5338 6.21564 12.0414 6.64691C12.4925 7.03505 12.718 7.52022 12.718 8.09165C12.718 8.49057 12.6278 8.8248 12.4474 9.09434C12.2444 9.38545 11.9398 9.60108 11.5338 9.75203V9.78437C11.9173 9.87062 12.2556 10.0863 12.5263 10.4313C12.8421 10.7978 13 11.2183 13 11.7035C13 12.3828 12.7406 12.9326 12.2218 13.3639C11.6917 13.7844 10.9474 14 10 14C9.04135 14 8.29699 13.7844 7.7782 13.3639C7.2594 12.9326 7 12.3828 7 11.7035C7 11.2183 7.15789 10.7978 7.47368 10.4313C7.74436 10.0863 8.07143 9.87062 8.46617 9.78437V9.75203C8.06015 9.60108 7.75564 9.38545 7.55263 9.09434C7.37218 8.8248 7.28195 8.49057 7.28195 8.09165C7.28195 7.52022 7.50752 7.03505 7.95865 6.64691C8.45489 6.21564 9.14286 6.00001 10 6.00001ZM10 6.93801C9.50376 6.93801 9.10902 7.05661 8.81579 7.31537C8.55639 7.531 8.43233 7.81133 8.43233 8.13478C8.43233 8.50135 8.53383 8.79246 8.74812 9.00809C9.00752 9.26685 9.42481 9.39623 10 9.39623C10.5639 9.39623 10.9812 9.26685 11.2519 9.00809C11.4549 8.79246 11.5677 8.50135 11.5677 8.13478C11.5677 7.81133 11.4323 7.531 11.1842 7.31537C10.891 7.05661 10.4962 6.93801 10 6.93801ZM10 10.2695C9.41353 10.2695 8.96241 10.3989 8.66917 10.6793C8.36466 10.938 8.21804 11.2722 8.21804 11.7035C8.21804 12.1024 8.36466 12.4259 8.68045 12.6739C8.98496 12.9218 9.42481 13.0512 10 13.0512C10.5639 13.0512 11.015 12.9218 11.3421 12.6739C11.6353 12.4259 11.782 12.1024 11.782 11.7035C11.782 11.2722 11.6353 10.938 11.3421 10.69C11.0263 10.4097 10.5865 10.2695 10 10.2695Z" fill="black"/>
</svg>
