<svg width="20" height="20" viewBox="0 0 20 20" fill="none" xmlns="http://www.w3.org/2000/svg">
<path d="M19 1V19H1V1H19ZM3 17H17V3H3V17Z" fill="black"/>
<path d="M9.44444 12.3158H10C10.4296 12.3158 10.7778 11.9859 10.7778 11.5789H12.3333C12.3333 12.7998 11.2887 13.7895 10 13.7895H9.44444C8.15578 13.7895 7.11111 12.7998 7.11111 11.5789V9.63158H7.0549L7.11111 9.5625V6.94737H5.55556V11.5789H4V5.47368L8.66667 5.47368V11.5789C8.66667 11.9859 9.01489 12.3158 9.44444 12.3158ZM8.66667 14.5263H10.7778C12.496 14.5263 13.8889 13.2067 13.8889 11.5789V7.68421H14.1198L13.3253 6.53649L12.3333 7.75329V11.5789H10.7778V9.15789H9.22222L13.4278 4L17 9.15789H15.4444V11.5789C15.4444 14.0206 13.3551 16 10.7778 16H8.66667C6.08934 16 4 14.0206 4 11.5789H5.55556C5.55556 13.2067 6.94845 14.5263 8.66667 14.5263Z" fill="black"/>
</svg>
