<svg width="20" height="20" viewBox="0 0 20 20" fill="none" xmlns="http://www.w3.org/2000/svg">
<path d="M12 16.802L11.9948 16.924C11.9437 17.5286 11.5176 18 11 18C10.4824 18 10.0563 17.5286 10.0052 16.924L10 16.802V3.19925C10 2.53723 10.448 2 11 2C11.552 2 12 2.53723 12 3.19925V16.802Z" fill="black"/>
<path d="M10.802 16L10.924 16.0052C11.5286 16.0563 12 16.4824 12 17C12 17.5176 11.5286 17.9437 10.924 17.9948L10.802 18H8.19925C7.53723 18 7 17.552 7 17C7 16.448 7.53723 16 8.19925 16H10.802Z" fill="black"/>
<path d="M10.802 2L10.924 2.00519C11.5286 2.05633 12 2.48243 12 3C12 3.51757 11.5286 3.94367 10.924 3.99481L10.802 4H8.19925C7.53723 4 7 3.55203 7 3C7 2.44797 7.53723 2 8.19925 2L10.802 2Z" fill="black"/>
</svg>
