<svg width="20" height="20" viewBox="0 0 20 20" fill="none" xmlns="http://www.w3.org/2000/svg">
<path d="M1 10C1 5.02944 5.02944 1 10 1C19 10 10 1 19 10C19 14.9706 14.9706 19 10 19V17C13.6012 17 16.5656 14.2805 16.9551 10.7832L16.9346 10.7627C16.9187 10.7469 16.9024 10.7315 16.8867 10.7158L16.8398 10.6689C16.8243 10.6534 16.8093 10.6375 16.7939 10.6221C16.7785 10.6066 16.7624 10.5915 16.7471 10.5762C16.7319 10.561 16.7172 10.5453 16.7021 10.5303L16.6113 10.4395C16.5965 10.4246 16.5812 10.4103 16.5664 10.3955C16.5516 10.3807 16.5371 10.3653 16.5225 10.3506L16.4355 10.2637C16.4211 10.2492 16.4059 10.235 16.3916 10.2207C16.3774 10.2065 16.3637 10.1918 16.3496 10.1777C16.3355 10.1636 16.3207 10.1498 16.3066 10.1357L16.2646 10.0938C16.2508 10.0799 16.2374 10.0655 16.2236 10.0518C16.2098 10.038 16.1953 10.0244 16.1816 10.0107L16.1406 9.96973C16.1271 9.95616 16.114 9.94216 16.1006 9.92871L16.0205 9.84863C16.0073 9.83543 15.9936 9.82265 15.9805 9.80957L15.9414 9.77051C15.9285 9.75759 15.9161 9.74425 15.9033 9.73145C15.8905 9.71858 15.877 9.70611 15.8643 9.69336L15.8262 9.65527C15.8136 9.64268 15.8015 9.62966 15.7891 9.61719L15.6055 9.43359C15.5936 9.42169 15.5811 9.41023 15.5693 9.39844L15.499 9.32812C15.4875 9.31656 15.4763 9.30442 15.4648 9.29297L15.3633 9.19141C15.3521 9.18024 15.3402 9.16926 15.3291 9.1582C15.3181 9.14724 15.3077 9.13585 15.2969 9.125C15.286 9.11409 15.2745 9.10357 15.2637 9.09277C15.2528 9.08194 15.2422 9.0703 15.2314 9.05957C15.2208 9.04894 15.2097 9.03885 15.1992 9.02832C15.1886 9.0177 15.1785 9.00661 15.168 8.99609L15.1055 8.93359C15.0952 8.92331 15.0844 8.9135 15.0742 8.90332L15.0137 8.84277C15.0037 8.83279 14.9943 8.82238 14.9844 8.8125L14.8398 8.66797C14.8305 8.65864 14.8208 8.64985 14.8115 8.64062C14.8022 8.63135 14.7934 8.62148 14.7842 8.6123L14.7031 8.53125C14.6942 8.52237 14.6846 8.51367 14.6758 8.50488C14.6671 8.49621 14.659 8.48709 14.6504 8.47852L14.5732 8.40137C14.5649 8.39302 14.5561 8.38521 14.5479 8.37695C14.5395 8.36865 14.5317 8.35978 14.5234 8.35156L14.4746 8.30273C14.4666 8.29474 14.4581 8.2872 14.4502 8.2793L14.4033 8.23242C14.3957 8.22476 14.3884 8.21656 14.3809 8.20898L14.335 8.16309C14.3276 8.15572 14.3198 8.14888 14.3125 8.1416C14.3052 8.13428 14.2983 8.12638 14.291 8.11914C14.2837 8.11184 14.2758 8.10487 14.2686 8.09766L14.2471 8.07617C14.24 8.06914 14.2335 8.06164 14.2266 8.05469L14.0469 7.875C14.0406 7.86872 14.0335 7.86264 14.0273 7.85645L14.0088 7.83789C14.0027 7.83183 13.9972 7.82532 13.9912 7.81934C13.9852 7.8133 13.9786 7.80771 13.9727 7.80176L13.9375 7.7666C13.9318 7.76088 13.9265 7.75467 13.9209 7.74902L13.8701 7.69824C13.8647 7.69283 13.8588 7.68795 13.8535 7.68262C13.8481 7.67723 13.8432 7.67132 13.8379 7.66602L13.8223 7.65039C13.817 7.64513 13.8108 7.63995 13.8057 7.63477C13.8006 7.62968 13.796 7.62415 13.791 7.61914L13.7031 7.53125C13.6985 7.52659 13.6931 7.52217 13.6885 7.51758L13.6611 7.49023C13.6567 7.48581 13.6528 7.48092 13.6484 7.47656C13.644 7.47217 13.6391 7.46819 13.6348 7.46387L13.6094 7.43848C13.6053 7.43439 13.6017 7.4298 13.5977 7.42578L13.5732 7.40137C13.5693 7.39738 13.5645 7.39358 13.5605 7.38965L13.5488 7.37793C13.5451 7.37416 13.5418 7.36992 13.5381 7.36621L13.4629 7.29102C13.4595 7.28765 13.4555 7.28455 13.4521 7.28125L13.4424 7.27148C13.4393 7.26836 13.4367 7.26478 13.4336 7.26172L13.4238 7.25195C13.4207 7.24884 13.4171 7.24622 13.4141 7.24316C13.411 7.24009 13.4083 7.23641 13.4053 7.2334L13.3789 7.20703C13.3761 7.20424 13.3729 7.20196 13.3701 7.19922C13.3673 7.19643 13.365 7.19316 13.3623 7.19043L13.3545 7.18262C13.3518 7.17993 13.3483 7.17743 13.3457 7.1748L13.3379 7.16699C13.3354 7.16453 13.3335 7.1616 13.3311 7.15918L13.3232 7.15137C13.3208 7.1489 13.3178 7.14695 13.3154 7.14453C13.313 7.14211 13.311 7.13909 13.3086 7.13672L13.2812 7.10938C13.2792 7.10728 13.2765 7.10557 13.2744 7.10352C13.2723 7.10143 13.2706 7.09872 13.2686 7.09668L13.2393 7.06738C13.2374 7.06557 13.2352 7.06427 13.2334 7.0625C13.2316 7.06071 13.2303 7.05839 13.2285 7.05664C13.2268 7.05488 13.2244 7.05347 13.2227 7.05176L13.2178 7.04688C13.2161 7.0452 13.2145 7.04265 13.2129 7.04102C13.2114 7.03953 13.2095 7.03856 13.208 7.03711L13.2031 7.03223C13.2016 7.03074 13.2007 7.02879 13.1992 7.02734L13.1904 7.01855C13.189 7.01713 13.1869 7.01604 13.1855 7.01465C13.1842 7.01326 13.183 7.01111 13.1816 7.00977L13.1738 7.00195C13.1727 7.0008 13.171 7.00015 13.1699 6.99902L13.166 6.99512C13.1649 6.99396 13.1642 6.99233 13.1631 6.99121C13.1619 6.99007 13.1603 6.98939 13.1592 6.98828C13.158 6.98715 13.1573 6.98547 13.1562 6.98438L13.1533 6.98145C13.1523 6.98039 13.1504 6.97953 13.1494 6.97852C13.1484 6.97748 13.1475 6.97561 13.1465 6.97461L13.1436 6.97168C13.1427 6.97085 13.1414 6.97053 13.1406 6.96973L13.1377 6.9668C13.1369 6.96597 13.1365 6.96467 13.1357 6.96387L13.126 6.9541C13.1252 6.95335 13.1238 6.95287 13.123 6.95215L13.1211 6.9502L13.1191 6.94727L13.1172 6.94531L13.1152 6.94434L13.1133 6.94238L13.1123 6.94043L13.1104 6.93848L13.1084 6.9375L13.1074 6.93555L13.1055 6.93457L13.1045 6.93262L13.1025 6.93164L13.1016 6.92969L13.0938 6.92188H13.0928V6.9209L13.0918 6.91992H13.0908V6.91895L13.0889 6.91699H13.0879V6.91602H13.0869V6.91504H13.0859V6.91406L13.085 6.91309H13.084V6.91211H13.083V6.91113L13.0811 6.90918H13.0801V6.9082L13.0791 6.90723H13.0781V6.90625L13.0703 6.89844L13.0684 6.89746L13.0674 6.89551L13.0654 6.89453L13.0645 6.89258L13.0625 6.8916L13.0615 6.88965L13.0596 6.8877L13.0576 6.88672L13.0557 6.88477L13.0547 6.88281L13.0527 6.88086L13.0498 6.87891L13.0479 6.87695C13.0471 6.87623 13.0467 6.87478 13.0459 6.87402L13.0361 6.86426C13.0353 6.86346 13.034 6.86313 13.0332 6.8623L13.0303 6.85938C13.0295 6.85857 13.0291 6.85727 13.0283 6.85645L13.0254 6.85352C13.0244 6.85252 13.0225 6.85162 13.0215 6.85059C13.0205 6.84957 13.0196 6.84773 13.0186 6.84668L13.0156 6.84375C13.0145 6.84265 13.0129 6.84195 13.0117 6.84082C13.0106 6.83971 13.0099 6.83806 13.0088 6.83691C13.0077 6.83579 13.006 6.83514 13.0049 6.83398L13.001 6.83008C12.9999 6.82895 12.9992 6.82733 12.998 6.82617L12.9902 6.81836C12.9889 6.81701 12.9867 6.81584 12.9854 6.81445C12.984 6.81306 12.9829 6.811 12.9814 6.80957L12.9727 6.80078C12.9712 6.79934 12.9693 6.79836 12.9678 6.79688L12.9629 6.79199C12.9614 6.79054 12.9605 6.78859 12.959 6.78711C12.9574 6.78548 12.9548 6.7839 12.9531 6.78223L12.9482 6.77734C12.9465 6.77563 12.9451 6.77324 12.9434 6.77148C12.9416 6.76974 12.9393 6.76839 12.9375 6.7666C12.9357 6.76483 12.9344 6.76255 12.9326 6.76074L12.9033 6.73145C12.9013 6.72941 12.8986 6.72767 12.8965 6.72559C12.8944 6.72353 12.8927 6.72085 12.8906 6.71875L12.8633 6.69141C12.8609 6.68904 12.8579 6.68699 12.8555 6.68457C12.8531 6.68215 12.8511 6.67922 12.8486 6.67676L12.8408 6.66895C12.8384 6.66653 12.8355 6.66457 12.833 6.66211L12.8252 6.6543C12.8226 6.65167 12.8201 6.64819 12.8174 6.64551L12.8096 6.6377C12.8068 6.63497 12.8036 6.63267 12.8008 6.62988C12.798 6.62714 12.7958 6.62389 12.793 6.62109L12.7666 6.59473C12.7636 6.59171 12.7599 6.58901 12.7568 6.58594C12.7538 6.58288 12.7512 6.57929 12.748 6.57617L12.7383 6.56641C12.7352 6.56334 12.7316 6.56074 12.7285 6.55762L12.7188 6.54785C12.7154 6.54455 12.7123 6.54047 12.709 6.53711L12.6338 6.46191C12.6301 6.4582 12.6258 6.45495 12.6221 6.45117L12.6104 6.43945C12.6064 6.43553 12.6026 6.43075 12.5986 6.42676L12.5742 6.40234C12.5702 6.39833 12.5656 6.39471 12.5615 6.39062L12.5361 6.36523C12.5318 6.36091 12.5278 6.35596 12.5234 6.35156C12.5191 6.3472 12.5142 6.3433 12.5098 6.33887L12.4824 6.31152C12.4778 6.30693 12.4734 6.30153 12.4688 6.29688L12.3809 6.20898C12.3758 6.20397 12.3703 6.19942 12.3652 6.19434C12.3601 6.18915 12.3549 6.18299 12.3496 6.17773L12.334 6.16211C12.3287 6.1568 12.3228 6.15187 12.3174 6.14648C12.312 6.14115 12.3072 6.13529 12.3018 6.12988L12.251 6.0791C12.2453 6.07346 12.2391 6.06822 12.2334 6.0625L12.1982 6.02734C12.1923 6.02139 12.1867 6.01482 12.1807 6.00879C12.1747 6.00281 12.1682 5.99727 12.1621 5.99121L12.1436 5.97266C12.1374 5.96646 12.1313 5.9594 12.125 5.95312L11.9453 5.77344C11.9384 5.76649 11.9309 5.75996 11.9238 5.75293L11.9023 5.73145C11.8951 5.72423 11.8882 5.71629 11.8809 5.70898C11.8736 5.70175 11.8657 5.69482 11.8584 5.6875C11.8511 5.68022 11.8443 5.67241 11.8369 5.66504L11.791 5.61914C11.7834 5.61157 11.7752 5.60434 11.7676 5.59668L11.7207 5.5498C11.7128 5.5419 11.7053 5.53338 11.6973 5.52539L11.6484 5.47656C11.6402 5.46835 11.6314 5.46046 11.623 5.45215C11.6148 5.44389 11.607 5.43511 11.5986 5.42676L11.5215 5.34961C11.5129 5.34103 11.5038 5.33289 11.4951 5.32422C11.4863 5.31543 11.4776 5.30576 11.4688 5.29688L11.3877 5.21582C11.3785 5.20664 11.3687 5.19776 11.3594 5.18848C11.3501 5.17925 11.3414 5.16948 11.332 5.16016L11.1875 5.01562C11.1776 5.00575 11.1672 4.99631 11.1572 4.98633L11.0967 4.92578C11.0865 4.9156 11.0767 4.90482 11.0664 4.89453L11.0039 4.83203C10.9934 4.82152 10.9823 4.8114 10.9717 4.80078C10.9612 4.79025 10.9511 4.77919 10.9404 4.76855C10.9297 4.75783 10.9181 4.74716 10.9072 4.73633C10.8964 4.72553 10.8859 4.71403 10.875 4.70312C10.8641 4.69227 10.8528 4.68186 10.8418 4.6709C10.8307 4.65985 10.8198 4.64788 10.8086 4.63672L10.707 4.53516C10.6956 4.5237 10.6834 4.51254 10.6719 4.50098L10.6016 4.43066C10.5898 4.41887 10.5783 4.40643 10.5664 4.39453L10.3828 4.21094C10.3703 4.19846 10.3573 4.18642 10.3447 4.17383L10.3066 4.13574C10.2939 4.123 10.2814 4.10954 10.2686 4.09668C10.2558 4.08388 10.2424 4.07151 10.2295 4.05859L10.1904 4.01953C10.1773 4.00645 10.1646 3.9927 10.1514 3.97949L10.0713 3.89941C10.0578 3.88597 10.0438 3.87294 10.0303 3.85938L9.98926 3.81836C9.97558 3.80468 9.96204 3.79016 9.94824 3.77637C9.93452 3.76264 9.92009 3.7492 9.90625 3.73535L9.86426 3.69336C9.85023 3.67934 9.83641 3.66454 9.82227 3.65039C9.80817 3.63629 9.79352 3.62262 9.7793 3.6084C9.76498 3.59409 9.75076 3.57889 9.73633 3.56445L9.64941 3.47754C9.63473 3.46285 9.6193 3.44841 9.60449 3.43359C9.58974 3.41885 9.57542 3.40355 9.56055 3.38867L9.46973 3.29785C9.45465 3.28278 9.43903 3.26813 9.42383 3.25293C9.40851 3.23761 9.39338 3.2215 9.37793 3.20605C9.36253 3.19066 9.34658 3.17568 9.33105 3.16016L9.28418 3.11328C9.26849 3.09759 9.25313 3.08125 9.2373 3.06543L9.21582 3.04395C5.71897 3.43378 3 6.39912 3 10C3 13.866 6.13401 17 10 17V19C5.02944 19 1 14.9706 1 10Z" fill="black"/>
</svg>
