<svg width="20" height="20" viewBox="0 0 20 20" fill="none" xmlns="http://www.w3.org/2000/svg">
<path d="M10 3C13.9274 3 18 4.79086 18 7C18 9.20914 13.9274 11 10 11V9C11.7519 9 13.5109 8.5947 14.7752 7.98828C15.4109 7.68336 15.8349 7.36933 16.0712 7.11426C16.1115 7.0707 16.1404 7.03108 16.1641 7C16.1404 6.96892 16.1115 6.9293 16.0712 6.88574C15.8349 6.63067 15.4109 6.31664 14.7752 6.01172C13.5109 5.4053 11.7519 5 10 5C8.24812 5 6.48914 5.4053 5.22483 6.01172C4.58914 6.31664 4.16507 6.63067 3.92882 6.88574C3.88828 6.92952 3.85882 6.96883 3.83507 7C3.85882 7.03118 3.88828 7.07048 3.92882 7.11426C4.16507 7.36933 4.58914 7.68336 5.22483 7.98828C6.48914 8.5947 8.24812 9 10 9V11C6.07264 11 2 9.20914 2 7C2 4.79086 6.07264 3 10 3Z" fill="black"/>
<path d="M2 12V7H4V12C4 12.5217 4.44895 13.2629 5.79004 13.9336C7.07164 14.5744 7.91244 15 10 15C12.0876 15 12.9284 14.5744 14.21 13.9336C15.551 13.2629 16 12.5217 16 12V6.5H18V12C18 13.6872 16.6583 14.9456 15.1045 15.7227C13.4907 16.5296 12.3307 17 10 17C7.66928 17 6.50934 16.5296 4.89551 15.7227C3.34167 14.9456 2 13.6872 2 12Z" fill="black"/>
</svg>
