<svg width="20" height="20" viewBox="0 0 20 20" fill="none" xmlns="http://www.w3.org/2000/svg">
<mask id="path-1-inside-1_379_353" fill="white">
<path d="M19.083 7H17V16.9688H7V19L1 14L7 9V10.9688H11V7H9.08301L14.083 1L19.083 7Z"/>
</mask>
<path d="M19.083 7V9H23.3531L20.6194 5.71963L19.083 7ZM17 7V5H15V7H17ZM17 16.9688V18.9688H19V16.9688H17ZM7 16.9688V14.9688H5V16.9688H7ZM7 19L5.71963 20.5364L9 23.2701V19H7ZM1 14L-0.280369 12.4636L-2.1241 14L-0.280369 15.5364L1 14ZM7 9H9V4.72992L5.71963 7.46356L7 9ZM7 10.9688H5V12.9688H7V10.9688ZM11 10.9688V12.9688H13V10.9688H11ZM11 7H13V5H11V7ZM9.08301 7L7.54657 5.71963L4.81292 9H9.08301V7ZM14.083 1L15.6195 -0.280369L14.083 -2.1241L12.5466 -0.280369L14.083 1ZM19.083 7V5H17V7V9H19.083V7ZM17 7H15V16.9688H17H19V7H17ZM17 16.9688V14.9688H7V16.9688V18.9688H17V16.9688ZM7 16.9688H5V19H7H9V16.9688H7ZM7 19L8.28037 17.4636L2.28037 12.4636L1 14L-0.280369 15.5364L5.71963 20.5364L7 19ZM1 14L2.28037 15.5364L8.28037 10.5364L7 9L5.71963 7.46356L-0.280369 12.4636L1 14ZM7 9H5V10.9688H7H9V9H7ZM7 10.9688V12.9688H11V10.9688V8.96875H7V10.9688ZM11 10.9688H13V7H11H9V10.9688H11ZM11 7V5H9.08301V7V9H11V7ZM9.08301 7L10.6195 8.28037L15.6195 2.28037L14.083 1L12.5466 -0.280369L7.54657 5.71963L9.08301 7ZM14.083 1L12.5466 2.28037L17.5466 8.28037L19.083 7L20.6194 5.71963L15.6195 -0.280369L14.083 1Z" fill="black" mask="url(#path-1-inside-1_379_353)"/>
</svg>
