<svg width="20" height="20" viewBox="0 0 20 20" fill="none" xmlns="http://www.w3.org/2000/svg">
<path d="M15.8155 10.005C15.8154 9.39294 15.7031 8.8081 15.4991 8.26375L15.1817 7.41415L15.5547 6.66512L14.8291 6.85262L14.0049 6.14559C13.3522 5.58559 12.5566 5.17075 11.6729 4.95907L10.7579 4.73934L10.3213 3.91512L9.88579 4.73934L8.97075 4.95907C8.07067 5.1748 7.26258 5.59916 6.60551 6.17196L5.8018 6.87313L4.87016 6.65438L4.90141 6.70711L5.38872 7.52743L5.08598 8.43075C4.91964 8.92801 4.82917 9.45617 4.82915 10.005C4.82915 10.508 4.90665 10.995 5.04887 11.4591L5.3184 12.3399L4.87114 13.0919L5.627 12.9151L6.44243 13.6876C7.06499 14.2768 7.83828 14.7268 8.70708 14.9796L9.08501 15.0763L10.0303 15.2823L10.3213 15.8331L10.6133 15.2823L11.5586 15.0763C12.5814 14.8534 13.4892 14.3605 14.2012 13.6866L15.0166 12.9151L15.7706 13.0919L15.3252 12.3419L15.5948 11.46C15.7375 10.9945 15.8155 10.5071 15.8155 10.005ZM10.3272 17.628L10.3291 17.6309V17.6261L10.3272 17.628ZM10.3291 17.6309L10.3272 17.628L10.3291 17.6261V17.6309ZM17.8975 10.005C17.8975 10.7226 17.7869 11.4154 17.586 12.0704L18.6582 13.8741C18.7244 13.9856 18.7692 14.0998 18.795 14.214C18.8338 14.3852 18.8294 14.5561 18.7901 14.7169C18.6717 15.1996 18.2362 15.5914 17.6905 15.6261C17.5693 15.6338 17.4423 15.6242 17.3125 15.5938L15.6329 15.1993C14.6472 16.1322 13.3982 16.8062 12.002 17.1104L11.4073 18.2364C11.3808 18.2863 11.3511 18.333 11.3194 18.377L11.3135 18.3858C11.2801 18.4314 11.2435 18.4736 11.2051 18.5128C11.1959 18.5222 11.1853 18.5301 11.1758 18.5391C11.1462 18.5675 11.116 18.5945 11.084 18.6192C11.0664 18.6329 11.0476 18.6447 11.0293 18.6573C11.0048 18.6742 10.9807 18.6913 10.9551 18.7061C10.9335 18.7187 10.911 18.7292 10.8887 18.7403C10.8635 18.753 10.8385 18.7656 10.8125 18.7764C10.7881 18.7866 10.7633 18.7952 10.7383 18.8038C10.7146 18.812 10.6912 18.8205 10.667 18.8272C10.6435 18.8338 10.6196 18.8386 10.5957 18.8438C10.5672 18.85 10.5387 18.8562 10.5098 18.8604C10.4861 18.8639 10.4624 18.8661 10.4385 18.8682C10.4115 18.8707 10.3846 18.8724 10.3575 18.8731C10.3307 18.8739 10.3041 18.8741 10.2774 18.8731C10.2535 18.8723 10.2299 18.8704 10.2061 18.8682C10.1793 18.8658 10.1526 18.8635 10.126 18.8595C10.0985 18.8552 10.0712 18.8499 10.044 18.8438C10.0207 18.8387 9.99765 18.8327 9.97465 18.8263C9.94926 18.8191 9.92439 18.8106 9.89946 18.8018C9.87348 18.7927 9.84768 18.7834 9.82231 18.7725C9.79941 18.7627 9.77725 18.7515 9.75493 18.7403C9.73205 18.7288 9.70876 18.7182 9.68657 18.7052C9.66143 18.6905 9.63746 18.6739 9.61333 18.6573C9.59261 18.643 9.57169 18.629 9.5518 18.6134C9.52654 18.5935 9.50333 18.5711 9.47954 18.5489C9.46509 18.5354 9.44945 18.5232 9.43559 18.5089C9.37067 18.4419 9.31451 18.3647 9.26469 18.2794C9.2562 18.2648 9.24534 18.2515 9.23735 18.2364L8.64165 17.1104C7.24555 16.8061 5.99629 16.1322 5.01079 15.1993L3.3311 15.5938C3.26644 15.609 3.20251 15.6188 3.13969 15.6241L2.96489 15.6261L2.96391 15.6251C2.92981 15.6232 2.89653 15.618 2.86333 15.6134C2.83869 15.6099 2.81418 15.6075 2.79008 15.6026C2.76112 15.5968 2.73324 15.588 2.70512 15.5802C2.67854 15.5728 2.65178 15.5668 2.62602 15.5577C2.59652 15.5473 2.56843 15.5341 2.54008 15.5216C2.5184 15.512 2.49659 15.5031 2.47563 15.4923C2.45153 15.4799 2.42841 15.4661 2.40532 15.4522C2.37974 15.4368 2.35437 15.4215 2.33012 15.4044C2.30898 15.3895 2.28867 15.3737 2.2686 15.3575C2.24748 15.3405 2.22695 15.323 2.20708 15.3048C2.18634 15.2857 2.16682 15.2656 2.14751 15.2452C2.12938 15.2261 2.11158 15.2068 2.09477 15.1866C2.07736 15.1657 2.06089 15.1442 2.04497 15.1222C2.0283 15.0991 2.01208 15.0759 1.99711 15.0518C1.98479 15.032 1.97308 15.0118 1.96196 14.9913C1.94861 14.9667 1.9364 14.9416 1.92485 14.9161C1.91394 14.892 1.90381 14.8677 1.89458 14.8429C1.885 14.8172 1.8769 14.7911 1.86919 14.7647C1.86238 14.7414 1.85593 14.7182 1.85063 14.6944C1.84356 14.6628 1.83832 14.631 1.83403 14.5987C1.83119 14.5773 1.82779 14.5559 1.82622 14.5343C1.82368 14.4996 1.82443 14.4649 1.82524 14.4298C1.82568 14.4113 1.82482 14.3927 1.82622 14.3741C1.82925 14.3334 1.83603 14.293 1.84379 14.252C1.84662 14.2372 1.84813 14.222 1.85161 14.2071C1.85979 14.172 1.87197 14.1377 1.88383 14.1026C1.90975 14.0262 1.94192 13.9489 1.98637 13.8741L3.05766 12.0694C2.85701 11.4148 2.74711 10.7222 2.74711 10.005C2.74714 9.22538 2.87579 8.47482 3.11137 7.77059L1.98637 5.87606C1.88709 5.7089 1.83532 5.53511 1.82426 5.36532C1.81695 5.25206 1.82828 5.14046 1.85454 5.03329C1.97261 4.55029 2.40824 4.15875 2.95415 4.12411C3.07531 4.11641 3.20236 4.12594 3.33208 4.15633L5.23735 4.60262C6.1464 3.81014 7.2568 3.22813 8.4854 2.93368L9.23735 1.51375C9.68886 0.660788 10.9558 0.660771 11.4073 1.51375L12.1582 2.93368C13.3672 3.22327 14.4605 3.79249 15.3614 4.56551L16.8965 4.17098C17.5875 3.99312 18.2086 4.4077 18.3829 4.97762C18.462 5.23629 18.4489 5.52698 18.3086 5.80868L17.4493 7.53231C17.7387 8.30444 17.8975 9.13684 17.8975 10.005Z" fill="black"/>
</svg>
