<svg width="20" height="20" viewBox="0 0 20 20" fill="none" xmlns="http://www.w3.org/2000/svg">
<path d="M10 1C12.3755 1 16 3 16 3V13C16 13 12.3755 11 10 11C7.62453 11 4 13 4 13V3C4 3 7.62453 1 10 1ZM10 3C9.24026 3 8.05829 3.35573 6.87695 3.84668C6.55806 3.97921 6.26114 4.11328 6 4.23535V9.8916C7.16697 9.44793 8.65361 9 10 9C11.3464 9 12.833 9.44793 14 9.8916V4.23535C13.7389 4.11328 13.4419 3.97921 13.123 3.84668C11.9417 3.35573 10.7597 3 10 3Z" fill="black"/>
<path d="M9 16H4V11L9 9.5V16ZM6 12.4883V14H7V12.1875L6 12.4883Z" fill="black"/>
<path d="M16 11V16H11V9.5L16 11ZM13 14H14V12.4883L13 12.1875V14Z" fill="black"/>
<path d="M16.5713 6C17.5754 6 19.9996 6.99983 20 7L18.2861 11.5L20 17C19.9996 16.9998 17.5754 16 16.5713 16V14C16.7054 14 16.8416 14.0079 16.9766 14.0215L16.1709 11.4346L17.4033 8.19727C17.2766 8.1596 17.1541 8.12425 17.0381 8.09473C16.704 8.00972 16.5633 8.0001 16.5713 8H16V14H16.5713V16H14V6H16.5713Z" fill="black"/>
<path d="M3.42871 6C2.42459 6 0.000405788 6.99983 0 7L1.71387 11.5L0 17C0.000405788 16.9998 2.42459 16 3.42871 16V14C3.29459 14 3.1584 14.0079 3.02344 14.0215L3.8291 11.4346L2.59668 8.19727C2.72342 8.1596 2.84589 8.12425 2.96191 8.09473C3.29605 8.00972 3.43669 8.0001 3.42871 8H4V14H3.42871V16H6V6H3.42871Z" fill="black"/>
</svg>
