<svg width="20" height="20" viewBox="0 0 20 20" fill="none" xmlns="http://www.w3.org/2000/svg">
<path d="M13.8037 1.84277L18.458 6.92188L18.1572 13.8037L13.0781 18.458L6.19629 18.1572L1.54199 13.0781L1.84277 6.19629L6.92188 1.54199L13.8037 1.84277ZM3.80469 7.11133L3.57617 12.3379L7.11133 16.1953L12.3369 16.4238L16.1943 12.8887L16.4229 7.66211L12.8887 3.80566L7.66113 3.57715L3.80469 7.11133Z" fill="black"/>
<path d="M11.9156 5.81614C12.6636 5.81614 13.2906 6.02514 13.7746 6.46514C14.2476 6.90514 14.4896 7.46614 14.4896 8.15914C14.4896 8.84114 14.2256 9.45714 13.7196 10.0181C13.4116 10.3371 12.8726 10.7551 12.0916 11.2831C11.2446 11.8441 10.7386 12.3391 10.5736 12.7681H13.9726C14.2642 12.7681 14.5006 13.0045 14.5006 13.2961C14.5006 13.5877 14.2642 13.8241 13.9726 13.8241H9.5886C9.31245 13.8241 9.0838 13.599 9.12511 13.3259C9.21238 12.7491 9.45704 12.2313 9.8696 11.7671C10.1556 11.4261 10.7496 10.9531 11.6406 10.3371C12.1686 9.96314 12.5426 9.66614 12.7626 9.43514C13.1146 9.03914 13.3016 8.61014 13.3016 8.14814C13.3016 7.70814 13.1806 7.37814 12.9386 7.15814C12.6966 6.93814 12.3336 6.82814 11.8716 6.82814C11.3766 6.82814 11.0026 6.99314 10.7496 7.33414C10.5733 7.55452 10.4559 7.83867 10.3907 8.19314C10.3317 8.5143 10.0727 8.77514 9.74618 8.77514C9.40855 8.77514 9.12958 8.49744 9.18359 8.16417C9.28101 7.56304 9.51701 7.0627 9.8916 6.66314C10.3976 6.09114 11.0796 5.81614 11.9156 5.81614Z" fill="black"/>
<path d="M6.90665 6.19395C7.03532 6.07521 7.20058 6 7.37567 6C7.72213 6 8.003 6.28087 8.003 6.62733V13.2545C8.003 13.5856 7.73459 13.854 7.4035 13.854C7.07241 13.854 6.804 13.5856 6.804 13.2545V7.441C6.49279 7.73774 6.12443 7.9821 5.70206 8.17407C5.36097 8.3291 5 8.05742 5 7.68276C5 7.42431 5.17744 7.20223 5.41875 7.1097C5.64056 7.02465 5.86965 6.91508 6.111 6.781C6.41515 6.59513 6.68037 6.40277 6.90665 6.19395Z" fill="black"/>
</svg>
