<svg width="20" height="20" viewBox="0 0 20 20" fill="none" xmlns="http://www.w3.org/2000/svg">
<path d="M15.1426 12H16.4385L15.2188 10L16.4648 7.95508L15.1426 7.93945V4.92871H12V3.6084L10 4.8584L8 3.6084V4.92871H5.3457V8.05859L4.02832 8.01953L5.48926 10.0146L4 12H5.3457V15.0713H8V16.3906L10 15.1416L12 16.3906V15.0713H15.1426V12ZM17.1426 17.0713H14V20L10 17.5L6 20V17.0713H3.3457V14H0L3 10L0 5.90332L3.3457 6V2.92871H6V0L10 2.5L14 0V2.92871H17.1426V5.96484L20 6L17.5605 10L20 14H17.1426V17.0713Z" fill="black"/>
<path d="M12.5894 6.5C13.1423 6.5 13.6057 6.68269 13.9634 7.06731C14.313 7.45192 14.4919 7.94231 14.4919 8.54808C14.4919 9.14423 14.2967 9.68269 13.9228 10.1731C13.6951 10.4519 13.2967 10.8173 12.7195 11.2788C12.0935 11.7692 11.7195 12.2019 11.5976 12.5769H14.0385C14.2934 12.5769 14.5 12.7836 14.5 13.0385C14.5 13.2934 14.2934 13.5 14.0385 13.5H11.1723C10.801 13.5 10.4905 13.1957 10.5657 12.8321C10.651 12.4201 10.8199 12.0443 11.0772 11.7019C11.2886 11.4038 11.7276 10.9904 12.3862 10.4519C12.7764 10.125 13.0528 9.86538 13.2154 9.66346C13.4756 9.31731 13.6138 8.94231 13.6138 8.53846C13.6138 8.15385 13.5244 7.86538 13.3455 7.67308C13.1667 7.48077 12.8984 7.38462 12.5569 7.38462C12.1911 7.38462 11.9146 7.52885 11.7276 7.82692C11.5869 8.03503 11.4969 8.3082 11.4516 8.65365C11.4201 8.89346 11.2263 9.08654 10.9844 9.08654C10.7356 9.08654 10.5314 8.88275 10.5598 8.63557C10.6243 8.07296 10.8022 7.6079 11.0935 7.24038C11.4675 6.74038 11.9715 6.5 12.5894 6.5Z" fill="black"/>
<path d="M8.05049 6.5C8.60971 6.5 9.05243 6.66038 9.39417 6.99057C9.72039 7.32075 9.89126 7.77358 9.89126 8.34906C9.89126 9.08491 9.58058 9.58491 8.97476 9.83019C9.30097 9.95283 9.54951 10.1415 9.72039 10.3868C9.9068 10.6415 10 10.9717 10 11.3679C10 11.9906 9.82136 12.5 9.47184 12.8962C9.09903 13.2925 8.60971 13.5 8.01942 13.5C7.45243 13.5 6.99417 13.3208 6.65243 12.9717C6.34428 12.6573 6.14372 12.2301 6.05074 11.69C6.00957 11.4508 6.20502 11.2453 6.44767 11.2453C6.67451 11.2453 6.85393 11.4269 6.90096 11.6488C6.95658 11.9113 7.06111 12.1258 7.21942 12.2925C7.42136 12.5189 7.68544 12.6321 8.01165 12.6321C8.36893 12.6321 8.65631 12.5 8.87379 12.2547C9.06019 12.0283 9.16116 11.7547 9.16116 11.4151C9.16116 11.0189 9.06019 10.7264 8.85825 10.5377C8.67184 10.3491 8.39223 10.2547 8.02718 10.2547H8.01009C7.79647 10.2547 7.6233 10.0815 7.6233 9.86792C7.6233 9.6543 7.79647 9.48113 8.01009 9.48113H8.01942C8.36116 9.48113 8.61748 9.38679 8.78835 9.20755C8.95922 9.0283 9.05243 8.76415 9.05243 8.42453C9.05243 8.08491 8.96699 7.83019 8.81165 7.65094C8.64078 7.46226 8.38447 7.37736 8.05825 7.37736C7.72427 7.37736 7.46019 7.48113 7.27379 7.68868C7.14954 7.82701 7.05635 8.01145 6.99882 8.24199C6.94616 8.45298 6.77167 8.62264 6.5542 8.62264C6.31334 8.62264 6.11943 8.41738 6.16627 8.18112C6.25771 7.71991 6.44189 7.3465 6.72233 7.0566C7.06408 6.67924 7.5068 6.5 8.05049 6.5Z" fill="black"/>
</svg>
