<svg width="20" height="20" viewBox="0 0 20 20" fill="none" xmlns="http://www.w3.org/2000/svg">
<path d="M10 19C7.62453 19 4 17 4 17V7C4 7 7.62453 9 10 9C12.3755 9 16 7 16 7V17C16 17 12.3755 19 10 19ZM10 17C10.7597 17 11.9417 16.6443 13.123 16.1533C13.4419 16.0208 13.7389 15.8867 14 15.7646V10.1084C12.833 10.5521 11.3464 11 10 11C8.65361 11 7.16698 10.5521 6 10.1084V15.7646C6.26114 15.8867 6.55806 16.0208 6.87695 16.1533C8.05829 16.6443 9.24026 17 10 17Z" fill="black"/>
<path d="M11 4H16V9L11 10.5V4ZM14 7.51172V6H13V7.8125L14 7.51172Z" fill="black"/>
<path d="M4 9V4H9V10.5L4 9ZM7 6H6V7.51172L7 7.8125V6Z" fill="black"/>
<path d="M3.42871 14C2.42459 14 0.000405788 13.0002 0 13L1.71387 8.5L0 3C0.000405788 3.00017 2.42459 4 3.42871 4V6C3.29459 6 3.1584 5.99211 3.02344 5.97852L3.8291 8.56543L2.59668 11.8027C2.72342 11.8404 2.84589 11.8757 2.96191 11.9053C3.29605 11.9903 3.43669 11.9999 3.42871 12H4V6H3.42871V4H6V14H3.42871Z" fill="black"/>
<path d="M16.5713 14C17.5754 14 19.9996 13.0002 20 13L18.2861 8.5L20 3C19.9996 3.00017 17.5754 4 16.5713 4V6C16.7054 6 16.8416 5.99211 16.9766 5.97852L16.1709 8.56543L17.4033 11.8027C17.2766 11.8404 17.1541 11.8757 17.0381 11.9053C16.704 11.9903 16.5633 11.9999 16.5713 12H16V6H16.5713V4H14V14H16.5713Z" fill="black"/>
</svg>
