<svg width="20" height="20" viewBox="0 0 20 20" fill="none" xmlns="http://www.w3.org/2000/svg">
<path fill-rule="evenodd" clip-rule="evenodd" d="M18.3879 1.77539C19.3847 3.76941 19.2367 6.14506 18.0002 8H16.0002V19H1.50016C0.00464678 16.9063 0.00464678 14.0937 1.50016 12H4.00016V1H18.0002L18.3879 1.77539ZM2.6691 14C2.28241 14.9616 2.28241 16.0384 2.6691 17H2.78629C3.13878 16.0358 3.12936 14.9674 2.74528 14H2.6691ZM6.00016 17H14.0002V8H6.50016C6.30909 7.7325 6.14241 7.45301 6.00016 7.16504V17ZM7.6691 3C7.28241 3.9616 7.28241 5.0384 7.6691 6H7.76383C7.96918 5.05642 7.9817 4.08131 7.79508 3.13477L7.74528 3H7.6691ZM9.84391 3C10.0989 3.98685 10.1046 5.01681 9.8693 6H15.9992V3H9.84391ZM16.0002 6H16.7863C17.1388 5.03576 17.1294 3.96743 16.7453 3H16.0002V6Z" fill="black"/>
</svg>
