<svg width="20" height="20" viewBox="0 0 20 20" fill="none" xmlns="http://www.w3.org/2000/svg">
<path d="M3.00488 9.79785C3.11016 7.68264 4.85865 6 7 6H10V5.92773L10.0938 6H15V3.12891L8.70215 3.52246C5.49737 3.72276 3 6.38081 3 9.5918C3 9.66075 3.00259 9.72941 3.00488 9.79785ZM1 9.5918C1 5.32466 4.31832 1.79254 8.57715 1.52637L17 1V8H7C5.89543 8 5 8.89543 5 10C5 11.1046 5.89543 12 7 12V14C5.39362 14 4.00936 13.0526 3.37305 11.6865C4.1649 13.8423 6.1435 15.4397 8.55371 15.6494L14 16.124V16.2969L15.5576 15.2754L13.9062 14H7V12H12V10L19 15.4072L12 20V17.957L8.38086 17.6416C4.2052 17.2785 1.00018 13.7832 1 9.5918Z" fill="black"/>
</svg>
