<svg width="20" height="20" viewBox="0 0 20 20" fill="none" xmlns="http://www.w3.org/2000/svg">
<path d="M11 3C11 2.44772 10.5523 2 10 2C9.44772 2 9 2.44772 9 3C9 3.55228 9.44772 4 10 4V6C8.34315 6 7 4.65685 7 3C7 1.34315 8.34315 0 10 0C11.6569 0 13 1.34315 13 3C13 4.65685 11.6569 6 10 6V4C10.5523 4 11 3.55228 11 3Z" fill="black"/>
<path d="M11 17C11 16.4477 10.5523 16 10 16C9.44772 16 9 16.4477 9 17C9 17.5523 9.44772 18 10 18V20C8.34315 20 7 18.6569 7 17C7 15.3431 8.34315 14 10 14C11.6569 14 13 15.3431 13 17C13 18.6569 11.6569 20 10 20V18C10.5523 18 11 17.5523 11 17Z" fill="black"/>
<path d="M19 13H1V7H19V13ZM3 11H17V9H3V11Z" fill="black"/>
</svg>
