<svg width="20" height="20" viewBox="0 0 20 20" fill="none" xmlns="http://www.w3.org/2000/svg">
<path d="M9.59429 9.91609C9.93605 10.1678 10.1742 10.4895 10.3089 10.8811C10.4539 11.2727 10.5264 11.8182 10.5264 12.5175V14.5734C10.5264 15.2867 10.5315 15.7273 10.5419 15.8951C10.5626 16.049 10.6144 16.1818 10.6972 16.2937C10.8215 16.4895 11.0804 16.5874 11.474 16.5874C11.9716 16.5874 12.375 16.9908 12.375 17.4884V17.7758C12.375 18.3592 11.902 18.8322 11.3186 18.8322C10.604 18.8322 10.0914 18.7832 9.7807 18.6853C9.48037 18.6014 9.20592 18.4126 8.95737 18.1189C8.57419 17.6713 8.37741 16.9021 8.36706 15.8112V12.7692C8.36706 12.1539 8.3101 11.7063 8.19618 11.4266C8.16427 11.3404 8.06504 11.2635 7.93482 11.1959C7.41434 10.9258 7 10.4796 7 9.89314C7 9.32887 7.38078 8.88862 7.8914 8.64847C8.04272 8.5773 8.16081 8.49634 8.19618 8.4056C8.3101 8.12588 8.36706 7.67833 8.36706 7.06294V4.02098C8.37741 2.83217 8.61043 2.02098 9.06611 1.58741C9.30431 1.34965 9.55804 1.1958 9.82731 1.12587C10.1069 1.04196 10.5212 1 11.0701 1H11.2631C11.8772 1 12.375 1.49781 12.375 2.11189V2.32277C12.375 2.82038 11.9716 3.22378 11.474 3.22378C11.0701 3.22378 10.806 3.32867 10.6817 3.53846C10.6092 3.66434 10.5626 3.81119 10.5419 3.97902C10.5315 4.13287 10.5264 4.55245 10.5264 5.23776V7.31469C10.5264 8.01399 10.459 8.55245 10.3244 8.93007C10.1898 9.3077 9.94641 9.63637 9.59429 9.91609Z" fill="black"/>
</svg>
