<svg width="20" height="20" viewBox="0 0 20 20" fill="none" xmlns="http://www.w3.org/2000/svg">
<path d="M14 2.00003C16.7614 2.00003 19 4.23861 19 7.00003C19 8.63584 18.2134 10.0868 16.999 10.9991L17 11L10.0713 18L2.99998 11V10.9991C1.7859 10.0868 0.999985 8.63556 0.999985 7.00003C0.999985 4.23861 3.23856 2.00003 5.99998 2.00003C7.63572 2.00003 9.08777 2.78568 9.99998 4.00003C10.9122 2.7857 12.3642 2.00003 14 2.00003ZM14 4.00003C13.1097 4.00003 12.3125 4.38963 11.7637 5.00589L11.7578 5.00003L9.99608 6.68167L8.24217 5.00003L8.23631 5.00491C7.68759 4.38888 6.89005 4.00003 5.99998 4.00003C4.34313 4.00003 2.99998 5.34318 2.99998 7.00003C2.99998 7.89013 3.38971 8.68671 4.00584 9.23538L3.99998 9.24222L7.5078 12.6084L10.0713 15.1719L12.1826 13.0596L14.5 11L14.334 10.8409L16 9.24222L15.9931 9.23538C16.6098 8.68695 17 7.89047 17 7.00003C17 5.34318 15.6568 4.00003 14 4.00003Z" fill="black"/>
<path d="M14.5 12L8.99998 16.5L17.5 7.50003L14.5 12Z" fill="black"/>
</svg>
