<svg width="20" height="20" viewBox="0 0 20 20" fill="none" xmlns="http://www.w3.org/2000/svg">
<path d="M3.77393 9.00006H1.9165C1.91653 12.8659 4.82681 16.0001 8.4165 16.0001C12.0062 16.0001 14.9165 12.8659 14.9165 9.00006H16.0005L14.021 6.00006L12.0005 9.00006H13.0591C13.0591 11.7613 10.9806 13.9991 8.4165 13.9991V12.2374C9.37167 12.2374 10.2981 11.6773 10.8325 10.7618H8.69092L14.0356 2.82428L19.2729 10.7618H16.5083C15.7478 14.679 12.5031 17.7618 8.4165 17.7618C3.73333 17.7618 0.154823 13.7135 0.154785 9.00006V7.23834H5.53564V9.00006C5.53568 10.9134 6.94564 12.2374 8.4165 12.2374V13.9991C5.85245 13.9991 3.77396 11.7613 3.77393 9.00006Z" fill="black"/>
</svg>
