<svg width="20" height="20" viewBox="0 0 20 20" fill="none" xmlns="http://www.w3.org/2000/svg">
<mask id="path-1-inside-1_379_366" fill="white">
<path d="M19.083 7H17V18H2V12H11V7H9.08301L14.083 1L19.083 7Z"/>
</mask>
<path d="M19.083 7V9H23.3531L20.6194 5.71963L19.083 7ZM17 7V5H15V7H17ZM17 18V20H19V18H17ZM2 18H0V20H2V18ZM2 12V10H0V12H2ZM11 12V14H13V12H11ZM11 7H13V5H11V7ZM9.08301 7L7.54657 5.71963L4.81292 9H9.08301V7ZM14.083 1L15.6195 -0.280369L14.083 -2.1241L12.5466 -0.280369L14.083 1ZM19.083 7V5H17V7V9H19.083V7ZM17 7H15V18H17H19V7H17ZM17 18V16H2V18V20H17V18ZM2 18H4V12H2H0V18H2ZM2 12V14H11V12V10H2V12ZM11 12H13V7H11H9V12H11ZM11 7V5H9.08301V7V9H11V7ZM9.08301 7L10.6195 8.28037L15.6195 2.28037L14.083 1L12.5466 -0.280369L7.54657 5.71963L9.08301 7ZM14.083 1L12.5466 2.28037L17.5466 8.28037L19.083 7L20.6194 5.71963L15.6195 -0.280369L14.083 1Z" fill="black" mask="url(#path-1-inside-1_379_366)"/>
</svg>
