<svg width="20" height="20" viewBox="0 0 20 20" fill="none" xmlns="http://www.w3.org/2000/svg">
<path d="M3 16.802L2.99481 16.924C2.94367 17.5286 2.51757 18 2 18C1.48243 18 1.05633 17.5286 1.00519 16.924L1 16.802V3.19925C1 2.53723 1.44797 2 2 2C2.55203 2 3 2.53723 3 3.19925V16.802Z" fill="black"/>
<path d="M4.80199 16L4.92404 16.0052C5.52855 16.0563 6 16.4824 6 17C6 17.5176 5.52855 17.9437 4.92404 17.9948L4.80199 18H2.19925C1.53723 18 1 17.552 1 17C1 16.448 1.53723 16 2.19925 16H4.80199Z" fill="black"/>
<path d="M4.80199 2L4.92404 2.00519C5.52855 2.05633 6 2.48243 6 3C6 3.51757 5.52855 3.94367 4.92404 3.99481L4.80199 4H2.19925C1.53723 4 1 3.55203 1 3C1 2.44797 1.53723 2 2.19925 2L4.80199 2Z" fill="black"/>
<path d="M17 16.802L17.0052 16.924C17.0563 17.5286 17.4824 18 18 18C18.5176 18 18.9437 17.5286 18.9948 16.924L19 16.802V3.19925C19 2.53723 18.552 2 18 2C17.448 2 17 2.53723 17 3.19925V16.802Z" fill="black"/>
<path d="M15.198 16L15.076 16.0052C14.4714 16.0563 14 16.4824 14 17C14 17.5176 14.4714 17.9437 15.076 17.9948L15.198 18H17.8007C18.4628 18 19 17.552 19 17C19 16.448 18.4628 16 17.8007 16H15.198Z" fill="black"/>
<path d="M15.198 2L15.076 2.00519C14.4714 2.05633 14 2.48243 14 3C14 3.51757 14.4714 3.94367 15.076 3.99481L15.198 4H17.8007C18.4628 4 19 3.55203 19 3C19 2.44797 18.4628 2 17.8007 2L15.198 2Z" fill="black"/>
</svg>
