<svg width="20" height="20" viewBox="0 0 20 20" fill="none" xmlns="http://www.w3.org/2000/svg">
<path d="M19 1V19H1V1H19ZM3 17H17V3H3V17Z" fill="black"/>
<path d="M6 7.93502C6.00006 7.04225 6.31322 6.17751 6.88477 5.49166L7.06641 5.27389C8.33908 3.74667 10.6201 3.56635 12.1162 4.87545C13.6569 6.22352 13.7355 8.59382 12.2881 10.0415L11 10.9141V13H9V10.0415L10.874 8.6274C11.5034 7.99787 11.4687 6.96756 10.7988 6.38131C10.1482 5.81201 9.15699 5.89002 8.60352 6.55416L8.4209 6.77193C8.14888 7.09835 8.00006 7.51012 8 7.93502V8.91549H6V7.93502Z" fill="black"/>
<circle cx="10" cy="15" r="1" fill="black"/>
</svg>
