<svg width="20" height="20" viewBox="0 0 20 20" fill="none" xmlns="http://www.w3.org/2000/svg">
<path d="M10 1C13.9274 1 18 2.79086 18 5C18 7.20914 13.9274 9 10 9V7C11.7519 7 13.5109 6.5947 14.7752 5.98828C15.4109 5.68336 15.8349 5.36933 16.0712 5.11426C16.1115 5.0707 16.1404 5.03108 16.1641 5C16.1404 4.96892 16.1115 4.9293 16.0712 4.88574C15.8349 4.63067 15.4109 4.31664 14.7752 4.01172C13.5109 3.4053 11.7519 3 10 3C8.24812 3 6.48914 3.4053 5.22483 4.01172C4.58914 4.31664 4.16507 4.63067 3.92882 4.88574C3.88828 4.92952 3.85882 4.96883 3.83507 5C3.85882 5.03118 3.88828 5.07048 3.92882 5.11426C4.16507 5.36933 4.58914 5.68336 5.22483 5.98828C6.48914 6.5947 8.24812 7 10 7V9C6.07264 9 2 7.20914 2 5C2 2.79086 6.07264 1 10 1Z" fill="black"/>
<path d="M2 14V5H4V14C4 14.5217 4.44895 15.2629 5.79004 15.9336C7.07164 16.5744 7.91244 17 10 17C12.0876 17 12.9284 16.5744 14.21 15.9336C15.551 15.2629 16 14.5217 16 14V4.5H18V14C18 15.6872 16.6583 16.9456 15.1045 17.7227C13.4907 18.5296 12.3307 19 10 19C7.66928 19 6.50934 18.5296 4.89551 17.7227C3.34167 16.9456 2 15.6872 2 14Z" fill="black"/>
</svg>
