<svg width="20" height="20" viewBox="0 0 20 20" fill="none" xmlns="http://www.w3.org/2000/svg">
<path d="M19 1V19H1V1H19ZM3 17H17V3H3V17Z" fill="black"/>
<path d="M14 10C14 7.79086 12.2091 6 10 6C7.79086 6 6 7.79086 6 10C6 12.2091 7.79086 14 10 14V16C6.68629 16 4 13.3137 4 10C4 6.68629 6.68629 4 10 4C13.3137 4 16 6.68629 16 10C16 13.3137 13.3137 16 10 16V14C12.2091 14 14 12.2091 14 10Z" fill="black"/>
<path d="M11 7.5C11 8.05228 10.5523 8.5 10 8.5C9.44772 8.5 9 8.05228 9 7.5C9 6.94772 9.44772 6.5 10 6.5C10.5523 6.5 11 6.94772 11 7.5Z" fill="black"/>
<rect x="9" y="9" width="2" height="4" fill="black"/>
</svg>
