<svg width="20" height="20" viewBox="0 0 20 20" fill="none" xmlns="http://www.w3.org/2000/svg">
<path d="M17 13H14V11H15V6H5V7H3V4H17V13Z" fill="black"/>
<path d="M20 10H17V8H18V3H8V4H6V1H20V10Z" fill="black"/>
<path d="M14 16C12.4151 15.683 10.7709 16.0831 9.50879 17.0928L9 17.5C7.28733 19.2127 4.66469 19.5986 2.53906 18.4756L2.33496 18.3623L0 17V7H14V16ZM2 15.8506L3.34277 16.6348C4.71754 17.4367 6.46053 17.2113 7.58594 16.0859L7.66406 16.0078L7.75098 15.9385L8.25977 15.5312C9.34889 14.6599 10.6463 14.1215 12 13.9521V9H2V15.8506Z" fill="black"/>
</svg>
