<svg width="20" height="20" viewBox="0 0 20 20" fill="none" xmlns="http://www.w3.org/2000/svg">
<path d="M1.2 15.7942L1.2789 15.7998L11.7697 15.7998L12.2 15.8752L12.2 18.3153L12.2846 18.4518L12.4934 18.585L12.742 18.7269L12.9957 18.8556L13.254 18.9711L13.5163 19.0734L13.7823 19.1626L14.0513 19.2386L14.323 19.3014L14.5967 19.351L14.8721 19.3875L15.1486 19.4108L15.4258 19.4209L15.703 19.4178L15.98 19.4016L16.256 19.3722L16.5307 19.3296L16.8035 19.2738L17.074 19.2049L17.3417 19.1228L17.606 19.0275L17.8665 18.919L18.1227 18.7974L18.3741 18.6626L18.6203 18.5146L18.785 18.4041L18.8 18.2285L18.8 4.2735L18.7921 4.1998L8.157 4.1998L7.8 4.0378L7.8 2.2069L7.7345 2.0679L7.5368 1.9486L7.2861 1.8131L7.0305 1.6901L6.7705 1.5799L6.5065 1.4823L6.2391 1.3974L5.9686 1.3253L5.6956 1.2659L5.4205 1.2193L5.1438 1.1855L4.8659 1.1646L4.5873 1.1566L4.3084 1.1615L4.0298 1.1793L3.7519 1.2101L3.4752 1.2539L3.2 1.3107L2.927 1.3805L2.6565 1.4634L2.389 1.5595L2.125 1.6687L1.8627 1.7921L1.6044 1.9212L1.3458 2.0505L1.2 2.1271ZM7.2807 14.1998L6.4825 14.1258L7.2209 13.7466L7.345 13.679L7.4679 13.6082L7.5895 13.5341L7.7096 13.4567L7.7861 13.4048L7.8 13.3761L7.8 5.9711L8.0097 5.7998L16.964 5.7998L17.2 5.9424L17.2 14.1998ZM14.0162 17.0342L14.0995 17.0042L14.1832 16.9759L14.2673 16.9493L14.3518 16.9244L14.4367 16.9013L14.5218 16.8799L14.6072 16.8603L14.6929 16.8424L14.7788 16.8262L14.8649 16.8117L14.9513 16.7989L15.0377 16.7879L15.1243 16.7786L15.211 16.7709L15.2978 16.7651L15.3846 16.7609L15.4714 16.7584L15.5583 16.7576L15.6451 16.7586L15.7319 16.7613L15.8186 16.7656L15.9052 16.7717L15.9916 16.7794L16.0779 16.7889L16.164 16.8001L16.25 16.8129L16.3357 16.8275L16.4211 16.8437L16.5062 16.8617L16.5911 16.8813L16.6756 16.9026L16.7597 16.9256L16.8435 16.9503L16.9268 16.9767L17.04 17.015L17.2 17.1399L17.2 17.4405L17.0133 17.5407L16.9194 17.5754L16.836 17.6041L16.7523 17.6311L16.6681 17.6563L16.5835 17.6797L16.4986 17.7013L16.4133 17.7211L16.3278 17.7391L16.2419 17.7553L16.1558 17.7698L16.0695 17.7824L15.983 17.7933L15.8964 17.8023L15.8096 17.8096L15.7227 17.8151L15.6358 17.8188L15.5487 17.8207L15.4617 17.8208L15.3747 17.8191L15.2877 17.8156L15.2009 17.8103L15.1141 17.8033L15.0274 17.7944L14.9409 17.7838L14.8545 17.7714L14.7684 17.7572L14.6825 17.7412L14.5969 17.7234L14.5116 17.7038L14.4267 17.6824L14.342 17.6592L14.2578 17.6342L14.174 17.6075L14.0906 17.5789L14.0078 17.5486L13.7879 17.4629L13.8182 17.1101ZM2.819 12.1084L3.0218 12.0334L3.118 12.0043L3.2124 11.9867L3.2974 11.972L3.3824 11.9582L3.4676 11.9455L3.5529 11.9339L3.6383 11.9232L3.7238 11.9136L3.8094 11.905L3.895 11.8974L3.9807 11.8909L4.0665 11.8854L4.1523 11.8809L4.2381 11.8774L4.324 11.8749L4.4099 11.8735L4.4957 11.8731L4.5816 11.8737L4.6675 11.8753L4.7533 11.8779L4.8391 11.8816L4.9249 11.8862L5.0107 11.8919L5.0963 11.8986L5.1819 11.9063L5.2675 11.915L5.3529 11.9247L5.4383 11.9354L5.5235 11.9471L5.6087 11.9598L5.6937 11.9735L5.7786 11.9883L5.8634 12.004L5.948 12.0208L6.1704 12.0675L6.2133 12.3997L6.0381 12.5313L5.9298 12.5716L5.8462 12.6007L5.7622 12.628L5.6778 12.6535L5.593 12.6772L5.5078 12.699L5.4222 12.7191L5.3364 12.7374L5.2503 12.7538L5.1639 12.7685L5.0773 12.7813L4.9905 12.7924L4.9036 12.8016L4.8165 12.8091L4.7293 12.8147L4.642 12.8186L4.5547 12.8206L4.4674 12.8208L4.38 12.8192L4.2927 12.8159L4.2055 12.8107L4.1184 12.8037L4.0314 12.7949L3.9446 12.7843L3.8579 12.7719L3.7715 12.7577L3.6853 12.7417L3.5994 12.7239L3.5138 12.7043L3.4285 12.6829L3.3436 12.6596L3.259 12.6346L3.1749 12.6078L3.0912 12.5791L3.0081 12.5487L2.7875 12.4627ZM2.8 3.9905L2.8 3.31L2.8323 3.1045L3.0217 3.0322L3.1052 3.0022L3.1891 2.9739L3.2734 2.9474L3.3581 2.9227L3.4431 2.8997L3.5284 2.8784L3.614 2.8588L3.6998 2.841L3.7859 2.8249L3.8722 2.8105L3.9587 2.7979L4.0453 2.787L4.132 2.7778L4.2189 2.7703L4.3058 2.7646L4.3928 2.7606L4.4798 2.7583L4.5668 2.7577L4.6538 2.7588L4.7407 2.7616L4.8275 2.7662L4.9142 2.7724L5.0008 2.7804L5.0873 2.79L5.1735 2.8014L5.2596 2.8145L5.3454 2.8292L5.4309 2.8457L5.5162 2.8639L5.6011 2.8837L5.6858 2.9053L5.77 2.9286L5.8539 2.9535L5.9373 2.9801L6.0675 3.0246L6.2 3.1714L6.2 3.9686L6.2 4.1998L6.2 10.0971L6.1165 10.3624L5.8563 10.3028L5.7771 10.2858L5.6978 10.2698L5.6183 10.255L5.5386 10.2411L5.4588 10.2284L5.3789 10.2168L5.2988 10.2062L5.2186 10.1967L5.1384 10.1882L5.058 10.1809L4.9775 10.1746L4.897 10.1694L4.8164 10.1653L4.7357 10.1622L4.655 10.1603L4.5743 10.1594L4.4936 10.1596L4.4128 10.1609L4.3321 10.1633L4.2514 10.1667L4.1707 10.1713L4.0901 10.1769L4.0095 10.1836L3.9289 10.1915L3.8484 10.2004L3.7681 10.2104L3.6878 10.2215L3.6076 10.2337L3.5275 10.247L3.4475 10.2613L3.3677 10.2768L3.2881 10.2934L3.2085 10.3111L3.1292 10.3299L2.8 10.4125L2.8 4.1784Z" fill="black" fill-rule="evenodd"/>
</svg>
