<svg width="20" height="20" viewBox="0 0 20 20" fill="none" xmlns="http://www.w3.org/2000/svg">
<path d="M17 10C17 13.9274 15.2091 18 13 18C10.7909 18 9 13.9274 9 10H11C11 11.7519 11.4053 13.5109 12.0117 14.7752C12.3166 15.4109 12.6307 15.8349 12.8857 16.0712C12.9293 16.1115 12.9689 16.1404 13 16.1641C13.0311 16.1404 13.0707 16.1115 13.1143 16.0712C13.3693 15.8349 13.6834 15.4109 13.9883 14.7752C14.5947 13.5109 15 11.7519 15 10C15 8.24812 14.5947 6.48914 13.9883 5.22483C13.6834 4.58914 13.3693 4.16507 13.1143 3.92882C13.0705 3.88828 13.0312 3.85882 13 3.83507C12.9688 3.85882 12.9295 3.88828 12.8857 3.92882C12.6307 4.16507 12.3166 4.58914 12.0117 5.22483C11.4053 6.48914 11 8.24812 11 10H9C9 6.07264 10.7909 2 13 2C15.2091 2 17 6.07264 17 10Z" fill="black"/>
<path d="M8 2H13V4H8C7.47831 4 6.73706 4.44895 6.06641 5.79004C5.42561 7.07164 5 7.91244 5 10C5 12.0876 5.42561 12.9284 6.06641 14.21C6.73706 15.551 7.47831 16 8 16H13.5V18H8C6.31275 18 5.05437 16.6583 4.27734 15.1045C3.47043 13.4907 3 12.3307 3 10C3 7.66928 3.47043 6.50934 4.27734 4.89551C5.05437 3.34167 6.31275 2 8 2Z" fill="black"/>
</svg>
