<svg width="20" height="20" viewBox="0 0 20 20" fill="none" xmlns="http://www.w3.org/2000/svg">
<path d="M18 4V16H2V4H18ZM3.5 14.5H16.5V5.5H3.5V14.5Z" fill="black"/>
<path d="M1 3H5V7H1V3Z" fill="white"/>
<path d="M5 3V7H1V3H5ZM2 6H4V4H2V6Z" fill="black"/>
<path d="M15 3H19V7H15V3Z" fill="white"/>
<path d="M19 3V7H15V3H19ZM16 6H18V4H16V6Z" fill="black"/>
<path d="M15 13H19V17H15V13Z" fill="white"/>
<path d="M19 13V17H15V13H19ZM16 16H18V14H16V16Z" fill="black"/>
<path d="M1 13H5V17H1V13Z" fill="white"/>
<path d="M5 13V17H1V13H5ZM2 16H4V14H2V16Z" fill="black"/>
<path d="M13.1858 14C12.8678 14 12.5814 13.8076 12.4612 13.5133L11.892 12.12H8.412L7.81627 13.5341C7.69734 13.8164 7.4208 14 7.11444 14C6.57847 14 6.21019 13.4611 6.40493 12.9617L8.73684 6.98245C8.96788 6.39004 9.53865 6 10.1745 6C10.8119 6 11.3836 6.39182 11.6137 6.9862L13.9158 12.9348C14.1143 13.4477 13.7358 14 13.1858 14ZM8.88 10.8H11.424L10.236 7.404H10.092L8.88 10.8Z" fill="black"/>
</svg>
