<svg width="20" height="20" viewBox="0 0 20 20" fill="none" xmlns="http://www.w3.org/2000/svg">
<path d="M19.8384 9.06158H17.4858C16.7507 5.70841 13.9647 3.06158 10.4165 3.06158C6.86834 3.06158 4.08235 5.70841 3.34717 9.06158H1.13623L5.51514 17L10.2083 9.06158H8.87158C9.28814 8.57566 9.85891 8.29987 10.4165 8.29987C10.9741 8.29987 11.5449 8.57566 11.9614 9.06158H10.8113L15.5151 17.001L19.8384 9.06158ZM13.5 10.8234L14.3442 10.8233C14.3442 8.45649 12.5861 6.53815 10.4165 6.53815C8.24692 6.53815 6.4888 8.45649 6.48877 10.8233L7.5 10.8234L5.51514 13.8233L3.99951 10.8233H4.9165C4.91653 7.50975 7.37908 4.8233 10.4165 4.8233C13.4539 4.8233 15.9165 7.50975 15.9165 10.8233H17.0005L15.5151 13.8233L13.5 10.8234Z" fill="black"/>
</svg>
