<svg width="20" height="20" viewBox="0 0 20 20" fill="none" xmlns="http://www.w3.org/2000/svg">
<defs>
<clipPath id="shape-folder-corner-icon-clip-0"><path d="M17 3H3V20C1.89543 20 1 19.1046 1 18V3C1 1.89543 1.89543 1 3 1H17C18.1046 1 19 1.89543 19 3V13L12 20H3V18H11.1719L17 12.1719V3Z"/></clipPath>
<clipPath id="shape-folder-corner-icon-clip-1"><path d="M12 14C12 13.4477 12.4477 13 13 13H18V11H13C11.3431 11 10 12.3431 10 14V19H12V14Z"/></clipPath>
</defs>
<path d="M17 3H3V20C1.89543 20 1 19.1046 1 18V3C1 1.89543 1.89543 1 3 1H17C18.1046 1 19 1.89543 19 3V13L12 20H3V18H11.1719L17 12.1719V3Z" fill="none" stroke="black" stroke-width="3.2" stroke-linejoin="miter" clip-path="url(#shape-folder-corner-icon-clip-0)"/>
<path d="M12 14C12 13.4477 12.4477 13 13 13H18V11H13C11.3431 11 10 12.3431 10 14V19H12V14Z" fill="none" stroke="black" stroke-width="3.2" stroke-linejoin="miter" clip-path="url(#shape-folder-corner-icon-clip-1)"/>
</svg>
