<svg width="20" height="20" viewBox="0 0 20 20" fill="none" xmlns="http://www.w3.org/2000/svg">
<mask id="path-1-inside-1_379_219" fill="white">
<path d="M10 1.00098L2 10.001H6.00098V19.001H14.001V10.001H18L10 1.00098Z"/>
</mask>
<path d="M10 1.00098L8.50518 -0.327751L10 -2.00942L11.4948 -0.327751L10 1.00098ZM2 10.001V12.001H-2.45369L0.505182 8.67225L2 10.001ZM6.00098 10.001V8.00098H8.00098V10.001H6.00098ZM6.00098 19.001V21.001H4.00098V19.001H6.00098ZM14.001 19.001H16.001V21.001H14.001V19.001ZM14.001 10.001H12.001V8.00098H14.001V10.001ZM18 10.001L19.4948 8.67225L22.4537 12.001H18V10.001ZM10 1.00098L11.4948 2.3297L3.49482 11.3297L2 10.001L0.505182 8.67225L8.50518 -0.327751L10 1.00098ZM2 10.001V8.00098H6.00098V10.001V12.001H2V10.001ZM6.00098 10.001H8.00098V19.001H6.00098H4.00098V10.001H6.00098ZM6.00098 19.001V17.001H14.001V19.001V21.001H6.00098V19.001ZM14.001 19.001H12.001V10.001H14.001H16.001V19.001H14.001ZM14.001 10.001V8.00098H18V10.001V12.001H14.001V10.001ZM18 10.001L16.5052 11.3297L8.50518 2.3297L10 1.00098L11.4948 -0.327751L19.4948 8.67225L18 10.001Z" fill="black" mask="url(#path-1-inside-1_379_219)"/>
</svg>
