<svg width="20" height="20" viewBox="0 0 20 20" fill="none" xmlns="http://www.w3.org/2000/svg">
<mask id="path-1-inside-1_379_199" fill="white">
<path d="M19 10.001L10 18.001V14H1V6H10V2.00098L19 10.001Z"/>
</mask>
<path d="M19 10.001L20.3287 11.4958L22.0104 10.001L20.3287 8.50616L19 10.001ZM10 18.001H8V22.4547L11.3287 19.4958L10 18.001ZM10 14H12V12H10V14ZM1 14H-1V16H1V14ZM1 6V4H-1V6H1ZM10 6V8H12V6H10ZM10 2.00098L11.3287 0.506158L8 -2.45271V2.00098H10ZM19 10.001L17.6713 8.50616L8.67127 16.5062L10 18.001L11.3287 19.4958L20.3287 11.4958L19 10.001ZM10 18.001H12V14H10H8V18.001H10ZM10 14V12H1V14V16H10V14ZM1 14H3V6H1H-1V14H1ZM1 6V8H10V6V4H1V6ZM10 6H12V2.00098H10H8V6H10ZM10 2.00098L8.67127 3.4958L17.6713 11.4958L19 10.001L20.3287 8.50616L11.3287 0.506158L10 2.00098Z" fill="black" mask="url(#path-1-inside-1_379_199)"/>
</svg>
