<svg width="20" height="20" viewBox="0 0 20 20" fill="none" xmlns="http://www.w3.org/2000/svg">
<path d="M14 4.41602C13.4257 4.28505 12.8278 4.21387 12.2139 4.21387C12.1423 4.21387 12.0711 4.21688 12 4.21875V3H3V12H4.21973C4.21786 12.0711 4.21387 12.1423 4.21387 12.2139C4.21387 12.8279 4.286 13.4256 4.41699 14H1V1H14V4.41602Z" fill="black"/>
<path d="M17 12C17 9.23858 14.7614 7 12 7C9.23858 7 7 9.23858 7 12C7 14.7614 9.23858 17 12 17V19C8.13401 19 5 15.866 5 12C5 8.13401 8.13401 5 12 5C15.866 5 19 8.13401 19 12C19 15.866 15.866 19 12 19V17C14.7614 17 17 14.7614 17 12Z" fill="black"/>
</svg>
