<svg width="20" height="20" viewBox="0 0 20 20" fill="none" xmlns="http://www.w3.org/2000/svg">
<path d="M10 1C14.9706 1 19 5.02944 19 10C19 14.9706 14.9706 19 10 19C5.02944 19 1 14.9706 1 10C1 5.02944 5.02944 1 10 1ZM10 3C6.13401 3 3 6.13401 3 10C3 13.866 6.13401 17 10 17C13.866 17 17 13.866 17 10C17 6.13401 13.866 3 10 3Z" fill="black"/>
<path d="M11 16.802L10.9948 16.924C10.9437 17.5286 10.5176 18 10 18C9.48243 18 9.05633 17.5286 9.00519 16.924L9 16.802V3.19925C9 2.53723 9.44797 2 10 2C10.552 2 11 2.53723 11 3.19925V16.802Z" fill="black"/>
<path d="M3.19801 11L3.07596 10.9948C2.47145 10.9437 2 10.5176 2 10C2 9.48243 2.47145 9.05633 3.07596 9.00519L3.19801 9H16.8007C17.4628 9 18 9.44797 18 10C18 10.552 17.4628 11 16.8007 11H3.19801Z" fill="black"/>
</svg>
