<svg width="20" height="20" viewBox="0 0 20 20" fill="none" xmlns="http://www.w3.org/2000/svg">
<path d="M7 2H15V4H7C6.47831 4 4.73706 4.44895 4.06641 5.79004C3.42561 7.07164 3 7.91244 3 10C3 12.0876 3.42561 12.9284 4.06641 14.21C4.73706 15.551 6.47831 16 7 16H15V18H7C5.31275 18 3.05437 16.6583 2.27734 15.1045C1.47043 13.4907 1 12.3307 1 10C1 7.66928 1.47043 6.50934 2.27734 4.89551C3.05437 3.34167 5.31275 2 7 2Z" fill="black"/>
<path d="M11 9.99999C11 7.7541 11.8394 5.82395 12.6426 4.48534C13.047 3.81132 13.4513 3.27184 13.7568 2.89842C13.9099 2.71139 14.0397 2.56482 14.1328 2.46288C14.1794 2.41187 14.2169 2.37116 14.2441 2.34276C14.2574 2.3289 14.2682 2.31785 14.2764 2.30956C14.2805 2.30536 14.2844 2.30153 14.2871 2.29881C14.2884 2.29749 14.2891 2.29588 14.29 2.29491L14.292 2.29393V2.29295C14.2922 2.29276 14.2938 2.29393 14.6484 2.64842L14.293 2.29295C14.6835 1.90243 15.3165 1.90243 15.707 2.29295C16.0974 2.68332 16.0971 3.31548 15.707 3.70604L15.7061 3.70799C15.7029 3.7112 15.6969 3.7178 15.6885 3.72655C15.6717 3.74404 15.6446 3.77194 15.6094 3.81053C15.5385 3.88819 15.4336 4.00765 15.3057 4.16405C15.0487 4.47808 14.7028 4.93901 14.3574 5.51463C13.6606 6.67601 13 8.24595 13 9.99999C13 12.019 13.6717 13.586 14.3457 14.6533C14.6829 15.1872 15.0185 15.5925 15.2656 15.8603C15.389 15.994 15.4903 16.0929 15.5566 16.1553C15.5896 16.1863 15.6135 16.2089 15.6279 16.2217C15.6352 16.2281 15.6405 16.2316 15.6426 16.2334L15.6416 16.2324C16.0648 16.5862 16.1218 17.2167 15.7686 17.6406C15.415 18.0648 14.7836 18.1221 14.3594 17.7685L15 17C14.3985 17.7217 14.3619 17.7652 14.3594 17.7676L14.3584 17.7666L14.3564 17.7656C14.3552 17.7646 14.3541 17.763 14.3525 17.7617C14.3494 17.759 14.3454 17.7558 14.3408 17.7519C14.3316 17.744 14.3192 17.7335 14.3047 17.7207C14.2752 17.6947 14.2344 17.6583 14.1855 17.6123C14.0879 17.5205 13.9545 17.3885 13.7969 17.2178C13.4816 16.8762 13.0669 16.375 12.6543 15.7217C11.8284 14.4139 11 12.4809 11 9.99999ZM15.709 3.70506L15.708 3.70702L15.709 3.70506Z" fill="black"/>
</svg>
