<svg width="20" height="20" viewBox="0 0 20 20" fill="none" xmlns="http://www.w3.org/2000/svg">
<path d="M16 3V13H4V3H16ZM6 11H14V5H6V11Z" fill="black"/>
<path d="M9 11V16H4V11H9ZM6 14H7V13H6V14Z" fill="black"/>
<path d="M16 11V16H11V11H16ZM13 14H14V13H13V14Z" fill="black"/>
<path d="M6 6V16H0L2 11L0 6H6ZM2.95508 14H4V11.3857L2.95508 14ZM4 10.6133V8H2.95508L4 10.6133Z" fill="black"/>
<path d="M18 11L20 16H14V6H20L18 11ZM16 14H17.0449L16 11.3857V14ZM16 10.6133L17.0449 8H16V10.6133Z" fill="black"/>
</svg>
