<svg width="20" height="20" viewBox="0 0 20 20" fill="none" xmlns="http://www.w3.org/2000/svg">
<path d="M7 1C7 4.31371 4.31371 7 1 7V1H7ZM3 4.46289C3.60673 4.11172 4.11276 3.60678 4.46387 3H3V4.46289Z" fill="black"/>
<path d="M1 13C4.31371 13 7 15.6863 7 19H1V13ZM3 17H4.46387C4.11268 16.3931 3.60692 15.8873 3 15.5361V17Z" fill="black"/>
<path d="M13 1C13 4.31371 15.6863 7 19 7V1H13ZM17 4.46289C16.3933 4.11172 15.8872 3.60678 15.5361 3H17V4.46289Z" fill="black"/>
<path d="M19 13C15.6863 13 13 15.6863 13 19H19V13ZM17 17H15.5361C15.8873 16.3931 16.3931 15.8873 17 15.5361V17Z" fill="black"/>
</svg>
