<svg width="20" height="20" viewBox="0 0 20 20" fill="none" xmlns="http://www.w3.org/2000/svg">
<path d="M9 1C13.9706 1 18 5.02944 18 10C18 11.0521 17.8181 12.0615 17.4863 13H20V19H9C4.02944 19 0 14.9706 0 10C0 5.02944 4.02944 1 9 1ZM9 3C5.13401 3 2 6.13401 2 10C2 13.866 5.13401 17 9 17H18V15H13.8955C14.5679 14.3418 15.1082 13.5499 15.4727 12.666C15.4801 12.6479 15.4868 12.6295 15.4941 12.6113C15.5314 12.5188 15.5672 12.4255 15.6006 12.3311C15.6111 12.3013 15.6207 12.2712 15.6309 12.2412C15.6605 12.1534 15.6886 12.0649 15.7148 11.9756C15.7246 11.9425 15.7339 11.9093 15.7432 11.876C15.7664 11.7923 15.7875 11.7079 15.8076 11.623C15.8166 11.5854 15.8256 11.5477 15.834 11.5098C15.8513 11.4311 15.8672 11.3521 15.8818 11.2725C15.8907 11.2241 15.8993 11.1757 15.9072 11.127C15.9201 11.0476 15.9313 10.9679 15.9414 10.8877C15.9466 10.8471 15.9526 10.8065 15.957 10.7656C15.9844 10.5141 16 10.2588 16 10C16 6.13401 12.866 3 9 3Z" fill="black"/>
</svg>
