<svg width="20" height="20" viewBox="0 0 20 20" fill="none" xmlns="http://www.w3.org/2000/svg">
<path d="M10 3C13.3137 3 16 4.11929 16 5.5C16 6.88071 13.3137 8 10 8V6C11.3372 6 12.4787 5.78783 13.2666 5.5C12.4787 5.21217 11.3372 5 10 5C8.66235 5 7.52031 5.21201 6.73242 5.5C7.52031 5.78799 8.66235 6 10 6V8C6.68629 8 4 6.88071 4 5.5C4 4.11929 6.68629 3 10 3Z" fill="black"/>
<path d="M10 0C15.5228 0 20 2.01472 20 4.5C20 4.6692 19.9769 4.83565 19.9365 5H20L15.1924 16.5381C14.319 18.6342 12.2708 20 10 20V18C11.4632 18 12.7838 17.1196 13.3467 15.7686L17.9385 4.74707L17.9941 4.52246C17.9972 4.51006 17.9983 4.50159 17.999 4.49707C17.9987 4.48926 17.9971 4.46607 17.9766 4.4209C17.9492 4.36063 17.8873 4.25694 17.7568 4.11816C17.4859 3.82987 17.0005 3.47934 16.25 3.1416C14.7533 2.46817 12.5454 2 10 2C7.45463 2 5.24671 2.46817 3.75 3.1416C2.99947 3.47934 2.51413 3.82987 2.24316 4.11816C2.11273 4.25694 2.05085 4.36063 2.02344 4.4209C2.00286 4.46615 2.00035 4.4893 2 4.49707C2.00069 4.50156 2.00278 4.50992 2.00586 4.52246L2.06055 4.74707L6.65332 15.7686C7.21625 17.1196 8.53678 18 10 18V20C7.72918 20 5.68101 18.6342 4.80762 16.5381L0 5H0.0634766C0.0230566 4.83565 0 4.6692 0 4.5C0 2.01472 4.47715 0 10 0Z" fill="black"/>
</svg>
