<svg width="20" height="20" viewBox="0 0 20 20" fill="none" xmlns="http://www.w3.org/2000/svg">
<rect x="2.8" y="4.8" width="14.4" height="10.4" stroke="black" stroke-width="1.6"/>
<rect x="1.5" y="3.5" width="3" height="3" fill="white" stroke="black" stroke-width="1.2"/>
<rect x="15.5" y="3.5" width="3" height="3" fill="white" stroke="black" stroke-width="1.2"/>
<rect x="15.5" y="13.5" width="3" height="3" fill="white" stroke="black" stroke-width="1.2"/>
<rect x="1.5" y="13.5" width="3" height="3" fill="white" stroke="black" stroke-width="1.2"/>
<path d="M13.1858 14C12.8678 14 12.5814 13.8076 12.4612 13.5133L11.892 12.12H8.412L7.81627 13.5341C7.69734 13.8164 7.4208 14 7.11444 14C6.57847 14 6.21019 13.4611 6.40493 12.9617L8.73684 6.98245C8.96788 6.39004 9.53865 6 10.1745 6C10.8119 6 11.3836 6.39182 11.6137 6.9862L13.9158 12.9348C14.1143 13.4477 13.7358 14 13.1858 14ZM8.88 10.8H11.424L10.236 7.404H10.092L8.88 10.8Z" fill="black"/>
</svg>
