<svg width="20" height="20" viewBox="0 0 20 20" fill="none" xmlns="http://www.w3.org/2000/svg">
<circle cx="8" cy="17" r="2" fill="black"/>
<circle cx="4" cy="19" r="1" fill="black"/>
<mask id="path-3-inside-1_376_54" fill="white">
<path d="M8 1C9.2853 1 10.457 1.42475 11.3428 2.12207C11.8615 1.96265 12.419 1.875 13 1.875C15.7614 1.875 18 3.83375 18 6.25C18 6.96644 17.801 7.64142 17.4521 8.23828C18.9433 8.74691 20 10.0153 20 11.5C20 13.433 18.2091 15 16 15C15.2712 15 14.5885 14.8283 14 14.5303C13.4115 14.8283 12.7288 15 12 15C10.4354 15 9.0812 14.2137 8.42383 13.0684C7.72298 14.226 6.45206 15 5 15C2.79086 15 1 13.2091 1 11C1 9.31993 2.03608 7.88253 3.50391 7.29004C3.18147 6.71156 3 6.06192 3 5.375C3 2.95875 5.23858 1 8 1Z"/>
</mask>
<path d="M11.3428 2.12207L10.1056 3.69352L10.9289 4.34162L11.9303 4.03381L11.3428 2.12207ZM17.4521 8.23828L15.7255 7.22897L14.4907 9.34129L16.8065 10.1312L17.4521 8.23828ZM14 14.5303L14.9035 12.746L14 12.2885L13.0965 12.746L14 14.5303ZM8.42383 13.0684L10.1584 12.0728L8.46977 9.13066L6.71293 12.0326L8.42383 13.0684ZM3.50391 7.29004L4.25252 9.14465L6.35442 8.29621L5.25086 6.31632L3.50391 7.29004ZM8 1V3C8.84606 3 9.57992 3.27966 10.1056 3.69352L11.3428 2.12207L12.5799 0.550616C11.3341 -0.430154 9.72455 -1 8 -1V1ZM11.3428 2.12207L11.9303 4.03381C12.261 3.93218 12.6206 3.875 13 3.875V1.875V-0.125C12.2174 -0.125 11.462 -0.00688779 10.7552 0.210326L11.3428 2.12207ZM13 1.875V3.875C14.9161 3.875 16 5.18083 16 6.25H18H20C20 2.48668 16.6068 -0.125 13 -0.125V1.875ZM18 6.25H16C16 6.58754 15.908 6.91678 15.7255 7.22897L17.4521 8.23828L19.1788 9.2476C19.6941 8.36606 20 7.34535 20 6.25H18ZM17.4521 8.23828L16.8065 10.1312C17.6518 10.4195 18 11.0324 18 11.5H20H22C22 8.99811 20.2348 7.07429 18.0978 6.34537L17.4521 8.23828ZM20 11.5H18C18 12.0859 17.3638 13 16 13V15V17C19.0545 17 22 14.7801 22 11.5H20ZM16 15V13C15.586 13 15.2128 12.9026 14.9035 12.746L14 14.5303L13.0965 16.3146C13.9642 16.7539 14.9563 17 16 17V15ZM14 14.5303L13.0965 12.746C12.7872 12.9026 12.414 13 12 13V15V17C13.0437 17 14.0358 16.7539 14.9035 16.3146L14 14.5303ZM12 15V13C11.0857 13 10.4275 12.5416 10.1584 12.0728L8.42383 13.0684L6.68924 14.0639C7.73492 15.8858 9.78514 17 12 17V15ZM8.42383 13.0684L6.71293 12.0326C6.35909 12.6171 5.72319 13 5 13V15V17C7.18093 17 9.08687 15.835 10.1347 14.1041L8.42383 13.0684ZM5 15V13C3.89543 13 3 12.1046 3 11H1H-1C-1 14.3137 1.68629 17 5 17V15ZM1 11H3C3 10.1638 3.5143 9.44263 4.25252 9.14465L3.50391 7.29004L2.75529 5.43543C0.557861 6.32242 -1 8.47608 -1 11H1ZM3.50391 7.29004L5.25086 6.31632C5.08501 6.01875 5 5.70236 5 5.375H3H1C1 6.42148 1.27794 7.40438 1.75695 8.26376L3.50391 7.29004ZM3 5.375H5C5 4.30583 6.08393 3 8 3V1V-1C4.39322 -1 1 1.61168 1 5.375H3Z" fill="black" mask="url(#path-3-inside-1_376_54)"/>
</svg>
