<svg width="20" height="20" viewBox="0 0 20 20" fill="none" xmlns="http://www.w3.org/2000/svg">
<path d="M12.667 5.51758L18 4.82715L14 8.96582L20 11.2139L14 12.4141L18 18.6211L10.667 15.1729L10 20L7.33301 15.8623L4 20V14.4824L0 14.1787L4 10.5L0 6.20703H5.33301V0.689453L9.6543 5.6416L12.667 0V5.51758ZM7.33301 8.20703H4.59668L6.83594 10.6094L4.74219 12.5332L6 12.6289V14.3281L7.51367 12.4502L8.75684 14.3789L9.05762 12.2061L12.543 13.8438L10.7275 11.0283L12.7334 10.626L10.4424 9.76855L12.5625 7.5752L12.5928 7.54297L10.7812 7.77734L10.0537 9.14062L7.33301 6.02344V8.20703Z" fill="black"/>
</svg>
