<svg width="20" height="20" viewBox="0 0 20 20" fill="none" xmlns="http://www.w3.org/2000/svg">
<path d="M17 10C17 6.13401 13.866 3 10 3C6.13401 3 3 6.13401 3 10C3 13.866 6.13401 17 10 17V19C5.02944 19 1 14.9706 1 10C1 5.02944 5.02944 1 10 1C14.9706 1 19 5.02944 19 10C19 14.9706 14.9706 19 10 19V17C13.866 17 17 13.866 17 10Z" fill="black"/>
<path d="M7.5 8C7.5 7.72386 7.27614 7.5 7 7.5C6.72386 7.5 6.5 7.72386 6.5 8C6.5 8.27614 6.72386 8.5 7 8.5V10C5.89543 10 5 9.10457 5 8C5 6.89543 5.89543 6 7 6C8.10457 6 9 6.89543 9 8C9 9.10457 8.10457 10 7 10V8.5C7.27614 8.5 7.5 8.27614 7.5 8Z" fill="black"/>
<path d="M13.5 8C13.5 7.72386 13.2761 7.5 13 7.5C12.7239 7.5 12.5 7.72386 12.5 8C12.5 8.27614 12.7239 8.5 13 8.5V10C11.8954 10 11 9.10457 11 8C11 6.89543 11.8954 6 13 6C14.1046 6 15 6.89543 15 8C15 9.10457 14.1046 10 13 10V8.5C13.2761 8.5 13.5 8.27614 13.5 8Z" fill="black"/>
<path d="M12.7881 12.2627C12.9191 11.8697 13.3443 11.6571 13.7373 11.7881C14.1303 11.9191 14.3429 12.3443 14.2119 12.7373C13.8704 13.7617 13.0365 14.3867 12.248 14.7451C11.4567 15.1048 10.5998 15.25 10 15.25C9.4002 15.25 8.54332 15.1048 7.75195 14.7451C6.96347 14.3867 6.12956 13.7617 5.78808 12.7373C5.6571 12.3443 5.86974 11.9191 6.26269 11.7881C6.65565 11.6571 7.08093 11.8697 7.21191 12.2627C7.37041 12.7382 7.78659 13.1133 8.37304 13.3799C8.95661 13.6451 9.59984 13.75 10 13.75C10.4002 13.75 11.0434 13.6451 11.627 13.3799C12.2134 13.1133 12.6296 12.7382 12.7881 12.2627Z" fill="black"/>
</svg>
