<svg width="20" height="20" viewBox="0 0 20 20" fill="none" xmlns="http://www.w3.org/2000/svg">
<path d="M11.3701 16.4824C13.3695 17.8488 15.8262 18.3191 18.1719 17.7848L19 17.5966V3.24558L18.5254 3.40775C16.0587 4.25061 13.3386 3.59267 11.5 1.70797C8.89655 -0.367702 5.32075 -0.563484 2.52441 1.18642L2.25684 1.36161L1 2.22051V15.5465L3.05469 15.078C4.56442 14.7341 6.12638 14.7129 7.64258 15.0139L7.94531 15.078L8.39258 15.1801C9.32213 15.3918 10.211 15.7568 11.0254 16.2592L11.3701 16.4824ZM17 15.9088C15.4182 16.086 13.8165 15.6904 12.4795 14.7766C11.3685 14.0174 10.1296 13.4759 8.82617 13.179L8.37891 13.0769C6.60882 12.6737 4.77812 12.6471 3 12.9968V3.31766L3.36621 3.06739C5.45852 1.6377 8.20002 1.7248 10.2021 3.27361C12.0378 5.08794 14.5189 5.98099 17 5.79525V15.9088Z" fill="black"/>
</svg>
