<svg width="20" height="20" viewBox="0 0 20 20" fill="none" xmlns="http://www.w3.org/2000/svg">
<path d="M10 10C10 7.78851 10.2842 6.31628 11.1055 4.75586C11.3083 4.37053 11.5387 3.98957 11.7891 3.60352C11.0376 3.84259 10.3374 4.15703 9.72168 4.55469C8.15529 5.56648 7 7.18852 7 10C7 12.8115 8.15529 14.4335 9.72168 15.4453C10.3642 15.8603 11.099 16.1841 11.8877 16.4268C11.6838 16.1082 11.489 15.7883 11.3105 15.4639C10.4522 13.9032 10 12.319 10 10ZM12 10C12 14 13.5 15 16 19C11.0294 19 5 17 5 10C5 3 11.0294 1 16 1C13 5.5 12 6 12 10Z" fill="black"/>
</svg>
