<svg width="20" height="20" viewBox="0 0 20 20" fill="none" xmlns="http://www.w3.org/2000/svg">
<path d="M14.8447 4.82715L17.0254 2.75879V5.51758L19.9092 7.49707L17.5 9.5L20 13.1035H15.6836L19.0381 18.6211L12.3301 15.1729L12.0566 17.9307L8.30566 17.2412L4.28125 20V15.8623H0L2.93945 11.7246L0 8.96582L4.5 8.5L2.93945 5.13477L7.63477 5.51758L7.5 2L11 4.5L12.0566 0L14.8447 4.82715ZM6.28125 16.2041L7.85547 15.125L10.2803 15.5703L10.3398 14.9756L10.6299 12.0498L13.2441 13.3936L13.6445 13.5986L12.1279 11.1035H16.1787L14.8115 9.13379L16.2217 7.96191L16.5977 7.64844L15.8936 7.16602L15.541 6.92383L14.3818 8.02441L12.8496 5.37109L12.2646 7.86133L9.65332 5.99609L9.71973 7.69336L6.19727 7.40625L6.31445 7.6582L7.49316 10.2012L4.70605 10.4893L4.56152 10.5039L5.58008 11.46L3.87402 13.8623H6.28125V16.2041Z" fill="black"/>
</svg>
