<svg width="20" height="20" viewBox="0 0 20 20" fill="none" xmlns="http://www.w3.org/2000/svg">
<mask id="path-1-inside-1_379_209" fill="white">
<path d="M1 10.001L10 18.001V14H19V6H10V2.00098L1 10.001Z"/>
</mask>
<path d="M1 10.001L-0.328728 11.4958L-2.0104 10.001L-0.328728 8.50616L1 10.001ZM10 18.001H12V22.4547L8.67127 19.4958L10 18.001ZM10 14H8V12H10V14ZM19 14H21V16H19V14ZM19 6V4H21V6H19ZM10 6V8H8V6H10ZM10 2.00098L8.67127 0.506158L12 -2.45271V2.00098H10ZM1 10.001L2.32873 8.50616L11.3287 16.5062L10 18.001L8.67127 19.4958L-0.328728 11.4958L1 10.001ZM10 18.001H8V14H10H12V18.001H10ZM10 14V12H19V14V16H10V14ZM19 14H17V6H19H21V14H19ZM19 6V8H10V6V4H19V6ZM10 6H8V2.00098H10H12V6H10ZM10 2.00098L11.3287 3.4958L2.32873 11.4958L1 10.001L-0.328728 8.50616L8.67127 0.506158L10 2.00098Z" fill="black" mask="url(#path-1-inside-1_379_209)"/>
</svg>
