<svg width="20" height="20" viewBox="0 0 20 20" fill="none" xmlns="http://www.w3.org/2000/svg">
<path d="M15.1426 12H16.4385L15.2188 10L16.4648 7.95508L15.1426 7.93945V4.92871H12V3.6084L10 4.8584L8 3.6084V4.92871H5.3457V8.05859L4.02832 8.01953L5.48926 10.0146L4 12H5.3457V15.0713H8V16.3906L10 15.1416L12 16.3906V15.0713H15.1426V12ZM17.1426 17.0713H14V20L10 17.5L6 20V17.0713H3.3457V14H0L3 10L0 5.90332L3.3457 6V2.92871H6V0L10 2.5L14 0V2.92871H17.1426V5.96484L20 6L17.5605 10L20 14H17.1426V17.0713Z" fill="black"/>
<path d="M12.9673 6.74968C13.0774 6.59315 13.2567 6.5 13.4481 6.5C13.7726 6.5 14.0357 6.7631 14.0357 7.08765V11.1275H14.5735C14.8091 11.1275 15 11.3184 15 11.5539C15 11.7895 14.8091 11.9804 14.5735 11.9804H14.0357V13.0357C14.0357 13.2921 13.8278 13.5 13.5714 13.5C13.315 13.5 13.1071 13.2921 13.1071 13.0357V11.9804H10.7671C10.3435 11.9804 10 11.6369 10 11.2133C10 11.0553 10.0487 10.9013 10.1396 10.7721L12.9673 6.74968ZM13.0804 7.85294L10.7946 11.1275H13.1071V7.85294H13.0804Z" fill="black"/>
<path d="M7.95546 6.5C8.5083 6.5 8.97172 6.68269 9.32944 7.06731C9.67903 7.45192 9.8579 7.94231 9.8579 8.54808C9.8579 9.14423 9.66277 9.68269 9.28879 10.1731C9.06115 10.4519 8.66277 10.8173 8.08554 11.2788C7.45952 11.7692 7.08554 12.2019 6.96359 12.5769H9.40449C9.65939 12.5769 9.86603 12.7836 9.86603 13.0385C9.86603 13.2934 9.65939 13.5 9.40449 13.5H6.53829C6.16701 13.5 5.85654 13.1957 5.93176 12.8321C6.017 12.4201 6.18595 12.0443 6.44326 11.7019C6.65464 11.4038 7.09367 10.9904 7.7522 10.4519C8.14245 10.125 8.41887 9.86538 8.58147 9.66346C8.84164 9.31731 8.97985 8.94231 8.97985 8.53846C8.97985 8.15385 8.89042 7.86538 8.71155 7.67308C8.53269 7.48077 8.2644 7.38462 7.92294 7.38462C7.55708 7.38462 7.28066 7.52885 7.09367 7.82692C6.9529 8.03503 6.86291 8.3082 6.81759 8.65365C6.78613 8.89346 6.59231 9.08654 6.35043 9.08654C6.10164 9.08654 5.89745 8.88275 5.92578 8.63557C5.99029 8.07296 6.1682 7.6079 6.45952 7.24038C6.83351 6.74038 7.33757 6.5 7.95546 6.5Z" fill="black"/>
</svg>
