<svg width="20" height="20" viewBox="0 0 20 20" fill="none" xmlns="http://www.w3.org/2000/svg">
<path d="M11.3701 2.08689C13.3695 0.753991 15.8262 0.295161 18.1719 0.816385L19 0.999979V15L18.5254 14.8418C16.0587 14.0195 13.3386 14.6614 11.5 16.5C8.89655 18.5249 5.32075 18.7159 2.52441 17.0088L2.25684 16.8379L1 16V2.99998L3.05469 3.45701C4.56442 3.79251 6.12638 3.81311 7.64258 3.51951L7.94531 3.45701L8.39258 3.3574C9.32213 3.15083 10.211 2.79473 11.0254 2.30467L11.3701 2.08689ZM17 2.64646C15.4182 2.47359 13.8165 2.85959 12.4795 3.75096C11.3685 4.49159 10.1296 5.0199 8.82617 5.30955L8.37891 5.40916C6.60882 5.80251 4.77812 5.82838 3 5.48728V14.9297L3.36621 15.1738C5.45852 16.5685 8.20002 16.4836 10.2021 14.9726C12.0378 13.2027 14.5189 12.3315 17 12.5127V2.64646Z" fill="black"/>
</svg>
