<svg width="20" height="20" viewBox="0 0 20 20" fill="none" xmlns="http://www.w3.org/2000/svg">
<path d="M17 10C17 6.13401 13.866 3 10 3C6.13401 3 3 6.13401 3 10C3 13.866 6.13401 17 10 17V19C5.02944 19 1 14.9706 1 10C1 5.02944 5.02944 1 10 1C14.9706 1 19 5.02944 19 10C19 14.9706 14.9706 19 10 19V17C13.866 17 17 13.866 17 10Z" fill="black"/>
<path d="M13.3224 14.2514L13.1352 14.4274C11.1578 16.1864 7.89165 15.8917 5.99995 14C4.04733 12.0474 4.04733 8.88155 5.99995 6.92893L13.3224 14.2514ZM7.06061 12.9393C8.0998 13.9785 9.64372 14.3103 10.9083 13.9586L6.23749 9.28779C5.79838 10.5212 6.07325 11.952 7.06061 12.9393Z" fill="black"/>
<path d="M14.4246 13.4246L14.6007 13.2375C16.3537 11.254 15.9627 7.89171 14.071 6C12.1184 4.04738 8.95258 4.04738 6.99996 6L14.4246 13.4246ZM13.0104 7.06066C13.7092 7.75948 14.1493 8.77564 14.216 9.80898C14.243 10.2269 14.2061 10.6256 14.1145 10.9932L9.35882 6.23754C10.5922 5.79843 12.023 6.0733 13.0104 7.06066Z" fill="black"/>
</svg>
