<svg width="20" height="20" viewBox="0 0 20 20" fill="none" xmlns="http://www.w3.org/2000/svg">
<path d="M11 3.94343L10.9948 3.84732C10.9437 3.37126 10.5176 3 10 3C9.48243 3 9.05633 3.37126 9.00519 3.84732L9 3.94343V16.0556C9 16.5769 9.44797 17 10 17C10.552 17 11 16.5769 11 16.0556V3.94343Z" fill="black"/>
<path d="M15.9218 17L16.0316 16.9948C16.5757 16.9437 17 16.5176 17 16C17 15.4824 16.5757 15.0563 16.0316 15.0052L15.9218 15H10.0793C9.4835 15 9 15.448 9 16C9 16.552 9.4835 17 10.0793 17H15.9218Z" fill="black"/>
<path d="M9.92179 5L10.0316 4.99481C10.5757 4.94367 11 4.51757 11 4C11 3.48243 10.5757 3.05633 10.0316 3.00519L9.92179 3L4.07933 3C3.4835 3 3 3.44797 3 4C3 4.55203 3.4835 5 4.07933 5L9.92179 5Z" fill="black"/>
<path d="M19.6819 16.2938C19.8534 16.1355 19.8534 15.8645 19.6819 15.7062L16.9214 13.1561C16.6652 12.9195 16.25 13.1012 16.25 13.45V18.55C16.25 18.8988 16.6652 19.0805 16.9214 18.8439L19.6819 16.2938Z" fill="black"/>
<path d="M0.31807 4.29382C0.146631 4.13545 0.146631 3.86455 0.318071 3.70618L3.07858 1.15613C3.33477 0.919469 3.75 1.10118 3.75 1.44995V6.55005C3.75 6.89882 3.33477 7.08053 3.07858 6.84387L0.31807 4.29382Z" fill="black"/>
</svg>
