<svg width="20" height="20" viewBox="0 0 20 20" fill="none" xmlns="http://www.w3.org/2000/svg">
<path d="M1.77539 1.61212C3.7694 0.615334 6.14507 0.763309 8 1.99982V3.99982H19V18.4998C16.9063 19.9953 14.0937 19.9953 12 18.4998V15.9998H1V1.99982L1.77539 1.61212ZM14 17.3309C14.9616 17.7176 16.0384 17.7176 17 17.3309V17.2137C16.0358 16.8612 14.9674 16.8706 14 17.2547V17.3309ZM17 13.9998V5.99982H8V13.4998C7.73251 13.6909 7.453 13.8576 7.16504 13.9998H17ZM3 12.3309C3.9616 12.7176 5.0384 12.7176 6 12.3309V12.2361C5.05643 12.0308 4.0813 12.0183 3.13477 12.2049L3 12.2547V12.3309ZM3 10.1561C3.98685 9.9011 5.01681 9.89534 6 10.1307V4.00079H3V10.1561ZM6 3.99982V3.21368C5.03577 2.86119 3.96742 2.87061 3 3.2547V3.99982H6Z" fill="black"/>
</svg>
