<svg width="20" height="20" viewBox="0 0 20 20" fill="none" xmlns="http://www.w3.org/2000/svg">
<mask id="path-1-inside-1_379_229" fill="white">
<path d="M10 19.001L2 10.001H6.00098V1.00098L14.001 1.00098V10.001H18L10 19.001Z"/>
</mask>
<path d="M10 19.001L8.50518 20.3297L10 22.0114L11.4948 20.3297L10 19.001ZM2 10.001V8.00098H-2.45369L0.505182 11.3297L2 10.001ZM6.00098 10.001V12.001H8.00098V10.001H6.00098ZM6.00098 1.00098V-0.999023H4.00098V1.00098H6.00098ZM14.001 1.00098L16.001 1.00098V-0.999023L14.001 -0.999023V1.00098ZM14.001 10.001H12.001V12.001H14.001V10.001ZM18 10.001L19.4948 11.3297L22.4537 8.00098H18V10.001ZM10 19.001L11.4948 17.6722L3.49482 8.67225L2 10.001L0.505182 11.3297L8.50518 20.3297L10 19.001ZM2 10.001V12.001H6.00098V10.001V8.00098H2V10.001ZM6.00098 10.001H8.00098V1.00098L6.00098 1.00098H4.00098V10.001H6.00098ZM6.00098 1.00098V3.00098L14.001 3.00098V1.00098V-0.999023L6.00098 -0.999023V1.00098ZM14.001 1.00098H12.001V10.001H14.001H16.001V1.00098L14.001 1.00098ZM14.001 10.001V12.001H18V10.001V8.00098H14.001V10.001ZM18 10.001L16.5052 8.67225L8.50518 17.6722L10 19.001L11.4948 20.3297L19.4948 11.3297L18 10.001Z" fill="black" mask="url(#path-1-inside-1_379_229)"/>
</svg>
