<svg width="20" height="20" viewBox="0 0 20 20" fill="none" xmlns="http://www.w3.org/2000/svg">
<path d="M9.79785 16.9951C7.68264 16.8898 6 15.1414 6 13V10H5.92773L6 9.90625V5H3.12891L3.52246 11.2979C3.72276 14.5026 6.38081 17 9.5918 17C9.66075 17 9.72941 16.9974 9.79785 16.9951ZM9.5918 19C5.32466 19 1.79254 15.6817 1.52637 11.4229L1 3H8V13C8 14.1046 8.89543 15 10 15C11.1046 15 12 14.1046 12 13H14C14 14.6064 13.0526 15.9906 11.6865 16.627C13.8423 15.8351 15.4397 13.8565 15.6494 11.4463L16.124 6H16.2969L15.2754 4.44238L14 6.09375V13H12V8H10L15.4072 1L20 8H17.957L17.6416 11.6191C17.2785 15.7948 13.7832 18.9998 9.5918 19Z" fill="black"/>
</svg>
