<svg width="20" height="20" viewBox="0 0 20 20" fill="none" xmlns="http://www.w3.org/2000/svg">
<path d="M13.8037 1.84277L18.458 6.92188L18.1572 13.8037L13.0781 18.458L6.19629 18.1572L1.54199 13.0781L1.84277 6.19629L6.92188 1.54199L13.8037 1.84277ZM3.80469 7.11133L3.57617 12.3379L7.11133 16.1953L12.3369 16.4238L16.1943 12.8887L16.4229 7.66211L12.8887 3.80566L7.66113 3.57715L3.80469 7.11133Z" fill="black"/>
<path d="M7.25625 6.594C7.25625 6.26594 7.5222 6 7.85025 6H12.1322C12.6204 6 13.0163 6.39582 13.0163 6.8841C13.0163 6.99764 12.9944 7.11011 12.9518 7.21538L10.1416 14.1688C10.0441 14.4101 9.80992 14.568 9.54973 14.568C9.09318 14.568 8.78423 14.1027 8.96143 13.6819L11.6963 7.188H7.85025C7.5222 7.188 7.25625 6.92206 7.25625 6.594Z" fill="black"/>
</svg>
