<svg width="20" height="20" viewBox="0 0 20 20" fill="none" xmlns="http://www.w3.org/2000/svg">
<path d="M15.1426 12H16.4385L15.2188 10L16.4648 7.95508L15.1426 7.93945V4.92871H12V3.6084L10 4.8584L8 3.6084V4.92871H5.3457V8.05859L4.02832 8.01953L5.48926 10.0146L4 12H5.3457V15.0713H8V16.3906L10 15.1416L12 16.3906V15.0713H15.1426V12ZM17.1426 17.0713H14V20L10 17.5L6 20V17.0713H3.3457V14H0L3 10L0 5.90332L3.3457 6V2.92871H6V0L10 2.5L14 0V2.92871H17.1426V5.96484L20 6L17.5605 10L20 14H17.1426V17.0713Z" fill="black"/>
<path d="M12.0922 6.3746C13.1972 6.3746 13.9126 6.7853 14.2274 7.61727C14.3407 7.91664 14.0875 8.20479 13.7674 8.20479C13.5205 8.20479 13.3193 8.02563 13.2035 7.80758C12.9951 7.4154 12.623 7.22366 12.0825 7.22366C11.5971 7.22366 11.2184 7.45008 10.9369 7.91234C10.6553 8.3463 10.5194 8.88404 10.5194 9.54441C10.5194 9.57272 10.5194 9.61045 10.5291 9.66706H10.568C10.7621 9.36517 11.0049 9.14819 11.3058 9.00668C11.5777 8.86517 11.8981 8.79913 12.267 8.79913C12.9466 8.79913 13.4903 9.00668 13.8981 9.42177C14.2961 9.8463 14.5485 10.5189 14.5485 11.1792C14.5485 11.8491 14.3155 12.4057 13.8592 12.8396C13.3932 13.2736 12.8107 13.5 12.1311 13.5C11.2767 13.5 10.6359 13.1981 10.1893 12.5943C9.76214 12.0189 9.5 11.0916 9.5 10.0633C9.5 8.96894 9.7233 8.08215 10.1893 7.40291C10.6553 6.71423 11.2961 6.3746 12.0922 6.3746ZM12.0534 9.62932C11.6165 9.62932 11.2767 9.7614 11.0243 10.0255C10.7718 10.2897 10.6942 10.7642 10.6942 11.2075C10.6942 11.6415 10.8204 11.9906 11.0825 12.2547C11.335 12.5189 11.6748 12.6509 12.0922 12.6509C12.5194 12.6509 12.8592 12.5094 13.1117 12.2358C13.3738 11.9528 13.5097 11.6038 13.5097 11.1792C13.5097 10.7453 13.335 10.2708 13.0825 10.0255C12.8301 9.7614 12.4806 9.62932 12.0534 9.62932Z" fill="black"/>
<path d="M7.73333 6.53632C7.8503 6.42838 8.00054 6.36 8.15971 6.36C8.47468 6.36 8.73001 6.61533 8.73001 6.9303V12.955C8.73001 13.256 8.48601 13.5 8.18501 13.5C7.88402 13.5 7.64001 13.256 7.64001 12.955V7.67C7.35709 7.93976 7.02222 8.16191 6.63824 8.33643C6.32816 8.47737 6.00001 8.23038 6.00001 7.88978C6.00001 7.65483 6.16132 7.45293 6.38069 7.36882C6.58234 7.2915 6.7906 7.19189 7.01001 7.07C7.28651 6.90103 7.52762 6.72615 7.73333 6.53632Z" fill="black"/>
</svg>
