<svg width="20" height="20" viewBox="0 0 20 20" fill="none" xmlns="http://www.w3.org/2000/svg">
<mask id="path-1-inside-1_453_267" fill="white">
<path d="M8 2C9.2853 2 10.457 2.42475 11.3428 3.12207C11.8615 2.96265 12.419 2.875 13 2.875C15.7614 2.875 18 4.83375 18 7.25C18 7.97779 17.7949 8.66285 17.4355 9.2666C18.9353 9.84364 20 11.297 20 13C20 15.2091 18.2091 17 16 17C15.5108 17 15.0426 16.9107 14.6094 16.75C13.8013 17.5234 12.7069 18 11.5 18C10.4258 18 9.43972 17.6232 8.66602 16.9951C7.77055 17.627 6.67928 18 5.5 18C2.46243 18 0 15.5376 0 12.5C0 10.2946 1.29808 8.39235 3.17188 7.51562C3.05993 7.15196 3 6.76961 3 6.375C3 3.95875 5.23858 2 8 2Z"/>
</mask>
<path d="M11.3428 3.12207L10.1056 4.69352L10.9289 5.34162L11.9303 5.03381L11.3428 3.12207ZM17.4355 9.2666L15.7169 8.24378L14.5041 10.2816L16.7174 11.1332L17.4355 9.2666ZM14.6094 16.75L15.305 14.8749L14.1311 14.4394L13.2266 15.3051L14.6094 16.75ZM8.66602 16.9951L9.92658 15.4424L8.75059 14.4877L7.51294 15.361L8.66602 16.9951ZM3.17188 7.51562L4.01946 9.32714L5.59516 8.5899L5.08337 6.92724L3.17188 7.51562ZM8 2V4C8.84606 4 9.57992 4.27966 10.1056 4.69352L11.3428 3.12207L12.5799 1.55062C11.3341 0.569846 9.72455 0 8 0V2ZM11.3428 3.12207L11.9303 5.03381C12.261 4.93218 12.6206 4.875 13 4.875V2.875V0.875C12.2174 0.875 11.462 0.993112 10.7552 1.21033L11.3428 3.12207ZM13 2.875V4.875C14.9161 4.875 16 6.18083 16 7.25H18H20C20 3.48668 16.6068 0.875 13 0.875V2.875ZM18 7.25H16C16 7.59299 15.9051 7.92745 15.7169 8.24378L17.4355 9.2666L19.1542 10.2894C19.6846 9.39825 20 8.36259 20 7.25H18ZM17.4355 9.2666L16.7174 11.1332C17.4715 11.4234 18 12.1526 18 13H20H22C22 10.4413 20.3991 8.26392 18.1537 7.4L17.4355 9.2666ZM20 13H18C18 14.1046 17.1046 15 16 15V17V19C19.3137 19 22 16.3137 22 13H20ZM16 17V15C15.7561 15 15.5231 14.9558 15.305 14.8749L14.6094 16.75L13.9137 18.6251C14.5622 18.8657 15.2655 19 16 19V17ZM14.6094 16.75L13.2266 15.3051C12.7739 15.7383 12.1688 16 11.5 16V18V20C13.2449 20 14.8286 19.3084 15.9922 18.1949L14.6094 16.75ZM11.5 18V16C10.9019 16 10.3574 15.7921 9.92658 15.4424L8.66602 16.9951L7.40545 18.5478C8.52207 19.4544 9.94962 20 11.5 20V18ZM8.66602 16.9951L7.51294 15.361C6.94152 15.7642 6.25036 16 5.5 16V18V20C7.1082 20 8.59957 19.4898 9.81909 18.6293L8.66602 16.9951ZM5.5 18V16C3.567 16 2 14.433 2 12.5H0H-2C-2 16.6421 1.35786 20 5.5 20V18ZM0 12.5H2C2 11.0996 2.82246 9.8872 4.01946 9.32714L3.17188 7.51562L2.32429 5.70411C-0.226307 6.8975 -2 9.48956 -2 12.5H0ZM3.17188 7.51562L5.08337 6.92724C5.02871 6.74967 5 6.5655 5 6.375H3H1C1 6.97373 1.09116 7.55424 1.26038 8.10401L3.17188 7.51562ZM3 6.375H5C5 5.30583 6.08393 4 8 4V2V0C4.39322 0 1 2.61168 1 6.375H3Z" fill="black" mask="url(#path-1-inside-1_453_267)"/>
</svg>
