<svg width="20" height="20" viewBox="0 0 20 20" fill="none" xmlns="http://www.w3.org/2000/svg">
<path d="M15.1426 12H16.4385L15.2188 10L16.4648 7.95508L15.1426 7.93945V4.92871H11.6992L10.2432 3.1543L8.78906 4.92871H5.3457V8.05859L4.02832 8.01953L5.48926 10.0146L4 12H5.3457V15.0713H8.78906L10.2432 16.8447L11.6992 15.0713H15.1426V12ZM17.1426 17.0713H12.6455L10.2441 20L7.8418 17.0713H3.3457V14H0L3 10L0 5.90332L3.3457 6V2.92871H7.8418L10.2441 0L12.6455 2.92871H17.1426V5.96484L20 6L17.5605 10L20 14H17.1426V17.0713Z" fill="black"/>
<path d="M11.6427 6C12.4102 6 13.0041 6.37736 13.4244 7.14286C13.8081 7.85445 14 8.80323 14 10C14 11.186 13.8081 12.1456 13.4244 12.8571C13.0041 13.6119 12.4102 14 11.6427 14C10.8752 14 10.2813 13.6119 9.86097 12.8571C9.47722 12.1456 9.28534 11.1968 9.28534 10C9.28534 8.79245 9.47722 7.84367 9.86097 7.14286C10.2813 6.37736 10.8752 6 11.6427 6ZM11.6427 6.99191C11.1036 6.99191 10.729 7.33693 10.5097 8.03774C10.3452 8.51213 10.2721 9.16981 10.2721 10C10.2721 10.8194 10.3452 11.4771 10.5097 11.9623C10.729 12.6523 11.1036 13.0081 11.6427 13.0081C12.1726 13.0081 12.5564 12.6523 12.7757 11.9623C12.931 11.4771 13.0132 10.8194 13.0132 10C13.0132 9.16981 12.931 8.51213 12.7757 8.03774C12.5564 7.33693 12.1726 6.99191 11.6427 6.99191Z" fill="black"/>
<path d="M7.58641 6.33811C7.69108 6.22386 7.83569 6.15094 7.99065 6.15094C8.26885 6.15094 8.49438 6.37647 8.49438 6.65467V13.3511C8.49438 13.6261 8.27143 13.8491 7.99642 13.8491C7.7214 13.8491 7.49845 13.6261 7.49845 13.3511V7.56334C7.26654 7.82427 6.99641 8.04389 6.68997 8.22217C6.36833 8.4093 5.99999 8.14751 5.99999 7.77541C5.99999 7.53458 6.16061 7.32594 6.37895 7.22433C6.55349 7.1431 6.73362 7.04047 6.92282 6.91644C7.17667 6.73339 7.39786 6.54392 7.58641 6.33811Z" fill="black"/>
</svg>
