<svg width="20" height="20" viewBox="0 0 20 20" fill="none" xmlns="http://www.w3.org/2000/svg">
<path d="M11.5234 2.18555C12.5935 1.54357 13.9518 1.71295 14.8311 2.56934L15.1689 2.93067C16.0482 3.78706 17.4065 3.95645 18.4766 3.31446L19 3.00001V17L17.7305 17.4229L17.5303 17.4824C16.5923 17.7233 15.5946 17.4874 14.8633 16.8525L14.7109 16.7109C13.7164 15.7164 12.1576 15.5616 10.9873 16.3418L10.4346 16.7109L10.208 16.8496C9.13525 17.4604 7.82907 17.5062 6.7168 16.9707L6.48145 16.8467L6.37891 16.7881C5.49398 16.2824 4.44777 16.1376 3.45898 16.3848L1 17V3.00001L3.4082 2.39747C4.42944 2.14216 5.51181 2.29219 6.42578 2.81446C7.62599 3.50014 9.0869 3.52932 10.3066 2.90528L10.5479 2.77149L11.5234 2.18555ZM13.4814 4.05177C13.2501 3.78183 12.8577 3.71765 12.5527 3.9004L11.5762 4.48634C9.69052 5.61767 7.34016 5.64081 5.43262 4.55079C4.96592 4.28424 4.41372 4.20786 3.89355 4.3379L3 4.56055V14.4395C4.48152 14.0761 6.04606 14.2946 7.37109 15.0518L7.47363 15.1104C8.05291 15.4414 8.77007 15.417 9.3252 15.0469L9.87793 14.6777C11.8415 13.3687 14.4563 13.6272 16.125 15.2959C16.3557 15.5266 16.6858 15.6197 17 15.5508V5.70118C15.6829 5.68043 14.3906 5.11235 13.4814 4.05177Z" fill="black"/>
</svg>
