<svg width="20" height="20" viewBox="0 0 20 20" fill="none" xmlns="http://www.w3.org/2000/svg">
<path d="M10 1C14.9706 1 19 5.02944 19 10C19 14.9706 14.9706 19 10 19C5.02944 19 1 14.9706 1 10C1 5.02944 5.02944 1 10 1ZM10 3C6.13401 3 3 6.13401 3 10C3 13.866 6.13401 17 10 17C13.866 17 17 13.866 17 10C17 6.13401 13.866 3 10 3Z" fill="black"/>
<path d="M14.1026 4.48318L14.1926 4.40055C14.6562 4.00925 15.2909 3.97719 15.6568 4.34317C16.0228 4.70914 15.9908 5.34381 15.5995 5.80742L15.5168 5.89739L5.89825 15.516C5.43012 15.9841 4.73348 16.0472 4.34314 15.6569C3.95279 15.2665 4.01591 14.5699 4.48403 14.1018L14.1026 4.48318Z" fill="black"/>
<path d="M14.1026 15.5169L14.1926 15.5995C14.6562 15.9908 15.2909 16.0229 15.6568 15.6569C16.0228 15.2909 15.9908 14.6563 15.5995 14.1926L15.5168 14.1027L5.89825 4.48408C5.43012 4.01596 4.73348 3.95284 4.34314 4.34319C3.95279 4.73353 4.01591 5.43017 4.48403 5.89829L14.1026 15.5169Z" fill="black"/>
</svg>
