<svg width="20" height="20" viewBox="0 0 20 20" fill="none" xmlns="http://www.w3.org/2000/svg">
<path d="M15.4607 10.0839C15.1086 9.80418 14.8652 9.47551 14.7306 9.09789C14.596 8.72027 14.5286 8.18181 14.5286 7.4825V5.40558C14.5286 4.70628 14.5183 4.27971 14.4976 4.12586C14.4872 3.97201 14.4458 3.83215 14.3733 3.70628C14.249 3.49649 13.9849 3.39159 13.581 3.39159C13.0834 3.39159 12.68 2.9882 12.68 2.49059V2.2797C12.68 1.66563 13.1778 1.16782 13.7919 1.16782H13.9849C14.5649 1.16782 14.9999 1.21677 15.2898 1.31467C15.5902 1.41257 15.8594 1.59439 16.0976 1.86012C16.4808 2.30768 16.6776 3.0839 16.6879 4.1888V7.23076C16.6879 7.84614 16.7397 8.29369 16.8433 8.57341C16.8796 8.65819 16.9821 8.73443 17.1138 8.80213C17.6157 9.06005 18 9.49668 18 10.061C18 10.6474 17.5802 11.0883 17.0714 11.3798C16.9603 11.4434 16.8756 11.515 16.8433 11.5944C16.7397 11.8741 16.6879 12.3217 16.6879 12.9371V15.979C16.6776 17.1538 16.4446 17.958 15.9889 18.3916C15.7403 18.6433 15.4711 18.8042 15.1811 18.8741C14.8911 18.958 14.4095 19 13.7364 19C13.153 19 12.68 18.527 12.68 17.9436V17.6562C12.68 17.1586 13.0834 16.7552 13.581 16.7552C13.9746 16.7552 14.2335 16.6573 14.3578 16.4615C14.4303 16.3496 14.4769 16.2168 14.4976 16.0629C14.5183 15.8951 14.5286 15.4545 14.5286 14.7412V12.6853C14.5286 11.986 14.596 11.4405 14.7306 11.0489C14.8756 10.6573 15.119 10.3357 15.4607 10.0839Z" fill="black"/>
<path d="M4.59429 9.91609C4.93605 10.1678 5.17425 10.4895 5.30888 10.8811C5.45387 11.2727 5.52636 11.8182 5.52636 12.5175V14.5734C5.52636 15.2867 5.53154 15.7273 5.5419 15.8951C5.56261 16.049 5.61439 16.1818 5.69724 16.2937C5.82152 16.4895 6.08043 16.5874 6.47397 16.5874C6.97159 16.5874 7.37498 16.9908 7.37498 17.4884V17.7758C7.37498 18.3592 6.90204 18.8322 6.31863 18.8322C5.60404 18.8322 5.0914 18.7832 4.7807 18.6853C4.48037 18.6014 4.20592 18.4126 3.95737 18.1189C3.57419 17.6713 3.37741 16.9021 3.36706 15.8112V12.7692C3.36706 12.1539 3.3101 11.7063 3.19618 11.4266C3.16427 11.3404 3.06504 11.2635 2.93482 11.1959C2.41434 10.9258 2 10.4796 2 9.89314C2 9.32887 2.38078 8.88862 2.8914 8.64847C3.04272 8.5773 3.16081 8.49634 3.19618 8.4056C3.3101 8.12588 3.36706 7.67833 3.36706 7.06294V4.02098C3.37741 2.83217 3.61043 2.02098 4.06611 1.58741C4.30431 1.34965 4.55804 1.1958 4.82731 1.12587C5.10693 1.04196 5.52119 1 6.07007 1H6.26309C6.87717 1 7.37498 1.49781 7.37498 2.11189V2.32277C7.37498 2.82038 6.97159 3.22378 6.47397 3.22378C6.07008 3.22378 5.80599 3.32867 5.68171 3.53846C5.60922 3.66434 5.56261 3.81119 5.5419 3.97902C5.53154 4.13287 5.52636 4.55245 5.52636 5.23776V7.31469C5.52636 8.01399 5.45905 8.55245 5.32441 8.93007C5.18978 9.3077 4.94641 9.63637 4.59429 9.91609Z" fill="black"/>
</svg>
