<svg width="20" height="20" viewBox="0 0 20 20" fill="none" xmlns="http://www.w3.org/2000/svg">
<path d="M10 16.802L9.99481 16.924C9.94367 17.5286 9.51757 18 9 18C8.48243 18 8.05633 17.5286 8.00519 16.924L8 16.802V3.19925C8 2.53723 8.44797 2 9 2C9.55203 2 10 2.53723 10 3.19925V16.802Z" fill="black"/>
<path d="M11.802 16L11.924 16.0052C12.5286 16.0563 13 16.4824 13 17C13 17.5176 12.5286 17.9437 11.924 17.9948L11.802 18H9.19925C8.53723 18 8 17.552 8 17C8 16.448 8.53723 16 9.19925 16H11.802Z" fill="black"/>
<path d="M11.802 2L11.924 2.00519C12.5286 2.05633 13 2.48243 13 3C13 3.51757 12.5286 3.94367 11.924 3.99481L11.802 4H9.19925C8.53723 4 8 3.55203 8 3C8 2.44797 8.53723 2 9.19925 2L11.802 2Z" fill="black"/>
</svg>
