<svg width="20" height="20" viewBox="0 0 20 20" fill="none" xmlns="http://www.w3.org/2000/svg">
<path d="M19 1V19H1V1H19ZM3 17H17V3H3V17Z" fill="black"/>
<path d="M16.043 10.75C16.4884 10.75 16.7114 10.2115 16.3965 9.89652L10.1251 3.6251L3.85367 9.89653C3.53868 10.2115 3.76177 10.75 4.20722 10.75L16.043 10.75ZM7.82907 8.74955L10.1251 6.45352L12.4211 8.74955L7.82907 8.74955Z" fill="black"/>
<path d="M7 9H5V16H7V9Z" fill="black"/>
<path d="M14 16L14 14L5 14L5 16L14 16Z" fill="black"/>
<path d="M15 9H13V16H15V9Z" fill="black"/>
<path d="M11 12H9V16H11V12Z" fill="black"/>
<path d="M14 4.5H12V8H14V4.5Z" fill="black"/>
</svg>
