<svg width="20" height="20" viewBox="0 0 20 20" fill="none" xmlns="http://www.w3.org/2000/svg">
<path d="M19 1V19H1V1H19ZM3 17H17V3H3V17Z" fill="black"/>
<path d="M12 16L8 13H4V7H8L12 4V16ZM8.66699 9H6V11H8.66699L10 12V7.99902L8.66699 9Z" fill="black"/>
<rect x="12.8652" y="6.73126" width="3" height="1" rx="0.5" transform="rotate(-30 12.8652 6.73126)" fill="black"/>
<rect width="3" height="1" rx="0.5" transform="matrix(0.866025 0.5 0.5 -0.866025 12.8652 13.0972)" fill="black"/>
<path d="M13 10C13 10.2761 13.2239 10.5 13.5 10.5H15.5C15.7761 10.5 16 10.2761 16 10C16 9.72386 15.7761 9.5 15.5 9.5H13.5C13.2239 9.5 13 9.72386 13 10Z" fill="black"/>
</svg>
