<svg width="20" height="20" viewBox="0 0 20 20" fill="none" xmlns="http://www.w3.org/2000/svg">
<path d="M6 12.7891C6 12.5197 6.07689 12.3374 6.2041 12.1816C6.34757 12.0061 6.59173 11.8228 6.97949 11.6445C7.77964 11.2769 8.89645 11.0573 10.1768 10.8271C11.3814 10.6106 12.7559 10.3807 13.8135 9.95117C14.8785 9.51858 15.9999 8.71676 16 7.19629C16 6.24768 15.6393 5.4505 14.9922 4.83887C14.3777 4.25824 13.5497 3.88467 12.6514 3.63086C10.8619 3.12535 8.42949 3 5.77246 3C5.22018 3 4.77246 3.44772 4.77246 4C4.77246 4.55228 5.22018 5 5.77246 5C8.42994 5 10.6118 5.13317 12.1074 5.55566C12.8511 5.76577 13.333 6.02345 13.6182 6.29297C13.8709 6.53184 14 6.80492 14 7.19629C13.9999 7.47331 13.8709 7.76983 13.0615 8.09863C12.2441 8.43063 11.1185 8.62555 9.82324 8.8584C8.60372 9.07764 7.22028 9.33342 6.14551 9.82715C5.59617 10.0795 5.05862 10.4232 4.65527 10.917C4.23572 11.4307 4 12.0598 4 12.7891C4 14.187 4.87429 15.1155 5.88965 15.6855C6.88372 16.2436 8.15405 16.5527 9.36426 16.7324C11.7959 17.0935 14.4032 16.9854 15 16.9854C15.5522 16.9854 15.9999 16.5375 16 15.9854C16 15.4331 15.5523 14.9854 15 14.9854C14.2925 14.9854 11.9003 15.0868 9.6582 14.7539C8.53146 14.5866 7.54529 14.3225 6.86816 13.9424C6.21247 13.5742 6 13.199 6 12.7891Z" fill="black"/>
</svg>
