<svg width="20" height="20" viewBox="0 0 20 20" fill="none" xmlns="http://www.w3.org/2000/svg">
<path d="M12 5.5C12 4.11929 10.8807 3 9.5 3H9V0L0 9L9 18V8H9.5V6H7V13.1719L2.82812 9L7 4.82812V5H9.5C9.77614 5 10 5.22386 10 5.5C10 5.77614 9.77614 6 9.5 6V8C10.8807 8 12 6.88071 12 5.5Z" fill="black"/>
<path d="M20 11L11.75 19.6602V15.9932C9.10474 15.8629 7 13.6776 7 11V6.36328C7.00035 6.20808 7.17349 6.11599 7.30273 6.20215L8.33594 6.89062C9.35155 7.56769 10.5335 7.94807 11.75 7.99414V2.33984L20 11ZM9 11C9 12.6056 10.2627 13.917 11.8486 13.9951L13.75 14.0889V14.6602L17.2363 11L13.75 7.33887V10.0713L11.6738 9.99316C10.7566 9.95838 9.85452 9.77558 9 9.45801V11Z" fill="black"/>
</svg>
