<svg width="20" height="20" viewBox="0 0 20 20" fill="none" xmlns="http://www.w3.org/2000/svg">
<path d="M15.5426 12.4L17.151 12.4L15.6873 9.9999L17.1719 7.5634L15.5426 7.5442L15.5426 4.5287L12.4 4.5287L12.4 2.8867L10 4.3867L7.6 2.8867L7.6 4.5287L4.9457 4.5287L4.9457 7.6466L3.222 7.5954L4.9914 10.0117L3.1999 12.4L4.9457 12.4L4.9457 15.4713L7.6 15.4713L7.6 17.112L10 15.6132L12.4 17.112L12.4 15.4713L15.5426 15.4713ZM17.1426 17.0713L14 17.0713L14 20L10 17.5L6 20L6 17.0713L3.3457 17.0713L3.3457 14L0 14L3 10L0 5.9033L3.3457 6L3.3457 2.9287L6 2.9287L6 0L10 2.5L14 0L14 2.9287L17.1426 2.9287L17.1426 5.9648L20 6L17.5605 10L20 14L17.1426 14Z" fill="black" fill-rule="evenodd"/>
<path d="M11.8223 6C12.4524 6 12.9806 6.20879 13.3884 6.64835C13.7869 7.08791 13.9907 7.64835 13.9907 8.34066C13.9907 9.02198 13.7683 9.63736 13.342 10.1978C13.0826 10.5165 12.6285 10.9341 11.9706 11.4615C11.257 12.022 10.8307 12.5165 10.6917 12.9451H13.4725C13.7638 12.9451 14 13.1812 14 13.4725C14 13.7638 13.7638 14 13.4725 14H9.9407C9.66456 14 9.43657 13.7752 9.47159 13.5013C9.54522 12.9254 9.7513 12.4084 10.0986 11.9451C10.3396 11.6044 10.84 11.1319 11.5906 10.5165C12.0354 10.1429 12.3505 9.84615 12.5358 9.61538C12.8324 9.21978 12.9899 8.79121 12.9899 8.32967C12.9899 7.89011 12.888 7.56044 12.6841 7.34066C12.4802 7.12088 12.1744 7.01099 11.7852 7.01099C11.3682 7.01099 11.0531 7.17582 10.84 7.51648C10.6794 7.75458 10.5768 8.06718 10.5252 8.46257C10.4895 8.73596 10.2685 8.95604 9.99282 8.95604C9.70925 8.95604 9.47653 8.72378 9.50866 8.44204C9.58205 7.79843 9.78489 7.26647 10.1172 6.84615C10.5435 6.27473 11.118 6 11.8223 6Z" fill="black"/>
<path d="M7.6091 6.19862C7.71516 6.08227 7.86203 6.008 8.01946 6.008C8.30134 6.008 8.52985 6.2365 8.52985 6.51838V13.495C8.52985 13.7739 8.30373 14 8.0248 14C7.74588 14 7.51976 13.7739 7.51976 13.495V7.44756C7.28541 7.71253 7.01259 7.9357 6.7032 8.11706C6.37588 8.30892 6 8.0423 6 7.6629C6 7.41785 6.16328 7.20549 6.38523 7.10161C6.56197 7.01889 6.74438 6.91442 6.93595 6.78822C7.19346 6.6016 7.41785 6.40844 7.6091 6.19862Z" fill="black"/>
</svg>
