<svg width="20" height="20" viewBox="0 0 20 20" fill="none" xmlns="http://www.w3.org/2000/svg">
<path d="M11.5 2.27343C11.5 1.24876 12.7775 0.780388 13.4394 1.56249L18.7109 7.79198C19.048 8.19051 19.0586 8.77111 18.7363 9.18163L13.4648 15.8906C12.8194 16.7118 11.5001 16.2555 11.5 15.2109V12.0801C10.2932 12.6861 8.53247 13.6553 7.12499 14.7812C5.04388 16.4461 3.0166 18.7421 2.49999 19.5C1.87407 20.4183 1.5 19.5 1.5 18.5C1.5 14.5789 2.1361 10.9175 5.35937 8.23144C6.70905 7.1067 8.22438 6.33098 9.48534 5.82616C10.255 5.51805 10.9583 5.29907 11.5 5.16503V2.27343ZM13.5 5.90038C13.4998 6.49587 13.0419 6.94381 12.5088 7.00097C12.2607 7.02756 11.3765 7.22305 10.2285 7.68261C9.09728 8.13549 7.78298 8.8166 6.64062 9.76855C4.80955 11.2944 3.97212 13.1621 3.5 15.5C4.19492 14.7294 4.9181 13.9843 5.87499 13.2187C8.1897 11.367 11.2787 9.94815 11.956 9.64648L12.0986 9.59374C12.8115 9.38166 13.4998 9.94054 13.5 10.6514V12.6084L16.709 8.52343L13.5 4.72948V5.90038Z" fill="black"/>
</svg>
