<svg width="20" height="20" viewBox="0 0 20 20" fill="none" xmlns="http://www.w3.org/2000/svg">
<path d="M8.82985 1.94185C9.11822 0.68605 10.8819 0.68605 11.1703 1.94185L11.4309 3.07644C12.1471 3.22251 12.8251 3.47598 13.4473 3.81975L14.3676 3.12044C15.385 2.34663 16.7362 3.49551 16.161 4.64512L15.6387 5.68695C16.0832 6.25141 16.4452 6.8843 16.7103 7.56722L17.8618 7.63145C19.1323 7.70113 19.4391 9.46117 18.2691 9.96722L17.2068 10.4251C17.1885 11.1714 17.0591 11.8889 16.8359 12.5635L17.6775 13.3615C18.6066 14.2424 17.7247 15.7913 16.5073 15.4166L15.404 15.0764C14.9292 15.6206 14.3762 16.0925 13.7619 16.4739L13.9016 17.6322C14.0544 18.9122 12.3957 19.5235 11.7008 18.4433L11.0717 17.4657C10.722 17.5185 10.3643 17.5466 10.0001 17.5466V15.1109C10.2421 15.1109 10.4813 15.0918 10.7172 15.0562L11.6762 14.9111L12.506 14.3974C12.9153 14.1432 13.2855 13.8282 13.6035 13.4638L14.2455 12.7252L14.5565 11.7892C14.7051 11.3403 14.792 10.863 14.8042 10.3644L14.8277 9.37258L14.4732 8.4592C14.2958 8.00218 14.0544 7.58008 13.7596 7.20568L13.1457 6.42669L12.2971 5.95811C11.8833 5.72954 11.4326 5.56163 10.9567 5.46455L9.9989 5.26831L9.0423 5.46455C8.56615 5.56177 8.11609 5.72993 7.70306 5.95811L6.85093 6.42788L6.23941 7.20568C5.94443 7.58031 5.70305 8.00251 5.52577 8.4592L5.17013 9.37495L5.19478 10.3656C5.2071 10.8636 5.29398 11.3405 5.44244 11.7892L5.75113 12.7228L6.39669 13.4638C6.71483 13.8284 7.08386 14.1439 7.49179 14.3974L8.3181 14.9099L9.28174 15.0562C9.51731 15.0918 9.7571 15.1109 10.0001 15.1109V17.5466C9.63551 17.5466 9.27729 17.5186 8.92727 17.4657L8.29932 18.4433C7.60445 19.5235 5.94567 18.9122 6.09856 17.6322L6.23589 16.4739C5.62207 16.0925 5.06942 15.6204 4.595 15.0764L3.49285 15.4166C2.27536 15.7914 1.39241 14.2424 2.32146 13.3615L3.16303 12.5635C2.94001 11.8893 2.81055 11.172 2.79213 10.4263L1.73107 9.96722C0.560794 9.46131 0.867797 7.70113 2.13836 7.63145L3.28862 7.56722C3.5537 6.88436 3.91582 6.25139 4.36025 5.68695L3.83911 4.64512C3.26373 3.4954 4.61511 2.34634 5.63258 3.12044L6.55162 3.81975C7.17384 3.47593 7.85194 3.22259 8.56811 3.07644L8.82985 1.94185Z" fill="black"/>
</svg>
