<svg width="20" height="20" viewBox="0 0 20 20" fill="none" xmlns="http://www.w3.org/2000/svg">
<path d="M16.2134 14.7991L16.2971 14.8902C16.6937 15.3591 16.7299 15.998 16.364 16.364C15.998 16.7299 15.3592 16.6937 14.8902 16.2971L14.7992 16.2134L3.78754 5.20174C3.31357 4.72777 3.2457 4.02638 3.63605 3.63604C4.02639 3.24569 4.72778 3.31355 5.20175 3.78753L16.2134 14.7991Z" fill="black"/>
<path d="M2.94608 3.3616C2.93684 3.12839 3.1284 2.93683 3.36161 2.94607L7.11674 3.09489C7.46524 3.1087 7.63036 3.5308 7.38374 3.77742L3.77743 7.38374C3.53081 7.63035 3.10871 7.46523 3.0949 7.11673L2.94608 3.3616Z" fill="black"/>
<path d="M16.6384 17.0539C16.8716 17.0632 17.0632 16.8716 17.0539 16.6384L16.9051 12.8833C16.8913 12.5348 16.4692 12.3696 16.2226 12.6163L12.6163 16.2226C12.3696 16.4692 12.5348 16.8913 12.8833 16.9051L16.6384 17.0539Z" fill="black"/>
</svg>
