<svg width="20" height="20" viewBox="0 0 20 20" fill="none" xmlns="http://www.w3.org/2000/svg">
<path d="M9.78069 9.91609C9.43893 10.1678 9.20073 10.4895 9.0661 10.8811C8.92111 11.2727 8.84861 11.8182 8.84861 12.5175V14.5734C8.84861 15.2867 8.84343 15.7273 8.83308 15.8951C8.81237 16.049 8.76058 16.1818 8.67773 16.2937C8.55346 16.4895 8.29455 16.5874 7.901 16.5874C7.40339 16.5874 7 16.9908 7 17.4884V17.7758C7 18.3592 7.47294 18.8322 8.05635 18.8322C8.77094 18.8322 9.28358 18.7832 9.59427 18.6853C9.89461 18.6014 10.1691 18.4126 10.4176 18.1189C10.8008 17.6713 10.9976 16.9021 11.0079 15.8112V12.7692C11.0079 12.1539 11.0649 11.7063 11.1788 11.4266C11.2107 11.3404 11.3099 11.2635 11.4402 11.1959C11.9606 10.9258 12.375 10.4796 12.375 9.89314C12.375 9.32887 11.9942 8.88862 11.4836 8.64847C11.3323 8.5773 11.2142 8.49634 11.1788 8.4056C11.0649 8.12588 11.0079 7.67833 11.0079 7.06294V4.02098C10.9976 2.83217 10.7645 2.02098 10.3089 1.58741C10.0707 1.34965 9.81694 1.1958 9.54767 1.12587C9.26805 1.04196 8.85379 1 8.3049 1H8.11189C7.49781 1 7 1.49781 7 2.11189V2.32277C7 2.82038 7.40339 3.22378 7.901 3.22378C8.3049 3.22378 8.56899 3.32867 8.69327 3.53846C8.76576 3.66434 8.81237 3.81119 8.83308 3.97902C8.84343 4.13287 8.84861 4.55245 8.84861 5.23776V7.31469C8.84861 8.01399 8.91593 8.55245 9.05056 8.93007C9.1852 9.3077 9.42857 9.63637 9.78069 9.91609Z" fill="black"/>
</svg>
