<svg width="20" height="20" viewBox="0 0 20 20" fill="none" xmlns="http://www.w3.org/2000/svg">
<path d="M10.2812 18.834C10.1222 19.0115 9.84452 19.0116 9.68555 18.834L7.67969 16.5928C8.40137 16.8443 9.17597 16.9834 9.9834 16.9834C10.7907 16.9834 11.5655 16.8442 12.2871 16.5928L10.2812 18.834ZM3.67969 13.0303C4.36642 14.4487 5.51827 15.5991 6.93652 16.2861L3.93652 16.4531C3.69851 16.4663 3.50149 16.2693 3.51465 16.0312L3.67969 13.0303ZM16.4531 16.0312C16.4663 16.2693 16.2693 16.4663 16.0312 16.4531L13.0303 16.2861C14.4486 15.5993 15.5993 14.4486 16.2861 13.0303L16.4531 16.0312ZM18.834 9.68555C19.0116 9.84452 19.0115 10.1222 18.834 10.2812L16.5928 12.2871C16.8442 11.5655 16.9834 10.7907 16.9834 9.9834C16.9834 9.17597 16.8443 8.40137 16.5928 7.67969L18.834 9.68555ZM3.37305 7.68066C3.12179 8.40196 2.98343 9.17648 2.9834 9.9834C2.9834 10.7902 3.12188 11.5649 3.37305 12.2861L1.13281 10.2812C0.955646 10.1222 0.955437 9.84443 1.13281 9.68555L3.37305 7.68066ZM6.93652 3.67969C5.51815 4.36655 4.36655 5.51815 3.67969 6.93652L3.51465 3.93652C3.50149 3.69851 3.69851 3.50149 3.93652 3.51465L6.93652 3.67969ZM16.0312 3.51465C16.2693 3.50149 16.4663 3.69851 16.4531 3.93652L16.2861 6.93652C15.5991 5.51827 14.4487 4.36642 13.0303 3.67969L16.0312 3.51465ZM9.68555 1.13281C9.84443 0.955437 10.1222 0.955646 10.2812 1.13281L12.2861 3.37305C11.5649 3.12188 10.7902 2.9834 9.9834 2.9834C9.17648 2.98343 8.40196 3.12179 7.68066 3.37305L9.68555 1.13281Z" fill="black"/>
<path d="M14 10C14 7.79086 12.2091 6 10 6C7.79086 6 6 7.79086 6 10C6 12.2091 7.79086 14 10 14V16C6.68629 16 4 13.3137 4 10C4 6.68629 6.68629 4 10 4C13.3137 4 16 6.68629 16 10C16 13.3137 13.3137 16 10 16V14C12.2091 14 14 12.2091 14 10Z" fill="black"/>
</svg>
