<svg width="17" height="17" viewBox="0 0 17 17" fill="none" xmlns="http://www.w3.org/2000/svg">
<mask id="mask0_436_41" style="mask-type:alpha" maskUnits="userSpaceOnUse" x="0" y="0" width="17" height="17">
<rect x="0.352661" y="0.481445" width="16" height="16" fill="#D9D9D9"/>
</mask>
<g mask="url(#mask0_436_41)">
<path fill-rule="evenodd" clip-rule="evenodd" d="M2.27177 13.714L13.5855 2.40025L14.434 3.24878L3.1203 14.5625L2.27177 13.714Z" fill="black"/>
<path fill-rule="evenodd" clip-rule="evenodd" d="M4.2603 1.82495L2.89617 1.82495C2.23343 1.82495 1.69617 2.36221 1.69617 3.02495L1.69617 4.38908L3.02617 4.38908L3.02617 3.15495L4.2603 3.15495L4.2603 1.82495ZM15.0092 4.38908L15.0092 3.02495C15.0092 2.36221 14.4719 1.82495 13.8092 1.82495L12.4451 1.82495L12.4451 3.15495L13.6792 3.15495L13.6792 4.38908L15.0092 4.38908ZM6.98856 1.82495L6.98856 3.15495L9.71681 3.15495L9.71681 1.82495L6.98856 1.82495ZM15.0092 7.11734L13.6792 7.11734L13.6792 9.84559L15.0092 9.84559L15.0092 7.11734ZM15.0092 12.5739L13.6792 12.5739L13.6792 13.808L12.4451 13.808L12.4451 15.138L13.8092 15.138C14.4719 15.138 15.0092 14.6007 15.0092 13.938L15.0092 12.5739ZM9.71681 15.138L9.71681 13.808L6.98856 13.808L6.98856 15.138L9.71681 15.138ZM4.2603 15.138L4.2603 13.808L3.02617 13.808L3.02617 12.5739L1.69617 12.5739L1.69617 13.938C1.69617 14.6007 2.23343 15.138 2.89617 15.138L4.2603 15.138ZM1.69617 9.8456L3.02617 9.8456L3.02617 7.11734L1.69617 7.11734L1.69617 9.8456Z" fill="#E5E5E5"/>
</g>
</svg>
