<svg width="20" height="20" viewBox="0 0 20 20" fill="none" xmlns="http://www.w3.org/2000/svg">
  <g transform="translate(.3 -.7) scale(.81)">
    <path fill="black" fill-rule="evenodd" clip-rule="evenodd" d="M9.5567 0.207516C12.4416 1.20683 13.2813 4.65797 11.8145 7.2894C10.5169 9.61718 10.1693 10.0953 10.506 10.3199C11.0302 10.6695 10.9859 8.38336 14.3047 8.9075C19.6963 9.75899 18.0789 13.8433 19.6963 16.4862C21.8633 20.0273 23.739 19.5258 23.739 22.6172C23.739 26.6634 18.1634 25.512 14.6706 22.2692C11.1778 19.0264 12.9351 17.5548 12.0113 17.1972C11.0874 16.8397 11.5238 20.5528 6.26945 20.5528C-0.017271 20.5528 -0.703395 12.8463 0.477071 8.05424C1.65754 3.26218 6.06666 -1.00142 9.5567 0.207516Z"/>
  </g>
</svg>
