<svg width="20" height="20" viewBox="0 0 20 20" fill="none" xmlns="http://www.w3.org/2000/svg">
  <g transform="translate(.65 .1) scale(.86)">
    <path fill="black" fill-rule="evenodd" clip-rule="evenodd" d="M7.34865 0.407767C8.73052 1.23236 8.94049 3.18121 7.4341 5.785C5.67061 8.8332 3.45699 12.8496 4.71364 13.2991C7.11551 14.158 9.37215 8.74575 12.6835 9.12447C16.1383 9.51959 14.4431 14.2156 16.1383 17.1138C18.2828 20.7798 21.2769 20.7813 21.3351 22.098C21.5137 26.1394 16.7787 22.7794 13.8856 19.0045C10.9925 15.2295 13.1948 13.3002 11.7479 12.7745C10.301 12.2487 9.25683 16.8136 4.71364 16.8136C-0.415879 16.8136 -0.577595 12.3002 0.602872 7.5081C1.78334 2.71603 4.45045 -1.32166 7.34865 0.407767Z"/>
  </g>
</svg>
