<svg width="20" height="20" viewBox="0 0 20 20" fill="none" xmlns="http://www.w3.org/2000/svg">
  <g transform="translate(.35 -.75) scale(.82)">
    <path fill="black" fill-rule="evenodd" clip-rule="evenodd" d="M10.0312 0.376683C11.4131 1.20128 12.5419 4.59816 11.0355 7.20195C9.27202 10.2501 6.9852 11.3292 8.1889 11.9326C9.59927 12.6395 9.35713 8.55786 13.7211 9.1553C18.2482 9.77506 16.3536 14.4796 18.0488 17.3777C20.1933 21.0438 22.6376 21.191 22.6958 22.5076C22.8744 26.549 17.835 25.7466 14.942 21.9716C12.0489 18.1967 13.5203 17.0294 12.0735 16.5037C10.6266 15.9779 11.7659 20.1505 6.51162 20.1505C0.224897 20.1505 -0.745681 12.75 0.434786 7.9579C1.61525 3.16584 7.13302 -1.35275 10.0312 0.376683Z"/>
  </g>
</svg>
