<svg width="20" height="20" viewBox="0 0 20 20" fill="none" xmlns="http://www.w3.org/2000/svg">
  <g transform="translate(1.25 .6) scale(.86)">
    <path fill="black" fill-rule="evenodd" clip-rule="evenodd" d="M6.07705 0.197445C7.38981 1.20701 4.02148 6.03315 3.45693 7.71262C2.89238 9.3921 1.60039 12.4519 3.87953 12.6304C6.15867 12.8089 8.56155 7.71263 11.8494 8.28764C14.107 8.68246 13.609 13.3788 15.3042 16.2769C17.4487 19.943 20.501 19.943 20.501 21.2611C20.501 23.3019 15.1983 19.8771 13.525 16.5571C11.8518 13.2372 12.6009 11.2633 11.154 10.7376C9.70714 10.2119 8.42272 14.9732 3.87953 14.9732C-0.0516641 14.9732 -0.63741 11.727 0.543057 6.93492C1.72352 2.14285 4.76429 -0.812116 6.07705 0.197445Z"/>
  </g>
</svg>
