<svg width="20" height="20" viewBox="0 0 20 20" fill="none" xmlns="http://www.w3.org/2000/svg">
  <g transform="translate(.25 -.4) scale(.84)">
    <path fill="black" fill-rule="evenodd" clip-rule="evenodd" d="M8.91098 0.36897C10.2928 1.19357 10.8827 4.23424 9.3763 6.83803C7.61281 9.88622 4.77107 12.544 5.97477 13.1474C7.38514 13.8543 8.99567 8.70698 13.3597 9.30442C17.8867 9.92418 15.2333 14.4719 16.9286 17.37C19.0731 21.0361 22.2621 21.2852 22.3202 22.6019C22.4988 26.6433 16.9846 24.4584 14.0915 20.6834C11.1984 16.9084 13.4065 15.0902 11.9596 14.5645C10.5127 14.0387 10.9664 18.5665 5.71212 18.5665C-0.574598 18.5665 -0.574597 12.8733 0.605869 8.08126C1.78634 3.2892 6.01278 -1.36046 8.91098 0.36897Z"/>
  </g>
</svg>
