<svg width="17" height="16" viewBox="0 0 17 16" fill="none" xmlns="http://www.w3.org/2000/svg">
<g clip-path="url(#clip0_1293_26)">
<path d="M2.22891 2.07227C1.89754 2.07227 1.62891 2.34089 1.62891 2.67227C1.62891 3.00364 1.89754 3.27227 2.22891 3.27227H6.29541V14.0056C6.29541 14.337 6.56404 14.6056 6.89541 14.6056C7.22678 14.6056 7.49541 14.337 7.49541 14.0056V3.27227H11.5622C11.8936 3.27227 12.1622 3.00364 12.1622 2.67227C12.1622 2.34089 11.8936 2.07227 11.5622 2.07227H2.22891Z" fill="black"/>
<path d="M10.2289 6.40552C9.89754 6.40552 9.62891 6.67415 9.62891 7.00552C9.62891 7.33689 9.89754 7.60552 10.2289 7.60552H12.2954V14.0055C12.2954 14.3369 12.564 14.6055 12.8954 14.6055C13.2268 14.6055 13.4954 14.3369 13.4954 14.0055V7.60552H15.5622C15.8936 7.60552 16.1622 7.33689 16.1622 7.00552C16.1622 6.67415 15.8936 6.40552 15.5622 6.40552H10.2289Z" fill="black"/>
</g>
<defs>
<clipPath id="clip0_1293_26">
<rect width="16" height="16" fill="white" transform="translate(0.895508 0.00537109)"/>
</clipPath>
</defs>
</svg>
