<svg width="17" height="16" viewBox="0 0 17 16" fill="none" xmlns="http://www.w3.org/2000/svg">
<path d="M3.03012 3.14006C3.03012 3.59845 2.65851 3.97006 2.20012 3.97006C1.74172 3.97006 1.37012 3.59845 1.37012 3.14006C1.37012 2.68166 1.74172 2.31006 2.20012 2.31006C2.65851 2.31006 3.03012 2.68166 3.03012 3.14006Z" fill="black"/>
<path d="M4.53027 2.54014C4.1989 2.54014 3.93027 2.80877 3.93027 3.14014C3.93027 3.47151 4.1989 3.74014 4.53027 3.74014H14.5488C14.8802 3.74014 15.1488 3.47151 15.1488 3.14014C15.1488 2.80877 14.8802 2.54014 14.5488 2.54014H4.53027Z" fill="black"/>
<path d="M2.20012 8.82992C2.65851 8.82992 3.03012 8.45832 3.03012 7.99992C3.03012 7.54153 2.65851 7.16992 2.20012 7.16992C1.74172 7.16992 1.37012 7.54153 1.37012 7.99992C1.37012 8.45832 1.74172 8.82992 2.20012 8.82992Z" fill="black"/>
<path d="M4.53027 7.4C4.1989 7.4 3.93027 7.66863 3.93027 8C3.93027 8.33137 4.1989 8.6 4.53027 8.6H14.5488C14.8802 8.6 15.1488 8.33137 15.1488 8C15.1488 7.66863 14.8802 7.4 14.5488 7.4H4.53027Z" fill="black"/>
<path d="M2.20012 13.6905C2.65851 13.6905 3.03012 13.3189 3.03012 12.8605C3.03012 12.4021 2.65851 12.0305 2.20012 12.0305C1.74172 12.0305 1.37012 12.4021 1.37012 12.8605C1.37012 13.3189 1.74172 13.6905 2.20012 13.6905Z" fill="black"/>
<path d="M4.53027 12.2604C4.1989 12.2604 3.93027 12.529 3.93027 12.8604C3.93027 13.1917 4.1989 13.4604 4.53027 13.4604H14.5488C14.8802 13.4604 15.1488 13.1917 15.1488 12.8604C15.1488 12.529 14.8802 12.2604 14.5488 12.2604H4.53027Z" fill="black"/>
</svg>
