<svg width="16" height="16" viewBox="0 0 16 16" fill="none" xmlns="http://www.w3.org/2000/svg">
<path d="M14.6338 13.4854C14.9369 13.5473 15.165 13.8153 15.165 14.1367C15.1648 14.4579 14.9368 14.7262 14.6338 14.7881L14.5 14.8018H1.5C1.13289 14.8018 0.835225 14.5038 0.834961 14.1367C0.834961 13.7694 1.13273 13.4717 1.5 13.4717H14.5L14.6338 13.4854Z" fill="black"/>
<path fill-rule="evenodd" clip-rule="evenodd" d="M13.1367 1.19824C14.0561 1.19826 14.8015 1.94395 14.8018 2.86328V10.8633C14.8018 11.7828 14.0563 12.5283 13.1367 12.5283H12.1367C11.2172 12.5283 10.4717 11.7828 10.4717 10.8633V2.86328C10.4719 1.94393 11.2173 1.19824 12.1367 1.19824H13.1367ZM12.1367 2.52832C11.9519 2.52832 11.802 2.67847 11.8018 2.86328V10.8633C11.8018 11.0483 11.9517 11.1992 12.1367 11.1992H13.1367C13.3217 11.1992 13.4717 11.0483 13.4717 10.8633V2.86328C13.4714 2.67849 13.3216 2.52834 13.1367 2.52832H12.1367Z" fill="black"/>
<path fill-rule="evenodd" clip-rule="evenodd" d="M3.86328 4.36426C4.78282 4.36428 5.52832 5.10976 5.52832 6.0293V9.0293C5.5283 9.94882 4.7828 10.6943 3.86328 10.6943H2.86328C1.94374 10.6943 1.19826 9.94883 1.19824 9.0293V6.0293C1.19824 5.10974 1.94373 4.36426 2.86328 4.36426H3.86328ZM2.86328 5.69434C2.67827 5.69434 2.52832 5.84428 2.52832 6.0293V9.0293C2.52834 9.21429 2.67828 9.36426 2.86328 9.36426H3.86328C4.04827 9.36424 4.19822 9.21428 4.19824 9.0293V6.0293C4.19824 5.84429 4.04828 5.69436 3.86328 5.69434H2.86328Z" fill="black"/>
<path fill-rule="evenodd" clip-rule="evenodd" d="M8.5 1.19824C9.41939 1.19826 10.1648 1.94395 10.165 2.86328V5.86328C10.165 6.78282 9.41954 7.5283 8.5 7.52832H7.5C6.58045 7.52832 5.83496 6.78284 5.83496 5.86328V2.86328C5.8352 1.94393 6.5806 1.19824 7.5 1.19824H8.5ZM7.5 2.52832C7.31514 2.52832 7.16528 2.67847 7.16504 2.86328V5.86328C7.16504 6.0483 7.31498 6.19922 7.5 6.19922H8.5C8.685 6.1992 8.83496 6.04828 8.83496 5.86328V2.86328C8.83472 2.67849 8.68485 2.52834 8.5 2.52832H7.5Z" fill="black"/>
</svg>
