<svg width="16" height="16" viewBox="0 0 16 16" fill="none" xmlns="http://www.w3.org/2000/svg">
<path fill-rule="evenodd" clip-rule="evenodd" d="M7.4999 1.31738C6.61625 1.31738 5.8999 2.03373 5.8999 2.91738V6.91738C5.8999 7.80104 6.61625 8.51738 7.4999 8.51738H8.4999C9.38356 8.51738 10.0999 7.80104 10.0999 6.91738V2.91738C10.0999 2.03373 9.38356 1.31738 8.4999 1.31738H7.4999ZM7.0999 2.91738C7.0999 2.69647 7.27899 2.51738 7.4999 2.51738H8.4999C8.72082 2.51738 8.8999 2.69647 8.8999 2.91738V6.91738C8.8999 7.1383 8.72082 7.31738 8.4999 7.31738H7.4999C7.27899 7.31738 7.0999 7.1383 7.0999 6.91738V2.91738Z" fill="black"/>
<path fill-rule="evenodd" clip-rule="evenodd" d="M1.26318 9.08291C1.26318 8.19925 1.97953 7.48291 2.86318 7.48291H3.86318C4.74684 7.48291 5.46318 8.19925 5.46318 9.08291V13.0829C5.46318 13.9666 4.74684 14.6829 3.86318 14.6829H2.86318C1.97953 14.6829 1.26318 13.9666 1.26318 13.0829V9.08291ZM2.86318 8.68291C2.64227 8.68291 2.46318 8.862 2.46318 9.08291V13.0829C2.46318 13.3038 2.64227 13.4829 2.86318 13.4829H3.86318C4.0841 13.4829 4.26318 13.3038 4.26318 13.0829V9.08291C4.26318 8.862 4.0841 8.68291 3.86318 8.68291H2.86318Z" fill="black"/>
<path fill-rule="evenodd" clip-rule="evenodd" d="M10.5366 9.08291C10.5366 8.19925 11.253 7.48291 12.1366 7.48291H13.1366C14.0203 7.48291 14.7366 8.19925 14.7366 9.08291V13.0829C14.7366 13.9666 14.0203 14.6829 13.1366 14.6829H12.1366C11.253 14.6829 10.5366 13.9666 10.5366 13.0829V9.08291ZM12.1366 8.68291C11.9157 8.68291 11.7366 8.862 11.7366 9.08291V13.0829C11.7366 13.3038 11.9157 13.4829 12.1366 13.4829H13.1366C13.3575 13.4829 13.5366 13.3038 13.5366 13.0829V9.08291C13.5366 8.862 13.3575 8.68291 13.1366 8.68291H12.1366Z" fill="black"/>
</svg>
