<svg width="16" height="16" viewBox="0 0 16 16" fill="none" xmlns="http://www.w3.org/2000/svg">
<path d="M4.71549 7.38216C4.71549 7.01397 5.01397 6.71549 5.38216 6.71549H9.38216C9.75035 6.71549 10.0488 7.01397 10.0488 7.38216C10.0488 7.75035 9.75035 8.04883 9.38216 8.04883H5.38216C5.01397 8.04883 4.71549 7.75035 4.71549 7.38216Z" fill="black"/>
<path fill-rule="evenodd" clip-rule="evenodd" d="M1.04883 7.38216C1.04883 3.88437 3.88437 1.04883 7.38216 1.04883C10.88 1.04883 13.7155 3.88437 13.7155 7.38216C13.7155 8.89095 13.1879 10.2765 12.3071 11.3644L14.7558 13.8131C15.0161 14.0734 15.0161 14.4955 14.7558 14.7559C14.4954 15.0162 14.0733 15.0162 13.813 14.7559L11.3643 12.3072C10.2764 13.1879 8.89089 13.7155 7.38216 13.7155C3.88437 13.7155 1.04883 10.88 1.04883 7.38216ZM7.38216 2.38216C4.62075 2.38216 2.38216 4.62075 2.38216 7.38216C2.38216 10.1436 4.62075 12.3822 7.38216 12.3822C10.1436 12.3822 12.3822 10.1436 12.3822 7.38216C12.3822 4.62075 10.1436 2.38216 7.38216 2.38216Z" fill="black"/>
</svg>
