<svg width="16" height="16" viewBox="0 0 16 16" fill="none" xmlns="http://www.w3.org/2000/svg">
<path d="M7.5 14.1406C7.5 14.4168 7.72386 14.6406 8 14.6406C8.27614 14.6406 8.5 14.4168 8.5 14.1406V8.47424H14.1664C14.4425 8.47424 14.6664 8.25039 14.6664 7.97424C14.6664 7.6981 14.4425 7.47424 14.1664 7.47424H8.5V1.80786C8.5 1.53172 8.27614 1.30786 8 1.30786C7.72386 1.30786 7.5 1.53172 7.5 1.80786V7.47424H1.83362C1.55748 7.47424 1.33362 7.6981 1.33362 7.97424C1.33362 8.25038 1.55748 8.47424 1.83362 8.47424H7.5V14.1406Z" fill="black"/>
</svg>
